# WaveFront *.obj file
# Vertices: 168
# Triangles : 140

v 1.4958776235580444 1.0 -2.25
v -1.4958776235580444 1.0 -2.25
v -1.4958776235580444 0.800000011920929 -2.25
v 1.4958776235580444 0.800000011920929 -2.25
v -1.4958776235580444 1.0 -2.25
v -1.6071380376815796 1.0 -2.23746395111084
v -1.7128194570541382 1.0 -2.20048451423645
v -1.8076225519180298 1.0 -2.140915632247925
v -1.8867933750152588 1.0 -2.0617449283599854
v -1.946362018585205 1.0 -1.9669418334960938
v -1.9833415746688843 1.0 -1.8612604141235352
v -1.9958776235580444 1.0 -1.75
v -1.9958776235580444 0.800000011920929 -1.75
v -1.9833415746688843 0.800000011920929 -1.8612604141235352
v -1.946362018585205 0.800000011920929 -1.9669418334960938
v -1.8867933750152588 0.800000011920929 -2.0617449283599854
v -1.8076225519180298 0.800000011920929 -2.140915632247925
v -1.7128194570541382 0.800000011920929 -2.20048451423645
v -1.6071380376815796 0.800000011920929 -2.23746395111084
v -1.4958776235580444 0.800000011920929 -2.25
v -1.9958776235580444 1.0 -1.75
v -1.9958776235580444 1.0 1.75
v -1.9958776235580444 0.800000011920929 1.75
v -1.9958776235580444 0.800000011920929 -1.75
v -1.9958776235580444 1.0 1.75
v -1.9833415746688843 1.0 1.8612604141235352
v -1.946362018585205 1.0 1.9669418334960938
v -1.8867933750152588 1.0 2.0617449283599854
v -1.8076225519180298 1.0 2.140915632247925
v -1.7128194570541382 1.0 2.20048451423645
v -1.6071380376815796 1.0 2.23746395111084
v -1.4958776235580444 1.0 2.25
v -1.4958776235580444 0.800000011920929 2.25
v -1.6071380376815796 0.800000011920929 2.23746395111084
v -1.7128194570541382 0.800000011920929 2.20048451423645
v -1.8076225519180298 0.800000011920929 2.140915632247925
v -1.8867933750152588 0.800000011920929 2.0617449283599854
v -1.946362018585205 0.800000011920929 1.9669418334960938
v -1.9833415746688843 0.800000011920929 1.8612604141235352
v -1.9958776235580444 0.800000011920929 1.75
v -1.4958776235580444 1.0 2.25
v 1.4958776235580444 1.0 2.25
v 1.4958776235580444 0.800000011920929 2.25
v -1.4958776235580444 0.800000011920929 2.25
v 1.4958776235580444 1.0 2.25
v 1.6071380376815796 1.0 2.23746395111084
v 1.7128194570541382 1.0 2.20048451423645
v 1.8076225519180298 1.0 2.140915632247925
v 1.8867933750152588 1.0 2.0617449283599854
v 1.946362018585205 1.0 1.9669418334960938
v 1.9833415746688843 1.0 1.8612604141235352
v 1.9958776235580444 1.0 1.75
v 1.9958776235580444 0.800000011920929 1.75
v 1.9833415746688843 0.800000011920929 1.8612604141235352
v 1.946362018585205 0.800000011920929 1.9669418334960938
v 1.8867933750152588 0.800000011920929 2.0617449283599854
v 1.8076225519180298 0.800000011920929 2.140915632247925
v 1.7128194570541382 0.800000011920929 2.20048451423645
v 1.6071380376815796 0.800000011920929 2.23746395111084
v 1.4958776235580444 0.800000011920929 2.25
v 1.9958776235580444 1.0 1.75
v 1.9958776235580444 1.0 -1.75
v 1.9958776235580444 0.800000011920929 -1.75
v 1.9958776235580444 0.800000011920929 1.75
v 1.9958776235580444 1.0 -1.75
v 1.9833415746688843 1.0 -1.8612604141235352
v 1.946362018585205 1.0 -1.9669418334960938
v 1.8867933750152588 1.0 -2.0617449283599854
v 1.8076225519180298 1.0 -2.140915632247925
v 1.7128194570541382 1.0 -2.20048451423645
v 1.6071380376815796 1.0 -2.23746395111084
v 1.4958776235580444 1.0 -2.25
v 1.4958776235580444 0.800000011920929 -2.25
v 1.6071380376815796 0.800000011920929 -2.23746395111084
v 1.7128194570541382 0.800000011920929 -2.20048451423645
v 1.8076225519180298 0.800000011920929 -2.140915632247925
v 1.8867933750152588 0.800000011920929 -2.0617449283599854
v 1.946362018585205 0.800000011920929 -1.9669418334960938
v 1.9833415746688843 0.800000011920929 -1.8612604141235352
v 1.9958776235580444 0.800000011920929 -1.75
v 1.9958776235580444 0.800000011920929 -1.75
v 1.9833415746688843 0.800000011920929 -1.8612604141235352
v 1.946362018585205 0.800000011920929 -1.9669418334960938
v 1.8867933750152588 0.800000011920929 -2.0617449283599854
v 1.8076225519180298 0.800000011920929 -2.140915632247925
v 1.7128194570541382 0.800000011920929 -2.20048451423645
v 1.6071380376815796 0.800000011920929 -2.23746395111084
v 1.4958776235580444 0.800000011920929 -2.25
v -1.4958776235580444 0.800000011920929 -2.25
v -1.6071380376815796 0.800000011920929 -2.23746395111084
v -1.7128194570541382 0.800000011920929 -2.20048451423645
v -1.8076225519180298 0.800000011920929 -2.140915632247925
v -1.8867933750152588 0.800000011920929 -2.0617449283599854
v -1.946362018585205 0.800000011920929 -1.9669418334960938
v -1.9833415746688843 0.800000011920929 -1.8612604141235352
v -1.9958776235580444 0.800000011920929 -1.75
v -1.9958776235580444 0.800000011920929 1.75
v -1.9833415746688843 0.800000011920929 1.8612604141235352
v -1.946362018585205 0.800000011920929 1.9669418334960938
v -1.8867933750152588 0.800000011920929 2.0617449283599854
v -1.8076225519180298 0.800000011920929 2.140915632247925
v -1.7128194570541382 0.800000011920929 2.20048451423645
v -1.6071380376815796 0.800000011920929 2.23746395111084
v -1.4958776235580444 0.800000011920929 2.25
v 1.4958776235580444 0.800000011920929 2.25
v 1.6071380376815796 0.800000011920929 2.23746395111084
v 1.7128194570541382 0.800000011920929 2.20048451423645
v 1.8076225519180298 0.800000011920929 2.140915632247925
v 1.8867933750152588 0.800000011920929 2.0617449283599854
v 1.946362018585205 0.800000011920929 1.9669418334960938
v 1.9833415746688843 0.800000011920929 1.8612604141235352
v 1.9958776235580444 0.800000011920929 1.75
v -2.5 0.0 2.75
v 2.5 0.0 2.75
v 2.5 1.0 2.75
v -2.5 1.0 2.75
v -2.5 0.0 -2.75
v -2.5 0.0 2.75
v -2.5 1.0 2.75
v -2.5 1.0 -2.75
v 2.5 0.0 -2.75
v -2.5 0.0 -2.75
v -2.5 1.0 -2.75
v 2.5 1.0 -2.75
v 2.5 0.0 2.75
v 2.5 0.0 -2.75
v 2.5 1.0 -2.75
v 2.5 1.0 2.75
v -1.4958776235580444 1.0 -2.25
v 1.4958776235580444 1.0 -2.25
v 1.6071380376815796 1.0 -2.23746395111084
v 1.7128194570541382 1.0 -2.20048451423645
v 1.8076225519180298 1.0 -2.140915632247925
v 1.8867933750152588 1.0 -2.0617449283599854
v 1.946362018585205 1.0 -1.9669418334960938
v 1.9833415746688843 1.0 -1.8612604141235352
v 1.9958776235580444 1.0 -1.75
v 1.9958776235580444 1.0 1.75
v 1.9833415746688843 1.0 1.8612604141235352
v 1.946362018585205 1.0 1.9669418334960938
v 1.8867933750152588 1.0 2.0617449283599854
v 1.8076225519180298 1.0 2.140915632247925
v 1.7128194570541382 1.0 2.20048451423645
v 1.6071380376815796 1.0 2.23746395111084
v 1.4958776235580444 1.0 2.25
v -1.4958776235580444 1.0 2.25
v -1.6071380376815796 1.0 2.23746395111084
v -1.7128194570541382 1.0 2.20048451423645
v -1.8076225519180298 1.0 2.140915632247925
v -1.8867933750152588 1.0 2.0617449283599854
v -1.946362018585205 1.0 1.9669418334960938
v -1.9833415746688843 1.0 1.8612604141235352
v -1.9958776235580444 1.0 1.75
v -1.9958776235580444 1.0 -1.75
v -1.9833415746688843 1.0 -1.8612604141235352
v -1.946362018585205 1.0 -1.9669418334960938
v -1.8867933750152588 1.0 -2.0617449283599854
v -1.8076225519180298 1.0 -2.140915632247925
v -1.7128194570541382 1.0 -2.20048451423645
v -1.6071380376815796 1.0 -2.23746395111084
v 2.5 1.0 2.75
v 2.5 1.0 -2.75
v -2.5 1.0 -2.75
v -2.5 1.0 2.75
v 2.5 0.0 -2.75
v 2.5 0.0 2.75
v -2.5 0.0 2.75
v -2.5 0.0 -2.75
vn 0.0 0.0 1.0
vn 0.0 0.0 1.0
vn 0.0 0.0 1.0
vn 0.0 0.0 1.0
vn -0.0 0.0 1.0
vn 0.22252093255519867 0.0 0.9749279022216797
vn 0.4338837265968323 0.0 0.9009688496589661
vn 0.6234897971153259 0.0 0.7818315029144287
vn 0.7818315029144287 0.0 0.6234897971153259
vn 0.9009688496589661 0.0 0.4338837265968323
vn 0.9749279022216797 0.0 0.22252093255519867
vn 1.0 0.0 -3.82856880455694e-16
vn 1.0 0.0 -3.82856880455694e-16
vn 0.9749279022216797 0.0 0.22252093255519867
vn 0.9009688496589661 0.0 0.4338837265968323
vn 0.7818315029144287 0.0 0.6234897971153259
vn 0.6234897971153259 0.0 0.7818315029144287
vn 0.4338837265968323 0.0 0.9009688496589661
vn 0.22252093255519867 0.0 0.9749279022216797
vn -4.440892098500626e-16 0.0 1.0
vn 1.0 -0.0 -6.34413185289139e-17
vn 1.0 -0.0 -6.34413185289139e-17
vn 1.0 -0.0 -6.34413185289139e-17
vn 1.0 -0.0 -6.34413185289139e-17
vn 1.0 0.0 0.0
vn 0.9749279022216797 0.0 -0.22252093255519867
vn 0.9009688496589661 0.0 -0.4338837265968323
vn 0.7818315029144287 0.0 -0.6234897971153259
vn 0.6234897971153259 0.0 -0.7818315029144287
vn 0.4338837265968323 0.0 -0.9009688496589661
vn 0.22252093255519867 0.0 -0.9749279022216797
vn 6.123234262925839e-17 0.0 -1.0
vn -3.82856880455694e-16 -0.0 -1.0
vn 0.22252093255519867 0.0 -0.9749279022216797
vn 0.4338837265968323 0.0 -0.9009688496589661
vn 0.6234897971153259 0.0 -0.7818315029144287
vn 0.7818315029144287 0.0 -0.6234897971153259
vn 0.9009688496589661 0.0 -0.4338837265968323
vn 0.9749279022216797 0.0 -0.22252093255519867
vn 1.0 0.0 0.0
vn 0.0 -0.0 -1.0
vn 0.0 -0.0 -1.0
vn 0.0 -0.0 -1.0
vn 0.0 -0.0 -1.0
vn -0.0 -0.0 -1.0
vn -0.22252093255519867 -0.0 -0.9749279022216797
vn -0.4338837265968323 -0.0 -0.9009688496589661
vn -0.6234897971153259 -0.0 -0.7818315029144287
vn -0.7818315029144287 -0.0 -0.6234897971153259
vn -0.9009688496589661 -0.0 -0.4338837265968323
vn -0.9749279022216797 -0.0 -0.22252093255519867
vn -1.0 -0.0 -6.123234262925839e-17
vn -1.0 -0.0 -6.123234262925839e-17
vn -0.9749279022216797 -0.0 -0.22252093255519867
vn -0.9009688496589661 -0.0 -0.4338837265968323
vn -0.7818315029144287 -0.0 -0.6234897971153259
vn -0.6234897971153259 -0.0 -0.7818315029144287
vn -0.4338837265968323 -0.0 -0.9009688496589661
vn -0.22252093255519867 -0.0 -0.9749279022216797
vn -0.0 -0.0 -1.0
vn -1.0 -0.0 -1.268826370578278e-16
vn -1.0 -0.0 -1.268826370578278e-16
vn -1.0 -0.0 -1.268826370578278e-16
vn -1.0 -0.0 -1.268826370578278e-16
vn -1.0 -0.0 -4.440892098500626e-16
vn -0.9749279022216797 0.0 0.22252093255519867
vn -0.9009688496589661 0.0 0.4338837265968323
vn -0.7818315029144287 0.0 0.6234897971153259
vn -0.6234897971153259 0.0 0.7818315029144287
vn -0.4338837265968323 0.0 0.9009688496589661
vn -0.22252093255519867 0.0 0.9749279022216797
vn 8.269460903057566e-16 0.0 1.0
vn 8.269460903057566e-16 0.0 1.0
vn -0.22252093255519867 0.0 0.9749279022216797
vn -0.4338837265968323 0.0 0.9009688496589661
vn -0.6234897971153259 0.0 0.7818315029144287
vn -0.7818315029144287 0.0 0.6234897971153259
vn -0.9009688496589661 0.0 0.4338837265968323
vn -0.9749279022216797 0.0 0.22252093255519867
vn -1.0 -0.0 -4.440892098500626e-16
vn 0.0 1.0 0.0
vn 0.0 1.0 0.0
vn 0.0 1.0 0.0
vn 0.0 1.0 0.0
vn 0.0 1.0 0.0
vn 0.0 1.0 0.0
vn 0.0 1.0 0.0
vn 0.0 1.0 0.0
vn 0.0 1.0 0.0
vn 0.0 1.0 0.0
vn 0.0 1.0 0.0
vn 0.0 1.0 0.0
vn 0.0 1.0 0.0
vn 0.0 1.0 0.0
vn 0.0 1.0 0.0
vn 0.0 1.0 0.0
vn 0.0 1.0 0.0
vn 0.0 1.0 0.0
vn 0.0 1.0 0.0
vn 0.0 1.0 0.0
vn 0.0 1.0 0.0
vn 0.0 1.0 0.0
vn 0.0 1.0 0.0
vn 0.0 1.0 0.0
vn 0.0 1.0 0.0
vn 0.0 1.0 0.0
vn 0.0 1.0 0.0
vn 0.0 1.0 0.0
vn 0.0 1.0 0.0
vn 0.0 1.0 0.0
vn 0.0 1.0 0.0
vn 0.0 1.0 0.0
vn 0.0 0.0 1.0
vn 0.0 0.0 1.0
vn 0.0 0.0 1.0
vn 0.0 0.0 1.0
vn -1.0 0.0 0.0
vn -1.0 0.0 0.0
vn -1.0 0.0 0.0
vn -1.0 0.0 0.0
vn 0.0 0.0 -1.0
vn 0.0 0.0 -1.0
vn 0.0 0.0 -1.0
vn 0.0 0.0 -1.0
vn 1.0 -0.0 0.0
vn 1.0 -0.0 0.0
vn 1.0 -0.0 0.0
vn 1.0 -0.0 0.0
vn 0.0 1.0 0.0
vn 0.0 1.0 0.0
vn 0.0 1.0 0.0
vn 0.0 1.0 0.0
vn 0.0 1.0 0.0
vn 0.0 1.0 0.0
vn 0.0 1.0 0.0
vn 0.0 1.0 0.0
vn 0.0 1.0 0.0
vn 0.0 1.0 0.0
vn 0.0 1.0 0.0
vn 0.0 1.0 0.0
vn 0.0 1.0 0.0
vn 0.0 1.0 0.0
vn 0.0 1.0 0.0
vn 0.0 1.0 0.0
vn 0.0 1.0 0.0
vn 0.0 1.0 0.0
vn 0.0 1.0 0.0
vn 0.0 1.0 0.0
vn 0.0 1.0 0.0
vn 0.0 1.0 0.0
vn 0.0 1.0 0.0
vn 0.0 1.0 0.0
vn 0.0 1.0 0.0
vn 0.0 1.0 0.0
vn 0.0 1.0 0.0
vn 0.0 1.0 0.0
vn 0.0 1.0 0.0
vn 0.0 1.0 0.0
vn 0.0 1.0 0.0
vn 0.0 1.0 0.0
vn 0.0 1.0 0.0
vn 0.0 1.0 0.0
vn 0.0 1.0 0.0
vn 0.0 1.0 0.0
vn -0.0 -1.0 -0.0
vn -0.0 -1.0 -0.0
vn -0.0 -1.0 -0.0
vn -0.0 -1.0 -0.0
g d96ca736-e2f5-11ea-8bd9-54bf646e7e1f
f 1//1 2//2 4//4
f 4//4 2//2 3//3
g d96cf552-e2f5-11ea-a83c-54bf646e7e1f
f 20//20 5//5 19//19
f 19//19 5//5 6//6
f 19//19 6//6 18//18
f 18//18 6//6 7//7
f 18//18 7//7 17//17
f 17//17 7//7 8//8
f 17//17 8//8 16//16
f 16//16 8//8 9//9
f 16//16 9//9 15//15
f 15//15 9//9 10//10
f 15//15 10//10 14//14
f 14//14 10//10 11//11
f 14//14 11//11 13//13
f 13//13 11//11 12//12
g d96d4386-e2f5-11ea-b544-54bf646e7e1f
f 21//21 22//22 24//24
f 24//24 22//22 23//23
g d96d91a2-e2f5-11ea-b919-54bf646e7e1f
f 40//40 25//25 39//39
f 39//39 25//25 26//26
f 39//39 26//26 38//38
f 38//38 26//26 27//27
f 38//38 27//27 37//37
f 37//37 27//27 28//28
f 37//37 28//28 36//36
f 36//36 28//28 29//29
f 36//36 29//29 35//35
f 35//35 29//29 30//30
f 35//35 30//30 34//34
f 34//34 30//30 31//31
f 34//34 31//31 33//33
f 33//33 31//31 32//32
g d96e06d8-e2f5-11ea-8655-54bf646e7e1f
f 41//41 42//42 44//44
f 44//44 42//42 43//43
g d96e54ee-e2f5-11ea-a084-54bf646e7e1f
f 60//60 45//45 59//59
f 59//59 45//45 46//46
f 59//59 46//46 58//58
f 58//58 46//46 47//47
f 58//58 47//47 57//57
f 57//57 47//47 48//48
f 57//57 48//48 56//56
f 56//56 48//48 49//49
f 56//56 49//49 55//55
f 55//55 49//49 50//50
f 55//55 50//50 54//54
f 54//54 50//50 51//51
f 54//54 51//51 53//53
f 53//53 51//51 52//52
g d96eca24-e2f5-11ea-889c-54bf646e7e1f
f 61//61 62//62 64//64
f 64//64 62//62 63//63
g d96f1840-e2f5-11ea-8f3f-54bf646e7e1f
f 80//80 65//65 79//79
f 79//79 65//65 66//66
f 79//79 66//66 78//78
f 78//78 66//66 67//67
f 78//78 67//67 77//77
f 77//77 67//67 68//68
f 77//77 68//68 76//76
f 76//76 68//68 69//69
f 76//76 69//69 75//75
f 75//75 69//69 70//70
f 75//75 70//70 74//74
f 74//74 70//70 71//71
f 74//74 71//71 73//73
f 73//73 71//71 72//72
g d96f8d74-e2f5-11ea-bf22-54bf646e7e1f
f 82//82 83//83 81//81
f 81//81 83//83 84//84
f 81//81 84//84 85//85
f 85//85 86//86 81//81
f 81//81 86//86 87//87
f 81//81 87//87 88//88
f 81//81 88//88 105//105
f 105//105 88//88 89//89
f 105//105 89//89 104//104
f 104//104 89//89 96//96
f 104//104 96//96 97//97
f 89//89 90//90 96//96
f 96//96 90//90 91//91
f 96//96 91//91 92//92
f 92//92 93//93 96//96
f 96//96 93//93 94//94
f 96//96 94//94 95//95
f 98//98 99//99 97//97
f 97//97 99//99 100//100
f 97//97 100//100 101//101
f 101//101 102//102 97//97
f 97//97 102//102 103//103
f 97//97 103//103 104//104
f 81//81 105//105 112//112
f 112//112 105//105 106//106
f 112//112 106//106 107//107
f 107//107 108//108 112//112
f 112//112 108//108 109//109
f 112//112 109//109 110//110
f 110//110 111//111 112//112
g d8c851a8-e2f5-11ea-be0e-54bf646e7e1f
f 113//113 114//114 116//116
f 116//116 114//114 115//115
g d8c8c6dc-e2f5-11ea-bef2-54bf646e7e1f
f 117//117 118//118 120//120
f 120//120 118//118 119//119
g d8c914f6-e2f5-11ea-98fc-54bf646e7e1f
f 121//121 122//122 124//124
f 124//124 122//122 123//123
g d8c98a30-e2f5-11ea-b2fc-54bf646e7e1f
f 125//125 126//126 128//128
f 128//128 126//126 127//127
g d8c9d848-e2f5-11ea-85e5-54bf646e7e1f
f 160//160 129//129 163//163
f 163//163 129//129 130//130
f 163//163 130//130 162//162
f 162//162 130//130 131//131
f 162//162 131//131 132//132
f 132//132 133//133 162//162
f 162//162 133//133 134//134
f 162//162 134//134 135//135
f 135//135 136//136 162//162
f 162//162 136//136 137//137
f 162//162 137//137 138//138
f 162//162 138//138 161//161
f 161//161 138//138 139//139
f 161//161 139//139 140//140
f 140//140 141//141 161//161
f 161//161 141//141 142//142
f 161//161 142//142 143//143
f 143//143 144//144 161//161
f 161//161 144//144 145//145
f 161//161 145//145 164//164
f 164//164 145//145 146//146
f 164//164 146//146 147//147
f 147//147 148//148 164//164
f 164//164 148//148 149//149
f 164//164 149//149 150//150
f 150//150 151//151 164//164
f 164//164 151//151 152//152
f 164//164 152//152 153//153
f 153//153 154//154 164//164
f 164//164 154//154 163//163
f 163//163 154//154 155//155
f 163//163 155//155 156//156
f 156//156 157//157 163//163
f 163//163 157//157 158//158
f 163//163 158//158 159//159
f 159//159 160//160 163//163
g d8ca4d68-e2f5-11ea-8fa6-54bf646e7e1f
f 166//166 167//167 165//165
f 165//165 167//167 168//168

# End of file