# WaveFront *.obj file
# Vertices: 78
# Triangles : 48

v -0.949999988079071 2.4000000953674316 0.47999998927116394
v -0.949999988079071 2.4000000953674316 0.0
v -0.949999988079071 3.630000114440918 3.885780586188048e-16
v -0.949999988079071 3.630000114440918 6.195000171661377
v -0.949999988079071 0.03891553357243538 6.195000171661377
v -0.949999988079071 0.03891553357243538 8.095000267028809
v -0.949999988079071 4.130000114440918 8.095000267028809
v -0.949999988079071 5.53000020980835 6.695000171661377
v -0.949999988079071 5.53000020980835 -0.6650000214576721
v -0.949999988079071 4.130000114440918 -2.065000057220459
v -0.949999988079071 1.399999976158142 -2.065000057220459
v -0.949999988079071 0.0 -0.6650000214576721
v -0.949999988079071 0.0 0.47999998927116394
v -0.949999988079071 2.4000000953674316 0.0
v 0.949999988079071 2.4000000953674316 0.0
v 0.949999988079071 3.630000114440918 3.885780586188048e-16
v -0.949999988079071 3.630000114440918 3.885780586188048e-16
v -0.949999988079071 3.630000114440918 3.885780586188048e-16
v 0.949999988079071 3.630000114440918 3.885780586188048e-16
v 0.949999988079071 3.630000114440918 6.195000171661377
v -0.949999988079071 3.630000114440918 6.195000171661377
v -0.949999988079071 3.630000114440918 6.195000171661377
v 0.949999988079071 3.630000114440918 6.195000171661377
v 0.949999988079071 0.03891553357243538 6.195000171661377
v -0.949999988079071 0.03891553357243538 6.195000171661377
v -0.949999988079071 0.03891553357243538 6.195000171661377
v 0.949999988079071 0.03891553357243538 6.195000171661377
v 0.949999988079071 0.03891553357243538 8.095000267028809
v -0.949999988079071 0.03891553357243538 8.095000267028809
v -0.949999988079071 0.03891553357243538 8.095000267028809
v 0.949999988079071 0.03891553357243538 8.095000267028809
v 0.949999988079071 4.130000114440918 8.095000267028809
v -0.949999988079071 4.130000114440918 8.095000267028809
v -0.949999988079071 4.130000114440918 8.095000267028809
v 0.949999988079071 4.130000114440918 8.095000267028809
v 0.949999988079071 5.53000020980835 6.695000171661377
v -0.949999988079071 5.53000020980835 6.695000171661377
v -0.949999988079071 5.53000020980835 6.695000171661377
v 0.949999988079071 5.53000020980835 6.695000171661377
v 0.949999988079071 5.53000020980835 -0.6650000214576721
v -0.949999988079071 5.53000020980835 -0.6650000214576721
v -0.949999988079071 5.53000020980835 -0.6650000214576721
v 0.949999988079071 5.53000020980835 -0.6650000214576721
v 0.949999988079071 4.130000114440918 -2.065000057220459
v -0.949999988079071 4.130000114440918 -2.065000057220459
v -0.949999988079071 4.130000114440918 -2.065000057220459
v 0.949999988079071 4.130000114440918 -2.065000057220459
v 0.949999988079071 1.399999976158142 -2.065000057220459
v -0.949999988079071 1.399999976158142 -2.065000057220459
v -0.949999988079071 1.399999976158142 -2.065000057220459
v 0.949999988079071 1.399999976158142 -2.065000057220459
v 0.949999988079071 0.0 -0.6650000214576721
v -0.949999988079071 0.0 -0.6650000214576721
v -0.949999988079071 0.0 -0.6650000214576721
v 0.949999988079071 0.0 -0.6650000214576721
v 0.949999988079071 0.0 0.47999998927116394
v -0.949999988079071 0.0 0.47999998927116394
v -0.949999988079071 0.0 0.47999998927116394
v 0.949999988079071 0.0 0.47999998927116394
v 0.949999988079071 2.4000000953674316 0.47999998927116394
v -0.949999988079071 2.4000000953674316 0.47999998927116394
v -0.949999988079071 2.4000000953674316 0.47999998927116394
v 0.949999988079071 2.4000000953674316 0.47999998927116394
v 0.949999988079071 2.4000000953674316 0.0
v -0.949999988079071 2.4000000953674316 0.0
v 0.949999988079071 2.4000000953674316 0.0
v 0.949999988079071 2.4000000953674316 0.47999998927116394
v 0.949999988079071 0.0 0.47999998927116394
v 0.949999988079071 0.0 -0.6650000214576721
v 0.949999988079071 1.399999976158142 -2.065000057220459
v 0.949999988079071 4.130000114440918 -2.065000057220459
v 0.949999988079071 5.53000020980835 -0.6650000214576721
v 0.949999988079071 5.53000020980835 6.695000171661377
v 0.949999988079071 4.130000114440918 8.095000267028809
v 0.949999988079071 0.03891553357243538 8.095000267028809
v 0.949999988079071 0.03891553357243538 6.195000171661377
v 0.949999988079071 3.630000114440918 6.195000171661377
v 0.949999988079071 3.630000114440918 3.885780586188048e-16
vn -1.0 0.0 0.0
vn -1.0 0.0 0.0
vn -1.0 0.0 0.0
vn -1.0 0.0 0.0
vn -1.0 0.0 0.0
vn -1.0 0.0 0.0
vn -1.0 0.0 0.0
vn -1.0 0.0 0.0
vn -1.0 0.0 0.0
vn -1.0 0.0 0.0
vn -1.0 0.0 0.0
vn -1.0 0.0 0.0
vn -1.0 0.0 0.0
vn 0.0 -1.0704629672087947e-16 1.0
vn 0.0 -1.0704629672087947e-16 1.0
vn 0.0 -1.0704629672087947e-16 1.0
vn 0.0 -1.0704629672087947e-16 1.0
vn 0.0 -1.0 1.4337019955058177e-16
vn 0.0 -1.0 1.4337019955058177e-16
vn 0.0 -1.0 1.4337019955058177e-16
vn 0.0 -1.0 1.4337019955058177e-16
vn 0.0 1.236643750794045e-15 -1.0
vn 0.0 1.236643750794045e-15 -1.0
vn 0.0 1.236643750794045e-15 -1.0
vn 0.0 1.236643750794045e-15 -1.0
vn 0.0 -1.0 0.0
vn 0.0 -1.0 0.0
vn 0.0 -1.0 0.0
vn 0.0 -1.0 0.0
vn 0.0 -8.684039061508816e-16 1.0
vn 0.0 -8.684039061508816e-16 1.0
vn 0.0 -8.684039061508816e-16 1.0
vn 0.0 -8.684039061508816e-16 1.0
vn -0.0 0.7071067690849304 0.7071067690849304
vn -0.0 0.7071067690849304 0.7071067690849304
vn -0.0 0.7071067690849304 0.7071067690849304
vn -0.0 0.7071067690849304 0.7071067690849304
vn 0.0 1.0 0.0
vn 0.0 1.0 0.0
vn 0.0 1.0 0.0
vn 0.0 1.0 0.0
vn 0.0 0.7071067690849304 -0.7071067690849304
vn 0.0 0.7071067690849304 -0.7071067690849304
vn 0.0 0.7071067690849304 -0.7071067690849304
vn 0.0 0.7071067690849304 -0.7071067690849304
vn 0.0 -4.880101445662438e-16 -1.0
vn 0.0 -4.880101445662438e-16 -1.0
vn 0.0 -4.880101445662438e-16 -1.0
vn 0.0 -4.880101445662438e-16 -1.0
vn 0.0 -0.7071067690849304 -0.7071067690849304
vn 0.0 -0.7071067690849304 -0.7071067690849304
vn 0.0 -0.7071067690849304 -0.7071067690849304
vn 0.0 -0.7071067690849304 -0.7071067690849304
vn 0.0 -1.0 0.0
vn 0.0 -1.0 0.0
vn 0.0 -1.0 0.0
vn 0.0 -1.0 0.0
vn -0.0 0.0 1.0
vn -0.0 0.0 1.0
vn -0.0 0.0 1.0
vn -0.0 0.0 1.0
vn 0.0 1.0 0.0
vn 0.0 1.0 0.0
vn 0.0 1.0 0.0
vn 0.0 1.0 0.0
vn 1.0 0.0 0.0
vn 1.0 0.0 0.0
vn 1.0 0.0 0.0
vn 1.0 0.0 0.0
vn 1.0 0.0 0.0
vn 1.0 0.0 0.0
vn 1.0 0.0 0.0
vn 1.0 0.0 0.0
vn 1.0 0.0 0.0
vn 1.0 0.0 0.0
vn 1.0 0.0 0.0
vn 1.0 0.0 0.0
vn 1.0 0.0 0.0
g 61ee1800-e2f6-11ea-bc5e-54bf646e7e1f
f 1//1 2//2 13//13
f 13//13 2//2 11//11
f 13//13 11//11 12//12
f 11//11 2//2 10//10
f 10//10 2//2 3//3
f 10//10 3//3 9//9
f 9//9 3//3 8//8
f 8//8 3//3 4//4
f 8//8 4//4 7//7
f 7//7 4//4 6//6
f 6//6 4//4 5//5
g 61ee6622-e2f6-11ea-ab34-54bf646e7e1f
f 15//15 16//16 14//14
f 14//14 16//16 17//17
g 61ee8d30-e2f6-11ea-96ef-54bf646e7e1f
f 19//19 20//20 18//18
f 18//18 20//20 21//21
g 61eeb440-e2f6-11ea-a8b1-54bf646e7e1f
f 23//23 24//24 22//22
f 22//22 24//24 25//25
g 61eedb52-e2f6-11ea-9ba0-54bf646e7e1f
f 27//27 28//28 26//26
f 26//26 28//28 29//29
g 61ef2974-e2f6-11ea-a97d-54bf646e7e1f
f 31//31 32//32 30//30
f 30//30 32//32 33//33
g 61ef507e-e2f6-11ea-9778-54bf646e7e1f
f 35//35 36//36 34//34
f 34//34 36//36 37//37
g 61ef9e9e-e2f6-11ea-ae19-54bf646e7e1f
f 39//39 40//40 38//38
f 38//38 40//40 41//41
g 61efecb8-e2f6-11ea-a963-54bf646e7e1f
f 43//43 44//44 42//42
f 42//42 44//44 45//45
g 61f03adc-e2f6-11ea-9c4a-54bf646e7e1f
f 47//47 48//48 46//46
f 46//46 48//48 49//49
g 61f088fe-e2f6-11ea-835e-54bf646e7e1f
f 51//51 52//52 50//50
f 50//50 52//52 53//53
g 61f0d712-e2f6-11ea-ae06-54bf646e7e1f
f 55//55 56//56 54//54
f 54//54 56//56 57//57
g 61f14c50-e2f6-11ea-80b9-54bf646e7e1f
f 59//59 60//60 58//58
f 58//58 60//60 61//61
g 61f19a6c-e2f6-11ea-94d9-54bf646e7e1f
f 63//63 64//64 62//62
f 62//62 64//64 65//65
g 61f20f9c-e2f6-11ea-a392-54bf646e7e1f
f 67//67 68//68 66//66
f 66//66 68//68 70//70
f 66//66 70//70 71//71
f 68//68 69//69 70//70
f 66//66 71//71 78//78
f 78//78 71//71 72//72
f 78//78 72//72 73//73
f 78//78 73//73 77//77
f 77//77 73//73 74//74
f 77//77 74//74 75//75
f 75//75 76//76 77//77

# End of file