# WaveFront *.obj file
# Vertices: 130
# Triangles : 112

v -3.174999952316284 2.5399999618530273 6.604000091552734
v -3.174999952316284 2.5399999618530273 5.968999862670898
v 3.174999952316284 2.5399999618530273 5.968999862670898
v 3.174999952316284 2.5399999618530273 6.604000091552734
v -3.174999952316284 2.5399999618530273 5.968999862670898
v -3.174999952316284 -5.079999923706055 2.5399999618530273
v 3.174999952316284 -5.079999923706055 2.5399999618530273
v 3.174999952316284 2.5399999618530273 5.968999862670898
v -3.174999952316284 2.5399999618530273 6.604000091552734
v 3.174999952316284 2.5399999618530273 6.604000091552734
v 3.174999952316284 5.079999923706055 6.604000091552734
v -3.174999952316284 5.079999923706055 6.604000091552734
v 0.7137399911880493 3.809999942779541 6.604000091552734
v 0.6872726082801819 3.6174352169036865 6.604000091552734
v 0.609833300113678 3.439152240753174 6.604000091552734
v 0.4871654808521271 3.2883732318878174 6.604000091552734
v 0.32836681604385376 3.1762807369232178 6.604000091552734
v 0.14521469175815582 3.1111884117126465 6.604000091552734
v -0.04870733991265297 3.097923994064331 6.604000091552734
v -0.23901697993278503 3.1374707221984863 6.604000091552734
v -0.4115998148918152 3.226895809173584 6.604000091552734
v -0.5536561608314514 3.359567403793335 6.604000091552734
v -0.6546503901481628 3.5256452560424805 6.604000091552734
v -0.7070921659469604 3.7128124237060547 6.604000091552734
v -0.7070921659469604 3.9071877002716064 6.604000091552734
v -0.6546503901481628 4.094354629516602 6.604000091552734
v -0.5536561608314514 4.260432720184326 6.604000091552734
v -0.4115998148918152 4.393104076385498 6.604000091552734
v -0.23901697993278503 4.482529163360596 6.604000091552734
v -0.04870733991265297 4.52207612991333 6.604000091552734
v 0.14521469175815582 4.5088114738464355 6.604000091552734
v 0.32836681604385376 4.443719387054443 6.604000091552734
v 0.4871654808521271 4.331626892089844 6.604000091552734
v 0.609833300113678 4.180847644805908 6.604000091552734
v 0.6872726082801819 4.002564907073975 6.604000091552734
v 3.174999952316284 2.5399999618530273 6.604000091552734
v 3.174999952316284 2.5399999618530273 5.968999862670898
v 3.174999952316284 -5.079999923706055 2.5399999618530273
v 3.174999952316284 -5.079999923706055 0.0
v 3.174999952316284 5.079999923706055 0.0
v 3.174999952316284 5.079999923706055 6.604000091552734
v 0.7137399911880493 3.809999942779541 2.7939999103546143
v 0.6872726082801819 3.6174352169036865 2.7939999103546143
v 0.609833300113678 3.439152240753174 2.7939999103546143
v 0.4871654808521271 3.2883732318878174 2.7939999103546143
v 0.32836681604385376 3.1762807369232178 2.7939999103546143
v 0.14521469175815582 3.1111884117126465 2.7939999103546143
v -0.04870733991265297 3.097923994064331 2.7939999103546143
v -0.23901697993278503 3.1374707221984863 2.7939999103546143
v -0.4115998148918152 3.226895809173584 2.7939999103546143
v -0.5536561608314514 3.359567403793335 2.7939999103546143
v -0.6546503901481628 3.5256452560424805 2.7939999103546143
v -0.7070921659469604 3.7128124237060547 2.7939999103546143
v -0.7070921659469604 3.9071877002716064 2.7939999103546143
v -0.6546503901481628 4.094354629516602 2.7939999103546143
v -0.5536561608314514 4.260432720184326 2.7939999103546143
v -0.4115998148918152 4.393104076385498 2.7939999103546143
v -0.23901697993278503 4.482529163360596 2.7939999103546143
v -0.04870733991265297 4.52207612991333 2.7939999103546143
v 0.14521469175815582 4.5088114738464355 2.7939999103546143
v 0.32836681604385376 4.443719387054443 2.7939999103546143
v 0.4871654808521271 4.331626892089844 2.7939999103546143
v 0.609833300113678 4.180847644805908 2.7939999103546143
v 0.6872726082801819 4.002564907073975 2.7939999103546143
v 0.7137399911880493 3.809999942779541 6.604000091552734
v 0.6872726082801819 4.002564907073975 6.604000091552734
v 0.609833300113678 4.180847644805908 6.604000091552734
v 0.4871654808521271 4.331626892089844 6.604000091552734
v 0.32836681604385376 4.443719387054443 6.604000091552734
v 0.14521469175815582 4.5088114738464355 6.604000091552734
v -0.04870733991265297 4.52207612991333 6.604000091552734
v -0.23901697993278503 4.482529163360596 6.604000091552734
v -0.4115998148918152 4.393104076385498 6.604000091552734
v -0.5536561608314514 4.260432720184326 6.604000091552734
v -0.6546503901481628 4.094354629516602 6.604000091552734
v -0.7070921659469604 3.9071877002716064 6.604000091552734
v -0.7070921659469604 3.7128124237060547 6.604000091552734
v -0.6546503901481628 3.5256452560424805 6.604000091552734
v -0.5536561608314514 3.359567403793335 6.604000091552734
v -0.4115998148918152 3.226895809173584 6.604000091552734
v -0.23901697993278503 3.1374707221984863 6.604000091552734
v -0.04870733991265297 3.097923994064331 6.604000091552734
v 0.14521469175815582 3.1111884117126465 6.604000091552734
v 0.32836681604385376 3.1762807369232178 6.604000091552734
v 0.4871654808521271 3.2883732318878174 6.604000091552734
v 0.609833300113678 3.439152240753174 6.604000091552734
v 0.6872726082801819 3.6174352169036865 6.604000091552734
v 0.7137399911880493 3.809999942779541 2.7939999103546143
v 0.7137399911880493 3.809999942779541 6.604000091552734
v 0.7137399911880493 3.809999942779541 2.7939999103546143
v 0.6872726082801819 4.002564907073975 2.7939999103546143
v 0.609833300113678 4.180847644805908 2.7939999103546143
v 0.4871654808521271 4.331626892089844 2.7939999103546143
v 0.32836681604385376 4.443719387054443 2.7939999103546143
v 0.14521469175815582 4.5088114738464355 2.7939999103546143
v -0.04870733991265297 4.52207612991333 2.7939999103546143
v -0.23901697993278503 4.482529163360596 2.7939999103546143
v -0.4115998148918152 4.393104076385498 2.7939999103546143
v -0.5536561608314514 4.260432720184326 2.7939999103546143
v -0.6546503901481628 4.094354629516602 2.7939999103546143
v -0.7070921659469604 3.9071877002716064 2.7939999103546143
v -0.7070921659469604 3.7128124237060547 2.7939999103546143
v -0.6546503901481628 3.5256452560424805 2.7939999103546143
v -0.5536561608314514 3.359567403793335 2.7939999103546143
v -0.4115998148918152 3.226895809173584 2.7939999103546143
v -0.23901697993278503 3.1374707221984863 2.7939999103546143
v -0.04870733991265297 3.097923994064331 2.7939999103546143
v 0.14521469175815582 3.1111884117126465 2.7939999103546143
v 0.32836681604385376 3.1762807369232178 2.7939999103546143
v 0.4871654808521271 3.2883732318878174 2.7939999103546143
v 0.609833300113678 3.439152240753174 2.7939999103546143
v 0.6872726082801819 3.6174352169036865 2.7939999103546143
v 3.174999952316284 -5.079999923706055 2.5399999618530273
v -3.174999952316284 -5.079999923706055 2.5399999618530273
v -3.174999952316284 -5.079999923706055 0.0
v 3.174999952316284 -5.079999923706055 0.0
v -3.174999952316284 2.5399999618530273 5.968999862670898
v -3.174999952316284 2.5399999618530273 6.604000091552734
v -3.174999952316284 5.079999923706055 6.604000091552734
v -3.174999952316284 5.079999923706055 0.0
v -3.174999952316284 -5.079999923706055 0.0
v -3.174999952316284 -5.079999923706055 2.5399999618530273
v 3.174999952316284 5.079999923706055 0.0
v -3.174999952316284 5.079999923706055 0.0
v -3.174999952316284 5.079999923706055 6.604000091552734
v 3.174999952316284 5.079999923706055 6.604000091552734
v 3.174999952316284 5.079999923706055 0.0
v 3.174999952316284 -5.079999923706055 0.0
v -3.174999952316284 -5.079999923706055 0.0
v -3.174999952316284 5.079999923706055 0.0
vn -0.0 -1.0 -0.0
vn -0.0 -1.0 -0.0
vn -0.0 -1.0 -0.0
vn -0.0 -1.0 -0.0
vn -0.0 -0.41036468744277954 0.911921501159668
vn -0.0 -0.41036468744277954 0.911921501159668
vn -0.0 -0.41036468744277954 0.911921501159668
vn -0.0 -0.41036468744277954 0.911921501159668
vn 0.0 0.0 1.0
vn 0.0 0.0 1.0
vn 0.0 0.0 1.0
vn 0.0 0.0 1.0
vn 0.0 0.0 1.0
vn 0.0 0.0 1.0
vn 0.0 0.0 1.0
vn 0.0 0.0 1.0
vn 0.0 0.0 1.0
vn 0.0 0.0 1.0
vn 0.0 0.0 1.0
vn 0.0 0.0 1.0
vn 0.0 0.0 1.0
vn 0.0 0.0 1.0
vn 0.0 0.0 1.0
vn 0.0 0.0 1.0
vn 0.0 0.0 1.0
vn 0.0 0.0 1.0
vn 0.0 0.0 1.0
vn 0.0 0.0 1.0
vn 0.0 0.0 1.0
vn 0.0 0.0 1.0
vn 0.0 0.0 1.0
vn 0.0 0.0 1.0
vn 0.0 0.0 1.0
vn 0.0 0.0 1.0
vn 0.0 0.0 1.0
vn 1.0 0.0 0.0
vn 1.0 0.0 0.0
vn 1.0 0.0 0.0
vn 1.0 0.0 0.0
vn 1.0 0.0 0.0
vn 1.0 0.0 0.0
vn -1.0 1.2246468525851679e-16 0.0
vn -0.9629172682762146 0.269796758890152 0.0
vn -0.8544194102287292 0.5195839405059814 0.0
vn -0.6825531721115112 0.7308359742164612 0.0
vn -0.4600650370121002 0.8878852128982544 0.0
vn -0.20345601439476013 0.9790840744972229 0.0
vn 0.06824241578578949 0.9976687431335449 0.0
vn 0.334879606962204 0.9422609210014343 0.0
vn 0.5766803026199341 0.8169698715209961 0.0
vn 0.7757112979888916 0.6310879588127136 0.0
vn 0.9172112941741943 0.39840108156204224 0.0
vn 0.9906859397888184 0.13616664707660675 0.0
vn 0.9906859397888184 -0.13616664707660675 0.0
vn 0.9172112941741943 -0.39840108156204224 0.0
vn 0.7757112979888916 -0.6310879588127136 0.0
vn 0.5766803026199341 -0.8169698715209961 0.0
vn 0.334879606962204 -0.9422609210014343 0.0
vn 0.06824241578578949 -0.9976687431335449 0.0
vn -0.20345601439476013 -0.9790840744972229 -0.0
vn -0.4600650370121002 -0.8878852128982544 -0.0
vn -0.6825531721115112 -0.7308359742164612 -0.0
vn -0.8544194102287292 -0.5195839405059814 -0.0
vn -0.9629172682762146 -0.269796758890152 -0.0
vn -1.0 -1.2246468525851679e-16 -0.0
vn -0.9629172682762146 -0.269796758890152 -0.0
vn -0.8544194102287292 -0.5195839405059814 -0.0
vn -0.6825531721115112 -0.7308359742164612 -0.0
vn -0.4600650370121002 -0.8878852128982544 -0.0
vn -0.20345601439476013 -0.9790840744972229 -0.0
vn 0.06824241578578949 -0.9976687431335449 0.0
vn 0.334879606962204 -0.9422609210014343 0.0
vn 0.5766803026199341 -0.8169698715209961 0.0
vn 0.7757112979888916 -0.6310879588127136 0.0
vn 0.9172112941741943 -0.39840108156204224 0.0
vn 0.9906859397888184 -0.13616664707660675 0.0
vn 0.9906859397888184 0.13616664707660675 0.0
vn 0.9172112941741943 0.39840108156204224 0.0
vn 0.7757112979888916 0.6310879588127136 0.0
vn 0.5766803026199341 0.8169698715209961 0.0
vn 0.334879606962204 0.9422609210014343 0.0
vn 0.06824241578578949 0.9976687431335449 0.0
vn -0.20345601439476013 0.9790840744972229 0.0
vn -0.4600650370121002 0.8878852128982544 0.0
vn -0.6825531721115112 0.7308359742164612 0.0
vn -0.8544194102287292 0.5195839405059814 0.0
vn -0.9629172682762146 0.269796758890152 0.0
vn -1.0 -1.2246468525851679e-16 -0.0
vn -1.0 1.2246468525851679e-16 0.0
vn 0.0 0.0 1.0
vn 0.0 0.0 1.0
vn 0.0 0.0 1.0
vn 0.0 0.0 1.0
vn 0.0 0.0 1.0
vn 0.0 0.0 1.0
vn 0.0 0.0 1.0
vn 0.0 0.0 1.0
vn 0.0 0.0 1.0
vn 0.0 0.0 1.0
vn 0.0 0.0 1.0
vn 0.0 0.0 1.0
vn 0.0 0.0 1.0
vn 0.0 0.0 1.0
vn 0.0 0.0 1.0
vn 0.0 0.0 1.0
vn 0.0 0.0 1.0
vn 0.0 0.0 1.0
vn 0.0 0.0 1.0
vn 0.0 0.0 1.0
vn 0.0 0.0 1.0
vn 0.0 0.0 1.0
vn 0.0 0.0 1.0
vn 0.0 -1.0 0.0
vn 0.0 -1.0 0.0
vn 0.0 -1.0 0.0
vn 0.0 -1.0 0.0
vn -1.0 1.7483826763446707e-16 0.0
vn -1.0 1.7483826763446707e-16 0.0
vn -1.0 1.7483826763446707e-16 0.0
vn -1.0 1.7483826763446707e-16 0.0
vn -1.0 1.7483826763446707e-16 0.0
vn -1.0 1.7483826763446707e-16 0.0
vn 0.0 1.0 -0.0
vn 0.0 1.0 -0.0
vn 0.0 1.0 -0.0
vn 0.0 1.0 -0.0
vn -0.0 -0.0 -1.0
vn -0.0 -0.0 -1.0
vn -0.0 -0.0 -1.0
vn -0.0 -0.0 -1.0
g 732840e4-e2f6-11ea-8ce9-54bf646e7e1f
f 1//1 2//2 4//4
f 4//4 2//2 3//3
g 73288ef8-e2f6-11ea-b7c4-54bf646e7e1f
f 5//5 6//6 8//8
f 8//8 6//6 7//7
g 72d73b34-e2f6-11ea-afbd-54bf646e7e1f
f 10//10 19//19 9//9
f 9//9 19//19 20//20
f 9//9 20//20 21//21
f 11//11 13//13 10//10
f 10//10 13//13 14//14
f 10//10 14//14 15//15
f 12//12 30//30 11//11
f 11//11 30//30 31//31
f 11//11 31//31 32//32
f 9//9 25//25 12//12
f 12//12 25//25 26//26
f 12//12 26//26 27//27
f 15//15 16//16 10//10
f 10//10 16//16 17//17
f 10//10 17//17 18//18
f 18//18 19//19 10//10
f 21//21 22//22 9//9
f 9//9 22//22 23//23
f 9//9 23//23 24//24
f 24//24 25//25 9//9
f 27//27 28//28 12//12
f 12//12 28//28 29//29
f 12//12 29//29 30//30
f 32//32 33//33 11//11
f 11//11 33//33 34//34
f 11//11 34//34 35//35
f 35//35 13//13 11//11
g 72d6ed06-e2f6-11ea-82da-54bf646e7e1f
f 36//36 37//37 41//41
f 41//41 37//37 40//40
f 40//40 37//37 38//38
f 40//40 38//38 39//39
g 7302428a-e2f6-11ea-bc6d-54bf646e7e1f
f 43//43 87//87 42//42
f 42//42 87//87 89//89
f 88//88 65//65 64//64
f 64//64 65//65 66//66
f 64//64 66//66 63//63
f 63//63 66//66 67//67
f 63//63 67//67 62//62
f 62//62 67//67 68//68
f 62//62 68//68 61//61
f 61//61 68//68 69//69
f 61//61 69//69 60//60
f 60//60 69//69 70//70
f 60//60 70//70 59//59
f 59//59 70//70 71//71
f 59//59 71//71 58//58
f 58//58 71//71 72//72
f 58//58 72//72 57//57
f 57//57 72//72 73//73
f 57//57 73//73 56//56
f 56//56 73//73 74//74
f 56//56 74//74 55//55
f 55//55 74//74 75//75
f 55//55 75//75 54//54
f 54//54 75//75 76//76
f 54//54 76//76 53//53
f 53//53 76//76 77//77
f 53//53 77//77 52//52
f 52//52 77//77 78//78
f 52//52 78//78 51//51
f 51//51 78//78 79//79
f 51//51 79//79 50//50
f 50//50 79//79 80//80
f 50//50 80//80 49//49
f 49//49 80//80 81//81
f 49//49 81//81 48//48
f 48//48 81//81 82//82
f 48//48 82//82 47//47
f 47//47 82//82 83//83
f 47//47 83//83 46//46
f 46//46 83//83 84//84
f 46//46 84//84 45//45
f 45//45 84//84 85//85
f 45//45 85//85 44//44
f 44//44 85//85 86//86
f 44//44 86//86 43//43
f 43//43 86//86 87//87
g 7302b7ba-e2f6-11ea-8daf-54bf646e7e1f
f 91//91 101//101 90//90
f 90//90 101//101 102//102
f 90//90 102//102 112//112
f 112//112 102//102 103//103
f 112//112 103//103 111//111
f 111//111 103//103 104//104
f 111//111 104//104 110//110
f 110//110 104//104 105//105
f 110//110 105//105 109//109
f 109//109 105//105 106//106
f 109//109 106//106 108//108
f 108//108 106//106 107//107
f 101//101 91//91 100//100
f 100//100 91//91 92//92
f 100//100 92//92 99//99
f 99//99 92//92 93//93
f 99//99 93//93 98//98
f 98//98 93//93 94//94
f 98//98 94//94 97//97
f 97//97 94//94 95//95
f 97//97 95//95 96//96
g 72d677ec-e2f6-11ea-a17b-54bf646e7e1f
f 113//113 114//114 116//116
f 116//116 114//114 115//115
g 72d69ef8-e2f6-11ea-936c-54bf646e7e1f
f 118//118 119//119 117//117
f 117//117 119//119 120//120
f 117//117 120//120 122//122
f 122//122 120//120 121//121
g 72d6c5f6-e2f6-11ea-91d9-54bf646e7e1f
f 123//123 124//124 126//126
f 126//126 124//124 125//125
g 72d7624a-e2f6-11ea-890f-54bf646e7e1f
f 128//128 129//129 127//127
f 127//127 129//129 130//130

# End of file