# WaveFront *.obj file
# Vertices: 24
# Triangles : 12

v 0.0 0.0 0.0
v 9.524999618530273 0.0 0.0
v 9.524999618530273 1.9049999713897705 0.0
v 0.0 1.9049999713897705 0.0
v 1.4210854715202004e-14 0.0 -57.150001525878906
v 0.0 0.0 0.0
v 0.0 1.9049999713897705 0.0
v 1.4210854715202004e-14 1.9049999713897705 -57.150001525878906
v 9.524999618530273 0.0 -57.150001525878906
v 1.4210854715202004e-14 0.0 -57.150001525878906
v 1.4210854715202004e-14 1.9049999713897705 -57.150001525878906
v 9.524999618530273 1.9049999713897705 -57.150001525878906
v 9.524999618530273 0.0 0.0
v 9.524999618530273 0.0 -57.150001525878906
v 9.524999618530273 1.9049999713897705 -57.150001525878906
v 9.524999618530273 1.9049999713897705 0.0
v 9.524999618530273 1.9049999713897705 0.0
v 9.524999618530273 1.9049999713897705 -57.150001525878906
v 1.4210854715202004e-14 1.9049999713897705 -57.150001525878906
v 0.0 1.9049999713897705 0.0
v 9.524999618530273 0.0 -57.150001525878906
v 9.524999618530273 0.0 0.0
v 0.0 0.0 0.0
v 1.4210854715202004e-14 0.0 -57.150001525878906
vn 0.0 -0.0 1.0
vn 0.0 -0.0 1.0
vn 0.0 -0.0 1.0
vn 0.0 -0.0 1.0
vn -1.0 0.0 -2.4865888305357386e-16
vn -1.0 0.0 -2.4865888305357386e-16
vn -1.0 0.0 -2.4865888305357386e-16
vn -1.0 0.0 -2.4865888305357386e-16
vn 0.0 0.0 -1.0
vn 0.0 0.0 -1.0
vn 0.0 0.0 -1.0
vn 0.0 0.0 -1.0
vn 1.0 -0.0 2.4865888305357386e-16
vn 1.0 -0.0 2.4865888305357386e-16
vn 1.0 -0.0 2.4865888305357386e-16
vn 1.0 -0.0 2.4865888305357386e-16
vn 0.0 1.0 0.0
vn 0.0 1.0 0.0
vn 0.0 1.0 0.0
vn 0.0 1.0 0.0
vn -0.0 -1.0 -0.0
vn -0.0 -1.0 -0.0
vn -0.0 -1.0 -0.0
vn -0.0 -1.0 -0.0
g a6d86d90-e353-11ea-abf4-54bf646e7e1f
f 1//1 2//2 4//4
f 4//4 2//2 3//3
g a6da1b34-e353-11ea-8a0f-54bf646e7e1f
f 5//5 6//6 8//8
f 8//8 6//6 7//7
g a6dbc8c2-e353-11ea-96d8-54bf646e7e1f
f 9//9 10//10 12//12
f 12//12 10//10 11//11
g a6dd7640-e353-11ea-b817-54bf646e7e1f
f 13//13 14//14 16//16
f 16//16 14//14 15//15
g a6df23f6-e353-11ea-9478-54bf646e7e1f
f 17//17 18//18 20//20
f 20//20 18//18 19//19
g a6e0f88a-e353-11ea-a284-54bf646e7e1f
f 22//22 23//23 21//21
f 21//21 23//23 24//24

# End of file