# WaveFront *.obj file
# Vertices: 120
# Triangles : 76

v 11.0 0.4000000059604645 2.799999952316284
v 6.0 0.4000000059604645 2.799999952316284
v 6.0 0.800000011920929 2.799999952316284
v 11.0 0.800000011920929 2.799999952316284
v 6.0 0.4000000059604645 1.2000000476837158
v 11.0 0.4000000059604645 1.2000000476837158
v 11.0 0.800000011920929 1.2000000476837158
v 6.0 0.800000011920929 1.2000000476837158
v 11.0 0.800000011920929 1.2000000476837158
v 11.0 0.800000011920929 2.799999952316284
v 6.0 0.800000011920929 2.799999952316284
v 6.0 0.800000011920929 1.2000000476837158
v 11.0 0.4000000059604645 1.2000000476837158
v 6.0 0.4000000059604645 1.2000000476837158
v 6.0 0.4000000059604645 0.0
v 11.0 0.4000000059604645 0.0
v 6.0 0.4000000059604645 2.799999952316284
v 11.0 0.4000000059604645 2.799999952316284
v 11.0 0.4000000059604645 4.0
v 6.0 0.4000000059604645 4.0
v 11.0 0.4000000059604645 2.799999952316284
v 11.0 0.800000011920929 2.799999952316284
v 11.0 0.800000011920929 1.2000000476837158
v 11.0 0.4000000059604645 1.2000000476837158
v 11.0 0.4000000059604645 0.0
v 11.0 7.0 0.0
v 11.0 7.0 4.0
v 11.0 0.4000000059604645 4.0
v 3.799999952316284 0.4000000059604645 2.799999952316284
v -0.20000000298023224 0.4000000059604645 2.799999952316284
v -0.20000000298023224 0.800000011920929 2.799999952316284
v 3.799999952316284 0.800000011920929 2.799999952316284
v -0.20000000298023224 0.4000000059604645 1.2000000476837158
v 3.799999952316284 0.4000000059604645 1.2000000476837158
v 3.799999952316284 0.800000011920929 1.2000000476837158
v -0.20000000298023224 0.800000011920929 1.2000000476837158
v 3.799999952316284 0.800000011920929 1.2000000476837158
v 3.799999952316284 0.800000011920929 2.799999952316284
v -0.20000000298023224 0.800000011920929 2.799999952316284
v -0.20000000298023224 0.800000011920929 1.2000000476837158
v -0.20000000298023224 0.4000000059604645 1.2000000476837158
v -0.20000000298023224 0.800000011920929 1.2000000476837158
v -0.20000000298023224 0.800000011920929 2.799999952316284
v -0.20000000298023224 0.4000000059604645 2.799999952316284
v -0.20000000298023224 0.4000000059604645 4.0
v -0.20000000298023224 2.0 4.0
v -0.20000000298023224 2.0 0.0
v -0.20000000298023224 0.4000000059604645 0.0
v -0.20000000298023224 0.4000000059604645 2.799999952316284
v 3.799999952316284 0.4000000059604645 2.799999952316284
v 3.799999952316284 0.4000000059604645 4.0
v -0.20000000298023224 0.4000000059604645 4.0
v 3.799999952316284 0.0 0.0
v 6.0 0.0 0.0
v 6.0 0.0 4.0
v 3.799999952316284 0.0 4.0
v 3.799999952316284 0.4000000059604645 0.0
v 3.799999952316284 0.0 0.0
v 3.799999952316284 0.0 4.0
v 3.799999952316284 0.4000000059604645 4.0
v 3.799999952316284 0.4000000059604645 2.799999952316284
v 3.799999952316284 0.800000011920929 2.799999952316284
v 3.799999952316284 0.800000011920929 1.2000000476837158
v 3.799999952316284 0.4000000059604645 1.2000000476837158
v 3.799999952316284 0.4000000059604645 1.2000000476837158
v -0.20000000298023224 0.4000000059604645 1.2000000476837158
v -0.20000000298023224 0.4000000059604645 0.0
v 3.799999952316284 0.4000000059604645 0.0
v 3.799999952316284 2.0 0.0
v -0.20000000298023224 2.0 0.0
v -0.20000000298023224 2.0 4.0
v 3.799999952316284 2.0 4.0
v 3.799999952316284 3.799999952316284 0.0
v 3.799999952316284 2.0 0.0
v 3.799999952316284 2.0 4.0
v 3.799999952316284 3.799999952316284 4.0
v 6.0 3.799999952316284 0.0
v 3.799999952316284 3.799999952316284 0.0
v 3.799999952316284 3.799999952316284 4.0
v 6.0 3.799999952316284 4.0
v 6.0 7.0 0.0
v 6.0 3.799999952316284 0.0
v 6.0 3.799999952316284 4.0
v 6.0 7.0 4.0
v 11.0 7.0 0.0
v 6.0 7.0 0.0
v 6.0 7.0 4.0
v 11.0 7.0 4.0
v 6.0 0.0 0.0
v 6.0 0.4000000059604645 0.0
v 6.0 0.4000000059604645 1.2000000476837158
v 6.0 0.800000011920929 1.2000000476837158
v 6.0 0.800000011920929 2.799999952316284
v 6.0 0.4000000059604645 2.799999952316284
v 6.0 0.4000000059604645 4.0
v 6.0 0.0 4.0
v 6.0 0.0 4.0
v 6.0 0.4000000059604645 4.0
v 11.0 0.4000000059604645 4.0
v 11.0 7.0 4.0
v 6.0 7.0 4.0
v 6.0 3.799999952316284 4.0
v 3.799999952316284 3.799999952316284 4.0
v 3.799999952316284 2.0 4.0
v -0.20000000298023224 2.0 4.0
v -0.20000000298023224 0.4000000059604645 4.0
v 3.799999952316284 0.4000000059604645 4.0
v 3.799999952316284 0.0 4.0
v 6.0 0.4000000059604645 0.0
v 6.0 0.0 0.0
v 3.799999952316284 0.0 0.0
v 3.799999952316284 0.4000000059604645 0.0
v -0.20000000298023224 0.4000000059604645 0.0
v -0.20000000298023224 2.0 0.0
v 3.799999952316284 2.0 0.0
v 3.799999952316284 3.799999952316284 0.0
v 6.0 3.799999952316284 0.0
v 6.0 7.0 0.0
v 11.0 7.0 0.0
v 11.0 0.4000000059604645 0.0
vn -0.0 0.0 -1.0
vn -0.0 0.0 -1.0
vn -0.0 0.0 -1.0
vn -0.0 0.0 -1.0
vn -0.0 -0.0 1.0
vn -0.0 -0.0 1.0
vn -0.0 -0.0 1.0
vn -0.0 -0.0 1.0
vn -0.0 -1.0 -0.0
vn -0.0 -1.0 -0.0
vn -0.0 -1.0 -0.0
vn -0.0 -1.0 -0.0
vn 0.0 -1.0 0.0
vn 0.0 -1.0 0.0
vn 0.0 -1.0 0.0
vn 0.0 -1.0 0.0
vn 0.0 -1.0 0.0
vn 0.0 -1.0 0.0
vn 0.0 -1.0 0.0
vn 0.0 -1.0 0.0
vn 1.0 0.0 0.0
vn 1.0 0.0 0.0
vn 1.0 0.0 0.0
vn 1.0 0.0 0.0
vn 1.0 0.0 0.0
vn 1.0 0.0 0.0
vn 1.0 0.0 0.0
vn 1.0 0.0 0.0
vn -0.0 -0.0 -1.0
vn -0.0 -0.0 -1.0
vn -0.0 -0.0 -1.0
vn -0.0 -0.0 -1.0
vn -0.0 -0.0 1.0
vn -0.0 -0.0 1.0
vn -0.0 -0.0 1.0
vn -0.0 -0.0 1.0
vn -0.0 -1.0 -0.0
vn -0.0 -1.0 -0.0
vn -0.0 -1.0 -0.0
vn -0.0 -1.0 -0.0
vn -1.0 0.0 0.0
vn -1.0 0.0 0.0
vn -1.0 0.0 0.0
vn -1.0 0.0 0.0
vn -1.0 0.0 0.0
vn -1.0 0.0 0.0
vn -1.0 0.0 0.0
vn -1.0 0.0 0.0
vn 0.0 -1.0 0.0
vn 0.0 -1.0 0.0
vn 0.0 -1.0 0.0
vn 0.0 -1.0 0.0
vn 0.0 -1.0 0.0
vn 0.0 -1.0 0.0
vn 0.0 -1.0 0.0
vn 0.0 -1.0 0.0
vn -1.0 0.0 0.0
vn -1.0 0.0 0.0
vn -1.0 0.0 0.0
vn -1.0 0.0 0.0
vn -1.0 0.0 0.0
vn -1.0 0.0 0.0
vn -1.0 0.0 0.0
vn -1.0 0.0 0.0
vn 0.0 -1.0 0.0
vn 0.0 -1.0 0.0
vn 0.0 -1.0 0.0
vn 0.0 -1.0 0.0
vn 0.0 1.0 0.0
vn 0.0 1.0 0.0
vn 0.0 1.0 0.0
vn 0.0 1.0 0.0
vn -1.0 0.0 0.0
vn -1.0 0.0 0.0
vn -1.0 0.0 0.0
vn -1.0 0.0 0.0
vn 0.0 1.0 0.0
vn 0.0 1.0 0.0
vn 0.0 1.0 0.0
vn 0.0 1.0 0.0
vn -1.0 0.0 0.0
vn -1.0 0.0 0.0
vn -1.0 0.0 0.0
vn -1.0 0.0 0.0
vn 0.0 1.0 -0.0
vn 0.0 1.0 -0.0
vn 0.0 1.0 -0.0
vn 0.0 1.0 -0.0
vn 1.0 0.0 0.0
vn 1.0 0.0 0.0
vn 1.0 0.0 0.0
vn 1.0 0.0 0.0
vn 1.0 0.0 0.0
vn 1.0 0.0 0.0
vn 1.0 0.0 0.0
vn 1.0 0.0 0.0
vn 0.0 0.0 1.0
vn 0.0 0.0 1.0
vn 0.0 0.0 1.0
vn 0.0 0.0 1.0
vn 0.0 0.0 1.0
vn 0.0 0.0 1.0
vn 0.0 0.0 1.0
vn 0.0 0.0 1.0
vn 0.0 0.0 1.0
vn 0.0 0.0 1.0
vn 0.0 0.0 1.0
vn 0.0 0.0 1.0
vn -0.0 0.0 -1.0
vn -0.0 0.0 -1.0
vn -0.0 0.0 -1.0
vn -0.0 0.0 -1.0
vn -0.0 0.0 -1.0
vn -0.0 0.0 -1.0
vn -0.0 0.0 -1.0
vn -0.0 0.0 -1.0
vn -0.0 0.0 -1.0
vn -0.0 0.0 -1.0
vn -0.0 0.0 -1.0
vn -0.0 0.0 -1.0
g bca940a2-e2fa-11ea-baf9-54bf646e7e1f
f 1//1 2//2 4//4
f 4//4 2//2 3//3
g bcaa2af4-e2fa-11ea-ae8a-54bf646e7e1f
f 5//5 6//6 8//8
f 8//8 6//6 7//7
g bcaaee2c-e2fa-11ea-89d8-54bf646e7e1f
f 9//9 10//10 12//12
f 12//12 10//10 11//11
g 59c10323-6535-3756-840b-ed8ceda44a8f
f 13//13 14//14 16//16
f 16//16 14//14 15//15
g bc28034c-e2fa-11ea-ae80-54bf646e7e1f
f 17//17 18//18 20//20
f 20//20 18//18 19//19
g bc27b536-e2fa-11ea-8a8b-54bf646e7e1f
f 21//21 22//22 28//28
f 28//28 22//22 27//27
f 27//27 22//22 26//26
f 26//26 22//22 23//23
f 26//26 23//23 25//25
f 25//25 23//23 24//24
g bc70cbb6-e2fa-11ea-b802-54bf646e7e1f
f 29//29 30//30 32//32
f 32//32 30//30 31//31
g bc716802-e2fa-11ea-9abd-54bf646e7e1f
f 33//33 34//34 36//36
f 36//36 34//34 35//35
g bc720446-e2fa-11ea-9da8-54bf646e7e1f
f 37//37 38//38 40//40
f 40//40 38//38 39//39
g bc262e9e-e2fa-11ea-a4ae-54bf646e7e1f
f 41//41 42//42 48//48
f 48//48 42//42 47//47
f 47//47 42//42 43//43
f 47//47 43//43 46//46
f 46//46 43//43 45//45
f 45//45 43//43 44//44
g bc260790-e2fa-11ea-b2e9-54bf646e7e1f
f 49//49 50//50 52//52
f 52//52 50//50 51//51
g bc25b970-e2fa-11ea-94a3-54bf646e7e1f
f 53//53 54//54 56//56
f 56//56 54//54 55//55
g bc25e086-e2fa-11ea-8ce8-54bf646e7e1f
f 57//57 58//58 64//64
f 64//64 58//58 61//61
f 64//64 61//61 62//62
f 58//58 59//59 61//61
f 61//61 59//59 60//60
f 62//62 63//63 64//64
g f8d63130-8acb-38a0-80c5-aae2fb6e99ee
f 65//65 66//66 68//68
f 68//68 66//66 67//67
g bc267cc0-e2fa-11ea-ad6b-54bf646e7e1f
f 69//69 70//70 72//72
f 72//72 70//70 71//71
g bc26a3d0-e2fa-11ea-90fb-54bf646e7e1f
f 73//73 74//74 76//76
f 76//76 74//74 75//75
g bc26f1ec-e2fa-11ea-b96b-54bf646e7e1f
f 77//77 78//78 80//80
f 80//80 78//78 79//79
g bc271900-e2fa-11ea-84a3-54bf646e7e1f
f 81//81 82//82 84//84
f 84//84 82//82 83//83
g bc27671e-e2fa-11ea-b4b9-54bf646e7e1f
f 85//85 86//86 88//88
f 88//88 86//86 87//87
g bc28788c-e2fa-11ea-82a4-54bf646e7e1f
f 90//90 91//91 89//89
f 89//89 91//91 94//94
f 89//89 94//94 96//96
f 96//96 94//94 95//95
f 91//91 92//92 94//94
f 94//94 92//92 93//93
g bc28c6ae-e2fa-11ea-9515-54bf646e7e1f
f 108//108 97//97 107//107
f 107//107 97//97 98//98
f 107//107 98//98 104//104
f 104//104 98//98 102//102
f 104//104 102//102 103//103
f 98//98 99//99 102//102
f 102//102 99//99 100//100
f 102//102 100//100 101//101
f 104//104 105//105 107//107
f 107//107 105//105 106//106
g bc293c00-e2fa-11ea-a86c-54bf646e7e1f
f 110//110 111//111 109//109
f 109//109 111//111 112//112
f 109//109 112//112 115//115
f 115//115 112//112 113//113
f 115//115 113//113 114//114
f 116//116 117//117 115//115
f 115//115 117//117 109//109
f 118//118 119//119 117//117
f 117//117 119//119 120//120
f 117//117 120//120 109//109

# End of file