# WaveFront *.obj file
# Vertices: 200
# Triangles : 180

v -12.5 36.5 2.5033304691314697
v -12.5 36.41469955444336 1.8554208278656006
v -12.5 36.164615631103516 1.2516652345657349
v -12.5 35.76679229736328 0.7332084774971008
v -12.5 35.24833297729492 0.3353826701641083
v -12.5 34.64458084106445 0.08529891818761826
v -12.5 33.99666976928711 -4.440892098500626e-15
v -12.5 0.0 0.0
v -12.5 0.0 7.5
v -12.5 36.5 7.5
v -2.5 32.75 13.399999618530273
v -2.5 32.2803840637207 13.312213897705078
v -2.5 31.874195098876953 13.060711860656738
v -2.5 31.586288452148438 12.679459571838379
v -2.5 31.45554542541504 12.219948768615723
v -2.5 31.49962615966797 11.744237899780273
v -2.5 31.71257781982422 11.316575050354004
v -2.5 32.06563949584961 10.994717597961426
v -2.5 32.51112747192383 10.822134971618652
v -2.5 32.98887252807617 10.822134971618652
v -2.5 33.43436050415039 10.994717597961426
v -2.5 33.78742218017578 11.316575050354004
v -2.5 34.00037384033203 11.744237899780273
v -2.5 34.04445266723633 12.219948768615723
v -2.5 33.91371154785156 12.679459571838379
v -2.5 33.62580490112305 13.060711860656738
v -2.5 33.2196159362793 13.312213897705078
v -2.5 36.5 7.5
v -2.5 29.0 7.5
v -2.5 29.0 12.100000381469727
v -2.5 29.081947326660156 12.879669189453125
v -2.5 29.32420539855957 13.625262260437012
v -2.5 29.7161865234375 14.304194450378418
v -2.5 30.240760803222656 14.88679313659668
v -2.5 30.875 15.34759521484375
v -2.5 31.5911865234375 15.666461944580078
v -2.5 32.35801696777344 15.82945728302002
v -2.5 33.14198303222656 15.82945728302002
v -2.5 33.9088134765625 15.666461944580078
v -2.5 34.625 15.34759521484375
v -2.5 35.259239196777344 14.88679313659668
v -2.5 35.7838134765625 14.304194450378418
v -2.5 36.17579650878906 13.625262260437012
v -2.5 36.418052673339844 12.879669189453125
v -2.5 36.5 12.100000381469727
v -12.5 33.99666976928711 -4.440892098500626e-15
v 12.5 33.99666976928711 -4.440892098500626e-15
v 12.5 0.0 0.0
v -12.5 0.0 0.0
v 12.5 33.99666976928711 -4.440892098500626e-15
v 12.5 34.64458084106445 0.08529891818761826
v 12.5 35.24833297729492 0.3353826701641083
v 12.5 35.76679229736328 0.7332084774971008
v 12.5 36.164615631103516 1.2516652345657349
v 12.5 36.41469955444336 1.8554208278656006
v 12.5 36.5 2.5033304691314697
v 12.5 36.5 7.5
v 12.5 0.0 7.5
v 12.5 0.0 0.0
v -2.5 29.0 7.5
v 2.5 29.0 7.5
v 2.5 29.0 12.100000381469727
v -2.5 29.0 12.100000381469727
v -2.5 32.75 13.399999618530273
v -2.5 33.2196159362793 13.312213897705078
v -2.5 33.62580490112305 13.060711860656738
v -2.5 33.91371154785156 12.679459571838379
v -2.5 34.04445266723633 12.219948768615723
v -2.5 34.00037384033203 11.744237899780273
v -2.5 33.78742218017578 11.316575050354004
v -2.5 33.43436050415039 10.994717597961426
v -2.5 32.98887252807617 10.822134971618652
v -2.5 32.51112747192383 10.822134971618652
v -2.5 32.06563949584961 10.994717597961426
v -2.5 31.71257781982422 11.316575050354004
v -2.5 31.49962615966797 11.744237899780273
v -2.5 31.45554542541504 12.219948768615723
v -2.5 31.586288452148438 12.679459571838379
v -2.5 31.874195098876953 13.060711860656738
v -2.5 32.2803840637207 13.312213897705078
v 2.5 32.75 13.399999618530273
v 2.5 32.2803840637207 13.312213897705078
v 2.5 31.874195098876953 13.060711860656738
v 2.5 31.586288452148438 12.679459571838379
v 2.5 31.45554542541504 12.219948768615723
v 2.5 31.49962615966797 11.744237899780273
v 2.5 31.71257781982422 11.316575050354004
v 2.5 32.06563949584961 10.994717597961426
v 2.5 32.51112747192383 10.822134971618652
v 2.5 32.98887252807617 10.822134971618652
v 2.5 33.43436050415039 10.994717597961426
v 2.5 33.78742218017578 11.316575050354004
v 2.5 34.00037384033203 11.744237899780273
v 2.5 34.04445266723633 12.219948768615723
v 2.5 33.91371154785156 12.679459571838379
v 2.5 33.62580490112305 13.060711860656738
v 2.5 33.2196159362793 13.312213897705078
v 2.5 32.75 13.399999618530273
v -2.5 32.75 13.399999618530273
v -12.5 36.5 7.5
v -2.5 36.5 7.5
v -2.5 36.5 12.100000381469727
v 2.5 36.5 12.100000381469727
v 2.5 36.5 7.5
v 12.5 36.5 7.5
v 12.5 36.5 2.5033304691314697
v -12.5 36.5 2.5033304691314697
v -12.5 36.5 2.5033304691314697
v 12.5 36.5 2.5033304691314697
v 12.5 36.41469955444336 1.8554208278656006
v 12.5 36.164615631103516 1.2516652345657349
v 12.5 35.76679229736328 0.7332084774971008
v 12.5 35.24833297729492 0.3353826701641083
v 12.5 34.64458084106445 0.08529891818761826
v 12.5 33.99666976928711 -4.440892098500626e-15
v -12.5 33.99666976928711 -4.440892098500626e-15
v -12.5 34.64458084106445 0.08529891818761826
v -12.5 35.24833297729492 0.3353826701641083
v -12.5 35.76679229736328 0.7332084774971008
v -12.5 36.164615631103516 1.2516652345657349
v -12.5 36.41469955444336 1.8554208278656006
v 2.5 36.5 7.5
v 2.5 29.0 7.5
v -2.5 29.0 7.5
v -2.5 36.5 7.5
v -12.5 36.5 7.5
v -12.5 0.0 7.5
v 12.5 0.0 7.5
v 12.5 36.5 7.5
v -2.5 29.0 12.100000381469727
v 2.5 29.0 12.100000381469727
v 2.5 29.081947326660156 12.879669189453125
v 2.5 29.32420539855957 13.625262260437012
v 2.5 29.7161865234375 14.304194450378418
v 2.5 30.240760803222656 14.88679313659668
v 2.5 30.875 15.34759521484375
v 2.5 31.5911865234375 15.666461944580078
v 2.5 32.35801696777344 15.82945728302002
v 2.5 33.14198303222656 15.82945728302002
v 2.5 33.9088134765625 15.666461944580078
v 2.5 34.625 15.34759521484375
v 2.5 35.259239196777344 14.88679313659668
v 2.5 35.7838134765625 14.304194450378418
v 2.5 36.17579650878906 13.625262260437012
v 2.5 36.418052673339844 12.879669189453125
v 2.5 36.5 12.100000381469727
v -2.5 36.5 12.100000381469727
v -2.5 36.418052673339844 12.879669189453125
v -2.5 36.17579650878906 13.625262260437012
v -2.5 35.7838134765625 14.304194450378418
v -2.5 35.259239196777344 14.88679313659668
v -2.5 34.625 15.34759521484375
v -2.5 33.9088134765625 15.666461944580078
v -2.5 33.14198303222656 15.82945728302002
v -2.5 32.35801696777344 15.82945728302002
v -2.5 31.5911865234375 15.666461944580078
v -2.5 30.875 15.34759521484375
v -2.5 30.240760803222656 14.88679313659668
v -2.5 29.7161865234375 14.304194450378418
v -2.5 29.32420539855957 13.625262260437012
v -2.5 29.081947326660156 12.879669189453125
v -12.5 0.0 0.0
v 12.5 0.0 0.0
v 12.5 0.0 7.5
v -12.5 0.0 7.5
v 2.5 32.75 13.399999618530273
v 2.5 33.2196159362793 13.312213897705078
v 2.5 33.62580490112305 13.060711860656738
v 2.5 33.91371154785156 12.679459571838379
v 2.5 34.04445266723633 12.219948768615723
v 2.5 34.00037384033203 11.744237899780273
v 2.5 33.78742218017578 11.316575050354004
v 2.5 33.43436050415039 10.994717597961426
v 2.5 32.98887252807617 10.822134971618652
v 2.5 32.51112747192383 10.822134971618652
v 2.5 32.06563949584961 10.994717597961426
v 2.5 31.71257781982422 11.316575050354004
v 2.5 31.49962615966797 11.744237899780273
v 2.5 31.45554542541504 12.219948768615723
v 2.5 31.586288452148438 12.679459571838379
v 2.5 31.874195098876953 13.060711860656738
v 2.5 32.2803840637207 13.312213897705078
v 2.5 29.0 7.5
v 2.5 36.5 7.5
v 2.5 36.5 12.100000381469727
v 2.5 36.418052673339844 12.879669189453125
v 2.5 36.17579650878906 13.625262260437012
v 2.5 35.7838134765625 14.304194450378418
v 2.5 35.259239196777344 14.88679313659668
v 2.5 34.625 15.34759521484375
v 2.5 33.9088134765625 15.666461944580078
v 2.5 33.14198303222656 15.82945728302002
v 2.5 32.35801696777344 15.82945728302002
v 2.5 31.5911865234375 15.666461944580078
v 2.5 30.875 15.34759521484375
v 2.5 30.240760803222656 14.88679313659668
v 2.5 29.7161865234375 14.304194450378418
v 2.5 29.32420539855957 13.625262260437012
v 2.5 29.081947326660156 12.879669189453125
v 2.5 29.0 12.100000381469727
vn -1.0 -0.0 -0.0
vn -1.0 -0.0 -0.0
vn -1.0 -0.0 -0.0
vn -1.0 -0.0 -0.0
vn -1.0 -0.0 -0.0
vn -1.0 -0.0 -0.0
vn -1.0 -0.0 -0.0
vn -1.0 -0.0 -0.0
vn -1.0 -0.0 -0.0
vn -1.0 -0.0 -0.0
vn -1.0 -0.0 -0.0
vn -1.0 -0.0 -0.0
vn -1.0 -0.0 -0.0
vn -1.0 -0.0 -0.0
vn -1.0 -0.0 -0.0
vn -1.0 -0.0 -0.0
vn -1.0 -0.0 -0.0
vn -1.0 -0.0 -0.0
vn -1.0 -0.0 -0.0
vn -1.0 -0.0 -0.0
vn -1.0 -0.0 -0.0
vn -1.0 -0.0 -0.0
vn -1.0 -0.0 -0.0
vn -1.0 -0.0 -0.0
vn -1.0 -0.0 -0.0
vn -1.0 -0.0 -0.0
vn -1.0 -0.0 -0.0
vn -1.0 -0.0 -0.0
vn -1.0 -0.0 -0.0
vn -1.0 -0.0 -0.0
vn -1.0 -0.0 -0.0
vn -1.0 -0.0 -0.0
vn -1.0 -0.0 -0.0
vn -1.0 -0.0 -0.0
vn -1.0 -0.0 -0.0
vn -1.0 -0.0 -0.0
vn -1.0 -0.0 -0.0
vn -1.0 -0.0 -0.0
vn -1.0 -0.0 -0.0
vn -1.0 -0.0 -0.0
vn -1.0 -0.0 -0.0
vn -1.0 -0.0 -0.0
vn -1.0 -0.0 -0.0
vn -1.0 -0.0 -0.0
vn -1.0 -0.0 -0.0
vn 0.0 -1.2814028246115343e-16 -1.0
vn 0.0 -1.2814028246115343e-16 -1.0
vn 0.0 -1.2814028246115343e-16 -1.0
vn 0.0 -1.2814028246115343e-16 -1.0
vn 1.0 0.0 0.0
vn 1.0 0.0 0.0
vn 1.0 0.0 0.0
vn 1.0 0.0 0.0
vn 1.0 0.0 0.0
vn 1.0 0.0 0.0
vn 1.0 0.0 0.0
vn 1.0 0.0 0.0
vn 1.0 0.0 0.0
vn 1.0 0.0 0.0
vn 0.0 -1.0 0.0
vn 0.0 -1.0 0.0
vn 0.0 -1.0 0.0
vn 0.0 -1.0 0.0
vn 0.0 -1.2246468525851679e-16 -1.0
vn 0.0 -0.3612416684627533 -0.9324722290039062
vn 0.0 -0.6736956238746643 -0.739008903503418
vn 0.0 -0.8951632976531982 -0.4457383453845978
vn 0.0 -0.9957341551780701 -0.09226836264133453
vn 0.0 -0.9618256688117981 0.2736629843711853
vn 0.0 -0.7980172038078308 0.602634608745575
vn 0.0 -0.5264321565628052 0.8502171635627747
vn 0.0 -0.1837495118379593 0.9829730987548828
vn -0.0 0.1837495118379593 0.9829730987548828
vn -0.0 0.5264321565628052 0.8502171635627747
vn -0.0 0.7980172038078308 0.602634608745575
vn -0.0 0.9618256688117981 0.2736629843711853
vn 0.0 0.9957341551780701 -0.09226836264133453
vn 0.0 0.8951632976531982 -0.4457383453845978
vn 0.0 0.6736956238746643 -0.739008903503418
vn 0.0 0.3612416684627533 -0.9324722290039062
vn 0.0 1.2246468525851679e-16 -1.0
vn 0.0 0.3612416684627533 -0.9324722290039062
vn 0.0 0.6736956238746643 -0.739008903503418
vn 0.0 0.8951632976531982 -0.4457383453845978
vn 0.0 0.9957341551780701 -0.09226836264133453
vn -0.0 0.9618256688117981 0.2736629843711853
vn -0.0 0.7980172038078308 0.602634608745575
vn -0.0 0.5264321565628052 0.8502171635627747
vn -0.0 0.1837495118379593 0.9829730987548828
vn 0.0 -0.1837495118379593 0.9829730987548828
vn 0.0 -0.5264321565628052 0.8502171635627747
vn 0.0 -0.7980172038078308 0.602634608745575
vn 0.0 -0.9618256688117981 0.2736629843711853
vn 0.0 -0.9957341551780701 -0.09226836264133453
vn 0.0 -0.8951632976531982 -0.4457383453845978
vn 0.0 -0.6736956238746643 -0.739008903503418
vn 0.0 -0.3612416684627533 -0.9324722290039062
vn 0.0 -1.2246468525851679e-16 -1.0
vn 0.0 1.2246468525851679e-16 -1.0
vn 0.0 1.0 0.0
vn 0.0 1.0 0.0
vn 0.0 1.0 0.0
vn 0.0 1.0 0.0
vn 0.0 1.0 0.0
vn 0.0 1.0 0.0
vn 0.0 1.0 0.0
vn 0.0 1.0 0.0
vn -0.0 1.0 -2.832769343193999e-16
vn -0.0 1.0 -2.832769343193999e-16
vn -0.0 0.9659258127212524 -0.258819043636322
vn -0.0 0.8660253882408142 -0.5
vn -0.0 0.7071067690849304 -0.7071067690849304
vn -0.0 0.5 -0.8660253882408142
vn -0.0 0.258819043636322 -0.9659258127212524
vn -0.0 0.0 -1.0
vn -0.0 0.0 -1.0
vn -0.0 0.258819043636322 -0.9659258127212524
vn -0.0 0.5 -0.8660253882408142
vn -0.0 0.7071067690849304 -0.7071067690849304
vn -0.0 0.8660253882408142 -0.5
vn -0.0 0.9659258127212524 -0.258819043636322
vn 0.0 -1.2250736777812452e-16 1.0
vn 0.0 -1.2250736777812452e-16 1.0
vn 0.0 -1.2250736777812452e-16 1.0
vn 0.0 -1.2250736777812452e-16 1.0
vn 0.0 -1.2250736777812452e-16 1.0
vn 0.0 -1.2250736777812452e-16 1.0
vn 0.0 -1.2250736777812452e-16 1.0
vn 0.0 -1.2250736777812452e-16 1.0
vn -0.0 -1.0 1.2246468525851679e-16
vn -0.0 -1.0 1.2246468525851679e-16
vn -0.0 -0.9781476259231567 0.2079116851091385
vn -0.0 -0.9135454297065735 0.4067366421222687
vn -0.0 -0.80901700258255 0.5877852439880371
vn -0.0 -0.6691306233406067 0.7431448101997375
vn -0.0 -0.5 0.8660253882408142
vn -0.0 -0.30901700258255005 0.9510565400123596
vn -0.0 -0.10452846437692642 0.9945219159126282
vn -0.0 0.10452846437692642 0.9945219159126282
vn -0.0 0.30901700258255005 0.9510565400123596
vn -0.0 0.5 0.8660253882408142
vn -0.0 0.6691306233406067 0.7431448101997375
vn -0.0 0.80901700258255 0.5877852439880371
vn -0.0 0.9135454297065735 0.4067366421222687
vn -0.0 0.9781476259231567 0.2079116851091385
vn -0.0 1.0 -0.0
vn -0.0 1.0 -0.0
vn -0.0 0.9781476259231567 0.2079116851091385
vn -0.0 0.9135454297065735 0.4067366421222687
vn -0.0 0.80901700258255 0.5877852439880371
vn -0.0 0.6691306233406067 0.7431448101997375
vn -0.0 0.5 0.8660253882408142
vn -0.0 0.30901700258255005 0.9510565400123596
vn -0.0 0.10452846437692642 0.9945219159126282
vn -0.0 -0.10452846437692642 0.9945219159126282
vn -0.0 -0.30901700258255005 0.9510565400123596
vn -0.0 -0.5 0.8660253882408142
vn -0.0 -0.6691306233406067 0.7431448101997375
vn -0.0 -0.80901700258255 0.5877852439880371
vn -0.0 -0.9135454297065735 0.4067366421222687
vn -0.0 -0.9781476259231567 0.2079116851091385
vn 0.0 -1.0 0.0
vn 0.0 -1.0 0.0
vn 0.0 -1.0 0.0
vn 0.0 -1.0 0.0
vn 1.0 0.0 0.0
vn 1.0 0.0 0.0
vn 1.0 0.0 0.0
vn 1.0 0.0 0.0
vn 1.0 0.0 0.0
vn 1.0 0.0 0.0
vn 1.0 0.0 0.0
vn 1.0 0.0 0.0
vn 1.0 0.0 0.0
vn 1.0 0.0 0.0
vn 1.0 0.0 0.0
vn 1.0 0.0 0.0
vn 1.0 0.0 0.0
vn 1.0 0.0 0.0
vn 1.0 0.0 0.0
vn 1.0 0.0 0.0
vn 1.0 0.0 0.0
vn 1.0 0.0 0.0
vn 1.0 0.0 0.0
vn 1.0 0.0 0.0
vn 1.0 0.0 0.0
vn 1.0 0.0 0.0
vn 1.0 0.0 0.0
vn 1.0 0.0 0.0
vn 1.0 0.0 0.0
vn 1.0 0.0 0.0
vn 1.0 0.0 0.0
vn 1.0 0.0 0.0
vn 1.0 0.0 0.0
vn 1.0 0.0 0.0
vn 1.0 0.0 0.0
vn 1.0 0.0 0.0
vn 1.0 0.0 0.0
vn 1.0 0.0 0.0
vn 1.0 0.0 0.0
f 2//2 8//8 1//1
f 1//1 8//8 9//9
f 1//1 9//9 10//10
f 2//2 3//3 8//8
f 8//8 3//3 7//7
f 7//7 3//3 4//4
f 7//7 4//4 5//5
f 5//5 6//6 7//7
f 12//12 37//37 11//11
f 11//11 37//37 38//38
f 11//11 38//38 27//27
f 27//27 38//38 39//39
f 27//27 39//39 40//40
f 13//13 35//35 12//12
f 12//12 35//35 36//36
f 12//12 36//36 37//37
f 35//35 13//13 34//34
f 34//34 13//13 14//14
f 34//34 14//14 33//33
f 33//33 14//14 32//32
f 32//32 14//14 15//15
f 32//32 15//15 31//31
f 31//31 15//15 30//30
f 30//30 15//15 16//16
f 30//30 16//16 17//17
f 30//30 17//17 29//29
f 29//29 17//17 18//18
f 29//29 18//18 19//19
f 19//19 20//20 29//29
f 29//29 20//20 28//28
f 28//28 20//20 21//21
f 28//28 21//21 22//22
f 28//28 22//22 45//45
f 45//45 22//22 23//23
f 45//45 23//23 24//24
f 25//25 43//43 24//24
f 24//24 43//43 44//44
f 24//24 44//44 45//45
f 26//26 41//41 25//25
f 25//25 41//41 42//42
f 25//25 42//42 43//43
f 41//41 26//26 40//40
f 40//40 26//26 27//27
f 47//47 48//48 46//46
f 46//46 48//48 49//49
f 51//51 52//52 50//50
f 50//50 52//52 53//53
f 50//50 53//53 54//54
f 50//50 54//54 59//59
f 59//59 54//54 55//55
f 59//59 55//55 56//56
f 57//57 58//58 56//56
f 56//56 58//58 59//59
f 61//61 62//62 60//60
f 60//60 62//62 63//63
f 65//65 97//97 64//64
f 64//64 97//97 98//98
f 99//99 81//81 80//80
f 80//80 81//81 82//82
f 80//80 82//82 79//79
f 79//79 82//82 83//83
f 79//79 83//83 78//78
f 78//78 83//83 84//84
f 78//78 84//84 77//77
f 77//77 84//84 85//85
f 77//77 85//85 76//76
f 76//76 85//85 86//86
f 76//76 86//86 75//75
f 75//75 86//86 87//87
f 75//75 87//87 74//74
f 74//74 87//87 88//88
f 74//74 88//88 73//73
f 73//73 88//88 89//89
f 73//73 89//89 72//72
f 72//72 89//89 90//90
f 72//72 90//90 71//71
f 71//71 90//90 91//91
f 71//71 91//91 70//70
f 70//70 91//91 92//92
f 70//70 92//92 69//69
f 69//69 92//92 93//93
f 69//69 93//93 68//68
f 68//68 93//93 94//94
f 68//68 94//94 67//67
f 67//67 94//94 95//95
f 67//67 95//95 66//66
f 66//66 95//95 96//96
f 66//66 96//96 65//65
f 65//65 96//96 97//97
f 100//100 101//101 107//107
f 107//107 101//101 104//104
f 107//107 104//104 106//106
f 106//106 104//104 105//105
f 101//101 102//102 104//104
f 104//104 102//102 103//103
f 108//108 109//109 121//121
f 121//121 109//109 110//110
f 121//121 110//110 120//120
f 120//120 110//110 111//111
f 120//120 111//111 119//119
f 119//119 111//111 112//112
f 119//119 112//112 118//118
f 118//118 112//112 113//113
f 118//118 113//113 117//117
f 117//117 113//113 114//114
f 117//117 114//114 116//116
f 116//116 114//114 115//115
f 122//122 123//123 129//129
f 129//129 123//123 128//128
f 128//128 123//123 127//127
f 127//127 123//123 124//124
f 127//127 124//124 126//126
f 126//126 124//124 125//125
f 130//130 131//131 161//161
f 161//161 131//131 132//132
f 161//161 132//132 160//160
f 160//160 132//132 133//133
f 160//160 133//133 159//159
f 159//159 133//133 134//134
f 159//159 134//134 158//158
f 158//158 134//134 135//135
f 158//158 135//135 157//157
f 157//157 135//135 136//136
f 157//157 136//136 156//156
f 156//156 136//136 137//137
f 156//156 137//137 155//155
f 155//155 137//137 138//138
f 155//155 138//138 154//154
f 154//154 138//138 139//139
f 154//154 139//139 153//153
f 153//153 139//139 140//140
f 153//153 140//140 152//152
f 152//152 140//140 141//141
f 152//152 141//141 151//151
f 151//151 141//141 142//142
f 151//151 142//142 150//150
f 150//150 142//142 143//143
f 150//150 143//143 149//149
f 149//149 143//143 144//144
f 149//149 144//144 148//148
f 148//148 144//144 145//145
f 148//148 145//145 147//147
f 147//147 145//145 146//146
f 163//163 164//164 162//162
f 162//162 164//164 165//165
f 167//167 192//192 166//166
f 166//166 192//192 193//193
f 166//166 193//193 182//182
f 182//182 193//193 194//194
f 182//182 194//194 195//195
f 168//168 190//190 167//167
f 167//167 190//190 191//191
f 167//167 191//191 192//192
f 190//190 168//168 189//189
f 189//189 168//168 169//169
f 189//189 169//169 188//188
f 188//188 169//169 187//187
f 187//187 169//169 170//170
f 187//187 170//170 186//186
f 186//186 170//170 185//185
f 185//185 170//170 171//171
f 185//185 171//171 172//172
f 185//185 172//172 184//184
f 184//184 172//172 173//173
f 184//184 173//173 174//174
f 184//184 174//174 183//183
f 183//183 174//174 175//175
f 183//183 175//175 176//176
f 176//176 177//177 183//183
f 183//183 177//177 200//200
f 200//200 177//177 178//178
f 200//200 178//178 179//179
f 180//180 198//198 179//179
f 179//179 198//198 199//199
f 179//179 199//199 200//200
f 181//181 196//196 180//180
f 180//180 196//196 197//197
f 180//180 197//197 198//198
f 196//196 181//181 195//195
f 195//195 181//181 182//182

# End of file