# WaveFront *.obj file
# Vertices: 24
# Triangles : 12

v 0.0 0.0 0.0
v -0.7410164475440979 0.0 0.0
v -0.7410164475440979 0.4000000059604645 0.0
v 0.0 0.4000000059604645 0.0
v 0.0 0.0 0.3516673743724823
v 0.0 0.0 0.0
v 0.0 0.4000000059604645 0.0
v 0.0 0.4000000059604645 0.3516673743724823
v -0.8027982711791992 0.0 0.3516673743724823
v 0.0 0.0 0.3516673743724823
v 0.0 0.4000000059604645 0.3516673743724823
v -0.8027982711791992 0.4000000059604645 0.3516673743724823
v -0.7410164475440979 0.0 0.0
v -0.8027982711791992 0.0 0.3516673743724823
v -0.8027982711791992 0.4000000059604645 0.3516673743724823
v -0.7410164475440979 0.4000000059604645 0.0
v -0.7410164475440979 0.4000000059604645 0.0
v -0.8027982711791992 0.4000000059604645 0.3516673743724823
v 0.0 0.4000000059604645 0.3516673743724823
v 0.0 0.4000000059604645 0.0
v -0.8027982711791992 0.0 0.3516673743724823
v -0.7410164475440979 0.0 0.0
v 0.0 0.0 0.0
v 0.0 0.0 0.3516673743724823
vn 0.0 0.0 -1.0
vn 0.0 0.0 -1.0
vn 0.0 0.0 -1.0
vn 0.0 0.0 -1.0
vn 1.0 -0.0 0.0
vn 1.0 -0.0 0.0
vn 1.0 -0.0 0.0
vn 1.0 -0.0 0.0
vn 0.0 0.0 1.0
vn 0.0 0.0 1.0
vn 0.0 0.0 1.0
vn 0.0 0.0 1.0
vn -0.9849161505699158 0.0 -0.1730324625968933
vn -0.9849161505699158 0.0 -0.1730324625968933
vn -0.9849161505699158 0.0 -0.1730324625968933
vn -0.9849161505699158 0.0 -0.1730324625968933
vn 0.0 1.0 0.0
vn 0.0 1.0 0.0
vn 0.0 1.0 0.0
vn 0.0 1.0 0.0
vn -0.0 -1.0 -0.0
vn -0.0 -1.0 -0.0
vn -0.0 -1.0 -0.0
vn -0.0 -1.0 -0.0
g 1edcc1e4-e302-11ea-8699-54bf646e7e1f
f 1//1 2//2 4//4
f 4//4 2//2 3//3
g 1edd0ffa-e302-11ea-a41f-54bf646e7e1f
f 5//5 6//6 8//8
f 8//8 6//6 7//7
g 1edd5e26-e302-11ea-8a1d-54bf646e7e1f
f 9//9 10//10 12//12
f 12//12 10//10 11//11
g 1edd8536-e302-11ea-9883-54bf646e7e1f
f 13//13 14//14 16//16
f 16//16 14//14 15//15
g 1eddd34a-e302-11ea-aabf-54bf646e7e1f
f 18//18 19//19 17//17
f 17//17 19//19 20//20
g 1ede2174-e302-11ea-800d-54bf646e7e1f
f 21//21 22//22 24//24
f 24//24 22//22 23//23

# End of file