# WaveFront *.obj file
# Vertices: 24
# Triangles : 12

v 0.2989291548728943 3.79825496673584 0.0
v 0.400529146194458 3.79825496673584 0.0
v 0.400529146194458 3.79825496673584 -17.780000686645508
v 0.2989291548728943 3.79825496673584 -17.780000686645508
v 0.0 0.0 0.0
v 0.2989291548728943 3.79825496673584 0.0
v 0.2989291548728943 3.79825496673584 -17.780000686645508
v 0.0 0.0 -17.780000686645508
v 0.10190344601869583 -2.088912949849153e-17 0.0
v 0.0 0.0 0.0
v 0.0 0.0 -17.780000686645508
v 0.10190344601869583 0.0 -17.780000686645508
v 0.400529146194458 3.79825496673584 0.0
v 0.10190344601869583 -2.088912949849153e-17 0.0
v 0.10190344601869583 0.0 -17.780000686645508
v 0.400529146194458 3.79825496673584 -17.780000686645508
v 0.10190344601869583 -2.088912949849153e-17 0.0
v 0.400529146194458 3.79825496673584 0.0
v 0.2989291548728943 3.79825496673584 0.0
v 0.0 0.0 0.0
v 0.400529146194458 3.79825496673584 -17.780000686645508
v 0.10190344601869583 0.0 -17.780000686645508
v 0.0 0.0 -17.780000686645508
v 0.2989291548728943 3.79825496673584 -17.780000686645508
vn 4.370956823210575e-15 1.0 0.0
vn 4.370956823210575e-15 1.0 0.0
vn 4.370956823210575e-15 1.0 0.0
vn 4.370956823210575e-15 1.0 0.0
vn -0.9969173073768616 0.07845909893512726 0.0
vn -0.9969173073768616 0.07845909893512726 0.0
vn -0.9969173073768616 0.07845909893512726 0.0
vn -0.9969173073768616 0.07845909893512726 0.0
vn -2.0498943771338836e-16 -1.0 -0.0
vn -2.0498943771338836e-16 -1.0 -0.0
vn -2.0498943771338836e-16 -1.0 -0.0
vn -2.0498943771338836e-16 -1.0 -0.0
vn 0.996923565864563 -0.07837994396686554 0.0
vn 0.996923565864563 -0.07837994396686554 0.0
vn 0.996923565864563 -0.07837994396686554 0.0
vn 0.996923565864563 -0.07837994396686554 0.0
vn 0.0 -0.0 1.0
vn 0.0 -0.0 1.0
vn 0.0 -0.0 1.0
vn 0.0 -0.0 1.0
vn 0.0 0.0 -1.0
vn 0.0 0.0 -1.0
vn 0.0 0.0 -1.0
vn 0.0 0.0 -1.0
g 6652a276-e308-11ea-b306-54bf646e7e1f
f 1//1 2//2 4//4
f 4//4 2//2 3//3
g 6652c968-e308-11ea-8914-54bf646e7e1f
f 5//5 6//6 8//8
f 8//8 6//6 7//7
g 665317ac-e308-11ea-b2ac-54bf646e7e1f
f 9//9 10//10 12//12
f 12//12 10//10 11//11
g 66533eae-e308-11ea-b64e-54bf646e7e1f
f 13//13 14//14 16//16
f 16//16 14//14 15//15
g 66538cc0-e308-11ea-88c3-54bf646e7e1f
f 18//18 19//19 17//17
f 17//17 19//19 20//20
g 6653b3c0-e308-11ea-bf0e-54bf646e7e1f
f 21//21 22//22 24//24
f 24//24 22//22 23//23

# End of file