# WaveFront *.obj file
# Vertices: 72
# Triangles : 36

v 75.0 42.5 0.0
v 75.0 45.0 0.0
v 75.0 45.0 30.0
v 75.0 42.5 30.0
v 15.0 42.5 0.0
v 75.0 42.5 0.0
v 75.0 42.5 30.0
v 15.0 42.5 30.0
v 15.0 45.0 0.0
v 15.0 42.5 0.0
v 15.0 42.5 30.0
v 15.0 45.0 30.0
v 75.0 45.0 0.0
v 15.0 45.0 0.0
v 15.0 45.0 30.0
v 75.0 45.0 30.0
v 75.0 45.0 30.0
v 15.0 45.0 30.0
v 15.0 42.5 30.0
v 75.0 42.5 30.0
v 15.0 45.0 0.0
v 75.0 45.0 0.0
v 75.0 42.5 0.0
v 15.0 42.5 0.0
v 82.5 21.25 0.0
v 82.5 23.75 0.0
v 82.5 23.75 30.0
v 82.5 21.25 30.0
v 7.5 21.25 0.0
v 82.5 21.25 0.0
v 82.5 21.25 30.0
v 7.5 21.25 30.0
v 7.5 23.75 0.0
v 7.5 21.25 0.0
v 7.5 21.25 30.0
v 7.5 23.75 30.0
v 82.5 23.75 0.0
v 7.5 23.75 0.0
v 7.5 23.75 30.0
v 82.5 23.75 30.0
v 82.5 23.75 30.0
v 7.5 23.75 30.0
v 7.5 21.25 30.0
v 82.5 21.25 30.0
v 7.5 23.75 0.0
v 82.5 23.75 0.0
v 82.5 21.25 0.0
v 7.5 21.25 0.0
v 90.0 2.5 0.0
v 0.0 2.5 0.0
v 0.0 2.5 30.0
v 90.0 2.5 30.0
v 90.0 0.0 0.0
v 90.0 2.5 0.0
v 90.0 2.5 30.0
v 90.0 0.0 30.0
v 0.0 0.0 0.0
v 90.0 0.0 0.0
v 90.0 0.0 30.0
v 0.0 0.0 30.0
v 0.0 2.5 0.0
v 0.0 0.0 0.0
v 0.0 0.0 30.0
v 0.0 2.5 30.0
v 0.0 2.5 30.0
v 0.0 0.0 30.0
v 90.0 0.0 30.0
v 90.0 2.5 30.0
v 0.0 0.0 0.0
v 0.0 2.5 0.0
v 90.0 2.5 0.0
v 90.0 0.0 0.0
vn 1.0 0.0 -0.0
vn 1.0 0.0 -0.0
vn 1.0 0.0 -0.0
vn 1.0 0.0 -0.0
vn 0.0 -1.0 0.0
vn 0.0 -1.0 0.0
vn 0.0 -1.0 0.0
vn 0.0 -1.0 0.0
vn -1.0 0.0 0.0
vn -1.0 0.0 0.0
vn -1.0 0.0 0.0
vn -1.0 0.0 0.0
vn 0.0 1.0 0.0
vn 0.0 1.0 0.0
vn 0.0 1.0 0.0
vn 0.0 1.0 0.0
vn 0.0 0.0 1.0
vn 0.0 0.0 1.0
vn 0.0 0.0 1.0
vn 0.0 0.0 1.0
vn -0.0 0.0 -1.0
vn -0.0 0.0 -1.0
vn -0.0 0.0 -1.0
vn -0.0 0.0 -1.0
vn 1.0 0.0 -0.0
vn 1.0 0.0 -0.0
vn 1.0 0.0 -0.0
vn 1.0 0.0 -0.0
vn 0.0 -1.0 0.0
vn 0.0 -1.0 0.0
vn 0.0 -1.0 0.0
vn 0.0 -1.0 0.0
vn -1.0 0.0 0.0
vn -1.0 0.0 0.0
vn -1.0 0.0 0.0
vn -1.0 0.0 0.0
vn 0.0 1.0 0.0
vn 0.0 1.0 0.0
vn 0.0 1.0 0.0
vn 0.0 1.0 0.0
vn 0.0 0.0 1.0
vn 0.0 0.0 1.0
vn 0.0 0.0 1.0
vn 0.0 0.0 1.0
vn -0.0 0.0 -1.0
vn -0.0 0.0 -1.0
vn -0.0 0.0 -1.0
vn -0.0 0.0 -1.0
vn 0.0 1.0 -0.0
vn 0.0 1.0 -0.0
vn 0.0 1.0 -0.0
vn 0.0 1.0 -0.0
vn 1.0 0.0 0.0
vn 1.0 0.0 0.0
vn 1.0 0.0 0.0
vn 1.0 0.0 0.0
vn 0.0 -1.0 0.0
vn 0.0 -1.0 0.0
vn 0.0 -1.0 0.0
vn 0.0 -1.0 0.0
vn -1.0 0.0 0.0
vn -1.0 0.0 0.0
vn -1.0 0.0 0.0
vn -1.0 0.0 0.0
vn 0.0 0.0 1.0
vn 0.0 0.0 1.0
vn 0.0 0.0 1.0
vn 0.0 0.0 1.0
vn -0.0 -0.0 -1.0
vn -0.0 -0.0 -1.0
vn -0.0 -0.0 -1.0
vn -0.0 -0.0 -1.0
g 272194fe-e30e-11ea-96ee-54bf646e7e1f
f 1//1 2//2 4//4
f 4//4 2//2 3//3
g 2721e318-e30e-11ea-a179-54bf646e7e1f
f 5//5 6//6 8//8
f 8//8 6//6 7//7
g 27227f46-e30e-11ea-8b9f-54bf646e7e1f
f 9//9 10//10 12//12
f 12//12 10//10 11//11
g 2722cd68-e30e-11ea-ada0-54bf646e7e1f
f 13//13 14//14 16//16
f 16//16 14//14 15//15
g 272342ba-e30e-11ea-a6d9-54bf646e7e1f
f 17//17 18//18 20//20
f 20//20 18//18 19//19
g 272390b8-e30e-11ea-8484-54bf646e7e1f
f 21//21 22//22 24//24
f 24//24 22//22 23//23
g 272405e8-e30e-11ea-86e1-54bf646e7e1f
f 25//25 26//26 28//28
f 28//28 26//26 27//27
g 2724a224-e30e-11ea-b541-54bf646e7e1f
f 29//29 30//30 32//32
f 32//32 30//30 31//31
g 27251764-e30e-11ea-a1fc-54bf646e7e1f
f 33//33 34//34 36//36
f 36//36 34//34 35//35
g 2725b3a2-e30e-11ea-af39-54bf646e7e1f
f 37//37 38//38 40//40
f 40//40 38//38 39//39
g 272676e8-e30e-11ea-a7d2-54bf646e7e1f
f 41//41 42//42 44//44
f 44//44 42//42 43//43
g 27271322-e30e-11ea-9591-54bf646e7e1f
f 45//45 46//46 48//48
f 48//48 46//46 47//47
g 2728248a-e30e-11ea-800a-54bf646e7e1f
f 49//49 50//50 52//52
f 52//52 50//50 51//51
g 27290ede-e30e-11ea-a9e0-54bf646e7e1f
f 53//53 54//54 56//56
f 56//56 54//54 55//55
g 2729d246-e30e-11ea-886c-54bf646e7e1f
f 57//57 58//58 60//60
f 60//60 58//58 59//59
g 272abc94-e30e-11ea-b57c-54bf646e7e1f
f 61//61 62//62 64//64
f 64//64 62//62 63//63
g 272ba706-e30e-11ea-a9a2-54bf646e7e1f
f 66//66 67//67 65//65
f 65//65 67//67 68//68
g 272cdf66-e30e-11ea-b0f8-54bf646e7e1f
f 70//70 71//71 69//69
f 69//69 71//71 72//72

# End of file