# WaveFront *.obj file
# Vertices: 24
# Triangles : 12

v 9.524999618530273 0.0 -1.9049999713897705
v 0.0 0.0 -1.9049999713897705
v 0.0 1.2699999809265137 -1.9049999713897705
v 9.524999618530273 1.2699999809265137 -1.9049999713897705
v 9.524999618530273 0.0 0.0
v 9.524999618530273 0.0 -1.9049999713897705
v 9.524999618530273 1.2699999809265137 -1.9049999713897705
v 9.524999618530273 1.2699999809265137 0.0
v 0.0 0.0 0.0
v 9.524999618530273 0.0 0.0
v 9.524999618530273 1.2699999809265137 0.0
v 0.0 1.2699999809265137 0.0
v 0.0 0.0 -1.9049999713897705
v 0.0 0.0 0.0
v 0.0 1.2699999809265137 0.0
v 0.0 1.2699999809265137 -1.9049999713897705
v 0.0 1.2699999809265137 -1.9049999713897705
v 0.0 1.2699999809265137 0.0
v 9.524999618530273 1.2699999809265137 0.0
v 9.524999618530273 1.2699999809265137 -1.9049999713897705
v 0.0 0.0 0.0
v 0.0 0.0 -1.9049999713897705
v 9.524999618530273 0.0 -1.9049999713897705
v 9.524999618530273 0.0 0.0
vn 0.0 0.0 -1.0
vn 0.0 0.0 -1.0
vn 0.0 0.0 -1.0
vn 0.0 0.0 -1.0
vn 1.0 -0.0 0.0
vn 1.0 -0.0 0.0
vn 1.0 -0.0 0.0
vn 1.0 -0.0 0.0
vn 0.0 0.0 1.0
vn 0.0 0.0 1.0
vn 0.0 0.0 1.0
vn 0.0 0.0 1.0
vn -1.0 0.0 0.0
vn -1.0 0.0 0.0
vn -1.0 0.0 0.0
vn -1.0 0.0 0.0
vn 0.0 1.0 0.0
vn 0.0 1.0 0.0
vn 0.0 1.0 0.0
vn 0.0 1.0 0.0
vn -0.0 -1.0 -0.0
vn -0.0 -1.0 -0.0
vn -0.0 -1.0 -0.0
vn -0.0 -1.0 -0.0
g 71b0fdca-e356-11ea-a4a5-54bf646e7e1f
f 1//1 2//2 4//4
f 4//4 2//2 3//3
g 71b19a22-e356-11ea-bfa3-54bf646e7e1f
f 5//5 6//6 8//8
f 8//8 6//6 7//7
g 71b20f36-e356-11ea-be2a-54bf646e7e1f
f 9//9 10//10 12//12
f 12//12 10//10 11//11
g 71b2ab88-e356-11ea-86ec-54bf646e7e1f
f 13//13 14//14 16//16
f 16//16 14//14 15//15
g 71b3208c-e356-11ea-9210-54bf646e7e1f
f 17//17 18//18 20//20
f 20//20 18//18 19//19
g 71b3bce4-e356-11ea-9440-54bf646e7e1f
f 22//22 23//23 21//21
f 21//21 23//23 24//24

# End of file