# WaveFront *.obj file
# Vertices: 24
# Triangles : 12

v 7.619999885559082 0.0 -55.880001068115234
v 0.0 0.0 -55.880001068115234
v 0.0 2.5399999618530273 -55.880001068115234
v 7.619999885559082 2.5399999618530273 -55.880001068115234
v 7.619999885559082 0.0 0.0
v 7.619999885559082 0.0 -55.880001068115234
v 7.619999885559082 2.5399999618530273 -55.880001068115234
v 7.619999885559082 2.5399999618530273 0.0
v 0.0 0.0 0.0
v 7.619999885559082 0.0 0.0
v 7.619999885559082 2.5399999618530273 0.0
v 0.0 2.5399999618530273 0.0
v 0.0 0.0 -55.880001068115234
v 0.0 0.0 0.0
v 0.0 2.5399999618530273 0.0
v 0.0 2.5399999618530273 -55.880001068115234
v 0.0 2.5399999618530273 -55.880001068115234
v 0.0 2.5399999618530273 0.0
v 7.619999885559082 2.5399999618530273 0.0
v 7.619999885559082 2.5399999618530273 -55.880001068115234
v 0.0 0.0 0.0
v 0.0 0.0 -55.880001068115234
v 7.619999885559082 0.0 -55.880001068115234
v 7.619999885559082 0.0 0.0
vn 0.0 0.0 -1.0
vn 0.0 0.0 -1.0
vn 0.0 0.0 -1.0
vn 0.0 0.0 -1.0
vn 1.0 -0.0 0.0
vn 1.0 -0.0 0.0
vn 1.0 -0.0 0.0
vn 1.0 -0.0 0.0
vn 0.0 0.0 1.0
vn 0.0 0.0 1.0
vn 0.0 0.0 1.0
vn 0.0 0.0 1.0
vn -1.0 0.0 0.0
vn -1.0 0.0 0.0
vn -1.0 0.0 0.0
vn -1.0 0.0 0.0
vn 0.0 1.0 0.0
vn 0.0 1.0 0.0
vn 0.0 1.0 0.0
vn 0.0 1.0 0.0
vn -0.0 -1.0 -0.0
vn -0.0 -1.0 -0.0
vn -0.0 -1.0 -0.0
vn -0.0 -1.0 -0.0
g 966b9418-e356-11ea-8f20-54bf646e7e1f
f 1//1 2//2 4//4
f 4//4 2//2 3//3
g 966be234-e356-11ea-8992-54bf646e7e1f
f 5//5 6//6 8//8
f 8//8 6//6 7//7
g 966c3046-e356-11ea-b1e3-54bf646e7e1f
f 9//9 10//10 12//12
f 12//12 10//10 11//11
g 966c7e5a-e356-11ea-aac3-54bf646e7e1f
f 13//13 14//14 16//16
f 16//16 14//14 15//15
g 966cf38c-e356-11ea-bb08-54bf646e7e1f
f 17//17 18//18 20//20
f 20//20 18//18 19//19
g 966d41a2-e356-11ea-b26d-54bf646e7e1f
f 22//22 23//23 21//21
f 21//21 23//23 24//24

# End of file