# WaveFront *.obj file
# Vertices: 154
# Triangles : 124

v -1.0 0.0 -2.0
v -1.0 0.0 -3.0
v -1.0 1.0 -3.0
v -1.0 1.0 -2.0
v -4.0 0.0 -3.0
v -4.142314910888672 0.0 -2.989821434020996
v -4.281732559204102 0.0 -2.9594929218292236
v -4.415414810180664 0.0 -2.9096319675445557
v -4.540640830993652 0.0 -2.8412535190582275
v -4.654860496520996 0.0 -2.755749464035034
v -4.755749702453613 0.0 -2.654860734939575
v -4.841253757476807 0.0 -2.5406408309936523
v -4.909632205963135 0.0 -2.415415048599243
v -4.959493160247803 0.0 -2.2817325592041016
v -4.989821434020996 0.0 -2.142314910888672
v -5.0 0.0 -2.0
v -5.0 1.0 -2.0
v -4.989821434020996 1.0 -2.142314910888672
v -4.959493160247803 1.0 -2.2817325592041016
v -4.909632205963135 1.0 -2.415415048599243
v -4.841253757476807 1.0 -2.5406408309936523
v -4.755749702453613 1.0 -2.654860734939575
v -4.654860496520996 1.0 -2.755749464035034
v -4.540640830993652 1.0 -2.8412535190582275
v -4.415414810180664 1.0 -2.9096319675445557
v -4.281732559204102 1.0 -2.9594929218292236
v -4.142314910888672 1.0 -2.989821434020996
v -4.0 1.0 -3.0
v -4.0 0.20000000298023224 0.699999988079071
v -4.0 0.20000000298023224 -1.7000000476837158
v -5.0 0.20000000298023224 -1.7000000476837158
v -5.0 0.20000000298023224 0.699999988079071
v -5.0 0.20000000298023224 -1.7000000476837158
v -5.0 0.800000011920929 -1.7000000476837158
v -5.0 0.800000011920929 0.699999988079071
v -5.0 0.20000000298023224 0.699999988079071
v -5.0 0.0 -2.0
v -5.0 0.0 1.0
v -5.0 1.0 1.0
v -5.0 1.0 -2.0
v -4.0 0.20000000298023224 -1.7000000476837158
v -4.0 0.800000011920929 -1.7000000476837158
v -5.0 0.800000011920929 -1.7000000476837158
v -5.0 0.20000000298023224 -1.7000000476837158
v -5.0 0.0 1.0
v -4.0 0.0 1.0
v -4.0 1.0 1.0
v -5.0 1.0 1.0
v -4.0 0.800000011920929 -1.7000000476837158
v -4.0 0.800000011920929 0.699999988079071
v -5.0 0.800000011920929 0.699999988079071
v -5.0 0.800000011920929 -1.7000000476837158
v -4.0 0.800000011920929 -1.7000000476837158
v -4.0 0.20000000298023224 -1.7000000476837158
v -4.0 0.20000000298023224 0.699999988079071
v -4.0 0.800000011920929 0.699999988079071
v -4.0 0.0 1.0
v -4.0 0.0 -2.0
v -4.0 1.0 -2.0
v -4.0 1.0 1.0
v -4.0 0.800000011920929 0.699999988079071
v -4.0 0.20000000298023224 0.699999988079071
v -5.0 0.20000000298023224 0.699999988079071
v -5.0 0.800000011920929 0.699999988079071
v -4.0 0.0 -3.0
v -1.0 0.0 -3.0
v -1.0 0.0 -2.0
v -4.0 0.0 -2.0
v -4.0 0.0 1.0
v -5.0 0.0 1.0
v -5.0 0.0 -2.0
v -4.989821434020996 0.0 -2.142314910888672
v -4.959493160247803 0.0 -2.2817325592041016
v -4.909632205963135 0.0 -2.415415048599243
v -4.841253757476807 0.0 -2.5406408309936523
v -4.755749702453613 0.0 -2.654860734939575
v -4.654860496520996 0.0 -2.755749464035034
v -4.540640830993652 0.0 -2.8412535190582275
v -4.415414810180664 0.0 -2.9096319675445557
v -4.281732559204102 0.0 -2.9594929218292236
v -4.142314910888672 0.0 -2.989821434020996
v -1.3000000715255737 0.800000011920929 -2.0
v -1.3000000715255737 0.6000000238418579 -2.0
v -3.799999952316284 0.6000000238418579 -2.0
v -3.799999952316284 0.800000011920929 -2.0
v -1.3000000715255737 0.4000000059604645 -2.0
v -1.3000000715255737 0.20000000298023224 -2.0
v -3.799999952316284 0.20000000298023224 -2.0
v -3.799999952316284 0.4000000059604645 -2.0
v -4.0 0.0 -2.0
v -1.0 0.0 -2.0
v -1.0 1.0 -2.0
v -4.0 1.0 -2.0
v -3.799999952316284 0.4000000059604645 -3.0
v -1.3000000715255737 0.4000000059604645 -3.0
v -1.3000000715255737 0.4000000059604645 -2.0
v -3.799999952316284 0.4000000059604645 -2.0
v -1.0 1.0 -3.0
v -4.0 1.0 -3.0
v -4.142314910888672 1.0 -2.989821434020996
v -4.281732559204102 1.0 -2.9594929218292236
v -4.415414810180664 1.0 -2.9096319675445557
v -4.540640830993652 1.0 -2.8412535190582275
v -4.654860496520996 1.0 -2.755749464035034
v -4.755749702453613 1.0 -2.654860734939575
v -4.841253757476807 1.0 -2.5406408309936523
v -4.909632205963135 1.0 -2.415415048599243
v -4.959493160247803 1.0 -2.2817325592041016
v -4.989821434020996 1.0 -2.142314910888672
v -5.0 1.0 -2.0
v -5.0 1.0 1.0
v -4.0 1.0 1.0
v -4.0 1.0 -2.0
v -1.0 1.0 -2.0
v -1.3000000715255737 0.4000000059604645 -3.0
v -1.3000000715255737 0.20000000298023224 -3.0
v -1.3000000715255737 0.20000000298023224 -2.0
v -1.3000000715255737 0.4000000059604645 -2.0
v -1.3000000715255737 0.6000000238418579 -3.0
v -1.3000000715255737 0.800000011920929 -3.0
v -3.799999952316284 0.800000011920929 -3.0
v -3.799999952316284 0.6000000238418579 -3.0
v -1.3000000715255737 0.20000000298023224 -3.0
v -1.3000000715255737 0.4000000059604645 -3.0
v -3.799999952316284 0.4000000059604645 -3.0
v -3.799999952316284 0.20000000298023224 -3.0
v -1.0 0.0 -3.0
v -4.0 0.0 -3.0
v -4.0 1.0 -3.0
v -1.0 1.0 -3.0
v -1.3000000715255737 0.20000000298023224 -3.0
v -3.799999952316284 0.20000000298023224 -3.0
v -3.799999952316284 0.20000000298023224 -2.0
v -1.3000000715255737 0.20000000298023224 -2.0
v -3.799999952316284 0.20000000298023224 -3.0
v -3.799999952316284 0.4000000059604645 -3.0
v -3.799999952316284 0.4000000059604645 -2.0
v -3.799999952316284 0.20000000298023224 -2.0
v -3.799999952316284 0.800000011920929 -3.0
v -1.3000000715255737 0.800000011920929 -3.0
v -1.3000000715255737 0.800000011920929 -2.0
v -3.799999952316284 0.800000011920929 -2.0
v -1.3000000715255737 0.800000011920929 -3.0
v -1.3000000715255737 0.6000000238418579 -3.0
v -1.3000000715255737 0.6000000238418579 -2.0
v -1.3000000715255737 0.800000011920929 -2.0
v -1.3000000715255737 0.6000000238418579 -3.0
v -3.799999952316284 0.6000000238418579 -3.0
v -3.799999952316284 0.6000000238418579 -2.0
v -1.3000000715255737 0.6000000238418579 -2.0
v -3.799999952316284 0.6000000238418579 -3.0
v -3.799999952316284 0.800000011920929 -3.0
v -3.799999952316284 0.800000011920929 -2.0
v -3.799999952316284 0.6000000238418579 -2.0
vn 1.0 0.0 0.0
vn 1.0 0.0 0.0
vn 1.0 0.0 0.0
vn 1.0 0.0 0.0
vn 1.7763568394002505e-15 -0.0 -1.0
vn -0.1423148363828659 0.0 -0.9898214340209961
vn -0.28173255920410156 0.0 -0.9594929814338684
vn -0.4154150187969208 0.0 -0.9096319675445557
vn -0.5406408309936523 0.0 -0.8412535190582275
vn -0.6548607349395752 0.0 -0.7557495832443237
vn -0.7557495832443237 0.0 -0.6548607349395752
vn -0.8412535190582275 0.0 -0.5406408309936523
vn -0.9096319675445557 0.0 -0.4154150187969208
vn -0.9594929814338684 0.0 -0.28173255920410156
vn -0.9898214340209961 0.0 -0.1423148363828659
vn -1.0 -0.0 1.2710353001558193e-15
vn -1.0 -0.0 1.2710353001558193e-15
vn -0.9898214340209961 0.0 -0.1423148363828659
vn -0.9594929814338684 0.0 -0.28173255920410156
vn -0.9096319675445557 0.0 -0.4154150187969208
vn -0.8412535190582275 0.0 -0.5406408309936523
vn -0.7557495832443237 0.0 -0.6548607349395752
vn -0.6548607349395752 0.0 -0.7557495832443237
vn -0.5406408309936523 0.0 -0.8412535190582275
vn -0.4154150187969208 0.0 -0.9096319675445557
vn -0.28173255920410156 0.0 -0.9594929814338684
vn -0.1423148363828659 0.0 -0.9898214340209961
vn 1.7763568394002505e-15 -0.0 -1.0
vn -0.0 1.0 -0.0
vn -0.0 1.0 -0.0
vn -0.0 1.0 -0.0
vn -0.0 1.0 -0.0
vn -1.0 0.0 0.0
vn -1.0 0.0 0.0
vn -1.0 0.0 0.0
vn -1.0 0.0 0.0
vn -1.0 0.0 0.0
vn -1.0 0.0 0.0
vn -1.0 0.0 0.0
vn -1.0 0.0 0.0
vn 0.0 0.0 1.0
vn 0.0 0.0 1.0
vn 0.0 0.0 1.0
vn 0.0 0.0 1.0
vn 0.0 -0.0 1.0
vn 0.0 -0.0 1.0
vn 0.0 -0.0 1.0
vn 0.0 -0.0 1.0
vn -0.0 -1.0 -0.0
vn -0.0 -1.0 -0.0
vn -0.0 -1.0 -0.0
vn -0.0 -1.0 -0.0
vn 1.0 0.0 0.0
vn 1.0 0.0 0.0
vn 1.0 0.0 0.0
vn 1.0 0.0 0.0
vn 1.0 0.0 0.0
vn 1.0 0.0 0.0
vn 1.0 0.0 0.0
vn 1.0 0.0 0.0
vn -0.0 0.0 -1.0
vn -0.0 0.0 -1.0
vn -0.0 0.0 -1.0
vn -0.0 0.0 -1.0
vn -0.0 -1.0 -0.0
vn -0.0 -1.0 -0.0
vn -0.0 -1.0 -0.0
vn -0.0 -1.0 -0.0
vn -0.0 -1.0 -0.0
vn -0.0 -1.0 -0.0
vn -0.0 -1.0 -0.0
vn -0.0 -1.0 -0.0
vn -0.0 -1.0 -0.0
vn -0.0 -1.0 -0.0
vn -0.0 -1.0 -0.0
vn -0.0 -1.0 -0.0
vn -0.0 -1.0 -0.0
vn -0.0 -1.0 -0.0
vn -0.0 -1.0 -0.0
vn -0.0 -1.0 -0.0
vn -0.0 -1.0 -0.0
vn 0.0 -0.0 1.0
vn 0.0 -0.0 1.0
vn 0.0 -0.0 1.0
vn 0.0 -0.0 1.0
vn 0.0 -0.0 1.0
vn 0.0 -0.0 1.0
vn 0.0 -0.0 1.0
vn 0.0 -0.0 1.0
vn 0.0 -0.0 1.0
vn 0.0 -0.0 1.0
vn 0.0 -0.0 1.0
vn 0.0 -0.0 1.0
vn 0.0 -1.0 -0.0
vn 0.0 -1.0 -0.0
vn 0.0 -1.0 -0.0
vn 0.0 -1.0 -0.0
vn 0.0 1.0 0.0
vn 0.0 1.0 0.0
vn 0.0 1.0 0.0
vn 0.0 1.0 0.0
vn 0.0 1.0 0.0
vn 0.0 1.0 0.0
vn 0.0 1.0 0.0
vn 0.0 1.0 0.0
vn 0.0 1.0 0.0
vn 0.0 1.0 0.0
vn 0.0 1.0 0.0
vn 0.0 1.0 0.0
vn 0.0 1.0 0.0
vn 0.0 1.0 0.0
vn 0.0 1.0 0.0
vn 0.0 1.0 0.0
vn 0.0 1.0 0.0
vn -1.0 -0.0 -0.0
vn -1.0 -0.0 -0.0
vn -1.0 -0.0 -0.0
vn -1.0 -0.0 -0.0
vn 0.0 0.0 -1.0
vn 0.0 0.0 -1.0
vn 0.0 0.0 -1.0
vn 0.0 0.0 -1.0
vn 0.0 0.0 -1.0
vn 0.0 0.0 -1.0
vn 0.0 0.0 -1.0
vn 0.0 0.0 -1.0
vn 0.0 0.0 -1.0
vn 0.0 0.0 -1.0
vn 0.0 0.0 -1.0
vn 0.0 0.0 -1.0
vn 0.0 1.0 0.0
vn 0.0 1.0 0.0
vn 0.0 1.0 0.0
vn 0.0 1.0 0.0
vn 1.0 -0.0 -0.0
vn 1.0 -0.0 -0.0
vn 1.0 -0.0 -0.0
vn 1.0 -0.0 -0.0
vn 0.0 -1.0 -0.0
vn 0.0 -1.0 -0.0
vn 0.0 -1.0 -0.0
vn 0.0 -1.0 -0.0
vn -1.0 -0.0 -0.0
vn -1.0 -0.0 -0.0
vn -1.0 -0.0 -0.0
vn -1.0 -0.0 -0.0
vn 0.0 1.0 0.0
vn 0.0 1.0 0.0
vn 0.0 1.0 0.0
vn 0.0 1.0 0.0
vn 1.0 -0.0 -0.0
vn 1.0 -0.0 -0.0
vn 1.0 -0.0 -0.0
vn 1.0 -0.0 -0.0
f 1//1 2//2 4//4
f 4//4 2//2 3//3
f 28//28 5//5 27//27
f 27//27 5//5 6//6
f 27//27 6//6 26//26
f 26//26 6//6 7//7
f 26//26 7//7 25//25
f 25//25 7//7 8//8
f 25//25 8//8 24//24
f 24//24 8//8 9//9
f 24//24 9//9 23//23
f 23//23 9//9 10//10
f 23//23 10//10 22//22
f 22//22 10//10 11//11
f 22//22 11//11 21//21
f 21//21 11//11 12//12
f 21//21 12//12 20//20
f 20//20 12//12 13//13
f 20//20 13//13 19//19
f 19//19 13//13 14//14
f 19//19 14//14 18//18
f 18//18 14//14 15//15
f 18//18 15//15 17//17
f 17//17 15//15 16//16
f 29//29 30//30 32//32
f 32//32 30//30 31//31
f 34//34 40//40 33//33
f 33//33 40//40 37//37
f 33//33 37//37 36//36
f 36//36 37//37 38//38
f 36//36 38//38 39//39
f 34//34 35//35 40//40
f 40//40 35//35 39//39
f 39//39 35//35 36//36
f 41//41 42//42 44//44
f 44//44 42//42 43//43
f 45//45 46//46 48//48
f 48//48 46//46 47//47
f 49//49 50//50 52//52
f 52//52 50//50 51//51
f 56//56 53//53 59//59
f 59//59 53//53 54//54
f 59//59 54//54 58//58
f 58//58 54//54 55//55
f 58//58 55//55 57//57
f 57//57 55//55 60//60
f 60//60 55//55 56//56
f 60//60 56//56 59//59
f 61//61 62//62 64//64
f 64//64 62//62 63//63
f 66//66 67//67 65//65
f 65//65 67//67 68//68
f 65//65 68//68 81//81
f 81//81 68//68 80//80
f 80//80 68//68 79//79
f 79//79 68//68 78//78
f 78//78 68//68 77//77
f 77//77 68//68 76//76
f 76//76 68//68 75//75
f 75//75 68//68 74//74
f 74//74 68//68 73//73
f 73//73 68//68 72//72
f 72//72 68//68 71//71
f 71//71 68//68 70//70
f 70//70 68//68 69//69
f 83//83 92//92 82//82
f 82//82 92//92 93//93
f 82//82 93//93 85//85
f 85//85 93//93 84//84
f 84//84 93//93 89//89
f 84//84 89//89 86//86
f 92//92 83//83 86//86
f 86//86 83//83 84//84
f 92//92 86//86 91//91
f 91//91 86//86 87//87
f 91//91 87//87 90//90
f 90//90 87//87 88//88
f 90//90 88//88 89//89
f 93//93 90//90 89//89
f 94//94 95//95 97//97
f 97//97 95//95 96//96
f 98//98 99//99 114//114
f 114//114 99//99 113//113
f 113//113 99//99 100//100
f 113//113 100//100 101//101
f 101//101 102//102 113//113
f 113//113 102//102 103//103
f 113//113 103//103 104//104
f 104//104 105//105 113//113
f 113//113 105//105 106//106
f 113//113 106//106 107//107
f 107//107 108//108 113//113
f 113//113 108//108 109//109
f 113//113 109//109 110//110
f 111//111 112//112 110//110
f 110//110 112//112 113//113
f 115//115 116//116 118//118
f 118//118 116//116 117//117
f 120//120 130//130 119//119
f 119//119 130//130 124//124
f 119//119 124//124 125//125
f 130//130 120//120 129//129
f 129//129 120//120 121//121
f 129//129 121//121 122//122
f 129//129 122//122 125//125
f 125//125 122//122 119//119
f 124//124 127//127 123//123
f 123//123 127//127 128//128
f 123//123 128//128 126//126
f 126//126 128//128 125//125
f 125//125 128//128 129//129
f 130//130 127//127 124//124
f 131//131 132//132 134//134
f 134//134 132//132 133//133
f 135//135 136//136 138//138
f 138//138 136//136 137//137
f 139//139 140//140 142//142
f 142//142 140//140 141//141
f 143//143 144//144 146//146
f 146//146 144//144 145//145
f 147//147 148//148 150//150
f 150//150 148//148 149//149
f 151//151 152//152 154//154
f 154//154 152//152 153//153

# End of file