# WaveFront *.obj file
# Vertices: 38
# Triangles : 32

v -1.0 -1.2246468525851679e-16 130.0
v -0.7660444378852844 -0.6427876353263855 130.0
v -0.1736481785774231 -0.9848077297210693 130.0
v 0.5 -0.8660253882408142 130.0
v 0.9396926164627075 -0.3420201539993286 130.0
v 0.9396926164627075 0.3420201539993286 130.0
v 0.5 0.8660253882408142 130.0
v -0.1736481785774231 0.9848077297210693 130.0
v -0.7660444378852844 0.6427876353263855 130.0
v -1.0 -1.2246468525851679e-16 0.0
v -0.7660444378852844 0.6427876353263855 0.0
v -0.1736481785774231 0.9848077297210693 0.0
v 0.5 0.8660253882408142 0.0
v 0.9396926164627075 0.3420201539993286 0.0
v 0.9396926164627075 -0.3420201539993286 0.0
v 0.5 -0.8660253882408142 0.0
v -0.1736481785774231 -0.9848077297210693 0.0
v -0.7660444378852844 -0.6427876353263855 0.0
v -1.0 -1.2246468525851679e-16 130.0
v -0.7660444378852844 0.6427876353263855 130.0
v -0.1736481785774231 0.9848077297210693 130.0
v 0.5 0.8660253882408142 130.0
v 0.9396926164627075 0.3420201539993286 130.0
v 0.9396926164627075 -0.3420201539993286 130.0
v 0.5 -0.8660253882408142 130.0
v -0.1736481785774231 -0.9848077297210693 130.0
v -0.7660444378852844 -0.6427876353263855 130.0
v -1.0 -1.2246468525851679e-16 0.0
v -0.7660444378852844 -0.6427876353263855 0.0
v -0.1736481785774231 -0.9848077297210693 0.0
v 0.5 -0.8660253882408142 0.0
v 0.9396926164627075 -0.3420201539993286 0.0
v 0.9396926164627075 0.3420201539993286 0.0
v 0.5 0.8660253882408142 0.0
v -0.1736481785774231 0.9848077297210693 0.0
v -0.7660444378852844 0.6427876353263855 0.0
v -1.0 -1.2246468525851679e-16 0.0
v -1.0 -1.2246468525851679e-16 130.0
vn 0.0 0.0 1.0
vn 0.0 0.0 1.0
vn 0.0 0.0 1.0
vn 0.0 0.0 1.0
vn 0.0 0.0 1.0
vn 0.0 0.0 1.0
vn 0.0 0.0 1.0
vn 0.0 0.0 1.0
vn 0.0 0.0 1.0
vn -0.0 -0.0 -1.0
vn -0.0 -0.0 -1.0
vn -0.0 -0.0 -1.0
vn -0.0 -0.0 -1.0
vn -0.0 -0.0 -1.0
vn -0.0 -0.0 -1.0
vn -0.0 -0.0 -1.0
vn -0.0 -0.0 -1.0
vn -0.0 -0.0 -1.0
vn -1.0 1.2246468525851679e-16 -0.0
vn -0.7660444378852844 0.6427876353263855 -0.0
vn -0.1736481785774231 0.9848077297210693 -0.0
vn 0.5 0.8660253882408142 -0.0
vn 0.9396926164627075 0.3420201539993286 -0.0
vn 0.9396926164627075 -0.3420201539993286 -0.0
vn 0.5 -0.8660253882408142 -0.0
vn -0.1736481785774231 -0.9848077297210693 0.0
vn -0.7660444378852844 -0.6427876353263855 0.0
vn -1.0 -1.2246468525851679e-16 0.0
vn -0.7660444378852844 -0.6427876353263855 0.0
vn -0.1736481785774231 -0.9848077297210693 0.0
vn 0.5 -0.8660253882408142 -0.0
vn 0.9396926164627075 -0.3420201539993286 -0.0
vn 0.9396926164627075 0.3420201539993286 -0.0
vn 0.5 0.8660253882408142 -0.0
vn -0.1736481785774231 0.9848077297210693 -0.0
vn -0.7660444378852844 0.6427876353263855 -0.0
vn -1.0 1.2246468525851679e-16 -0.0
vn -1.0 -1.2246468525851679e-16 0.0
f 2//2 5//5 1//1
f 1//1 5//5 6//6
f 1//1 6//6 9//9
f 9//9 6//6 7//7
f 9//9 7//7 8//8
f 3//3 4//4 2//2
f 2//2 4//4 5//5
f 11//11 14//14 10//10
f 10//10 14//14 15//15
f 10//10 15//15 18//18
f 18//18 15//15 16//16
f 18//18 16//16 17//17
f 12//12 13//13 11//11
f 11//11 13//13 14//14
f 20//20 36//36 19//19
f 19//19 36//36 37//37
f 38//38 28//28 27//27
f 27//27 28//28 29//29
f 27//27 29//29 26//26
f 26//26 29//29 30//30
f 26//26 30//30 25//25
f 25//25 30//30 31//31
f 25//25 31//31 24//24
f 24//24 31//31 32//32
f 24//24 32//32 23//23
f 23//23 32//32 33//33
f 23//23 33//33 22//22
f 22//22 33//33 34//34
f 22//22 34//34 21//21
f 21//21 34//34 35//35
f 21//21 35//35 20//20
f 20//20 35//35 36//36

# End of file