# WaveFront *.obj file
# Vertices: 168
# Triangles : 156

v 0.9349523782730103 0.0 4.199999809265137
v 2.5 0.0 0.0
v 2.5 2.0 0.0
v 0.9349523782730103 2.0 4.199999809265137
v -0.9935324192047119 0.0 4.06699275970459
v -0.8699315786361694 0.0 4.229365825653076
v -0.7206057906150818 0.0 4.368448257446289
v -0.5498732328414917 0.0 4.480218410491943
v -0.3626713156700134 0.0 4.561444282531738
v -0.1644134521484375 0.0 4.609776020050049
v 0.039167046546936035 0.0 4.623816967010498
v 0.24218302965164185 0.0 4.603160858154297
v 0.4387636184692383 0.0 4.548404693603516
v 0.6232240796089172 0.0 4.461132049560547
v 0.7902301549911499 0.0 4.34386682510376
v 0.9349523782730103 0.0 4.199999809265137
v 0.9349523782730103 2.0 4.199999809265137
v 0.7902301549911499 2.0 4.34386682510376
v 0.6232240796089172 2.0 4.461132049560547
v 0.4387636184692383 2.0 4.548404693603516
v 0.24218302965164185 2.0 4.603160858154297
v 0.039167046546936035 2.0 4.623816967010498
v -0.1644134521484375 2.0 4.609776020050049
v -0.3626713156700134 2.0 4.561444282531738
v -0.5498732328414917 2.0 4.480218410491943
v -0.7206057906150818 2.0 4.368448257446289
v -0.8699315786361694 2.0 4.229365825653076
v -0.9935324192047119 2.0 4.06699275970459
v -2.4951210021972656 0.0 -0.1561111956834793
v -0.9935324192047119 0.0 4.06699275970459
v -0.9935324192047119 2.0 4.06699275970459
v -2.4951210021972656 2.0 -0.1561111956834793
v 2.5 0.0 0.0
v 2.4837608337402344 0.0 -0.28448498249053955
v 2.4352545738220215 0.0 -0.5652741193771362
v 2.3551113605499268 0.0 -0.8387196660041809
v 2.2443721294403076 0.0 -1.1012691259384155
v 2.104475736618042 0.0 -1.349511742591858
v 1.9372395277023315 0.0 -1.580222487449646
v 1.7448360919952393 0.0 -1.790404200553894
v 1.529765009880066 0.0 -1.9773262739181519
v 1.2948203086853027 0.0 -2.1385602951049805
v 1.0430543422698975 0.0 -2.2720117568969727
v 0.7777377963066101 0.0 -2.3759469985961914
v 0.5023174285888672 0.0 -2.4490156173706055
v 0.2203712910413742 0.0 -2.4902684688568115
v -0.06443772464990616 0.0 -2.49916934967041
v -0.34840962290763855 0.0 -2.4756031036376953
v -0.6278552412986755 0.0 -2.4198756217956543
v -0.8991442322731018 0.0 -2.3327107429504395
v -1.158752202987671 0.0 -2.2152411937713623
v -1.403306484222412 0.0 -2.068992853164673
v -1.6296300888061523 0.0 -1.8958654403686523
v -1.8347827196121216 0.0 -1.6981085538864136
v -2.016099214553833 0.0 -1.4782910346984863
v -2.1712238788604736 0.0 -1.2392685413360596
v -2.2981417179107666 0.0 -0.9841465353965759
v -2.3952038288116455 0.0 -0.7162391543388367
v -2.461149215698242 0.0 -0.43902692198753357
v -2.4951210021972656 0.0 -0.1561111956834793
v -2.4951210021972656 2.0 -0.1561111956834793
v -2.461149215698242 2.0 -0.43902692198753357
v -2.3952038288116455 2.0 -0.7162391543388367
v -2.2981417179107666 2.0 -0.9841465353965759
v -2.1712238788604736 2.0 -1.2392685413360596
v -2.016099214553833 2.0 -1.4782910346984863
v -1.8347827196121216 2.0 -1.6981085538864136
v -1.6296300888061523 2.0 -1.8958654403686523
v -1.403306484222412 2.0 -2.068992853164673
v -1.158752202987671 2.0 -2.2152411937713623
v -0.8991442322731018 2.0 -2.3327107429504395
v -0.6278552412986755 2.0 -2.4198756217956543
v -0.34840962290763855 2.0 -2.4756031036376953
v -0.06443772464990616 2.0 -2.49916934967041
v 0.2203712910413742 2.0 -2.4902684688568115
v 0.5023174285888672 2.0 -2.4490156173706055
v 0.7777377963066101 2.0 -2.3759469985961914
v 1.0430543422698975 2.0 -2.2720117568969727
v 1.2948203086853027 2.0 -2.1385602951049805
v 1.529765009880066 2.0 -1.9773262739181519
v 1.7448360919952393 2.0 -1.790404200553894
v 1.9372395277023315 2.0 -1.580222487449646
v 2.104475736618042 2.0 -1.349511742591858
v 2.2443721294403076 2.0 -1.1012691259384155
v 2.3551113605499268 2.0 -0.8387196660041809
v 2.4352545738220215 2.0 -0.5652741193771362
v 2.4837608337402344 2.0 -0.28448498249053955
v 2.5 2.0 0.0
v 2.5 2.0 0.0
v 2.4837608337402344 2.0 -0.28448498249053955
v 2.4352545738220215 2.0 -0.5652741193771362
v 2.3551113605499268 2.0 -0.8387196660041809
v 2.2443721294403076 2.0 -1.1012691259384155
v 2.104475736618042 2.0 -1.349511742591858
v 1.9372395277023315 2.0 -1.580222487449646
v 1.7448360919952393 2.0 -1.790404200553894
v 1.529765009880066 2.0 -1.9773262739181519
v 1.2948203086853027 2.0 -2.1385602951049805
v 1.0430543422698975 2.0 -2.2720117568969727
v 0.7777377963066101 2.0 -2.3759469985961914
v 0.5023174285888672 2.0 -2.4490156173706055
v 0.2203712910413742 2.0 -2.4902684688568115
v -0.06443772464990616 2.0 -2.49916934967041
v -0.34840962290763855 2.0 -2.4756031036376953
v -0.6278552412986755 2.0 -2.4198756217956543
v -0.8991442322731018 2.0 -2.3327107429504395
v -1.158752202987671 2.0 -2.2152411937713623
v -1.403306484222412 2.0 -2.068992853164673
v -1.6296300888061523 2.0 -1.8958654403686523
v -1.8347827196121216 2.0 -1.6981085538864136
v -2.016099214553833 2.0 -1.4782910346984863
v -2.1712238788604736 2.0 -1.2392685413360596
v -2.2981417179107666 2.0 -0.9841465353965759
v -2.3952038288116455 2.0 -0.7162391543388367
v -2.461149215698242 2.0 -0.43902692198753357
v -2.4951210021972656 2.0 -0.1561111956834793
v -0.9935324192047119 2.0 4.06699275970459
v -0.8699315786361694 2.0 4.229365825653076
v -0.7206057906150818 2.0 4.368448257446289
v -0.5498732328414917 2.0 4.480218410491943
v -0.3626713156700134 2.0 4.561444282531738
v -0.1644134521484375 2.0 4.609776020050049
v 0.039167046546936035 2.0 4.623816967010498
v 0.24218302965164185 2.0 4.603160858154297
v 0.4387636184692383 2.0 4.548404693603516
v 0.6232240796089172 2.0 4.461132049560547
v 0.7902301549911499 2.0 4.34386682510376
v 0.9349523782730103 2.0 4.199999809265137
v -2.4951210021972656 0.0 -0.1561111956834793
v -2.461149215698242 0.0 -0.43902692198753357
v -2.3952038288116455 0.0 -0.7162391543388367
v -2.2981417179107666 0.0 -0.9841465353965759
v -2.1712238788604736 0.0 -1.2392685413360596
v -2.016099214553833 0.0 -1.4782910346984863
v -1.8347827196121216 0.0 -1.6981085538864136
v -1.6296300888061523 0.0 -1.8958654403686523
v -1.403306484222412 0.0 -2.068992853164673
v -1.158752202987671 0.0 -2.2152411937713623
v -0.8991442322731018 0.0 -2.3327107429504395
v -0.6278552412986755 0.0 -2.4198756217956543
v -0.34840962290763855 0.0 -2.4756031036376953
v -0.06443772464990616 0.0 -2.49916934967041
v 0.2203712910413742 0.0 -2.4902684688568115
v 0.5023174285888672 0.0 -2.4490156173706055
v 0.7777377963066101 0.0 -2.3759469985961914
v 1.0430543422698975 0.0 -2.2720117568969727
v 1.2948203086853027 0.0 -2.1385602951049805
v 1.529765009880066 0.0 -1.9773262739181519
v 1.7448360919952393 0.0 -1.790404200553894
v 1.9372395277023315 0.0 -1.580222487449646
v 2.104475736618042 0.0 -1.349511742591858
v 2.2443721294403076 0.0 -1.1012691259384155
v 2.3551113605499268 0.0 -0.8387196660041809
v 2.4352545738220215 0.0 -0.5652741193771362
v 2.4837608337402344 0.0 -0.28448498249053955
v 2.5 0.0 0.0
v 0.9349523782730103 0.0 4.199999809265137
v 0.7902301549911499 0.0 4.34386682510376
v 0.6232240796089172 0.0 4.461132049560547
v 0.4387636184692383 0.0 4.548404693603516
v 0.24218302965164185 0.0 4.603160858154297
v 0.039167046546936035 0.0 4.623816967010498
v -0.1644134521484375 0.0 4.609776020050049
v -0.3626713156700134 0.0 4.561444282531738
v -0.5498732328414917 0.0 4.480218410491943
v -0.7206057906150818 0.0 4.368448257446289
v -0.8699315786361694 0.0 4.229365825653076
v -0.9935324192047119 0.0 4.06699275970459
vn 0.9370571970939636 -0.0 0.34917598962783813
vn 0.9370571970939636 -0.0 0.34917598962783813
vn 0.9370571970939636 -0.0 0.34917598962783813
vn 0.9370571970939636 -0.0 0.34917598962783813
vn -0.8443149328231812 -0.0 0.5358472466468811
vn -0.7413142323493958 -0.0 0.6711580753326416
vn -0.6168760657310486 -0.0 0.7870603203773499
vn -0.4745990037918091 -0.0 0.8802021145820618
vn -0.31859737634658813 -0.0 0.9478901624679565
vn -0.15338248014450073 -0.0 0.988166868686676
vn 0.016267932951450348 -0.0 0.9998676776885986
vn 0.18544791638851166 -0.0 0.9826540946960449
vn 0.34926506876945496 -0.0 0.937023937702179
vn 0.5029821395874023 -0.0 0.8642967939376831
vn 0.6421538591384888 -0.0 0.7665757536888123
vn 0.7627556920051575 -0.0 0.6466867327690125
vn 0.7627556920051575 -0.0 0.6466867327690125
vn 0.6421538591384888 -0.0 0.7665757536888123
vn 0.5029821395874023 -0.0 0.8642967939376831
vn 0.34926506876945496 -0.0 0.937023937702179
vn 0.18544791638851166 -0.0 0.9826540946960449
vn 0.016267932951450348 -0.0 0.9998676776885986
vn -0.15338248014450073 -0.0 0.988166868686676
vn -0.31859737634658813 -0.0 0.9478901624679565
vn -0.4745990037918091 -0.0 0.8802021145820618
vn -0.6168760657310486 -0.0 0.7870603203773499
vn -0.7413142323493958 -0.0 0.6711580753326416
vn -0.8443149328231812 -0.0 0.5358472466468811
vn -0.9422118067741394 0.0 0.33501771092414856
vn -0.9422118067741394 0.0 0.33501771092414856
vn -0.9422118067741394 0.0 0.33501771092414856
vn -0.9422118067741394 0.0 0.33501771092414856
vn 1.0 -0.0 -0.0
vn 0.9935043454170227 -0.0 -0.1137939915060997
vn 0.9741018414497375 -0.0 -0.22610965371131897
vn 0.9420445561408997 -0.0 -0.33548787236213684
vn 0.8977488279342651 -0.0 -0.4405076503753662
vn 0.8417902588844299 -0.0 -0.5398046970367432
vn 0.7748957872390747 -0.0 -0.6320890188217163
vn 0.6979344487190247 -0.0 -0.7161616683006287
vn 0.6119059920310974 -0.0 -0.7909305095672607
vn 0.5179281234741211 -0.0 -0.8554241061210632
vn 0.4172217547893524 -0.0 -0.908804714679718
vn 0.31109511852264404 -0.0 -0.9503787755966187
vn 0.20092695951461792 -0.0 -0.9796062111854553
vn 0.08814851939678192 -0.0 -0.9961073398590088
vn -0.025775089859962463 0.0 -0.999667763710022
vn -0.1393638551235199 0.0 -0.9902412295341492
vn -0.25114208459854126 0.0 -0.9679502248764038
vn -0.3596576750278473 0.0 -0.9330843091011047
vn -0.46350085735321045 0.0 -0.8860964775085449
vn -0.5613225698471069 0.0 -0.8275970816612244
vn -0.651852011680603 0.0 -0.7583461999893188
vn -0.7339130640029907 0.0 -0.6792433857917786
vn -0.8064396381378174 0.0 -0.5913164019584656
vn -0.8684895634651184 0.0 -0.4957074522972107
vn -0.9192566871643066 0.0 -0.3936586081981659
vn -0.9580815434455872 0.0 -0.2864956557750702
vn -0.9844596982002258 0.0 -0.1756107658147812
vn -0.9980484247207642 0.0 -0.062444474548101425
vn -0.9980484247207642 0.0 -0.062444474548101425
vn -0.9844596982002258 0.0 -0.1756107658147812
vn -0.9580815434455872 0.0 -0.2864956557750702
vn -0.9192566871643066 0.0 -0.3936586081981659
vn -0.8684895634651184 0.0 -0.4957074522972107
vn -0.8064396381378174 0.0 -0.5913164019584656
vn -0.7339130640029907 0.0 -0.6792433857917786
vn -0.651852011680603 0.0 -0.7583461999893188
vn -0.5613225698471069 0.0 -0.8275970816612244
vn -0.46350085735321045 0.0 -0.8860964775085449
vn -0.3596576750278473 0.0 -0.9330843091011047
vn -0.25114208459854126 0.0 -0.9679502248764038
vn -0.1393638551235199 0.0 -0.9902412295341492
vn -0.025775089859962463 0.0 -0.999667763710022
vn 0.08814851939678192 -0.0 -0.9961073398590088
vn 0.20092695951461792 -0.0 -0.9796062111854553
vn 0.31109511852264404 -0.0 -0.9503787755966187
vn 0.4172217547893524 -0.0 -0.908804714679718
vn 0.5179281234741211 -0.0 -0.8554241061210632
vn 0.6119059920310974 -0.0 -0.7909305095672607
vn 0.6979344487190247 -0.0 -0.7161616683006287
vn 0.7748957872390747 -0.0 -0.6320890188217163
vn 0.8417902588844299 -0.0 -0.5398046970367432
vn 0.8977488279342651 -0.0 -0.4405076503753662
vn 0.9420445561408997 -0.0 -0.33548787236213684
vn 0.9741018414497375 -0.0 -0.22610965371131897
vn 0.9935043454170227 -0.0 -0.1137939915060997
vn 1.0 -0.0 -0.0
vn 0.0 1.0 0.0
vn 0.0 1.0 0.0
vn 0.0 1.0 0.0
vn 0.0 1.0 0.0
vn 0.0 1.0 0.0
vn 0.0 1.0 0.0
vn 0.0 1.0 0.0
vn 0.0 1.0 0.0
vn 0.0 1.0 0.0
vn 0.0 1.0 0.0
vn 0.0 1.0 0.0
vn 0.0 1.0 0.0
vn 0.0 1.0 0.0
vn 0.0 1.0 0.0
vn 0.0 1.0 0.0
vn 0.0 1.0 0.0
vn 0.0 1.0 0.0
vn 0.0 1.0 0.0
vn 0.0 1.0 0.0
vn 0.0 1.0 0.0
vn 0.0 1.0 0.0
vn 0.0 1.0 0.0
vn 0.0 1.0 0.0
vn 0.0 1.0 0.0
vn 0.0 1.0 0.0
vn 0.0 1.0 0.0
vn 0.0 1.0 0.0
vn 0.0 1.0 0.0
vn 0.0 1.0 0.0
vn 0.0 1.0 0.0
vn 0.0 1.0 0.0
vn 0.0 1.0 0.0
vn 0.0 1.0 0.0
vn 0.0 1.0 0.0
vn 0.0 1.0 0.0
vn 0.0 1.0 0.0
vn 0.0 1.0 0.0
vn 0.0 1.0 0.0
vn 0.0 1.0 0.0
vn 0.0 1.0 0.0
vn -0.0 -1.0 -0.0
vn -0.0 -1.0 -0.0
vn -0.0 -1.0 -0.0
vn -0.0 -1.0 -0.0
vn -0.0 -1.0 -0.0
vn -0.0 -1.0 -0.0
vn -0.0 -1.0 -0.0
vn -0.0 -1.0 -0.0
vn -0.0 -1.0 -0.0
vn -0.0 -1.0 -0.0
vn -0.0 -1.0 -0.0
vn -0.0 -1.0 -0.0
vn -0.0 -1.0 -0.0
vn -0.0 -1.0 -0.0
vn -0.0 -1.0 -0.0
vn -0.0 -1.0 -0.0
vn -0.0 -1.0 -0.0
vn -0.0 -1.0 -0.0
vn -0.0 -1.0 -0.0
vn -0.0 -1.0 -0.0
vn -0.0 -1.0 -0.0
vn -0.0 -1.0 -0.0
vn -0.0 -1.0 -0.0
vn -0.0 -1.0 -0.0
vn -0.0 -1.0 -0.0
vn -0.0 -1.0 -0.0
vn -0.0 -1.0 -0.0
vn -0.0 -1.0 -0.0
vn -0.0 -1.0 -0.0
vn -0.0 -1.0 -0.0
vn -0.0 -1.0 -0.0
vn -0.0 -1.0 -0.0
vn -0.0 -1.0 -0.0
vn -0.0 -1.0 -0.0
vn -0.0 -1.0 -0.0
vn -0.0 -1.0 -0.0
vn -0.0 -1.0 -0.0
vn -0.0 -1.0 -0.0
vn -0.0 -1.0 -0.0
vn -0.0 -1.0 -0.0
g 7c9f4a02-e317-11ea-86d6-54bf646e7e1f
f 1//1 2//2 4//4
f 4//4 2//2 3//3
g 7c9f9824-e317-11ea-ab60-54bf646e7e1f
f 28//28 5//5 27//27
f 27//27 5//5 6//6
f 27//27 6//6 26//26
f 26//26 6//6 7//7
f 26//26 7//7 25//25
f 25//25 7//7 8//8
f 25//25 8//8 24//24
f 24//24 8//8 9//9
f 24//24 9//9 23//23
f 23//23 9//9 10//10
f 23//23 10//10 22//22
f 22//22 10//10 11//11
f 22//22 11//11 21//21
f 21//21 11//11 12//12
f 21//21 12//12 20//20
f 20//20 12//12 13//13
f 20//20 13//13 19//19
f 19//19 13//13 14//14
f 19//19 14//14 18//18
f 18//18 14//14 15//15
f 18//18 15//15 17//17
f 17//17 15//15 16//16
g 7c9fbf38-e317-11ea-871d-54bf646e7e1f
f 29//29 30//30 32//32
f 32//32 30//30 31//31
g 7c9fe65c-e317-11ea-82c2-54bf646e7e1f
f 88//88 33//33 87//87
f 87//87 33//33 34//34
f 87//87 34//34 35//35
f 87//87 35//35 86//86
f 86//86 35//35 36//36
f 86//86 36//36 85//85
f 85//85 36//36 37//37
f 85//85 37//37 84//84
f 84//84 37//37 38//38
f 84//84 38//38 83//83
f 83//83 38//38 39//39
f 83//83 39//39 82//82
f 82//82 39//39 40//40
f 82//82 40//40 81//81
f 81//81 40//40 41//41
f 81//81 41//41 80//80
f 80//80 41//41 42//42
f 80//80 42//42 79//79
f 79//79 42//42 43//43
f 79//79 43//43 78//78
f 78//78 43//43 44//44
f 78//78 44//44 77//77
f 77//77 44//44 45//45
f 77//77 45//45 76//76
f 76//76 45//45 46//46
f 76//76 46//46 75//75
f 75//75 46//46 47//47
f 75//75 47//47 74//74
f 74//74 47//47 48//48
f 74//74 48//48 73//73
f 73//73 48//48 49//49
f 73//73 49//49 72//72
f 72//72 49//49 50//50
f 72//72 50//50 71//71
f 71//71 50//50 51//51
f 71//71 51//51 70//70
f 70//70 51//51 52//52
f 70//70 52//52 69//69
f 69//69 52//52 53//53
f 69//69 53//53 68//68
f 68//68 53//53 54//54
f 68//68 54//54 67//67
f 67//67 54//54 55//55
f 67//67 55//55 66//66
f 66//66 55//55 56//56
f 66//66 56//56 65//65
f 65//65 56//56 57//57
f 65//65 57//57 64//64
f 64//64 57//57 58//58
f 64//64 58//58 63//63
f 63//63 58//58 59//59
f 63//63 59//59 62//62
f 62//62 59//59 61//61
f 61//61 59//59 60//60
g 7ca00d54-e317-11ea-b10f-54bf646e7e1f
f 90//90 116//116 89//89
f 89//89 116//116 117//117
f 89//89 117//117 128//128
f 128//128 117//117 118//118
f 128//128 118//118 127//127
f 127//127 118//118 119//119
f 127//127 119//119 126//126
f 126//126 119//119 120//120
f 126//126 120//120 125//125
f 125//125 120//120 121//121
f 125//125 121//121 124//124
f 124//124 121//121 122//122
f 124//124 122//122 123//123
f 91//91 92//92 90//90
f 90//90 92//92 93//93
f 90//90 93//93 94//94
f 94//94 95//95 90//90
f 90//90 95//95 96//96
f 90//90 96//96 97//97
f 97//97 98//98 90//90
f 90//90 98//98 99//99
f 90//90 99//99 100//100
f 100//100 101//101 90//90
f 90//90 101//101 102//102
f 90//90 102//102 103//103
f 90//90 103//103 116//116
f 116//116 103//103 104//104
f 116//116 104//104 105//105
f 105//105 106//106 116//116
f 116//116 106//106 107//107
f 116//116 107//107 115//115
f 115//115 107//107 108//108
f 115//115 108//108 109//109
f 109//109 110//110 115//115
f 115//115 110//110 111//111
f 115//115 111//111 112//112
f 112//112 113//113 115//115
f 115//115 113//113 114//114
g 7ca05ba4-e317-11ea-b5c1-54bf646e7e1f
f 130//130 139//139 129//129
f 129//129 139//139 140//140
f 129//129 140//140 141//141
f 131//131 132//132 130//130
f 130//130 132//132 133//133
f 130//130 133//133 134//134
f 134//134 135//135 130//130
f 130//130 135//135 136//136
f 130//130 136//136 137//137
f 137//137 138//138 130//130
f 130//130 138//138 139//139
f 141//141 142//142 129//129
f 129//129 142//142 155//155
f 129//129 155//155 156//156
f 142//142 143//143 155//155
f 155//155 143//143 144//144
f 155//155 144//144 145//145
f 145//145 146//146 155//155
f 155//155 146//146 147//147
f 155//155 147//147 148//148
f 148//148 149//149 155//155
f 155//155 149//149 150//150
f 155//155 150//150 151//151
f 151//151 152//152 155//155
f 155//155 152//152 153//153
f 155//155 153//153 154//154
f 129//129 156//156 168//168
f 168//168 156//156 157//157
f 168//168 157//157 167//167
f 167//167 157//157 158//158
f 167//167 158//158 166//166
f 166//166 158//158 159//159
f 166//166 159//159 165//165
f 165//165 159//159 160//160
f 165//165 160//160 164//164
f 164//164 160//160 161//161
f 164//164 161//161 163//163
f 163//163 161//161 162//162

# End of file