# WaveFront *.obj file
# Vertices: 78
# Triangles : 44

v 78.5 18.5 -35.0
v 78.5 -18.5 -35.0
v -78.5 -18.5 -35.0
v -78.5 18.5 -35.0
v 78.5 -18.5 0.0
v -78.5 -18.5 0.0
v -78.5 -18.5 -35.0
v 78.5 -18.5 -35.0
v 78.5 -18.5 0.0
v 78.5 18.5 0.0
v -78.5 18.5 0.0
v -78.5 -18.5 0.0
v -78.5 -18.5 0.0
v -78.5 18.5 0.0
v -78.5 18.5 -35.0
v -78.5 -18.5 -35.0
v 78.5 18.5 0.0
v 78.5 -18.5 0.0
v 78.5 -18.5 -35.0
v 78.5 18.5 -35.0
v -78.5 18.5 0.0
v 78.5 18.5 0.0
v 78.5 18.5 -35.0
v -78.5 18.5 -35.0
v -19.260828018188477 46.27386474609375 0.0
v -63.5 -42.0582160949707 0.0
v -63.5 -42.0582160949707 180.0
v -19.260828018188477 46.27386474609375 180.0
v -57.7824821472168 -46.27386474609375 0.0
v -19.260828018188477 30.642086029052734 0.0
v -19.260828018188477 30.642086029052734 180.0
v -57.7824821472168 -46.27386474609375 180.0
v 64.04139709472656 43.139225006103516 180.0
v 57.7824821472168 46.27386474609375 180.0
v 19.260828018188477 -30.642086029052734 180.0
v -19.260828018188477 46.27386474609375 180.0
v -63.5 -42.0582160949707 180.0
v -63.5 -43.41037368774414 180.0
v -57.7824821472168 -46.27386474609375 180.0
v -19.260828018188477 30.642086029052734 180.0
v 19.260828018188477 -46.27386474609375 180.0
v -63.5 -42.0582160949707 0.0
v -63.5 -43.41037368774414 0.0
v -63.5 -43.41037368774414 180.0
v -63.5 -42.0582160949707 180.0
v 57.7824821472168 46.27386474609375 0.0
v 19.260828018188477 -30.642086029052734 0.0
v 19.260828018188477 -30.642086029052734 180.0
v 57.7824821472168 46.27386474609375 180.0
v 64.04139709472656 43.139225006103516 0.0
v 57.7824821472168 46.27386474609375 0.0
v 57.7824821472168 46.27386474609375 180.0
v 64.04139709472656 43.139225006103516 180.0
v -19.260828018188477 30.642086029052734 0.0
v 19.260828018188477 -46.27386474609375 0.0
v 19.260828018188477 -46.27386474609375 180.0
v -19.260828018188477 30.642086029052734 180.0
v 57.7824821472168 46.27386474609375 0.0
v 64.04139709472656 43.139225006103516 0.0
v 19.260828018188477 -46.27386474609375 0.0
v -19.260828018188477 30.642086029052734 0.0
v -57.7824821472168 -46.27386474609375 0.0
v -63.5 -43.41037368774414 0.0
v -63.5 -42.0582160949707 0.0
v -19.260828018188477 46.27386474609375 0.0
v 19.260828018188477 -30.642086029052734 0.0
v -63.5 -43.41037368774414 0.0
v -57.7824821472168 -46.27386474609375 0.0
v -57.7824821472168 -46.27386474609375 180.0
v -63.5 -43.41037368774414 180.0
v 19.260828018188477 -46.27386474609375 0.0
v 64.04139709472656 43.139225006103516 0.0
v 64.04139709472656 43.139225006103516 180.0
v 19.260828018188477 -46.27386474609375 180.0
v 19.260828018188477 -30.642086029052734 0.0
v -19.260828018188477 46.27386474609375 0.0
v -19.260828018188477 46.27386474609375 180.0
v 19.260828018188477 -30.642086029052734 180.0
vn 0.0 0.0 -1.0
vn 0.0 0.0 -1.0
vn 0.0 0.0 -1.0
vn 0.0 0.0 -1.0
vn 0.0 -1.0 0.0
vn 0.0 -1.0 0.0
vn 0.0 -1.0 0.0
vn 0.0 -1.0 0.0
vn 0.0 -0.0 1.0
vn 0.0 -0.0 1.0
vn 0.0 -0.0 1.0
vn 0.0 -0.0 1.0
vn -1.0 0.0 0.0
vn -1.0 0.0 0.0
vn -1.0 0.0 0.0
vn -1.0 0.0 0.0
vn 1.0 0.0 0.0
vn 1.0 0.0 0.0
vn 1.0 0.0 0.0
vn 1.0 0.0 0.0
vn 0.0 1.0 0.0
vn 0.0 1.0 0.0
vn 0.0 1.0 0.0
vn 0.0 1.0 0.0
vn -0.8941308856010437 0.4478057026863098 0.0
vn -0.8941308856010437 0.4478057026863098 0.0
vn -0.8941308856010437 0.4478057026863098 0.0
vn -0.8941308856010437 0.4478057026863098 0.0
vn 0.8941308856010437 -0.4478057026863098 0.0
vn 0.8941308856010437 -0.4478057026863098 0.0
vn 0.8941308856010437 -0.4478057026863098 0.0
vn 0.8941308856010437 -0.4478057026863098 0.0
vn 0.0 0.0 1.0
vn 0.0 0.0 1.0
vn 0.0 0.0 1.0
vn 0.0 0.0 1.0
vn 0.0 0.0 1.0
vn 0.0 0.0 1.0
vn 0.0 0.0 1.0
vn 0.0 0.0 1.0
vn 0.0 0.0 1.0
vn -1.0 0.0 0.0
vn -1.0 0.0 0.0
vn -1.0 0.0 0.0
vn -1.0 0.0 0.0
vn -0.8941308856010437 0.4478057026863098 0.0
vn -0.8941308856010437 0.4478057026863098 0.0
vn -0.8941308856010437 0.4478057026863098 0.0
vn -0.8941308856010437 0.4478057026863098 0.0
vn 0.4478057026863098 0.8941308856010437 -0.0
vn 0.4478057026863098 0.8941308856010437 -0.0
vn 0.4478057026863098 0.8941308856010437 -0.0
vn 0.4478057026863098 0.8941308856010437 -0.0
vn -0.8941308856010437 -0.4478057026863098 0.0
vn -0.8941308856010437 -0.4478057026863098 0.0
vn -0.8941308856010437 -0.4478057026863098 0.0
vn -0.8941308856010437 -0.4478057026863098 0.0
vn -0.0 0.0 -1.0
vn -0.0 0.0 -1.0
vn -0.0 0.0 -1.0
vn -0.0 0.0 -1.0
vn -0.0 0.0 -1.0
vn -0.0 0.0 -1.0
vn -0.0 0.0 -1.0
vn -0.0 0.0 -1.0
vn -0.0 0.0 -1.0
vn -0.4478057026863098 -0.8941308856010437 0.0
vn -0.4478057026863098 -0.8941308856010437 0.0
vn -0.4478057026863098 -0.8941308856010437 0.0
vn -0.4478057026863098 -0.8941308856010437 0.0
vn 0.8941308856010437 -0.4478057026863098 0.0
vn 0.8941308856010437 -0.4478057026863098 0.0
vn 0.8941308856010437 -0.4478057026863098 0.0
vn 0.8941308856010437 -0.4478057026863098 0.0
vn 0.8941308856010437 0.4478057026863098 -0.0
vn 0.8941308856010437 0.4478057026863098 -0.0
vn 0.8941308856010437 0.4478057026863098 -0.0
vn 0.8941308856010437 0.4478057026863098 -0.0
f 2//2 3//3 1//1
f 1//1 3//3 4//4
f 5//5 6//6 8//8
f 8//8 6//6 7//7
f 10//10 11//11 9//9
f 9//9 11//11 12//12
f 13//13 14//14 16//16
f 16//16 14//14 15//15
f 17//17 18//18 20//20
f 20//20 18//18 19//19
f 21//21 22//22 24//24
f 24//24 22//22 23//23
f 25//25 26//26 28//28
f 28//28 26//26 27//27
f 29//29 30//30 32//32
f 32//32 30//30 31//31
f 34//34 35//35 33//33
f 33//33 35//35 41//41
f 41//41 35//35 40//40
f 40//40 35//35 36//36
f 40//40 36//36 37//37
f 38//38 39//39 37//37
f 37//37 39//39 40//40
f 42//42 43//43 45//45
f 45//45 43//43 44//44
f 46//46 47//47 49//49
f 49//49 47//47 48//48
f 50//50 51//51 53//53
f 53//53 51//51 52//52
f 54//54 55//55 57//57
f 57//57 55//55 56//56
f 58//58 59//59 66//66
f 66//66 59//59 60//60
f 66//66 60//60 61//61
f 62//62 64//64 61//61
f 61//61 64//64 65//65
f 61//61 65//65 66//66
f 62//62 63//63 64//64
f 67//67 68//68 70//70
f 70//70 68//68 69//69
f 71//71 72//72 74//74
f 74//74 72//72 73//73
f 75//75 76//76 78//78
f 78//78 76//76 77//77

# End of file