# WaveFront *.obj file
# Vertices: 138
# Triangles : 124

v -14.0 4.898587410340671e-16 10.899999618530273
v -14.100288391113281 -0.8900837302207947 10.899999618530273
v -14.396124839782715 -1.735534906387329 10.899999618530273
v -14.872673988342285 -2.4939591884613037 10.899999618530273
v -15.506040573120117 -3.127326011657715 10.899999618530273
v -16.26446533203125 -3.6038753986358643 10.899999618530273
v -17.10991668701172 -3.8997116088867188 10.899999618530273
v -18.0 -4.0 10.899999618530273
v -18.89008331298828 -3.8997116088867188 10.899999618530273
v -19.73553466796875 -3.6038753986358643 10.899999618530273
v -20.493959426879883 -3.127326011657715 10.899999618530273
v -21.1273250579834 -2.4939591884613037 10.899999618530273
v -21.6038761138916 -1.735534906387329 10.899999618530273
v -21.89971160888672 -0.8900837302207947 10.899999618530273
v -22.0 0.0 10.899999618530273
v -21.89971160888672 0.8900837302207947 10.899999618530273
v -21.6038761138916 1.735534906387329 10.899999618530273
v -21.1273250579834 2.4939591884613037 10.899999618530273
v -20.493959426879883 3.127326011657715 10.899999618530273
v -19.73553466796875 3.6038753986358643 10.899999618530273
v -18.89008331298828 3.8997116088867188 10.899999618530273
v -18.0 4.0 10.899999618530273
v -17.10991668701172 3.8997116088867188 10.899999618530273
v -16.26446533203125 3.6038753986358643 10.899999618530273
v -15.506040573120117 3.127326011657715 10.899999618530273
v -14.872673988342285 2.4939591884613037 10.899999618530273
v -14.396124839782715 1.735534906387329 10.899999618530273
v -14.100288391113281 0.8900837302207947 10.899999618530273
v -14.0 4.898587410340671e-16 4.900000095367432
v -14.100288391113281 0.8900837302207947 4.900000095367432
v -14.396124839782715 1.735534906387329 4.900000095367432
v -14.872673988342285 2.4939591884613037 4.900000095367432
v -15.506040573120117 3.127326011657715 4.900000095367432
v -16.26446533203125 3.6038753986358643 4.900000095367432
v -17.10991668701172 3.8997116088867188 4.900000095367432
v -18.0 4.0 4.900000095367432
v -18.89008331298828 3.8997116088867188 4.900000095367432
v -19.73553466796875 3.6038753986358643 4.900000095367432
v -20.493959426879883 3.127326011657715 4.900000095367432
v -21.1273250579834 2.4939591884613037 4.900000095367432
v -21.6038761138916 1.735534906387329 4.900000095367432
v -21.89971160888672 0.8900837302207947 4.900000095367432
v -22.0 0.0 4.900000095367432
v -21.89971160888672 -0.8900837302207947 4.900000095367432
v -21.6038761138916 -1.735534906387329 4.900000095367432
v -21.1273250579834 -2.4939591884613037 4.900000095367432
v -20.493959426879883 -3.127326011657715 4.900000095367432
v -19.73553466796875 -3.6038753986358643 4.900000095367432
v -18.89008331298828 -3.8997116088867188 4.900000095367432
v -18.0 -4.0 4.900000095367432
v -17.10991668701172 -3.8997116088867188 4.900000095367432
v -16.26446533203125 -3.6038753986358643 4.900000095367432
v -15.506040573120117 -3.127326011657715 4.900000095367432
v -14.872673988342285 -2.4939591884613037 4.900000095367432
v -14.396124839782715 -1.735534906387329 4.900000095367432
v -14.100288391113281 -0.8900837302207947 4.900000095367432
v -14.0 4.898587410340671e-16 4.900000095367432
v -14.0 4.898587410340671e-16 10.899999618530273
v -14.0 4.898587410340671e-16 10.899999618530273
v -14.100288391113281 0.8900837302207947 10.899999618530273
v -14.396124839782715 1.735534906387329 10.899999618530273
v -14.872673988342285 2.4939591884613037 10.899999618530273
v -15.506040573120117 3.127326011657715 10.899999618530273
v -16.26446533203125 3.6038753986358643 10.899999618530273
v -17.10991668701172 3.8997116088867188 10.899999618530273
v -18.0 4.0 10.899999618530273
v -18.89008331298828 3.8997116088867188 10.899999618530273
v -19.73553466796875 3.6038753986358643 10.899999618530273
v -20.493959426879883 3.127326011657715 10.899999618530273
v -21.1273250579834 2.4939591884613037 10.899999618530273
v -21.6038761138916 1.735534906387329 10.899999618530273
v -21.89971160888672 0.8900837302207947 10.899999618530273
v -22.0 0.0 10.899999618530273
v -21.89971160888672 -0.8900837302207947 10.899999618530273
v -21.6038761138916 -1.735534906387329 10.899999618530273
v -21.1273250579834 -2.4939591884613037 10.899999618530273
v -20.493959426879883 -3.127326011657715 10.899999618530273
v -19.73553466796875 -3.6038753986358643 10.899999618530273
v -18.89008331298828 -3.8997116088867188 10.899999618530273
v -18.0 -4.0 10.899999618530273
v -17.10991668701172 -3.8997116088867188 10.899999618530273
v -16.26446533203125 -3.6038753986358643 10.899999618530273
v -15.506040573120117 -3.127326011657715 10.899999618530273
v -14.872673988342285 -2.4939591884613037 10.899999618530273
v -14.396124839782715 -1.735534906387329 10.899999618530273
v -14.100288391113281 -0.8900837302207947 10.899999618530273
v 25.0 7.0 0.0
v -25.0 7.0 0.0
v -25.0 7.0 4.900000095367432
v 25.0 7.0 4.900000095367432
v 25.0 -7.0 0.0
v 25.0 7.0 0.0
v 25.0 7.0 4.900000095367432
v 25.0 -7.0 4.900000095367432
v -25.0 -7.0 0.0
v 25.0 -7.0 0.0
v 25.0 -7.0 4.900000095367432
v -25.0 -7.0 4.900000095367432
v -25.0 7.0 0.0
v -25.0 -7.0 0.0
v -25.0 -7.0 4.900000095367432
v -25.0 7.0 4.900000095367432
v -14.0 4.898587410340671e-16 4.900000095367432
v -14.100288391113281 -0.8900837302207947 4.900000095367432
v -14.396124839782715 -1.735534906387329 4.900000095367432
v -14.872673988342285 -2.4939591884613037 4.900000095367432
v -15.506040573120117 -3.127326011657715 4.900000095367432
v -16.26446533203125 -3.6038753986358643 4.900000095367432
v -17.10991668701172 -3.8997116088867188 4.900000095367432
v -18.0 -4.0 4.900000095367432
v -18.89008331298828 -3.8997116088867188 4.900000095367432
v -19.73553466796875 -3.6038753986358643 4.900000095367432
v -20.493959426879883 -3.127326011657715 4.900000095367432
v -21.1273250579834 -2.4939591884613037 4.900000095367432
v -21.6038761138916 -1.735534906387329 4.900000095367432
v -21.89971160888672 -0.8900837302207947 4.900000095367432
v -22.0 0.0 4.900000095367432
v -21.89971160888672 0.8900837302207947 4.900000095367432
v -21.6038761138916 1.735534906387329 4.900000095367432
v -21.1273250579834 2.4939591884613037 4.900000095367432
v -20.493959426879883 3.127326011657715 4.900000095367432
v -19.73553466796875 3.6038753986358643 4.900000095367432
v -18.89008331298828 3.8997116088867188 4.900000095367432
v -18.0 4.0 4.900000095367432
v -17.10991668701172 3.8997116088867188 4.900000095367432
v -16.26446533203125 3.6038753986358643 4.900000095367432
v -15.506040573120117 3.127326011657715 4.900000095367432
v -14.872673988342285 2.4939591884613037 4.900000095367432
v -14.396124839782715 1.735534906387329 4.900000095367432
v -14.100288391113281 0.8900837302207947 4.900000095367432
v -25.0 7.0 4.900000095367432
v -25.0 -7.0 4.900000095367432
v 25.0 -7.0 4.900000095367432
v 25.0 7.0 4.900000095367432
v -25.0 -7.0 0.0
v -25.0 7.0 0.0
v 25.0 7.0 0.0
v 25.0 -7.0 0.0
vn 1.0 -1.2246468525851679e-16 -0.0
vn 0.9749279022216797 -0.22252093255519867 -0.0
vn 0.9009688496589661 -0.4338837265968323 -0.0
vn 0.7818315029144287 -0.6234897971153259 -0.0
vn 0.6234897971153259 -0.7818315029144287 -0.0
vn 0.4338837265968323 -0.9009688496589661 -0.0
vn 0.22252093255519867 -0.9749279022216797 -0.0
vn -6.123234262925839e-17 -1.0 0.0
vn -0.22252093255519867 -0.9749279022216797 0.0
vn -0.4338837265968323 -0.9009688496589661 0.0
vn -0.6234897971153259 -0.7818315029144287 0.0
vn -0.7818315029144287 -0.6234897971153259 0.0
vn -0.9009688496589661 -0.4338837265968323 0.0
vn -0.9749279022216797 -0.22252093255519867 0.0
vn -1.0 -0.0 0.0
vn -0.9749279022216797 0.22252093255519867 -0.0
vn -0.9009688496589661 0.4338837265968323 -0.0
vn -0.7818315029144287 0.6234897971153259 -0.0
vn -0.6234897971153259 0.7818315029144287 -0.0
vn -0.4338837265968323 0.9009688496589661 -0.0
vn -0.22252093255519867 0.9749279022216797 -0.0
vn -6.123234262925839e-17 1.0 -0.0
vn 0.22252093255519867 0.9749279022216797 -0.0
vn 0.4338837265968323 0.9009688496589661 -0.0
vn 0.6234897971153259 0.7818315029144287 -0.0
vn 0.7818315029144287 0.6234897971153259 -0.0
vn 0.9009688496589661 0.4338837265968323 -0.0
vn 0.9749279022216797 0.22252093255519867 -0.0
vn 1.0 1.2246468525851679e-16 -0.0
vn 0.9749279022216797 0.22252093255519867 -0.0
vn 0.9009688496589661 0.4338837265968323 -0.0
vn 0.7818315029144287 0.6234897971153259 -0.0
vn 0.6234897971153259 0.7818315029144287 -0.0
vn 0.4338837265968323 0.9009688496589661 -0.0
vn 0.22252093255519867 0.9749279022216797 -0.0
vn -6.123234262925839e-17 1.0 -0.0
vn -0.22252093255519867 0.9749279022216797 -0.0
vn -0.4338837265968323 0.9009688496589661 -0.0
vn -0.6234897971153259 0.7818315029144287 -0.0
vn -0.7818315029144287 0.6234897971153259 -0.0
vn -0.9009688496589661 0.4338837265968323 -0.0
vn -0.9749279022216797 0.22252093255519867 -0.0
vn -1.0 -0.0 0.0
vn -0.9749279022216797 -0.22252093255519867 0.0
vn -0.9009688496589661 -0.4338837265968323 0.0
vn -0.7818315029144287 -0.6234897971153259 0.0
vn -0.6234897971153259 -0.7818315029144287 0.0
vn -0.4338837265968323 -0.9009688496589661 0.0
vn -0.22252093255519867 -0.9749279022216797 0.0
vn -6.123234262925839e-17 -1.0 0.0
vn 0.22252093255519867 -0.9749279022216797 -0.0
vn 0.4338837265968323 -0.9009688496589661 -0.0
vn 0.6234897971153259 -0.7818315029144287 -0.0
vn 0.7818315029144287 -0.6234897971153259 -0.0
vn 0.9009688496589661 -0.4338837265968323 -0.0
vn 0.9749279022216797 -0.22252093255519867 -0.0
vn 1.0 -1.2246468525851679e-16 -0.0
vn 1.0 1.2246468525851679e-16 -0.0
vn 0.0 0.0 1.0
vn 0.0 0.0 1.0
vn 0.0 0.0 1.0
vn 0.0 0.0 1.0
vn 0.0 0.0 1.0
vn 0.0 0.0 1.0
vn 0.0 0.0 1.0
vn 0.0 0.0 1.0
vn 0.0 0.0 1.0
vn 0.0 0.0 1.0
vn 0.0 0.0 1.0
vn 0.0 0.0 1.0
vn 0.0 0.0 1.0
vn 0.0 0.0 1.0
vn 0.0 0.0 1.0
vn 0.0 0.0 1.0
vn 0.0 0.0 1.0
vn 0.0 0.0 1.0
vn 0.0 0.0 1.0
vn 0.0 0.0 1.0
vn 0.0 0.0 1.0
vn 0.0 0.0 1.0
vn 0.0 0.0 1.0
vn 0.0 0.0 1.0
vn 0.0 0.0 1.0
vn 0.0 0.0 1.0
vn 0.0 0.0 1.0
vn 0.0 0.0 1.0
vn 0.0 1.0 -0.0
vn 0.0 1.0 -0.0
vn 0.0 1.0 -0.0
vn 0.0 1.0 -0.0
vn 1.0 0.0 0.0
vn 1.0 0.0 0.0
vn 1.0 0.0 0.0
vn 1.0 0.0 0.0
vn 0.0 -1.0 0.0
vn 0.0 -1.0 0.0
vn 0.0 -1.0 0.0
vn 0.0 -1.0 0.0
vn -1.0 -5.075305482313112e-16 0.0
vn -1.0 -5.075305482313112e-16 0.0
vn -1.0 -5.075305482313112e-16 0.0
vn -1.0 -5.075305482313112e-16 0.0
vn 0.0 0.0 1.0
vn 0.0 0.0 1.0
vn 0.0 0.0 1.0
vn 0.0 0.0 1.0
vn 0.0 0.0 1.0
vn 0.0 0.0 1.0
vn 0.0 0.0 1.0
vn 0.0 0.0 1.0
vn 0.0 0.0 1.0
vn 0.0 0.0 1.0
vn 0.0 0.0 1.0
vn 0.0 0.0 1.0
vn 0.0 0.0 1.0
vn 0.0 0.0 1.0
vn 0.0 0.0 1.0
vn 0.0 0.0 1.0
vn 0.0 0.0 1.0
vn 0.0 0.0 1.0
vn 0.0 0.0 1.0
vn 0.0 0.0 1.0
vn 0.0 0.0 1.0
vn 0.0 0.0 1.0
vn 0.0 0.0 1.0
vn 0.0 0.0 1.0
vn 0.0 0.0 1.0
vn 0.0 0.0 1.0
vn 0.0 0.0 1.0
vn 0.0 0.0 1.0
vn 0.0 0.0 1.0
vn 0.0 0.0 1.0
vn 0.0 0.0 1.0
vn 0.0 0.0 1.0
vn -0.0 -0.0 -1.0
vn -0.0 -0.0 -1.0
vn -0.0 -0.0 -1.0
vn -0.0 -0.0 -1.0
g 066cfcda-e35a-11ea-8d23-54bf646e7e1f
f 2//2 56//56 1//1
f 1//1 56//56 57//57
f 58//58 29//29 28//28
f 28//28 29//29 30//30
f 28//28 30//30 27//27
f 27//27 30//30 31//31
f 27//27 31//31 26//26
f 26//26 31//31 32//32
f 26//26 32//32 25//25
f 25//25 32//32 33//33
f 25//25 33//33 24//24
f 24//24 33//33 34//34
f 24//24 34//34 23//23
f 23//23 34//34 35//35
f 23//23 35//35 22//22
f 22//22 35//35 36//36
f 22//22 36//36 21//21
f 21//21 36//36 37//37
f 21//21 37//37 20//20
f 20//20 37//37 38//38
f 20//20 38//38 19//19
f 19//19 38//38 39//39
f 19//19 39//39 18//18
f 18//18 39//39 40//40
f 18//18 40//40 17//17
f 17//17 40//40 41//41
f 17//17 41//41 16//16
f 16//16 41//41 42//42
f 16//16 42//42 15//15
f 15//15 42//42 43//43
f 15//15 43//43 14//14
f 14//14 43//43 44//44
f 14//14 44//44 13//13
f 13//13 44//44 45//45
f 13//13 45//45 12//12
f 12//12 45//45 46//46
f 12//12 46//46 11//11
f 11//11 46//46 47//47
f 11//11 47//47 10//10
f 10//10 47//47 48//48
f 10//10 48//48 9//9
f 9//9 48//48 49//49
f 9//9 49//49 8//8
f 8//8 49//49 50//50
f 8//8 50//50 7//7
f 7//7 50//50 51//51
f 7//7 51//51 6//6
f 6//6 51//51 52//52
f 6//6 52//52 5//5
f 5//5 52//52 53//53
f 5//5 53//53 4//4
f 4//4 53//53 54//54
f 4//4 54//54 3//3
f 3//3 54//54 55//55
f 3//3 55//55 2//2
f 2//2 55//55 56//56
g 066d4af4-e35a-11ea-a1d1-54bf646e7e1f
f 60//60 72//72 59//59
f 59//59 72//72 73//73
f 59//59 73//73 86//86
f 86//86 73//73 74//74
f 86//86 74//74 85//85
f 85//85 74//74 75//75
f 85//85 75//75 84//84
f 84//84 75//75 76//76
f 84//84 76//76 83//83
f 83//83 76//76 77//77
f 83//83 77//77 82//82
f 82//82 77//77 78//78
f 82//82 78//78 81//81
f 81//81 78//78 79//79
f 81//81 79//79 80//80
f 72//72 60//60 71//71
f 71//71 60//60 61//61
f 71//71 61//61 70//70
f 70//70 61//61 62//62
f 70//70 62//62 69//69
f 69//69 62//62 63//63
f 69//69 63//63 68//68
f 68//68 63//63 64//64
f 68//68 64//64 67//67
f 67//67 64//64 65//65
f 67//67 65//65 66//66
g 063462ba-e35a-11ea-a23b-54bf646e7e1f
f 87//87 88//88 90//90
f 90//90 88//88 89//89
g 063489c8-e35a-11ea-aab8-54bf646e7e1f
f 91//91 92//92 94//94
f 94//94 92//92 93//93
g 0634b0d4-e35a-11ea-b305-54bf646e7e1f
f 95//95 96//96 98//98
f 98//98 96//96 97//97
g 0634d7e2-e35a-11ea-9298-54bf646e7e1f
f 99//99 100//100 102//102
f 102//102 100//100 101//101
g 0634fef0-e35a-11ea-99dc-54bf646e7e1f
f 104//104 133//133 103//103
f 103//103 133//133 134//134
f 103//103 134//134 130//130
f 130//130 134//134 129//129
f 129//129 134//134 128//128
f 128//128 134//134 127//127
f 127//127 134//134 126//126
f 126//126 134//134 125//125
f 125//125 134//134 131//131
f 125//125 131//131 124//124
f 124//124 131//131 123//123
f 123//123 131//131 122//122
f 122//122 131//131 121//121
f 121//121 131//131 120//120
f 120//120 131//131 119//119
f 119//119 131//131 118//118
f 118//118 131//131 117//117
f 117//117 131//131 132//132
f 117//117 132//132 116//116
f 116//116 132//132 115//115
f 115//115 132//132 114//114
f 114//114 132//132 113//113
f 113//113 132//132 112//112
f 112//112 132//132 111//111
f 111//111 132//132 110//110
f 110//110 132//132 109//109
f 109//109 132//132 133//133
f 109//109 133//133 108//108
f 108//108 133//133 107//107
f 107//107 133//133 106//106
f 106//106 133//133 105//105
f 105//105 133//133 104//104
g 063525fe-e35a-11ea-8368-54bf646e7e1f
f 136//136 137//137 135//135
f 135//135 137//137 138//138

# End of file