# WaveFront *.obj file
# Vertices: 24
# Triangles : 12

v 15.0 10.0 0.0
v -15.0 10.0 0.0
v -15.0 10.0 20.0
v 15.0 10.0 20.0
v 15.0 -10.0 0.0
v 15.0 10.0 0.0
v 15.0 10.0 20.0
v 15.0 -10.0 20.0
v -15.0 -10.0 0.0
v 15.0 -10.0 0.0
v 15.0 -10.0 20.0
v -15.0 -10.0 20.0
v -15.0 10.0 0.0
v -15.0 -10.0 0.0
v -15.0 -10.0 20.0
v -15.0 10.0 20.0
v -15.0 10.0 20.0
v -15.0 -10.0 20.0
v 15.0 -10.0 20.0
v 15.0 10.0 20.0
v -15.0 -10.0 0.0
v -15.0 10.0 0.0
v 15.0 10.0 0.0
v 15.0 -10.0 0.0
vn 0.0 1.0 -0.0
vn 0.0 1.0 -0.0
vn 0.0 1.0 -0.0
vn 0.0 1.0 -0.0
vn 1.0 0.0 0.0
vn 1.0 0.0 0.0
vn 1.0 0.0 0.0
vn 1.0 0.0 0.0
vn 0.0 -1.0 0.0
vn 0.0 -1.0 0.0
vn 0.0 -1.0 0.0
vn 0.0 -1.0 0.0
vn -1.0 0.0 0.0
vn -1.0 0.0 0.0
vn -1.0 0.0 0.0
vn -1.0 0.0 0.0
vn 0.0 0.0 1.0
vn 0.0 0.0 1.0
vn 0.0 0.0 1.0
vn 0.0 0.0 1.0
vn -0.0 -0.0 -1.0
vn -0.0 -0.0 -1.0
vn -0.0 -0.0 -1.0
vn -0.0 -0.0 -1.0
g 07d58070-e35a-11ea-9e59-54bf646e7e1f
f 1//1 2//2 4//4
f 4//4 2//2 3//3
g 07d5a774-e35a-11ea-9098-54bf646e7e1f
f 5//5 6//6 8//8
f 8//8 6//6 7//7
g 07d5ce70-e35a-11ea-8781-54bf646e7e1f
f 9//9 10//10 12//12
f 12//12 10//10 11//11
g 07d61c88-e35a-11ea-8615-54bf646e7e1f
f 13//13 14//14 16//16
f 16//16 14//14 15//15
g 07d6438c-e35a-11ea-ae80-54bf646e7e1f
f 18//18 19//19 17//17
f 17//17 19//19 20//20
g 07d691ae-e35a-11ea-85a3-54bf646e7e1f
f 22//22 23//23 21//21
f 21//21 23//23 24//24

# End of file