# WaveFront *.obj file
# Vertices: 60
# Triangles : 36

v 1.0 0.0 -2.0
v -1.0 0.0 -0.6722255945205688
v -1.0 0.20000000298023224 -0.6722255945205688
v 1.0 0.20000000298023224 -2.0
v 0.0031301488634198904 0.0 -0.006260297726839781
v 1.0 0.0 -2.0
v 1.0 0.20000000298023224 -2.0
v 0.0031301488634198904 0.20000000298023224 -0.006260297726839781
v 1.0 0.0 0.6555488705635071
v 0.0031301488634198904 0.0 -0.006260297726839781
v 0.0031301488634198904 0.20000000298023224 -0.006260297726839781
v 1.0 0.20000000298023224 0.6555488705635071
v 1.0 0.20000000298023224 0.6555488705635071
v 0.0031301488634198904 0.20000000298023224 -0.006260297726839781
v 1.0 0.20000000298023224 -2.0
v -1.0 0.20000000298023224 -0.6722255945205688
v -3.0 0.20000000298023224 -2.0
v -2.0031301975250244 0.20000000298023224 -0.006260297726839781
v -3.0 0.20000000298023224 0.6555488705635071
v -1.6722255945205688 0.20000000298023224 0.6555488705635071
v -1.0 0.20000000298023224 2.0
v -0.32777443528175354 0.20000000298023224 0.6555488705635071
v -1.6722255945205688 0.0 0.6555488705635071
v -1.0 0.0 2.0
v -1.0 0.20000000298023224 2.0
v -1.6722255945205688 0.20000000298023224 0.6555488705635071
v -0.32777443528175354 0.0 0.6555488705635071
v 1.0 0.0 0.6555488705635071
v 1.0 0.20000000298023224 0.6555488705635071
v -0.32777443528175354 0.20000000298023224 0.6555488705635071
v -1.0 0.0 2.0
v -0.32777443528175354 0.0 0.6555488705635071
v -0.32777443528175354 0.20000000298023224 0.6555488705635071
v -1.0 0.20000000298023224 2.0
v -2.0031301975250244 0.0 -0.006260297726839781
v -3.0 0.0 0.6555488705635071
v -3.0 0.20000000298023224 0.6555488705635071
v -2.0031301975250244 0.20000000298023224 -0.006260297726839781
v -3.0 0.0 -2.0
v -2.0031301975250244 0.0 -0.006260297726839781
v -2.0031301975250244 0.20000000298023224 -0.006260297726839781
v -3.0 0.20000000298023224 -2.0
v 0.0031301488634198904 0.0 -0.006260297726839781
v 1.0 0.0 0.6555488705635071
v -0.32777443528175354 0.0 0.6555488705635071
v -1.0 0.0 2.0
v -1.6722255945205688 0.0 0.6555488705635071
v -3.0 0.0 0.6555488705635071
v -2.0031301975250244 0.0 -0.006260297726839781
v -3.0 0.0 -2.0
v -1.0 0.0 -0.6722255945205688
v 1.0 0.0 -2.0
v -1.0 0.0 -0.6722255945205688
v -3.0 0.0 -2.0
v -3.0 0.20000000298023224 -2.0
v -1.0 0.20000000298023224 -0.6722255945205688
v -3.0 0.0 0.6555488705635071
v -1.6722255945205688 0.0 0.6555488705635071
v -1.6722255945205688 0.20000000298023224 0.6555488705635071
v -3.0 0.20000000298023224 0.6555488705635071
vn -0.5530960559844971 0.0 -0.8331174850463867
vn -0.5530960559844971 0.0 -0.8331174850463867
vn -0.5530960559844971 0.0 -0.8331174850463867
vn -0.5530960559844971 0.0 -0.8331174850463867
vn 0.8944271802902222 -0.0 0.4472135901451111
vn 0.8944271802902222 -0.0 0.4472135901451111
vn 0.8944271802902222 -0.0 0.4472135901451111
vn 0.8944271802902222 -0.0 0.4472135901451111
vn 0.5530960559844971 0.0 -0.8331174850463867
vn 0.5530960559844971 0.0 -0.8331174850463867
vn 0.5530960559844971 0.0 -0.8331174850463867
vn 0.5530960559844971 0.0 -0.8331174850463867
vn 0.0 1.0 0.0
vn 0.0 1.0 0.0
vn 0.0 1.0 0.0
vn 0.0 1.0 0.0
vn 0.0 1.0 0.0
vn 0.0 1.0 0.0
vn 0.0 1.0 0.0
vn 0.0 1.0 0.0
vn 0.0 1.0 0.0
vn 0.0 1.0 0.0
vn -0.8944271802902222 0.0 0.4472135901451111
vn -0.8944271802902222 0.0 0.4472135901451111
vn -0.8944271802902222 0.0 0.4472135901451111
vn -0.8944271802902222 0.0 0.4472135901451111
vn 0.0 0.0 1.0
vn 0.0 0.0 1.0
vn 0.0 0.0 1.0
vn 0.0 0.0 1.0
vn 0.8944271802902222 -0.0 0.4472135901451111
vn 0.8944271802902222 -0.0 0.4472135901451111
vn 0.8944271802902222 -0.0 0.4472135901451111
vn 0.8944271802902222 -0.0 0.4472135901451111
vn -0.5530960559844971 0.0 -0.8331174850463867
vn -0.5530960559844971 0.0 -0.8331174850463867
vn -0.5530960559844971 0.0 -0.8331174850463867
vn -0.5530960559844971 0.0 -0.8331174850463867
vn -0.8944271802902222 0.0 0.4472135901451111
vn -0.8944271802902222 0.0 0.4472135901451111
vn -0.8944271802902222 0.0 0.4472135901451111
vn -0.8944271802902222 0.0 0.4472135901451111
vn -0.0 -1.0 -0.0
vn -0.0 -1.0 -0.0
vn -0.0 -1.0 -0.0
vn -0.0 -1.0 -0.0
vn -0.0 -1.0 -0.0
vn -0.0 -1.0 -0.0
vn -0.0 -1.0 -0.0
vn -0.0 -1.0 -0.0
vn -0.0 -1.0 -0.0
vn -0.0 -1.0 -0.0
vn 0.5530960559844971 0.0 -0.8331174850463867
vn 0.5530960559844971 0.0 -0.8331174850463867
vn 0.5530960559844971 0.0 -0.8331174850463867
vn 0.5530960559844971 0.0 -0.8331174850463867
vn 0.0 0.0 1.0
vn 0.0 0.0 1.0
vn 0.0 0.0 1.0
vn 0.0 0.0 1.0
f 1//1 2//2 4//4
f 4//4 2//2 3//3
f 5//5 6//6 8//8
f 8//8 6//6 7//7
f 9//9 10//10 12//12
f 12//12 10//10 11//11
f 13//13 14//14 22//22
f 22//22 14//14 16//16
f 22//22 16//16 20//20
f 20//20 16//16 18//18
f 20//20 18//18 19//19
f 14//14 15//15 16//16
f 16//16 17//17 18//18
f 20//20 21//21 22//22
f 23//23 24//24 26//26
f 26//26 24//24 25//25
f 27//27 28//28 30//30
f 30//30 28//28 29//29
f 31//31 32//32 34//34
f 34//34 32//32 33//33
f 35//35 36//36 38//38
f 38//38 36//36 37//37
f 39//39 40//40 42//42
f 42//42 40//40 41//41
f 44//44 45//45 43//43
f 43//43 45//45 51//51
f 43//43 51//51 52//52
f 46//46 47//47 45//45
f 45//45 47//47 51//51
f 48//48 49//49 47//47
f 47//47 49//49 51//51
f 49//49 50//50 51//51
f 53//53 54//54 56//56
f 56//56 54//54 55//55
f 57//57 58//58 60//60
f 60//60 58//58 59//59

# End of file