# WaveFront *.obj file
# Vertices: 204
# Triangles : 164

v -0.3945952355861664 0.0 -1.399999976158142
v -0.3945952355861664 0.0 -1.5
v -0.3945952355861664 0.30000001192092896 -1.5
v -0.3945952355861664 0.30000001192092896 -1.399999976158142
v -1.399999976158142 0.0 -1.399999976158142
v -1.385392427444458 0.0 -1.2796955108642578
v -1.3424184322357178 0.0 -1.1663825511932373
v -1.273575782775879 0.0 -1.066646695137024
v -1.1828651428222656 0.0 -0.986284077167511
v -1.0755583047866821 0.0 -0.9299651384353638
v -0.9578917026519775 0.0 -0.9009628891944885
v -0.8367035388946533 0.0 -0.9009628891944885
v -0.719036877155304 0.0 -0.9299651384353638
v -0.6117300987243652 0.0 -0.986284077167511
v -0.521019458770752 0.0 -1.066646695137024
v -0.4521767497062683 0.0 -1.1663825511932373
v -0.40920284390449524 0.0 -1.2796955108642578
v -0.3945952355861664 0.0 -1.399999976158142
v -0.3945952355861664 0.30000001192092896 -1.399999976158142
v -0.40920284390449524 0.30000001192092896 -1.2796955108642578
v -0.4521767497062683 0.30000001192092896 -1.1663825511932373
v -0.521019458770752 0.30000001192092896 -1.066646695137024
v -0.6117300987243652 0.30000001192092896 -0.986284077167511
v -0.719036877155304 0.30000001192092896 -0.9299651384353638
v -0.8367035388946533 0.30000001192092896 -0.9009628891944885
v -0.9578917026519775 0.30000001192092896 -0.9009628891944885
v -1.0755583047866821 0.30000001192092896 -0.9299651384353638
v -1.1828651428222656 0.30000001192092896 -0.986284077167511
v -1.273575782775879 0.30000001192092896 -1.066646695137024
v -1.3424184322357178 0.30000001192092896 -1.1663825511932373
v -1.385392427444458 0.30000001192092896 -1.2796955108642578
v -1.399999976158142 0.30000001192092896 -1.399999976158142
v -1.399999976158142 0.0 -1.5
v -1.399999976158142 0.0 -1.399999976158142
v -1.399999976158142 0.30000001192092896 -1.399999976158142
v -1.399999976158142 0.30000001192092896 -1.5
v -4.0 0.0 -1.5
v -1.399999976158142 0.0 -1.5
v -1.399999976158142 0.30000001192092896 -1.5
v -4.0 0.30000001192092896 -1.5
v -4.0 0.0 -1.399999976158142
v -4.0 0.0 -1.5
v -4.0 0.30000001192092896 -1.5
v -4.0 0.30000001192092896 -1.399999976158142
v -5.0 0.0 -1.399999976158142
v -4.985470771789551 0.0 -1.2803422212600708
v -4.942728042602539 0.0 -1.1676384210586548
v -4.874255180358887 0.0 -1.0684387683868408
v -4.784032344818115 0.0 -0.9885081052780151
v -4.677302360534668 0.0 -0.9324918985366821
v -4.560268402099609 0.0 -0.9036456346511841
v -4.439731597900391 0.0 -0.9036456346511841
v -4.322697639465332 0.0 -0.9324918985366821
v -4.215967655181885 0.0 -0.9885081052780151
v -4.125744819641113 0.0 -1.0684387683868408
v -4.057271957397461 0.0 -1.1676384210586548
v -4.014529228210449 0.0 -1.2803422212600708
v -4.0 0.0 -1.399999976158142
v -4.0 0.30000001192092896 -1.399999976158142
v -4.014529228210449 0.30000001192092896 -1.2803422212600708
v -4.057271957397461 0.30000001192092896 -1.1676384210586548
v -4.125744819641113 0.30000001192092896 -1.0684387683868408
v -4.215967655181885 0.30000001192092896 -0.9885081052780151
v -4.322697639465332 0.30000001192092896 -0.9324918985366821
v -4.439731597900391 0.30000001192092896 -0.9036456346511841
v -4.560268402099609 0.30000001192092896 -0.9036456346511841
v -4.677302360534668 0.30000001192092896 -0.9324918985366821
v -4.784032344818115 0.30000001192092896 -0.9885081052780151
v -4.874255180358887 0.30000001192092896 -1.0684387683868408
v -4.942728042602539 0.30000001192092896 -1.1676384210586548
v -4.985470771789551 0.30000001192092896 -1.2803422212600708
v -5.0 0.30000001192092896 -1.399999976158142
v -5.0 0.0 -1.5
v -5.0 0.0 -1.399999976158142
v -5.0 0.30000001192092896 -1.399999976158142
v -5.0 0.30000001192092896 -1.5
v -6.111689567565918 0.0 -1.5
v -5.0 0.0 -1.5
v -5.0 0.30000001192092896 -1.5
v -6.111689567565918 0.30000001192092896 -1.5
v -6.5 0.0 -1.7000000476837158
v -6.111689567565918 0.0 -1.5
v -6.111689567565918 0.30000001192092896 -1.5
v -6.5 0.30000001192092896 -1.7000000476837158
v -6.111689567565918 0.0 -1.7000000476837158
v -6.5 0.0 -1.7000000476837158
v -6.5 0.30000001192092896 -1.7000000476837158
v -6.111689567565918 0.30000001192092896 -1.7000000476837158
v -6.111689567565918 0.0 -2.7574713230133057
v -6.111689567565918 0.0 -1.7000000476837158
v -6.111689567565918 0.30000001192092896 -1.7000000476837158
v -6.111689567565918 0.30000001192092896 -2.7574713230133057
v -4.5 0.0 -3.0
v -6.111689567565918 0.0 -2.7574713230133057
v -6.111689567565918 0.30000001192092896 -2.7574713230133057
v -4.5 0.30000001192092896 -3.0
v -3.5 0.0 -4.0
v -4.5 0.0 -3.0
v -4.5 0.30000001192092896 -3.0
v -3.5 0.30000001192092896 -4.0
v -2.0 0.0 -4.0
v -3.5 0.0 -4.0
v -3.5 0.30000001192092896 -4.0
v -2.0 0.30000001192092896 -4.0
v -0.5 0.0 -3.0
v -2.0 0.0 -4.0
v -2.0 0.30000001192092896 -4.0
v -0.5 0.30000001192092896 -3.0
v 0.5 0.0 -3.0
v -0.5 0.0 -3.0
v -0.5 0.30000001192092896 -3.0
v 0.5 0.30000001192092896 -3.0
v 0.5 0.0 -1.5
v 0.5 0.0 -3.0
v 0.5 0.30000001192092896 -3.0
v 0.5 0.30000001192092896 -1.5
v -0.3945952355861664 0.0 -1.5
v 0.5 0.0 -1.5
v 0.5 0.30000001192092896 -1.5
v -0.3945952355861664 0.30000001192092896 -1.5
v -0.3945952355861664 0.30000001192092896 -1.5
v 0.5 0.30000001192092896 -1.5
v 0.5 0.30000001192092896 -3.0
v -0.5 0.30000001192092896 -3.0
v -2.0 0.30000001192092896 -4.0
v -3.5 0.30000001192092896 -4.0
v -4.5 0.30000001192092896 -3.0
v -6.111689567565918 0.30000001192092896 -2.7574713230133057
v -6.111689567565918 0.30000001192092896 -1.7000000476837158
v -6.5 0.30000001192092896 -1.7000000476837158
v -6.111689567565918 0.30000001192092896 -1.5
v -5.0 0.30000001192092896 -1.5
v -5.0 0.30000001192092896 -1.399999976158142
v -4.985470771789551 0.30000001192092896 -1.2803422212600708
v -4.942728042602539 0.30000001192092896 -1.1676384210586548
v -4.874255180358887 0.30000001192092896 -1.0684387683868408
v -4.784032344818115 0.30000001192092896 -0.9885081052780151
v -4.677302360534668 0.30000001192092896 -0.9324918985366821
v -4.560268402099609 0.30000001192092896 -0.9036456346511841
v -4.439731597900391 0.30000001192092896 -0.9036456346511841
v -4.322697639465332 0.30000001192092896 -0.9324918985366821
v -4.215967655181885 0.30000001192092896 -0.9885081052780151
v -4.125744819641113 0.30000001192092896 -1.0684387683868408
v -4.057271957397461 0.30000001192092896 -1.1676384210586548
v -4.014529228210449 0.30000001192092896 -1.2803422212600708
v -4.0 0.30000001192092896 -1.399999976158142
v -4.0 0.30000001192092896 -1.5
v -1.399999976158142 0.30000001192092896 -1.5
v -1.399999976158142 0.30000001192092896 -1.399999976158142
v -1.385392427444458 0.30000001192092896 -1.2796955108642578
v -1.3424184322357178 0.30000001192092896 -1.1663825511932373
v -1.273575782775879 0.30000001192092896 -1.066646695137024
v -1.1828651428222656 0.30000001192092896 -0.986284077167511
v -1.0755583047866821 0.30000001192092896 -0.9299651384353638
v -0.9578917026519775 0.30000001192092896 -0.9009628891944885
v -0.8367035388946533 0.30000001192092896 -0.9009628891944885
v -0.719036877155304 0.30000001192092896 -0.9299651384353638
v -0.6117300987243652 0.30000001192092896 -0.986284077167511
v -0.521019458770752 0.30000001192092896 -1.066646695137024
v -0.4521767497062683 0.30000001192092896 -1.1663825511932373
v -0.40920284390449524 0.30000001192092896 -1.2796955108642578
v -0.3945952355861664 0.30000001192092896 -1.399999976158142
v 0.5 0.0 -1.5
v -0.3945952355861664 0.0 -1.5
v -0.3945952355861664 0.0 -1.399999976158142
v -0.40920284390449524 0.0 -1.2796955108642578
v -0.4521767497062683 0.0 -1.1663825511932373
v -0.521019458770752 0.0 -1.066646695137024
v -0.6117300987243652 0.0 -0.986284077167511
v -0.719036877155304 0.0 -0.9299651384353638
v -0.8367035388946533 0.0 -0.9009628891944885
v -0.9578917026519775 0.0 -0.9009628891944885
v -1.0755583047866821 0.0 -0.9299651384353638
v -1.1828651428222656 0.0 -0.986284077167511
v -1.273575782775879 0.0 -1.066646695137024
v -1.3424184322357178 0.0 -1.1663825511932373
v -1.385392427444458 0.0 -1.2796955108642578
v -1.399999976158142 0.0 -1.399999976158142
v -1.399999976158142 0.0 -1.5
v -4.0 0.0 -1.5
v -4.0 0.0 -1.399999976158142
v -4.014529228210449 0.0 -1.2803422212600708
v -4.057271957397461 0.0 -1.1676384210586548
v -4.125744819641113 0.0 -1.0684387683868408
v -4.215967655181885 0.0 -0.9885081052780151
v -4.322697639465332 0.0 -0.9324918985366821
v -4.439731597900391 0.0 -0.9036456346511841
v -4.560268402099609 0.0 -0.9036456346511841
v -4.677302360534668 0.0 -0.9324918985366821
v -4.784032344818115 0.0 -0.9885081052780151
v -4.874255180358887 0.0 -1.0684387683868408
v -4.942728042602539 0.0 -1.1676384210586548
v -4.985470771789551 0.0 -1.2803422212600708
v -5.0 0.0 -1.399999976158142
v -5.0 0.0 -1.5
v -6.111689567565918 0.0 -1.5
v -6.5 0.0 -1.7000000476837158
v -6.111689567565918 0.0 -1.7000000476837158
v -6.111689567565918 0.0 -2.7574713230133057
v -4.5 0.0 -3.0
v -3.5 0.0 -4.0
v -2.0 0.0 -4.0
v -0.5 0.0 -3.0
v 0.5 0.0 -3.0
vn 1.0 0.0 0.0
vn 1.0 0.0 0.0
vn 1.0 0.0 0.0
vn 1.0 0.0 0.0
vn -1.0 -0.0 0.0
vn -0.9709418416023254 -0.0 0.23931565880775452
vn -0.8854560256004333 -0.0 0.4647231698036194
vn -0.7485107779502869 -0.0 0.6631226539611816
vn -0.5680647492408752 -0.0 0.8229838609695435
vn -0.35460489988327026 -0.0 0.9350162148475647
vn -0.1205366775393486 -0.0 0.9927088618278503
vn 0.1205366775393486 -0.0 0.9927088618278503
vn 0.35460489988327026 -0.0 0.9350162148475647
vn 0.5680647492408752 -0.0 0.8229838609695435
vn 0.7485107779502869 -0.0 0.6631226539611816
vn 0.8854560256004333 -0.0 0.4647231698036194
vn 0.9709418416023254 -0.0 0.23931565880775452
vn 1.0 -0.0 1.2246468525851679e-16
vn 1.0 -0.0 1.2246468525851679e-16
vn 0.9709418416023254 -0.0 0.23931565880775452
vn 0.8854560256004333 -0.0 0.4647231698036194
vn 0.7485107779502869 -0.0 0.6631226539611816
vn 0.5680647492408752 -0.0 0.8229838609695435
vn 0.35460489988327026 -0.0 0.9350162148475647
vn 0.1205366775393486 -0.0 0.9927088618278503
vn -0.1205366775393486 -0.0 0.9927088618278503
vn -0.35460489988327026 -0.0 0.9350162148475647
vn -0.5680647492408752 -0.0 0.8229838609695435
vn -0.7485107779502869 -0.0 0.6631226539611816
vn -0.8854560256004333 -0.0 0.4647231698036194
vn -0.9709418416023254 -0.0 0.23931565880775452
vn -1.0 -0.0 0.0
vn -1.0 0.0 0.0
vn -1.0 0.0 0.0
vn -1.0 0.0 0.0
vn -1.0 0.0 0.0
vn 0.0 0.0 1.0
vn 0.0 0.0 1.0
vn 0.0 0.0 1.0
vn 0.0 0.0 1.0
vn 1.0 -0.0 0.0
vn 1.0 -0.0 0.0
vn 1.0 -0.0 0.0
vn 1.0 -0.0 0.0
vn -1.0 -0.0 0.0
vn -0.9709418416023254 -0.0 0.23931565880775452
vn -0.8854560256004333 -0.0 0.4647231698036194
vn -0.7485107779502869 -0.0 0.6631226539611816
vn -0.5680647492408752 -0.0 0.8229838609695435
vn -0.35460489988327026 -0.0 0.9350162148475647
vn -0.1205366775393486 -0.0 0.9927088618278503
vn 0.1205366775393486 -0.0 0.9927088618278503
vn 0.35460489988327026 -0.0 0.9350162148475647
vn 0.5680647492408752 -0.0 0.8229838609695435
vn 0.7485107779502869 -0.0 0.6631226539611816
vn 0.8854560256004333 -0.0 0.4647231698036194
vn 0.9709418416023254 -0.0 0.23931565880775452
vn 1.0 -0.0 1.2246468525851679e-16
vn 1.0 -0.0 1.2246468525851679e-16
vn 0.9709418416023254 -0.0 0.23931565880775452
vn 0.8854560256004333 -0.0 0.4647231698036194
vn 0.7485107779502869 -0.0 0.6631226539611816
vn 0.5680647492408752 -0.0 0.8229838609695435
vn 0.35460489988327026 -0.0 0.9350162148475647
vn 0.1205366775393486 -0.0 0.9927088618278503
vn -0.1205366775393486 -0.0 0.9927088618278503
vn -0.35460489988327026 -0.0 0.9350162148475647
vn -0.5680647492408752 -0.0 0.8229838609695435
vn -0.7485107779502869 -0.0 0.6631226539611816
vn -0.8854560256004333 -0.0 0.4647231698036194
vn -0.9709418416023254 -0.0 0.23931565880775452
vn -1.0 -0.0 0.0
vn -1.0 0.0 0.0
vn -1.0 0.0 0.0
vn -1.0 0.0 0.0
vn -1.0 0.0 0.0
vn -2.0106099896111118e-08 0.0 1.0
vn -2.0106099896111118e-08 0.0 1.0
vn -2.0106099896111118e-08 0.0 1.0
vn -2.0106099896111118e-08 0.0 1.0
vn -0.4578864872455597 0.0 0.8890106678009033
vn -0.4578864872455597 0.0 0.8890106678009033
vn -0.4578864872455597 0.0 0.8890106678009033
vn -0.4578864872455597 0.0 0.8890106678009033
vn 0.0 0.0 -1.0
vn 0.0 0.0 -1.0
vn 0.0 0.0 -1.0
vn 0.0 0.0 -1.0
vn -1.0 0.0 0.0
vn -1.0 0.0 0.0
vn -1.0 0.0 0.0
vn -1.0 0.0 0.0
vn -0.1488056778907776 0.0 -0.9888664484024048
vn -0.1488056778907776 0.0 -0.9888664484024048
vn -0.1488056778907776 0.0 -0.9888664484024048
vn -0.1488056778907776 0.0 -0.9888664484024048
vn -0.7071067690849304 0.0 -0.7071067690849304
vn -0.7071067690849304 0.0 -0.7071067690849304
vn -0.7071067690849304 0.0 -0.7071067690849304
vn -0.7071067690849304 0.0 -0.7071067690849304
vn 0.0 0.0 -1.0
vn 0.0 0.0 -1.0
vn 0.0 0.0 -1.0
vn 0.0 0.0 -1.0
vn 0.5547001957893372 0.0 -0.8320503234863281
vn 0.5547001957893372 0.0 -0.8320503234863281
vn 0.5547001957893372 0.0 -0.8320503234863281
vn 0.5547001957893372 0.0 -0.8320503234863281
vn 0.0 0.0 -1.0
vn 0.0 0.0 -1.0
vn 0.0 0.0 -1.0
vn 0.0 0.0 -1.0
vn 1.0 -0.0 0.0
vn 1.0 -0.0 0.0
vn 1.0 -0.0 0.0
vn 1.0 -0.0 0.0
vn 0.0 0.0 1.0
vn 0.0 0.0 1.0
vn 0.0 0.0 1.0
vn 0.0 0.0 1.0
vn 0.0 1.0 0.0
vn 0.0 1.0 0.0
vn 0.0 1.0 0.0
vn 0.0 1.0 0.0
vn 0.0 1.0 0.0
vn 0.0 1.0 0.0
vn 0.0 1.0 0.0
vn 0.0 1.0 0.0
vn 0.0 1.0 0.0
vn 0.0 1.0 0.0
vn 0.0 1.0 0.0
vn 0.0 1.0 0.0
vn 0.0 1.0 0.0
vn 0.0 1.0 0.0
vn 0.0 1.0 0.0
vn 0.0 1.0 0.0
vn 0.0 1.0 0.0
vn 0.0 1.0 0.0
vn 0.0 1.0 0.0
vn 0.0 1.0 0.0
vn 0.0 1.0 0.0
vn 0.0 1.0 0.0
vn 0.0 1.0 0.0
vn 0.0 1.0 0.0
vn 0.0 1.0 0.0
vn 0.0 1.0 0.0
vn 0.0 1.0 0.0
vn 0.0 1.0 0.0
vn 0.0 1.0 0.0
vn 0.0 1.0 0.0
vn 0.0 1.0 0.0
vn 0.0 1.0 0.0
vn 0.0 1.0 0.0
vn 0.0 1.0 0.0
vn 0.0 1.0 0.0
vn 0.0 1.0 0.0
vn 0.0 1.0 0.0
vn 0.0 1.0 0.0
vn 0.0 1.0 0.0
vn 0.0 1.0 0.0
vn 0.0 1.0 0.0
vn 0.0 1.0 0.0
vn -0.0 -1.0 -0.0
vn -0.0 -1.0 -0.0
vn -0.0 -1.0 -0.0
vn -0.0 -1.0 -0.0
vn -0.0 -1.0 -0.0
vn -0.0 -1.0 -0.0
vn -0.0 -1.0 -0.0
vn -0.0 -1.0 -0.0
vn -0.0 -1.0 -0.0
vn -0.0 -1.0 -0.0
vn -0.0 -1.0 -0.0
vn -0.0 -1.0 -0.0
vn -0.0 -1.0 -0.0
vn -0.0 -1.0 -0.0
vn -0.0 -1.0 -0.0
vn -0.0 -1.0 -0.0
vn -0.0 -1.0 -0.0
vn -0.0 -1.0 -0.0
vn -0.0 -1.0 -0.0
vn -0.0 -1.0 -0.0
vn -0.0 -1.0 -0.0
vn -0.0 -1.0 -0.0
vn -0.0 -1.0 -0.0
vn -0.0 -1.0 -0.0
vn -0.0 -1.0 -0.0
vn -0.0 -1.0 -0.0
vn -0.0 -1.0 -0.0
vn -0.0 -1.0 -0.0
vn -0.0 -1.0 -0.0
vn -0.0 -1.0 -0.0
vn -0.0 -1.0 -0.0
vn -0.0 -1.0 -0.0
vn -0.0 -1.0 -0.0
vn -0.0 -1.0 -0.0
vn -0.0 -1.0 -0.0
vn -0.0 -1.0 -0.0
vn -0.0 -1.0 -0.0
vn -0.0 -1.0 -0.0
vn -0.0 -1.0 -0.0
vn -0.0 -1.0 -0.0
vn -0.0 -1.0 -0.0
vn -0.0 -1.0 -0.0
g a05ec29a-e327-11ea-b8ba-54bf646e7e1f
f 1//1 2//2 4//4
f 4//4 2//2 3//3
g a05ee99c-e327-11ea-ab31-54bf646e7e1f
f 32//32 5//5 31//31
f 31//31 5//5 6//6
f 31//31 6//6 30//30
f 30//30 6//6 7//7
f 30//30 7//7 29//29
f 29//29 7//7 8//8
f 29//29 8//8 28//28
f 28//28 8//8 9//9
f 28//28 9//9 27//27
f 27//27 9//9 10//10
f 27//27 10//10 26//26
f 26//26 10//10 11//11
f 26//26 11//11 25//25
f 25//25 11//11 12//12
f 25//25 12//12 24//24
f 24//24 12//12 13//13
f 24//24 13//13 23//23
f 23//23 13//13 14//14
f 23//23 14//14 22//22
f 22//22 14//14 15//15
f 22//22 15//15 21//21
f 21//21 15//15 16//16
f 21//21 16//16 20//20
f 20//20 16//16 17//17
f 20//20 17//17 19//19
f 19//19 17//17 18//18
g a05f10ae-e327-11ea-9389-54bf646e7e1f
f 33//33 34//34 36//36
f 36//36 34//34 35//35
g a05f5ed2-e327-11ea-b156-54bf646e7e1f
f 37//37 38//38 40//40
f 40//40 38//38 39//39
g a05f85d4-e327-11ea-90c1-54bf646e7e1f
f 41//41 42//42 44//44
f 44//44 42//42 43//43
g a05facec-e327-11ea-a99b-54bf646e7e1f
f 72//72 45//45 71//71
f 71//71 45//45 46//46
f 71//71 46//46 70//70
f 70//70 46//46 47//47
f 70//70 47//47 69//69
f 69//69 47//47 48//48
f 69//69 48//48 68//68
f 68//68 48//48 49//49
f 68//68 49//49 67//67
f 67//67 49//49 50//50
f 67//67 50//50 66//66
f 66//66 50//50 51//51
f 66//66 51//51 65//65
f 65//65 51//51 52//52
f 65//65 52//52 64//64
f 64//64 52//52 53//53
f 64//64 53//53 63//63
f 63//63 53//53 54//54
f 63//63 54//54 62//62
f 62//62 54//54 55//55
f 62//62 55//55 61//61
f 61//61 55//55 56//56
f 61//61 56//56 60//60
f 60//60 56//56 57//57
f 60//60 57//57 59//59
f 59//59 57//57 58//58
g a05ffb02-e327-11ea-8f38-54bf646e7e1f
f 73//73 74//74 76//76
f 76//76 74//74 75//75
g a0604924-e327-11ea-a53d-54bf646e7e1f
f 77//77 78//78 80//80
f 80//80 78//78 79//79
g a060974a-e327-11ea-ac64-54bf646e7e1f
f 81//81 82//82 84//84
f 84//84 82//82 83//83
g a060e566-e327-11ea-9459-54bf646e7e1f
f 85//85 86//86 88//88
f 88//88 86//86 87//87
g a061338a-e327-11ea-a470-54bf646e7e1f
f 89//89 90//90 92//92
f 92//92 90//90 91//91
g a06181b4-e327-11ea-ac7a-54bf646e7e1f
f 93//93 94//94 96//96
f 96//96 94//94 95//95
g a061f6f0-e327-11ea-a949-54bf646e7e1f
f 97//97 98//98 100//100
f 100//100 98//98 99//99
g a062450a-e327-11ea-8575-54bf646e7e1f
f 101//101 102//102 104//104
f 104//104 102//102 103//103
g a062ba42-e327-11ea-9ee1-54bf646e7e1f
f 105//105 106//106 108//108
f 108//108 106//106 107//107
g a0632f68-e327-11ea-856c-54bf646e7e1f
f 109//109 110//110 112//112
f 112//112 110//110 111//111
g a063a49c-e327-11ea-9b91-54bf646e7e1f
f 113//113 114//114 116//116
f 116//116 114//114 115//115
g a06419d2-e327-11ea-9dae-54bf646e7e1f
f 117//117 118//118 120//120
f 120//120 118//118 119//119
g a0648efe-e327-11ea-8f46-54bf646e7e1f
f 122//122 123//123 121//121
f 121//121 123//123 124//124
f 121//121 124//124 148//148
f 148//148 124//124 127//127
f 148//148 127//127 147//147
f 147//147 127//127 132//132
f 147//147 132//132 146//146
f 146//146 132//132 133//133
f 146//146 133//133 145//145
f 145//145 133//133 134//134
f 145//145 134//134 144//144
f 144//144 134//134 135//135
f 144//144 135//135 143//143
f 143//143 135//135 136//136
f 143//143 136//136 142//142
f 142//142 136//136 137//137
f 142//142 137//137 141//141
f 141//141 137//137 138//138
f 141//141 138//138 140//140
f 140//140 138//138 139//139
f 124//124 125//125 127//127
f 127//127 125//125 126//126
f 128//128 129//129 127//127
f 127//127 129//129 132//132
f 130//130 131//131 129//129
f 129//129 131//131 132//132
f 148//148 149//149 121//121
f 121//121 149//149 162//162
f 162//162 149//149 161//161
f 161//161 149//149 150//150
f 161//161 150//150 160//160
f 160//160 150//150 151//151
f 160//160 151//151 159//159
f 159//159 151//151 152//152
f 159//159 152//152 158//158
f 158//158 152//152 153//153
f 158//158 153//153 157//157
f 157//157 153//153 154//154
f 157//157 154//154 156//156
f 156//156 154//154 155//155
g a0652b3e-e327-11ea-98f0-54bf646e7e1f
f 163//163 164//164 204//204
f 204//204 164//164 203//203
f 203//203 164//164 179//179
f 203//203 179//179 200//200
f 200//200 179//179 180//180
f 200//200 180//180 195//195
f 195//195 180//180 181//181
f 195//195 181//181 194//194
f 194//194 181//181 193//193
f 193//193 181//181 182//182
f 193//193 182//182 192//192
f 192//192 182//182 183//183
f 192//192 183//183 191//191
f 191//191 183//183 184//184
f 191//191 184//184 190//190
f 190//190 184//184 185//185
f 190//190 185//185 189//189
f 189//189 185//185 186//186
f 189//189 186//186 188//188
f 188//188 186//186 187//187
f 179//179 164//164 178//178
f 178//178 164//164 165//165
f 178//178 165//165 177//177
f 177//177 165//165 166//166
f 177//177 166//166 176//176
f 176//176 166//166 167//167
f 176//176 167//167 175//175
f 175//175 167//167 168//168
f 175//175 168//168 174//174
f 174//174 168//168 169//169
f 174//174 169//169 173//173
f 173//173 169//169 170//170
f 173//173 170//170 172//172
f 172//172 170//170 171//171
f 200//200 195//195 198//198
f 198//198 195//195 196//196
f 198//198 196//196 197//197
f 198//198 199//199 200//200
f 201//201 202//202 200//200
f 200//200 202//202 203//203

# End of file