# WaveFront *.obj file
# Vertices: 24
# Triangles : 12

v 5.0 0.0 10.0
v 5.0 0.0 0.0
v 5.0 -0.5 0.0
v 5.0 -0.5 10.0
v 13.0 0.0 10.0
v 5.0 0.0 10.0
v 5.0 -0.5 10.0
v 13.0 -0.5 10.0
v 13.0 0.0 0.0
v 13.0 0.0 10.0
v 13.0 -0.5 10.0
v 13.0 -0.5 0.0
v 5.0 0.0 0.0
v 13.0 0.0 0.0
v 13.0 -0.5 0.0
v 5.0 -0.5 0.0
v 13.0 0.0 0.0
v 5.0 0.0 0.0
v 5.0 0.0 10.0
v 13.0 0.0 10.0
v 5.0 -0.5 0.0
v 13.0 -0.5 0.0
v 13.0 -0.5 10.0
v 5.0 -0.5 10.0
vn -1.0 -0.0 -0.0
vn -1.0 -0.0 -0.0
vn -1.0 -0.0 -0.0
vn -1.0 -0.0 -0.0
vn 0.0 0.0 1.0
vn 0.0 0.0 1.0
vn 0.0 0.0 1.0
vn 0.0 0.0 1.0
vn 1.0 0.0 -0.0
vn 1.0 0.0 -0.0
vn 1.0 0.0 -0.0
vn 1.0 0.0 -0.0
vn 0.0 0.0 -1.0
vn 0.0 0.0 -1.0
vn 0.0 0.0 -1.0
vn 0.0 0.0 -1.0
vn 0.0 1.0 0.0
vn 0.0 1.0 0.0
vn 0.0 1.0 0.0
vn 0.0 1.0 0.0
vn 0.0 -1.0 0.0
vn 0.0 -1.0 0.0
vn 0.0 -1.0 0.0
vn 0.0 -1.0 0.0
g 0c2860c2-e328-11ea-8951-54bf646e7e1f
f 1//1 2//2 4//4
f 4//4 2//2 3//3
g 0c28aeda-e328-11ea-af5b-54bf646e7e1f
f 5//5 6//6 8//8
f 8//8 6//6 7//7
g 0c28d5e8-e328-11ea-9d03-54bf646e7e1f
f 9//9 10//10 12//12
f 12//12 10//10 11//11
g 0c292406-e328-11ea-a5b5-54bf646e7e1f
f 13//13 14//14 16//16
f 16//16 14//14 15//15
g 0c297224-e328-11ea-b91a-54bf646e7e1f
f 17//17 18//18 20//20
f 20//20 18//18 19//19
g 0c29c050-e328-11ea-b751-54bf646e7e1f
f 22//22 23//23 21//21
f 21//21 23//23 24//24

# End of file