# WaveFront *.obj file
# Vertices: 48
# Triangles : 28

v 7.974999904632568 0.0 17.979999542236328
v 11.024999618530273 0.0 17.979999542236328
v 11.024999618530273 0.800000011920929 17.979999542236328
v 7.974999904632568 0.800000011920929 17.979999542236328
v 7.974999904632568 0.0 19.0
v 7.974999904632568 0.0 17.979999542236328
v 7.974999904632568 0.800000011920929 17.979999542236328
v 7.974999904632568 0.800000011920929 19.0
v 11.024999618530273 0.800000011920929 19.0
v 7.974999904632568 0.800000011920929 19.0
v 7.974999904632568 0.800000011920929 17.979999542236328
v 11.024999618530273 0.800000011920929 17.979999542236328
v 11.024999618530273 0.0 17.979999542236328
v 11.024999618530273 0.0 19.0
v 11.024999618530273 0.800000011920929 19.0
v 11.024999618530273 0.800000011920929 17.979999542236328
v 11.024999618530273 0.0 19.0
v 11.024999618530273 0.0 17.979999542236328
v 7.974999904632568 0.0 17.979999542236328
v 7.974999904632568 0.0 19.0
v 0.0 0.0 19.0
v 0.0 0.0 0.0
v 19.0 0.0 0.0
v 19.0 0.0 19.0
v 0.0 0.0 0.0
v 0.0 0.0 19.0
v 0.0 1.5 19.0
v 0.0 1.5 0.0
v 19.0 0.0 0.0
v 0.0 0.0 0.0
v 0.0 1.5 0.0
v 19.0 1.5 0.0
v 19.0 0.0 19.0
v 19.0 0.0 0.0
v 19.0 1.5 0.0
v 19.0 1.5 19.0
v 11.024999618530273 0.800000011920929 19.0
v 11.024999618530273 0.0 19.0
v 19.0 0.0 19.0
v 19.0 1.5 19.0
v 0.0 1.5 19.0
v 0.0 0.0 19.0
v 7.974999904632568 0.0 19.0
v 7.974999904632568 0.800000011920929 19.0
v 0.0 1.5 19.0
v 19.0 1.5 19.0
v 19.0 1.5 0.0
v 0.0 1.5 0.0
vn -0.0 -0.0 1.0
vn -0.0 -0.0 1.0
vn -0.0 -0.0 1.0
vn -0.0 -0.0 1.0
vn 1.0 0.0 0.0
vn 1.0 0.0 0.0
vn 1.0 0.0 0.0
vn 1.0 0.0 0.0
vn -0.0 -1.0 -0.0
vn -0.0 -1.0 -0.0
vn -0.0 -1.0 -0.0
vn -0.0 -1.0 -0.0
vn -1.0 0.0 -0.0
vn -1.0 0.0 -0.0
vn -1.0 0.0 -0.0
vn -1.0 0.0 -0.0
vn -0.0 -1.0 -0.0
vn -0.0 -1.0 -0.0
vn -0.0 -1.0 -0.0
vn -0.0 -1.0 -0.0
vn -0.0 -1.0 -0.0
vn -0.0 -1.0 -0.0
vn -0.0 -1.0 -0.0
vn -0.0 -1.0 -0.0
vn -1.0 0.0 0.0
vn -1.0 0.0 0.0
vn -1.0 0.0 0.0
vn -1.0 0.0 0.0
vn 0.0 0.0 -1.0
vn 0.0 0.0 -1.0
vn 0.0 0.0 -1.0
vn 0.0 0.0 -1.0
vn 1.0 0.0 0.0
vn 1.0 0.0 0.0
vn 1.0 0.0 0.0
vn 1.0 0.0 0.0
vn 0.0 -0.0 1.0
vn 0.0 -0.0 1.0
vn 0.0 -0.0 1.0
vn 0.0 -0.0 1.0
vn 0.0 -0.0 1.0
vn 0.0 -0.0 1.0
vn 0.0 -0.0 1.0
vn 0.0 -0.0 1.0
vn 0.0 1.0 0.0
vn 0.0 1.0 0.0
vn 0.0 1.0 0.0
vn 0.0 1.0 0.0
g e86242fa-e330-11ea-b2cd-54bf646e7e1f
f 1//1 2//2 4//4
f 4//4 2//2 3//3
g e862df40-e330-11ea-9763-54bf646e7e1f
f 6//6 7//7 5//5
f 5//5 7//7 8//8
g e8635466-e330-11ea-80f6-54bf646e7e1f
f 9//9 10//10 12//12
f 12//12 10//10 11//11
g e863a280-e330-11ea-be99-54bf646e7e1f
f 14//14 15//15 13//13
f 13//13 15//15 16//16
g e838c3c0-e330-11ea-bc94-54bf646e7e1f
f 17//17 18//18 24//24
f 24//24 18//18 23//23
f 23//23 18//18 19//19
f 23//23 19//19 22//22
f 22//22 19//19 21//21
f 21//21 19//19 20//20
g e8373d24-e330-11ea-a28e-54bf646e7e1f
f 25//25 26//26 28//28
f 28//28 26//26 27//27
g e8378b48-e330-11ea-b7eb-54bf646e7e1f
f 29//29 30//30 32//32
f 32//32 30//30 31//31
g e8380086-e330-11ea-b76e-54bf646e7e1f
f 33//33 34//34 36//36
f 36//36 34//34 35//35
g e8384e92-e330-11ea-bfc6-54bf646e7e1f
f 38//38 39//39 37//37
f 37//37 39//39 40//40
f 37//37 40//40 41//41
f 37//37 41//41 44//44
f 44//44 41//41 42//42
f 44//44 42//42 43//43
g e838759e-e330-11ea-a7ad-54bf646e7e1f
f 46//46 47//47 45//45
f 45//45 47//47 48//48

# End of file