# WaveFront *.obj file
# Vertices: 288
# Triangles : 156

v -8.0 0.0 3.0
v -8.0 0.0 0.0
v -8.0 0.800000011920929 0.0
v -8.0 0.800000011920929 3.0
v -12.0 0.0 3.0
v -8.0 0.0 3.0
v -8.0 0.800000011920929 3.0
v -12.0 0.800000011920929 3.0
v -8.0 0.0 0.0
v -12.0 0.0 0.0
v -12.0 0.800000011920929 0.0
v -8.0 0.800000011920929 0.0
v -12.0 0.800000011920929 0.0
v -12.0 0.800000011920929 3.0
v -8.0 0.800000011920929 3.0
v -8.0 0.800000011920929 0.0
v -12.0 0.0 0.0
v -12.0 0.0 3.0
v -12.0 0.800000011920929 3.0
v -12.0 0.800000011920929 0.0
v -9.5 0.0 1.0
v -10.5 0.0 1.0
v -10.5 0.0 2.0
v -9.5 0.0 2.0
v -12.0 0.0 3.0
v -12.0 0.0 0.0
v -8.0 0.0 0.0
v -8.0 0.0 3.0
v -9.5 0.0 1.0
v -9.5 0.0 2.0
v -9.5 0.4000000059604645 2.0
v -9.5 0.4000000059604645 1.0
v -10.5 0.4000000059604645 2.0
v -10.5 0.4000000059604645 1.0
v -9.5 0.4000000059604645 1.0
v -9.5 0.4000000059604645 2.0
v -10.5 0.0 2.0
v -10.5 0.0 1.0
v -10.5 0.4000000059604645 1.0
v -10.5 0.4000000059604645 2.0
v -9.5 0.0 2.0
v -10.5 0.0 2.0
v -10.5 0.4000000059604645 2.0
v -9.5 0.4000000059604645 2.0
v -10.5 0.0 1.0
v -9.5 0.0 1.0
v -9.5 0.4000000059604645 1.0
v -10.5 0.4000000059604645 1.0
v 3.0 0.0 0.0
v 0.0 0.0 0.0
v 0.0 0.0 -4.0
v 3.0 0.0 -4.0
v -4.0 0.0 0.0
v -4.0 0.0 3.0
v -4.0 0.800000011920929 3.0
v -4.0 0.800000011920929 0.0
v 0.0 0.0 0.0
v -4.0 0.0 0.0
v -4.0 0.800000011920929 0.0
v 0.0 0.800000011920929 0.0
v 0.0 0.800000011920929 0.0
v 3.0 0.800000011920929 0.0
v 3.0 0.800000011920929 -4.0
v 0.0 0.800000011920929 -4.0
v -4.0 0.0 3.0
v 0.0 0.0 3.0
v 0.0 0.800000011920929 3.0
v -4.0 0.800000011920929 3.0
v 0.0 0.0 0.0
v 3.0 0.0 0.0
v 3.0 0.800000011920929 0.0
v 0.0 0.800000011920929 0.0
v 0.0 0.0 3.0
v 0.0 0.0 0.0
v 0.0 0.800000011920929 0.0
v 0.0 0.800000011920929 3.0
v 3.0 0.0 0.0
v 3.0 0.0 -4.0
v 3.0 0.800000011920929 -4.0
v 3.0 0.800000011920929 0.0
v 3.0 0.0 -4.0
v 0.0 0.0 -4.0
v 0.0 0.800000011920929 -4.0
v 3.0 0.800000011920929 -4.0
v 0.0 0.0 -4.0
v 0.0 0.0 0.0
v 0.0 0.800000011920929 0.0
v 0.0 0.800000011920929 -4.0
v -4.0 0.0 0.0
v 0.0 0.0 0.0
v 0.0 0.0 3.0
v -4.0 0.0 3.0
v 0.0 0.800000011920929 0.0
v -4.0 0.800000011920929 0.0
v -4.0 0.800000011920929 3.0
v 0.0 0.800000011920929 3.0
v 0.0 0.800000011920929 -8.0
v 3.0 0.800000011920929 -8.0
v 3.0 0.800000011920929 -12.0
v 0.0 0.800000011920929 -12.0
v 3.0 0.0 -8.0
v 3.0 0.0 -12.0
v 3.0 0.800000011920929 -12.0
v 3.0 0.800000011920929 -8.0
v 0.0 0.0 -8.0
v 3.0 0.0 -8.0
v 3.0 0.800000011920929 -8.0
v 0.0 0.800000011920929 -8.0
v 3.0 0.0 -12.0
v 0.0 0.0 -12.0
v 0.0 0.800000011920929 -12.0
v 3.0 0.800000011920929 -12.0
v 0.0 0.0 -12.0
v 0.0 0.0 -8.0
v 0.0 0.800000011920929 -8.0
v 0.0 0.800000011920929 -12.0
v 1.0 0.0 -10.5
v 1.0 0.0 -9.5
v 2.0 0.0 -9.5
v 2.0 0.0 -10.5
v 3.0 0.0 -8.0
v 0.0 0.0 -8.0
v 0.0 0.0 -12.0
v 3.0 0.0 -12.0
v 1.0 0.0 -10.5
v 2.0 0.0 -10.5
v 2.0 0.4000000059604645 -10.5
v 1.0 0.4000000059604645 -10.5
v 2.0 0.0 -10.5
v 2.0 0.0 -9.5
v 2.0 0.4000000059604645 -9.5
v 2.0 0.4000000059604645 -10.5
v 2.0 0.4000000059604645 -9.5
v 1.0 0.4000000059604645 -9.5
v 1.0 0.4000000059604645 -10.5
v 2.0 0.4000000059604645 -10.5
v 2.0 0.0 -9.5
v 1.0 0.0 -9.5
v 1.0 0.4000000059604645 -9.5
v 2.0 0.4000000059604645 -9.5
v 1.0 0.0 -9.5
v 1.0 0.0 -10.5
v 1.0 0.4000000059604645 -10.5
v 1.0 0.4000000059604645 -9.5
v 0.0 0.800000011920929 3.0
v 3.0 0.800000011920929 3.0
v 3.0 0.800000011920929 0.0
v 0.0 0.800000011920929 0.0
v 0.0 0.0 3.0
v 3.0 0.0 3.0
v 3.0 0.800000011920929 3.0
v 0.0 0.800000011920929 3.0
v 3.0 0.0 3.0
v 3.0 0.0 0.0
v 3.0 0.800000011920929 0.0
v 3.0 0.800000011920929 3.0
v 3.0 0.0 0.0
v 0.0 0.0 0.0
v 0.0 0.800000011920929 0.0
v 3.0 0.800000011920929 0.0
v 2.0 0.0 1.0
v 1.0 0.0 1.0
v 1.0 0.0 2.0
v 2.0 0.0 2.0
v 3.0 0.0 3.0
v 0.0 0.0 3.0
v 0.0 0.0 0.0
v 3.0 0.0 0.0
v 0.0 0.0 0.0
v 0.0 0.0 3.0
v 0.0 0.800000011920929 3.0
v 0.0 0.800000011920929 0.0
v 2.0 0.0 2.0
v 1.0 0.0 2.0
v 1.0 0.4000000059604645 2.0
v 2.0 0.4000000059604645 2.0
v 1.0 0.4000000059604645 2.0
v 1.0 0.4000000059604645 1.0
v 2.0 0.4000000059604645 1.0
v 2.0 0.4000000059604645 2.0
v 1.0 0.0 1.0
v 2.0 0.0 1.0
v 2.0 0.4000000059604645 1.0
v 1.0 0.4000000059604645 1.0
v 2.0 0.0 1.0
v 2.0 0.0 2.0
v 2.0 0.4000000059604645 2.0
v 2.0 0.4000000059604645 1.0
v 1.0 0.0 2.0
v 1.0 0.0 1.0
v 1.0 0.4000000059604645 1.0
v 1.0 0.4000000059604645 2.0
v -8.0 0.0 0.0
v -8.0 0.0 3.0
v -8.0 0.800000011920929 3.0
v -8.0 0.800000011920929 0.0
v -8.0 0.0 3.0
v -4.0 0.0 3.0
v -4.0 0.800000011920929 3.0
v -8.0 0.800000011920929 3.0
v -4.0 0.0 3.0
v -4.0 0.0 0.0
v -4.0 0.800000011920929 0.0
v -4.0 0.800000011920929 3.0
v -4.0 0.0 0.0
v -8.0 0.0 0.0
v -8.0 0.800000011920929 0.0
v -4.0 0.800000011920929 0.0
v -8.0 0.0 3.0
v -8.0 0.0 0.0
v -4.0 0.0 0.0
v -4.0 0.0 3.0
v -8.0 0.800000011920929 0.0
v -8.0 0.800000011920929 3.0
v -4.0 0.800000011920929 3.0
v -4.0 0.800000011920929 0.0
v 0.0 0.0 -4.0
v 3.0 0.0 -4.0
v 3.0 0.800000011920929 -4.0
v 0.0 0.800000011920929 -4.0
v 3.0 0.0 -4.0
v 0.0 0.0 -4.0
v 0.0 0.0 -8.0
v 3.0 0.0 -8.0
v 3.0 0.0 -4.0
v 3.0 0.0 -8.0
v 3.0 0.800000011920929 -8.0
v 3.0 0.800000011920929 -4.0
v 0.0 0.800000011920929 -4.0
v 3.0 0.800000011920929 -4.0
v 3.0 0.800000011920929 -8.0
v 0.0 0.800000011920929 -8.0
v 3.0 0.0 -8.0
v 0.0 0.0 -8.0
v 0.0 0.800000011920929 -8.0
v 3.0 0.800000011920929 -8.0
v 0.0 0.0 -8.0
v 0.0 0.0 -4.0
v 0.0 0.800000011920929 -4.0
v 0.0 0.800000011920929 -8.0
v -16.0 0.0 0.0
v -16.0 0.0 3.0
v -16.0 0.800000011920929 3.0
v -16.0 0.800000011920929 0.0
v -16.0 0.0 3.0
v -12.0 0.0 3.0
v -12.0 0.800000011920929 3.0
v -16.0 0.800000011920929 3.0
v -12.0 0.0 3.0
v -12.0 0.0 0.0
v -12.0 0.800000011920929 0.0
v -12.0 0.800000011920929 3.0
v -16.0 0.0 3.0
v -16.0 0.0 0.0
v -12.0 0.0 0.0
v -12.0 0.0 3.0
v -12.0 0.0 0.0
v -16.0 0.0 0.0
v -16.0 0.800000011920929 0.0
v -12.0 0.800000011920929 0.0
v -16.0 0.800000011920929 0.0
v -16.0 0.800000011920929 3.0
v -12.0 0.800000011920929 3.0
v -12.0 0.800000011920929 0.0
v 3.0 0.0 -12.0
v 0.0 0.0 -12.0
v 0.0 0.0 -16.0
v 3.0 0.0 -16.0
v 0.0 0.800000011920929 -12.0
v 3.0 0.800000011920929 -12.0
v 3.0 0.800000011920929 -16.0
v 0.0 0.800000011920929 -16.0
v 0.0 0.0 -12.0
v 3.0 0.0 -12.0
v 3.0 0.800000011920929 -12.0
v 0.0 0.800000011920929 -12.0
v 3.0 0.0 -12.0
v 3.0 0.0 -16.0
v 3.0 0.800000011920929 -16.0
v 3.0 0.800000011920929 -12.0
v 3.0 0.0 -16.0
v 0.0 0.0 -16.0
v 0.0 0.800000011920929 -16.0
v 3.0 0.800000011920929 -16.0
v 0.0 0.0 -16.0
v 0.0 0.0 -12.0
v 0.0 0.800000011920929 -12.0
v 0.0 0.800000011920929 -16.0
vn 1.0 0.0 0.0
vn 1.0 0.0 0.0
vn 1.0 0.0 0.0
vn 1.0 0.0 0.0
vn 0.0 0.0 1.0
vn 0.0 0.0 1.0
vn 0.0 0.0 1.0
vn 0.0 0.0 1.0
vn 0.0 0.0 -1.0
vn 0.0 0.0 -1.0
vn 0.0 0.0 -1.0
vn 0.0 0.0 -1.0
vn 0.0 1.0 0.0
vn 0.0 1.0 0.0
vn 0.0 1.0 0.0
vn 0.0 1.0 0.0
vn -1.0 0.0 0.0
vn -1.0 0.0 0.0
vn -1.0 0.0 0.0
vn -1.0 0.0 0.0
vn -0.0 -1.0 -0.0
vn -0.0 -1.0 -0.0
vn -0.0 -1.0 -0.0
vn -0.0 -1.0 -0.0
vn -0.0 -1.0 -0.0
vn -0.0 -1.0 -0.0
vn -0.0 -1.0 -0.0
vn -0.0 -1.0 -0.0
vn -1.0 0.0 -0.0
vn -1.0 0.0 -0.0
vn -1.0 0.0 -0.0
vn -1.0 0.0 -0.0
vn -0.0 -1.0 -0.0
vn -0.0 -1.0 -0.0
vn -0.0 -1.0 -0.0
vn -0.0 -1.0 -0.0
vn 1.0 -0.0 -0.0
vn 1.0 -0.0 -0.0
vn 1.0 -0.0 -0.0
vn 1.0 -0.0 -0.0
vn -0.0 -0.0 -1.0
vn -0.0 -0.0 -1.0
vn -0.0 -0.0 -1.0
vn -0.0 -0.0 -1.0
vn -0.0 -0.0 1.0
vn -0.0 -0.0 1.0
vn -0.0 -0.0 1.0
vn -0.0 -0.0 1.0
vn -0.0 -1.0 -0.0
vn -0.0 -1.0 -0.0
vn -0.0 -1.0 -0.0
vn -0.0 -1.0 -0.0
vn -1.0 0.0 0.0
vn -1.0 0.0 0.0
vn -1.0 0.0 0.0
vn -1.0 0.0 0.0
vn 0.0 0.0 -1.0
vn 0.0 0.0 -1.0
vn 0.0 0.0 -1.0
vn 0.0 0.0 -1.0
vn 0.0 1.0 0.0
vn 0.0 1.0 0.0
vn 0.0 1.0 0.0
vn 0.0 1.0 0.0
vn 0.0 0.0 1.0
vn 0.0 0.0 1.0
vn 0.0 0.0 1.0
vn 0.0 0.0 1.0
vn 0.0 0.0 1.0
vn 0.0 0.0 1.0
vn 0.0 0.0 1.0
vn 0.0 0.0 1.0
vn 1.0 0.0 0.0
vn 1.0 0.0 0.0
vn 1.0 0.0 0.0
vn 1.0 0.0 0.0
vn 1.0 -0.0 0.0
vn 1.0 -0.0 0.0
vn 1.0 -0.0 0.0
vn 1.0 -0.0 0.0
vn 0.0 0.0 -1.0
vn 0.0 0.0 -1.0
vn 0.0 0.0 -1.0
vn 0.0 0.0 -1.0
vn -1.0 0.0 0.0
vn -1.0 0.0 0.0
vn -1.0 0.0 0.0
vn -1.0 0.0 0.0
vn -0.0 -1.0 -0.0
vn -0.0 -1.0 -0.0
vn -0.0 -1.0 -0.0
vn -0.0 -1.0 -0.0
vn 0.0 1.0 0.0
vn 0.0 1.0 0.0
vn 0.0 1.0 0.0
vn 0.0 1.0 0.0
vn 0.0 1.0 0.0
vn 0.0 1.0 0.0
vn 0.0 1.0 0.0
vn 0.0 1.0 0.0
vn 1.0 -0.0 0.0
vn 1.0 -0.0 0.0
vn 1.0 -0.0 0.0
vn 1.0 -0.0 0.0
vn 0.0 0.0 1.0
vn 0.0 0.0 1.0
vn 0.0 0.0 1.0
vn 0.0 0.0 1.0
vn 0.0 0.0 -1.0
vn 0.0 0.0 -1.0
vn 0.0 0.0 -1.0
vn 0.0 0.0 -1.0
vn -1.0 0.0 0.0
vn -1.0 0.0 0.0
vn -1.0 0.0 0.0
vn -1.0 0.0 0.0
vn -0.0 -1.0 -0.0
vn -0.0 -1.0 -0.0
vn -0.0 -1.0 -0.0
vn -0.0 -1.0 -0.0
vn -0.0 -1.0 -0.0
vn -0.0 -1.0 -0.0
vn -0.0 -1.0 -0.0
vn -0.0 -1.0 -0.0
vn -0.0 -0.0 1.0
vn -0.0 -0.0 1.0
vn -0.0 -0.0 1.0
vn -0.0 -0.0 1.0
vn -1.0 -0.0 -0.0
vn -1.0 -0.0 -0.0
vn -1.0 -0.0 -0.0
vn -1.0 -0.0 -0.0
vn -0.0 -1.0 -0.0
vn -0.0 -1.0 -0.0
vn -0.0 -1.0 -0.0
vn -0.0 -1.0 -0.0
vn -0.0 0.0 -1.0
vn -0.0 0.0 -1.0
vn -0.0 0.0 -1.0
vn -0.0 0.0 -1.0
vn 1.0 -0.0 -0.0
vn 1.0 -0.0 -0.0
vn 1.0 -0.0 -0.0
vn 1.0 -0.0 -0.0
vn 0.0 1.0 0.0
vn 0.0 1.0 0.0
vn 0.0 1.0 0.0
vn 0.0 1.0 0.0
vn 0.0 0.0 1.0
vn 0.0 0.0 1.0
vn 0.0 0.0 1.0
vn 0.0 0.0 1.0
vn 1.0 -0.0 0.0
vn 1.0 -0.0 0.0
vn 1.0 -0.0 0.0
vn 1.0 -0.0 0.0
vn 0.0 0.0 -1.0
vn 0.0 0.0 -1.0
vn 0.0 0.0 -1.0
vn 0.0 0.0 -1.0
vn -0.0 -1.0 -0.0
vn -0.0 -1.0 -0.0
vn -0.0 -1.0 -0.0
vn -0.0 -1.0 -0.0
vn -0.0 -1.0 -0.0
vn -0.0 -1.0 -0.0
vn -0.0 -1.0 -0.0
vn -0.0 -1.0 -0.0
vn -1.0 0.0 0.0
vn -1.0 0.0 0.0
vn -1.0 0.0 0.0
vn -1.0 0.0 0.0
vn -0.0 -0.0 -1.0
vn -0.0 -0.0 -1.0
vn -0.0 -0.0 -1.0
vn -0.0 -0.0 -1.0
vn -0.0 -1.0 -0.0
vn -0.0 -1.0 -0.0
vn -0.0 -1.0 -0.0
vn -0.0 -1.0 -0.0
vn -0.0 -0.0 1.0
vn -0.0 -0.0 1.0
vn -0.0 -0.0 1.0
vn -0.0 -0.0 1.0
vn -1.0 0.0 -0.0
vn -1.0 0.0 -0.0
vn -1.0 0.0 -0.0
vn -1.0 0.0 -0.0
vn 1.0 -0.0 -0.0
vn 1.0 -0.0 -0.0
vn 1.0 -0.0 -0.0
vn 1.0 -0.0 -0.0
vn -1.0 0.0 0.0
vn -1.0 0.0 0.0
vn -1.0 0.0 0.0
vn -1.0 0.0 0.0
vn 0.0 0.0 1.0
vn 0.0 0.0 1.0
vn 0.0 0.0 1.0
vn 0.0 0.0 1.0
vn 1.0 0.0 0.0
vn 1.0 0.0 0.0
vn 1.0 0.0 0.0
vn 1.0 0.0 0.0
vn 0.0 0.0 -1.0
vn 0.0 0.0 -1.0
vn 0.0 0.0 -1.0
vn 0.0 0.0 -1.0
vn -0.0 -1.0 -0.0
vn -0.0 -1.0 -0.0
vn -0.0 -1.0 -0.0
vn -0.0 -1.0 -0.0
vn 0.0 1.0 0.0
vn 0.0 1.0 0.0
vn 0.0 1.0 0.0
vn 0.0 1.0 0.0
vn 0.0 0.0 1.0
vn 0.0 0.0 1.0
vn 0.0 0.0 1.0
vn 0.0 0.0 1.0
vn -0.0 -1.0 -0.0
vn -0.0 -1.0 -0.0
vn -0.0 -1.0 -0.0
vn -0.0 -1.0 -0.0
vn 1.0 -0.0 0.0
vn 1.0 -0.0 0.0
vn 1.0 -0.0 0.0
vn 1.0 -0.0 0.0
vn 0.0 1.0 0.0
vn 0.0 1.0 0.0
vn 0.0 1.0 0.0
vn 0.0 1.0 0.0
vn 0.0 0.0 -1.0
vn 0.0 0.0 -1.0
vn 0.0 0.0 -1.0
vn 0.0 0.0 -1.0
vn -1.0 0.0 0.0
vn -1.0 0.0 0.0
vn -1.0 0.0 0.0
vn -1.0 0.0 0.0
vn -1.0 0.0 0.0
vn -1.0 0.0 0.0
vn -1.0 0.0 0.0
vn -1.0 0.0 0.0
vn 0.0 0.0 1.0
vn 0.0 0.0 1.0
vn 0.0 0.0 1.0
vn 0.0 0.0 1.0
vn 1.0 0.0 0.0
vn 1.0 0.0 0.0
vn 1.0 0.0 0.0
vn 1.0 0.0 0.0
vn -0.0 -1.0 -0.0
vn -0.0 -1.0 -0.0
vn -0.0 -1.0 -0.0
vn -0.0 -1.0 -0.0
vn 0.0 0.0 -1.0
vn 0.0 0.0 -1.0
vn 0.0 0.0 -1.0
vn 0.0 0.0 -1.0
vn 0.0 1.0 0.0
vn 0.0 1.0 0.0
vn 0.0 1.0 0.0
vn 0.0 1.0 0.0
vn -0.0 -1.0 -0.0
vn -0.0 -1.0 -0.0
vn -0.0 -1.0 -0.0
vn -0.0 -1.0 -0.0
vn 0.0 1.0 0.0
vn 0.0 1.0 0.0
vn 0.0 1.0 0.0
vn 0.0 1.0 0.0
vn 0.0 0.0 1.0
vn 0.0 0.0 1.0
vn 0.0 0.0 1.0
vn 0.0 0.0 1.0
vn 1.0 -0.0 0.0
vn 1.0 -0.0 0.0
vn 1.0 -0.0 0.0
vn 1.0 -0.0 0.0
vn 0.0 0.0 -1.0
vn 0.0 0.0 -1.0
vn 0.0 0.0 -1.0
vn 0.0 0.0 -1.0
vn -1.0 0.0 0.0
vn -1.0 0.0 0.0
vn -1.0 0.0 0.0
vn -1.0 0.0 0.0
f 1//1 2//2 4//4
f 4//4 2//2 3//3
f 5//5 6//6 8//8
f 8//8 6//6 7//7
f 9//9 10//10 12//12
f 12//12 10//10 11//11
f 13//13 14//14 16//16
f 16//16 14//14 15//15
f 17//17 18//18 20//20
f 20//20 18//18 19//19
f 22//22 26//26 21//21
f 21//21 26//26 27//27
f 21//21 27//27 28//28
f 26//26 22//22 25//25
f 25//25 22//22 23//23
f 25//25 23//23 24//24
f 25//25 24//24 28//28
f 28//28 24//24 21//21
f 29//29 30//30 32//32
f 32//32 30//30 31//31
f 33//33 34//34 36//36
f 36//36 34//34 35//35
f 37//37 38//38 40//40
f 40//40 38//38 39//39
f 41//41 42//42 44//44
f 44//44 42//42 43//43
f 45//45 46//46 48//48
f 48//48 46//46 47//47
f 49//49 50//50 52//52
f 52//52 50//50 51//51
f 53//53 54//54 56//56
f 56//56 54//54 55//55
f 57//57 58//58 60//60
f 60//60 58//58 59//59
f 62//62 63//63 61//61
f 61//61 63//63 64//64
f 65//65 66//66 68//68
f 68//68 66//66 67//67
f 69//69 70//70 72//72
f 72//72 70//70 71//71
f 73//73 74//74 76//76
f 76//76 74//74 75//75
f 77//77 78//78 80//80
f 80//80 78//78 79//79
f 81//81 82//82 84//84
f 84//84 82//82 83//83
f 85//85 86//86 88//88
f 88//88 86//86 87//87
f 89//89 90//90 92//92
f 92//92 90//90 91//91
f 94//94 95//95 93//93
f 93//93 95//95 96//96
f 98//98 99//99 97//97
f 97//97 99//99 100//100
f 101//101 102//102 104//104
f 104//104 102//102 103//103
f 105//105 106//106 108//108
f 108//108 106//106 107//107
f 109//109 110//110 112//112
f 112//112 110//110 111//111
f 113//113 114//114 116//116
f 116//116 114//114 115//115
f 118//118 122//122 117//117
f 117//117 122//122 123//123
f 117//117 123//123 124//124
f 122//122 118//118 121//121
f 121//121 118//118 119//119
f 121//121 119//119 120//120
f 121//121 120//120 124//124
f 124//124 120//120 117//117
f 125//125 126//126 128//128
f 128//128 126//126 127//127
f 129//129 130//130 132//132
f 132//132 130//130 131//131
f 134//134 135//135 133//133
f 133//133 135//135 136//136
f 137//137 138//138 140//140
f 140//140 138//138 139//139
f 141//141 142//142 144//144
f 144//144 142//142 143//143
f 146//146 147//147 145//145
f 145//145 147//147 148//148
f 149//149 150//150 152//152
f 152//152 150//150 151//151
f 153//153 154//154 156//156
f 156//156 154//154 155//155
f 157//157 158//158 160//160
f 160//160 158//158 159//159
f 162//162 168//168 161//161
f 161//161 168//168 165//165
f 161//161 165//165 164//164
f 164//164 165//165 163//163
f 163//163 165//165 166//166
f 163//163 166//166 162//162
f 162//162 166//166 167//167
f 162//162 167//167 168//168
f 169//169 170//170 172//172
f 172//172 170//170 171//171
f 173//173 174//174 176//176
f 176//176 174//174 175//175
f 177//177 178//178 180//180
f 180//180 178//178 179//179
f 181//181 182//182 184//184
f 184//184 182//182 183//183
f 185//185 186//186 188//188
f 188//188 186//186 187//187
f 189//189 190//190 192//192
f 192//192 190//190 191//191
f 193//193 194//194 196//196
f 196//196 194//194 195//195
f 197//197 198//198 200//200
f 200//200 198//198 199//199
f 201//201 202//202 204//204
f 204//204 202//202 203//203
f 205//205 206//206 208//208
f 208//208 206//206 207//207
f 210//210 211//211 209//209
f 209//209 211//211 212//212
f 213//213 214//214 216//216
f 216//216 214//214 215//215
f 217//217 218//218 220//220
f 220//220 218//218 219//219
f 221//221 222//222 224//224
f 224//224 222//222 223//223
f 225//225 226//226 228//228
f 228//228 226//226 227//227
f 230//230 231//231 229//229
f 229//229 231//231 232//232
f 233//233 234//234 236//236
f 236//236 234//234 235//235
f 237//237 238//238 240//240
f 240//240 238//238 239//239
f 241//241 242//242 244//244
f 244//244 242//242 243//243
f 245//245 246//246 248//248
f 248//248 246//246 247//247
f 249//249 250//250 252//252
f 252//252 250//250 251//251
f 254//254 255//255 253//253
f 253//253 255//255 256//256
f 257//257 258//258 260//260
f 260//260 258//258 259//259
f 261//261 262//262 264//264
f 264//264 262//262 263//263
f 265//265 266//266 268//268
f 268//268 266//266 267//267
f 270//270 271//271 269//269
f 269//269 271//271 272//272
f 273//273 274//274 276//276
f 276//276 274//274 275//275
f 277//277 278//278 280//280
f 280//280 278//278 279//279
f 281//281 282//282 284//284
f 284//284 282//282 283//283
f 285//285 286//286 288//288
f 288//288 286//286 287//287

# End of file