# WaveFront *.obj file
# Vertices: 24
# Triangles : 12

v 0.0 1.2699999809265137 1.2699999809265137
v 0.0 0.0 1.2699999809265137
v 5.525000095367432 0.0 1.2699999809265137
v 5.525000095367432 1.2699999809265137 1.2699999809265137
v 0.0 1.2699999809265137 0.0
v 0.0 1.2699999809265137 1.2699999809265137
v 5.525000095367432 1.2699999809265137 1.2699999809265137
v 5.525000095367432 1.2699999809265137 0.0
v 0.0 0.0 0.0
v 0.0 1.2699999809265137 0.0
v 5.525000095367432 1.2699999809265137 0.0
v 5.525000095367432 0.0 0.0
v 0.0 0.0 1.2699999809265137
v 0.0 0.0 0.0
v 5.525000095367432 0.0 0.0
v 5.525000095367432 0.0 1.2699999809265137
v 5.525000095367432 0.0 1.2699999809265137
v 5.525000095367432 0.0 0.0
v 5.525000095367432 1.2699999809265137 0.0
v 5.525000095367432 1.2699999809265137 1.2699999809265137
v 0.0 0.0 0.0
v 0.0 0.0 1.2699999809265137
v 0.0 1.2699999809265137 1.2699999809265137
v 0.0 1.2699999809265137 0.0
vn 0.0 0.0 1.0
vn 0.0 0.0 1.0
vn 0.0 0.0 1.0
vn 0.0 0.0 1.0
vn -0.0 1.0 0.0
vn -0.0 1.0 0.0
vn -0.0 1.0 0.0
vn -0.0 1.0 0.0
vn 0.0 0.0 -1.0
vn 0.0 0.0 -1.0
vn 0.0 0.0 -1.0
vn 0.0 0.0 -1.0
vn 0.0 -1.0 0.0
vn 0.0 -1.0 0.0
vn 0.0 -1.0 0.0
vn 0.0 -1.0 0.0
vn 1.0 0.0 0.0
vn 1.0 0.0 0.0
vn 1.0 0.0 0.0
vn 1.0 0.0 0.0
vn -1.0 -0.0 -0.0
vn -1.0 -0.0 -0.0
vn -1.0 -0.0 -0.0
vn -1.0 -0.0 -0.0
g e7c27d70-e35c-11ea-b4c7-54bf646e7e1f
f 1//1 2//2 4//4
f 4//4 2//2 3//3
g e7c2cba2-e35c-11ea-93f7-54bf646e7e1f
f 5//5 6//6 8//8
f 8//8 6//6 7//7
g e7c319b4-e35c-11ea-b830-54bf646e7e1f
f 9//9 10//10 12//12
f 12//12 10//10 11//11
g e7c367cc-e35c-11ea-9456-54bf646e7e1f
f 13//13 14//14 16//16
f 16//16 14//14 15//15
g e7c3dcf4-e35c-11ea-bf79-54bf646e7e1f
f 17//17 18//18 20//20
f 20//20 18//18 19//19
g e7c45228-e35c-11ea-bc8e-54bf646e7e1f
f 21//21 22//22 24//24
f 24//24 22//22 23//23

# End of file