# WaveFront *.obj file
# Vertices: 24
# Triangles : 12

v 0.0 0.0 0.0
v 0.0 12.699999809265137 0.0
v 1.2699999809265137 12.699999809265137 0.0
v 1.2699999809265137 0.0 0.0
v 0.0 0.0 10.15999984741211
v 0.0 0.0 0.0
v 1.2699999809265137 0.0 0.0
v 1.2699999809265137 0.0 10.15999984741211
v 0.0 12.699999809265137 10.15999984741211
v 0.0 0.0 10.15999984741211
v 1.2699999809265137 0.0 10.15999984741211
v 1.2699999809265137 12.699999809265137 10.15999984741211
v 0.0 12.699999809265137 0.0
v 0.0 12.699999809265137 10.15999984741211
v 1.2699999809265137 12.699999809265137 10.15999984741211
v 1.2699999809265137 12.699999809265137 0.0
v 0.0 12.699999809265137 10.15999984741211
v 0.0 12.699999809265137 0.0
v 0.0 0.0 0.0
v 0.0 0.0 10.15999984741211
v 1.2699999809265137 12.699999809265137 0.0
v 1.2699999809265137 12.699999809265137 10.15999984741211
v 1.2699999809265137 0.0 10.15999984741211
v 1.2699999809265137 0.0 0.0
vn 0.0 0.0 -1.0
vn 0.0 0.0 -1.0
vn 0.0 0.0 -1.0
vn 0.0 0.0 -1.0
vn 0.0 -1.0 0.0
vn 0.0 -1.0 0.0
vn 0.0 -1.0 0.0
vn 0.0 -1.0 0.0
vn 0.0 0.0 1.0
vn 0.0 0.0 1.0
vn 0.0 0.0 1.0
vn 0.0 0.0 1.0
vn -0.0 1.0 0.0
vn -0.0 1.0 0.0
vn -0.0 1.0 0.0
vn -0.0 1.0 0.0
vn -1.0 0.0 0.0
vn -1.0 0.0 0.0
vn -1.0 0.0 0.0
vn -1.0 0.0 0.0
vn 1.0 0.0 0.0
vn 1.0 0.0 0.0
vn 1.0 0.0 0.0
vn 1.0 0.0 0.0
g 0ea7e9a2-e35d-11ea-ad77-54bf646e7e1f
f 1//1 2//2 4//4
f 4//4 2//2 3//3
g 0ea837e4-e35d-11ea-8f9c-54bf646e7e1f
f 5//5 6//6 8//8
f 8//8 6//6 7//7
g 0ea885c6-e35d-11ea-b431-54bf646e7e1f
f 9//9 10//10 12//12
f 12//12 10//10 11//11
g 0ea8d3de-e35d-11ea-8fdc-54bf646e7e1f
f 13//13 14//14 16//16
f 16//16 14//14 15//15
g 0ea92200-e35d-11ea-af76-54bf646e7e1f
f 18//18 19//19 17//17
f 17//17 19//19 20//20
g 0ea9701c-e35d-11ea-b2ee-54bf646e7e1f
f 21//21 22//22 24//24
f 24//24 22//22 23//23

# End of file