# WaveFront *.obj file
# Vertices: 130
# Triangles : 112

v 10.15999984741211 -3.174999952316284 0.006934805307537317
v 10.15999984741211 3.174999952316284 0.006934805307537317
v 10.158266067504883 3.174999952316284 2.5469348430633545
v 10.158266067504883 -3.174999952316284 2.5469348430633545
v 10.15999984741211 3.174999952316284 0.006934805307537317
v 0.0 3.174999952316284 0.0
v -0.004507622681558132 3.174999952316284 6.60399866104126
v 2.535492420196533 3.174999952316284 6.605731964111328
v 2.53592586517334 3.174999952316284 5.97073221206665
v 10.158266067504883 3.174999952316284 2.5469348430633545
v -0.004507622681558132 -3.174999952316284 6.60399866104126
v -0.004507622681558132 3.174999952316284 6.60399866104126
v 0.0 3.174999952316284 0.0
v 0.0 -3.174999952316284 0.0
v 0.0 -3.174999952316284 0.0
v 0.0 3.174999952316284 0.0
v 10.15999984741211 3.174999952316284 0.006934805307537317
v 10.15999984741211 -3.174999952316284 0.006934805307537317
v 1.2654920816421509 0.7137399911880493 6.604865074157715
v 1.4580568075180054 0.6872726082801819 6.604996681213379
v 1.6363399028778076 0.609833300113678 6.605118274688721
v 1.7871187925338745 0.4871654808521271 6.605221271514893
v 1.8992111682891846 0.32836681604385376 6.605298042297363
v 1.9643033742904663 0.14521469175815582 6.605342388153076
v 1.9775680303573608 -0.04870733991265297 6.605351448059082
v 1.938021183013916 -0.23901697993278503 6.6053242683410645
v 1.8485960960388184 -0.4115998148918152 6.6052632331848145
v 1.7159247398376465 -0.5536561608314514 6.605172634124756
v 1.5498467683792114 -0.6546503901481628 6.605059623718262
v 1.3626796007156372 -0.7070921659469604 6.604931831359863
v 1.1683045625686646 -0.7070921659469604 6.604798793792725
v 0.9811373353004456 -0.6546503901481628 6.604671001434326
v 0.8150594830513 -0.5536561608314514 6.604557991027832
v 0.6823881268501282 -0.4115998148918152 6.604467391967773
v 0.592962920665741 -0.23901697993278503 6.604406356811523
v 0.5534161329269409 -0.04870733991265297 6.604379177093506
v 0.5666807889938354 0.14521469175815582 6.604388236999512
v 0.631773054599762 0.32836681604385376 6.604432582855225
v 0.7438653707504272 0.4871654808521271 6.604509353637695
v 0.8946443200111389 0.609833300113678 6.604612350463867
v 1.0729273557662964 0.6872726082801819 6.604733943939209
v 2.535492420196533 -3.174999952316284 6.605731964111328
v 2.535492420196533 3.174999952316284 6.605731964111328
v -0.004507622681558132 3.174999952316284 6.60399866104126
v -0.004507622681558132 -3.174999952316284 6.60399866104126
v 2.53592586517334 -3.174999952316284 5.97073221206665
v 2.53592586517334 3.174999952316284 5.97073221206665
v 2.535492420196533 3.174999952316284 6.605731964111328
v 2.535492420196533 -3.174999952316284 6.605731964111328
v 10.158266067504883 -3.174999952316284 2.5469348430633545
v 10.158266067504883 3.174999952316284 2.5469348430633545
v 2.53592586517334 3.174999952316284 5.97073221206665
v 2.53592586517334 -3.174999952316284 5.97073221206665
v 0.0 -3.174999952316284 0.0
v 10.15999984741211 -3.174999952316284 0.006934805307537317
v 10.158266067504883 -3.174999952316284 2.5469348430633545
v 2.53592586517334 -3.174999952316284 5.97073221206665
v 2.535492420196533 -3.174999952316284 6.605731964111328
v -0.004507622681558132 -3.174999952316284 6.60399866104126
v 1.2680926322937012 0.7137399911880493 2.7948660850524902
v 1.0755279064178467 0.6872726082801819 2.7947347164154053
v 0.8972448706626892 0.609833300113678 2.7946131229400635
v 0.7464659214019775 0.4871654808521271 2.7945101261138916
v 0.6343736052513123 0.32836681604385376 2.79443359375
v 0.5692813396453857 0.14521469175815582 2.794389247894287
v 0.5560166835784912 -0.04870733991265297 2.7943801879882812
v 0.5955634713172913 -0.23901697993278503 2.7944071292877197
v 0.6849886775016785 -0.4115998148918152 2.7944681644439697
v 0.8176600337028503 -0.5536561608314514 2.7945587635040283
v 0.9837378859519958 -0.6546503901481628 2.7946720123291016
v 1.1709051132202148 -0.7070921659469604 2.7947998046875
v 1.3652801513671875 -0.7070921659469604 2.7949326038360596
v 1.5524473190307617 -0.6546503901481628 2.795060396194458
v 1.7185252904891968 -0.5536561608314514 2.7951736450195312
v 1.8511966466903687 -0.4115998148918152 2.79526424407959
v 1.9406217336654663 -0.23901697993278503 2.79532527923584
v 1.9801685810089111 -0.04870733991265297 2.7953522205352783
v 1.9669039249420166 0.14521469175815582 2.7953431606292725
v 1.9018117189407349 0.32836681604385376 2.7952988147735596
v 1.7897193431854248 0.4871654808521271 2.795222282409668
v 1.638940453529358 0.609833300113678 2.795119285583496
v 1.4606573581695557 0.6872726082801819 2.7949976921081543
v 1.2680926322937012 0.7137399911880493 2.7948660850524902
v 1.4606573581695557 0.6872726082801819 2.7949976921081543
v 1.638940453529358 0.609833300113678 2.795119285583496
v 1.7897193431854248 0.4871654808521271 2.795222282409668
v 1.9018117189407349 0.32836681604385376 2.7952988147735596
v 1.9669039249420166 0.14521469175815582 2.7953431606292725
v 1.9801685810089111 -0.04870733991265297 2.7953522205352783
v 1.9406217336654663 -0.23901697993278503 2.79532527923584
v 1.8511966466903687 -0.4115998148918152 2.79526424407959
v 1.7185252904891968 -0.5536561608314514 2.7951736450195312
v 1.5524473190307617 -0.6546503901481628 2.795060396194458
v 1.3652801513671875 -0.7070921659469604 2.7949326038360596
v 1.1709051132202148 -0.7070921659469604 2.7947998046875
v 0.9837378859519958 -0.6546503901481628 2.7946720123291016
v 0.8176600337028503 -0.5536561608314514 2.7945587635040283
v 0.6849886775016785 -0.4115998148918152 2.7944681644439697
v 0.5955634713172913 -0.23901697993278503 2.7944071292877197
v 0.5560166835784912 -0.04870733991265297 2.7943801879882812
v 0.5692813396453857 0.14521469175815582 2.794389247894287
v 0.6343736052513123 0.32836681604385376 2.79443359375
v 0.7464659214019775 0.4871654808521271 2.7945101261138916
v 0.8972448706626892 0.609833300113678 2.7946131229400635
v 1.0755279064178467 0.6872726082801819 2.7947347164154053
v 1.2654920816421509 0.7137399911880493 6.604865074157715
v 1.0729273557662964 0.6872726082801819 6.604733943939209
v 0.8946443200111389 0.609833300113678 6.604612350463867
v 0.7438653707504272 0.4871654808521271 6.604509353637695
v 0.631773054599762 0.32836681604385376 6.604432582855225
v 0.5666807889938354 0.14521469175815582 6.604388236999512
v 0.5534161329269409 -0.04870733991265297 6.604379177093506
v 0.592962920665741 -0.23901697993278503 6.604406356811523
v 0.6823881268501282 -0.4115998148918152 6.604467391967773
v 0.8150594830513 -0.5536561608314514 6.604557991027832
v 0.9811373353004456 -0.6546503901481628 6.604671001434326
v 1.1683045625686646 -0.7070921659469604 6.604798793792725
v 1.3626796007156372 -0.7070921659469604 6.604931831359863
v 1.5498467683792114 -0.6546503901481628 6.605059623718262
v 1.7159247398376465 -0.5536561608314514 6.605172634124756
v 1.8485960960388184 -0.4115998148918152 6.6052632331848145
v 1.938021183013916 -0.23901697993278503 6.6053242683410645
v 1.9775680303573608 -0.04870733991265297 6.605351448059082
v 1.9643033742904663 0.14521469175815582 6.605342388153076
v 1.8992111682891846 0.32836681604385376 6.605298042297363
v 1.7871187925338745 0.4871654808521271 6.605221271514893
v 1.6363399028778076 0.609833300113678 6.605118274688721
v 1.4580568075180054 0.6872726082801819 6.604996681213379
v 1.2680926322937012 0.7137399911880493 2.7948660850524902
v 1.2654920816421509 0.7137399911880493 6.604865074157715
vn 0.9999997615814209 -0.0 0.0006825594464316964
vn 0.9999997615814209 -0.0 0.0006825594464316964
vn 0.9999997615814209 -0.0 0.0006825594464316964
vn 0.9999997615814209 -0.0 0.0006825594464316964
vn 0.0 1.0 0.0
vn 0.0 1.0 0.0
vn 0.0 1.0 0.0
vn 0.0 1.0 0.0
vn 0.0 1.0 0.0
vn 0.0 1.0 0.0
vn -0.9999997615814209 0.0 -0.0006825594464316964
vn -0.9999997615814209 0.0 -0.0006825594464316964
vn -0.9999997615814209 0.0 -0.0006825594464316964
vn -0.9999997615814209 0.0 -0.0006825594464316964
vn 0.0006825594464316964 0.0 -0.9999997615814209
vn 0.0006825594464316964 0.0 -0.9999997615814209
vn 0.0006825594464316964 0.0 -0.9999997615814209
vn 0.0006825594464316964 0.0 -0.9999997615814209
vn -0.0006825594464316964 0.0 0.9999997615814209
vn -0.0006825594464316964 0.0 0.9999997615814209
vn -0.0006825594464316964 0.0 0.9999997615814209
vn -0.0006825594464316964 0.0 0.9999997615814209
vn -0.0006825594464316964 0.0 0.9999997615814209
vn -0.0006825594464316964 0.0 0.9999997615814209
vn -0.0006825594464316964 0.0 0.9999997615814209
vn -0.0006825594464316964 0.0 0.9999997615814209
vn -0.0006825594464316964 0.0 0.9999997615814209
vn -0.0006825594464316964 0.0 0.9999997615814209
vn -0.0006825594464316964 0.0 0.9999997615814209
vn -0.0006825594464316964 0.0 0.9999997615814209
vn -0.0006825594464316964 0.0 0.9999997615814209
vn -0.0006825594464316964 0.0 0.9999997615814209
vn -0.0006825594464316964 0.0 0.9999997615814209
vn -0.0006825594464316964 0.0 0.9999997615814209
vn -0.0006825594464316964 0.0 0.9999997615814209
vn -0.0006825594464316964 0.0 0.9999997615814209
vn -0.0006825594464316964 0.0 0.9999997615814209
vn -0.0006825594464316964 0.0 0.9999997615814209
vn -0.0006825594464316964 0.0 0.9999997615814209
vn -0.0006825594464316964 0.0 0.9999997615814209
vn -0.0006825594464316964 0.0 0.9999997615814209
vn -0.0006825594464316964 0.0 0.9999997615814209
vn -0.0006825594464316964 0.0 0.9999997615814209
vn -0.0006825594464316964 0.0 0.9999997615814209
vn -0.0006825594464316964 0.0 0.9999997615814209
vn 0.9999997615814209 -0.0 0.0006825594464316964
vn 0.9999997615814209 -0.0 0.0006825594464316964
vn 0.9999997615814209 -0.0 0.0006825594464316964
vn 0.9999997615814209 -0.0 0.0006825594464316964
vn 0.40974199771881104 -0.0 0.912201464176178
vn 0.40974199771881104 -0.0 0.912201464176178
vn 0.40974199771881104 -0.0 0.912201464176178
vn 0.40974199771881104 -0.0 0.912201464176178
vn 0.0 -1.0 0.0
vn 0.0 -1.0 0.0
vn 0.0 -1.0 0.0
vn 0.0 -1.0 0.0
vn 0.0 -1.0 0.0
vn 0.0 -1.0 0.0
vn -0.0006825594464316964 0.0 0.9999997615814209
vn -0.0006825594464316964 0.0 0.9999997615814209
vn -0.0006825594464316964 0.0 0.9999997615814209
vn -0.0006825594464316964 0.0 0.9999997615814209
vn -0.0006825594464316964 0.0 0.9999997615814209
vn -0.0006825594464316964 0.0 0.9999997615814209
vn -0.0006825594464316964 0.0 0.9999997615814209
vn -0.0006825594464316964 0.0 0.9999997615814209
vn -0.0006825594464316964 0.0 0.9999997615814209
vn -0.0006825594464316964 0.0 0.9999997615814209
vn -0.0006825594464316964 0.0 0.9999997615814209
vn -0.0006825594464316964 0.0 0.9999997615814209
vn -0.0006825594464316964 0.0 0.9999997615814209
vn -0.0006825594464316964 0.0 0.9999997615814209
vn -0.0006825594464316964 0.0 0.9999997615814209
vn -0.0006825594464316964 0.0 0.9999997615814209
vn -0.0006825594464316964 0.0 0.9999997615814209
vn -0.0006825594464316964 0.0 0.9999997615814209
vn -0.0006825594464316964 0.0 0.9999997615814209
vn -0.0006825594464316964 0.0 0.9999997615814209
vn -0.0006825594464316964 0.0 0.9999997615814209
vn -0.0006825594464316964 0.0 0.9999997615814209
vn -0.0006825594464316964 0.0 0.9999997615814209
vn -1.2246464555384738e-16 -1.0 -8.358942494479349e-20
vn -0.2697966992855072 -0.9629172682762146 -0.0001841523335315287
vn -0.5195838212966919 -0.8544194102287292 -0.00035464693792164326
vn -0.7308357954025269 -0.6825531721115112 -0.0004988389555364847
vn -0.8878850340843201 -0.4600650370121002 -0.00060603441670537
vn -0.9790838360786438 -0.20345601439476013 -0.0006682830862700939
vn -0.9976685643196106 0.06824241578578949 -0.000680968223605305
vn -0.9422606825828552 0.334879606962204 -0.0006431490764953196
vn -0.8169696927070618 0.5766803026199341 -0.0005576304974965751
vn -0.6310877799987793 0.7757112979888916 -0.00043075502617284656
vn -0.3984009921550751 0.9172112941741943 -0.0002719324256759137
vn -0.13616661727428436 0.9906859397888184 -9.294183109886944e-05
vn 0.13616661727428436 0.9906859397888184 9.294183109886944e-05
vn 0.3984009921550751 0.9172112941741943 0.0002719324256759137
vn 0.6310877799987793 0.7757112979888916 0.00043075502617284656
vn 0.8169696927070618 0.5766803026199341 0.0005576304974965751
vn 0.9422606825828552 0.334879606962204 0.0006431490764953196
vn 0.9976685643196106 0.06824241578578949 0.000680968223605305
vn 0.9790838360786438 -0.20345601439476013 0.0006682830862700939
vn 0.8878850340843201 -0.4600650370121002 0.00060603441670537
vn 0.7308357954025269 -0.6825531721115112 0.0004988389555364847
vn 0.5195838212966919 -0.8544194102287292 0.00035464693792164326
vn 0.2697966992855072 -0.9629172682762146 0.0001841523335315287
vn 1.2246464555384738e-16 -1.0 8.358942494479349e-20
vn 0.2697966992855072 -0.9629172682762146 0.0001841523335315287
vn 0.5195838212966919 -0.8544194102287292 0.00035464693792164326
vn 0.7308357954025269 -0.6825531721115112 0.0004988389555364847
vn 0.8878850340843201 -0.4600650370121002 0.00060603441670537
vn 0.9790838360786438 -0.20345601439476013 0.0006682830862700939
vn 0.9976685643196106 0.06824241578578949 0.000680968223605305
vn 0.9422606825828552 0.334879606962204 0.0006431490764953196
vn 0.8169696927070618 0.5766803026199341 0.0005576304974965751
vn 0.6310877799987793 0.7757112979888916 0.00043075502617284656
vn 0.3984009921550751 0.9172112941741943 0.0002719324256759137
vn 0.13616661727428436 0.9906859397888184 9.294183109886944e-05
vn -0.13616661727428436 0.9906859397888184 -9.294183109886944e-05
vn -0.3984009921550751 0.9172112941741943 -0.0002719324256759137
vn -0.6310877799987793 0.7757112979888916 -0.00043075502617284656
vn -0.8169696927070618 0.5766803026199341 -0.0005576304974965751
vn -0.9422606825828552 0.334879606962204 -0.0006431490764953196
vn -0.9976685643196106 0.06824241578578949 -0.000680968223605305
vn -0.9790838360786438 -0.20345601439476013 -0.0006682830862700939
vn -0.8878850340843201 -0.4600650370121002 -0.00060603441670537
vn -0.7308357954025269 -0.6825531721115112 -0.0004988389555364847
vn -0.5195838212966919 -0.8544194102287292 -0.00035464693792164326
vn -0.2697966992855072 -0.9629172682762146 -0.0001841523335315287
vn 1.2246464555384738e-16 -1.0 8.358942494479349e-20
vn -1.2246464555384738e-16 -1.0 -8.358942494479349e-20
f 2//2 3//3 1//1
f 1//1 3//3 4//4
f 5//5 6//6 10//10
f 10//10 6//6 9//9
f 9//9 6//6 7//7
f 9//9 7//7 8//8
f 12//12 13//13 11//11
f 11//11 13//13 14//14
f 16//16 17//17 15//15
f 15//15 17//17 18//18
f 20//20 43//43 19//19
f 19//19 43//43 44//44
f 19//19 44//44 41//41
f 41//41 44//44 40//40
f 40//40 44//44 39//39
f 39//39 44//44 38//38
f 38//38 44//44 37//37
f 37//37 44//44 36//36
f 36//36 44//44 45//45
f 36//36 45//45 35//35
f 35//35 45//45 34//34
f 34//34 45//45 33//33
f 33//33 45//45 32//32
f 32//32 45//45 31//31
f 31//31 45//45 30//30
f 30//30 45//45 42//42
f 30//30 42//42 29//29
f 29//29 42//42 28//28
f 28//28 42//42 27//27
f 27//27 42//42 26//26
f 26//26 42//42 25//25
f 25//25 42//42 43//43
f 25//25 43//43 24//24
f 24//24 43//43 23//23
f 23//23 43//43 22//22
f 22//22 43//43 21//21
f 21//21 43//43 20//20
f 47//47 48//48 46//46
f 46//46 48//48 49//49
f 51//51 52//52 50//50
f 50//50 52//52 53//53
f 55//55 56//56 54//54
f 54//54 56//56 57//57
f 54//54 57//57 59//59
f 59//59 57//57 58//58
f 61//61 71//71 60//60
f 60//60 71//71 72//72
f 60//60 72//72 82//82
f 82//82 72//72 73//73
f 82//82 73//73 81//81
f 81//81 73//73 74//74
f 81//81 74//74 80//80
f 80//80 74//74 75//75
f 80//80 75//75 79//79
f 79//79 75//75 76//76
f 79//79 76//76 78//78
f 78//78 76//76 77//77
f 71//71 61//61 70//70
f 70//70 61//61 62//62
f 70//70 62//62 69//69
f 69//69 62//62 63//63
f 69//69 63//63 68//68
f 68//68 63//63 64//64
f 68//68 64//64 67//67
f 67//67 64//64 65//65
f 67//67 65//65 66//66
f 84//84 128//128 83//83
f 83//83 128//128 130//130
f 129//129 106//106 105//105
f 105//105 106//106 107//107
f 105//105 107//107 104//104
f 104//104 107//107 108//108
f 104//104 108//108 103//103
f 103//103 108//108 109//109
f 103//103 109//109 102//102
f 102//102 109//109 110//110
f 102//102 110//110 101//101
f 101//101 110//110 111//111
f 101//101 111//111 100//100
f 100//100 111//111 112//112
f 100//100 112//112 99//99
f 99//99 112//112 113//113
f 99//99 113//113 98//98
f 98//98 113//113 114//114
f 98//98 114//114 97//97
f 97//97 114//114 115//115
f 97//97 115//115 96//96
f 96//96 115//115 116//116
f 96//96 116//116 95//95
f 95//95 116//116 117//117
f 95//95 117//117 94//94
f 94//94 117//117 118//118
f 94//94 118//118 93//93
f 93//93 118//118 119//119
f 93//93 119//119 92//92
f 92//92 119//119 120//120
f 92//92 120//120 91//91
f 91//91 120//120 121//121
f 91//91 121//121 90//90
f 90//90 121//121 122//122
f 90//90 122//122 89//89
f 89//89 122//122 123//123
f 89//89 123//123 88//88
f 88//88 123//123 124//124
f 88//88 124//124 87//87
f 87//87 124//124 125//125
f 87//87 125//125 86//86
f 86//86 125//125 126//126
f 86//86 126//126 85//85
f 85//85 126//126 127//127
f 85//85 127//127 84//84
f 84//84 127//127 128//128

# End of file