# WaveFront *.obj file
# Vertices: 238
# Triangles : 200

v 4.756560802459717 2.0 0.0
v 4.397158622741699 1.7770659923553467 0.0
v 4.023228168487549 1.5794663429260254 0.0
v 3.6365528106689453 1.4081435203552246 0.0
v 3.238975763320923 1.2639141082763672 0.0
v 2.8323934078216553 1.1474661827087402 0.0
v 2.418743848800659 1.0593546628952026 0.0
v 2.0 1.0 0.0
v 2.0 1.0 3.0
v 2.418743848800659 1.0593546628952026 3.0
v 2.8323934078216553 1.1474661827087402 3.0
v 3.238975763320923 1.2639141082763672 3.0
v 3.6365528106689453 1.4081435203552246 3.0
v 4.023228168487549 1.5794663429260254 3.0
v 4.397158622741699 1.7770659923553467 3.0
v 4.756560802459717 2.0 3.0
v 0.0 -1.3877787807814457e-16 0.0
v 0.20366381108760834 0.2000112235546112 0.0
v 0.4243612587451935 0.3810528516769409 0.0
v 0.6603318452835083 0.5416806936264038 0.0
v 0.9096932411193848 0.6806135177612305 0.0
v 1.1704562902450562 0.7967429757118225 0.0
v 1.4405410289764404 0.8891426920890808 0.0
v 1.7177927494049072 0.9570757150650024 0.0
v 2.0 1.0 0.0
v 2.418743848800659 1.0593546628952026 0.0
v 2.8323934078216553 1.1474661827087402 0.0
v 3.238975763320923 1.2639141082763672 0.0
v 3.6365528106689453 1.4081435203552246 0.0
v 4.023228168487549 1.5794663429260254 0.0
v 4.397158622741699 1.7770659923553467 0.0
v 4.756560802459717 2.0 0.0
v 4.961607933044434 2.120351552963257 0.0
v 5.1793928146362305 2.21573805809021 0.0
v 5.406888961791992 2.284834146499634 0.0
v 5.640935897827148 2.3266797065734863 0.0
v 5.878280162811279 2.3406929969787598 0.0
v 6.115624904632568 2.3266797065734863 0.0
v 6.349671363830566 2.284834146499634 0.0
v 6.577167987823486 2.21573805809021 0.0
v 6.794952869415283 2.120351552963257 0.0
v 7.0 2.0 0.0
v 7.144917011260986 1.8840521574020386 0.0
v 7.268111228942871 1.7452430725097656 0.0
v 7.366026401519775 1.5875805616378784 0.0
v 7.435834884643555 1.415616750717163 0.0
v 7.475521564483643 1.2343164682388306 0.0
v 7.483940601348877 1.0489144325256348 0.0
v 7.460848331451416 0.8647634387016296 0.0
v 7.406912326812744 0.6871804594993591 0.0
v 7.323688983917236 0.5212927460670471 0.0
v 7.2135820388793945 0.3718898296356201 0.0
v 7.079769611358643 0.24328531324863434 0.0
v 6.926115989685059 0.13919228315353394 0.0
v 6.757057189941406 0.06261614710092545 0.0
v 6.577474117279053 0.01576785184442997 0.0
v 6.392552375793457 0.0 0.0
v 7.0 2.0 0.0
v 6.794952869415283 2.120351552963257 0.0
v 6.577167987823486 2.21573805809021 0.0
v 6.349671363830566 2.284834146499634 0.0
v 6.115624904632568 2.3266797065734863 0.0
v 5.878280162811279 2.3406929969787598 0.0
v 5.640935897827148 2.3266797065734863 0.0
v 5.406888961791992 2.284834146499634 0.0
v 5.1793928146362305 2.21573805809021 0.0
v 4.961607933044434 2.120351552963257 0.0
v 4.756560802459717 2.0 0.0
v 4.756560802459717 2.0 3.0
v 4.961607933044434 2.120351552963257 3.0
v 5.1793928146362305 2.21573805809021 3.0
v 5.406888961791992 2.284834146499634 3.0
v 5.640935897827148 2.3266797065734863 3.0
v 5.878280162811279 2.3406929969787598 3.0
v 6.115624904632568 2.3266797065734863 3.0
v 6.349671363830566 2.284834146499634 3.0
v 6.577167987823486 2.21573805809021 3.0
v 6.794952869415283 2.120351552963257 3.0
v 7.0 2.0 3.0
v 6.392552375793457 0.0 0.0
v 6.577474117279053 0.01576785184442997 0.0
v 6.757057189941406 0.06261614710092545 0.0
v 6.926115989685059 0.13919228315353394 0.0
v 7.079769611358643 0.24328531324863434 0.0
v 7.2135820388793945 0.3718898296356201 0.0
v 7.323688983917236 0.5212927460670471 0.0
v 7.406912326812744 0.6871804594993591 0.0
v 7.460848331451416 0.8647634387016296 0.0
v 7.483940601348877 1.0489144325256348 0.0
v 7.475521564483643 1.2343164682388306 0.0
v 7.435834884643555 1.415616750717163 0.0
v 7.366026401519775 1.5875805616378784 0.0
v 7.268111228942871 1.7452430725097656 0.0
v 7.144917011260986 1.8840521574020386 0.0
v 7.0 2.0 0.0
v 7.0 2.0 3.0
v 7.144917011260986 1.8840521574020386 3.0
v 7.268111228942871 1.7452430725097656 3.0
v 7.366026401519775 1.5875805616378784 3.0
v 7.435834884643555 1.415616750717163 3.0
v 7.475521564483643 1.2343164682388306 3.0
v 7.483940601348877 1.0489144325256348 3.0
v 7.460848331451416 0.8647634387016296 3.0
v 7.406912326812744 0.6871804594993591 3.0
v 7.323688983917236 0.5212927460670471 3.0
v 7.2135820388793945 0.3718898296356201 3.0
v 7.079769611358643 0.24328531324863434 3.0
v 6.926115989685059 0.13919228315353394 3.0
v 6.757057189941406 0.06261614710092545 3.0
v 6.577474117279053 0.01576785184442997 3.0
v 6.392552375793457 0.0 3.0
v 2.0 1.0 3.0
v 1.7177927494049072 0.9570757150650024 3.0
v 1.4405410289764404 0.8891426920890808 3.0
v 1.1704562902450562 0.7967429757118225 3.0
v 0.9096932411193848 0.6806135177612305 3.0
v 0.6603318452835083 0.5416806936264038 3.0
v 0.4243612587451935 0.3810528516769409 3.0
v 0.20366381108760834 0.2000112235546112 3.0
v 0.0 -2.220446049250313e-16 3.0
v 6.392552375793457 0.0 3.0
v 6.577474117279053 0.01576785184442997 3.0
v 6.757057189941406 0.06261614710092545 3.0
v 6.926115989685059 0.13919228315353394 3.0
v 7.079769611358643 0.24328531324863434 3.0
v 7.2135820388793945 0.3718898296356201 3.0
v 7.323688983917236 0.5212927460670471 3.0
v 7.406912326812744 0.6871804594993591 3.0
v 7.460848331451416 0.8647634387016296 3.0
v 7.483940601348877 1.0489144325256348 3.0
v 7.475521564483643 1.2343164682388306 3.0
v 7.435834884643555 1.415616750717163 3.0
v 7.366026401519775 1.5875805616378784 3.0
v 7.268111228942871 1.7452430725097656 3.0
v 7.144917011260986 1.8840521574020386 3.0
v 7.0 2.0 3.0
v 6.794952869415283 2.120351552963257 3.0
v 6.577167987823486 2.21573805809021 3.0
v 6.349671363830566 2.284834146499634 3.0
v 6.115624904632568 2.3266797065734863 3.0
v 5.878280162811279 2.3406929969787598 3.0
v 5.640935897827148 2.3266797065734863 3.0
v 5.406888961791992 2.284834146499634 3.0
v 5.1793928146362305 2.21573805809021 3.0
v 4.961607933044434 2.120351552963257 3.0
v 4.756560802459717 2.0 3.0
v 4.397158622741699 1.7770659923553467 3.0
v 4.023228168487549 1.5794663429260254 3.0
v 3.6365528106689453 1.4081435203552246 3.0
v 3.238975763320923 1.2639141082763672 3.0
v 2.8323934078216553 1.1474661827087402 3.0
v 2.418743848800659 1.0593546628952026 3.0
v 2.0 1.0 0.0
v 1.7177927494049072 0.9570757150650024 0.0
v 1.4405410289764404 0.8891426920890808 0.0
v 1.1704562902450562 0.7967429757118225 0.0
v 0.9096932411193848 0.6806135177612305 0.0
v 0.6603318452835083 0.5416806936264038 0.0
v 0.4243612587451935 0.3810528516769409 0.0
v 0.20366381108760834 0.2000112235546112 0.0
v 0.0 -1.3877787807814457e-16 0.0
v 0.0 -2.220446049250313e-16 3.0
v 0.20366381108760834 0.2000112235546112 3.0
v 0.4243612587451935 0.3810528516769409 3.0
v 0.6603318452835083 0.5416806936264038 3.0
v 0.9096932411193848 0.6806135177612305 3.0
v 1.1704562902450562 0.7967429757118225 3.0
v 1.4405410289764404 0.8891426920890808 3.0
v 1.7177927494049072 0.9570757150650024 3.0
v 2.0 1.0 3.0
v 0.0 -1.3877787807814457e-16 0.0
v 6.392552375793457 0.0 0.0
v 6.392552375793457 0.0 3.0
v 0.0 -2.220446049250313e-16 3.0
v 0.0 0.0 0.0
v 6.392552375793457 0.0 0.0
v 6.392552375793457 -0.5 0.0
v 0.0 -0.5 0.0
v 6.392552375793457 0.0 3.0
v 0.0 0.0 3.0
v 0.0 -0.5 3.0
v 6.392552375793457 -0.5 3.0
v 6.392552375793457 0.0 0.0
v 0.0 0.0 0.0
v 0.0 0.0 3.0
v 6.392552375793457 0.0 3.0
v 0.0 0.0 0.0
v 0.0 -0.5 0.0
v 0.0 -0.5 3.0
v 0.0 0.0 3.0
v 0.0 -0.5 0.0
v 6.392552375793457 -0.5 0.0
v 6.392552375793457 -0.5 3.0
v 0.0 -0.5 3.0
v 6.392552375793457 -0.5 0.0
v 6.392552375793457 0.0 0.0
v 6.392552375793457 0.0 3.0
v 6.392552375793457 -0.5 3.0
v 6.900000095367432 0.12503430247306824 0.0
v 6.804311752319336 0.08058618009090424 0.0
v 6.704781532287598 0.04557780921459198 0.0
v 6.602337837219238 0.020335854962468147 0.0
v 6.497936725616455 0.005095851141959429 0.0
v 6.392552375793457 0.0 0.0
v 6.392552375793457 0.0 3.0
v 6.497936725616455 0.005095851141959429 3.0
v 6.602337837219238 0.020335854962468147 3.0
v 6.704781532287598 0.04557780921459198 3.0
v 6.804311752319336 0.08058618009090424 3.0
v 6.900000095367432 0.12503430247306824 3.0
v 6.900000095367432 0.12503430247306824 3.0
v 6.804311752319336 0.08058618009090424 3.0
v 6.704781532287598 0.04557780921459198 3.0
v 6.602337837219238 0.020335854962468147 3.0
v 6.497936725616455 0.005095851141959429 3.0
v 6.392552375793457 0.0 3.0
v 6.392552375793457 -0.5 3.0
v 6.900000095367432 -0.5 3.0
v 6.392552375793457 -0.5 0.0
v 6.900000095367432 -0.5 0.0
v 6.900000095367432 -0.5 3.0
v 6.392552375793457 -0.5 3.0
v 6.900000095367432 -0.5 0.0
v 6.900000095367432 0.12503430247306824 0.0
v 6.900000095367432 0.12503430247306824 3.0
v 6.900000095367432 -0.5 3.0
v 6.392552375793457 0.0 0.0
v 6.392552375793457 -0.5 0.0
v 6.392552375793457 -0.5 3.0
v 6.392552375793457 0.0 3.0
v 6.392552375793457 0.0 0.0
v 6.497936725616455 0.005095851141959429 0.0
v 6.602337837219238 0.020335854962468147 0.0
v 6.704781532287598 0.04557780921459198 0.0
v 6.804311752319336 0.08058618009090424 0.0
v 6.900000095367432 0.12503430247306824 0.0
v 6.900000095367432 -0.5 0.0
v 6.392552375793457 -0.5 0.0
vn -0.5561445355415344 0.8310856223106384 0.0
vn -0.49746397137641907 0.8674846291542053 0.0
vn -0.4364113509654999 0.8997472524642944 0.0
vn -0.37327781319618225 0.9277195930480957 0.0
vn -0.3083643615245819 0.9512683153152466 0.0
vn -0.24198053777217865 0.9702811241149902 0.0
vn -0.17444288730621338 0.9846673011779785 0.0
vn -0.10607343167066574 0.9943583011627197 0.0
vn -0.10607343167066574 0.9943583011627197 0.0
vn -0.17444288730621338 0.9846673011779785 0.0
vn -0.24198053777217865 0.9702811241149902 0.0
vn -0.3083643615245819 0.9512683153152466 0.0
vn -0.37327781319618225 0.9277195930480957 0.0
vn -0.4364113509654999 0.8997472524642944 0.0
vn -0.49746397137641907 0.8674846291542053 0.0
vn -0.5561445355415344 0.8310856223106384 0.0
vn 0.0 -0.0 -1.0
vn 0.0 -0.0 -1.0
vn 0.0 -0.0 -1.0
vn 0.0 -0.0 -1.0
vn 0.0 -0.0 -1.0
vn 0.0 -0.0 -1.0
vn 0.0 -0.0 -1.0
vn 0.0 -0.0 -1.0
vn 0.0 -0.0 -1.0
vn 0.0 -0.0 -1.0
vn 0.0 -0.0 -1.0
vn 0.0 -0.0 -1.0
vn 0.0 -0.0 -1.0
vn 0.0 -0.0 -1.0
vn 0.0 -0.0 -1.0
vn 0.0 -0.0 -1.0
vn 0.0 -0.0 -1.0
vn 0.0 -0.0 -1.0
vn 0.0 -0.0 -1.0
vn 0.0 -0.0 -1.0
vn 0.0 -0.0 -1.0
vn 0.0 -0.0 -1.0
vn 0.0 -0.0 -1.0
vn 0.0 -0.0 -1.0
vn 0.0 -0.0 -1.0
vn 0.0 -0.0 -1.0
vn 0.0 -0.0 -1.0
vn 0.0 -0.0 -1.0
vn 0.0 -0.0 -1.0
vn 0.0 -0.0 -1.0
vn 0.0 -0.0 -1.0
vn 0.0 -0.0 -1.0
vn 0.0 -0.0 -1.0
vn 0.0 -0.0 -1.0
vn 0.0 -0.0 -1.0
vn 0.0 -0.0 -1.0
vn 0.0 -0.0 -1.0
vn 0.0 -0.0 -1.0
vn 0.0 -0.0 -1.0
vn 0.0 -0.0 -1.0
vn 0.0 -0.0 -1.0
vn 0.5561445355415344 0.8310856223106384 -0.0
vn 0.4544828534126282 0.8907554745674133 -0.0
vn 0.34650591015815735 0.9380477666854858 -0.0
vn 0.2337140589952469 0.9723053574562073 -0.0
vn 0.11767460405826569 0.9930521845817566 -0.0
vn -0.0 1.0 -0.0
vn -0.11767460405826569 0.9930521845817566 -0.0
vn -0.2337140589952469 0.9723053574562073 -0.0
vn -0.34650591015815735 0.9380477666854858 -0.0
vn -0.4544828534126282 0.8907554745674133 -0.0
vn -0.5561445355415344 0.8310856223106384 -0.0
vn -0.5561445355415344 0.8310856223106384 -0.0
vn -0.4544828534126282 0.8907554745674133 -0.0
vn -0.34650591015815735 0.9380477666854858 -0.0
vn -0.2337140589952469 0.9723053574562073 -0.0
vn -0.11767460405826569 0.9930521845817566 -0.0
vn -0.0 1.0 -0.0
vn 0.11767460405826569 0.9930521845817566 -0.0
vn 0.2337140589952469 0.9723053574562073 -0.0
vn 0.34650591015815735 0.9380477666854858 -0.0
vn 0.4544828534126282 0.8907554745674133 -0.0
vn 0.5561445355415344 0.8310856223106384 -0.0
vn 0.0 -1.0 -0.0
vn 0.16930411756038666 -0.9855638742446899 -0.0
vn 0.33372002840042114 -0.9426722526550293 -0.0
vn 0.4885006844997406 -0.8725634813308716 -0.0
vn 0.6291772127151489 -0.7772619128227234 -0.0
vn 0.7516879439353943 -0.6595189571380615 -0.0
vn 0.8524957299232483 -0.5227341651916504 -0.0
vn 0.9286900162696838 -0.3708568513393402 -0.0
vn 0.9780709147453308 -0.2082720696926117 -0.0
vn 0.9992126822471619 -0.03967399522662163 -0.0
vn 0.9915048480033875 0.1300695687532425 -0.0
vn 0.9551700353622437 0.29605770111083984 -0.0
vn 0.8912572860717773 0.4534980058670044 -0.0
vn 0.8016119003295898 0.5978447794914246 -0.0
vn 0.6888221502304077 0.7249304056167603 -0.0
vn 0.5561445355415344 0.8310856223106384 -0.0
vn 0.5561445355415344 0.8310856223106384 -0.0
vn 0.6888221502304077 0.7249304056167603 -0.0
vn 0.8016119003295898 0.5978447794914246 -0.0
vn 0.8912572860717773 0.4534980058670044 -0.0
vn 0.9551700353622437 0.29605770111083984 -0.0
vn 0.9915048480033875 0.1300695687532425 -0.0
vn 0.9992126822471619 -0.03967399522662163 -0.0
vn 0.9780709147453308 -0.2082720696926117 -0.0
vn 0.9286900162696838 -0.3708568513393402 -0.0
vn 0.8524957299232483 -0.5227341651916504 -0.0
vn 0.7516879439353943 -0.6595189571380615 -0.0
vn 0.6291772127151489 -0.7772619128227234 -0.0
vn 0.4885006844997406 -0.8725634813308716 -0.0
vn 0.33372002840042114 -0.9426722526550293 -0.0
vn 0.16930411756038666 -0.9855638742446899 -0.0
vn 0.0 -1.0 -0.0
vn 0.0 0.0 1.0
vn 0.0 0.0 1.0
vn 0.0 0.0 1.0
vn 0.0 0.0 1.0
vn 0.0 0.0 1.0
vn 0.0 0.0 1.0
vn 0.0 0.0 1.0
vn 0.0 0.0 1.0
vn 0.0 0.0 1.0
vn 0.0 0.0 1.0
vn 0.0 0.0 1.0
vn 0.0 0.0 1.0
vn 0.0 0.0 1.0
vn 0.0 0.0 1.0
vn 0.0 0.0 1.0
vn 0.0 0.0 1.0
vn 0.0 0.0 1.0
vn 0.0 0.0 1.0
vn 0.0 0.0 1.0
vn 0.0 0.0 1.0
vn 0.0 0.0 1.0
vn 0.0 0.0 1.0
vn 0.0 0.0 1.0
vn 0.0 0.0 1.0
vn 0.0 0.0 1.0
vn 0.0 0.0 1.0
vn 0.0 0.0 1.0
vn 0.0 0.0 1.0
vn 0.0 0.0 1.0
vn 0.0 0.0 1.0
vn 0.0 0.0 1.0
vn 0.0 0.0 1.0
vn 0.0 0.0 1.0
vn 0.0 0.0 1.0
vn 0.0 0.0 1.0
vn 0.0 0.0 1.0
vn 0.0 0.0 1.0
vn 0.0 0.0 1.0
vn 0.0 0.0 1.0
vn 0.0 0.0 1.0
vn 0.0 0.0 1.0
vn -0.10607343167066574 0.9943583011627197 -0.0
vn -0.19437173008918762 0.9809279441833496 -0.0
vn -0.28111952543258667 0.959672749042511 -0.0
vn -0.3656248450279236 0.9307622909545898 -0.0
vn -0.4472135901451111 0.8944271802902222 -0.0
vn -0.5252349376678467 0.8509572744369507 -0.0
vn -0.5990664958953857 0.8006992936134338 -0.0
vn -0.6681193113327026 0.7440541386604309 -0.0
vn -0.731842577457428 0.6814737319946289 -0.0
vn -0.731842577457428 0.6814737319946289 -0.0
vn -0.6681193113327026 0.7440541386604309 -0.0
vn -0.5990664958953857 0.8006992936134338 -0.0
vn -0.5252349376678467 0.8509572744369507 -0.0
vn -0.4472135901451111 0.8944271802902222 -0.0
vn -0.3656248450279236 0.9307622909545898 -0.0
vn -0.28111952543258667 0.959672749042511 -0.0
vn -0.19437173008918762 0.9809279441833496 -0.0
vn -0.10607343167066574 0.9943583011627197 -0.0
vn 0.0 -1.0 0.0
vn 0.0 -1.0 0.0
vn 0.0 -1.0 0.0
vn 0.0 -1.0 0.0
vn -0.0 0.0 -1.0
vn -0.0 0.0 -1.0
vn -0.0 0.0 -1.0
vn -0.0 0.0 -1.0
vn 0.0 0.0 1.0
vn 0.0 0.0 1.0
vn 0.0 0.0 1.0
vn 0.0 0.0 1.0
vn 0.0 1.0 -0.0
vn 0.0 1.0 -0.0
vn 0.0 1.0 -0.0
vn 0.0 1.0 -0.0
vn -1.0 0.0 0.0
vn -1.0 0.0 0.0
vn -1.0 0.0 0.0
vn -1.0 0.0 0.0
vn 0.0 -1.0 0.0
vn 0.0 -1.0 0.0
vn 0.0 -1.0 0.0
vn 0.0 -1.0 0.0
vn 1.0 0.0 -0.0
vn 1.0 0.0 -0.0
vn 1.0 0.0 -0.0
vn 1.0 0.0 -0.0
vn -0.46459031105041504 0.8855257630348206 0.0
vn -0.3769836723804474 0.9262198805809021 0.0
vn -0.2858594059944153 0.9582715630531311 0.0
vn -0.19206781685352325 0.9813816547393799 0.0
vn -0.09648405760526657 0.9953345060348511 0.0
vn -0.0 1.0 0.0
vn -0.0 1.0 0.0
vn -0.09648405760526657 0.9953345060348511 0.0
vn -0.19206781685352325 0.9813816547393799 0.0
vn -0.2858594059944153 0.9582715630531311 0.0
vn -0.3769836723804474 0.9262198805809021 0.0
vn -0.46459031105041504 0.8855257630348206 0.0
vn 0.0 0.0 1.0
vn 0.0 0.0 1.0
vn 0.0 0.0 1.0
vn 0.0 0.0 1.0
vn 0.0 0.0 1.0
vn 0.0 0.0 1.0
vn 0.0 0.0 1.0
vn 0.0 0.0 1.0
vn 0.0 -1.0 0.0
vn 0.0 -1.0 0.0
vn 0.0 -1.0 0.0
vn 0.0 -1.0 0.0
vn 1.0 0.0 0.0
vn 1.0 0.0 0.0
vn 1.0 0.0 0.0
vn 1.0 0.0 0.0
vn -1.0 0.0 0.0
vn -1.0 0.0 0.0
vn -1.0 0.0 0.0
vn -1.0 0.0 0.0
vn 0.0 -0.0 -1.0
vn 0.0 -0.0 -1.0
vn 0.0 -0.0 -1.0
vn 0.0 -0.0 -1.0
vn 0.0 -0.0 -1.0
vn 0.0 -0.0 -1.0
vn 0.0 -0.0 -1.0
vn 0.0 -0.0 -1.0
f 16//16 1//1 15//15
f 15//15 1//1 2//2
f 15//15 2//2 14//14
f 14//14 2//2 3//3
f 14//14 3//3 13//13
f 13//13 3//3 4//4
f 13//13 4//4 12//12
f 12//12 4//4 5//5
f 12//12 5//5 11//11
f 11//11 5//5 6//6
f 11//11 6//6 10//10
f 10//10 6//6 7//7
f 10//10 7//7 9//9
f 9//9 7//7 8//8
f 17//17 18//18 57//57
f 57//57 18//18 19//19
f 57//57 19//19 20//20
f 20//20 21//21 57//57
f 57//57 21//21 25//25
f 57//57 25//25 26//26
f 21//21 22//22 25//25
f 25//25 22//22 23//23
f 25//25 23//23 24//24
f 26//26 27//27 57//57
f 57//57 27//27 28//28
f 57//57 28//28 52//52
f 52//52 28//28 51//51
f 51//51 28//28 50//50
f 50//50 28//28 49//49
f 49//49 28//28 29//29
f 49//49 29//29 48//48
f 48//48 29//29 47//47
f 47//47 29//29 30//30
f 47//47 30//30 46//46
f 46//46 30//30 31//31
f 46//46 31//31 45//45
f 45//45 31//31 44//44
f 44//44 31//31 43//43
f 43//43 31//31 32//32
f 43//43 32//32 42//42
f 42//42 32//32 41//41
f 41//41 32//32 33//33
f 41//41 33//33 40//40
f 40//40 33//33 34//34
f 40//40 34//34 39//39
f 39//39 34//34 35//35
f 39//39 35//35 38//38
f 38//38 35//35 36//36
f 38//38 36//36 37//37
f 52//52 53//53 57//57
f 57//57 53//53 54//54
f 57//57 54//54 55//55
f 55//55 56//56 57//57
f 79//79 58//58 78//78
f 78//78 58//58 59//59
f 78//78 59//59 77//77
f 77//77 59//59 60//60
f 77//77 60//60 76//76
f 76//76 60//60 61//61
f 76//76 61//61 75//75
f 75//75 61//61 62//62
f 75//75 62//62 74//74
f 74//74 62//62 63//63
f 74//74 63//63 73//73
f 73//73 63//63 64//64
f 73//73 64//64 72//72
f 72//72 64//64 65//65
f 72//72 65//65 71//71
f 71//71 65//65 66//66
f 71//71 66//66 70//70
f 70//70 66//66 67//67
f 70//70 67//67 69//69
f 69//69 67//67 68//68
f 111//111 80//80 110//110
f 110//110 80//80 81//81
f 110//110 81//81 109//109
f 109//109 81//81 82//82
f 109//109 82//82 108//108
f 108//108 82//82 83//83
f 108//108 83//83 107//107
f 107//107 83//83 84//84
f 107//107 84//84 106//106
f 106//106 84//84 85//85
f 106//106 85//85 105//105
f 105//105 85//85 86//86
f 105//105 86//86 104//104
f 104//104 86//86 87//87
f 104//104 87//87 103//103
f 103//103 87//87 88//88
f 103//103 88//88 102//102
f 102//102 88//88 89//89
f 102//102 89//89 101//101
f 101//101 89//89 90//90
f 101//101 90//90 100//100
f 100//100 90//90 91//91
f 100//100 91//91 99//99
f 99//99 91//91 92//92
f 99//99 92//92 98//98
f 98//98 92//92 93//93
f 98//98 93//93 97//97
f 97//97 93//93 94//94
f 97//97 94//94 96//96
f 96//96 94//94 95//95
f 113//113 114//114 112//112
f 112//112 114//114 115//115
f 112//112 115//115 116//116
f 112//112 116//116 121//121
f 121//121 116//116 117//117
f 121//121 117//117 118//118
f 118//118 119//119 121//121
f 121//121 119//119 120//120
f 122//122 123//123 121//121
f 121//121 123//123 124//124
f 121//121 124//124 125//125
f 125//125 126//126 121//121
f 121//121 126//126 150//150
f 121//121 150//150 151//151
f 126//126 127//127 150//150
f 150//150 127//127 128//128
f 150//150 128//128 129//129
f 150//150 129//129 149//149
f 149//149 129//129 130//130
f 149//149 130//130 131//131
f 149//149 131//131 148//148
f 148//148 131//131 132//132
f 148//148 132//132 147//147
f 147//147 132//132 133//133
f 147//147 133//133 134//134
f 134//134 135//135 147//147
f 147//147 135//135 146//146
f 146//146 135//135 136//136
f 146//146 136//136 145//145
f 145//145 136//136 137//137
f 145//145 137//137 144//144
f 144//144 137//137 138//138
f 144//144 138//138 143//143
f 143//143 138//138 139//139
f 143//143 139//139 142//142
f 142//142 139//139 140//140
f 142//142 140//140 141//141
f 151//151 152//152 121//121
f 121//121 152//152 112//112
f 170//170 153//153 169//169
f 169//169 153//153 154//154
f 169//169 154//154 155//155
f 169//169 155//155 168//168
f 168//168 155//155 156//156
f 168//168 156//156 167//167
f 167//167 156//156 157//157
f 167//167 157//157 166//166
f 166//166 157//157 158//158
f 166//166 158//158 165//165
f 165//165 158//158 159//159
f 165//165 159//159 164//164
f 164//164 159//159 160//160
f 164//164 160//160 163//163
f 163//163 160//160 162//162
f 162//162 160//160 161//161
f 171//171 172//172 174//174
f 174//174 172//172 173//173
f 175//175 176//176 178//178
f 178//178 176//176 177//177
f 179//179 180//180 182//182
f 182//182 180//180 181//181
f 183//183 184//184 186//186
f 186//186 184//184 185//185
f 187//187 188//188 190//190
f 190//190 188//188 189//189
f 191//191 192//192 194//194
f 194//194 192//192 193//193
f 195//195 196//196 198//198
f 198//198 196//196 197//197
f 210//210 199//199 209//209
f 209//209 199//199 200//200
f 209//209 200//200 208//208
f 208//208 200//200 201//201
f 208//208 201//201 207//207
f 207//207 201//201 202//202
f 207//207 202//202 206//206
f 206//206 202//202 203//203
f 206//206 203//203 205//205
f 205//205 203//203 204//204
f 211//211 212//212 218//218
f 218//218 212//212 213//213
f 218//218 213//213 214//214
f 218//218 214//214 217//217
f 217//217 214//214 215//215
f 217//217 215//215 216//216
f 219//219 220//220 222//222
f 222//222 220//220 221//221
f 223//223 224//224 226//226
f 226//226 224//224 225//225
f 227//227 228//228 230//230
f 230//230 228//228 229//229
f 231//231 232//232 238//238
f 238//238 232//232 233//233
f 238//238 233//233 237//237
f 237//237 233//233 234//234
f 237//237 234//234 235//235
f 235//235 236//236 237//237

# End of file