# WaveFront *.obj file
# Vertices: 144
# Triangles : 80

v 0.07500000298023224 -0.07500000298023224 0.33000001311302185
v 0.07500000298023224 0.07500000298023224 0.33000001311302185
v 0.07500000298023224 0.07500000298023224 0.8299999833106995
v 0.07500000298023224 -0.07500000298023224 0.8299999833106995
v -0.07500000298023224 -0.07500000298023224 0.33000001311302185
v 0.07500000298023224 -0.07500000298023224 0.33000001311302185
v 0.07500000298023224 -0.07500000298023224 0.8299999833106995
v -0.07500000298023224 -0.07500000298023224 0.8299999833106995
v -0.07500000298023224 0.07500000298023224 0.33000001311302185
v -0.07500000298023224 -0.07500000298023224 0.33000001311302185
v -0.07500000298023224 -0.07500000298023224 0.8299999833106995
v -0.07500000298023224 0.07500000298023224 0.8299999833106995
v 0.07500000298023224 0.07500000298023224 0.33000001311302185
v -0.07500000298023224 0.07500000298023224 0.33000001311302185
v -0.07500000298023224 0.07500000298023224 0.8299999833106995
v 0.07500000298023224 0.07500000298023224 0.8299999833106995
v 0.07500000298023224 0.07500000298023224 0.8299999833106995
v -0.07500000298023224 0.07500000298023224 0.8299999833106995
v -0.07500000298023224 -0.07500000298023224 0.8299999833106995
v 0.07500000298023224 -0.07500000298023224 0.8299999833106995
v -0.1899999976158142 -0.09000000357627869 0.3499999940395355
v 0.1899999976158142 -0.09000000357627869 0.3499999940395355
v 0.1899999976158142 -0.09000000357627869 0.33000001311302185
v -0.1899999976158142 -0.09000000357627869 0.33000001311302185
v 0.1899999976158142 -0.09000000357627869 0.3499999940395355
v 0.1899999976158142 0.09000000357627869 0.3499999940395355
v 0.1899999976158142 0.09000000357627869 0.33000001311302185
v 0.1899999976158142 -0.09000000357627869 0.33000001311302185
v 0.1899999976158142 0.09000000357627869 0.3499999940395355
v -0.1899999976158142 0.09000000357627869 0.3499999940395355
v -0.1899999976158142 0.09000000357627869 0.33000001311302185
v 0.1899999976158142 0.09000000357627869 0.33000001311302185
v -0.1899999976158142 0.09000000357627869 0.3499999940395355
v -0.1899999976158142 -0.09000000357627869 0.3499999940395355
v -0.1899999976158142 -0.09000000357627869 0.33000001311302185
v -0.1899999976158142 0.09000000357627869 0.33000001311302185
v 0.07500000298023224 0.07500000298023224 0.33000001311302185
v 0.07500000298023224 -0.07500000298023224 0.33000001311302185
v -0.07500000298023224 -0.07500000298023224 0.33000001311302185
v -0.07500000298023224 0.07500000298023224 0.33000001311302185
v -0.1899999976158142 0.09000000357627869 0.33000001311302185
v -0.1899999976158142 -0.09000000357627869 0.33000001311302185
v 0.1899999976158142 -0.09000000357627869 0.33000001311302185
v 0.1899999976158142 0.09000000357627869 0.33000001311302185
v 0.42500001192092896 -0.1899999976158142 0.0
v 0.42500001192092896 0.1899999976158142 0.0
v 0.42500001192092896 0.1899999976158142 0.3499999940395355
v 0.42500001192092896 -0.1899999976158142 0.3499999940395355
v -0.42500001192092896 -0.1899999976158142 0.0
v 0.42500001192092896 -0.1899999976158142 0.0
v 0.42500001192092896 -0.1899999976158142 0.3499999940395355
v -0.42500001192092896 -0.1899999976158142 0.3499999940395355
v -0.42500001192092896 0.1899999976158142 0.0
v -0.42500001192092896 -0.1899999976158142 0.0
v -0.42500001192092896 -0.1899999976158142 0.3499999940395355
v -0.42500001192092896 0.1899999976158142 0.3499999940395355
v 0.42500001192092896 0.1899999976158142 0.0
v -0.42500001192092896 0.1899999976158142 0.0
v -0.42500001192092896 0.1899999976158142 0.3499999940395355
v 0.42500001192092896 0.1899999976158142 0.3499999940395355
v 0.1899999976158142 -0.09000000357627869 0.3499999940395355
v -0.1899999976158142 -0.09000000357627869 0.3499999940395355
v -0.1899999976158142 0.09000000357627869 0.3499999940395355
v 0.1899999976158142 0.09000000357627869 0.3499999940395355
v 0.42500001192092896 0.1899999976158142 0.3499999940395355
v -0.42500001192092896 0.1899999976158142 0.3499999940395355
v -0.42500001192092896 -0.1899999976158142 0.3499999940395355
v 0.42500001192092896 -0.1899999976158142 0.3499999940395355
v -0.42500001192092896 0.1899999976158142 0.0
v 0.42500001192092896 0.1899999976158142 0.0
v 0.42500001192092896 -0.1899999976158142 0.0
v -0.42500001192092896 -0.1899999976158142 0.0
v -0.26499998569488525 -0.02500000037252903 0.0
v -0.26499998569488525 0.02500000037252903 0.0
v -0.26499998569488525 0.02500000037252903 -0.5
v -0.26499998569488525 -0.02500000037252903 -0.5
v -0.23499999940395355 -0.02500000037252903 0.0
v -0.26499998569488525 -0.02500000037252903 0.0
v -0.26499998569488525 -0.02500000037252903 -0.5
v -0.23499999940395355 -0.02500000037252903 -0.5
v -0.23499999940395355 0.02500000037252903 0.0
v -0.23499999940395355 -0.02500000037252903 0.0
v -0.23499999940395355 -0.02500000037252903 -0.5
v -0.23499999940395355 0.02500000037252903 -0.5
v -0.26499998569488525 0.02500000037252903 0.0
v -0.23499999940395355 0.02500000037252903 0.0
v -0.23499999940395355 0.02500000037252903 -0.5
v -0.26499998569488525 0.02500000037252903 -0.5
v -0.26499998569488525 0.02500000037252903 -0.5
v -0.23499999940395355 0.02500000037252903 -0.5
v -0.23499999940395355 -0.02500000037252903 -0.5
v -0.26499998569488525 -0.02500000037252903 -0.5
v -0.23499999940395355 0.02500000037252903 0.0
v -0.26499998569488525 0.02500000037252903 0.0
v -0.26499998569488525 -0.02500000037252903 0.0
v -0.23499999940395355 -0.02500000037252903 0.0
v 0.014999999664723873 -0.02500000037252903 0.0
v -0.014999999664723873 -0.02500000037252903 0.0
v -0.014999999664723873 -0.02500000037252903 -0.5
v 0.014999999664723873 -0.02500000037252903 -0.5
v 0.014999999664723873 0.02500000037252903 0.0
v 0.014999999664723873 -0.02500000037252903 0.0
v 0.014999999664723873 -0.02500000037252903 -0.5
v 0.014999999664723873 0.02500000037252903 -0.5
v -0.014999999664723873 0.02500000037252903 0.0
v 0.014999999664723873 0.02500000037252903 0.0
v 0.014999999664723873 0.02500000037252903 -0.5
v -0.014999999664723873 0.02500000037252903 -0.5
v -0.014999999664723873 -0.02500000037252903 0.0
v -0.014999999664723873 0.02500000037252903 0.0
v -0.014999999664723873 0.02500000037252903 -0.5
v -0.014999999664723873 -0.02500000037252903 -0.5
v -0.014999999664723873 -0.02500000037252903 -0.5
v -0.014999999664723873 0.02500000037252903 -0.5
v 0.014999999664723873 0.02500000037252903 -0.5
v 0.014999999664723873 -0.02500000037252903 -0.5
v -0.014999999664723873 0.02500000037252903 0.0
v -0.014999999664723873 -0.02500000037252903 0.0
v 0.014999999664723873 -0.02500000037252903 0.0
v 0.014999999664723873 0.02500000037252903 0.0
v 0.26499998569488525 0.02500000037252903 0.0
v 0.26499998569488525 -0.02500000037252903 0.0
v 0.26499998569488525 -0.02500000037252903 -0.5
v 0.26499998569488525 0.02500000037252903 -0.5
v 0.23499999940395355 0.02500000037252903 0.0
v 0.26499998569488525 0.02500000037252903 0.0
v 0.26499998569488525 0.02500000037252903 -0.5
v 0.23499999940395355 0.02500000037252903 -0.5
v 0.23499999940395355 -0.02500000037252903 0.0
v 0.23499999940395355 0.02500000037252903 0.0
v 0.23499999940395355 0.02500000037252903 -0.5
v 0.23499999940395355 -0.02500000037252903 -0.5
v 0.26499998569488525 -0.02500000037252903 0.0
v 0.23499999940395355 -0.02500000037252903 0.0
v 0.23499999940395355 -0.02500000037252903 -0.5
v 0.26499998569488525 -0.02500000037252903 -0.5
v 0.26499998569488525 -0.02500000037252903 -0.5
v 0.23499999940395355 -0.02500000037252903 -0.5
v 0.23499999940395355 0.02500000037252903 -0.5
v 0.26499998569488525 0.02500000037252903 -0.5
v 0.23499999940395355 -0.02500000037252903 0.0
v 0.26499998569488525 -0.02500000037252903 0.0
v 0.26499998569488525 0.02500000037252903 0.0
v 0.23499999940395355 0.02500000037252903 0.0
vn 1.0 0.0 -0.0
vn 1.0 0.0 -0.0
vn 1.0 0.0 -0.0
vn 1.0 0.0 -0.0
vn 0.0 -1.0 0.0
vn 0.0 -1.0 0.0
vn 0.0 -1.0 0.0
vn 0.0 -1.0 0.0
vn -1.0 0.0 0.0
vn -1.0 0.0 0.0
vn -1.0 0.0 0.0
vn -1.0 0.0 0.0
vn 0.0 1.0 0.0
vn 0.0 1.0 0.0
vn 0.0 1.0 0.0
vn 0.0 1.0 0.0
vn 0.0 0.0 1.0
vn 0.0 0.0 1.0
vn 0.0 0.0 1.0
vn 0.0 0.0 1.0
vn 0.0 1.0 0.0
vn 0.0 1.0 0.0
vn 0.0 1.0 0.0
vn 0.0 1.0 0.0
vn -1.0 -0.0 -0.0
vn -1.0 -0.0 -0.0
vn -1.0 -0.0 -0.0
vn -1.0 -0.0 -0.0
vn 0.0 -1.0 -0.0
vn 0.0 -1.0 -0.0
vn 0.0 -1.0 -0.0
vn 0.0 -1.0 -0.0
vn 1.0 -0.0 -0.0
vn 1.0 -0.0 -0.0
vn 1.0 -0.0 -0.0
vn 1.0 -0.0 -0.0
vn -0.0 -0.0 1.0
vn -0.0 -0.0 1.0
vn -0.0 -0.0 1.0
vn -0.0 -0.0 1.0
vn -0.0 -0.0 1.0
vn -0.0 -0.0 1.0
vn -0.0 -0.0 1.0
vn -0.0 -0.0 1.0
vn 1.0 0.0 -0.0
vn 1.0 0.0 -0.0
vn 1.0 0.0 -0.0
vn 1.0 0.0 -0.0
vn 0.0 -1.0 0.0
vn 0.0 -1.0 0.0
vn 0.0 -1.0 0.0
vn 0.0 -1.0 0.0
vn -1.0 -2.3373116084994625e-15 0.0
vn -1.0 -2.3373116084994625e-15 0.0
vn -1.0 -2.3373116084994625e-15 0.0
vn -1.0 -2.3373116084994625e-15 0.0
vn 0.0 1.0 0.0
vn 0.0 1.0 0.0
vn 0.0 1.0 0.0
vn 0.0 1.0 0.0
vn 0.0 0.0 1.0
vn 0.0 0.0 1.0
vn 0.0 0.0 1.0
vn 0.0 0.0 1.0
vn 0.0 0.0 1.0
vn 0.0 0.0 1.0
vn 0.0 0.0 1.0
vn 0.0 0.0 1.0
vn -0.0 0.0 -1.0
vn -0.0 0.0 -1.0
vn -0.0 0.0 -1.0
vn -0.0 0.0 -1.0
vn -1.0 -0.0 -0.0
vn -1.0 -0.0 -0.0
vn -1.0 -0.0 -0.0
vn -1.0 -0.0 -0.0
vn 0.0 -1.0 0.0
vn 0.0 -1.0 0.0
vn 0.0 -1.0 0.0
vn 0.0 -1.0 0.0
vn 1.0 -2.220446049250313e-15 0.0
vn 1.0 -2.220446049250313e-15 0.0
vn 1.0 -2.220446049250313e-15 0.0
vn 1.0 -2.220446049250313e-15 0.0
vn 0.0 1.0 0.0
vn 0.0 1.0 0.0
vn 0.0 1.0 0.0
vn 0.0 1.0 0.0
vn 0.0 0.0 -1.0
vn 0.0 0.0 -1.0
vn 0.0 0.0 -1.0
vn 0.0 0.0 -1.0
vn -0.0 -0.0 1.0
vn -0.0 -0.0 1.0
vn -0.0 -0.0 1.0
vn -0.0 -0.0 1.0
vn 2.312964546403144e-16 -1.0 0.0
vn 2.312964546403144e-16 -1.0 0.0
vn 2.312964546403144e-16 -1.0 0.0
vn 2.312964546403144e-16 -1.0 0.0
vn 1.0 -2.0816681711721685e-16 0.0
vn 1.0 -2.0816681711721685e-16 0.0
vn 1.0 -2.0816681711721685e-16 0.0
vn 1.0 -2.0816681711721685e-16 0.0
vn 0.0 1.0 0.0
vn 0.0 1.0 0.0
vn 0.0 1.0 0.0
vn 0.0 1.0 0.0
vn -1.0 2.0816681711721685e-16 0.0
vn -1.0 2.0816681711721685e-16 0.0
vn -1.0 2.0816681711721685e-16 0.0
vn -1.0 2.0816681711721685e-16 0.0
vn 0.0 0.0 -1.0
vn 0.0 0.0 -1.0
vn 0.0 0.0 -1.0
vn 0.0 0.0 -1.0
vn -0.0 -0.0 1.0
vn -0.0 -0.0 1.0
vn -0.0 -0.0 1.0
vn -0.0 -0.0 1.0
vn 1.0 -0.0 0.0
vn 1.0 -0.0 0.0
vn 1.0 -0.0 0.0
vn 1.0 -0.0 0.0
vn 0.0 1.0 0.0
vn 0.0 1.0 0.0
vn 0.0 1.0 0.0
vn 0.0 1.0 0.0
vn -1.0 -0.0 -0.0
vn -1.0 -0.0 -0.0
vn -1.0 -0.0 -0.0
vn -1.0 -0.0 -0.0
vn 0.0 -1.0 0.0
vn 0.0 -1.0 0.0
vn 0.0 -1.0 0.0
vn 0.0 -1.0 0.0
vn 0.0 0.0 -1.0
vn 0.0 0.0 -1.0
vn 0.0 0.0 -1.0
vn 0.0 0.0 -1.0
vn -0.0 -0.0 1.0
vn -0.0 -0.0 1.0
vn -0.0 -0.0 1.0
vn -0.0 -0.0 1.0
g 6ab0bd06-e35e-11ea-a492-54bf646e7e1f
f 1//1 2//2 4//4
f 4//4 2//2 3//3
g 6ab1804a-e35e-11ea-b636-54bf646e7e1f
f 5//5 6//6 8//8
f 8//8 6//6 7//7
g 6ab21c82-e35e-11ea-9105-54bf646e7e1f
f 9//9 10//10 12//12
f 12//12 10//10 11//11
g 6ab2b8c2-e35e-11ea-891d-54bf646e7e1f
f 13//13 14//14 16//16
f 16//16 14//14 15//15
g 6ab354fa-e35e-11ea-8587-54bf646e7e1f
f 17//17 18//18 20//20
f 20//20 18//18 19//19
g 6a5335fa-e35e-11ea-ba16-54bf646e7e1f
f 21//21 22//22 24//24
f 24//24 22//22 23//23
g 6a542058-e35e-11ea-afdc-54bf646e7e1f
f 25//25 26//26 28//28
f 28//28 26//26 27//27
g 6a54bc92-e35e-11ea-a50b-54bf646e7e1f
f 29//29 30//30 32//32
f 32//32 30//30 31//31
g 6a5531be-e35e-11ea-ada3-54bf646e7e1f
f 33//33 34//34 36//36
f 36//36 34//34 35//35
g 6a55cdfa-e35e-11ea-9891-54bf646e7e1f
f 38//38 43//43 37//37
f 37//37 43//43 44//44
f 37//37 44//44 41//41
f 38//38 39//39 43//43
f 43//43 39//39 42//42
f 42//42 39//39 40//40
f 42//42 40//40 41//41
f 41//41 40//40 37//37
g 69decc0a-e35e-11ea-be7f-54bf646e7e1f
f 45//45 46//46 48//48
f 48//48 46//46 47//47
g 69df413a-e35e-11ea-8ecb-54bf646e7e1f
f 49//49 50//50 52//52
f 52//52 50//50 51//51
g 69dfb668-e35e-11ea-b617-54bf646e7e1f
f 53//53 54//54 56//56
f 56//56 54//54 55//55
g 69e02b94-e35e-11ea-b864-54bf646e7e1f
f 57//57 58//58 60//60
f 60//60 58//58 59//59
g 69e0a0c0-e35e-11ea-bf2d-54bf646e7e1f
f 64//64 61//61 68//68
f 68//68 61//61 62//62
f 68//68 62//62 67//67
f 67//67 62//62 63//63
f 67//67 63//63 66//66
f 66//66 63//63 64//64
f 66//66 64//64 65//65
f 65//65 64//64 68//68
g 69e115f8-e35e-11ea-8a8b-54bf646e7e1f
f 69//69 70//70 72//72
f 72//72 70//70 71//71
g 6b379d12-e35e-11ea-b436-54bf646e7e1f
f 73//73 74//74 76//76
f 76//76 74//74 75//75
g 6b38ae7a-e35e-11ea-add9-54bf646e7e1f
f 77//77 78//78 80//80
f 80//80 78//78 79//79
g 6b3998d8-e35e-11ea-8db9-54bf646e7e1f
f 81//81 82//82 84//84
f 84//84 82//82 83//83
g 6b3a5c30-e35e-11ea-b2ce-54bf646e7e1f
f 85//85 86//86 88//88
f 88//88 86//86 87//87
g 6b3b6da4-e35e-11ea-a38b-54bf646e7e1f
f 89//89 90//90 92//92
f 92//92 90//90 91//91
g 6b3c7f06-e35e-11ea-81c0-54bf646e7e1f
f 93//93 94//94 96//96
f 96//96 94//94 95//95
g 6b3d906c-e35e-11ea-9f32-54bf646e7e1f
f 97//97 98//98 100//100
f 100//100 98//98 99//99
g 6b3ea1d8-e35e-11ea-8585-54bf646e7e1f
f 101//101 102//102 104//104
f 104//104 102//102 103//103
g 6b3fb346-e35e-11ea-b580-54bf646e7e1f
f 105//105 106//106 108//108
f 108//108 106//106 107//107
g 6b40c4b4-e35e-11ea-bc37-54bf646e7e1f
f 109//109 110//110 112//112
f 112//112 110//110 111//111
g 6b41d62e-e35e-11ea-9aa8-54bf646e7e1f
f 114//114 115//115 113//113
f 113//113 115//115 116//116
g 6b430e92-e35e-11ea-809b-54bf646e7e1f
f 118//118 119//119 117//117
f 117//117 119//119 120//120
g 6b44470a-e35e-11ea-8478-54bf646e7e1f
f 121//121 122//122 124//124
f 124//124 122//122 123//123
g 6b455876-e35e-11ea-8cd3-54bf646e7e1f
f 125//125 126//126 128//128
f 128//128 126//126 127//127
g 6b46b818-e35e-11ea-9759-54bf646e7e1f
f 129//129 130//130 132//132
f 132//132 130//130 131//131
g 6b483e94-e35e-11ea-bd75-54bf646e7e1f
f 133//133 134//134 136//136
f 136//136 134//134 135//135
g 6b49ec2c-e35e-11ea-88c8-54bf646e7e1f
f 137//137 138//138 140//140
f 140//140 138//138 139//139
g 6b4b24ac-e35e-11ea-a746-54bf646e7e1f
f 141//141 142//142 144//144
f 144//144 142//142 143//143

# End of file