# WaveFront *.obj file
# Vertices: 204
# Triangles : 188

v -5.400000095367432 0.8999999761581421 11.199999809265137
v -5.354182243347168 0.8999999761581421 11.385889053344727
v -5.2272257804870605 0.8999999761581421 11.529193878173828
v -5.048214435577393 0.8999999761581421 11.59708309173584
v -4.858158111572266 0.8999999761581421 11.574006080627441
v -4.700595855712891 0.8999999761581421 11.465249061584473
v -4.611623287200928 0.8999999761581421 11.29572582244873
v -4.611623287200928 0.8999999761581421 11.104273796081543
v -4.700595855712891 0.8999999761581421 10.9347505569458
v -4.858158111572266 0.8999999761581421 10.825993537902832
v -5.048214435577393 0.8999999761581421 10.802916526794434
v -5.2272257804870605 0.8999999761581421 10.870806694030762
v -5.354182243347168 0.8999999761581421 11.014110565185547
v -5.400000095367432 0.0 11.199999809265137
v -5.354182243347168 0.0 11.014110565185547
v -5.2272257804870605 0.0 10.870806694030762
v -5.048214435577393 0.0 10.802916526794434
v -4.858158111572266 0.0 10.825993537902832
v -4.700595855712891 0.0 10.9347505569458
v -4.611623287200928 0.0 11.104273796081543
v -4.611623287200928 0.0 11.29572582244873
v -4.700595855712891 0.0 11.465249061584473
v -4.858158111572266 0.0 11.574006080627441
v -5.048214435577393 0.0 11.59708309173584
v -5.2272257804870605 0.0 11.529193878173828
v -5.354182243347168 0.0 11.385889053344727
v -5.400000095367432 0.8999999761581421 11.199999809265137
v -5.400000095367432 0.0 11.199999809265137
v -5.400000095367432 0.8999999761581421 -11.199999809265137
v -5.354182243347168 0.8999999761581421 -11.014110565185547
v -5.2272257804870605 0.8999999761581421 -10.870806694030762
v -5.048214435577393 0.8999999761581421 -10.802916526794434
v -4.858158111572266 0.8999999761581421 -10.825993537902832
v -4.700595855712891 0.8999999761581421 -10.9347505569458
v -4.611623287200928 0.8999999761581421 -11.104273796081543
v -4.611623287200928 0.8999999761581421 -11.29572582244873
v -4.700595855712891 0.8999999761581421 -11.465249061584473
v -4.858158111572266 0.8999999761581421 -11.574006080627441
v -5.048214435577393 0.8999999761581421 -11.59708309173584
v -5.2272257804870605 0.8999999761581421 -11.529193878173828
v -5.354182243347168 0.8999999761581421 -11.385889053344727
v -5.400000095367432 0.0 -11.199999809265137
v -5.354182243347168 0.0 -11.385889053344727
v -5.2272257804870605 0.0 -11.529193878173828
v -5.048214435577393 0.0 -11.59708309173584
v -4.858158111572266 0.0 -11.574006080627441
v -4.700595855712891 0.0 -11.465249061584473
v -4.611623287200928 0.0 -11.29572582244873
v -4.611623287200928 0.0 -11.104273796081543
v -4.700595855712891 0.0 -10.9347505569458
v -4.858158111572266 0.0 -10.825993537902832
v -5.048214435577393 0.0 -10.802916526794434
v -5.2272257804870605 0.0 -10.870806694030762
v -5.354182243347168 0.0 -11.014110565185547
v -5.400000095367432 0.8999999761581421 -11.199999809265137
v -5.400000095367432 0.0 -11.199999809265137
v -6.0 0.0 -12.0
v -6.0 0.0 12.100000381469727
v -6.0 0.8999999761581421 12.100000381469727
v -6.0 0.8999999761581421 -12.0
v -5.5 0.0 -12.5
v -5.691341876983643 0.0 -12.461939811706543
v -5.853553295135498 0.0 -12.353553771972656
v -5.961939811706543 0.0 -12.191341400146484
v -6.0 0.0 -12.0
v -6.0 0.8999999761581421 -12.0
v -5.961939811706543 0.8999999761581421 -12.191341400146484
v -5.853553295135498 0.8999999761581421 -12.353553771972656
v -5.691341876983643 0.8999999761581421 -12.461939811706543
v -5.5 0.8999999761581421 -12.5
v -4.400000095367432 0.0 -12.5
v -5.5 0.0 -12.5
v -5.5 0.8999999761581421 -12.5
v -4.400000095367432 0.8999999761581421 -12.5
v -4.0 0.0 -12.100000381469727
v -4.030447959899902 0.0 -12.253073692321777
v -4.117157459259033 0.0 -12.382843017578125
v -4.246926784515381 0.0 -12.469552040100098
v -4.400000095367432 0.0 -12.5
v -4.400000095367432 0.8999999761581421 -12.5
v -4.246926784515381 0.8999999761581421 -12.469552040100098
v -4.117157459259033 0.8999999761581421 -12.382843017578125
v -4.030447959899902 0.8999999761581421 -12.253073692321777
v -4.0 0.8999999761581421 -12.100000381469727
v -4.0 0.0 12.100000381469727
v -4.0 0.0 -12.100000381469727
v -4.0 0.8999999761581421 -12.100000381469727
v -4.0 0.8999999761581421 12.100000381469727
v -4.400000095367432 0.0 12.5
v -4.246926784515381 0.0 12.469552040100098
v -4.117157459259033 0.0 12.382843017578125
v -4.030447959899902 0.0 12.253073692321777
v -4.0 0.0 12.100000381469727
v -4.0 0.8999999761581421 12.100000381469727
v -4.030447959899902 0.8999999761581421 12.253073692321777
v -4.117157459259033 0.8999999761581421 12.382843017578125
v -4.246926784515381 0.8999999761581421 12.469552040100098
v -4.400000095367432 0.8999999761581421 12.5
v -5.599999904632568 0.0 12.5
v -4.400000095367432 0.0 12.5
v -4.400000095367432 0.8999999761581421 12.5
v -5.599999904632568 0.8999999761581421 12.5
v -6.0 0.0 12.100000381469727
v -5.969552040100098 0.0 12.253073692321777
v -5.882842540740967 0.0 12.382843017578125
v -5.753073215484619 0.0 12.469552040100098
v -5.599999904632568 0.0 12.5
v -5.599999904632568 0.8999999761581421 12.5
v -5.753073215484619 0.8999999761581421 12.469552040100098
v -5.882842540740967 0.8999999761581421 12.382843017578125
v -5.969552040100098 0.8999999761581421 12.253073692321777
v -6.0 0.8999999761581421 12.100000381469727
v -5.400000095367432 0.8999999761581421 -11.199999809265137
v -5.354182243347168 0.8999999761581421 -11.385889053344727
v -5.2272257804870605 0.8999999761581421 -11.529193878173828
v -5.048214435577393 0.8999999761581421 -11.59708309173584
v -4.858158111572266 0.8999999761581421 -11.574006080627441
v -4.700595855712891 0.8999999761581421 -11.465249061584473
v -4.611623287200928 0.8999999761581421 -11.29572582244873
v -4.611623287200928 0.8999999761581421 -11.104273796081543
v -4.700595855712891 0.8999999761581421 -10.9347505569458
v -4.858158111572266 0.8999999761581421 -10.825993537902832
v -5.048214435577393 0.8999999761581421 -10.802916526794434
v -5.2272257804870605 0.8999999761581421 -10.870806694030762
v -5.354182243347168 0.8999999761581421 -11.014110565185547
v -5.400000095367432 0.8999999761581421 11.199999809265137
v -5.354182243347168 0.8999999761581421 11.014110565185547
v -5.2272257804870605 0.8999999761581421 10.870806694030762
v -5.048214435577393 0.8999999761581421 10.802916526794434
v -4.858158111572266 0.8999999761581421 10.825993537902832
v -4.700595855712891 0.8999999761581421 10.9347505569458
v -4.611623287200928 0.8999999761581421 11.104273796081543
v -4.611623287200928 0.8999999761581421 11.29572582244873
v -4.700595855712891 0.8999999761581421 11.465249061584473
v -4.858158111572266 0.8999999761581421 11.574006080627441
v -5.048214435577393 0.8999999761581421 11.59708309173584
v -5.2272257804870605 0.8999999761581421 11.529193878173828
v -5.354182243347168 0.8999999761581421 11.385889053344727
v -6.0 0.8999999761581421 12.100000381469727
v -5.969552040100098 0.8999999761581421 12.253073692321777
v -5.882842540740967 0.8999999761581421 12.382843017578125
v -5.753073215484619 0.8999999761581421 12.469552040100098
v -5.599999904632568 0.8999999761581421 12.5
v -4.400000095367432 0.8999999761581421 12.5
v -4.246926784515381 0.8999999761581421 12.469552040100098
v -4.117157459259033 0.8999999761581421 12.382843017578125
v -4.030447959899902 0.8999999761581421 12.253073692321777
v -4.0 0.8999999761581421 12.100000381469727
v -4.0 0.8999999761581421 -12.100000381469727
v -4.030447959899902 0.8999999761581421 -12.253073692321777
v -4.117157459259033 0.8999999761581421 -12.382843017578125
v -4.246926784515381 0.8999999761581421 -12.469552040100098
v -4.400000095367432 0.8999999761581421 -12.5
v -5.5 0.8999999761581421 -12.5
v -5.691341876983643 0.8999999761581421 -12.461939811706543
v -5.853553295135498 0.8999999761581421 -12.353553771972656
v -5.961939811706543 0.8999999761581421 -12.191341400146484
v -6.0 0.8999999761581421 -12.0
v -5.400000095367432 0.0 -11.199999809265137
v -5.354182243347168 0.0 -11.014110565185547
v -5.2272257804870605 0.0 -10.870806694030762
v -5.048214435577393 0.0 -10.802916526794434
v -4.858158111572266 0.0 -10.825993537902832
v -4.700595855712891 0.0 -10.9347505569458
v -4.611623287200928 0.0 -11.104273796081543
v -4.611623287200928 0.0 -11.29572582244873
v -4.700595855712891 0.0 -11.465249061584473
v -4.858158111572266 0.0 -11.574006080627441
v -5.048214435577393 0.0 -11.59708309173584
v -5.2272257804870605 0.0 -11.529193878173828
v -5.354182243347168 0.0 -11.385889053344727
v -5.400000095367432 0.0 11.199999809265137
v -5.354182243347168 0.0 11.385889053344727
v -5.2272257804870605 0.0 11.529193878173828
v -5.048214435577393 0.0 11.59708309173584
v -4.858158111572266 0.0 11.574006080627441
v -4.700595855712891 0.0 11.465249061584473
v -4.611623287200928 0.0 11.29572582244873
v -4.611623287200928 0.0 11.104273796081543
v -4.700595855712891 0.0 10.9347505569458
v -4.858158111572266 0.0 10.825993537902832
v -5.048214435577393 0.0 10.802916526794434
v -5.2272257804870605 0.0 10.870806694030762
v -5.354182243347168 0.0 11.014110565185547
v -5.599999904632568 0.0 12.5
v -5.753073215484619 0.0 12.469552040100098
v -5.882842540740967 0.0 12.382843017578125
v -5.969552040100098 0.0 12.253073692321777
v -6.0 0.0 12.100000381469727
v -6.0 0.0 -12.0
v -5.961939811706543 0.0 -12.191341400146484
v -5.853553295135498 0.0 -12.353553771972656
v -5.691341876983643 0.0 -12.461939811706543
v -5.5 0.0 -12.5
v -4.400000095367432 0.0 -12.5
v -4.246926784515381 0.0 -12.469552040100098
v -4.117157459259033 0.0 -12.382843017578125
v -4.030447959899902 0.0 -12.253073692321777
v -4.0 0.0 -12.100000381469727
v -4.0 0.0 12.100000381469727
v -4.030447959899902 0.0 12.253073692321777
v -4.117157459259033 0.0 12.382843017578125
v -4.246926784515381 0.0 12.469552040100098
v -4.400000095367432 0.0 12.5
vn 1.0 0.0 -1.2246468525851679e-16
vn 0.8854560256004333 0.0 -0.4647231698036194
vn 0.5680647492408752 0.0 -0.8229838609695435
vn 0.1205366775393486 0.0 -0.9927088618278503
vn -0.35460489988327026 0.0 -0.9350162148475647
vn -0.7485107779502869 0.0 -0.6631226539611816
vn -0.9709418416023254 0.0 -0.23931565880775452
vn -0.9709418416023254 0.0 0.23931565880775452
vn -0.7485107779502869 0.0 0.6631226539611816
vn -0.35460489988327026 0.0 0.9350162148475647
vn 0.1205366775393486 -0.0 0.9927088618278503
vn 0.5680647492408752 -0.0 0.8229838609695435
vn 0.8854560256004333 -0.0 0.4647231698036194
vn 1.0 -0.0 1.2246468525851679e-16
vn 0.8854560256004333 -0.0 0.4647231698036194
vn 0.5680647492408752 -0.0 0.8229838609695435
vn 0.1205366775393486 -0.0 0.9927088618278503
vn -0.35460489988327026 0.0 0.9350162148475647
vn -0.7485107779502869 0.0 0.6631226539611816
vn -0.9709418416023254 0.0 0.23931565880775452
vn -0.9709418416023254 0.0 -0.23931565880775452
vn -0.7485107779502869 0.0 -0.6631226539611816
vn -0.35460489988327026 0.0 -0.9350162148475647
vn 0.1205366775393486 0.0 -0.9927088618278503
vn 0.5680647492408752 0.0 -0.8229838609695435
vn 0.8854560256004333 0.0 -0.4647231698036194
vn 1.0 -0.0 1.2246468525851679e-16
vn 1.0 0.0 -1.2246468525851679e-16
vn 1.0 0.0 -1.2246468525851679e-16
vn 0.8854560256004333 0.0 -0.4647231698036194
vn 0.5680647492408752 0.0 -0.8229838609695435
vn 0.1205366775393486 0.0 -0.9927088618278503
vn -0.35460489988327026 0.0 -0.9350162148475647
vn -0.7485107779502869 0.0 -0.6631226539611816
vn -0.9709418416023254 0.0 -0.23931565880775452
vn -0.9709418416023254 0.0 0.23931565880775452
vn -0.7485107779502869 0.0 0.6631226539611816
vn -0.35460489988327026 0.0 0.9350162148475647
vn 0.1205366775393486 -0.0 0.9927088618278503
vn 0.5680647492408752 -0.0 0.8229838609695435
vn 0.8854560256004333 -0.0 0.4647231698036194
vn 1.0 -0.0 1.2246468525851679e-16
vn 0.8854560256004333 -0.0 0.4647231698036194
vn 0.5680647492408752 -0.0 0.8229838609695435
vn 0.1205366775393486 -0.0 0.9927088618278503
vn -0.35460489988327026 0.0 0.9350162148475647
vn -0.7485107779502869 0.0 0.6631226539611816
vn -0.9709418416023254 0.0 0.23931565880775452
vn -0.9709418416023254 0.0 -0.23931565880775452
vn -0.7485107779502869 0.0 -0.6631226539611816
vn -0.35460489988327026 0.0 -0.9350162148475647
vn 0.1205366775393486 0.0 -0.9927088618278503
vn 0.5680647492408752 0.0 -0.8229838609695435
vn 0.8854560256004333 0.0 -0.4647231698036194
vn 1.0 -0.0 1.2246468525851679e-16
vn 1.0 0.0 -1.2246468525851679e-16
vn -1.0 0.0 -1.474155097926601e-16
vn -1.0 0.0 -1.474155097926601e-16
vn -1.0 0.0 -1.474155097926601e-16
vn -1.0 0.0 -1.474155097926601e-16
vn -0.0 0.0 -1.0
vn -0.3826834261417389 0.0 -0.9238795042037964
vn -0.7071067690849304 0.0 -0.7071067690849304
vn -0.9238795042037964 0.0 -0.3826834261417389
vn -1.0 0.0 -6.123234262925839e-17
vn -1.0 0.0 -6.123234262925839e-17
vn -0.9238795042037964 0.0 -0.3826834261417389
vn -0.7071067690849304 0.0 -0.7071067690849304
vn -0.3826834261417389 0.0 -0.9238795042037964
vn -0.0 0.0 -1.0
vn 0.0 0.0 -1.0
vn 0.0 0.0 -1.0
vn 0.0 0.0 -1.0
vn 0.0 0.0 -1.0
vn 1.0 -0.0 -0.0
vn 0.9238795042037964 -0.0 -0.3826834261417389
vn 0.7071067690849304 -0.0 -0.7071067690849304
vn 0.3826834261417389 -0.0 -0.9238795042037964
vn 2.2816784845238e-15 -0.0 -1.0
vn 2.2816784845238e-15 -0.0 -1.0
vn 0.3826834261417389 -0.0 -0.9238795042037964
vn 0.7071067690849304 -0.0 -0.7071067690849304
vn 0.9238795042037964 -0.0 -0.3826834261417389
vn 1.0 -0.0 -0.0
vn 1.0 -0.0 1.2478540200927188e-15
vn 1.0 -0.0 1.2478540200927188e-15
vn 1.0 -0.0 1.2478540200927188e-15
vn 1.0 -0.0 1.2478540200927188e-15
vn -0.0 -0.0 1.0
vn 0.3826834261417389 -0.0 0.9238795042037964
vn 0.7071067690849304 -0.0 0.7071067690849304
vn 0.9238795042037964 -0.0 0.3826834261417389
vn 1.0 -0.0 6.123234262925839e-17
vn 1.0 -0.0 4.502124533774113e-15
vn 0.9238795042037964 -0.0 0.3826834261417389
vn 0.7071067690849304 -0.0 0.7071067690849304
vn 0.3826834261417389 -0.0 0.9238795042037964
vn -0.0 -0.0 1.0
vn -1.480297330873836e-15 0.0 1.0
vn -1.480297330873836e-15 0.0 1.0
vn -1.480297330873836e-15 0.0 1.0
vn -1.480297330873836e-15 0.0 1.0
vn -1.0 -0.0 0.0
vn -0.9238795042037964 -0.0 0.3826834261417389
vn -0.7071067690849304 -0.0 0.7071067690849304
vn -0.3826834261417389 -0.0 0.9238795042037964
vn -6.123234262925839e-17 -0.0 1.0
vn -6.123234262925839e-17 -0.0 1.0
vn -0.3826834261417389 -0.0 0.9238795042037964
vn -0.7071067690849304 -0.0 0.7071067690849304
vn -0.9238795042037964 -0.0 0.3826834261417389
vn -1.0 -0.0 0.0
vn 0.0 1.0 0.0
vn 0.0 1.0 0.0
vn 0.0 1.0 0.0
vn 0.0 1.0 0.0
vn 0.0 1.0 0.0
vn 0.0 1.0 0.0
vn 0.0 1.0 0.0
vn 0.0 1.0 0.0
vn 0.0 1.0 0.0
vn 0.0 1.0 0.0
vn 0.0 1.0 0.0
vn 0.0 1.0 0.0
vn 0.0 1.0 0.0
vn 0.0 1.0 0.0
vn 0.0 1.0 0.0
vn 0.0 1.0 0.0
vn 0.0 1.0 0.0
vn 0.0 1.0 0.0
vn 0.0 1.0 0.0
vn 0.0 1.0 0.0
vn 0.0 1.0 0.0
vn 0.0 1.0 0.0
vn 0.0 1.0 0.0
vn 0.0 1.0 0.0
vn 0.0 1.0 0.0
vn 0.0 1.0 0.0
vn 0.0 1.0 0.0
vn 0.0 1.0 0.0
vn 0.0 1.0 0.0
vn 0.0 1.0 0.0
vn 0.0 1.0 0.0
vn 0.0 1.0 0.0
vn 0.0 1.0 0.0
vn 0.0 1.0 0.0
vn 0.0 1.0 0.0
vn 0.0 1.0 0.0
vn 0.0 1.0 0.0
vn 0.0 1.0 0.0
vn 0.0 1.0 0.0
vn 0.0 1.0 0.0
vn 0.0 1.0 0.0
vn 0.0 1.0 0.0
vn 0.0 1.0 0.0
vn 0.0 1.0 0.0
vn 0.0 1.0 0.0
vn 0.0 1.0 0.0
vn -0.0 -1.0 -0.0
vn -0.0 -1.0 -0.0
vn -0.0 -1.0 -0.0
vn -0.0 -1.0 -0.0
vn -0.0 -1.0 -0.0
vn -0.0 -1.0 -0.0
vn -0.0 -1.0 -0.0
vn -0.0 -1.0 -0.0
vn -0.0 -1.0 -0.0
vn -0.0 -1.0 -0.0
vn -0.0 -1.0 -0.0
vn -0.0 -1.0 -0.0
vn -0.0 -1.0 -0.0
vn -0.0 -1.0 -0.0
vn -0.0 -1.0 -0.0
vn -0.0 -1.0 -0.0
vn -0.0 -1.0 -0.0
vn -0.0 -1.0 -0.0
vn -0.0 -1.0 -0.0
vn -0.0 -1.0 -0.0
vn -0.0 -1.0 -0.0
vn -0.0 -1.0 -0.0
vn -0.0 -1.0 -0.0
vn -0.0 -1.0 -0.0
vn -0.0 -1.0 -0.0
vn -0.0 -1.0 -0.0
vn -0.0 -1.0 -0.0
vn -0.0 -1.0 -0.0
vn -0.0 -1.0 -0.0
vn -0.0 -1.0 -0.0
vn -0.0 -1.0 -0.0
vn -0.0 -1.0 -0.0
vn -0.0 -1.0 -0.0
vn -0.0 -1.0 -0.0
vn -0.0 -1.0 -0.0
vn -0.0 -1.0 -0.0
vn -0.0 -1.0 -0.0
vn -0.0 -1.0 -0.0
vn -0.0 -1.0 -0.0
vn -0.0 -1.0 -0.0
vn -0.0 -1.0 -0.0
vn -0.0 -1.0 -0.0
vn -0.0 -1.0 -0.0
vn -0.0 -1.0 -0.0
vn -0.0 -1.0 -0.0
vn -0.0 -1.0 -0.0
g 78349de4-e360-11ea-beed-54bf646e7e1f
f 2//2 26//26 1//1
f 1//1 26//26 28//28
f 27//27 14//14 13//13
f 13//13 14//14 15//15
f 13//13 15//15 12//12
f 12//12 15//15 16//16
f 12//12 16//16 11//11
f 11//11 16//16 17//17
f 11//11 17//17 10//10
f 10//10 17//17 18//18
f 10//10 18//18 9//9
f 9//9 18//18 19//19
f 9//9 19//19 8//8
f 8//8 19//19 20//20
f 8//8 20//20 7//7
f 7//7 20//20 21//21
f 7//7 21//21 6//6
f 6//6 21//21 22//22
f 6//6 22//22 5//5
f 5//5 22//22 23//23
f 5//5 23//23 4//4
f 4//4 23//23 24//24
f 4//4 24//24 3//3
f 3//3 24//24 25//25
f 3//3 25//25 2//2
f 2//2 25//25 26//26
g 78358822-e360-11ea-848e-54bf646e7e1f
f 30//30 54//54 29//29
f 29//29 54//54 56//56
f 55//55 42//42 41//41
f 41//41 42//42 43//43
f 41//41 43//43 40//40
f 40//40 43//43 44//44
f 40//40 44//44 39//39
f 39//39 44//44 45//45
f 39//39 45//45 38//38
f 38//38 45//45 46//46
f 38//38 46//46 37//37
f 37//37 46//46 47//47
f 37//37 47//47 36//36
f 36//36 47//47 48//48
f 36//36 48//48 35//35
f 35//35 48//48 49//49
f 35//35 49//49 34//34
f 34//34 49//49 50//50
f 34//34 50//50 33//33
f 33//33 50//50 51//51
f 33//33 51//51 32//32
f 32//32 51//51 52//52
f 32//32 52//52 31//31
f 31//31 52//52 53//53
f 31//31 53//53 30//30
f 30//30 53//53 54//54
g 78364b66-e360-11ea-bb64-54bf646e7e1f
f 57//57 58//58 60//60
f 60//60 58//58 59//59
g 78370ed0-e360-11ea-858e-54bf646e7e1f
f 70//70 61//61 69//69
f 69//69 61//61 62//62
f 69//69 62//62 68//68
f 68//68 62//62 63//63
f 68//68 63//63 67//67
f 67//67 63//63 64//64
f 67//67 64//64 66//66
f 66//66 64//64 65//65
g 7837d1fe-e360-11ea-a6c6-54bf646e7e1f
f 71//71 72//72 74//74
f 74//74 72//72 73//73
g 78386e4c-e360-11ea-bd09-54bf646e7e1f
f 84//84 75//75 83//83
f 83//83 75//75 76//76
f 83//83 76//76 82//82
f 82//82 76//76 77//77
f 82//82 77//77 81//81
f 81//81 77//77 78//78
f 81//81 78//78 80//80
f 80//80 78//78 79//79
g 7839319c-e360-11ea-93ac-54bf646e7e1f
f 85//85 86//86 88//88
f 88//88 86//86 87//87
g 7839cde6-e360-11ea-a84c-54bf646e7e1f
f 98//98 89//89 97//97
f 97//97 89//89 90//90
f 97//97 90//90 96//96
f 96//96 90//90 91//91
f 96//96 91//91 95//95
f 95//95 91//91 92//92
f 95//95 92//92 94//94
f 94//94 92//92 93//93
g 783a9148-e360-11ea-9fe6-54bf646e7e1f
f 99//99 100//100 102//102
f 102//102 100//100 101//101
g 783b549c-e360-11ea-8a3d-54bf646e7e1f
f 112//112 103//103 111//111
f 111//111 103//103 104//104
f 111//111 104//104 110//110
f 110//110 104//104 105//105
f 110//110 105//105 109//109
f 109//109 105//105 106//106
f 109//109 106//106 108//108
f 108//108 106//106 107//107
g 783c17c0-e360-11ea-a3ce-54bf646e7e1f
f 114//114 154//154 113//113
f 113//113 154//154 155//155
f 113//113 155//155 156//156
f 114//114 115//115 154//154
f 154//154 115//115 116//116
f 154//154 116//116 153//153
f 153//153 116//116 117//117
f 153//153 117//117 118//118
f 118//118 119//119 153//153
f 153//153 119//119 120//120
f 153//153 120//120 152//152
f 152//152 120//120 151//151
f 151//151 120//120 149//149
f 151//151 149//149 150//150
f 121//121 131//131 120//120
f 120//120 131//131 132//132
f 120//120 132//132 148//148
f 148//148 132//132 146//146
f 148//148 146//146 147//147
f 121//121 122//122 131//131
f 131//131 122//122 130//130
f 130//130 122//122 123//123
f 130//130 123//123 129//129
f 129//129 123//123 128//128
f 128//128 123//123 124//124
f 128//128 124//124 127//127
f 127//127 124//124 125//125
f 127//127 125//125 113//113
f 127//127 113//113 126//126
f 126//126 113//113 158//158
f 126//126 158//158 139//139
f 133//133 144//144 132//132
f 132//132 144//144 145//145
f 132//132 145//145 146//146
f 133//133 134//134 144//144
f 144//144 134//134 135//135
f 144//144 135//135 136//136
f 144//144 136//136 143//143
f 143//143 136//136 137//137
f 143//143 137//137 138//138
f 138//138 126//126 143//143
f 143//143 126//126 142//142
f 142//142 126//126 141//141
f 141//141 126//126 139//139
f 141//141 139//139 140//140
f 148//148 149//149 120//120
f 157//157 158//158 156//156
f 156//156 158//158 113//113
g 783dc5ac-e360-11ea-8cfc-54bf646e7e1f
f 160//160 184//184 159//159
f 159//159 184//184 172//172
f 159//159 172//172 190//190
f 190//190 172//172 189//189
f 189//189 172//172 187//187
f 189//189 187//187 188//188
f 160//160 161//161 184//184
f 184//184 161//161 183//183
f 183//183 161//161 162//162
f 183//183 162//162 182//182
f 182//182 162//162 181//181
f 181//181 162//162 163//163
f 181//181 163//163 180//180
f 180//180 163//163 164//164
f 180//180 164//164 165//165
f 166//166 195//195 165//165
f 165//165 195//195 196//196
f 165//165 196//196 197//197
f 166//166 167//167 195//195
f 195//195 167//167 168//168
f 195//195 168//168 169//169
f 195//195 169//169 194//194
f 194//194 169//169 170//170
f 194//194 170//170 171//171
f 171//171 159//159 194//194
f 194//194 159//159 193//193
f 193//193 159//159 192//192
f 192//192 159//159 190//190
f 192//192 190//190 191//191
f 173//173 185//185 172//172
f 172//172 185//185 186//186
f 172//172 186//186 187//187
f 173//173 174//174 185//185
f 185//185 174//174 175//175
f 185//185 175//175 204//204
f 204//204 175//175 176//176
f 204//204 176//176 177//177
f 177//177 178//178 204//204
f 204//204 178//178 179//179
f 204//204 179//179 203//203
f 203//203 179//179 202//202
f 202//202 179//179 200//200
f 202//202 200//200 201//201
f 200//200 179//179 165//165
f 165//165 179//179 180//180
f 198//198 199//199 197//197
f 197//197 199//199 165//165
f 199//199 200//200 165//165

# End of file