# WaveFront *.obj file
# Vertices: 190
# Triangles : 184

v -0.5 -6.123234262925839e-17 -0.949999988079071
v -0.49553874135017395 0.06664347648620605 -0.949999988079071
v -0.4822345972061157 0.13209770619869232 -0.949999988079071
v -0.4603249430656433 0.19519463181495667 -0.949999988079071
v -0.4302007853984833 0.25480830669403076 -0.949999988079071
v -0.39239969849586487 0.309874951839447 -0.949999988079071
v -0.3475962281227112 0.3594118356704712 -0.949999988079071
v -0.2965898811817169 0.40253502130508423 -0.949999988079071
v -0.24029088020324707 0.43847495317459106 -0.949999988079071
v -0.17970389127731323 0.4665903151035309 -0.949999988079071
v -0.11591007560491562 0.48637932538986206 -0.949999988079071
v -0.050047844648361206 0.49748891592025757 -0.949999988079071
v 0.016707489266991615 0.4997207820415497 -0.949999988079071
v 0.08316467702388763 0.49303513765335083 -0.949999988079071
v 0.14813779294490814 0.47755125164985657 -0.949999988079071
v 0.2104673832654953 0.4535454511642456 -0.949999988079071
v 0.26904118061065674 0.42144614458084106 -0.949999988079071
v 0.3228139281272888 0.38182610273361206 -0.949999988079071
v 0.3708260655403137 0.3353923559188843 -0.949999988079071
v 0.4122207760810852 0.2829735577106476 -0.949999988079071
v 0.44625940918922424 0.2255050539970398 -0.949999988079071
v 0.47233453392982483 0.16401243209838867 -0.949999988079071
v 0.4899808466434479 0.09959299117326736 -0.949999988079071
v 0.4988834261894226 0.033396318554878235 -0.949999988079071
v 0.4988834261894226 -0.033396318554878235 -0.949999988079071
v 0.4899808466434479 -0.09959299117326736 -0.949999988079071
v 0.47233453392982483 -0.16401243209838867 -0.949999988079071
v 0.44625940918922424 -0.2255050539970398 -0.949999988079071
v 0.4122207760810852 -0.2829735577106476 -0.949999988079071
v 0.3708260655403137 -0.3353923559188843 -0.949999988079071
v 0.3228139281272888 -0.38182610273361206 -0.949999988079071
v 0.26904118061065674 -0.42144614458084106 -0.949999988079071
v 0.2104673832654953 -0.4535454511642456 -0.949999988079071
v 0.14813779294490814 -0.47755125164985657 -0.949999988079071
v 0.08316467702388763 -0.49303513765335083 -0.949999988079071
v 0.016707489266991615 -0.4997207820415497 -0.949999988079071
v -0.050047844648361206 -0.49748891592025757 -0.949999988079071
v -0.11591007560491562 -0.48637932538986206 -0.949999988079071
v -0.17970389127731323 -0.4665903151035309 -0.949999988079071
v -0.24029088020324707 -0.43847495317459106 -0.949999988079071
v -0.2965898811817169 -0.40253502130508423 -0.949999988079071
v -0.3475962281227112 -0.3594118356704712 -0.949999988079071
v -0.39239969849586487 -0.309874951839447 -0.949999988079071
v -0.4302007853984833 -0.25480830669403076 -0.949999988079071
v -0.4603249430656433 -0.19519463181495667 -0.949999988079071
v -0.4822345972061157 -0.13209770619869232 -0.949999988079071
v -0.49553874135017395 -0.06664347648620605 -0.949999988079071
v -0.5 -6.123234262925839e-17 -0.949999988079071
v -0.49553874135017395 -0.06664347648620605 -0.949999988079071
v -0.4822345972061157 -0.13209770619869232 -0.949999988079071
v -0.4603249430656433 -0.19519463181495667 -0.949999988079071
v -0.4302007853984833 -0.25480830669403076 -0.949999988079071
v -0.39239969849586487 -0.309874951839447 -0.949999988079071
v -0.3475962281227112 -0.3594118356704712 -0.949999988079071
v -0.2965898811817169 -0.40253502130508423 -0.949999988079071
v -0.24029088020324707 -0.43847495317459106 -0.949999988079071
v -0.17970389127731323 -0.4665903151035309 -0.949999988079071
v -0.11591007560491562 -0.48637932538986206 -0.949999988079071
v -0.050047844648361206 -0.49748891592025757 -0.949999988079071
v 0.016707489266991615 -0.4997207820415497 -0.949999988079071
v 0.08316467702388763 -0.49303513765335083 -0.949999988079071
v 0.14813779294490814 -0.47755125164985657 -0.949999988079071
v 0.2104673832654953 -0.4535454511642456 -0.949999988079071
v 0.26904118061065674 -0.42144614458084106 -0.949999988079071
v 0.3228139281272888 -0.38182610273361206 -0.949999988079071
v 0.3708260655403137 -0.3353923559188843 -0.949999988079071
v 0.4122207760810852 -0.2829735577106476 -0.949999988079071
v 0.44625940918922424 -0.2255050539970398 -0.949999988079071
v 0.47233453392982483 -0.16401243209838867 -0.949999988079071
v 0.4899808466434479 -0.09959299117326736 -0.949999988079071
v 0.4988834261894226 -0.033396318554878235 -0.949999988079071
v 0.4988834261894226 0.033396318554878235 -0.949999988079071
v 0.4899808466434479 0.09959299117326736 -0.949999988079071
v 0.47233453392982483 0.16401243209838867 -0.949999988079071
v 0.44625940918922424 0.2255050539970398 -0.949999988079071
v 0.4122207760810852 0.2829735577106476 -0.949999988079071
v 0.3708260655403137 0.3353923559188843 -0.949999988079071
v 0.3228139281272888 0.38182610273361206 -0.949999988079071
v 0.26904118061065674 0.42144614458084106 -0.949999988079071
v 0.2104673832654953 0.4535454511642456 -0.949999988079071
v 0.14813779294490814 0.47755125164985657 -0.949999988079071
v 0.08316467702388763 0.49303513765335083 -0.949999988079071
v 0.016707489266991615 0.4997207820415497 -0.949999988079071
v -0.050047844648361206 0.49748891592025757 -0.949999988079071
v -0.11591007560491562 0.48637932538986206 -0.949999988079071
v -0.17970389127731323 0.4665903151035309 -0.949999988079071
v -0.24029088020324707 0.43847495317459106 -0.949999988079071
v -0.2965898811817169 0.40253502130508423 -0.949999988079071
v -0.3475962281227112 0.3594118356704712 -0.949999988079071
v -0.39239969849586487 0.309874951839447 -0.949999988079071
v -0.4302007853984833 0.25480830669403076 -0.949999988079071
v -0.4603249430656433 0.19519463181495667 -0.949999988079071
v -0.4822345972061157 0.13209770619869232 -0.949999988079071
v -0.49553874135017395 0.06664347648620605 -0.949999988079071
v -0.5 -6.123234262925839e-17 0.949999988079071
v -0.49553874135017395 0.06664347648620605 0.949999988079071
v -0.4822345972061157 0.13209770619869232 0.949999988079071
v -0.4603249430656433 0.19519463181495667 0.949999988079071
v -0.4302007853984833 0.25480830669403076 0.949999988079071
v -0.39239969849586487 0.309874951839447 0.949999988079071
v -0.3475962281227112 0.3594118356704712 0.949999988079071
v -0.2965898811817169 0.40253502130508423 0.949999988079071
v -0.24029088020324707 0.43847495317459106 0.949999988079071
v -0.17970389127731323 0.4665903151035309 0.949999988079071
v -0.11591007560491562 0.48637932538986206 0.949999988079071
v -0.050047844648361206 0.49748891592025757 0.949999988079071
v 0.016707489266991615 0.4997207820415497 0.949999988079071
v 0.08316467702388763 0.49303513765335083 0.949999988079071
v 0.14813779294490814 0.47755125164985657 0.949999988079071
v 0.2104673832654953 0.4535454511642456 0.949999988079071
v 0.26904118061065674 0.42144614458084106 0.949999988079071
v 0.3228139281272888 0.38182610273361206 0.949999988079071
v 0.3708260655403137 0.3353923559188843 0.949999988079071
v 0.4122207760810852 0.2829735577106476 0.949999988079071
v 0.44625940918922424 0.2255050539970398 0.949999988079071
v 0.47233453392982483 0.16401243209838867 0.949999988079071
v 0.4899808466434479 0.09959299117326736 0.949999988079071
v 0.4988834261894226 0.033396318554878235 0.949999988079071
v 0.4988834261894226 -0.033396318554878235 0.949999988079071
v 0.4899808466434479 -0.09959299117326736 0.949999988079071
v 0.47233453392982483 -0.16401243209838867 0.949999988079071
v 0.44625940918922424 -0.2255050539970398 0.949999988079071
v 0.4122207760810852 -0.2829735577106476 0.949999988079071
v 0.3708260655403137 -0.3353923559188843 0.949999988079071
v 0.3228139281272888 -0.38182610273361206 0.949999988079071
v 0.26904118061065674 -0.42144614458084106 0.949999988079071
v 0.2104673832654953 -0.4535454511642456 0.949999988079071
v 0.14813779294490814 -0.47755125164985657 0.949999988079071
v 0.08316467702388763 -0.49303513765335083 0.949999988079071
v 0.016707489266991615 -0.4997207820415497 0.949999988079071
v -0.050047844648361206 -0.49748891592025757 0.949999988079071
v -0.11591007560491562 -0.48637932538986206 0.949999988079071
v -0.17970389127731323 -0.4665903151035309 0.949999988079071
v -0.24029088020324707 -0.43847495317459106 0.949999988079071
v -0.2965898811817169 -0.40253502130508423 0.949999988079071
v -0.3475962281227112 -0.3594118356704712 0.949999988079071
v -0.39239969849586487 -0.309874951839447 0.949999988079071
v -0.4302007853984833 -0.25480830669403076 0.949999988079071
v -0.4603249430656433 -0.19519463181495667 0.949999988079071
v -0.4822345972061157 -0.13209770619869232 0.949999988079071
v -0.49553874135017395 -0.06664347648620605 0.949999988079071
v -0.5 -6.123234262925839e-17 -0.949999988079071
v -0.5 -6.123234262925839e-17 0.949999988079071
v -0.5 -6.123234262925839e-17 0.949999988079071
v -0.49553874135017395 -0.06664347648620605 0.949999988079071
v -0.4822345972061157 -0.13209770619869232 0.949999988079071
v -0.4603249430656433 -0.19519463181495667 0.949999988079071
v -0.4302007853984833 -0.25480830669403076 0.949999988079071
v -0.39239969849586487 -0.309874951839447 0.949999988079071
v -0.3475962281227112 -0.3594118356704712 0.949999988079071
v -0.2965898811817169 -0.40253502130508423 0.949999988079071
v -0.24029088020324707 -0.43847495317459106 0.949999988079071
v -0.17970389127731323 -0.4665903151035309 0.949999988079071
v -0.11591007560491562 -0.48637932538986206 0.949999988079071
v -0.050047844648361206 -0.49748891592025757 0.949999988079071
v 0.016707489266991615 -0.4997207820415497 0.949999988079071
v 0.08316467702388763 -0.49303513765335083 0.949999988079071
v 0.14813779294490814 -0.47755125164985657 0.949999988079071
v 0.2104673832654953 -0.4535454511642456 0.949999988079071
v 0.26904118061065674 -0.42144614458084106 0.949999988079071
v 0.3228139281272888 -0.38182610273361206 0.949999988079071
v 0.3708260655403137 -0.3353923559188843 0.949999988079071
v 0.4122207760810852 -0.2829735577106476 0.949999988079071
v 0.44625940918922424 -0.2255050539970398 0.949999988079071
v 0.47233453392982483 -0.16401243209838867 0.949999988079071
v 0.4899808466434479 -0.09959299117326736 0.949999988079071
v 0.4988834261894226 -0.033396318554878235 0.949999988079071
v 0.4988834261894226 0.033396318554878235 0.949999988079071
v 0.4899808466434479 0.09959299117326736 0.949999988079071
v 0.47233453392982483 0.16401243209838867 0.949999988079071
v 0.44625940918922424 0.2255050539970398 0.949999988079071
v 0.4122207760810852 0.2829735577106476 0.949999988079071
v 0.3708260655403137 0.3353923559188843 0.949999988079071
v 0.3228139281272888 0.38182610273361206 0.949999988079071
v 0.26904118061065674 0.42144614458084106 0.949999988079071
v 0.2104673832654953 0.4535454511642456 0.949999988079071
v 0.14813779294490814 0.47755125164985657 0.949999988079071
v 0.08316467702388763 0.49303513765335083 0.949999988079071
v 0.016707489266991615 0.4997207820415497 0.949999988079071
v -0.050047844648361206 0.49748891592025757 0.949999988079071
v -0.11591007560491562 0.48637932538986206 0.949999988079071
v -0.17970389127731323 0.4665903151035309 0.949999988079071
v -0.24029088020324707 0.43847495317459106 0.949999988079071
v -0.2965898811817169 0.40253502130508423 0.949999988079071
v -0.3475962281227112 0.3594118356704712 0.949999988079071
v -0.39239969849586487 0.309874951839447 0.949999988079071
v -0.4302007853984833 0.25480830669403076 0.949999988079071
v -0.4603249430656433 0.19519463181495667 0.949999988079071
v -0.4822345972061157 0.13209770619869232 0.949999988079071
v -0.49553874135017395 0.06664347648620605 0.949999988079071
vn -0.0 -0.0 -1.0
vn -0.0 -0.0 -1.0
vn -0.0 -0.0 -1.0
vn -0.0 -0.0 -1.0
vn -0.0 -0.0 -1.0
vn -0.0 -0.0 -1.0
vn -0.0 -0.0 -1.0
vn -0.0 -0.0 -1.0
vn -0.0 -0.0 -1.0
vn -0.0 -0.0 -1.0
vn -0.0 -0.0 -1.0
vn -0.0 -0.0 -1.0
vn -0.0 -0.0 -1.0
vn -0.0 -0.0 -1.0
vn -0.0 -0.0 -1.0
vn -0.0 -0.0 -1.0
vn -0.0 -0.0 -1.0
vn -0.0 -0.0 -1.0
vn -0.0 -0.0 -1.0
vn -0.0 -0.0 -1.0
vn -0.0 -0.0 -1.0
vn -0.0 -0.0 -1.0
vn -0.0 -0.0 -1.0
vn -0.0 -0.0 -1.0
vn -0.0 -0.0 -1.0
vn -0.0 -0.0 -1.0
vn -0.0 -0.0 -1.0
vn -0.0 -0.0 -1.0
vn -0.0 -0.0 -1.0
vn -0.0 -0.0 -1.0
vn -0.0 -0.0 -1.0
vn -0.0 -0.0 -1.0
vn -0.0 -0.0 -1.0
vn -0.0 -0.0 -1.0
vn -0.0 -0.0 -1.0
vn -0.0 -0.0 -1.0
vn -0.0 -0.0 -1.0
vn -0.0 -0.0 -1.0
vn -0.0 -0.0 -1.0
vn -0.0 -0.0 -1.0
vn -0.0 -0.0 -1.0
vn -0.0 -0.0 -1.0
vn -0.0 -0.0 -1.0
vn -0.0 -0.0 -1.0
vn -0.0 -0.0 -1.0
vn -0.0 -0.0 -1.0
vn -0.0 -0.0 -1.0
vn -1.0 -1.2246468525851679e-16 0.0
vn -0.9910774827003479 -0.1332869529724121 0.0
vn -0.9644691944122314 -0.26419541239738464 0.0
vn -0.9206498861312866 -0.39038926362991333 0.0
vn -0.8604015707969666 -0.5096166133880615 0.0
vn -0.7847993969917297 -0.619749903678894 0.0
vn -0.6951924562454224 -0.7188236713409424 0.0
vn -0.5931797623634338 -0.8050700426101685 0.0
vn -0.48058176040649414 -0.8769499063491821 0.0
vn -0.35940778255462646 -0.9331806302070618 0.0
vn -0.23182015120983124 -0.9727586507797241 0.0
vn -0.10009568929672241 -0.9949778318405151 0.0
vn 0.03341497853398323 -0.9994415640830994 -0.0
vn 0.16632935404777527 -0.9860702753067017 -0.0
vn 0.2962755858898163 -0.9551025032997131 -0.0
vn 0.4209347665309906 -0.9070909023284912 -0.0
vn 0.5380823612213135 -0.8428922891616821 -0.0
vn 0.6456278562545776 -0.7636522054672241 -0.0
vn 0.7416521310806274 -0.6707847118377686 -0.0
vn 0.8244415521621704 -0.5659471154212952 -0.0
vn 0.8925188183784485 -0.4510101079940796 -0.0
vn 0.9446690678596497 -0.32802486419677734 -0.0
vn 0.9799616932868958 -0.19918598234653473 -0.0
vn 0.9977668523788452 -0.06679263710975647 -0.0
vn 0.9977668523788452 0.06679263710975647 -0.0
vn 0.9799616932868958 0.19918598234653473 -0.0
vn 0.9446690678596497 0.32802486419677734 -0.0
vn 0.8925188183784485 0.4510101079940796 -0.0
vn 0.8244415521621704 0.5659471154212952 -0.0
vn 0.7416521310806274 0.6707847118377686 -0.0
vn 0.6456278562545776 0.7636522054672241 -0.0
vn 0.5380823612213135 0.8428922891616821 -0.0
vn 0.4209347665309906 0.9070909023284912 -0.0
vn 0.2962755858898163 0.9551025032997131 -0.0
vn 0.16632935404777527 0.9860702753067017 -0.0
vn 0.03341497853398323 0.9994415640830994 -0.0
vn -0.10009568929672241 0.9949778318405151 -0.0
vn -0.23182015120983124 0.9727586507797241 -0.0
vn -0.35940778255462646 0.9331806302070618 -0.0
vn -0.48058176040649414 0.8769499063491821 -0.0
vn -0.5931797623634338 0.8050700426101685 -0.0
vn -0.6951924562454224 0.7188236713409424 -0.0
vn -0.7847993969917297 0.619749903678894 -0.0
vn -0.8604015707969666 0.5096166133880615 -0.0
vn -0.9206498861312866 0.39038926362991333 -0.0
vn -0.9644691944122314 0.26419541239738464 -0.0
vn -0.9910774827003479 0.1332869529724121 -0.0
vn -1.0 1.2246468525851679e-16 -0.0
vn -0.9910774827003479 0.1332869529724121 -0.0
vn -0.9644691944122314 0.26419541239738464 -0.0
vn -0.9206498861312866 0.39038926362991333 -0.0
vn -0.8604015707969666 0.5096166133880615 -0.0
vn -0.7847993969917297 0.619749903678894 -0.0
vn -0.6951924562454224 0.7188236713409424 -0.0
vn -0.5931797623634338 0.8050700426101685 -0.0
vn -0.48058176040649414 0.8769499063491821 -0.0
vn -0.35940778255462646 0.9331806302070618 -0.0
vn -0.23182015120983124 0.9727586507797241 -0.0
vn -0.10009568929672241 0.9949778318405151 -0.0
vn 0.03341497853398323 0.9994415640830994 -0.0
vn 0.16632935404777527 0.9860702753067017 -0.0
vn 0.2962755858898163 0.9551025032997131 -0.0
vn 0.4209347665309906 0.9070909023284912 -0.0
vn 0.5380823612213135 0.8428922891616821 -0.0
vn 0.6456278562545776 0.7636522054672241 -0.0
vn 0.7416521310806274 0.6707847118377686 -0.0
vn 0.8244415521621704 0.5659471154212952 -0.0
vn 0.8925188183784485 0.4510101079940796 -0.0
vn 0.9446690678596497 0.32802486419677734 -0.0
vn 0.9799616932868958 0.19918598234653473 -0.0
vn 0.9977668523788452 0.06679263710975647 -0.0
vn 0.9977668523788452 -0.06679263710975647 -0.0
vn 0.9799616932868958 -0.19918598234653473 -0.0
vn 0.9446690678596497 -0.32802486419677734 -0.0
vn 0.8925188183784485 -0.4510101079940796 -0.0
vn 0.8244415521621704 -0.5659471154212952 -0.0
vn 0.7416521310806274 -0.6707847118377686 -0.0
vn 0.6456278562545776 -0.7636522054672241 -0.0
vn 0.5380823612213135 -0.8428922891616821 -0.0
vn 0.4209347665309906 -0.9070909023284912 -0.0
vn 0.2962755858898163 -0.9551025032997131 -0.0
vn 0.16632935404777527 -0.9860702753067017 -0.0
vn 0.03341497853398323 -0.9994415640830994 -0.0
vn -0.10009568929672241 -0.9949778318405151 0.0
vn -0.23182015120983124 -0.9727586507797241 0.0
vn -0.35940778255462646 -0.9331806302070618 0.0
vn -0.48058176040649414 -0.8769499063491821 0.0
vn -0.5931797623634338 -0.8050700426101685 0.0
vn -0.6951924562454224 -0.7188236713409424 0.0
vn -0.7847993969917297 -0.619749903678894 0.0
vn -0.8604015707969666 -0.5096166133880615 0.0
vn -0.9206498861312866 -0.39038926362991333 0.0
vn -0.9644691944122314 -0.26419541239738464 0.0
vn -0.9910774827003479 -0.1332869529724121 0.0
vn -1.0 1.2246468525851679e-16 -0.0
vn -1.0 -1.2246468525851679e-16 0.0
vn 0.0 0.0 1.0
vn 0.0 0.0 1.0
vn 0.0 0.0 1.0
vn 0.0 0.0 1.0
vn 0.0 0.0 1.0
vn 0.0 0.0 1.0
vn 0.0 0.0 1.0
vn 0.0 0.0 1.0
vn 0.0 0.0 1.0
vn 0.0 0.0 1.0
vn 0.0 0.0 1.0
vn 0.0 0.0 1.0
vn 0.0 0.0 1.0
vn 0.0 0.0 1.0
vn 0.0 0.0 1.0
vn 0.0 0.0 1.0
vn 0.0 0.0 1.0
vn 0.0 0.0 1.0
vn 0.0 0.0 1.0
vn 0.0 0.0 1.0
vn 0.0 0.0 1.0
vn 0.0 0.0 1.0
vn 0.0 0.0 1.0
vn 0.0 0.0 1.0
vn 0.0 0.0 1.0
vn 0.0 0.0 1.0
vn 0.0 0.0 1.0
vn 0.0 0.0 1.0
vn 0.0 0.0 1.0
vn 0.0 0.0 1.0
vn 0.0 0.0 1.0
vn 0.0 0.0 1.0
vn 0.0 0.0 1.0
vn 0.0 0.0 1.0
vn 0.0 0.0 1.0
vn 0.0 0.0 1.0
vn 0.0 0.0 1.0
vn 0.0 0.0 1.0
vn 0.0 0.0 1.0
vn 0.0 0.0 1.0
vn 0.0 0.0 1.0
vn 0.0 0.0 1.0
vn 0.0 0.0 1.0
vn 0.0 0.0 1.0
vn 0.0 0.0 1.0
vn 0.0 0.0 1.0
vn 0.0 0.0 1.0
g 9b07eeca-e360-11ea-8d33-54bf646e7e1f
f 2//2 24//24 1//1
f 1//1 24//24 25//25
f 1//1 25//25 47//47
f 47//47 25//25 26//26
f 47//47 26//26 46//46
f 46//46 26//26 27//27
f 46//46 27//27 45//45
f 45//45 27//27 28//28
f 45//45 28//28 44//44
f 44//44 28//28 29//29
f 44//44 29//29 43//43
f 43//43 29//29 30//30
f 43//43 30//30 42//42
f 42//42 30//30 31//31
f 42//42 31//31 41//41
f 41//41 31//31 32//32
f 41//41 32//32 40//40
f 40//40 32//32 33//33
f 40//40 33//33 39//39
f 39//39 33//33 34//34
f 39//39 34//34 38//38
f 38//38 34//34 35//35
f 38//38 35//35 37//37
f 37//37 35//35 36//36
f 24//24 2//2 23//23
f 23//23 2//2 3//3
f 23//23 3//3 22//22
f 22//22 3//3 4//4
f 22//22 4//4 21//21
f 21//21 4//4 5//5
f 21//21 5//5 20//20
f 20//20 5//5 6//6
f 20//20 6//6 19//19
f 19//19 6//6 7//7
f 19//19 7//7 18//18
f 18//18 7//7 8//8
f 18//18 8//8 17//17
f 17//17 8//8 9//9
f 17//17 9//9 16//16
f 16//16 9//9 10//10
f 16//16 10//10 15//15
f 15//15 10//10 11//11
f 15//15 11//11 14//14
f 14//14 11//11 12//12
f 14//14 12//12 13//13
g 9b083c76-e360-11ea-87d4-54bf646e7e1f
f 49//49 141//141 48//48
f 48//48 141//141 143//143
f 142//142 95//95 94//94
f 94//94 95//95 96//96
f 94//94 96//96 93//93
f 93//93 96//96 97//97
f 93//93 97//97 92//92
f 92//92 97//97 98//98
f 92//92 98//98 91//91
f 91//91 98//98 99//99
f 91//91 99//99 90//90
f 90//90 99//99 100//100
f 90//90 100//100 89//89
f 89//89 100//100 101//101
f 89//89 101//101 88//88
f 88//88 101//101 102//102
f 88//88 102//102 87//87
f 87//87 102//102 103//103
f 87//87 103//103 86//86
f 86//86 103//103 104//104
f 86//86 104//104 85//85
f 85//85 104//104 105//105
f 85//85 105//105 84//84
f 84//84 105//105 106//106
f 84//84 106//106 83//83
f 83//83 106//106 107//107
f 83//83 107//107 82//82
f 82//82 107//107 108//108
f 82//82 108//108 81//81
f 81//81 108//108 109//109
f 81//81 109//109 80//80
f 80//80 109//109 110//110
f 80//80 110//110 79//79
f 79//79 110//110 111//111
f 79//79 111//111 78//78
f 78//78 111//111 112//112
f 78//78 112//112 77//77
f 77//77 112//112 113//113
f 77//77 113//113 76//76
f 76//76 113//113 114//114
f 76//76 114//114 75//75
f 75//75 114//114 115//115
f 75//75 115//115 74//74
f 74//74 115//115 116//116
f 74//74 116//116 73//73
f 73//73 116//116 117//117
f 73//73 117//117 72//72
f 72//72 117//117 118//118
f 72//72 118//118 71//71
f 71//71 118//118 119//119
f 71//71 119//119 70//70
f 70//70 119//119 120//120
f 70//70 120//120 69//69
f 69//69 120//120 121//121
f 69//69 121//121 68//68
f 68//68 121//121 122//122
f 68//68 122//122 67//67
f 67//67 122//122 123//123
f 67//67 123//123 66//66
f 66//66 123//123 124//124
f 66//66 124//124 65//65
f 65//65 124//124 125//125
f 65//65 125//125 64//64
f 64//64 125//125 126//126
f 64//64 126//126 63//63
f 63//63 126//126 127//127
f 63//63 127//127 62//62
f 62//62 127//127 128//128
f 62//62 128//128 61//61
f 61//61 128//128 129//129
f 61//61 129//129 60//60
f 60//60 129//129 130//130
f 60//60 130//130 59//59
f 59//59 130//130 131//131
f 59//59 131//131 58//58
f 58//58 131//131 132//132
f 58//58 132//132 57//57
f 57//57 132//132 133//133
f 57//57 133//133 56//56
f 56//56 133//133 134//134
f 56//56 134//134 55//55
f 55//55 134//134 135//135
f 55//55 135//135 54//54
f 54//54 135//135 136//136
f 54//54 136//136 53//53
f 53//53 136//136 137//137
f 53//53 137//137 52//52
f 52//52 137//137 138//138
f 52//52 138//138 51//51
f 51//51 138//138 139//139
f 51//51 139//139 50//50
f 50//50 139//139 140//140
f 50//50 140//140 49//49
f 49//49 140//140 141//141
g 9b088a92-e360-11ea-9f38-54bf646e7e1f
f 145//145 167//167 144//144
f 144//144 167//167 168//168
f 144//144 168//168 190//190
f 190//190 168//168 169//169
f 190//190 169//169 189//189
f 189//189 169//169 170//170
f 189//189 170//170 188//188
f 188//188 170//170 171//171
f 188//188 171//171 187//187
f 187//187 171//171 172//172
f 187//187 172//172 186//186
f 186//186 172//172 173//173
f 186//186 173//173 185//185
f 185//185 173//173 174//174
f 185//185 174//174 184//184
f 184//184 174//174 175//175
f 184//184 175//175 183//183
f 183//183 175//175 176//176
f 183//183 176//176 182//182
f 182//182 176//176 177//177
f 182//182 177//177 181//181
f 181//181 177//177 178//178
f 181//181 178//178 180//180
f 180//180 178//178 179//179
f 167//167 145//145 166//166
f 166//166 145//145 146//146
f 166//166 146//146 165//165
f 165//165 146//146 147//147
f 165//165 147//147 164//164
f 164//164 147//147 148//148
f 164//164 148//148 163//163
f 163//163 148//148 149//149
f 163//163 149//149 162//162
f 162//162 149//149 150//150
f 162//162 150//150 161//161
f 161//161 150//150 151//151
f 161//161 151//151 160//160
f 160//160 151//151 152//152
f 160//160 152//152 159//159
f 159//159 152//152 153//153
f 159//159 153//153 158//158
f 158//158 153//153 154//154
f 158//158 154//154 157//157
f 157//157 154//154 155//155
f 157//157 155//155 156//156

# End of file