# WaveFront *.obj file
# Vertices: 48
# Triangles : 24

v -14.61144733428955 0.0 25.401264190673828
v -14.61144733428955 0.0 -7.618735313415527
v -14.61144733428955 1.9049999713897705 -7.618735313415527
v -14.61144733428955 1.9049999713897705 25.401264190673828
v -16.515892028808594 0.0 25.401264190673828
v -14.61144733428955 0.0 25.401264190673828
v -14.61144733428955 1.9049999713897705 25.401264190673828
v -16.515892028808594 1.9049999713897705 25.401264190673828
v -16.515892028808594 0.0 -7.618735313415527
v -16.515892028808594 0.0 25.401264190673828
v -16.515892028808594 1.9049999713897705 25.401264190673828
v -16.515892028808594 1.9049999713897705 -7.618735313415527
v -14.61144733428955 0.0 -7.618735313415527
v -16.515892028808594 0.0 -7.618735313415527
v -16.515892028808594 1.9049999713897705 -7.618735313415527
v -14.61144733428955 1.9049999713897705 -7.618735313415527
v -14.61144733428955 1.9049999713897705 -7.618735313415527
v -16.515892028808594 1.9049999713897705 -7.618735313415527
v -16.515892028808594 1.9049999713897705 25.401264190673828
v -14.61144733428955 1.9049999713897705 25.401264190673828
v -16.515892028808594 0.0 -7.618735313415527
v -14.61144733428955 0.0 -7.618735313415527
v -14.61144733428955 0.0 25.401264190673828
v -16.515892028808594 0.0 25.401264190673828
v -16.517972946166992 0.0 -7.618735313415527
v -14.6129732131958 0.0 -7.618735313415527
v -14.6129732131958 1.9049999713897705 -7.618735313415527
v -16.517972946166992 1.9049999713897705 -7.618735313415527
v -16.517972946166992 0.0 -25.39873504638672
v -16.517972946166992 0.0 -7.618735313415527
v -16.517972946166992 1.9049999713897705 -7.618735313415527
v -16.517972946166992 1.9049999713897705 -25.39873504638672
v -14.6129732131958 0.0 -25.39873504638672
v -16.517972946166992 0.0 -25.39873504638672
v -16.517972946166992 1.9049999713897705 -25.39873504638672
v -14.6129732131958 1.9049999713897705 -25.39873504638672
v -14.6129732131958 0.0 -7.618735313415527
v -14.6129732131958 0.0 -25.39873504638672
v -14.6129732131958 1.9049999713897705 -25.39873504638672
v -14.6129732131958 1.9049999713897705 -7.618735313415527
v -14.6129732131958 1.9049999713897705 -7.618735313415527
v -14.6129732131958 1.9049999713897705 -25.39873504638672
v -16.517972946166992 1.9049999713897705 -25.39873504638672
v -16.517972946166992 1.9049999713897705 -7.618735313415527
v -14.6129732131958 0.0 -25.39873504638672
v -14.6129732131958 0.0 -7.618735313415527
v -16.517972946166992 0.0 -7.618735313415527
v -16.517972946166992 0.0 -25.39873504638672
vn 1.0 0.0 0.0
vn 1.0 0.0 0.0
vn 1.0 0.0 0.0
vn 1.0 0.0 0.0
vn 0.0 0.0 1.0
vn 0.0 0.0 1.0
vn 0.0 0.0 1.0
vn 0.0 0.0 1.0
vn -1.0 0.0 0.0
vn -1.0 0.0 0.0
vn -1.0 0.0 0.0
vn -1.0 0.0 0.0
vn 0.0 0.0 -1.0
vn 0.0 0.0 -1.0
vn 0.0 0.0 -1.0
vn 0.0 0.0 -1.0
vn 0.0 1.0 0.0
vn 0.0 1.0 0.0
vn 0.0 1.0 0.0
vn 0.0 1.0 0.0
vn -0.0 -1.0 -0.0
vn -0.0 -1.0 -0.0
vn -0.0 -1.0 -0.0
vn -0.0 -1.0 -0.0
vn 0.0 0.0 1.0
vn 0.0 0.0 1.0
vn 0.0 0.0 1.0
vn 0.0 0.0 1.0
vn -1.0 0.0 0.0
vn -1.0 0.0 0.0
vn -1.0 0.0 0.0
vn -1.0 0.0 0.0
vn 0.0 0.0 -1.0
vn 0.0 0.0 -1.0
vn 0.0 0.0 -1.0
vn 0.0 0.0 -1.0
vn 1.0 -0.0 0.0
vn 1.0 -0.0 0.0
vn 1.0 -0.0 0.0
vn 1.0 -0.0 0.0
vn 0.0 1.0 0.0
vn 0.0 1.0 0.0
vn 0.0 1.0 0.0
vn 0.0 1.0 0.0
vn -0.0 -1.0 -0.0
vn -0.0 -1.0 -0.0
vn -0.0 -1.0 -0.0
vn -0.0 -1.0 -0.0
g 5c2b51de-e31b-11ea-9907-54bf646e7e1f
f 1//1 2//2 4//4
f 4//4 2//2 3//3
g 5c2bc6f4-e31b-11ea-a407-54bf646e7e1f
f 5//5 6//6 8//8
f 8//8 6//6 7//7
g 5c2c3c34-e31b-11ea-82fa-54bf646e7e1f
f 9//9 10//10 12//12
f 12//12 10//10 11//11
g 5c2cb17e-e31b-11ea-af55-54bf646e7e1f
f 13//13 14//14 16//16
f 16//16 14//14 15//15
g 5c2d26c8-e31b-11ea-9956-54bf646e7e1f
f 18//18 19//19 17//17
f 17//17 19//19 20//20
g 5c2d9c02-e31b-11ea-bef4-54bf646e7e1f
f 21//21 22//22 24//24
f 24//24 22//22 23//23
g 5c59917a-e31b-11ea-82d6-54bf646e7e1f
f 25//25 26//26 28//28
f 28//28 26//26 27//27
g 5c5a7bd4-e31b-11ea-aeeb-54bf646e7e1f
f 29//29 30//30 32//32
f 32//32 30//30 31//31
g 5c5b8d62-e31b-11ea-ac70-54bf646e7e1f
f 33//33 34//34 36//36
f 36//36 34//34 35//35
g 5c5c77cc-e31b-11ea-8047-54bf646e7e1f
f 37//37 38//38 40//40
f 40//40 38//38 39//39
g 5c5d625a-e31b-11ea-959c-54bf646e7e1f
f 41//41 42//42 44//44
f 44//44 42//42 43//43
g 5c5e4cd4-e31b-11ea-93e7-54bf646e7e1f
f 46//46 47//47 45//45
f 45//45 47//47 48//48

# End of file