# WaveFront *.obj file
# Vertices: 166
# Triangles : 140

v -0.6349999904632568 0.6349999904632568 0.6349999904632568
v -1.2699999809265137 0.6349999904632568 0.6349999904632568
v -1.2699999809265137 0.6349999904632568 1.2699999809265137
v -0.6349999904632568 0.6349999904632568 1.2699999809265137
v -1.2699999809265137 0.6349999904632568 -0.6349999904632568
v 0.6349999904632568 0.6349999904632568 -0.6349999904632568
v 0.6349999904632568 0.6349999904632568 1.2699999809265137
v 1.2699999809265137 0.6349999904632568 1.2699999809265137
v 1.2699999809265137 0.6349999904632568 -1.2699999809265137
v -1.2699999809265137 0.6349999904632568 -1.2699999809265137
v -1.2699999809265137 3.174999952316284 0.6349999904632568
v -0.6349999904632568 3.174999952316284 0.6349999904632568
v -0.6349999904632568 3.174999952316284 1.2699999809265137
v 0.6349999904632568 3.174999952316284 1.2699999809265137
v 0.6349999904632568 3.174999952316284 -0.6349999904632568
v -1.2699999809265137 3.174999952316284 -0.6349999904632568
v 1.2699999809265137 0.0 1.2699999809265137
v 1.2699999809265137 0.0 -1.2699999809265137
v 1.2699999809265137 0.6349999904632568 -1.2699999809265137
v 1.2699999809265137 0.6349999904632568 1.2699999809265137
v -1.2699999809265137 0.6349999904632568 0.6349999904632568
v -1.2699999809265137 3.174999952316284 0.6349999904632568
v -1.2699999809265137 3.174999952316284 -0.6349999904632568
v -1.2699999809265137 0.6349999904632568 -0.6349999904632568
v -1.2699999809265137 0.6349999904632568 -1.2699999809265137
v -1.2699999809265137 0.0 -1.2699999809265137
v -1.2699999809265137 0.0 1.2699999809265137
v -1.2699999809265137 0.6349999904632568 1.2699999809265137
v -1.2699999809265137 0.6349999904632568 0.6349999904632568
v -0.6349999904632568 0.6349999904632568 0.6349999904632568
v -0.6349999904632568 3.174999952316284 0.6349999904632568
v -1.2699999809265137 3.174999952316284 0.6349999904632568
v -0.3174999952316284 -0.3937000036239624 3.8882534591728874e-17
v -0.3082740306854248 -0.3937000036239624 -0.0759827271103859
v -0.2811322808265686 -0.3937000036239624 -0.1475496143102646
v -0.23765216767787933 -0.3937000036239624 -0.21054144203662872
v -0.1803605556488037 -0.3937000036239624 -0.2612973749637604
v -0.11258704960346222 -0.3937000036239624 -0.2968676686286926
v -0.03827039524912834 -0.3937000036239624 -0.3151850700378418
v 0.03827039524912834 -0.3937000036239624 -0.3151850700378418
v 0.11258704960346222 -0.3937000036239624 -0.2968676686286926
v 0.1803605556488037 -0.3937000036239624 -0.2612973749637604
v 0.23765216767787933 -0.3937000036239624 -0.21054144203662872
v 0.2811322808265686 -0.3937000036239624 -0.1475496143102646
v 0.3082740306854248 -0.3937000036239624 -0.0759827271103859
v 0.3174999952316284 -0.3937000036239624 0.0
v 0.3082740306854248 -0.3937000036239624 0.0759827271103859
v 0.2811322808265686 -0.3937000036239624 0.1475496143102646
v 0.23765216767787933 -0.3937000036239624 0.21054144203662872
v 0.1803605556488037 -0.3937000036239624 0.2612973749637604
v 0.11258704960346222 -0.3937000036239624 0.2968676686286926
v 0.03827039524912834 -0.3937000036239624 0.3151850700378418
v -0.03827039524912834 -0.3937000036239624 0.3151850700378418
v -0.11258704960346222 -0.3937000036239624 0.2968676686286926
v -0.1803605556488037 -0.3937000036239624 0.2612973749637604
v -0.23765216767787933 -0.3937000036239624 0.21054144203662872
v -0.2811322808265686 -0.3937000036239624 0.1475496143102646
v -0.3082740306854248 -0.3937000036239624 0.0759827271103859
v 1.2699999809265137 0.0 -1.2699999809265137
v -1.2699999809265137 0.0 -1.2699999809265137
v -1.2699999809265137 0.6349999904632568 -1.2699999809265137
v 1.2699999809265137 0.6349999904632568 -1.2699999809265137
v -0.6349999904632568 0.6349999904632568 0.6349999904632568
v -0.6349999904632568 0.6349999904632568 1.2699999809265137
v -0.6349999904632568 3.174999952316284 1.2699999809265137
v -0.6349999904632568 3.174999952316284 0.6349999904632568
v 0.6349999904632568 0.6349999904632568 1.2699999809265137
v 0.6349999904632568 3.174999952316284 1.2699999809265137
v -0.6349999904632568 3.174999952316284 1.2699999809265137
v -0.6349999904632568 0.6349999904632568 1.2699999809265137
v -1.2699999809265137 0.6349999904632568 1.2699999809265137
v -1.2699999809265137 0.0 1.2699999809265137
v 1.2699999809265137 0.0 1.2699999809265137
v 1.2699999809265137 0.6349999904632568 1.2699999809265137
v 0.6349999904632568 0.6349999904632568 1.2699999809265137
v 0.6349999904632568 0.6349999904632568 -0.6349999904632568
v 0.6349999904632568 3.174999952316284 -0.6349999904632568
v 0.6349999904632568 3.174999952316284 1.2699999809265137
v 0.6349999904632568 0.6349999904632568 -0.6349999904632568
v -1.2699999809265137 0.6349999904632568 -0.6349999904632568
v -1.2699999809265137 3.174999952316284 -0.6349999904632568
v 0.6349999904632568 3.174999952316284 -0.6349999904632568
v -0.3174999952316284 -0.3937000036239624 3.8882534591728874e-17
v -0.3082740306854248 -0.3937000036239624 0.0759827271103859
v -0.2811322808265686 -0.3937000036239624 0.1475496143102646
v -0.23765216767787933 -0.3937000036239624 0.21054144203662872
v -0.1803605556488037 -0.3937000036239624 0.2612973749637604
v -0.11258704960346222 -0.3937000036239624 0.2968676686286926
v -0.03827039524912834 -0.3937000036239624 0.3151850700378418
v 0.03827039524912834 -0.3937000036239624 0.3151850700378418
v 0.11258704960346222 -0.3937000036239624 0.2968676686286926
v 0.1803605556488037 -0.3937000036239624 0.2612973749637604
v 0.23765216767787933 -0.3937000036239624 0.21054144203662872
v 0.2811322808265686 -0.3937000036239624 0.1475496143102646
v 0.3082740306854248 -0.3937000036239624 0.0759827271103859
v 0.3174999952316284 -0.3937000036239624 0.0
v 0.3082740306854248 -0.3937000036239624 -0.0759827271103859
v 0.2811322808265686 -0.3937000036239624 -0.1475496143102646
v 0.23765216767787933 -0.3937000036239624 -0.21054144203662872
v 0.1803605556488037 -0.3937000036239624 -0.2612973749637604
v 0.11258704960346222 -0.3937000036239624 -0.2968676686286926
v 0.03827039524912834 -0.3937000036239624 -0.3151850700378418
v -0.03827039524912834 -0.3937000036239624 -0.3151850700378418
v -0.11258704960346222 -0.3937000036239624 -0.2968676686286926
v -0.1803605556488037 -0.3937000036239624 -0.2612973749637604
v -0.23765216767787933 -0.3937000036239624 -0.21054144203662872
v -0.2811322808265686 -0.3937000036239624 -0.1475496143102646
v -0.3082740306854248 -0.3937000036239624 -0.0759827271103859
v -0.3174999952316284 0.0 3.8882534591728874e-17
v -0.3082740306854248 0.0 -0.0759827271103859
v -0.2811322808265686 0.0 -0.1475496143102646
v -0.23765216767787933 0.0 -0.21054144203662872
v -0.1803605556488037 0.0 -0.2612973749637604
v -0.11258704960346222 0.0 -0.2968676686286926
v -0.03827039524912834 0.0 -0.3151850700378418
v 0.03827039524912834 0.0 -0.3151850700378418
v 0.11258704960346222 0.0 -0.2968676686286926
v 0.1803605556488037 0.0 -0.2612973749637604
v 0.23765216767787933 0.0 -0.21054144203662872
v 0.2811322808265686 0.0 -0.1475496143102646
v 0.3082740306854248 0.0 -0.0759827271103859
v 0.3174999952316284 0.0 0.0
v 0.3082740306854248 0.0 0.0759827271103859
v 0.2811322808265686 0.0 0.1475496143102646
v 0.23765216767787933 0.0 0.21054144203662872
v 0.1803605556488037 0.0 0.2612973749637604
v 0.11258704960346222 0.0 0.2968676686286926
v 0.03827039524912834 0.0 0.3151850700378418
v -0.03827039524912834 0.0 0.3151850700378418
v -0.11258704960346222 0.0 0.2968676686286926
v -0.1803605556488037 0.0 0.2612973749637604
v -0.23765216767787933 0.0 0.21054144203662872
v -0.2811322808265686 0.0 0.1475496143102646
v -0.3082740306854248 0.0 0.0759827271103859
v -0.3174999952316284 0.0 3.8882534591728874e-17
v -0.3174999952316284 -0.3937000036239624 3.8882534591728874e-17
v -0.3174999952316284 0.0 3.8882534591728874e-17
v -0.3082740306854248 0.0 0.0759827271103859
v -0.2811322808265686 0.0 0.1475496143102646
v -0.23765216767787933 0.0 0.21054144203662872
v -0.1803605556488037 0.0 0.2612973749637604
v -0.11258704960346222 0.0 0.2968676686286926
v -0.03827039524912834 0.0 0.3151850700378418
v 0.03827039524912834 0.0 0.3151850700378418
v 0.11258704960346222 0.0 0.2968676686286926
v 0.1803605556488037 0.0 0.2612973749637604
v 0.23765216767787933 0.0 0.21054144203662872
v 0.2811322808265686 0.0 0.1475496143102646
v 0.3082740306854248 0.0 0.0759827271103859
v 0.3174999952316284 0.0 0.0
v 0.3082740306854248 0.0 -0.0759827271103859
v 0.2811322808265686 0.0 -0.1475496143102646
v 0.23765216767787933 0.0 -0.21054144203662872
v 0.1803605556488037 0.0 -0.2612973749637604
v 0.11258704960346222 0.0 -0.2968676686286926
v 0.03827039524912834 0.0 -0.3151850700378418
v -0.03827039524912834 0.0 -0.3151850700378418
v -0.11258704960346222 0.0 -0.2968676686286926
v -0.1803605556488037 0.0 -0.2612973749637604
v -0.23765216767787933 0.0 -0.21054144203662872
v -0.2811322808265686 0.0 -0.1475496143102646
v -0.3082740306854248 0.0 -0.0759827271103859
v -1.2699999809265137 0.0 1.2699999809265137
v -1.2699999809265137 0.0 -1.2699999809265137
v 1.2699999809265137 0.0 -1.2699999809265137
v 1.2699999809265137 0.0 1.2699999809265137
vn 0.0 1.0 0.0
vn 0.0 1.0 0.0
vn 0.0 1.0 0.0
vn 0.0 1.0 0.0
vn 0.0 1.0 0.0
vn 0.0 1.0 0.0
vn 0.0 1.0 0.0
vn 0.0 1.0 0.0
vn 0.0 1.0 0.0
vn 0.0 1.0 0.0
vn 0.0 1.0 0.0
vn 0.0 1.0 0.0
vn 0.0 1.0 0.0
vn 0.0 1.0 0.0
vn 0.0 1.0 0.0
vn 0.0 1.0 0.0
vn 1.0 0.0 0.0
vn 1.0 0.0 0.0
vn 1.0 0.0 0.0
vn 1.0 0.0 0.0
vn -1.0 0.0 0.0
vn -1.0 0.0 0.0
vn -1.0 0.0 0.0
vn -1.0 0.0 0.0
vn -1.0 0.0 0.0
vn -1.0 0.0 0.0
vn -1.0 0.0 0.0
vn -1.0 0.0 0.0
vn 1.7483826763446707e-16 -0.0 1.0
vn 1.7483826763446707e-16 -0.0 1.0
vn 1.7483826763446707e-16 -0.0 1.0
vn 1.7483826763446707e-16 -0.0 1.0
vn -0.0 -1.0 -0.0
vn -0.0 -1.0 -0.0
vn -0.0 -1.0 -0.0
vn -0.0 -1.0 -0.0
vn -0.0 -1.0 -0.0
vn -0.0 -1.0 -0.0
vn -0.0 -1.0 -0.0
vn -0.0 -1.0 -0.0
vn -0.0 -1.0 -0.0
vn -0.0 -1.0 -0.0
vn -0.0 -1.0 -0.0
vn -0.0 -1.0 -0.0
vn -0.0 -1.0 -0.0
vn -0.0 -1.0 -0.0
vn -0.0 -1.0 -0.0
vn -0.0 -1.0 -0.0
vn -0.0 -1.0 -0.0
vn -0.0 -1.0 -0.0
vn -0.0 -1.0 -0.0
vn -0.0 -1.0 -0.0
vn -0.0 -1.0 -0.0
vn -0.0 -1.0 -0.0
vn -0.0 -1.0 -0.0
vn -0.0 -1.0 -0.0
vn -0.0 -1.0 -0.0
vn -0.0 -1.0 -0.0
vn 0.0 0.0 -1.0
vn 0.0 0.0 -1.0
vn 0.0 0.0 -1.0
vn 0.0 0.0 -1.0
vn -1.0 0.0 0.0
vn -1.0 0.0 0.0
vn -1.0 0.0 0.0
vn -1.0 0.0 0.0
vn 0.0 -0.0 1.0
vn 0.0 -0.0 1.0
vn 0.0 -0.0 1.0
vn 0.0 -0.0 1.0
vn 0.0 -0.0 1.0
vn 0.0 -0.0 1.0
vn 0.0 -0.0 1.0
vn 0.0 -0.0 1.0
vn 1.0 0.0 0.0
vn 1.0 0.0 0.0
vn 1.0 0.0 0.0
vn 1.0 0.0 0.0
vn 0.0 0.0 -1.0
vn 0.0 0.0 -1.0
vn 0.0 0.0 -1.0
vn 0.0 0.0 -1.0
vn -1.0 -0.0 1.2246468525851679e-16
vn -0.9709418416023254 -0.0 0.23931565880775452
vn -0.8854560256004333 -0.0 0.4647231698036194
vn -0.7485107779502869 -0.0 0.6631226539611816
vn -0.5680647492408752 -0.0 0.8229838609695435
vn -0.35460489988327026 -0.0 0.9350162148475647
vn -0.1205366775393486 -0.0 0.9927088618278503
vn 0.1205366775393486 0.0 0.9927088618278503
vn 0.35460489988327026 0.0 0.9350162148475647
vn 0.5680647492408752 0.0 0.8229838609695435
vn 0.7485107779502869 0.0 0.6631226539611816
vn 0.8854560256004333 0.0 0.4647231698036194
vn 0.9709418416023254 0.0 0.23931565880775452
vn 1.0 0.0 -0.0
vn 0.9709418416023254 -0.0 -0.23931565880775452
vn 0.8854560256004333 -0.0 -0.4647231698036194
vn 0.7485107779502869 -0.0 -0.6631226539611816
vn 0.5680647492408752 -0.0 -0.8229838609695435
vn 0.35460489988327026 -0.0 -0.9350162148475647
vn 0.1205366775393486 -0.0 -0.9927088618278503
vn -0.1205366775393486 -0.0 -0.9927088618278503
vn -0.35460489988327026 -0.0 -0.9350162148475647
vn -0.5680647492408752 -0.0 -0.8229838609695435
vn -0.7485107779502869 -0.0 -0.6631226539611816
vn -0.8854560256004333 -0.0 -0.4647231698036194
vn -0.9709418416023254 -0.0 -0.23931565880775452
vn -1.0 -0.0 -1.2246468525851679e-16
vn -0.9709418416023254 -0.0 -0.23931565880775452
vn -0.8854560256004333 -0.0 -0.4647231698036194
vn -0.7485107779502869 -0.0 -0.6631226539611816
vn -0.5680647492408752 -0.0 -0.8229838609695435
vn -0.35460489988327026 -0.0 -0.9350162148475647
vn -0.1205366775393486 -0.0 -0.9927088618278503
vn 0.1205366775393486 -0.0 -0.9927088618278503
vn 0.35460489988327026 -0.0 -0.9350162148475647
vn 0.5680647492408752 -0.0 -0.8229838609695435
vn 0.7485107779502869 -0.0 -0.6631226539611816
vn 0.8854560256004333 -0.0 -0.4647231698036194
vn 0.9709418416023254 -0.0 -0.23931565880775452
vn 1.0 0.0 -0.0
vn 0.9709418416023254 0.0 0.23931565880775452
vn 0.8854560256004333 0.0 0.4647231698036194
vn 0.7485107779502869 0.0 0.6631226539611816
vn 0.5680647492408752 0.0 0.8229838609695435
vn 0.35460489988327026 0.0 0.9350162148475647
vn 0.1205366775393486 0.0 0.9927088618278503
vn -0.1205366775393486 -0.0 0.9927088618278503
vn -0.35460489988327026 -0.0 0.9350162148475647
vn -0.5680647492408752 -0.0 0.8229838609695435
vn -0.7485107779502869 -0.0 0.6631226539611816
vn -0.8854560256004333 -0.0 0.4647231698036194
vn -0.9709418416023254 -0.0 0.23931565880775452
vn -1.0 -0.0 1.2246468525851679e-16
vn -1.0 -0.0 -1.2246468525851679e-16
vn -0.0 -1.0 -0.0
vn -0.0 -1.0 -0.0
vn -0.0 -1.0 -0.0
vn -0.0 -1.0 -0.0
vn -0.0 -1.0 -0.0
vn -0.0 -1.0 -0.0
vn -0.0 -1.0 -0.0
vn -0.0 -1.0 -0.0
vn -0.0 -1.0 -0.0
vn -0.0 -1.0 -0.0
vn -0.0 -1.0 -0.0
vn -0.0 -1.0 -0.0
vn -0.0 -1.0 -0.0
vn -0.0 -1.0 -0.0
vn -0.0 -1.0 -0.0
vn -0.0 -1.0 -0.0
vn -0.0 -1.0 -0.0
vn -0.0 -1.0 -0.0
vn -0.0 -1.0 -0.0
vn -0.0 -1.0 -0.0
vn -0.0 -1.0 -0.0
vn -0.0 -1.0 -0.0
vn -0.0 -1.0 -0.0
vn -0.0 -1.0 -0.0
vn -0.0 -1.0 -0.0
vn -0.0 -1.0 -0.0
vn -0.0 -1.0 -0.0
vn -0.0 -1.0 -0.0
vn -0.0 -1.0 -0.0
vn -0.0 -1.0 -0.0
f 1//1 2//2 4//4
f 4//4 2//2 3//3
f 5//5 6//6 10//10
f 10//10 6//6 9//9
f 9//9 6//6 8//8
f 8//8 6//6 7//7
f 11//11 12//12 16//16
f 16//16 12//12 15//15
f 15//15 12//12 14//14
f 14//14 12//12 13//13
f 17//17 18//18 20//20
f 20//20 18//18 19//19
f 22//22 23//23 21//21
f 21//21 23//23 24//24
f 21//21 24//24 27//27
f 27//27 24//24 26//26
f 26//26 24//24 25//25
f 27//27 28//28 21//21
f 29//29 30//30 32//32
f 32//32 30//30 31//31
f 34//34 45//45 33//33
f 33//33 45//45 46//46
f 33//33 46//46 58//58
f 58//58 46//46 47//47
f 58//58 47//47 57//57
f 57//57 47//47 48//48
f 57//57 48//48 56//56
f 56//56 48//48 49//49
f 56//56 49//49 55//55
f 55//55 49//49 50//50
f 55//55 50//50 54//54
f 54//54 50//50 51//51
f 54//54 51//51 53//53
f 53//53 51//51 52//52
f 45//45 34//34 44//44
f 44//44 34//34 35//35
f 44//44 35//35 43//43
f 43//43 35//35 36//36
f 43//43 36//36 42//42
f 42//42 36//36 37//37
f 42//42 37//37 41//41
f 41//41 37//37 38//38
f 41//41 38//38 40//40
f 40//40 38//38 39//39
f 59//59 60//60 62//62
f 62//62 60//60 61//61
f 63//63 64//64 66//66
f 66//66 64//64 65//65
f 68//68 69//69 67//67
f 67//67 69//69 70//70
f 67//67 70//70 73//73
f 73//73 70//70 72//72
f 72//72 70//70 71//71
f 73//73 74//74 67//67
f 75//75 76//76 78//78
f 78//78 76//76 77//77
f 79//79 80//80 82//82
f 82//82 80//80 81//81
f 84//84 134//134 83//83
f 83//83 134//134 135//135
f 136//136 109//109 108//108
f 108//108 109//109 110//110
f 108//108 110//110 107//107
f 107//107 110//110 111//111
f 107//107 111//111 106//106
f 106//106 111//111 112//112
f 106//106 112//112 105//105
f 105//105 112//112 113//113
f 105//105 113//113 104//104
f 104//104 113//113 114//114
f 104//104 114//114 103//103
f 103//103 114//114 115//115
f 103//103 115//115 102//102
f 102//102 115//115 116//116
f 102//102 116//116 101//101
f 101//101 116//116 117//117
f 101//101 117//117 100//100
f 100//100 117//117 118//118
f 100//100 118//118 99//99
f 99//99 118//118 119//119
f 99//99 119//119 98//98
f 98//98 119//119 120//120
f 98//98 120//120 97//97
f 97//97 120//120 121//121
f 97//97 121//121 96//96
f 96//96 121//121 122//122
f 96//96 122//122 95//95
f 95//95 122//122 123//123
f 95//95 123//123 94//94
f 94//94 123//123 124//124
f 94//94 124//124 93//93
f 93//93 124//124 125//125
f 93//93 125//125 92//92
f 92//92 125//125 126//126
f 92//92 126//126 91//91
f 91//91 126//126 127//127
f 91//91 127//127 90//90
f 90//90 127//127 128//128
f 90//90 128//128 89//89
f 89//89 128//128 129//129
f 89//89 129//129 88//88
f 88//88 129//129 130//130
f 88//88 130//130 87//87
f 87//87 130//130 131//131
f 87//87 131//131 86//86
f 86//86 131//131 132//132
f 86//86 132//132 85//85
f 85//85 132//132 133//133
f 85//85 133//133 84//84
f 84//84 133//133 134//134
f 138//138 163//163 137//137
f 137//137 163//163 164//164
f 137//137 164//164 162//162
f 162//162 164//164 161//161
f 161//161 164//164 160//160
f 160//160 164//164 159//159
f 159//159 164//164 158//158
f 158//158 164//164 157//157
f 157//157 164//164 165//165
f 157//157 165//165 156//156
f 156//156 165//165 155//155
f 155//155 165//165 154//154
f 154//154 165//165 153//153
f 153//153 165//165 152//152
f 152//152 165//165 151//151
f 151//151 165//165 150//150
f 150//150 165//165 166//166
f 150//150 166//166 149//149
f 149//149 166//166 148//148
f 148//148 166//166 147//147
f 147//147 166//166 146//146
f 146//146 166//166 145//145
f 145//145 166//166 144//144
f 144//144 166//166 163//163
f 144//144 163//163 143//143
f 143//143 163//163 142//142
f 142//142 163//163 141//141
f 141//141 163//163 140//140
f 140//140 163//163 139//139
f 139//139 163//163 138//138

# End of file