# WaveFront *.obj file
# Vertices: 174
# Triangles : 140

v 39.0 0.0 3.0
v 0.0 0.0 3.0
v 0.0 0.0 0.0
v 35.0 0.0 0.0
v 35.0 0.0 -25.0
v -10.0 0.0 -25.0
v -10.0 0.0 -28.0
v 39.0 0.0 -28.0
v 39.0 0.0 -6.0
v 79.0 0.0 -6.0
v 79.0 0.0 -9.0
v 81.0 0.0 -9.0
v 81.0 0.0 -3.0
v 39.0 0.0 -3.0
v 0.0 20.0 3.0
v 39.0 20.0 3.0
v 39.0 20.0 -3.0
v 81.0 20.0 -3.0
v 81.0 20.0 -9.0
v 79.0 20.0 -9.0
v 79.0 20.0 -6.0
v 39.0 20.0 -6.0
v 39.0 20.0 -28.0
v -10.0 20.0 -28.0
v -10.0 20.0 -25.0
v 35.0 20.0 -25.0
v 35.0 20.0 0.0
v 0.0 20.0 0.0
v -10.0 0.0 -28.0
v -10.0 0.0 -25.0
v -10.0 20.0 -25.0
v -10.0 20.0 -28.0
v 35.0 0.0 -25.0
v 35.0 0.0 0.0
v 35.0 20.0 0.0
v 35.0 20.0 -25.0
v 0.0 11.5 3.0
v 0.6508256196975708 11.351452827453613 3.0
v 1.172747254371643 10.935235023498535 3.0
v 1.4623918533325195 10.333781242370605 3.0
v 1.4623918533325195 9.666218757629395 3.0
v 1.172747254371643 9.064764976501465 3.0
v 0.6508256196975708 8.648547172546387 3.0
v 0.0 8.5 3.0
v 0.0 0.0 3.0
v 39.0 0.0 3.0
v 39.0 20.0 3.0
v 0.0 20.0 3.0
v 1.5 10.0 -25.0
v 1.3281840085983276 9.302915573120117 -25.0
v 0.8520970940589905 8.765523910522461 -25.0
v 0.1808050274848938 8.510936737060547 -25.0
v -0.531907320022583 8.5974760055542 -25.0
v -1.122766137123108 9.005315780639648 -25.0
v -1.456412672996521 9.641026496887207 -25.0
v -1.456412672996521 10.358973503112793 -25.0
v -1.122766137123108 10.994684219360352 -25.0
v -0.531907320022583 11.4025239944458 -25.0
v 0.1808050274848938 11.489063262939453 -25.0
v 0.8520970940589905 11.234476089477539 -25.0
v 1.3281840085983276 10.697084426879883 -25.0
v -10.0 0.0 -25.0
v 35.0 0.0 -25.0
v 35.0 20.0 -25.0
v -10.0 20.0 -25.0
v 1.5 10.0 -28.0
v 1.3281840085983276 10.697084426879883 -28.0
v 0.8520970940589905 11.234476089477539 -28.0
v 0.1808050274848938 11.489063262939453 -28.0
v -0.531907320022583 11.4025239944458 -28.0
v -1.122766137123108 10.994684219360352 -28.0
v -1.456412672996521 10.358973503112793 -28.0
v -1.456412672996521 9.641026496887207 -28.0
v -1.122766137123108 9.005315780639648 -28.0
v -0.531907320022583 8.5974760055542 -28.0
v 0.1808050274848938 8.510936737060547 -28.0
v 0.8520970940589905 8.765523910522461 -28.0
v 1.3281840085983276 9.302915573120117 -28.0
v 39.0 0.0 -28.0
v -10.0 0.0 -28.0
v -10.0 20.0 -28.0
v 39.0 20.0 -28.0
v 1.5 10.0 -25.0
v 1.3281840085983276 10.697084426879883 -25.0
v 0.8520970940589905 11.234476089477539 -25.0
v 0.1808050274848938 11.489063262939453 -25.0
v -0.531907320022583 11.4025239944458 -25.0
v -1.122766137123108 10.994684219360352 -25.0
v -1.456412672996521 10.358973503112793 -25.0
v -1.456412672996521 9.641026496887207 -25.0
v -1.122766137123108 9.005315780639648 -25.0
v -0.531907320022583 8.5974760055542 -25.0
v 0.1808050274848938 8.510936737060547 -25.0
v 0.8520970940589905 8.765523910522461 -25.0
v 1.3281840085983276 9.302915573120117 -25.0
v 1.5 10.0 -28.0
v 1.3281840085983276 9.302915573120117 -28.0
v 0.8520970940589905 8.765523910522461 -28.0
v 0.1808050274848938 8.510936737060547 -28.0
v -0.531907320022583 8.5974760055542 -28.0
v -1.122766137123108 9.005315780639648 -28.0
v -1.456412672996521 9.641026496887207 -28.0
v -1.456412672996521 10.358973503112793 -28.0
v -1.122766137123108 10.994684219360352 -28.0
v -0.531907320022583 11.4025239944458 -28.0
v 0.1808050274848938 11.489063262939453 -28.0
v 0.8520970940589905 11.234476089477539 -28.0
v 1.3281840085983276 10.697084426879883 -28.0
v 1.5 10.0 -25.0
v 1.5 10.0 -28.0
v 79.0 0.0 -6.0
v 79.0 20.0 -6.0
v 79.0 20.0 -9.0
v 79.0 0.0 -9.0
v 0.0 8.5 3.0
v 0.0 8.5 0.0
v 0.0 0.0 0.0
v 0.0 0.0 3.0
v 0.0 8.5 0.0
v 0.6508256196975708 8.648547172546387 0.0
v 1.172747254371643 9.064764976501465 0.0
v 1.4623918533325195 9.666218757629395 0.0
v 1.4623918533325195 10.333781242370605 0.0
v 1.172747254371643 10.935235023498535 0.0
v 0.6508256196975708 11.351452827453613 0.0
v 0.0 11.5 0.0
v 0.0 20.0 0.0
v 35.0 20.0 0.0
v 35.0 0.0 0.0
v 0.0 0.0 0.0
v 79.0 20.0 -6.0
v 79.0 0.0 -6.0
v 39.0 0.0 -6.0
v 39.0 20.0 -6.0
v 0.0 8.5 0.0
v 0.0 8.5 3.0
v 0.6508256196975708 8.648547172546387 3.0
v 1.172747254371643 9.064764976501465 3.0
v 1.4623918533325195 9.666218757629395 3.0
v 1.4623918533325195 10.333781242370605 3.0
v 1.172747254371643 10.935235023498535 3.0
v 0.6508256196975708 11.351452827453613 3.0
v 0.0 11.5 3.0
v 0.0 11.5 0.0
v 0.6508256196975708 11.351452827453613 0.0
v 1.172747254371643 10.935235023498535 0.0
v 1.4623918533325195 10.333781242370605 0.0
v 1.4623918533325195 9.666218757629395 0.0
v 1.172747254371643 9.064764976501465 0.0
v 0.6508256196975708 8.648547172546387 0.0
v 0.0 11.5 0.0
v 0.0 11.5 3.0
v 0.0 20.0 3.0
v 0.0 20.0 0.0
v 81.0 0.0 -9.0
v 79.0 0.0 -9.0
v 79.0 20.0 -9.0
v 81.0 20.0 -9.0
v 81.0 0.0 -3.0
v 81.0 0.0 -9.0
v 81.0 20.0 -9.0
v 81.0 20.0 -3.0
v 39.0 20.0 -3.0
v 39.0 0.0 -3.0
v 81.0 0.0 -3.0
v 81.0 20.0 -3.0
v 39.0 20.0 -6.0
v 39.0 0.0 -6.0
v 39.0 0.0 -28.0
v 39.0 20.0 -28.0
v 39.0 0.0 -3.0
v 39.0 20.0 -3.0
v 39.0 20.0 3.0
v 39.0 0.0 3.0
vn -0.0 -1.0 -0.0
vn -0.0 -1.0 -0.0
vn -0.0 -1.0 -0.0
vn -0.0 -1.0 -0.0
vn -0.0 -1.0 -0.0
vn -0.0 -1.0 -0.0
vn -0.0 -1.0 -0.0
vn -0.0 -1.0 -0.0
vn -0.0 -1.0 -0.0
vn -0.0 -1.0 -0.0
vn -0.0 -1.0 -0.0
vn -0.0 -1.0 -0.0
vn -0.0 -1.0 -0.0
vn -0.0 -1.0 -0.0
vn 0.0 1.0 0.0
vn 0.0 1.0 0.0
vn 0.0 1.0 0.0
vn 0.0 1.0 0.0
vn 0.0 1.0 0.0
vn 0.0 1.0 0.0
vn 0.0 1.0 0.0
vn 0.0 1.0 0.0
vn 0.0 1.0 0.0
vn 0.0 1.0 0.0
vn 0.0 1.0 0.0
vn 0.0 1.0 0.0
vn 0.0 1.0 0.0
vn 0.0 1.0 0.0
vn -1.0 0.0 0.0
vn -1.0 0.0 0.0
vn -1.0 0.0 0.0
vn -1.0 0.0 0.0
vn -1.0 0.0 0.0
vn -1.0 0.0 0.0
vn -1.0 0.0 0.0
vn -1.0 0.0 0.0
vn 0.0 0.0 1.0
vn 0.0 0.0 1.0
vn 0.0 0.0 1.0
vn 0.0 0.0 1.0
vn 0.0 0.0 1.0
vn 0.0 0.0 1.0
vn 0.0 0.0 1.0
vn 0.0 0.0 1.0
vn 0.0 0.0 1.0
vn 0.0 0.0 1.0
vn 0.0 0.0 1.0
vn 0.0 0.0 1.0
vn 0.0 0.0 1.0
vn 0.0 0.0 1.0
vn 0.0 0.0 1.0
vn 0.0 0.0 1.0
vn 0.0 0.0 1.0
vn 0.0 0.0 1.0
vn 0.0 0.0 1.0
vn 0.0 0.0 1.0
vn 0.0 0.0 1.0
vn 0.0 0.0 1.0
vn 0.0 0.0 1.0
vn 0.0 0.0 1.0
vn 0.0 0.0 1.0
vn 0.0 0.0 1.0
vn 0.0 0.0 1.0
vn 0.0 0.0 1.0
vn 0.0 0.0 1.0
vn 0.0 0.0 -1.0
vn 0.0 0.0 -1.0
vn 0.0 0.0 -1.0
vn 0.0 0.0 -1.0
vn 0.0 0.0 -1.0
vn 0.0 0.0 -1.0
vn 0.0 0.0 -1.0
vn 0.0 0.0 -1.0
vn 0.0 0.0 -1.0
vn 0.0 0.0 -1.0
vn 0.0 0.0 -1.0
vn 0.0 0.0 -1.0
vn 0.0 0.0 -1.0
vn 0.0 0.0 -1.0
vn 0.0 0.0 -1.0
vn 0.0 0.0 -1.0
vn 0.0 0.0 -1.0
vn -1.0 -1.2246468525851679e-16 0.0
vn -0.8854560256004333 -0.4647231698036194 0.0
vn -0.5680647492408752 -0.8229838609695435 0.0
vn -0.1205366775393486 -0.9927088618278503 0.0
vn 0.35460489988327026 -0.9350162148475647 0.0
vn 0.7485107779502869 -0.6631226539611816 0.0
vn 0.9709418416023254 -0.23931565880775452 0.0
vn 0.9709418416023254 0.23931565880775452 -0.0
vn 0.7485107779502869 0.6631226539611816 -0.0
vn 0.35460489988327026 0.9350162148475647 -0.0
vn -0.1205366775393486 0.9927088618278503 0.0
vn -0.5680647492408752 0.8229838609695435 0.0
vn -0.8854560256004333 0.4647231698036194 0.0
vn -1.0 1.2246468525851679e-16 0.0
vn -0.8854560256004333 0.4647231698036194 0.0
vn -0.5680647492408752 0.8229838609695435 0.0
vn -0.1205366775393486 0.9927088618278503 0.0
vn 0.35460489988327026 0.9350162148475647 -0.0
vn 0.7485107779502869 0.6631226539611816 -0.0
vn 0.9709418416023254 0.23931565880775452 -0.0
vn 0.9709418416023254 -0.23931565880775452 0.0
vn 0.7485107779502869 -0.6631226539611816 0.0
vn 0.35460489988327026 -0.9350162148475647 0.0
vn -0.1205366775393486 -0.9927088618278503 0.0
vn -0.5680647492408752 -0.8229838609695435 0.0
vn -0.8854560256004333 -0.4647231698036194 0.0
vn -1.0 1.2246468525851679e-16 0.0
vn -1.0 -1.2246468525851679e-16 0.0
vn -1.0 -0.0 -0.0
vn -1.0 -0.0 -0.0
vn -1.0 -0.0 -0.0
vn -1.0 -0.0 -0.0
vn -1.0 0.0 0.0
vn -1.0 0.0 0.0
vn -1.0 0.0 0.0
vn -1.0 0.0 0.0
vn 0.0 0.0 -1.0
vn 0.0 0.0 -1.0
vn 0.0 0.0 -1.0
vn 0.0 0.0 -1.0
vn 0.0 0.0 -1.0
vn 0.0 0.0 -1.0
vn 0.0 0.0 -1.0
vn 0.0 0.0 -1.0
vn 0.0 0.0 -1.0
vn 0.0 0.0 -1.0
vn 0.0 0.0 -1.0
vn 0.0 0.0 -1.0
vn 0.0 0.0 -1.0
vn 0.0 0.0 -1.0
vn 0.0 0.0 -1.0
vn 0.0 0.0 -1.0
vn 6.123234262925839e-17 1.0 -0.0
vn 6.123234262925839e-17 1.0 -0.0
vn -0.4338837265968323 0.9009688496589661 0.0
vn -0.7818315029144287 0.6234897971153259 0.0
vn -0.9749279022216797 0.22252093255519867 0.0
vn -0.9749279022216797 -0.22252093255519867 0.0
vn -0.7818315029144287 -0.6234897971153259 0.0
vn -0.4338837265968323 -0.9009688496589661 0.0
vn -1.8369701465288538e-16 -1.0 0.0
vn -1.8369701465288538e-16 -1.0 0.0
vn -0.4338837265968323 -0.9009688496589661 0.0
vn -0.7818315029144287 -0.6234897971153259 0.0
vn -0.9749279022216797 -0.22252093255519867 0.0
vn -0.9749279022216797 0.22252093255519867 0.0
vn -0.7818315029144287 0.6234897971153259 0.0
vn -0.4338837265968323 0.9009688496589661 0.0
vn -1.0 0.0 0.0
vn -1.0 0.0 0.0
vn -1.0 0.0 0.0
vn -1.0 0.0 0.0
vn 0.0 0.0 -1.0
vn 0.0 0.0 -1.0
vn 0.0 0.0 -1.0
vn 0.0 0.0 -1.0
vn 1.0 0.0 0.0
vn 1.0 0.0 0.0
vn 1.0 0.0 0.0
vn 1.0 0.0 0.0
vn 0.0 0.0 1.0
vn 0.0 0.0 1.0
vn 0.0 0.0 1.0
vn 0.0 0.0 1.0
vn 1.0 -0.0 0.0
vn 1.0 -0.0 0.0
vn 1.0 -0.0 0.0
vn 1.0 -0.0 0.0
vn 1.0 -0.0 0.0
vn 1.0 -0.0 0.0
vn 1.0 -0.0 0.0
vn 1.0 -0.0 0.0
f 14//14 1//1 4//4
f 4//4 1//1 2//2
f 4//4 2//2 3//3
f 14//14 4//4 9//9
f 9//9 4//4 5//5
f 9//9 5//5 8//8
f 8//8 5//5 7//7
f 7//7 5//5 6//6
f 9//9 10//10 14//14
f 14//14 10//10 13//13
f 13//13 10//10 12//12
f 12//12 10//10 11//11
f 28//28 15//15 27//27
f 27//27 15//15 16//16
f 27//27 16//16 17//17
f 18//18 21//21 17//17
f 17//17 21//21 22//22
f 17//17 22//22 27//27
f 27//27 22//22 26//26
f 26//26 22//22 23//23
f 26//26 23//23 24//24
f 18//18 19//19 21//21
f 21//21 19//19 20//20
f 24//24 25//25 26//26
f 29//29 30//30 32//32
f 32//32 30//30 31//31
f 33//33 34//34 36//36
f 36//36 34//34 35//35
f 37//37 38//38 48//48
f 48//48 38//38 39//39
f 48//48 39//39 47//47
f 47//47 39//39 40//40
f 47//47 40//40 46//46
f 46//46 40//40 41//41
f 46//46 41//41 42//42
f 46//46 42//42 45//45
f 45//45 42//42 43//43
f 45//45 43//43 44//44
f 50//50 63//63 49//49
f 49//49 63//63 64//64
f 49//49 64//64 61//61
f 61//61 64//64 60//60
f 60//60 64//64 59//59
f 59//59 64//64 65//65
f 59//59 65//65 58//58
f 58//58 65//65 57//57
f 57//57 65//65 56//56
f 56//56 65//65 62//62
f 56//56 62//62 55//55
f 55//55 62//62 54//54
f 54//54 62//62 53//53
f 53//53 62//62 52//52
f 52//52 62//62 63//63
f 52//52 63//63 51//51
f 51//51 63//63 50//50
f 67//67 82//82 66//66
f 66//66 82//82 79//79
f 66//66 79//79 78//78
f 78//78 79//79 77//77
f 77//77 79//79 76//76
f 76//76 79//79 80//80
f 76//76 80//80 75//75
f 75//75 80//80 74//74
f 74//74 80//80 73//73
f 73//73 80//80 72//72
f 72//72 80//80 81//81
f 72//72 81//81 71//71
f 71//71 81//81 70//70
f 70//70 81//81 69//69
f 69//69 81//81 82//82
f 69//69 82//82 68//68
f 68//68 82//82 67//67
f 84//84 108//108 83//83
f 83//83 108//108 110//110
f 109//109 96//96 95//95
f 95//95 96//96 97//97
f 95//95 97//97 94//94
f 94//94 97//97 98//98
f 94//94 98//98 93//93
f 93//93 98//98 99//99
f 93//93 99//99 92//92
f 92//92 99//99 100//100
f 92//92 100//100 91//91
f 91//91 100//100 101//101
f 91//91 101//101 90//90
f 90//90 101//101 102//102
f 90//90 102//102 89//89
f 89//89 102//102 103//103
f 89//89 103//103 88//88
f 88//88 103//103 104//104
f 88//88 104//104 87//87
f 87//87 104//104 105//105
f 87//87 105//105 86//86
f 86//86 105//105 106//106
f 86//86 106//106 85//85
f 85//85 106//106 107//107
f 85//85 107//107 84//84
f 84//84 107//107 108//108
f 111//111 112//112 114//114
f 114//114 112//112 113//113
f 115//115 116//116 118//118
f 118//118 116//116 117//117
f 119//119 120//120 130//130
f 130//130 120//120 121//121
f 130//130 121//121 129//129
f 129//129 121//121 122//122
f 129//129 122//122 123//123
f 129//129 123//123 128//128
f 128//128 123//123 124//124
f 128//128 124//124 127//127
f 127//127 124//124 125//125
f 127//127 125//125 126//126
f 131//131 132//132 134//134
f 134//134 132//132 133//133
f 135//135 136//136 150//150
f 150//150 136//136 137//137
f 150//150 137//137 149//149
f 149//149 137//137 138//138
f 149//149 138//138 148//148
f 148//148 138//138 139//139
f 148//148 139//139 147//147
f 147//147 139//139 140//140
f 147//147 140//140 146//146
f 146//146 140//140 141//141
f 146//146 141//141 145//145
f 145//145 141//141 142//142
f 145//145 142//142 144//144
f 144//144 142//142 143//143
f 151//151 152//152 154//154
f 154//154 152//152 153//153
f 155//155 156//156 158//158
f 158//158 156//156 157//157
f 159//159 160//160 162//162
f 162//162 160//160 161//161
f 163//163 164//164 166//166
f 166//166 164//164 165//165
f 168//168 169//169 167//167
f 167//167 169//169 170//170
f 172//172 173//173 171//171
f 171//171 173//173 174//174

# End of file