# WaveFront *.obj file
# Vertices: 192
# Triangles : 124

v 9.340227127075195 0.4000000059604645 -1.854411244392395
v 9.340227127075195 0.4000000059604645 1.645588755607605
v 9.340227127075195 5.400000095367432 1.645588755607605
v 9.340227127075195 5.400000095367432 -1.854411244392395
v 10.040226936340332 0.4000000059604645 -1.854411244392395
v 9.340227127075195 0.4000000059604645 -1.854411244392395
v 9.340227127075195 5.400000095367432 -1.854411244392395
v 10.040226936340332 5.400000095367432 -1.854411244392395
v 10.040226936340332 0.4000000059604645 1.645588755607605
v 10.040226936340332 0.4000000059604645 -1.854411244392395
v 10.040226936340332 5.400000095367432 -1.854411244392395
v 10.040226936340332 5.400000095367432 1.645588755607605
v 9.340227127075195 0.4000000059604645 1.645588755607605
v 10.040226936340332 0.4000000059604645 1.645588755607605
v 10.040226936340332 5.400000095367432 1.645588755607605
v 9.340227127075195 5.400000095367432 1.645588755607605
v 9.340227127075195 5.400000095367432 1.645588755607605
v 10.040226936340332 5.400000095367432 1.645588755607605
v 10.040226936340332 5.400000095367432 -1.854411244392395
v 9.340227127075195 5.400000095367432 -1.854411244392395
v 10.740226745605469 0.4000000059604645 -1.854411244392395
v 10.740226745605469 0.4000000059604645 1.645588755607605
v 10.740226745605469 5.400000095367432 1.645588755607605
v 10.740226745605469 5.400000095367432 -1.854411244392395
v 11.440226554870605 0.4000000059604645 -1.854411244392395
v 10.740226745605469 0.4000000059604645 -1.854411244392395
v 10.740226745605469 5.400000095367432 -1.854411244392395
v 11.440226554870605 5.400000095367432 -1.854411244392395
v 11.440226554870605 0.4000000059604645 1.645588755607605
v 11.440226554870605 0.4000000059604645 -1.854411244392395
v 11.440226554870605 5.400000095367432 -1.854411244392395
v 11.440226554870605 5.400000095367432 1.645588755607605
v 10.740226745605469 0.4000000059604645 1.645588755607605
v 11.440226554870605 0.4000000059604645 1.645588755607605
v 11.440226554870605 5.400000095367432 1.645588755607605
v 10.740226745605469 5.400000095367432 1.645588755607605
v 10.740226745605469 5.400000095367432 1.645588755607605
v 11.440226554870605 5.400000095367432 1.645588755607605
v 11.440226554870605 5.400000095367432 -1.854411244392395
v 10.740226745605469 5.400000095367432 -1.854411244392395
v 12.140226364135742 0.4000000059604645 -1.854411244392395
v 12.140226364135742 0.4000000059604645 1.645588755607605
v 12.140226364135742 5.400000095367432 1.645588755607605
v 12.140226364135742 5.400000095367432 -1.854411244392395
v 12.840227127075195 0.4000000059604645 -1.854411244392395
v 12.140226364135742 0.4000000059604645 -1.854411244392395
v 12.140226364135742 5.400000095367432 -1.854411244392395
v 12.840227127075195 5.400000095367432 -1.854411244392395
v 12.840227127075195 0.4000000059604645 1.645588755607605
v 12.840227127075195 0.4000000059604645 -1.854411244392395
v 12.840227127075195 5.400000095367432 -1.854411244392395
v 12.840227127075195 5.400000095367432 1.645588755607605
v 12.140226364135742 0.4000000059604645 1.645588755607605
v 12.840227127075195 0.4000000059604645 1.645588755607605
v 12.840227127075195 5.400000095367432 1.645588755607605
v 12.140226364135742 5.400000095367432 1.645588755607605
v 12.140226364135742 5.400000095367432 1.645588755607605
v 12.840227127075195 5.400000095367432 1.645588755607605
v 12.840227127075195 5.400000095367432 -1.854411244392395
v 12.140226364135742 5.400000095367432 -1.854411244392395
v 14.340227127075195 0.0 -1.354411244392395
v 14.340227127075195 0.0 -4.3544111251831055
v 14.340227127075195 0.4000000059604645 -4.3544111251831055
v 14.340227127075195 0.4000000059604645 -1.354411244392395
v 15.340227127075195 0.0 -1.354411244392395
v 14.340227127075195 0.0 -1.354411244392395
v 14.340227127075195 0.4000000059604645 -1.354411244392395
v 15.340227127075195 0.4000000059604645 -1.354411244392395
v 15.340227127075195 0.0 1.145588755607605
v 15.340227127075195 0.0 -1.354411244392395
v 15.340227127075195 0.4000000059604645 -1.354411244392395
v 15.340227127075195 0.4000000059604645 1.145588755607605
v 14.340227127075195 0.0 1.145588755607605
v 15.340227127075195 0.0 1.145588755607605
v 15.340227127075195 0.4000000059604645 1.145588755607605
v 14.340227127075195 0.4000000059604645 1.145588755607605
v 14.340227127075195 0.0 4.1455888748168945
v 14.340227127075195 0.0 1.145588755607605
v 14.340227127075195 0.4000000059604645 1.145588755607605
v 14.340227127075195 0.4000000059604645 4.1455888748168945
v 12.340227127075195 0.0 4.1455888748168945
v 14.340227127075195 0.0 4.1455888748168945
v 14.340227127075195 0.4000000059604645 4.1455888748168945
v 12.340227127075195 0.4000000059604645 4.1455888748168945
v 12.340227127075195 0.0 3.1455888748168945
v 12.340227127075195 0.0 4.1455888748168945
v 12.340227127075195 0.4000000059604645 4.1455888748168945
v 12.340227127075195 0.4000000059604645 3.1455888748168945
v 9.840227127075195 0.0 3.1455888748168945
v 12.340227127075195 0.0 3.1455888748168945
v 12.340227127075195 0.4000000059604645 3.1455888748168945
v 9.840227127075195 0.4000000059604645 3.1455888748168945
v 9.840227127075195 0.0 4.1455888748168945
v 9.840227127075195 0.0 3.1455888748168945
v 9.840227127075195 0.4000000059604645 3.1455888748168945
v 9.840227127075195 0.4000000059604645 4.1455888748168945
v 7.840226650238037 0.0 4.1455888748168945
v 9.840227127075195 0.0 4.1455888748168945
v 9.840227127075195 0.4000000059604645 4.1455888748168945
v 7.840226650238037 0.4000000059604645 4.1455888748168945
v 7.840226650238037 0.0 1.145588755607605
v 7.840226650238037 0.0 4.1455888748168945
v 7.840226650238037 0.4000000059604645 4.1455888748168945
v 7.840226650238037 0.4000000059604645 1.145588755607605
v 6.840226650238037 0.0 1.145588755607605
v 7.840226650238037 0.0 1.145588755607605
v 7.840226650238037 0.4000000059604645 1.145588755607605
v 6.840226650238037 0.4000000059604645 1.145588755607605
v 6.840226650238037 0.0 -1.354411244392395
v 6.840226650238037 0.0 1.145588755607605
v 6.840226650238037 0.4000000059604645 1.145588755607605
v 6.840226650238037 0.4000000059604645 -1.354411244392395
v 7.840226650238037 0.0 -1.354411244392395
v 6.840226650238037 0.0 -1.354411244392395
v 6.840226650238037 0.4000000059604645 -1.354411244392395
v 7.840226650238037 0.4000000059604645 -1.354411244392395
v 7.840226650238037 0.0 -4.3544111251831055
v 7.840226650238037 0.0 -1.354411244392395
v 7.840226650238037 0.4000000059604645 -1.354411244392395
v 7.840226650238037 0.4000000059604645 -4.3544111251831055
v 9.840227127075195 0.0 -4.3544111251831055
v 7.840226650238037 0.0 -4.3544111251831055
v 7.840226650238037 0.4000000059604645 -4.3544111251831055
v 9.840227127075195 0.4000000059604645 -4.3544111251831055
v 9.840227127075195 0.0 -3.3544111251831055
v 9.840227127075195 0.0 -4.3544111251831055
v 9.840227127075195 0.4000000059604645 -4.3544111251831055
v 9.840227127075195 0.4000000059604645 -3.3544111251831055
v 12.340227127075195 0.0 -3.3544111251831055
v 9.840227127075195 0.0 -3.3544111251831055
v 9.840227127075195 0.4000000059604645 -3.3544111251831055
v 12.340227127075195 0.4000000059604645 -3.3544111251831055
v 12.340227127075195 0.0 -4.3544111251831055
v 12.340227127075195 0.0 -3.3544111251831055
v 12.340227127075195 0.4000000059604645 -3.3544111251831055
v 12.340227127075195 0.4000000059604645 -4.3544111251831055
v 14.340227127075195 0.0 -4.3544111251831055
v 12.340227127075195 0.0 -4.3544111251831055
v 12.340227127075195 0.4000000059604645 -4.3544111251831055
v 14.340227127075195 0.4000000059604645 -4.3544111251831055
v 9.340227127075195 0.4000000059604645 1.645588755607605
v 9.340227127075195 0.4000000059604645 -1.854411244392395
v 10.040226936340332 0.4000000059604645 -1.854411244392395
v 10.040226936340332 0.4000000059604645 1.645588755607605
v 10.740226745605469 0.4000000059604645 1.645588755607605
v 10.740226745605469 0.4000000059604645 -1.854411244392395
v 11.440226554870605 0.4000000059604645 -1.854411244392395
v 11.440226554870605 0.4000000059604645 1.645588755607605
v 12.140226364135742 0.4000000059604645 1.645588755607605
v 12.140226364135742 0.4000000059604645 -1.854411244392395
v 12.840227127075195 0.4000000059604645 -1.854411244392395
v 12.840227127075195 0.4000000059604645 1.645588755607605
v 14.340227127075195 0.4000000059604645 -4.3544111251831055
v 12.340227127075195 0.4000000059604645 -4.3544111251831055
v 12.340227127075195 0.4000000059604645 -3.3544111251831055
v 9.840227127075195 0.4000000059604645 -3.3544111251831055
v 9.840227127075195 0.4000000059604645 -4.3544111251831055
v 7.840226650238037 0.4000000059604645 -4.3544111251831055
v 7.840226650238037 0.4000000059604645 -1.354411244392395
v 6.840226650238037 0.4000000059604645 -1.354411244392395
v 6.840226650238037 0.4000000059604645 1.145588755607605
v 7.840226650238037 0.4000000059604645 1.145588755607605
v 7.840226650238037 0.4000000059604645 4.1455888748168945
v 9.840227127075195 0.4000000059604645 4.1455888748168945
v 9.840227127075195 0.4000000059604645 3.1455888748168945
v 12.340227127075195 0.4000000059604645 3.1455888748168945
v 12.340227127075195 0.4000000059604645 4.1455888748168945
v 14.340227127075195 0.4000000059604645 4.1455888748168945
v 14.340227127075195 0.4000000059604645 1.145588755607605
v 15.340227127075195 0.4000000059604645 1.145588755607605
v 15.340227127075195 0.4000000059604645 -1.354411244392395
v 14.340227127075195 0.4000000059604645 -1.354411244392395
v 12.340227127075195 0.0 -4.3544111251831055
v 14.340227127075195 0.0 -4.3544111251831055
v 14.340227127075195 0.0 -1.354411244392395
v 15.340227127075195 0.0 -1.354411244392395
v 15.340227127075195 0.0 1.145588755607605
v 14.340227127075195 0.0 1.145588755607605
v 14.340227127075195 0.0 4.1455888748168945
v 12.340227127075195 0.0 4.1455888748168945
v 12.340227127075195 0.0 3.1455888748168945
v 9.840227127075195 0.0 3.1455888748168945
v 9.840227127075195 0.0 4.1455888748168945
v 7.840226650238037 0.0 4.1455888748168945
v 7.840226650238037 0.0 1.145588755607605
v 6.840226650238037 0.0 1.145588755607605
v 6.840226650238037 0.0 -1.354411244392395
v 7.840226650238037 0.0 -1.354411244392395
v 7.840226650238037 0.0 -4.3544111251831055
v 9.840227127075195 0.0 -4.3544111251831055
v 9.840227127075195 0.0 -3.3544111251831055
v 12.340227127075195 0.0 -3.3544111251831055
vn -1.0 0.0 0.0
vn -1.0 0.0 0.0
vn -1.0 0.0 0.0
vn -1.0 0.0 0.0
vn 0.0 0.0 -1.0
vn 0.0 0.0 -1.0
vn 0.0 0.0 -1.0
vn 0.0 0.0 -1.0
vn 1.0 0.0 0.0
vn 1.0 0.0 0.0
vn 1.0 0.0 0.0
vn 1.0 0.0 0.0
vn 0.0 -0.0 1.0
vn 0.0 -0.0 1.0
vn 0.0 -0.0 1.0
vn 0.0 -0.0 1.0
vn 0.0 1.0 0.0
vn 0.0 1.0 0.0
vn 0.0 1.0 0.0
vn 0.0 1.0 0.0
vn -1.0 0.0 0.0
vn -1.0 0.0 0.0
vn -1.0 0.0 0.0
vn -1.0 0.0 0.0
vn 0.0 0.0 -1.0
vn 0.0 0.0 -1.0
vn 0.0 0.0 -1.0
vn 0.0 0.0 -1.0
vn 1.0 0.0 0.0
vn 1.0 0.0 0.0
vn 1.0 0.0 0.0
vn 1.0 0.0 0.0
vn 0.0 -0.0 1.0
vn 0.0 -0.0 1.0
vn 0.0 -0.0 1.0
vn 0.0 -0.0 1.0
vn 0.0 1.0 0.0
vn 0.0 1.0 0.0
vn 0.0 1.0 0.0
vn 0.0 1.0 0.0
vn -1.0 0.0 0.0
vn -1.0 0.0 0.0
vn -1.0 0.0 0.0
vn -1.0 0.0 0.0
vn 0.0 0.0 -1.0
vn 0.0 0.0 -1.0
vn 0.0 0.0 -1.0
vn 0.0 0.0 -1.0
vn 1.0 0.0 0.0
vn 1.0 0.0 0.0
vn 1.0 0.0 0.0
vn 1.0 0.0 0.0
vn 0.0 -0.0 1.0
vn 0.0 -0.0 1.0
vn 0.0 -0.0 1.0
vn 0.0 -0.0 1.0
vn 0.0 1.0 0.0
vn 0.0 1.0 0.0
vn 0.0 1.0 0.0
vn 0.0 1.0 0.0
vn 1.0 0.0 0.0
vn 1.0 0.0 0.0
vn 1.0 0.0 0.0
vn 1.0 0.0 0.0
vn 0.0 0.0 -1.0
vn 0.0 0.0 -1.0
vn 0.0 0.0 -1.0
vn 0.0 0.0 -1.0
vn 1.0 -0.0 0.0
vn 1.0 -0.0 0.0
vn 1.0 -0.0 0.0
vn 1.0 -0.0 0.0
vn 0.0 0.0 1.0
vn 0.0 0.0 1.0
vn 0.0 0.0 1.0
vn 0.0 0.0 1.0
vn 1.0 -0.0 0.0
vn 1.0 -0.0 0.0
vn 1.0 -0.0 0.0
vn 1.0 -0.0 0.0
vn 0.0 -0.0 1.0
vn 0.0 -0.0 1.0
vn 0.0 -0.0 1.0
vn 0.0 -0.0 1.0
vn -1.0 0.0 0.0
vn -1.0 0.0 0.0
vn -1.0 0.0 0.0
vn -1.0 0.0 0.0
vn 0.0 -0.0 1.0
vn 0.0 -0.0 1.0
vn 0.0 -0.0 1.0
vn 0.0 -0.0 1.0
vn 1.0 0.0 0.0
vn 1.0 0.0 0.0
vn 1.0 0.0 0.0
vn 1.0 0.0 0.0
vn 0.0 -0.0 1.0
vn 0.0 -0.0 1.0
vn 0.0 -0.0 1.0
vn 0.0 -0.0 1.0
vn -1.0 0.0 0.0
vn -1.0 0.0 0.0
vn -1.0 0.0 0.0
vn -1.0 0.0 0.0
vn 0.0 -0.0 1.0
vn 0.0 -0.0 1.0
vn 0.0 -0.0 1.0
vn 0.0 -0.0 1.0
vn -1.0 0.0 0.0
vn -1.0 0.0 0.0
vn -1.0 0.0 0.0
vn -1.0 0.0 0.0
vn 0.0 0.0 -1.0
vn 0.0 0.0 -1.0
vn 0.0 0.0 -1.0
vn 0.0 0.0 -1.0
vn -1.0 0.0 0.0
vn -1.0 0.0 0.0
vn -1.0 0.0 0.0
vn -1.0 0.0 0.0
vn 0.0 0.0 -1.0
vn 0.0 0.0 -1.0
vn 0.0 0.0 -1.0
vn 0.0 0.0 -1.0
vn 1.0 -0.0 0.0
vn 1.0 -0.0 0.0
vn 1.0 -0.0 0.0
vn 1.0 -0.0 0.0
vn 0.0 0.0 -1.0
vn 0.0 0.0 -1.0
vn 0.0 0.0 -1.0
vn 0.0 0.0 -1.0
vn -1.0 0.0 0.0
vn -1.0 0.0 0.0
vn -1.0 0.0 0.0
vn -1.0 0.0 0.0
vn 0.0 0.0 -1.0
vn 0.0 0.0 -1.0
vn 0.0 0.0 -1.0
vn 0.0 0.0 -1.0
vn 0.0 1.0 0.0
vn 0.0 1.0 0.0
vn 0.0 1.0 0.0
vn 0.0 1.0 0.0
vn 0.0 1.0 0.0
vn 0.0 1.0 0.0
vn 0.0 1.0 0.0
vn 0.0 1.0 0.0
vn 0.0 1.0 0.0
vn 0.0 1.0 0.0
vn 0.0 1.0 0.0
vn 0.0 1.0 0.0
vn 0.0 1.0 0.0
vn 0.0 1.0 0.0
vn 0.0 1.0 0.0
vn 0.0 1.0 0.0
vn 0.0 1.0 0.0
vn 0.0 1.0 0.0
vn 0.0 1.0 0.0
vn 0.0 1.0 0.0
vn 0.0 1.0 0.0
vn 0.0 1.0 0.0
vn 0.0 1.0 0.0
vn 0.0 1.0 0.0
vn 0.0 1.0 0.0
vn 0.0 1.0 0.0
vn 0.0 1.0 0.0
vn 0.0 1.0 0.0
vn 0.0 1.0 0.0
vn 0.0 1.0 0.0
vn 0.0 1.0 0.0
vn 0.0 1.0 0.0
vn -0.0 -1.0 -0.0
vn -0.0 -1.0 -0.0
vn -0.0 -1.0 -0.0
vn -0.0 -1.0 -0.0
vn -0.0 -1.0 -0.0
vn -0.0 -1.0 -0.0
vn -0.0 -1.0 -0.0
vn -0.0 -1.0 -0.0
vn -0.0 -1.0 -0.0
vn -0.0 -1.0 -0.0
vn -0.0 -1.0 -0.0
vn -0.0 -1.0 -0.0
vn -0.0 -1.0 -0.0
vn -0.0 -1.0 -0.0
vn -0.0 -1.0 -0.0
vn -0.0 -1.0 -0.0
vn -0.0 -1.0 -0.0
vn -0.0 -1.0 -0.0
vn -0.0 -1.0 -0.0
vn -0.0 -1.0 -0.0
g 270282fa-e32d-11ea-ac27-54bf646e7e1f
f 1//1 2//2 4//4
f 4//4 2//2 3//3
g 27036d4c-e32d-11ea-acf5-54bf646e7e1f
f 5//5 6//6 8//8
f 8//8 6//6 7//7
g 2704308c-e32d-11ea-b2e2-54bf646e7e1f
f 9//9 10//10 12//12
f 12//12 10//10 11//11
g 2704f3d8-e32d-11ea-93ef-54bf646e7e1f
f 13//13 14//14 16//16
f 16//16 14//14 15//15
g 2705b724-e32d-11ea-a70d-54bf646e7e1f
f 18//18 19//19 17//17
f 17//17 19//19 20//20
g 27067a64-e32d-11ea-9e6f-54bf646e7e1f
f 21//21 22//22 24//24
f 24//24 22//22 23//23
g 27073d9e-e32d-11ea-94a7-54bf646e7e1f
f 25//25 26//26 28//28
f 28//28 26//26 27//27
g 270827f8-e32d-11ea-ae6c-54bf646e7e1f
f 29//29 30//30 32//32
f 32//32 30//30 31//31
g 2708eb26-e32d-11ea-9d36-54bf646e7e1f
f 33//33 34//34 36//36
f 36//36 34//34 35//35
g 2709d56e-e32d-11ea-98f0-54bf646e7e1f
f 38//38 39//39 37//37
f 37//37 39//39 40//40
g 270abfc0-e32d-11ea-adb1-54bf646e7e1f
f 41//41 42//42 44//44
f 44//44 42//42 43//43
g 270baa1c-e32d-11ea-b952-54bf646e7e1f
f 45//45 46//46 48//48
f 48//48 46//46 47//47
g 270c9470-e32d-11ea-9f39-54bf646e7e1f
f 49//49 50//50 52//52
f 52//52 50//50 51//51
g 270d7eb6-e32d-11ea-a9fa-54bf646e7e1f
f 53//53 54//54 56//56
f 56//56 54//54 55//55
g 270e6910-e32d-11ea-ac64-54bf646e7e1f
f 58//58 59//59 57//57
f 57//57 59//59 60//60
g 268e1cc2-e32d-11ea-8784-54bf646e7e1f
f 61//61 62//62 64//64
f 64//64 62//62 63//63
g 268e6af8-e32d-11ea-8b33-54bf646e7e1f
f 65//65 66//66 68//68
f 68//68 66//66 67//67
g 268eb90c-e32d-11ea-8fc6-54bf646e7e1f
f 69//69 70//70 72//72
f 72//72 70//70 71//71
g 268f0740-e32d-11ea-a686-54bf646e7e1f
f 73//73 74//74 76//76
f 76//76 74//74 75//75
g 268f2e36-e32d-11ea-a1fd-54bf646e7e1f
f 77//77 78//78 80//80
f 80//80 78//78 79//79
g 268f7c70-e32d-11ea-b36b-54bf646e7e1f
f 81//81 82//82 84//84
f 84//84 82//82 83//83
g 268fca82-e32d-11ea-a193-54bf646e7e1f
f 85//85 86//86 88//88
f 88//88 86//86 87//87
g 26901890-e32d-11ea-b609-54bf646e7e1f
f 89//89 90//90 92//92
f 92//92 90//90 91//91
g 26908db6-e32d-11ea-9146-54bf646e7e1f
f 93//93 94//94 96//96
f 96//96 94//94 95//95
g 2690dbda-e32d-11ea-a0c5-54bf646e7e1f
f 97//97 98//98 100//100
f 100//100 98//98 99//99
g 269150fa-e32d-11ea-bf54-54bf646e7e1f
f 101//101 102//102 104//104
f 104//104 102//102 103//103
g 2691c628-e32d-11ea-a55f-54bf646e7e1f
f 105//105 106//106 108//108
f 108//108 106//106 107//107
g 26926266-e32d-11ea-a5ad-54bf646e7e1f
f 109//109 110//110 112//112
f 112//112 110//110 111//111
g 2692d78a-e32d-11ea-9f6e-54bf646e7e1f
f 113//113 114//114 116//116
f 116//116 114//114 115//115
g 269373be-e32d-11ea-b1ca-54bf646e7e1f
f 117//117 118//118 120//120
f 120//120 118//118 119//119
g 2693e8f6-e32d-11ea-8f7b-54bf646e7e1f
f 121//121 122//122 124//124
f 124//124 122//122 123//123
g 26948514-e32d-11ea-a4fe-54bf646e7e1f
f 125//125 126//126 128//128
f 128//128 126//126 127//127
g 2694fa48-e32d-11ea-802b-54bf646e7e1f
f 129//129 130//130 132//132
f 132//132 130//130 131//131
g 2695969c-e32d-11ea-9a80-54bf646e7e1f
f 133//133 134//134 136//136
f 136//136 134//134 135//135
g 269632d8-e32d-11ea-bdbc-54bf646e7e1f
f 137//137 138//138 140//140
f 140//140 138//138 139//139
g 2696cf1a-e32d-11ea-b0a6-54bf646e7e1f
f 142//142 162//162 141//141
f 141//141 162//162 163//163
f 141//141 163//163 165//165
f 165//165 163//163 164//164
f 143//143 156//156 142//142
f 142//142 156//156 158//158
f 142//142 158//158 159//159
f 156//156 143//143 146//146
f 146//146 143//143 144//144
f 146//146 144//144 145//145
f 145//145 144//144 165//165
f 145//145 165//165 148//148
f 148//148 165//165 166//166
f 148//148 166//166 149//149
f 149//149 166//166 152//152
f 152//152 166//166 168//168
f 152//152 168//168 169//169
f 144//144 141//141 165//165
f 146//146 147//147 156//156
f 156//156 147//147 155//155
f 155//155 147//147 150//150
f 155//155 150//150 151//151
f 147//147 148//148 150//150
f 150//150 148//148 149//149
f 152//152 172//172 151//151
f 151//151 172//172 153//153
f 151//151 153//153 155//155
f 155//155 153//153 154//154
f 156//156 157//157 158//158
f 160//160 161//161 159//159
f 159//159 161//161 162//162
f 159//159 162//162 142//142
f 166//166 167//167 168//168
f 170//170 171//171 169//169
f 169//169 171//171 172//172
f 169//169 172//172 152//152
g 26976b26-e32d-11ea-9242-54bf646e7e1f
f 173//173 174//174 192//192
f 192//192 174//174 175//175
f 192//192 175//175 188//188
f 188//188 175//175 185//185
f 188//188 185//185 186//186
f 185//185 175//175 178//178
f 178//178 175//175 176//176
f 178//178 176//176 177//177
f 179//179 181//181 178//178
f 178//178 181//181 182//182
f 178//178 182//182 185//185
f 185//185 182//182 184//184
f 184//184 182//182 183//183
f 179//179 180//180 181//181
f 186//186 187//187 188//188
f 192//192 188//188 191//191
f 191//191 188//188 189//189
f 191//191 189//189 190//190

# End of file