# WaveFront *.obj file
# Vertices: 66
# Triangles : 48

v 13.90000057220459 18.80000114440918 0.800000011920929
v 13.824698448181152 18.95636749267578 0.800000011920929
v 13.655495643615723 18.994985580444336 0.800000011920929
v 13.519806861877441 18.886777877807617 0.800000011920929
v 13.519806861877441 18.713224411010742 0.800000011920929
v 13.655495643615723 18.60501480102539 0.800000011920929
v 13.824698448181152 18.643634796142578 0.800000011920929
v 13.90000057220459 18.80000114440918 0.0
v 13.824698448181152 18.643634796142578 0.0
v 13.655495643615723 18.60501480102539 0.0
v 13.519806861877441 18.713224411010742 0.0
v 13.519806861877441 18.886777877807617 0.0
v 13.655495643615723 18.994985580444336 0.0
v 13.824698448181152 18.95636749267578 0.0
v 13.90000057220459 18.80000114440918 0.800000011920929
v 13.90000057220459 18.80000114440918 0.0
v 13.90000057220459 18.80000114440918 0.800000011920929
v 13.824698448181152 18.643634796142578 0.800000011920929
v 13.655495643615723 18.60501480102539 0.800000011920929
v 13.519806861877441 18.713224411010742 0.800000011920929
v 13.519806861877441 18.886777877807617 0.800000011920929
v 13.655495643615723 18.994985580444336 0.800000011920929
v 13.824698448181152 18.95636749267578 0.800000011920929
v 15.0 5.0 0.0
v 15.0 20.0 0.0
v 15.0 20.0 20.0
v 15.0 5.0 20.0
v 10.0 -20.0 0.0
v 15.0 5.0 0.0
v 15.0 5.0 20.0
v 10.0 -20.0 20.0
v -10.0 -20.0 0.0
v 10.0 -20.0 0.0
v 10.0 -20.0 20.0
v -10.0 -20.0 20.0
v -15.0 5.0 0.0
v -10.0 -20.0 0.0
v -10.0 -20.0 20.0
v -15.0 5.0 20.0
v -15.0 20.0 0.0
v -15.0 5.0 0.0
v -15.0 5.0 20.0
v -15.0 20.0 20.0
v 15.0 20.0 0.0
v -15.0 20.0 0.0
v -15.0 20.0 20.0
v 15.0 20.0 20.0
v 15.0 20.0 20.0
v -15.0 20.0 20.0
v -15.0 5.0 20.0
v -10.0 -20.0 20.0
v 10.0 -20.0 20.0
v 15.0 5.0 20.0
v 13.90000057220459 18.80000114440918 0.0
v 13.824698448181152 18.95636749267578 0.0
v 13.655495643615723 18.994985580444336 0.0
v 13.519806861877441 18.886777877807617 0.0
v 13.519806861877441 18.713224411010742 0.0
v 13.655495643615723 18.60501480102539 0.0
v 13.824698448181152 18.643634796142578 0.0
v -15.0 20.0 0.0
v 15.0 20.0 0.0
v 15.0 5.0 0.0
v 10.0 -20.0 0.0
v -10.0 -20.0 0.0
v -15.0 5.0 0.0
vn -1.0 -1.2246468525851679e-16 0.0
vn -0.6234897971153259 -0.7818315029144287 0.0
vn 0.22252093255519867 -0.9749279022216797 0.0
vn 0.9009688496589661 -0.4338837265968323 0.0
vn 0.9009688496589661 0.4338837265968323 -0.0
vn 0.22252093255519867 0.9749279022216797 -0.0
vn -0.6234897971153259 0.7818315029144287 0.0
vn -1.0 1.2246468525851679e-16 0.0
vn -0.6234897971153259 0.7818315029144287 0.0
vn 0.22252093255519867 0.9749279022216797 -0.0
vn 0.9009688496589661 0.4338837265968323 -0.0
vn 0.9009688496589661 -0.4338837265968323 0.0
vn 0.22252093255519867 -0.9749279022216797 0.0
vn -0.6234897971153259 -0.7818315029144287 0.0
vn -1.0 1.2246468525851679e-16 0.0
vn -1.0 -1.2246468525851679e-16 0.0
vn 0.0 0.0 -1.0
vn 0.0 0.0 -1.0
vn 0.0 0.0 -1.0
vn 0.0 0.0 -1.0
vn 0.0 0.0 -1.0
vn 0.0 0.0 -1.0
vn 0.0 0.0 -1.0
vn 1.0 0.0 -0.0
vn 1.0 0.0 -0.0
vn 1.0 0.0 -0.0
vn 1.0 0.0 -0.0
vn 0.9805806875228882 -0.1961161345243454 0.0
vn 0.9805806875228882 -0.1961161345243454 0.0
vn 0.9805806875228882 -0.1961161345243454 0.0
vn 0.9805806875228882 -0.1961161345243454 0.0
vn 0.0 -1.0 0.0
vn 0.0 -1.0 0.0
vn 0.0 -1.0 0.0
vn 0.0 -1.0 0.0
vn -0.9805806875228882 -0.1961161345243454 0.0
vn -0.9805806875228882 -0.1961161345243454 0.0
vn -0.9805806875228882 -0.1961161345243454 0.0
vn -0.9805806875228882 -0.1961161345243454 0.0
vn -1.0 0.0 0.0
vn -1.0 0.0 0.0
vn -1.0 0.0 0.0
vn -1.0 0.0 0.0
vn 0.0 1.0 -0.0
vn 0.0 1.0 -0.0
vn 0.0 1.0 -0.0
vn 0.0 1.0 -0.0
vn 0.0 0.0 1.0
vn 0.0 0.0 1.0
vn 0.0 0.0 1.0
vn 0.0 0.0 1.0
vn 0.0 0.0 1.0
vn 0.0 0.0 1.0
vn -0.0 -0.0 -1.0
vn -0.0 -0.0 -1.0
vn -0.0 -0.0 -1.0
vn -0.0 -0.0 -1.0
vn -0.0 -0.0 -1.0
vn -0.0 -0.0 -1.0
vn -0.0 -0.0 -1.0
vn -0.0 -0.0 -1.0
vn -0.0 -0.0 -1.0
vn -0.0 -0.0 -1.0
vn -0.0 -0.0 -1.0
vn -0.0 -0.0 -1.0
vn -0.0 -0.0 -1.0
g 23cddcf4-e332-11ea-b810-54bf646e7e1f
f 2//2 14//14 1//1
f 1//1 14//14 16//16
f 15//15 8//8 7//7
f 7//7 8//8 9//9
f 7//7 9//9 10//10
f 2//2 3//3 14//14
f 14//14 3//3 13//13
f 13//13 3//3 4//4
f 13//13 4//4 12//12
f 12//12 4//4 5//5
f 12//12 5//5 11//11
f 11//11 5//5 6//6
f 11//11 6//6 10//10
f 10//10 6//6 7//7
g 23cea040-e332-11ea-8330-54bf646e7e1f
f 18//18 20//20 17//17
f 17//17 20//20 21//21
f 17//17 21//21 23//23
f 23//23 21//21 22//22
f 18//18 19//19 20//20
g 2346d734-e332-11ea-8604-54bf646e7e1f
f 24//24 25//25 27//27
f 27//27 25//25 26//26
g 2347736e-e332-11ea-aa7b-54bf646e7e1f
f 28//28 29//29 31//31
f 31//31 29//29 30//30
g 2347e8a4-e332-11ea-97ca-54bf646e7e1f
f 32//32 33//33 35//35
f 35//35 33//33 34//34
g 234836b6-e332-11ea-8a43-54bf646e7e1f
f 36//36 37//37 39//39
f 39//39 37//37 38//38
g 2348abf6-e332-11ea-8fb1-54bf646e7e1f
f 40//40 41//41 43//43
f 43//43 41//41 42//42
g 23492130-e332-11ea-b2c7-54bf646e7e1f
f 44//44 45//45 47//47
f 47//47 45//45 46//46
g 2349963a-e332-11ea-ad38-54bf646e7e1f
f 48//48 49//49 53//53
f 53//53 49//49 50//50
f 53//53 50//50 52//52
f 52//52 50//50 51//51
g 234a0b66-e332-11ea-a0ec-54bf646e7e1f
f 60//60 54//54 62//62
f 62//62 54//54 55//55
f 62//62 55//55 56//56
f 62//62 56//56 61//61
f 61//61 56//56 57//57
f 61//61 57//57 58//58
f 59//59 63//63 58//58
f 58//58 63//63 66//66
f 58//58 66//66 61//61
f 59//59 60//60 63//63
f 63//63 60//60 62//62
f 64//64 65//65 63//63
f 63//63 65//65 66//66

# End of file