# WaveFront *.obj file
# Vertices: 168
# Triangles : 156

v -0.13038404285907745 -0.19249999523162842 0.0
v 0.13038404285907745 -0.19249999523162842 0.0
v 0.13038404285907745 -0.19249999523162842 0.18000000715255737
v -0.13038404285907745 -0.19249999523162842 0.18000000715255737
v -0.13038404285907745 0.19249999523162842 0.0
v -0.14942841231822968 0.17812186479568481 0.0
v -0.166898712515831 0.1618674397468567 0.0
v -0.18261094391345978 0.14390793442726135 0.0
v -0.19639958441257477 0.1244325190782547 0.0
v -0.20811939239501953 0.10364636033773422 0.0
v -0.21764691174030304 0.08176841586828232 0.0
v -0.22488176822662354 0.05902913212776184 0.0
v -0.22974777221679688 0.03566804528236389 0.0
v -0.23219366371631622 0.011931242421269417 0.0
v -0.23219366371631622 -0.011931242421269417 0.0
v -0.22974777221679688 -0.03566804528236389 0.0
v -0.22488176822662354 -0.05902913212776184 0.0
v -0.21764691174030304 -0.08176841586828232 0.0
v -0.20811939239501953 -0.10364636033773422 0.0
v -0.19639958441257477 -0.1244325190782547 0.0
v -0.18261094391345978 -0.14390793442726135 0.0
v -0.166898712515831 -0.1618674397468567 0.0
v -0.14942841231822968 -0.17812186479568481 0.0
v -0.13038404285907745 -0.19249999523162842 0.0
v -0.13038404285907745 -0.19249999523162842 0.18000000715255737
v -0.14942841231822968 -0.17812186479568481 0.18000000715255737
v -0.166898712515831 -0.1618674397468567 0.18000000715255737
v -0.18261094391345978 -0.14390793442726135 0.18000000715255737
v -0.19639958441257477 -0.1244325190782547 0.18000000715255737
v -0.20811939239501953 -0.10364636033773422 0.18000000715255737
v -0.21764691174030304 -0.08176841586828232 0.18000000715255737
v -0.22488176822662354 -0.05902913212776184 0.18000000715255737
v -0.22974777221679688 -0.03566804528236389 0.18000000715255737
v -0.23219366371631622 -0.011931242421269417 0.18000000715255737
v -0.23219366371631622 0.011931242421269417 0.18000000715255737
v -0.22974777221679688 0.03566804528236389 0.18000000715255737
v -0.22488176822662354 0.05902913212776184 0.18000000715255737
v -0.21764691174030304 0.08176841586828232 0.18000000715255737
v -0.20811939239501953 0.10364636033773422 0.18000000715255737
v -0.19639958441257477 0.1244325190782547 0.18000000715255737
v -0.18261094391345978 0.14390793442726135 0.18000000715255737
v -0.166898712515831 0.1618674397468567 0.18000000715255737
v -0.14942841231822968 0.17812186479568481 0.18000000715255737
v -0.13038404285907745 0.19249999523162842 0.18000000715255737
v 0.13038404285907745 0.19249999523162842 0.0
v -0.13038404285907745 0.19249999523162842 0.0
v -0.13038404285907745 0.19249999523162842 0.18000000715255737
v 0.13038404285907745 0.19249999523162842 0.18000000715255737
v 0.13038404285907745 -0.19249999523162842 0.0
v 0.14942841231822968 -0.17812186479568481 0.0
v 0.166898712515831 -0.1618674397468567 0.0
v 0.18261094391345978 -0.14390793442726135 0.0
v 0.19639958441257477 -0.1244325190782547 0.0
v 0.20811939239501953 -0.10364636033773422 0.0
v 0.21764691174030304 -0.08176841586828232 0.0
v 0.22488176822662354 -0.05902913212776184 0.0
v 0.22974777221679688 -0.03566804528236389 0.0
v 0.23219366371631622 -0.011931242421269417 0.0
v 0.23219366371631622 0.011931242421269417 0.0
v 0.22974777221679688 0.03566804528236389 0.0
v 0.22488176822662354 0.05902913212776184 0.0
v 0.21764691174030304 0.08176841586828232 0.0
v 0.20811939239501953 0.10364636033773422 0.0
v 0.19639958441257477 0.1244325190782547 0.0
v 0.18261094391345978 0.14390793442726135 0.0
v 0.166898712515831 0.1618674397468567 0.0
v 0.14942841231822968 0.17812186479568481 0.0
v 0.13038404285907745 0.19249999523162842 0.0
v 0.13038404285907745 0.19249999523162842 0.18000000715255737
v 0.14942841231822968 0.17812186479568481 0.18000000715255737
v 0.166898712515831 0.1618674397468567 0.18000000715255737
v 0.18261094391345978 0.14390793442726135 0.18000000715255737
v 0.19639958441257477 0.1244325190782547 0.18000000715255737
v 0.20811939239501953 0.10364636033773422 0.18000000715255737
v 0.21764691174030304 0.08176841586828232 0.18000000715255737
v 0.22488176822662354 0.05902913212776184 0.18000000715255737
v 0.22974777221679688 0.03566804528236389 0.18000000715255737
v 0.23219366371631622 0.011931242421269417 0.18000000715255737
v 0.23219366371631622 -0.011931242421269417 0.18000000715255737
v 0.22974777221679688 -0.03566804528236389 0.18000000715255737
v 0.22488176822662354 -0.05902913212776184 0.18000000715255737
v 0.21764691174030304 -0.08176841586828232 0.18000000715255737
v 0.20811939239501953 -0.10364636033773422 0.18000000715255737
v 0.19639958441257477 -0.1244325190782547 0.18000000715255737
v 0.18261094391345978 -0.14390793442726135 0.18000000715255737
v 0.166898712515831 -0.1618674397468567 0.18000000715255737
v 0.14942841231822968 -0.17812186479568481 0.18000000715255737
v 0.13038404285907745 -0.19249999523162842 0.18000000715255737
v 0.13038404285907745 -0.19249999523162842 0.18000000715255737
v 0.14942841231822968 -0.17812186479568481 0.18000000715255737
v 0.166898712515831 -0.1618674397468567 0.18000000715255737
v 0.18261094391345978 -0.14390793442726135 0.18000000715255737
v 0.19639958441257477 -0.1244325190782547 0.18000000715255737
v 0.20811939239501953 -0.10364636033773422 0.18000000715255737
v 0.21764691174030304 -0.08176841586828232 0.18000000715255737
v 0.22488176822662354 -0.05902913212776184 0.18000000715255737
v 0.22974777221679688 -0.03566804528236389 0.18000000715255737
v 0.23219366371631622 -0.011931242421269417 0.18000000715255737
v 0.23219366371631622 0.011931242421269417 0.18000000715255737
v 0.22974777221679688 0.03566804528236389 0.18000000715255737
v 0.22488176822662354 0.05902913212776184 0.18000000715255737
v 0.21764691174030304 0.08176841586828232 0.18000000715255737
v 0.20811939239501953 0.10364636033773422 0.18000000715255737
v 0.19639958441257477 0.1244325190782547 0.18000000715255737
v 0.18261094391345978 0.14390793442726135 0.18000000715255737
v 0.166898712515831 0.1618674397468567 0.18000000715255737
v 0.14942841231822968 0.17812186479568481 0.18000000715255737
v 0.13038404285907745 0.19249999523162842 0.18000000715255737
v -0.13038404285907745 0.19249999523162842 0.18000000715255737
v -0.14942841231822968 0.17812186479568481 0.18000000715255737
v -0.166898712515831 0.1618674397468567 0.18000000715255737
v -0.18261094391345978 0.14390793442726135 0.18000000715255737
v -0.19639958441257477 0.1244325190782547 0.18000000715255737
v -0.20811939239501953 0.10364636033773422 0.18000000715255737
v -0.21764691174030304 0.08176841586828232 0.18000000715255737
v -0.22488176822662354 0.05902913212776184 0.18000000715255737
v -0.22974777221679688 0.03566804528236389 0.18000000715255737
v -0.23219366371631622 0.011931242421269417 0.18000000715255737
v -0.23219366371631622 -0.011931242421269417 0.18000000715255737
v -0.22974777221679688 -0.03566804528236389 0.18000000715255737
v -0.22488176822662354 -0.05902913212776184 0.18000000715255737
v -0.21764691174030304 -0.08176841586828232 0.18000000715255737
v -0.20811939239501953 -0.10364636033773422 0.18000000715255737
v -0.19639958441257477 -0.1244325190782547 0.18000000715255737
v -0.18261094391345978 -0.14390793442726135 0.18000000715255737
v -0.166898712515831 -0.1618674397468567 0.18000000715255737
v -0.14942841231822968 -0.17812186479568481 0.18000000715255737
v -0.13038404285907745 -0.19249999523162842 0.18000000715255737
v 0.13038404285907745 0.19249999523162842 0.0
v 0.14942841231822968 0.17812186479568481 0.0
v 0.166898712515831 0.1618674397468567 0.0
v 0.18261094391345978 0.14390793442726135 0.0
v 0.19639958441257477 0.1244325190782547 0.0
v 0.20811939239501953 0.10364636033773422 0.0
v 0.21764691174030304 0.08176841586828232 0.0
v 0.22488176822662354 0.05902913212776184 0.0
v 0.22974777221679688 0.03566804528236389 0.0
v 0.23219366371631622 0.011931242421269417 0.0
v 0.23219366371631622 -0.011931242421269417 0.0
v 0.22974777221679688 -0.03566804528236389 0.0
v 0.22488176822662354 -0.05902913212776184 0.0
v 0.21764691174030304 -0.08176841586828232 0.0
v 0.20811939239501953 -0.10364636033773422 0.0
v 0.19639958441257477 -0.1244325190782547 0.0
v 0.18261094391345978 -0.14390793442726135 0.0
v 0.166898712515831 -0.1618674397468567 0.0
v 0.14942841231822968 -0.17812186479568481 0.0
v 0.13038404285907745 -0.19249999523162842 0.0
v -0.13038404285907745 -0.19249999523162842 0.0
v -0.14942841231822968 -0.17812186479568481 0.0
v -0.166898712515831 -0.1618674397468567 0.0
v -0.18261094391345978 -0.14390793442726135 0.0
v -0.19639958441257477 -0.1244325190782547 0.0
v -0.20811939239501953 -0.10364636033773422 0.0
v -0.21764691174030304 -0.08176841586828232 0.0
v -0.22488176822662354 -0.05902913212776184 0.0
v -0.22974777221679688 -0.03566804528236389 0.0
v -0.23219366371631622 -0.011931242421269417 0.0
v -0.23219366371631622 0.011931242421269417 0.0
v -0.22974777221679688 0.03566804528236389 0.0
v -0.22488176822662354 0.05902913212776184 0.0
v -0.21764691174030304 0.08176841586828232 0.0
v -0.20811939239501953 0.10364636033773422 0.0
v -0.19639958441257477 0.1244325190782547 0.0
v -0.18261094391345978 0.14390793442726135 0.0
v -0.166898712515831 0.1618674397468567 0.0
v -0.14942841231822968 0.17812186479568481 0.0
v -0.13038404285907745 0.19249999523162842 0.0
vn 0.0 -1.0 0.0
vn 0.0 -1.0 0.0
vn 0.0 -1.0 0.0
vn 0.0 -1.0 0.0
vn -0.5607916116714478 0.8279569745063782 -0.0
vn -0.6427028179168701 0.7661155462265015 -0.0
vn -0.7178439497947693 0.6962040662765503 -0.0
vn -0.7854233980178833 0.6189588308334351 -0.0
vn -0.8447294235229492 0.5351936221122742 -0.0
vn -0.8951371908187866 0.4457907974720001 -0.0
vn -0.9361157417297363 0.3516921103000641 -0.0
vn -0.967233419418335 0.25388872623443604 -0.0
vn -0.9881624579429626 0.15341095626354218 -0.0
vn -0.9986823797225952 0.05131717398762703 -0.0
vn -0.9986823797225952 -0.05131717398762703 0.0
vn -0.9881624579429626 -0.15341095626354218 0.0
vn -0.967233419418335 -0.25388872623443604 0.0
vn -0.9361157417297363 -0.3516921103000641 0.0
vn -0.8951371908187866 -0.4457907974720001 0.0
vn -0.8447294235229492 -0.5351936221122742 0.0
vn -0.7854233980178833 -0.6189588308334351 0.0
vn -0.7178439497947693 -0.6962040662765503 0.0
vn -0.6427028179168701 -0.7661155462265015 0.0
vn -0.5607916116714478 -0.8279569745063782 0.0
vn -0.5607916116714478 -0.8279569745063782 0.0
vn -0.6427028179168701 -0.7661155462265015 0.0
vn -0.7178439497947693 -0.6962040662765503 0.0
vn -0.7854233980178833 -0.6189588308334351 0.0
vn -0.8447294235229492 -0.5351936221122742 0.0
vn -0.8951371908187866 -0.4457907974720001 0.0
vn -0.9361157417297363 -0.3516921103000641 0.0
vn -0.967233419418335 -0.25388872623443604 0.0
vn -0.9881624579429626 -0.15341095626354218 0.0
vn -0.9986823797225952 -0.05131717398762703 0.0
vn -0.9986823797225952 0.05131717398762703 -0.0
vn -0.9881624579429626 0.15341095626354218 -0.0
vn -0.967233419418335 0.25388872623443604 -0.0
vn -0.9361157417297363 0.3516921103000641 -0.0
vn -0.8951371908187866 0.4457907974720001 -0.0
vn -0.8447294235229492 0.5351936221122742 -0.0
vn -0.7854233980178833 0.6189588308334351 -0.0
vn -0.7178439497947693 0.6962040662765503 -0.0
vn -0.6427028179168701 0.7661155462265015 -0.0
vn -0.5607916116714478 0.8279569745063782 -0.0
vn 1.0643777634017116e-16 1.0 -0.0
vn 1.0643777634017116e-16 1.0 -0.0
vn 1.0643777634017116e-16 1.0 -0.0
vn 1.0643777634017116e-16 1.0 -0.0
vn 0.5607916116714478 -0.8279569745063782 -0.0
vn 0.6427028179168701 -0.7661155462265015 -0.0
vn 0.7178439497947693 -0.6962040662765503 -0.0
vn 0.7854233980178833 -0.6189588308334351 -0.0
vn 0.8447294235229492 -0.5351936221122742 -0.0
vn 0.8951371908187866 -0.4457907974720001 -0.0
vn 0.9361157417297363 -0.3516921103000641 -0.0
vn 0.967233419418335 -0.25388872623443604 -0.0
vn 0.9881624579429626 -0.15341095626354218 -0.0
vn 0.9986823797225952 -0.05131717398762703 -0.0
vn 0.9986823797225952 0.05131717398762703 -0.0
vn 0.9881624579429626 0.15341095626354218 -0.0
vn 0.967233419418335 0.25388872623443604 -0.0
vn 0.9361157417297363 0.3516921103000641 -0.0
vn 0.8951371908187866 0.4457907974720001 -0.0
vn 0.8447294235229492 0.5351936221122742 -0.0
vn 0.7854233980178833 0.6189588308334351 -0.0
vn 0.7178439497947693 0.6962040662765503 -0.0
vn 0.6427028179168701 0.7661155462265015 -0.0
vn 0.5607916116714478 0.8279569745063782 -0.0
vn 0.5607916116714478 0.8279569745063782 -0.0
vn 0.6427028179168701 0.7661155462265015 -0.0
vn 0.7178439497947693 0.6962040662765503 -0.0
vn 0.7854233980178833 0.6189588308334351 -0.0
vn 0.8447294235229492 0.5351936221122742 -0.0
vn 0.8951371908187866 0.4457907974720001 -0.0
vn 0.9361157417297363 0.3516921103000641 -0.0
vn 0.967233419418335 0.25388872623443604 -0.0
vn 0.9881624579429626 0.15341095626354218 -0.0
vn 0.9986823797225952 0.05131717398762703 -0.0
vn 0.9986823797225952 -0.05131717398762703 -0.0
vn 0.9881624579429626 -0.15341095626354218 -0.0
vn 0.967233419418335 -0.25388872623443604 -0.0
vn 0.9361157417297363 -0.3516921103000641 -0.0
vn 0.8951371908187866 -0.4457907974720001 -0.0
vn 0.8447294235229492 -0.5351936221122742 -0.0
vn 0.7854233980178833 -0.6189588308334351 -0.0
vn 0.7178439497947693 -0.6962040662765503 -0.0
vn 0.6427028179168701 -0.7661155462265015 -0.0
vn 0.5607916116714478 -0.8279569745063782 -0.0
vn 0.0 0.0 1.0
vn 0.0 0.0 1.0
vn 0.0 0.0 1.0
vn 0.0 0.0 1.0
vn 0.0 0.0 1.0
vn 0.0 0.0 1.0
vn 0.0 0.0 1.0
vn 0.0 0.0 1.0
vn 0.0 0.0 1.0
vn 0.0 0.0 1.0
vn 0.0 0.0 1.0
vn 0.0 0.0 1.0
vn 0.0 0.0 1.0
vn 0.0 0.0 1.0
vn 0.0 0.0 1.0
vn 0.0 0.0 1.0
vn 0.0 0.0 1.0
vn 0.0 0.0 1.0
vn 0.0 0.0 1.0
vn 0.0 0.0 1.0
vn 0.0 0.0 1.0
vn 0.0 0.0 1.0
vn 0.0 0.0 1.0
vn 0.0 0.0 1.0
vn 0.0 0.0 1.0
vn 0.0 0.0 1.0
vn 0.0 0.0 1.0
vn 0.0 0.0 1.0
vn 0.0 0.0 1.0
vn 0.0 0.0 1.0
vn 0.0 0.0 1.0
vn 0.0 0.0 1.0
vn 0.0 0.0 1.0
vn 0.0 0.0 1.0
vn 0.0 0.0 1.0
vn 0.0 0.0 1.0
vn 0.0 0.0 1.0
vn 0.0 0.0 1.0
vn 0.0 0.0 1.0
vn 0.0 0.0 1.0
vn -0.0 -0.0 -1.0
vn -0.0 -0.0 -1.0
vn -0.0 -0.0 -1.0
vn -0.0 -0.0 -1.0
vn -0.0 -0.0 -1.0
vn -0.0 -0.0 -1.0
vn -0.0 -0.0 -1.0
vn -0.0 -0.0 -1.0
vn -0.0 -0.0 -1.0
vn -0.0 -0.0 -1.0
vn -0.0 -0.0 -1.0
vn -0.0 -0.0 -1.0
vn -0.0 -0.0 -1.0
vn -0.0 -0.0 -1.0
vn -0.0 -0.0 -1.0
vn -0.0 -0.0 -1.0
vn -0.0 -0.0 -1.0
vn -0.0 -0.0 -1.0
vn -0.0 -0.0 -1.0
vn -0.0 -0.0 -1.0
vn -0.0 -0.0 -1.0
vn -0.0 -0.0 -1.0
vn -0.0 -0.0 -1.0
vn -0.0 -0.0 -1.0
vn -0.0 -0.0 -1.0
vn -0.0 -0.0 -1.0
vn -0.0 -0.0 -1.0
vn -0.0 -0.0 -1.0
vn -0.0 -0.0 -1.0
vn -0.0 -0.0 -1.0
vn -0.0 -0.0 -1.0
vn -0.0 -0.0 -1.0
vn -0.0 -0.0 -1.0
vn -0.0 -0.0 -1.0
vn -0.0 -0.0 -1.0
vn -0.0 -0.0 -1.0
vn -0.0 -0.0 -1.0
vn -0.0 -0.0 -1.0
vn -0.0 -0.0 -1.0
vn -0.0 -0.0 -1.0
g 6fdfe782-e338-11ea-91b7-54bf646e7e1f
f 1//1 2//2 4//4
f 4//4 2//2 3//3
g 6fe0359a-e338-11ea-874f-54bf646e7e1f
f 44//44 5//5 43//43
f 43//43 5//5 6//6
f 43//43 6//6 42//42
f 42//42 6//6 7//7
f 42//42 7//7 41//41
f 41//41 7//7 8//8
f 41//41 8//8 40//40
f 40//40 8//8 9//9
f 40//40 9//9 39//39
f 39//39 9//9 10//10
f 39//39 10//10 38//38
f 38//38 10//10 11//11
f 38//38 11//11 37//37
f 37//37 11//11 12//12
f 37//37 12//12 36//36
f 36//36 12//12 13//13
f 36//36 13//13 35//35
f 35//35 13//13 14//14
f 35//35 14//14 34//34
f 34//34 14//14 15//15
f 34//34 15//15 33//33
f 33//33 15//15 16//16
f 33//33 16//16 32//32
f 32//32 16//16 17//17
f 32//32 17//17 31//31
f 31//31 17//17 18//18
f 31//31 18//18 30//30
f 30//30 18//18 19//19
f 30//30 19//19 29//29
f 29//29 19//19 20//20
f 29//29 20//20 28//28
f 28//28 20//20 21//21
f 28//28 21//21 27//27
f 27//27 21//21 22//22
f 27//27 22//22 26//26
f 26//26 22//22 23//23
f 26//26 23//23 25//25
f 25//25 23//23 24//24
g 6fe0aadc-e338-11ea-bf13-54bf646e7e1f
f 45//45 46//46 48//48
f 48//48 46//46 47//47
g 6fe0f8ee-e338-11ea-8653-54bf646e7e1f
f 88//88 49//49 87//87
f 87//87 49//49 50//50
f 87//87 50//50 86//86
f 86//86 50//50 51//51
f 86//86 51//51 85//85
f 85//85 51//51 52//52
f 85//85 52//52 84//84
f 84//84 52//52 53//53
f 84//84 53//53 83//83
f 83//83 53//53 54//54
f 83//83 54//54 82//82
f 82//82 54//54 55//55
f 82//82 55//55 81//81
f 81//81 55//55 56//56
f 81//81 56//56 80//80
f 80//80 56//56 57//57
f 80//80 57//57 79//79
f 79//79 57//57 58//58
f 79//79 58//58 78//78
f 78//78 58//58 59//59
f 78//78 59//59 77//77
f 77//77 59//59 60//60
f 77//77 60//60 76//76
f 76//76 60//60 61//61
f 76//76 61//61 75//75
f 75//75 61//61 62//62
f 75//75 62//62 74//74
f 74//74 62//62 63//63
f 74//74 63//63 73//73
f 73//73 63//63 64//64
f 73//73 64//64 72//72
f 72//72 64//64 65//65
f 72//72 65//65 71//71
f 71//71 65//65 66//66
f 71//71 66//66 70//70
f 70//70 66//66 67//67
f 70//70 67//67 69//69
f 69//69 67//67 68//68
g 6fe16e10-e338-11ea-bddb-54bf646e7e1f
f 128//128 89//89 127//127
f 127//127 89//89 90//90
f 127//127 90//90 126//126
f 126//126 90//90 91//91
f 126//126 91//91 125//125
f 125//125 91//91 92//92
f 125//125 92//92 124//124
f 124//124 92//92 93//93
f 124//124 93//93 123//123
f 123//123 93//93 94//94
f 123//123 94//94 122//122
f 122//122 94//94 95//95
f 122//122 95//95 121//121
f 121//121 95//95 96//96
f 121//121 96//96 120//120
f 120//120 96//96 97//97
f 120//120 97//97 119//119
f 119//119 97//97 98//98
f 119//119 98//98 118//118
f 118//118 98//98 99//99
f 118//118 99//99 117//117
f 117//117 99//99 100//100
f 117//117 100//100 116//116
f 116//116 100//100 101//101
f 116//116 101//101 115//115
f 115//115 101//101 102//102
f 115//115 102//102 114//114
f 114//114 102//102 103//103
f 114//114 103//103 113//113
f 113//113 103//103 104//104
f 113//113 104//104 112//112
f 112//112 104//104 105//105
f 112//112 105//105 111//111
f 111//111 105//105 106//106
f 111//111 106//106 110//110
f 110//110 106//106 107//107
f 110//110 107//107 109//109
f 109//109 107//107 108//108
g 6fe1e34a-e338-11ea-af1b-54bf646e7e1f
f 168//168 129//129 167//167
f 167//167 129//129 130//130
f 167//167 130//130 166//166
f 166//166 130//130 131//131
f 166//166 131//131 165//165
f 165//165 131//131 132//132
f 165//165 132//132 164//164
f 164//164 132//132 133//133
f 164//164 133//133 163//163
f 163//163 133//133 134//134
f 163//163 134//134 162//162
f 162//162 134//134 135//135
f 162//162 135//135 161//161
f 161//161 135//135 136//136
f 161//161 136//136 160//160
f 160//160 136//136 137//137
f 160//160 137//137 159//159
f 159//159 137//137 138//138
f 159//159 138//138 158//158
f 158//158 138//138 139//139
f 158//158 139//139 157//157
f 157//157 139//139 140//140
f 157//157 140//140 156//156
f 156//156 140//140 141//141
f 156//156 141//141 155//155
f 155//155 141//141 142//142
f 155//155 142//142 154//154
f 154//154 142//142 143//143
f 154//154 143//143 153//153
f 153//153 143//143 144//144
f 153//153 144//144 152//152
f 152//152 144//144 145//145
f 152//152 145//145 151//151
f 151//151 145//145 146//146
f 151//151 146//146 150//150
f 150//150 146//146 147//147
f 150//150 147//147 149//149
f 149//149 147//147 148//148

# End of file