# WaveFront *.obj file
# Vertices: 184
# Triangles : 172

v -1.0769338607788086 0.4894913136959076 0.16500000655651093
v -1.7119338512420654 0.4894913136959076 0.16500000655651093
v -1.7119338512420654 0.4894913136959076 0.48500001430511475
v -1.0769338607788086 0.4894913136959076 0.48500001430511475
v -1.0769338607788086 0.13949131965637207 0.16500000655651093
v -1.0508514642715454 0.14144591987133026 0.16500000655651093
v -1.0253517627716064 0.14726607501506805 0.16500000655651093
v -1.0010042190551758 0.15682177245616913 0.16500000655651093
v -0.9783528447151184 0.16989953815937042 0.16500000655651093
v -0.9579036235809326 0.18620723485946655 0.16500000655651093
v -0.940113365650177 0.2053806036710739 0.16500000655651093
v -0.9253793954849243 0.22699131071567535 0.16500000655651093
v -0.9140309691429138 0.2505566477775574 0.16500000655651093
v -0.9063214659690857 0.27555015683174133 0.16500000655651093
v -0.9024232029914856 0.30141356587409973 0.16500000655651093
v -0.9024232029914856 0.3275690972805023 0.16500000655651093
v -0.9063214659690857 0.35343247652053833 0.16500000655651093
v -0.9140309691429138 0.3784259855747223 0.16500000655651093
v -0.9253793954849243 0.4019913077354431 0.16500000655651093
v -0.940113365650177 0.42360204458236694 0.16500000655651093
v -0.9579036235809326 0.4427753984928131 0.16500000655651093
v -0.9783528447151184 0.45908311009407043 0.16500000655651093
v -1.0010042190551758 0.47216087579727173 0.16500000655651093
v -1.0253517627716064 0.4817165732383728 0.16500000655651093
v -1.0508514642715454 0.4875366985797882 0.16500000655651093
v -1.0769338607788086 0.4894913136959076 0.16500000655651093
v -1.0769338607788086 0.4894913136959076 0.48500001430511475
v -1.0508514642715454 0.4875366985797882 0.48500001430511475
v -1.0253517627716064 0.4817165732383728 0.48500001430511475
v -1.0010042190551758 0.47216087579727173 0.48500001430511475
v -0.9783528447151184 0.45908311009407043 0.48500001430511475
v -0.9579036235809326 0.4427753984928131 0.48500001430511475
v -0.940113365650177 0.42360204458236694 0.48500001430511475
v -0.9253793954849243 0.4019913077354431 0.48500001430511475
v -0.9140309691429138 0.3784259855747223 0.48500001430511475
v -0.9063214659690857 0.35343247652053833 0.48500001430511475
v -0.9024232029914856 0.3275690972805023 0.48500001430511475
v -0.9024232029914856 0.30141356587409973 0.48500001430511475
v -0.9063214659690857 0.27555015683174133 0.48500001430511475
v -0.9140309691429138 0.2505566477775574 0.48500001430511475
v -0.9253793954849243 0.22699131071567535 0.48500001430511475
v -0.940113365650177 0.2053806036710739 0.48500001430511475
v -0.9579036235809326 0.18620723485946655 0.48500001430511475
v -0.9783528447151184 0.16989953815937042 0.48500001430511475
v -1.0010042190551758 0.15682177245616913 0.48500001430511475
v -1.0253517627716064 0.14726607501506805 0.48500001430511475
v -1.0508514642715454 0.14144591987133026 0.48500001430511475
v -1.0769338607788086 0.13949131965637207 0.48500001430511475
v -1.7119338512420654 0.13949131965637207 0.16500000655651093
v -1.0769338607788086 0.13949131965637207 0.16500000655651093
v -1.0769338607788086 0.13949131965637207 0.48500001430511475
v -1.7119338512420654 0.13949131965637207 0.48500001430511475
v -1.7119338512420654 0.4894913136959076 0.16500000655651093
v -1.7380162477493286 0.4875366985797882 0.16500000655651093
v -1.7635160684585571 0.4817165732383728 0.16500000655651093
v -1.7878634929656982 0.47216087579727173 0.16500000655651093
v -1.8105149269104004 0.45908311009407043 0.16500000655651093
v -1.8309640884399414 0.4427753984928131 0.16500000655651093
v -1.8487544059753418 0.42360204458236694 0.16500000655651093
v -1.8634883165359497 0.4019913077354431 0.16500000655651093
v -1.874836802482605 0.3784259855747223 0.16500000655651093
v -1.8825461864471436 0.35343247652053833 0.16500000655651093
v -1.8864445686340332 0.3275690972805023 0.16500000655651093
v -1.8864445686340332 0.30141356587409973 0.16500000655651093
v -1.8825461864471436 0.27555015683174133 0.16500000655651093
v -1.874836802482605 0.2505566477775574 0.16500000655651093
v -1.8634883165359497 0.22699131071567535 0.16500000655651093
v -1.8487544059753418 0.2053806036710739 0.16500000655651093
v -1.8309640884399414 0.18620723485946655 0.16500000655651093
v -1.8105149269104004 0.16989953815937042 0.16500000655651093
v -1.7878634929656982 0.15682177245616913 0.16500000655651093
v -1.7635160684585571 0.14726607501506805 0.16500000655651093
v -1.7380162477493286 0.14144591987133026 0.16500000655651093
v -1.7119338512420654 0.13949131965637207 0.16500000655651093
v -1.7119338512420654 0.13949131965637207 0.48500001430511475
v -1.7380162477493286 0.14144591987133026 0.48500001430511475
v -1.7635160684585571 0.14726607501506805 0.48500001430511475
v -1.7878634929656982 0.15682177245616913 0.48500001430511475
v -1.8105149269104004 0.16989953815937042 0.48500001430511475
v -1.8309640884399414 0.18620723485946655 0.48500001430511475
v -1.8487544059753418 0.2053806036710739 0.48500001430511475
v -1.8634883165359497 0.22699131071567535 0.48500001430511475
v -1.874836802482605 0.2505566477775574 0.48500001430511475
v -1.8825461864471436 0.27555015683174133 0.48500001430511475
v -1.8864445686340332 0.30141356587409973 0.48500001430511475
v -1.8864445686340332 0.3275690972805023 0.48500001430511475
v -1.8825461864471436 0.35343247652053833 0.48500001430511475
v -1.874836802482605 0.3784259855747223 0.48500001430511475
v -1.8634883165359497 0.4019913077354431 0.48500001430511475
v -1.8487544059753418 0.42360204458236694 0.48500001430511475
v -1.8309640884399414 0.4427753984928131 0.48500001430511475
v -1.8105149269104004 0.45908311009407043 0.48500001430511475
v -1.7878634929656982 0.47216087579727173 0.48500001430511475
v -1.7635160684585571 0.4817165732383728 0.48500001430511475
v -1.7380162477493286 0.4875366985797882 0.48500001430511475
v -1.7119338512420654 0.4894913136959076 0.48500001430511475
v -1.7119338512420654 0.4894913136959076 0.48500001430511475
v -1.7380162477493286 0.4875366985797882 0.48500001430511475
v -1.7635160684585571 0.4817165732383728 0.48500001430511475
v -1.7878634929656982 0.47216087579727173 0.48500001430511475
v -1.8105149269104004 0.45908311009407043 0.48500001430511475
v -1.8309640884399414 0.4427753984928131 0.48500001430511475
v -1.8487544059753418 0.42360204458236694 0.48500001430511475
v -1.8634883165359497 0.4019913077354431 0.48500001430511475
v -1.874836802482605 0.3784259855747223 0.48500001430511475
v -1.8825461864471436 0.35343247652053833 0.48500001430511475
v -1.8864445686340332 0.3275690972805023 0.48500001430511475
v -1.8864445686340332 0.30141356587409973 0.48500001430511475
v -1.8825461864471436 0.27555015683174133 0.48500001430511475
v -1.874836802482605 0.2505566477775574 0.48500001430511475
v -1.8634883165359497 0.22699131071567535 0.48500001430511475
v -1.8487544059753418 0.2053806036710739 0.48500001430511475
v -1.8309640884399414 0.18620723485946655 0.48500001430511475
v -1.8105149269104004 0.16989953815937042 0.48500001430511475
v -1.7878634929656982 0.15682177245616913 0.48500001430511475
v -1.7635160684585571 0.14726607501506805 0.48500001430511475
v -1.7380162477493286 0.14144591987133026 0.48500001430511475
v -1.7119338512420654 0.13949131965637207 0.48500001430511475
v -1.0769338607788086 0.13949131965637207 0.48500001430511475
v -1.0508514642715454 0.14144591987133026 0.48500001430511475
v -1.0253517627716064 0.14726607501506805 0.48500001430511475
v -1.0010042190551758 0.15682177245616913 0.48500001430511475
v -0.9783528447151184 0.16989953815937042 0.48500001430511475
v -0.9579036235809326 0.18620723485946655 0.48500001430511475
v -0.940113365650177 0.2053806036710739 0.48500001430511475
v -0.9253793954849243 0.22699131071567535 0.48500001430511475
v -0.9140309691429138 0.2505566477775574 0.48500001430511475
v -0.9063214659690857 0.27555015683174133 0.48500001430511475
v -0.9024232029914856 0.30141356587409973 0.48500001430511475
v -0.9024232029914856 0.3275690972805023 0.48500001430511475
v -0.9063214659690857 0.35343247652053833 0.48500001430511475
v -0.9140309691429138 0.3784259855747223 0.48500001430511475
v -0.9253793954849243 0.4019913077354431 0.48500001430511475
v -0.940113365650177 0.42360204458236694 0.48500001430511475
v -0.9579036235809326 0.4427753984928131 0.48500001430511475
v -0.9783528447151184 0.45908311009407043 0.48500001430511475
v -1.0010042190551758 0.47216087579727173 0.48500001430511475
v -1.0253517627716064 0.4817165732383728 0.48500001430511475
v -1.0508514642715454 0.4875366985797882 0.48500001430511475
v -1.0769338607788086 0.4894913136959076 0.48500001430511475
v -1.7119338512420654 0.13949131965637207 0.16500000655651093
v -1.7380162477493286 0.14144591987133026 0.16500000655651093
v -1.7635160684585571 0.14726607501506805 0.16500000655651093
v -1.7878634929656982 0.15682177245616913 0.16500000655651093
v -1.8105149269104004 0.16989953815937042 0.16500000655651093
v -1.8309640884399414 0.18620723485946655 0.16500000655651093
v -1.8487544059753418 0.2053806036710739 0.16500000655651093
v -1.8634883165359497 0.22699131071567535 0.16500000655651093
v -1.874836802482605 0.2505566477775574 0.16500000655651093
v -1.8825461864471436 0.27555015683174133 0.16500000655651093
v -1.8864445686340332 0.30141356587409973 0.16500000655651093
v -1.8864445686340332 0.3275690972805023 0.16500000655651093
v -1.8825461864471436 0.35343247652053833 0.16500000655651093
v -1.874836802482605 0.3784259855747223 0.16500000655651093
v -1.8634883165359497 0.4019913077354431 0.16500000655651093
v -1.8487544059753418 0.42360204458236694 0.16500000655651093
v -1.8309640884399414 0.4427753984928131 0.16500000655651093
v -1.8105149269104004 0.45908311009407043 0.16500000655651093
v -1.7878634929656982 0.47216087579727173 0.16500000655651093
v -1.7635160684585571 0.4817165732383728 0.16500000655651093
v -1.7380162477493286 0.4875366985797882 0.16500000655651093
v -1.7119338512420654 0.4894913136959076 0.16500000655651093
v -1.0769338607788086 0.4894913136959076 0.16500000655651093
v -1.0508514642715454 0.4875366985797882 0.16500000655651093
v -1.0253517627716064 0.4817165732383728 0.16500000655651093
v -1.0010042190551758 0.47216087579727173 0.16500000655651093
v -0.9783528447151184 0.45908311009407043 0.16500000655651093
v -0.9579036235809326 0.4427753984928131 0.16500000655651093
v -0.940113365650177 0.42360204458236694 0.16500000655651093
v -0.9253793954849243 0.4019913077354431 0.16500000655651093
v -0.9140309691429138 0.3784259855747223 0.16500000655651093
v -0.9063214659690857 0.35343247652053833 0.16500000655651093
v -0.9024232029914856 0.3275690972805023 0.16500000655651093
v -0.9024232029914856 0.30141356587409973 0.16500000655651093
v -0.9063214659690857 0.27555015683174133 0.16500000655651093
v -0.9140309691429138 0.2505566477775574 0.16500000655651093
v -0.9253793954849243 0.22699131071567535 0.16500000655651093
v -0.940113365650177 0.2053806036710739 0.16500000655651093
v -0.9579036235809326 0.18620723485946655 0.16500000655651093
v -0.9783528447151184 0.16989953815937042 0.16500000655651093
v -1.0010042190551758 0.15682177245616913 0.16500000655651093
v -1.0253517627716064 0.14726607501506805 0.16500000655651093
v -1.0508514642715454 0.14144591987133026 0.16500000655651093
v -1.0769338607788086 0.13949131965637207 0.16500000655651093
vn 1.7483826763446707e-16 1.0 -0.0
vn 1.7483826763446707e-16 1.0 -0.0
vn 1.7483826763446707e-16 1.0 -0.0
vn 1.7483826763446707e-16 1.0 -0.0
vn 0.0 -1.0 -0.0
vn 0.1490422636270523 -0.9888308048248291 -0.0
vn 0.29475516080856323 -0.955572783946991 -0.0
vn 0.4338837265968323 -0.9009688496589661 -0.0
vn 0.5633200407028198 -0.826238751411438 -0.0
vn 0.6801727414131165 -0.7330518960952759 -0.0
vn 0.7818315029144287 -0.6234897971153259 -0.0
vn 0.8660253882408142 -0.5 -0.0
vn 0.9308737516403198 -0.36534103751182556 -0.0
vn 0.9749279022216797 -0.22252093255519867 -0.0
vn 0.9972038269042969 -0.07473009079694748 -0.0
vn 0.9972038269042969 0.07473009079694748 -0.0
vn 0.9749279022216797 0.22252093255519867 -0.0
vn 0.9308737516403198 0.36534103751182556 -0.0
vn 0.8660253882408142 0.5 -0.0
vn 0.7818315029144287 0.6234897971153259 -0.0
vn 0.6801727414131165 0.7330518960952759 -0.0
vn 0.5633200407028198 0.826238751411438 -0.0
vn 0.4338837265968323 0.9009688496589661 -0.0
vn 0.29475516080856323 0.955572783946991 -0.0
vn 0.1490422636270523 0.9888308048248291 -0.0
vn 1.2246468525851679e-16 1.0 -0.0
vn 1.2246468525851679e-16 1.0 -0.0
vn 0.1490422636270523 0.9888308048248291 -0.0
vn 0.29475516080856323 0.955572783946991 -0.0
vn 0.4338837265968323 0.9009688496589661 -0.0
vn 0.5633200407028198 0.826238751411438 -0.0
vn 0.6801727414131165 0.7330518960952759 -0.0
vn 0.7818315029144287 0.6234897971153259 -0.0
vn 0.8660253882408142 0.5 -0.0
vn 0.9308737516403198 0.36534103751182556 -0.0
vn 0.9749279022216797 0.22252093255519867 -0.0
vn 0.9972038269042969 0.07473009079694748 -0.0
vn 0.9972038269042969 -0.07473009079694748 -0.0
vn 0.9749279022216797 -0.22252093255519867 -0.0
vn 0.9308737516403198 -0.36534103751182556 -0.0
vn 0.8660253882408142 -0.5 -0.0
vn 0.7818315029144287 -0.6234897971153259 -0.0
vn 0.6801727414131165 -0.7330518960952759 -0.0
vn 0.5633200407028198 -0.826238751411438 -0.0
vn 0.4338837265968323 -0.9009688496589661 -0.0
vn 0.29475516080856323 -0.955572783946991 -0.0
vn 0.1490422636270523 -0.9888308048248291 -0.0
vn 0.0 -1.0 -0.0
vn -1.7483826763446707e-16 -1.0 0.0
vn -1.7483826763446707e-16 -1.0 0.0
vn -1.7483826763446707e-16 -1.0 0.0
vn -1.7483826763446707e-16 -1.0 0.0
vn -0.0 1.0 -0.0
vn -0.1490422636270523 0.9888308048248291 -0.0
vn -0.29475516080856323 0.955572783946991 -0.0
vn -0.4338837265968323 0.9009688496589661 -0.0
vn -0.5633200407028198 0.826238751411438 -0.0
vn -0.6801727414131165 0.7330518960952759 -0.0
vn -0.7818315029144287 0.6234897971153259 -0.0
vn -0.8660253882408142 0.5 -0.0
vn -0.9308737516403198 0.36534103751182556 -0.0
vn -0.9749279022216797 0.22252093255519867 -0.0
vn -0.9972038269042969 0.07473009079694748 -0.0
vn -0.9972038269042969 -0.07473009079694748 0.0
vn -0.9749279022216797 -0.22252093255519867 0.0
vn -0.9308737516403198 -0.36534103751182556 0.0
vn -0.8660253882408142 -0.5 0.0
vn -0.7818315029144287 -0.6234897971153259 0.0
vn -0.6801727414131165 -0.7330518960952759 0.0
vn -0.5633200407028198 -0.826238751411438 0.0
vn -0.4338837265968323 -0.9009688496589661 0.0
vn -0.29475516080856323 -0.955572783946991 0.0
vn -0.1490422636270523 -0.9888308048248291 0.0
vn -1.2246468525851679e-16 -1.0 0.0
vn -1.2246468525851679e-16 -1.0 0.0
vn -0.1490422636270523 -0.9888308048248291 0.0
vn -0.29475516080856323 -0.955572783946991 0.0
vn -0.4338837265968323 -0.9009688496589661 0.0
vn -0.5633200407028198 -0.826238751411438 0.0
vn -0.6801727414131165 -0.7330518960952759 0.0
vn -0.7818315029144287 -0.6234897971153259 0.0
vn -0.8660253882408142 -0.5 0.0
vn -0.9308737516403198 -0.36534103751182556 0.0
vn -0.9749279022216797 -0.22252093255519867 0.0
vn -0.9972038269042969 -0.07473009079694748 0.0
vn -0.9972038269042969 0.07473009079694748 -0.0
vn -0.9749279022216797 0.22252093255519867 -0.0
vn -0.9308737516403198 0.36534103751182556 -0.0
vn -0.8660253882408142 0.5 -0.0
vn -0.7818315029144287 0.6234897971153259 -0.0
vn -0.6801727414131165 0.7330518960952759 -0.0
vn -0.5633200407028198 0.826238751411438 -0.0
vn -0.4338837265968323 0.9009688496589661 -0.0
vn -0.29475516080856323 0.955572783946991 -0.0
vn -0.1490422636270523 0.9888308048248291 -0.0
vn -0.0 1.0 -0.0
vn 0.0 0.0 1.0
vn 0.0 0.0 1.0
vn 0.0 0.0 1.0
vn 0.0 0.0 1.0
vn 0.0 0.0 1.0
vn 0.0 0.0 1.0
vn 0.0 0.0 1.0
vn 0.0 0.0 1.0
vn 0.0 0.0 1.0
vn 0.0 0.0 1.0
vn 0.0 0.0 1.0
vn 0.0 0.0 1.0
vn 0.0 0.0 1.0
vn 0.0 0.0 1.0
vn 0.0 0.0 1.0
vn 0.0 0.0 1.0
vn 0.0 0.0 1.0
vn 0.0 0.0 1.0
vn 0.0 0.0 1.0
vn 0.0 0.0 1.0
vn 0.0 0.0 1.0
vn 0.0 0.0 1.0
vn 0.0 0.0 1.0
vn 0.0 0.0 1.0
vn 0.0 0.0 1.0
vn 0.0 0.0 1.0
vn 0.0 0.0 1.0
vn 0.0 0.0 1.0
vn 0.0 0.0 1.0
vn 0.0 0.0 1.0
vn 0.0 0.0 1.0
vn 0.0 0.0 1.0
vn 0.0 0.0 1.0
vn 0.0 0.0 1.0
vn 0.0 0.0 1.0
vn 0.0 0.0 1.0
vn 0.0 0.0 1.0
vn 0.0 0.0 1.0
vn 0.0 0.0 1.0
vn 0.0 0.0 1.0
vn 0.0 0.0 1.0
vn 0.0 0.0 1.0
vn 0.0 0.0 1.0
vn 0.0 0.0 1.0
vn -0.0 -0.0 -1.0
vn -0.0 -0.0 -1.0
vn -0.0 -0.0 -1.0
vn -0.0 -0.0 -1.0
vn -0.0 -0.0 -1.0
vn -0.0 -0.0 -1.0
vn -0.0 -0.0 -1.0
vn -0.0 -0.0 -1.0
vn -0.0 -0.0 -1.0
vn -0.0 -0.0 -1.0
vn -0.0 -0.0 -1.0
vn -0.0 -0.0 -1.0
vn -0.0 -0.0 -1.0
vn -0.0 -0.0 -1.0
vn -0.0 -0.0 -1.0
vn -0.0 -0.0 -1.0
vn -0.0 -0.0 -1.0
vn -0.0 -0.0 -1.0
vn -0.0 -0.0 -1.0
vn -0.0 -0.0 -1.0
vn -0.0 -0.0 -1.0
vn -0.0 -0.0 -1.0
vn -0.0 -0.0 -1.0
vn -0.0 -0.0 -1.0
vn -0.0 -0.0 -1.0
vn -0.0 -0.0 -1.0
vn -0.0 -0.0 -1.0
vn -0.0 -0.0 -1.0
vn -0.0 -0.0 -1.0
vn -0.0 -0.0 -1.0
vn -0.0 -0.0 -1.0
vn -0.0 -0.0 -1.0
vn -0.0 -0.0 -1.0
vn -0.0 -0.0 -1.0
vn -0.0 -0.0 -1.0
vn -0.0 -0.0 -1.0
vn -0.0 -0.0 -1.0
vn -0.0 -0.0 -1.0
vn -0.0 -0.0 -1.0
vn -0.0 -0.0 -1.0
vn -0.0 -0.0 -1.0
vn -0.0 -0.0 -1.0
vn -0.0 -0.0 -1.0
vn -0.0 -0.0 -1.0
g a6c74800-e33a-11ea-bdfd-54bf646e7e1f
f 1//1 2//2 4//4
f 4//4 2//2 3//3
g a6c9e006-e33a-11ea-9a2c-54bf646e7e1f
f 48//48 5//5 47//47
f 47//47 5//5 6//6
f 47//47 6//6 46//46
f 46//46 6//6 7//7
f 46//46 7//7 45//45
f 45//45 7//7 8//8
f 45//45 8//8 44//44
f 44//44 8//8 9//9
f 44//44 9//9 43//43
f 43//43 9//9 10//10
f 43//43 10//10 42//42
f 42//42 10//10 11//11
f 42//42 11//11 41//41
f 41//41 11//11 12//12
f 41//41 12//12 40//40
f 40//40 12//12 13//13
f 40//40 13//13 39//39
f 39//39 13//13 14//14
f 39//39 14//14 38//38
f 38//38 14//14 15//15
f 38//38 15//15 37//37
f 37//37 15//15 16//16
f 37//37 16//16 36//36
f 36//36 16//16 17//17
f 36//36 17//17 35//35
f 35//35 17//17 18//18
f 35//35 18//18 34//34
f 34//34 18//18 19//19
f 34//34 19//19 33//33
f 33//33 19//19 20//20
f 33//33 20//20 32//32
f 32//32 20//20 21//21
f 32//32 21//21 31//31
f 31//31 21//21 22//22
f 31//31 22//22 30//30
f 30//30 22//22 23//23
f 30//30 23//23 29//29
f 29//29 23//23 24//24
f 29//29 24//24 28//28
f 28//28 24//24 25//25
f 28//28 25//25 27//27
f 27//27 25//25 26//26
g a6cc50a8-e33a-11ea-b2ea-54bf646e7e1f
f 49//49 50//50 52//52
f 52//52 50//50 51//51
g a6cec1a6-e33a-11ea-b960-54bf646e7e1f
f 96//96 53//53 95//95
f 95//95 53//53 54//54
f 95//95 54//54 94//94
f 94//94 54//54 55//55
f 94//94 55//55 93//93
f 93//93 55//55 56//56
f 93//93 56//56 92//92
f 92//92 56//56 57//57
f 92//92 57//57 91//91
f 91//91 57//57 58//58
f 91//91 58//58 90//90
f 90//90 58//58 59//59
f 90//90 59//59 89//89
f 89//89 59//59 60//60
f 89//89 60//60 88//88
f 88//88 60//60 61//61
f 88//88 61//61 87//87
f 87//87 61//61 62//62
f 87//87 62//62 86//86
f 86//86 62//62 63//63
f 86//86 63//63 85//85
f 85//85 63//63 64//64
f 85//85 64//64 84//84
f 84//84 64//64 65//65
f 84//84 65//65 83//83
f 83//83 65//65 66//66
f 83//83 66//66 82//82
f 82//82 66//66 67//67
f 82//82 67//67 81//81
f 81//81 67//67 68//68
f 81//81 68//68 80//80
f 80//80 68//68 69//69
f 80//80 69//69 79//79
f 79//79 69//69 70//70
f 79//79 70//70 78//78
f 78//78 70//70 71//71
f 78//78 71//71 77//77
f 77//77 71//71 72//72
f 77//77 72//72 76//76
f 76//76 72//72 73//73
f 76//76 73//73 75//75
f 75//75 73//73 74//74
g a6d0481c-e33a-11ea-8224-54bf646e7e1f
f 98//98 99//99 97//97
f 97//97 99//99 100//100
f 97//97 100//100 101//101
f 101//101 102//102 97//97
f 97//97 102//102 103//103
f 97//97 103//103 104//104
f 104//104 105//105 97//97
f 97//97 105//105 106//106
f 97//97 106//106 107//107
f 97//97 107//107 118//118
f 118//118 107//107 108//108
f 118//118 108//108 109//109
f 109//109 110//110 118//118
f 118//118 110//110 111//111
f 118//118 111//111 112//112
f 112//112 113//113 118//118
f 118//118 113//113 114//114
f 118//118 114//114 115//115
f 115//115 116//116 118//118
f 118//118 116//116 117//117
f 118//118 119//119 97//97
f 97//97 119//119 140//140
f 140//140 119//119 130//130
f 140//140 130//130 131//131
f 120//120 121//121 119//119
f 119//119 121//121 122//122
f 119//119 122//122 123//123
f 123//123 124//124 119//119
f 119//119 124//124 125//125
f 119//119 125//125 126//126
f 126//126 127//127 119//119
f 119//119 127//127 128//128
f 119//119 128//128 129//129
f 129//129 130//130 119//119
f 131//131 132//132 140//140
f 140//140 132//132 133//133
f 140//140 133//133 134//134
f 134//134 135//135 140//140
f 140//140 135//135 136//136
f 140//140 136//136 137//137
f 137//137 138//138 140//140
f 140//140 138//138 139//139
g a6d1cec2-e33a-11ea-9f1c-54bf646e7e1f
f 142//142 143//143 141//141
f 141//141 143//143 144//144
f 141//141 144//144 145//145
f 145//145 146//146 141//141
f 141//141 146//146 147//147
f 141//141 147//147 148//148
f 148//148 149//149 141//141
f 141//141 149//149 150//150
f 141//141 150//150 151//151
f 151//151 152//152 141//141
f 141//141 152//152 162//162
f 141//141 162//162 163//163
f 152//152 153//153 162//162
f 162//162 153//153 154//154
f 162//162 154//154 155//155
f 155//155 156//156 162//162
f 162//162 156//156 157//157
f 162//162 157//157 158//158
f 158//158 159//159 162//162
f 162//162 159//159 160//160
f 162//162 160//160 161//161
f 164//164 165//165 163//163
f 163//163 165//165 166//166
f 163//163 166//166 167//167
f 167//167 168//168 163//163
f 163//163 168//168 169//169
f 163//163 169//169 170//170
f 170//170 171//171 163//163
f 163//163 171//171 172//172
f 163//163 172//172 173//173
f 163//163 173//173 184//184
f 184//184 173//173 174//174
f 184//184 174//174 175//175
f 175//175 176//176 184//184
f 184//184 176//176 177//177
f 184//184 177//177 178//178
f 178//178 179//179 184//184
f 184//184 179//179 180//180
f 184//184 180//180 181//181
f 181//181 182//182 184//184
f 184//184 182//182 183//183
f 184//184 141//141 163//163

# End of file