# WaveFront *.obj file
# Vertices: 24
# Triangles : 12

v 9.027901649475098 0.0 3.0274288654327393
v 9.027901649475098 0.0 4.0
v 9.027901649475098 4.5 4.0
v 9.027901649475098 4.5 3.0274288654327393
v 10.0 0.0 3.0274288654327393
v 9.027901649475098 0.0 3.0274288654327393
v 9.027901649475098 4.5 3.0274288654327393
v 10.0 4.5 3.0274288654327393
v 10.0 0.0 4.0
v 10.0 0.0 3.0274288654327393
v 10.0 4.5 3.0274288654327393
v 10.0 4.5 4.0
v 9.027901649475098 0.0 4.0
v 10.0 0.0 4.0
v 10.0 4.5 4.0
v 9.027901649475098 4.5 4.0
v 9.027901649475098 4.5 4.0
v 10.0 4.5 4.0
v 10.0 4.5 3.0274288654327393
v 9.027901649475098 4.5 3.0274288654327393
v 10.0 0.0 4.0
v 9.027901649475098 0.0 4.0
v 9.027901649475098 0.0 3.0274288654327393
v 10.0 0.0 3.0274288654327393
vn -1.0 0.0 0.0
vn -1.0 0.0 0.0
vn -1.0 0.0 0.0
vn -1.0 0.0 0.0
vn 0.0 0.0 -1.0
vn 0.0 0.0 -1.0
vn 0.0 0.0 -1.0
vn 0.0 0.0 -1.0
vn 1.0 0.0 0.0
vn 1.0 0.0 0.0
vn 1.0 0.0 0.0
vn 1.0 0.0 0.0
vn 0.0 -0.0 1.0
vn 0.0 -0.0 1.0
vn 0.0 -0.0 1.0
vn 0.0 -0.0 1.0
vn 0.0 1.0 0.0
vn 0.0 1.0 0.0
vn 0.0 1.0 0.0
vn 0.0 1.0 0.0
vn -0.0 -1.0 -0.0
vn -0.0 -1.0 -0.0
vn -0.0 -1.0 -0.0
vn -0.0 -1.0 -0.0
g f71b0c86-e335-11ea-afb7-54bf646e7e1f
f 1//1 2//2 4//4
f 4//4 2//2 3//3
g f71b33b0-e335-11ea-a870-54bf646e7e1f
f 5//5 6//6 8//8
f 8//8 6//6 7//7
g f71b5aa4-e335-11ea-b735-54bf646e7e1f
f 9//9 10//10 12//12
f 12//12 10//10 11//11
g f71b81b0-e335-11ea-b558-54bf646e7e1f
f 13//13 14//14 16//16
f 16//16 14//14 15//15
g f71bcfd0-e335-11ea-8ce1-54bf646e7e1f
f 18//18 19//19 17//17
f 17//17 19//19 20//20
g f71bf702-e335-11ea-b94e-54bf646e7e1f
f 21//21 22//22 24//24
f 24//24 22//22 23//23

# End of file