# WaveFront *.obj file
# Vertices: 184
# Triangles : 148

v 0.28203722834587097 -0.4235985279083252 0.0
v 0.6757522821426392 -0.4235985279083252 0.0
v 0.6757522821426392 -0.4235985279083252 0.07699999958276749
v 0.28203722834587097 -0.4235985279083252 0.07699999958276749
v 0.24734251201152802 -0.4375946819782257 0.0
v 0.25757360458374023 -0.4299919903278351 0.0
v 0.26939457654953003 -0.42522329092025757 0.0
v 0.28203722834587097 -0.4235985279083252 0.0
v 0.28203722834587097 -0.4235985279083252 0.07699999958276749
v 0.26939457654953003 -0.42522329092025757 0.07699999958276749
v 0.25757360458374023 -0.4299919903278351 0.07699999958276749
v 0.24734251201152802 -0.4375946819782257 0.07699999958276749
v 0.12919287383556366 -0.5514483451843262 0.0
v 0.24734251201152802 -0.4375946819782257 0.0
v 0.24734251201152802 -0.4375946819782257 0.07699999958276749
v 0.12919287383556366 -0.5514483451843262 0.07699999958276749
v -0.03009810484945774 -0.5514483451843262 0.0
v 0.12919287383556366 -0.5514483451843262 0.0
v 0.12919287383556366 -0.5514483451843262 0.07699999958276749
v -0.03009810484945774 -0.5514483451843262 0.07699999958276749
v -0.03009810484945774 -0.47764402627944946 0.0
v -0.03009810484945774 -0.5514483451843262 0.0
v -0.03009810484945774 -0.5514483451843262 0.07699999958276749
v -0.03009810484945774 -0.47764402627944946 0.07699999958276749
v -0.14042086899280548 -0.47764402627944946 0.0
v -0.03009810484945774 -0.47764402627944946 0.0
v -0.03009810484945774 -0.47764402627944946 0.07699999958276749
v -0.14042086899280548 -0.47764402627944946 0.07699999958276749
v -0.1612377017736435 -0.48604172468185425 0.0
v -0.1550990492105484 -0.48148012161254883 0.0
v -0.14800645411014557 -0.47861889004707336 0.0
v -0.14042086899280548 -0.47764402627944946 0.0
v -0.14042086899280548 -0.47764402627944946 0.07699999958276749
v -0.14800645411014557 -0.47861889004707336 0.07699999958276749
v -0.1550990492105484 -0.48148012161254883 0.07699999958276749
v -0.1612377017736435 -0.48604172468185425 0.07699999958276749
v -0.22911226749420166 -0.5514483451843262 0.0
v -0.1612377017736435 -0.48604172468185425 0.0
v -0.1612377017736435 -0.48604172468185425 0.07699999958276749
v -0.22911226749420166 -0.5514483451843262 0.07699999958276749
v -0.6792476773262024 -0.5514483451843262 0.0
v -0.22911226749420166 -0.5514483451843262 0.0
v -0.22911226749420166 -0.5514483451843262 0.07699999958276749
v -0.6792476773262024 -0.5514483451843262 0.07699999958276749
v -0.7442476749420166 -0.48644834756851196 0.0
v -0.7410663366317749 -0.5065344572067261 0.0
v -0.731833815574646 -0.5246543884277344 0.0
v -0.7174537181854248 -0.5390344262123108 0.0
v -0.6993337869644165 -0.5482670068740845 0.0
v -0.6792476773262024 -0.5514483451843262 0.0
v -0.6792476773262024 -0.5514483451843262 0.07699999958276749
v -0.6993337869644165 -0.5482670068740845 0.07699999958276749
v -0.7174537181854248 -0.5390344262123108 0.07699999958276749
v -0.731833815574646 -0.5246543884277344 0.07699999958276749
v -0.7410663366317749 -0.5065344572067261 0.07699999958276749
v -0.7442476749420166 -0.48644834756851196 0.07699999958276749
v -0.7442476749420166 0.4833930432796478 0.0
v -0.7442476749420166 -0.48644834756851196 0.0
v -0.7442476749420166 -0.48644834756851196 0.07699999958276749
v -0.7442476749420166 0.4833930432796478 0.07699999958276749
v -0.6792476773262024 0.5483930110931396 0.0
v -0.6993337869644165 0.5452117323875427 0.0
v -0.7174537181854248 0.535979151725769 0.0
v -0.731833815574646 0.5215990543365479 0.0
v -0.7410663366317749 0.5034791231155396 0.0
v -0.7442476749420166 0.4833930432796478 0.0
v -0.7442476749420166 0.4833930432796478 0.07699999958276749
v -0.7410663366317749 0.5034791231155396 0.07699999958276749
v -0.731833815574646 0.5215990543365479 0.07699999958276749
v -0.7174537181854248 0.535979151725769 0.07699999958276749
v -0.6993337869644165 0.5452117323875427 0.07699999958276749
v -0.6792476773262024 0.5483930110931396 0.07699999958276749
v 0.6757522821426392 0.5483930110931396 0.0
v -0.6792476773262024 0.5483930110931396 0.0
v -0.6792476773262024 0.5483930110931396 0.07699999958276749
v 0.6757522821426392 0.5483930110931396 0.07699999958276749
v 0.7557523250579834 0.4683930277824402 0.0
v 0.7530263662338257 0.48909854888916016 0.0
v 0.7450343370437622 0.5083930492401123 0.0
v 0.7323208451271057 0.5249615907669067 0.0
v 0.7157523036003113 0.5376750826835632 0.0
v 0.6964578032493591 0.5456671118736267 0.0
v 0.6757522821426392 0.5483930110931396 0.0
v 0.6757522821426392 0.5483930110931396 0.07699999958276749
v 0.6964578032493591 0.5456671118736267 0.07699999958276749
v 0.7157523036003113 0.5376750826835632 0.07699999958276749
v 0.7323208451271057 0.5249615907669067 0.07699999958276749
v 0.7450343370437622 0.5083930492401123 0.07699999958276749
v 0.7530263662338257 0.48909854888916016 0.07699999958276749
v 0.7557523250579834 0.4683930277824402 0.07699999958276749
v 0.7557523250579834 -0.34359851479530334 0.0
v 0.7557523250579834 0.4683930277824402 0.0
v 0.7557523250579834 0.4683930277824402 0.07699999958276749
v 0.7557523250579834 -0.34359851479530334 0.07699999958276749
v 0.6757522821426392 -0.4235985279083252 0.0
v 0.6964578032493591 -0.42087259888648987 0.0
v 0.7157523036003113 -0.4128805696964264 0.0
v 0.7323208451271057 -0.4001670777797699 0.0
v 0.7450343370437622 -0.38359853625297546 0.0
v 0.7530263662338257 -0.3643040657043457 0.0
v 0.7557523250579834 -0.34359851479530334 0.0
v 0.7557523250579834 -0.34359851479530334 0.07699999958276749
v 0.7530263662338257 -0.3643040657043457 0.07699999958276749
v 0.7450343370437622 -0.38359853625297546 0.07699999958276749
v 0.7323208451271057 -0.4001670777797699 0.07699999958276749
v 0.7157523036003113 -0.4128805696964264 0.07699999958276749
v 0.6964578032493591 -0.42087259888648987 0.07699999958276749
v 0.6757522821426392 -0.4235985279083252 0.07699999958276749
v 0.6757522821426392 -0.4235985279083252 0.07699999958276749
v 0.6964578032493591 -0.42087259888648987 0.07699999958276749
v 0.7157523036003113 -0.4128805696964264 0.07699999958276749
v 0.7323208451271057 -0.4001670777797699 0.07699999958276749
v 0.7450343370437622 -0.38359853625297546 0.07699999958276749
v 0.7530263662338257 -0.3643040657043457 0.07699999958276749
v 0.7557523250579834 -0.34359851479530334 0.07699999958276749
v 0.7557523250579834 0.4683930277824402 0.07699999958276749
v 0.7530263662338257 0.48909854888916016 0.07699999958276749
v 0.7450343370437622 0.5083930492401123 0.07699999958276749
v 0.7323208451271057 0.5249615907669067 0.07699999958276749
v 0.7157523036003113 0.5376750826835632 0.07699999958276749
v 0.6964578032493591 0.5456671118736267 0.07699999958276749
v 0.6757522821426392 0.5483930110931396 0.07699999958276749
v -0.6792476773262024 0.5483930110931396 0.07699999958276749
v -0.6993337869644165 0.5452117323875427 0.07699999958276749
v -0.7174537181854248 0.535979151725769 0.07699999958276749
v -0.731833815574646 0.5215990543365479 0.07699999958276749
v -0.7410663366317749 0.5034791231155396 0.07699999958276749
v -0.7442476749420166 0.4833930432796478 0.07699999958276749
v -0.7442476749420166 -0.48644834756851196 0.07699999958276749
v -0.7410663366317749 -0.5065344572067261 0.07699999958276749
v -0.731833815574646 -0.5246543884277344 0.07699999958276749
v -0.7174537181854248 -0.5390344262123108 0.07699999958276749
v -0.6993337869644165 -0.5482670068740845 0.07699999958276749
v -0.6792476773262024 -0.5514483451843262 0.07699999958276749
v -0.22911226749420166 -0.5514483451843262 0.07699999958276749
v -0.1612377017736435 -0.48604172468185425 0.07699999958276749
v -0.1550990492105484 -0.48148012161254883 0.07699999958276749
v -0.14800645411014557 -0.47861889004707336 0.07699999958276749
v -0.14042086899280548 -0.47764402627944946 0.07699999958276749
v -0.03009810484945774 -0.47764402627944946 0.07699999958276749
v -0.03009810484945774 -0.5514483451843262 0.07699999958276749
v 0.12919287383556366 -0.5514483451843262 0.07699999958276749
v 0.24734251201152802 -0.4375946819782257 0.07699999958276749
v 0.25757360458374023 -0.4299919903278351 0.07699999958276749
v 0.26939457654953003 -0.42522329092025757 0.07699999958276749
v 0.28203722834587097 -0.4235985279083252 0.07699999958276749
v 0.7557523250579834 -0.34359851479530334 0.0
v 0.7530263662338257 -0.3643040657043457 0.0
v 0.7450343370437622 -0.38359853625297546 0.0
v 0.7323208451271057 -0.4001670777797699 0.0
v 0.7157523036003113 -0.4128805696964264 0.0
v 0.6964578032493591 -0.42087259888648987 0.0
v 0.6757522821426392 -0.4235985279083252 0.0
v 0.28203722834587097 -0.4235985279083252 0.0
v 0.26939457654953003 -0.42522329092025757 0.0
v 0.25757360458374023 -0.4299919903278351 0.0
v 0.24734251201152802 -0.4375946819782257 0.0
v 0.12919287383556366 -0.5514483451843262 0.0
v -0.03009810484945774 -0.5514483451843262 0.0
v -0.03009810484945774 -0.47764402627944946 0.0
v -0.14042086899280548 -0.47764402627944946 0.0
v -0.14800645411014557 -0.47861889004707336 0.0
v -0.1550990492105484 -0.48148012161254883 0.0
v -0.1612377017736435 -0.48604172468185425 0.0
v -0.22911226749420166 -0.5514483451843262 0.0
v -0.6792476773262024 -0.5514483451843262 0.0
v -0.6993337869644165 -0.5482670068740845 0.0
v -0.7174537181854248 -0.5390344262123108 0.0
v -0.731833815574646 -0.5246543884277344 0.0
v -0.7410663366317749 -0.5065344572067261 0.0
v -0.7442476749420166 -0.48644834756851196 0.0
v -0.7442476749420166 0.4833930432796478 0.0
v -0.7410663366317749 0.5034791231155396 0.0
v -0.731833815574646 0.5215990543365479 0.0
v -0.7174537181854248 0.535979151725769 0.0
v -0.6993337869644165 0.5452117323875427 0.0
v -0.6792476773262024 0.5483930110931396 0.0
v 0.6757522821426392 0.5483930110931396 0.0
v 0.6964578032493591 0.5456671118736267 0.0
v 0.7157523036003113 0.5376750826835632 0.0
v 0.7323208451271057 0.5249615907669067 0.0
v 0.7450343370437622 0.5083930492401123 0.0
v 0.7530263662338257 0.48909854888916016 0.0
v 0.7557523250579834 0.4683930277824402 0.0
vn 1.4099321334234938e-16 -1.0 0.0
vn 1.4099321334234938e-16 -1.0 0.0
vn 1.4099321334234938e-16 -1.0 0.0
vn 1.4099321334234938e-16 -1.0 0.0
vn 0.6938943862915039 -0.7200767993927002 0.0
vn 0.4892726540565491 -0.8721308708190918 0.0
vn 0.2528528571128845 -0.9675047397613525 0.0
vn 4.440892098500626e-15 -1.0 0.0
vn 4.440892098500626e-15 -1.0 0.0
vn 0.2528528571128845 -0.9675047397613525 0.0
vn 0.4892726540565491 -0.8721308708190918 0.0
vn 0.6938943862915039 -0.7200767993927002 0.0
vn 0.6938943862915039 -0.7200767993927002 0.0
vn 0.6938943862915039 -0.7200767993927002 0.0
vn 0.6938943862915039 -0.7200767993927002 0.0
vn 0.6938943862915039 -0.7200767993927002 0.0
vn 0.0 -1.0 0.0
vn 0.0 -1.0 0.0
vn 0.0 -1.0 0.0
vn 0.0 -1.0 0.0
vn -1.0 9.40174701837633e-16 0.0
vn -1.0 9.40174701837633e-16 0.0
vn -1.0 9.40174701837633e-16 0.0
vn -1.0 9.40174701837633e-16 0.0
vn 0.0 -1.0 0.0
vn 0.0 -1.0 0.0
vn 0.0 -1.0 0.0
vn 0.0 -1.0 0.0
vn 0.6938943862915039 -0.7200767993927002 0.0
vn 0.4892726540565491 -0.8721308708190918 0.0
vn 0.2528528571128845 -0.9675047397613525 0.0
vn -1.8503716371225153e-15 -1.0 0.0
vn -9.251858185612576e-16 -1.0 0.0
vn 0.2528528571128845 -0.9675047397613525 0.0
vn 0.4892726540565491 -0.8721308708190918 0.0
vn 0.6938943862915039 -0.7200767993927002 0.0
vn 0.6938943862915039 -0.7200767993927002 0.0
vn 0.6938943862915039 -0.7200767993927002 0.0
vn 0.6938943862915039 -0.7200767993927002 0.0
vn 0.6938943862915039 -0.7200767993927002 0.0
vn -2.4664199172704296e-16 -1.0 0.0
vn -2.4664199172704296e-16 -1.0 0.0
vn -2.4664199172704296e-16 -1.0 0.0
vn -2.4664199172704296e-16 -1.0 0.0
vn -1.0 8.540176868164777e-16 -0.0
vn -0.9510565400123596 -0.30901700258255005 0.0
vn -0.80901700258255 -0.5877852439880371 0.0
vn -0.5877852439880371 -0.80901700258255 0.0
vn -0.30901700258255005 -0.9510565400123596 0.0
vn 1.7492852428895294e-15 -1.0 -0.0
vn 1.7492852428895294e-15 -1.0 -0.0
vn -0.30901700258255005 -0.9510565400123596 0.0
vn -0.5877852439880371 -0.80901700258255 0.0
vn -0.80901700258255 -0.5877852439880371 0.0
vn -0.9510565400123596 -0.30901700258255005 0.0
vn -1.0 8.540176868164777e-16 -0.0
vn -1.0 -1.1447470287640578e-16 0.0
vn -1.0 -1.1447470287640578e-16 0.0
vn -1.0 -1.1447470287640578e-16 0.0
vn -1.0 -1.1447470287640578e-16 0.0
vn 1.7080353736329554e-15 1.0 -0.0
vn -0.30901700258255005 0.9510565400123596 -0.0
vn -0.5877852439880371 0.80901700258255 -0.0
vn -0.80901700258255 0.5877852439880371 -0.0
vn -0.9510565400123596 0.30901700258255005 -0.0
vn -1.0 -7.089076815922356e-18 0.0
vn -1.0 8.81089336266758e-16 -0.0
vn -0.9510565400123596 0.30901700258255005 -0.0
vn -0.80901700258255 0.5877852439880371 -0.0
vn -0.5877852439880371 0.80901700258255 -0.0
vn -0.30901700258255005 0.9510565400123596 -0.0
vn 1.7080353736329554e-15 1.0 -0.0
vn 0.0 1.0 0.0
vn 0.0 1.0 0.0
vn 0.0 1.0 0.0
vn 0.0 1.0 0.0
vn 1.0 -3.469446951953614e-15 -0.0
vn 0.9659258127212524 0.258819043636322 -0.0
vn 0.8660253882408142 0.5 -0.0
vn 0.7071067690849304 0.7071067690849304 -0.0
vn 0.5 0.8660253882408142 -0.0
vn 0.258819043636322 0.9659258127212524 -0.0
vn -4.2408817851489946e-15 1.0 -0.0
vn -4.2408817851489946e-15 1.0 -0.0
vn 0.258819043636322 0.9659258127212524 -0.0
vn 0.5 0.8660253882408142 -0.0
vn 0.7071067690849304 0.7071067690849304 -0.0
vn 0.8660253882408142 0.5 -0.0
vn 0.9659258127212524 0.258819043636322 -0.0
vn 1.0 -3.469446951953614e-15 -0.0
vn 1.0 0.0 -0.0
vn 1.0 0.0 -0.0
vn 1.0 0.0 -0.0
vn 1.0 0.0 -0.0
vn 1.3877787807814457e-15 -1.0 -0.0
vn 0.258819043636322 -0.9659258127212524 -0.0
vn 0.5 -0.8660253882408142 -0.0
vn 0.7071067690849304 -0.7071067690849304 -0.0
vn 0.8660253882408142 -0.5 -0.0
vn 0.9659258127212524 -0.258819043636322 -0.0
vn 1.0 -5.721188916458728e-18 -0.0
vn 1.0 -5.721188916458728e-18 -0.0
vn 0.9659258127212524 -0.258819043636322 -0.0
vn 0.8660253882408142 -0.5 -0.0
vn 0.7071067690849304 -0.7071067690849304 -0.0
vn 0.5 -0.8660253882408142 -0.0
vn 0.258819043636322 -0.9659258127212524 -0.0
vn 1.3877787807814457e-15 -1.0 -0.0
vn 0.0 0.0 1.0
vn 0.0 0.0 1.0
vn 0.0 0.0 1.0
vn 0.0 0.0 1.0
vn 0.0 0.0 1.0
vn 0.0 0.0 1.0
vn 0.0 0.0 1.0
vn 0.0 0.0 1.0
vn 0.0 0.0 1.0
vn 0.0 0.0 1.0
vn 0.0 0.0 1.0
vn 0.0 0.0 1.0
vn 0.0 0.0 1.0
vn 0.0 0.0 1.0
vn 0.0 0.0 1.0
vn 0.0 0.0 1.0
vn 0.0 0.0 1.0
vn 0.0 0.0 1.0
vn 0.0 0.0 1.0
vn 0.0 0.0 1.0
vn 0.0 0.0 1.0
vn 0.0 0.0 1.0
vn 0.0 0.0 1.0
vn 0.0 0.0 1.0
vn 0.0 0.0 1.0
vn 0.0 0.0 1.0
vn 0.0 0.0 1.0
vn 0.0 0.0 1.0
vn 0.0 0.0 1.0
vn 0.0 0.0 1.0
vn 0.0 0.0 1.0
vn 0.0 0.0 1.0
vn 0.0 0.0 1.0
vn 0.0 0.0 1.0
vn 0.0 0.0 1.0
vn 0.0 0.0 1.0
vn 0.0 0.0 1.0
vn 0.0 0.0 1.0
vn -0.0 0.0 -1.0
vn -0.0 0.0 -1.0
vn -0.0 0.0 -1.0
vn -0.0 0.0 -1.0
vn -0.0 0.0 -1.0
vn -0.0 0.0 -1.0
vn -0.0 0.0 -1.0
vn -0.0 0.0 -1.0
vn -0.0 0.0 -1.0
vn -0.0 0.0 -1.0
vn -0.0 0.0 -1.0
vn -0.0 0.0 -1.0
vn -0.0 0.0 -1.0
vn -0.0 0.0 -1.0
vn -0.0 0.0 -1.0
vn -0.0 0.0 -1.0
vn -0.0 0.0 -1.0
vn -0.0 0.0 -1.0
vn -0.0 0.0 -1.0
vn -0.0 0.0 -1.0
vn -0.0 0.0 -1.0
vn -0.0 0.0 -1.0
vn -0.0 0.0 -1.0
vn -0.0 0.0 -1.0
vn -0.0 0.0 -1.0
vn -0.0 0.0 -1.0
vn -0.0 0.0 -1.0
vn -0.0 0.0 -1.0
vn -0.0 0.0 -1.0
vn -0.0 0.0 -1.0
vn -0.0 0.0 -1.0
vn -0.0 0.0 -1.0
vn -0.0 0.0 -1.0
vn -0.0 0.0 -1.0
vn -0.0 0.0 -1.0
vn -0.0 0.0 -1.0
vn -0.0 0.0 -1.0
vn -0.0 0.0 -1.0
g 6c69d4f4-e33a-11ea-9d4a-54bf646e7e1f
f 1//1 2//2 4//4
f 4//4 2//2 3//3
g 6c6fef58-e33a-11ea-ab70-54bf646e7e1f
f 12//12 5//5 11//11
f 11//11 5//5 6//6
f 11//11 6//6 7//7
f 8//8 9//9 7//7
f 7//7 9//9 10//10
f 7//7 10//10 11//11
g 6c7a4f64-e33a-11ea-9372-54bf646e7e1f
f 13//13 14//14 16//16
f 16//16 14//14 15//15
g 6caa8650-e33a-11ea-b1ce-54bf646e7e1f
f 17//17 18//18 20//20
f 20//20 18//18 19//19
g 6cb386c6-e33a-11ea-96dc-54bf646e7e1f
f 21//21 22//22 24//24
f 24//24 22//22 23//23
g 6cbc875a-e33a-11ea-91dd-54bf646e7e1f
f 25//25 26//26 28//28
f 28//28 26//26 27//27
g 6cc5aeec-e33a-11ea-943e-54bf646e7e1f
f 36//36 29//29 35//35
f 35//35 29//29 30//30
f 35//35 30//30 31//31
f 32//32 33//33 31//31
f 31//31 33//33 34//34
f 31//31 34//34 35//35
g 6cf9b662-e33a-11ea-ae31-54bf646e7e1f
f 37//37 38//38 40//40
f 40//40 38//38 39//39
g 6d02ddf0-e33a-11ea-9d86-54bf646e7e1f
f 41//41 42//42 44//44
f 44//44 42//42 43//43
g 6d0c2c86-e33a-11ea-ad14-54bf646e7e1f
f 56//56 45//45 55//55
f 55//55 45//45 46//46
f 55//55 46//46 54//54
f 54//54 46//46 47//47
f 54//54 47//47 53//53
f 53//53 47//47 48//48
f 53//53 48//48 52//52
f 52//52 48//48 49//49
f 52//52 49//49 51//51
f 51//51 49//49 50//50
g 6d155422-e33a-11ea-9816-54bf646e7e1f
f 57//57 58//58 60//60
f 60//60 58//58 59//59
g 6d1e54ac-e33a-11ea-b539-54bf646e7e1f
f 72//72 61//61 71//71
f 71//71 61//61 62//62
f 71//71 62//62 70//70
f 70//70 62//62 63//63
f 70//70 63//63 69//69
f 69//69 63//63 64//64
f 69//69 64//64 68//68
f 68//68 64//64 65//65
f 68//68 65//65 67//67
f 67//67 65//65 66//66
g 6d536d8c-e33a-11ea-be33-54bf646e7e1f
f 73//73 74//74 76//76
f 76//76 74//74 75//75
g 6d5ac05e-e33a-11ea-b5f3-54bf646e7e1f
f 90//90 77//77 89//89
f 89//89 77//77 78//78
f 89//89 78//78 88//88
f 88//88 78//78 79//79
f 88//88 79//79 87//87
f 87//87 79//79 80//80
f 87//87 80//80 86//86
f 86//86 80//80 81//81
f 86//86 81//81 85//85
f 85//85 81//81 82//82
f 85//85 82//82 84//84
f 84//84 82//82 83//83
g 6d6128ec-e33a-11ea-99f2-54bf646e7e1f
f 91//91 92//92 94//94
f 94//94 92//92 93//93
g 6d676a5c-e33a-11ea-9bc1-54bf646e7e1f
f 108//108 95//95 107//107
f 107//107 95//95 96//96
f 107//107 96//96 106//106
f 106//106 96//96 97//97
f 106//106 97//97 105//105
f 105//105 97//97 98//98
f 105//105 98//98 104//104
f 104//104 98//98 99//99
f 104//104 99//99 103//103
f 103//103 99//99 100//100
f 103//103 100//100 102//102
f 102//102 100//100 101//101
g 6d9382a8-e33a-11ea-97e4-54bf646e7e1f
f 110//110 111//111 109//109
f 109//109 111//111 112//112
f 109//109 112//112 113//113
f 113//113 114//114 109//109
f 109//109 114//114 115//115
f 109//109 115//115 146//146
f 146//146 115//115 116//116
f 146//146 116//116 122//122
f 122//122 116//116 117//117
f 122//122 117//117 118//118
f 118//118 119//119 122//122
f 122//122 119//119 120//120
f 122//122 120//120 121//121
f 146//146 122//122 145//145
f 145//145 122//122 123//123
f 145//145 123//123 140//140
f 140//140 123//123 139//139
f 139//139 123//123 128//128
f 139//139 128//128 138//138
f 138//138 128//128 137//137
f 137//137 128//128 129//129
f 137//137 129//129 136//136
f 136//136 129//129 135//135
f 135//135 129//129 134//134
f 134//134 129//129 130//130
f 134//134 130//130 131//131
f 124//124 125//125 123//123
f 123//123 125//125 126//126
f 123//123 126//126 127//127
f 127//127 128//128 123//123
f 131//131 132//132 134//134
f 134//134 132//132 133//133
f 141//141 142//142 140//140
f 140//140 142//142 143//143
f 140//140 143//143 144//144
f 144//144 145//145 140//140
g 6d9a3938-e33a-11ea-a8d7-54bf646e7e1f
f 148//148 153//153 147//147
f 147//147 153//153 154//154
f 147//147 154//154 184//184
f 184//184 154//154 178//178
f 184//184 178//178 183//183
f 183//183 178//178 182//182
f 182//182 178//178 181//181
f 181//181 178//178 180//180
f 180//180 178//178 179//179
f 148//148 149//149 153//153
f 153//153 149//149 150//150
f 153//153 150//150 151//151
f 151//151 152//152 153//153
f 154//154 155//155 178//178
f 178//178 155//155 177//177
f 177//177 155//155 160//160
f 177//177 160//160 161//161
f 155//155 156//156 160//160
f 160//160 156//156 157//157
f 160//160 157//157 158//158
f 158//158 159//159 160//160
f 177//177 161//161 172//172
f 172//172 161//161 162//162
f 172//172 162//162 163//163
f 172//172 163//163 171//171
f 171//171 163//163 164//164
f 171//171 164//164 165//165
f 165//165 166//166 171//171
f 171//171 166//166 170//170
f 170//170 166//166 169//169
f 169//169 166//166 168//168
f 168//168 166//166 167//167
f 172//172 173//173 177//177
f 177//177 173//173 174//174
f 177//177 174//174 175//175
f 175//175 176//176 177//177

# End of file