# WaveFront *.obj file
# Vertices: 184
# Triangles : 172

v 0.32235756516456604 0.9125000238418579 0.1599999964237213
v -0.32235756516456604 0.9125000238418579 0.1599999964237213
v -0.32235756516456604 0.9125000238418579 0.5149999856948853
v 0.32235756516456604 0.9125000238418579 0.5149999856948853
v 0.32235756516456604 0.5575000047683716 0.1599999964237213
v 0.3488125801086426 0.5594825148582458 0.1599999964237213
v 0.3746766149997711 0.5653858184814453 0.1599999964237213
v 0.3993719518184662 0.575078010559082 0.1599999964237213
v 0.42234688997268677 0.5883426070213318 0.1599999964237213
v 0.44308823347091675 0.6048833131790161 0.1599999964237213
v 0.461132675409317 0.6243305802345276 0.1599999964237213
v 0.4760770797729492 0.6462500095367432 0.1599999964237213
v 0.48758766055107117 0.670151948928833 0.1599999964237213
v 0.4954072833061218 0.695502519607544 0.1599999964237213
v 0.4993612468242645 0.721735417842865 0.1599999964237213
v 0.4993612468242645 0.7482646107673645 0.1599999964237213
v 0.4954072833061218 0.7744974493980408 0.1599999964237213
v 0.48758766055107117 0.7998480200767517 0.1599999964237213
v 0.4760770797729492 0.8237500190734863 0.1599999964237213
v 0.461132675409317 0.8456694483757019 0.1599999964237213
v 0.44308823347091675 0.8651167154312134 0.1599999964237213
v 0.42234688997268677 0.8816573619842529 0.1599999964237213
v 0.3993719518184662 0.8949219584465027 0.1599999964237213
v 0.3746766149997711 0.9046141505241394 0.1599999964237213
v 0.3488125801086426 0.9105174541473389 0.1599999964237213
v 0.32235756516456604 0.9125000238418579 0.1599999964237213
v 0.32235756516456604 0.9125000238418579 0.5149999856948853
v 0.3488125801086426 0.9105174541473389 0.5149999856948853
v 0.3746766149997711 0.9046141505241394 0.5149999856948853
v 0.3993719518184662 0.8949219584465027 0.5149999856948853
v 0.42234688997268677 0.8816573619842529 0.5149999856948853
v 0.44308823347091675 0.8651167154312134 0.5149999856948853
v 0.461132675409317 0.8456694483757019 0.5149999856948853
v 0.4760770797729492 0.8237500190734863 0.5149999856948853
v 0.48758766055107117 0.7998480200767517 0.5149999856948853
v 0.4954072833061218 0.7744974493980408 0.5149999856948853
v 0.4993612468242645 0.7482646107673645 0.5149999856948853
v 0.4993612468242645 0.721735417842865 0.5149999856948853
v 0.4954072833061218 0.695502519607544 0.5149999856948853
v 0.48758766055107117 0.670151948928833 0.5149999856948853
v 0.4760770797729492 0.6462500095367432 0.5149999856948853
v 0.461132675409317 0.6243305802345276 0.5149999856948853
v 0.44308823347091675 0.6048833131790161 0.5149999856948853
v 0.42234688997268677 0.5883426070213318 0.5149999856948853
v 0.3993719518184662 0.575078010559082 0.5149999856948853
v 0.3746766149997711 0.5653858184814453 0.5149999856948853
v 0.3488125801086426 0.5594825148582458 0.5149999856948853
v 0.32235756516456604 0.5575000047683716 0.5149999856948853
v -0.32235756516456604 0.5575000047683716 0.1599999964237213
v 0.32235756516456604 0.5575000047683716 0.1599999964237213
v 0.32235756516456604 0.5575000047683716 0.5149999856948853
v -0.32235756516456604 0.5575000047683716 0.5149999856948853
v -0.32235756516456604 0.9125000238418579 0.1599999964237213
v -0.3488125801086426 0.9105174541473389 0.1599999964237213
v -0.3746766149997711 0.9046141505241394 0.1599999964237213
v -0.3993719518184662 0.8949219584465027 0.1599999964237213
v -0.42234688997268677 0.8816573619842529 0.1599999964237213
v -0.44308823347091675 0.8651167154312134 0.1599999964237213
v -0.461132675409317 0.8456694483757019 0.1599999964237213
v -0.4760770797729492 0.8237500190734863 0.1599999964237213
v -0.48758766055107117 0.7998480200767517 0.1599999964237213
v -0.4954072833061218 0.7744974493980408 0.1599999964237213
v -0.4993612468242645 0.7482646107673645 0.1599999964237213
v -0.4993612468242645 0.721735417842865 0.1599999964237213
v -0.4954072833061218 0.695502519607544 0.1599999964237213
v -0.48758766055107117 0.670151948928833 0.1599999964237213
v -0.4760770797729492 0.6462500095367432 0.1599999964237213
v -0.461132675409317 0.6243305802345276 0.1599999964237213
v -0.44308823347091675 0.6048833131790161 0.1599999964237213
v -0.42234688997268677 0.5883426070213318 0.1599999964237213
v -0.3993719518184662 0.575078010559082 0.1599999964237213
v -0.3746766149997711 0.5653858184814453 0.1599999964237213
v -0.3488125801086426 0.5594825148582458 0.1599999964237213
v -0.32235756516456604 0.5575000047683716 0.1599999964237213
v -0.32235756516456604 0.5575000047683716 0.5149999856948853
v -0.3488125801086426 0.5594825148582458 0.5149999856948853
v -0.3746766149997711 0.5653858184814453 0.5149999856948853
v -0.3993719518184662 0.575078010559082 0.5149999856948853
v -0.42234688997268677 0.5883426070213318 0.5149999856948853
v -0.44308823347091675 0.6048833131790161 0.5149999856948853
v -0.461132675409317 0.6243305802345276 0.5149999856948853
v -0.4760770797729492 0.6462500095367432 0.5149999856948853
v -0.48758766055107117 0.670151948928833 0.5149999856948853
v -0.4954072833061218 0.695502519607544 0.5149999856948853
v -0.4993612468242645 0.721735417842865 0.5149999856948853
v -0.4993612468242645 0.7482646107673645 0.5149999856948853
v -0.4954072833061218 0.7744974493980408 0.5149999856948853
v -0.48758766055107117 0.7998480200767517 0.5149999856948853
v -0.4760770797729492 0.8237500190734863 0.5149999856948853
v -0.461132675409317 0.8456694483757019 0.5149999856948853
v -0.44308823347091675 0.8651167154312134 0.5149999856948853
v -0.42234688997268677 0.8816573619842529 0.5149999856948853
v -0.3993719518184662 0.8949219584465027 0.5149999856948853
v -0.3746766149997711 0.9046141505241394 0.5149999856948853
v -0.3488125801086426 0.9105174541473389 0.5149999856948853
v -0.32235756516456604 0.9125000238418579 0.5149999856948853
v -0.32235756516456604 0.9125000238418579 0.5149999856948853
v -0.3488125801086426 0.9105174541473389 0.5149999856948853
v -0.3746766149997711 0.9046141505241394 0.5149999856948853
v -0.3993719518184662 0.8949219584465027 0.5149999856948853
v -0.42234688997268677 0.8816573619842529 0.5149999856948853
v -0.44308823347091675 0.8651167154312134 0.5149999856948853
v -0.461132675409317 0.8456694483757019 0.5149999856948853
v -0.4760770797729492 0.8237500190734863 0.5149999856948853
v -0.48758766055107117 0.7998480200767517 0.5149999856948853
v -0.4954072833061218 0.7744974493980408 0.5149999856948853
v -0.4993612468242645 0.7482646107673645 0.5149999856948853
v -0.4993612468242645 0.721735417842865 0.5149999856948853
v -0.4954072833061218 0.695502519607544 0.5149999856948853
v -0.48758766055107117 0.670151948928833 0.5149999856948853
v -0.4760770797729492 0.6462500095367432 0.5149999856948853
v -0.461132675409317 0.6243305802345276 0.5149999856948853
v -0.44308823347091675 0.6048833131790161 0.5149999856948853
v -0.42234688997268677 0.5883426070213318 0.5149999856948853
v -0.3993719518184662 0.575078010559082 0.5149999856948853
v -0.3746766149997711 0.5653858184814453 0.5149999856948853
v -0.3488125801086426 0.5594825148582458 0.5149999856948853
v -0.32235756516456604 0.5575000047683716 0.5149999856948853
v 0.32235756516456604 0.5575000047683716 0.5149999856948853
v 0.3488125801086426 0.5594825148582458 0.5149999856948853
v 0.3746766149997711 0.5653858184814453 0.5149999856948853
v 0.3993719518184662 0.575078010559082 0.5149999856948853
v 0.42234688997268677 0.5883426070213318 0.5149999856948853
v 0.44308823347091675 0.6048833131790161 0.5149999856948853
v 0.461132675409317 0.6243305802345276 0.5149999856948853
v 0.4760770797729492 0.6462500095367432 0.5149999856948853
v 0.48758766055107117 0.670151948928833 0.5149999856948853
v 0.4954072833061218 0.695502519607544 0.5149999856948853
v 0.4993612468242645 0.721735417842865 0.5149999856948853
v 0.4993612468242645 0.7482646107673645 0.5149999856948853
v 0.4954072833061218 0.7744974493980408 0.5149999856948853
v 0.48758766055107117 0.7998480200767517 0.5149999856948853
v 0.4760770797729492 0.8237500190734863 0.5149999856948853
v 0.461132675409317 0.8456694483757019 0.5149999856948853
v 0.44308823347091675 0.8651167154312134 0.5149999856948853
v 0.42234688997268677 0.8816573619842529 0.5149999856948853
v 0.3993719518184662 0.8949219584465027 0.5149999856948853
v 0.3746766149997711 0.9046141505241394 0.5149999856948853
v 0.3488125801086426 0.9105174541473389 0.5149999856948853
v 0.32235756516456604 0.9125000238418579 0.5149999856948853
v -0.32235756516456604 0.5575000047683716 0.1599999964237213
v -0.3488125801086426 0.5594825148582458 0.1599999964237213
v -0.3746766149997711 0.5653858184814453 0.1599999964237213
v -0.3993719518184662 0.575078010559082 0.1599999964237213
v -0.42234688997268677 0.5883426070213318 0.1599999964237213
v -0.44308823347091675 0.6048833131790161 0.1599999964237213
v -0.461132675409317 0.6243305802345276 0.1599999964237213
v -0.4760770797729492 0.6462500095367432 0.1599999964237213
v -0.48758766055107117 0.670151948928833 0.1599999964237213
v -0.4954072833061218 0.695502519607544 0.1599999964237213
v -0.4993612468242645 0.721735417842865 0.1599999964237213
v -0.4993612468242645 0.7482646107673645 0.1599999964237213
v -0.4954072833061218 0.7744974493980408 0.1599999964237213
v -0.48758766055107117 0.7998480200767517 0.1599999964237213
v -0.4760770797729492 0.8237500190734863 0.1599999964237213
v -0.461132675409317 0.8456694483757019 0.1599999964237213
v -0.44308823347091675 0.8651167154312134 0.1599999964237213
v -0.42234688997268677 0.8816573619842529 0.1599999964237213
v -0.3993719518184662 0.8949219584465027 0.1599999964237213
v -0.3746766149997711 0.9046141505241394 0.1599999964237213
v -0.3488125801086426 0.9105174541473389 0.1599999964237213
v -0.32235756516456604 0.9125000238418579 0.1599999964237213
v 0.32235756516456604 0.9125000238418579 0.1599999964237213
v 0.3488125801086426 0.9105174541473389 0.1599999964237213
v 0.3746766149997711 0.9046141505241394 0.1599999964237213
v 0.3993719518184662 0.8949219584465027 0.1599999964237213
v 0.42234688997268677 0.8816573619842529 0.1599999964237213
v 0.44308823347091675 0.8651167154312134 0.1599999964237213
v 0.461132675409317 0.8456694483757019 0.1599999964237213
v 0.4760770797729492 0.8237500190734863 0.1599999964237213
v 0.48758766055107117 0.7998480200767517 0.1599999964237213
v 0.4954072833061218 0.7744974493980408 0.1599999964237213
v 0.4993612468242645 0.7482646107673645 0.1599999964237213
v 0.4993612468242645 0.721735417842865 0.1599999964237213
v 0.4954072833061218 0.695502519607544 0.1599999964237213
v 0.48758766055107117 0.670151948928833 0.1599999964237213
v 0.4760770797729492 0.6462500095367432 0.1599999964237213
v 0.461132675409317 0.6243305802345276 0.1599999964237213
v 0.44308823347091675 0.6048833131790161 0.1599999964237213
v 0.42234688997268677 0.5883426070213318 0.1599999964237213
v 0.3993719518184662 0.575078010559082 0.1599999964237213
v 0.3746766149997711 0.5653858184814453 0.1599999964237213
v 0.3488125801086426 0.5594825148582458 0.1599999964237213
v 0.32235756516456604 0.5575000047683716 0.1599999964237213
vn 0.0 1.0 -0.0
vn 0.0 1.0 -0.0
vn 0.0 1.0 -0.0
vn 0.0 1.0 -0.0
vn 0.0 -1.0 -0.0
vn 0.1490422636270523 -0.9888308048248291 -0.0
vn 0.29475516080856323 -0.955572783946991 -0.0
vn 0.4338837265968323 -0.9009688496589661 -0.0
vn 0.5633200407028198 -0.826238751411438 -0.0
vn 0.6801727414131165 -0.7330518960952759 -0.0
vn 0.7818315029144287 -0.6234897971153259 -0.0
vn 0.8660253882408142 -0.5 -0.0
vn 0.9308737516403198 -0.36534103751182556 -0.0
vn 0.9749279022216797 -0.22252093255519867 -0.0
vn 0.9972038269042969 -0.07473009079694748 -0.0
vn 0.9972038269042969 0.07473009079694748 -0.0
vn 0.9749279022216797 0.22252093255519867 -0.0
vn 0.9308737516403198 0.36534103751182556 -0.0
vn 0.8660253882408142 0.5 -0.0
vn 0.7818315029144287 0.6234897971153259 -0.0
vn 0.6801727414131165 0.7330518960952759 -0.0
vn 0.5633200407028198 0.826238751411438 -0.0
vn 0.4338837265968323 0.9009688496589661 -0.0
vn 0.29475516080856323 0.955572783946991 -0.0
vn 0.1490422636270523 0.9888308048248291 -0.0
vn 1.2246468525851679e-16 1.0 -0.0
vn 1.2246468525851679e-16 1.0 -0.0
vn 0.1490422636270523 0.9888308048248291 -0.0
vn 0.29475516080856323 0.955572783946991 -0.0
vn 0.4338837265968323 0.9009688496589661 -0.0
vn 0.5633200407028198 0.826238751411438 -0.0
vn 0.6801727414131165 0.7330518960952759 -0.0
vn 0.7818315029144287 0.6234897971153259 -0.0
vn 0.8660253882408142 0.5 -0.0
vn 0.9308737516403198 0.36534103751182556 -0.0
vn 0.9749279022216797 0.22252093255519867 -0.0
vn 0.9972038269042969 0.07473009079694748 -0.0
vn 0.9972038269042969 -0.07473009079694748 -0.0
vn 0.9749279022216797 -0.22252093255519867 -0.0
vn 0.9308737516403198 -0.36534103751182556 -0.0
vn 0.8660253882408142 -0.5 -0.0
vn 0.7818315029144287 -0.6234897971153259 -0.0
vn 0.6801727414131165 -0.7330518960952759 -0.0
vn 0.5633200407028198 -0.826238751411438 -0.0
vn 0.4338837265968323 -0.9009688496589661 -0.0
vn 0.29475516080856323 -0.955572783946991 -0.0
vn 0.1490422636270523 -0.9888308048248291 -0.0
vn -3.127388842770522e-16 -1.0 0.0
vn 0.0 -1.0 0.0
vn 0.0 -1.0 0.0
vn 0.0 -1.0 0.0
vn 0.0 -1.0 0.0
vn 3.127388842770522e-16 1.0 -0.0
vn -0.1490422636270523 0.9888308048248291 -0.0
vn -0.29475516080856323 0.955572783946991 -0.0
vn -0.4338837265968323 0.9009688496589661 -0.0
vn -0.5633200407028198 0.826238751411438 -0.0
vn -0.6801727414131165 0.7330518960952759 -0.0
vn -0.7818315029144287 0.6234897971153259 -0.0
vn -0.8660253882408142 0.5 -0.0
vn -0.9308737516403198 0.36534103751182556 -0.0
vn -0.9749279022216797 0.22252093255519867 -0.0
vn -0.9972038269042969 0.07473009079694748 -0.0
vn -0.9972038269042969 -0.07473009079694748 0.0
vn -0.9749279022216797 -0.22252093255519867 0.0
vn -0.9308737516403198 -0.36534103751182556 0.0
vn -0.8660253882408142 -0.5 0.0
vn -0.7818315029144287 -0.6234897971153259 0.0
vn -0.6801727414131165 -0.7330518960952759 0.0
vn -0.5633200407028198 -0.826238751411438 0.0
vn -0.4338837265968323 -0.9009688496589661 0.0
vn -0.29475516080856323 -0.955572783946991 0.0
vn -0.1490422636270523 -0.9888308048248291 0.0
vn -4.35203569535569e-16 -1.0 0.0
vn -4.35203569535569e-16 -1.0 0.0
vn -0.1490422636270523 -0.9888308048248291 0.0
vn -0.29475516080856323 -0.955572783946991 0.0
vn -0.4338837265968323 -0.9009688496589661 0.0
vn -0.5633200407028198 -0.826238751411438 0.0
vn -0.6801727414131165 -0.7330518960952759 0.0
vn -0.7818315029144287 -0.6234897971153259 0.0
vn -0.8660253882408142 -0.5 0.0
vn -0.9308737516403198 -0.36534103751182556 0.0
vn -0.9749279022216797 -0.22252093255519867 0.0
vn -0.9972038269042969 -0.07473009079694748 0.0
vn -0.9972038269042969 0.07473009079694748 -0.0
vn -0.9749279022216797 0.22252093255519867 -0.0
vn -0.9308737516403198 0.36534103751182556 -0.0
vn -0.8660253882408142 0.5 -0.0
vn -0.7818315029144287 0.6234897971153259 -0.0
vn -0.6801727414131165 0.7330518960952759 -0.0
vn -0.5633200407028198 0.826238751411438 -0.0
vn -0.4338837265968323 0.9009688496589661 -0.0
vn -0.29475516080856323 0.955572783946991 -0.0
vn -0.1490422636270523 0.9888308048248291 -0.0
vn 3.127388842770522e-16 1.0 -0.0
vn 0.0 0.0 1.0
vn 0.0 0.0 1.0
vn 0.0 0.0 1.0
vn 0.0 0.0 1.0
vn 0.0 0.0 1.0
vn 0.0 0.0 1.0
vn 0.0 0.0 1.0
vn 0.0 0.0 1.0
vn 0.0 0.0 1.0
vn 0.0 0.0 1.0
vn 0.0 0.0 1.0
vn 0.0 0.0 1.0
vn 0.0 0.0 1.0
vn 0.0 0.0 1.0
vn 0.0 0.0 1.0
vn 0.0 0.0 1.0
vn 0.0 0.0 1.0
vn 0.0 0.0 1.0
vn 0.0 0.0 1.0
vn 0.0 0.0 1.0
vn 0.0 0.0 1.0
vn 0.0 0.0 1.0
vn 0.0 0.0 1.0
vn 0.0 0.0 1.0
vn 0.0 0.0 1.0
vn 0.0 0.0 1.0
vn 0.0 0.0 1.0
vn 0.0 0.0 1.0
vn 0.0 0.0 1.0
vn 0.0 0.0 1.0
vn 0.0 0.0 1.0
vn 0.0 0.0 1.0
vn 0.0 0.0 1.0
vn 0.0 0.0 1.0
vn 0.0 0.0 1.0
vn 0.0 0.0 1.0
vn 0.0 0.0 1.0
vn 0.0 0.0 1.0
vn 0.0 0.0 1.0
vn 0.0 0.0 1.0
vn 0.0 0.0 1.0
vn 0.0 0.0 1.0
vn 0.0 0.0 1.0
vn 0.0 0.0 1.0
vn -0.0 -0.0 -1.0
vn -0.0 -0.0 -1.0
vn -0.0 -0.0 -1.0
vn -0.0 -0.0 -1.0
vn -0.0 -0.0 -1.0
vn -0.0 -0.0 -1.0
vn -0.0 -0.0 -1.0
vn -0.0 -0.0 -1.0
vn -0.0 -0.0 -1.0
vn -0.0 -0.0 -1.0
vn -0.0 -0.0 -1.0
vn -0.0 -0.0 -1.0
vn -0.0 -0.0 -1.0
vn -0.0 -0.0 -1.0
vn -0.0 -0.0 -1.0
vn -0.0 -0.0 -1.0
vn -0.0 -0.0 -1.0
vn -0.0 -0.0 -1.0
vn -0.0 -0.0 -1.0
vn -0.0 -0.0 -1.0
vn -0.0 -0.0 -1.0
vn -0.0 -0.0 -1.0
vn -0.0 -0.0 -1.0
vn -0.0 -0.0 -1.0
vn -0.0 -0.0 -1.0
vn -0.0 -0.0 -1.0
vn -0.0 -0.0 -1.0
vn -0.0 -0.0 -1.0
vn -0.0 -0.0 -1.0
vn -0.0 -0.0 -1.0
vn -0.0 -0.0 -1.0
vn -0.0 -0.0 -1.0
vn -0.0 -0.0 -1.0
vn -0.0 -0.0 -1.0
vn -0.0 -0.0 -1.0
vn -0.0 -0.0 -1.0
vn -0.0 -0.0 -1.0
vn -0.0 -0.0 -1.0
vn -0.0 -0.0 -1.0
vn -0.0 -0.0 -1.0
vn -0.0 -0.0 -1.0
vn -0.0 -0.0 -1.0
vn -0.0 -0.0 -1.0
vn -0.0 -0.0 -1.0
g 74b1ef66-e338-11ea-a872-54bf646e7e1f
f 1//1 2//2 4//4
f 4//4 2//2 3//3
g 74b23d86-e338-11ea-bfff-54bf646e7e1f
f 48//48 5//5 47//47
f 47//47 5//5 6//6
f 47//47 6//6 7//7
f 47//47 7//7 46//46
f 46//46 7//7 8//8
f 46//46 8//8 45//45
f 45//45 8//8 9//9
f 45//45 9//9 44//44
f 44//44 9//9 10//10
f 44//44 10//10 43//43
f 43//43 10//10 11//11
f 43//43 11//11 42//42
f 42//42 11//11 12//12
f 42//42 12//12 41//41
f 41//41 12//12 13//13
f 41//41 13//13 40//40
f 40//40 13//13 14//14
f 40//40 14//14 39//39
f 39//39 14//14 15//15
f 39//39 15//15 38//38
f 38//38 15//15 16//16
f 38//38 16//16 37//37
f 37//37 16//16 17//17
f 37//37 17//17 36//36
f 36//36 17//17 18//18
f 36//36 18//18 35//35
f 35//35 18//18 19//19
f 35//35 19//19 34//34
f 34//34 19//19 20//20
f 34//34 20//20 33//33
f 33//33 20//20 21//21
f 33//33 21//21 32//32
f 32//32 21//21 22//22
f 32//32 22//22 31//31
f 31//31 22//22 23//23
f 31//31 23//23 30//30
f 30//30 23//23 24//24
f 30//30 24//24 29//29
f 29//29 24//24 25//25
f 29//29 25//25 28//28
f 28//28 25//25 27//27
f 27//27 25//25 26//26
g 74b28ba4-e338-11ea-95d2-54bf646e7e1f
f 49//49 50//50 52//52
f 52//52 50//50 51//51
g 74b2b2b6-e338-11ea-9b7c-54bf646e7e1f
f 96//96 53//53 95//95
f 95//95 53//53 54//54
f 95//95 54//54 55//55
f 95//95 55//55 94//94
f 94//94 55//55 56//56
f 94//94 56//56 93//93
f 93//93 56//56 57//57
f 93//93 57//57 92//92
f 92//92 57//57 58//58
f 92//92 58//58 91//91
f 91//91 58//58 59//59
f 91//91 59//59 90//90
f 90//90 59//59 60//60
f 90//90 60//60 89//89
f 89//89 60//60 61//61
f 89//89 61//61 88//88
f 88//88 61//61 62//62
f 88//88 62//62 87//87
f 87//87 62//62 63//63
f 87//87 63//63 86//86
f 86//86 63//63 64//64
f 86//86 64//64 85//85
f 85//85 64//64 65//65
f 85//85 65//65 84//84
f 84//84 65//65 66//66
f 84//84 66//66 83//83
f 83//83 66//66 67//67
f 83//83 67//67 82//82
f 82//82 67//67 68//68
f 82//82 68//68 81//81
f 81//81 68//68 69//69
f 81//81 69//69 80//80
f 80//80 69//69 70//70
f 80//80 70//70 79//79
f 79//79 70//70 71//71
f 79//79 71//71 78//78
f 78//78 71//71 72//72
f 78//78 72//72 77//77
f 77//77 72//72 73//73
f 77//77 73//73 76//76
f 76//76 73//73 75//75
f 75//75 73//73 74//74
g 74b300d4-e338-11ea-abc6-54bf646e7e1f
f 98//98 99//99 97//97
f 97//97 99//99 100//100
f 97//97 100//100 101//101
f 101//101 102//102 97//97
f 97//97 102//102 103//103
f 97//97 103//103 104//104
f 104//104 105//105 97//97
f 97//97 105//105 106//106
f 97//97 106//106 107//107
f 97//97 107//107 118//118
f 118//118 107//107 108//108
f 118//118 108//108 109//109
f 109//109 110//110 118//118
f 118//118 110//110 111//111
f 118//118 111//111 112//112
f 112//112 113//113 118//118
f 118//118 113//113 114//114
f 118//118 114//114 115//115
f 115//115 116//116 118//118
f 118//118 116//116 117//117
f 118//118 119//119 97//97
f 97//97 119//119 140//140
f 140//140 119//119 130//130
f 140//140 130//130 131//131
f 120//120 121//121 119//119
f 119//119 121//121 122//122
f 119//119 122//122 123//123
f 123//123 124//124 119//119
f 119//119 124//124 125//125
f 119//119 125//125 126//126
f 126//126 127//127 119//119
f 119//119 127//127 128//128
f 119//119 128//128 129//129
f 129//129 130//130 119//119
f 131//131 132//132 140//140
f 140//140 132//132 133//133
f 140//140 133//133 134//134
f 134//134 135//135 140//140
f 140//140 135//135 136//136
f 140//140 136//136 137//137
f 137//137 138//138 140//140
f 140//140 138//138 139//139
g 74b34ef0-e338-11ea-92e1-54bf646e7e1f
f 142//142 143//143 141//141
f 141//141 143//143 144//144
f 141//141 144//144 145//145
f 145//145 146//146 141//141
f 141//141 146//146 147//147
f 141//141 147//147 148//148
f 148//148 149//149 141//141
f 141//141 149//149 150//150
f 141//141 150//150 151//151
f 151//151 152//152 141//141
f 141//141 152//152 162//162
f 141//141 162//162 163//163
f 152//152 153//153 162//162
f 162//162 153//153 154//154
f 162//162 154//154 155//155
f 155//155 156//156 162//162
f 162//162 156//156 157//157
f 162//162 157//157 158//158
f 158//158 159//159 162//162
f 162//162 159//159 160//160
f 162//162 160//160 161//161
f 164//164 165//165 163//163
f 163//163 165//165 166//166
f 163//163 166//166 167//167
f 167//167 168//168 163//163
f 163//163 168//168 169//169
f 163//163 169//169 170//170
f 170//170 171//171 163//163
f 163//163 171//171 172//172
f 163//163 172//172 173//173
f 163//163 173//173 184//184
f 184//184 173//173 174//174
f 184//184 174//174 175//175
f 175//175 176//176 184//184
f 184//184 176//176 177//177
f 184//184 177//177 178//178
f 178//178 179//179 184//184
f 184//184 179//179 180//180
f 184//184 180//180 181//181
f 181//181 182//182 184//184
f 184//184 182//182 183//183
f 184//184 141//141 163//163

# End of file