# WaveFront *.obj file
# Vertices: 24
# Triangles : 12

v 0.0 8.899999618530273 0.0
v 0.0 0.0 0.0
v 0.0 0.0 2.9000000953674316
v 0.0 8.899999618530273 2.9000000953674316
v 0.15000000596046448 8.899999618530273 0.0
v 0.0 8.899999618530273 0.0
v 0.0 8.899999618530273 2.9000000953674316
v 0.15000000596046448 8.899999618530273 2.9000000953674316
v 0.0 8.899999618530273 2.9000000953674316
v 0.0 0.0 2.9000000953674316
v 0.15000000596046448 0.0 2.9000000953674316
v 0.15000000596046448 8.899999618530273 2.9000000953674316
v 0.0 0.0 0.0
v 0.0 8.899999618530273 0.0
v 0.15000000596046448 8.899999618530273 0.0
v 0.15000000596046448 -6.162975822039155e-33 0.0
v 0.15000000596046448 -6.162975822039155e-33 0.0
v 0.15000000596046448 8.899999618530273 0.0
v 0.15000000596046448 8.899999618530273 2.9000000953674316
v 0.15000000596046448 0.0 2.9000000953674316
v 0.0 0.0 0.0
v 0.15000000596046448 -6.162975822039155e-33 0.0
v 0.15000000596046448 0.0 2.9000000953674316
v 0.0 0.0 2.9000000953674316
vn -1.0 0.0 0.0
vn -1.0 0.0 0.0
vn -1.0 0.0 0.0
vn -1.0 0.0 0.0
vn 0.0 1.0 -0.0
vn 0.0 1.0 -0.0
vn 0.0 1.0 -0.0
vn 0.0 1.0 -0.0
vn 0.0 0.0 1.0
vn 0.0 0.0 1.0
vn 0.0 0.0 1.0
vn 0.0 0.0 1.0
vn 0.0 -0.0 -1.0
vn 0.0 -0.0 -1.0
vn 0.0 -0.0 -1.0
vn 0.0 -0.0 -1.0
vn 1.0 0.0 0.0
vn 1.0 0.0 0.0
vn 1.0 0.0 0.0
vn 1.0 0.0 0.0
vn -4.1086504500682406e-32 -1.0 0.0
vn -4.1086504500682406e-32 -1.0 0.0
vn -4.1086504500682406e-32 -1.0 0.0
vn -4.1086504500682406e-32 -1.0 0.0
f 1//1 2//2 4//4
f 4//4 2//2 3//3
f 5//5 6//6 8//8
f 8//8 6//6 7//7
f 10//10 11//11 9//9
f 9//9 11//11 12//12
f 14//14 15//15 13//13
f 13//13 15//15 16//16
f 17//17 18//18 20//20
f 20//20 18//18 19//19
f 21//21 22//22 24//24
f 24//24 22//22 23//23

# End of file