# WaveFront *.obj file
# Vertices: 164
# Triangles : 136

v 2.875 3.680608034133911 4.25
v 4.625 0.6495190262794495 4.25
v 4.365192413330078 0.4995190501213074 4.25
v 2.615192413330078 3.5306079387664795 4.25
v 0.0 0.0 5.0
v 0.0 0.0 0.0
v 5.0 0.0 0.0
v 5.0 0.0 5.0
v 2.875 3.680608034133911 0.75
v 2.875 3.680608034133911 4.25
v 2.615192413330078 3.5306079387664795 4.25
v 2.615192413330078 3.5306079387664795 0.75
v 2.5 4.330127239227295 0.0
v 5.0 0.0 0.0
v 0.0 0.0 0.0
v 4.625 0.6495190262794495 0.75
v 4.625 0.6495190262794495 4.25
v 2.875 3.680608034133911 4.25
v 2.875 3.680608034133911 0.75
v 2.5 4.330127239227295 5.0
v 5.0 0.0 5.0
v 5.0 0.0 0.0
v 2.5 4.330127239227295 0.0
v 4.625 0.6495190262794495 0.75
v 2.875 3.680608034133911 0.75
v 2.615192413330078 3.5306079387664795 0.75
v 4.365192413330078 0.4995190501213074 0.75
v 0.0 0.0 5.0
v 2.5 4.330127239227295 5.0
v 2.5 4.330127239227295 0.0
v 0.0 0.0 0.0
v 4.216824531555176 0.7564998865127563 1.1160457134246826
v 4.216824531555176 0.7564998865127563 3.9234132766723633
v 2.7641749382019043 3.2725625038146973 3.9234132766723633
v 2.7641749382019043 3.2725625038146973 1.1160457134246826
v 2.615192413330078 3.5306079387664795 4.25
v 4.365192413330078 0.4995190501213074 4.25
v 4.365192413330078 0.4995190501213074 0.75
v 2.615192413330078 3.5306079387664795 0.75
v 4.625 0.6495190262794495 4.25
v 4.625 0.6495190262794495 0.75
v 4.365192413330078 0.4995190501213074 0.75
v 4.365192413330078 0.4995190501213074 4.25
v 2.1846566200256348 1.5145312547683716 5.0
v 2.199643135070801 1.6283643245697021 5.0
v 2.2435810565948486 1.7344399690628052 5.0
v 2.313476324081421 1.8255292177200317 5.0
v 2.4045655727386475 1.8954243659973145 5.0
v 2.510641098022461 1.9393622875213623 5.0
v 2.624474287033081 1.9543488025665283 5.0
v 2.738307476043701 1.9393622875213623 5.0
v 2.8443830013275146 1.8954243659973145 5.0
v 2.935472249984741 1.8255292177200317 5.0
v 3.0053675174713135 1.7344399690628052 5.0
v 3.0493054389953613 1.6283643245697021 5.0
v 3.0642919540405273 1.5145312547683716 5.0
v 3.0493054389953613 1.4006980657577515 5.0
v 3.0053675174713135 1.2946224212646484 5.0
v 2.935472249984741 1.2035331726074219 5.0
v 2.8443830013275146 1.1336380243301392 5.0
v 2.738307476043701 1.0897001028060913 5.0
v 2.624474287033081 1.0747135877609253 5.0
v 2.510641098022461 1.0897001028060913 5.0
v 2.4045655727386475 1.1336380243301392 5.0
v 2.313476324081421 1.2035331726074219 5.0
v 2.2435810565948486 1.2946224212646484 5.0
v 2.199643135070801 1.4006980657577515 5.0
v 5.0 0.0 5.0
v 2.5 4.330127239227295 5.0
v 0.0 0.0 5.0
v 2.7641749382019043 3.2725625038146973 1.1160457134246826
v 2.7641749382019043 3.2725625038146973 3.9234132766723633
v 1.8981496095657349 2.7725625038146973 3.9234132766723633
v 1.8981496095657349 2.7725625038146973 1.1160457134246826
v 2.7641749382019043 3.2725625038146973 3.9234132766723633
v 4.216824531555176 0.7564998865127563 3.9234132766723633
v 3.350799083709717 0.25649988651275635 3.9234132766723633
v 1.8981496095657349 2.7725625038146973 3.9234132766723633
v 4.216824531555176 0.7564998865127563 1.1160457134246826
v 2.7641749382019043 3.2725625038146973 1.1160457134246826
v 1.8981496095657349 2.7725625038146973 1.1160457134246826
v 3.350799083709717 0.25649988651275635 1.1160457134246826
v 2.1846566200256348 1.5145312547683716 4.0
v 2.199643135070801 1.6283643245697021 4.0
v 2.2435810565948486 1.7344399690628052 4.0
v 2.313476324081421 1.8255292177200317 4.0
v 2.4045655727386475 1.8954243659973145 4.0
v 2.510641098022461 1.9393622875213623 4.0
v 2.624474287033081 1.9543488025665283 4.0
v 2.738307476043701 1.9393622875213623 4.0
v 2.8443830013275146 1.8954243659973145 4.0
v 2.935472249984741 1.8255292177200317 4.0
v 3.0053675174713135 1.7344399690628052 4.0
v 3.0493054389953613 1.6283643245697021 4.0
v 3.0642919540405273 1.5145312547683716 4.0
v 3.0493054389953613 1.4006980657577515 4.0
v 3.0053675174713135 1.2946224212646484 4.0
v 2.935472249984741 1.2035331726074219 4.0
v 2.8443830013275146 1.1336380243301392 4.0
v 2.738307476043701 1.0897001028060913 4.0
v 2.624474287033081 1.0747135877609253 4.0
v 2.510641098022461 1.0897001028060913 4.0
v 2.4045655727386475 1.1336380243301392 4.0
v 2.313476324081421 1.2035331726074219 4.0
v 2.2435810565948486 1.2946224212646484 4.0
v 2.199643135070801 1.4006980657577515 4.0
v 2.1846566200256348 1.5145312547683716 5.0
v 2.199643135070801 1.4006980657577515 5.0
v 2.2435810565948486 1.2946224212646484 5.0
v 2.313476324081421 1.2035331726074219 5.0
v 2.4045655727386475 1.1336380243301392 5.0
v 2.510641098022461 1.0897001028060913 5.0
v 2.624474287033081 1.0747135877609253 5.0
v 2.738307476043701 1.0897001028060913 5.0
v 2.8443830013275146 1.1336380243301392 5.0
v 2.935472249984741 1.2035331726074219 5.0
v 3.0053675174713135 1.2946224212646484 5.0
v 3.0493054389953613 1.4006980657577515 5.0
v 3.0642919540405273 1.5145312547683716 5.0
v 3.0493054389953613 1.6283643245697021 5.0
v 3.0053675174713135 1.7344399690628052 5.0
v 2.935472249984741 1.8255292177200317 5.0
v 2.8443830013275146 1.8954243659973145 5.0
v 2.738307476043701 1.9393622875213623 5.0
v 2.624474287033081 1.9543488025665283 5.0
v 2.510641098022461 1.9393622875213623 5.0
v 2.4045655727386475 1.8954243659973145 5.0
v 2.313476324081421 1.8255292177200317 5.0
v 2.2435810565948486 1.7344399690628052 5.0
v 2.199643135070801 1.6283643245697021 5.0
v 2.1846566200256348 1.5145312547683716 4.0
v 2.1846566200256348 1.5145312547683716 5.0
v 1.8981496095657349 2.7725625038146973 3.9234132766723633
v 3.350799083709717 0.25649988651275635 3.9234132766723633
v 3.350799083709717 0.25649988651275635 1.1160457134246826
v 1.8981496095657349 2.7725625038146973 1.1160457134246826
v 4.216824531555176 0.7564998865127563 3.9234132766723633
v 4.216824531555176 0.7564998865127563 1.1160457134246826
v 3.350799083709717 0.25649988651275635 1.1160457134246826
v 3.350799083709717 0.25649988651275635 3.9234132766723633
v 2.1846566200256348 1.5145312547683716 4.0
v 2.199643135070801 1.4006980657577515 4.0
v 2.2435810565948486 1.2946224212646484 4.0
v 2.313476324081421 1.2035331726074219 4.0
v 2.4045655727386475 1.1336380243301392 4.0
v 2.510641098022461 1.0897001028060913 4.0
v 2.624474287033081 1.0747135877609253 4.0
v 2.738307476043701 1.0897001028060913 4.0
v 2.8443830013275146 1.1336380243301392 4.0
v 2.935472249984741 1.2035331726074219 4.0
v 3.0053675174713135 1.2946224212646484 4.0
v 3.0493054389953613 1.4006980657577515 4.0
v 3.0642919540405273 1.5145312547683716 4.0
v 3.0493054389953613 1.6283643245697021 4.0
v 3.0053675174713135 1.7344399690628052 4.0
v 2.935472249984741 1.8255292177200317 4.0
v 2.8443830013275146 1.8954243659973145 4.0
v 2.738307476043701 1.9393622875213623 4.0
v 2.624474287033081 1.9543488025665283 4.0
v 2.510641098022461 1.9393622875213623 4.0
v 2.4045655727386475 1.8954243659973145 4.0
v 2.313476324081421 1.8255292177200317 4.0
v 2.2435810565948486 1.7344399690628052 4.0
v 2.199643135070801 1.6283643245697021 4.0
vn -1.5383701257309923e-13 -8.881784197001252e-14 -1.0
vn -1.5383701257309923e-13 -8.881784197001252e-14 -1.0
vn -1.5383701257309923e-13 -8.881784197001252e-14 -1.0
vn -1.5383701257309923e-13 -8.881784197001252e-14 -1.0
vn -0.0 -1.0 -0.0
vn -0.0 -1.0 -0.0
vn -0.0 -1.0 -0.0
vn -0.0 -1.0 -0.0
vn 0.5 -0.8660253882408142 -0.0
vn 0.5 -0.8660253882408142 -0.0
vn 0.5 -0.8660253882408142 -0.0
vn 0.5 -0.8660253882408142 -0.0
vn 0.0 0.0 -1.0
vn 0.0 0.0 -1.0
vn 0.0 0.0 -1.0
vn 0.8660253882408142 0.5 0.0
vn 0.8660253882408142 0.5 0.0
vn 0.8660253882408142 0.5 0.0
vn 0.8660253882408142 0.5 0.0
vn 0.8660253882408142 0.5 0.0
vn 0.8660253882408142 0.5 0.0
vn 0.8660253882408142 0.5 0.0
vn 0.8660253882408142 0.5 0.0
vn 1.5383701257309923e-13 8.881784197001252e-14 1.0
vn 1.5383701257309923e-13 8.881784197001252e-14 1.0
vn 1.5383701257309923e-13 8.881784197001252e-14 1.0
vn 1.5383701257309923e-13 8.881784197001252e-14 1.0
vn -0.8660253882408142 0.5 -0.0
vn -0.8660253882408142 0.5 -0.0
vn -0.8660253882408142 0.5 -0.0
vn -0.8660253882408142 0.5 -0.0
vn 0.8660253882408142 0.5 -1.7763568394002505e-13
vn 0.8660253882408142 0.5 -1.7763568394002505e-13
vn 0.8660253882408142 0.5 -1.7763568394002505e-13
vn 0.8660253882408142 0.5 -1.7763568394002505e-13
vn 0.8660253882408142 0.5 -1.7763568394002505e-13
vn 0.8660253882408142 0.5 -1.7763568394002505e-13
vn 0.8660253882408142 0.5 -1.7763568394002505e-13
vn 0.8660253882408142 0.5 -1.7763568394002505e-13
vn -0.5 0.8660253882408142 -3.7865323450608567e-29
vn -0.5 0.8660253882408142 -3.7865323450608567e-29
vn -0.5 0.8660253882408142 -3.7865323450608567e-29
vn -0.5 0.8660253882408142 -3.7865323450608567e-29
vn 0.0 -0.0 1.0
vn 0.0 -0.0 1.0
vn 0.0 -0.0 1.0
vn 0.0 -0.0 1.0
vn 0.0 -0.0 1.0
vn 0.0 -0.0 1.0
vn 0.0 -0.0 1.0
vn 0.0 -0.0 1.0
vn 0.0 -0.0 1.0
vn 0.0 -0.0 1.0
vn 0.0 -0.0 1.0
vn 0.0 -0.0 1.0
vn 0.0 -0.0 1.0
vn 0.0 -0.0 1.0
vn 0.0 -0.0 1.0
vn 0.0 -0.0 1.0
vn 0.0 -0.0 1.0
vn 0.0 -0.0 1.0
vn 0.0 -0.0 1.0
vn 0.0 -0.0 1.0
vn 0.0 -0.0 1.0
vn 0.0 -0.0 1.0
vn 0.0 -0.0 1.0
vn 0.0 -0.0 1.0
vn 0.0 -0.0 1.0
vn 0.0 -0.0 1.0
vn 0.0 -0.0 1.0
vn 0.5 -0.8660253882408142 -1.0255801064082068e-13
vn 0.5 -0.8660253882408142 -1.0255801064082068e-13
vn 0.5 -0.8660253882408142 -1.0255801064082068e-13
vn 0.5 -0.8660253882408142 -1.0255801064082068e-13
vn -2.0511602128164136e-13 3.7865323450608567e-29 -1.0
vn -2.0511602128164136e-13 3.7865323450608567e-29 -1.0
vn -2.0511602128164136e-13 3.7865323450608567e-29 -1.0
vn -2.0511602128164136e-13 3.7865323450608567e-29 -1.0
vn 2.0511602128164136e-13 -3.7865323450608567e-29 1.0
vn 2.0511602128164136e-13 -3.7865323450608567e-29 1.0
vn 2.0511602128164136e-13 -3.7865323450608567e-29 1.0
vn 2.0511602128164136e-13 -3.7865323450608567e-29 1.0
vn 1.0 -1.2246468525851679e-16 0.0
vn 0.9659258127212524 -0.258819043636322 0.0
vn 0.8660253882408142 -0.5 0.0
vn 0.7071067690849304 -0.7071067690849304 0.0
vn 0.5 -0.8660253882408142 0.0
vn 0.258819043636322 -0.9659258127212524 0.0
vn -6.123234262925839e-17 -1.0 -0.0
vn -0.258819043636322 -0.9659258127212524 -0.0
vn -0.5 -0.8660253882408142 -0.0
vn -0.7071067690849304 -0.7071067690849304 -0.0
vn -0.8660253882408142 -0.5 -0.0
vn -0.9659258127212524 -0.258819043636322 -0.0
vn -1.0 -0.0 -0.0
vn -0.9659258127212524 0.258819043636322 0.0
vn -0.8660253882408142 0.5 0.0
vn -0.7071067690849304 0.7071067690849304 0.0
vn -0.5 0.8660253882408142 0.0
vn -0.258819043636322 0.9659258127212524 0.0
vn -6.123234262925839e-17 1.0 0.0
vn 0.258819043636322 0.9659258127212524 0.0
vn 0.5 0.8660253882408142 0.0
vn 0.7071067690849304 0.7071067690849304 0.0
vn 0.8660253882408142 0.5 0.0
vn 0.9659258127212524 0.258819043636322 0.0
vn 1.0 1.2246468525851679e-16 0.0
vn 0.9659258127212524 0.258819043636322 0.0
vn 0.8660253882408142 0.5 0.0
vn 0.7071067690849304 0.7071067690849304 0.0
vn 0.5 0.8660253882408142 0.0
vn 0.258819043636322 0.9659258127212524 0.0
vn -6.123234262925839e-17 1.0 0.0
vn -0.258819043636322 0.9659258127212524 0.0
vn -0.5 0.8660253882408142 0.0
vn -0.7071067690849304 0.7071067690849304 0.0
vn -0.8660253882408142 0.5 0.0
vn -0.9659258127212524 0.258819043636322 0.0
vn -1.0 -0.0 -0.0
vn -0.9659258127212524 -0.258819043636322 -0.0
vn -0.8660253882408142 -0.5 -0.0
vn -0.7071067690849304 -0.7071067690849304 -0.0
vn -0.5 -0.8660253882408142 -0.0
vn -0.258819043636322 -0.9659258127212524 -0.0
vn -6.123234262925839e-17 -1.0 -0.0
vn 0.258819043636322 -0.9659258127212524 0.0
vn 0.5 -0.8660253882408142 0.0
vn 0.7071067690849304 -0.7071067690849304 0.0
vn 0.8660253882408142 -0.5 0.0
vn 0.9659258127212524 -0.258819043636322 0.0
vn 1.0 1.2246468525851679e-16 0.0
vn 1.0 -1.2246468525851679e-16 0.0
vn 0.8660253882408142 0.5 -1.7763568394002505e-13
vn 0.8660253882408142 0.5 -1.7763568394002505e-13
vn 0.8660253882408142 0.5 -1.7763568394002505e-13
vn 0.8660253882408142 0.5 -1.7763568394002505e-13
vn -0.5 0.8660253882408142 1.0255801064082068e-13
vn -0.5 0.8660253882408142 1.0255801064082068e-13
vn -0.5 0.8660253882408142 1.0255801064082068e-13
vn -0.5 0.8660253882408142 1.0255801064082068e-13
vn 0.0 0.0 1.0
vn 0.0 0.0 1.0
vn 0.0 0.0 1.0
vn 0.0 0.0 1.0
vn 0.0 0.0 1.0
vn 0.0 0.0 1.0
vn 0.0 0.0 1.0
vn 0.0 0.0 1.0
vn 0.0 0.0 1.0
vn 0.0 0.0 1.0
vn 0.0 0.0 1.0
vn 0.0 0.0 1.0
vn 0.0 0.0 1.0
vn 0.0 0.0 1.0
vn 0.0 0.0 1.0
vn 0.0 0.0 1.0
vn 0.0 0.0 1.0
vn 0.0 0.0 1.0
vn 0.0 0.0 1.0
vn 0.0 0.0 1.0
vn 0.0 0.0 1.0
vn 0.0 0.0 1.0
vn 0.0 0.0 1.0
vn 0.0 0.0 1.0
f 1//1 2//2 4//4
f 4//4 2//2 3//3
f 6//6 7//7 5//5
f 5//5 7//7 8//8
f 9//9 10//10 12//12
f 12//12 10//10 11//11
f 13//13 14//14 15//15
f 17//17 21//21 16//16
f 16//16 21//21 22//22
f 16//16 22//22 23//23
f 17//17 18//18 21//21
f 21//21 18//18 20//20
f 20//20 18//18 19//19
f 20//20 19//19 23//23
f 23//23 19//19 16//16
f 24//24 25//25 27//27
f 27//27 25//25 26//26
f 28//28 29//29 31//31
f 31//31 29//29 30//30
f 33//33 37//37 32//32
f 32//32 37//37 38//38
f 32//32 38//38 35//35
f 35//35 38//38 39//39
f 35//35 39//39 36//36
f 33//33 34//34 37//37
f 37//37 34//34 36//36
f 36//36 34//34 35//35
f 40//40 41//41 43//43
f 43//43 41//41 42//42
f 67//67 44//44 70//70
f 70//70 44//44 45//45
f 70//70 45//45 46//46
f 70//70 46//46 69//69
f 69//69 46//46 47//47
f 69//69 47//47 48//48
f 48//48 49//49 69//69
f 69//69 49//49 50//50
f 69//69 50//50 51//51
f 51//51 52//52 69//69
f 69//69 52//52 53//53
f 69//69 53//53 54//54
f 69//69 54//54 68//68
f 68//68 54//54 55//55
f 68//68 55//55 56//56
f 56//56 57//57 68//68
f 68//68 57//57 58//58
f 68//68 58//58 59//59
f 59//59 60//60 68//68
f 68//68 60//60 61//61
f 68//68 61//61 62//62
f 68//68 62//62 70//70
f 70//70 62//62 63//63
f 70//70 63//63 64//64
f 64//64 65//65 70//70
f 70//70 65//65 66//66
f 70//70 66//66 67//67
f 71//71 72//72 74//74
f 74//74 72//72 73//73
f 75//75 76//76 78//78
f 78//78 76//76 77//77
f 79//79 80//80 82//82
f 82//82 80//80 81//81
f 84//84 130//130 83//83
f 83//83 130//130 132//132
f 131//131 107//107 106//106
f 106//106 107//107 108//108
f 106//106 108//108 105//105
f 105//105 108//108 109//109
f 105//105 109//109 104//104
f 104//104 109//109 110//110
f 104//104 110//110 103//103
f 103//103 110//110 111//111
f 103//103 111//111 102//102
f 102//102 111//111 112//112
f 102//102 112//112 101//101
f 101//101 112//112 113//113
f 101//101 113//113 100//100
f 100//100 113//113 114//114
f 100//100 114//114 99//99
f 99//99 114//114 115//115
f 99//99 115//115 98//98
f 98//98 115//115 116//116
f 98//98 116//116 97//97
f 97//97 116//116 117//117
f 97//97 117//117 96//96
f 96//96 117//117 118//118
f 96//96 118//118 95//95
f 95//95 118//118 119//119
f 95//95 119//119 94//94
f 94//94 119//119 120//120
f 94//94 120//120 93//93
f 93//93 120//120 121//121
f 93//93 121//121 92//92
f 92//92 121//121 122//122
f 92//92 122//122 91//91
f 91//91 122//122 123//123
f 91//91 123//123 90//90
f 90//90 123//123 124//124
f 90//90 124//124 89//89
f 89//89 124//124 125//125
f 89//89 125//125 88//88
f 88//88 125//125 126//126
f 88//88 126//126 87//87
f 87//87 126//126 127//127
f 87//87 127//127 86//86
f 86//86 127//127 128//128
f 86//86 128//128 85//85
f 85//85 128//128 129//129
f 85//85 129//129 84//84
f 84//84 129//129 130//130
f 134//134 135//135 133//133
f 133//133 135//135 136//136
f 137//137 138//138 140//140
f 140//140 138//138 139//139
f 142//142 152//152 141//141
f 141//141 152//152 153//153
f 141//141 153//153 164//164
f 164//164 153//153 154//154
f 164//164 154//154 163//163
f 163//163 154//154 155//155
f 163//163 155//155 162//162
f 162//162 155//155 156//156
f 162//162 156//156 161//161
f 161//161 156//156 157//157
f 161//161 157//157 160//160
f 160//160 157//157 158//158
f 160//160 158//158 159//159
f 152//152 142//142 151//151
f 151//151 142//142 143//143
f 151//151 143//143 150//150
f 150//150 143//143 144//144
f 150//150 144//144 149//149
f 149//149 144//144 145//145
f 149//149 145//145 148//148
f 148//148 145//145 146//146
f 148//148 146//146 147//147

# End of file