# WaveFront *.obj file
# Vertices: 94
# Triangles : 76

v 25.5 0.5 -10.0
v -25.5 0.5 -10.0
v -25.5 0.5 40.0
v 1.7000000476837158 0.5 47.2882194519043
v 4.300000190734863 0.5 37.58488464355469
v 3.1414144039154053 0.5 34.963626861572266
v 2.258345127105713 0.5 32.237178802490234
v 1.6601436138153076 0.5 29.434415817260742
v 1.3531440496444702 0.5 26.58501625061035
v 1.3405975103378296 0.5 23.719154357910156
v 1.6226369142532349 0.5 20.867176055908203
v 2.196275472640991 0.5 18.059284210205078
v 3.055438995361328 0.5 15.325209617614746
v 4.191029071807861 0.5 12.6939058303833
v 5.5910210609436035 0.5 10.193236351013184
v 7.2405900955200195 0.5 7.849682331085205
v 9.122267723083496 0.5 5.688059329986572
v 11.2161283493042 0.5 3.7312583923339844
v 13.5 0.5 2.0
v 25.5 0.5 5.329070518200751e-15
v 4.300000190734863 0.0 37.58488464355469
v 3.1414144039154053 0.0 34.963626861572266
v 2.258345127105713 0.0 32.237178802490234
v 1.6601436138153076 0.0 29.434415817260742
v 1.3531440496444702 0.0 26.58501625061035
v 1.3405975103378296 0.0 23.719154357910156
v 1.6226369142532349 0.0 20.867176055908203
v 2.196275472640991 0.0 18.059284210205078
v 3.055438995361328 0.0 15.325209617614746
v 4.191029071807861 0.0 12.6939058303833
v 5.5910210609436035 0.0 10.193236351013184
v 7.2405900955200195 0.0 7.849682331085205
v 9.122267723083496 0.0 5.688059329986572
v 11.2161283493042 0.0 3.7312583923339844
v 13.5 0.0 2.0
v 13.5 0.5 2.0
v 11.2161283493042 0.5 3.7312583923339844
v 9.122267723083496 0.5 5.688059329986572
v 7.2405900955200195 0.5 7.849682331085205
v 5.5910210609436035 0.5 10.193236351013184
v 4.191029071807861 0.5 12.6939058303833
v 3.055438995361328 0.5 15.325209617614746
v 2.196275472640991 0.5 18.059284210205078
v 1.6226369142532349 0.5 20.867176055908203
v 1.3405975103378296 0.5 23.719154357910156
v 1.3531440496444702 0.5 26.58501625061035
v 1.6601436138153076 0.5 29.434415817260742
v 2.258345127105713 0.5 32.237178802490234
v 3.1414144039154053 0.5 34.963626861572266
v 4.300000190734863 0.5 37.58488464355469
v 13.5 0.0 2.0
v 25.5 0.0 5.871708623332063e-15
v 25.5 0.5 5.329070518200751e-15
v 13.5 0.5 2.0
v 25.5 0.0 5.871708623332063e-15
v 25.5 0.0 -10.0
v 25.5 0.5 -10.0
v 25.5 0.5 5.329070518200751e-15
v -25.5 0.0 -10.0
v 25.5 0.0 -10.0
v 25.5 0.0 5.871708623332063e-15
v 13.5 0.0 2.0
v 11.2161283493042 0.0 3.7312583923339844
v 9.122267723083496 0.0 5.688059329986572
v 7.2405900955200195 0.0 7.849682331085205
v 5.5910210609436035 0.0 10.193236351013184
v 4.191029071807861 0.0 12.6939058303833
v 3.055438995361328 0.0 15.325209617614746
v 2.196275472640991 0.0 18.059284210205078
v 1.6226369142532349 0.0 20.867176055908203
v 1.3405975103378296 0.0 23.719154357910156
v 1.3531440496444702 0.0 26.58501625061035
v 1.6601436138153076 0.0 29.434415817260742
v 2.258345127105713 0.0 32.237178802490234
v 3.1414144039154053 0.0 34.963626861572266
v 4.300000190734863 0.0 37.58488464355469
v 1.7000000476837158 0.0 47.2882194519043
v -25.5 0.0 40.0
v 25.5 0.0 -10.0
v -25.5 0.0 -10.0
v -25.5 0.5 -10.0
v 25.5 0.5 -10.0
v 1.7000000476837158 0.0 47.2882194519043
v 4.300000190734863 0.0 37.58488464355469
v 4.300000190734863 0.5 37.58488464355469
v 1.7000000476837158 0.5 47.2882194519043
v -25.5 0.0 -10.0
v -25.5 0.0 40.0
v -25.5 0.5 40.0
v -25.5 0.5 -10.0
v -25.5 0.0 40.0
v 1.7000000476837158 0.0 47.2882194519043
v 1.7000000476837158 0.5 47.2882194519043
v -25.5 0.5 40.0
vn 0.0 1.0 0.0
vn 0.0 1.0 0.0
vn 0.0 1.0 0.0
vn 0.0 1.0 0.0
vn 0.0 1.0 0.0
vn 0.0 1.0 0.0
vn 0.0 1.0 0.0
vn 0.0 1.0 0.0
vn 0.0 1.0 0.0
vn 0.0 1.0 0.0
vn 0.0 1.0 0.0
vn 0.0 1.0 0.0
vn 0.0 1.0 0.0
vn 0.0 1.0 0.0
vn 0.0 1.0 0.0
vn 0.0 1.0 0.0
vn 0.0 1.0 0.0
vn 0.0 1.0 0.0
vn 0.0 1.0 0.0
vn 0.0 1.0 0.0
vn 0.8926289081573486 0.0 -0.45079219341278076
vn 0.934229850769043 0.0 -0.356671541929245
vn 0.9659379124641418 0.0 -0.2587739825248718
vn 0.9874173402786255 0.0 -0.15813618898391724
vn 0.9984406232833862 0.0 -0.05582382529973984
vn 0.9988911151885986 -0.0 0.0470796674489975
vn 0.9887640476226807 -0.0 0.14948461949825287
vn 0.9681665897369385 -0.0 0.250306636095047
vn 0.9373169541358948 -0.0 0.3484780490398407
vn 0.8965417146682739 -0.0 0.44295933842658997
vn 0.8462727069854736 -0.0 0.5327499508857727
vn 0.7870422005653381 -0.0 0.6168991327285767
vn 0.7194774746894836 -0.0 0.6945157647132874
vn 0.6442939639091492 -0.0 0.7647778987884521
vn 0.5622878074645996 -0.0 0.8269416093826294
vn 0.5622878074645996 -0.0 0.8269416093826294
vn 0.6442939639091492 -0.0 0.7647778987884521
vn 0.7194774746894836 -0.0 0.6945157647132874
vn 0.7870422005653381 -0.0 0.6168991327285767
vn 0.8462727069854736 -0.0 0.5327499508857727
vn 0.8965417146682739 -0.0 0.44295933842658997
vn 0.9373169541358948 -0.0 0.3484780490398407
vn 0.9681665897369385 -0.0 0.250306636095047
vn 0.9887640476226807 -0.0 0.14948461949825287
vn 0.9988911151885986 -0.0 0.0470796674489975
vn 0.9984406232833862 0.0 -0.05582382529973984
vn 0.9874173402786255 0.0 -0.15813618898391724
vn 0.9659379124641418 0.0 -0.2587739825248718
vn 0.934229850769043 0.0 -0.356671541929245
vn 0.8926289081573486 0.0 -0.45079219341278076
vn 0.16439898312091827 -0.0 0.986393928527832
vn 0.16439898312091827 -0.0 0.986393928527832
vn 0.16439898312091827 -0.0 0.986393928527832
vn 0.16439898312091827 -0.0 0.986393928527832
vn 1.0 0.0 -3.55271373174006e-16
vn 1.0 0.0 -3.55271373174006e-16
vn 1.0 0.0 -3.55271373174006e-16
vn 1.0 0.0 -3.55271373174006e-16
vn -0.0 -1.0 -0.0
vn -0.0 -1.0 -0.0
vn -0.0 -1.0 -0.0
vn -0.0 -1.0 -0.0
vn -0.0 -1.0 -0.0
vn -0.0 -1.0 -0.0
vn -0.0 -1.0 -0.0
vn -0.0 -1.0 -0.0
vn -0.0 -1.0 -0.0
vn -0.0 -1.0 -0.0
vn -0.0 -1.0 -0.0
vn -0.0 -1.0 -0.0
vn -0.0 -1.0 -0.0
vn -0.0 -1.0 -0.0
vn -0.0 -1.0 -0.0
vn -0.0 -1.0 -0.0
vn -0.0 -1.0 -0.0
vn -0.0 -1.0 -0.0
vn -0.0 -1.0 -0.0
vn -0.0 -1.0 -0.0
vn 0.0 0.0 -1.0
vn 0.0 0.0 -1.0
vn 0.0 0.0 -1.0
vn 0.0 0.0 -1.0
vn 0.9659258127212524 -0.0 0.258819043636322
vn 0.9659258127212524 -0.0 0.258819043636322
vn 0.9659258127212524 -0.0 0.258819043636322
vn 0.9659258127212524 -0.0 0.258819043636322
vn -1.0 0.0 0.0
vn -1.0 0.0 0.0
vn -1.0 0.0 0.0
vn -1.0 0.0 0.0
vn -0.258819043636322 0.0 0.9659258127212524
vn -0.258819043636322 0.0 0.9659258127212524
vn -0.258819043636322 0.0 0.9659258127212524
vn -0.258819043636322 0.0 0.9659258127212524
f 20//20 1//1 19//19
f 19//19 1//1 2//2
f 19//19 2//2 18//18
f 18//18 2//2 17//17
f 17//17 2//2 16//16
f 16//16 2//2 15//15
f 15//15 2//2 14//14
f 14//14 2//2 13//13
f 13//13 2//2 12//12
f 12//12 2//2 11//11
f 11//11 2//2 3//3
f 11//11 3//3 10//10
f 10//10 3//3 9//9
f 9//9 3//3 8//8
f 8//8 3//3 7//7
f 7//7 3//3 6//6
f 6//6 3//3 4//4
f 6//6 4//4 5//5
f 50//50 21//21 49//49
f 49//49 21//21 22//22
f 49//49 22//22 48//48
f 48//48 22//22 23//23
f 48//48 23//23 47//47
f 47//47 23//23 24//24
f 47//47 24//24 46//46
f 46//46 24//24 25//25
f 46//46 25//25 45//45
f 45//45 25//25 26//26
f 45//45 26//26 44//44
f 44//44 26//26 27//27
f 44//44 27//27 43//43
f 43//43 27//27 28//28
f 43//43 28//28 42//42
f 42//42 28//28 29//29
f 42//42 29//29 41//41
f 41//41 29//29 30//30
f 41//41 30//30 40//40
f 40//40 30//30 31//31
f 40//40 31//31 39//39
f 39//39 31//31 32//32
f 39//39 32//32 38//38
f 38//38 32//32 33//33
f 38//38 33//33 37//37
f 37//37 33//33 34//34
f 37//37 34//34 36//36
f 36//36 34//34 35//35
f 51//51 52//52 54//54
f 54//54 52//52 53//53
f 55//55 56//56 58//58
f 58//58 56//56 57//57
f 60//60 62//62 59//59
f 59//59 62//62 63//63
f 59//59 63//63 64//64
f 60//60 61//61 62//62
f 64//64 65//65 59//59
f 59//59 65//65 66//66
f 59//59 66//66 67//67
f 67//67 68//68 59//59
f 59//59 68//68 69//69
f 59//59 69//69 70//70
f 59//59 70//70 78//78
f 78//78 70//70 71//71
f 78//78 71//71 72//72
f 72//72 73//73 78//78
f 78//78 73//73 74//74
f 78//78 74//74 75//75
f 76//76 77//77 75//75
f 75//75 77//77 78//78
f 79//79 80//80 82//82
f 82//82 80//80 81//81
f 83//83 84//84 86//86
f 86//86 84//84 85//85
f 87//87 88//88 90//90
f 90//90 88//88 89//89
f 91//91 92//92 94//94
f 94//94 92//92 93//93

# End of file