# WaveFront *.obj file
# Vertices: 24
# Triangles : 12

v 1.4558323621749878 -7.056730270385742 3.9934139251708984
v -1.4500000476837158 -7.056730270385742 3.9934139251708984
v -1.4500000476837158 -4.150000095367432 3.9934139251708984
v 1.4558323621749878 -4.150000095367432 3.9934139251708984
v -1.4500000476837158 -7.056730270385742 4.493413925170898
v 1.4558323621749878 -7.056730270385742 4.493413925170898
v 1.4558323621749878 -4.150000095367432 4.493413925170898
v -1.4500000476837158 -4.150000095367432 4.493413925170898
v -1.4500000476837158 -7.056730270385742 3.9934139251708984
v 1.4558323621749878 -7.056730270385742 3.9934139251708984
v 1.4558323621749878 -7.056730270385742 4.493413925170898
v -1.4500000476837158 -7.056730270385742 4.493413925170898
v 1.4558323621749878 -7.056730270385742 3.9934139251708984
v 1.4558323621749878 -4.150000095367432 3.9934139251708984
v 1.4558323621749878 -4.150000095367432 4.493413925170898
v 1.4558323621749878 -7.056730270385742 4.493413925170898
v -1.4500000476837158 -4.150000095367432 3.9934139251708984
v -1.4500000476837158 -7.056730270385742 3.9934139251708984
v -1.4500000476837158 -7.056730270385742 4.493413925170898
v -1.4500000476837158 -4.150000095367432 4.493413925170898
v 1.4558323621749878 -4.150000095367432 3.9934139251708984
v -1.4500000476837158 -4.150000095367432 3.9934139251708984
v -1.4500000476837158 -4.150000095367432 4.493413925170898
v 1.4558323621749878 -4.150000095367432 4.493413925170898
vn -4.3260442246713957e-16 -4.881168971873775e-17 -1.0
vn -4.3260442246713957e-16 -4.881168971873775e-17 -1.0
vn -4.3260442246713957e-16 -4.881168971873775e-17 -1.0
vn -4.3260442246713957e-16 -4.881168971873775e-17 -1.0
vn 4.440892098500626e-16 0.0 1.0
vn 4.440892098500626e-16 0.0 1.0
vn 4.440892098500626e-16 0.0 1.0
vn 4.440892098500626e-16 0.0 1.0
vn 7.861444318158096e-31 -1.0 -0.0
vn 7.861444318158096e-31 -1.0 -0.0
vn 7.861444318158096e-31 -1.0 -0.0
vn 7.861444318158096e-31 -1.0 -0.0
vn 1.0 7.91836034403169e-31 -4.440892098500626e-16
vn 1.0 7.91836034403169e-31 -4.440892098500626e-16
vn 1.0 7.91836034403169e-31 -4.440892098500626e-16
vn 1.0 7.91836034403169e-31 -4.440892098500626e-16
vn -1.0 -7.91836034403169e-31 4.440892098500626e-16
vn -1.0 -7.91836034403169e-31 4.440892098500626e-16
vn -1.0 -7.91836034403169e-31 4.440892098500626e-16
vn -1.0 -7.91836034403169e-31 4.440892098500626e-16
vn -7.861444318158096e-31 1.0 0.0
vn -7.861444318158096e-31 1.0 0.0
vn -7.861444318158096e-31 1.0 0.0
vn -7.861444318158096e-31 1.0 0.0
f 1//1 2//2 4//4
f 4//4 2//2 3//3
f 5//5 6//6 8//8
f 8//8 6//6 7//7
f 9//9 10//10 12//12
f 12//12 10//10 11//11
f 13//13 14//14 16//16
f 16//16 14//14 15//15
f 17//17 18//18 20//20
f 20//20 18//18 19//19
f 21//21 22//22 24//24
f 24//24 22//22 23//23

# End of file