# WaveFront *.obj file
# Vertices: 150
# Triangles : 112

v -0.36279183626174927 0.0 -0.3336940109729767
v 2.194838523864746 0.0 -1.594705581665039
v 2.194838523864746 2.0320000648498535 -1.594705581665039
v -0.36279183626174927 2.0320000648498535 -0.3336940109729767
v -0.3523826599121094 0.0 -0.2967907190322876
v -0.36279183626174927 0.0 -0.3336940109729767
v -0.36279183626174927 2.0320000648498535 -0.3336940109729767
v -0.3523826599121094 2.0320000648498535 -0.2967907190322876
v -1.3004428148269653 0.0 0.6295020580291748
v -1.019459843635559 0.0 0.4470902681350708
v -0.764926552772522 0.0 0.2292867749929428
v -0.5412706732749939 0.0 -0.020119687542319298
v -0.3523826599121094 0.0 -0.2967907190322876
v -0.3523826599121094 2.0320000648498535 -0.2967907190322876
v -0.5412706732749939 2.0320000648498535 -0.020119687542319298
v -0.764926552772522 2.0320000648498535 0.2292867749929428
v -1.019459843635559 2.0320000648498535 0.4470902681350708
v -1.3004428148269653 2.0320000648498535 0.6295020580291748
v -2.4957995414733887 0.0 3.1502468585968018
v -1.3004428148269653 0.0 0.6295020580291748
v -1.3004428148269653 2.0320000648498535 0.6295020580291748
v -2.4957995414733887 2.0320000648498535 3.1502468585968018
v -3.7568111419677734 0.0 0.5926163792610168
v -2.4957995414733887 0.0 3.1502468585968018
v -2.4957995414733887 2.0320000648498535 3.1502468585968018
v -3.7568111419677734 2.0320000648498535 0.5926163792610168
v -3.8160173892974854 0.0 0.6087194085121155
v -3.7568111419677734 0.0 0.5926163792610168
v -3.7568111419677734 2.0320000648498535 0.5926163792610168
v -3.8160173892974854 2.0320000648498535 0.6087194085121155
v -4.73172664642334 0.0 -0.30378127098083496
v -4.548913955688477 0.0 -0.03319484367966652
v -4.3328962326049805 0.0 0.21170072257518768
v -4.087244033813477 0.0 0.4268575608730316
v -3.8160173892974854 0.0 0.6087194085121155
v -3.8160173892974854 2.0320000648498535 0.6087194085121155
v -4.087244033813477 2.0320000648498535 0.4268575608730316
v -4.3328962326049805 2.0320000648498535 0.21170072257518768
v -4.548913955688477 2.0320000648498535 -0.03319484367966652
v -4.73172664642334 2.0320000648498535 -0.30378127098083496
v -4.724277973175049 0.0 -0.33065009117126465
v -4.73172664642334 0.0 -0.30378127098083496
v -4.73172664642334 2.0320000648498535 -0.30378127098083496
v -4.724277973175049 2.0320000648498535 -0.33065009117126465
v -7.2819085121154785 0.0 -1.5916616916656494
v -4.724277973175049 0.0 -0.33065009117126465
v -4.724277973175049 2.0320000648498535 -0.33065009117126465
v -7.2819085121154785 2.0320000648498535 -1.5916616916656494
v -4.724277973175049 0.0 -2.852673292160034
v -7.2819085121154785 0.0 -1.5916616916656494
v -7.2819085121154785 2.0320000648498535 -1.5916616916656494
v -4.724277973175049 2.0320000648498535 -2.852673292160034
v -4.7301859855651855 0.0 -2.8738458156585693
v -4.724277973175049 0.0 -2.852673292160034
v -4.724277973175049 2.0320000648498535 -2.852673292160034
v -4.7301859855651855 2.0320000648498535 -2.8738458156585693
v -3.801011562347412 0.0 -3.7923696041107178
v -4.076315402984619 0.0 -3.6102049350738525
v -4.325668811798096 0.0 -3.393874168395996
v -4.544859409332275 0.0 -3.14703106880188
v -4.7301859855651855 0.0 -2.8738458156585693
v -4.7301859855651855 2.0320000648498535 -2.8738458156585693
v -4.544859409332275 2.0320000648498535 -3.14703106880188
v -4.325668811798096 2.0320000648498535 -3.393874168395996
v -4.076315402984619 2.0320000648498535 -3.6102049350738525
v -3.801011562347412 2.0320000648498535 -3.7923696041107178
v -2.5399999618530273 0.0 -6.349999904632568
v -3.801011562347412 0.0 -3.7923696041107178
v -3.801011562347412 2.0320000648498535 -3.7923696041107178
v -2.5399999618530273 2.0320000648498535 -6.349999904632568
v -1.2789883613586426 0.0 -3.7923696041107178
v -2.5399999618530273 0.0 -6.349999904632568
v -2.5399999618530273 2.0320000648498535 -6.349999904632568
v -1.2789883613586426 2.0320000648498535 -3.7923696041107178
v -0.31875014305114746 0.0 -2.8194289207458496
v -0.5066304206848145 0.0 -3.1096720695495605
v -0.7321865558624268 0.0 -3.371711492538452
v -0.9912391901016235 0.0 -3.600691318511963
v -1.2789883613586426 0.0 -3.7923696041107178
v -1.2789883613586426 2.0320000648498535 -3.7923696041107178
v -0.9912391901016235 2.0320000648498535 -3.600691318511963
v -0.7321865558624268 2.0320000648498535 -3.371711492538452
v -0.5066304206848145 2.0320000648498535 -3.1096720695495605
v -0.31875014305114746 2.0320000648498535 -2.8194289207458496
v -0.3259061574935913 0.0 -2.790062427520752
v -0.31875014305114746 0.0 -2.8194289207458496
v -0.31875014305114746 2.0320000648498535 -2.8194289207458496
v -0.3259061574935913 2.0320000648498535 -2.790062427520752
v 2.194838523864746 0.0 -1.594705581665039
v -0.3259061574935913 0.0 -2.790062427520752
v -0.3259061574935913 2.0320000648498535 -2.790062427520752
v 2.194838523864746 2.0320000648498535 -1.594705581665039
v 2.194838523864746 2.0320000648498535 -1.594705581665039
v -0.3259061574935913 2.0320000648498535 -2.790062427520752
v -0.31875014305114746 2.0320000648498535 -2.8194289207458496
v -0.5066304206848145 2.0320000648498535 -3.1096720695495605
v -0.7321865558624268 2.0320000648498535 -3.371711492538452
v -0.9912391901016235 2.0320000648498535 -3.600691318511963
v -1.2789883613586426 2.0320000648498535 -3.7923696041107178
v -2.5399999618530273 2.0320000648498535 -6.349999904632568
v -3.801011562347412 2.0320000648498535 -3.7923696041107178
v -4.076315402984619 2.0320000648498535 -3.6102049350738525
v -4.325668811798096 2.0320000648498535 -3.393874168395996
v -4.544859409332275 2.0320000648498535 -3.14703106880188
v -4.7301859855651855 2.0320000648498535 -2.8738458156585693
v -4.724277973175049 2.0320000648498535 -2.852673292160034
v -7.2819085121154785 2.0320000648498535 -1.5916616916656494
v -4.724277973175049 2.0320000648498535 -0.33065009117126465
v -4.73172664642334 2.0320000648498535 -0.30378127098083496
v -4.548913955688477 2.0320000648498535 -0.03319484367966652
v -4.3328962326049805 2.0320000648498535 0.21170072257518768
v -4.087244033813477 2.0320000648498535 0.4268575608730316
v -3.8160173892974854 2.0320000648498535 0.6087194085121155
v -3.7568111419677734 2.0320000648498535 0.5926163792610168
v -2.4957995414733887 2.0320000648498535 3.1502468585968018
v -1.3004428148269653 2.0320000648498535 0.6295020580291748
v -1.019459843635559 2.0320000648498535 0.4470902681350708
v -0.764926552772522 2.0320000648498535 0.2292867749929428
v -0.5412706732749939 2.0320000648498535 -0.020119687542319298
v -0.3523826599121094 2.0320000648498535 -0.2967907190322876
v -0.36279183626174927 2.0320000648498535 -0.3336940109729767
v -0.3259061574935913 0.0 -2.790062427520752
v 2.194838523864746 0.0 -1.594705581665039
v -0.36279183626174927 0.0 -0.3336940109729767
v -0.3523826599121094 0.0 -0.2967907190322876
v -0.5412706732749939 0.0 -0.020119687542319298
v -0.764926552772522 0.0 0.2292867749929428
v -1.019459843635559 0.0 0.4470902681350708
v -1.3004428148269653 0.0 0.6295020580291748
v -2.4957995414733887 0.0 3.1502468585968018
v -3.7568111419677734 0.0 0.5926163792610168
v -3.8160173892974854 0.0 0.6087194085121155
v -4.087244033813477 0.0 0.4268575608730316
v -4.3328962326049805 0.0 0.21170072257518768
v -4.548913955688477 0.0 -0.03319484367966652
v -4.73172664642334 0.0 -0.30378127098083496
v -4.724277973175049 0.0 -0.33065009117126465
v -7.2819085121154785 0.0 -1.5916616916656494
v -4.724277973175049 0.0 -2.852673292160034
v -4.7301859855651855 0.0 -2.8738458156585693
v -4.544859409332275 0.0 -3.14703106880188
v -4.325668811798096 0.0 -3.393874168395996
v -4.076315402984619 0.0 -3.6102049350738525
v -3.801011562347412 0.0 -3.7923696041107178
v -2.5399999618530273 0.0 -6.349999904632568
v -1.2789883613586426 0.0 -3.7923696041107178
v -0.9912391901016235 0.0 -3.600691318511963
v -0.7321865558624268 0.0 -3.371711492538452
v -0.5066304206848145 0.0 -3.1096720695495605
v -0.31875014305114746 0.0 -2.8194289207458496
vn 0.44221192598342896 -0.0 0.8969106078147888
vn 0.44221192598342896 -0.0 0.8969106078147888
vn 0.44221192598342896 -0.0 0.8969106078147888
vn 0.44221192598342896 -0.0 0.8969106078147888
vn 0.9624459147453308 0.0 -0.2714734375476837
vn 0.9624459147453308 0.0 -0.2714734375476837
vn 0.9624459147453308 0.0 -0.2714734375476837
vn 0.9624459147453308 0.0 -0.2714734375476837
vn 0.4880146086215973 -0.0 0.8728354573249817
vn 0.5986378788948059 -0.0 0.8010197877883911
vn 0.6988478302955627 -0.0 0.7152704000473022
vn 0.7869012951850891 -0.0 0.6170788407325745
vn 0.8612666726112366 -0.0 0.5081532597541809
vn 0.8612666726112366 -0.0 0.5081532597541809
vn 0.7869012951850891 -0.0 0.6170788407325745
vn 0.6988478302955627 -0.0 0.7152704000473022
vn 0.5986378788948059 -0.0 0.8010197877883911
vn 0.4880146086215973 -0.0 0.8728354573249817
vn 0.9035547375679016 -0.0 0.42847269773483276
vn 0.9035547375679016 -0.0 0.42847269773483276
vn 0.9035547375679016 -0.0 0.42847269773483276
vn 0.9035547375679016 -0.0 0.42847269773483276
vn -0.8969106078147888 0.0 0.44221192598342896
vn -0.8969106078147888 0.0 0.44221192598342896
vn -0.8969106078147888 0.0 0.44221192598342896
vn -0.8969106078147888 0.0 0.44221192598342896
vn 0.2624480426311493 -0.0 0.9649461507797241
vn 0.2624480426311493 -0.0 0.9649461507797241
vn 0.2624480426311493 -0.0 0.9649461507797241
vn 0.2624480426311493 -0.0 0.9649461507797241
vn -0.8628845810890198 -0.0 0.505401074886322
vn -0.7909110188484192 -0.0 0.6119311451911926
vn -0.705864667892456 -0.0 0.7083467245101929
vn -0.6091511249542236 -0.0 0.7930541634559631
vn -0.5023690462112427 -0.0 0.8646532893180847
vn -0.5023690462112427 -0.0 0.8646532893180847
vn -0.6091511249542236 -0.0 0.7930541634559631
vn -0.705864667892456 -0.0 0.7083467245101929
vn -0.7909110188484192 -0.0 0.6119311451911926
vn -0.8628845810890198 -0.0 0.505401074886322
vn -0.9636550545692444 0.0 -0.26714974641799927
vn -0.9636550545692444 0.0 -0.26714974641799927
vn -0.9636550545692444 0.0 -0.26714974641799927
vn -0.9636550545692444 0.0 -0.26714974641799927
vn -0.44221192598342896 0.0 0.8969106078147888
vn -0.44221192598342896 0.0 0.8969106078147888
vn -0.44221192598342896 0.0 0.8969106078147888
vn -0.44221192598342896 0.0 0.8969106078147888
vn -0.44221192598342896 0.0 -0.8969106078147888
vn -0.44221192598342896 0.0 -0.8969106078147888
vn -0.44221192598342896 0.0 -0.8969106078147888
vn -0.44221192598342896 0.0 -0.8969106078147888
vn -0.9632048606872559 0.0 0.2687683701515198
vn -0.9632048606872559 0.0 0.2687683701515198
vn -0.9632048606872559 0.0 0.2687683701515198
vn -0.9632048606872559 0.0 0.2687683701515198
vn -0.49646124243736267 0.0 -0.8680588603019714
vn -0.6048485636711121 0.0 -0.7963405251502991
vn -0.7030191421508789 0.0 -0.7111709117889404
vn -0.7893148064613342 0.0 -0.6139886975288391
vn -0.8622779250144958 0.0 -0.5064353346824646
vn -0.8622779250144958 0.0 -0.5064353346824646
vn -0.7893148064613342 0.0 -0.6139886975288391
vn -0.7030191421508789 0.0 -0.7111709117889404
vn -0.6048485636711121 0.0 -0.7963405251502991
vn -0.49646124243736267 0.0 -0.8680588603019714
vn -0.8969106078147888 0.0 -0.44221192598342896
vn -0.8969106078147888 0.0 -0.44221192598342896
vn -0.8969106078147888 0.0 -0.44221192598342896
vn -0.8969106078147888 0.0 -0.44221192598342896
vn 0.8969106078147888 0.0 -0.44221192598342896
vn 0.8969106078147888 0.0 -0.44221192598342896
vn 0.8969106078147888 0.0 -0.44221192598342896
vn 0.8969106078147888 0.0 -0.44221192598342896
vn 0.8745078444480896 -0.0 -0.48501142859458923
vn 0.8005391955375671 -0.0 -0.5992804169654846
vn 0.7117375731468201 -0.0 -0.7024454474449158
vn 0.609748363494873 -0.0 -0.7925950884819031
vn 0.49646124243736267 -0.0 -0.8680588603019714
vn 0.49646124243736267 -0.0 -0.8680588603019714
vn 0.609748363494873 -0.0 -0.7925950884819031
vn 0.7117375731468201 -0.0 -0.7024454474449158
vn 0.8005391955375671 -0.0 -0.5992804169654846
vn 0.8745078444480896 -0.0 -0.48501142859458923
vn 0.9715701937675476 -0.0 0.2367517650127411
vn 0.9715701937675476 -0.0 0.2367517650127411
vn 0.9715701937675476 -0.0 0.2367517650127411
vn 0.9715701937675476 -0.0 0.2367517650127411
vn 0.42847269773483276 0.0 -0.9035547375679016
vn 0.42847269773483276 0.0 -0.9035547375679016
vn 0.42847269773483276 0.0 -0.9035547375679016
vn 0.42847269773483276 0.0 -0.9035547375679016
vn 0.0 1.0 0.0
vn 0.0 1.0 0.0
vn 0.0 1.0 0.0
vn 0.0 1.0 0.0
vn 0.0 1.0 0.0
vn 0.0 1.0 0.0
vn 0.0 1.0 0.0
vn 0.0 1.0 0.0
vn 0.0 1.0 0.0
vn 0.0 1.0 0.0
vn 0.0 1.0 0.0
vn 0.0 1.0 0.0
vn 0.0 1.0 0.0
vn 0.0 1.0 0.0
vn 0.0 1.0 0.0
vn 0.0 1.0 0.0
vn 0.0 1.0 0.0
vn 0.0 1.0 0.0
vn 0.0 1.0 0.0
vn 0.0 1.0 0.0
vn 0.0 1.0 0.0
vn 0.0 1.0 0.0
vn 0.0 1.0 0.0
vn 0.0 1.0 0.0
vn 0.0 1.0 0.0
vn 0.0 1.0 0.0
vn 0.0 1.0 0.0
vn 0.0 1.0 0.0
vn 0.0 1.0 0.0
vn -0.0 -1.0 -0.0
vn -0.0 -1.0 -0.0
vn -0.0 -1.0 -0.0
vn -0.0 -1.0 -0.0
vn -0.0 -1.0 -0.0
vn -0.0 -1.0 -0.0
vn -0.0 -1.0 -0.0
vn -0.0 -1.0 -0.0
vn -0.0 -1.0 -0.0
vn -0.0 -1.0 -0.0
vn -0.0 -1.0 -0.0
vn -0.0 -1.0 -0.0
vn -0.0 -1.0 -0.0
vn -0.0 -1.0 -0.0
vn -0.0 -1.0 -0.0
vn -0.0 -1.0 -0.0
vn -0.0 -1.0 -0.0
vn -0.0 -1.0 -0.0
vn -0.0 -1.0 -0.0
vn -0.0 -1.0 -0.0
vn -0.0 -1.0 -0.0
vn -0.0 -1.0 -0.0
vn -0.0 -1.0 -0.0
vn -0.0 -1.0 -0.0
vn -0.0 -1.0 -0.0
vn -0.0 -1.0 -0.0
vn -0.0 -1.0 -0.0
vn -0.0 -1.0 -0.0
vn -0.0 -1.0 -0.0
g eb505d5d-e348-11ea-a4de-54bf646e7e1f
f 1//1 2//2 4//4
f 4//4 2//2 3//3
g eb508474-e348-11ea-a6ff-54bf646e7e1f
f 5//5 6//6 8//8
f 8//8 6//6 7//7
g eb50ab88-e348-11ea-be3c-54bf646e7e1f
f 18//18 9//9 17//17
f 17//17 9//9 10//10
f 17//17 10//10 16//16
f 16//16 10//10 11//11
f 16//16 11//11 15//15
f 15//15 11//11 12//12
f 15//15 12//12 14//14
f 14//14 12//12 13//13
g eb50f9b4-e348-11ea-8e96-54bf646e7e1f
f 19//19 20//20 22//22
f 22//22 20//20 21//21
g eb5120be-e348-11ea-9539-54bf646e7e1f
f 23//23 24//24 26//26
f 26//26 24//24 25//25
g eb5147ca-e348-11ea-8d69-54bf646e7e1f
f 27//27 28//28 30//30
f 30//30 28//28 29//29
g eb5195e8-e348-11ea-b962-54bf646e7e1f
f 40//40 31//31 39//39
f 39//39 31//31 32//32
f 39//39 32//32 38//38
f 38//38 32//32 33//33
f 38//38 33//33 37//37
f 37//37 33//33 34//34
f 37//37 34//34 36//36
f 36//36 34//34 35//35
g eb51e41a-e348-11ea-b145-54bf646e7e1f
f 41//41 42//42 44//44
f 44//44 42//42 43//43
g eb520b28-e348-11ea-9581-54bf646e7e1f
f 45//45 46//46 48//48
f 48//48 46//46 47//47
g eb52595c-e348-11ea-8b07-54bf646e7e1f
f 49//49 50//50 52//52
f 52//52 50//50 51//51
g eb52ce8c-e348-11ea-adf4-54bf646e7e1f
f 53//53 54//54 56//56
f 56//56 54//54 55//55
g eb531cb0-e348-11ea-823b-54bf646e7e1f
f 66//66 57//57 65//65
f 65//65 57//57 58//58
f 65//65 58//58 64//64
f 64//64 58//58 59//59
f 64//64 59//59 63//63
f 63//63 59//59 60//60
f 63//63 60//60 62//62
f 62//62 60//60 61//61
g eb536aec-e348-11ea-a570-54bf646e7e1f
f 67//67 68//68 70//70
f 70//70 68//68 69//69
g eb53e014-e348-11ea-9d53-54bf646e7e1f
f 71//71 72//72 74//74
f 74//74 72//72 73//73
g eb542e2c-e348-11ea-aa75-54bf646e7e1f
f 84//84 75//75 83//83
f 83//83 75//75 76//76
f 83//83 76//76 82//82
f 82//82 76//76 77//77
f 82//82 77//77 81//81
f 81//81 77//77 78//78
f 81//81 78//78 80//80
f 80//80 78//78 79//79
g eb54a358-e348-11ea-817b-54bf646e7e1f
f 85//85 86//86 88//88
f 88//88 86//86 87//87
g eb55189c-e348-11ea-96a5-54bf646e7e1f
f 89//89 90//90 92//92
f 92//92 90//90 91//91
g eb558dc8-e348-11ea-b31a-54bf646e7e1f
f 93//93 94//94 121//121
f 121//121 94//94 106//106
f 121//121 106//106 117//117
f 117//117 106//106 114//114
f 117//117 114//114 116//116
f 116//116 114//114 115//115
f 95//95 96//96 94//94
f 94//94 96//96 101//101
f 94//94 101//101 102//102
f 96//96 97//97 101//101
f 101//101 97//97 98//98
f 101//101 98//98 99//99
f 99//99 100//100 101//101
f 102//102 103//103 94//94
f 94//94 103//103 104//104
f 94//94 104//104 106//106
f 106//106 104//104 105//105
f 107//107 108//108 106//106
f 106//106 108//108 114//114
f 109//109 110//110 108//108
f 108//108 110//110 114//114
f 110//110 111//111 114//114
f 114//114 111//111 112//112
f 114//114 112//112 113//113
f 117//117 118//118 121//121
f 121//121 118//118 119//119
f 121//121 119//119 120//120
g eb562a30-e348-11ea-a96b-54bf646e7e1f
f 123//123 124//124 122//122
f 122//122 124//124 139//139
f 122//122 139//139 141//141
f 141//141 139//139 140//140
f 125//125 126//126 124//124
f 124//124 126//126 127//127
f 124//124 127//127 128//128
f 129//129 131//131 128//128
f 128//128 131//131 139//139
f 128//128 139//139 124//124
f 129//129 130//130 131//131
f 132//132 133//133 131//131
f 131//131 133//133 134//134
f 131//131 134//134 135//135
f 136//136 137//137 135//135
f 135//135 137//137 131//131
f 138//138 139//139 137//137
f 137//137 139//139 131//131
f 141//141 142//142 122//122
f 122//122 142//142 143//143
f 122//122 143//143 144//144
f 145//145 146//146 144//144
f 144//144 146//146 147//147
f 144//144 147//147 148//148
f 148//148 149//149 144//144
f 144//144 149//149 122//122
f 149//149 150//150 122//122

# End of file