# WaveFront *.obj file
# Vertices: 48
# Triangles : 28

v 16.399999618530273 0.0 2.299999952316284
v 16.399999618530273 0.0 1.7000168561935425
v 16.399999618530273 0.599796712398529 1.7000168561935425
v 16.399999618530273 0.6000000238418579 3.5
v 16.399999618530273 0.0 3.5
v 16.399999618530273 0.0 2.9000000953674316
v 16.399999618530273 0.30000001192092896 2.9000000953674316
v 16.399999618530273 0.30000001192092896 2.299999952316284
v 15.800000190734863 0.0 2.299999952316284
v 15.800000190734863 0.0 1.7000168561935425
v 16.399999618530273 0.0 1.7000168561935425
v 16.399999618530273 0.0 2.299999952316284
v 15.800000190734863 0.0 1.7000168561935425
v 15.800000190734863 0.599796712398529 1.7000168561935425
v 16.399999618530273 0.599796712398529 1.7000168561935425
v 16.399999618530273 0.0 1.7000168561935425
v 15.800000190734863 0.0 1.7000168561935425
v 15.800000190734863 0.0 2.299999952316284
v 15.800000190734863 0.30000001192092896 2.299999952316284
v 15.800000190734863 0.30000001192092896 2.9000000953674316
v 15.800000190734863 0.0 2.9000000953674316
v 15.800000190734863 0.0 3.5
v 15.800000190734863 0.6000000238418579 3.5
v 15.800000190734863 0.599796712398529 1.7000168561935425
v 15.800000190734863 0.599796712398529 1.7000168561935425
v 15.800000190734863 0.6000000238418579 3.5
v 16.399999618530273 0.6000000238418579 3.5
v 16.399999618530273 0.599796712398529 1.7000168561935425
v 15.800000190734863 0.6000000238418579 3.5
v 15.800000190734863 0.0 3.5
v 16.399999618530273 0.0 3.5
v 16.399999618530273 0.6000000238418579 3.5
v 15.800000190734863 0.0 2.9000000953674316
v 15.800000190734863 0.30000001192092896 2.9000000953674316
v 16.399999618530273 0.30000001192092896 2.9000000953674316
v 16.399999618530273 0.0 2.9000000953674316
v 15.800000190734863 0.30000001192092896 2.9000000953674316
v 15.800000190734863 0.30000001192092896 2.299999952316284
v 16.399999618530273 0.30000001192092896 2.299999952316284
v 16.399999618530273 0.30000001192092896 2.9000000953674316
v 15.800000190734863 0.0 3.5
v 15.800000190734863 0.0 2.9000000953674316
v 16.399999618530273 0.0 2.9000000953674316
v 16.399999618530273 0.0 3.5
v 15.800000190734863 0.30000001192092896 2.299999952316284
v 15.800000190734863 0.0 2.299999952316284
v 16.399999618530273 0.0 2.299999952316284
v 16.399999618530273 0.30000001192092896 2.299999952316284
vn 1.0 0.0 0.0
vn 1.0 0.0 0.0
vn 1.0 0.0 0.0
vn 1.0 0.0 0.0
vn 1.0 0.0 0.0
vn 1.0 0.0 0.0
vn 1.0 0.0 0.0
vn 1.0 0.0 0.0
vn 0.0 -1.0 0.0
vn 0.0 -1.0 0.0
vn 0.0 -1.0 0.0
vn 0.0 -1.0 0.0
vn 0.0 0.0 -1.0
vn 0.0 0.0 -1.0
vn 0.0 0.0 -1.0
vn 0.0 0.0 -1.0
vn -1.0 -0.0 -0.0
vn -1.0 -0.0 -0.0
vn -1.0 -0.0 -0.0
vn -1.0 -0.0 -0.0
vn -1.0 -0.0 -0.0
vn -1.0 -0.0 -0.0
vn -1.0 -0.0 -0.0
vn -1.0 -0.0 -0.0
vn 0.0 1.0 -0.00011293250281596556
vn 0.0 1.0 -0.00011293250281596556
vn 0.0 1.0 -0.00011293250281596556
vn 0.0 1.0 -0.00011293250281596556
vn 0.0 0.0 1.0
vn 0.0 0.0 1.0
vn 0.0 0.0 1.0
vn 0.0 0.0 1.0
vn 0.0 0.0 -1.0
vn 0.0 0.0 -1.0
vn 0.0 0.0 -1.0
vn 0.0 0.0 -1.0
vn 0.0 -1.0 0.0
vn 0.0 -1.0 0.0
vn 0.0 -1.0 0.0
vn 0.0 -1.0 0.0
vn 0.0 -1.0 0.0
vn 0.0 -1.0 0.0
vn 0.0 -1.0 0.0
vn 0.0 -1.0 0.0
vn 0.0 0.0 1.0
vn 0.0 0.0 1.0
vn 0.0 0.0 1.0
vn 0.0 0.0 1.0
f 1//1 2//2 8//8
f 8//8 2//2 3//3
f 8//8 3//3 4//4
f 8//8 4//4 7//7
f 7//7 4//4 5//5
f 7//7 5//5 6//6
f 9//9 10//10 12//12
f 12//12 10//10 11//11
f 13//13 14//14 16//16
f 16//16 14//14 15//15
f 18//18 19//19 17//17
f 17//17 19//19 24//24
f 24//24 19//19 23//23
f 23//23 19//19 20//20
f 23//23 20//20 22//22
f 22//22 20//20 21//21
f 25//25 26//26 28//28
f 28//28 26//26 27//27
f 29//29 30//30 32//32
f 32//32 30//30 31//31
f 33//33 34//34 36//36
f 36//36 34//34 35//35
f 37//37 38//38 40//40
f 40//40 38//38 39//39
f 41//41 42//42 44//44
f 44//44 42//42 43//43
f 45//45 46//46 48//48
f 48//48 46//46 47//47

# End of file