# WaveFront *.obj file
# Vertices: 98
# Triangles : 90

v -1.399999976158142 -1.0 3.965636730194092
v -1.399999976158142 -0.967318594455719 3.9893810749053955
v -1.399999976158142 -0.9798017740249634 4.027800559997559
v -1.399999976158142 -1.0201982259750366 4.027800559997559
v -1.399999976158142 -1.0326814651489258 3.9893810749053955
v 0.0 -1.0 4.599999904632568
v 0.0 -0.8231468796730042 4.573343753814697
v 0.0 -0.6620079874992371 4.495743274688721
v 0.0 -0.5309011340141296 4.374094009399414
v 0.0 -0.4414757490158081 4.219204425811768
v 0.0 -0.4016777276992798 4.044837951660156
v 0.0 -0.41504326462745667 3.866487503051758
v 0.0 -0.4803847670555115 3.700000047683716
v 0.0 -0.5918963551521301 3.560168981552124
v 0.0 -0.7396697402000427 3.459418773651123
v 0.0 -0.9105746150016785 3.4067015647888184
v 0.0 -1.0894253253936768 3.4067015647888184
v 0.0 -1.2603302001953125 3.459418773651123
v 0.0 -1.408103585243225 3.560168981552124
v 0.0 -1.5196152925491333 3.700000047683716
v 0.0 -1.5849567651748657 3.866487503051758
v 0.0 -1.5983222723007202 4.044837951660156
v 0.0 -1.558524250984192 4.219204425811768
v 0.0 -1.4690989255905151 4.374094009399414
v 0.0 -1.3379920721054077 4.495743274688721
v 0.0 -1.176853060722351 4.573343753814697
v -1.399999976158142 -1.0 3.965636730194092
v 0.0 -0.9105746150016785 3.4067015647888184
v -1.399999976158142 -1.0 3.965636730194092
v -1.399999976158142 -1.0326814651489258 3.9893810749053955
v -1.399999976158142 -1.0201982259750366 4.027800559997559
v -1.399999976158142 -0.9798017740249634 4.027800559997559
v -1.399999976158142 -0.967318594455719 3.9893810749053955
v 12.600000381469727 -1.0 4.599999904632568
v 12.600000381469727 -0.8231468796730042 4.573343753814697
v 12.600000381469727 -0.6620079874992371 4.495743274688721
v 12.600000381469727 -0.5309011340141296 4.374094009399414
v 12.600000381469727 -0.4414757490158081 4.219204425811768
v 12.600000381469727 -0.4016777276992798 4.044837951660156
v 12.600000381469727 -0.41504326462745667 3.866487503051758
v 12.600000381469727 -0.4803847670555115 3.700000047683716
v 12.600000381469727 -0.5918963551521301 3.560168981552124
v 12.600000381469727 -0.7396697402000427 3.459418773651123
v 12.600000381469727 -0.9105746150016785 3.4067015647888184
v 12.600000381469727 -1.0894253253936768 3.4067015647888184
v 12.600000381469727 -1.2603302001953125 3.459418773651123
v 12.600000381469727 -1.408103585243225 3.560168981552124
v 12.600000381469727 -1.5196152925491333 3.700000047683716
v 12.600000381469727 -1.5849567651748657 3.866487503051758
v 12.600000381469727 -1.5983222723007202 4.044837951660156
v 12.600000381469727 -1.558524250984192 4.219204425811768
v 12.600000381469727 -1.4690989255905151 4.374094009399414
v 12.600000381469727 -1.3379920721054077 4.495743274688721
v 12.600000381469727 -1.176853060722351 4.573343753814697
v 0.0 -1.0 4.599999904632568
v 0.0 -1.176853060722351 4.573343753814697
v 0.0 -1.3379920721054077 4.495743274688721
v 0.0 -1.4690989255905151 4.374094009399414
v 0.0 -1.558524250984192 4.219204425811768
v 0.0 -1.5983222723007202 4.044837951660156
v 0.0 -1.5849567651748657 3.866487503051758
v 0.0 -1.5196152925491333 3.700000047683716
v 0.0 -1.408103585243225 3.560168981552124
v 0.0 -1.2603302001953125 3.459418773651123
v 0.0 -1.0894253253936768 3.4067015647888184
v 0.0 -0.9105746150016785 3.4067015647888184
v 0.0 -0.7396697402000427 3.459418773651123
v 0.0 -0.5918963551521301 3.560168981552124
v 0.0 -0.4803847670555115 3.700000047683716
v 0.0 -0.41504326462745667 3.866487503051758
v 0.0 -0.4016777276992798 4.044837951660156
v 0.0 -0.4414757490158081 4.219204425811768
v 0.0 -0.5309011340141296 4.374094009399414
v 0.0 -0.6620079874992371 4.495743274688721
v 0.0 -0.8231468796730042 4.573343753814697
v 0.0 -1.0 4.599999904632568
v 12.600000381469727 -1.0 4.599999904632568
v 12.600000381469727 -1.0 4.599999904632568
v 12.600000381469727 -1.176853060722351 4.573343753814697
v 12.600000381469727 -1.3379920721054077 4.495743274688721
v 12.600000381469727 -1.4690989255905151 4.374094009399414
v 12.600000381469727 -1.558524250984192 4.219204425811768
v 12.600000381469727 -1.5983222723007202 4.044837951660156
v 12.600000381469727 -1.5849567651748657 3.866487503051758
v 12.600000381469727 -1.5196152925491333 3.700000047683716
v 12.600000381469727 -1.408103585243225 3.560168981552124
v 12.600000381469727 -1.2603302001953125 3.459418773651123
v 12.600000381469727 -1.0894253253936768 3.4067015647888184
v 12.600000381469727 -0.9105746150016785 3.4067015647888184
v 12.600000381469727 -0.7396697402000427 3.459418773651123
v 12.600000381469727 -0.5918963551521301 3.560168981552124
v 12.600000381469727 -0.4803847670555115 3.700000047683716
v 12.600000381469727 -0.41504326462745667 3.866487503051758
v 12.600000381469727 -0.4016777276992798 4.044837951660156
v 12.600000381469727 -0.4414757490158081 4.219204425811768
v 12.600000381469727 -0.5309011340141296 4.374094009399414
v 12.600000381469727 -0.6620079874992371 4.495743274688721
v 12.600000381469727 -0.8231468796730042 4.573343753814697
vn -0.37460657954216003 1.1354726797361132e-16 -0.9271838665008545
vn -0.37460657954216003 0.8818042278289795 -0.28651556372642517
vn -0.37460657954216003 0.5449849963188171 0.75010746717453
vn -0.37460657954216003 -0.5449849963188171 0.75010746717453
vn -0.37460657954216003 -0.8818042278289795 -0.28651556372642517
vn -0.37460657954216003 0.0 0.9271838665008545
vn -0.37460657954216003 0.2732922434806824 0.8859916925430298
vn -0.37460657954216003 0.5223012566566467 0.7660752534866333
vn -0.37460657954216003 0.724901556968689 0.5780896544456482
vn -0.37460657954216003 0.8630911111831665 0.3387382924556732
vn -0.37460657954216003 0.9245912432670593 0.06928853690624237
vn -0.37460657954216003 0.9039373993873596 -0.20631781220436096
vn -0.37460657954216003 0.8029647469520569 -0.46359193325042725
vn -0.37460657954216003 0.6306451559066772 -0.6796738505363464
vn -0.37460657954216003 0.4022899866104126 -0.8353638052940369
vn -0.37460657954216003 0.13818958401679993 -0.9168279767036438
vn -0.37460657954216003 -0.13818958401679993 -0.9168279767036438
vn -0.37460657954216003 -0.4022899866104126 -0.8353638052940369
vn -0.37460657954216003 -0.6306451559066772 -0.6796738505363464
vn -0.37460657954216003 -0.8029647469520569 -0.46359193325042725
vn -0.37460657954216003 -0.9039373993873596 -0.20631781220436096
vn -0.37460657954216003 -0.9245912432670593 0.06928853690624237
vn -0.37460657954216003 -0.8630911111831665 0.3387382924556732
vn -0.37460657954216003 -0.724901556968689 0.5780896544456482
vn -0.37460657954216003 -0.5223012566566467 0.7660752534866333
vn -0.37460657954216003 -0.2732922434806824 0.8859916925430298
vn -0.37460657954216003 -1.1354726797361132e-16 -0.9271838665008545
vn -0.37460657954216003 0.13818958401679993 -0.9168279767036438
vn -1.0 0.0 0.0
vn -1.0 0.0 0.0
vn -1.0 0.0 0.0
vn -1.0 0.0 0.0
vn -1.0 0.0 0.0
vn -0.0 1.2246468525851679e-16 1.0
vn -0.0 0.29475516080856323 0.955572783946991
vn -0.0 0.5633200407028198 0.826238751411438
vn -0.0 0.7818315029144287 0.6234897971153259
vn -0.0 0.9308737516403198 0.36534103751182556
vn -0.0 0.9972038269042969 0.07473009079694748
vn -0.0 0.9749279022216797 -0.22252093255519867
vn -0.0 0.8660253882408142 -0.5
vn -0.0 0.6801727414131165 -0.7330518960952759
vn -0.0 0.4338837265968323 -0.9009688496589661
vn -0.0 0.1490422636270523 -0.9888308048248291
vn 0.0 -0.1490422636270523 -0.9888308048248291
vn 0.0 -0.4338837265968323 -0.9009688496589661
vn 0.0 -0.6801727414131165 -0.7330518960952759
vn 0.0 -0.8660253882408142 -0.5
vn 0.0 -0.9749279022216797 -0.22252093255519867
vn -0.0 -0.9972038269042969 0.07473009079694748
vn -0.0 -0.9308737516403198 0.36534103751182556
vn -0.0 -0.7818315029144287 0.6234897971153259
vn -0.0 -0.5633200407028198 0.826238751411438
vn -0.0 -0.29475516080856323 0.955572783946991
vn -0.0 -1.2246468525851679e-16 1.0
vn -0.0 -0.29475516080856323 0.955572783946991
vn -0.0 -0.5633200407028198 0.826238751411438
vn -0.0 -0.7818315029144287 0.6234897971153259
vn -0.0 -0.9308737516403198 0.36534103751182556
vn -0.0 -0.9972038269042969 0.07473009079694748
vn 0.0 -0.9749279022216797 -0.22252093255519867
vn 0.0 -0.8660253882408142 -0.5
vn 0.0 -0.6801727414131165 -0.7330518960952759
vn 0.0 -0.4338837265968323 -0.9009688496589661
vn 0.0 -0.1490422636270523 -0.9888308048248291
vn -0.0 0.1490422636270523 -0.9888308048248291
vn -0.0 0.4338837265968323 -0.9009688496589661
vn -0.0 0.6801727414131165 -0.7330518960952759
vn -0.0 0.8660253882408142 -0.5
vn -0.0 0.9749279022216797 -0.22252093255519867
vn -0.0 0.9972038269042969 0.07473009079694748
vn -0.0 0.9308737516403198 0.36534103751182556
vn -0.0 0.7818315029144287 0.6234897971153259
vn -0.0 0.5633200407028198 0.826238751411438
vn -0.0 0.29475516080856323 0.955572783946991
vn -0.0 1.2246468525851679e-16 1.0
vn -0.0 -1.2246468525851679e-16 1.0
vn 1.0 0.0 0.0
vn 1.0 0.0 0.0
vn 1.0 0.0 0.0
vn 1.0 0.0 0.0
vn 1.0 0.0 0.0
vn 1.0 0.0 0.0
vn 1.0 0.0 0.0
vn 1.0 0.0 0.0
vn 1.0 0.0 0.0
vn 1.0 0.0 0.0
vn 1.0 0.0 0.0
vn 1.0 0.0 0.0
vn 1.0 0.0 0.0
vn 1.0 0.0 0.0
vn 1.0 0.0 0.0
vn 1.0 0.0 0.0
vn 1.0 0.0 0.0
vn 1.0 0.0 0.0
vn 1.0 0.0 0.0
vn 1.0 0.0 0.0
vn 1.0 0.0 0.0
g 1e34e65e-e34f-11ea-9875-54bf646e7e1f
f 2//2 14//14 1//1
f 1//1 14//14 15//15
f 1//1 15//15 28//28
f 3//3 10//10 2//2
f 2//2 10//10 11//11
f 2//2 11//11 12//12
f 4//4 6//6 3//3
f 3//3 6//6 7//7
f 3//3 7//7 8//8
f 5//5 23//23 4//4
f 4//4 23//23 24//24
f 4//4 24//24 25//25
f 27//27 19//19 5//5
f 5//5 19//19 20//20
f 5//5 20//20 21//21
f 8//8 9//9 3//3
f 3//3 9//9 10//10
f 12//12 13//13 2//2
f 2//2 13//13 14//14
f 16//16 17//17 27//27
f 27//27 17//17 18//18
f 27//27 18//18 19//19
f 21//21 22//22 5//5
f 5//5 22//22 23//23
f 25//25 26//26 4//4
f 4//4 26//26 6//6
g 1e353470-e34f-11ea-b2ec-54bf646e7e1f
f 30//30 31//31 29//29
f 29//29 31//31 32//32
f 29//29 32//32 33//33
g 1e043946-e34f-11ea-bc17-54bf646e7e1f
f 35//35 75//75 34//34
f 34//34 75//75 76//76
f 77//77 55//55 54//54
f 54//54 55//55 56//56
f 54//54 56//56 53//53
f 53//53 56//56 57//57
f 53//53 57//57 52//52
f 52//52 57//57 58//58
f 52//52 58//58 51//51
f 51//51 58//58 59//59
f 51//51 59//59 50//50
f 50//50 59//59 60//60
f 50//50 60//60 49//49
f 49//49 60//60 61//61
f 49//49 61//61 48//48
f 48//48 61//61 62//62
f 48//48 62//62 47//47
f 47//47 62//62 63//63
f 47//47 63//63 46//46
f 46//46 63//63 64//64
f 46//46 64//64 45//45
f 45//45 64//64 65//65
f 45//45 65//65 44//44
f 44//44 65//65 66//66
f 44//44 66//66 43//43
f 43//43 66//66 67//67
f 43//43 67//67 42//42
f 42//42 67//67 68//68
f 42//42 68//68 41//41
f 41//41 68//68 69//69
f 41//41 69//69 40//40
f 40//40 69//69 70//70
f 40//40 70//70 39//39
f 39//39 70//70 71//71
f 39//39 71//71 38//38
f 38//38 71//71 72//72
f 38//38 72//72 37//37
f 37//37 72//72 73//73
f 37//37 73//73 36//36
f 36//36 73//73 74//74
f 36//36 74//74 35//35
f 35//35 74//74 75//75
g 1e046054-e34f-11ea-a3cd-54bf646e7e1f
f 79//79 88//88 78//78
f 78//78 88//88 89//89
f 78//78 89//89 98//98
f 98//98 89//89 90//90
f 98//98 90//90 97//97
f 97//97 90//90 91//91
f 97//97 91//91 96//96
f 96//96 91//91 92//92
f 96//96 92//92 95//95
f 95//95 92//92 93//93
f 95//95 93//93 94//94
f 88//88 79//79 87//87
f 87//87 79//79 80//80
f 87//87 80//80 86//86
f 86//86 80//80 81//81
f 86//86 81//81 85//85
f 85//85 81//81 82//82
f 85//85 82//82 84//84
f 84//84 82//82 83//83

# End of file