# WaveFront *.obj file
# Vertices: 46
# Triangles : 26

v 0.0 0.0 80.0
v 0.0 0.0 14.395004272460938
v 0.0 35.64284896850586 14.395004272460938
v 0.0 35.64284896850586 80.0
v -10.0 35.64284896850586 14.395004272460938
v -10.0 -10.0 14.395004272460938
v -10.0 -10.0 80.0
v -10.0 35.64284896850586 80.0
v 130.0 -10.0 80.0
v -10.0 -10.0 80.0
v -10.0 -10.0 14.395004272460938
v 0.0 -10.0 14.395004272460938
v 0.0 -10.0 -50.0
v 130.0 -10.0 -50.0
v 0.0 0.0 -50.0
v 130.0 0.0 -50.0
v 130.0 -10.0 -50.0
v 0.0 -10.0 -50.0
v 130.0 0.0 -50.0
v 130.0 0.0 80.0
v 130.0 -10.0 80.0
v 130.0 -10.0 -50.0
v 0.0 -10.0 14.395004272460938
v 0.0 0.0 14.395004272460938
v 0.0 0.0 -50.0
v 0.0 -10.0 -50.0
v 130.0 0.0 80.0
v 0.0 0.0 80.0
v 0.0 35.64284896850586 80.0
v -10.0 35.64284896850586 80.0
v -10.0 -10.0 80.0
v 130.0 -10.0 80.0
v 0.0 35.64284896850586 80.0
v 0.0 35.64284896850586 14.395004272460938
v -10.0 35.64284896850586 14.395004272460938
v -10.0 35.64284896850586 80.0
v 0.0 0.0 80.0
v 130.0 0.0 80.0
v 130.0 0.0 -50.0
v 0.0 0.0 -50.0
v 0.0 0.0 14.395004272460938
v 0.0 0.0 14.395004272460938
v 0.0 -10.0 14.395004272460938
v -10.0 -10.0 14.395004272460938
v -10.0 35.64284896850586 14.395004272460938
v 0.0 35.64284896850586 14.395004272460938
vn 1.0 0.0 0.0
vn 1.0 0.0 0.0
vn 1.0 0.0 0.0
vn 1.0 0.0 0.0
vn -1.0 0.0 0.0
vn -1.0 0.0 0.0
vn -1.0 0.0 0.0
vn -1.0 0.0 0.0
vn 0.0 -1.0 0.0
vn 0.0 -1.0 0.0
vn 0.0 -1.0 0.0
vn 0.0 -1.0 0.0
vn 0.0 -1.0 0.0
vn 0.0 -1.0 0.0
vn 0.0 0.0 -1.0
vn 0.0 0.0 -1.0
vn 0.0 0.0 -1.0
vn 0.0 0.0 -1.0
vn 1.0 0.0 -0.0
vn 1.0 0.0 -0.0
vn 1.0 0.0 -0.0
vn 1.0 0.0 -0.0
vn -1.0 -0.0 -0.0
vn -1.0 -0.0 -0.0
vn -1.0 -0.0 -0.0
vn -1.0 -0.0 -0.0
vn 0.0 0.0 1.0
vn 0.0 0.0 1.0
vn 0.0 0.0 1.0
vn 0.0 0.0 1.0
vn 0.0 0.0 1.0
vn 0.0 0.0 1.0
vn 0.0 1.0 -0.0
vn 0.0 1.0 -0.0
vn 0.0 1.0 -0.0
vn 0.0 1.0 -0.0
vn 0.0 1.0 0.0
vn 0.0 1.0 0.0
vn 0.0 1.0 0.0
vn 0.0 1.0 0.0
vn 0.0 1.0 0.0
vn 0.0 0.0 -1.0
vn 0.0 0.0 -1.0
vn 0.0 0.0 -1.0
vn 0.0 0.0 -1.0
vn 0.0 0.0 -1.0
f 1//1 2//2 4//4
f 4//4 2//2 3//3
f 6//6 7//7 5//5
f 5//5 7//7 8//8
f 14//14 9//9 12//12
f 12//12 9//9 10//10
f 12//12 10//10 11//11
f 12//12 13//13 14//14
f 15//15 16//16 18//18
f 18//18 16//16 17//17
f 19//19 20//20 22//22
f 22//22 20//20 21//21
f 24//24 25//25 23//23
f 23//23 25//25 26//26
f 27//27 28//28 32//32
f 32//32 28//28 31//31
f 31//31 28//28 30//30
f 30//30 28//28 29//29
f 33//33 34//34 36//36
f 36//36 34//34 35//35
f 37//37 38//38 41//41
f 41//41 38//38 39//39
f 41//41 39//39 40//40
f 43//43 44//44 42//42
f 42//42 44//44 45//45
f 42//42 45//45 46//46

# End of file