# WaveFront *.obj file
# Vertices: 24
# Triangles : 12

v 2.5399999618530273 0.0 5.079999923706055
v 2.5399999618530273 0.0 6.350000381469727
v 2.5399999618530273 36.83000183105469 6.350000381469727
v 2.5399999618530273 36.83000183105469 5.079999923706055
v 3.81000018119812 0.0 5.079999923706055
v 2.5399999618530273 0.0 5.079999923706055
v 2.5399999618530273 36.83000183105469 5.079999923706055
v 3.81000018119812 36.83000183105469 5.079999923706055
v 3.81000018119812 0.0 6.350000381469727
v 3.81000018119812 0.0 5.079999923706055
v 3.81000018119812 36.83000183105469 5.079999923706055
v 3.81000018119812 36.83000183105469 6.350000381469727
v 2.5399999618530273 0.0 6.350000381469727
v 3.81000018119812 0.0 6.350000381469727
v 3.81000018119812 36.83000183105469 6.350000381469727
v 2.5399999618530273 36.83000183105469 6.350000381469727
v 2.5399999618530273 36.83000183105469 6.350000381469727
v 3.81000018119812 36.83000183105469 6.350000381469727
v 3.81000018119812 36.83000183105469 5.079999923706055
v 2.5399999618530273 36.83000183105469 5.079999923706055
v 3.81000018119812 0.0 6.350000381469727
v 2.5399999618530273 0.0 6.350000381469727
v 2.5399999618530273 0.0 5.079999923706055
v 3.81000018119812 0.0 5.079999923706055
vn -1.0 0.0 0.0
vn -1.0 0.0 0.0
vn -1.0 0.0 0.0
vn -1.0 0.0 0.0
vn 0.0 0.0 -1.0
vn 0.0 0.0 -1.0
vn 0.0 0.0 -1.0
vn 0.0 0.0 -1.0
vn 1.0 0.0 0.0
vn 1.0 0.0 0.0
vn 1.0 0.0 0.0
vn 1.0 0.0 0.0
vn 0.0 -0.0 1.0
vn 0.0 -0.0 1.0
vn 0.0 -0.0 1.0
vn 0.0 -0.0 1.0
vn 0.0 1.0 0.0
vn 0.0 1.0 0.0
vn 0.0 1.0 0.0
vn 0.0 1.0 0.0
vn -0.0 -1.0 -0.0
vn -0.0 -1.0 -0.0
vn -0.0 -1.0 -0.0
vn -0.0 -1.0 -0.0
g 6541263a-e353-11ea-8bc2-54bf646e7e1f
f 1//1 2//2 4//4
f 4//4 2//2 3//3
g 65451d92-e353-11ea-b3a7-54bf646e7e1f
f 5//5 6//6 8//8
f 8//8 6//6 7//7
g 654914e8-e353-11ea-bd9e-54bf646e7e1f
f 9//9 10//10 12//12
f 12//12 10//10 11//11
g 654ce53a-e353-11ea-8eb8-54bf646e7e1f
f 13//13 14//14 16//16
f 16//16 14//14 15//15
g 655103ae-e353-11ea-8472-54bf646e7e1f
f 18//18 19//19 17//17
f 17//17 19//19 20//20
g 6554fb1e-e353-11ea-a9be-54bf646e7e1f
f 21//21 22//22 24//24
f 24//24 22//22 23//23

# End of file