# WaveFront *.obj file
# Vertices: 24
# Triangles : 12

v 0.0 95.25 73.66000366210938
v 0.0 2.5399999618530273 73.66000366210938
v 0.6349999904632568 2.5399999618530273 73.66000366210938
v 0.6349999904632568 95.25 73.66000366210938
v 0.0 95.25 2.5399999618530273
v 0.0 95.25 73.66000366210938
v 0.6349999904632568 95.25 73.66000366210938
v 0.6349999904632568 95.25 2.5399999618530273
v 0.0 2.5399999618530273 2.5399999618530273
v 0.0 95.25 2.5399999618530273
v 0.6349999904632568 95.25 2.5399999618530273
v 0.6349999904632568 2.5399999618530273 2.5399999618530273
v 0.0 2.5399999618530273 73.66000366210938
v 0.0 2.5399999618530273 2.5399999618530273
v 0.6349999904632568 2.5399999618530273 2.5399999618530273
v 0.6349999904632568 2.5399999618530273 73.66000366210938
v 0.6349999904632568 2.5399999618530273 73.66000366210938
v 0.6349999904632568 2.5399999618530273 2.5399999618530273
v 0.6349999904632568 95.25 2.5399999618530273
v 0.6349999904632568 95.25 73.66000366210938
v 0.0 2.5399999618530273 2.5399999618530273
v 0.0 2.5399999618530273 73.66000366210938
v 0.0 95.25 73.66000366210938
v 0.0 95.25 2.5399999618530273
vn 0.0 0.0 1.0
vn 0.0 0.0 1.0
vn 0.0 0.0 1.0
vn 0.0 0.0 1.0
vn -0.0 1.0 0.0
vn -0.0 1.0 0.0
vn -0.0 1.0 0.0
vn -0.0 1.0 0.0
vn 0.0 1.9639368119020272e-16 -1.0
vn 0.0 1.9639368119020272e-16 -1.0
vn 0.0 1.9639368119020272e-16 -1.0
vn 0.0 1.9639368119020272e-16 -1.0
vn 0.0 -1.0 0.0
vn 0.0 -1.0 0.0
vn 0.0 -1.0 0.0
vn 0.0 -1.0 0.0
vn 1.0 0.0 0.0
vn 1.0 0.0 0.0
vn 1.0 0.0 0.0
vn 1.0 0.0 0.0
vn -1.0 -0.0 -0.0
vn -1.0 -0.0 -0.0
vn -1.0 -0.0 -0.0
vn -1.0 -0.0 -0.0
g 84bf03ac-e353-11ea-87e9-54bf646e7e1f
f 1//1 2//2 4//4
f 4//4 2//2 3//3
g 84c3491e-e353-11ea-89c3-54bf646e7e1f
f 5//5 6//6 8//8
f 8//8 6//6 7//7
g 84c7b568-e353-11ea-8100-54bf646e7e1f
f 9//9 10//10 12//12
f 12//12 10//10 11//11
g 84cd0c76-e353-11ea-925c-54bf646e7e1f
f 13//13 14//14 16//16
f 16//16 14//14 15//15
g 84d374c0-e353-11ea-a90f-54bf646e7e1f
f 17//17 18//18 20//20
f 20//20 18//18 19//19
g 84d9dcb6-e353-11ea-b98b-54bf646e7e1f
f 21//21 22//22 24//24
f 24//24 22//22 23//23

# End of file