# WaveFront *.obj file
# Vertices: 24
# Triangles : 12

v 53.974998474121094 0.0 59.689998626708984
v 53.974998474121094 0.0 62.22999954223633
v 53.974998474121094 2.5399999618530273 62.22999954223633
v 53.974998474121094 2.5399999618530273 59.689998626708984
v 103.50499725341797 0.0 59.689998626708984
v 53.974998474121094 0.0 59.689998626708984
v 53.974998474121094 2.5399999618530273 59.689998626708984
v 103.50499725341797 2.5399999618530273 59.689998626708984
v 103.50499725341797 0.0 62.22999954223633
v 103.50499725341797 0.0 59.689998626708984
v 103.50499725341797 2.5399999618530273 59.689998626708984
v 103.50499725341797 2.5399999618530273 62.22999954223633
v 53.974998474121094 0.0 62.22999954223633
v 103.50499725341797 0.0 62.22999954223633
v 103.50499725341797 2.5399999618530273 62.22999954223633
v 53.974998474121094 2.5399999618530273 62.22999954223633
v 53.974998474121094 2.5399999618530273 62.22999954223633
v 103.50499725341797 2.5399999618530273 62.22999954223633
v 103.50499725341797 2.5399999618530273 59.689998626708984
v 53.974998474121094 2.5399999618530273 59.689998626708984
v 103.50499725341797 0.0 62.22999954223633
v 53.974998474121094 0.0 62.22999954223633
v 53.974998474121094 0.0 59.689998626708984
v 103.50499725341797 0.0 59.689998626708984
vn -1.0 0.0 0.0
vn -1.0 0.0 0.0
vn -1.0 0.0 0.0
vn -1.0 0.0 0.0
vn 0.0 0.0 -1.0
vn 0.0 0.0 -1.0
vn 0.0 0.0 -1.0
vn 0.0 0.0 -1.0
vn 1.0 0.0 0.0
vn 1.0 0.0 0.0
vn 1.0 0.0 0.0
vn 1.0 0.0 0.0
vn 0.0 -0.0 1.0
vn 0.0 -0.0 1.0
vn 0.0 -0.0 1.0
vn 0.0 -0.0 1.0
vn 0.0 1.0 0.0
vn 0.0 1.0 0.0
vn 0.0 1.0 0.0
vn 0.0 1.0 0.0
vn -0.0 -1.0 -0.0
vn -0.0 -1.0 -0.0
vn -0.0 -1.0 -0.0
vn -0.0 -1.0 -0.0
g 48249074-e353-11ea-a4d9-54bf646e7e1f
f 1//1 2//2 4//4
f 4//4 2//2 3//3
g 48279d9c-e353-11ea-979f-54bf646e7e1f
f 5//5 6//6 8//8
f 8//8 6//6 7//7
g 482aaa52-e353-11ea-9663-54bf646e7e1f
f 9//9 10//10 12//12
f 12//12 10//10 11//11
g 482db734-e353-11ea-8fb1-54bf646e7e1f
f 13//13 14//14 16//16
f 16//16 14//14 15//15
g 4830eb40-e353-11ea-9f6b-54bf646e7e1f
f 18//18 19//19 17//17
f 17//17 19//19 20//20
g 48344668-e353-11ea-ae1e-54bf646e7e1f
f 21//21 22//22 24//24
f 24//24 22//22 23//23

# End of file