# WaveFront *.obj file
# Vertices: 256
# Triangles : 220

v -10.0 0.5 0.5
v -2.0 0.5 0.5
v -2.0 0.5 0.699999988079071
v -10.0 0.5 0.699999988079071
v -2.0 0.5 0.5
v -1.8454915285110474 0.5244717597961426 0.5
v -1.7061073780059814 0.5954915285110474 0.5
v -1.5954915285110474 0.7061073780059814 0.5
v -1.5244717597961426 0.8454915285110474 0.5
v -1.5 1.0 0.5
v -1.5 1.0 0.699999988079071
v -1.5244717597961426 0.8454915285110474 0.699999988079071
v -1.5954915285110474 0.7061073780059814 0.699999988079071
v -1.7061073780059814 0.5954915285110474 0.699999988079071
v -1.8454915285110474 0.5244717597961426 0.699999988079071
v -2.0 0.5 0.699999988079071
v -1.5 1.0 0.5
v -1.5 11.0 0.5
v -1.5 11.0 0.699999988079071
v -1.5 1.0 0.699999988079071
v -1.5 11.0 0.5
v -1.5244717597961426 11.154508590698242 0.5
v -1.5954915285110474 11.293892860412598 0.5
v -1.7061073780059814 11.404508590698242 0.5
v -1.8454915285110474 11.475528717041016 0.5
v -2.0 11.5 0.5
v -2.0 11.5 0.699999988079071
v -1.8454915285110474 11.475528717041016 0.699999988079071
v -1.7061073780059814 11.404508590698242 0.699999988079071
v -1.5954915285110474 11.293892860412598 0.699999988079071
v -1.5244717597961426 11.154508590698242 0.699999988079071
v -1.5 11.0 0.699999988079071
v -10.5 1.0 0.5
v -10.475528717041016 0.8454915285110474 0.5
v -10.404508590698242 0.7061073780059814 0.5
v -10.293892860412598 0.5954915285110474 0.5
v -10.154508590698242 0.5244717597961426 0.5
v -10.0 0.5 0.5
v -10.0 0.5 0.699999988079071
v -10.154508590698242 0.5244717597961426 0.699999988079071
v -10.293892860412598 0.5954915285110474 0.699999988079071
v -10.404508590698242 0.7061073780059814 0.699999988079071
v -10.475528717041016 0.8454915285110474 0.699999988079071
v -10.5 1.0 0.699999988079071
v -10.5 11.0 0.5
v -10.5 1.0 0.5
v -10.5 1.0 0.699999988079071
v -10.5 11.0 0.699999988079071
v -10.0 11.5 0.5
v -10.154508590698242 11.475528717041016 0.5
v -10.293892860412598 11.404508590698242 0.5
v -10.404508590698242 11.293892860412598 0.5
v -10.475528717041016 11.154508590698242 0.5
v -10.5 11.0 0.5
v -10.5 11.0 0.699999988079071
v -10.475528717041016 11.154508590698242 0.699999988079071
v -10.404508590698242 11.293892860412598 0.699999988079071
v -10.293892860412598 11.404508590698242 0.699999988079071
v -10.154508590698242 11.475528717041016 0.699999988079071
v -10.0 11.5 0.699999988079071
v -2.0 11.5 0.5
v -10.0 11.5 0.5
v -10.0 11.5 0.699999988079071
v -2.0 11.5 0.699999988079071
v -1.5 11.0 0.699999988079071
v -1.5244717597961426 11.154508590698242 0.699999988079071
v -1.5954915285110474 11.293892860412598 0.699999988079071
v -1.7061073780059814 11.404508590698242 0.699999988079071
v -1.8454915285110474 11.475528717041016 0.699999988079071
v -2.0 11.5 0.699999988079071
v -10.0 11.5 0.699999988079071
v -10.154508590698242 11.475528717041016 0.699999988079071
v -10.293892860412598 11.404508590698242 0.699999988079071
v -10.404508590698242 11.293892860412598 0.699999988079071
v -10.475528717041016 11.154508590698242 0.699999988079071
v -10.5 11.0 0.699999988079071
v -10.5 1.0 0.699999988079071
v -10.475528717041016 0.8454915285110474 0.699999988079071
v -10.404508590698242 0.7061073780059814 0.699999988079071
v -10.293892860412598 0.5954915285110474 0.699999988079071
v -10.154508590698242 0.5244717597961426 0.699999988079071
v -10.0 0.5 0.699999988079071
v -2.0 0.5 0.699999988079071
v -1.8454915285110474 0.5244717597961426 0.699999988079071
v -1.7061073780059814 0.5954915285110474 0.699999988079071
v -1.5954915285110474 0.7061073780059814 0.699999988079071
v -1.5244717597961426 0.8454915285110474 0.699999988079071
v -1.5 1.0 0.699999988079071
v -2.0 12.0 0.0
v -10.0 12.0 0.0
v -10.0 12.0 0.5
v -2.0 12.0 0.5
v -1.0 11.0 0.0
v -1.0250720977783203 11.22252082824707 0.0
v -1.0990310907363892 11.433883666992188 0.0
v -1.2181684970855713 11.623489379882812 0.0
v -1.3765101432800293 11.781831741333008 0.0
v -1.566116213798523 11.900968551635742 0.0
v -1.7774790525436401 11.97492790222168 0.0
v -2.0 12.0 0.0
v -2.0 12.0 0.5
v -1.7774790525436401 11.97492790222168 0.5
v -1.566116213798523 11.900968551635742 0.5
v -1.3765101432800293 11.781831741333008 0.5
v -1.2181684970855713 11.623489379882812 0.5
v -1.0990310907363892 11.433883666992188 0.5
v -1.0250720977783203 11.22252082824707 0.5
v -1.0 11.0 0.5
v -1.0 1.0 0.0
v -1.0 11.0 0.0
v -1.0 11.0 0.5
v -1.0 1.0 0.5
v -2.0 0.0 0.0
v -1.7774790525436401 0.025072088465094566 0.0
v -1.566116213798523 0.09903113543987274 0.0
v -1.3765101432800293 0.21816851198673248 0.0
v -1.2181684970855713 0.3765102028846741 0.0
v -1.0990310907363892 0.5661162734031677 0.0
v -1.0250720977783203 0.7774790525436401 0.0
v -1.0 1.0 0.0
v -1.0 1.0 0.5
v -1.0250720977783203 0.7774790525436401 0.5
v -1.0990310907363892 0.5661162734031677 0.5
v -1.2181684970855713 0.3765102028846741 0.5
v -1.3765101432800293 0.21816851198673248 0.5
v -1.566116213798523 0.09903113543987274 0.5
v -1.7774790525436401 0.025072088465094566 0.5
v -2.0 0.0 0.5
v -10.0 -8.881784197001252e-16 0.0
v -2.0 0.0 0.0
v -2.0 0.0 0.5
v -10.0 0.0 0.5
v -11.0 1.0 0.0
v -10.97492790222168 0.7774790525436401 0.0
v -10.900968551635742 0.5661162734031677 0.0
v -10.781831741333008 0.3765102028846741 0.0
v -10.623489379882812 0.21816851198673248 0.0
v -10.433883666992188 0.09903113543987274 0.0
v -10.22252082824707 0.025072088465094566 0.0
v -10.0 -8.881784197001252e-16 0.0
v -10.0 0.0 0.5
v -10.22252082824707 0.025072088465094566 0.5
v -10.433883666992188 0.09903113543987274 0.5
v -10.623489379882812 0.21816851198673248 0.5
v -10.781831741333008 0.3765102028846741 0.5
v -10.900968551635742 0.5661162734031677 0.5
v -10.97492790222168 0.7774790525436401 0.5
v -11.0 1.0 0.5
v -11.0 11.0 0.0
v -11.0 1.0 0.0
v -11.0 1.0 0.5
v -11.0 11.0 0.5
v -10.0 12.0 0.0
v -10.22252082824707 11.97492790222168 0.0
v -10.433883666992188 11.900968551635742 0.0
v -10.623489379882812 11.781831741333008 0.0
v -10.781831741333008 11.623489379882812 0.0
v -10.900968551635742 11.433883666992188 0.0
v -10.97492790222168 11.22252082824707 0.0
v -11.0 11.0 0.0
v -11.0 11.0 0.5
v -10.97492790222168 11.22252082824707 0.5
v -10.900968551635742 11.433883666992188 0.5
v -10.781831741333008 11.623489379882812 0.5
v -10.623489379882812 11.781831741333008 0.5
v -10.433883666992188 11.900968551635742 0.5
v -10.22252082824707 11.97492790222168 0.5
v -10.0 12.0 0.5
v -2.0 11.5 0.5
v -1.8454915285110474 11.475528717041016 0.5
v -1.7061073780059814 11.404508590698242 0.5
v -1.5954915285110474 11.293892860412598 0.5
v -1.5244717597961426 11.154508590698242 0.5
v -1.5 11.0 0.5
v -1.5 1.0 0.5
v -1.5244717597961426 0.8454915285110474 0.5
v -1.5954915285110474 0.7061073780059814 0.5
v -1.7061073780059814 0.5954915285110474 0.5
v -1.8454915285110474 0.5244717597961426 0.5
v -2.0 0.5 0.5
v -10.0 0.5 0.5
v -10.154508590698242 0.5244717597961426 0.5
v -10.293892860412598 0.5954915285110474 0.5
v -10.404508590698242 0.7061073780059814 0.5
v -10.475528717041016 0.8454915285110474 0.5
v -10.5 1.0 0.5
v -10.5 11.0 0.5
v -10.475528717041016 11.154508590698242 0.5
v -10.404508590698242 11.293892860412598 0.5
v -10.293892860412598 11.404508590698242 0.5
v -10.154508590698242 11.475528717041016 0.5
v -10.0 11.5 0.5
v -10.0 12.0 0.5
v -10.22252082824707 11.97492790222168 0.5
v -10.433883666992188 11.900968551635742 0.5
v -10.623489379882812 11.781831741333008 0.5
v -10.781831741333008 11.623489379882812 0.5
v -10.900968551635742 11.433883666992188 0.5
v -10.97492790222168 11.22252082824707 0.5
v -11.0 11.0 0.5
v -11.0 1.0 0.5
v -10.97492790222168 0.7774790525436401 0.5
v -10.900968551635742 0.5661162734031677 0.5
v -10.781831741333008 0.3765102028846741 0.5
v -10.623489379882812 0.21816851198673248 0.5
v -10.433883666992188 0.09903113543987274 0.5
v -10.22252082824707 0.025072088465094566 0.5
v -10.0 0.0 0.5
v -2.0 0.0 0.5
v -1.7774790525436401 0.025072088465094566 0.5
v -1.566116213798523 0.09903113543987274 0.5
v -1.3765101432800293 0.21816851198673248 0.5
v -1.2181684970855713 0.3765102028846741 0.5
v -1.0990310907363892 0.5661162734031677 0.5
v -1.0250720977783203 0.7774790525436401 0.5
v -1.0 1.0 0.5
v -1.0 11.0 0.5
v -1.0250720977783203 11.22252082824707 0.5
v -1.0990310907363892 11.433883666992188 0.5
v -1.2181684970855713 11.623489379882812 0.5
v -1.3765101432800293 11.781831741333008 0.5
v -1.566116213798523 11.900968551635742 0.5
v -1.7774790525436401 11.97492790222168 0.5
v -2.0 12.0 0.5
v -11.0 11.0 0.0
v -10.97492790222168 11.22252082824707 0.0
v -10.900968551635742 11.433883666992188 0.0
v -10.781831741333008 11.623489379882812 0.0
v -10.623489379882812 11.781831741333008 0.0
v -10.433883666992188 11.900968551635742 0.0
v -10.22252082824707 11.97492790222168 0.0
v -10.0 12.0 0.0
v -2.0 12.0 0.0
v -1.7774790525436401 11.97492790222168 0.0
v -1.566116213798523 11.900968551635742 0.0
v -1.3765101432800293 11.781831741333008 0.0
v -1.2181684970855713 11.623489379882812 0.0
v -1.0990310907363892 11.433883666992188 0.0
v -1.0250720977783203 11.22252082824707 0.0
v -1.0 11.0 0.0
v -1.0 1.0 0.0
v -1.0250720977783203 0.7774790525436401 0.0
v -1.0990310907363892 0.5661162734031677 0.0
v -1.2181684970855713 0.3765102028846741 0.0
v -1.3765101432800293 0.21816851198673248 0.0
v -1.566116213798523 0.09903113543987274 0.0
v -1.7774790525436401 0.025072088465094566 0.0
v -2.0 0.0 0.0
v -10.0 -8.881784197001252e-16 0.0
v -10.22252082824707 0.025072088465094566 0.0
v -10.433883666992188 0.09903113543987274 0.0
v -10.623489379882812 0.21816851198673248 0.0
v -10.781831741333008 0.3765102028846741 0.0
v -10.900968551635742 0.5661162734031677 0.0
v -10.97492790222168 0.7774790525436401 0.0
v -11.0 1.0 0.0
vn 0.0 -1.0 0.0
vn 0.0 -1.0 0.0
vn 0.0 -1.0 0.0
vn 0.0 -1.0 0.0
vn -8.881784197001252e-16 -1.0 0.0
vn 0.30901700258255005 -0.9510565400123596 -0.0
vn 0.5877852439880371 -0.80901700258255 -0.0
vn 0.80901700258255 -0.5877852439880371 -0.0
vn 0.9510565400123596 -0.30901700258255005 -0.0
vn 1.0 2.159213613976826e-15 -0.0
vn 1.0 2.159213613976826e-15 -0.0
vn 0.9510565400123596 -0.30901700258255005 -0.0
vn 0.80901700258255 -0.5877852439880371 -0.0
vn 0.5877852439880371 -0.80901700258255 -0.0
vn 0.30901700258255005 -0.9510565400123596 -0.0
vn -8.881784197001252e-16 -1.0 0.0
vn 1.0 0.0 -0.0
vn 1.0 0.0 -0.0
vn 1.0 0.0 -0.0
vn 1.0 0.0 -0.0
vn 1.0 -0.0 -0.0
vn 0.9510565400123596 0.30901700258255005 -0.0
vn 0.80901700258255 0.5877852439880371 -0.0
vn 0.5877852439880371 0.80901700258255 -0.0
vn 0.30901700258255005 0.9510565400123596 -0.0
vn -1.7151245100058819e-15 1.0 -0.0
vn -1.7151245100058819e-15 1.0 -0.0
vn 0.30901700258255005 0.9510565400123596 -0.0
vn 0.5877852439880371 0.80901700258255 -0.0
vn 0.80901700258255 0.5877852439880371 -0.0
vn 0.9510565400123596 0.30901700258255005 -0.0
vn 1.0 -0.0 -0.0
vn -1.0 1.7763568394002505e-15 -0.0
vn -0.9510565400123596 -0.30901700258255005 0.0
vn -0.80901700258255 -0.5877852439880371 0.0
vn -0.5877852439880371 -0.80901700258255 0.0
vn -0.30901700258255005 -0.9510565400123596 0.0
vn -6.123234262925839e-17 -1.0 0.0
vn -6.123234262925839e-17 -1.0 0.0
vn -0.30901700258255005 -0.9510565400123596 0.0
vn -0.5877852439880371 -0.80901700258255 0.0
vn -0.80901700258255 -0.5877852439880371 0.0
vn -0.9510565400123596 -0.30901700258255005 0.0
vn -1.0 1.7763568394002505e-15 -0.0
vn -1.0 0.0 0.0
vn -1.0 0.0 0.0
vn -1.0 0.0 0.0
vn -1.0 0.0 0.0
vn -0.0 1.0 -0.0
vn -0.30901700258255005 0.9510565400123596 -0.0
vn -0.5877852439880371 0.80901700258255 -0.0
vn -0.80901700258255 0.5877852439880371 -0.0
vn -0.9510565400123596 0.30901700258255005 -0.0
vn -1.0 6.123234262925839e-17 -0.0
vn -1.0 6.123234262925839e-17 -0.0
vn -0.9510565400123596 0.30901700258255005 -0.0
vn -0.80901700258255 0.5877852439880371 -0.0
vn -0.5877852439880371 0.80901700258255 -0.0
vn -0.30901700258255005 0.9510565400123596 -0.0
vn -0.0 1.0 -0.0
vn 0.0 1.0 0.0
vn 0.0 1.0 0.0
vn 0.0 1.0 0.0
vn 0.0 1.0 0.0
vn 0.0 0.0 1.0
vn 0.0 0.0 1.0
vn 0.0 0.0 1.0
vn 0.0 0.0 1.0
vn 0.0 0.0 1.0
vn 0.0 0.0 1.0
vn 0.0 0.0 1.0
vn 0.0 0.0 1.0
vn 0.0 0.0 1.0
vn 0.0 0.0 1.0
vn 0.0 0.0 1.0
vn 0.0 0.0 1.0
vn 0.0 0.0 1.0
vn 0.0 0.0 1.0
vn 0.0 0.0 1.0
vn 0.0 0.0 1.0
vn 0.0 0.0 1.0
vn 0.0 0.0 1.0
vn 0.0 0.0 1.0
vn 0.0 0.0 1.0
vn 0.0 0.0 1.0
vn 0.0 0.0 1.0
vn 0.0 0.0 1.0
vn 0.0 0.0 1.0
vn 0.0 1.0 0.0
vn 0.0 1.0 0.0
vn 0.0 1.0 0.0
vn 0.0 1.0 0.0
vn 1.0 -0.0 -0.0
vn 0.9749279022216797 0.22252093255519867 -0.0
vn 0.9009688496589661 0.4338837265968323 -0.0
vn 0.7818315029144287 0.6234897971153259 -0.0
vn 0.6234897971153259 0.7818315029144287 -0.0
vn 0.4338837265968323 0.9009688496589661 -0.0
vn 0.22252093255519867 0.9749279022216797 -0.0
vn 6.123234262925839e-17 1.0 -0.0
vn 6.123234262925839e-17 1.0 -0.0
vn 0.22252093255519867 0.9749279022216797 -0.0
vn 0.4338837265968323 0.9009688496589661 -0.0
vn 0.6234897971153259 0.7818315029144287 -0.0
vn 0.7818315029144287 0.6234897971153259 -0.0
vn 0.9009688496589661 0.4338837265968323 -0.0
vn 0.9749279022216797 0.22252093255519867 -0.0
vn 1.0 -0.0 -0.0
vn 1.0 0.0 -0.0
vn 1.0 0.0 -0.0
vn 1.0 0.0 -0.0
vn 1.0 0.0 -0.0
vn -8.881784197001252e-16 -1.0 0.0
vn 0.22252093255519867 -0.9749279022216797 -0.0
vn 0.4338837265968323 -0.9009688496589661 -0.0
vn 0.6234897971153259 -0.7818315029144287 -0.0
vn 0.7818315029144287 -0.6234897971153259 -0.0
vn 0.9009688496589661 -0.4338837265968323 -0.0
vn 0.9749279022216797 -0.22252093255519867 -0.0
vn 1.0 1.048990695230788e-15 -0.0
vn 1.0 1.048990695230788e-15 -0.0
vn 0.9749279022216797 -0.22252093255519867 -0.0
vn 0.9009688496589661 -0.4338837265968323 -0.0
vn 0.7818315029144287 -0.6234897971153259 -0.0
vn 0.6234897971153259 -0.7818315029144287 -0.0
vn 0.4338837265968323 -0.9009688496589661 -0.0
vn 0.22252093255519867 -0.9749279022216797 -0.0
vn -8.881784197001252e-16 -1.0 0.0
vn 0.0 -1.0 0.0
vn 0.0 -1.0 0.0
vn 0.0 -1.0 0.0
vn 0.0 -1.0 0.0
vn -1.0 -0.0 0.0
vn -0.9749279022216797 -0.22252093255519867 0.0
vn -0.9009688496589661 -0.4338837265968323 0.0
vn -0.7818315029144287 -0.6234897971153259 0.0
vn -0.6234897971153259 -0.7818315029144287 0.0
vn -0.4338837265968323 -0.9009688496589661 0.0
vn -0.22252093255519867 -0.9749279022216797 0.0
vn -6.123234262925839e-17 -1.0 0.0
vn -6.123234262925839e-17 -1.0 0.0
vn -0.22252093255519867 -0.9749279022216797 0.0
vn -0.4338837265968323 -0.9009688496589661 0.0
vn -0.6234897971153259 -0.7818315029144287 0.0
vn -0.7818315029144287 -0.6234897971153259 0.0
vn -0.9009688496589661 -0.4338837265968323 0.0
vn -0.9749279022216797 -0.22252093255519867 0.0
vn -1.0 8.881784197001252e-16 -0.0
vn -1.0 0.0 0.0
vn -1.0 0.0 0.0
vn -1.0 0.0 0.0
vn -1.0 0.0 0.0
vn -0.0 1.0 -0.0
vn -0.22252093255519867 0.9749279022216797 -0.0
vn -0.4338837265968323 0.9009688496589661 -0.0
vn -0.6234897971153259 0.7818315029144287 -0.0
vn -0.7818315029144287 0.6234897971153259 -0.0
vn -0.9009688496589661 0.4338837265968323 -0.0
vn -0.9749279022216797 0.22252093255519867 -0.0
vn -1.0 6.123234262925839e-17 -0.0
vn -1.0 6.123234262925839e-17 -0.0
vn -0.9749279022216797 0.22252093255519867 -0.0
vn -0.9009688496589661 0.4338837265968323 -0.0
vn -0.7818315029144287 0.6234897971153259 -0.0
vn -0.6234897971153259 0.7818315029144287 -0.0
vn -0.4338837265968323 0.9009688496589661 -0.0
vn -0.22252093255519867 0.9749279022216797 -0.0
vn -0.0 1.0 -0.0
vn 0.0 0.0 1.0
vn 0.0 0.0 1.0
vn 0.0 0.0 1.0
vn 0.0 0.0 1.0
vn 0.0 0.0 1.0
vn 0.0 0.0 1.0
vn 0.0 0.0 1.0
vn 0.0 0.0 1.0
vn 0.0 0.0 1.0
vn 0.0 0.0 1.0
vn 0.0 0.0 1.0
vn 0.0 0.0 1.0
vn 0.0 0.0 1.0
vn 0.0 0.0 1.0
vn 0.0 0.0 1.0
vn 0.0 0.0 1.0
vn 0.0 0.0 1.0
vn 0.0 0.0 1.0
vn 0.0 0.0 1.0
vn 0.0 0.0 1.0
vn 0.0 0.0 1.0
vn 0.0 0.0 1.0
vn 0.0 0.0 1.0
vn 0.0 0.0 1.0
vn 0.0 0.0 1.0
vn 0.0 0.0 1.0
vn 0.0 0.0 1.0
vn 0.0 0.0 1.0
vn 0.0 0.0 1.0
vn 0.0 0.0 1.0
vn 0.0 0.0 1.0
vn 0.0 0.0 1.0
vn 0.0 0.0 1.0
vn 0.0 0.0 1.0
vn 0.0 0.0 1.0
vn 0.0 0.0 1.0
vn 0.0 0.0 1.0
vn 0.0 0.0 1.0
vn 0.0 0.0 1.0
vn 0.0 0.0 1.0
vn 0.0 0.0 1.0
vn 0.0 0.0 1.0
vn 0.0 0.0 1.0
vn 0.0 0.0 1.0
vn 0.0 0.0 1.0
vn 0.0 0.0 1.0
vn 0.0 0.0 1.0
vn 0.0 0.0 1.0
vn 0.0 0.0 1.0
vn 0.0 0.0 1.0
vn 0.0 0.0 1.0
vn 0.0 0.0 1.0
vn 0.0 0.0 1.0
vn 0.0 0.0 1.0
vn 0.0 0.0 1.0
vn 0.0 0.0 1.0
vn -0.0 0.0 -1.0
vn -0.0 0.0 -1.0
vn -0.0 0.0 -1.0
vn -0.0 0.0 -1.0
vn -0.0 0.0 -1.0
vn -0.0 0.0 -1.0
vn -0.0 0.0 -1.0
vn -0.0 0.0 -1.0
vn -0.0 0.0 -1.0
vn -0.0 0.0 -1.0
vn -0.0 0.0 -1.0
vn -0.0 0.0 -1.0
vn -0.0 0.0 -1.0
vn -0.0 0.0 -1.0
vn -0.0 0.0 -1.0
vn -0.0 0.0 -1.0
vn -0.0 0.0 -1.0
vn -0.0 0.0 -1.0
vn -0.0 0.0 -1.0
vn -0.0 0.0 -1.0
vn -0.0 0.0 -1.0
vn -0.0 0.0 -1.0
vn -0.0 0.0 -1.0
vn -0.0 0.0 -1.0
vn -0.0 0.0 -1.0
vn -0.0 0.0 -1.0
vn -0.0 0.0 -1.0
vn -0.0 0.0 -1.0
vn -0.0 0.0 -1.0
vn -0.0 0.0 -1.0
vn -0.0 0.0 -1.0
vn -0.0 0.0 -1.0
g 67920946-e358-11ea-b9c6-54bf646e7e1f
f 1//1 2//2 4//4
f 4//4 2//2 3//3
g 6792f388-e358-11ea-8841-54bf646e7e1f
f 16//16 5//5 15//15
f 15//15 5//5 6//6
f 15//15 6//6 14//14
f 14//14 6//6 7//7
f 14//14 7//7 13//13
f 13//13 7//7 8//8
f 13//13 8//8 12//12
f 12//12 8//8 9//9
f 12//12 9//9 11//11
f 11//11 9//9 10//10
g 6793dde8-e358-11ea-b14b-54bf646e7e1f
f 17//17 18//18 20//20
f 20//20 18//18 19//19
g 6794c852-e358-11ea-b9d8-54bf646e7e1f
f 32//32 21//21 31//31
f 31//31 21//21 22//22
f 31//31 22//22 30//30
f 30//30 22//22 23//23
f 30//30 23//23 29//29
f 29//29 23//23 24//24
f 29//29 24//24 28//28
f 28//28 24//24 25//25
f 28//28 25//25 27//27
f 27//27 25//25 26//26
g 67958b90-e358-11ea-bd92-54bf646e7e1f
f 44//44 33//33 43//43
f 43//43 33//33 34//34
f 43//43 34//34 42//42
f 42//42 34//34 35//35
f 42//42 35//35 41//41
f 41//41 35//35 36//36
f 41//41 36//36 40//40
f 40//40 36//36 37//37
f 40//40 37//37 39//39
f 39//39 37//37 38//38
g 67967658-e358-11ea-a1fd-54bf646e7e1f
f 45//45 46//46 48//48
f 48//48 46//46 47//47
g 6797aea4-e358-11ea-a38d-54bf646e7e1f
f 60//60 49//49 59//59
f 59//59 49//49 50//50
f 59//59 50//50 58//58
f 58//58 50//50 51//51
f 58//58 51//51 57//57
f 57//57 51//51 52//52
f 57//57 52//52 56//56
f 56//56 52//52 53//53
f 56//56 53//53 55//55
f 55//55 53//53 54//54
g 6798c028-e358-11ea-9f10-54bf646e7e1f
f 61//61 62//62 64//64
f 64//64 62//62 63//63
g 679a4666-e358-11ea-b13d-54bf646e7e1f
f 66//66 67//67 65//65
f 65//65 67//67 68//68
f 65//65 68//68 69//69
f 69//69 70//70 65//65
f 65//65 70//70 88//88
f 88//88 70//70 83//83
f 88//88 83//83 84//84
f 70//70 71//71 83//83
f 83//83 71//71 82//82
f 82//82 71//71 77//77
f 82//82 77//77 81//81
f 81//81 77//77 80//80
f 80//80 77//77 79//79
f 79//79 77//77 78//78
f 77//77 71//71 76//76
f 76//76 71//71 72//72
f 76//76 72//72 73//73
f 73//73 74//74 76//76
f 76//76 74//74 75//75
f 84//84 85//85 88//88
f 88//88 85//85 86//86
f 88//88 86//86 87//87
g 67382d1c-e358-11ea-876b-54bf646e7e1f
f 89//89 90//90 92//92
f 92//92 90//90 91//91
g 6738a230-e358-11ea-a6f5-54bf646e7e1f
f 108//108 93//93 107//107
f 107//107 93//93 94//94
f 107//107 94//94 106//106
f 106//106 94//94 95//95
f 106//106 95//95 105//105
f 105//105 95//95 96//96
f 105//105 96//96 104//104
f 104//104 96//96 97//97
f 104//104 97//97 103//103
f 103//103 97//97 98//98
f 103//103 98//98 102//102
f 102//102 98//98 99//99
f 102//102 99//99 101//101
f 101//101 99//99 100//100
g 6738f048-e358-11ea-a1ba-54bf646e7e1f
f 109//109 110//110 112//112
f 112//112 110//110 111//111
g 67396580-e358-11ea-bc1e-54bf646e7e1f
f 128//128 113//113 127//127
f 127//127 113//113 114//114
f 127//127 114//114 126//126
f 126//126 114//114 115//115
f 126//126 115//115 125//125
f 125//125 115//115 116//116
f 125//125 116//116 124//124
f 124//124 116//116 117//117
f 124//124 117//117 123//123
f 123//123 117//117 118//118
f 123//123 118//118 122//122
f 122//122 118//118 119//119
f 122//122 119//119 121//121
f 121//121 119//119 120//120
g 6739daa6-e358-11ea-af85-54bf646e7e1f
f 129//129 130//130 132//132
f 132//132 130//130 131//131
g 673a4fca-e358-11ea-9c28-54bf646e7e1f
f 148//148 133//133 147//147
f 147//147 133//133 134//134
f 147//147 134//134 146//146
f 146//146 134//134 135//135
f 146//146 135//135 145//145
f 145//145 135//135 136//136
f 145//145 136//136 144//144
f 144//144 136//136 137//137
f 144//144 137//137 143//143
f 143//143 137//137 138//138
f 143//143 138//138 142//142
f 142//142 138//138 139//139
f 142//142 139//139 141//141
f 141//141 139//139 140//140
g 673ac4fa-e358-11ea-a663-54bf646e7e1f
f 149//149 150//150 152//152
f 152//152 150//150 151//151
g 673b3a1a-e358-11ea-888d-54bf646e7e1f
f 168//168 153//153 167//167
f 167//167 153//153 154//154
f 167//167 154//154 166//166
f 166//166 154//154 155//155
f 166//166 155//155 165//165
f 165//165 155//155 156//156
f 165//165 156//156 164//164
f 164//164 156//156 157//157
f 164//164 157//157 163//163
f 163//163 157//157 158//158
f 163//163 158//158 162//162
f 162//162 158//158 159//159
f 162//162 159//159 161//161
f 161//161 159//159 160//160
g 673baf5c-e358-11ea-a2ac-54bf646e7e1f
f 170//170 223//223 169//169
f 169//169 223//223 224//224
f 169//169 224//224 193//193
f 223//223 170//170 222//222
f 222//222 170//170 171//171
f 222//222 171//171 221//221
f 221//221 171//171 172//172
f 221//221 172//172 220//220
f 220//220 172//172 173//173
f 220//220 173//173 219//219
f 219//219 173//173 218//218
f 218//218 173//173 174//174
f 218//218 174//174 217//217
f 217//217 174//174 216//216
f 216//216 174//174 175//175
f 216//216 175//175 215//215
f 215//215 175//175 176//176
f 215//215 176//176 214//214
f 214//214 176//176 213//213
f 213//213 176//176 177//177
f 213//213 177//177 212//212
f 212//212 177//177 178//178
f 212//212 178//178 211//211
f 211//211 178//178 179//179
f 211//211 179//179 210//210
f 210//210 179//179 180//180
f 210//210 180//180 209//209
f 209//209 180//180 181//181
f 209//209 181//181 208//208
f 208//208 181//181 207//207
f 207//207 181//181 182//182
f 207//207 182//182 206//206
f 206//206 182//182 183//183
f 206//206 183//183 205//205
f 205//205 183//183 184//184
f 205//205 184//184 204//204
f 204//204 184//184 185//185
f 204//204 185//185 203//203
f 203//203 185//185 202//202
f 202//202 185//185 186//186
f 202//202 186//186 201//201
f 201//201 186//186 200//200
f 200//200 186//186 187//187
f 200//200 187//187 199//199
f 199//199 187//187 188//188
f 199//199 188//188 198//198
f 198//198 188//188 197//197
f 197//197 188//188 189//189
f 197//197 189//189 196//196
f 196//196 189//189 190//190
f 196//196 190//190 195//195
f 195//195 190//190 191//191
f 195//195 191//191 194//194
f 194//194 191//191 192//192
f 194//194 192//192 193//193
f 193//193 192//192 169//169
g 673c729c-e358-11ea-b177-54bf646e7e1f
f 226//226 227//227 225//225
f 225//225 227//227 228//228
f 225//225 228//228 229//229
f 229//229 230//230 225//225
f 225//225 230//230 231//231
f 225//225 231//231 232//232
f 233//233 249//249 232//232
f 232//232 249//249 256//256
f 232//232 256//256 225//225
f 234//234 240//240 233//233
f 233//233 240//240 241//241
f 233//233 241//241 248//248
f 248//248 241//241 247//247
f 247//247 241//241 246//246
f 246//246 241//241 245//245
f 245//245 241//241 244//244
f 244//244 241//241 243//243
f 243//243 241//241 242//242
f 234//234 235//235 240//240
f 240//240 235//235 236//236
f 240//240 236//236 237//237
f 237//237 238//238 240//240
f 240//240 238//238 239//239
f 248//248 249//249 233//233
f 249//249 250//250 256//256
f 256//256 250//250 251//251
f 256//256 251//251 252//252
f 252//252 253//253 256//256
f 256//256 253//253 254//254
f 256//256 254//254 255//255

# End of file