# WaveFront *.obj file
# Vertices: 24
# Triangles : 12

v 4.0 0.0 8.75
v 4.0 0.0 -8.75
v 4.0 0.17499999701976776 -8.75
v 4.0 0.17499999701976776 8.75
v -4.0 0.0 8.75
v 4.0 0.0 8.75
v 4.0 0.17499999701976776 8.75
v -4.0 0.17499999701976776 8.75
v -4.0 0.0 -8.75
v -4.0 0.0 8.75
v -4.0 0.17499999701976776 8.75
v -4.0 0.17499999701976776 -8.75
v 4.0 0.0 -8.75
v -4.0 0.0 -8.75
v -4.0 0.17499999701976776 -8.75
v 4.0 0.17499999701976776 -8.75
v 4.0 0.17499999701976776 -8.75
v -4.0 0.17499999701976776 -8.75
v -4.0 0.17499999701976776 8.75
v 4.0 0.17499999701976776 8.75
v -4.0 0.0 -8.75
v 4.0 0.0 -8.75
v 4.0 0.0 8.75
v -4.0 0.0 8.75
vn 1.0 0.0 0.0
vn 1.0 0.0 0.0
vn 1.0 0.0 0.0
vn 1.0 0.0 0.0
vn 0.0 -0.0 1.0
vn 0.0 -0.0 1.0
vn 0.0 -0.0 1.0
vn 0.0 -0.0 1.0
vn -1.0 0.0 0.0
vn -1.0 0.0 0.0
vn -1.0 0.0 0.0
vn -1.0 0.0 0.0
vn 0.0 0.0 -1.0
vn 0.0 0.0 -1.0
vn 0.0 0.0 -1.0
vn 0.0 0.0 -1.0
vn 0.0 1.0 0.0
vn 0.0 1.0 0.0
vn 0.0 1.0 0.0
vn 0.0 1.0 0.0
vn -0.0 -1.0 -0.0
vn -0.0 -1.0 -0.0
vn -0.0 -1.0 -0.0
vn -0.0 -1.0 -0.0
g bd58ee64-e31f-11ea-8d52-54bf646e7e1f
f 1//1 2//2 4//4
f 4//4 2//2 3//3
g bd593c7a-e31f-11ea-90e8-54bf646e7e1f
f 5//5 6//6 8//8
f 8//8 6//6 7//7
g bd59638a-e31f-11ea-bd48-54bf646e7e1f
f 9//9 10//10 12//12
f 12//12 10//10 11//11
g bd59b1ae-e31f-11ea-9c4d-54bf646e7e1f
f 13//13 14//14 16//16
f 16//16 14//14 15//15
g bd59d8c2-e31f-11ea-a5ca-54bf646e7e1f
f 18//18 19//19 17//17
f 17//17 19//19 20//20
g bd5a2712-e31f-11ea-a96d-54bf646e7e1f
f 21//21 22//22 24//24
f 24//24 22//22 23//23

# End of file