# WaveFront *.obj file
# Vertices: 72
# Triangles : 40

v 0.0 213.36000061035156 172.72000122070312
v 0.0 243.83999633789062 172.72000122070312
v -12.699999809265137 243.83999633789062 172.72000122070312
v -12.699999809265137 213.36000061035156 172.72000122070312
v 0.0 213.36000061035156 78.1050033569336
v 0.0 213.36000061035156 172.72000122070312
v -12.699999809265137 213.36000061035156 172.72000122070312
v -12.699999809265137 213.36000061035156 78.1050033569336
v 0.0 213.36000061035156 78.1050033569336
v -12.699999809265137 213.36000061035156 78.1050033569336
v -12.699999809265137 0.0 78.1050033569336
v 0.0 0.0 78.1050033569336
v 0.0 0.0 0.0
v 0.0 0.0 78.1050033569336
v -12.699999809265137 0.0 78.1050033569336
v -12.699999809265137 0.0 0.0
v 0.0 243.83999633789062 0.0
v 0.0 0.0 0.0
v -12.699999809265137 0.0 0.0
v -12.699999809265137 243.83999633789062 0.0
v 0.0 243.83999633789062 172.72000122070312
v 0.0 243.83999633789062 0.0
v -12.699999809265137 243.83999633789062 0.0
v -12.699999809265137 243.83999633789062 172.72000122070312
v 0.0 243.83999633789062 0.0
v 0.0 243.83999633789062 172.72000122070312
v 0.0 213.36000061035156 172.72000122070312
v 0.0 213.36000061035156 78.1050033569336
v 0.0 0.0 78.1050033569336
v 0.0 0.0 0.0
v -12.699999809265137 243.83999633789062 172.72000122070312
v -12.699999809265137 243.83999633789062 0.0
v -12.699999809265137 0.0 0.0
v -12.699999809265137 0.0 78.1050033569336
v -12.699999809265137 213.36000061035156 78.1050033569336
v -12.699999809265137 213.36000061035156 172.72000122070312
v 162.55999755859375 243.83999633789062 0.0
v 162.55999755859375 215.7384490966797 0.0
v 162.55999755859375 215.7384490966797 -12.699999809265137
v 162.55999755859375 243.83999633789062 -12.699999809265137
v 162.55999755859375 215.7384490966797 0.0
v 82.55000305175781 215.7384490966797 0.0
v 82.55000305175781 215.7384490966797 -12.699999809265137
v 162.55999755859375 215.7384490966797 -12.699999809265137
v 82.55000305175781 215.7384490966797 -12.699999809265137
v 82.55000305175781 215.7384490966797 0.0
v 82.55000305175781 0.0 0.0
v 82.55000305175781 0.0 -12.699999809265137
v 82.55000305175781 0.0 0.0
v 0.0 0.0 0.0
v 0.0 0.0 -12.699999809265137
v 82.55000305175781 0.0 -12.699999809265137
v 0.0 243.83999633789062 0.0
v 162.55999755859375 243.83999633789062 0.0
v 162.55999755859375 243.83999633789062 -12.699999809265137
v 0.0 243.83999633789062 -12.699999809265137
v 0.0 0.0 0.0
v 0.0 243.83999633789062 0.0
v 0.0 243.83999633789062 -12.699999809265137
v 0.0 0.0 -12.699999809265137
v 0.0 243.83999633789062 0.0
v 0.0 0.0 0.0
v 82.55000305175781 0.0 0.0
v 82.55000305175781 215.7384490966797 0.0
v 162.55999755859375 215.7384490966797 0.0
v 162.55999755859375 243.83999633789062 0.0
v 0.0 0.0 -12.699999809265137
v 0.0 243.83999633789062 -12.699999809265137
v 162.55999755859375 243.83999633789062 -12.699999809265137
v 162.55999755859375 215.7384490966797 -12.699999809265137
v 82.55000305175781 215.7384490966797 -12.699999809265137
v 82.55000305175781 0.0 -12.699999809265137
vn 0.0 0.0 1.0
vn 0.0 0.0 1.0
vn 0.0 0.0 1.0
vn 0.0 0.0 1.0
vn -0.0 -1.0 -0.0
vn -0.0 -1.0 -0.0
vn -0.0 -1.0 -0.0
vn -0.0 -1.0 -0.0
vn 0.0 -0.0 1.0
vn 0.0 -0.0 1.0
vn 0.0 -0.0 1.0
vn 0.0 -0.0 1.0
vn 0.0 -1.0 0.0
vn 0.0 -1.0 0.0
vn 0.0 -1.0 0.0
vn 0.0 -1.0 0.0
vn -0.0 -0.0 -1.0
vn -0.0 -0.0 -1.0
vn -0.0 -0.0 -1.0
vn -0.0 -0.0 -1.0
vn 0.0 1.0 0.0
vn 0.0 1.0 0.0
vn 0.0 1.0 0.0
vn 0.0 1.0 0.0
vn 1.0 0.0 0.0
vn 1.0 0.0 0.0
vn 1.0 0.0 0.0
vn 1.0 0.0 0.0
vn 1.0 0.0 0.0
vn 1.0 0.0 0.0
vn -1.0 0.0 0.0
vn -1.0 0.0 0.0
vn -1.0 0.0 0.0
vn -1.0 0.0 0.0
vn -1.0 0.0 0.0
vn -1.0 0.0 0.0
vn 1.0 -0.0 0.0
vn 1.0 -0.0 0.0
vn 1.0 -0.0 0.0
vn 1.0 -0.0 0.0
vn 0.0 -1.0 0.0
vn 0.0 -1.0 0.0
vn 0.0 -1.0 0.0
vn 0.0 -1.0 0.0
vn 1.0 -0.0 0.0
vn 1.0 -0.0 0.0
vn 1.0 -0.0 0.0
vn 1.0 -0.0 0.0
vn 0.0 -1.0 0.0
vn 0.0 -1.0 0.0
vn 0.0 -1.0 0.0
vn 0.0 -1.0 0.0
vn 0.0 1.0 0.0
vn 0.0 1.0 0.0
vn 0.0 1.0 0.0
vn 0.0 1.0 0.0
vn -1.0 -0.0 -0.0
vn -1.0 -0.0 -0.0
vn -1.0 -0.0 -0.0
vn -1.0 -0.0 -0.0
vn 0.0 0.0 1.0
vn 0.0 0.0 1.0
vn 0.0 0.0 1.0
vn 0.0 0.0 1.0
vn 0.0 0.0 1.0
vn 0.0 0.0 1.0
vn 0.0 0.0 -1.0
vn 0.0 0.0 -1.0
vn 0.0 0.0 -1.0
vn 0.0 0.0 -1.0
vn 0.0 0.0 -1.0
vn 0.0 0.0 -1.0
g 7ede9246-e327-11ea-906b-54bf646e7e1f
f 1//1 2//2 4//4
f 4//4 2//2 3//3
g 7ee0dc52-e327-11ea-b7e7-54bf646e7e1f
f 5//5 6//6 8//8
f 8//8 6//6 7//7
g 7e1c05ae-e327-11ea-a108-54bf646e7e1f
f 10//10 11//11 9//9
f 9//9 11//11 12//12
g 7e1e9dc2-e327-11ea-b3bc-54bf646e7e1f
f 13//13 14//14 16//16
f 16//16 14//14 15//15
g 7e2888ee-e327-11ea-96fb-54bf646e7e1f
f 17//17 18//18 20//20
f 20//20 18//18 19//19
g 7e2c0b48-e327-11ea-b5c3-54bf646e7e1f
f 21//21 22//22 24//24
f 24//24 22//22 23//23
g 7e2f3fae-e327-11ea-9c04-54bf646e7e1f
f 30//30 25//25 28//28
f 28//28 25//25 26//26
f 28//28 26//26 27//27
f 28//28 29//29 30//30
g 7e31d78a-e327-11ea-9dd5-54bf646e7e1f
f 36//36 31//31 35//35
f 35//35 31//31 32//32
f 35//35 32//32 33//33
f 33//33 34//34 35//35
g 7f342c62-e327-11ea-b654-54bf646e7e1f
f 37//37 38//38 40//40
f 40//40 38//38 39//39
g 7f36c466-e327-11ea-a679-54bf646e7e1f
f 41//41 42//42 44//44
f 44//44 42//42 43//43
g 7e8f39d2-e327-11ea-872f-54bf646e7e1f
f 46//46 47//47 45//45
f 45//45 47//47 48//48
g 7e8d6506-e327-11ea-a357-54bf646e7e1f
f 49//49 50//50 52//52
f 52//52 50//50 51//51
g 7e90e782-e327-11ea-abbf-54bf646e7e1f
f 53//53 54//54 56//56
f 56//56 54//54 55//55
g 7e92bc54-e327-11ea-8477-54bf646e7e1f
f 57//57 58//58 60//60
f 60//60 58//58 59//59
g 7e94b826-e327-11ea-bd1d-54bf646e7e1f
f 66//66 61//61 64//64
f 64//64 61//61 62//62
f 64//64 62//62 63//63
f 64//64 65//65 66//66
g 7e9665d4-e327-11ea-a28d-54bf646e7e1f
f 72//72 67//67 71//71
f 71//71 67//67 68//68
f 71//71 68//68 69//69
f 69//69 70//70 71//71

# End of file