# WaveFront *.obj file
# Vertices: 24
# Triangles : 12

v 3.5299999713897705 0.0 -2.7750000953674316
v -3.5299999713897705 0.0 -2.7750000953674316
v -3.5299999713897705 2.200000047683716 -2.7750000953674316
v 3.5299999713897705 2.200000047683716 -2.7750000953674316
v 3.5299999713897705 0.0 2.7750000953674316
v 3.5299999713897705 0.0 -2.7750000953674316
v 3.5299999713897705 2.200000047683716 -2.7750000953674316
v 3.5299999713897705 2.200000047683716 2.7750000953674316
v -3.5299999713897705 0.0 2.7750000953674316
v 3.5299999713897705 0.0 2.7750000953674316
v 3.5299999713897705 2.200000047683716 2.7750000953674316
v -3.5299999713897705 2.200000047683716 2.7750000953674316
v -3.5299999713897705 0.0 -2.7750000953674316
v -3.5299999713897705 0.0 2.7750000953674316
v -3.5299999713897705 2.200000047683716 2.7750000953674316
v -3.5299999713897705 2.200000047683716 -2.7750000953674316
v -3.5299999713897705 2.200000047683716 -2.7750000953674316
v -3.5299999713897705 2.200000047683716 2.7750000953674316
v 3.5299999713897705 2.200000047683716 2.7750000953674316
v 3.5299999713897705 2.200000047683716 -2.7750000953674316
v -3.5299999713897705 0.0 2.7750000953674316
v -3.5299999713897705 0.0 -2.7750000953674316
v 3.5299999713897705 0.0 -2.7750000953674316
v 3.5299999713897705 0.0 2.7750000953674316
vn 0.0 0.0 -1.0
vn 0.0 0.0 -1.0
vn 0.0 0.0 -1.0
vn 0.0 0.0 -1.0
vn 1.0 -0.0 0.0
vn 1.0 -0.0 0.0
vn 1.0 -0.0 0.0
vn 1.0 -0.0 0.0
vn 0.0 0.0 1.0
vn 0.0 0.0 1.0
vn 0.0 0.0 1.0
vn 0.0 0.0 1.0
vn -1.0 0.0 -1.600321449513517e-16
vn -1.0 0.0 -1.600321449513517e-16
vn -1.0 0.0 -1.600321449513517e-16
vn -1.0 0.0 -1.600321449513517e-16
vn 0.0 1.0 0.0
vn 0.0 1.0 0.0
vn 0.0 1.0 0.0
vn 0.0 1.0 0.0
vn -0.0 -1.0 -0.0
vn -0.0 -1.0 -0.0
vn -0.0 -1.0 -0.0
vn -0.0 -1.0 -0.0
g cbce8280-e36a-11ea-b78c-54bf646e7e1f
f 1//1 2//2 4//4
f 4//4 2//2 3//3
g cbcea986-e36a-11ea-8676-54bf646e7e1f
f 5//5 6//6 8//8
f 8//8 6//6 7//7
g cbcef7ae-e36a-11ea-8e4f-54bf646e7e1f
f 9//9 10//10 12//12
f 12//12 10//10 11//11
g cbcf1eba-e36a-11ea-9cac-54bf646e7e1f
f 13//13 14//14 16//16
f 16//16 14//14 15//15
g cbcf45cc-e36a-11ea-9aaf-54bf646e7e1f
f 17//17 18//18 20//20
f 20//20 18//18 19//19
g cbcf93e6-e36a-11ea-9ef5-54bf646e7e1f
f 22//22 23//23 21//21
f 21//21 23//23 24//24

# End of file