# WaveFront *.obj file
# Vertices: 96
# Triangles : 56

v 0.08556089550256729 0.0 17.186412811279297
v 0.8855608701705933 0.0 17.186412811279297
v 0.8855608701705933 1.0 17.186412811279297
v 0.08556089550256729 1.0 17.186412811279297
v 0.08556089550256729 0.0 1.64200758934021
v 0.08556089550256729 0.0 17.186412811279297
v 0.08556089550256729 1.0 17.186412811279297
v 0.08556089550256729 1.0 1.64200758934021
v 0.8855608701705933 0.0 1.64200758934021
v 0.08556089550256729 0.0 1.64200758934021
v 0.08556089550256729 1.0 1.64200758934021
v 0.8855608701705933 1.0 1.64200758934021
v 0.8855608701705933 0.0 17.186412811279297
v 0.8855608701705933 0.0 1.64200758934021
v 0.8855608701705933 1.0 1.64200758934021
v 0.8855608701705933 1.0 17.186412811279297
v 0.8855608701705933 1.0 17.186412811279297
v 0.8855608701705933 1.0 1.64200758934021
v 0.08556089550256729 1.0 1.64200758934021
v 0.08556089550256729 1.0 17.186412811279297
v 0.8855608701705933 0.0 1.64200758934021
v 0.8855608701705933 0.0 17.186412811279297
v 0.08556089550256729 0.0 17.186412811279297
v 0.08556089550256729 0.0 1.64200758934021
v 6.4777960777282715 0.0 7.605616092681885
v 2.989630699157715 0.0 7.605616092681885
v 2.989630699157715 0.5 7.605616092681885
v 6.4777960777282715 0.5 7.605616092681885
v 6.4777960777282715 0.0 11.105616569519043
v 6.4777960777282715 0.0 7.605616092681885
v 6.4777960777282715 0.5 7.605616092681885
v 6.4777960777282715 0.5 11.105616569519043
v 2.989630699157715 0.0 11.105616569519043
v 6.4777960777282715 0.0 11.105616569519043
v 6.4777960777282715 0.5 11.105616569519043
v 2.989630699157715 0.5 11.105616569519043
v 2.989630699157715 0.0 11.105616569519043
v 2.989630699157715 0.5 11.105616569519043
v 2.989630699157715 0.5 17.18351173400879
v 2.989630699157715 0.0 17.18351173400879
v 2.989630699157715 0.5 7.605616092681885
v 2.989630699157715 0.0 7.605616092681885
v 2.989630699157715 0.0 6.85551118850708
v 2.989630699157715 0.5 6.85551118850708
v 6.4777960777282715 0.0 1.6555113792419434
v 2.989630699157715 0.0 1.6555113792419434
v 2.989630699157715 0.5 1.6555113792419434
v 6.4777960777282715 0.5 1.6555113792419434
v 6.4777960777282715 0.0 6.85551118850708
v 6.4777960777282715 0.0 1.6555113792419434
v 6.4777960777282715 0.5 1.6555113792419434
v 6.4777960777282715 0.5 6.85551118850708
v 2.989630699157715 0.0 6.85551118850708
v 6.4777960777282715 0.0 6.85551118850708
v 6.4777960777282715 0.5 6.85551118850708
v 2.989630699157715 0.5 6.85551118850708
v 2.989630699157715 0.5 1.6555113792419434
v 2.989630699157715 0.0 1.6555113792419434
v 2.989630699157715 0.0 1.64200758934021
v 2.989630699157715 0.5 1.64200758934021
v 0.8855608701705933 0.0 1.64200758934021
v 0.8855608701705933 0.0 17.18351173400879
v 0.8855608701705933 0.5 17.18351173400879
v 0.8855608701705933 0.5 1.64200758934021
v 2.989630699157715 0.0 1.64200758934021
v 0.8855608701705933 0.0 1.64200758934021
v 0.8855608701705933 0.5 1.64200758934021
v 2.989630699157715 0.5 1.64200758934021
v 0.8855608701705933 0.0 17.18351173400879
v 2.989630699157715 0.0 17.18351173400879
v 2.989630699157715 0.5 17.18351173400879
v 0.8855608701705933 0.5 17.18351173400879
v 0.8855608701705933 0.5 17.18351173400879
v 2.989630699157715 0.5 17.18351173400879
v 2.989630699157715 0.5 11.105616569519043
v 6.4777960777282715 0.5 11.105616569519043
v 6.4777960777282715 0.5 7.605616092681885
v 2.989630699157715 0.5 7.605616092681885
v 2.989630699157715 0.5 6.85551118850708
v 6.4777960777282715 0.5 6.85551118850708
v 6.4777960777282715 0.5 1.6555113792419434
v 2.989630699157715 0.5 1.6555113792419434
v 2.989630699157715 0.5 1.64200758934021
v 0.8855608701705933 0.5 1.64200758934021
v 2.989630699157715 0.0 17.18351173400879
v 0.8855608701705933 0.0 17.18351173400879
v 0.8855608701705933 0.0 1.64200758934021
v 2.989630699157715 0.0 1.64200758934021
v 2.989630699157715 0.0 1.6555113792419434
v 6.4777960777282715 0.0 1.6555113792419434
v 6.4777960777282715 0.0 6.85551118850708
v 2.989630699157715 0.0 6.85551118850708
v 2.989630699157715 0.0 7.605616092681885
v 6.4777960777282715 0.0 7.605616092681885
v 6.4777960777282715 0.0 11.105616569519043
v 2.989630699157715 0.0 11.105616569519043
vn 0.0 0.0 1.0
vn 0.0 0.0 1.0
vn 0.0 0.0 1.0
vn 0.0 0.0 1.0
vn -1.0 0.0 0.0
vn -1.0 0.0 0.0
vn -1.0 0.0 0.0
vn -1.0 0.0 0.0
vn 0.0 0.0 -1.0
vn 0.0 0.0 -1.0
vn 0.0 0.0 -1.0
vn 0.0 0.0 -1.0
vn 1.0 -0.0 0.0
vn 1.0 -0.0 0.0
vn 1.0 -0.0 0.0
vn 1.0 -0.0 0.0
vn 0.0 1.0 0.0
vn 0.0 1.0 0.0
vn 0.0 1.0 0.0
vn 0.0 1.0 0.0
vn -0.0 -1.0 -0.0
vn -0.0 -1.0 -0.0
vn -0.0 -1.0 -0.0
vn -0.0 -1.0 -0.0
vn 0.0 0.0 -1.0
vn 0.0 0.0 -1.0
vn 0.0 0.0 -1.0
vn 0.0 0.0 -1.0
vn 1.0 0.0 0.0
vn 1.0 0.0 0.0
vn 1.0 0.0 0.0
vn 1.0 0.0 0.0
vn 0.0 -0.0 1.0
vn 0.0 -0.0 1.0
vn 0.0 -0.0 1.0
vn 0.0 -0.0 1.0
vn 1.0 0.0 0.0
vn 1.0 0.0 0.0
vn 1.0 0.0 0.0
vn 1.0 0.0 0.0
vn 1.0 0.0 0.0
vn 1.0 0.0 0.0
vn 1.0 0.0 0.0
vn 1.0 0.0 0.0
vn 0.0 0.0 -1.0
vn 0.0 0.0 -1.0
vn 0.0 0.0 -1.0
vn 0.0 0.0 -1.0
vn 1.0 0.0 0.0
vn 1.0 0.0 0.0
vn 1.0 0.0 0.0
vn 1.0 0.0 0.0
vn 0.0 -0.0 1.0
vn 0.0 -0.0 1.0
vn 0.0 -0.0 1.0
vn 0.0 -0.0 1.0
vn 1.0 0.0 0.0
vn 1.0 0.0 0.0
vn 1.0 0.0 0.0
vn 1.0 0.0 0.0
vn -1.0 0.0 0.0
vn -1.0 0.0 0.0
vn -1.0 0.0 0.0
vn -1.0 0.0 0.0
vn 0.0 0.0 -1.0
vn 0.0 0.0 -1.0
vn 0.0 0.0 -1.0
vn 0.0 0.0 -1.0
vn 0.0 -0.0 1.0
vn 0.0 -0.0 1.0
vn 0.0 -0.0 1.0
vn 0.0 -0.0 1.0
vn 0.0 1.0 0.0
vn 0.0 1.0 0.0
vn 0.0 1.0 0.0
vn 0.0 1.0 0.0
vn 0.0 1.0 0.0
vn 0.0 1.0 0.0
vn 0.0 1.0 0.0
vn 0.0 1.0 0.0
vn 0.0 1.0 0.0
vn 0.0 1.0 0.0
vn 0.0 1.0 0.0
vn 0.0 1.0 0.0
vn -0.0 -1.0 -0.0
vn -0.0 -1.0 -0.0
vn -0.0 -1.0 -0.0
vn -0.0 -1.0 -0.0
vn -0.0 -1.0 -0.0
vn -0.0 -1.0 -0.0
vn -0.0 -1.0 -0.0
vn -0.0 -1.0 -0.0
vn -0.0 -1.0 -0.0
vn -0.0 -1.0 -0.0
vn -0.0 -1.0 -0.0
vn -0.0 -1.0 -0.0
g e507b3a2-e32c-11ea-9ef9-54bf646e7e1f
f 1//1 2//2 4//4
f 4//4 2//2 3//3
g e50801ae-e32c-11ea-9249-54bf646e7e1f
f 5//5 6//6 8//8
f 8//8 6//6 7//7
g e50828c8-e32c-11ea-875b-54bf646e7e1f
f 9//9 10//10 12//12
f 12//12 10//10 11//11
g e5084fcc-e32c-11ea-93dd-54bf646e7e1f
f 13//13 14//14 16//16
f 16//16 14//14 15//15
g e5089dfe-e32c-11ea-97d0-54bf646e7e1f
f 17//17 18//18 20//20
f 20//20 18//18 19//19
g e508c508-e32c-11ea-867b-54bf646e7e1f
f 22//22 23//23 21//21
f 21//21 23//23 24//24
g e584cb46-e32c-11ea-9418-54bf646e7e1f
f 25//25 26//26 28//28
f 28//28 26//26 27//27
g e5856780-e32c-11ea-9205-54bf646e7e1f
f 29//29 30//30 32//32
f 32//32 30//30 31//31
g e5862ac6-e32c-11ea-b898-54bf646e7e1f
f 33//33 34//34 36//36
f 36//36 34//34 35//35
g b4d2de43-81ff-3c6d-b617-f4bb826ca490
f 38//38 39//39 37//37
f 37//37 39//39 40//40
g e5871512-e32c-11ea-8c92-54bf646e7e1f
f 42//42 43//43 41//41
f 41//41 43//43 44//44
g e5588ddc-e32c-11ea-8d5f-54bf646e7e1f
f 45//45 46//46 48//48
f 48//48 46//46 47//47
g e559782e-e32c-11ea-a128-54bf646e7e1f
f 49//49 50//50 52//52
f 52//52 50//50 51//51
g e55a3b74-e32c-11ea-8e36-54bf646e7e1f
f 53//53 54//54 56//56
f 56//56 54//54 55//55
g e52e734a-e32c-11ea-9cad-54bf646e7e1f
f 58//58 59//59 57//57
f 57//57 59//59 60//60
g e52dd728-e32c-11ea-bd04-54bf646e7e1f
f 61//61 62//62 64//64
f 64//64 62//62 63//63
g e52e2534-e32c-11ea-8c63-54bf646e7e1f
f 65//65 66//66 68//68
f 68//68 66//66 67//67
g e52ec164-e32c-11ea-a19e-54bf646e7e1f
f 69//69 70//70 72//72
f 72//72 70//70 71//71
g e52f0f80-e32c-11ea-b90e-54bf646e7e1f
f 74//74 75//75 73//73
f 73//73 75//75 84//84
f 84//84 75//75 78//78
f 84//84 78//78 79//79
f 76//76 77//77 75//75
f 75//75 77//77 78//78
f 80//80 81//81 79//79
f 79//79 81//81 82//82
f 79//79 82//82 84//84
f 84//84 82//82 83//83
g e52f84ae-e32c-11ea-9cee-54bf646e7e1f
f 85//85 86//86 96//96
f 96//96 86//86 87//87
f 96//96 87//87 93//93
f 93//93 87//87 92//92
f 92//92 87//87 89//89
f 92//92 89//89 90//90
f 87//87 88//88 89//89
f 90//90 91//91 92//92
f 93//93 94//94 96//96
f 96//96 94//94 95//95

# End of file