# WaveFront *.obj file
# Vertices: 102
# Triangles : 88

v 5.000190258026123 28.0 3.998234510421753
v 4.946007251739502 28.0 4.322934150695801
v 4.78933048248291 28.0 4.612447261810303
v 4.547138214111328 28.0 4.8354010581970215
v 4.245675563812256 28.0 4.967634677886963
v 3.9176108837127686 28.0 4.994819164276123
v 3.5984947681427 28.0 4.914007663726807
v 3.322908639907837 28.0 4.7339582443237305
v 3.1207165718078613 28.0 4.47418212890625
v 3.013828992843628 28.0 4.1628289222717285
v 3.013828992843628 28.0 3.8336398601531982
v 3.1207165718078613 28.0 3.522287130355835
v 3.322908639907837 28.0 3.2625105381011963
v 3.5984947681427 28.0 3.08246111869812
v 3.9176108837127686 28.0 3.001650094985962
v 4.245675563812256 28.0 3.028834342956543
v 4.547138214111328 28.0 3.1610679626464844
v 4.78933048248291 28.0 3.384021759033203
v 4.946007251739502 28.0 3.673535108566284
v 5.000190258026123 25.0 3.998234510421753
v 4.946007251739502 25.0 3.673535108566284
v 4.78933048248291 25.0 3.384021759033203
v 4.547138214111328 25.0 3.1610679626464844
v 4.245675563812256 25.0 3.028834342956543
v 3.9176108837127686 25.0 3.001650094985962
v 3.5984947681427 25.0 3.08246111869812
v 3.322908639907837 25.0 3.2625105381011963
v 3.1207165718078613 25.0 3.522287130355835
v 3.013828992843628 25.0 3.8336398601531982
v 3.013828992843628 25.0 4.1628289222717285
v 3.1207165718078613 25.0 4.47418212890625
v 3.322908639907837 25.0 4.7339582443237305
v 3.5984947681427 25.0 4.914007663726807
v 3.9176108837127686 25.0 4.994819164276123
v 4.245675563812256 25.0 4.967634677886963
v 4.547138214111328 25.0 4.8354010581970215
v 4.78933048248291 25.0 4.612447261810303
v 4.946007251739502 25.0 4.322934150695801
v 5.000190258026123 25.0 3.998234510421753
v 5.000190258026123 28.0 3.998234510421753
v 5.000190258026123 28.0 3.998234510421753
v 4.946007251739502 28.0 3.673535108566284
v 4.78933048248291 28.0 3.384021759033203
v 4.547138214111328 28.0 3.1610679626464844
v 4.245675563812256 28.0 3.028834342956543
v 3.9176108837127686 28.0 3.001650094985962
v 3.5984947681427 28.0 3.08246111869812
v 3.322908639907837 28.0 3.2625105381011963
v 3.1207165718078613 28.0 3.522287130355835
v 3.013828992843628 28.0 3.8336398601531982
v 3.013828992843628 28.0 4.1628289222717285
v 3.1207165718078613 28.0 4.47418212890625
v 3.322908639907837 28.0 4.7339582443237305
v 3.5984947681427 28.0 4.914007663726807
v 3.9176108837127686 28.0 4.994819164276123
v 4.245675563812256 28.0 4.967634677886963
v 4.547138214111328 28.0 4.8354010581970215
v 4.78933048248291 28.0 4.612447261810303
v 4.946007251739502 28.0 4.322934150695801
v 0.0 0.0 0.0
v 0.0 0.0 8.0
v 0.0 25.0 8.0
v 0.0 25.0 0.0
v 8.0 0.0 0.0
v 0.0 0.0 0.0
v 0.0 25.0 0.0
v 8.0 25.0 0.0
v 8.0 0.0 8.0
v 8.0 0.0 0.0
v 8.0 25.0 0.0
v 8.0 25.0 8.0
v 0.0 0.0 8.0
v 8.0 0.0 8.0
v 8.0 25.0 8.0
v 0.0 25.0 8.0
v 5.000190258026123 25.0 3.998234510421753
v 4.946007251739502 25.0 4.322934150695801
v 4.78933048248291 25.0 4.612447261810303
v 4.547138214111328 25.0 4.8354010581970215
v 4.245675563812256 25.0 4.967634677886963
v 3.9176108837127686 25.0 4.994819164276123
v 3.5984947681427 25.0 4.914007663726807
v 3.322908639907837 25.0 4.7339582443237305
v 3.1207165718078613 25.0 4.47418212890625
v 3.013828992843628 25.0 4.1628289222717285
v 3.013828992843628 25.0 3.8336398601531982
v 3.1207165718078613 25.0 3.522287130355835
v 3.322908639907837 25.0 3.2625105381011963
v 3.5984947681427 25.0 3.08246111869812
v 3.9176108837127686 25.0 3.001650094985962
v 4.245675563812256 25.0 3.028834342956543
v 4.547138214111328 25.0 3.1610679626464844
v 4.78933048248291 25.0 3.384021759033203
v 4.946007251739502 25.0 3.673535108566284
v 0.0 25.0 8.0
v 8.0 25.0 8.0
v 8.0 25.0 0.0
v 0.0 25.0 0.0
v 8.0 0.0 8.0
v 0.0 0.0 8.0
v 0.0 0.0 0.0
v 8.0 0.0 0.0
vn 1.0 -0.0 1.2246468525851679e-16
vn 0.945817232131958 -0.0 0.3246994614601135
vn 0.789140522480011 -0.0 0.614212691783905
vn 0.5469481348991394 -0.0 0.8371664881706238
vn 0.24548548460006714 -0.0 0.9694002866744995
vn -0.0825793445110321 -0.0 0.9965844750404358
vn -0.4016954302787781 -0.0 0.915773332118988
vn -0.6772815585136414 -0.0 0.7357239127159119
vn -0.8794737458229065 -0.0 0.47594738006591797
vn -0.9863613247871399 -0.0 0.1645945906639099
vn -0.9863613247871399 0.0 -0.1645945906639099
vn -0.8794737458229065 0.0 -0.47594738006591797
vn -0.6772815585136414 0.0 -0.7357239127159119
vn -0.4016954302787781 0.0 -0.915773332118988
vn -0.0825793445110321 0.0 -0.9965844750404358
vn 0.24548548460006714 -0.0 -0.9694002866744995
vn 0.5469481348991394 -0.0 -0.8371664881706238
vn 0.789140522480011 -0.0 -0.614212691783905
vn 0.945817232131958 -0.0 -0.3246994614601135
vn 1.0 -0.0 -1.2246468525851679e-16
vn 0.945817232131958 -0.0 -0.3246994614601135
vn 0.789140522480011 -0.0 -0.614212691783905
vn 0.5469481348991394 -0.0 -0.8371664881706238
vn 0.24548548460006714 -0.0 -0.9694002866744995
vn -0.0825793445110321 0.0 -0.9965844750404358
vn -0.4016954302787781 0.0 -0.915773332118988
vn -0.6772815585136414 0.0 -0.7357239127159119
vn -0.8794737458229065 0.0 -0.47594738006591797
vn -0.9863613247871399 0.0 -0.1645945906639099
vn -0.9863613247871399 -0.0 0.1645945906639099
vn -0.8794737458229065 -0.0 0.47594738006591797
vn -0.6772815585136414 -0.0 0.7357239127159119
vn -0.4016954302787781 -0.0 0.915773332118988
vn -0.0825793445110321 -0.0 0.9965844750404358
vn 0.24548548460006714 -0.0 0.9694002866744995
vn 0.5469481348991394 -0.0 0.8371664881706238
vn 0.789140522480011 -0.0 0.614212691783905
vn 0.945817232131958 -0.0 0.3246994614601135
vn 1.0 -0.0 1.2246468525851679e-16
vn 1.0 -0.0 -1.2246468525851679e-16
vn 0.0 1.0 0.0
vn 0.0 1.0 0.0
vn 0.0 1.0 0.0
vn 0.0 1.0 0.0
vn 0.0 1.0 0.0
vn 0.0 1.0 0.0
vn 0.0 1.0 0.0
vn 0.0 1.0 0.0
vn 0.0 1.0 0.0
vn 0.0 1.0 0.0
vn 0.0 1.0 0.0
vn 0.0 1.0 0.0
vn 0.0 1.0 0.0
vn 0.0 1.0 0.0
vn 0.0 1.0 0.0
vn 0.0 1.0 0.0
vn 0.0 1.0 0.0
vn 0.0 1.0 0.0
vn 0.0 1.0 0.0
vn -1.0 0.0 0.0
vn -1.0 0.0 0.0
vn -1.0 0.0 0.0
vn -1.0 0.0 0.0
vn 0.0 0.0 -1.0
vn 0.0 0.0 -1.0
vn 0.0 0.0 -1.0
vn 0.0 0.0 -1.0
vn 1.0 0.0 0.0
vn 1.0 0.0 0.0
vn 1.0 0.0 0.0
vn 1.0 0.0 0.0
vn 0.0 -0.0 1.0
vn 0.0 -0.0 1.0
vn 0.0 -0.0 1.0
vn 0.0 -0.0 1.0
vn 0.0 1.0 0.0
vn 0.0 1.0 0.0
vn 0.0 1.0 0.0
vn 0.0 1.0 0.0
vn 0.0 1.0 0.0
vn 0.0 1.0 0.0
vn 0.0 1.0 0.0
vn 0.0 1.0 0.0
vn 0.0 1.0 0.0
vn 0.0 1.0 0.0
vn 0.0 1.0 0.0
vn 0.0 1.0 0.0
vn 0.0 1.0 0.0
vn 0.0 1.0 0.0
vn 0.0 1.0 0.0
vn 0.0 1.0 0.0
vn 0.0 1.0 0.0
vn 0.0 1.0 0.0
vn 0.0 1.0 0.0
vn 0.0 1.0 0.0
vn 0.0 1.0 0.0
vn 0.0 1.0 0.0
vn 0.0 1.0 0.0
vn -0.0 -1.0 -0.0
vn -0.0 -1.0 -0.0
vn -0.0 -1.0 -0.0
vn -0.0 -1.0 -0.0
g 7cb1ef2c-e32f-11ea-86b1-54bf646e7e1f
f 2//2 38//38 1//1
f 1//1 38//38 39//39
f 40//40 20//20 19//19
f 19//19 20//20 21//21
f 19//19 21//21 18//18
f 18//18 21//21 22//22
f 18//18 22//22 17//17
f 17//17 22//22 23//23
f 17//17 23//23 16//16
f 16//16 23//23 24//24
f 16//16 24//24 15//15
f 15//15 24//24 25//25
f 15//15 25//25 14//14
f 14//14 25//25 26//26
f 14//14 26//26 13//13
f 13//13 26//26 27//27
f 13//13 27//27 12//12
f 12//12 27//27 28//28
f 12//12 28//28 11//11
f 11//11 28//28 29//29
f 11//11 29//29 10//10
f 10//10 29//29 30//30
f 10//10 30//30 9//9
f 9//9 30//30 31//31
f 9//9 31//31 8//8
f 8//8 31//31 32//32
f 8//8 32//32 7//7
f 7//7 32//32 33//33
f 7//7 33//33 6//6
f 6//6 33//33 34//34
f 6//6 34//34 5//5
f 5//5 34//34 35//35
f 5//5 35//35 4//4
f 4//4 35//35 36//36
f 4//4 36//36 3//3
f 3//3 36//36 37//37
f 3//3 37//37 2//2
f 2//2 37//37 38//38
g 7cb23d4c-e32f-11ea-b750-54bf646e7e1f
f 42//42 50//50 41//41
f 41//41 50//50 51//51
f 41//41 51//51 59//59
f 59//59 51//51 52//52
f 59//59 52//52 58//58
f 58//58 52//52 53//53
f 58//58 53//53 57//57
f 57//57 53//53 54//54
f 57//57 54//54 56//56
f 56//56 54//54 55//55
f 50//50 42//42 49//49
f 49//49 42//42 43//43
f 49//49 43//43 48//48
f 48//48 43//43 44//44
f 48//48 44//44 47//47
f 47//47 44//44 45//45
f 47//47 45//45 46//46
g 7c8d2ab8-e32f-11ea-b2be-54bf646e7e1f
f 60//60 61//61 63//63
f 63//63 61//61 62//62
g 7c8d78ec-e32f-11ea-ac56-54bf646e7e1f
f 64//64 65//65 67//67
f 67//67 65//65 66//66
g 7c8d9fee-e32f-11ea-a723-54bf646e7e1f
f 68//68 69//69 71//71
f 71//71 69//69 70//70
g 7c8dee0c-e32f-11ea-a891-54bf646e7e1f
f 72//72 73//73 75//75
f 75//75 73//73 74//74
g 7c8e1524-e32f-11ea-942b-54bf646e7e1f
f 77//77 96//96 76//76
f 76//76 96//96 97//97
f 76//76 97//97 94//94
f 94//94 97//97 93//93
f 93//93 97//97 92//92
f 92//92 97//97 91//91
f 91//91 97//97 90//90
f 90//90 97//97 98//98
f 90//90 98//98 89//89
f 89//89 98//98 88//88
f 88//88 98//98 87//87
f 87//87 98//98 86//86
f 86//86 98//98 85//85
f 85//85 98//98 95//95
f 85//85 95//95 84//84
f 84//84 95//95 83//83
f 83//83 95//95 82//82
f 82//82 95//95 81//81
f 81//81 95//95 96//96
f 81//81 96//96 80//80
f 80//80 96//96 79//79
f 79//79 96//96 78//78
f 78//78 96//96 77//77
g 7c8e6336-e32f-11ea-b3e2-54bf646e7e1f
f 99//99 100//100 102//102
f 102//102 100//100 101//101

# End of file