# WaveFront *.obj file
# Vertices: 24
# Triangles : 12

v 0.75 -1.25 0.0
v 0.75 1.25 0.0
v 0.75 1.25 0.6000000238418579
v 0.75 -1.25 0.6000000238418579
v -0.75 -1.25 0.0
v 0.75 -1.25 0.0
v 0.75 -1.25 0.6000000238418579
v -0.75 -1.25 0.6000000238418579
v -0.75 1.25 0.0
v -0.75 -1.25 0.0
v -0.75 -1.25 0.6000000238418579
v -0.75 1.25 0.6000000238418579
v 0.75 1.25 0.0
v -0.75 1.25 0.0
v -0.75 1.25 0.6000000238418579
v 0.75 1.25 0.6000000238418579
v 0.75 1.25 0.6000000238418579
v -0.75 1.25 0.6000000238418579
v -0.75 -1.25 0.6000000238418579
v 0.75 -1.25 0.6000000238418579
v -0.75 1.25 0.0
v 0.75 1.25 0.0
v 0.75 -1.25 0.0
v -0.75 -1.25 0.0
vn 1.0 0.0 -0.0
vn 1.0 0.0 -0.0
vn 1.0 0.0 -0.0
vn 1.0 0.0 -0.0
vn 0.0 -1.0 0.0
vn 0.0 -1.0 0.0
vn 0.0 -1.0 0.0
vn 0.0 -1.0 0.0
vn -1.0 0.0 0.0
vn -1.0 0.0 0.0
vn -1.0 0.0 0.0
vn -1.0 0.0 0.0
vn 0.0 1.0 0.0
vn 0.0 1.0 0.0
vn 0.0 1.0 0.0
vn 0.0 1.0 0.0
vn 0.0 0.0 1.0
vn 0.0 0.0 1.0
vn 0.0 0.0 1.0
vn 0.0 0.0 1.0
vn -0.0 0.0 -1.0
vn -0.0 0.0 -1.0
vn -0.0 0.0 -1.0
vn -0.0 0.0 -1.0
g e082c766-e32f-11ea-a8ea-54bf646e7e1f
f 1//1 2//2 4//4
f 4//4 2//2 3//3
g e082ee82-e32f-11ea-8941-54bf646e7e1f
f 5//5 6//6 8//8
f 8//8 6//6 7//7
g e0833ca2-e32f-11ea-8951-54bf646e7e1f
f 9//9 10//10 12//12
f 12//12 10//10 11//11
g e08363a8-e32f-11ea-9ece-54bf646e7e1f
f 13//13 14//14 16//16
f 16//16 14//14 15//15
g e083b1ca-e32f-11ea-9fbc-54bf646e7e1f
f 17//17 18//18 20//20
f 20//20 18//18 19//19
g e083ffe4-e32f-11ea-be6e-54bf646e7e1f
f 21//21 22//22 24//24
f 24//24 22//22 23//23

# End of file