# WaveFront *.obj file
# Vertices: 108
# Triangles : 92

v -0.10000000149011612 0.057500001043081284 0.0
v -0.10000000149011612 -0.057500001043081284 0.0
v -0.10000000149011612 -0.057500001043081284 0.04500000178813934
v -0.10000000149011612 0.057500001043081284 0.04500000178813934
v -0.0949999988079071 0.0625 0.0
v -0.09654508531093597 0.06225528195500374 0.0
v -0.09793892502784729 0.06154508516192436 0.0
v -0.09904508292675018 0.06043892726302147 0.0
v -0.09975527971982956 0.059045083820819855 0.0
v -0.10000000149011612 0.057500001043081284 0.0
v -0.10000000149011612 0.057500001043081284 0.04500000178813934
v -0.09975527971982956 0.059045083820819855 0.04500000178813934
v -0.09904508292675018 0.06043892726302147 0.04500000178813934
v -0.09793892502784729 0.06154508516192436 0.04500000178813934
v -0.09654508531093597 0.06225528195500374 0.04500000178813934
v -0.0949999988079071 0.0625 0.04500000178813934
v -0.07793854176998138 0.0625 0.0
v -0.0949999988079071 0.0625 0.0
v -0.0949999988079071 0.0625 0.04500000178813934
v -0.07793854176998138 0.0625 0.04500000178813934
v -0.07793854176998138 -0.0625 0.0
v -0.07532359659671783 -0.051317211240530014 0.0
v -0.0732249841094017 -0.04002612829208374 0.0
v -0.07164713740348816 -0.028650576248764992 0.0
v -0.07059338688850403 -0.017214566469192505 0.0
v -0.0700659528374672 -0.005742228124290705 0.0
v -0.0700659528374672 0.005742228124290705 0.0
v -0.07059338688850403 0.017214566469192505 0.0
v -0.07164713740348816 0.028650576248764992 0.0
v -0.0732249841094017 0.04002612829208374 0.0
v -0.07532359659671783 0.051317211240530014 0.0
v -0.07793854176998138 0.0625 0.0
v -0.07793854176998138 0.0625 0.04500000178813934
v -0.07532359659671783 0.051317211240530014 0.04500000178813934
v -0.0732249841094017 0.04002612829208374 0.04500000178813934
v -0.07164713740348816 0.028650576248764992 0.04500000178813934
v -0.07059338688850403 0.017214566469192505 0.04500000178813934
v -0.0700659528374672 0.005742228124290705 0.04500000178813934
v -0.0700659528374672 -0.005742228124290705 0.04500000178813934
v -0.07059338688850403 -0.017214566469192505 0.04500000178813934
v -0.07164713740348816 -0.028650576248764992 0.04500000178813934
v -0.0732249841094017 -0.04002612829208374 0.04500000178813934
v -0.07532359659671783 -0.051317211240530014 0.04500000178813934
v -0.07793854176998138 -0.0625 0.04500000178813934
v -0.0949999988079071 -0.0625 0.0
v -0.07793854176998138 -0.0625 0.0
v -0.07793854176998138 -0.0625 0.04500000178813934
v -0.0949999988079071 -0.0625 0.04500000178813934
v -0.10000000149011612 -0.057500001043081284 0.0
v -0.09975527971982956 -0.059045083820819855 0.0
v -0.09904508292675018 -0.06043892726302147 0.0
v -0.09793892502784729 -0.06154508516192436 0.0
v -0.09654508531093597 -0.06225528195500374 0.0
v -0.0949999988079071 -0.0625 0.0
v -0.0949999988079071 -0.0625 0.04500000178813934
v -0.09654508531093597 -0.06225528195500374 0.04500000178813934
v -0.09793892502784729 -0.06154508516192436 0.04500000178813934
v -0.09904508292675018 -0.06043892726302147 0.04500000178813934
v -0.09975527971982956 -0.059045083820819855 0.04500000178813934
v -0.10000000149011612 -0.057500001043081284 0.04500000178813934
v -0.10000000149011612 -0.057500001043081284 0.04500000178813934
v -0.09975527971982956 -0.059045083820819855 0.04500000178813934
v -0.09904508292675018 -0.06043892726302147 0.04500000178813934
v -0.09793892502784729 -0.06154508516192436 0.04500000178813934
v -0.09654508531093597 -0.06225528195500374 0.04500000178813934
v -0.0949999988079071 -0.0625 0.04500000178813934
v -0.07793854176998138 -0.0625 0.04500000178813934
v -0.07532359659671783 -0.051317211240530014 0.04500000178813934
v -0.0732249841094017 -0.04002612829208374 0.04500000178813934
v -0.07164713740348816 -0.028650576248764992 0.04500000178813934
v -0.07059338688850403 -0.017214566469192505 0.04500000178813934
v -0.0700659528374672 -0.005742228124290705 0.04500000178813934
v -0.0700659528374672 0.005742228124290705 0.04500000178813934
v -0.07059338688850403 0.017214566469192505 0.04500000178813934
v -0.07164713740348816 0.028650576248764992 0.04500000178813934
v -0.0732249841094017 0.04002612829208374 0.04500000178813934
v -0.07532359659671783 0.051317211240530014 0.04500000178813934
v -0.07793854176998138 0.0625 0.04500000178813934
v -0.0949999988079071 0.0625 0.04500000178813934
v -0.09654508531093597 0.06225528195500374 0.04500000178813934
v -0.09793892502784729 0.06154508516192436 0.04500000178813934
v -0.09904508292675018 0.06043892726302147 0.04500000178813934
v -0.09975527971982956 0.059045083820819855 0.04500000178813934
v -0.10000000149011612 0.057500001043081284 0.04500000178813934
v -0.0949999988079071 -0.0625 0.0
v -0.09654508531093597 -0.06225528195500374 0.0
v -0.09793892502784729 -0.06154508516192436 0.0
v -0.09904508292675018 -0.06043892726302147 0.0
v -0.09975527971982956 -0.059045083820819855 0.0
v -0.10000000149011612 -0.057500001043081284 0.0
v -0.10000000149011612 0.057500001043081284 0.0
v -0.09975527971982956 0.059045083820819855 0.0
v -0.09904508292675018 0.06043892726302147 0.0
v -0.09793892502784729 0.06154508516192436 0.0
v -0.09654508531093597 0.06225528195500374 0.0
v -0.0949999988079071 0.0625 0.0
v -0.07793854176998138 0.0625 0.0
v -0.07532359659671783 0.051317211240530014 0.0
v -0.0732249841094017 0.04002612829208374 0.0
v -0.07164713740348816 0.028650576248764992 0.0
v -0.07059338688850403 0.017214566469192505 0.0
v -0.0700659528374672 0.005742228124290705 0.0
v -0.0700659528374672 -0.005742228124290705 0.0
v -0.07059338688850403 -0.017214566469192505 0.0
v -0.07164713740348816 -0.028650576248764992 0.0
v -0.0732249841094017 -0.04002612829208374 0.0
v -0.07532359659671783 -0.051317211240530014 0.0
v -0.07793854176998138 -0.0625 0.0
vn -1.0 2.5342046288469615e-15 0.0
vn -1.0 2.5342046288469615e-15 0.0
vn -1.0 2.5342046288469615e-15 0.0
vn -1.0 2.5342046288469615e-15 0.0
vn 2.3808732763086482e-11 1.0 -0.0
vn -0.30901700258255005 0.9510565400123596 -0.0
vn -0.5877852439880371 0.80901700258255 -0.0
vn -0.80901700258255 0.5877852439880371 -0.0
vn -0.9510565400123596 0.30901700258255005 -0.0
vn -1.0 2.7257676943738627e-15 -0.0
vn -1.0 2.7257676943738627e-15 -0.0
vn -0.9510565400123596 0.30901700258255005 -0.0
vn -0.80901700258255 0.5877852439880371 -0.0
vn -0.5877852439880371 0.80901700258255 -0.0
vn -0.30901700258255005 0.9510565400123596 -0.0
vn 2.3808732763086482e-11 1.0 -0.0
vn 2.380821234604369e-11 1.0 -0.0
vn 2.380821234604369e-11 1.0 -0.0
vn 2.380821234604369e-11 1.0 -0.0
vn 2.380821234604369e-11 1.0 -0.0
vn 0.9682458639144897 -0.25 -0.0
vn 0.978705644607544 -0.20526884496212006 -0.0
vn 0.9871000647544861 -0.16010451316833496 -0.0
vn 0.9934114217758179 -0.11460230499505997 -0.0
vn 0.9976264238357544 -0.06885826587677002 -0.0
vn 0.9997361898422241 -0.02296891249716282 -0.0
vn 0.9997361898422241 0.02296891249716282 -0.0
vn 0.9976264238357544 0.06885826587677002 -0.0
vn 0.9934114217758179 0.11460230499505997 -0.0
vn 0.9871000647544861 0.16010451316833496 -0.0
vn 0.978705644607544 0.20526884496212006 -0.0
vn 0.9682458639144897 0.25 -0.0
vn 0.9682458639144897 0.25 -0.0
vn 0.978705644607544 0.20526884496212006 -0.0
vn 0.9871000647544861 0.16010451316833496 -0.0
vn 0.9934114217758179 0.11460230499505997 -0.0
vn 0.9976264238357544 0.06885826587677002 -0.0
vn 0.9997361898422241 0.02296891249716282 -0.0
vn 0.9997361898422241 -0.02296891249716282 -0.0
vn 0.9976264238357544 -0.06885826587677002 -0.0
vn 0.9934114217758179 -0.11460230499505997 -0.0
vn 0.9871000647544861 -0.16010451316833496 -0.0
vn 0.978705644607544 -0.20526884496212006 -0.0
vn 0.9682458639144897 -0.25 -0.0
vn -2.330349802015519e-11 -1.0 0.0
vn -2.330349802015519e-11 -1.0 0.0
vn -2.330349802015519e-11 -1.0 0.0
vn -2.330349802015519e-11 -1.0 0.0
vn -1.0 2.7755575615628914e-15 -0.0
vn -0.9510565400123596 -0.30901700258255005 0.0
vn -0.80901700258255 -0.5877852439880371 0.0
vn -0.5877852439880371 -0.80901700258255 0.0
vn -0.30901700258255005 -0.9510565400123596 0.0
vn -2.3306417559765258e-11 -1.0 0.0
vn -2.3306417559765258e-11 -1.0 0.0
vn -0.30901700258255005 -0.9510565400123596 0.0
vn -0.5877852439880371 -0.80901700258255 0.0
vn -0.80901700258255 -0.5877852439880371 0.0
vn -0.9510565400123596 -0.30901700258255005 0.0
vn -1.0 2.7755575615628914e-15 -0.0
vn 0.0 0.0 1.0
vn 0.0 0.0 1.0
vn 0.0 0.0 1.0
vn 0.0 0.0 1.0
vn 0.0 0.0 1.0
vn 0.0 0.0 1.0
vn 0.0 0.0 1.0
vn 0.0 0.0 1.0
vn 0.0 0.0 1.0
vn 0.0 0.0 1.0
vn 0.0 0.0 1.0
vn 0.0 0.0 1.0
vn 0.0 0.0 1.0
vn 0.0 0.0 1.0
vn 0.0 0.0 1.0
vn 0.0 0.0 1.0
vn 0.0 0.0 1.0
vn 0.0 0.0 1.0
vn 0.0 0.0 1.0
vn 0.0 0.0 1.0
vn 0.0 0.0 1.0
vn 0.0 0.0 1.0
vn 0.0 0.0 1.0
vn 0.0 0.0 1.0
vn -0.0 -0.0 -1.0
vn -0.0 -0.0 -1.0
vn -0.0 -0.0 -1.0
vn -0.0 -0.0 -1.0
vn -0.0 -0.0 -1.0
vn -0.0 -0.0 -1.0
vn -0.0 -0.0 -1.0
vn -0.0 -0.0 -1.0
vn -0.0 -0.0 -1.0
vn -0.0 -0.0 -1.0
vn -0.0 -0.0 -1.0
vn -0.0 -0.0 -1.0
vn -0.0 -0.0 -1.0
vn -0.0 -0.0 -1.0
vn -0.0 -0.0 -1.0
vn -0.0 -0.0 -1.0
vn -0.0 -0.0 -1.0
vn -0.0 -0.0 -1.0
vn -0.0 -0.0 -1.0
vn -0.0 -0.0 -1.0
vn -0.0 -0.0 -1.0
vn -0.0 -0.0 -1.0
vn -0.0 -0.0 -1.0
vn -0.0 -0.0 -1.0
g 4c5e4590-e370-11ea-bbe3-54bf646e7e1f
f 1//1 2//2 4//4
f 4//4 2//2 3//3
g 4c60415c-e370-11ea-b29f-54bf646e7e1f
f 16//16 5//5 15//15
f 15//15 5//5 6//6
f 15//15 6//6 14//14
f 14//14 6//6 7//7
f 14//14 7//7 13//13
f 13//13 7//7 8//8
f 13//13 8//8 12//12
f 12//12 8//8 9//9
f 12//12 9//9 11//11
f 11//11 9//9 10//10
g 4c623d40-e370-11ea-902d-54bf646e7e1f
f 17//17 18//18 20//20
f 20//20 18//18 19//19
g 4c648728-e370-11ea-befd-54bf646e7e1f
f 44//44 21//21 43//43
f 43//43 21//21 22//22
f 43//43 22//22 42//42
f 42//42 22//22 23//23
f 42//42 23//23 41//41
f 41//41 23//23 24//24
f 41//41 24//24 40//40
f 40//40 24//24 25//25
f 40//40 25//25 39//39
f 39//39 25//25 26//26
f 39//39 26//26 38//38
f 38//38 26//26 27//27
f 38//38 27//27 37//37
f 37//37 27//27 28//28
f 37//37 28//28 36//36
f 36//36 28//28 29//29
f 36//36 29//29 35//35
f 35//35 29//29 30//30
f 35//35 30//30 34//34
f 34//34 30//30 31//31
f 34//34 31//31 33//33
f 33//33 31//31 32//32
g 4c66aa0a-e370-11ea-8e97-54bf646e7e1f
f 45//45 46//46 48//48
f 48//48 46//46 47//47
g 4c68a5e2-e370-11ea-9e65-54bf646e7e1f
f 60//60 49//49 59//59
f 59//59 49//49 50//50
f 59//59 50//50 58//58
f 58//58 50//50 51//51
f 58//58 51//51 57//57
f 57//57 51//51 52//52
f 57//57 52//52 56//56
f 56//56 52//52 53//53
f 56//56 53//53 55//55
f 55//55 53//53 54//54
g 4c6aa1a2-e370-11ea-bad5-54bf646e7e1f
f 62//62 63//63 61//61
f 61//61 63//63 64//64
f 61//61 64//64 65//65
f 65//65 66//66 61//61
f 61//61 66//66 68//68
f 61//61 68//68 69//69
f 66//66 67//67 68//68
f 69//69 70//70 61//61
f 61//61 70//70 71//71
f 61//61 71//71 72//72
f 61//61 72//72 84//84
f 84//84 72//72 73//73
f 84//84 73//73 74//74
f 74//74 75//75 84//84
f 84//84 75//75 76//76
f 84//84 76//76 77//77
f 78//78 79//79 77//77
f 77//77 79//79 84//84
f 79//79 80//80 84//84
f 84//84 80//80 81//81
f 84//84 81//81 82//82
f 82//82 83//83 84//84
g 4c752906-e370-11ea-8627-54bf646e7e1f
f 86//86 90//90 85//85
f 85//85 90//90 107//107
f 85//85 107//107 108//108
f 86//86 87//87 90//90
f 90//90 87//87 88//88
f 90//90 88//88 89//89
f 91//91 103//103 90//90
f 90//90 103//103 104//104
f 90//90 104//104 105//105
f 92//92 93//93 91//91
f 91//91 93//93 94//94
f 91//91 94//94 95//95
f 95//95 96//96 91//91
f 91//91 96//96 98//98
f 91//91 98//98 99//99
f 96//96 97//97 98//98
f 99//99 100//100 91//91
f 91//91 100//100 101//101
f 91//91 101//101 102//102
f 102//102 103//103 91//91
f 105//105 106//106 90//90
f 90//90 106//106 107//107

# End of file