# WaveFront *.obj file
# Vertices: 24
# Triangles : 12

v 8.0 0.0 -9.0
v 8.0 0.0 9.0
v 8.0 -1.0 9.0
v 8.0 -1.0 -9.0
v -8.0 0.0 -9.0
v 8.0 0.0 -9.0
v 8.0 -1.0 -9.0
v -8.0 -1.0 -9.0
v -8.0 0.0 9.0
v -8.0 0.0 -9.0
v -8.0 -1.0 -9.0
v -8.0 -1.0 9.0
v 8.0 0.0 9.0
v -8.0 0.0 9.0
v -8.0 -1.0 9.0
v 8.0 -1.0 9.0
v -8.0 0.0 9.0
v 8.0 0.0 9.0
v 8.0 0.0 -9.0
v -8.0 0.0 -9.0
v 8.0 -1.0 9.0
v -8.0 -1.0 9.0
v -8.0 -1.0 -9.0
v 8.0 -1.0 -9.0
vn 1.0 0.0 -0.0
vn 1.0 0.0 -0.0
vn 1.0 0.0 -0.0
vn 1.0 0.0 -0.0
vn 0.0 0.0 -1.0
vn 0.0 0.0 -1.0
vn 0.0 0.0 -1.0
vn 0.0 0.0 -1.0
vn -1.0 -0.0 -0.0
vn -1.0 -0.0 -0.0
vn -1.0 -0.0 -0.0
vn -1.0 -0.0 -0.0
vn 0.0 0.0 1.0
vn 0.0 0.0 1.0
vn 0.0 0.0 1.0
vn 0.0 0.0 1.0
vn 0.0 1.0 0.0
vn 0.0 1.0 0.0
vn 0.0 1.0 0.0
vn 0.0 1.0 0.0
vn 0.0 -1.0 0.0
vn 0.0 -1.0 0.0
vn 0.0 -1.0 0.0
vn 0.0 -1.0 0.0
g 618c225a-e34a-11ea-bcd2-54bf646e7e1f
f 1//1 2//2 4//4
f 4//4 2//2 3//3
g 61980928-e34a-11ea-b27a-54bf646e7e1f
f 5//5 6//6 8//8
f 8//8 6//6 7//7
g 61a130ec-e34a-11ea-ab62-54bf646e7e1f
f 9//9 10//10 12//12
f 12//12 10//10 11//11
g 61aace08-e34a-11ea-8bcc-54bf646e7e1f
f 13//13 14//14 16//16
f 16//16 14//14 15//15
g 61b5f1b6-e34a-11ea-bb22-54bf646e7e1f
f 17//17 18//18 20//20
f 20//20 18//18 19//19
g 61bf40b4-e34a-11ea-8d5d-54bf646e7e1f
f 22//22 23//23 21//21
f 21//21 23//23 24//24

# End of file