# WaveFront *.obj file
# Vertices: 144
# Triangles : 124

v 9.0 3.8404123783111572 7.396120071411133
v 9.123373985290527 3.7138166427612305 7.396120071411133
v 9.229473114013672 3.572427988052368 7.396120071411133
v 9.316539764404297 3.4185869693756104 7.396120071411133
v 9.383132934570312 3.254840135574341 7.396120071411133
v 9.42815113067627 3.0838983058929443 7.396120071411133
v 9.450847625732422 2.9085912704467773 7.396120071411133
v 9.450847625732422 2.731821060180664 7.396120071411133
v 9.42815113067627 2.556514024734497 7.396120071411133
v 9.383132934570312 2.3855721950531006 7.396120071411133
v 9.316539764404297 2.221825361251831 7.396120071411133
v 9.229473114013672 2.0679843425750732 7.396120071411133
v 9.123374938964844 1.926595687866211 7.396120071411133
v 9.0 1.8000000715255737 7.396120071411133
v 9.0 1.8000000715255737 9.100000381469727
v 9.123374938964844 1.926595687866211 9.100000381469727
v 9.229473114013672 2.0679843425750732 9.100000381469727
v 9.316539764404297 2.221825361251831 9.100000381469727
v 9.383132934570312 2.3855721950531006 9.100000381469727
v 9.42815113067627 2.556514024734497 9.100000381469727
v 9.450847625732422 2.731821060180664 9.100000381469727
v 9.450847625732422 2.9085912704467773 9.100000381469727
v 9.42815113067627 3.0838983058929443 9.100000381469727
v 9.383132934570312 3.254840135574341 9.100000381469727
v 9.316539764404297 3.4185869693756104 9.100000381469727
v 9.229473114013672 3.572427988052368 9.100000381469727
v 9.123373985290527 3.7138166427612305 9.100000381469727
v 9.0 3.8404123783111572 9.100000381469727
v 9.0 3.8404123783111572 9.100000381469727
v 9.123373985290527 3.7138166427612305 9.100000381469727
v 9.229473114013672 3.572427988052368 9.100000381469727
v 9.316539764404297 3.4185869693756104 9.100000381469727
v 9.383132934570312 3.254840135574341 9.100000381469727
v 9.42815113067627 3.0838983058929443 9.100000381469727
v 9.450847625732422 2.9085912704467773 9.100000381469727
v 9.450847625732422 2.731821060180664 9.100000381469727
v 9.42815113067627 2.556514024734497 9.100000381469727
v 9.383132934570312 2.3855721950531006 9.100000381469727
v 9.316539764404297 2.221825361251831 9.100000381469727
v 9.229473114013672 2.0679843425750732 9.100000381469727
v 9.123374938964844 1.926595687866211 9.100000381469727
v 9.0 1.8000000715255737 9.100000381469727
v 9.0 0.0 9.100000381469727
v 12.56324577331543 0.0 9.100000381469727
v 12.56324577331543 1.7884072065353394 9.100000381469727
v 12.431985855102539 1.911274790763855 9.100000381469727
v 12.318652153015137 2.050849676132202 9.100000381469727
v 12.225351333618164 2.2045390605926514 9.100000381469727
v 12.153815269470215 2.369488000869751 9.100000381469727
v 12.10537338256836 2.5426323413848877 9.100000381469727
v 12.080924987792969 2.7207553386688232 9.100000381469727
v 12.080924987792969 2.9005484580993652 9.100000381469727
v 12.10537338256836 3.07867169380188 9.100000381469727
v 12.153815269470215 3.2518160343170166 9.100000381469727
v 12.225351333618164 3.416764974594116 9.100000381469727
v 12.318652153015137 3.5704543590545654 9.100000381469727
v 12.431985855102539 3.710029125213623 9.100000381469727
v 12.56324577331543 3.8328967094421387 9.100000381469727
v 12.56324577331543 5.5 9.100000381469727
v 9.0 5.5 9.100000381469727
v 9.0 1.8000000715255737 9.100000381469727
v 9.0 1.8000000715255737 7.396120071411133
v 9.0 0.0 7.396120071411133
v 9.0 0.0 9.100000381469727
v 9.0 1.8000000715255737 7.396120071411133
v 9.123374938964844 1.926595687866211 7.396120071411133
v 9.229473114013672 2.0679843425750732 7.396120071411133
v 9.316539764404297 2.221825361251831 7.396120071411133
v 9.383132934570312 2.3855721950531006 7.396120071411133
v 9.42815113067627 2.556514024734497 7.396120071411133
v 9.450847625732422 2.731821060180664 7.396120071411133
v 9.450847625732422 2.9085912704467773 7.396120071411133
v 9.42815113067627 3.0838983058929443 7.396120071411133
v 9.383132934570312 3.254840135574341 7.396120071411133
v 9.316539764404297 3.4185869693756104 7.396120071411133
v 9.229473114013672 3.572427988052368 7.396120071411133
v 9.123373985290527 3.7138166427612305 7.396120071411133
v 9.0 3.8404123783111572 7.396120071411133
v 9.0 5.5 7.396120071411133
v 12.56324577331543 5.5 7.396120071411133
v 12.56324577331543 0.0 7.396120071411133
v 9.0 0.0 7.396120071411133
v 12.56324577331543 3.8328967094421387 9.100000381469727
v 12.431985855102539 3.710029125213623 9.100000381469727
v 12.318652153015137 3.5704543590545654 9.100000381469727
v 12.225351333618164 3.416764974594116 9.100000381469727
v 12.153815269470215 3.2518160343170166 9.100000381469727
v 12.10537338256836 3.07867169380188 9.100000381469727
v 12.080924987792969 2.9005484580993652 9.100000381469727
v 12.080924987792969 2.7207553386688232 9.100000381469727
v 12.10537338256836 2.5426323413848877 9.100000381469727
v 12.153815269470215 2.369488000869751 9.100000381469727
v 12.225351333618164 2.2045390605926514 9.100000381469727
v 12.318652153015137 2.050849676132202 9.100000381469727
v 12.431985855102539 1.911274790763855 9.100000381469727
v 12.56324577331543 1.7884072065353394 9.100000381469727
v 12.56324577331543 1.7884072065353394 7.5
v 12.431985855102539 1.911274790763855 7.5
v 12.318652153015137 2.050849676132202 7.5
v 12.225351333618164 2.2045390605926514 7.5
v 12.153815269470215 2.369488000869751 7.5
v 12.10537338256836 2.5426323413848877 7.5
v 12.080924987792969 2.7207553386688232 7.5
v 12.080924987792969 2.9005484580993652 7.5
v 12.10537338256836 3.07867169380188 7.5
v 12.153815269470215 3.2518160343170166 7.5
v 12.225351333618164 3.416764974594116 7.5
v 12.318652153015137 3.5704543590545654 7.5
v 12.431985855102539 3.710029125213623 7.5
v 12.56324577331543 3.8328967094421387 7.5
v 12.56324577331543 3.8328967094421387 7.5
v 12.431985855102539 3.710029125213623 7.5
v 12.318652153015137 3.5704543590545654 7.5
v 12.225351333618164 3.416764974594116 7.5
v 12.153815269470215 3.2518160343170166 7.5
v 12.10537338256836 3.07867169380188 7.5
v 12.080924987792969 2.9005484580993652 7.5
v 12.080924987792969 2.7207553386688232 7.5
v 12.10537338256836 2.5426323413848877 7.5
v 12.153815269470215 2.369488000869751 7.5
v 12.225351333618164 2.2045390605926514 7.5
v 12.318652153015137 2.050849676132202 7.5
v 12.431985855102539 1.911274790763855 7.5
v 12.56324577331543 1.7884072065353394 7.5
v 12.56324577331543 1.7884072065353394 7.5
v 12.56324577331543 1.7884072065353394 9.100000381469727
v 12.56324577331543 0.0 9.100000381469727
v 12.56324577331543 0.0 7.396120071411133
v 12.56324577331543 5.5 7.396120071411133
v 12.56324577331543 5.5 9.100000381469727
v 12.56324577331543 3.8328967094421387 9.100000381469727
v 12.56324577331543 3.8328967094421387 7.5
v 9.0 3.8404123783111572 7.396120071411133
v 9.0 3.8404123783111572 9.100000381469727
v 9.0 5.5 9.100000381469727
v 9.0 5.5 7.396120071411133
v 9.0 5.5 7.396120071411133
v 9.0 5.5 9.100000381469727
v 12.56324577331543 5.5 9.100000381469727
v 12.56324577331543 5.5 7.396120071411133
v 9.0 0.0 9.100000381469727
v 9.0 0.0 7.396120071411133
v 12.56324577331543 0.0 7.396120071411133
v 12.56324577331543 0.0 9.100000381469727
vn -0.6697767972946167 -0.742562472820282 -0.0
vn -0.7595754861831665 -0.6504191756248474 -0.0
vn -0.8367999792098999 -0.547508716583252 -0.0
vn -0.9001719951629639 -0.43553465604782104 -0.0
vn -0.9486423134803772 -0.31635066866874695 -0.0
vn -0.9814086556434631 -0.19192977249622345 -0.0
vn -0.9979285597801208 -0.06433162093162537 -0.0
vn -0.9979285597801208 0.06433148682117462 0.0
vn -0.9814087152481079 0.1919296383857727 0.0
vn -0.948642373085022 0.3163505494594574 0.0
vn -0.9001719951629639 0.4355345368385315 0.0
vn -0.8368000388145447 0.5475085973739624 0.0
vn -0.7595755457878113 0.6504190564155579 0.0
vn -0.6697768568992615 0.7425624132156372 0.0
vn -0.6697768568992615 0.7425624132156372 0.0
vn -0.7595755457878113 0.6504190564155579 0.0
vn -0.8368000388145447 0.5475085973739624 0.0
vn -0.9001719951629639 0.4355345368385315 0.0
vn -0.948642373085022 0.3163505494594574 0.0
vn -0.9814087152481079 0.1919296383857727 0.0
vn -0.9979285597801208 0.06433148682117462 0.0
vn -0.9979285597801208 -0.06433162093162537 -0.0
vn -0.9814086556434631 -0.19192977249622345 -0.0
vn -0.9486423134803772 -0.31635066866874695 -0.0
vn -0.9001719951629639 -0.43553465604782104 -0.0
vn -0.8367999792098999 -0.547508716583252 -0.0
vn -0.7595754861831665 -0.6504191756248474 -0.0
vn -0.6697767972946167 -0.742562472820282 -0.0
vn 0.0 0.0 1.0
vn 0.0 0.0 1.0
vn 0.0 0.0 1.0
vn 0.0 0.0 1.0
vn 0.0 0.0 1.0
vn 0.0 0.0 1.0
vn 0.0 0.0 1.0
vn 0.0 0.0 1.0
vn 0.0 0.0 1.0
vn 0.0 0.0 1.0
vn 0.0 0.0 1.0
vn 0.0 0.0 1.0
vn 0.0 0.0 1.0
vn 0.0 0.0 1.0
vn 0.0 0.0 1.0
vn 0.0 0.0 1.0
vn 0.0 0.0 1.0
vn 0.0 0.0 1.0
vn 0.0 0.0 1.0
vn 0.0 0.0 1.0
vn 0.0 0.0 1.0
vn 0.0 0.0 1.0
vn 0.0 0.0 1.0
vn 0.0 0.0 1.0
vn 0.0 0.0 1.0
vn 0.0 0.0 1.0
vn 0.0 0.0 1.0
vn 0.0 0.0 1.0
vn 0.0 0.0 1.0
vn 0.0 0.0 1.0
vn 0.0 0.0 1.0
vn 0.0 0.0 1.0
vn -1.0 0.0 0.0
vn -1.0 0.0 0.0
vn -1.0 0.0 0.0
vn -1.0 0.0 0.0
vn 0.0 0.0 -1.0
vn 0.0 0.0 -1.0
vn 0.0 0.0 -1.0
vn 0.0 0.0 -1.0
vn 0.0 0.0 -1.0
vn 0.0 0.0 -1.0
vn 0.0 0.0 -1.0
vn 0.0 0.0 -1.0
vn 0.0 0.0 -1.0
vn 0.0 0.0 -1.0
vn 0.0 0.0 -1.0
vn 0.0 0.0 -1.0
vn 0.0 0.0 -1.0
vn 0.0 0.0 -1.0
vn 0.0 0.0 -1.0
vn 0.0 0.0 -1.0
vn 0.0 0.0 -1.0
vn 0.0 0.0 -1.0
vn 0.6320419311523438 -0.7749341726303101 0.0
vn 0.7315462231636047 -0.6817919015884399 0.0
vn 0.817460834980011 -0.5759841799736023 0.0
vn 0.8881898522377014 -0.45947667956352234 0.0
vn 0.9424192905426025 -0.3344336450099945 0.0
vn 0.9791418313980103 -0.20317800343036652 0.0
vn 0.9976752400398254 -0.06814798712730408 0.0
vn 0.9976752400398254 0.06814798712730408 0.0
vn 0.9791418313980103 0.20317800343036652 0.0
vn 0.9424192905426025 0.3344336450099945 0.0
vn 0.8881898522377014 0.45947667956352234 0.0
vn 0.817460834980011 0.5759841799736023 0.0
vn 0.7315462231636047 0.6817919015884399 0.0
vn 0.6320419311523438 0.7749341726303101 0.0
vn 0.6320419311523438 0.7749341726303101 0.0
vn 0.7315462231636047 0.6817919015884399 0.0
vn 0.817460834980011 0.5759841799736023 0.0
vn 0.8881898522377014 0.45947667956352234 0.0
vn 0.9424192905426025 0.3344336450099945 0.0
vn 0.9791418313980103 0.20317800343036652 0.0
vn 0.9976752400398254 0.06814798712730408 0.0
vn 0.9976752400398254 -0.06814798712730408 0.0
vn 0.9791418313980103 -0.20317800343036652 0.0
vn 0.9424192905426025 -0.3344336450099945 0.0
vn 0.8881898522377014 -0.45947667956352234 0.0
vn 0.817460834980011 -0.5759841799736023 0.0
vn 0.7315462231636047 -0.6817919015884399 0.0
vn 0.6320419311523438 -0.7749341726303101 0.0
vn 0.0 0.0 1.0
vn 0.0 0.0 1.0
vn 0.0 0.0 1.0
vn 0.0 0.0 1.0
vn 0.0 0.0 1.0
vn 0.0 0.0 1.0
vn 0.0 0.0 1.0
vn 0.0 0.0 1.0
vn 0.0 0.0 1.0
vn 0.0 0.0 1.0
vn 0.0 0.0 1.0
vn 0.0 0.0 1.0
vn 0.0 0.0 1.0
vn 0.0 0.0 1.0
vn 1.0 -0.0 0.0
vn 1.0 -0.0 0.0
vn 1.0 -0.0 0.0
vn 1.0 -0.0 0.0
vn 1.0 -0.0 0.0
vn 1.0 -0.0 0.0
vn 1.0 -0.0 0.0
vn 1.0 -0.0 0.0
vn -1.0 0.0 0.0
vn -1.0 0.0 0.0
vn -1.0 0.0 0.0
vn -1.0 0.0 0.0
vn 0.0 1.0 0.0
vn 0.0 1.0 0.0
vn 0.0 1.0 0.0
vn 0.0 1.0 0.0
vn -0.0 -1.0 -0.0
vn -0.0 -1.0 -0.0
vn -0.0 -1.0 -0.0
vn -0.0 -1.0 -0.0
g 01f8dbca-e34c-11ea-a4e1-54bf646e7e1f
f 28//28 1//1 27//27
f 27//27 1//1 2//2
f 27//27 2//2 3//3
f 27//27 3//3 26//26
f 26//26 3//3 4//4
f 26//26 4//4 25//25
f 25//25 4//4 5//5
f 25//25 5//5 24//24
f 24//24 5//5 6//6
f 24//24 6//6 23//23
f 23//23 6//6 7//7
f 23//23 7//7 22//22
f 22//22 7//7 8//8
f 22//22 8//8 21//21
f 21//21 8//8 9//9
f 21//21 9//9 20//20
f 20//20 9//9 10//10
f 20//20 10//10 19//19
f 19//19 10//10 11//11
f 19//19 11//11 18//18
f 18//18 11//11 12//12
f 18//18 12//12 17//17
f 17//17 12//12 13//13
f 17//17 13//13 16//16
f 16//16 13//13 15//15
f 15//15 13//13 14//14
g 019f49e6-e34c-11ea-9688-54bf646e7e1f
f 29//29 30//30 60//60
f 60//60 30//30 31//31
f 60//60 31//31 32//32
f 33//33 54//54 32//32
f 32//32 54//54 55//55
f 32//32 55//55 60//60
f 60//60 55//55 59//59
f 59//59 55//55 56//56
f 59//59 56//56 57//57
f 54//54 33//33 53//53
f 53//53 33//33 34//34
f 53//53 34//34 52//52
f 52//52 34//34 35//35
f 52//52 35//35 36//36
f 52//52 36//36 51//51
f 51//51 36//36 37//37
f 51//51 37//37 50//50
f 50//50 37//37 38//38
f 50//50 38//38 49//49
f 49//49 38//38 39//39
f 49//49 39//39 48//48
f 48//48 39//39 43//43
f 48//48 43//43 44//44
f 39//39 40//40 43//43
f 43//43 40//40 41//41
f 43//43 41//41 42//42
f 45//45 46//46 44//44
f 44//44 46//46 47//47
f 44//44 47//47 48//48
f 57//57 58//58 59//59
g 019f70f6-e34c-11ea-a400-54bf646e7e1f
f 61//61 62//62 64//64
f 64//64 62//62 63//63
g 019ed4b4-e34c-11ea-a3e4-54bf646e7e1f
f 65//65 66//66 82//82
f 82//82 66//66 67//67
f 82//82 67//67 68//68
f 82//82 68//68 81//81
f 81//81 68//68 69//69
f 81//81 69//69 70//70
f 70//70 71//71 81//81
f 81//81 71//71 80//80
f 80//80 71//71 72//72
f 80//80 72//72 73//73
f 73//73 74//74 80//80
f 80//80 74//74 75//75
f 80//80 75//75 79//79
f 79//79 75//75 76//76
f 79//79 76//76 77//77
f 77//77 78//78 79//79
g 01ce4942-e34c-11ea-9def-54bf646e7e1f
f 110//110 83//83 109//109
f 109//109 83//83 84//84
f 109//109 84//84 108//108
f 108//108 84//84 85//85
f 108//108 85//85 107//107
f 107//107 85//85 86//86
f 107//107 86//86 106//106
f 106//106 86//86 87//87
f 106//106 87//87 105//105
f 105//105 87//87 88//88
f 105//105 88//88 104//104
f 104//104 88//88 89//89
f 104//104 89//89 103//103
f 103//103 89//89 90//90
f 103//103 90//90 102//102
f 102//102 90//90 91//91
f 102//102 91//91 101//101
f 101//101 91//91 92//92
f 101//101 92//92 100//100
f 100//100 92//92 93//93
f 100//100 93//93 99//99
f 99//99 93//93 94//94
f 99//99 94//94 98//98
f 98//98 94//94 95//95
f 98//98 95//95 97//97
f 97//97 95//95 96//96
g 01cee582-e34c-11ea-b8c9-54bf646e7e1f
f 124//124 111//111 123//123
f 123//123 111//111 112//112
f 123//123 112//112 122//122
f 122//122 112//112 113//113
f 122//122 113//113 121//121
f 121//121 113//113 114//114
f 121//121 114//114 120//120
f 120//120 114//114 115//115
f 120//120 115//115 119//119
f 119//119 115//115 116//116
f 119//119 116//116 118//118
f 118//118 116//116 117//117
g 019efbac-e34c-11ea-a341-54bf646e7e1f
f 126//126 127//127 125//125
f 125//125 127//127 128//128
f 125//125 128//128 129//129
f 125//125 129//129 132//132
f 132//132 129//129 130//130
f 132//132 130//130 131//131
g ce218aba-cac9-3b38-9bcc-bdccf664a3e4
f 133//133 134//134 136//136
f 136//136 134//134 135//135
g 019fbef8-e34c-11ea-9dc9-54bf646e7e1f
f 137//137 138//138 140//140
f 140//140 138//138 139//139
g 01a00d28-e34c-11ea-867f-54bf646e7e1f
f 142//142 143//143 141//141
f 141//141 143//143 144//144

# End of file