# WaveFront *.obj file
# Vertices: 106
# Triangles : 100

v -0.5369853973388672 8.5 -0.23179708421230316
v -0.5213816165924072 8.5 -0.36030611395835876
v -0.4754769802093506 8.5 -0.48134663701057434
v -0.40193936228752136 8.5 -0.5878843069076538
v -0.30504247546195984 8.5 -0.6737273931503296
v -0.19041764736175537 8.5 -0.7338871955871582
v -0.06472644209861755 8.5 -0.7648672461509705
v 0.06472644209861755 8.5 -0.7648672461509705
v 0.19041764736175537 8.5 -0.7338871955871582
v 0.30504247546195984 8.5 -0.6737273931503296
v 0.40193936228752136 8.5 -0.5878843069076538
v 0.4754769802093506 8.5 -0.48134663701057434
v 0.5213816165924072 8.5 -0.36030611395835876
v 0.5369853973388672 8.5 -0.23179708421230316
v 0.5213816165924072 8.5 -0.10328806191682816
v 0.4754769802093506 8.5 0.01775248534977436
v 0.40193936228752136 8.5 0.1242901161313057
v 0.30504247546195984 8.5 0.21013325452804565
v 0.19041764736175537 8.5 0.2702929973602295
v 0.06472644209861755 8.5 0.3012731075286865
v -0.06472644209861755 8.5 0.3012731075286865
v -0.19041764736175537 8.5 0.2702929973602295
v -0.30504247546195984 8.5 0.21013325452804565
v -0.40193936228752136 8.5 0.1242901161313057
v -0.4754769802093506 8.5 0.01775248534977436
v -0.5213816165924072 8.5 -0.10328806191682816
v -0.5369853973388672 0.0 -0.23179708421230316
v -0.5213816165924072 0.0 -0.10328806191682816
v -0.4754769802093506 0.0 0.01775248534977436
v -0.40193936228752136 0.0 0.1242901161313057
v -0.30504247546195984 0.0 0.21013325452804565
v -0.19041764736175537 0.0 0.2702929973602295
v -0.06472644209861755 0.0 0.3012731075286865
v 0.06472644209861755 0.0 0.3012731075286865
v 0.19041764736175537 0.0 0.2702929973602295
v 0.30504247546195984 0.0 0.21013325452804565
v 0.40193936228752136 0.0 0.1242901161313057
v 0.4754769802093506 0.0 0.01775248534977436
v 0.5213816165924072 0.0 -0.10328806191682816
v 0.5369853973388672 0.0 -0.23179708421230316
v 0.5213816165924072 0.0 -0.36030611395835876
v 0.4754769802093506 0.0 -0.48134663701057434
v 0.40193936228752136 0.0 -0.5878843069076538
v 0.30504247546195984 0.0 -0.6737273931503296
v 0.19041764736175537 0.0 -0.7338871955871582
v 0.06472644209861755 0.0 -0.7648672461509705
v -0.06472644209861755 0.0 -0.7648672461509705
v -0.19041764736175537 0.0 -0.7338871955871582
v -0.30504247546195984 0.0 -0.6737273931503296
v -0.40193936228752136 0.0 -0.5878843069076538
v -0.4754769802093506 0.0 -0.48134663701057434
v -0.5213816165924072 0.0 -0.36030611395835876
v -0.5369853973388672 0.0 -0.23179708421230316
v -0.5369853973388672 8.5 -0.23179708421230316
v -0.5369853973388672 8.5 -0.23179708421230316
v -0.5213816165924072 8.5 -0.10328806191682816
v -0.4754769802093506 8.5 0.01775248534977436
v -0.40193936228752136 8.5 0.1242901161313057
v -0.30504247546195984 8.5 0.21013325452804565
v -0.19041764736175537 8.5 0.2702929973602295
v -0.06472644209861755 8.5 0.3012731075286865
v 0.06472644209861755 8.5 0.3012731075286865
v 0.19041764736175537 8.5 0.2702929973602295
v 0.30504247546195984 8.5 0.21013325452804565
v 0.40193936228752136 8.5 0.1242901161313057
v 0.4754769802093506 8.5 0.01775248534977436
v 0.5213816165924072 8.5 -0.10328806191682816
v 0.5369853973388672 8.5 -0.23179708421230316
v 0.5213816165924072 8.5 -0.36030611395835876
v 0.4754769802093506 8.5 -0.48134663701057434
v 0.40193936228752136 8.5 -0.5878843069076538
v 0.30504247546195984 8.5 -0.6737273931503296
v 0.19041764736175537 8.5 -0.7338871955871582
v 0.06472644209861755 8.5 -0.7648672461509705
v -0.06472644209861755 8.5 -0.7648672461509705
v -0.19041764736175537 8.5 -0.7338871955871582
v -0.30504247546195984 8.5 -0.6737273931503296
v -0.40193936228752136 8.5 -0.5878843069076538
v -0.4754769802093506 8.5 -0.48134663701057434
v -0.5213816165924072 8.5 -0.36030611395835876
v -0.5369853973388672 0.0 -0.23179708421230316
v -0.5213816165924072 0.0 -0.36030611395835876
v -0.4754769802093506 0.0 -0.48134663701057434
v -0.40193936228752136 0.0 -0.5878843069076538
v -0.30504247546195984 0.0 -0.6737273931503296
v -0.19041764736175537 0.0 -0.7338871955871582
v -0.06472644209861755 0.0 -0.7648672461509705
v 0.06472644209861755 0.0 -0.7648672461509705
v 0.19041764736175537 0.0 -0.7338871955871582
v 0.30504247546195984 0.0 -0.6737273931503296
v 0.40193936228752136 0.0 -0.5878843069076538
v 0.4754769802093506 0.0 -0.48134663701057434
v 0.5213816165924072 0.0 -0.36030611395835876
v 0.5369853973388672 0.0 -0.23179708421230316
v 0.5213816165924072 0.0 -0.10328806191682816
v 0.4754769802093506 0.0 0.01775248534977436
v 0.40193936228752136 0.0 0.1242901161313057
v 0.30504247546195984 0.0 0.21013325452804565
v 0.19041764736175537 0.0 0.2702929973602295
v 0.06472644209861755 0.0 0.3012731075286865
v -0.06472644209861755 0.0 0.3012731075286865
v -0.19041764736175537 0.0 0.2702929973602295
v -0.30504247546195984 0.0 0.21013325452804565
v -0.40193936228752136 0.0 0.1242901161313057
v -0.4754769802093506 0.0 0.01775248534977436
v -0.5213816165924072 0.0 -0.10328806191682816
vn -1.0 0.0 -1.2246468525851679e-16
vn -0.9709418416023254 0.0 -0.23931565880775452
vn -0.8854560256004333 0.0 -0.4647231698036194
vn -0.7485107779502869 0.0 -0.6631226539611816
vn -0.5680647492408752 0.0 -0.8229838609695435
vn -0.35460489988327026 0.0 -0.9350162148475647
vn -0.1205366775393486 0.0 -0.9927088618278503
vn 0.1205366775393486 -0.0 -0.9927088618278503
vn 0.35460489988327026 -0.0 -0.9350162148475647
vn 0.5680647492408752 -0.0 -0.8229838609695435
vn 0.7485107779502869 -0.0 -0.6631226539611816
vn 0.8854560256004333 -0.0 -0.4647231698036194
vn 0.9709418416023254 -0.0 -0.23931565880775452
vn 1.0 -0.0 -0.0
vn 0.9709418416023254 -0.0 0.23931565880775452
vn 0.8854560256004333 -0.0 0.4647231698036194
vn 0.7485107779502869 -0.0 0.6631226539611816
vn 0.5680647492408752 -0.0 0.8229838609695435
vn 0.35460489988327026 -0.0 0.9350162148475647
vn 0.1205366775393486 -0.0 0.9927088618278503
vn -0.1205366775393486 -0.0 0.9927088618278503
vn -0.35460489988327026 -0.0 0.9350162148475647
vn -0.5680647492408752 -0.0 0.8229838609695435
vn -0.7485107779502869 -0.0 0.6631226539611816
vn -0.8854560256004333 -0.0 0.4647231698036194
vn -0.9709418416023254 -0.0 0.23931565880775452
vn -1.0 -0.0 1.2246468525851679e-16
vn -0.9709418416023254 -0.0 0.23931565880775452
vn -0.8854560256004333 -0.0 0.4647231698036194
vn -0.7485107779502869 -0.0 0.6631226539611816
vn -0.5680647492408752 -0.0 0.8229838609695435
vn -0.35460489988327026 -0.0 0.9350162148475647
vn -0.1205366775393486 -0.0 0.9927088618278503
vn 0.1205366775393486 -0.0 0.9927088618278503
vn 0.35460489988327026 -0.0 0.9350162148475647
vn 0.5680647492408752 -0.0 0.8229838609695435
vn 0.7485107779502869 -0.0 0.6631226539611816
vn 0.8854560256004333 -0.0 0.4647231698036194
vn 0.9709418416023254 -0.0 0.23931565880775452
vn 1.0 -0.0 -0.0
vn 0.9709418416023254 -0.0 -0.23931565880775452
vn 0.8854560256004333 -0.0 -0.4647231698036194
vn 0.7485107779502869 -0.0 -0.6631226539611816
vn 0.5680647492408752 -0.0 -0.8229838609695435
vn 0.35460489988327026 -0.0 -0.9350162148475647
vn 0.1205366775393486 -0.0 -0.9927088618278503
vn -0.1205366775393486 0.0 -0.9927088618278503
vn -0.35460489988327026 0.0 -0.9350162148475647
vn -0.5680647492408752 0.0 -0.8229838609695435
vn -0.7485107779502869 0.0 -0.6631226539611816
vn -0.8854560256004333 0.0 -0.4647231698036194
vn -0.9709418416023254 0.0 -0.23931565880775452
vn -1.0 0.0 -1.2246468525851679e-16
vn -1.0 -0.0 1.2246468525851679e-16
vn 0.0 1.0 0.0
vn 0.0 1.0 0.0
vn 0.0 1.0 0.0
vn 0.0 1.0 0.0
vn 0.0 1.0 0.0
vn 0.0 1.0 0.0
vn 0.0 1.0 0.0
vn 0.0 1.0 0.0
vn 0.0 1.0 0.0
vn 0.0 1.0 0.0
vn 0.0 1.0 0.0
vn 0.0 1.0 0.0
vn 0.0 1.0 0.0
vn 0.0 1.0 0.0
vn 0.0 1.0 0.0
vn 0.0 1.0 0.0
vn 0.0 1.0 0.0
vn 0.0 1.0 0.0
vn 0.0 1.0 0.0
vn 0.0 1.0 0.0
vn 0.0 1.0 0.0
vn 0.0 1.0 0.0
vn 0.0 1.0 0.0
vn 0.0 1.0 0.0
vn 0.0 1.0 0.0
vn 0.0 1.0 0.0
vn -0.0 -1.0 -0.0
vn -0.0 -1.0 -0.0
vn -0.0 -1.0 -0.0
vn -0.0 -1.0 -0.0
vn -0.0 -1.0 -0.0
vn -0.0 -1.0 -0.0
vn -0.0 -1.0 -0.0
vn -0.0 -1.0 -0.0
vn -0.0 -1.0 -0.0
vn -0.0 -1.0 -0.0
vn -0.0 -1.0 -0.0
vn -0.0 -1.0 -0.0
vn -0.0 -1.0 -0.0
vn -0.0 -1.0 -0.0
vn -0.0 -1.0 -0.0
vn -0.0 -1.0 -0.0
vn -0.0 -1.0 -0.0
vn -0.0 -1.0 -0.0
vn -0.0 -1.0 -0.0
vn -0.0 -1.0 -0.0
vn -0.0 -1.0 -0.0
vn -0.0 -1.0 -0.0
vn -0.0 -1.0 -0.0
vn -0.0 -1.0 -0.0
vn -0.0 -1.0 -0.0
vn -0.0 -1.0 -0.0
g 16bd735a-e34c-11ea-917e-54bf646e7e1f
f 2//2 52//52 1//1
f 1//1 52//52 53//53
f 54//54 27//27 26//26
f 26//26 27//27 28//28
f 26//26 28//28 29//29
f 2//2 3//3 52//52
f 52//52 3//3 51//51
f 51//51 3//3 4//4
f 51//51 4//4 50//50
f 50//50 4//4 5//5
f 50//50 5//5 49//49
f 49//49 5//5 6//6
f 49//49 6//6 48//48
f 48//48 6//6 7//7
f 48//48 7//7 47//47
f 47//47 7//7 8//8
f 47//47 8//8 46//46
f 46//46 8//8 9//9
f 46//46 9//9 45//45
f 45//45 9//9 10//10
f 45//45 10//10 44//44
f 44//44 10//10 11//11
f 44//44 11//11 43//43
f 43//43 11//11 12//12
f 43//43 12//12 42//42
f 42//42 12//12 13//13
f 42//42 13//13 41//41
f 41//41 13//13 14//14
f 41//41 14//14 40//40
f 40//40 14//14 15//15
f 40//40 15//15 39//39
f 39//39 15//15 16//16
f 39//39 16//16 38//38
f 38//38 16//16 17//17
f 38//38 17//17 37//37
f 37//37 17//17 18//18
f 37//37 18//18 36//36
f 36//36 18//18 19//19
f 36//36 19//19 35//35
f 35//35 19//19 20//20
f 35//35 20//20 34//34
f 34//34 20//20 21//21
f 34//34 21//21 33//33
f 33//33 21//21 22//22
f 33//33 22//22 32//32
f 32//32 22//22 23//23
f 32//32 23//23 31//31
f 31//31 23//23 24//24
f 31//31 24//24 30//30
f 30//30 24//24 25//25
f 30//30 25//25 29//29
f 29//29 25//25 26//26
g 16bd735b-e34c-11ea-bf7c-54bf646e7e1f
f 56//56 67//67 55//55
f 55//55 67//67 68//68
f 55//55 68//68 80//80
f 80//80 68//68 69//69
f 80//80 69//69 79//79
f 79//79 69//69 70//70
f 79//79 70//70 78//78
f 78//78 70//70 71//71
f 78//78 71//71 77//77
f 77//77 71//71 72//72
f 77//77 72//72 76//76
f 76//76 72//72 73//73
f 76//76 73//73 75//75
f 75//75 73//73 74//74
f 67//67 56//56 66//66
f 66//66 56//56 57//57
f 66//66 57//57 65//65
f 65//65 57//57 58//58
f 65//65 58//58 64//64
f 64//64 58//58 59//59
f 64//64 59//59 63//63
f 63//63 59//59 60//60
f 63//63 60//60 62//62
f 62//62 60//60 61//61
g 16bd9a62-e34c-11ea-983d-54bf646e7e1f
f 82//82 93//93 81//81
f 81//81 93//93 94//94
f 81//81 94//94 106//106
f 106//106 94//94 95//95
f 106//106 95//95 105//105
f 105//105 95//95 96//96
f 105//105 96//96 104//104
f 104//104 96//96 97//97
f 104//104 97//97 103//103
f 103//103 97//97 98//98
f 103//103 98//98 102//102
f 102//102 98//98 99//99
f 102//102 99//99 101//101
f 101//101 99//99 100//100
f 93//93 82//82 92//92
f 92//92 82//82 83//83
f 92//92 83//83 91//91
f 91//91 83//83 84//84
f 91//91 84//84 90//90
f 90//90 84//84 85//85
f 90//90 85//85 89//89
f 89//89 85//85 86//86
f 89//89 86//86 88//88
f 88//88 86//86 87//87

# End of file