# WaveFront *.obj file
# Vertices: 48
# Triangles : 28

v -0.5 4.099999904632568 1.6549999713897705
v -0.5 0.5 1.6549999713897705
v -0.5 0.5 0.20499999821186066
v -0.5 -2.220446049250313e-16 0.20499999821186066
v -0.5 1.1102230246251565e-16 2.055000066757202
v -0.5 7.050000190734863 2.055000066757202
v -0.5 7.050000190734863 4.440892098500626e-16
v -0.5 4.099999904632568 -2.6645352591003757e-15
v 0.0 0.5 1.6549999713897705
v 0.0 4.099999904632568 1.6549999713897705
v 0.0 4.099999904632568 -2.5717582580799545e-15
v 0.0 7.050000190734863 3.337162640207358e-16
v 0.0 7.050000190734863 2.055000066757202
v 0.0 1.2799684272549183e-16 2.055000066757202
v 0.0 -1.8254678361518344e-16 0.20499999821186066
v 0.0 0.5 0.20499999821186066
v 0.0 0.5 0.20499999821186066
v 0.0 -1.8254678361518344e-16 0.20499999821186066
v -0.5 -2.220446049250313e-16 0.20499999821186066
v -0.5 0.5 0.20499999821186066
v 0.0 -1.8254678361518344e-16 0.20499999821186066
v 0.0 1.2799684272549183e-16 2.055000066757202
v -0.5 1.1102230246251565e-16 2.055000066757202
v -0.5 -2.220446049250313e-16 0.20499999821186066
v 0.0 0.5 1.6549999713897705
v 0.0 0.5 0.20499999821186066
v -0.5 0.5 0.20499999821186066
v -0.5 0.5 1.6549999713897705
v 0.0 4.099999904632568 1.6549999713897705
v 0.0 0.5 1.6549999713897705
v -0.5 0.5 1.6549999713897705
v -0.5 4.099999904632568 1.6549999713897705
v 0.0 7.050000190734863 2.055000066757202
v 0.0 7.050000190734863 3.337162640207358e-16
v -0.5 7.050000190734863 4.440892098500626e-16
v -0.5 7.050000190734863 2.055000066757202
v 0.0 7.050000190734863 3.337162640207358e-16
v 0.0 4.099999904632568 -2.5717582580799545e-15
v -0.5 4.099999904632568 -2.6645352591003757e-15
v -0.5 7.050000190734863 4.440892098500626e-16
v 0.0 4.099999904632568 -2.5717582580799545e-15
v 0.0 4.099999904632568 1.6549999713897705
v -0.5 4.099999904632568 1.6549999713897705
v -0.5 4.099999904632568 -2.6645352591003757e-15
v 0.0 1.2799684272549183e-16 2.055000066757202
v 0.0 7.050000190734863 2.055000066757202
v -0.5 7.050000190734863 2.055000066757202
v -0.5 1.1102230246251565e-16 2.055000066757202
vn -1.0 0.0 0.0
vn -1.0 0.0 0.0
vn -1.0 0.0 0.0
vn -1.0 0.0 0.0
vn -1.0 0.0 0.0
vn -1.0 0.0 0.0
vn -1.0 0.0 0.0
vn -1.0 0.0 0.0
vn 1.0 0.0 0.0
vn 1.0 0.0 0.0
vn 1.0 0.0 0.0
vn 1.0 0.0 0.0
vn 1.0 0.0 0.0
vn 1.0 0.0 0.0
vn 1.0 0.0 0.0
vn 1.0 0.0 0.0
vn -0.0 -3.3306690738754696e-16 -1.0
vn -0.0 -3.3306690738754696e-16 -1.0
vn -0.0 -3.3306690738754696e-16 -1.0
vn -0.0 -3.3306690738754696e-16 -1.0
vn 0.0 -1.0 1.6786142930150081e-16
vn 0.0 -1.0 1.6786142930150081e-16
vn 0.0 -1.0 1.6786142930150081e-16
vn 0.0 -1.0 1.6786142930150081e-16
vn 0.0 1.0 -4.211190792188449e-16
vn 0.0 1.0 -4.211190792188449e-16
vn 0.0 1.0 -4.211190792188449e-16
vn 0.0 1.0 -4.211190792188449e-16
vn 0.0 0.0 -1.0
vn 0.0 0.0 -1.0
vn 0.0 0.0 -1.0
vn 0.0 0.0 -1.0
vn 0.0 1.0 -0.0
vn 0.0 1.0 -0.0
vn 0.0 1.0 -0.0
vn 0.0 1.0 -0.0
vn 0.0 9.84906617661251e-16 -1.0
vn 0.0 9.84906617661251e-16 -1.0
vn 0.0 9.84906617661251e-16 -1.0
vn 0.0 9.84906617661251e-16 -1.0
vn -0.0 -1.0 -5.366637170565308e-16
vn -0.0 -1.0 -5.366637170565308e-16
vn -0.0 -1.0 -5.366637170565308e-16
vn -0.0 -1.0 -5.366637170565308e-16
vn 0.0 1.2598275719559872e-16 1.0
vn 0.0 1.2598275719559872e-16 1.0
vn 0.0 1.2598275719559872e-16 1.0
vn 0.0 1.2598275719559872e-16 1.0
f 2//2 5//5 1//1
f 1//1 5//5 6//6
f 1//1 6//6 7//7
f 3//3 4//4 2//2
f 2//2 4//4 5//5
f 7//7 8//8 1//1
f 10//10 14//14 9//9
f 9//9 14//14 15//15
f 9//9 15//15 16//16
f 11//11 12//12 10//10
f 10//10 12//12 13//13
f 10//10 13//13 14//14
f 17//17 18//18 20//20
f 20//20 18//18 19//19
f 21//21 22//22 24//24
f 24//24 22//22 23//23
f 25//25 26//26 28//28
f 28//28 26//26 27//27
f 29//29 30//30 32//32
f 32//32 30//30 31//31
f 33//33 34//34 36//36
f 36//36 34//34 35//35
f 37//37 38//38 40//40
f 40//40 38//38 39//39
f 41//41 42//42 44//44
f 44//44 42//42 43//43
f 45//45 46//46 48//48
f 48//48 46//46 47//47

# End of file