# WaveFront *.obj file
# Vertices: 186
# Triangles : 176

v 1.4287500381469727 0.0 2.5399999618530273
v 1.439157247543335 0.0 2.6390180587768555
v 1.469923973083496 0.0 2.733708381652832
v 1.5197056531906128 0.0 2.819932699203491
v 1.5863265991210938 0.0 2.893922805786133
v 1.6668750047683716 0.0 2.952444553375244
v 1.7578306198120117 0.0 2.992940664291382
v 1.8552182912826538 0.0 3.013641119003296
v 1.9547816514968872 0.0 3.013641119003296
v 2.0521693229675293 0.0 2.992940664291382
v 2.143125057220459 0.0 2.952444553375244
v 2.2236733436584473 0.0 2.893922805786133
v 2.2902944087982178 0.0 2.819932699203491
v 2.340075969696045 0.0 2.733708381652832
v 2.370842695236206 0.0 2.6390180587768555
v 2.3812499046325684 0.0 2.5399999618530273
v 2.370842695236206 0.0 2.4409821033477783
v 2.340075969696045 0.0 2.3462917804718018
v 2.2902944087982178 0.0 2.2600672245025635
v 2.2236733436584473 0.0 2.186077356338501
v 2.143125057220459 0.0 2.1275553703308105
v 2.0521693229675293 0.0 2.087059259414673
v 1.9547816514968872 0.0 2.066359043121338
v 1.8552182912826538 0.0 2.066359043121338
v 1.7578306198120117 0.0 2.087059259414673
v 1.6668750047683716 0.0 2.1275553703308105
v 1.5863265991210938 0.0 2.186077356338501
v 1.5197056531906128 0.0 2.2600672245025635
v 1.469923973083496 0.0 2.3462917804718018
v 1.439157247543335 0.0 2.4409821033477783
v 1.5406014919281006 0.0 3.570362091064453
v 0.0 0.0 0.0
v 3.809999942779541 0.0 0.0
v 2.2693984508514404 0.0 3.570362091064453
v 2.2282626628875732 0.0 3.6433660984039307
v 2.172715902328491 0.0 3.706106185913086
v 2.105234146118164 0.0 3.7557852268218994
v 2.0288262367248535 0.0 3.7901885509490967
v 1.9468979835510254 0.0 3.8077821731567383
v 1.8631019592285156 0.0 3.8077821731567383
v 1.781173825263977 0.0 3.7901885509490967
v 1.704765796661377 0.0 3.7557852268218994
v 1.6372841596603394 0.0 3.706106185913086
v 1.5817372798919678 0.0 3.6433660984039307
v 1.4287500381469727 0.6349999904632568 2.5399999618530273
v 1.439157247543335 0.6349999904632568 2.4409821033477783
v 1.469923973083496 0.6349999904632568 2.3462917804718018
v 1.5197056531906128 0.6349999904632568 2.2600672245025635
v 1.5863265991210938 0.6349999904632568 2.186077356338501
v 1.6668750047683716 0.6349999904632568 2.1275553703308105
v 1.7578306198120117 0.6349999904632568 2.087059259414673
v 1.8552182912826538 0.6349999904632568 2.066359043121338
v 1.9547816514968872 0.6349999904632568 2.066359043121338
v 2.0521693229675293 0.6349999904632568 2.087059259414673
v 2.143125057220459 0.6349999904632568 2.1275553703308105
v 2.2236733436584473 0.6349999904632568 2.186077356338501
v 2.2902944087982178 0.6349999904632568 2.2600672245025635
v 2.340075969696045 0.6349999904632568 2.3462917804718018
v 2.370842695236206 0.6349999904632568 2.4409821033477783
v 2.3812499046325684 0.6349999904632568 2.5399999618530273
v 2.370842695236206 0.6349999904632568 2.6390180587768555
v 2.340075969696045 0.6349999904632568 2.733708381652832
v 2.2902944087982178 0.6349999904632568 2.819932699203491
v 2.2236733436584473 0.6349999904632568 2.893922805786133
v 2.143125057220459 0.6349999904632568 2.952444553375244
v 2.0521693229675293 0.6349999904632568 2.992940664291382
v 1.9547816514968872 0.6349999904632568 3.013641119003296
v 1.8552182912826538 0.6349999904632568 3.013641119003296
v 1.7578306198120117 0.6349999904632568 2.992940664291382
v 1.6668750047683716 0.6349999904632568 2.952444553375244
v 1.5863265991210938 0.6349999904632568 2.893922805786133
v 1.5197056531906128 0.6349999904632568 2.819932699203491
v 1.469923973083496 0.6349999904632568 2.733708381652832
v 1.439157247543335 0.6349999904632568 2.6390180587768555
v 0.0 0.6349999904632568 0.0
v 1.5406014919281006 0.6349999904632568 3.570362091064453
v 1.5817372798919678 0.6349999904632568 3.6433660984039307
v 1.6372841596603394 0.6349999904632568 3.706106185913086
v 1.704765796661377 0.6349999904632568 3.7557852268218994
v 1.781173825263977 0.6349999904632568 3.7901885509490967
v 1.8631019592285156 0.6349999904632568 3.8077821731567383
v 1.9468979835510254 0.6349999904632568 3.8077821731567383
v 2.0288262367248535 0.6349999904632568 3.7901885509490967
v 2.105234146118164 0.6349999904632568 3.7557852268218994
v 2.172715902328491 0.6349999904632568 3.706106185913086
v 2.2282626628875732 0.6349999904632568 3.6433660984039307
v 2.2693984508514404 0.6349999904632568 3.570362091064453
v 3.809999942779541 0.6349999904632568 0.0
v 0.0 0.0 0.0
v 1.5406014919281006 0.0 3.570362091064453
v 1.5406014919281006 0.6349999904632568 3.570362091064453
v 0.0 0.6349999904632568 0.0
v 1.5406014919281006 0.0 3.570362091064453
v 1.5817372798919678 0.0 3.6433660984039307
v 1.6372841596603394 0.0 3.706106185913086
v 1.704765796661377 0.0 3.7557852268218994
v 1.781173825263977 0.0 3.7901885509490967
v 1.8631019592285156 0.0 3.8077821731567383
v 1.9468979835510254 0.0 3.8077821731567383
v 2.0288262367248535 0.0 3.7901885509490967
v 2.105234146118164 0.0 3.7557852268218994
v 2.172715902328491 0.0 3.706106185913086
v 2.2282626628875732 0.0 3.6433660984039307
v 2.2693984508514404 0.0 3.570362091064453
v 2.2693984508514404 0.6349999904632568 3.570362091064453
v 2.2282626628875732 0.6349999904632568 3.6433660984039307
v 2.172715902328491 0.6349999904632568 3.706106185913086
v 2.105234146118164 0.6349999904632568 3.7557852268218994
v 2.0288262367248535 0.6349999904632568 3.7901885509490967
v 1.9468979835510254 0.6349999904632568 3.8077821731567383
v 1.8631019592285156 0.6349999904632568 3.8077821731567383
v 1.781173825263977 0.6349999904632568 3.7901885509490967
v 1.704765796661377 0.6349999904632568 3.7557852268218994
v 1.6372841596603394 0.6349999904632568 3.706106185913086
v 1.5817372798919678 0.6349999904632568 3.6433660984039307
v 1.5406014919281006 0.6349999904632568 3.570362091064453
v 2.2693984508514404 0.0 3.570362091064453
v 3.809999942779541 0.0 0.0
v 3.809999942779541 0.6349999904632568 0.0
v 2.2693984508514404 0.6349999904632568 3.570362091064453
v 3.809999942779541 0.0 0.0
v 0.0 0.0 0.0
v 0.0 0.6349999904632568 0.0
v 3.809999942779541 0.6349999904632568 0.0
v 1.4287500381469727 0.6349999904632568 2.5399999618530273
v 1.439157247543335 0.6349999904632568 2.6390180587768555
v 1.469923973083496 0.6349999904632568 2.733708381652832
v 1.5197056531906128 0.6349999904632568 2.819932699203491
v 1.5863265991210938 0.6349999904632568 2.893922805786133
v 1.6668750047683716 0.6349999904632568 2.952444553375244
v 1.7578306198120117 0.6349999904632568 2.992940664291382
v 1.8552182912826538 0.6349999904632568 3.013641119003296
v 1.9547816514968872 0.6349999904632568 3.013641119003296
v 2.0521693229675293 0.6349999904632568 2.992940664291382
v 2.143125057220459 0.6349999904632568 2.952444553375244
v 2.2236733436584473 0.6349999904632568 2.893922805786133
v 2.2902944087982178 0.6349999904632568 2.819932699203491
v 2.340075969696045 0.6349999904632568 2.733708381652832
v 2.370842695236206 0.6349999904632568 2.6390180587768555
v 2.3812499046325684 0.6349999904632568 2.5399999618530273
v 2.370842695236206 0.6349999904632568 2.4409821033477783
v 2.340075969696045 0.6349999904632568 2.3462917804718018
v 2.2902944087982178 0.6349999904632568 2.2600672245025635
v 2.2236733436584473 0.6349999904632568 2.186077356338501
v 2.143125057220459 0.6349999904632568 2.1275553703308105
v 2.0521693229675293 0.6349999904632568 2.087059259414673
v 1.9547816514968872 0.6349999904632568 2.066359043121338
v 1.8552182912826538 0.6349999904632568 2.066359043121338
v 1.7578306198120117 0.6349999904632568 2.087059259414673
v 1.6668750047683716 0.6349999904632568 2.1275553703308105
v 1.5863265991210938 0.6349999904632568 2.186077356338501
v 1.5197056531906128 0.6349999904632568 2.2600672245025635
v 1.469923973083496 0.6349999904632568 2.3462917804718018
v 1.439157247543335 0.6349999904632568 2.4409821033477783
v 1.4287500381469727 0.0 2.5399999618530273
v 1.439157247543335 0.0 2.4409821033477783
v 1.469923973083496 0.0 2.3462917804718018
v 1.5197056531906128 0.0 2.2600672245025635
v 1.5863265991210938 0.0 2.186077356338501
v 1.6668750047683716 0.0 2.1275553703308105
v 1.7578306198120117 0.0 2.087059259414673
v 1.8552182912826538 0.0 2.066359043121338
v 1.9547816514968872 0.0 2.066359043121338
v 2.0521693229675293 0.0 2.087059259414673
v 2.143125057220459 0.0 2.1275553703308105
v 2.2236733436584473 0.0 2.186077356338501
v 2.2902944087982178 0.0 2.2600672245025635
v 2.340075969696045 0.0 2.3462917804718018
v 2.370842695236206 0.0 2.4409821033477783
v 2.3812499046325684 0.0 2.5399999618530273
v 2.370842695236206 0.0 2.6390180587768555
v 2.340075969696045 0.0 2.733708381652832
v 2.2902944087982178 0.0 2.819932699203491
v 2.2236733436584473 0.0 2.893922805786133
v 2.143125057220459 0.0 2.952444553375244
v 2.0521693229675293 0.0 2.992940664291382
v 1.9547816514968872 0.0 3.013641119003296
v 1.8552182912826538 0.0 3.013641119003296
v 1.7578306198120117 0.0 2.992940664291382
v 1.6668750047683716 0.0 2.952444553375244
v 1.5863265991210938 0.0 2.893922805786133
v 1.5197056531906128 0.0 2.819932699203491
v 1.469923973083496 0.0 2.733708381652832
v 1.439157247543335 0.0 2.6390180587768555
v 1.4287500381469727 0.6349999904632568 2.5399999618530273
v 1.4287500381469727 0.0 2.5399999618530273
vn -0.0 -1.0 -0.0
vn -0.0 -1.0 -0.0
vn -0.0 -1.0 -0.0
vn -0.0 -1.0 -0.0
vn -0.0 -1.0 -0.0
vn -0.0 -1.0 -0.0
vn -0.0 -1.0 -0.0
vn -0.0 -1.0 -0.0
vn -0.0 -1.0 -0.0
vn -0.0 -1.0 -0.0
vn -0.0 -1.0 -0.0
vn -0.0 -1.0 -0.0
vn -0.0 -1.0 -0.0
vn -0.0 -1.0 -0.0
vn -0.0 -1.0 -0.0
vn -0.0 -1.0 -0.0
vn -0.0 -1.0 -0.0
vn -0.0 -1.0 -0.0
vn -0.0 -1.0 -0.0
vn -0.0 -1.0 -0.0
vn -0.0 -1.0 -0.0
vn -0.0 -1.0 -0.0
vn -0.0 -1.0 -0.0
vn -0.0 -1.0 -0.0
vn -0.0 -1.0 -0.0
vn -0.0 -1.0 -0.0
vn -0.0 -1.0 -0.0
vn -0.0 -1.0 -0.0
vn -0.0 -1.0 -0.0
vn -0.0 -1.0 -0.0
vn -0.0 -1.0 -0.0
vn -0.0 -1.0 -0.0
vn -0.0 -1.0 -0.0
vn -0.0 -1.0 -0.0
vn -0.0 -1.0 -0.0
vn -0.0 -1.0 -0.0
vn -0.0 -1.0 -0.0
vn -0.0 -1.0 -0.0
vn -0.0 -1.0 -0.0
vn -0.0 -1.0 -0.0
vn -0.0 -1.0 -0.0
vn -0.0 -1.0 -0.0
vn -0.0 -1.0 -0.0
vn -0.0 -1.0 -0.0
vn 0.0 1.0 0.0
vn 0.0 1.0 0.0
vn 0.0 1.0 0.0
vn 0.0 1.0 0.0
vn 0.0 1.0 0.0
vn 0.0 1.0 0.0
vn 0.0 1.0 0.0
vn 0.0 1.0 0.0
vn 0.0 1.0 0.0
vn 0.0 1.0 0.0
vn 0.0 1.0 0.0
vn 0.0 1.0 0.0
vn 0.0 1.0 0.0
vn 0.0 1.0 0.0
vn 0.0 1.0 0.0
vn 0.0 1.0 0.0
vn 0.0 1.0 0.0
vn 0.0 1.0 0.0
vn 0.0 1.0 0.0
vn 0.0 1.0 0.0
vn 0.0 1.0 0.0
vn 0.0 1.0 0.0
vn 0.0 1.0 0.0
vn 0.0 1.0 0.0
vn 0.0 1.0 0.0
vn 0.0 1.0 0.0
vn 0.0 1.0 0.0
vn 0.0 1.0 0.0
vn 0.0 1.0 0.0
vn 0.0 1.0 0.0
vn 0.0 1.0 0.0
vn 0.0 1.0 0.0
vn 0.0 1.0 0.0
vn 0.0 1.0 0.0
vn 0.0 1.0 0.0
vn 0.0 1.0 0.0
vn 0.0 1.0 0.0
vn 0.0 1.0 0.0
vn 0.0 1.0 0.0
vn 0.0 1.0 0.0
vn 0.0 1.0 0.0
vn 0.0 1.0 0.0
vn 0.0 1.0 0.0
vn 0.0 1.0 0.0
vn -0.9181695580482483 0.0 0.3961876630783081
vn -0.9181695580482483 0.0 0.3961876630783081
vn -0.9181695580482483 0.0 0.3961876630783081
vn -0.9181695580482483 0.0 0.3961876630783081
vn -0.9181695580482483 -0.0 0.3961876630783081
vn -0.8145201802253723 -0.0 0.5801352262496948
vn -0.6745595932006836 -0.0 0.7382203936576843
vn -0.5045271515846252 -0.0 0.8633958101272583
vn -0.3120029866695404 -0.0 0.9500811100006104
vn -0.1055697649717331 -0.0 0.9944118857383728
vn 0.1055697649717331 -0.0 0.9944118857383728
vn 0.3120029866695404 -0.0 0.9500811100006104
vn 0.5045271515846252 -0.0 0.8633958101272583
vn 0.6745595932006836 -0.0 0.7382203936576843
vn 0.8145201802253723 -0.0 0.5801352262496948
vn 0.9181695580482483 -0.0 0.3961876630783081
vn 0.9181695580482483 -0.0 0.3961876630783081
vn 0.8145201802253723 -0.0 0.5801352262496948
vn 0.6745595932006836 -0.0 0.7382203936576843
vn 0.5045271515846252 -0.0 0.8633958101272583
vn 0.3120029866695404 -0.0 0.9500811100006104
vn 0.1055697649717331 -0.0 0.9944118857383728
vn -0.1055697649717331 -0.0 0.9944118857383728
vn -0.3120029866695404 -0.0 0.9500811100006104
vn -0.5045271515846252 -0.0 0.8633958101272583
vn -0.6745595932006836 -0.0 0.7382203936576843
vn -0.8145201802253723 -0.0 0.5801352262496948
vn -0.9181695580482483 -0.0 0.3961876630783081
vn 0.9181695580482483 -0.0 0.3961876630783081
vn 0.9181695580482483 -0.0 0.3961876630783081
vn 0.9181695580482483 -0.0 0.3961876630783081
vn 0.9181695580482483 -0.0 0.3961876630783081
vn 0.0 0.0 -1.0
vn 0.0 0.0 -1.0
vn 0.0 0.0 -1.0
vn 0.0 0.0 -1.0
vn 1.0 0.0 -1.2246468525851679e-16
vn 0.9781476259231567 0.0 -0.2079116851091385
vn 0.9135454297065735 0.0 -0.4067366421222687
vn 0.80901700258255 0.0 -0.5877852439880371
vn 0.6691306233406067 0.0 -0.7431448101997375
vn 0.5 0.0 -0.8660253882408142
vn 0.30901700258255005 0.0 -0.9510565400123596
vn 0.10452846437692642 0.0 -0.9945219159126282
vn -0.10452846437692642 0.0 -0.9945219159126282
vn -0.30901700258255005 0.0 -0.9510565400123596
vn -0.5 0.0 -0.8660253882408142
vn -0.6691306233406067 0.0 -0.7431448101997375
vn -0.80901700258255 0.0 -0.5877852439880371
vn -0.9135454297065735 0.0 -0.4067366421222687
vn -0.9781476259231567 0.0 -0.2079116851091385
vn -1.0 0.0 0.0
vn -0.9781476259231567 0.0 0.2079116851091385
vn -0.9135454297065735 0.0 0.4067366421222687
vn -0.80901700258255 0.0 0.5877852439880371
vn -0.6691306233406067 0.0 0.7431448101997375
vn -0.5 0.0 0.8660253882408142
vn -0.30901700258255005 0.0 0.9510565400123596
vn -0.10452846437692642 0.0 0.9945219159126282
vn 0.10452846437692642 -0.0 0.9945219159126282
vn 0.30901700258255005 -0.0 0.9510565400123596
vn 0.5 -0.0 0.8660253882408142
vn 0.6691306233406067 -0.0 0.7431448101997375
vn 0.80901700258255 -0.0 0.5877852439880371
vn 0.9135454297065735 -0.0 0.4067366421222687
vn 0.9781476259231567 -0.0 0.2079116851091385
vn 1.0 -0.0 1.2246468525851679e-16
vn 0.9781476259231567 -0.0 0.2079116851091385
vn 0.9135454297065735 -0.0 0.4067366421222687
vn 0.80901700258255 -0.0 0.5877852439880371
vn 0.6691306233406067 -0.0 0.7431448101997375
vn 0.5 -0.0 0.8660253882408142
vn 0.30901700258255005 -0.0 0.9510565400123596
vn 0.10452846437692642 -0.0 0.9945219159126282
vn -0.10452846437692642 0.0 0.9945219159126282
vn -0.30901700258255005 0.0 0.9510565400123596
vn -0.5 0.0 0.8660253882408142
vn -0.6691306233406067 0.0 0.7431448101997375
vn -0.80901700258255 0.0 0.5877852439880371
vn -0.9135454297065735 0.0 0.4067366421222687
vn -0.9781476259231567 0.0 0.2079116851091385
vn -1.0 0.0 0.0
vn -0.9781476259231567 0.0 -0.2079116851091385
vn -0.9135454297065735 0.0 -0.4067366421222687
vn -0.80901700258255 0.0 -0.5877852439880371
vn -0.6691306233406067 0.0 -0.7431448101997375
vn -0.5 0.0 -0.8660253882408142
vn -0.30901700258255005 0.0 -0.9510565400123596
vn -0.10452846437692642 0.0 -0.9945219159126282
vn 0.10452846437692642 0.0 -0.9945219159126282
vn 0.30901700258255005 0.0 -0.9510565400123596
vn 0.5 0.0 -0.8660253882408142
vn 0.6691306233406067 0.0 -0.7431448101997375
vn 0.80901700258255 0.0 -0.5877852439880371
vn 0.9135454297065735 0.0 -0.4067366421222687
vn 0.9781476259231567 0.0 -0.2079116851091385
vn 1.0 -0.0 1.2246468525851679e-16
vn 1.0 0.0 -1.2246468525851679e-16
f 30//30 1//1 32//32
f 32//32 1//1 2//2
f 32//32 2//2 31//31
f 31//31 2//2 3//3
f 31//31 3//3 4//4
f 4//4 5//5 31//31
f 31//31 5//5 6//6
f 31//31 6//6 7//7
f 7//7 8//8 31//31
f 31//31 8//8 9//9
f 31//31 9//9 34//34
f 34//34 9//9 10//10
f 34//34 10//10 11//11
f 11//11 12//12 34//34
f 34//34 12//12 13//13
f 34//34 13//13 14//14
f 14//14 15//15 34//34
f 34//34 15//15 33//33
f 33//33 15//15 16//16
f 33//33 16//16 17//17
f 17//17 18//18 33//33
f 33//33 18//18 19//19
f 33//33 19//19 20//20
f 20//20 21//21 33//33
f 33//33 21//21 22//22
f 33//33 22//22 23//23
f 23//23 24//24 33//33
f 33//33 24//24 32//32
f 32//32 24//24 25//25
f 32//32 25//25 26//26
f 26//26 27//27 32//32
f 32//32 27//27 28//28
f 32//32 28//28 29//29
f 29//29 30//30 32//32
f 31//31 34//34 44//44
f 44//44 34//34 35//35
f 44//44 35//35 43//43
f 43//43 35//35 36//36
f 43//43 36//36 42//42
f 42//42 36//36 37//37
f 42//42 37//37 41//41
f 41//41 37//37 38//38
f 41//41 38//38 40//40
f 40//40 38//38 39//39
f 74//74 45//45 75//75
f 75//75 45//45 46//46
f 75//75 46//46 47//47
f 47//47 48//48 75//75
f 75//75 48//48 49//49
f 75//75 49//49 50//50
f 50//50 51//51 75//75
f 75//75 51//51 52//52
f 75//75 52//52 53//53
f 75//75 53//53 88//88
f 88//88 53//53 54//54
f 88//88 54//54 55//55
f 55//55 56//56 88//88
f 88//88 56//56 57//57
f 88//88 57//57 58//58
f 58//58 59//59 88//88
f 88//88 59//59 60//60
f 88//88 60//60 61//61
f 88//88 61//61 87//87
f 87//87 61//61 62//62
f 87//87 62//62 63//63
f 63//63 64//64 87//87
f 87//87 64//64 65//65
f 87//87 65//65 66//66
f 66//66 67//67 87//87
f 87//87 67//67 68//68
f 87//87 68//68 76//76
f 76//76 68//68 69//69
f 76//76 69//69 70//70
f 70//70 71//71 76//76
f 76//76 71//71 72//72
f 76//76 72//72 73//73
f 73//73 74//74 76//76
f 76//76 74//74 75//75
f 87//87 76//76 86//86
f 86//86 76//76 77//77
f 86//86 77//77 85//85
f 85//85 77//77 78//78
f 85//85 78//78 84//84
f 84//84 78//78 79//79
f 84//84 79//79 83//83
f 83//83 79//79 80//80
f 83//83 80//80 82//82
f 82//82 80//80 81//81
f 89//89 90//90 92//92
f 92//92 90//90 91//91
f 116//116 93//93 115//115
f 115//115 93//93 94//94
f 115//115 94//94 95//95
f 115//115 95//95 114//114
f 114//114 95//95 96//96
f 114//114 96//96 113//113
f 113//113 96//96 97//97
f 113//113 97//97 112//112
f 112//112 97//97 98//98
f 112//112 98//98 111//111
f 111//111 98//98 99//99
f 111//111 99//99 110//110
f 110//110 99//99 100//100
f 110//110 100//100 109//109
f 109//109 100//100 101//101
f 109//109 101//101 108//108
f 108//108 101//101 102//102
f 108//108 102//102 107//107
f 107//107 102//102 103//103
f 107//107 103//103 106//106
f 106//106 103//103 105//105
f 105//105 103//103 104//104
f 117//117 118//118 120//120
f 120//120 118//118 119//119
f 121//121 122//122 124//124
f 124//124 122//122 123//123
f 126//126 184//184 125//125
f 125//125 184//184 186//186
f 185//185 155//155 154//154
f 154//154 155//155 156//156
f 154//154 156//156 153//153
f 153//153 156//156 157//157
f 153//153 157//157 152//152
f 152//152 157//157 158//158
f 152//152 158//158 151//151
f 151//151 158//158 159//159
f 151//151 159//159 150//150
f 150//150 159//159 160//160
f 150//150 160//160 149//149
f 149//149 160//160 161//161
f 149//149 161//161 148//148
f 148//148 161//161 162//162
f 148//148 162//162 147//147
f 147//147 162//162 163//163
f 147//147 163//163 146//146
f 146//146 163//163 164//164
f 146//146 164//164 145//145
f 145//145 164//164 165//165
f 145//145 165//165 144//144
f 144//144 165//165 166//166
f 144//144 166//166 143//143
f 143//143 166//166 167//167
f 143//143 167//167 142//142
f 142//142 167//167 168//168
f 142//142 168//168 141//141
f 141//141 168//168 169//169
f 141//141 169//169 140//140
f 140//140 169//169 170//170
f 140//140 170//170 139//139
f 139//139 170//170 171//171
f 139//139 171//171 138//138
f 138//138 171//171 172//172
f 138//138 172//172 137//137
f 137//137 172//172 173//173
f 137//137 173//173 136//136
f 136//136 173//173 174//174
f 136//136 174//174 135//135
f 135//135 174//174 175//175
f 135//135 175//175 134//134
f 134//134 175//175 176//176
f 134//134 176//176 133//133
f 133//133 176//176 177//177
f 133//133 177//177 132//132
f 132//132 177//177 178//178
f 132//132 178//178 131//131
f 131//131 178//178 179//179
f 131//131 179//179 130//130
f 130//130 179//179 180//180
f 130//130 180//180 129//129
f 129//129 180//180 181//181
f 129//129 181//181 128//128
f 128//128 181//181 182//182
f 128//128 182//182 127//127
f 127//127 182//182 183//183
f 127//127 183//183 126//126
f 126//126 183//183 184//184

# End of file