# WaveFront *.obj file
# Vertices: 176
# Triangles : 140

v 1.6246693134307861 1.7122279405593872 0.0
v 3.1746692657470703 1.7122279405593872 0.0
v 3.1746692657470703 1.7122279405593872 2.0
v 1.6246693134307861 1.7122279405593872 2.0
v 3.1746692657470703 1.7122279405593872 0.0
v 3.1746692657470703 0.46222788095474243 0.0
v 3.1746692657470703 0.46222788095474243 2.0
v 3.1746692657470703 1.7122279405593872 2.0
v 3.1746692657470703 0.46222788095474243 0.0
v 1.6246693134307861 0.46222788095474243 0.0
v 1.6246693134307861 0.46222788095474243 2.0
v 3.1746692657470703 0.46222788095474243 2.0
v 1.6246693134307861 0.46222788095474243 0.0
v 1.6246693134307861 1.7122279405593872 0.0
v 1.6246693134307861 1.7122279405593872 2.0
v 1.6246693134307861 0.46222788095474243 2.0
v 1.6246693134307861 0.46222788095474243 2.0
v 1.6246693134307861 1.7122279405593872 2.0
v 3.1746692657470703 1.7122279405593872 2.0
v 3.1746692657470703 0.46222788095474243 2.0
v 3.6500000953674316 0.675000011920929 0.0
v 3.6500000953674316 1.7999999523162842 0.0
v 3.6500000953674316 1.7999999523162842 3.0
v 3.6500000953674316 0.675000011920929 3.0
v 3.8499999046325684 0.4749999940395355 0.0
v 3.788196563720703 0.4847886860370636 0.0
v 3.732442855834961 0.513196587562561 0.0
v 3.6881966590881348 0.5574429631233215 0.0
v 3.6597886085510254 0.613196611404419 0.0
v 3.6500000953674316 0.675000011920929 0.0
v 3.6500000953674316 0.675000011920929 3.0
v 3.6597886085510254 0.613196611404419 3.0
v 3.6881966590881348 0.5574429631233215 3.0
v 3.732442855834961 0.513196587562561 3.0
v 3.788196563720703 0.4847886860370636 3.0
v 3.8499999046325684 0.4749999940395355 3.0
v 4.900000095367432 0.4749999940395355 0.0
v 3.8499999046325684 0.4749999940395355 0.0
v 3.8499999046325684 0.4749999940395355 3.0
v 4.900000095367432 0.4749999940395355 3.0
v 4.900000095367432 0.0 0.0
v 4.900000095367432 0.4749999940395355 0.0
v 4.900000095367432 0.4749999940395355 3.0
v 4.900000095367432 0.0 3.0
v 0.0 0.0 0.0
v 4.900000095367432 0.0 0.0
v 4.900000095367432 0.0 3.0
v 0.0 0.0 3.0
v 0.0 0.5 0.0
v 0.0 0.0 0.0
v 0.0 0.0 3.0
v 0.0 0.5 3.0
v 1.0 0.5 0.0
v 0.0 0.5 0.0
v 0.0 0.5 3.0
v 1.0 0.5 3.0
v 1.2000000476837158 0.699999988079071 0.0
v 1.190211296081543 0.638196587562561 0.0
v 1.1618033647537231 0.5824429392814636 0.0
v 1.1175570487976074 0.5381966233253479 0.0
v 1.0618033409118652 0.5097886919975281 0.0
v 1.0 0.5 0.0
v 1.0 0.5 3.0
v 1.0618033409118652 0.5097886919975281 3.0
v 1.1175570487976074 0.5381966233253479 3.0
v 1.1618033647537231 0.5824429392814636 3.0
v 1.190211296081543 0.638196587562561 3.0
v 1.2000000476837158 0.699999988079071 3.0
v 1.2000000476837158 1.7999999523162842 0.0
v 1.2000000476837158 0.699999988079071 0.0
v 1.2000000476837158 0.699999988079071 3.0
v 1.2000000476837158 1.7999999523162842 3.0
v 1.600000023841858 2.200000047683716 0.0
v 1.5109915733337402 2.1899712085723877 0.0
v 1.426446557044983 2.1603875160217285 0.0
v 1.3506040573120117 2.1127326488494873 0.0
v 1.2872674465179443 2.04939603805542 0.0
v 1.2396124601364136 1.9735535383224487 0.0
v 1.210028886795044 1.8890084028244019 0.0
v 1.2000000476837158 1.7999999523162842 0.0
v 1.2000000476837158 1.7999999523162842 3.0
v 1.210028886795044 1.8890084028244019 3.0
v 1.2396124601364136 1.9735535383224487 3.0
v 1.2872674465179443 2.04939603805542 3.0
v 1.3506040573120117 2.1127326488494873 3.0
v 1.426446557044983 2.1603875160217285 3.0
v 1.5109915733337402 2.1899712085723877 3.0
v 1.600000023841858 2.200000047683716 3.0
v 3.25 2.200000047683716 0.0
v 1.600000023841858 2.200000047683716 0.0
v 1.600000023841858 2.200000047683716 3.0
v 3.25 2.200000047683716 3.0
v 3.6500000953674316 1.7999999523162842 0.0
v 3.6399712562561035 1.8890084028244019 0.0
v 3.6103875637054443 1.9735535383224487 0.0
v 3.562732696533203 2.04939603805542 0.0
v 3.4993958473205566 2.1127326488494873 0.0
v 3.423553466796875 2.1603875160217285 0.0
v 3.339008331298828 2.1899712085723877 0.0
v 3.25 2.200000047683716 0.0
v 3.25 2.200000047683716 3.0
v 3.339008331298828 2.1899712085723877 3.0
v 3.423553466796875 2.1603875160217285 3.0
v 3.4993958473205566 2.1127326488494873 3.0
v 3.562732696533203 2.04939603805542 3.0
v 3.6103875637054443 1.9735535383224487 3.0
v 3.6399712562561035 1.8890084028244019 3.0
v 3.6500000953674316 1.7999999523162842 3.0
v 3.6500000953674316 1.7999999523162842 3.0
v 3.6399712562561035 1.8890084028244019 3.0
v 3.6103875637054443 1.9735535383224487 3.0
v 3.562732696533203 2.04939603805542 3.0
v 3.4993958473205566 2.1127326488494873 3.0
v 3.423553466796875 2.1603875160217285 3.0
v 3.339008331298828 2.1899712085723877 3.0
v 3.25 2.200000047683716 3.0
v 1.600000023841858 2.200000047683716 3.0
v 1.5109915733337402 2.1899712085723877 3.0
v 1.426446557044983 2.1603875160217285 3.0
v 1.3506040573120117 2.1127326488494873 3.0
v 1.2872674465179443 2.04939603805542 3.0
v 1.2396124601364136 1.9735535383224487 3.0
v 1.210028886795044 1.8890084028244019 3.0
v 1.2000000476837158 1.7999999523162842 3.0
v 1.2000000476837158 0.699999988079071 3.0
v 1.190211296081543 0.638196587562561 3.0
v 1.1618033647537231 0.5824429392814636 3.0
v 1.1175570487976074 0.5381966233253479 3.0
v 1.0618033409118652 0.5097886919975281 3.0
v 1.0 0.5 3.0
v 0.0 0.5 3.0
v 0.0 0.0 3.0
v 4.900000095367432 0.0 3.0
v 4.900000095367432 0.4749999940395355 3.0
v 3.8499999046325684 0.4749999940395355 3.0
v 3.788196563720703 0.4847886860370636 3.0
v 3.732442855834961 0.513196587562561 3.0
v 3.6881966590881348 0.5574429631233215 3.0
v 3.6597886085510254 0.613196611404419 3.0
v 3.6500000953674316 0.675000011920929 3.0
v 3.1746692657470703 1.7122279405593872 0.0
v 1.6246693134307861 1.7122279405593872 0.0
v 1.6246693134307861 0.46222788095474243 0.0
v 3.1746692657470703 0.46222788095474243 0.0
v 3.25 2.200000047683716 0.0
v 3.339008331298828 2.1899712085723877 0.0
v 3.423553466796875 2.1603875160217285 0.0
v 3.4993958473205566 2.1127326488494873 0.0
v 3.562732696533203 2.04939603805542 0.0
v 3.6103875637054443 1.9735535383224487 0.0
v 3.6399712562561035 1.8890084028244019 0.0
v 3.6500000953674316 1.7999999523162842 0.0
v 3.6500000953674316 0.675000011920929 0.0
v 3.6597886085510254 0.613196611404419 0.0
v 3.6881966590881348 0.5574429631233215 0.0
v 3.732442855834961 0.513196587562561 0.0
v 3.788196563720703 0.4847886860370636 0.0
v 3.8499999046325684 0.4749999940395355 0.0
v 4.900000095367432 0.4749999940395355 0.0
v 4.900000095367432 0.0 0.0
v 0.0 0.0 0.0
v 0.0 0.5 0.0
v 1.0 0.5 0.0
v 1.0618033409118652 0.5097886919975281 0.0
v 1.1175570487976074 0.5381966233253479 0.0
v 1.1618033647537231 0.5824429392814636 0.0
v 1.190211296081543 0.638196587562561 0.0
v 1.2000000476837158 0.699999988079071 0.0
v 1.2000000476837158 1.7999999523162842 0.0
v 1.210028886795044 1.8890084028244019 0.0
v 1.2396124601364136 1.9735535383224487 0.0
v 1.2872674465179443 2.04939603805542 0.0
v 1.3506040573120117 2.1127326488494873 0.0
v 1.426446557044983 2.1603875160217285 0.0
v 1.5109915733337402 2.1899712085723877 0.0
v 1.600000023841858 2.200000047683716 0.0
vn -0.0 -1.0 0.0
vn -0.0 -1.0 0.0
vn -0.0 -1.0 0.0
vn -0.0 -1.0 0.0
vn -1.0 -0.0 -0.0
vn -1.0 -0.0 -0.0
vn -1.0 -0.0 -0.0
vn -1.0 -0.0 -0.0
vn -0.0 1.0 -0.0
vn -0.0 1.0 -0.0
vn -0.0 1.0 -0.0
vn -0.0 1.0 -0.0
vn 1.0 -0.0 -0.0
vn 1.0 -0.0 -0.0
vn 1.0 -0.0 -0.0
vn 1.0 -0.0 -0.0
vn -0.0 -0.0 -1.0
vn -0.0 -0.0 -1.0
vn -0.0 -0.0 -1.0
vn -0.0 -0.0 -1.0
vn 1.0 0.0 0.0
vn 1.0 0.0 0.0
vn 1.0 0.0 0.0
vn 1.0 0.0 0.0
vn 6.123234262925839e-17 1.0 -0.0
vn 0.30901700258255005 0.9510565400123596 -0.0
vn 0.5877852439880371 0.80901700258255 -0.0
vn 0.80901700258255 0.5877852439880371 -0.0
vn 0.9510565400123596 0.30901700258255005 -0.0
vn 1.0 0.0 -0.0
vn 1.0 0.0 -0.0
vn 0.9510565400123596 0.30901700258255005 -0.0
vn 0.80901700258255 0.5877852439880371 -0.0
vn 0.5877852439880371 0.80901700258255 -0.0
vn 0.30901700258255005 0.9510565400123596 -0.0
vn 6.123234262925839e-17 1.0 -0.0
vn 0.0 1.0 0.0
vn 0.0 1.0 0.0
vn 0.0 1.0 0.0
vn 0.0 1.0 0.0
vn 1.0 0.0 0.0
vn 1.0 0.0 0.0
vn 1.0 0.0 0.0
vn 1.0 0.0 0.0
vn 0.0 -1.0 0.0
vn 0.0 -1.0 0.0
vn 0.0 -1.0 0.0
vn 0.0 -1.0 0.0
vn -1.0 0.0 0.0
vn -1.0 0.0 0.0
vn -1.0 0.0 0.0
vn -1.0 0.0 0.0
vn 0.0 1.0 0.0
vn 0.0 1.0 0.0
vn 0.0 1.0 0.0
vn 0.0 1.0 0.0
vn -1.0 2.2816784845238e-15 0.0
vn -0.9510565400123596 0.30901700258255005 0.0
vn -0.80901700258255 0.5877852439880371 0.0
vn -0.5877852439880371 0.80901700258255 0.0
vn -0.30901700258255005 0.9510565400123596 0.0
vn -2.220446049250313e-15 1.0 0.0
vn -2.220446049250313e-15 1.0 0.0
vn -0.30901700258255005 0.9510565400123596 0.0
vn -0.5877852439880371 0.80901700258255 0.0
vn -0.80901700258255 0.5877852439880371 0.0
vn -0.9510565400123596 0.30901700258255005 0.0
vn -1.0 2.2816784845238e-15 0.0
vn -1.0 2.0185873776588746e-16 0.0
vn -1.0 2.0185873776588746e-16 0.0
vn -1.0 2.0185873776588746e-16 0.0
vn -1.0 2.0185873776588746e-16 0.0
vn -5.551115123125783e-16 1.0 -0.0
vn -0.22252093255519867 0.9749279022216797 -0.0
vn -0.4338837265968323 0.9009688496589661 -0.0
vn -0.6234897971153259 0.7818315029144287 -0.0
vn -0.7818315029144287 0.6234897971153259 -0.0
vn -0.9009688496589661 0.4338837265968323 -0.0
vn -0.9749279022216797 0.22252093255519867 -0.0
vn -1.0 -4.978996314197971e-17 0.0
vn -1.0 -4.978996314197971e-17 0.0
vn -0.9749279022216797 0.22252093255519867 -0.0
vn -0.9009688496589661 0.4338837265968323 -0.0
vn -0.7818315029144287 0.6234897971153259 -0.0
vn -0.6234897971153259 0.7818315029144287 -0.0
vn -0.4338837265968323 0.9009688496589661 -0.0
vn -0.22252093255519867 0.9749279022216797 -0.0
vn -5.551115123125783e-16 1.0 -0.0
vn 0.0 1.0 -0.0
vn 0.0 1.0 -0.0
vn 0.0 1.0 -0.0
vn 0.0 1.0 -0.0
vn 1.0 -0.0 -0.0
vn 0.9749279022216797 0.22252093255519867 -0.0
vn 0.9009688496589661 0.4338837265968323 -0.0
vn 0.7818315029144287 0.6234897971153259 -0.0
vn 0.6234897971153259 0.7818315029144287 -0.0
vn 0.4338837265968323 0.9009688496589661 -0.0
vn 0.22252093255519867 0.9749279022216797 -0.0
vn 6.123234262925839e-17 1.0 -0.0
vn 6.123234262925839e-17 1.0 -0.0
vn 0.22252093255519867 0.9749279022216797 -0.0
vn 0.4338837265968323 0.9009688496589661 -0.0
vn 0.6234897971153259 0.7818315029144287 -0.0
vn 0.7818315029144287 0.6234897971153259 -0.0
vn 0.9009688496589661 0.4338837265968323 -0.0
vn 0.9749279022216797 0.22252093255519867 -0.0
vn 1.0 -0.0 -0.0
vn 0.0 0.0 1.0
vn 0.0 0.0 1.0
vn 0.0 0.0 1.0
vn 0.0 0.0 1.0
vn 0.0 0.0 1.0
vn 0.0 0.0 1.0
vn 0.0 0.0 1.0
vn 0.0 0.0 1.0
vn 0.0 0.0 1.0
vn 0.0 0.0 1.0
vn 0.0 0.0 1.0
vn 0.0 0.0 1.0
vn 0.0 0.0 1.0
vn 0.0 0.0 1.0
vn 0.0 0.0 1.0
vn 0.0 0.0 1.0
vn 0.0 0.0 1.0
vn 0.0 0.0 1.0
vn 0.0 0.0 1.0
vn 0.0 0.0 1.0
vn 0.0 0.0 1.0
vn 0.0 0.0 1.0
vn 0.0 0.0 1.0
vn 0.0 0.0 1.0
vn 0.0 0.0 1.0
vn 0.0 0.0 1.0
vn 0.0 0.0 1.0
vn 0.0 0.0 1.0
vn 0.0 0.0 1.0
vn 0.0 0.0 1.0
vn 0.0 0.0 1.0
vn 0.0 0.0 1.0
vn -0.0 -0.0 -1.0
vn -0.0 -0.0 -1.0
vn -0.0 -0.0 -1.0
vn -0.0 -0.0 -1.0
vn -0.0 -0.0 -1.0
vn -0.0 -0.0 -1.0
vn -0.0 -0.0 -1.0
vn -0.0 -0.0 -1.0
vn -0.0 -0.0 -1.0
vn -0.0 -0.0 -1.0
vn -0.0 -0.0 -1.0
vn -0.0 -0.0 -1.0
vn -0.0 -0.0 -1.0
vn -0.0 -0.0 -1.0
vn -0.0 -0.0 -1.0
vn -0.0 -0.0 -1.0
vn -0.0 -0.0 -1.0
vn -0.0 -0.0 -1.0
vn -0.0 -0.0 -1.0
vn -0.0 -0.0 -1.0
vn -0.0 -0.0 -1.0
vn -0.0 -0.0 -1.0
vn -0.0 -0.0 -1.0
vn -0.0 -0.0 -1.0
vn -0.0 -0.0 -1.0
vn -0.0 -0.0 -1.0
vn -0.0 -0.0 -1.0
vn -0.0 -0.0 -1.0
vn -0.0 -0.0 -1.0
vn -0.0 -0.0 -1.0
vn -0.0 -0.0 -1.0
vn -0.0 -0.0 -1.0
vn -0.0 -0.0 -1.0
vn -0.0 -0.0 -1.0
vn -0.0 -0.0 -1.0
vn -0.0 -0.0 -1.0
g 4f273592-e358-11ea-a58f-54bf646e7e1f
f 1//1 2//2 4//4
f 4//4 2//2 3//3
g 4f281fe6-e358-11ea-aab1-54bf646e7e1f
f 5//5 6//6 8//8
f 8//8 6//6 7//7
g 4f28e334-e358-11ea-98f1-54bf646e7e1f
f 9//9 10//10 12//12
f 12//12 10//10 11//11
g 4f29a67e-e358-11ea-bd1f-54bf646e7e1f
f 13//13 14//14 16//16
f 16//16 14//14 15//15
g 4f2a1bb4-e358-11ea-b317-54bf646e7e1f
f 18//18 19//19 17//17
f 17//17 19//19 20//20
g 4ef3cb8c-e358-11ea-b5cb-54bf646e7e1f
f 21//21 22//22 24//24
f 24//24 22//22 23//23
g 4ef419b4-e358-11ea-b2b9-54bf646e7e1f
f 36//36 25//25 35//35
f 35//35 25//25 26//26
f 35//35 26//26 34//34
f 34//34 26//26 27//27
f 34//34 27//27 33//33
f 33//33 27//27 28//28
f 33//33 28//28 32//32
f 32//32 28//28 29//29
f 32//32 29//29 31//31
f 31//31 29//29 30//30
g 4ef467c8-e358-11ea-abb7-54bf646e7e1f
f 37//37 38//38 40//40
f 40//40 38//38 39//39
g 4ef48ed0-e358-11ea-b458-54bf646e7e1f
f 41//41 42//42 44//44
f 44//44 42//42 43//43
g 4ef4dd00-e358-11ea-859d-54bf646e7e1f
f 45//45 46//46 48//48
f 48//48 46//46 47//47
g 4ef52b14-e358-11ea-9d7a-54bf646e7e1f
f 49//49 50//50 52//52
f 52//52 50//50 51//51
g 4ef57934-e358-11ea-83c0-54bf646e7e1f
f 53//53 54//54 56//56
f 56//56 54//54 55//55
g 4ef5c748-e358-11ea-bf2e-54bf646e7e1f
f 68//68 57//57 67//67
f 67//67 57//57 58//58
f 67//67 58//58 66//66
f 66//66 58//58 59//59
f 66//66 59//59 65//65
f 65//65 59//59 60//60
f 65//65 60//60 64//64
f 64//64 60//60 61//61
f 64//64 61//61 63//63
f 63//63 61//61 62//62
g 4ef6156c-e358-11ea-99ec-54bf646e7e1f
f 69//69 70//70 72//72
f 72//72 70//70 71//71
g 4ef6637e-e358-11ea-b7f6-54bf646e7e1f
f 88//88 73//73 87//87
f 87//87 73//73 74//74
f 87//87 74//74 86//86
f 86//86 74//74 75//75
f 86//86 75//75 85//85
f 85//85 75//75 76//76
f 85//85 76//76 84//84
f 84//84 76//76 77//77
f 84//84 77//77 83//83
f 83//83 77//77 78//78
f 83//83 78//78 82//82
f 82//82 78//78 79//79
f 82//82 79//79 81//81
f 81//81 79//79 80//80
g 4ef6d8a8-e358-11ea-96c3-54bf646e7e1f
f 89//89 90//90 92//92
f 92//92 90//90 91//91
g 4ef726d0-e358-11ea-bff3-54bf646e7e1f
f 108//108 93//93 107//107
f 107//107 93//93 94//94
f 107//107 94//94 106//106
f 106//106 94//94 95//95
f 106//106 95//95 105//105
f 105//105 95//95 96//96
f 105//105 96//96 104//104
f 104//104 96//96 97//97
f 104//104 97//97 103//103
f 103//103 97//97 98//98
f 103//103 98//98 102//102
f 102//102 98//98 99//99
f 102//102 99//99 101//101
f 101//101 99//99 100//100
g 4ef79bfa-e358-11ea-b8a6-54bf646e7e1f
f 110//110 116//116 109//109
f 109//109 116//116 117//117
f 109//109 117//117 124//124
f 124//124 117//117 123//123
f 123//123 117//117 122//122
f 122//122 117//117 121//121
f 121//121 117//117 120//120
f 120//120 117//117 119//119
f 119//119 117//117 118//118
f 110//110 111//111 116//116
f 116//116 111//111 112//112
f 116//116 112//112 113//113
f 113//113 114//114 116//116
f 116//116 114//114 115//115
f 124//124 125//125 109//109
f 109//109 125//125 140//140
f 140//140 125//125 126//126
f 140//140 126//126 139//139
f 139//139 126//126 127//127
f 139//139 127//127 138//138
f 138//138 127//127 128//128
f 138//138 128//128 137//137
f 137//137 128//128 129//129
f 137//137 129//129 136//136
f 136//136 129//129 132//132
f 136//136 132//132 133//133
f 129//129 130//130 132//132
f 132//132 130//130 131//131
f 134//134 135//135 133//133
f 133//133 135//135 136//136
g 4ef8113a-e358-11ea-9226-54bf646e7e1f
f 142//142 176//176 141//141
f 141//141 176//176 145//145
f 141//141 145//145 149//149
f 149//149 145//145 148//148
f 148//148 145//145 147//147
f 147//147 145//145 146//146
f 143//143 168//168 142//142
f 142//142 168//168 169//169
f 142//142 169//169 170//170
f 144//144 161//161 143//143
f 143//143 161//161 163//163
f 143//143 163//163 164//164
f 141//141 153//153 144//144
f 144//144 153//153 154//154
f 144//144 154//154 155//155
f 149//149 150//150 141//141
f 141//141 150//150 151//151
f 141//141 151//151 152//152
f 152//152 153//153 141//141
f 155//155 156//156 144//144
f 144//144 156//156 157//157
f 144//144 157//157 158//158
f 159//159 160//160 158//158
f 158//158 160//160 144//144
f 160//160 161//161 144//144
f 161//161 162//162 163//163
f 164//164 165//165 143//143
f 143//143 165//165 166//166
f 143//143 166//166 167//167
f 167//167 168//168 143//143
f 170//170 171//171 142//142
f 142//142 171//171 172//172
f 142//142 172//172 176//176
f 176//176 172//172 173//173
f 176//176 173//173 174//174
f 174//174 175//175 176//176

# End of file