# WaveFront *.obj file
# Vertices: 222
# Triangles : 172

v 30.0 4.599999904632568 0.4000000059604645
v 30.0 4.599999904632568 3.5999999046325684
v 31.0 4.599999904632568 3.5999999046325684
v 31.0 4.599999904632568 0.4000000059604645
v 30.0 0.4000000059604645 0.4000000059604645
v 30.0 4.599999904632568 0.4000000059604645
v 31.0 4.599999904632568 0.4000000059604645
v 31.0 0.4000000059604645 0.4000000059604645
v 30.0 0.4000000059604645 3.5999999046325684
v 30.0 0.4000000059604645 0.4000000059604645
v 31.0 0.4000000059604645 0.4000000059604645
v 31.0 0.4000000059604645 3.5999999046325684
v 30.0 4.599999904632568 3.5999999046325684
v 30.0 0.4000000059604645 3.5999999046325684
v 31.0 0.4000000059604645 3.5999999046325684
v 31.0 4.599999904632568 3.5999999046325684
v 31.0 4.599999904632568 3.5999999046325684
v 31.0 0.4000000059604645 3.5999999046325684
v 31.0 0.4000000059604645 0.4000000059604645
v 31.0 4.599999904632568 0.4000000059604645
v 15.0 4.453875541687012 4.0
v 13.317790031433105 4.150362014770508 4.0
v 11.650105476379395 3.7751574516296387 4.0
v 10.0 3.328948736190796 4.0
v 10.0 3.328948736190796 3.0
v 11.650105476379395 3.7751574516296387 3.0
v 13.317790031433105 4.150362014770508 3.0
v 15.0 4.453875541687012 3.0
v 10.0 3.328948736190796 4.0
v 10.0 0.0 4.0
v 10.0 0.0 3.0
v 10.0 3.328948736190796 3.0
v 15.0 7.105427357601002e-15 4.0
v 15.0 4.453875541687012 4.0
v 15.0 4.453875541687012 3.0
v 15.0 7.105427357601002e-15 3.0
v 15.0 7.105427357601002e-15 3.0
v 15.0 4.453875541687012 3.0
v 13.317790031433105 4.150362014770508 3.0
v 11.650105476379395 3.7751574516296387 3.0
v 10.0 3.328948736190796 3.0
v 10.0 0.0 3.0
v 29.0 0.0 4.0
v 29.0 4.186838626861572 4.0
v 29.0 4.186838626861572 3.0
v 29.0 0.0 3.0
v 29.0 4.186838626861572 4.0
v 26.871335983276367 4.548342704772949 4.0
v 24.726247787475586 4.794302463531494 4.0
v 22.571002960205078 4.923999786376953 4.0
v 22.571002960205078 4.923999786376953 3.0
v 24.726247787475586 4.794302463531494 3.0
v 26.871335983276367 4.548342704772949 3.0
v 29.0 4.186838626861572 3.0
v 22.571002960205078 4.923999786376953 4.0
v 22.571002960205078 3.552713678800501e-15 4.0
v 22.571002960205078 3.552713678800501e-15 3.0
v 22.571002960205078 4.923999786376953 3.0
v 22.571002960205078 4.923999786376953 3.0
v 22.571002960205078 3.552713678800501e-15 3.0
v 29.0 0.0 3.0
v 29.0 4.186838626861572 3.0
v 26.871335983276367 4.548342704772949 3.0
v 24.726247787475586 4.794302463531494 3.0
v 15.0 7.105427357601002e-15 4.0
v 15.0 7.105427357601002e-15 3.0
v 10.0 0.0 3.0
v 10.0 0.0 4.0
v 0.0 0.0 4.0
v 0.0 0.0 0.0
v 10.0 0.0 0.0
v 10.0 0.0 1.0
v 15.0 0.0 1.0
v 15.0 0.0 0.0
v 22.5 0.0 0.0
v 22.5 0.0 1.0
v 29.0 0.0 1.0
v 29.0 0.0 0.0
v 30.0 0.0 0.0
v 30.0 0.0 4.0
v 29.0 0.0 4.0
v 29.0 0.0 3.0
v 22.571002960205078 3.552713678800501e-15 3.0
v 22.571002960205078 3.552713678800501e-15 4.0
v 22.5 4.926285743713379 0.0
v 24.67906379699707 4.798396110534668 0.0
v 26.847890853881836 4.5516676902771 0.0
v 29.0 4.186838626861572 0.0
v 29.0 4.186838626861572 1.0
v 26.847890853881836 4.5516676902771 1.0
v 24.67906379699707 4.798396110534668 1.0
v 22.5 4.926285743713379 1.0
v 29.0 4.186838626861572 0.0
v 29.0 0.0 0.0
v 29.0 0.0 1.0
v 29.0 4.186838626861572 1.0
v 22.5 0.0 0.0
v 22.5 4.926285743713379 0.0
v 22.5 4.926285743713379 1.0
v 22.5 0.0 1.0
v 22.5 0.0 1.0
v 22.5 4.926285743713379 1.0
v 24.67906379699707 4.798396110534668 1.0
v 26.847890853881836 4.5516676902771 1.0
v 29.0 4.186838626861572 1.0
v 29.0 0.0 1.0
v 10.0 0.0 0.0
v 10.0 3.328948736190796 0.0
v 10.0 3.328948736190796 1.0
v 10.0 0.0 1.0
v 10.0 3.328948736190796 0.0
v 11.650105476379395 3.7751574516296387 0.0
v 13.317790031433105 4.150362014770508 0.0
v 15.0 4.453875541687012 0.0
v 15.0 4.453875541687012 1.0
v 13.317790031433105 4.150362014770508 1.0
v 11.650105476379395 3.7751574516296387 1.0
v 10.0 3.328948736190796 1.0
v 15.0 4.453875541687012 0.0
v 15.0 0.0 0.0
v 15.0 0.0 1.0
v 15.0 4.453875541687012 1.0
v 15.0 0.0 1.0
v 10.0 0.0 1.0
v 10.0 3.328948736190796 1.0
v 11.650105476379395 3.7751574516296387 1.0
v 13.317790031433105 4.150362014770508 1.0
v 15.0 4.453875541687012 1.0
v 0.0 0.0 4.0
v 1.932982087135315 1.1028436422348022 4.0
v 3.923027992248535 2.099036931991577 4.0
v 5.964259147644043 2.9856369495391846 4.0
v 8.050644874572754 3.7600250244140625 4.0
v 10.176023483276367 4.419912815093994 4.0
v 12.334114074707031 4.963351726531982 4.0
v 14.51854419708252 5.388736248016357 4.0
v 16.722858428955078 5.6948089599609375 4.0
v 18.9405460357666 5.880666732788086 4.0
v 21.165058135986328 5.945760250091553 4.0
v 23.38981819152832 5.889896869659424 4.0
v 25.608259201049805 5.713242053985596 4.0
v 27.813823699951172 5.416317462921143 4.0
v 30.0 5.0 4.0
v 30.0 5.0 0.0
v 27.813823699951172 5.416317462921143 0.0
v 25.608259201049805 5.713242053985596 0.0
v 23.38981819152832 5.889896869659424 0.0
v 21.165058135986328 5.945760250091553 0.0
v 18.9405460357666 5.880666732788086 0.0
v 16.722858428955078 5.6948089599609375 0.0
v 14.51854419708252 5.388736248016357 0.0
v 12.334114074707031 4.963351726531982 0.0
v 10.176023483276367 4.419912815093994 0.0
v 8.050644874572754 3.7600250244140625 0.0
v 5.964259147644043 2.9856369495391846 0.0
v 3.923027992248535 2.099036931991577 0.0
v 1.932982087135315 1.1028436422348022 0.0
v 0.0 0.0 0.0
v 15.0 4.453875541687012 4.0
v 15.0 7.105427357601002e-15 4.0
v 22.571002960205078 3.552713678800501e-15 4.0
v 22.571002960205078 4.923999786376953 4.0
v 24.726247787475586 4.794302463531494 4.0
v 26.871335983276367 4.548342704772949 4.0
v 29.0 4.186838626861572 4.0
v 29.0 0.0 4.0
v 30.0 0.0 4.0
v 30.0 5.0 4.0
v 27.813823699951172 5.416317462921143 4.0
v 25.608259201049805 5.713242053985596 4.0
v 23.38981819152832 5.889896869659424 4.0
v 21.165058135986328 5.945760250091553 4.0
v 18.9405460357666 5.880666732788086 4.0
v 16.722858428955078 5.6948089599609375 4.0
v 14.51854419708252 5.388736248016357 4.0
v 12.334114074707031 4.963351726531982 4.0
v 10.176023483276367 4.419912815093994 4.0
v 8.050644874572754 3.7600250244140625 4.0
v 5.964259147644043 2.9856369495391846 4.0
v 3.923027992248535 2.099036931991577 4.0
v 1.932982087135315 1.1028436422348022 4.0
v 0.0 0.0 4.0
v 10.0 0.0 4.0
v 10.0 3.328948736190796 4.0
v 11.650105476379395 3.7751574516296387 4.0
v 13.317790031433105 4.150362014770508 4.0
v 22.5 4.926285743713379 0.0
v 22.5 0.0 0.0
v 15.0 0.0 0.0
v 15.0 4.453875541687012 0.0
v 13.317790031433105 4.150362014770508 0.0
v 11.650105476379395 3.7751574516296387 0.0
v 10.0 3.328948736190796 0.0
v 10.0 0.0 0.0
v 0.0 0.0 0.0
v 1.932982087135315 1.1028436422348022 0.0
v 3.923027992248535 2.099036931991577 0.0
v 5.964259147644043 2.9856369495391846 0.0
v 8.050644874572754 3.7600250244140625 0.0
v 10.176023483276367 4.419912815093994 0.0
v 12.334114074707031 4.963351726531982 0.0
v 14.51854419708252 5.388736248016357 0.0
v 16.722858428955078 5.6948089599609375 0.0
v 18.9405460357666 5.880666732788086 0.0
v 21.165058135986328 5.945760250091553 0.0
v 23.38981819152832 5.889896869659424 0.0
v 25.608259201049805 5.713242053985596 0.0
v 27.813823699951172 5.416317462921143 0.0
v 30.0 5.0 0.0
v 30.0 0.0 0.0
v 29.0 0.0 0.0
v 29.0 4.186838626861572 0.0
v 26.847890853881836 4.5516676902771 0.0
v 24.67906379699707 4.798396110534668 0.0
v 30.0 4.599999904632568 3.5999999046325684
v 30.0 4.599999904632568 0.4000000059604645
v 30.0 0.4000000059604645 0.4000000059604645
v 30.0 0.4000000059604645 3.5999999046325684
v 30.0 5.0 0.0
v 30.0 5.0 4.0
v 30.0 0.0 4.0
v 30.0 0.0 0.0
vn 0.0 1.0 0.0
vn 0.0 1.0 0.0
vn 0.0 1.0 0.0
vn 0.0 1.0 0.0
vn 0.0 2.643388161747331e-17 -1.0
vn 0.0 2.643388161747331e-17 -1.0
vn 0.0 2.643388161747331e-17 -1.0
vn 0.0 2.643388161747331e-17 -1.0
vn 0.0 -1.0 0.0
vn 0.0 -1.0 0.0
vn 0.0 -1.0 0.0
vn 0.0 -1.0 0.0
vn -0.0 0.0 1.0
vn -0.0 0.0 1.0
vn -0.0 0.0 1.0
vn -0.0 0.0 1.0
vn 1.0 0.0 0.0
vn 1.0 0.0 0.0
vn 1.0 0.0 0.0
vn 1.0 0.0 0.0
vn 0.15646182000637054 -0.9876840114593506 0.0
vn 0.19857408106327057 -0.9800859093666077 0.0
vn 0.24032270908355713 -0.970693051815033 0.0
vn 0.2816312611103058 -0.9595227241516113 0.0
vn 0.2816312611103058 -0.9595227241516113 0.0
vn 0.24032270908355713 -0.970693051815033 0.0
vn 0.19857408106327057 -0.9800859093666077 0.0
vn 0.15646182000637054 -0.9876840114593506 0.0
vn 1.0 -1.0672178913436348e-15 -0.0
vn 1.0 -1.0672178913436348e-15 -0.0
vn 1.0 -1.0672178913436348e-15 -0.0
vn 1.0 -1.0672178913436348e-15 -0.0
vn -1.0 3.9883396001393946e-16 -0.0
vn -1.0 3.9883396001393946e-16 -0.0
vn -1.0 3.9883396001393946e-16 -0.0
vn -1.0 3.9883396001393946e-16 -0.0
vn 0.0 0.0 1.0
vn 0.0 0.0 1.0
vn 0.0 0.0 1.0
vn 0.0 0.0 1.0
vn 0.0 0.0 1.0
vn 0.0 0.0 1.0
vn -1.0 3.552713678800501e-15 -0.0
vn -1.0 3.552713678800501e-15 -0.0
vn -1.0 3.552713678800501e-15 -0.0
vn -1.0 3.552713678800501e-15 -0.0
vn -0.19401265680789948 -0.9809990525245667 -0.0
vn -0.14072389900684357 -0.990048885345459 -0.0
vn -0.08702399581670761 -0.9962062239646912 -0.0
vn -0.033069852739572525 -0.999453067779541 -0.0
vn -0.033069852739572525 -0.999453067779541 -0.0
vn -0.08702399581670761 -0.9962062239646912 -0.0
vn -0.14072389900684357 -0.990048885345459 -0.0
vn -0.19401265680789948 -0.9809990525245667 -0.0
vn 1.0 -7.215097054325871e-16 -0.0
vn 1.0 -7.215097054325871e-16 -0.0
vn 1.0 -7.215097054325871e-16 -0.0
vn 1.0 -7.215097054325871e-16 -0.0
vn 0.0 0.0 1.0
vn 0.0 0.0 1.0
vn 0.0 0.0 1.0
vn 0.0 0.0 1.0
vn 0.0 0.0 1.0
vn 0.0 0.0 1.0
vn -0.0 -1.0 -0.0
vn -0.0 -1.0 -0.0
vn -0.0 -1.0 -0.0
vn -0.0 -1.0 -0.0
vn -0.0 -1.0 -0.0
vn -0.0 -1.0 -0.0
vn -0.0 -1.0 -0.0
vn -0.0 -1.0 -0.0
vn -0.0 -1.0 -0.0
vn -0.0 -1.0 -0.0
vn -0.0 -1.0 -0.0
vn -0.0 -1.0 -0.0
vn -0.0 -1.0 -0.0
vn -0.0 -1.0 -0.0
vn -0.0 -1.0 -0.0
vn -0.0 -1.0 -0.0
vn -0.0 -1.0 -0.0
vn -0.0 -1.0 -0.0
vn -0.0 -1.0 -0.0
vn -0.0 -1.0 -0.0
vn -0.03129236400127411 -0.9995102882385254 0.0
vn -0.08584282547235489 -0.9963086843490601 0.0
vn -0.1401369720697403 -0.9901321530342102 0.0
vn -0.19401265680789948 -0.9809990525245667 0.0
vn -0.19401265680789948 -0.9809990525245667 0.0
vn -0.1401369720697403 -0.9901321530342102 0.0
vn -0.08584282547235489 -0.9963086843490601 0.0
vn -0.03129236400127411 -0.9995102882385254 0.0
vn -1.0 2.2296164514537618e-15 -0.0
vn -1.0 2.2296164514537618e-15 -0.0
vn -1.0 2.2296164514537618e-15 -0.0
vn -1.0 2.2296164514537618e-15 -0.0
vn 1.0 -0.0 -0.0
vn 1.0 -0.0 -0.0
vn 1.0 -0.0 -0.0
vn 1.0 -0.0 -0.0
vn 0.0 0.0 -1.0
vn 0.0 0.0 -1.0
vn 0.0 0.0 -1.0
vn 0.0 0.0 -1.0
vn 0.0 0.0 -1.0
vn 0.0 0.0 -1.0
vn 1.0 -0.0 -0.0
vn 1.0 -0.0 -0.0
vn 1.0 -0.0 -0.0
vn 1.0 -0.0 -0.0
vn 0.2816312611103058 -0.9595227241516113 0.0
vn 0.24032270908355713 -0.970693051815033 0.0
vn 0.19857408106327057 -0.9800859093666077 0.0
vn 0.15646182000637054 -0.9876840114593506 0.0
vn 0.15646182000637054 -0.9876840114593506 0.0
vn 0.19857408106327057 -0.9800859093666077 0.0
vn 0.24032270908355713 -0.970693051815033 0.0
vn 0.2816312611103058 -0.9595227241516113 0.0
vn -1.0 -7.976679200278789e-16 0.0
vn -1.0 -7.976679200278789e-16 0.0
vn -1.0 -7.976679200278789e-16 0.0
vn -1.0 -7.976679200278789e-16 0.0
vn 0.0 0.0 -1.0
vn 0.0 0.0 -1.0
vn 0.0 0.0 -1.0
vn 0.0 0.0 -1.0
vn 0.0 0.0 -1.0
vn 0.0 0.0 -1.0
vn -0.5189781188964844 0.8547875285148621 -0.0
vn -0.47176986932754517 0.8817217350006104 -0.0
vn -0.42316797375679016 0.9060512185096741 -0.0
vn -0.3733160197734833 0.9277042150497437 -0.0
vn -0.3223612606525421 0.9466167092323303 -0.0
vn -0.27045419812202454 0.9627328515052795 -0.0
vn -0.21774820983409882 0.976004958152771 -0.0
vn -0.16439898312091827 0.986393928527832 -0.0
vn -0.11056411266326904 0.9938690066337585 -0.0
vn -0.05640261992812157 0.9984080791473389 -0.0
vn -0.0020745142828673124 0.9999978542327881 -0.0
vn 0.052259720861911774 0.9986335039138794 -0.0
vn 0.10643957555294037 0.9943192005157471 -0.0
vn 0.16030500829219818 0.9870675206184387 -0.0
vn 0.21369688212871552 0.976900041103363 -0.0
vn 0.21369688212871552 0.976900041103363 -0.0
vn 0.16030500829219818 0.9870675206184387 -0.0
vn 0.10643957555294037 0.9943192005157471 -0.0
vn 0.052259720861911774 0.9986335039138794 -0.0
vn -0.0020745142828673124 0.9999978542327881 -0.0
vn -0.05640261992812157 0.9984080791473389 -0.0
vn -0.11056411266326904 0.9938690066337585 -0.0
vn -0.16439898312091827 0.986393928527832 -0.0
vn -0.21774820983409882 0.976004958152771 -0.0
vn -0.27045419812202454 0.9627328515052795 -0.0
vn -0.3223612606525421 0.9466167092323303 -0.0
vn -0.3733160197734833 0.9277042150497437 -0.0
vn -0.42316797375679016 0.9060512185096741 -0.0
vn -0.47176986932754517 0.8817217350006104 -0.0
vn -0.5189781188964844 0.8547875285148621 -0.0
vn 0.0 -0.0 1.0
vn 0.0 -0.0 1.0
vn 0.0 -0.0 1.0
vn 0.0 -0.0 1.0
vn 0.0 -0.0 1.0
vn 0.0 -0.0 1.0
vn 0.0 -0.0 1.0
vn 0.0 -0.0 1.0
vn 0.0 -0.0 1.0
vn 0.0 -0.0 1.0
vn 0.0 -0.0 1.0
vn 0.0 -0.0 1.0
vn 0.0 -0.0 1.0
vn 0.0 -0.0 1.0
vn 0.0 -0.0 1.0
vn 0.0 -0.0 1.0
vn 0.0 -0.0 1.0
vn 0.0 -0.0 1.0
vn 0.0 -0.0 1.0
vn 0.0 -0.0 1.0
vn 0.0 -0.0 1.0
vn 0.0 -0.0 1.0
vn 0.0 -0.0 1.0
vn 0.0 -0.0 1.0
vn 0.0 -0.0 1.0
vn 0.0 -0.0 1.0
vn 0.0 -0.0 1.0
vn 0.0 -0.0 1.0
vn 0.0 0.0 -1.0
vn 0.0 0.0 -1.0
vn 0.0 0.0 -1.0
vn 0.0 0.0 -1.0
vn 0.0 0.0 -1.0
vn 0.0 0.0 -1.0
vn 0.0 0.0 -1.0
vn 0.0 0.0 -1.0
vn 0.0 0.0 -1.0
vn 0.0 0.0 -1.0
vn 0.0 0.0 -1.0
vn 0.0 0.0 -1.0
vn 0.0 0.0 -1.0
vn 0.0 0.0 -1.0
vn 0.0 0.0 -1.0
vn 0.0 0.0 -1.0
vn 0.0 0.0 -1.0
vn 0.0 0.0 -1.0
vn 0.0 0.0 -1.0
vn 0.0 0.0 -1.0
vn 0.0 0.0 -1.0
vn 0.0 0.0 -1.0
vn 0.0 0.0 -1.0
vn 0.0 0.0 -1.0
vn 0.0 0.0 -1.0
vn 0.0 0.0 -1.0
vn 0.0 0.0 -1.0
vn 0.0 0.0 -1.0
vn 1.0 0.0 0.0
vn 1.0 0.0 0.0
vn 1.0 0.0 0.0
vn 1.0 0.0 0.0
vn 1.0 0.0 0.0
vn 1.0 0.0 0.0
vn 1.0 0.0 0.0
vn 1.0 0.0 0.0
g f91b69ae-e35f-11ea-9b7f-54bf646e7e1f
f 1//1 2//2 4//4
f 4//4 2//2 3//3
g f91cc95c-e35f-11ea-8609-54bf646e7e1f
f 5//5 6//6 8//8
f 8//8 6//6 7//7
g f91fafc8-e35f-11ea-b300-54bf646e7e1f
f 9//9 10//10 12//12
f 12//12 10//10 11//11
g f92135ec-e35f-11ea-ab2a-54bf646e7e1f
f 13//13 14//14 16//16
f 16//16 14//14 15//15
g f9226e54-e35f-11ea-a1c3-54bf646e7e1f
f 18//18 19//19 17//17
f 17//17 19//19 20//20
g f8c0ef7a-e35f-11ea-86a9-54bf646e7e1f
f 28//28 21//21 27//27
f 27//27 21//21 22//22
f 27//27 22//22 26//26
f 26//26 22//22 23//23
f 26//26 23//23 25//25
f 25//25 23//23 24//24
g f8c227e8-e35f-11ea-bc62-54bf646e7e1f
f 29//29 30//30 32//32
f 32//32 30//30 31//31
g f8c36076-e35f-11ea-8028-54bf646e7e1f
f 33//33 34//34 36//36
f 36//36 34//34 35//35
g f8c471ca-e35f-11ea-ad5e-54bf646e7e1f
f 38//38 39//39 37//37
f 37//37 39//39 40//40
f 37//37 40//40 42//42
f 42//42 40//40 41//41
g f8c55c22-e35f-11ea-8e44-54bf646e7e1f
f 43//43 44//44 46//46
f 46//46 44//44 45//45
g f8c66da6-e35f-11ea-8ec8-54bf646e7e1f
f 54//54 47//47 53//53
f 53//53 47//47 48//48
f 53//53 48//48 52//52
f 52//52 48//48 49//49
f 52//52 49//49 51//51
f 51//51 49//49 50//50
g f8c7cd0c-e35f-11ea-a2eb-54bf646e7e1f
f 55//55 56//56 58//58
f 58//58 56//56 57//57
g f8c90592-e35f-11ea-ac70-54bf646e7e1f
f 59//59 60//60 64//64
f 64//64 60//60 63//63
f 63//63 60//60 61//61
f 63//63 61//61 62//62
g f831359e-e35f-11ea-a79f-54bf646e7e1f
f 84//84 65//65 83//83
f 83//83 65//65 66//66
f 83//83 66//66 76//76
f 76//76 66//66 73//73
f 76//76 73//73 75//75
f 75//75 73//73 74//74
f 66//66 67//67 73//73
f 73//73 67//67 72//72
f 72//72 67//67 69//69
f 72//72 69//69 70//70
f 67//67 68//68 69//69
f 70//70 71//71 72//72
f 76//76 77//77 83//83
f 83//83 77//77 82//82
f 82//82 77//77 80//80
f 82//82 80//80 81//81
f 78//78 79//79 77//77
f 77//77 79//79 80//80
g f884d21c-e35f-11ea-b40a-54bf646e7e1f
f 92//92 85//85 91//91
f 91//91 85//85 86//86
f 91//91 86//86 90//90
f 90//90 86//86 87//87
f 90//90 87//87 89//89
f 89//89 87//87 88//88
g f8859568-e35f-11ea-b127-54bf646e7e1f
f 93//93 94//94 96//96
f 96//96 94//94 95//95
g f88658ac-e35f-11ea-a54c-54bf646e7e1f
f 97//97 98//98 100//100
f 100//100 98//98 99//99
g f886cde2-e35f-11ea-a867-54bf646e7e1f
f 102//102 103//103 101//101
f 101//101 103//103 104//104
f 101//101 104//104 106//106
f 106//106 104//104 105//105
g f8876a1a-e35f-11ea-966d-54bf646e7e1f
f 107//107 108//108 110//110
f 110//110 108//108 109//109
g f888547a-e35f-11ea-8eab-54bf646e7e1f
f 118//118 111//111 117//117
f 117//117 111//111 112//112
f 117//117 112//112 116//116
f 116//116 112//112 113//113
f 116//116 113//113 115//115
f 115//115 113//113 114//114
g f88917b8-e35f-11ea-9ede-54bf646e7e1f
f 119//119 120//120 122//122
f 122//122 120//120 121//121
g f889daf6-e35f-11ea-99b4-54bf646e7e1f
f 124//124 126//126 123//123
f 123//123 126//126 127//127
f 123//123 127//127 128//128
f 124//124 125//125 126//126
g f859a458-e35f-11ea-aae6-54bf646e7e1f
f 158//158 129//129 157//157
f 157//157 129//129 130//130
f 157//157 130//130 156//156
f 156//156 130//130 131//131
f 156//156 131//131 155//155
f 155//155 131//131 132//132
f 155//155 132//132 154//154
f 154//154 132//132 133//133
f 154//154 133//133 153//153
f 153//153 133//133 134//134
f 153//153 134//134 152//152
f 152//152 134//134 135//135
f 152//152 135//135 151//151
f 151//151 135//135 136//136
f 151//151 136//136 150//150
f 150//150 136//136 137//137
f 150//150 137//137 149//149
f 149//149 137//137 138//138
f 149//149 138//138 148//148
f 148//148 138//138 139//139
f 148//148 139//139 147//147
f 147//147 139//139 140//140
f 147//147 140//140 146//146
f 146//146 140//140 141//141
f 146//146 141//141 145//145
f 145//145 141//141 142//142
f 145//145 142//142 144//144
f 144//144 142//142 143//143
g f830242c-e35f-11ea-b8d5-54bf646e7e1f
f 160//160 161//161 159//159
f 159//159 161//161 162//162
f 159//159 162//162 174//174
f 174//174 162//162 173//173
f 173//173 162//162 172//172
f 172//172 162//162 171//171
f 171//171 162//162 170//170
f 170//170 162//162 163//163
f 170//170 163//163 169//169
f 169//169 163//163 164//164
f 169//169 164//164 168//168
f 168//168 164//164 165//165
f 168//168 165//165 167//167
f 167//167 165//165 166//166
f 174//174 175//175 159//159
f 159//159 175//175 176//176
f 159//159 176//176 186//186
f 186//186 176//176 177//177
f 186//186 177//177 185//185
f 185//185 177//177 178//178
f 185//185 178//178 184//184
f 184//184 178//178 179//179
f 184//184 179//179 180//180
f 184//184 180//180 183//183
f 183//183 180//180 181//181
f 183//183 181//181 182//182
g f82e0154-e35f-11ea-a00f-54bf646e7e1f
f 188//188 190//190 187//187
f 187//187 190//190 203//203
f 187//187 203//203 204//204
f 188//188 189//189 190//190
f 191//191 201//201 190//190
f 190//190 201//201 202//202
f 190//190 202//202 203//203
f 201//201 191//191 200//200
f 200//200 191//191 192//192
f 200//200 192//192 199//199
f 199//199 192//192 193//193
f 199//199 193//193 198//198
f 198//198 193//193 197//197
f 197//197 193//193 194//194
f 197//197 194//194 196//196
f 196//196 194//194 195//195
f 204//204 205//205 187//187
f 187//187 205//205 206//206
f 187//187 206//206 207//207
f 187//187 207//207 214//214
f 214//214 207//207 208//208
f 214//214 208//208 213//213
f 213//213 208//208 209//209
f 213//213 209//209 212//212
f 212//212 209//209 210//210
f 212//212 210//210 211//211
g f82f87fe-e35f-11ea-b2c4-54bf646e7e1f
f 216//216 220//220 215//215
f 215//215 220//220 221//221
f 215//215 221//221 218//218
f 218//218 221//221 222//222
f 218//218 222//222 217//217
f 217//217 222//222 216//216
f 216//216 222//222 219//219
f 216//216 219//219 220//220

# End of file