# WaveFront *.obj file
# Vertices: 144
# Triangles : 114

v 5.158819675445557 0.5056539177894592 -6.425948143005371
v 5.158819675445557 0.5068144798278809 -6.425948143005371
v 4.945078372955322 0.5068144798278809 -6.142559051513672
v 4.945078372955322 0.5035013556480408 -6.142559051513672
v 4.96104621887207 0.5068144798278809 -6.130516052246094
v 4.945078372955322 0.5035013556480408 -6.142559051513672
v 4.945078372955322 0.5068144798278809 -6.142559051513672
v 5.158819675445557 0.5068144798278809 -6.425948143005371
v 5.175228118896484 0.5068144798278809 -6.414489269256592
v 4.96104621887207 0.5068144798278809 -6.130516052246094
v 4.945078372955322 0.5068144798278809 -6.142559051513672
v 5.175228118896484 0.5068144798278809 -6.414489269256592
v 5.158819675445557 0.5068144798278809 -6.425948143005371
v 5.158819675445557 0.5056539177894592 -6.425948143005371
v 3.1255545616149902 0.09455247223377228 -7.845865726470947
v 3.1255545616149902 2.0 -7.845865726470947
v 5.175228118896484 2.0 -6.414489269256592
v 5.158819675445557 0.5056539177894592 -6.425948143005371
v 4.945078372955322 0.5035013556480408 -6.142559051513672
v 4.96104621887207 0.5068144798278809 -6.130516052246094
v 3.0 0.11031485348939896 -7.5
v 2.9718079566955566 0.10439328104257584 -7.522021293640137
v 2.9424784183502197 0.09846322238445282 -7.542503356933594
v 2.912095546722412 0.0925416499376297 -7.561387538909912
v 2.4543941020965576 0.0 -7.881020545959473
v 2.535236358642578 0.0 -7.996783256530762
v 2.6897213459014893 0.021338727325201035 -7.99316930770874
v 2.841897964477539 0.04456927254796028 -7.9663166999816895
v 2.9882900714874268 0.0691610723733902 -7.916838645935059
v 3.1255545616149902 0.09455247223377228 -7.845865726470947
v 2.912095546722412 0.0925416499376297 -7.561387538909912
v 2.912095546722412 0.0 -7.561387538909912
v 2.4543941020965576 0.0 -7.881020545959473
v 3.1255545616149902 0.09455247223377228 -7.845865726470947
v 2.9882900714874268 0.0691610723733902 -7.916838645935059
v 2.841897964477539 0.04456927254796028 -7.9663166999816895
v 2.6897213459014893 0.021338727325201035 -7.99316930770874
v 2.535236358642578 0.0 -7.996783256530762
v 2.3539514541625977 0.0 -7.970881938934326
v 2.1801939010620117 0.0 -7.913059711456299
v 2.0195372104644775 0.0 -7.825170993804932
v 1.877134084701538 0.0 -7.710034370422363
v 1.7575522661209106 0.0 -7.571343421936035
v 1.6646273136138916 0.0 -7.413546085357666
v 1.60133957862854 0.0 -7.241703987121582
v 1.60133957862854 2.0 -7.241703987121582
v 1.6675851345062256 2.0 -7.419734001159668
v 1.765617847442627 2.0 -7.5824384689331055
v 1.892054557800293 2.0 -7.7242021560668945
v 2.0425314903259277 2.0 -7.840132236480713
v 2.21185564994812 2.0 -7.9262285232543945
v 2.3941831588745117 2.0 -7.979518413543701
v 2.583221673965454 2.0 -7.998164176940918
v 2.772446870803833 2.0 -7.981521129608154
v 2.9553284645080566 2.0 -7.930163860321045
v 3.1255545616149902 2.0 -7.845865726470947
v 2.535236358642578 0.0 -7.996783256530762
v 2.4543941020965576 0.0 -7.881020545959473
v 2.912095546722412 0.0 -7.561387538909912
v 2.7718777656555176 0.0 -7.62308931350708
v 2.6212968826293945 0.0 -7.651257038116455
v 2.468256711959839 0.0 -7.644412517547607
v 2.320791482925415 0.0 -7.602915287017822
v 2.1866414546966553 0.0 -7.528943061828613
v 2.0728487968444824 0.0 -7.426379203796387
v 1.9853869676589966 0.0 -7.300607681274414
v 1.9288469552993774 0.0 -7.158230304718018
v 0.0 0.0 0.0
v -0.3499999940395355 0.0 0.0
v 1.60133957862854 0.0 -7.241703987121582
v 1.6646273136138916 0.0 -7.413546085357666
v 1.7575522661209106 0.0 -7.571343421936035
v 1.877134084701538 0.0 -7.710034370422363
v 2.0195372104644775 0.0 -7.825170993804932
v 2.1801939010620117 0.0 -7.913059711456299
v 2.3539514541625977 0.0 -7.970881938934326
v 2.912095546722412 0.0 -7.561387538909912
v 2.912095546722412 0.0925416499376297 -7.561387538909912
v 2.9424784183502197 0.09846322238445282 -7.542503356933594
v 2.9718079566955566 0.10439328104257584 -7.522021293640137
v 3.0 0.11031485348939896 -7.5
v 3.0 2.0 -7.5
v 2.876037359237671 2.0 -7.5810227394104
v 2.7372801303863525 2.0 -7.632771015167236
v 2.5905356407165527 2.0 -7.652706623077393
v 2.4430019855499268 2.0 -7.639851093292236
v 2.3019168376922607 2.0 -7.5948357582092285
v 2.174201011657715 2.0 -7.519867897033691
v 2.066120147705078 2.0 -7.418625831604004
v 1.9829758405685425 2.0 -7.29607629776001
v 1.9288469552993774 2.0 -7.158230304718018
v 1.9288469552993774 0.0 -7.158230304718018
v 1.9853869676589966 0.0 -7.300607681274414
v 2.0728487968444824 0.0 -7.426379203796387
v 2.1866414546966553 0.0 -7.528943061828613
v 2.320791482925415 0.0 -7.602915287017822
v 2.468256711959839 0.0 -7.644412517547607
v 2.6212968826293945 0.0 -7.651257038116455
v 2.7718777656555176 0.0 -7.62308931350708
v 0.0 0.0 0.0
v 1.9288469552993774 0.0 -7.158230304718018
v 1.9288469552993774 2.0 -7.158230304718018
v 0.0 2.0 0.0
v -0.3499999940395355 0.0 0.0
v 0.0 0.0 0.0
v 0.0 2.0 0.0
v -0.3499999940395355 2.0 0.0
v 1.60133957862854 0.0 -7.241703987121582
v -0.3499999940395355 0.0 0.0
v -0.3499999940395355 2.0 0.0
v 1.60133957862854 2.0 -7.241703987121582
v 4.96104621887207 0.5068144798278809 -6.130516052246094
v 5.175228118896484 0.5068144798278809 -6.414489269256592
v 5.175228118896484 2.0 -6.414489269256592
v 4.96104621887207 2.0 -6.130516052246094
v 3.0 0.11031485348939896 -7.5
v 4.96104621887207 0.5068144798278809 -6.130516052246094
v 4.96104621887207 2.0 -6.130516052246094
v 3.0 2.0 -7.5
v 3.0 2.0 -7.5
v 4.96104621887207 2.0 -6.130516052246094
v 5.175228118896484 2.0 -6.414489269256592
v 3.1255545616149902 2.0 -7.845865726470947
v 2.9553284645080566 2.0 -7.930163860321045
v 2.772446870803833 2.0 -7.981521129608154
v 2.583221673965454 2.0 -7.998164176940918
v 2.3941831588745117 2.0 -7.979518413543701
v 2.21185564994812 2.0 -7.9262285232543945
v 2.0425314903259277 2.0 -7.840132236480713
v 1.892054557800293 2.0 -7.7242021560668945
v 1.765617847442627 2.0 -7.5824384689331055
v 1.6675851345062256 2.0 -7.419734001159668
v 1.60133957862854 2.0 -7.241703987121582
v -0.3499999940395355 2.0 0.0
v 0.0 2.0 0.0
v 1.9288469552993774 2.0 -7.158230304718018
v 1.9829758405685425 2.0 -7.29607629776001
v 2.066120147705078 2.0 -7.418625831604004
v 2.174201011657715 2.0 -7.519867897033691
v 2.3019168376922607 2.0 -7.5948357582092285
v 2.4430019855499268 2.0 -7.639851093292236
v 2.5905356407165527 2.0 -7.652706623077393
v 2.7372801303863525 2.0 -7.632771015167236
v 2.876037359237671 2.0 -7.5810227394104
vn 0.7983747124671936 -0.0 0.6021609306335449
vn 0.7983747124671936 -0.0 0.6021609306335449
vn 0.7983747124671936 -0.0 0.6021609306335449
vn 0.7983747124671936 -0.0 0.6021609306335449
vn 0.6021609306335449 -0.0 -0.7983747124671936
vn 0.6021609306335449 -0.0 -0.7983747124671936
vn 0.6021609306335449 -0.0 -0.7983747124671936
vn -0.0 -1.0 -0.0
vn -0.0 -1.0 -0.0
vn -0.0 -1.0 -0.0
vn -0.0 -1.0 -0.0
vn 0.5725505948066711 0.0 -0.8198693990707397
vn 0.5725505948066711 0.0 -0.8198693990707397
vn 0.5725505948066711 0.0 -0.8198693990707397
vn 0.5725505948066711 0.0 -0.8198693990707397
vn 0.5725505948066711 0.0 -0.8198693990707397
vn 0.5725505948066711 0.0 -0.8198693990707397
vn 0.13407811522483826 -0.9865373969078064 0.09363259375095367
vn 0.13407811522483826 -0.9865373969078064 0.09363259375095367
vn 0.13407811522483826 -0.9865373969078064 0.09363259375095367
vn 0.13407811522483826 -0.9865373969078064 0.09363259375095367
vn 0.13407811522483826 -0.9865373969078064 0.09363259375095367
vn 0.13407811522483826 -0.9865373969078064 0.09363259375095367
vn 0.13407811522483826 -0.9865373969078064 0.09363259375095367
vn 0.13407811522483826 -0.9865373969078064 0.09363259375095367
vn 0.13407811522483826 -0.9865373969078064 0.09363259375095367
vn 0.13407811522483826 -0.9865373969078064 0.09363259375095367
vn 0.13407811522483826 -0.9865373969078064 0.09363259375095367
vn 0.13407811522483826 -0.9865373969078064 0.09363259375095367
vn 0.13407811522483826 -0.9865373969078064 0.09363259375095367
vn 0.5725505948066711 -0.0 -0.8198693990707397
vn 0.5725505948066711 -0.0 -0.8198693990707397
vn 0.5725505948066711 -0.0 -0.8198693990707397
vn 0.5251002311706543 -0.0 -0.8510404229164124
vn 0.3908575177192688 -0.0 -0.9204512238502502
vn 0.24768801033496857 -0.0 -0.9688398241996765
vn 0.09886159002780914 -0.0 -0.9951012134552002
vn -0.052222736179828644 0.0 -0.998635470867157
vn -0.22951675951480865 0.0 -0.9733046889305115
vn -0.39944908022880554 0.0 -0.9167553782463074
vn -0.5565691590309143 0.0 -0.8308013081550598
vn -0.6958373785018921 0.0 -0.7181993722915649
vn -0.8127866983413696 0.0 -0.5825613737106323
vn -0.903666079044342 0.0 -0.42823782563209534
vn -0.9655604958534241 0.0 -0.2601786255836487
vn -0.9655604958534241 0.0 -0.2601786255836487
vn -0.9007733464241028 0.0 -0.43428951501846313
vn -0.8048986792564392 0.0 -0.5934122204780579
vn -0.6812453866004944 0.0 -0.732055127620697
vn -0.534080982208252 0.0 -0.8454332947731018
vn -0.36848437786102295 0.0 -0.9296339154243469
vn -0.19017063081264496 0.0 -0.9817510843276978
vn -0.005293715745210648 0.0 -0.9999859929084778
vn 0.17976589500904083 -0.0 -0.9837093949317932
vn 0.35862141847610474 -0.0 -0.9334830641746521
vn 0.5251002311706543 -0.0 -0.8510404229164124
vn -0.0 -1.0 -0.0
vn -0.0 -1.0 -0.0
vn -0.0 -1.0 -0.0
vn -0.0 -1.0 -0.0
vn -0.0 -1.0 -0.0
vn -0.0 -1.0 -0.0
vn -0.0 -1.0 -0.0
vn -0.0 -1.0 -0.0
vn -0.0 -1.0 -0.0
vn -0.0 -1.0 -0.0
vn -0.0 -1.0 -0.0
vn -0.0 -1.0 -0.0
vn -0.0 -1.0 -0.0
vn -0.0 -1.0 -0.0
vn -0.0 -1.0 -0.0
vn -0.0 -1.0 -0.0
vn -0.0 -1.0 -0.0
vn -0.0 -1.0 -0.0
vn -0.0 -1.0 -0.0
vn -0.0 -1.0 -0.0
vn -0.5049729943275452 0.0 0.8631351590156555
vn -0.5049729943275452 0.0 0.8631351590156555
vn -0.5504133105278015 0.0 0.8348923325538635
vn -0.5942780375480652 0.0 0.8042596578598022
vn -0.636441707611084 0.0 0.7713248133659363
vn -0.636441707611084 0.0 0.7713248133659363
vn -0.4510447680950165 0.0 0.8925012946128845
vn -0.24352149665355682 0.0 0.9698954820632935
vn -0.024052098393440247 0.0 0.9997106790542603
vn 0.19659720361232758 -0.0 0.9804843664169312
vn 0.4076022803783417 -0.0 0.9131595492362976
vn 0.5986121296882629 -0.0 0.8010390400886536
vn 0.7602565288543701 -0.0 0.649622917175293
vn 0.8846060633659363 -0.0 0.4663390815258026
vn 0.9655604958534241 -0.0 0.2601786255836487
vn 0.9655604958534241 -0.0 0.2601786255836487
vn 0.8809999823570251 -0.0 0.47311630845069885
vn 0.750193178653717 -0.0 0.6612187027931213
vn 0.5800065398216248 -0.0 0.8146117925643921
vn 0.3793736398220062 -0.0 0.9252435564994812
vn 0.1588263064622879 -0.0 0.987306535243988
vn -0.07005827873945236 0.0 0.9975429177284241
vn -0.2952653169631958 0.0 0.9554153084754944
vn 0.9655604958534241 -0.0 0.2601786255836487
vn 0.9655604958534241 -0.0 0.2601786255836487
vn 0.9655604958534241 -0.0 0.2601786255836487
vn 0.9655604958534241 -0.0 0.2601786255836487
vn 0.0 0.0 1.0
vn 0.0 0.0 1.0
vn 0.0 0.0 1.0
vn 0.0 0.0 1.0
vn -0.9655604958534241 0.0 -0.2601786255836487
vn -0.9655604958534241 0.0 -0.2601786255836487
vn -0.9655604958534241 0.0 -0.2601786255836487
vn -0.9655604958534241 0.0 -0.2601786255836487
vn 0.7983747124671936 -0.0 0.6021609306335449
vn 0.7983747124671936 -0.0 0.6021609306335449
vn 0.7983747124671936 -0.0 0.6021609306335449
vn 0.7983747124671936 -0.0 0.6021609306335449
vn -0.5725505948066711 0.0 0.8198693990707397
vn -0.5725505948066711 0.0 0.8198693990707397
vn -0.5725505948066711 0.0 0.8198693990707397
vn -0.5725505948066711 0.0 0.8198693990707397
vn 0.0 1.0 0.0
vn 0.0 1.0 0.0
vn 0.0 1.0 0.0
vn 0.0 1.0 0.0
vn 0.0 1.0 0.0
vn 0.0 1.0 0.0
vn 0.0 1.0 0.0
vn 0.0 1.0 0.0
vn 0.0 1.0 0.0
vn 0.0 1.0 0.0
vn 0.0 1.0 0.0
vn 0.0 1.0 0.0
vn 0.0 1.0 0.0
vn 0.0 1.0 0.0
vn 0.0 1.0 0.0
vn 0.0 1.0 0.0
vn 0.0 1.0 0.0
vn 0.0 1.0 0.0
vn 0.0 1.0 0.0
vn 0.0 1.0 0.0
vn 0.0 1.0 0.0
vn 0.0 1.0 0.0
vn 0.0 1.0 0.0
vn 0.0 1.0 0.0
vn 0.0 1.0 0.0
g 33c302e4-e364-11ea-a628-54bf646e7e1f
f 2//2 3//3 1//1
f 1//1 3//3 4//4
g 33c3c634-e364-11ea-97d9-54bf646e7e1f
f 5//5 6//6 7//7
g 33c4627a-e364-11ea-a741-54bf646e7e1f
f 9//9 10//10 8//8
f 8//8 10//10 11//11
g 33665f0a-e364-11ea-aa42-54bf646e7e1f
f 12//12 13//13 17//17
f 17//17 13//13 16//16
f 16//16 13//13 15//15
f 15//15 13//13 14//14
g 3392c8be-e364-11ea-bcef-54bf646e7e1f
f 30//30 18//18 21//21
f 21//21 18//18 19//19
f 21//21 19//19 20//20
f 21//21 22//22 30//30
f 30//30 22//22 29//29
f 29//29 22//22 28//28
f 28//28 22//22 23//23
f 28//28 23//23 27//27
f 27//27 23//23 24//24
f 27//27 24//24 26//26
f 26//26 24//24 25//25
g 3392538a-e364-11ea-9147-54bf646e7e1f
f 31//31 32//32 33//33
g 3366110c-e364-11ea-b9dc-54bf646e7e1f
f 34//34 35//35 56//56
f 56//56 35//35 55//55
f 55//55 35//35 36//36
f 55//55 36//36 54//54
f 54//54 36//36 37//37
f 54//54 37//37 53//53
f 53//53 37//37 38//38
f 53//53 38//38 52//52
f 52//52 38//38 39//39
f 52//52 39//39 51//51
f 51//51 39//39 40//40
f 51//51 40//40 50//50
f 50//50 40//40 41//41
f 50//50 41//41 49//49
f 49//49 41//41 42//42
f 49//49 42//42 48//48
f 48//48 42//42 43//43
f 48//48 43//43 47//47
f 47//47 43//43 44//44
f 47//47 44//44 46//46
f 46//46 44//44 45//45
g 33677088-e364-11ea-93cc-54bf646e7e1f
f 57//57 58//58 76//76
f 76//76 58//58 63//63
f 76//76 63//63 75//75
f 75//75 63//63 64//64
f 75//75 64//64 74//74
f 74//74 64//64 65//65
f 74//74 65//65 73//73
f 73//73 65//65 66//66
f 73//73 66//66 72//72
f 72//72 66//66 67//67
f 72//72 67//67 71//71
f 71//71 67//67 70//70
f 70//70 67//67 68//68
f 70//70 68//68 69//69
f 59//59 60//60 58//58
f 58//58 60//60 61//61
f 58//58 61//61 62//62
f 62//62 63//63 58//58
g 3364ff90-e364-11ea-8729-54bf646e7e1f
f 77//77 78//78 99//99
f 99//99 78//78 83//83
f 99//99 83//83 84//84
f 78//78 79//79 83//83
f 83//83 79//79 82//82
f 82//82 79//79 80//80
f 82//82 80//80 81//81
f 99//99 84//84 98//98
f 98//98 84//84 85//85
f 98//98 85//85 97//97
f 97//97 85//85 86//86
f 97//97 86//86 96//96
f 96//96 86//86 87//87
f 96//96 87//87 95//95
f 95//95 87//87 88//88
f 95//95 88//88 94//94
f 94//94 88//88 89//89
f 94//94 89//89 93//93
f 93//93 89//89 90//90
f 93//93 90//90 92//92
f 92//92 90//90 91//91
g 336526a2-e364-11ea-9dec-54bf646e7e1f
f 100//100 101//101 103//103
f 103//103 101//101 102//102
g 336574c6-e364-11ea-b456-54bf646e7e1f
f 104//104 105//105 107//107
f 107//107 105//105 106//106
g 3365c2e8-e364-11ea-8d09-54bf646e7e1f
f 108//108 109//109 111//111
f 111//111 109//109 110//110
g 3366861c-e364-11ea-b703-54bf646e7e1f
f 112//112 113//113 115//115
f 115//115 113//113 114//114
g 3366d440-e364-11ea-a626-54bf646e7e1f
f 116//116 117//117 119//119
f 119//119 117//117 118//118
g 33672264-e364-11ea-999a-54bf646e7e1f
f 121//121 123//123 120//120
f 120//120 123//123 124//124
f 120//120 124//124 144//144
f 144//144 124//124 143//143
f 143//143 124//124 125//125
f 143//143 125//125 142//142
f 142//142 125//125 126//126
f 142//142 126//126 141//141
f 141//141 126//126 127//127
f 141//141 127//127 140//140
f 140//140 127//127 128//128
f 140//140 128//128 139//139
f 139//139 128//128 129//129
f 139//139 129//129 138//138
f 138//138 129//129 130//130
f 138//138 130//130 137//137
f 137//137 130//130 131//131
f 137//137 131//131 132//132
f 121//121 122//122 123//123
f 137//137 132//132 136//136
f 136//136 132//132 133//133
f 136//136 133//133 135//135
f 135//135 133//133 134//134

# End of file