# WaveFront *.obj file
# Vertices: 24
# Triangles : 12

v 0.0 1.899999976158142 -6.162975822039155e-33
v 0.0 0.0 0.0
v -0.5 0.0 0.0
v -0.5 1.899999976158142 0.0
v 0.0 1.899999976158142 2.0
v 0.0 1.899999976158142 -6.162975822039155e-33
v -0.5 1.899999976158142 0.0
v -0.5 1.899999976158142 2.0
v 0.0 0.0 2.0
v 0.0 1.899999976158142 2.0
v -0.5 1.899999976158142 2.0
v -0.5 0.0 2.0
v 0.0 0.0 0.0
v 0.0 0.0 2.0
v -0.5 0.0 2.0
v -0.5 0.0 0.0
v 0.0 0.0 2.0
v 0.0 0.0 0.0
v 0.0 1.899999976158142 -6.162975822039155e-33
v 0.0 1.899999976158142 2.0
v -0.5 0.0 0.0
v -0.5 0.0 2.0
v -0.5 1.899999976158142 2.0
v -0.5 1.899999976158142 0.0
vn -0.0 -3.2436716012864976e-33 -1.0
vn -0.0 -3.2436716012864976e-33 -1.0
vn -0.0 -3.2436716012864976e-33 -1.0
vn -0.0 -3.2436716012864976e-33 -1.0
vn 0.0 1.0 -0.0
vn 0.0 1.0 -0.0
vn 0.0 1.0 -0.0
vn 0.0 1.0 -0.0
vn 0.0 0.0 1.0
vn 0.0 0.0 1.0
vn 0.0 0.0 1.0
vn 0.0 0.0 1.0
vn -0.0 -1.0 -0.0
vn -0.0 -1.0 -0.0
vn -0.0 -1.0 -0.0
vn -0.0 -1.0 -0.0
vn 1.0 0.0 0.0
vn 1.0 0.0 0.0
vn 1.0 0.0 0.0
vn 1.0 0.0 0.0
vn -1.0 0.0 0.0
vn -1.0 0.0 0.0
vn -1.0 0.0 0.0
vn -1.0 0.0 0.0
g bb01969a-e364-11ea-856f-54bf646e7e1f
f 1//1 2//2 4//4
f 4//4 2//2 3//3
g bb01e4ca-e364-11ea-9425-54bf646e7e1f
f 5//5 6//6 8//8
f 8//8 6//6 7//7
g bb0232ec-e364-11ea-9a8c-54bf646e7e1f
f 9//9 10//10 12//12
f 12//12 10//10 11//11
g bb02810c-e364-11ea-80e1-54bf646e7e1f
f 13//13 14//14 16//16
f 16//16 14//14 15//15
g bb02a81e-e364-11ea-9600-54bf646e7e1f
f 18//18 19//19 17//17
f 17//17 19//19 20//20
g bb031d34-e364-11ea-9522-54bf646e7e1f
f 21//21 22//22 24//24
f 24//24 22//22 23//23

# End of file