# WaveFront *.obj file
# Vertices: 228
# Triangles : 140

v -84.0 84.0 16.0
v -84.0 84.0 23.5
v -76.5 84.0 23.5
v -76.5 84.0 16.0
v 23.0 46.0 23.5
v 23.0 46.0 16.0
v -23.0 46.0 16.0
v -23.0 46.0 23.5
v 30.5 46.0 16.0
v 23.0 46.0 16.0
v 23.0 84.0 16.0
v 30.5 84.0 16.0
v 23.0 38.5 16.0
v 23.0 46.0 16.0
v 23.0 46.0 -16.0
v 23.0 38.5 -16.0
v -76.5 46.0 16.0
v -84.0 46.0 16.0
v -84.0 84.0 16.0
v -76.5 84.0 16.0
v -84.0 38.5 16.0
v -76.5 38.5 16.0
v -76.5 0.0 16.0
v -84.0 0.0 16.0
v 23.0 0.0 -23.5
v 30.5 0.0 -23.5
v 30.5 0.0 -16.0
v 23.0 0.0 -16.0
v 23.0 38.5 -16.0
v 23.0 38.5 -23.5
v 23.0 0.0 -23.5
v 23.0 0.0 -16.0
v 23.0 38.5 23.5
v 23.0 38.5 16.0
v 23.0 0.0 16.0
v 23.0 0.0 23.5
v 23.0 0.0 16.0
v 30.5 0.0 16.0
v 30.5 0.0 23.5
v 23.0 0.0 23.5
v -76.5 38.5 23.5
v -76.5 38.5 16.0
v -30.5 38.5 16.0
v -30.5 38.5 23.5
v -84.0 38.5 -16.0
v -76.5 38.5 -16.0
v -76.5 38.5 16.0
v -84.0 38.5 16.0
v -76.5 38.5 23.5
v -30.5 38.5 23.5
v -30.5 0.0 23.5
v -23.0 0.0 23.5
v -23.0 38.5 23.5
v 23.0 38.5 23.5
v 23.0 0.0 23.5
v 30.5 0.0 23.5
v 30.5 84.0 23.5
v 23.0 84.0 23.5
v 23.0 46.0 23.5
v -23.0 46.0 23.5
v -23.0 84.0 23.5
v -30.5 84.0 23.5
v -30.5 46.0 23.5
v -76.5 46.0 23.5
v -76.5 84.0 23.5
v -84.0 84.0 23.5
v -84.0 0.0 23.5
v -76.5 0.0 23.5
v 23.0 84.0 23.5
v 30.5 84.0 23.5
v 30.5 84.0 16.0
v 23.0 84.0 16.0
v -76.5 46.0 23.5
v -76.5 46.0 16.0
v -76.5 84.0 16.0
v -76.5 84.0 23.5
v -30.5 38.5 -23.5
v -76.5 38.5 -23.5
v -76.5 0.0 -23.5
v -84.0 0.0 -23.5
v -84.0 46.0 -23.5
v 30.5 46.0 -23.5
v 30.5 0.0 -23.5
v 23.0 0.0 -23.5
v 23.0 38.5 -23.5
v -23.0 38.5 -23.5
v -23.0 0.0 -23.5
v -30.5 0.0 -23.5
v 30.5 38.5 16.0
v 23.0 38.5 16.0
v 23.0 38.5 -16.0
v 30.5 38.5 -16.0
v 23.0 38.5 16.0
v 30.5 38.5 16.0
v 30.5 0.0 16.0
v 23.0 0.0 16.0
v 30.5 84.0 23.5
v 30.5 0.0 23.5
v 30.5 0.0 16.0
v 30.5 38.5 16.0
v 30.5 38.5 -16.0
v 30.5 0.0 -16.0
v 30.5 0.0 -23.5
v 30.5 46.0 -23.5
v 30.5 46.0 16.0
v 30.5 84.0 16.0
v -30.5 0.0 -23.5
v -23.0 0.0 -23.5
v -23.0 0.0 -16.0
v -30.5 0.0 -16.0
v -30.5 38.5 -16.0
v -30.5 38.5 -23.5
v -30.5 0.0 -23.5
v -30.5 0.0 -16.0
v -30.5 38.5 -23.5
v -30.5 38.5 -16.0
v -76.5 38.5 -16.0
v -76.5 38.5 -23.5
v -76.5 38.5 16.0
v -76.5 46.0 16.0
v -30.5 46.0 16.0
v -30.5 84.0 16.0
v -23.0 84.0 16.0
v -23.0 46.0 16.0
v 23.0 46.0 16.0
v 23.0 38.5 16.0
v -23.0 38.5 16.0
v -23.0 0.0 16.0
v -30.5 0.0 16.0
v -30.5 38.5 16.0
v -30.5 84.0 16.0
v -30.5 84.0 23.5
v -23.0 84.0 23.5
v -23.0 84.0 16.0
v -23.0 38.5 -23.5
v -23.0 38.5 -16.0
v -23.0 0.0 -16.0
v -23.0 0.0 -23.5
v 30.5 38.5 -16.0
v 23.0 38.5 -16.0
v 23.0 0.0 -16.0
v 30.5 0.0 -16.0
v -30.5 46.0 16.0
v -30.5 46.0 23.5
v -30.5 84.0 23.5
v -30.5 84.0 16.0
v -76.5 38.5 -16.0
v -76.5 46.0 -16.0
v -76.5 46.0 16.0
v -76.5 38.5 16.0
v -76.5 38.5 -23.5
v -76.5 38.5 -16.0
v -76.5 0.0 -16.0
v -76.5 0.0 -23.5
v -76.5 38.5 -16.0
v -84.0 38.5 -16.0
v -84.0 0.0 -16.0
v -76.5 0.0 -16.0
v -76.5 0.0 -16.0
v -84.0 0.0 -16.0
v -84.0 0.0 -23.5
v -76.5 0.0 -23.5
v -76.5 46.0 -16.0
v -76.5 38.5 -16.0
v -30.5 38.5 -16.0
v -30.5 0.0 -16.0
v -23.0 0.0 -16.0
v -23.0 38.5 -16.0
v 23.0 38.5 -16.0
v 23.0 46.0 -16.0
v 23.0 46.0 16.0
v 23.0 46.0 23.5
v 23.0 84.0 23.5
v 23.0 84.0 16.0
v -23.0 46.0 23.5
v -23.0 46.0 16.0
v -23.0 84.0 16.0
v -23.0 84.0 23.5
v 23.0 46.0 16.0
v 30.5 46.0 16.0
v 30.5 46.0 -23.5
v -84.0 46.0 -23.5
v -84.0 46.0 16.0
v -76.5 46.0 16.0
v -76.5 46.0 -16.0
v 23.0 46.0 -16.0
v -30.5 46.0 23.5
v -30.5 46.0 16.0
v -76.5 46.0 16.0
v -76.5 46.0 23.5
v -84.0 0.0 16.0
v -84.0 0.0 23.5
v -84.0 84.0 23.5
v -84.0 84.0 16.0
v -84.0 46.0 16.0
v -84.0 46.0 -23.5
v -84.0 0.0 -23.5
v -84.0 0.0 -16.0
v -84.0 38.5 -16.0
v -84.0 38.5 16.0
v -23.0 38.5 23.5
v -23.0 38.5 16.0
v 23.0 38.5 16.0
v 23.0 38.5 23.5
v -23.0 38.5 -16.0
v -23.0 38.5 -23.5
v 23.0 38.5 -23.5
v 23.0 38.5 -16.0
v -76.5 0.0 16.0
v -76.5 0.0 23.5
v -84.0 0.0 23.5
v -84.0 0.0 16.0
v -76.5 38.5 16.0
v -76.5 38.5 23.5
v -76.5 0.0 23.5
v -76.5 0.0 16.0
v -23.0 0.0 16.0
v -23.0 0.0 23.5
v -30.5 0.0 23.5
v -30.5 0.0 16.0
v -30.5 38.5 23.5
v -30.5 38.5 16.0
v -30.5 0.0 16.0
v -30.5 0.0 23.5
v -23.0 38.5 16.0
v -23.0 38.5 23.5
v -23.0 0.0 23.5
v -23.0 0.0 16.0
vn 0.0 1.0 0.0
vn 0.0 1.0 0.0
vn 0.0 1.0 0.0
vn 0.0 1.0 0.0
vn 0.0 1.0 0.0
vn 0.0 1.0 0.0
vn 0.0 1.0 0.0
vn 0.0 1.0 0.0
vn 0.0 0.0 -1.0
vn 0.0 0.0 -1.0
vn 0.0 0.0 -1.0
vn 0.0 0.0 -1.0
vn -1.0 0.0 0.0
vn -1.0 0.0 0.0
vn -1.0 0.0 0.0
vn -1.0 0.0 0.0
vn 0.0 0.0 -1.0
vn 0.0 0.0 -1.0
vn 0.0 0.0 -1.0
vn 0.0 0.0 -1.0
vn -0.0 -0.0 -1.0
vn -0.0 -0.0 -1.0
vn -0.0 -0.0 -1.0
vn -0.0 -0.0 -1.0
vn -0.0 -1.0 -0.0
vn -0.0 -1.0 -0.0
vn -0.0 -1.0 -0.0
vn -0.0 -1.0 -0.0
vn -1.0 0.0 0.0
vn -1.0 0.0 0.0
vn -1.0 0.0 0.0
vn -1.0 0.0 0.0
vn -1.0 0.0 0.0
vn -1.0 0.0 0.0
vn -1.0 0.0 0.0
vn -1.0 0.0 0.0
vn -0.0 -1.0 -0.0
vn -0.0 -1.0 -0.0
vn -0.0 -1.0 -0.0
vn -0.0 -1.0 -0.0
vn 0.0 -1.0 0.0
vn 0.0 -1.0 0.0
vn 0.0 -1.0 0.0
vn 0.0 -1.0 0.0
vn -0.0 -1.0 -0.0
vn -0.0 -1.0 -0.0
vn -0.0 -1.0 -0.0
vn -0.0 -1.0 -0.0
vn 0.0 -0.0 1.0
vn 0.0 -0.0 1.0
vn 0.0 -0.0 1.0
vn 0.0 -0.0 1.0
vn 0.0 -0.0 1.0
vn 0.0 -0.0 1.0
vn 0.0 -0.0 1.0
vn 0.0 -0.0 1.0
vn 0.0 -0.0 1.0
vn 0.0 -0.0 1.0
vn 0.0 -0.0 1.0
vn 0.0 -0.0 1.0
vn 0.0 -0.0 1.0
vn 0.0 -0.0 1.0
vn 0.0 -0.0 1.0
vn 0.0 -0.0 1.0
vn 0.0 -0.0 1.0
vn 0.0 -0.0 1.0
vn 0.0 -0.0 1.0
vn 0.0 -0.0 1.0
vn 0.0 1.0 0.0
vn 0.0 1.0 0.0
vn 0.0 1.0 0.0
vn 0.0 1.0 0.0
vn 1.0 -0.0 0.0
vn 1.0 -0.0 0.0
vn 1.0 -0.0 0.0
vn 1.0 -0.0 0.0
vn 0.0 0.0 -1.0
vn 0.0 0.0 -1.0
vn 0.0 0.0 -1.0
vn 0.0 0.0 -1.0
vn 0.0 0.0 -1.0
vn 0.0 0.0 -1.0
vn 0.0 0.0 -1.0
vn 0.0 0.0 -1.0
vn 0.0 0.0 -1.0
vn 0.0 0.0 -1.0
vn 0.0 0.0 -1.0
vn 0.0 0.0 -1.0
vn 0.0 -1.0 0.0
vn 0.0 -1.0 0.0
vn 0.0 -1.0 0.0
vn 0.0 -1.0 0.0
vn 0.0 0.0 -1.0
vn 0.0 0.0 -1.0
vn 0.0 0.0 -1.0
vn 0.0 0.0 -1.0
vn 1.0 0.0 0.0
vn 1.0 0.0 0.0
vn 1.0 0.0 0.0
vn 1.0 0.0 0.0
vn 1.0 0.0 0.0
vn 1.0 0.0 0.0
vn 1.0 0.0 0.0
vn 1.0 0.0 0.0
vn 1.0 0.0 0.0
vn 1.0 0.0 0.0
vn -0.0 -1.0 -0.0
vn -0.0 -1.0 -0.0
vn -0.0 -1.0 -0.0
vn -0.0 -1.0 -0.0
vn -1.0 0.0 0.0
vn -1.0 0.0 0.0
vn -1.0 0.0 0.0
vn -1.0 0.0 0.0
vn -0.0 -1.0 -0.0
vn -0.0 -1.0 -0.0
vn -0.0 -1.0 -0.0
vn -0.0 -1.0 -0.0
vn -0.0 -0.0 -1.0
vn -0.0 -0.0 -1.0
vn -0.0 -0.0 -1.0
vn -0.0 -0.0 -1.0
vn -0.0 -0.0 -1.0
vn -0.0 -0.0 -1.0
vn -0.0 -0.0 -1.0
vn -0.0 -0.0 -1.0
vn -0.0 -0.0 -1.0
vn -0.0 -0.0 -1.0
vn -0.0 -0.0 -1.0
vn -0.0 -0.0 -1.0
vn 0.0 1.0 0.0
vn 0.0 1.0 0.0
vn 0.0 1.0 0.0
vn 0.0 1.0 0.0
vn 1.0 0.0 0.0
vn 1.0 0.0 0.0
vn 1.0 0.0 0.0
vn 1.0 0.0 0.0
vn 0.0 0.0 1.0
vn 0.0 0.0 1.0
vn 0.0 0.0 1.0
vn 0.0 0.0 1.0
vn -1.0 0.0 0.0
vn -1.0 0.0 0.0
vn -1.0 0.0 0.0
vn -1.0 0.0 0.0
vn 1.0 0.0 0.0
vn 1.0 0.0 0.0
vn 1.0 0.0 0.0
vn 1.0 0.0 0.0
vn 1.0 0.0 0.0
vn 1.0 0.0 0.0
vn 1.0 0.0 0.0
vn 1.0 0.0 0.0
vn 0.0 -0.0 1.0
vn 0.0 -0.0 1.0
vn 0.0 -0.0 1.0
vn 0.0 -0.0 1.0
vn -0.0 -1.0 -0.0
vn -0.0 -1.0 -0.0
vn -0.0 -1.0 -0.0
vn -0.0 -1.0 -0.0
vn 0.0 -0.0 1.0
vn 0.0 -0.0 1.0
vn 0.0 -0.0 1.0
vn 0.0 -0.0 1.0
vn 0.0 -0.0 1.0
vn 0.0 -0.0 1.0
vn 0.0 -0.0 1.0
vn 0.0 -0.0 1.0
vn -1.0 0.0 0.0
vn -1.0 0.0 0.0
vn -1.0 0.0 0.0
vn -1.0 0.0 0.0
vn 1.0 -0.0 0.0
vn 1.0 -0.0 0.0
vn 1.0 -0.0 0.0
vn 1.0 -0.0 0.0
vn 0.0 1.0 0.0
vn 0.0 1.0 0.0
vn 0.0 1.0 0.0
vn 0.0 1.0 0.0
vn 0.0 1.0 0.0
vn 0.0 1.0 0.0
vn 0.0 1.0 0.0
vn 0.0 1.0 0.0
vn 0.0 1.0 0.0
vn 0.0 1.0 0.0
vn 0.0 1.0 0.0
vn 0.0 1.0 0.0
vn -1.0 0.0 0.0
vn -1.0 0.0 0.0
vn -1.0 0.0 0.0
vn -1.0 0.0 0.0
vn -1.0 0.0 0.0
vn -1.0 0.0 0.0
vn -1.0 0.0 0.0
vn -1.0 0.0 0.0
vn -1.0 0.0 0.0
vn -1.0 0.0 0.0
vn 0.0 -1.0 0.0
vn 0.0 -1.0 0.0
vn 0.0 -1.0 0.0
vn 0.0 -1.0 0.0
vn -0.0 -1.0 -0.0
vn -0.0 -1.0 -0.0
vn -0.0 -1.0 -0.0
vn -0.0 -1.0 -0.0
vn -0.0 -1.0 -0.0
vn -0.0 -1.0 -0.0
vn -0.0 -1.0 -0.0
vn -0.0 -1.0 -0.0
vn 1.0 -0.0 0.0
vn 1.0 -0.0 0.0
vn 1.0 -0.0 0.0
vn 1.0 -0.0 0.0
vn -0.0 -1.0 -0.0
vn -0.0 -1.0 -0.0
vn -0.0 -1.0 -0.0
vn -0.0 -1.0 -0.0
vn -1.0 0.0 0.0
vn -1.0 0.0 0.0
vn -1.0 0.0 0.0
vn -1.0 0.0 0.0
vn 1.0 -0.0 0.0
vn 1.0 -0.0 0.0
vn 1.0 -0.0 0.0
vn 1.0 -0.0 0.0
f 1//1 2//2 4//4
f 4//4 2//2 3//3
f 5//5 6//6 8//8
f 8//8 6//6 7//7
f 9//9 10//10 12//12
f 12//12 10//10 11//11
f 14//14 15//15 13//13
f 13//13 15//15 16//16
f 17//17 18//18 20//20
f 20//20 18//18 19//19
f 22//22 23//23 21//21
f 21//21 23//23 24//24
f 25//25 26//26 28//28
f 28//28 26//26 27//27
f 29//29 30//30 32//32
f 32//32 30//30 31//31
f 33//33 34//34 36//36
f 36//36 34//34 35//35
f 37//37 38//38 40//40
f 40//40 38//38 39//39
f 41//41 42//42 44//44
f 44//44 42//42 43//43
f 45//45 46//46 48//48
f 48//48 46//46 47//47
f 50//50 64//64 49//49
f 49//49 64//64 66//66
f 49//49 66//66 67//67
f 51//51 52//52 50//50
f 50//50 52//52 53//53
f 50//50 53//53 63//63
f 63//63 53//53 60//60
f 63//63 60//60 62//62
f 62//62 60//60 61//61
f 53//53 54//54 60//60
f 60//60 54//54 59//59
f 59//59 54//54 57//57
f 59//59 57//57 58//58
f 55//55 56//56 54//54
f 54//54 56//56 57//57
f 63//63 64//64 50//50
f 64//64 65//65 66//66
f 67//67 68//68 49//49
f 70//70 71//71 69//69
f 69//69 71//71 72//72
f 73//73 74//74 76//76
f 76//76 74//74 75//75
f 78//78 81//81 77//77
f 77//77 81//81 82//82
f 77//77 82//82 86//86
f 86//86 82//82 85//85
f 85//85 82//82 83//83
f 85//85 83//83 84//84
f 79//79 80//80 78//78
f 78//78 80//80 81//81
f 87//87 88//88 86//86
f 86//86 88//88 77//77
f 89//89 90//90 92//92
f 92//92 90//90 91//91
f 93//93 94//94 96//96
f 96//96 94//94 95//95
f 98//98 100//100 97//97
f 97//97 100//100 105//105
f 97//97 105//105 106//106
f 98//98 99//99 100//100
f 100//100 101//101 105//105
f 105//105 101//101 104//104
f 104//104 101//101 103//103
f 103//103 101//101 102//102
f 107//107 108//108 110//110
f 110//110 108//108 109//109
f 111//111 112//112 114//114
f 114//114 112//112 113//113
f 115//115 116//116 118//118
f 118//118 116//116 117//117
f 119//119 120//120 130//130
f 130//130 120//120 121//121
f 130//130 121//121 127//127
f 127//127 121//121 124//124
f 127//127 124//124 126//126
f 126//126 124//124 125//125
f 121//121 122//122 124//124
f 124//124 122//122 123//123
f 127//127 128//128 130//130
f 130//130 128//128 129//129
f 131//131 132//132 134//134
f 134//134 132//132 133//133
f 135//135 136//136 138//138
f 138//138 136//136 137//137
f 139//139 140//140 142//142
f 142//142 140//140 141//141
f 143//143 144//144 146//146
f 146//146 144//144 145//145
f 147//147 148//148 150//150
f 150//150 148//148 149//149
f 151//151 152//152 154//154
f 154//154 152//152 153//153
f 155//155 156//156 158//158
f 158//158 156//156 157//157
f 159//159 160//160 162//162
f 162//162 160//160 161//161
f 164//164 165//165 163//163
f 163//163 165//165 168//168
f 163//163 168//168 170//170
f 170//170 168//168 169//169
f 166//166 167//167 165//165
f 165//165 167//167 168//168
f 171//171 172//172 174//174
f 174//174 172//172 173//173
f 175//175 176//176 178//178
f 178//178 176//176 177//177
f 179//179 180//180 186//186
f 186//186 180//180 181//181
f 186//186 181//181 182//182
f 186//186 182//182 185//185
f 185//185 182//182 183//183
f 185//185 183//183 184//184
f 187//187 188//188 190//190
f 190//190 188//188 189//189
f 191//191 192//192 200//200
f 200//200 192//192 193//193
f 200//200 193//193 195//195
f 195//195 193//193 194//194
f 200//200 195//195 199//199
f 199//199 195//195 196//196
f 199//199 196//196 197//197
f 197//197 198//198 199//199
f 201//201 202//202 204//204
f 204//204 202//202 203//203
f 205//205 206//206 208//208
f 208//208 206//206 207//207
f 210//210 211//211 209//209
f 209//209 211//211 212//212
f 213//213 214//214 216//216
f 216//216 214//214 215//215
f 218//218 219//219 217//217
f 217//217 219//219 220//220
f 221//221 222//222 224//224
f 224//224 222//222 223//223
f 225//225 226//226 228//228
f 228//228 226//226 227//227

# End of file