# WaveFront *.obj file
# Vertices: 30
# Triangles : 16

v 45.781402587890625 40.0 0.0
v 11.538492202758789 12.782840728759766 0.0
v 11.538492202758789 12.782840728759766 75.0
v 45.781402587890625 40.0 75.0
v 47.74568557739258 40.0 0.0
v 45.781402587890625 40.0 0.0
v 45.781402587890625 40.0 75.0
v 47.74568557739258 40.0 75.0
v 47.74568557739258 39.006465911865234 0.0
v 47.74568557739258 40.0 0.0
v 47.74568557739258 40.0 75.0
v 47.74568557739258 39.006465911865234 75.0
v 12.782936096191406 11.217159271240234 0.0
v 47.74568557739258 39.006465911865234 0.0
v 47.74568557739258 39.006465911865234 75.0
v 12.782936096191406 11.217159271240234 75.0
v 11.538492202758789 12.782840728759766 0.0
v 12.782936096191406 11.217159271240234 0.0
v 12.782936096191406 11.217159271240234 75.0
v 11.538492202758789 12.782840728759766 75.0
v 11.538492202758789 12.782840728759766 75.0
v 12.782936096191406 11.217159271240234 75.0
v 47.74568557739258 39.006465911865234 75.0
v 47.74568557739258 40.0 75.0
v 45.781402587890625 40.0 75.0
v 12.782936096191406 11.217159271240234 0.0
v 11.538492202758789 12.782840728759766 0.0
v 45.781402587890625 40.0 0.0
v 47.74568557739258 40.0 0.0
v 47.74568557739258 39.006465911865234 0.0
vn -0.6222222447395325 0.7828406691551208 0.0
vn -0.6222222447395325 0.7828406691551208 0.0
vn -0.6222222447395325 0.7828406691551208 0.0
vn -0.6222222447395325 0.7828406691551208 0.0
vn 0.0 1.0 0.0
vn 0.0 1.0 0.0
vn 0.0 1.0 0.0
vn 0.0 1.0 0.0
vn 1.0 0.0 -0.0
vn 1.0 0.0 -0.0
vn 1.0 0.0 -0.0
vn 1.0 0.0 -0.0
vn 0.6222222447395325 -0.7828406691551208 0.0
vn 0.6222222447395325 -0.7828406691551208 0.0
vn 0.6222222447395325 -0.7828406691551208 0.0
vn 0.6222222447395325 -0.7828406691551208 0.0
vn -0.7828406691551208 -0.6222222447395325 0.0
vn -0.7828406691551208 -0.6222222447395325 0.0
vn -0.7828406691551208 -0.6222222447395325 0.0
vn -0.7828406691551208 -0.6222222447395325 0.0
vn 0.0 0.0 1.0
vn 0.0 0.0 1.0
vn 0.0 0.0 1.0
vn 0.0 0.0 1.0
vn 0.0 0.0 1.0
vn -0.0 -0.0 -1.0
vn -0.0 -0.0 -1.0
vn -0.0 -0.0 -1.0
vn -0.0 -0.0 -1.0
vn -0.0 -0.0 -1.0
g 8084733e-e36e-11ea-a3e0-54bf646e7e1f
f 1//1 2//2 4//4
f 4//4 2//2 3//3
g 8084e876-e36e-11ea-970f-54bf646e7e1f
f 5//5 6//6 8//8
f 8//8 6//6 7//7
g 80853674-e36e-11ea-a18b-54bf646e7e1f
f 9//9 10//10 12//12
f 12//12 10//10 11//11
g 80858492-e36e-11ea-9496-54bf646e7e1f
f 13//13 14//14 16//16
f 16//16 14//14 15//15
g 8085d2b0-e36e-11ea-840a-54bf646e7e1f
f 17//17 18//18 20//20
f 20//20 18//18 19//19
g 808620d8-e36e-11ea-93ec-54bf646e7e1f
f 22//22 23//23 21//21
f 21//21 23//23 25//25
f 25//25 23//23 24//24
g 80866ef8-e36e-11ea-851a-54bf646e7e1f
f 26//26 27//27 30//30
f 30//30 27//27 28//28
f 30//30 28//28 29//29

# End of file