# WaveFront *.obj file
# Vertices: 192
# Triangles : 96

v 0.0 0.0 40.0
v 0.0 0.0 36.400001525878906
v 42.5 0.0 36.400001525878906
v 42.5 0.0 40.0
v 0.0 226.89999389648438 40.0
v 0.0 0.0 40.0
v 42.5 0.0 40.0
v 42.5 226.89999389648438 40.0
v 0.0 226.89999389648438 36.400001525878906
v 0.0 226.89999389648438 40.0
v 42.5 226.89999389648438 40.0
v 42.5 226.89999389648438 36.400001525878906
v 0.0 0.0 36.400001525878906
v 0.0 226.89999389648438 36.400001525878906
v 42.5 226.89999389648438 36.400001525878906
v 42.5 0.0 36.400001525878906
v 42.5 0.0 36.400001525878906
v 42.5 226.89999389648438 36.400001525878906
v 42.5 226.89999389648438 40.0
v 42.5 0.0 40.0
v 0.0 226.89999389648438 36.400001525878906
v 0.0 0.0 36.400001525878906
v 0.0 0.0 40.0
v 0.0 226.89999389648438 40.0
v 0.0 2.0 0.0
v 0.0 3.799999952316284 0.0
v 38.0 3.799999952316284 0.0
v 38.0 2.0 0.0
v 0.0 2.0 36.400001525878906
v 0.0 2.0 0.0
v 38.0 2.0 0.0
v 38.0 2.0 36.400001525878906
v 0.0 3.799999952316284 36.400001525878906
v 0.0 2.0 36.400001525878906
v 38.0 2.0 36.400001525878906
v 38.0 3.799999952316284 36.400001525878906
v 0.0 3.799999952316284 0.0
v 0.0 3.799999952316284 36.400001525878906
v 38.0 3.799999952316284 36.400001525878906
v 38.0 3.799999952316284 0.0
v 38.0 3.799999952316284 0.0
v 38.0 3.799999952316284 36.400001525878906
v 38.0 2.0 36.400001525878906
v 38.0 2.0 0.0
v 0.0 3.799999952316284 36.400001525878906
v 0.0 3.799999952316284 0.0
v 0.0 2.0 0.0
v 0.0 2.0 36.400001525878906
v 0.0 3.799999952316284 36.400001525878906
v 0.0 3.799999952316284 34.599998474121094
v 38.0 3.799999952316284 34.599998474121094
v 38.0 3.799999952316284 36.400001525878906
v 0.0 74.5 36.400001525878906
v 0.0 3.799999952316284 36.400001525878906
v 38.0 3.799999952316284 36.400001525878906
v 38.0 74.5 36.400001525878906
v 0.0 74.5 34.599998474121094
v 0.0 74.5 36.400001525878906
v 38.0 74.5 36.400001525878906
v 38.0 74.5 34.599998474121094
v 0.0 3.799999952316284 34.599998474121094
v 0.0 74.5 34.599998474121094
v 38.0 74.5 34.599998474121094
v 38.0 3.799999952316284 34.599998474121094
v 38.0 3.799999952316284 34.599998474121094
v 38.0 74.5 34.599998474121094
v 38.0 74.5 36.400001525878906
v 38.0 3.799999952316284 36.400001525878906
v 0.0 74.5 34.599998474121094
v 0.0 3.799999952316284 34.599998474121094
v 0.0 3.799999952316284 36.400001525878906
v 0.0 74.5 36.400001525878906
v 0.0 74.5 0.0
v 0.0 76.30000305175781 0.0
v 38.0 76.30000305175781 0.0
v 38.0 74.5 0.0
v 0.0 74.5 36.400001525878906
v 0.0 74.5 0.0
v 38.0 74.5 0.0
v 38.0 74.5 36.400001525878906
v 0.0 76.30000305175781 36.400001525878906
v 0.0 74.5 36.400001525878906
v 38.0 74.5 36.400001525878906
v 38.0 76.30000305175781 36.400001525878906
v 0.0 76.30000305175781 0.0
v 0.0 76.30000305175781 36.400001525878906
v 38.0 76.30000305175781 36.400001525878906
v 38.0 76.30000305175781 0.0
v 38.0 76.30000305175781 0.0
v 38.0 76.30000305175781 36.400001525878906
v 38.0 74.5 36.400001525878906
v 38.0 74.5 0.0
v 0.0 76.30000305175781 36.400001525878906
v 0.0 76.30000305175781 0.0
v 0.0 74.5 0.0
v 0.0 74.5 36.400001525878906
v 0.0 74.5 1.7999999523162842
v 0.0 3.799999952316284 1.7999999523162842
v 38.0 3.799999952316284 1.7999999523162842
v 38.0 74.5 1.7999999523162842
v 0.0 74.5 0.0
v 0.0 74.5 1.7999999523162842
v 38.0 74.5 1.7999999523162842
v 38.0 74.5 0.0
v 0.0 3.799999952316284 0.0
v 0.0 74.5 0.0
v 38.0 74.5 0.0
v 38.0 3.799999952316284 0.0
v 0.0 3.799999952316284 1.7999999523162842
v 0.0 3.799999952316284 0.0
v 38.0 3.799999952316284 0.0
v 38.0 3.799999952316284 1.7999999523162842
v 38.0 3.799999952316284 1.7999999523162842
v 38.0 3.799999952316284 0.0
v 38.0 74.5 0.0
v 38.0 74.5 1.7999999523162842
v 0.0 3.799999952316284 0.0
v 0.0 3.799999952316284 1.7999999523162842
v 0.0 74.5 1.7999999523162842
v 0.0 74.5 0.0
v 0.0 78.0999984741211 36.400001525878906
v 0.0 78.0999984741211 34.599998474121094
v 38.0 78.0999984741211 34.599998474121094
v 38.0 78.0999984741211 36.400001525878906
v 0.0 148.8000030517578 36.400001525878906
v 0.0 78.0999984741211 36.400001525878906
v 38.0 78.0999984741211 36.400001525878906
v 38.0 148.8000030517578 36.400001525878906
v 0.0 148.8000030517578 34.599998474121094
v 0.0 148.8000030517578 36.400001525878906
v 38.0 148.8000030517578 36.400001525878906
v 38.0 148.8000030517578 34.599998474121094
v 0.0 78.0999984741211 34.599998474121094
v 0.0 148.8000030517578 34.599998474121094
v 38.0 148.8000030517578 34.599998474121094
v 38.0 78.0999984741211 34.599998474121094
v 38.0 78.0999984741211 34.599998474121094
v 38.0 148.8000030517578 34.599998474121094
v 38.0 148.8000030517578 36.400001525878906
v 38.0 78.0999984741211 36.400001525878906
v 0.0 148.8000030517578 34.599998474121094
v 0.0 78.0999984741211 34.599998474121094
v 0.0 78.0999984741211 36.400001525878906
v 0.0 148.8000030517578 36.400001525878906
v 0.0 76.30000305175781 0.0
v 0.0 78.0999984741211 0.0
v 38.0 78.0999984741211 0.0
v 38.0 76.30000305175781 0.0
v 0.0 76.30000305175781 36.400001525878906
v 0.0 76.30000305175781 0.0
v 38.0 76.30000305175781 0.0
v 38.0 76.30000305175781 36.400001525878906
v 0.0 78.0999984741211 36.400001525878906
v 0.0 76.30000305175781 36.400001525878906
v 38.0 76.30000305175781 36.400001525878906
v 38.0 78.0999984741211 36.400001525878906
v 0.0 78.0999984741211 0.0
v 0.0 78.0999984741211 36.400001525878906
v 38.0 78.0999984741211 36.400001525878906
v 38.0 78.0999984741211 0.0
v 38.0 78.0999984741211 0.0
v 38.0 78.0999984741211 36.400001525878906
v 38.0 76.30000305175781 36.400001525878906
v 38.0 76.30000305175781 0.0
v 0.0 78.0999984741211 36.400001525878906
v 0.0 78.0999984741211 0.0
v 0.0 76.30000305175781 0.0
v 0.0 76.30000305175781 36.400001525878906
v 0.0 148.8000030517578 36.400001525878906
v 0.0 148.8000030517578 0.0
v 38.0 148.8000030517578 0.0
v 38.0 148.8000030517578 36.400001525878906
v 0.0 150.60000610351562 36.400001525878906
v 0.0 148.8000030517578 36.400001525878906
v 38.0 148.8000030517578 36.400001525878906
v 38.0 150.60000610351562 36.400001525878906
v 0.0 150.60000610351562 0.0
v 0.0 150.60000610351562 36.400001525878906
v 38.0 150.60000610351562 36.400001525878906
v 38.0 150.60000610351562 0.0
v 0.0 148.8000030517578 0.0
v 0.0 150.60000610351562 0.0
v 38.0 150.60000610351562 0.0
v 38.0 148.8000030517578 0.0
v 38.0 148.8000030517578 0.0
v 38.0 150.60000610351562 0.0
v 38.0 150.60000610351562 36.400001525878906
v 38.0 148.8000030517578 36.400001525878906
v 0.0 150.60000610351562 0.0
v 0.0 148.8000030517578 0.0
v 0.0 148.8000030517578 36.400001525878906
v 0.0 150.60000610351562 36.400001525878906
vn 0.0 -1.0 0.0
vn 0.0 -1.0 0.0
vn 0.0 -1.0 0.0
vn 0.0 -1.0 0.0
vn -0.0 0.0 1.0
vn -0.0 0.0 1.0
vn -0.0 0.0 1.0
vn -0.0 0.0 1.0
vn 0.0 1.0 0.0
vn 0.0 1.0 0.0
vn 0.0 1.0 0.0
vn 0.0 1.0 0.0
vn 0.0 0.0 -1.0
vn 0.0 0.0 -1.0
vn 0.0 0.0 -1.0
vn 0.0 0.0 -1.0
vn 1.0 0.0 0.0
vn 1.0 0.0 0.0
vn 1.0 0.0 0.0
vn 1.0 0.0 0.0
vn -1.0 -0.0 -0.0
vn -1.0 -0.0 -0.0
vn -1.0 -0.0 -0.0
vn -1.0 -0.0 -0.0
vn 0.0 0.0 -1.0
vn 0.0 0.0 -1.0
vn 0.0 0.0 -1.0
vn 0.0 0.0 -1.0
vn 0.0 -1.0 0.0
vn 0.0 -1.0 0.0
vn 0.0 -1.0 0.0
vn 0.0 -1.0 0.0
vn 0.0 0.0 1.0
vn 0.0 0.0 1.0
vn 0.0 0.0 1.0
vn 0.0 0.0 1.0
vn -0.0 1.0 0.0
vn -0.0 1.0 0.0
vn -0.0 1.0 0.0
vn -0.0 1.0 0.0
vn 1.0 0.0 0.0
vn 1.0 0.0 0.0
vn 1.0 0.0 0.0
vn 1.0 0.0 0.0
vn -1.0 -0.0 -0.0
vn -1.0 -0.0 -0.0
vn -1.0 -0.0 -0.0
vn -1.0 -0.0 -0.0
vn 0.0 -1.0 0.0
vn 0.0 -1.0 0.0
vn 0.0 -1.0 0.0
vn 0.0 -1.0 0.0
vn 0.0 0.0 1.0
vn 0.0 0.0 1.0
vn 0.0 0.0 1.0
vn 0.0 0.0 1.0
vn -0.0 1.0 0.0
vn -0.0 1.0 0.0
vn -0.0 1.0 0.0
vn -0.0 1.0 0.0
vn 0.0 0.0 -1.0
vn 0.0 0.0 -1.0
vn 0.0 0.0 -1.0
vn 0.0 0.0 -1.0
vn 1.0 0.0 0.0
vn 1.0 0.0 0.0
vn 1.0 0.0 0.0
vn 1.0 0.0 0.0
vn -1.0 -0.0 -0.0
vn -1.0 -0.0 -0.0
vn -1.0 -0.0 -0.0
vn -1.0 -0.0 -0.0
vn 0.0 0.0 -1.0
vn 0.0 0.0 -1.0
vn 0.0 0.0 -1.0
vn 0.0 0.0 -1.0
vn 0.0 -1.0 0.0
vn 0.0 -1.0 0.0
vn 0.0 -1.0 0.0
vn 0.0 -1.0 0.0
vn -0.0 0.0 1.0
vn -0.0 0.0 1.0
vn -0.0 0.0 1.0
vn -0.0 0.0 1.0
vn 0.0 1.0 0.0
vn 0.0 1.0 0.0
vn 0.0 1.0 0.0
vn 0.0 1.0 0.0
vn 1.0 0.0 0.0
vn 1.0 0.0 0.0
vn 1.0 0.0 0.0
vn 1.0 0.0 0.0
vn -1.0 -0.0 -0.0
vn -1.0 -0.0 -0.0
vn -1.0 -0.0 -0.0
vn -1.0 -0.0 -0.0
vn -0.0 0.0 1.0
vn -0.0 0.0 1.0
vn -0.0 0.0 1.0
vn -0.0 0.0 1.0
vn 0.0 1.0 0.0
vn 0.0 1.0 0.0
vn 0.0 1.0 0.0
vn 0.0 1.0 0.0
vn 0.0 0.0 -1.0
vn 0.0 0.0 -1.0
vn 0.0 0.0 -1.0
vn 0.0 0.0 -1.0
vn 0.0 -1.0 0.0
vn 0.0 -1.0 0.0
vn 0.0 -1.0 0.0
vn 0.0 -1.0 0.0
vn 1.0 0.0 0.0
vn 1.0 0.0 0.0
vn 1.0 0.0 0.0
vn 1.0 0.0 0.0
vn -1.0 -0.0 -0.0
vn -1.0 -0.0 -0.0
vn -1.0 -0.0 -0.0
vn -1.0 -0.0 -0.0
vn 0.0 -1.0 0.0
vn 0.0 -1.0 0.0
vn 0.0 -1.0 0.0
vn 0.0 -1.0 0.0
vn 0.0 0.0 1.0
vn 0.0 0.0 1.0
vn 0.0 0.0 1.0
vn 0.0 0.0 1.0
vn -0.0 1.0 0.0
vn -0.0 1.0 0.0
vn -0.0 1.0 0.0
vn -0.0 1.0 0.0
vn 0.0 0.0 -1.0
vn 0.0 0.0 -1.0
vn 0.0 0.0 -1.0
vn 0.0 0.0 -1.0
vn 1.0 0.0 0.0
vn 1.0 0.0 0.0
vn 1.0 0.0 0.0
vn 1.0 0.0 0.0
vn -1.0 -0.0 -0.0
vn -1.0 -0.0 -0.0
vn -1.0 -0.0 -0.0
vn -1.0 -0.0 -0.0
vn 0.0 0.0 -1.0
vn 0.0 0.0 -1.0
vn 0.0 0.0 -1.0
vn 0.0 0.0 -1.0
vn 0.0 -1.0 0.0
vn 0.0 -1.0 0.0
vn 0.0 -1.0 0.0
vn 0.0 -1.0 0.0
vn 0.0 0.0 1.0
vn 0.0 0.0 1.0
vn 0.0 0.0 1.0
vn 0.0 0.0 1.0
vn -0.0 1.0 0.0
vn -0.0 1.0 0.0
vn -0.0 1.0 0.0
vn -0.0 1.0 0.0
vn 1.0 0.0 0.0
vn 1.0 0.0 0.0
vn 1.0 0.0 0.0
vn 1.0 0.0 0.0
vn -1.0 -0.0 -0.0
vn -1.0 -0.0 -0.0
vn -1.0 -0.0 -0.0
vn -1.0 -0.0 -0.0
vn 0.0 -1.0 0.0
vn 0.0 -1.0 0.0
vn 0.0 -1.0 0.0
vn 0.0 -1.0 0.0
vn -0.0 0.0 1.0
vn -0.0 0.0 1.0
vn -0.0 0.0 1.0
vn -0.0 0.0 1.0
vn 0.0 1.0 0.0
vn 0.0 1.0 0.0
vn 0.0 1.0 0.0
vn 0.0 1.0 0.0
vn 0.0 0.0 -1.0
vn 0.0 0.0 -1.0
vn 0.0 0.0 -1.0
vn 0.0 0.0 -1.0
vn 1.0 0.0 0.0
vn 1.0 0.0 0.0
vn 1.0 0.0 0.0
vn 1.0 0.0 0.0
vn -1.0 -0.0 -0.0
vn -1.0 -0.0 -0.0
vn -1.0 -0.0 -0.0
vn -1.0 -0.0 -0.0
g 8b785dca-e36e-11ea-af3d-54bf646e7e1f
f 1//1 2//2 4//4
f 4//4 2//2 3//3
g 8b78d300-e36e-11ea-9c83-54bf646e7e1f
f 5//5 6//6 8//8
f 8//8 6//6 7//7
g 8b794842-e36e-11ea-9f2d-54bf646e7e1f
f 9//9 10//10 12//12
f 12//12 10//10 11//11
g 8b79bd66-e36e-11ea-aec7-54bf646e7e1f
f 13//13 14//14 16//16
f 16//16 14//14 15//15
g 8b7a0b94-e36e-11ea-8723-54bf646e7e1f
f 18//18 19//19 17//17
f 17//17 19//19 20//20
g 8b7a80b6-e36e-11ea-9f41-54bf646e7e1f
f 21//21 22//22 24//24
f 24//24 22//22 23//23
g 8b9cd63a-e36e-11ea-bee8-54bf646e7e1f
f 25//25 26//26 28//28
f 28//28 26//26 27//27
g 8b9d4b4c-e36e-11ea-aff0-54bf646e7e1f
f 29//29 30//30 32//32
f 32//32 30//30 31//31
g 8b9d99a6-e36e-11ea-ba97-54bf646e7e1f
f 33//33 34//34 36//36
f 36//36 34//34 35//35
g 8b9e0eca-e36e-11ea-8444-54bf646e7e1f
f 37//37 38//38 40//40
f 40//40 38//38 39//39
g 8b9e5ce2-e36e-11ea-a506-54bf646e7e1f
f 41//41 42//42 44//44
f 44//44 42//42 43//43
g 8b9ed1f4-e36e-11ea-ac1b-54bf646e7e1f
f 46//46 47//47 45//45
f 45//45 47//47 48//48
g 8bc7b722-e36e-11ea-b44e-54bf646e7e1f
f 49//49 50//50 52//52
f 52//52 50//50 51//51
g 8bc82c50-e36e-11ea-acab-54bf646e7e1f
f 53//53 54//54 56//56
f 56//56 54//54 55//55
g 8bc8a19e-e36e-11ea-a997-54bf646e7e1f
f 57//57 58//58 60//60
f 60//60 58//58 59//59
g 8bc916d4-e36e-11ea-98f0-54bf646e7e1f
f 61//61 62//62 64//64
f 64//64 62//62 63//63
g 8bc98be2-e36e-11ea-ab84-54bf646e7e1f
f 66//66 67//67 65//65
f 65//65 67//67 68//68
g 8bca2848-e36e-11ea-9468-54bf646e7e1f
f 69//69 70//70 72//72
f 72//72 70//70 71//71
g 8bf7ef58-e36e-11ea-8686-54bf646e7e1f
f 73//73 74//74 76//76
f 76//76 74//74 75//75
g 8bf88ba4-e36e-11ea-bff1-54bf646e7e1f
f 77//77 78//78 80//80
f 80//80 78//78 79//79
g 8bf927e2-e36e-11ea-8c49-54bf646e7e1f
f 81//81 82//82 84//84
f 84//84 82//82 83//83
g 8bf9c400-e36e-11ea-8f3f-54bf646e7e1f
f 85//85 86//86 88//88
f 88//88 86//86 87//87
g 8bfa603e-e36e-11ea-a6ef-54bf646e7e1f
f 89//89 90//90 92//92
f 92//92 90//90 91//91
g 8bfb2392-e36e-11ea-8e26-54bf646e7e1f
f 94//94 95//95 93//93
f 93//93 95//95 96//96
g 8c3287c8-e36e-11ea-974e-54bf646e7e1f
f 97//97 98//98 100//100
f 100//100 98//98 99//99
g 8c334b58-e36e-11ea-92c2-54bf646e7e1f
f 101//101 102//102 104//104
f 104//104 102//102 103//103
g 8c340e80-e36e-11ea-a852-54bf646e7e1f
f 105//105 106//106 108//108
f 108//108 106//106 107//107
g 8c34d21a-e36e-11ea-b41f-54bf646e7e1f
f 109//109 110//110 112//112
f 112//112 110//110 111//111
g 8c356e6e-e36e-11ea-a9ab-54bf646e7e1f
f 113//113 114//114 116//116
f 116//116 114//114 115//115
g 8c3658b8-e36e-11ea-a8cc-54bf646e7e1f
f 118//118 119//119 117//117
f 117//117 119//119 120//120
g 8c77a82e-e36e-11ea-a0e6-54bf646e7e1f
f 121//121 122//122 124//124
f 124//124 122//122 123//123
g 8c797d0a-e36e-11ea-b13f-54bf646e7e1f
f 125//125 126//126 128//128
f 128//128 126//126 127//127
g 8c7ab586-e36e-11ea-8e98-54bf646e7e1f
f 129//129 130//130 132//132
f 132//132 130//130 131//131
g 8c7bc700-e36e-11ea-a09a-54bf646e7e1f
f 133//133 134//134 136//136
f 136//136 134//134 135//135
g 8c7c8a52-e36e-11ea-9b37-54bf646e7e1f
f 138//138 139//139 137//137
f 137//137 139//139 140//140
g 8c7d74b4-e36e-11ea-bd32-54bf646e7e1f
f 141//141 142//142 144//144
f 144//144 142//142 143//143
g 8cc68bf6-e36e-11ea-b47a-54bf646e7e1f
f 145//145 146//146 148//148
f 148//148 146//146 147//147
g 8cc7c492-e36e-11ea-84ac-54bf646e7e1f
f 149//149 150//150 152//152
f 152//152 150//150 151//151
g 8cc8d5e4-e36e-11ea-80a5-54bf646e7e1f
f 153//153 154//154 156//156
f 156//156 154//154 155//155
g 8cc9c054-e36e-11ea-88be-54bf646e7e1f
f 157//157 158//158 160//160
f 160//160 158//158 159//159
g 8ccaaab4-e36e-11ea-afa7-54bf646e7e1f
f 161//161 162//162 164//164
f 164//164 162//162 163//163
g 8ccbbc14-e36e-11ea-9996-54bf646e7e1f
f 166//166 167//167 165//165
f 165//165 167//167 168//168
g 8d108e3a-e36e-11ea-849e-54bf646e7e1f
f 169//169 170//170 172//172
f 172//172 170//170 171//171
g 8d119fb0-e36e-11ea-b11b-54bf646e7e1f
f 173//173 174//174 176//176
f 176//176 174//174 175//175
g 8d12b148-e36e-11ea-b874-54bf646e7e1f
f 177//177 178//178 180//180
f 180//180 178//178 179//179
g 8d13c294-e36e-11ea-942e-54bf646e7e1f
f 181//181 182//182 184//184
f 184//184 182//182 183//183
g 8d14d42c-e36e-11ea-bd92-54bf646e7e1f
f 186//186 187//187 185//185
f 185//185 187//187 188//188
g 8d15e59e-e36e-11ea-bf45-54bf646e7e1f
f 189//189 190//190 192//192
f 192//192 190//190 191//191

# End of file