# WaveFront *.obj file
# Vertices: 192
# Triangles : 160

v 11.452960968017578 0.514280378818512 -1.0
v 11.452960968017578 0.514280378818512 1.0
v -3.7792718410491943 0.514280378818512 1.0
v -3.7792718410491943 0.514280378818512 -1.0
v 11.452960968017578 2.014280319213867 -1.0
v 11.452960968017578 2.014280319213867 1.0
v 11.452960968017578 0.514280378818512 1.0
v 11.452960968017578 0.514280378818512 -1.0
v -3.7792718410491943 0.514280378818512 -1.0
v -3.7792718410491943 0.514280378818512 1.0
v -4.169452667236328 0.5527098178863525 1.0
v -4.544638633728027 0.6665213108062744 1.0
v -4.890412330627441 0.8513411283493042 1.0
v -5.193485260009766 1.1000667810440063 1.0
v -5.193485260009766 1.1000667810440063 -1.0
v -4.890412330627441 0.8513411283493042 -1.0
v -4.544638633728027 0.6665213108062744 -1.0
v -4.169452667236328 0.5527098178863525 -1.0
v 7.452960968017578 2.014280319213867 -1.0
v 7.452960968017578 2.014280319213867 1.0
v 11.452960968017578 2.014280319213867 1.0
v 11.452960968017578 2.014280319213867 -1.0
v -5.193485260009766 1.1000667810440063 -1.0
v -5.193485260009766 1.1000667810440063 1.0
v -8.547039031982422 4.453619956970215 1.0
v -8.547039031982422 4.453619956970215 -1.0
v 6.952960968017578 2.514280319213867 -1.0
v 6.952960968017578 2.514280319213867 1.0
v 6.991021156311035 2.3229386806488037 1.0
v 7.09940767288208 2.160727024078369 1.0
v 7.261619567871094 2.052340507507324 1.0
v 7.452960968017578 2.014280319213867 1.0
v 7.452960968017578 2.014280319213867 -1.0
v 7.261619567871094 2.052340507507324 -1.0
v 7.09940767288208 2.160727024078369 -1.0
v 6.991021156311035 2.3229386806488037 -1.0
v -4.572165012359619 2.600066900253296 1.0
v -7.4863786697387695 5.514280319213867 1.0
v -8.547039031982422 4.453619956970215 1.0
v -5.193485260009766 1.1000667810440063 1.0
v -4.890412330627441 0.8513411283493042 1.0
v -4.544638633728027 0.6665213108062744 1.0
v -4.169452667236328 0.5527098178863525 1.0
v -3.7792718410491943 0.514280378818512 1.0
v 11.452960968017578 0.514280378818512 1.0
v 11.452960968017578 2.014280319213867 1.0
v 7.452960968017578 2.014280319213867 1.0
v 7.261619567871094 2.052340507507324 1.0
v 7.09940767288208 2.160727024078369 1.0
v 6.991021156311035 2.3229386806488037 1.0
v 6.952960968017578 2.514280319213867 1.0
v 6.952960968017578 6.514280319213867 1.0
v 6.914531707763672 6.904460906982422 1.0
v 6.80072021484375 7.279647350311279 1.0
v 6.61590051651001 7.625421047210693 1.0
v 6.3671746253967285 7.928493976593018 1.0
v 6.064101696014404 8.17721939086914 1.0
v 5.71832799911499 8.362039566040039 1.0
v 5.343141555786133 8.475851058959961 1.0
v 4.952960968017578 8.514280319213867 1.0
v 4.562780380249023 8.475851058959961 1.0
v 4.187594413757324 8.362039566040039 1.0
v 3.84182071685791 8.17721939086914 1.0
v 3.538747549057007 7.928493976593018 1.0
v 3.2900218963623047 7.625421047210693 1.0
v 3.1052019596099854 7.279647350311279 1.0
v 2.9913904666900635 6.904460906982422 1.0
v 2.9529612064361572 6.514280319213867 1.0
v 2.9529612064361572 2.514280319213867 1.0
v 2.914900779724121 2.3229386806488037 1.0
v 2.8065145015716553 2.160727024078369 1.0
v 2.6443028450012207 2.052340507507324 1.0
v 2.4529612064361572 2.014280319213867 1.0
v -3.157951593399048 2.014280319213867 1.0
v -3.5481321811676025 2.0527098178863525 1.0
v -3.923318386077881 2.1665213108062744 1.0
v -4.269092082977295 2.3513412475585938 1.0
v -8.547039031982422 4.453619956970215 -1.0
v -8.547039031982422 4.453619956970215 1.0
v -7.4863786697387695 5.514280319213867 1.0
v -7.4863786697387695 5.514280319213867 -1.0
v 6.952960968017578 6.514280319213867 -1.0
v 6.952960968017578 6.514280319213867 1.0
v 6.952960968017578 2.514280319213867 1.0
v 6.952960968017578 2.514280319213867 -1.0
v -7.4863786697387695 5.514280319213867 -1.0
v -4.572165012359619 2.600066900253296 -1.0
v -4.269092082977295 2.3513412475585938 -1.0
v -3.923318386077881 2.1665213108062744 -1.0
v -3.5481321811676025 2.0527098178863525 -1.0
v -3.157951593399048 2.014280319213867 -1.0
v 2.4529612064361572 2.014280319213867 -1.0
v 2.6443028450012207 2.052340507507324 -1.0
v 2.8065145015716553 2.160727024078369 -1.0
v 2.914900779724121 2.3229386806488037 -1.0
v 2.9529612064361572 2.514280319213867 -1.0
v 2.9529612064361572 6.514280319213867 -1.0
v 2.9913904666900635 6.904460906982422 -1.0
v 3.1052019596099854 7.279647350311279 -1.0
v 3.2900218963623047 7.625421047210693 -1.0
v 3.538747549057007 7.928493976593018 -1.0
v 3.84182071685791 8.17721939086914 -1.0
v 4.187594413757324 8.362039566040039 -1.0
v 4.562780380249023 8.475851058959961 -1.0
v 4.952960968017578 8.514280319213867 -1.0
v 5.343141555786133 8.475851058959961 -1.0
v 5.71832799911499 8.362039566040039 -1.0
v 6.064101696014404 8.17721939086914 -1.0
v 6.3671746253967285 7.928493976593018 -1.0
v 6.61590051651001 7.625421047210693 -1.0
v 6.80072021484375 7.279647350311279 -1.0
v 6.914531707763672 6.904460906982422 -1.0
v 6.952960968017578 6.514280319213867 -1.0
v 6.952960968017578 2.514280319213867 -1.0
v 6.991021156311035 2.3229386806488037 -1.0
v 7.09940767288208 2.160727024078369 -1.0
v 7.261619567871094 2.052340507507324 -1.0
v 7.452960968017578 2.014280319213867 -1.0
v 11.452960968017578 2.014280319213867 -1.0
v 11.452960968017578 0.514280378818512 -1.0
v -3.7792718410491943 0.514280378818512 -1.0
v -4.169452667236328 0.5527098178863525 -1.0
v -4.544638633728027 0.6665213108062744 -1.0
v -4.890412330627441 0.8513411283493042 -1.0
v -5.193485260009766 1.1000667810440063 -1.0
v -8.547039031982422 4.453619956970215 -1.0
v -7.4863786697387695 5.514280319213867 -1.0
v -7.4863786697387695 5.514280319213867 1.0
v -4.572165012359619 2.600066900253296 1.0
v -4.572165012359619 2.600066900253296 -1.0
v -4.572165012359619 2.600066900253296 -1.0
v -4.572165012359619 2.600066900253296 1.0
v -4.269092082977295 2.3513412475585938 1.0
v -3.923318386077881 2.1665213108062744 1.0
v -3.5481321811676025 2.0527098178863525 1.0
v -3.157951593399048 2.014280319213867 1.0
v -3.157951593399048 2.014280319213867 -1.0
v -3.5481321811676025 2.0527098178863525 -1.0
v -3.923318386077881 2.1665213108062744 -1.0
v -4.269092082977295 2.3513412475585938 -1.0
v -3.157951593399048 2.014280319213867 -1.0
v -3.157951593399048 2.014280319213867 1.0
v 2.4529612064361572 2.014280319213867 1.0
v 2.4529612064361572 2.014280319213867 -1.0
v 2.9529612064361572 2.514280319213867 -1.0
v 2.9529612064361572 2.514280319213867 1.0
v 2.9529612064361572 6.514280319213867 1.0
v 2.9529612064361572 6.514280319213867 -1.0
v 2.4529612064361572 2.014280319213867 -1.0
v 2.4529612064361572 2.014280319213867 1.0
v 2.6443028450012207 2.052340507507324 1.0
v 2.8065145015716553 2.160727024078369 1.0
v 2.914900779724121 2.3229386806488037 1.0
v 2.9529612064361572 2.514280319213867 1.0
v 2.9529612064361572 2.514280319213867 -1.0
v 2.914900779724121 2.3229386806488037 -1.0
v 2.8065145015716553 2.160727024078369 -1.0
v 2.6443028450012207 2.052340507507324 -1.0
v 2.9529612064361572 6.514280319213867 -1.0
v 2.9529612064361572 6.514280319213867 1.0
v 2.9913904666900635 6.904460906982422 1.0
v 3.1052019596099854 7.279647350311279 1.0
v 3.2900218963623047 7.625421047210693 1.0
v 3.538747549057007 7.928493976593018 1.0
v 3.84182071685791 8.17721939086914 1.0
v 4.187594413757324 8.362039566040039 1.0
v 4.562780380249023 8.475851058959961 1.0
v 4.952960968017578 8.514280319213867 1.0
v 5.343141555786133 8.475851058959961 1.0
v 5.71832799911499 8.362039566040039 1.0
v 6.064101696014404 8.17721939086914 1.0
v 6.3671746253967285 7.928493976593018 1.0
v 6.61590051651001 7.625421047210693 1.0
v 6.80072021484375 7.279647350311279 1.0
v 6.914531707763672 6.904460906982422 1.0
v 6.952960968017578 6.514280319213867 1.0
v 6.952960968017578 6.514280319213867 -1.0
v 6.914531707763672 6.904460906982422 -1.0
v 6.80072021484375 7.279647350311279 -1.0
v 6.61590051651001 7.625421047210693 -1.0
v 6.3671746253967285 7.928493976593018 -1.0
v 6.064101696014404 8.17721939086914 -1.0
v 5.71832799911499 8.362039566040039 -1.0
v 5.343141555786133 8.475851058959961 -1.0
v 4.952960968017578 8.514280319213867 -1.0
v 4.562780380249023 8.475851058959961 -1.0
v 4.187594413757324 8.362039566040039 -1.0
v 3.84182071685791 8.17721939086914 -1.0
v 3.538747549057007 7.928493976593018 -1.0
v 3.2900218963623047 7.625421047210693 -1.0
v 3.1052019596099854 7.279647350311279 -1.0
v 2.9913904666900635 6.904460906982422 -1.0
vn 2.18659272315207e-17 -1.0 0.0
vn 2.18659272315207e-17 -1.0 0.0
vn 2.18659272315207e-17 -1.0 0.0
vn 2.18659272315207e-17 -1.0 0.0
vn 1.0 0.0 0.0
vn 1.0 0.0 0.0
vn 1.0 0.0 0.0
vn 1.0 0.0 0.0
vn -0.0 -1.0 -0.0
vn -0.0 -1.0 -0.0
vn -0.19509032368659973 -0.9807852506637573 0.0
vn -0.3826834261417389 -0.9238795042037964 0.0
vn -0.5555702447891235 -0.8314695954322815 0.0
vn -0.7071067690849304 -0.7071067690849304 0.0
vn -0.7071067690849304 -0.7071067690849304 0.0
vn -0.5555702447891235 -0.8314695954322815 0.0
vn -0.3826834261417389 -0.9238795042037964 0.0
vn -0.19509032368659973 -0.9807852506637573 0.0
vn 1.1102230246251565e-16 1.0 -0.0
vn 1.1102230246251565e-16 1.0 -0.0
vn 1.1102230246251565e-16 1.0 -0.0
vn 1.1102230246251565e-16 1.0 -0.0
vn -0.7071067690849304 -0.7071067690849304 0.0
vn -0.7071067690849304 -0.7071067690849304 0.0
vn -0.7071067690849304 -0.7071067690849304 0.0
vn -0.7071067690849304 -0.7071067690849304 0.0
vn 1.0 0.0 -0.0
vn 1.0 0.0 -0.0
vn 0.9238795042037964 0.3826834261417389 -0.0
vn 0.7071067690849304 0.7071067690849304 -0.0
vn 0.3826834261417389 0.9238795042037964 -0.0
vn 6.123234262925839e-17 1.0 -0.0
vn 6.123234262925839e-17 1.0 -0.0
vn 0.3826834261417389 0.9238795042037964 -0.0
vn 0.7071067690849304 0.7071067690849304 -0.0
vn 0.9238795042037964 0.3826834261417389 -0.0
vn 0.0 0.0 1.0
vn 0.0 0.0 1.0
vn 0.0 0.0 1.0
vn 0.0 0.0 1.0
vn 0.0 0.0 1.0
vn 0.0 0.0 1.0
vn 0.0 0.0 1.0
vn 0.0 0.0 1.0
vn 0.0 0.0 1.0
vn 0.0 0.0 1.0
vn 0.0 0.0 1.0
vn 0.0 0.0 1.0
vn 0.0 0.0 1.0
vn 0.0 0.0 1.0
vn 0.0 0.0 1.0
vn 0.0 0.0 1.0
vn 0.0 0.0 1.0
vn 0.0 0.0 1.0
vn 0.0 0.0 1.0
vn 0.0 0.0 1.0
vn 0.0 0.0 1.0
vn 0.0 0.0 1.0
vn 0.0 0.0 1.0
vn 0.0 0.0 1.0
vn 0.0 0.0 1.0
vn 0.0 0.0 1.0
vn 0.0 0.0 1.0
vn 0.0 0.0 1.0
vn 0.0 0.0 1.0
vn 0.0 0.0 1.0
vn 0.0 0.0 1.0
vn 0.0 0.0 1.0
vn 0.0 0.0 1.0
vn 0.0 0.0 1.0
vn 0.0 0.0 1.0
vn 0.0 0.0 1.0
vn 0.0 0.0 1.0
vn 0.0 0.0 1.0
vn 0.0 0.0 1.0
vn 0.0 0.0 1.0
vn 0.0 0.0 1.0
vn -0.7071067690849304 0.7071067690849304 0.0
vn -0.7071067690849304 0.7071067690849304 0.0
vn -0.7071067690849304 0.7071067690849304 0.0
vn -0.7071067690849304 0.7071067690849304 0.0
vn 1.0 0.0 0.0
vn 1.0 0.0 0.0
vn 1.0 0.0 0.0
vn 1.0 0.0 0.0
vn -0.0 -0.0 -1.0
vn -0.0 -0.0 -1.0
vn -0.0 -0.0 -1.0
vn -0.0 -0.0 -1.0
vn -0.0 -0.0 -1.0
vn -0.0 -0.0 -1.0
vn -0.0 -0.0 -1.0
vn -0.0 -0.0 -1.0
vn -0.0 -0.0 -1.0
vn -0.0 -0.0 -1.0
vn -0.0 -0.0 -1.0
vn -0.0 -0.0 -1.0
vn -0.0 -0.0 -1.0
vn -0.0 -0.0 -1.0
vn -0.0 -0.0 -1.0
vn -0.0 -0.0 -1.0
vn -0.0 -0.0 -1.0
vn -0.0 -0.0 -1.0
vn -0.0 -0.0 -1.0
vn -0.0 -0.0 -1.0
vn -0.0 -0.0 -1.0
vn -0.0 -0.0 -1.0
vn -0.0 -0.0 -1.0
vn -0.0 -0.0 -1.0
vn -0.0 -0.0 -1.0
vn -0.0 -0.0 -1.0
vn -0.0 -0.0 -1.0
vn -0.0 -0.0 -1.0
vn -0.0 -0.0 -1.0
vn -0.0 -0.0 -1.0
vn -0.0 -0.0 -1.0
vn -0.0 -0.0 -1.0
vn -0.0 -0.0 -1.0
vn -0.0 -0.0 -1.0
vn -0.0 -0.0 -1.0
vn -0.0 -0.0 -1.0
vn -0.0 -0.0 -1.0
vn -0.0 -0.0 -1.0
vn -0.0 -0.0 -1.0
vn -0.0 -0.0 -1.0
vn -0.0 -0.0 -1.0
vn 0.7071067690849304 0.7071067690849304 -0.0
vn 0.7071067690849304 0.7071067690849304 -0.0
vn 0.7071067690849304 0.7071067690849304 -0.0
vn 0.7071067690849304 0.7071067690849304 -0.0
vn 0.7071067690849304 0.7071067690849304 -0.0
vn 0.7071067690849304 0.7071067690849304 -0.0
vn 0.5555702447891235 0.8314695954322815 -0.0
vn 0.3826834261417389 0.9238795042037964 -0.0
vn 0.19509032368659973 0.9807852506637573 -0.0
vn 0.0 1.0 0.0
vn 0.0 1.0 0.0
vn 0.19509032368659973 0.9807852506637573 -0.0
vn 0.3826834261417389 0.9238795042037964 -0.0
vn 0.5555702447891235 0.8314695954322815 -0.0
vn 0.0 1.0 -0.0
vn 0.0 1.0 -0.0
vn 0.0 1.0 -0.0
vn 0.0 1.0 -0.0
vn -1.0 0.0 0.0
vn -1.0 0.0 0.0
vn -1.0 0.0 0.0
vn -1.0 0.0 0.0
vn -0.0 1.0 0.0
vn -0.0 1.0 0.0
vn -0.3826834261417389 0.9238795042037964 0.0
vn -0.7071067690849304 0.7071067690849304 0.0
vn -0.9238795042037964 0.3826834261417389 0.0
vn -1.0 6.123234262925839e-17 0.0
vn -1.0 6.123234262925839e-17 0.0
vn -0.9238795042037964 0.3826834261417389 0.0
vn -0.7071067690849304 0.7071067690849304 0.0
vn -0.3826834261417389 0.9238795042037964 0.0
vn -1.0 1.2246468525851679e-16 -0.0
vn -1.0 1.2246468525851679e-16 -0.0
vn -0.9807852506637573 0.19509032368659973 -0.0
vn -0.9238795042037964 0.3826834261417389 -0.0
vn -0.8314695954322815 0.5555702447891235 -0.0
vn -0.7071067690849304 0.7071067690849304 -0.0
vn -0.5555702447891235 0.8314695954322815 -0.0
vn -0.3826834261417389 0.9238795042037964 -0.0
vn -0.19509032368659973 0.9807852506637573 -0.0
vn 6.123234262925839e-17 1.0 -0.0
vn 0.19509032368659973 0.9807852506637573 -0.0
vn 0.3826834261417389 0.9238795042037964 -0.0
vn 0.5555702447891235 0.8314695954322815 -0.0
vn 0.7071067690849304 0.7071067690849304 -0.0
vn 0.8314695954322815 0.5555702447891235 -0.0
vn 0.9238795042037964 0.3826834261417389 -0.0
vn 0.9807852506637573 0.19509032368659973 -0.0
vn 1.0 -0.0 -0.0
vn 1.0 -0.0 -0.0
vn 0.9807852506637573 0.19509032368659973 -0.0
vn 0.9238795042037964 0.3826834261417389 -0.0
vn 0.8314695954322815 0.5555702447891235 -0.0
vn 0.7071067690849304 0.7071067690849304 -0.0
vn 0.5555702447891235 0.8314695954322815 -0.0
vn 0.3826834261417389 0.9238795042037964 -0.0
vn 0.19509032368659973 0.9807852506637573 -0.0
vn 6.123234262925839e-17 1.0 -0.0
vn -0.19509032368659973 0.9807852506637573 -0.0
vn -0.3826834261417389 0.9238795042037964 -0.0
vn -0.5555702447891235 0.8314695954322815 -0.0
vn -0.7071067690849304 0.7071067690849304 -0.0
vn -0.8314695954322815 0.5555702447891235 -0.0
vn -0.9238795042037964 0.3826834261417389 -0.0
vn -0.9807852506637573 0.19509032368659973 -0.0
f 2//2 3//3 1//1
f 1//1 3//3 4//4
f 6//6 7//7 5//5
f 5//5 7//7 8//8
f 9//9 10//10 18//18
f 18//18 10//10 11//11
f 18//18 11//11 17//17
f 17//17 11//11 12//12
f 17//17 12//12 16//16
f 16//16 12//12 13//13
f 16//16 13//13 15//15
f 15//15 13//13 14//14
f 20//20 21//21 19//19
f 19//19 21//21 22//22
f 24//24 25//25 23//23
f 23//23 25//25 26//26
f 27//27 28//28 36//36
f 36//36 28//28 29//29
f 36//36 29//29 35//35
f 35//35 29//29 30//30
f 35//35 30//30 34//34
f 34//34 30//30 31//31
f 34//34 31//31 33//33
f 33//33 31//31 32//32
f 38//38 39//39 37//37
f 37//37 39//39 40//40
f 37//37 40//40 77//77
f 77//77 40//40 76//76
f 76//76 40//40 75//75
f 75//75 40//40 74//74
f 74//74 40//40 41//41
f 74//74 41//41 44//44
f 44//44 41//41 42//42
f 44//44 42//42 43//43
f 74//74 44//44 73//73
f 73//73 44//44 45//45
f 73//73 45//45 47//47
f 47//47 45//45 46//46
f 73//73 47//47 72//72
f 72//72 47//47 48//48
f 72//72 48//48 71//71
f 71//71 48//48 49//49
f 71//71 49//49 70//70
f 70//70 49//49 50//50
f 70//70 50//50 69//69
f 69//69 50//50 51//51
f 69//69 51//51 68//68
f 68//68 51//51 52//52
f 68//68 52//52 67//67
f 67//67 52//52 53//53
f 67//67 53//53 66//66
f 66//66 53//53 54//54
f 66//66 54//54 65//65
f 65//65 54//54 55//55
f 65//65 55//55 64//64
f 64//64 55//55 56//56
f 64//64 56//56 63//63
f 63//63 56//56 57//57
f 63//63 57//57 62//62
f 62//62 57//57 58//58
f 62//62 58//58 61//61
f 61//61 58//58 59//59
f 61//61 59//59 60//60
f 79//79 80//80 78//78
f 78//78 80//80 81//81
f 83//83 84//84 82//82
f 82//82 84//84 85//85
f 86//86 87//87 126//126
f 126//126 87//87 125//125
f 125//125 87//87 88//88
f 125//125 88//88 89//89
f 89//89 90//90 125//125
f 125//125 90//90 91//91
f 125//125 91//91 124//124
f 124//124 91//91 121//121
f 124//124 121//121 123//123
f 123//123 121//121 122//122
f 91//91 92//92 121//121
f 121//121 92//92 120//120
f 120//120 92//92 118//118
f 120//120 118//118 119//119
f 118//118 92//92 117//117
f 117//117 92//92 93//93
f 117//117 93//93 116//116
f 116//116 93//93 94//94
f 116//116 94//94 115//115
f 115//115 94//94 95//95
f 115//115 95//95 114//114
f 114//114 95//95 96//96
f 114//114 96//96 113//113
f 113//113 96//96 97//97
f 113//113 97//97 112//112
f 112//112 97//97 98//98
f 112//112 98//98 111//111
f 111//111 98//98 99//99
f 111//111 99//99 110//110
f 110//110 99//99 100//100
f 110//110 100//100 109//109
f 109//109 100//100 101//101
f 109//109 101//101 108//108
f 108//108 101//101 102//102
f 108//108 102//102 107//107
f 107//107 102//102 103//103
f 107//107 103//103 106//106
f 106//106 103//103 104//104
f 106//106 104//104 105//105
f 128//128 129//129 127//127
f 127//127 129//129 130//130
f 131//131 132//132 140//140
f 140//140 132//132 133//133
f 140//140 133//133 139//139
f 139//139 133//133 134//134
f 139//139 134//134 138//138
f 138//138 134//134 135//135
f 138//138 135//135 137//137
f 137//137 135//135 136//136
f 142//142 143//143 141//141
f 141//141 143//143 144//144
f 146//146 147//147 145//145
f 145//145 147//147 148//148
f 149//149 150//150 158//158
f 158//158 150//150 151//151
f 158//158 151//151 157//157
f 157//157 151//151 152//152
f 157//157 152//152 156//156
f 156//156 152//152 153//153
f 156//156 153//153 155//155
f 155//155 153//153 154//154
f 159//159 160//160 192//192
f 192//192 160//160 161//161
f 192//192 161//161 191//191
f 191//191 161//161 162//162
f 191//191 162//162 190//190
f 190//190 162//162 163//163
f 190//190 163//163 189//189
f 189//189 163//163 164//164
f 189//189 164//164 188//188
f 188//188 164//164 165//165
f 188//188 165//165 187//187
f 187//187 165//165 166//166
f 187//187 166//166 186//186
f 186//186 166//166 167//167
f 186//186 167//167 185//185
f 185//185 167//167 168//168
f 185//185 168//168 184//184
f 184//184 168//168 169//169
f 184//184 169//169 183//183
f 183//183 169//169 170//170
f 183//183 170//170 182//182
f 182//182 170//170 171//171
f 182//182 171//171 181//181
f 181//181 171//171 172//172
f 181//181 172//172 180//180
f 180//180 172//172 173//173
f 180//180 173//173 179//179
f 179//179 173//173 174//174
f 179//179 174//174 178//178
f 178//178 174//174 175//175
f 178//178 175//175 177//177
f 177//177 175//175 176//176

# End of file