# WaveFront *.obj file
# Vertices: 24
# Triangles : 12

v -1.350000023841858 -3.0 -0.699999988079071
v 1.350000023841858 -3.0 -0.699999988079071
v 1.350000023841858 -3.0 0.699999988079071
v -1.350000023841858 -3.0 0.699999988079071
v 1.350000023841858 -3.0 -0.699999988079071
v 1.350000023841858 3.0 -0.699999988079071
v 1.350000023841858 3.0 0.699999988079071
v 1.350000023841858 -3.0 0.699999988079071
v 1.350000023841858 -3.0 0.699999988079071
v 1.350000023841858 3.0 0.699999988079071
v -1.350000023841858 3.0 0.699999988079071
v -1.350000023841858 -3.0 0.699999988079071
v -1.350000023841858 -3.0 0.699999988079071
v -1.350000023841858 3.0 0.699999988079071
v -1.350000023841858 3.0 -0.699999988079071
v -1.350000023841858 -3.0 -0.699999988079071
v -1.350000023841858 -3.0 -0.699999988079071
v -1.350000023841858 3.0 -0.699999988079071
v 1.350000023841858 3.0 -0.699999988079071
v 1.350000023841858 -3.0 -0.699999988079071
v 1.350000023841858 3.0 -0.699999988079071
v -1.350000023841858 3.0 -0.699999988079071
v -1.350000023841858 3.0 0.699999988079071
v 1.350000023841858 3.0 0.699999988079071
vn 0.0 -1.0 0.0
vn 0.0 -1.0 0.0
vn 0.0 -1.0 0.0
vn 0.0 -1.0 0.0
vn 1.0 0.0 0.0
vn 1.0 0.0 0.0
vn 1.0 0.0 0.0
vn 1.0 0.0 0.0
vn 0.0 -0.0 1.0
vn 0.0 -0.0 1.0
vn 0.0 -0.0 1.0
vn 0.0 -0.0 1.0
vn -1.0 0.0 0.0
vn -1.0 0.0 0.0
vn -1.0 0.0 0.0
vn -1.0 0.0 0.0
vn 0.0 0.0 -1.0
vn 0.0 0.0 -1.0
vn 0.0 0.0 -1.0
vn 0.0 0.0 -1.0
vn 0.0 1.0 0.0
vn 0.0 1.0 0.0
vn 0.0 1.0 0.0
vn 0.0 1.0 0.0
g cfe60c50-e329-11ea-862c-54bf646e7e1f
f 2//2 3//3 1//1
f 1//1 3//3 4//4
g cfe63362-e329-11ea-8232-54bf646e7e1f
f 6//6 7//7 5//5
f 5//5 7//7 8//8
g cfe65a48-e329-11ea-988a-54bf646e7e1f
f 10//10 11//11 9//9
f 9//9 11//11 12//12
g cfe6a86e-e329-11ea-a971-54bf646e7e1f
f 14//14 15//15 13//13
f 13//13 15//15 16//16
g cfe6cf86-e329-11ea-bd58-54bf646e7e1f
f 18//18 19//19 17//17
f 17//17 19//19 20//20
g cfe71da6-e329-11ea-aff5-54bf646e7e1f
f 22//22 23//23 21//21
f 21//21 23//23 24//24

# End of file