# WaveFront *.obj file
# Vertices: 124
# Triangles : 116

v -0.5556227564811707 9.727295875549316 -5.097113086694003e-15
v -0.5020328760147095 9.52729606628418 -5.098441234355298e-15
v -0.3556227385997772 9.380885124206543 -5.1020694999848615e-15
v -0.15562273561954498 9.327295303344727 -5.10702591327572e-15
v 0.04437726363539696 9.380885124206543 -5.111982326566579e-15
v 0.1907874196767807 9.52729606628418 -5.1156105921961424e-15
v 0.2443772554397583 9.727295875549316 -5.116938739857437e-15
v 0.1907874196767807 9.927295684814453 -5.1156105921961424e-15
v 0.04437726363539696 10.073705673217773 -5.111982326566579e-15
v -0.15562273561954498 10.12729549407959 -5.10702591327572e-15
v -0.3556227385997772 10.073705673217773 -5.1020694999848615e-15
v -0.5020328760147095 9.927295684814453 -5.098441234355298e-15
v -0.5556227564811707 -16.272705078125 9.912705813347644e-18
v -0.5020328760147095 -16.47270393371582 8.58465493218457e-18
v -0.3556227385997772 -16.61911392211914 4.956352906673822e-18
v -0.15562273561954498 -16.672704696655273 -5.009103587774289e-33
v 0.04437726363539696 -16.61911392211914 -4.956352906673822e-18
v 0.1907874196767807 -16.47270393371582 -8.58465493218457e-18
v 0.2443772554397583 -16.272705078125 -9.912705813347644e-18
v 0.1907874196767807 -16.072704315185547 -8.58465493218457e-18
v 0.04437726363539696 -15.926294326782227 -4.956352906673822e-18
v -0.15562273561954498 -15.87270450592041 3.795147429135081e-33
v -0.3556227385997772 -15.926294326782227 4.956352906673822e-18
v -0.5020328760147095 -16.072704315185547 8.58465493218457e-18
v 2.344377279281616 -18.272705078125 0.0
v -2.655622720718384 -18.272705078125 0.0
v -2.655622720718384 11.727295875549316 0.0
v 2.344377279281616 11.727295875549316 0.0
v -0.5556227564811707 -16.272705078125 9.912705813347644e-18
v -0.5020328760147095 -16.072704315185547 8.58465493218457e-18
v -0.3556227385997772 -15.926294326782227 4.956352906673822e-18
v -0.15562273561954498 -15.87270450592041 3.795147429135081e-33
v 0.04437726363539696 -15.926294326782227 -4.956352906673822e-18
v 0.1907874196767807 -16.072704315185547 -8.58465493218457e-18
v 0.2443772554397583 -16.272705078125 -9.912705813347644e-18
v 0.1907874196767807 -16.47270393371582 -8.58465493218457e-18
v 0.04437726363539696 -16.61911392211914 -4.956352906673822e-18
v -0.15562273561954498 -16.672704696655273 -5.009103587774289e-33
v -0.3556227385997772 -16.61911392211914 4.956352906673822e-18
v -0.5020328760147095 -16.47270393371582 8.58465493218457e-18
v -0.5556227564811707 -16.272705078125 0.8500000238418579
v -0.5020328760147095 -16.47270393371582 0.8500000238418579
v -0.3556227385997772 -16.61911392211914 0.8500000238418579
v -0.15562273561954498 -16.672704696655273 0.8500000238418579
v 0.04437726363539696 -16.61911392211914 0.8500000238418579
v 0.1907874196767807 -16.47270393371582 0.8500000238418579
v 0.2443772554397583 -16.272705078125 0.8500000238418579
v 0.1907874196767807 -16.072704315185547 0.8500000238418579
v 0.04437726363539696 -15.926294326782227 0.8500000238418579
v -0.15562273561954498 -15.87270450592041 0.8500000238418579
v -0.3556227385997772 -15.926294326782227 0.8500000238418579
v -0.5020328760147095 -16.072704315185547 0.8500000238418579
v -0.5556227564811707 -16.272705078125 9.912705813347644e-18
v -0.5556227564811707 -16.272705078125 0.8500000238418579
v -0.5556227564811707 9.727295875549316 0.8500000238418579
v -0.5020328760147095 9.927295684814453 0.8500000238418579
v -0.3556227385997772 10.073705673217773 0.8500000238418579
v -0.15562273561954498 10.12729549407959 0.8500000238418579
v 0.04437726363539696 10.073705673217773 0.8500000238418579
v 0.1907874196767807 9.927295684814453 0.8500000238418579
v 0.2443772554397583 9.727295875549316 0.8500000238418579
v 0.1907874196767807 9.52729606628418 0.8500000238418579
v 0.04437726363539696 9.380885124206543 0.8500000238418579
v -0.15562273561954498 9.327295303344727 0.8500000238418579
v -0.3556227385997772 9.380885124206543 0.8500000238418579
v -0.5020328760147095 9.52729606628418 0.8500000238418579
v -0.5556227564811707 -16.272705078125 0.8500000238418579
v -0.5020328760147095 -16.072704315185547 0.8500000238418579
v -0.3556227385997772 -15.926294326782227 0.8500000238418579
v -0.15562273561954498 -15.87270450592041 0.8500000238418579
v 0.04437726363539696 -15.926294326782227 0.8500000238418579
v 0.1907874196767807 -16.072704315185547 0.8500000238418579
v 0.2443772554397583 -16.272705078125 0.8500000238418579
v 0.1907874196767807 -16.47270393371582 0.8500000238418579
v 0.04437726363539696 -16.61911392211914 0.8500000238418579
v -0.15562273561954498 -16.672704696655273 0.8500000238418579
v -0.3556227385997772 -16.61911392211914 0.8500000238418579
v -0.5020328760147095 -16.47270393371582 0.8500000238418579
v -2.655622720718384 -18.272705078125 0.8500000238418579
v 2.344377279281616 -18.272705078125 0.8500000238418579
v 2.344377279281616 11.727295875549316 0.8500000238418579
v -2.655622720718384 11.727295875549316 0.8500000238418579
v -2.655622720718384 -18.272705078125 0.0
v 2.344377279281616 -18.272705078125 0.0
v 2.344377279281616 -18.272705078125 0.8500000238418579
v -2.655622720718384 -18.272705078125 0.8500000238418579
v 2.344377279281616 -18.272705078125 0.0
v 2.344377279281616 11.727295875549316 0.0
v 2.344377279281616 11.727295875549316 0.8500000238418579
v 2.344377279281616 -18.272705078125 0.8500000238418579
v -2.655622720718384 11.727295875549316 0.0
v -2.655622720718384 -18.272705078125 0.0
v -2.655622720718384 -18.272705078125 0.8500000238418579
v -2.655622720718384 11.727295875549316 0.8500000238418579
v 2.344377279281616 11.727295875549316 0.0
v -2.655622720718384 11.727295875549316 0.0
v -2.655622720718384 11.727295875549316 0.8500000238418579
v 2.344377279281616 11.727295875549316 0.8500000238418579
v -0.5556227564811707 9.727295875549316 -5.097113086694003e-15
v -0.5020328760147095 9.927295684814453 -5.098441234355298e-15
v -0.3556227385997772 10.073705673217773 -5.1020694999848615e-15
v -0.15562273561954498 10.12729549407959 -5.10702591327572e-15
v 0.04437726363539696 10.073705673217773 -5.111982326566579e-15
v 0.1907874196767807 9.927295684814453 -5.1156105921961424e-15
v 0.2443772554397583 9.727295875549316 -5.116938739857437e-15
v 0.1907874196767807 9.52729606628418 -5.1156105921961424e-15
v 0.04437726363539696 9.380885124206543 -5.111982326566579e-15
v -0.15562273561954498 9.327295303344727 -5.10702591327572e-15
v -0.3556227385997772 9.380885124206543 -5.1020694999848615e-15
v -0.5020328760147095 9.52729606628418 -5.098441234355298e-15
v -0.5556227564811707 9.727295875549316 0.8500000238418579
v -0.5020328760147095 9.52729606628418 0.8500000238418579
v -0.3556227385997772 9.380885124206543 0.8500000238418579
v -0.15562273561954498 9.327295303344727 0.8500000238418579
v 0.04437726363539696 9.380885124206543 0.8500000238418579
v 0.1907874196767807 9.52729606628418 0.8500000238418579
v 0.2443772554397583 9.727295875549316 0.8500000238418579
v 0.1907874196767807 9.927295684814453 0.8500000238418579
v 0.04437726363539696 10.073705673217773 0.8500000238418579
v -0.15562273561954498 10.12729549407959 0.8500000238418579
v -0.3556227385997772 10.073705673217773 0.8500000238418579
v -0.5020328760147095 9.927295684814453 0.8500000238418579
v -0.5556227564811707 9.727295875549316 -5.097113086694003e-15
v -0.5556227564811707 9.727295875549316 0.8500000238418579
vn -0.0 0.0 -1.0
vn -0.0 0.0 -1.0
vn -0.0 0.0 -1.0
vn -0.0 0.0 -1.0
vn -0.0 0.0 -1.0
vn -0.0 0.0 -1.0
vn -0.0 0.0 -1.0
vn -0.0 0.0 -1.0
vn -0.0 0.0 -1.0
vn -0.0 0.0 -1.0
vn -0.0 0.0 -1.0
vn -0.0 0.0 -1.0
vn -0.0 0.0 -1.0
vn -0.0 0.0 -1.0
vn -0.0 0.0 -1.0
vn -0.0 0.0 -1.0
vn -0.0 0.0 -1.0
vn -0.0 0.0 -1.0
vn -0.0 0.0 -1.0
vn -0.0 0.0 -1.0
vn -0.0 0.0 -1.0
vn -0.0 0.0 -1.0
vn -0.0 0.0 -1.0
vn -0.0 0.0 -1.0
vn -0.0 0.0 -1.0
vn -0.0 0.0 -1.0
vn -0.0 0.0 -1.0
vn -0.0 0.0 -1.0
vn 1.0 -7.053317467169444e-16 -2.4781763706188498e-17
vn 0.8660253882408142 -0.5 -2.146163774405173e-17
vn 0.5 -0.8660253882408142 -1.2390881853094249e-17
vn -2.0001022070740296e-16 -1.0 4.956606010066566e-33
vn -0.5 -0.8660253882408142 1.2390881853094249e-17
vn -0.8660253882408142 -0.5 2.146163774405173e-17
vn -1.0 -1.232595164407831e-31 2.4781763706188498e-17
vn -0.8660253882408142 0.5 2.146163774405173e-17
vn -0.5 0.8660253882408142 1.2390881853094249e-17
vn 7.754553544888617e-17 1.0 -1.921715246126561e-33
vn 0.5 0.8660253882408142 -1.2390881853094249e-17
vn 0.8660253882408142 0.5 -2.146163774405173e-17
vn 1.0 -4.6040242913947e-16 -2.4781763706188498e-17
vn 0.8660253882408142 0.5 -2.146163774405173e-17
vn 0.5 0.8660253882408142 -1.2390881853094249e-17
vn 7.754553544888617e-17 1.0 -1.921715246126561e-33
vn -0.5 0.8660253882408142 1.2390881853094249e-17
vn -0.8660253882408142 0.5 2.146163774405173e-17
vn -1.0 0.0 2.4781763706188498e-17
vn -0.8660253882408142 -0.5 2.146163774405173e-17
vn -0.5 -0.8660253882408142 1.2390881853094249e-17
vn -2.0001022070740296e-16 -1.0 4.956606010066566e-33
vn 0.5 -0.8660253882408142 -1.2390881853094249e-17
vn 0.8660253882408142 -0.5 -2.146163774405173e-17
vn 1.0 -4.6040242913947e-16 -2.4781763706188498e-17
vn 1.0 -7.053317467169444e-16 -2.4781763706188498e-17
vn 0.0 0.0 1.0
vn 0.0 0.0 1.0
vn 0.0 0.0 1.0
vn 0.0 0.0 1.0
vn 0.0 0.0 1.0
vn 0.0 0.0 1.0
vn 0.0 0.0 1.0
vn 0.0 0.0 1.0
vn 0.0 0.0 1.0
vn 0.0 0.0 1.0
vn 0.0 0.0 1.0
vn 0.0 0.0 1.0
vn 0.0 0.0 1.0
vn 0.0 0.0 1.0
vn 0.0 0.0 1.0
vn 0.0 0.0 1.0
vn 0.0 0.0 1.0
vn 0.0 0.0 1.0
vn 0.0 0.0 1.0
vn 0.0 0.0 1.0
vn 0.0 0.0 1.0
vn 0.0 0.0 1.0
vn 0.0 0.0 1.0
vn 0.0 0.0 1.0
vn 0.0 0.0 1.0
vn 0.0 0.0 1.0
vn 0.0 0.0 1.0
vn 0.0 0.0 1.0
vn 0.0 -1.0 0.0
vn 0.0 -1.0 0.0
vn 0.0 -1.0 0.0
vn 0.0 -1.0 0.0
vn 1.0 0.0 -0.0
vn 1.0 0.0 -0.0
vn 1.0 0.0 -0.0
vn 1.0 0.0 -0.0
vn -1.0 0.0 0.0
vn -1.0 0.0 0.0
vn -1.0 0.0 0.0
vn -1.0 0.0 0.0
vn 0.0 1.0 0.0
vn 0.0 1.0 0.0
vn 0.0 1.0 0.0
vn 0.0 1.0 0.0
vn 1.0 -7.053317467169444e-16 -2.4781763706188498e-17
vn 0.8660253882408142 -0.5 1.7679247852290115e-16
vn 0.5 -0.8660253882408142 3.3099530302657936e-16
vn -2.0001022070740296e-16 -1.0 3.9650821929901596e-16
vn -0.5 -0.8660253882408142 3.5577707831329643e-16
vn -0.8660253882408142 -0.5 2.1971575401100461e-16
vn -1.0 -8.425799891714661e-16 2.4781763706188498e-17
vn -0.8660253882408142 0.5 -1.7679247852290115e-16
vn -0.5 0.8660253882408142 -3.3099530302657936e-16
vn 7.754553544888617e-17 1.0 -3.9650821929901596e-16
vn 0.5 0.8660253882408142 -3.5577707831329643e-16
vn 0.8660253882408142 0.5 -2.1971575401100461e-16
vn 1.0 -4.6040242913947e-16 -2.4781763706188498e-17
vn 0.8660253882408142 0.5 -2.1971575401100461e-16
vn 0.5 0.8660253882408142 -3.5577707831329643e-16
vn 7.754553544888617e-17 1.0 -3.9650821929901596e-16
vn -0.5 0.8660253882408142 -3.3099530302657936e-16
vn -0.8660253882408142 0.5 -1.7679247852290115e-16
vn -1.0 -3.564699972484412e-30 2.4781763706188498e-17
vn -0.8660253882408142 -0.5 2.1971575401100461e-16
vn -0.5 -0.8660253882408142 3.5577707831329643e-16
vn -2.0001022070740296e-16 -1.0 3.9650821929901596e-16
vn 0.5 -0.8660253882408142 3.3099530302657936e-16
vn 0.8660253882408142 -0.5 1.7679247852290115e-16
vn 1.0 -4.6040242913947e-16 -2.4781763706188498e-17
vn 1.0 -7.053317467169444e-16 -2.4781763706188498e-17
f 2//2 24//24 1//1
f 1//1 24//24 13//13
f 1//1 13//13 26//26
f 26//26 13//13 14//14
f 26//26 14//14 15//15
f 2//2 3//3 24//24
f 24//24 3//3 23//23
f 23//23 3//3 4//4
f 23//23 4//4 22//22
f 22//22 4//4 21//21
f 21//21 4//4 5//5
f 21//21 5//5 20//20
f 20//20 5//5 6//6
f 20//20 6//6 7//7
f 8//8 28//28 7//7
f 7//7 28//28 25//25
f 7//7 25//25 19//19
f 19//19 25//25 18//18
f 18//18 25//25 17//17
f 17//17 25//25 16//16
f 16//16 25//25 26//26
f 16//16 26//26 15//15
f 8//8 9//9 28//28
f 28//28 9//9 10//10
f 28//28 10//10 27//27
f 27//27 10//10 11//11
f 27//27 11//11 12//12
f 12//12 1//1 27//27
f 27//27 1//1 26//26
f 19//19 20//20 7//7
f 30//30 52//52 29//29
f 29//29 52//52 54//54
f 53//53 41//41 40//40
f 40//40 41//41 42//42
f 40//40 42//42 39//39
f 39//39 42//42 43//43
f 39//39 43//43 38//38
f 38//38 43//43 44//44
f 38//38 44//44 37//37
f 37//37 44//44 45//45
f 37//37 45//45 36//36
f 36//36 45//45 46//46
f 36//36 46//46 35//35
f 35//35 46//46 47//47
f 35//35 47//47 34//34
f 34//34 47//47 48//48
f 34//34 48//48 33//33
f 33//33 48//48 49//49
f 33//33 49//49 32//32
f 32//32 49//49 50//50
f 32//32 50//50 31//31
f 31//31 50//50 51//51
f 31//31 51//51 30//30
f 30//30 51//51 52//52
f 56//56 82//82 55//55
f 55//55 82//82 79//79
f 55//55 79//79 67//67
f 67//67 79//79 78//78
f 78//78 79//79 77//77
f 77//77 79//79 76//76
f 76//76 79//79 80//80
f 76//76 80//80 75//75
f 75//75 80//80 74//74
f 74//74 80//80 73//73
f 73//73 80//80 61//61
f 73//73 61//61 72//72
f 72//72 61//61 62//62
f 72//72 62//62 63//63
f 56//56 57//57 82//82
f 82//82 57//57 58//58
f 82//82 58//58 81//81
f 81//81 58//58 59//59
f 81//81 59//59 60//60
f 60//60 61//61 81//81
f 81//81 61//61 80//80
f 72//72 63//63 71//71
f 71//71 63//63 64//64
f 71//71 64//64 70//70
f 70//70 64//64 69//69
f 69//69 64//64 65//65
f 69//69 65//65 68//68
f 68//68 65//65 66//66
f 68//68 66//66 55//55
f 67//67 68//68 55//55
f 83//83 84//84 86//86
f 86//86 84//84 85//85
f 87//87 88//88 90//90
f 90//90 88//88 89//89
f 91//91 92//92 94//94
f 94//94 92//92 93//93
f 95//95 96//96 98//98
f 98//98 96//96 97//97
f 100//100 122//122 99//99
f 99//99 122//122 124//124
f 123//123 111//111 110//110
f 110//110 111//111 112//112
f 110//110 112//112 109//109
f 109//109 112//112 113//113
f 109//109 113//113 108//108
f 108//108 113//113 114//114
f 108//108 114//114 107//107
f 107//107 114//114 115//115
f 107//107 115//115 106//106
f 106//106 115//115 116//116
f 106//106 116//116 105//105
f 105//105 116//116 117//117
f 105//105 117//117 104//104
f 104//104 117//117 118//118
f 104//104 118//118 103//103
f 103//103 118//118 119//119
f 103//103 119//119 102//102
f 102//102 119//119 120//120
f 102//102 120//120 101//101
f 101//101 120//120 121//121
f 101//101 121//121 100//100
f 100//100 121//121 122//122

# End of file