# WaveFront *.obj file
# Vertices: 124
# Triangles : 116

v -0.5556227564811707 9.727295875549316 -5.097113086694003e-15
v -0.5020328760147095 9.927295684814453 -5.098441234355298e-15
v -0.3556227385997772 10.073705673217773 -5.1020694999848615e-15
v -0.15562273561954498 10.12729549407959 -5.10702591327572e-15
v 0.04437726363539696 10.073705673217773 -5.111982326566579e-15
v 0.1907874196767807 9.927295684814453 -5.1156105921961424e-15
v 0.2443772554397583 9.727295875549316 -5.116938739857437e-15
v 0.1907874196767807 9.52729606628418 -5.1156105921961424e-15
v 0.04437726363539696 9.380885124206543 -5.111982326566579e-15
v -0.15562273561954498 9.327295303344727 -5.10702591327572e-15
v -0.3556227385997772 9.380885124206543 -5.1020694999848615e-15
v -0.5020328760147095 9.52729606628418 -5.098441234355298e-15
v -0.5556227564811707 9.727295875549316 0.8500000238418579
v -0.5020328760147095 9.52729606628418 0.8500000238418579
v -0.3556227385997772 9.380885124206543 0.8500000238418579
v -0.15562273561954498 9.327295303344727 0.8500000238418579
v 0.04437726363539696 9.380885124206543 0.8500000238418579
v 0.1907874196767807 9.52729606628418 0.8500000238418579
v 0.2443772554397583 9.727295875549316 0.8500000238418579
v 0.1907874196767807 9.927295684814453 0.8500000238418579
v 0.04437726363539696 10.073705673217773 0.8500000238418579
v -0.15562273561954498 10.12729549407959 0.8500000238418579
v -0.3556227385997772 10.073705673217773 0.8500000238418579
v -0.5020328760147095 9.927295684814453 0.8500000238418579
v -0.5556227564811707 9.727295875549316 -5.097113086694003e-15
v -0.5556227564811707 9.727295875549316 0.8500000238418579
v -0.5556227564811707 -16.272705078125 9.912705813347644e-18
v -0.5020328760147095 -16.072704315185547 8.58465493218457e-18
v -0.3556227385997772 -15.926294326782227 4.956352906673822e-18
v -0.15562273561954498 -15.87270450592041 3.795147429135081e-33
v 0.04437726363539696 -15.926294326782227 -4.956352906673822e-18
v 0.1907874196767807 -16.072704315185547 -8.58465493218457e-18
v 0.2443772554397583 -16.272705078125 -9.912705813347644e-18
v 0.1907874196767807 -16.47270393371582 -8.58465493218457e-18
v 0.04437726363539696 -16.61911392211914 -4.956352906673822e-18
v -0.15562273561954498 -16.672704696655273 -5.009103587774289e-33
v -0.3556227385997772 -16.61911392211914 4.956352906673822e-18
v -0.5020328760147095 -16.47270393371582 8.58465493218457e-18
v -0.5556227564811707 -16.272705078125 0.8500000238418579
v -0.5020328760147095 -16.47270393371582 0.8500000238418579
v -0.3556227385997772 -16.61911392211914 0.8500000238418579
v -0.15562273561954498 -16.672704696655273 0.8500000238418579
v 0.04437726363539696 -16.61911392211914 0.8500000238418579
v 0.1907874196767807 -16.47270393371582 0.8500000238418579
v 0.2443772554397583 -16.272705078125 0.8500000238418579
v 0.1907874196767807 -16.072704315185547 0.8500000238418579
v 0.04437726363539696 -15.926294326782227 0.8500000238418579
v -0.15562273561954498 -15.87270450592041 0.8500000238418579
v -0.3556227385997772 -15.926294326782227 0.8500000238418579
v -0.5020328760147095 -16.072704315185547 0.8500000238418579
v -0.5556227564811707 -16.272705078125 9.912705813347644e-18
v -0.5556227564811707 -16.272705078125 0.8500000238418579
v -2.655622720718384 11.727295875549316 0.0
v -2.655622720718384 -18.272705078125 0.0
v -2.655622720718384 -18.272705078125 0.8500000238418579
v -2.655622720718384 11.727295875549316 0.8500000238418579
v 2.344377279281616 11.727295875549316 0.0
v -2.655622720718384 11.727295875549316 0.0
v -2.655622720718384 11.727295875549316 0.8500000238418579
v 2.344377279281616 11.727295875549316 0.8500000238418579
v 2.344377279281616 -18.272705078125 0.0
v 2.344377279281616 11.727295875549316 0.0
v 2.344377279281616 11.727295875549316 0.8500000238418579
v 2.344377279281616 -18.272705078125 0.8500000238418579
v -2.655622720718384 -18.272705078125 0.0
v 2.344377279281616 -18.272705078125 0.0
v 2.344377279281616 -18.272705078125 0.8500000238418579
v -2.655622720718384 -18.272705078125 0.8500000238418579
v -0.5556227564811707 9.727295875549316 0.8500000238418579
v -0.5020328760147095 9.927295684814453 0.8500000238418579
v -0.3556227385997772 10.073705673217773 0.8500000238418579
v -0.15562273561954498 10.12729549407959 0.8500000238418579
v 0.04437726363539696 10.073705673217773 0.8500000238418579
v 0.1907874196767807 9.927295684814453 0.8500000238418579
v 0.2443772554397583 9.727295875549316 0.8500000238418579
v 0.1907874196767807 9.52729606628418 0.8500000238418579
v 0.04437726363539696 9.380885124206543 0.8500000238418579
v -0.15562273561954498 9.327295303344727 0.8500000238418579
v -0.3556227385997772 9.380885124206543 0.8500000238418579
v -0.5020328760147095 9.52729606628418 0.8500000238418579
v -0.5556227564811707 -16.272705078125 0.8500000238418579
v -0.5020328760147095 -16.072704315185547 0.8500000238418579
v -0.3556227385997772 -15.926294326782227 0.8500000238418579
v -0.15562273561954498 -15.87270450592041 0.8500000238418579
v 0.04437726363539696 -15.926294326782227 0.8500000238418579
v 0.1907874196767807 -16.072704315185547 0.8500000238418579
v 0.2443772554397583 -16.272705078125 0.8500000238418579
v 0.1907874196767807 -16.47270393371582 0.8500000238418579
v 0.04437726363539696 -16.61911392211914 0.8500000238418579
v -0.15562273561954498 -16.672704696655273 0.8500000238418579
v -0.3556227385997772 -16.61911392211914 0.8500000238418579
v -0.5020328760147095 -16.47270393371582 0.8500000238418579
v -2.655622720718384 -18.272705078125 0.8500000238418579
v 2.344377279281616 -18.272705078125 0.8500000238418579
v 2.344377279281616 11.727295875549316 0.8500000238418579
v -2.655622720718384 11.727295875549316 0.8500000238418579
v -0.5556227564811707 9.727295875549316 -5.097113086694003e-15
v -0.5020328760147095 9.52729606628418 -5.098441234355298e-15
v -0.3556227385997772 9.380885124206543 -5.1020694999848615e-15
v -0.15562273561954498 9.327295303344727 -5.10702591327572e-15
v 0.04437726363539696 9.380885124206543 -5.111982326566579e-15
v 0.1907874196767807 9.52729606628418 -5.1156105921961424e-15
v 0.2443772554397583 9.727295875549316 -5.116938739857437e-15
v 0.1907874196767807 9.927295684814453 -5.1156105921961424e-15
v 0.04437726363539696 10.073705673217773 -5.111982326566579e-15
v -0.15562273561954498 10.12729549407959 -5.10702591327572e-15
v -0.3556227385997772 10.073705673217773 -5.1020694999848615e-15
v -0.5020328760147095 9.927295684814453 -5.098441234355298e-15
v -0.5556227564811707 -16.272705078125 9.912705813347644e-18
v -0.5020328760147095 -16.47270393371582 8.58465493218457e-18
v -0.3556227385997772 -16.61911392211914 4.956352906673822e-18
v -0.15562273561954498 -16.672704696655273 -5.009103587774289e-33
v 0.04437726363539696 -16.61911392211914 -4.956352906673822e-18
v 0.1907874196767807 -16.47270393371582 -8.58465493218457e-18
v 0.2443772554397583 -16.272705078125 -9.912705813347644e-18
v 0.1907874196767807 -16.072704315185547 -8.58465493218457e-18
v 0.04437726363539696 -15.926294326782227 -4.956352906673822e-18
v -0.15562273561954498 -15.87270450592041 3.795147429135081e-33
v -0.3556227385997772 -15.926294326782227 4.956352906673822e-18
v -0.5020328760147095 -16.072704315185547 8.58465493218457e-18
v 2.344377279281616 -18.272705078125 0.0
v -2.655622720718384 -18.272705078125 0.0
v -2.655622720718384 11.727295875549316 0.0
v 2.344377279281616 11.727295875549316 0.0
vn 1.0 -7.053317467169444e-16 -2.4781763706188498e-17
vn 0.8660253882408142 -0.5 1.7679247852290115e-16
vn 0.5 -0.8660253882408142 3.3099530302657936e-16
vn -2.0001022070740296e-16 -1.0 3.9650821929901596e-16
vn -0.5 -0.8660253882408142 3.5577707831329643e-16
vn -0.8660253882408142 -0.5 2.1971575401100461e-16
vn -1.0 -8.425799891714661e-16 2.4781763706188498e-17
vn -0.8660253882408142 0.5 -1.7679247852290115e-16
vn -0.5 0.8660253882408142 -3.3099530302657936e-16
vn 7.754553544888617e-17 1.0 -3.9650821929901596e-16
vn 0.5 0.8660253882408142 -3.5577707831329643e-16
vn 0.8660253882408142 0.5 -2.1971575401100461e-16
vn 1.0 -4.6040242913947e-16 -2.4781763706188498e-17
vn 0.8660253882408142 0.5 -2.1971575401100461e-16
vn 0.5 0.8660253882408142 -3.5577707831329643e-16
vn 7.754553544888617e-17 1.0 -3.9650821929901596e-16
vn -0.5 0.8660253882408142 -3.3099530302657936e-16
vn -0.8660253882408142 0.5 -1.7679247852290115e-16
vn -1.0 -3.564699972484412e-30 2.4781763706188498e-17
vn -0.8660253882408142 -0.5 2.1971575401100461e-16
vn -0.5 -0.8660253882408142 3.5577707831329643e-16
vn -2.0001022070740296e-16 -1.0 3.9650821929901596e-16
vn 0.5 -0.8660253882408142 3.3099530302657936e-16
vn 0.8660253882408142 -0.5 1.7679247852290115e-16
vn 1.0 -4.6040242913947e-16 -2.4781763706188498e-17
vn 1.0 -7.053317467169444e-16 -2.4781763706188498e-17
vn 1.0 -7.053317467169444e-16 -2.4781763706188498e-17
vn 0.8660253882408142 -0.5 -2.146163774405173e-17
vn 0.5 -0.8660253882408142 -1.2390881853094249e-17
vn -2.0001022070740296e-16 -1.0 4.956606010066566e-33
vn -0.5 -0.8660253882408142 1.2390881853094249e-17
vn -0.8660253882408142 -0.5 2.146163774405173e-17
vn -1.0 -1.232595164407831e-31 2.4781763706188498e-17
vn -0.8660253882408142 0.5 2.146163774405173e-17
vn -0.5 0.8660253882408142 1.2390881853094249e-17
vn 7.754553544888617e-17 1.0 -1.921715246126561e-33
vn 0.5 0.8660253882408142 -1.2390881853094249e-17
vn 0.8660253882408142 0.5 -2.146163774405173e-17
vn 1.0 -4.6040242913947e-16 -2.4781763706188498e-17
vn 0.8660253882408142 0.5 -2.146163774405173e-17
vn 0.5 0.8660253882408142 -1.2390881853094249e-17
vn 7.754553544888617e-17 1.0 -1.921715246126561e-33
vn -0.5 0.8660253882408142 1.2390881853094249e-17
vn -0.8660253882408142 0.5 2.146163774405173e-17
vn -1.0 0.0 2.4781763706188498e-17
vn -0.8660253882408142 -0.5 2.146163774405173e-17
vn -0.5 -0.8660253882408142 1.2390881853094249e-17
vn -2.0001022070740296e-16 -1.0 4.956606010066566e-33
vn 0.5 -0.8660253882408142 -1.2390881853094249e-17
vn 0.8660253882408142 -0.5 -2.146163774405173e-17
vn 1.0 -4.6040242913947e-16 -2.4781763706188498e-17
vn 1.0 -7.053317467169444e-16 -2.4781763706188498e-17
vn -1.0 0.0 0.0
vn -1.0 0.0 0.0
vn -1.0 0.0 0.0
vn -1.0 0.0 0.0
vn 0.0 1.0 0.0
vn 0.0 1.0 0.0
vn 0.0 1.0 0.0
vn 0.0 1.0 0.0
vn 1.0 0.0 -0.0
vn 1.0 0.0 -0.0
vn 1.0 0.0 -0.0
vn 1.0 0.0 -0.0
vn 0.0 -1.0 0.0
vn 0.0 -1.0 0.0
vn 0.0 -1.0 0.0
vn 0.0 -1.0 0.0
vn 0.0 0.0 1.0
vn 0.0 0.0 1.0
vn 0.0 0.0 1.0
vn 0.0 0.0 1.0
vn 0.0 0.0 1.0
vn 0.0 0.0 1.0
vn 0.0 0.0 1.0
vn 0.0 0.0 1.0
vn 0.0 0.0 1.0
vn 0.0 0.0 1.0
vn 0.0 0.0 1.0
vn 0.0 0.0 1.0
vn 0.0 0.0 1.0
vn 0.0 0.0 1.0
vn 0.0 0.0 1.0
vn 0.0 0.0 1.0
vn 0.0 0.0 1.0
vn 0.0 0.0 1.0
vn 0.0 0.0 1.0
vn 0.0 0.0 1.0
vn 0.0 0.0 1.0
vn 0.0 0.0 1.0
vn 0.0 0.0 1.0
vn 0.0 0.0 1.0
vn 0.0 0.0 1.0
vn 0.0 0.0 1.0
vn 0.0 0.0 1.0
vn 0.0 0.0 1.0
vn -0.0 0.0 -1.0
vn -0.0 0.0 -1.0
vn -0.0 0.0 -1.0
vn -0.0 0.0 -1.0
vn -0.0 0.0 -1.0
vn -0.0 0.0 -1.0
vn -0.0 0.0 -1.0
vn -0.0 0.0 -1.0
vn -0.0 0.0 -1.0
vn -0.0 0.0 -1.0
vn -0.0 0.0 -1.0
vn -0.0 0.0 -1.0
vn -0.0 0.0 -1.0
vn -0.0 0.0 -1.0
vn -0.0 0.0 -1.0
vn -0.0 0.0 -1.0
vn -0.0 0.0 -1.0
vn -0.0 0.0 -1.0
vn -0.0 0.0 -1.0
vn -0.0 0.0 -1.0
vn -0.0 0.0 -1.0
vn -0.0 0.0 -1.0
vn -0.0 0.0 -1.0
vn -0.0 0.0 -1.0
vn -0.0 0.0 -1.0
vn -0.0 0.0 -1.0
vn -0.0 0.0 -1.0
vn -0.0 0.0 -1.0
g 1107fe30-e32a-11ea-bb19-54bf646e7e1f
f 2//2 24//24 1//1
f 1//1 24//24 26//26
f 25//25 13//13 12//12
f 12//12 13//13 14//14
f 12//12 14//14 11//11
f 11//11 14//14 15//15
f 11//11 15//15 10//10
f 10//10 15//15 16//16
f 10//10 16//16 9//9
f 9//9 16//16 17//17
f 9//9 17//17 8//8
f 8//8 17//17 18//18
f 8//8 18//18 7//7
f 7//7 18//18 19//19
f 7//7 19//19 6//6
f 6//6 19//19 20//20
f 6//6 20//20 5//5
f 5//5 20//20 21//21
f 5//5 21//21 4//4
f 4//4 21//21 22//22
f 4//4 22//22 3//3
f 3//3 22//22 23//23
f 3//3 23//23 2//2
f 2//2 23//23 24//24
g 110873c2-e32a-11ea-833d-54bf646e7e1f
f 28//28 50//50 27//27
f 27//27 50//50 52//52
f 51//51 39//39 38//38
f 38//38 39//39 40//40
f 38//38 40//40 37//37
f 37//37 40//40 41//41
f 37//37 41//41 36//36
f 36//36 41//41 42//42
f 36//36 42//42 35//35
f 35//35 42//42 43//43
f 35//35 43//43 34//34
f 34//34 43//43 44//44
f 34//34 44//44 33//33
f 33//33 44//44 45//45
f 33//33 45//45 32//32
f 32//32 45//45 46//46
f 32//32 46//46 31//31
f 31//31 46//46 47//47
f 31//31 47//47 30//30
f 30//30 47//47 48//48
f 30//30 48//48 29//29
f 29//29 48//48 49//49
f 29//29 49//49 28//28
f 28//28 49//49 50//50
g 10c8f986-e32a-11ea-b68f-54bf646e7e1f
f 53//53 54//54 56//56
f 56//56 54//54 55//55
g 10c947a2-e32a-11ea-add8-54bf646e7e1f
f 57//57 58//58 60//60
f 60//60 58//58 59//59
g 10c96eca-e32a-11ea-8b2f-54bf646e7e1f
f 61//61 62//62 64//64
f 64//64 62//62 63//63
g 10c9bcf8-e32a-11ea-a60b-54bf646e7e1f
f 65//65 66//66 68//68
f 68//68 66//66 67//67
g 10ca0ae2-e32a-11ea-947a-54bf646e7e1f
f 70//70 96//96 69//69
f 69//69 96//96 93//93
f 69//69 93//93 81//81
f 81//81 93//93 92//92
f 92//92 93//93 91//91
f 91//91 93//93 90//90
f 90//90 93//93 94//94
f 90//90 94//94 89//89
f 89//89 94//94 88//88
f 88//88 94//94 87//87
f 87//87 94//94 75//75
f 87//87 75//75 86//86
f 86//86 75//75 76//76
f 86//86 76//76 77//77
f 70//70 71//71 96//96
f 96//96 71//71 72//72
f 96//96 72//72 95//95
f 95//95 72//72 73//73
f 95//95 73//73 74//74
f 74//74 75//75 95//95
f 95//95 75//75 94//94
f 86//86 77//77 85//85
f 85//85 77//77 78//78
f 85//85 78//78 84//84
f 84//84 78//78 83//83
f 83//83 78//78 79//79
f 83//83 79//79 82//82
f 82//82 79//79 80//80
f 82//82 80//80 69//69
f 81//81 82//82 69//69
g 10ca5902-e32a-11ea-a583-54bf646e7e1f
f 98//98 120//120 97//97
f 97//97 120//120 109//109
f 97//97 109//109 122//122
f 122//122 109//109 110//110
f 122//122 110//110 111//111
f 98//98 99//99 120//120
f 120//120 99//99 119//119
f 119//119 99//99 100//100
f 119//119 100//100 118//118
f 118//118 100//100 117//117
f 117//117 100//100 101//101
f 117//117 101//101 116//116
f 116//116 101//101 102//102
f 116//116 102//102 103//103
f 104//104 124//124 103//103
f 103//103 124//124 121//121
f 103//103 121//121 115//115
f 115//115 121//121 114//114
f 114//114 121//121 113//113
f 113//113 121//121 112//112
f 112//112 121//121 122//122
f 112//112 122//122 111//111
f 104//104 105//105 124//124
f 124//124 105//105 106//106
f 124//124 106//106 123//123
f 123//123 106//106 107//107
f 123//123 107//107 108//108
f 108//108 97//97 123//123
f 123//123 97//97 122//122
f 115//115 116//116 103//103

# End of file