# WaveFront *.obj file
# Vertices: 48
# Triangles : 28

v -5.5 0.2297666072845459 2.5258445739746094
v -5.5 0.0 2.5258445739746094
v 5.5 0.0 2.5258445739746094
v 5.5 0.2297666072845459 2.5258445739746094
v -5.5 1.1181751489639282 -1.0135544538497925
v -5.5 0.2297666072845459 2.5258445739746094
v 5.5 0.2297666072845459 2.5258445739746094
v 5.5 1.1181751489639282 -1.0135544538497925
v -5.5 3.8301589488983154 2.5258445739746094
v -5.5 1.1181751489639282 -1.0135544538497925
v 5.5 1.1181751489639282 -1.0135544538497925
v 5.5 3.8301589488983154 2.5258445739746094
v -5.5 3.8301589488983154 4.0
v -5.5 3.8301589488983154 2.5258445739746094
v 5.5 3.8301589488983154 2.5258445739746094
v 5.5 3.8301589488983154 4.0
v 5.5 3.8301589488983154 4.0
v 5.5 3.8301589488983154 2.5258445739746094
v 5.5 1.1181751489639282 -1.0135544538497925
v 5.5 0.2297666072845459 2.5258445739746094
v 5.5 0.0 2.5258445739746094
v 5.5 0.0 -4.0
v 5.5 5.0 -4.0
v 5.5 5.0 4.0
v 5.5 0.0 2.5258445739746094
v -5.5 0.0 2.5258445739746094
v -5.5 0.0 -4.0
v 5.5 0.0 -4.0
v 5.5 0.0 -4.0
v -5.5 0.0 -4.0
v -5.5 5.0 -4.0
v 5.5 5.0 -4.0
v -5.5 3.8301589488983154 4.0
v 5.5 3.8301589488983154 4.0
v 5.5 5.0 4.0
v -5.5 5.0 4.0
v -5.5 3.8301589488983154 2.5258445739746094
v -5.5 3.8301589488983154 4.0
v -5.5 5.0 4.0
v -5.5 5.0 -4.0
v -5.5 0.0 -4.0
v -5.5 0.0 2.5258445739746094
v -5.5 0.2297666072845459 2.5258445739746094
v -5.5 1.1181751489639282 -1.0135544538497925
v -5.5 5.0 -4.0
v -5.5 5.0 4.0
v 5.5 5.0 4.0
v 5.5 5.0 -4.0
vn 0.0 0.0 1.0
vn 0.0 0.0 1.0
vn 0.0 0.0 1.0
vn 0.0 0.0 1.0
vn 0.0 0.969912588596344 0.24345336854457855
vn 0.0 0.969912588596344 0.24345336854457855
vn 0.0 0.969912588596344 0.24345336854457855
vn 0.0 0.969912588596344 0.24345336854457855
vn -0.0 -0.7937747836112976 0.6082118153572083
vn -0.0 -0.7937747836112976 0.6082118153572083
vn -0.0 -0.7937747836112976 0.6082118153572083
vn -0.0 -0.7937747836112976 0.6082118153572083
vn -0.0 -1.0 -0.0
vn -0.0 -1.0 -0.0
vn -0.0 -1.0 -0.0
vn -0.0 -1.0 -0.0
vn 1.0 -0.0 0.0
vn 1.0 -0.0 0.0
vn 1.0 -0.0 0.0
vn 1.0 -0.0 0.0
vn 1.0 -0.0 0.0
vn 1.0 -0.0 0.0
vn 1.0 -0.0 0.0
vn 1.0 -0.0 0.0
vn -0.0 -1.0 -0.0
vn -0.0 -1.0 -0.0
vn -0.0 -1.0 -0.0
vn -0.0 -1.0 -0.0
vn 0.0 0.0 -1.0
vn 0.0 0.0 -1.0
vn 0.0 0.0 -1.0
vn 0.0 0.0 -1.0
vn 0.0 0.0 1.0
vn 0.0 0.0 1.0
vn 0.0 0.0 1.0
vn 0.0 0.0 1.0
vn -1.0 0.0 0.0
vn -1.0 0.0 0.0
vn -1.0 0.0 0.0
vn -1.0 0.0 0.0
vn -1.0 0.0 0.0
vn -1.0 0.0 0.0
vn -1.0 0.0 0.0
vn -1.0 0.0 0.0
vn 0.0 1.0 0.0
vn 0.0 1.0 0.0
vn 0.0 1.0 0.0
vn 0.0 1.0 0.0
g 6f264abe-e32d-11ea-ac7d-54bf646e7e1f
f 1//1 2//2 4//4
f 4//4 2//2 3//3
g 6f2698e2-e32d-11ea-8524-54bf646e7e1f
f 5//5 6//6 8//8
f 8//8 6//6 7//7
g 6f26e6f4-e32d-11ea-9c7b-54bf646e7e1f
f 9//9 10//10 12//12
f 12//12 10//10 11//11
g 6f270dfe-e32d-11ea-ba1c-54bf646e7e1f
f 13//13 14//14 16//16
f 16//16 14//14 15//15
g 6f02bf28-e32d-11ea-9077-54bf646e7e1f
f 17//17 18//18 24//24
f 24//24 18//18 23//23
f 23//23 18//18 19//19
f 23//23 19//19 22//22
f 22//22 19//19 21//21
f 21//21 19//19 20//20
g 6f03a97a-e32d-11ea-99f7-54bf646e7e1f
f 25//25 26//26 28//28
f 28//28 26//26 27//27
g 6f02981c-e32d-11ea-8a12-54bf646e7e1f
f 29//29 30//30 32//32
f 32//32 30//30 31//31
g 6f030d42-e32d-11ea-8117-54bf646e7e1f
f 33//33 34//34 36//36
f 36//36 34//34 35//35
g 6f033462-e32d-11ea-bb86-54bf646e7e1f
f 38//38 39//39 37//37
f 37//37 39//39 40//40
f 37//37 40//40 44//44
f 44//44 40//40 41//41
f 44//44 41//41 42//42
f 42//42 43//43 44//44
g 6f038274-e32d-11ea-bd7f-54bf646e7e1f
f 45//45 46//46 48//48
f 48//48 46//46 47//47

# End of file