# WaveFront *.obj file
# Vertices: 166
# Triangles : 148

v 2.5 2.5 3.0
v 2.5 -2.5 3.0
v 2.5 -2.5 6.0
v 2.5 2.5 6.0
v 7.5 2.5 3.0
v 2.5 2.5 3.0
v 2.5 2.5 6.0
v 7.5 2.5 6.0
v -5.25 -1.8369701465288538e-16 3.0
v -5.214931011199951 0.32245567440986633 3.0
v -5.111362934112549 0.6298336386680603 3.0
v -4.94413948059082 0.9077613353729248 3.0
v -4.721079349517822 1.1432430744171143 3.0
v -4.45261287689209 1.325268030166626 3.0
v -4.151292324066162 1.4453250169754028 3.0
v -3.8312084674835205 1.4978001117706299 3.0
v -3.507327079772949 1.480239748954773 3.0
v -3.1947927474975586 1.3934650421142578 3.0
v -2.908219337463379 1.2415335178375244 3.0
v -2.6610066890716553 1.0315492153167725 3.0
v -2.464714288711548 0.773330807685852 3.0
v -2.3285202980041504 0.4789522886276245 3.0
v -2.2587931156158447 0.16217853128910065 3.0
v -2.2587931156158447 -0.16217853128910065 3.0
v -2.3285202980041504 -0.4789522886276245 3.0
v -2.464714288711548 -0.773330807685852 3.0
v -2.6610066890716553 -1.0315492153167725 3.0
v -2.908219337463379 -1.2415335178375244 3.0
v -3.1947927474975586 -1.3934650421142578 3.0
v -3.507327079772949 -1.480239748954773 3.0
v -3.8312084674835205 -1.4978001117706299 3.0
v -4.151292324066162 -1.4453250169754028 3.0
v -4.45261287689209 -1.325268030166626 3.0
v -4.721079349517822 -1.1432430744171143 3.0
v -4.94413948059082 -0.9077613353729248 3.0
v -5.111362934112549 -0.6298336386680603 3.0
v -5.214931011199951 -0.32245567440986633 3.0
v 7.5 -2.5 3.0
v 2.5 -2.5 3.0
v 2.5 2.5 3.0
v 7.5 2.5 3.0
v 7.5 5.0 3.0
v -7.5 5.0 3.0
v -7.5 -5.0 3.0
v 7.5 -5.0 3.0
v -7.5 5.0 0.0
v -7.5 -5.0 0.0
v -7.5 -5.0 3.0
v -7.5 5.0 3.0
v 2.5 -2.5 3.0
v 7.5 -2.5 3.0
v 7.5 -2.5 6.0
v 2.5 -2.5 6.0
v -5.25 -1.8369701465288538e-16 3.0
v -5.214931011199951 -0.32245567440986633 3.0
v -5.111362934112549 -0.6298336386680603 3.0
v -4.94413948059082 -0.9077613353729248 3.0
v -4.721079349517822 -1.1432430744171143 3.0
v -4.45261287689209 -1.325268030166626 3.0
v -4.151292324066162 -1.4453250169754028 3.0
v -3.8312084674835205 -1.4978001117706299 3.0
v -3.507327079772949 -1.480239748954773 3.0
v -3.1947927474975586 -1.3934650421142578 3.0
v -2.908219337463379 -1.2415335178375244 3.0
v -2.6610066890716553 -1.0315492153167725 3.0
v -2.464714288711548 -0.773330807685852 3.0
v -2.3285202980041504 -0.4789522886276245 3.0
v -2.2587931156158447 -0.16217853128910065 3.0
v -2.2587931156158447 0.16217853128910065 3.0
v -2.3285202980041504 0.4789522886276245 3.0
v -2.464714288711548 0.773330807685852 3.0
v -2.6610066890716553 1.0315492153167725 3.0
v -2.908219337463379 1.2415335178375244 3.0
v -3.1947927474975586 1.3934650421142578 3.0
v -3.507327079772949 1.480239748954773 3.0
v -3.8312084674835205 1.4978001117706299 3.0
v -4.151292324066162 1.4453250169754028 3.0
v -4.45261287689209 1.325268030166626 3.0
v -4.721079349517822 1.1432430744171143 3.0
v -4.94413948059082 0.9077613353729248 3.0
v -5.111362934112549 0.6298336386680603 3.0
v -5.214931011199951 0.32245567440986633 3.0
v -5.25 -1.8369701465288538e-16 0.0
v -5.214931011199951 0.32245567440986633 0.0
v -5.111362934112549 0.6298336386680603 0.0
v -4.94413948059082 0.9077613353729248 0.0
v -4.721079349517822 1.1432430744171143 0.0
v -4.45261287689209 1.325268030166626 0.0
v -4.151292324066162 1.4453250169754028 0.0
v -3.8312084674835205 1.4978001117706299 0.0
v -3.507327079772949 1.480239748954773 0.0
v -3.1947927474975586 1.3934650421142578 0.0
v -2.908219337463379 1.2415335178375244 0.0
v -2.6610066890716553 1.0315492153167725 0.0
v -2.464714288711548 0.773330807685852 0.0
v -2.3285202980041504 0.4789522886276245 0.0
v -2.2587931156158447 0.16217853128910065 0.0
v -2.2587931156158447 -0.16217853128910065 0.0
v -2.3285202980041504 -0.4789522886276245 0.0
v -2.464714288711548 -0.773330807685852 0.0
v -2.6610066890716553 -1.0315492153167725 0.0
v -2.908219337463379 -1.2415335178375244 0.0
v -3.1947927474975586 -1.3934650421142578 0.0
v -3.507327079772949 -1.480239748954773 0.0
v -3.8312084674835205 -1.4978001117706299 0.0
v -4.151292324066162 -1.4453250169754028 0.0
v -4.45261287689209 -1.325268030166626 0.0
v -4.721079349517822 -1.1432430744171143 0.0
v -4.94413948059082 -0.9077613353729248 0.0
v -5.111362934112549 -0.6298336386680603 0.0
v -5.214931011199951 -0.32245567440986633 0.0
v -5.25 -1.8369701465288538e-16 3.0
v -5.25 -1.8369701465288538e-16 0.0
v -5.25 -1.8369701465288538e-16 0.0
v -5.214931011199951 -0.32245567440986633 0.0
v -5.111362934112549 -0.6298336386680603 0.0
v -4.94413948059082 -0.9077613353729248 0.0
v -4.721079349517822 -1.1432430744171143 0.0
v -4.45261287689209 -1.325268030166626 0.0
v -4.151292324066162 -1.4453250169754028 0.0
v -3.8312084674835205 -1.4978001117706299 0.0
v -3.507327079772949 -1.480239748954773 0.0
v -3.1947927474975586 -1.3934650421142578 0.0
v -2.908219337463379 -1.2415335178375244 0.0
v -2.6610066890716553 -1.0315492153167725 0.0
v -2.464714288711548 -0.773330807685852 0.0
v -2.3285202980041504 -0.4789522886276245 0.0
v -2.2587931156158447 -0.16217853128910065 0.0
v -2.2587931156158447 0.16217853128910065 0.0
v -2.3285202980041504 0.4789522886276245 0.0
v -2.464714288711548 0.773330807685852 0.0
v -2.6610066890716553 1.0315492153167725 0.0
v -2.908219337463379 1.2415335178375244 0.0
v -3.1947927474975586 1.3934650421142578 0.0
v -3.507327079772949 1.480239748954773 0.0
v -3.8312084674835205 1.4978001117706299 0.0
v -4.151292324066162 1.4453250169754028 0.0
v -4.45261287689209 1.325268030166626 0.0
v -4.721079349517822 1.1432430744171143 0.0
v -4.94413948059082 0.9077613353729248 0.0
v -5.111362934112549 0.6298336386680603 0.0
v -5.214931011199951 0.32245567440986633 0.0
v 7.5 5.0 0.0
v 7.5 -5.0 0.0
v -7.5 -5.0 0.0
v -7.5 5.0 0.0
v 7.5 2.5 6.0
v 2.5 2.5 6.0
v 2.5 -2.5 6.0
v 7.5 -2.5 6.0
v -7.5 -5.0 0.0
v 7.5 -5.0 0.0
v 7.5 -5.0 3.0
v -7.5 -5.0 3.0
v 7.5 -5.0 0.0
v 7.5 5.0 0.0
v 7.5 5.0 3.0
v 7.5 2.5 3.0
v 7.5 2.5 6.0
v 7.5 -2.5 6.0
v 7.5 -2.5 3.0
v 7.5 -5.0 3.0
v 7.5 5.0 0.0
v -7.5 5.0 0.0
v -7.5 5.0 3.0
v 7.5 5.0 3.0
vn -1.0 0.0 0.0
vn -1.0 0.0 0.0
vn -1.0 0.0 0.0
vn -1.0 0.0 0.0
vn 0.0 1.0 0.0
vn 0.0 1.0 0.0
vn 0.0 1.0 0.0
vn 0.0 1.0 0.0
vn 0.0 0.0 1.0
vn 0.0 0.0 1.0
vn 0.0 0.0 1.0
vn 0.0 0.0 1.0
vn 0.0 0.0 1.0
vn 0.0 0.0 1.0
vn 0.0 0.0 1.0
vn 0.0 0.0 1.0
vn 0.0 0.0 1.0
vn 0.0 0.0 1.0
vn 0.0 0.0 1.0
vn 0.0 0.0 1.0
vn 0.0 0.0 1.0
vn 0.0 0.0 1.0
vn 0.0 0.0 1.0
vn 0.0 0.0 1.0
vn 0.0 0.0 1.0
vn 0.0 0.0 1.0
vn 0.0 0.0 1.0
vn 0.0 0.0 1.0
vn 0.0 0.0 1.0
vn 0.0 0.0 1.0
vn 0.0 0.0 1.0
vn 0.0 0.0 1.0
vn 0.0 0.0 1.0
vn 0.0 0.0 1.0
vn 0.0 0.0 1.0
vn 0.0 0.0 1.0
vn 0.0 0.0 1.0
vn 0.0 0.0 1.0
vn 0.0 0.0 1.0
vn 0.0 0.0 1.0
vn 0.0 0.0 1.0
vn 0.0 0.0 1.0
vn 0.0 0.0 1.0
vn 0.0 0.0 1.0
vn 0.0 0.0 1.0
vn -1.0 0.0 0.0
vn -1.0 0.0 0.0
vn -1.0 0.0 0.0
vn -1.0 0.0 0.0
vn 0.0 -1.0 0.0
vn 0.0 -1.0 0.0
vn 0.0 -1.0 0.0
vn 0.0 -1.0 0.0
vn 1.0 1.2246468525851679e-16 -0.0
vn 0.9766205549240112 0.2149704396724701 -0.0
vn 0.9075754284858704 0.41988909244537354 -0.0
vn 0.7960930466651917 0.6051742434501648 -0.0
vn 0.6473863124847412 0.7621620297431946 -0.0
vn 0.4684084355831146 0.883512020111084 -0.0
vn 0.26752832531929016 0.9635499715805054 -0.0
vn 0.0541389100253582 0.9985334277153015 -0.0
vn -0.16178199648857117 0.9868265390396118 0.0
vn -0.37013816833496094 0.9289767146110535 0.0
vn -0.5611870884895325 0.827688992023468 0.0
vn -0.7259954810142517 0.6876994371414185 0.0
vn -0.856857180595398 0.5155538320541382 0.0
vn -0.9476531744003296 0.3193015158176422 0.0
vn -0.9941379427909851 0.10811901837587357 0.0
vn -0.9941379427909851 -0.10811901837587357 0.0
vn -0.9476531744003296 -0.3193015158176422 0.0
vn -0.856857180595398 -0.5155538320541382 0.0
vn -0.7259954810142517 -0.6876994371414185 0.0
vn -0.5611870884895325 -0.827688992023468 0.0
vn -0.37013816833496094 -0.9289767146110535 0.0
vn -0.16178199648857117 -0.9868265390396118 0.0
vn 0.0541389100253582 -0.9985334277153015 0.0
vn 0.26752832531929016 -0.9635499715805054 0.0
vn 0.4684084355831146 -0.883512020111084 0.0
vn 0.6473863124847412 -0.7621620297431946 0.0
vn 0.7960930466651917 -0.6051742434501648 0.0
vn 0.9075754284858704 -0.41988909244537354 0.0
vn 0.9766205549240112 -0.2149704396724701 0.0
vn 1.0 -1.2246468525851679e-16 0.0
vn 0.9766205549240112 -0.2149704396724701 0.0
vn 0.9075754284858704 -0.41988909244537354 0.0
vn 0.7960930466651917 -0.6051742434501648 0.0
vn 0.6473863124847412 -0.7621620297431946 0.0
vn 0.4684084355831146 -0.883512020111084 0.0
vn 0.26752832531929016 -0.9635499715805054 0.0
vn 0.0541389100253582 -0.9985334277153015 0.0
vn -0.16178199648857117 -0.9868265390396118 0.0
vn -0.37013816833496094 -0.9289767146110535 0.0
vn -0.5611870884895325 -0.827688992023468 0.0
vn -0.7259954810142517 -0.6876994371414185 0.0
vn -0.856857180595398 -0.5155538320541382 0.0
vn -0.9476531744003296 -0.3193015158176422 0.0
vn -0.9941379427909851 -0.10811901837587357 0.0
vn -0.9941379427909851 0.10811901837587357 0.0
vn -0.9476531744003296 0.3193015158176422 0.0
vn -0.856857180595398 0.5155538320541382 0.0
vn -0.7259954810142517 0.6876994371414185 0.0
vn -0.5611870884895325 0.827688992023468 0.0
vn -0.37013816833496094 0.9289767146110535 0.0
vn -0.16178199648857117 0.9868265390396118 0.0
vn 0.0541389100253582 0.9985334277153015 -0.0
vn 0.26752832531929016 0.9635499715805054 -0.0
vn 0.4684084355831146 0.883512020111084 -0.0
vn 0.6473863124847412 0.7621620297431946 -0.0
vn 0.7960930466651917 0.6051742434501648 -0.0
vn 0.9075754284858704 0.41988909244537354 -0.0
vn 0.9766205549240112 0.2149704396724701 -0.0
vn 1.0 -1.2246468525851679e-16 0.0
vn 1.0 1.2246468525851679e-16 -0.0
vn -0.0 0.0 -1.0
vn -0.0 0.0 -1.0
vn -0.0 0.0 -1.0
vn -0.0 0.0 -1.0
vn -0.0 0.0 -1.0
vn -0.0 0.0 -1.0
vn -0.0 0.0 -1.0
vn -0.0 0.0 -1.0
vn -0.0 0.0 -1.0
vn -0.0 0.0 -1.0
vn -0.0 0.0 -1.0
vn -0.0 0.0 -1.0
vn -0.0 0.0 -1.0
vn -0.0 0.0 -1.0
vn -0.0 0.0 -1.0
vn -0.0 0.0 -1.0
vn -0.0 0.0 -1.0
vn -0.0 0.0 -1.0
vn -0.0 0.0 -1.0
vn -0.0 0.0 -1.0
vn -0.0 0.0 -1.0
vn -0.0 0.0 -1.0
vn -0.0 0.0 -1.0
vn -0.0 0.0 -1.0
vn -0.0 0.0 -1.0
vn -0.0 0.0 -1.0
vn -0.0 0.0 -1.0
vn -0.0 0.0 -1.0
vn -0.0 0.0 -1.0
vn -0.0 0.0 -1.0
vn -0.0 0.0 -1.0
vn -0.0 0.0 -1.0
vn -0.0 0.0 -1.0
vn 0.0 0.0 1.0
vn 0.0 0.0 1.0
vn 0.0 0.0 1.0
vn 0.0 0.0 1.0
vn 0.0 -1.0 0.0
vn 0.0 -1.0 0.0
vn 0.0 -1.0 0.0
vn 0.0 -1.0 0.0
vn 1.0 0.0 -0.0
vn 1.0 0.0 -0.0
vn 1.0 0.0 -0.0
vn 1.0 0.0 -0.0
vn 1.0 0.0 -0.0
vn 1.0 0.0 -0.0
vn 1.0 0.0 -0.0
vn 1.0 0.0 -0.0
vn 0.0 1.0 0.0
vn 0.0 1.0 0.0
vn 0.0 1.0 0.0
vn 0.0 1.0 0.0
f 1//1 2//2 4//4
f 4//4 2//2 3//3
f 5//5 6//6 8//8
f 8//8 6//6 7//7
f 10//10 43//43 9//9
f 9//9 43//43 44//44
f 9//9 44//44 37//37
f 37//37 44//44 36//36
f 36//36 44//44 35//35
f 35//35 44//44 34//34
f 34//34 44//44 33//33
f 33//33 44//44 32//32
f 32//32 44//44 31//31
f 31//31 44//44 30//30
f 30//30 44//44 39//39
f 30//30 39//39 29//29
f 29//29 39//39 28//28
f 28//28 39//39 27//27
f 27//27 39//39 26//26
f 26//26 39//39 25//25
f 25//25 39//39 24//24
f 24//24 39//39 23//23
f 23//23 39//39 40//40
f 23//23 40//40 22//22
f 22//22 40//40 21//21
f 21//21 40//40 20//20
f 20//20 40//40 19//19
f 19//19 40//40 18//18
f 18//18 40//40 17//17
f 17//17 40//40 43//43
f 17//17 43//43 16//16
f 16//16 43//43 15//15
f 15//15 43//43 14//14
f 14//14 43//43 13//13
f 13//13 43//43 12//12
f 12//12 43//43 11//11
f 11//11 43//43 10//10
f 38//38 39//39 45//45
f 45//45 39//39 44//44
f 41//41 42//42 40//40
f 40//40 42//42 43//43
f 46//46 47//47 49//49
f 49//49 47//47 48//48
f 50//50 51//51 53//53
f 53//53 51//51 52//52
f 55//55 111//111 54//54
f 54//54 111//111 113//113
f 112//112 83//83 82//82
f 82//82 83//83 84//84
f 82//82 84//84 81//81
f 81//81 84//84 85//85
f 81//81 85//85 80//80
f 80//80 85//85 86//86
f 80//80 86//86 79//79
f 79//79 86//86 87//87
f 79//79 87//87 78//78
f 78//78 87//87 88//88
f 78//78 88//88 77//77
f 77//77 88//88 89//89
f 77//77 89//89 76//76
f 76//76 89//89 90//90
f 76//76 90//90 75//75
f 75//75 90//90 91//91
f 75//75 91//91 74//74
f 74//74 91//91 92//92
f 74//74 92//92 73//73
f 73//73 92//92 93//93
f 73//73 93//93 72//72
f 72//72 93//93 94//94
f 72//72 94//94 71//71
f 71//71 94//94 95//95
f 71//71 95//95 70//70
f 70//70 95//95 96//96
f 70//70 96//96 69//69
f 69//69 96//96 97//97
f 69//69 97//97 68//68
f 68//68 97//97 98//98
f 68//68 98//98 67//67
f 67//67 98//98 99//99
f 67//67 99//99 66//66
f 66//66 99//99 100//100
f 66//66 100//100 65//65
f 65//65 100//100 101//101
f 65//65 101//101 64//64
f 64//64 101//101 102//102
f 64//64 102//102 63//63
f 63//63 102//102 103//103
f 63//63 103//103 62//62
f 62//62 103//103 104//104
f 62//62 104//104 61//61
f 61//61 104//104 105//105
f 61//61 105//105 60//60
f 60//60 105//105 106//106
f 60//60 106//106 59//59
f 59//59 106//106 107//107
f 59//59 107//107 58//58
f 58//58 107//107 108//108
f 58//58 108//108 57//57
f 57//57 108//108 109//109
f 57//57 109//109 56//56
f 56//56 109//109 110//110
f 56//56 110//110 55//55
f 55//55 110//110 111//111
f 115//115 145//145 114//114
f 114//114 145//145 146//146
f 114//114 146//146 142//142
f 142//142 146//146 141//141
f 141//141 146//146 140//140
f 140//140 146//146 139//139
f 139//139 146//146 138//138
f 138//138 146//146 137//137
f 137//137 146//146 136//136
f 136//136 146//146 135//135
f 135//135 146//146 134//134
f 134//134 146//146 143//143
f 134//134 143//143 133//133
f 133//133 143//143 132//132
f 132//132 143//143 131//131
f 131//131 143//143 130//130
f 130//130 143//143 129//129
f 129//129 143//143 144//144
f 129//129 144//144 128//128
f 128//128 144//144 127//127
f 127//127 144//144 126//126
f 126//126 144//144 125//125
f 125//125 144//144 124//124
f 124//124 144//144 123//123
f 123//123 144//144 145//145
f 123//123 145//145 122//122
f 122//122 145//145 121//121
f 121//121 145//145 120//120
f 120//120 145//145 119//119
f 119//119 145//145 118//118
f 118//118 145//145 117//117
f 117//117 145//145 116//116
f 116//116 145//145 115//115
f 147//147 148//148 150//150
f 150//150 148//148 149//149
f 151//151 152//152 154//154
f 154//154 152//152 153//153
f 162//162 155//155 161//161
f 161//161 155//155 156//156
f 161//161 156//156 158//158
f 158//158 156//156 157//157
f 159//159 160//160 158//158
f 158//158 160//160 161//161
f 163//163 164//164 166//166
f 166//166 164//164 165//165

# End of file