# WaveFront *.obj file
# Vertices: 196
# Triangles : 192

v 6.800000190734863 -3.6739405577555036e-17 0.30000001192092896
v 6.800000190734863 0.08842655271291733 0.28667184710502625
v 6.800000190734863 0.16899602115154266 0.24787163734436035
v 6.800000190734863 0.23454944789409637 0.18704694509506226
v 6.800000190734863 0.27926212549209595 0.10960230976343155
v 6.800000190734863 0.2991611361503601 0.022419027984142303
v 6.800000190734863 0.29247838258743286 -0.06675627827644348
v 6.800000190734863 0.25980761647224426 -0.15000000596046448
v 6.800000190734863 0.20405182242393494 -0.21991556882858276
v 6.800000190734863 0.13016511499881744 -0.27029067277908325
v 6.800000190734863 0.04471268132328987 -0.2966492474079132
v 6.800000190734863 -0.04471268132328987 -0.2966492474079132
v 6.800000190734863 -0.13016511499881744 -0.27029067277908325
v 6.800000190734863 -0.20405182242393494 -0.21991556882858276
v 6.800000190734863 -0.25980761647224426 -0.15000000596046448
v 6.800000190734863 -0.29247838258743286 -0.06675627827644348
v 6.800000190734863 -0.2991611361503601 0.022419027984142303
v 6.800000190734863 -0.27926212549209595 0.10960230976343155
v 6.800000190734863 -0.23454944789409637 0.18704694509506226
v 6.800000190734863 -0.16899602115154266 0.24787163734436035
v 6.800000190734863 -0.08842655271291733 0.28667184710502625
v 6.800000190734863 -6.123234262925839e-17 0.5
v 6.800000190734863 -0.11530793458223343 0.4865224361419678
v 6.800000190734863 -0.224399596452713 0.4468163251876831
v 6.800000190734863 -0.32139381766319275 0.3830222189426422
v 6.800000190734863 -0.4010615944862366 0.29857930541038513
v 6.800000190734863 -0.45910805463790894 0.19803988933563232
v 6.800000190734863 -0.49240386486053467 0.08682408928871155
v 6.800000190734863 -0.49915409088134766 -0.029072415083646774
v 6.800000190734863 -0.478994756937027 -0.1434016227722168
v 6.800000190734863 -0.4330126941204071 -0.25
v 6.800000190734863 -0.36368682980537415 -0.343120813369751
v 6.800000190734863 -0.27475449442863464 -0.41774389147758484
v 6.800000190734863 -0.1710100769996643 -0.46984630823135376
v 6.800000190734863 -0.058046456426382065 -0.49661916494369507
v 6.800000190734863 0.058046456426382065 -0.49661916494369507
v 6.800000190734863 0.1710100769996643 -0.46984630823135376
v 6.800000190734863 0.27475449442863464 -0.41774389147758484
v 6.800000190734863 0.36368682980537415 -0.343120813369751
v 6.800000190734863 0.4330126941204071 -0.25
v 6.800000190734863 0.478994756937027 -0.1434016227722168
v 6.800000190734863 0.49915409088134766 -0.029072415083646774
v 6.800000190734863 0.49240386486053467 0.08682408928871155
v 6.800000190734863 0.45910805463790894 0.19803988933563232
v 6.800000190734863 0.4010615944862366 0.29857930541038513
v 6.800000190734863 0.32139381766319275 0.3830222189426422
v 6.800000190734863 0.224399596452713 0.4468163251876831
v 6.800000190734863 0.11530793458223343 0.4865224361419678
v 6.800000190734863 -6.123234262925839e-17 0.5
v 6.800000190734863 0.11530793458223343 0.4865224361419678
v 6.800000190734863 0.224399596452713 0.4468163251876831
v 6.800000190734863 0.32139381766319275 0.3830222189426422
v 6.800000190734863 0.4010615944862366 0.29857930541038513
v 6.800000190734863 0.45910805463790894 0.19803988933563232
v 6.800000190734863 0.49240386486053467 0.08682408928871155
v 6.800000190734863 0.49915409088134766 -0.029072415083646774
v 6.800000190734863 0.478994756937027 -0.1434016227722168
v 6.800000190734863 0.4330126941204071 -0.25
v 6.800000190734863 0.36368682980537415 -0.343120813369751
v 6.800000190734863 0.27475449442863464 -0.41774389147758484
v 6.800000190734863 0.1710100769996643 -0.46984630823135376
v 6.800000190734863 0.058046456426382065 -0.49661916494369507
v 6.800000190734863 -0.058046456426382065 -0.49661916494369507
v 6.800000190734863 -0.1710100769996643 -0.46984630823135376
v 6.800000190734863 -0.27475449442863464 -0.41774389147758484
v 6.800000190734863 -0.36368682980537415 -0.343120813369751
v 6.800000190734863 -0.4330126941204071 -0.25
v 6.800000190734863 -0.478994756937027 -0.1434016227722168
v 6.800000190734863 -0.49915409088134766 -0.029072415083646774
v 6.800000190734863 -0.49240386486053467 0.08682408928871155
v 6.800000190734863 -0.45910805463790894 0.19803988933563232
v 6.800000190734863 -0.4010615944862366 0.29857930541038513
v 6.800000190734863 -0.32139381766319275 0.3830222189426422
v 6.800000190734863 -0.224399596452713 0.4468163251876831
v 6.800000190734863 -0.11530793458223343 0.4865224361419678
v 0.0 -6.123234262925839e-17 0.5
v 0.0 -0.11530793458223343 0.4865224361419678
v 0.0 -0.224399596452713 0.4468163251876831
v 0.0 -0.32139381766319275 0.3830222189426422
v 0.0 -0.4010615944862366 0.29857930541038513
v 0.0 -0.45910805463790894 0.19803988933563232
v 0.0 -0.49240386486053467 0.08682408928871155
v 0.0 -0.49915409088134766 -0.029072415083646774
v 0.0 -0.478994756937027 -0.1434016227722168
v 0.0 -0.4330126941204071 -0.25
v 0.0 -0.36368682980537415 -0.343120813369751
v 0.0 -0.27475449442863464 -0.41774389147758484
v 0.0 -0.1710100769996643 -0.46984630823135376
v 0.0 -0.058046456426382065 -0.49661916494369507
v 0.0 0.058046456426382065 -0.49661916494369507
v 0.0 0.1710100769996643 -0.46984630823135376
v 0.0 0.27475449442863464 -0.41774389147758484
v 0.0 0.36368682980537415 -0.343120813369751
v 0.0 0.4330126941204071 -0.25
v 0.0 0.478994756937027 -0.1434016227722168
v 0.0 0.49915409088134766 -0.029072415083646774
v 0.0 0.49240386486053467 0.08682408928871155
v 0.0 0.45910805463790894 0.19803988933563232
v 0.0 0.4010615944862366 0.29857930541038513
v 0.0 0.32139381766319275 0.3830222189426422
v 0.0 0.224399596452713 0.4468163251876831
v 0.0 0.11530793458223343 0.4865224361419678
v 0.0 -6.123234262925839e-17 0.5
v 6.800000190734863 -6.123234262925839e-17 0.5
v 0.0 -3.6739405577555036e-17 0.30000001192092896
v 0.0 -0.08842655271291733 0.28667184710502625
v 0.0 -0.16899602115154266 0.24787163734436035
v 0.0 -0.23454944789409637 0.18704694509506226
v 0.0 -0.27926212549209595 0.10960230976343155
v 0.0 -0.2991611361503601 0.022419027984142303
v 0.0 -0.29247838258743286 -0.06675627827644348
v 0.0 -0.25980761647224426 -0.15000000596046448
v 0.0 -0.20405182242393494 -0.21991556882858276
v 0.0 -0.13016511499881744 -0.27029067277908325
v 0.0 -0.04471268132328987 -0.2966492474079132
v 0.0 0.04471268132328987 -0.2966492474079132
v 0.0 0.13016511499881744 -0.27029067277908325
v 0.0 0.20405182242393494 -0.21991556882858276
v 0.0 0.25980761647224426 -0.15000000596046448
v 0.0 0.29247838258743286 -0.06675627827644348
v 0.0 0.2991611361503601 0.022419027984142303
v 0.0 0.27926212549209595 0.10960230976343155
v 0.0 0.23454944789409637 0.18704694509506226
v 0.0 0.16899602115154266 0.24787163734436035
v 0.0 0.08842655271291733 0.28667184710502625
v 0.0 -6.123234262925839e-17 0.5
v 0.0 0.11530793458223343 0.4865224361419678
v 0.0 0.224399596452713 0.4468163251876831
v 0.0 0.32139381766319275 0.3830222189426422
v 0.0 0.4010615944862366 0.29857930541038513
v 0.0 0.45910805463790894 0.19803988933563232
v 0.0 0.49240386486053467 0.08682408928871155
v 0.0 0.49915409088134766 -0.029072415083646774
v 0.0 0.478994756937027 -0.1434016227722168
v 0.0 0.4330126941204071 -0.25
v 0.0 0.36368682980537415 -0.343120813369751
v 0.0 0.27475449442863464 -0.41774389147758484
v 0.0 0.1710100769996643 -0.46984630823135376
v 0.0 0.058046456426382065 -0.49661916494369507
v 0.0 -0.058046456426382065 -0.49661916494369507
v 0.0 -0.1710100769996643 -0.46984630823135376
v 0.0 -0.27475449442863464 -0.41774389147758484
v 0.0 -0.36368682980537415 -0.343120813369751
v 0.0 -0.4330126941204071 -0.25
v 0.0 -0.478994756937027 -0.1434016227722168
v 0.0 -0.49915409088134766 -0.029072415083646774
v 0.0 -0.49240386486053467 0.08682408928871155
v 0.0 -0.45910805463790894 0.19803988933563232
v 0.0 -0.4010615944862366 0.29857930541038513
v 0.0 -0.32139381766319275 0.3830222189426422
v 0.0 -0.224399596452713 0.4468163251876831
v 0.0 -0.11530793458223343 0.4865224361419678
v 6.800000190734863 -3.6739405577555036e-17 0.30000001192092896
v 6.800000190734863 -0.08842655271291733 0.28667184710502625
v 6.800000190734863 -0.16899602115154266 0.24787163734436035
v 6.800000190734863 -0.23454944789409637 0.18704694509506226
v 6.800000190734863 -0.27926212549209595 0.10960230976343155
v 6.800000190734863 -0.2991611361503601 0.022419027984142303
v 6.800000190734863 -0.29247838258743286 -0.06675627827644348
v 6.800000190734863 -0.25980761647224426 -0.15000000596046448
v 6.800000190734863 -0.20405182242393494 -0.21991556882858276
v 6.800000190734863 -0.13016511499881744 -0.27029067277908325
v 6.800000190734863 -0.04471268132328987 -0.2966492474079132
v 6.800000190734863 0.04471268132328987 -0.2966492474079132
v 6.800000190734863 0.13016511499881744 -0.27029067277908325
v 6.800000190734863 0.20405182242393494 -0.21991556882858276
v 6.800000190734863 0.25980761647224426 -0.15000000596046448
v 6.800000190734863 0.29247838258743286 -0.06675627827644348
v 6.800000190734863 0.2991611361503601 0.022419027984142303
v 6.800000190734863 0.27926212549209595 0.10960230976343155
v 6.800000190734863 0.23454944789409637 0.18704694509506226
v 6.800000190734863 0.16899602115154266 0.24787163734436035
v 6.800000190734863 0.08842655271291733 0.28667184710502625
v 0.0 -3.6739405577555036e-17 0.30000001192092896
v 0.0 0.08842655271291733 0.28667184710502625
v 0.0 0.16899602115154266 0.24787163734436035
v 0.0 0.23454944789409637 0.18704694509506226
v 0.0 0.27926212549209595 0.10960230976343155
v 0.0 0.2991611361503601 0.022419027984142303
v 0.0 0.29247838258743286 -0.06675627827644348
v 0.0 0.25980761647224426 -0.15000000596046448
v 0.0 0.20405182242393494 -0.21991556882858276
v 0.0 0.13016511499881744 -0.27029067277908325
v 0.0 0.04471268132328987 -0.2966492474079132
v 0.0 -0.04471268132328987 -0.2966492474079132
v 0.0 -0.13016511499881744 -0.27029067277908325
v 0.0 -0.20405182242393494 -0.21991556882858276
v 0.0 -0.25980761647224426 -0.15000000596046448
v 0.0 -0.29247838258743286 -0.06675627827644348
v 0.0 -0.2991611361503601 0.022419027984142303
v 0.0 -0.27926212549209595 0.10960230976343155
v 0.0 -0.23454944789409637 0.18704694509506226
v 0.0 -0.16899602115154266 0.24787163734436035
v 0.0 -0.08842655271291733 0.28667184710502625
v 6.800000190734863 -3.6739405577555036e-17 0.30000001192092896
v 0.0 -3.6739405577555036e-17 0.30000001192092896
vn 1.0 0.0 0.0
vn 1.0 0.0 0.0
vn 1.0 0.0 0.0
vn 1.0 0.0 0.0
vn 1.0 0.0 0.0
vn 1.0 0.0 0.0
vn 1.0 0.0 0.0
vn 1.0 0.0 0.0
vn 1.0 0.0 0.0
vn 1.0 0.0 0.0
vn 1.0 0.0 0.0
vn 1.0 0.0 0.0
vn 1.0 0.0 0.0
vn 1.0 0.0 0.0
vn 1.0 0.0 0.0
vn 1.0 0.0 0.0
vn 1.0 0.0 0.0
vn 1.0 0.0 0.0
vn 1.0 0.0 0.0
vn 1.0 0.0 0.0
vn 1.0 0.0 0.0
vn 1.0 0.0 0.0
vn 1.0 0.0 0.0
vn 1.0 0.0 0.0
vn 1.0 0.0 0.0
vn 1.0 0.0 0.0
vn 1.0 0.0 0.0
vn 1.0 0.0 0.0
vn 1.0 0.0 0.0
vn 1.0 0.0 0.0
vn 1.0 0.0 0.0
vn 1.0 0.0 0.0
vn 1.0 0.0 0.0
vn 1.0 0.0 0.0
vn 1.0 0.0 0.0
vn 1.0 0.0 0.0
vn 1.0 0.0 0.0
vn 1.0 0.0 0.0
vn 1.0 0.0 0.0
vn 1.0 0.0 0.0
vn 1.0 0.0 0.0
vn 1.0 0.0 0.0
vn 1.0 0.0 0.0
vn 1.0 0.0 0.0
vn 1.0 0.0 0.0
vn 1.0 0.0 0.0
vn 1.0 0.0 0.0
vn 1.0 0.0 0.0
vn -0.0 1.2246468525851679e-16 1.0
vn -0.0 0.23061586916446686 0.9730448722839355
vn -0.0 0.448799192905426 0.8936326503753662
vn -0.0 0.6427876353263855 0.7660444378852844
vn -0.0 0.8021231889724731 0.5971586108207703
vn -0.0 0.9182161092758179 0.39607977867126465
vn -0.0 0.9848077297210693 0.1736481785774231
vn -0.0 0.9983081817626953 -0.05814483016729355
vn -0.0 0.957989513874054 -0.2868032455444336
vn -0.0 0.8660253882408142 -0.5
vn -0.0 0.7273736596107483 -0.686241626739502
vn -0.0 0.5495089888572693 -0.8354877829551697
vn -0.0 0.3420201539993286 -0.9396926164627075
vn -0.0 0.11609291285276413 -0.9932383298873901
vn 0.0 -0.11609291285276413 -0.9932383298873901
vn 0.0 -0.3420201539993286 -0.9396926164627075
vn 0.0 -0.5495089888572693 -0.8354877829551697
vn 0.0 -0.7273736596107483 -0.686241626739502
vn 0.0 -0.8660253882408142 -0.5
vn 0.0 -0.957989513874054 -0.2868032455444336
vn 0.0 -0.9983081817626953 -0.05814483016729355
vn -0.0 -0.9848077297210693 0.1736481785774231
vn -0.0 -0.9182161092758179 0.39607977867126465
vn -0.0 -0.8021231889724731 0.5971586108207703
vn -0.0 -0.6427876353263855 0.7660444378852844
vn -0.0 -0.448799192905426 0.8936326503753662
vn -0.0 -0.23061586916446686 0.9730448722839355
vn -0.0 -1.2246468525851679e-16 1.0
vn -0.0 -0.23061586916446686 0.9730448722839355
vn -0.0 -0.448799192905426 0.8936326503753662
vn -0.0 -0.6427876353263855 0.7660444378852844
vn -0.0 -0.8021231889724731 0.5971586108207703
vn -0.0 -0.9182161092758179 0.39607977867126465
vn -0.0 -0.9848077297210693 0.1736481785774231
vn 0.0 -0.9983081817626953 -0.05814483016729355
vn 0.0 -0.957989513874054 -0.2868032455444336
vn 0.0 -0.8660253882408142 -0.5
vn 0.0 -0.7273736596107483 -0.686241626739502
vn 0.0 -0.5495089888572693 -0.8354877829551697
vn 0.0 -0.3420201539993286 -0.9396926164627075
vn 0.0 -0.11609291285276413 -0.9932383298873901
vn -0.0 0.11609291285276413 -0.9932383298873901
vn -0.0 0.3420201539993286 -0.9396926164627075
vn -0.0 0.5495089888572693 -0.8354877829551697
vn -0.0 0.7273736596107483 -0.686241626739502
vn -0.0 0.8660253882408142 -0.5
vn -0.0 0.957989513874054 -0.2868032455444336
vn -0.0 0.9983081817626953 -0.05814483016729355
vn -0.0 0.9848077297210693 0.1736481785774231
vn -0.0 0.9182161092758179 0.39607977867126465
vn -0.0 0.8021231889724731 0.5971586108207703
vn -0.0 0.6427876353263855 0.7660444378852844
vn -0.0 0.448799192905426 0.8936326503753662
vn -0.0 0.23061586916446686 0.9730448722839355
vn -0.0 1.2246468525851679e-16 1.0
vn -0.0 -1.2246468525851679e-16 1.0
vn -1.0 -0.0 -0.0
vn -1.0 -0.0 -0.0
vn -1.0 -0.0 -0.0
vn -1.0 -0.0 -0.0
vn -1.0 -0.0 -0.0
vn -1.0 -0.0 -0.0
vn -1.0 -0.0 -0.0
vn -1.0 -0.0 -0.0
vn -1.0 -0.0 -0.0
vn -1.0 -0.0 -0.0
vn -1.0 -0.0 -0.0
vn -1.0 -0.0 -0.0
vn -1.0 -0.0 -0.0
vn -1.0 -0.0 -0.0
vn -1.0 -0.0 -0.0
vn -1.0 -0.0 -0.0
vn -1.0 -0.0 -0.0
vn -1.0 -0.0 -0.0
vn -1.0 -0.0 -0.0
vn -1.0 -0.0 -0.0
vn -1.0 -0.0 -0.0
vn -1.0 -0.0 -0.0
vn -1.0 -0.0 -0.0
vn -1.0 -0.0 -0.0
vn -1.0 -0.0 -0.0
vn -1.0 -0.0 -0.0
vn -1.0 -0.0 -0.0
vn -1.0 -0.0 -0.0
vn -1.0 -0.0 -0.0
vn -1.0 -0.0 -0.0
vn -1.0 -0.0 -0.0
vn -1.0 -0.0 -0.0
vn -1.0 -0.0 -0.0
vn -1.0 -0.0 -0.0
vn -1.0 -0.0 -0.0
vn -1.0 -0.0 -0.0
vn -1.0 -0.0 -0.0
vn -1.0 -0.0 -0.0
vn -1.0 -0.0 -0.0
vn -1.0 -0.0 -0.0
vn -1.0 -0.0 -0.0
vn -1.0 -0.0 -0.0
vn -1.0 -0.0 -0.0
vn -1.0 -0.0 -0.0
vn -1.0 -0.0 -0.0
vn -1.0 -0.0 -0.0
vn -1.0 -0.0 -0.0
vn -1.0 -0.0 -0.0
vn 0.0 1.2246468525851679e-16 -1.0
vn 0.0 0.29475516080856323 -0.955572783946991
vn 0.0 0.5633200407028198 -0.826238751411438
vn 0.0 0.7818315029144287 -0.6234897971153259
vn 0.0 0.9308737516403198 -0.36534103751182556
vn 0.0 0.9972038269042969 -0.07473009079694748
vn -0.0 0.9749279022216797 0.22252093255519867
vn -0.0 0.8660253882408142 0.5
vn -0.0 0.6801727414131165 0.7330518960952759
vn -0.0 0.4338837265968323 0.9009688496589661
vn -0.0 0.1490422636270523 0.9888308048248291
vn 0.0 -0.1490422636270523 0.9888308048248291
vn 0.0 -0.4338837265968323 0.9009688496589661
vn 0.0 -0.6801727414131165 0.7330518960952759
vn 0.0 -0.8660253882408142 0.5
vn 0.0 -0.9749279022216797 0.22252093255519867
vn 0.0 -0.9972038269042969 -0.07473009079694748
vn 0.0 -0.9308737516403198 -0.36534103751182556
vn 0.0 -0.7818315029144287 -0.6234897971153259
vn 0.0 -0.5633200407028198 -0.826238751411438
vn 0.0 -0.29475516080856323 -0.955572783946991
vn 0.0 -1.2246468525851679e-16 -1.0
vn 0.0 -0.29475516080856323 -0.955572783946991
vn 0.0 -0.5633200407028198 -0.826238751411438
vn 0.0 -0.7818315029144287 -0.6234897971153259
vn 0.0 -0.9308737516403198 -0.36534103751182556
vn 0.0 -0.9972038269042969 -0.07473009079694748
vn 0.0 -0.9749279022216797 0.22252093255519867
vn 0.0 -0.8660253882408142 0.5
vn 0.0 -0.6801727414131165 0.7330518960952759
vn 0.0 -0.4338837265968323 0.9009688496589661
vn 0.0 -0.1490422636270523 0.9888308048248291
vn -0.0 0.1490422636270523 0.9888308048248291
vn -0.0 0.4338837265968323 0.9009688496589661
vn -0.0 0.6801727414131165 0.7330518960952759
vn -0.0 0.8660253882408142 0.5
vn -0.0 0.9749279022216797 0.22252093255519867
vn 0.0 0.9972038269042969 -0.07473009079694748
vn 0.0 0.9308737516403198 -0.36534103751182556
vn 0.0 0.7818315029144287 -0.6234897971153259
vn 0.0 0.5633200407028198 -0.826238751411438
vn 0.0 0.29475516080856323 -0.955572783946991
vn 0.0 -1.2246468525851679e-16 -1.0
vn 0.0 1.2246468525851679e-16 -1.0
f 2//2 48//48 1//1
f 1//1 48//48 22//22
f 1//1 22//22 23//23
f 48//48 2//2 47//47
f 47//47 2//2 3//3
f 47//47 3//3 46//46
f 46//46 3//3 4//4
f 46//46 4//4 45//45
f 45//45 4//4 5//5
f 45//45 5//5 44//44
f 44//44 5//5 43//43
f 43//43 5//5 6//6
f 43//43 6//6 42//42
f 42//42 6//6 7//7
f 42//42 7//7 41//41
f 41//41 7//7 8//8
f 41//41 8//8 40//40
f 40//40 8//8 39//39
f 39//39 8//8 9//9
f 39//39 9//9 38//38
f 38//38 9//9 10//10
f 38//38 10//10 37//37
f 37//37 10//10 11//11
f 37//37 11//11 36//36
f 36//36 11//11 35//35
f 35//35 11//11 12//12
f 35//35 12//12 34//34
f 34//34 12//12 13//13
f 34//34 13//13 33//33
f 33//33 13//13 14//14
f 33//33 14//14 32//32
f 32//32 14//14 15//15
f 32//32 15//15 31//31
f 31//31 15//15 30//30
f 30//30 15//15 16//16
f 30//30 16//16 29//29
f 29//29 16//16 17//17
f 29//29 17//17 28//28
f 28//28 17//17 18//18
f 28//28 18//18 27//27
f 27//27 18//18 26//26
f 26//26 18//18 19//19
f 26//26 19//19 25//25
f 25//25 19//19 20//20
f 25//25 20//20 24//24
f 24//24 20//20 21//21
f 24//24 21//21 23//23
f 23//23 21//21 1//1
f 50//50 102//102 49//49
f 49//49 102//102 103//103
f 104//104 76//76 75//75
f 75//75 76//76 77//77
f 75//75 77//77 74//74
f 74//74 77//77 78//78
f 74//74 78//78 73//73
f 73//73 78//78 79//79
f 73//73 79//79 72//72
f 72//72 79//79 80//80
f 72//72 80//80 71//71
f 71//71 80//80 81//81
f 71//71 81//81 70//70
f 70//70 81//81 82//82
f 70//70 82//82 69//69
f 69//69 82//82 83//83
f 69//69 83//83 68//68
f 68//68 83//83 84//84
f 68//68 84//84 67//67
f 67//67 84//84 85//85
f 67//67 85//85 66//66
f 66//66 85//85 86//86
f 66//66 86//86 65//65
f 65//65 86//86 87//87
f 65//65 87//87 64//64
f 64//64 87//87 88//88
f 64//64 88//88 63//63
f 63//63 88//88 89//89
f 63//63 89//89 62//62
f 62//62 89//89 90//90
f 62//62 90//90 61//61
f 61//61 90//90 91//91
f 61//61 91//91 60//60
f 60//60 91//91 92//92
f 60//60 92//92 59//59
f 59//59 92//92 93//93
f 59//59 93//93 58//58
f 58//58 93//93 94//94
f 58//58 94//94 57//57
f 57//57 94//94 95//95
f 57//57 95//95 56//56
f 56//56 95//95 96//96
f 56//56 96//96 55//55
f 55//55 96//96 97//97
f 55//55 97//97 54//54
f 54//54 97//97 98//98
f 54//54 98//98 53//53
f 53//53 98//98 99//99
f 53//53 99//99 52//52
f 52//52 99//99 100//100
f 52//52 100//100 51//51
f 51//51 100//100 101//101
f 51//51 101//101 50//50
f 50//50 101//101 102//102
f 106//106 152//152 105//105
f 105//105 152//152 126//126
f 105//105 126//126 127//127
f 152//152 106//106 151//151
f 151//151 106//106 107//107
f 151//151 107//107 150//150
f 150//150 107//107 108//108
f 150//150 108//108 149//149
f 149//149 108//108 109//109
f 149//149 109//109 148//148
f 148//148 109//109 147//147
f 147//147 109//109 110//110
f 147//147 110//110 146//146
f 146//146 110//110 111//111
f 146//146 111//111 145//145
f 145//145 111//111 112//112
f 145//145 112//112 144//144
f 144//144 112//112 143//143
f 143//143 112//112 113//113
f 143//143 113//113 142//142
f 142//142 113//113 114//114
f 142//142 114//114 141//141
f 141//141 114//114 115//115
f 141//141 115//115 140//140
f 140//140 115//115 116//116
f 140//140 116//116 139//139
f 139//139 116//116 138//138
f 138//138 116//116 117//117
f 138//138 117//117 137//137
f 137//137 117//117 118//118
f 137//137 118//118 136//136
f 136//136 118//118 119//119
f 136//136 119//119 135//135
f 135//135 119//119 134//134
f 134//134 119//119 120//120
f 134//134 120//120 133//133
f 133//133 120//120 121//121
f 133//133 121//121 132//132
f 132//132 121//121 122//122
f 132//132 122//122 131//131
f 131//131 122//122 130//130
f 130//130 122//122 123//123
f 130//130 123//123 129//129
f 129//129 123//123 124//124
f 129//129 124//124 128//128
f 128//128 124//124 125//125
f 128//128 125//125 127//127
f 127//127 125//125 105//105
f 154//154 194//194 153//153
f 153//153 194//194 196//196
f 195//195 174//174 173//173
f 173//173 174//174 175//175
f 173//173 175//175 172//172
f 172//172 175//175 176//176
f 172//172 176//176 171//171
f 171//171 176//176 177//177
f 171//171 177//177 170//170
f 170//170 177//177 178//178
f 170//170 178//178 169//169
f 169//169 178//178 179//179
f 169//169 179//179 168//168
f 168//168 179//179 180//180
f 168//168 180//180 167//167
f 167//167 180//180 181//181
f 167//167 181//181 166//166
f 166//166 181//181 182//182
f 166//166 182//182 165//165
f 165//165 182//182 183//183
f 165//165 183//183 164//164
f 164//164 183//183 184//184
f 164//164 184//184 163//163
f 163//163 184//184 185//185
f 163//163 185//185 162//162
f 162//162 185//185 186//186
f 162//162 186//186 161//161
f 161//161 186//186 187//187
f 161//161 187//187 160//160
f 160//160 187//187 188//188
f 160//160 188//188 159//159
f 159//159 188//188 189//189
f 159//159 189//189 158//158
f 158//158 189//189 190//190
f 158//158 190//190 157//157
f 157//157 190//190 191//191
f 157//157 191//191 156//156
f 156//156 191//191 192//192
f 156//156 192//192 155//155
f 155//155 192//192 193//193
f 155//155 193//193 154//154
f 154//154 193//193 194//194

# End of file