# WaveFront *.obj file
# Vertices: 218
# Triangles : 200

v -0.49946004152297974 -6.116621450236845e-17 0.30000001192092896
v -0.4945993423461914 0.06951140612363815 0.30000001192092896
v -0.4801118075847626 0.13766984641551971 0.30000001192092896
v -0.456279456615448 0.2031487077474594 0.30000001192092896
v -0.42356613278388977 0.26467350125312805 0.30000001192092896
v -0.3826085925102234 0.32104673981666565 0.30000001192092896
v -0.3342040181159973 0.37117114663124084 0.30000001192092896
v -0.27929452061653137 0.41407114267349243 0.30000001192092896
v -0.2189488708972931 0.44891172647476196 0.30000001192092896
v -0.15434163808822632 0.47501474618911743 0.30000001192092896
v -0.08673033118247986 0.4918721318244934 0.30000001192092896
v -0.017430905252695084 0.49915578961372375 0.30000001192092896
v 0.052207790315151215 0.4967239499092102 0.30000001192092896
v 0.12083031982183456 0.4846239387989044 0.30000001192092896
v 0.18710102140903473 0.46309128403663635 0.30000001192092896
v 0.24973002076148987 0.43254509568214417 0.30000001192092896
v 0.3074983060359955 0.39357990026474 0.30000001192092896
v 0.3592814803123474 0.3469541072845459 0.30000001192092896
v 0.4040716588497162 0.293575257062912 0.30000001192092896
v 0.44099703431129456 0.2344822883605957 0.30000001192092896
v 0.46933892369270325 0.17082539200782776 0.30000001192092896
v 0.48854565620422363 0.1038435846567154 0.30000001192092896
v 0.49824339151382446 0.034840572625398636 0.30000001192092896
v 0.49824339151382446 -0.034840572625398636 0.30000001192092896
v 0.48854565620422363 -0.1038435846567154 0.30000001192092896
v 0.46933892369270325 -0.17082539200782776 0.30000001192092896
v 0.44099703431129456 -0.2344822883605957 0.30000001192092896
v 0.4040716588497162 -0.293575257062912 0.30000001192092896
v 0.3592814803123474 -0.3469541072845459 0.30000001192092896
v 0.3074983060359955 -0.39357990026474 0.30000001192092896
v 0.24973002076148987 -0.43254509568214417 0.30000001192092896
v 0.18710102140903473 -0.46309128403663635 0.30000001192092896
v 0.12083031982183456 -0.4846239387989044 0.30000001192092896
v 0.052207790315151215 -0.4967239499092102 0.30000001192092896
v -0.017430905252695084 -0.49915578961372375 0.30000001192092896
v -0.08673033118247986 -0.4918721318244934 0.30000001192092896
v -0.15434163808822632 -0.47501474618911743 0.30000001192092896
v -0.2189488708972931 -0.44891172647476196 0.30000001192092896
v -0.27929452061653137 -0.41407114267349243 0.30000001192092896
v -0.3342040181159973 -0.37117114663124084 0.30000001192092896
v -0.3826085925102234 -0.32104673981666565 0.30000001192092896
v -0.42356613278388977 -0.26467350125312805 0.30000001192092896
v -0.456279456615448 -0.2031487077474594 0.30000001192092896
v -0.4801118075847626 -0.13766984641551971 0.30000001192092896
v -0.4945993423461914 -0.06951140612363815 0.30000001192092896
v -0.49946004152297974 -6.116621450236845e-17 0.5
v -0.4945993423461914 -0.06951140612363815 0.5
v -0.4801118075847626 -0.13766984641551971 0.5
v -0.456279456615448 -0.2031487077474594 0.5
v -0.42356613278388977 -0.26467350125312805 0.5
v -0.3826085925102234 -0.32104673981666565 0.5
v -0.3342040181159973 -0.37117114663124084 0.5
v -0.27929452061653137 -0.41407114267349243 0.5
v -0.2189488708972931 -0.44891172647476196 0.5
v -0.15434163808822632 -0.47501474618911743 0.5
v -0.08673033118247986 -0.4918721318244934 0.5
v -0.017430905252695084 -0.49915578961372375 0.5
v 0.052207790315151215 -0.4967239499092102 0.5
v 0.12083031982183456 -0.4846239387989044 0.5
v 0.18710102140903473 -0.46309128403663635 0.5
v 0.24973002076148987 -0.43254509568214417 0.5
v 0.3074983060359955 -0.39357990026474 0.5
v 0.3592814803123474 -0.3469541072845459 0.5
v 0.4040716588497162 -0.293575257062912 0.5
v 0.44099703431129456 -0.2344822883605957 0.5
v 0.46933892369270325 -0.17082539200782776 0.5
v 0.48854565620422363 -0.1038435846567154 0.5
v 0.49824339151382446 -0.034840572625398636 0.5
v 0.49824339151382446 0.034840572625398636 0.5
v 0.48854565620422363 0.1038435846567154 0.5
v 0.46933892369270325 0.17082539200782776 0.5
v 0.44099703431129456 0.2344822883605957 0.5
v 0.4040716588497162 0.293575257062912 0.5
v 0.3592814803123474 0.3469541072845459 0.5
v 0.3074983060359955 0.39357990026474 0.5
v 0.24973002076148987 0.43254509568214417 0.5
v 0.18710102140903473 0.46309128403663635 0.5
v 0.12083031982183456 0.4846239387989044 0.5
v 0.052207790315151215 0.4967239499092102 0.5
v -0.017430905252695084 0.49915578961372375 0.5
v -0.08673033118247986 0.4918721318244934 0.5
v -0.15434163808822632 0.47501474618911743 0.5
v -0.2189488708972931 0.44891172647476196 0.5
v -0.27929452061653137 0.41407114267349243 0.5
v -0.3342040181159973 0.37117114663124084 0.5
v -0.3826085925102234 0.32104673981666565 0.5
v -0.42356613278388977 0.26467350125312805 0.5
v -0.456279456615448 0.2031487077474594 0.5
v -0.4801118075847626 0.13766984641551971 0.5
v -0.4945993423461914 0.06951140612363815 0.5
v -0.49946004152297974 -6.116621450236845e-17 0.30000001192092896
v -0.49946004152297974 -6.116621450236845e-17 0.5
v -0.49946004152297974 -6.116621450236845e-17 0.30000001192092896
v -0.4945993423461914 -0.06951140612363815 0.30000001192092896
v -0.4801118075847626 -0.13766984641551971 0.30000001192092896
v -0.456279456615448 -0.2031487077474594 0.30000001192092896
v -0.42356613278388977 -0.26467350125312805 0.30000001192092896
v -0.3826085925102234 -0.32104673981666565 0.30000001192092896
v -0.3342040181159973 -0.37117114663124084 0.30000001192092896
v -0.27929452061653137 -0.41407114267349243 0.30000001192092896
v -0.2189488708972931 -0.44891172647476196 0.30000001192092896
v -0.15434163808822632 -0.47501474618911743 0.30000001192092896
v -0.08673033118247986 -0.4918721318244934 0.30000001192092896
v -0.017430905252695084 -0.49915578961372375 0.30000001192092896
v 0.052207790315151215 -0.4967239499092102 0.30000001192092896
v 0.12083031982183456 -0.4846239387989044 0.30000001192092896
v 0.18710102140903473 -0.46309128403663635 0.30000001192092896
v 0.24973002076148987 -0.43254509568214417 0.30000001192092896
v 0.3074983060359955 -0.39357990026474 0.30000001192092896
v 0.3592814803123474 -0.3469541072845459 0.30000001192092896
v 0.4040716588497162 -0.293575257062912 0.30000001192092896
v 0.44099703431129456 -0.2344822883605957 0.30000001192092896
v 0.46933892369270325 -0.17082539200782776 0.30000001192092896
v 0.48854565620422363 -0.1038435846567154 0.30000001192092896
v 0.49824339151382446 -0.034840572625398636 0.30000001192092896
v 0.49824339151382446 0.034840572625398636 0.30000001192092896
v 0.48854565620422363 0.1038435846567154 0.30000001192092896
v 0.46933892369270325 0.17082539200782776 0.30000001192092896
v 0.44099703431129456 0.2344822883605957 0.30000001192092896
v 0.4040716588497162 0.293575257062912 0.30000001192092896
v 0.3592814803123474 0.3469541072845459 0.30000001192092896
v 0.3074983060359955 0.39357990026474 0.30000001192092896
v 0.24973002076148987 0.43254509568214417 0.30000001192092896
v 0.18710102140903473 0.46309128403663635 0.30000001192092896
v 0.12083031982183456 0.4846239387989044 0.30000001192092896
v 0.052207790315151215 0.4967239499092102 0.30000001192092896
v -0.017430905252695084 0.49915578961372375 0.30000001192092896
v -0.08673033118247986 0.4918721318244934 0.30000001192092896
v -0.15434163808822632 0.47501474618911743 0.30000001192092896
v -0.2189488708972931 0.44891172647476196 0.30000001192092896
v -0.27929452061653137 0.41407114267349243 0.30000001192092896
v -0.3342040181159973 0.37117114663124084 0.30000001192092896
v -0.3826085925102234 0.32104673981666565 0.30000001192092896
v -0.42356613278388977 0.26467350125312805 0.30000001192092896
v -0.456279456615448 0.2031487077474594 0.30000001192092896
v -0.4801118075847626 0.13766984641551971 0.30000001192092896
v -0.4945993423461914 0.06951140612363815 0.30000001192092896
v -3.885780586188048e-16 -0.9237604141235352 0.0
v 0.800000011920929 -0.4618802070617676 0.0
v 0.800000011920929 -0.4618802070617676 0.5
v -4.440892098500626e-16 -0.9237604141235352 0.5
v -0.800000011920929 -0.4618802070617676 0.0
v -3.885780586188048e-16 -0.9237604141235352 0.0
v -4.440892098500626e-16 -0.9237604141235352 0.5
v -0.800000011920929 -0.4618802070617676 0.5
v -0.800000011920929 0.4618802070617676 0.0
v -0.800000011920929 -0.4618802070617676 0.0
v -0.800000011920929 -0.4618802070617676 0.5
v -0.800000011920929 0.4618802070617676 0.5
v 2.352343008859323e-17 0.9237604141235352 0.0
v -0.800000011920929 0.4618802070617676 0.0
v -0.800000011920929 0.4618802070617676 0.5
v 0.0 0.9237604141235352 0.5
v 0.800000011920929 0.4618802070617676 0.0
v 2.352343008859323e-17 0.9237604141235352 0.0
v 0.0 0.9237604141235352 0.5
v 0.800000011920929 0.4618802070617676 0.5
v 0.800000011920929 -0.4618802070617676 0.0
v 0.800000011920929 0.4618802070617676 0.0
v 0.800000011920929 0.4618802070617676 0.5
v 0.800000011920929 -0.4618802070617676 0.5
v -0.49946004152297974 -6.116621450236845e-17 0.5
v -0.4945993423461914 0.06951140612363815 0.5
v -0.4801118075847626 0.13766984641551971 0.5
v -0.456279456615448 0.2031487077474594 0.5
v -0.42356613278388977 0.26467350125312805 0.5
v -0.3826085925102234 0.32104673981666565 0.5
v -0.3342040181159973 0.37117114663124084 0.5
v -0.27929452061653137 0.41407114267349243 0.5
v -0.2189488708972931 0.44891172647476196 0.5
v -0.15434163808822632 0.47501474618911743 0.5
v -0.08673033118247986 0.4918721318244934 0.5
v -0.017430905252695084 0.49915578961372375 0.5
v 0.052207790315151215 0.4967239499092102 0.5
v 0.12083031982183456 0.4846239387989044 0.5
v 0.18710102140903473 0.46309128403663635 0.5
v 0.24973002076148987 0.43254509568214417 0.5
v 0.3074983060359955 0.39357990026474 0.5
v 0.3592814803123474 0.3469541072845459 0.5
v 0.4040716588497162 0.293575257062912 0.5
v 0.44099703431129456 0.2344822883605957 0.5
v 0.46933892369270325 0.17082539200782776 0.5
v 0.48854565620422363 0.1038435846567154 0.5
v 0.49824339151382446 0.034840572625398636 0.5
v 0.49824339151382446 -0.034840572625398636 0.5
v 0.48854565620422363 -0.1038435846567154 0.5
v 0.46933892369270325 -0.17082539200782776 0.5
v 0.44099703431129456 -0.2344822883605957 0.5
v 0.4040716588497162 -0.293575257062912 0.5
v 0.3592814803123474 -0.3469541072845459 0.5
v 0.3074983060359955 -0.39357990026474 0.5
v 0.24973002076148987 -0.43254509568214417 0.5
v 0.18710102140903473 -0.46309128403663635 0.5
v 0.12083031982183456 -0.4846239387989044 0.5
v 0.052207790315151215 -0.4967239499092102 0.5
v -0.017430905252695084 -0.49915578961372375 0.5
v -0.08673033118247986 -0.4918721318244934 0.5
v -0.15434163808822632 -0.47501474618911743 0.5
v -0.2189488708972931 -0.44891172647476196 0.5
v -0.27929452061653137 -0.41407114267349243 0.5
v -0.3342040181159973 -0.37117114663124084 0.5
v -0.3826085925102234 -0.32104673981666565 0.5
v -0.42356613278388977 -0.26467350125312805 0.5
v -0.456279456615448 -0.2031487077474594 0.5
v -0.4801118075847626 -0.13766984641551971 0.5
v -0.4945993423461914 -0.06951140612363815 0.5
v 0.800000011920929 -0.4618802070617676 0.5
v 0.800000011920929 0.4618802070617676 0.5
v 0.0 0.9237604141235352 0.5
v -0.800000011920929 0.4618802070617676 0.5
v -0.800000011920929 -0.4618802070617676 0.5
v -4.440892098500626e-16 -0.9237604141235352 0.5
v 0.800000011920929 0.4618802070617676 0.0
v 0.800000011920929 -0.4618802070617676 0.0
v -3.885780586188048e-16 -0.9237604141235352 0.0
v -0.800000011920929 -0.4618802070617676 0.0
v -0.800000011920929 0.4618802070617676 0.0
v 2.352343008859323e-17 0.9237604141235352 0.0
vn 1.0 -1.2246468525851679e-16 0.0
vn 0.9902680516242981 -0.13917310535907745 0.0
vn 0.9612616896629333 -0.27563735842704773 0.0
vn 0.9135454297065735 -0.4067366421222687 0.0
vn 0.8480480909347534 -0.5299192667007446 0.0
vn 0.7660444378852844 -0.6427876353263855 0.0
vn 0.6691306233406067 -0.7431448101997375 0.0
vn 0.5591928958892822 -0.8290375471115112 0.0
vn 0.4383711516857147 -0.8987940549850464 0.0
vn 0.30901700258255005 -0.9510565400123596 0.0
vn 0.1736481785774231 -0.9848077297210693 0.0
vn 0.03489949554204941 -0.9993908405303955 0.0
vn -0.10452846437692642 -0.9945219159126282 -0.0
vn -0.24192190170288086 -0.9702957272529602 -0.0
vn -0.37460657954216003 -0.9271838665008545 -0.0
vn -0.5 -0.8660253882408142 -0.0
vn -0.6156615018844604 -0.7880107760429382 -0.0
vn -0.7193397879600525 -0.6946583986282349 -0.0
vn -0.80901700258255 -0.5877852439880371 -0.0
vn -0.882947564125061 -0.4694715738296509 -0.0
vn -0.9396926164627075 -0.3420201539993286 -0.0
vn -0.9781476259231567 -0.2079116851091385 -0.0
vn -0.9975640773773193 -0.06975647062063217 -0.0
vn -0.9975640773773193 0.06975647062063217 0.0
vn -0.9781476259231567 0.2079116851091385 0.0
vn -0.9396926164627075 0.3420201539993286 0.0
vn -0.882947564125061 0.4694715738296509 0.0
vn -0.80901700258255 0.5877852439880371 0.0
vn -0.7193397879600525 0.6946583986282349 0.0
vn -0.6156615018844604 0.7880107760429382 0.0
vn -0.5 0.8660253882408142 0.0
vn -0.37460657954216003 0.9271838665008545 0.0
vn -0.24192190170288086 0.9702957272529602 0.0
vn -0.10452846437692642 0.9945219159126282 0.0
vn 0.03489949554204941 0.9993908405303955 0.0
vn 0.1736481785774231 0.9848077297210693 0.0
vn 0.30901700258255005 0.9510565400123596 0.0
vn 0.4383711516857147 0.8987940549850464 0.0
vn 0.5591928958892822 0.8290375471115112 0.0
vn 0.6691306233406067 0.7431448101997375 0.0
vn 0.7660444378852844 0.6427876353263855 0.0
vn 0.8480480909347534 0.5299192667007446 0.0
vn 0.9135454297065735 0.4067366421222687 0.0
vn 0.9612616896629333 0.27563735842704773 0.0
vn 0.9902680516242981 0.13917310535907745 0.0
vn 1.0 1.2246468525851679e-16 0.0
vn 0.9902680516242981 0.13917310535907745 0.0
vn 0.9612616896629333 0.27563735842704773 0.0
vn 0.9135454297065735 0.4067366421222687 0.0
vn 0.8480480909347534 0.5299192667007446 0.0
vn 0.7660444378852844 0.6427876353263855 0.0
vn 0.6691306233406067 0.7431448101997375 0.0
vn 0.5591928958892822 0.8290375471115112 0.0
vn 0.4383711516857147 0.8987940549850464 0.0
vn 0.30901700258255005 0.9510565400123596 0.0
vn 0.1736481785774231 0.9848077297210693 0.0
vn 0.03489949554204941 0.9993908405303955 0.0
vn -0.10452846437692642 0.9945219159126282 0.0
vn -0.24192190170288086 0.9702957272529602 0.0
vn -0.37460657954216003 0.9271838665008545 0.0
vn -0.5 0.8660253882408142 0.0
vn -0.6156615018844604 0.7880107760429382 0.0
vn -0.7193397879600525 0.6946583986282349 0.0
vn -0.80901700258255 0.5877852439880371 0.0
vn -0.882947564125061 0.4694715738296509 0.0
vn -0.9396926164627075 0.3420201539993286 0.0
vn -0.9781476259231567 0.2079116851091385 0.0
vn -0.9975640773773193 0.06975647062063217 0.0
vn -0.9975640773773193 -0.06975647062063217 -0.0
vn -0.9781476259231567 -0.2079116851091385 -0.0
vn -0.9396926164627075 -0.3420201539993286 -0.0
vn -0.882947564125061 -0.4694715738296509 -0.0
vn -0.80901700258255 -0.5877852439880371 -0.0
vn -0.7193397879600525 -0.6946583986282349 -0.0
vn -0.6156615018844604 -0.7880107760429382 -0.0
vn -0.5 -0.8660253882408142 -0.0
vn -0.37460657954216003 -0.9271838665008545 -0.0
vn -0.24192190170288086 -0.9702957272529602 -0.0
vn -0.10452846437692642 -0.9945219159126282 -0.0
vn 0.03489949554204941 -0.9993908405303955 0.0
vn 0.1736481785774231 -0.9848077297210693 0.0
vn 0.30901700258255005 -0.9510565400123596 0.0
vn 0.4383711516857147 -0.8987940549850464 0.0
vn 0.5591928958892822 -0.8290375471115112 0.0
vn 0.6691306233406067 -0.7431448101997375 0.0
vn 0.7660444378852844 -0.6427876353263855 0.0
vn 0.8480480909347534 -0.5299192667007446 0.0
vn 0.9135454297065735 -0.4067366421222687 0.0
vn 0.9612616896629333 -0.27563735842704773 0.0
vn 0.9902680516242981 -0.13917310535907745 0.0
vn 1.0 1.2246468525851679e-16 0.0
vn 1.0 -1.2246468525851679e-16 0.0
vn 0.0 0.0 1.0
vn 0.0 0.0 1.0
vn 0.0 0.0 1.0
vn 0.0 0.0 1.0
vn 0.0 0.0 1.0
vn 0.0 0.0 1.0
vn 0.0 0.0 1.0
vn 0.0 0.0 1.0
vn 0.0 0.0 1.0
vn 0.0 0.0 1.0
vn 0.0 0.0 1.0
vn 0.0 0.0 1.0
vn 0.0 0.0 1.0
vn 0.0 0.0 1.0
vn 0.0 0.0 1.0
vn 0.0 0.0 1.0
vn 0.0 0.0 1.0
vn 0.0 0.0 1.0
vn 0.0 0.0 1.0
vn 0.0 0.0 1.0
vn 0.0 0.0 1.0
vn 0.0 0.0 1.0
vn 0.0 0.0 1.0
vn 0.0 0.0 1.0
vn 0.0 0.0 1.0
vn 0.0 0.0 1.0
vn 0.0 0.0 1.0
vn 0.0 0.0 1.0
vn 0.0 0.0 1.0
vn 0.0 0.0 1.0
vn 0.0 0.0 1.0
vn 0.0 0.0 1.0
vn 0.0 0.0 1.0
vn 0.0 0.0 1.0
vn 0.0 0.0 1.0
vn 0.0 0.0 1.0
vn 0.0 0.0 1.0
vn 0.0 0.0 1.0
vn 0.0 0.0 1.0
vn 0.0 0.0 1.0
vn 0.0 0.0 1.0
vn 0.0 0.0 1.0
vn 0.0 0.0 1.0
vn 0.0 0.0 1.0
vn 0.0 0.0 1.0
vn 0.5 -0.8660253882408142 0.0
vn 0.5 -0.8660253882408142 0.0
vn 0.5 -0.8660253882408142 0.0
vn 0.5 -0.8660253882408142 0.0
vn -0.5 -0.8660253882408142 0.0
vn -0.5 -0.8660253882408142 0.0
vn -0.5 -0.8660253882408142 0.0
vn -0.5 -0.8660253882408142 0.0
vn -1.0 1.2018517401366765e-16 0.0
vn -1.0 1.2018517401366765e-16 0.0
vn -1.0 1.2018517401366765e-16 0.0
vn -1.0 1.2018517401366765e-16 0.0
vn -0.5 0.8660253882408142 0.0
vn -0.5 0.8660253882408142 0.0
vn -0.5 0.8660253882408142 0.0
vn -0.5 0.8660253882408142 0.0
vn 0.5 0.8660253882408142 -0.0
vn 0.5 0.8660253882408142 -0.0
vn 0.5 0.8660253882408142 -0.0
vn 0.5 0.8660253882408142 -0.0
vn 1.0 -4.807406960546706e-16 0.0
vn 1.0 -4.807406960546706e-16 0.0
vn 1.0 -4.807406960546706e-16 0.0
vn 1.0 -4.807406960546706e-16 0.0
vn 0.0 0.0 1.0
vn 0.0 0.0 1.0
vn 0.0 0.0 1.0
vn 0.0 0.0 1.0
vn 0.0 0.0 1.0
vn 0.0 0.0 1.0
vn 0.0 0.0 1.0
vn 0.0 0.0 1.0
vn 0.0 0.0 1.0
vn 0.0 0.0 1.0
vn 0.0 0.0 1.0
vn 0.0 0.0 1.0
vn 0.0 0.0 1.0
vn 0.0 0.0 1.0
vn 0.0 0.0 1.0
vn 0.0 0.0 1.0
vn 0.0 0.0 1.0
vn 0.0 0.0 1.0
vn 0.0 0.0 1.0
vn 0.0 0.0 1.0
vn 0.0 0.0 1.0
vn 0.0 0.0 1.0
vn 0.0 0.0 1.0
vn 0.0 0.0 1.0
vn 0.0 0.0 1.0
vn 0.0 0.0 1.0
vn 0.0 0.0 1.0
vn 0.0 0.0 1.0
vn 0.0 0.0 1.0
vn 0.0 0.0 1.0
vn 0.0 0.0 1.0
vn 0.0 0.0 1.0
vn 0.0 0.0 1.0
vn 0.0 0.0 1.0
vn 0.0 0.0 1.0
vn 0.0 0.0 1.0
vn 0.0 0.0 1.0
vn 0.0 0.0 1.0
vn 0.0 0.0 1.0
vn 0.0 0.0 1.0
vn 0.0 0.0 1.0
vn 0.0 0.0 1.0
vn 0.0 0.0 1.0
vn 0.0 0.0 1.0
vn 0.0 0.0 1.0
vn 0.0 0.0 1.0
vn 0.0 0.0 1.0
vn 0.0 0.0 1.0
vn 0.0 0.0 1.0
vn 0.0 0.0 1.0
vn 0.0 0.0 1.0
vn -0.0 -0.0 -1.0
vn -0.0 -0.0 -1.0
vn -0.0 -0.0 -1.0
vn -0.0 -0.0 -1.0
vn -0.0 -0.0 -1.0
vn -0.0 -0.0 -1.0
g 9b0f1854-e383-11ea-9934-54bf646e7e1f
f 2//2 90//90 1//1
f 1//1 90//90 92//92
f 91//91 46//46 45//45
f 45//45 46//46 47//47
f 45//45 47//47 44//44
f 44//44 47//47 48//48
f 44//44 48//48 43//43
f 43//43 48//48 49//49
f 43//43 49//49 42//42
f 42//42 49//49 50//50
f 42//42 50//50 41//41
f 41//41 50//50 51//51
f 41//41 51//51 40//40
f 40//40 51//51 52//52
f 40//40 52//52 39//39
f 39//39 52//52 53//53
f 39//39 53//53 38//38
f 38//38 53//53 54//54
f 38//38 54//54 37//37
f 37//37 54//54 55//55
f 37//37 55//55 36//36
f 36//36 55//55 56//56
f 36//36 56//56 35//35
f 35//35 56//56 57//57
f 35//35 57//57 34//34
f 34//34 57//57 58//58
f 34//34 58//58 33//33
f 33//33 58//58 59//59
f 33//33 59//59 32//32
f 32//32 59//59 60//60
f 32//32 60//60 31//31
f 31//31 60//60 61//61
f 31//31 61//61 30//30
f 30//30 61//61 62//62
f 30//30 62//62 29//29
f 29//29 62//62 63//63
f 29//29 63//63 28//28
f 28//28 63//63 64//64
f 28//28 64//64 27//27
f 27//27 64//64 65//65
f 27//27 65//65 26//26
f 26//26 65//65 66//66
f 26//26 66//66 25//25
f 25//25 66//66 67//67
f 25//25 67//67 24//24
f 24//24 67//67 68//68
f 24//24 68//68 23//23
f 23//23 68//68 69//69
f 23//23 69//69 22//22
f 22//22 69//69 70//70
f 22//22 70//70 21//21
f 21//21 70//70 71//71
f 21//21 71//71 20//20
f 20//20 71//71 72//72
f 20//20 72//72 19//19
f 19//19 72//72 73//73
f 19//19 73//73 18//18
f 18//18 73//73 74//74
f 18//18 74//74 17//17
f 17//17 74//74 75//75
f 17//17 75//75 16//16
f 16//16 75//75 76//76
f 16//16 76//76 15//15
f 15//15 76//76 77//77
f 15//15 77//77 14//14
f 14//14 77//77 78//78
f 14//14 78//78 13//13
f 13//13 78//78 79//79
f 13//13 79//79 12//12
f 12//12 79//79 80//80
f 12//12 80//80 11//11
f 11//11 80//80 81//81
f 11//11 81//81 10//10
f 10//10 81//81 82//82
f 10//10 82//82 9//9
f 9//9 82//82 83//83
f 9//9 83//83 8//8
f 8//8 83//83 84//84
f 8//8 84//84 7//7
f 7//7 84//84 85//85
f 7//7 85//85 6//6
f 6//6 85//85 86//86
f 6//6 86//86 5//5
f 5//5 86//86 87//87
f 5//5 87//87 4//4
f 4//4 87//87 88//88
f 4//4 88//88 3//3
f 3//3 88//88 89//89
f 3//3 89//89 2//2
f 2//2 89//89 90//90
g 9b0fb4a2-e383-11ea-ba63-54bf646e7e1f
f 94//94 115//115 93//93
f 93//93 115//115 116//116
f 93//93 116//116 137//137
f 137//137 116//116 117//117
f 137//137 117//117 136//136
f 136//136 117//117 118//118
f 136//136 118//118 135//135
f 135//135 118//118 119//119
f 135//135 119//119 134//134
f 134//134 119//119 120//120
f 134//134 120//120 133//133
f 133//133 120//120 121//121
f 133//133 121//121 132//132
f 132//132 121//121 122//122
f 132//132 122//122 131//131
f 131//131 122//122 123//123
f 131//131 123//123 130//130
f 130//130 123//123 124//124
f 130//130 124//124 129//129
f 129//129 124//124 125//125
f 129//129 125//125 128//128
f 128//128 125//125 126//126
f 128//128 126//126 127//127
f 115//115 94//94 114//114
f 114//114 94//94 95//95
f 114//114 95//95 113//113
f 113//113 95//95 96//96
f 113//113 96//96 112//112
f 112//112 96//96 97//97
f 112//112 97//97 111//111
f 111//111 97//97 98//98
f 111//111 98//98 110//110
f 110//110 98//98 99//99
f 110//110 99//99 109//109
f 109//109 99//99 100//100
f 109//109 100//100 108//108
f 108//108 100//100 101//101
f 108//108 101//101 107//107
f 107//107 101//101 102//102
f 107//107 102//102 106//106
f 106//106 102//102 103//103
f 106//106 103//103 105//105
f 105//105 103//103 104//104
g 9acb58ee-e383-11ea-afc0-54bf646e7e1f
f 138//138 139//139 141//141
f 141//141 139//139 140//140
g 9acba70a-e383-11ea-a2d7-54bf646e7e1f
f 142//142 143//143 145//145
f 145//145 143//143 144//144
g 9acbf378-e383-11ea-8c6c-54bf646e7e1f
f 146//146 147//147 149//149
f 149//149 147//147 148//148
g 9acc4326-e383-11ea-9721-54bf646e7e1f
f 150//150 151//151 153//153
f 153//153 151//151 152//152
g 9acc914a-e383-11ea-ab35-54bf646e7e1f
f 154//154 155//155 157//157
f 157//157 155//155 156//156
g 9accdf68-e383-11ea-95e4-54bf646e7e1f
f 158//158 159//159 161//161
f 161//161 159//159 160//160
g 9acd2d7a-e383-11ea-840e-54bf646e7e1f
f 163//163 210//210 162//162
f 162//162 210//210 211//211
f 162//162 211//211 206//206
f 206//206 211//211 205//205
f 205//205 211//211 204//204
f 204//204 211//211 203//203
f 203//203 211//211 202//202
f 202//202 211//211 201//201
f 201//201 211//211 200//200
f 200//200 211//211 212//212
f 200//200 212//212 199//199
f 199//199 212//212 198//198
f 198//198 212//212 197//197
f 197//197 212//212 196//196
f 196//196 212//212 195//195
f 195//195 212//212 194//194
f 194//194 212//212 193//193
f 193//193 212//212 192//192
f 192//192 212//212 207//207
f 192//192 207//207 191//191
f 191//191 207//207 190//190
f 190//190 207//207 189//189
f 189//189 207//207 188//188
f 188//188 207//207 187//187
f 187//187 207//207 186//186
f 186//186 207//207 185//185
f 185//185 207//207 184//184
f 184//184 207//207 208//208
f 184//184 208//208 183//183
f 183//183 208//208 182//182
f 182//182 208//208 181//181
f 181//181 208//208 180//180
f 180//180 208//208 179//179
f 179//179 208//208 178//178
f 178//178 208//208 177//177
f 177//177 208//208 209//209
f 177//177 209//209 176//176
f 176//176 209//209 175//175
f 175//175 209//209 174//174
f 174//174 209//209 173//173
f 173//173 209//209 172//172
f 172//172 209//209 171//171
f 171//171 209//209 170//170
f 170//170 209//209 169//169
f 169//169 209//209 210//210
f 169//169 210//210 168//168
f 168//168 210//210 167//167
f 167//167 210//210 166//166
f 166//166 210//210 165//165
f 165//165 210//210 164//164
f 164//164 210//210 163//163
g 9acd7a0c-e383-11ea-bba9-54bf646e7e1f
f 214//214 215//215 213//213
f 213//213 215//215 218//218
f 218//218 215//215 216//216
f 218//218 216//216 217//217

# End of file