# WaveFront *.obj file
# Vertices: 96
# Triangles : 56

v -4.419417381286621 -4.010000228881836 -0.20000000298023224
v 4.010000228881836 -4.010000228881836 -0.20000000298023224
v 4.010000228881836 -4.010000228881836 -0.5
v -4.419417381286621 -4.010000228881836 -0.5
v 4.010000228881836 -4.010000228881836 -0.20000000298023224
v -4.419417381286621 -4.010000228881836 -0.20000000298023224
v -4.419417381286621 -4.419417381286621 -0.20000000298023224
v 4.419417381286621 -4.419417381286621 -0.20000000298023224
v 4.419417381286621 4.419417381286621 -0.20000000298023224
v -4.419417381286621 4.419417381286621 -0.20000000298023224
v -4.419417381286621 4.010000228881836 -0.20000000298023224
v 4.010000228881836 4.010000228881836 -0.20000000298023224
v 4.010000228881836 -4.010000228881836 -0.20000000298023224
v 4.010000228881836 4.010000228881836 -0.20000000298023224
v 4.010000228881836 4.010000228881836 -0.5
v 4.010000228881836 -4.010000228881836 -0.5
v -4.419417381286621 4.010000228881836 -0.20000000298023224
v -4.419417381286621 4.419417381286621 -0.20000000298023224
v -4.419417381286621 4.419417381286621 -0.5
v -4.419417381286621 4.010000228881836 -0.5
v -4.419417381286621 -4.419417381286621 -0.20000000298023224
v -4.419417381286621 -4.010000228881836 -0.20000000298023224
v -4.419417381286621 -4.010000228881836 -0.5
v -4.419417381286621 -4.419417381286621 -0.5
v 4.419417381286621 -4.419417381286621 -0.20000000298023224
v -4.419417381286621 -4.419417381286621 -0.20000000298023224
v -4.419417381286621 -4.419417381286621 -0.5
v 4.419417381286621 -4.419417381286621 -0.5
v -4.419417381286621 -4.010000228881836 -0.5
v 4.010000228881836 -4.010000228881836 -0.5
v 4.010000228881836 4.010000228881836 -0.5
v -4.419417381286621 4.010000228881836 -0.5
v -4.419417381286621 4.419417381286621 -0.5
v 4.419417381286621 4.419417381286621 -0.5
v 4.419417381286621 -4.419417381286621 -0.5
v -4.419417381286621 -4.419417381286621 -0.5
v 4.419417381286621 4.419417381286621 -0.20000000298023224
v 4.419417381286621 -4.419417381286621 -0.20000000298023224
v 4.419417381286621 -4.419417381286621 -0.5
v 4.419417381286621 4.419417381286621 -0.5
v -4.419417381286621 4.419417381286621 -0.20000000298023224
v 4.419417381286621 4.419417381286621 -0.20000000298023224
v 4.419417381286621 4.419417381286621 -0.5
v -4.419417381286621 4.419417381286621 -0.5
v 4.010000228881836 4.010000228881836 -0.20000000298023224
v -4.419417381286621 4.010000228881836 -0.20000000298023224
v -4.419417381286621 4.010000228881836 -0.5
v 4.010000228881836 4.010000228881836 -0.5
v -4.419417381286621 -4.419417381286621 -0.5
v -4.419417381286621 -4.010000228881836 -0.5
v -4.419417381286621 -4.010000228881836 -0.5199999809265137
v -4.419417381286621 -4.419417381286621 -0.5199999809265137
v -4.419417381286621 -4.010000228881836 -0.5
v 4.010000228881836 -4.010000228881836 -0.5
v 4.010000228881836 -4.010000228881836 -0.5199999809265137
v -4.419417381286621 -4.010000228881836 -0.5199999809265137
v 4.419417381286621 -4.419417381286621 -0.5
v -4.419417381286621 -4.419417381286621 -0.5
v -4.419417381286621 -4.419417381286621 -0.5199999809265137
v 4.419417381286621 -4.419417381286621 -0.5199999809265137
v -4.419417381286621 4.010000228881836 -0.5
v -4.419417381286621 4.419417381286621 -0.5
v -4.419417381286621 4.419417381286621 -0.5199999809265137
v -4.419417381286621 4.010000228881836 -0.5199999809265137
v 4.419417381286621 4.419417381286621 -0.5
v 4.419417381286621 -4.419417381286621 -0.5
v 4.419417381286621 -4.419417381286621 -0.5199999809265137
v 4.419417381286621 4.419417381286621 -0.5199999809265137
v 4.010000228881836 4.010000228881836 -0.5
v -4.419417381286621 4.010000228881836 -0.5
v -4.419417381286621 4.010000228881836 -0.5199999809265137
v 4.010000228881836 4.010000228881836 -0.5199999809265137
v -4.419417381286621 4.419417381286621 -0.5
v 4.419417381286621 4.419417381286621 -0.5
v 4.419417381286621 4.419417381286621 -0.5199999809265137
v -4.419417381286621 4.419417381286621 -0.5199999809265137
v -4.419417381286621 -4.419417381286621 -0.5199999809265137
v -4.419417381286621 -4.010000228881836 -0.5199999809265137
v 4.010000228881836 -4.010000228881836 -0.5199999809265137
v 4.010000228881836 4.010000228881836 -0.5199999809265137
v -4.419417381286621 4.010000228881836 -0.5199999809265137
v -4.419417381286621 4.419417381286621 -0.5199999809265137
v 4.419417381286621 4.419417381286621 -0.5199999809265137
v 4.419417381286621 -4.419417381286621 -0.5199999809265137
v 4.010000228881836 -4.010000228881836 -0.5
v 4.010000228881836 4.010000228881836 -0.5
v 4.010000228881836 4.010000228881836 -0.5199999809265137
v 4.010000228881836 -4.010000228881836 -0.5199999809265137
v -4.419417381286621 -4.010000228881836 -0.5
v -4.419417381286621 -4.419417381286621 -0.5
v 4.419417381286621 -4.419417381286621 -0.5
v 4.419417381286621 4.419417381286621 -0.5
v -4.419417381286621 4.419417381286621 -0.5
v -4.419417381286621 4.010000228881836 -0.5
v 4.010000228881836 4.010000228881836 -0.5
v 4.010000228881836 -4.010000228881836 -0.5
vn -0.0 1.0 0.0
vn -0.0 1.0 0.0
vn -0.0 1.0 0.0
vn -0.0 1.0 0.0
vn -0.0 -0.0 1.0
vn -0.0 -0.0 1.0
vn -0.0 -0.0 1.0
vn -0.0 -0.0 1.0
vn -0.0 -0.0 1.0
vn -0.0 -0.0 1.0
vn -0.0 -0.0 1.0
vn -0.0 -0.0 1.0
vn -1.0 0.0 0.0
vn -1.0 0.0 0.0
vn -1.0 0.0 0.0
vn -1.0 0.0 0.0
vn -1.0 -2.0863558632605106e-15 -0.0
vn -1.0 -2.0863558632605106e-15 -0.0
vn -1.0 -2.0863558632605106e-15 -0.0
vn -1.0 -2.0863558632605106e-15 -0.0
vn -1.0 0.0 0.0
vn -1.0 0.0 0.0
vn -1.0 0.0 0.0
vn -1.0 0.0 0.0
vn -0.0 -1.0 -0.0
vn -0.0 -1.0 -0.0
vn -0.0 -1.0 -0.0
vn -0.0 -1.0 -0.0
vn 0.0 0.0 -1.0
vn 0.0 0.0 -1.0
vn 0.0 0.0 -1.0
vn 0.0 0.0 -1.0
vn 0.0 0.0 -1.0
vn 0.0 0.0 -1.0
vn 0.0 0.0 -1.0
vn 0.0 0.0 -1.0
vn 1.0 0.0 0.0
vn 1.0 0.0 0.0
vn 1.0 0.0 0.0
vn 1.0 0.0 0.0
vn -0.0 1.0 0.0
vn -0.0 1.0 0.0
vn -0.0 1.0 0.0
vn -0.0 1.0 0.0
vn -0.0 -1.0 -0.0
vn -0.0 -1.0 -0.0
vn -0.0 -1.0 -0.0
vn -0.0 -1.0 -0.0
vn -1.0 0.0 0.0
vn -1.0 0.0 0.0
vn -1.0 0.0 0.0
vn -1.0 0.0 0.0
vn -0.0 1.0 0.0
vn -0.0 1.0 0.0
vn -0.0 1.0 0.0
vn -0.0 1.0 0.0
vn -0.0 -1.0 -0.0
vn -0.0 -1.0 -0.0
vn -0.0 -1.0 -0.0
vn -0.0 -1.0 -0.0
vn -1.0 -4.338742889677073e-15 -0.0
vn -1.0 -4.338742889677073e-15 -0.0
vn -1.0 -4.338742889677073e-15 -0.0
vn -1.0 -4.338742889677073e-15 -0.0
vn 1.0 0.0 0.0
vn 1.0 0.0 0.0
vn 1.0 0.0 0.0
vn 1.0 0.0 0.0
vn -0.0 -1.0 -0.0
vn -0.0 -1.0 -0.0
vn -0.0 -1.0 -0.0
vn -0.0 -1.0 -0.0
vn -0.0 1.0 0.0
vn -0.0 1.0 0.0
vn -0.0 1.0 0.0
vn -0.0 1.0 0.0
vn 0.0 0.0 -1.0
vn 0.0 0.0 -1.0
vn 0.0 0.0 -1.0
vn 0.0 0.0 -1.0
vn 0.0 0.0 -1.0
vn 0.0 0.0 -1.0
vn 0.0 0.0 -1.0
vn 0.0 0.0 -1.0
vn -1.0 0.0 0.0
vn -1.0 0.0 0.0
vn -1.0 0.0 0.0
vn -1.0 0.0 0.0
vn -0.0 -0.0 1.0
vn -0.0 -0.0 1.0
vn -0.0 -0.0 1.0
vn -0.0 -0.0 1.0
vn -0.0 -0.0 1.0
vn -0.0 -0.0 1.0
vn -0.0 -0.0 1.0
vn -0.0 -0.0 1.0
f 1//1 2//2 4//4
f 4//4 2//2 3//3
f 6//6 7//7 5//5
f 5//5 7//7 8//8
f 5//5 8//8 9//9
f 5//5 9//9 12//12
f 12//12 9//9 10//10
f 12//12 10//10 11//11
f 13//13 14//14 16//16
f 16//16 14//14 15//15
f 17//17 18//18 20//20
f 20//20 18//18 19//19
f 21//21 22//22 24//24
f 24//24 22//22 23//23
f 25//25 26//26 28//28
f 28//28 26//26 27//27
f 29//29 30//30 36//36
f 36//36 30//30 35//35
f 35//35 30//30 31//31
f 35//35 31//31 34//34
f 34//34 31//31 33//33
f 33//33 31//31 32//32
f 37//37 38//38 40//40
f 40//40 38//38 39//39
f 41//41 42//42 44//44
f 44//44 42//42 43//43
f 45//45 46//46 48//48
f 48//48 46//46 47//47
f 49//49 50//50 52//52
f 52//52 50//50 51//51
f 53//53 54//54 56//56
f 56//56 54//54 55//55
f 57//57 58//58 60//60
f 60//60 58//58 59//59
f 61//61 62//62 64//64
f 64//64 62//62 63//63
f 65//65 66//66 68//68
f 68//68 66//66 67//67
f 69//69 70//70 72//72
f 72//72 70//70 71//71
f 73//73 74//74 76//76
f 76//76 74//74 75//75
f 78//78 79//79 77//77
f 77//77 79//79 84//84
f 84//84 79//79 80//80
f 84//84 80//80 83//83
f 83//83 80//80 82//82
f 82//82 80//80 81//81
f 85//85 86//86 88//88
f 88//88 86//86 87//87
f 89//89 90//90 96//96
f 96//96 90//90 91//91
f 96//96 91//91 92//92
f 96//96 92//92 95//95
f 95//95 92//92 93//93
f 95//95 93//93 94//94

# End of file