# WaveFront *.obj file
# Vertices: 204
# Triangles : 184

v 1.1513495445251465 0.0 -5.0
v 0.0 0.0 -5.0
v 0.0 2.0 -5.0
v 1.1513495445251465 2.0 -5.0
v 2.2798094749450684 0.0 -4.651235103607178
v 2.0206055641174316 0.0 -4.801219940185547
v 1.7419124841690063 0.0 -4.910820484161377
v 1.4499787092208862 0.0 -4.977579593658447
v 1.1513495445251465 0.0 -5.0
v 1.1513495445251465 2.0 -5.0
v 1.4499787092208862 2.0 -4.977579593658447
v 1.7419124841690063 2.0 -4.910820484161377
v 2.0206055641174316 2.0 -4.801219940185547
v 2.2798094749450684 2.0 -4.651235103607178
v 16.5526123046875 0.0 -4.651235103607178
v 16.35828399658203 0.0 -4.530872821807861
v 16.160400390625 0.0 -4.432638168334961
v 15.958916664123535 0.0 -4.35557746887207
v 15.753767967224121 0.0 -4.29823637008667
v 15.332230567932129 0.0 -4.23509407043457
v 14.895502090454102 0.0 -4.225985527038574
v 14.443937301635742 0.0 -4.253054141998291
v 13.978979110717773 0.0 -4.301486015319824
v 13.020964622497559 0.0 -4.430797100067139
v 12.051509857177734 0.0 -4.5900373458862305
v 11.095369338989258 0.0 -4.772760391235352
v 10.154744148254395 0.0 -4.93505334854126
v 9.685720443725586 0.0 -4.985108375549316
v 9.215241432189941 0.0 -5.0034027099609375
v 8.743182182312012 0.0 -4.986307144165039
v 8.27160358428955 0.0 -4.9361467361450195
v 7.346442699432373 0.0 -4.771398067474365
v 6.471633434295654 0.0 -4.594658851623535
v 5.648035526275635 0.0 -4.459754467010498
v 4.8301849365234375 0.0 -4.3532328605651855
v 3.9748904705047607 0.0 -4.2705769538879395
v 3.536543369293213 0.0 -4.265374183654785
v 3.101746082305908 0.0 -4.312816143035889
v 2.8887648582458496 0.0 -4.363528251647949
v 2.6802358627319336 0.0 -4.435635566711426
v 2.4770519733428955 0.0 -4.531105041503906
v 2.2798094749450684 0.0 -4.651235103607178
v 2.2798094749450684 2.0 -4.651235103607178
v 2.4770519733428955 2.0 -4.531105041503906
v 2.6802358627319336 2.0 -4.435635566711426
v 2.8887648582458496 2.0 -4.363528251647949
v 3.101746082305908 2.0 -4.312816143035889
v 3.536543369293213 2.0 -4.265374183654785
v 3.9748904705047607 2.0 -4.2705769538879395
v 4.8301849365234375 2.0 -4.3532328605651855
v 5.648035526275635 2.0 -4.459754467010498
v 6.471633434295654 2.0 -4.594658851623535
v 7.346442699432373 2.0 -4.771398067474365
v 8.27160358428955 2.0 -4.9361467361450195
v 8.743182182312012 2.0 -4.986307144165039
v 9.215241432189941 2.0 -5.0034027099609375
v 9.685720443725586 2.0 -4.985108375549316
v 10.154744148254395 2.0 -4.93505334854126
v 11.095369338989258 2.0 -4.772760391235352
v 12.051509857177734 2.0 -4.5900373458862305
v 13.020964622497559 2.0 -4.430797100067139
v 13.978979110717773 2.0 -4.301486015319824
v 14.443937301635742 2.0 -4.253054141998291
v 14.895502090454102 2.0 -4.225985527038574
v 15.332230567932129 2.0 -4.23509407043457
v 15.753767967224121 2.0 -4.29823637008667
v 15.958916664123535 2.0 -4.35557746887207
v 16.160400390625 2.0 -4.432638168334961
v 16.35828399658203 2.0 -4.530872821807861
v 16.5526123046875 2.0 -4.651235103607178
v 17.681072235107422 0.0 -5.0
v 17.382442474365234 0.0 -4.977579593658447
v 17.09050750732422 0.0 -4.910820484161377
v 16.81181526184082 0.0 -4.801219940185547
v 16.5526123046875 0.0 -4.651235103607178
v 16.5526123046875 2.0 -4.651235103607178
v 16.81181526184082 2.0 -4.801219940185547
v 17.09050750732422 2.0 -4.910820484161377
v 17.382442474365234 2.0 -4.977579593658447
v 17.681072235107422 2.0 -5.0
v 18.0 0.0 -5.0
v 17.681072235107422 0.0 -5.0
v 17.681072235107422 2.0 -5.0
v 18.0 2.0 -5.0
v 18.0 0.0 1.9721051211893148e-16
v 18.0 0.0 -5.0
v 18.0 2.0 -5.0
v 18.0 2.0 0.0
v 0.0 0.0 0.0
v 2.1959002017974854 0.0 0.1918039619922638
v 4.40572452545166 0.0 0.33424243330955505
v 6.630709648132324 0.0 0.422929048538208
v 8.872282028198242 0.0 0.45280805230140686
v 11.13106918334961 0.0 0.4216529428958893
v 13.406248092651367 0.0 0.3323848843574524
v 15.696310043334961 0.0 0.1903524100780487
v 18.0 0.0 1.9721051211893148e-16
v 18.0 2.0 0.0
v 15.696310043334961 2.0 0.1903524100780487
v 13.406248092651367 2.0 0.3323848843574524
v 11.13106918334961 2.0 0.4216529428958893
v 8.872282028198242 2.0 0.45280805230140686
v 6.630709648132324 2.0 0.422929048538208
v 4.40572452545166 2.0 0.33424243330955505
v 2.1959002017974854 2.0 0.1918039619922638
v 0.0 2.0 0.0
v 0.0 0.0 -5.0
v 0.0 0.0 0.0
v 0.0 2.0 0.0
v 0.0 2.0 -5.0
v 0.0 2.0 -5.0
v 0.0 2.0 0.0
v 2.1959002017974854 2.0 0.1918039619922638
v 4.40572452545166 2.0 0.33424243330955505
v 6.630709648132324 2.0 0.422929048538208
v 8.872282028198242 2.0 0.45280805230140686
v 11.13106918334961 2.0 0.4216529428958893
v 13.406248092651367 2.0 0.3323848843574524
v 15.696310043334961 2.0 0.1903524100780487
v 18.0 2.0 0.0
v 18.0 2.0 -5.0
v 17.681072235107422 2.0 -5.0
v 17.382442474365234 2.0 -4.977579593658447
v 17.09050750732422 2.0 -4.910820484161377
v 16.81181526184082 2.0 -4.801219940185547
v 16.5526123046875 2.0 -4.651235103607178
v 16.35828399658203 2.0 -4.530872821807861
v 16.160400390625 2.0 -4.432638168334961
v 15.958916664123535 2.0 -4.35557746887207
v 15.753767967224121 2.0 -4.29823637008667
v 15.332230567932129 2.0 -4.23509407043457
v 14.895502090454102 2.0 -4.225985527038574
v 14.443937301635742 2.0 -4.253054141998291
v 13.978979110717773 2.0 -4.301486015319824
v 13.020964622497559 2.0 -4.430797100067139
v 12.051509857177734 2.0 -4.5900373458862305
v 11.095369338989258 2.0 -4.772760391235352
v 10.154744148254395 2.0 -4.93505334854126
v 9.685720443725586 2.0 -4.985108375549316
v 9.215241432189941 2.0 -5.0034027099609375
v 8.743182182312012 2.0 -4.986307144165039
v 8.27160358428955 2.0 -4.9361467361450195
v 7.346442699432373 2.0 -4.771398067474365
v 6.471633434295654 2.0 -4.594658851623535
v 5.648035526275635 2.0 -4.459754467010498
v 4.8301849365234375 2.0 -4.3532328605651855
v 3.9748904705047607 2.0 -4.2705769538879395
v 3.536543369293213 2.0 -4.265374183654785
v 3.101746082305908 2.0 -4.312816143035889
v 2.8887648582458496 2.0 -4.363528251647949
v 2.6802358627319336 2.0 -4.435635566711426
v 2.4770519733428955 2.0 -4.531105041503906
v 2.2798094749450684 2.0 -4.651235103607178
v 2.0206055641174316 2.0 -4.801219940185547
v 1.7419124841690063 2.0 -4.910820484161377
v 1.4499787092208862 2.0 -4.977579593658447
v 1.1513495445251465 2.0 -5.0
v 0.0 0.0 0.0
v 0.0 0.0 -5.0
v 1.1513495445251465 0.0 -5.0
v 1.4499787092208862 0.0 -4.977579593658447
v 1.7419124841690063 0.0 -4.910820484161377
v 2.0206055641174316 0.0 -4.801219940185547
v 2.2798094749450684 0.0 -4.651235103607178
v 2.4770519733428955 0.0 -4.531105041503906
v 2.6802358627319336 0.0 -4.435635566711426
v 2.8887648582458496 0.0 -4.363528251647949
v 3.101746082305908 0.0 -4.312816143035889
v 3.536543369293213 0.0 -4.265374183654785
v 3.9748904705047607 0.0 -4.2705769538879395
v 4.8301849365234375 0.0 -4.3532328605651855
v 5.648035526275635 0.0 -4.459754467010498
v 6.471633434295654 0.0 -4.594658851623535
v 7.346442699432373 0.0 -4.771398067474365
v 8.27160358428955 0.0 -4.9361467361450195
v 8.743182182312012 0.0 -4.986307144165039
v 9.215241432189941 0.0 -5.0034027099609375
v 9.685720443725586 0.0 -4.985108375549316
v 10.154744148254395 0.0 -4.93505334854126
v 11.095369338989258 0.0 -4.772760391235352
v 12.051509857177734 0.0 -4.5900373458862305
v 13.020964622497559 0.0 -4.430797100067139
v 13.978979110717773 0.0 -4.301486015319824
v 14.443937301635742 0.0 -4.253054141998291
v 14.895502090454102 0.0 -4.225985527038574
v 15.332230567932129 0.0 -4.23509407043457
v 15.753767967224121 0.0 -4.29823637008667
v 15.958916664123535 0.0 -4.35557746887207
v 16.160400390625 0.0 -4.432638168334961
v 16.35828399658203 0.0 -4.530872821807861
v 16.5526123046875 0.0 -4.651235103607178
v 16.81181526184082 0.0 -4.801219940185547
v 17.09050750732422 0.0 -4.910820484161377
v 17.382442474365234 0.0 -4.977579593658447
v 17.681072235107422 0.0 -5.0
v 18.0 0.0 -5.0
v 18.0 0.0 1.9721051211893148e-16
v 15.696310043334961 0.0 0.1903524100780487
v 13.406248092651367 0.0 0.3323848843574524
v 11.13106918334961 0.0 0.4216529428958893
v 8.872282028198242 0.0 0.45280805230140686
v 6.630709648132324 0.0 0.422929048538208
v 4.40572452545166 0.0 0.33424243330955505
v 2.1959002017974854 0.0 0.1918039619922638
vn 1.8514171722409586e-14 0.0 -1.0
vn 1.8514171722409586e-14 0.0 -1.0
vn 1.8514171722409586e-14 0.0 -1.0
vn 1.8514171722409586e-14 0.0 -1.0
vn 0.5642299652099609 -0.0 -0.8256176710128784
vn 0.43462803959846497 -0.0 -0.9006100296974182
vn 0.2952814996242523 -0.0 -0.9554103016853333
vn 0.14931461215019226 -0.0 -0.9887897372245789
vn -4.996003610813204e-16 0.0 -1.0
vn -4.996003610813204e-16 0.0 -1.0
vn 0.14931461215019226 -0.0 -0.9887897372245789
vn 0.2952814996242523 -0.0 -0.9554103016853333
vn 0.43462803959846497 -0.0 -0.9006100296974182
vn 0.5642299652099609 -0.0 -0.8256176710128784
vn -0.5642299652099609 0.0 -0.8256176710128784
vn -0.48647022247314453 0.0 -0.8736971616744995
vn -0.40114977955818176 0.0 -0.9160124659538269
vn -0.3126695156097412 0.0 -0.949862003326416
vn -0.22619107365608215 0.0 -0.9740829467773438
vn -0.07685612887144089 0.0 -0.997042179107666
vn 0.02659759484231472 0.0 -0.9996462464332581
vn 0.08645439147949219 0.0 -0.9962558150291443
vn 0.11716603487730026 0.0 -0.993112325668335
vn 0.14761720597743988 0.0 -0.9890445470809937
vn 0.17723269760608673 0.0 -0.9841689467430115
vn 0.19084148108959198 0.0 -0.9816208481788635
vn 0.13440173864364624 0.0 -0.9909269213676453
vn 0.07475672662258148 0.0 -0.9972018003463745
vn 0.001572596374899149 0.0 -0.9999987483024597
vn -0.07292083650827408 0.0 -0.9973377585411072
vn -0.1357646882534027 0.0 -0.9907411336898804
vn -0.20049503445625305 0.0 -0.9796947240829468
vn -0.1843126118183136 0.0 -0.9828676581382751
vn -0.14084570109844208 0.0 -0.9900315403938293
vn -0.11962415277957916 0.0 -0.9928192496299744
vn -0.054094914346933365 0.0 -0.9985358119010925
vn 0.0391070581972599 0.0 -0.9992350339889526
vn 0.18658189475536346 0.0 -0.982439398765564
vn 0.2779628336429596 0.0 -0.9605918526649475
vn 0.37571948766708374 0.0 -0.9267334342002869
vn 0.4734271764755249 0.0 -0.8808329701423645
vn 0.5642299652099609 0.0 -0.8256176710128784
vn 0.5642299652099609 0.0 -0.8256176710128784
vn 0.4734271764755249 0.0 -0.8808329701423645
vn 0.37571948766708374 0.0 -0.9267334342002869
vn 0.2779628336429596 0.0 -0.9605918526649475
vn 0.18658189475536346 0.0 -0.982439398765564
vn 0.0391070581972599 0.0 -0.9992350339889526
vn -0.054094914346933365 0.0 -0.9985358119010925
vn -0.11962415277957916 0.0 -0.9928192496299744
vn -0.14084570109844208 0.0 -0.9900315403938293
vn -0.1843126118183136 0.0 -0.9828676581382751
vn -0.20049503445625305 0.0 -0.9796947240829468
vn -0.1357646882534027 0.0 -0.9907411336898804
vn -0.07292083650827408 0.0 -0.9973377585411072
vn 0.001572596374899149 0.0 -0.9999987483024597
vn 0.07475672662258148 0.0 -0.9972018003463745
vn 0.13440173864364624 0.0 -0.9909269213676453
vn 0.19084148108959198 0.0 -0.9816208481788635
vn 0.17723269760608673 0.0 -0.9841689467430115
vn 0.14761720597743988 0.0 -0.9890445470809937
vn 0.11716603487730026 0.0 -0.993112325668335
vn 0.08645439147949219 0.0 -0.9962558150291443
vn 0.02659759484231472 0.0 -0.9996462464332581
vn -0.07685612887144089 0.0 -0.997042179107666
vn -0.22619107365608215 0.0 -0.9740829467773438
vn -0.3126695156097412 0.0 -0.949862003326416
vn -0.40114977955818176 0.0 -0.9160124659538269
vn -0.48647022247314453 0.0 -0.8736971616744995
vn -0.5642299652099609 0.0 -0.8256176710128784
vn -0.0 0.0 -1.0
vn -0.14931461215019226 0.0 -0.9887897372245789
vn -0.2952814996242523 0.0 -0.9554103016853333
vn -0.43462803959846497 0.0 -0.9006100296974182
vn -0.5642299652099609 0.0 -0.8256176710128784
vn -0.5642299652099609 0.0 -0.8256176710128784
vn -0.43462803959846497 0.0 -0.9006100296974182
vn -0.2952814996242523 0.0 -0.9554103016853333
vn -0.14931461215019226 0.0 -0.9887897372245789
vn -0.0 0.0 -1.0
vn 0.0 0.0 -1.0
vn 0.0 0.0 -1.0
vn 0.0 0.0 -1.0
vn 0.0 0.0 -1.0
vn 1.0 -0.0 0.0
vn 1.0 -0.0 0.0
vn 1.0 -0.0 0.0
vn 1.0 -0.0 0.0
vn -0.09803023934364319 0.0 0.9951834082603455
vn -0.07590119540691376 0.0 0.9971153140068054
vn -0.052445944398641586 0.0 0.998623788356781
vn -0.026871882379055023 0.0 0.9996389150619507
vn 0.0003148919204249978 -0.0 0.9999999403953552
vn 0.026912132278084755 -0.0 0.9996377825737
vn 0.05098854377865791 -0.0 0.9986992478370667
vn 0.07239960879087448 -0.0 0.9973757266998291
vn 0.09209588915109634 -0.0 0.9957501292228699
vn 0.09209588915109634 -0.0 0.9957501292228699
vn 0.07239960879087448 -0.0 0.9973757266998291
vn 0.05098854377865791 -0.0 0.9986992478370667
vn 0.026912132278084755 -0.0 0.9996377825737
vn 0.0003148919204249978 -0.0 0.9999999403953552
vn -0.026871882379055023 0.0 0.9996389150619507
vn -0.052445944398641586 0.0 0.998623788356781
vn -0.07590119540691376 0.0 0.9971153140068054
vn -0.09803023934364319 0.0 0.9951834082603455
vn -1.0 0.0 0.0
vn -1.0 0.0 0.0
vn -1.0 0.0 0.0
vn -1.0 0.0 0.0
vn 0.0 1.0 0.0
vn 0.0 1.0 0.0
vn 0.0 1.0 0.0
vn 0.0 1.0 0.0
vn 0.0 1.0 0.0
vn 0.0 1.0 0.0
vn 0.0 1.0 0.0
vn 0.0 1.0 0.0
vn 0.0 1.0 0.0
vn 0.0 1.0 0.0
vn 0.0 1.0 0.0
vn 0.0 1.0 0.0
vn 0.0 1.0 0.0
vn 0.0 1.0 0.0
vn 0.0 1.0 0.0
vn 0.0 1.0 0.0
vn 0.0 1.0 0.0
vn 0.0 1.0 0.0
vn 0.0 1.0 0.0
vn 0.0 1.0 0.0
vn 0.0 1.0 0.0
vn 0.0 1.0 0.0
vn 0.0 1.0 0.0
vn 0.0 1.0 0.0
vn 0.0 1.0 0.0
vn 0.0 1.0 0.0
vn 0.0 1.0 0.0
vn 0.0 1.0 0.0
vn 0.0 1.0 0.0
vn 0.0 1.0 0.0
vn 0.0 1.0 0.0
vn 0.0 1.0 0.0
vn 0.0 1.0 0.0
vn 0.0 1.0 0.0
vn 0.0 1.0 0.0
vn 0.0 1.0 0.0
vn 0.0 1.0 0.0
vn 0.0 1.0 0.0
vn 0.0 1.0 0.0
vn 0.0 1.0 0.0
vn 0.0 1.0 0.0
vn 0.0 1.0 0.0
vn 0.0 1.0 0.0
vn 0.0 1.0 0.0
vn 0.0 1.0 0.0
vn 0.0 1.0 0.0
vn 0.0 1.0 0.0
vn -0.0 -1.0 -0.0
vn -0.0 -1.0 -0.0
vn -0.0 -1.0 -0.0
vn -0.0 -1.0 -0.0
vn -0.0 -1.0 -0.0
vn -0.0 -1.0 -0.0
vn -0.0 -1.0 -0.0
vn -0.0 -1.0 -0.0
vn -0.0 -1.0 -0.0
vn -0.0 -1.0 -0.0
vn -0.0 -1.0 -0.0
vn -0.0 -1.0 -0.0
vn -0.0 -1.0 -0.0
vn -0.0 -1.0 -0.0
vn -0.0 -1.0 -0.0
vn -0.0 -1.0 -0.0
vn -0.0 -1.0 -0.0
vn -0.0 -1.0 -0.0
vn -0.0 -1.0 -0.0
vn -0.0 -1.0 -0.0
vn -0.0 -1.0 -0.0
vn -0.0 -1.0 -0.0
vn -0.0 -1.0 -0.0
vn -0.0 -1.0 -0.0
vn -0.0 -1.0 -0.0
vn -0.0 -1.0 -0.0
vn -0.0 -1.0 -0.0
vn -0.0 -1.0 -0.0
vn -0.0 -1.0 -0.0
vn -0.0 -1.0 -0.0
vn -0.0 -1.0 -0.0
vn -0.0 -1.0 -0.0
vn -0.0 -1.0 -0.0
vn -0.0 -1.0 -0.0
vn -0.0 -1.0 -0.0
vn -0.0 -1.0 -0.0
vn -0.0 -1.0 -0.0
vn -0.0 -1.0 -0.0
vn -0.0 -1.0 -0.0
vn -0.0 -1.0 -0.0
vn -0.0 -1.0 -0.0
vn -0.0 -1.0 -0.0
vn -0.0 -1.0 -0.0
vn -0.0 -1.0 -0.0
vn -0.0 -1.0 -0.0
vn -0.0 -1.0 -0.0
vn -0.0 -1.0 -0.0
g 6d561aae-e355-11ea-b5d7-54bf646e7e1f
f 1//1 2//2 4//4
f 4//4 2//2 3//3
g 6d5668c6-e355-11ea-a452-54bf646e7e1f
f 14//14 5//5 13//13
f 13//13 5//5 6//6
f 13//13 6//6 12//12
f 12//12 6//6 7//7
f 12//12 7//7 11//11
f 11//11 7//7 8//8
f 11//11 8//8 10//10
f 10//10 8//8 9//9
g 6d568fde-e355-11ea-b5f0-54bf646e7e1f
f 15//15 16//16 70//70
f 70//70 16//16 69//69
f 69//69 16//16 17//17
f 69//69 17//17 68//68
f 68//68 17//17 18//18
f 68//68 18//18 67//67
f 67//67 18//18 19//19
f 67//67 19//19 66//66
f 66//66 19//19 20//20
f 66//66 20//20 65//65
f 65//65 20//20 21//21
f 65//65 21//21 64//64
f 64//64 21//21 22//22
f 64//64 22//22 63//63
f 63//63 22//22 23//23
f 63//63 23//23 62//62
f 62//62 23//23 24//24
f 62//62 24//24 61//61
f 61//61 24//24 25//25
f 61//61 25//25 60//60
f 60//60 25//25 26//26
f 60//60 26//26 59//59
f 59//59 26//26 27//27
f 59//59 27//27 58//58
f 58//58 27//27 28//28
f 58//58 28//28 57//57
f 57//57 28//28 29//29
f 57//57 29//29 56//56
f 56//56 29//29 30//30
f 56//56 30//30 55//55
f 55//55 30//30 31//31
f 55//55 31//31 54//54
f 54//54 31//31 32//32
f 54//54 32//32 53//53
f 53//53 32//32 33//33
f 53//53 33//33 52//52
f 52//52 33//33 34//34
f 52//52 34//34 51//51
f 51//51 34//34 35//35
f 51//51 35//35 50//50
f 50//50 35//35 36//36
f 50//50 36//36 49//49
f 49//49 36//36 37//37
f 49//49 37//37 48//48
f 48//48 37//37 38//38
f 48//48 38//38 47//47
f 47//47 38//38 39//39
f 47//47 39//39 46//46
f 46//46 39//39 40//40
f 46//46 40//40 45//45
f 45//45 40//40 41//41
f 45//45 41//41 44//44
f 44//44 41//41 42//42
f 44//44 42//42 43//43
g 6d570500-e355-11ea-9377-54bf646e7e1f
f 80//80 71//71 79//79
f 79//79 71//71 72//72
f 79//79 72//72 78//78
f 78//78 72//72 73//73
f 78//78 73//73 77//77
f 77//77 73//73 74//74
f 77//77 74//74 76//76
f 76//76 74//74 75//75
g 6d575322-e355-11ea-842b-54bf646e7e1f
f 81//81 82//82 84//84
f 84//84 82//82 83//83
g 6d57a146-e355-11ea-a9a8-54bf646e7e1f
f 85//85 86//86 88//88
f 88//88 86//86 87//87
g 6d57ef5e-e355-11ea-9c4a-54bf646e7e1f
f 89//89 90//90 106//106
f 106//106 90//90 105//105
f 105//105 90//90 91//91
f 105//105 91//91 104//104
f 104//104 91//91 92//92
f 104//104 92//92 103//103
f 103//103 92//92 93//93
f 103//103 93//93 102//102
f 102//102 93//93 94//94
f 102//102 94//94 101//101
f 101//101 94//94 95//95
f 101//101 95//95 100//100
f 100//100 95//95 96//96
f 100//100 96//96 99//99
f 99//99 96//96 97//97
f 99//99 97//97 98//98
g 6d586494-e355-11ea-b414-54bf646e7e1f
f 107//107 108//108 110//110
f 110//110 108//108 109//109
g 6d58b2b4-e355-11ea-8d9b-54bf646e7e1f
f 112//112 150//150 111//111
f 111//111 150//150 151//151
f 111//111 151//151 152//152
f 113//113 148//148 112//112
f 112//112 148//148 149//149
f 112//112 149//149 150//150
f 148//148 113//113 147//147
f 147//147 113//113 114//114
f 147//147 114//114 115//115
f 147//147 115//115 146//146
f 146//146 115//115 116//116
f 146//146 116//116 145//145
f 145//145 116//116 135//135
f 145//145 135//135 144//144
f 144//144 135//135 136//136
f 144//144 136//136 143//143
f 143//143 136//136 137//137
f 143//143 137//137 138//138
f 116//116 117//117 135//135
f 135//135 117//117 134//134
f 134//134 117//117 118//118
f 134//134 118//118 133//133
f 133//133 118//118 119//119
f 133//133 119//119 132//132
f 132//132 119//119 120//120
f 132//132 120//120 131//131
f 131//131 120//120 130//130
f 130//130 120//120 129//129
f 129//129 120//120 128//128
f 128//128 120//120 121//121
f 128//128 121//121 127//127
f 127//127 121//121 126//126
f 126//126 121//121 125//125
f 125//125 121//121 122//122
f 125//125 122//122 124//124
f 124//124 122//122 123//123
f 143//143 138//138 142//142
f 142//142 138//138 139//139
f 142//142 139//139 141//141
f 141//141 139//139 140//140
f 152//152 153//153 111//111
f 111//111 153//153 154//154
f 111//111 154//154 157//157
f 157//157 154//154 155//155
f 157//157 155//155 156//156
g 6d5900b8-e355-11ea-97ec-54bf646e7e1f
f 159//159 167//167 158//158
f 158//158 167//167 168//168
f 158//158 168//168 169//169
f 160//160 163//163 159//159
f 159//159 163//163 164//164
f 159//159 164//164 165//165
f 161//161 162//162 160//160
f 160//160 162//162 163//163
f 165//165 166//166 159//159
f 159//159 166//166 167//167
f 158//158 169//169 204//204
f 204//204 169//169 170//170
f 204//204 170//170 203//203
f 203//203 170//170 202//202
f 202//202 170//170 171//171
f 202//202 171//171 201//201
f 201//201 171//171 172//172
f 201//201 172//172 182//182
f 182//182 172//172 173//173
f 182//182 173//173 181//181
f 181//181 173//173 174//174
f 181//181 174//174 180//180
f 180//180 174//174 179//179
f 179//179 174//174 175//175
f 179//179 175//175 178//178
f 178//178 175//175 176//176
f 178//178 176//176 177//177
f 201//201 182//182 200//200
f 200//200 182//182 183//183
f 200//200 183//183 199//199
f 199//199 183//183 184//184
f 199//199 184//184 198//198
f 198//198 184//184 185//185
f 198//198 185//185 197//197
f 197//197 185//185 186//186
f 197//197 186//186 187//187
f 187//187 188//188 197//197
f 197//197 188//188 189//189
f 197//197 189//189 196//196
f 196//196 189//189 190//190
f 196//196 190//190 191//191
f 191//191 192//192 196//196
f 196//196 192//192 195//195
f 195//195 192//192 193//193
f 195//195 193//193 194//194

# End of file