# WaveFront *.obj file
# Vertices: 164
# Triangles : 160

v -0.17499999701976776 5.0 -1.8827500343322754
v -0.16551801562309265 5.0 -1.8259276151657104
v -0.13809959590435028 5.0 -1.7752628326416016
v -0.09571592509746552 5.0 -1.73624587059021
v -0.04295996204018593 5.0 -1.7131049633026123
v 0.014451385475695133 5.0 -1.7083476781845093
v 0.07029669731855392 5.0 -1.7224897146224976
v 0.11852427572011948 5.0 -1.7539982795715332
v 0.153907909989357 5.0 -1.7994592189788818
v 0.1726132333278656 5.0 -1.8539459705352783
v 0.1726132333278656 5.0 -1.9115540981292725
v 0.153907909989357 5.0 -1.966040849685669
v 0.11852427572011948 5.0 -2.0115017890930176
v 0.07029669731855392 5.0 -2.0430102348327637
v 0.014451385475695133 5.0 -2.057152271270752
v -0.04295996204018593 5.0 -2.0523951053619385
v -0.09571592509746552 5.0 -2.029254198074341
v -0.13809959590435028 5.0 -1.9902372360229492
v -0.16551801562309265 5.0 -1.9395724534988403
v -0.17499999701976776 0.0 -1.8827500343322754
v -0.16551801562309265 0.0 -1.9395724534988403
v -0.13809959590435028 0.0 -1.9902372360229492
v -0.09571592509746552 0.0 -2.029254198074341
v -0.04295996204018593 0.0 -2.0523951053619385
v 0.014451385475695133 0.0 -2.057152271270752
v 0.07029669731855392 0.0 -2.0430102348327637
v 0.11852427572011948 0.0 -2.0115017890930176
v 0.153907909989357 0.0 -1.966040849685669
v 0.1726132333278656 0.0 -1.9115540981292725
v 0.1726132333278656 0.0 -1.8539459705352783
v 0.153907909989357 0.0 -1.7994592189788818
v 0.11852427572011948 0.0 -1.7539982795715332
v 0.07029669731855392 0.0 -1.7224897146224976
v 0.014451385475695133 0.0 -1.7083476781845093
v -0.04295996204018593 0.0 -1.7131049633026123
v -0.09571592509746552 0.0 -1.73624587059021
v -0.13809959590435028 0.0 -1.7752628326416016
v -0.16551801562309265 0.0 -1.8259276151657104
v -0.17499999701976776 5.0 -1.8827500343322754
v -0.17499999701976776 0.0 -1.8827500343322754
v -0.17499999701976776 0.0 -1.8827500343322754
v -0.16551801562309265 0.0 -1.8259276151657104
v -0.13809959590435028 0.0 -1.7752628326416016
v -0.09571592509746552 0.0 -1.73624587059021
v -0.04295996204018593 0.0 -1.7131049633026123
v 0.014451385475695133 0.0 -1.7083476781845093
v 0.07029669731855392 0.0 -1.7224897146224976
v 0.11852427572011948 0.0 -1.7539982795715332
v 0.153907909989357 0.0 -1.7994592189788818
v 0.1726132333278656 0.0 -1.8539459705352783
v 0.1726132333278656 0.0 -1.9115540981292725
v 0.153907909989357 0.0 -1.966040849685669
v 0.11852427572011948 0.0 -2.0115017890930176
v 0.07029669731855392 0.0 -2.0430102348327637
v 0.014451385475695133 0.0 -2.057152271270752
v -0.04295996204018593 0.0 -2.0523951053619385
v -0.09571592509746552 0.0 -2.029254198074341
v -0.13809959590435028 0.0 -1.9902372360229492
v -0.16551801562309265 0.0 -1.9395724534988403
v -0.20000000298023224 0.0 -1.8827500343322754
v -0.19111455976963043 0.0 -1.941701054573059
v -0.16524775326251984 0.0 -1.9954140186309814
v -0.1246979609131813 0.0 -2.039116382598877
v -0.07306820154190063 0.0 -2.06892466545105
v -0.01494601834565401 0.0 -2.082190752029419
v 0.04450418800115585 0.0 -2.077735662460327
v 0.10000000149011612 0.0 -2.055955171585083
v 0.14661037921905518 0.0 -2.018784523010254
v 0.18019376695156097 0.0 -1.969526767730713
v 0.19776616990566254 0.0 -1.9125584363937378
v 0.19776616990566254 0.0 -1.8529415130615234
v 0.18019376695156097 0.0 -1.795973300933838
v 0.14661037921905518 0.0 -1.7467154264450073
v 0.10000000149011612 0.0 -1.7095448970794678
v 0.04450418800115585 0.0 -1.6877644062042236
v -0.01494601834565401 0.0 -1.6833091974258423
v -0.07306820154190063 0.0 -1.6965752840042114
v -0.1246979609131813 0.0 -1.7263836860656738
v -0.16524775326251984 0.0 -1.7700859308242798
v -0.19111455976963043 0.0 -1.8237990140914917
v -0.20000000298023224 5.0 -1.8827500343322754
v -0.19111455976963043 5.0 -1.941701054573059
v -0.16524775326251984 5.0 -1.9954140186309814
v -0.1246979609131813 5.0 -2.039116382598877
v -0.07306820154190063 5.0 -2.06892466545105
v -0.01494601834565401 5.0 -2.082190752029419
v 0.04450418800115585 5.0 -2.077735662460327
v 0.10000000149011612 5.0 -2.055955171585083
v 0.14661037921905518 5.0 -2.018784523010254
v 0.18019376695156097 5.0 -1.969526767730713
v 0.19776616990566254 5.0 -1.9125584363937378
v 0.19776616990566254 5.0 -1.8529415130615234
v 0.18019376695156097 5.0 -1.795973300933838
v 0.14661037921905518 5.0 -1.7467154264450073
v 0.10000000149011612 5.0 -1.7095448970794678
v 0.04450418800115585 5.0 -1.6877644062042236
v -0.01494601834565401 5.0 -1.6833091974258423
v -0.07306820154190063 5.0 -1.6965752840042114
v -0.1246979609131813 5.0 -1.7263836860656738
v -0.16524775326251984 5.0 -1.7700859308242798
v -0.19111455976963043 5.0 -1.8237990140914917
v -0.20000000298023224 0.0 -1.8827500343322754
v -0.19111455976963043 0.0 -1.8237990140914917
v -0.16524775326251984 0.0 -1.7700859308242798
v -0.1246979609131813 0.0 -1.7263836860656738
v -0.07306820154190063 0.0 -1.6965752840042114
v -0.01494601834565401 0.0 -1.6833091974258423
v 0.04450418800115585 0.0 -1.6877644062042236
v 0.10000000149011612 0.0 -1.7095448970794678
v 0.14661037921905518 0.0 -1.7467154264450073
v 0.18019376695156097 0.0 -1.795973300933838
v 0.19776616990566254 0.0 -1.8529415130615234
v 0.19776616990566254 0.0 -1.9125584363937378
v 0.18019376695156097 0.0 -1.969526767730713
v 0.14661037921905518 0.0 -2.018784523010254
v 0.10000000149011612 0.0 -2.055955171585083
v 0.04450418800115585 0.0 -2.077735662460327
v -0.01494601834565401 0.0 -2.082190752029419
v -0.07306820154190063 0.0 -2.06892466545105
v -0.1246979609131813 0.0 -2.039116382598877
v -0.16524775326251984 0.0 -1.9954140186309814
v -0.19111455976963043 0.0 -1.941701054573059
v -0.20000000298023224 0.0 -1.8827500343322754
v -0.20000000298023224 5.0 -1.8827500343322754
v -0.17499999701976776 5.0 -1.8827500343322754
v -0.16551801562309265 5.0 -1.9395724534988403
v -0.13809959590435028 5.0 -1.9902372360229492
v -0.09571592509746552 5.0 -2.029254198074341
v -0.04295996204018593 5.0 -2.0523951053619385
v 0.014451385475695133 5.0 -2.057152271270752
v 0.07029669731855392 5.0 -2.0430102348327637
v 0.11852427572011948 5.0 -2.0115017890930176
v 0.153907909989357 5.0 -1.966040849685669
v 0.1726132333278656 5.0 -1.9115540981292725
v 0.1726132333278656 5.0 -1.8539459705352783
v 0.153907909989357 5.0 -1.7994592189788818
v 0.11852427572011948 5.0 -1.7539982795715332
v 0.07029669731855392 5.0 -1.7224897146224976
v 0.014451385475695133 5.0 -1.7083476781845093
v -0.04295996204018593 5.0 -1.7131049633026123
v -0.09571592509746552 5.0 -1.73624587059021
v -0.13809959590435028 5.0 -1.7752628326416016
v -0.16551801562309265 5.0 -1.8259276151657104
v -0.20000000298023224 5.0 -1.8827500343322754
v -0.19111455976963043 5.0 -1.8237990140914917
v -0.16524775326251984 5.0 -1.7700859308242798
v -0.1246979609131813 5.0 -1.7263836860656738
v -0.07306820154190063 5.0 -1.6965752840042114
v -0.01494601834565401 5.0 -1.6833091974258423
v 0.04450418800115585 5.0 -1.6877644062042236
v 0.10000000149011612 5.0 -1.7095448970794678
v 0.14661037921905518 5.0 -1.7467154264450073
v 0.18019376695156097 5.0 -1.795973300933838
v 0.19776616990566254 5.0 -1.8529415130615234
v 0.19776616990566254 5.0 -1.9125584363937378
v 0.18019376695156097 5.0 -1.969526767730713
v 0.14661037921905518 5.0 -2.018784523010254
v 0.10000000149011612 5.0 -2.055955171585083
v 0.04450418800115585 5.0 -2.077735662460327
v -0.01494601834565401 5.0 -2.082190752029419
v -0.07306820154190063 5.0 -2.06892466545105
v -0.1246979609131813 5.0 -2.039116382598877
v -0.16524775326251984 5.0 -1.9954140186309814
v -0.19111455976963043 5.0 -1.941701054573059
vn 1.0 0.0 -1.2246468525851679e-16
vn 0.945817232131958 0.0 -0.3246994614601135
vn 0.789140522480011 0.0 -0.614212691783905
vn 0.5469481348991394 0.0 -0.8371664881706238
vn 0.24548548460006714 0.0 -0.9694002866744995
vn -0.0825793445110321 0.0 -0.9965844750404358
vn -0.4016954302787781 0.0 -0.915773332118988
vn -0.6772815585136414 0.0 -0.7357239127159119
vn -0.8794737458229065 0.0 -0.47594738006591797
vn -0.9863613247871399 0.0 -0.1645945906639099
vn -0.9863613247871399 0.0 0.1645945906639099
vn -0.8794737458229065 0.0 0.47594738006591797
vn -0.6772815585136414 0.0 0.7357239127159119
vn -0.4016954302787781 0.0 0.915773332118988
vn -0.0825793445110321 0.0 0.9965844750404358
vn 0.24548548460006714 -0.0 0.9694002866744995
vn 0.5469481348991394 -0.0 0.8371664881706238
vn 0.789140522480011 -0.0 0.614212691783905
vn 0.945817232131958 -0.0 0.3246994614601135
vn 1.0 -0.0 1.2246468525851679e-16
vn 0.945817232131958 -0.0 0.3246994614601135
vn 0.789140522480011 -0.0 0.614212691783905
vn 0.5469481348991394 -0.0 0.8371664881706238
vn 0.24548548460006714 -0.0 0.9694002866744995
vn -0.0825793445110321 0.0 0.9965844750404358
vn -0.4016954302787781 0.0 0.915773332118988
vn -0.6772815585136414 0.0 0.7357239127159119
vn -0.8794737458229065 0.0 0.47594738006591797
vn -0.9863613247871399 0.0 0.1645945906639099
vn -0.9863613247871399 0.0 -0.1645945906639099
vn -0.8794737458229065 0.0 -0.47594738006591797
vn -0.6772815585136414 0.0 -0.7357239127159119
vn -0.4016954302787781 0.0 -0.915773332118988
vn -0.0825793445110321 0.0 -0.9965844750404358
vn 0.24548548460006714 0.0 -0.9694002866744995
vn 0.5469481348991394 0.0 -0.8371664881706238
vn 0.789140522480011 0.0 -0.614212691783905
vn 0.945817232131958 0.0 -0.3246994614601135
vn 1.0 -0.0 1.2246468525851679e-16
vn 1.0 0.0 -1.2246468525851679e-16
vn -0.0 -1.0 -0.0
vn -0.0 -1.0 -0.0
vn -0.0 -1.0 -0.0
vn -0.0 -1.0 -0.0
vn -0.0 -1.0 -0.0
vn -0.0 -1.0 -0.0
vn -0.0 -1.0 -0.0
vn -0.0 -1.0 -0.0
vn -0.0 -1.0 -0.0
vn -0.0 -1.0 -0.0
vn -0.0 -1.0 -0.0
vn -0.0 -1.0 -0.0
vn -0.0 -1.0 -0.0
vn -0.0 -1.0 -0.0
vn -0.0 -1.0 -0.0
vn -0.0 -1.0 -0.0
vn -0.0 -1.0 -0.0
vn -0.0 -1.0 -0.0
vn -0.0 -1.0 -0.0
vn -0.0 -1.0 -0.0
vn -0.0 -1.0 -0.0
vn -0.0 -1.0 -0.0
vn -0.0 -1.0 -0.0
vn -0.0 -1.0 -0.0
vn -0.0 -1.0 -0.0
vn -0.0 -1.0 -0.0
vn -0.0 -1.0 -0.0
vn -0.0 -1.0 -0.0
vn -0.0 -1.0 -0.0
vn -0.0 -1.0 -0.0
vn -0.0 -1.0 -0.0
vn -0.0 -1.0 -0.0
vn -0.0 -1.0 -0.0
vn -0.0 -1.0 -0.0
vn -0.0 -1.0 -0.0
vn -0.0 -1.0 -0.0
vn -0.0 -1.0 -0.0
vn -0.0 -1.0 -0.0
vn -0.0 -1.0 -0.0
vn -0.0 -1.0 -0.0
vn -1.0 0.0 -1.2246468525851679e-16
vn -0.955572783946991 0.0 -0.29475516080856323
vn -0.826238751411438 0.0 -0.5633200407028198
vn -0.6234897971153259 0.0 -0.7818315029144287
vn -0.36534103751182556 0.0 -0.9308737516403198
vn -0.07473009079694748 0.0 -0.9972038269042969
vn 0.22252093255519867 -0.0 -0.9749279022216797
vn 0.5 -0.0 -0.8660253882408142
vn 0.7330518960952759 -0.0 -0.6801727414131165
vn 0.9009688496589661 -0.0 -0.4338837265968323
vn 0.9888308048248291 -0.0 -0.1490422636270523
vn 0.9888308048248291 -0.0 0.1490422636270523
vn 0.9009688496589661 -0.0 0.4338837265968323
vn 0.7330518960952759 -0.0 0.6801727414131165
vn 0.5 -0.0 0.8660253882408142
vn 0.22252093255519867 -0.0 0.9749279022216797
vn -0.07473009079694748 -0.0 0.9972038269042969
vn -0.36534103751182556 -0.0 0.9308737516403198
vn -0.6234897971153259 -0.0 0.7818315029144287
vn -0.826238751411438 -0.0 0.5633200407028198
vn -0.955572783946991 -0.0 0.29475516080856323
vn -1.0 -0.0 1.2246468525851679e-16
vn -0.955572783946991 -0.0 0.29475516080856323
vn -0.826238751411438 -0.0 0.5633200407028198
vn -0.6234897971153259 -0.0 0.7818315029144287
vn -0.36534103751182556 -0.0 0.9308737516403198
vn -0.07473009079694748 -0.0 0.9972038269042969
vn 0.22252093255519867 -0.0 0.9749279022216797
vn 0.5 -0.0 0.8660253882408142
vn 0.7330518960952759 -0.0 0.6801727414131165
vn 0.9009688496589661 -0.0 0.4338837265968323
vn 0.9888308048248291 -0.0 0.1490422636270523
vn 0.9888308048248291 -0.0 -0.1490422636270523
vn 0.9009688496589661 -0.0 -0.4338837265968323
vn 0.7330518960952759 -0.0 -0.6801727414131165
vn 0.5 -0.0 -0.8660253882408142
vn 0.22252093255519867 -0.0 -0.9749279022216797
vn -0.07473009079694748 0.0 -0.9972038269042969
vn -0.36534103751182556 0.0 -0.9308737516403198
vn -0.6234897971153259 0.0 -0.7818315029144287
vn -0.826238751411438 0.0 -0.5633200407028198
vn -0.955572783946991 0.0 -0.29475516080856323
vn -1.0 0.0 -1.2246468525851679e-16
vn -1.0 -0.0 1.2246468525851679e-16
vn 0.0 1.0 0.0
vn 0.0 1.0 0.0
vn 0.0 1.0 0.0
vn 0.0 1.0 0.0
vn 0.0 1.0 0.0
vn 0.0 1.0 0.0
vn 0.0 1.0 0.0
vn 0.0 1.0 0.0
vn 0.0 1.0 0.0
vn 0.0 1.0 0.0
vn 0.0 1.0 0.0
vn 0.0 1.0 0.0
vn 0.0 1.0 0.0
vn 0.0 1.0 0.0
vn 0.0 1.0 0.0
vn 0.0 1.0 0.0
vn 0.0 1.0 0.0
vn 0.0 1.0 0.0
vn 0.0 1.0 0.0
vn 0.0 1.0 0.0
vn 0.0 1.0 0.0
vn 0.0 1.0 0.0
vn 0.0 1.0 0.0
vn 0.0 1.0 0.0
vn 0.0 1.0 0.0
vn 0.0 1.0 0.0
vn 0.0 1.0 0.0
vn 0.0 1.0 0.0
vn 0.0 1.0 0.0
vn 0.0 1.0 0.0
vn 0.0 1.0 0.0
vn 0.0 1.0 0.0
vn 0.0 1.0 0.0
vn 0.0 1.0 0.0
vn 0.0 1.0 0.0
vn 0.0 1.0 0.0
vn 0.0 1.0 0.0
vn 0.0 1.0 0.0
vn 0.0 1.0 0.0
vn 0.0 1.0 0.0
f 2//2 38//38 1//1
f 1//1 38//38 40//40
f 39//39 20//20 19//19
f 19//19 20//20 21//21
f 19//19 21//21 18//18
f 18//18 21//21 22//22
f 18//18 22//22 17//17
f 17//17 22//22 23//23
f 17//17 23//23 16//16
f 16//16 23//23 24//24
f 16//16 24//24 15//15
f 15//15 24//24 25//25
f 15//15 25//25 14//14
f 14//14 25//25 26//26
f 14//14 26//26 13//13
f 13//13 26//26 27//27
f 13//13 27//27 12//12
f 12//12 27//27 28//28
f 12//12 28//28 11//11
f 11//11 28//28 29//29
f 11//11 29//29 10//10
f 10//10 29//29 30//30
f 10//10 30//30 9//9
f 9//9 30//30 31//31
f 9//9 31//31 8//8
f 8//8 31//31 32//32
f 8//8 32//32 7//7
f 7//7 32//32 33//33
f 7//7 33//33 6//6
f 6//6 33//33 34//34
f 6//6 34//34 5//5
f 5//5 34//34 35//35
f 5//5 35//35 4//4
f 4//4 35//35 36//36
f 4//4 36//36 3//3
f 3//3 36//36 37//37
f 3//3 37//37 2//2
f 2//2 37//37 38//38
f 42//42 80//80 41//41
f 41//41 80//80 60//60
f 41//41 60//60 61//61
f 80//80 42//42 79//79
f 79//79 42//42 43//43
f 79//79 43//43 78//78
f 78//78 43//43 44//44
f 78//78 44//44 77//77
f 77//77 44//44 45//45
f 77//77 45//45 76//76
f 76//76 45//45 46//46
f 76//76 46//46 75//75
f 75//75 46//46 47//47
f 75//75 47//47 74//74
f 74//74 47//47 48//48
f 74//74 48//48 73//73
f 73//73 48//48 49//49
f 73//73 49//49 72//72
f 72//72 49//49 50//50
f 72//72 50//50 71//71
f 71//71 50//50 51//51
f 71//71 51//51 70//70
f 70//70 51//51 69//69
f 69//69 51//51 52//52
f 69//69 52//52 68//68
f 68//68 52//52 53//53
f 68//68 53//53 67//67
f 67//67 53//53 54//54
f 67//67 54//54 66//66
f 66//66 54//54 55//55
f 66//66 55//55 65//65
f 65//65 55//55 56//56
f 65//65 56//56 64//64
f 64//64 56//56 57//57
f 64//64 57//57 63//63
f 63//63 57//57 58//58
f 63//63 58//58 62//62
f 62//62 58//58 59//59
f 62//62 59//59 61//61
f 61//61 59//59 41//41
f 82//82 122//122 81//81
f 81//81 122//122 123//123
f 124//124 102//102 101//101
f 101//101 102//102 103//103
f 101//101 103//103 104//104
f 82//82 83//83 122//122
f 122//122 83//83 121//121
f 121//121 83//83 84//84
f 121//121 84//84 120//120
f 120//120 84//84 85//85
f 120//120 85//85 119//119
f 119//119 85//85 86//86
f 119//119 86//86 118//118
f 118//118 86//86 87//87
f 118//118 87//87 117//117
f 117//117 87//87 88//88
f 117//117 88//88 116//116
f 116//116 88//88 89//89
f 116//116 89//89 115//115
f 115//115 89//89 90//90
f 115//115 90//90 114//114
f 114//114 90//90 91//91
f 114//114 91//91 113//113
f 113//113 91//91 92//92
f 113//113 92//92 112//112
f 112//112 92//92 93//93
f 112//112 93//93 111//111
f 111//111 93//93 94//94
f 111//111 94//94 110//110
f 110//110 94//94 95//95
f 110//110 95//95 109//109
f 109//109 95//95 96//96
f 109//109 96//96 108//108
f 108//108 96//96 97//97
f 108//108 97//97 107//107
f 107//107 97//97 98//98
f 107//107 98//98 106//106
f 106//106 98//98 99//99
f 106//106 99//99 105//105
f 105//105 99//99 100//100
f 105//105 100//100 104//104
f 104//104 100//100 101//101
f 126//126 164//164 125//125
f 125//125 164//164 144//144
f 125//125 144//144 145//145
f 164//164 126//126 163//163
f 163//163 126//126 127//127
f 163//163 127//127 162//162
f 162//162 127//127 128//128
f 162//162 128//128 161//161
f 161//161 128//128 129//129
f 161//161 129//129 160//160
f 160//160 129//129 130//130
f 160//160 130//130 159//159
f 159//159 130//130 131//131
f 159//159 131//131 158//158
f 158//158 131//131 132//132
f 158//158 132//132 157//157
f 157//157 132//132 133//133
f 157//157 133//133 156//156
f 156//156 133//133 134//134
f 156//156 134//134 155//155
f 155//155 134//134 154//154
f 154//154 134//134 135//135
f 154//154 135//135 153//153
f 153//153 135//135 136//136
f 153//153 136//136 152//152
f 152//152 136//136 137//137
f 152//152 137//137 151//151
f 151//151 137//137 138//138
f 151//151 138//138 150//150
f 150//150 138//138 139//139
f 150//150 139//139 149//149
f 149//149 139//139 140//140
f 149//149 140//140 148//148
f 148//148 140//140 141//141
f 148//148 141//141 147//147
f 147//147 141//141 142//142
f 147//147 142//142 146//146
f 146//146 142//142 143//143
f 146//146 143//143 145//145
f 145//145 143//143 125//125

# End of file