# WaveFront *.obj file
# Vertices: 162
# Triangles : 148

v -0.0793749988079071 -1.2790625095367432 0.6349999904632568
v -0.0793749988079071 -1.272611379623413 0.5963404774665833
v -0.0793749988079071 -1.2539570331573486 0.561870276927948
v -0.0793749988079071 -1.225121021270752 0.5353248715400696
v -0.0793749988079071 -1.1892280578613281 0.5195807814598083
v -0.0793749988079071 -1.1501679420471191 0.5163441300392151
v -0.0793749988079071 -1.112173080444336 0.5259657502174377
v -0.0793749988079071 -1.0793612003326416 0.5474028587341309
v -0.0793749988079071 -1.0552875995635986 0.5783324837684631
v -0.0793749988079071 -1.042561411857605 0.6154029369354248
v -0.0793749988079071 -1.042561411857605 0.6545970439910889
v -0.0793749988079071 -1.0552875995635986 0.6916674971580505
v -0.0793749988079071 -1.0793612003326416 0.7225971221923828
v -0.0793749988079071 -1.112173080444336 0.7440342903137207
v -0.0793749988079071 -1.1501679420471191 0.7536558508872986
v -0.0793749988079071 -1.1892280578613281 0.7504191994667053
v -0.0793749988079071 -1.225121021270752 0.7346751093864441
v -0.0793749988079071 -1.2539570331573486 0.7081297039985657
v -0.0793749988079071 -1.272611379623413 0.6736595034599304
v -0.0793749988079071 -0.07839485257863998 0.16012795269489288
v -0.0793749988079071 -0.040633801370859146 0.11298617720603943
v -0.0793749988079071 -0.01407510694116354 0.0587378554046154
v -0.0793749988079071 0.0 0.0
v -0.0793749988079071 -3.492500066757202 0.0
v -0.0793749988079071 -3.4504141807556152 0.07510632276535034
v -0.0793749988079071 -3.39808988571167 0.14347542822360992
v -0.0793749988079071 -3.336587429046631 0.20372173190116882
v -0.0793749988079071 -3.267153024673462 0.25462424755096436
v -0.0793749988079071 -3.1911942958831787 0.29515138268470764
v -0.0793749988079071 -1.3799586296081543 1.1015654802322388
v -0.0793749988079071 -1.3155076503753662 1.1238477230072021
v -0.0793749988079071 -1.2481935024261475 1.1347674131393433
v -0.0793749988079071 -1.1800037622451782 1.1340023279190063
v -0.0793749988079071 -1.112951636314392 1.121574878692627
v -0.0793749988079071 -1.0490168333053589 1.0978522300720215
v -0.0793749988079071 -0.9900870323181152 1.0635344982147217
v -0.0793749988079071 -0.93790203332901 1.0196352005004883
v -0.0793749988079071 -1.2790625095367432 0.6349999904632568
v -0.0793749988079071 -1.272611379623413 0.6736595034599304
v -0.0793749988079071 -1.2539570331573486 0.7081297039985657
v -0.0793749988079071 -1.225121021270752 0.7346751093864441
v -0.0793749988079071 -1.1892280578613281 0.7504191994667053
v -0.0793749988079071 -1.1501679420471191 0.7536558508872986
v -0.0793749988079071 -1.112173080444336 0.7440342903137207
v -0.0793749988079071 -1.0793612003326416 0.7225971221923828
v -0.0793749988079071 -1.0552875995635986 0.6916674971580505
v -0.0793749988079071 -1.042561411857605 0.6545970439910889
v -0.0793749988079071 -1.042561411857605 0.6154029369354248
v -0.0793749988079071 -1.0552875995635986 0.5783324837684631
v -0.0793749988079071 -1.0793612003326416 0.5474028587341309
v -0.0793749988079071 -1.112173080444336 0.5259657502174377
v -0.0793749988079071 -1.1501679420471191 0.5163441300392151
v -0.0793749988079071 -1.1892280578613281 0.5195807814598083
v -0.0793749988079071 -1.225121021270752 0.5353248715400696
v -0.0793749988079071 -1.2539570331573486 0.561870276927948
v -0.0793749988079071 -1.272611379623413 0.5963404774665833
v 0.0793749988079071 -1.2790625095367432 0.6349999904632568
v 0.0793749988079071 -1.272611379623413 0.5963404774665833
v 0.0793749988079071 -1.2539570331573486 0.561870276927948
v 0.0793749988079071 -1.225121021270752 0.5353248715400696
v 0.0793749988079071 -1.1892280578613281 0.5195807814598083
v 0.0793749988079071 -1.1501679420471191 0.5163441300392151
v 0.0793749988079071 -1.112173080444336 0.5259657502174377
v 0.0793749988079071 -1.0793612003326416 0.5474028587341309
v 0.0793749988079071 -1.0552875995635986 0.5783324837684631
v 0.0793749988079071 -1.042561411857605 0.6154029369354248
v 0.0793749988079071 -1.042561411857605 0.6545970439910889
v 0.0793749988079071 -1.0552875995635986 0.6916674971580505
v 0.0793749988079071 -1.0793612003326416 0.7225971221923828
v 0.0793749988079071 -1.112173080444336 0.7440342903137207
v 0.0793749988079071 -1.1501679420471191 0.7536558508872986
v 0.0793749988079071 -1.1892280578613281 0.7504191994667053
v 0.0793749988079071 -1.225121021270752 0.7346751093864441
v 0.0793749988079071 -1.2539570331573486 0.7081297039985657
v 0.0793749988079071 -1.272611379623413 0.6736595034599304
v 0.0793749988079071 -1.2790625095367432 0.6349999904632568
v -0.0793749988079071 -1.2790625095367432 0.6349999904632568
v -0.0793749988079071 0.0 0.0
v 0.0793749988079071 0.0 0.0
v 0.0793749988079071 -3.492500066757202 0.0
v -0.0793749988079071 -3.492500066757202 0.0
v -0.0793749988079071 -3.492500066757202 0.0
v 0.0793749988079071 -3.492500066757202 0.0
v 0.0793749988079071 -3.4504141807556152 0.07510632276535034
v 0.0793749988079071 -3.39808988571167 0.14347542822360992
v 0.0793749988079071 -3.336587429046631 0.20372173190116882
v 0.0793749988079071 -3.267153024673462 0.25462424755096436
v 0.0793749988079071 -3.1911942958831787 0.29515138268470764
v -0.0793749988079071 -3.1911942958831787 0.29515138268470764
v -0.0793749988079071 -3.267153024673462 0.25462424755096436
v -0.0793749988079071 -3.336587429046631 0.20372173190116882
v -0.0793749988079071 -3.39808988571167 0.14347542822360992
v -0.0793749988079071 -3.4504141807556152 0.07510632276535034
v -0.0793749988079071 -3.1911942958831787 0.29515138268470764
v 0.0793749988079071 -3.1911942958831787 0.29515138268470764
v 0.0793749988079071 -1.3799586296081543 1.1015654802322388
v -0.0793749988079071 -1.3799586296081543 1.1015654802322388
v -0.0793749988079071 -1.3799586296081543 1.1015654802322388
v 0.0793749988079071 -1.3799586296081543 1.1015654802322388
v 0.0793749988079071 -1.3155076503753662 1.1238477230072021
v 0.0793749988079071 -1.2481935024261475 1.1347674131393433
v 0.0793749988079071 -1.1800037622451782 1.1340023279190063
v 0.0793749988079071 -1.112951636314392 1.121574878692627
v 0.0793749988079071 -1.0490168333053589 1.0978522300720215
v 0.0793749988079071 -0.9900870323181152 1.0635344982147217
v 0.0793749988079071 -0.93790203332901 1.0196352005004883
v -0.0793749988079071 -0.93790203332901 1.0196352005004883
v -0.0793749988079071 -0.9900870323181152 1.0635344982147217
v -0.0793749988079071 -1.0490168333053589 1.0978522300720215
v -0.0793749988079071 -1.112951636314392 1.121574878692627
v -0.0793749988079071 -1.1800037622451782 1.1340023279190063
v -0.0793749988079071 -1.2481935024261475 1.1347674131393433
v -0.0793749988079071 -1.3155076503753662 1.1238477230072021
v -0.0793749988079071 -0.93790203332901 1.0196352005004883
v 0.0793749988079071 -0.93790203332901 1.0196352005004883
v 0.0793749988079071 -0.07839485257863998 0.16012795269489288
v -0.0793749988079071 -0.07839485257863998 0.16012795269489288
v -0.0793749988079071 -0.07839485257863998 0.16012795269489288
v 0.0793749988079071 -0.07839485257863998 0.16012795269489288
v 0.0793749988079071 -0.040633801370859146 0.11298617720603943
v 0.0793749988079071 -0.01407510694116354 0.0587378554046154
v 0.0793749988079071 0.0 0.0
v -0.0793749988079071 0.0 0.0
v -0.0793749988079071 -0.01407510694116354 0.0587378554046154
v -0.0793749988079071 -0.040633801370859146 0.11298617720603943
v 0.0793749988079071 -1.2790625095367432 0.6349999904632568
v 0.0793749988079071 -1.272611379623413 0.6736595034599304
v 0.0793749988079071 -1.2539570331573486 0.7081297039985657
v 0.0793749988079071 -1.225121021270752 0.7346751093864441
v 0.0793749988079071 -1.1892280578613281 0.7504191994667053
v 0.0793749988079071 -1.1501679420471191 0.7536558508872986
v 0.0793749988079071 -1.112173080444336 0.7440342903137207
v 0.0793749988079071 -1.0793612003326416 0.7225971221923828
v 0.0793749988079071 -1.0552875995635986 0.6916674971580505
v 0.0793749988079071 -1.042561411857605 0.6545970439910889
v 0.0793749988079071 -1.042561411857605 0.6154029369354248
v 0.0793749988079071 -1.0552875995635986 0.5783324837684631
v 0.0793749988079071 -1.0793612003326416 0.5474028587341309
v 0.0793749988079071 -1.112173080444336 0.5259657502174377
v 0.0793749988079071 -1.1501679420471191 0.5163441300392151
v 0.0793749988079071 -1.1892280578613281 0.5195807814598083
v 0.0793749988079071 -1.225121021270752 0.5353248715400696
v 0.0793749988079071 -1.2539570331573486 0.561870276927948
v 0.0793749988079071 -1.272611379623413 0.5963404774665833
v 0.0793749988079071 0.0 0.0
v 0.0793749988079071 -0.01407510694116354 0.0587378554046154
v 0.0793749988079071 -0.040633801370859146 0.11298617720603943
v 0.0793749988079071 -0.07839485257863998 0.16012795269489288
v 0.0793749988079071 -0.93790203332901 1.0196352005004883
v 0.0793749988079071 -0.9900870323181152 1.0635344982147217
v 0.0793749988079071 -1.0490168333053589 1.0978522300720215
v 0.0793749988079071 -1.112951636314392 1.121574878692627
v 0.0793749988079071 -1.1800037622451782 1.1340023279190063
v 0.0793749988079071 -1.2481935024261475 1.1347674131393433
v 0.0793749988079071 -1.3155076503753662 1.1238477230072021
v 0.0793749988079071 -1.3799586296081543 1.1015654802322388
v 0.0793749988079071 -3.1911942958831787 0.29515138268470764
v 0.0793749988079071 -3.267153024673462 0.25462424755096436
v 0.0793749988079071 -3.336587429046631 0.20372173190116882
v 0.0793749988079071 -3.39808988571167 0.14347542822360992
v 0.0793749988079071 -3.4504141807556152 0.07510632276535034
v 0.0793749988079071 -3.492500066757202 0.0
vn -1.0 -0.0 -0.0
vn -1.0 -0.0 -0.0
vn -1.0 -0.0 -0.0
vn -1.0 -0.0 -0.0
vn -1.0 -0.0 -0.0
vn -1.0 -0.0 -0.0
vn -1.0 -0.0 -0.0
vn -1.0 -0.0 -0.0
vn -1.0 -0.0 -0.0
vn -1.0 -0.0 -0.0
vn -1.0 -0.0 -0.0
vn -1.0 -0.0 -0.0
vn -1.0 -0.0 -0.0
vn -1.0 -0.0 -0.0
vn -1.0 -0.0 -0.0
vn -1.0 -0.0 -0.0
vn -1.0 -0.0 -0.0
vn -1.0 -0.0 -0.0
vn -1.0 -0.0 -0.0
vn -1.0 -0.0 -0.0
vn -1.0 -0.0 -0.0
vn -1.0 -0.0 -0.0
vn -1.0 -0.0 -0.0
vn -1.0 -0.0 -0.0
vn -1.0 -0.0 -0.0
vn -1.0 -0.0 -0.0
vn -1.0 -0.0 -0.0
vn -1.0 -0.0 -0.0
vn -1.0 -0.0 -0.0
vn -1.0 -0.0 -0.0
vn -1.0 -0.0 -0.0
vn -1.0 -0.0 -0.0
vn -1.0 -0.0 -0.0
vn -1.0 -0.0 -0.0
vn -1.0 -0.0 -0.0
vn -1.0 -0.0 -0.0
vn -1.0 -0.0 -0.0
vn 0.0 1.0 -1.2246468525851679e-16
vn 0.0 0.945817232131958 -0.3246994614601135
vn 0.0 0.789140522480011 -0.614212691783905
vn 0.0 0.5469481348991394 -0.8371664881706238
vn 0.0 0.24548548460006714 -0.9694002866744995
vn 0.0 -0.0825793445110321 -0.9965844750404358
vn 0.0 -0.4016954302787781 -0.915773332118988
vn 0.0 -0.6772815585136414 -0.7357239127159119
vn 0.0 -0.8794737458229065 -0.47594738006591797
vn 0.0 -0.9863613247871399 -0.1645945906639099
vn 0.0 -0.9863613247871399 0.1645945906639099
vn 0.0 -0.8794737458229065 0.47594738006591797
vn 0.0 -0.6772815585136414 0.7357239127159119
vn 0.0 -0.4016954302787781 0.915773332118988
vn 0.0 -0.0825793445110321 0.9965844750404358
vn -0.0 0.24548548460006714 0.9694002866744995
vn -0.0 0.5469481348991394 0.8371664881706238
vn -0.0 0.789140522480011 0.614212691783905
vn -0.0 0.945817232131958 0.3246994614601135
vn -0.0 1.0 1.2246468525851679e-16
vn -0.0 0.945817232131958 0.3246994614601135
vn -0.0 0.789140522480011 0.614212691783905
vn -0.0 0.5469481348991394 0.8371664881706238
vn -0.0 0.24548548460006714 0.9694002866744995
vn 0.0 -0.0825793445110321 0.9965844750404358
vn 0.0 -0.4016954302787781 0.915773332118988
vn 0.0 -0.6772815585136414 0.7357239127159119
vn 0.0 -0.8794737458229065 0.47594738006591797
vn 0.0 -0.9863613247871399 0.1645945906639099
vn 0.0 -0.9863613247871399 -0.1645945906639099
vn 0.0 -0.8794737458229065 -0.47594738006591797
vn 0.0 -0.6772815585136414 -0.7357239127159119
vn 0.0 -0.4016954302787781 -0.915773332118988
vn 0.0 -0.0825793445110321 -0.9965844750404358
vn 0.0 0.24548548460006714 -0.9694002866744995
vn 0.0 0.5469481348991394 -0.8371664881706238
vn 0.0 0.789140522480011 -0.614212691783905
vn 0.0 0.945817232131958 -0.3246994614601135
vn 0.0 1.0 -1.2246468525851679e-16
vn -0.0 1.0 1.2246468525851679e-16
vn 0.0 0.0 -1.0
vn 0.0 0.0 -1.0
vn 0.0 0.0 -1.0
vn 0.0 0.0 -1.0
vn -0.0 -0.9049584865570068 0.42549988627433777
vn -0.0 -0.9049584865570068 0.42549988627433777
vn -0.0 -0.8353677988052368 0.5496914386749268
vn -0.0 -0.7488471865653992 0.6627427339553833
vn -0.0 -0.6471500992774963 0.7623625993728638
vn -0.0 -0.5323376655578613 0.8465321063995361
vn -0.0 -0.4067366421222687 0.9135454297065735
vn -0.0 -0.4067366421222687 0.9135454297065735
vn -0.0 -0.5323376655578613 0.8465321063995361
vn -0.0 -0.6471500992774963 0.7623625993728638
vn -0.0 -0.7488471865653992 0.6627427339553833
vn -0.0 -0.8353677988052368 0.5496914386749268
vn 0.0 -0.4067366421222687 0.9135454297065735
vn 0.0 -0.4067366421222687 0.9135454297065735
vn 0.0 -0.4067366421222687 0.9135454297065735
vn 0.0 -0.4067366421222687 0.9135454297065735
vn -0.0 -0.4067366421222687 0.9135454297065735
vn -0.0 -0.4067366421222687 0.9135454297065735
vn -0.0 -0.24434040486812592 0.9696895480155945
vn -0.0 -0.07473009079694748 0.9972038269042969
vn -0.0 0.097086600959301 0.9952759146690369
vn -0.0 0.26603683829307556 0.9639628529548645
vn -0.0 0.42713242769241333 0.9041890501976013
vn -0.0 0.5756170749664307 0.8177193999290466
vn -0.0 0.7071067690849304 0.7071067690849304
vn -0.0 0.7071067690849304 0.7071067690849304
vn -0.0 0.5756170749664307 0.8177193999290466
vn -0.0 0.42713242769241333 0.9041890501976013
vn -0.0 0.26603683829307556 0.9639628529548645
vn -0.0 0.097086600959301 0.9952759146690369
vn -0.0 -0.07473009079694748 0.9972038269042969
vn -0.0 -0.24434040486812592 0.9696895480155945
vn -0.0 0.7071067690849304 0.7071067690849304
vn -0.0 0.7071067690849304 0.7071067690849304
vn -0.0 0.7071067690849304 0.7071067690849304
vn -0.0 0.7071067690849304 0.7071067690849304
vn -0.0 0.7071067690849304 0.7071067690849304
vn -0.0 0.7071067690849304 0.7071067690849304
vn -0.0 0.8444197177886963 0.5356821417808533
vn -0.0 0.9409967660903931 0.3384155333042145
vn -0.0 0.9921789765357971 0.12482331693172455
vn -0.0 0.9921789765357971 0.12482331693172455
vn -0.0 0.9409967660903931 0.3384155333042145
vn -0.0 0.8444197177886963 0.5356821417808533
vn 1.0 0.0 0.0
vn 1.0 0.0 0.0
vn 1.0 0.0 0.0
vn 1.0 0.0 0.0
vn 1.0 0.0 0.0
vn 1.0 0.0 0.0
vn 1.0 0.0 0.0
vn 1.0 0.0 0.0
vn 1.0 0.0 0.0
vn 1.0 0.0 0.0
vn 1.0 0.0 0.0
vn 1.0 0.0 0.0
vn 1.0 0.0 0.0
vn 1.0 0.0 0.0
vn 1.0 0.0 0.0
vn 1.0 0.0 0.0
vn 1.0 0.0 0.0
vn 1.0 0.0 0.0
vn 1.0 0.0 0.0
vn 1.0 0.0 0.0
vn 1.0 0.0 0.0
vn 1.0 0.0 0.0
vn 1.0 0.0 0.0
vn 1.0 0.0 0.0
vn 1.0 0.0 0.0
vn 1.0 0.0 0.0
vn 1.0 0.0 0.0
vn 1.0 0.0 0.0
vn 1.0 0.0 0.0
vn 1.0 0.0 0.0
vn 1.0 0.0 0.0
vn 1.0 0.0 0.0
vn 1.0 0.0 0.0
vn 1.0 0.0 0.0
vn 1.0 0.0 0.0
vn 1.0 0.0 0.0
vn 1.0 0.0 0.0
f 19//19 1//1 29//29
f 29//29 1//1 2//2
f 29//29 2//2 3//3
f 3//3 4//4 29//29
f 29//29 4//4 5//5
f 29//29 5//5 24//24
f 24//24 5//5 23//23
f 23//23 5//5 6//6
f 23//23 6//6 22//22
f 22//22 6//6 21//21
f 21//21 6//6 20//20
f 20//20 6//6 7//7
f 20//20 7//7 8//8
f 8//8 9//9 20//20
f 20//20 9//9 10//10
f 20//20 10//10 11//11
f 20//20 11//11 37//37
f 37//37 11//11 12//12
f 37//37 12//12 13//13
f 13//13 14//14 37//37
f 37//37 14//14 15//15
f 37//37 15//15 16//16
f 37//37 16//16 30//30
f 30//30 16//16 17//17
f 30//30 17//17 18//18
f 18//18 19//19 30//30
f 30//30 19//19 29//29
f 24//24 25//25 29//29
f 29//29 25//25 26//26
f 29//29 26//26 27//27
f 27//27 28//28 29//29
f 31//31 34//34 30//30
f 30//30 34//34 35//35
f 30//30 35//35 36//36
f 32//32 33//33 31//31
f 31//31 33//33 34//34
f 36//36 37//37 30//30
f 39//39 75//75 38//38
f 38//38 75//75 76//76
f 77//77 57//57 56//56
f 56//56 57//57 58//58
f 56//56 58//58 59//59
f 39//39 40//40 75//75
f 75//75 40//40 74//74
f 74//74 40//40 41//41
f 74//74 41//41 73//73
f 73//73 41//41 42//42
f 73//73 42//42 72//72
f 72//72 42//42 43//43
f 72//72 43//43 71//71
f 71//71 43//43 44//44
f 71//71 44//44 70//70
f 70//70 44//44 45//45
f 70//70 45//45 69//69
f 69//69 45//45 46//46
f 69//69 46//46 68//68
f 68//68 46//46 47//47
f 68//68 47//47 67//67
f 67//67 47//47 48//48
f 67//67 48//48 66//66
f 66//66 48//48 49//49
f 66//66 49//49 65//65
f 65//65 49//49 50//50
f 65//65 50//50 64//64
f 64//64 50//50 51//51
f 64//64 51//51 63//63
f 63//63 51//51 52//52
f 63//63 52//52 62//62
f 62//62 52//52 53//53
f 62//62 53//53 61//61
f 61//61 53//53 54//54
f 61//61 54//54 60//60
f 60//60 54//54 55//55
f 60//60 55//55 59//59
f 59//59 55//55 56//56
f 79//79 80//80 78//78
f 78//78 80//80 81//81
f 82//82 83//83 93//93
f 93//93 83//83 84//84
f 93//93 84//84 92//92
f 92//92 84//84 85//85
f 92//92 85//85 91//91
f 91//91 85//85 86//86
f 91//91 86//86 90//90
f 90//90 86//86 87//87
f 90//90 87//87 89//89
f 89//89 87//87 88//88
f 95//95 96//96 94//94
f 94//94 96//96 97//97
f 98//98 99//99 113//113
f 113//113 99//99 100//100
f 113//113 100//100 112//112
f 112//112 100//100 101//101
f 112//112 101//101 111//111
f 111//111 101//101 102//102
f 111//111 102//102 110//110
f 110//110 102//102 103//103
f 110//110 103//103 109//109
f 109//109 103//103 104//104
f 109//109 104//104 108//108
f 108//108 104//104 105//105
f 108//108 105//105 107//107
f 107//107 105//105 106//106
f 115//115 116//116 114//114
f 114//114 116//116 117//117
f 118//118 119//119 125//125
f 125//125 119//119 120//120
f 125//125 120//120 124//124
f 124//124 120//120 121//121
f 124//124 121//121 123//123
f 123//123 121//121 122//122
f 144//144 126//126 157//157
f 157//157 126//126 127//127
f 157//157 127//127 156//156
f 156//156 127//127 128//128
f 156//156 128//128 129//129
f 129//129 130//130 156//156
f 156//156 130//130 149//149
f 156//156 149//149 150//150
f 130//130 131//131 149//149
f 149//149 131//131 132//132
f 149//149 132//132 133//133
f 133//133 134//134 149//149
f 149//149 134//134 135//135
f 149//149 135//135 148//148
f 148//148 135//135 136//136
f 148//148 136//136 137//137
f 137//137 138//138 148//148
f 148//148 138//138 139//139
f 148//148 139//139 140//140
f 141//141 145//145 140//140
f 140//140 145//145 146//146
f 140//140 146//146 147//147
f 142//142 157//157 141//141
f 141//141 157//157 162//162
f 141//141 162//162 145//145
f 142//142 143//143 157//157
f 157//157 143//143 144//144
f 147//147 148//148 140//140
f 150//150 151//151 156//156
f 156//156 151//151 152//152
f 156//156 152//152 155//155
f 155//155 152//152 153//153
f 155//155 153//153 154//154
f 158//158 159//159 157//157
f 157//157 159//159 160//160
f 157//157 160//160 161//161
f 161//161 162//162 157//157

# End of file