# WaveFront *.obj file
# Vertices: 168
# Triangles : 140

v -0.0793749988079071 0.0 0.1587499976158142
v 0.0793749988079071 0.0 0.1587499976158142
v 0.0793749988079071 0.0 0.0
v -0.0793749988079071 0.0 0.0
v 0.0793749988079071 0.2162500023841858 -0.5912500023841858
v 0.0793749988079071 0.25157520174980164 -0.5872697830200195
v 0.0793749988079071 0.28512904047966003 -0.5755288004875183
v 0.0793749988079071 0.31522899866104126 -0.5566157698631287
v 0.0793749988079071 0.3403657376766205 -0.531479001045227
v 0.0793749988079071 0.3592787981033325 -0.5013790726661682
v 0.0793749988079071 0.37101981043815613 -0.4678252041339874
v 0.0793749988079071 0.375 -0.4325000047683716
v 0.0793749988079071 0.375 0.0
v 0.0793749988079071 0.0 0.0
v 0.0793749988079071 0.0 0.1587499976158142
v 0.0793749988079071 -1.245651364326477 0.1587499976158142
v 0.0793749988079071 -1.294427752494812 0.15475821495056152
v 0.0793749988079071 -1.3419060707092285 0.1428890973329544
v 0.0793749988079071 -1.3868229389190674 0.12345848977565765
v 0.0793749988079071 -1.4279829263687134 0.09698349237442017
v 0.0793749988079071 -1.464290738105774 0.06416865438222885
v 0.0793749988079071 -1.49478018283844 0.025887232273817062
v 0.0793749988079071 -1.5186398029327393 -0.016842028126120567
v 0.0793749988079071 -1.809370994567871 -0.6547936201095581
v 0.0793749988079071 -1.8203983306884766 -0.6885887980461121
v 0.0793749988079071 -1.8236290216445923 -0.7239903807640076
v 0.0793749988079071 -1.8189011812210083 -0.7592232823371887
v 0.0793749988079071 -1.806451678276062 -0.7925208210945129
v 0.0793749988079071 -1.78690505027771 -0.8222131729125977
v 0.0793749988079071 -1.7612411975860596 -0.8468115925788879
v 0.0793749988079071 -1.7307472229003906 -0.8650825619697571
v 0.0793749988079071 -1.598354458808899 -0.925417423248291
v 0.0793749988079071 -1.5645593404769897 -0.9364447593688965
v 0.0793749988079071 -1.5291576385498047 -0.9396754503250122
v 0.0793749988079071 -1.4939247369766235 -0.9349475502967834
v 0.0793749988079071 -1.4606271982192993 -0.9224981069564819
v 0.0793749988079071 -1.4309349060058594 -0.9029514193534851
v 0.0793749988079071 -1.4063364267349243 -0.8772876262664795
v 0.0793749988079071 -1.3880654573440552 -0.8467936515808105
v 0.0793749988079071 -1.271607518196106 -0.5912500023841858
v -0.0793749988079071 0.375 -0.4325000047683716
v 0.0793749988079071 0.375 -0.4325000047683716
v 0.0793749988079071 0.37101981043815613 -0.4678252041339874
v 0.0793749988079071 0.3592787981033325 -0.5013790726661682
v 0.0793749988079071 0.3403657376766205 -0.531479001045227
v 0.0793749988079071 0.31522899866104126 -0.5566157698631287
v 0.0793749988079071 0.28512904047966003 -0.5755288004875183
v 0.0793749988079071 0.25157520174980164 -0.5872697830200195
v 0.0793749988079071 0.2162500023841858 -0.5912500023841858
v -0.0793749988079071 0.2162500023841858 -0.5912500023841858
v -0.0793749988079071 0.25157520174980164 -0.5872697830200195
v -0.0793749988079071 0.28512904047966003 -0.5755288004875183
v -0.0793749988079071 0.31522899866104126 -0.5566157698631287
v -0.0793749988079071 0.3403657376766205 -0.531479001045227
v -0.0793749988079071 0.3592787981033325 -0.5013790726661682
v -0.0793749988079071 0.37101981043815613 -0.4678252041339874
v -0.0793749988079071 0.0 0.0
v 0.0793749988079071 0.0 0.0
v 0.0793749988079071 0.375 0.0
v -0.0793749988079071 0.375 0.0
v -0.0793749988079071 0.2162500023841858 -0.5912500023841858
v 0.0793749988079071 0.2162500023841858 -0.5912500023841858
v 0.0793749988079071 -1.271607518196106 -0.5912500023841858
v -0.0793749988079071 -1.271607518196106 -0.5912500023841858
v -0.0793749988079071 -1.3880654573440552 -0.8467936515808105
v 0.0793749988079071 -1.3880654573440552 -0.8467936515808105
v 0.0793749988079071 -1.4063364267349243 -0.8772876262664795
v 0.0793749988079071 -1.4309349060058594 -0.9029514193534851
v 0.0793749988079071 -1.4606271982192993 -0.9224981069564819
v 0.0793749988079071 -1.4939247369766235 -0.9349475502967834
v 0.0793749988079071 -1.5291576385498047 -0.9396754503250122
v 0.0793749988079071 -1.5645593404769897 -0.9364447593688965
v 0.0793749988079071 -1.598354458808899 -0.925417423248291
v -0.0793749988079071 -1.598354458808899 -0.925417423248291
v -0.0793749988079071 -1.5645593404769897 -0.9364447593688965
v -0.0793749988079071 -1.5291576385498047 -0.9396754503250122
v -0.0793749988079071 -1.4939247369766235 -0.9349475502967834
v -0.0793749988079071 -1.4606271982192993 -0.9224981069564819
v -0.0793749988079071 -1.4309349060058594 -0.9029514193534851
v -0.0793749988079071 -1.4063364267349243 -0.8772876262664795
v -0.0793749988079071 -1.7307472229003906 -0.8650825619697571
v 0.0793749988079071 -1.7307472229003906 -0.8650825619697571
v 0.0793749988079071 -1.7612411975860596 -0.8468115925788879
v 0.0793749988079071 -1.78690505027771 -0.8222131729125977
v 0.0793749988079071 -1.806451678276062 -0.7925208210945129
v 0.0793749988079071 -1.8189011812210083 -0.7592232823371887
v 0.0793749988079071 -1.8236290216445923 -0.7239903807640076
v 0.0793749988079071 -1.8203983306884766 -0.6885887980461121
v 0.0793749988079071 -1.809370994567871 -0.6547936201095581
v -0.0793749988079071 -1.809370994567871 -0.6547936201095581
v -0.0793749988079071 -1.8203983306884766 -0.6885887980461121
v -0.0793749988079071 -1.8236290216445923 -0.7239903807640076
v -0.0793749988079071 -1.8189011812210083 -0.7592232823371887
v -0.0793749988079071 -1.806451678276062 -0.7925208210945129
v -0.0793749988079071 -1.78690505027771 -0.8222131729125977
v -0.0793749988079071 -1.7612411975860596 -0.8468115925788879
v -0.0793749988079071 0.375 -0.4325000047683716
v -0.0793749988079071 0.37101981043815613 -0.4678252041339874
v -0.0793749988079071 0.3592787981033325 -0.5013790726661682
v -0.0793749988079071 0.3403657376766205 -0.531479001045227
v -0.0793749988079071 0.31522899866104126 -0.5566157698631287
v -0.0793749988079071 0.28512904047966003 -0.5755288004875183
v -0.0793749988079071 0.25157520174980164 -0.5872697830200195
v -0.0793749988079071 0.2162500023841858 -0.5912500023841858
v -0.0793749988079071 -1.271607518196106 -0.5912500023841858
v -0.0793749988079071 -1.3880654573440552 -0.8467936515808105
v -0.0793749988079071 -1.4063364267349243 -0.8772876262664795
v -0.0793749988079071 -1.4309349060058594 -0.9029514193534851
v -0.0793749988079071 -1.4606271982192993 -0.9224981069564819
v -0.0793749988079071 -1.4939247369766235 -0.9349475502967834
v -0.0793749988079071 -1.5291576385498047 -0.9396754503250122
v -0.0793749988079071 -1.5645593404769897 -0.9364447593688965
v -0.0793749988079071 -1.598354458808899 -0.925417423248291
v -0.0793749988079071 -1.7307472229003906 -0.8650825619697571
v -0.0793749988079071 -1.7612411975860596 -0.8468115925788879
v -0.0793749988079071 -1.78690505027771 -0.8222131729125977
v -0.0793749988079071 -1.806451678276062 -0.7925208210945129
v -0.0793749988079071 -1.8189011812210083 -0.7592232823371887
v -0.0793749988079071 -1.8236290216445923 -0.7239903807640076
v -0.0793749988079071 -1.8203983306884766 -0.6885887980461121
v -0.0793749988079071 -1.809370994567871 -0.6547936201095581
v -0.0793749988079071 -1.5186398029327393 -0.016842028126120567
v -0.0793749988079071 -1.49478018283844 0.025887232273817062
v -0.0793749988079071 -1.464290738105774 0.06416865438222885
v -0.0793749988079071 -1.4279829263687134 0.09698349237442017
v -0.0793749988079071 -1.3868229389190674 0.12345848977565765
v -0.0793749988079071 -1.3419060707092285 0.1428890973329544
v -0.0793749988079071 -1.294427752494812 0.15475821495056152
v -0.0793749988079071 -1.245651364326477 0.1587499976158142
v -0.0793749988079071 0.0 0.1587499976158142
v -0.0793749988079071 0.0 0.0
v -0.0793749988079071 0.375 0.0
v -0.0793749988079071 -1.598354458808899 -0.925417423248291
v 0.0793749988079071 -1.598354458808899 -0.925417423248291
v 0.0793749988079071 -1.7307472229003906 -0.8650825619697571
v -0.0793749988079071 -1.7307472229003906 -0.8650825619697571
v -0.0793749988079071 -1.5186398029327393 -0.016842028126120567
v 0.0793749988079071 -1.5186398029327393 -0.016842028126120567
v 0.0793749988079071 -1.49478018283844 0.025887232273817062
v 0.0793749988079071 -1.464290738105774 0.06416865438222885
v 0.0793749988079071 -1.4279829263687134 0.09698349237442017
v 0.0793749988079071 -1.3868229389190674 0.12345848977565765
v 0.0793749988079071 -1.3419060707092285 0.1428890973329544
v 0.0793749988079071 -1.294427752494812 0.15475821495056152
v 0.0793749988079071 -1.245651364326477 0.1587499976158142
v -0.0793749988079071 -1.245651364326477 0.1587499976158142
v -0.0793749988079071 -1.294427752494812 0.15475821495056152
v -0.0793749988079071 -1.3419060707092285 0.1428890973329544
v -0.0793749988079071 -1.3868229389190674 0.12345848977565765
v -0.0793749988079071 -1.4279829263687134 0.09698349237442017
v -0.0793749988079071 -1.464290738105774 0.06416865438222885
v -0.0793749988079071 -1.49478018283844 0.025887232273817062
v -0.0793749988079071 -1.245651364326477 0.1587499976158142
v 0.0793749988079071 -1.245651364326477 0.1587499976158142
v 0.0793749988079071 0.0 0.1587499976158142
v -0.0793749988079071 0.0 0.1587499976158142
v -0.0793749988079071 -1.271607518196106 -0.5912500023841858
v 0.0793749988079071 -1.271607518196106 -0.5912500023841858
v 0.0793749988079071 -1.3880654573440552 -0.8467936515808105
v -0.0793749988079071 -1.3880654573440552 -0.8467936515808105
v -0.0793749988079071 0.375 0.0
v 0.0793749988079071 0.375 0.0
v 0.0793749988079071 0.375 -0.4325000047683716
v -0.0793749988079071 0.375 -0.4325000047683716
v -0.0793749988079071 -1.809370994567871 -0.6547936201095581
v 0.0793749988079071 -1.809370994567871 -0.6547936201095581
v 0.0793749988079071 -1.5186398029327393 -0.016842028126120567
v -0.0793749988079071 -1.5186398029327393 -0.016842028126120567
vn 0.0 1.0 0.0
vn 0.0 1.0 0.0
vn 0.0 1.0 0.0
vn 0.0 1.0 0.0
vn 1.0 0.0 0.0
vn 1.0 0.0 0.0
vn 1.0 0.0 0.0
vn 1.0 0.0 0.0
vn 1.0 0.0 0.0
vn 1.0 0.0 0.0
vn 1.0 0.0 0.0
vn 1.0 0.0 0.0
vn 1.0 0.0 0.0
vn 1.0 0.0 0.0
vn 1.0 0.0 0.0
vn 1.0 0.0 0.0
vn 1.0 0.0 0.0
vn 1.0 0.0 0.0
vn 1.0 0.0 0.0
vn 1.0 0.0 0.0
vn 1.0 0.0 0.0
vn 1.0 0.0 0.0
vn 1.0 0.0 0.0
vn 1.0 0.0 0.0
vn 1.0 0.0 0.0
vn 1.0 0.0 0.0
vn 1.0 0.0 0.0
vn 1.0 0.0 0.0
vn 1.0 0.0 0.0
vn 1.0 0.0 0.0
vn 1.0 0.0 0.0
vn 1.0 0.0 0.0
vn 1.0 0.0 0.0
vn 1.0 0.0 0.0
vn 1.0 0.0 0.0
vn 1.0 0.0 0.0
vn 1.0 0.0 0.0
vn 1.0 0.0 0.0
vn 1.0 0.0 0.0
vn 1.0 0.0 0.0
vn -0.0 1.0 9.961886994719842e-17
vn -0.0 1.0 9.961886994719842e-17
vn -0.0 0.9749279022216797 -0.22252093255519867
vn -0.0 0.9009688496589661 -0.4338837265968323
vn -0.0 0.7818315029144287 -0.6234897971153259
vn -0.0 0.6234897971153259 -0.7818315029144287
vn -0.0 0.4338837265968323 -0.9009688496589661
vn -0.0 0.22252093255519867 -0.9749279022216797
vn -0.0 1.0490296587463616e-15 -1.0
vn -0.0 1.0490296587463616e-15 -1.0
vn -0.0 0.22252093255519867 -0.9749279022216797
vn -0.0 0.4338837265968323 -0.9009688496589661
vn -0.0 0.6234897971153259 -0.7818315029144287
vn -0.0 0.7818315029144287 -0.6234897971153259
vn -0.0 0.9009688496589661 -0.4338837265968323
vn -0.0 0.9749279022216797 -0.22252093255519867
vn -0.0 0.0 1.0
vn -0.0 0.0 1.0
vn -0.0 0.0 1.0
vn -0.0 0.0 1.0
vn 0.0 0.0 -1.0
vn 0.0 0.0 -1.0
vn 0.0 0.0 -1.0
vn 0.0 0.0 -1.0
vn -0.0 0.9099612832069397 -0.4146932363510132
vn -0.0 0.9099612832069397 -0.4146932363510132
vn -0.0 0.7948687076568604 -0.6067814230918884
vn -0.0 0.6399181485176086 -0.7684431076049805
vn -0.0 0.4528793692588806 -0.8915718197822571
vn -0.0 0.2431313395500183 -0.9699933528900146
vn -0.0 0.02119169756770134 -0.9997754096984863
vn 0.0 -0.2018105834722519 -0.9794245958328247
vn 0.0 -0.4146932363510132 -0.9099612832069397
vn 0.0 -0.4146932363510132 -0.9099612832069397
vn 0.0 -0.2018105834722519 -0.9794245958328247
vn -0.0 0.02119169756770134 -0.9997754096984863
vn -0.0 0.2431313395500183 -0.9699933528900146
vn -0.0 0.4528793692588806 -0.8915718197822571
vn -0.0 0.6399181485176086 -0.7684431076049805
vn -0.0 0.7948687076568604 -0.6067814230918884
vn 0.0 -0.4146932363510132 -0.9099612832069397
vn 0.0 -0.4146932363510132 -0.9099612832069397
vn 0.0 -0.6067814230918884 -0.7948687076568604
vn 0.0 -0.7684431076049805 -0.6399181485176086
vn 0.0 -0.8915718197822571 -0.4528793692588806
vn 0.0 -0.9699933528900146 -0.2431313395500183
vn 0.0 -0.9997754096984863 -0.02119169756770134
vn -0.0 -0.9794245958328247 0.2018105834722519
vn -0.0 -0.9099612832069397 0.4146932363510132
vn -0.0 -0.9099612832069397 0.4146932363510132
vn -0.0 -0.9794245958328247 0.2018105834722519
vn 0.0 -0.9997754096984863 -0.02119169756770134
vn 0.0 -0.9699933528900146 -0.2431313395500183
vn 0.0 -0.8915718197822571 -0.4528793692588806
vn 0.0 -0.7684431076049805 -0.6399181485176086
vn 0.0 -0.6067814230918884 -0.7948687076568604
vn -1.0 -0.0 -0.0
vn -1.0 -0.0 -0.0
vn -1.0 -0.0 -0.0
vn -1.0 -0.0 -0.0
vn -1.0 -0.0 -0.0
vn -1.0 -0.0 -0.0
vn -1.0 -0.0 -0.0
vn -1.0 -0.0 -0.0
vn -1.0 -0.0 -0.0
vn -1.0 -0.0 -0.0
vn -1.0 -0.0 -0.0
vn -1.0 -0.0 -0.0
vn -1.0 -0.0 -0.0
vn -1.0 -0.0 -0.0
vn -1.0 -0.0 -0.0
vn -1.0 -0.0 -0.0
vn -1.0 -0.0 -0.0
vn -1.0 -0.0 -0.0
vn -1.0 -0.0 -0.0
vn -1.0 -0.0 -0.0
vn -1.0 -0.0 -0.0
vn -1.0 -0.0 -0.0
vn -1.0 -0.0 -0.0
vn -1.0 -0.0 -0.0
vn -1.0 -0.0 -0.0
vn -1.0 -0.0 -0.0
vn -1.0 -0.0 -0.0
vn -1.0 -0.0 -0.0
vn -1.0 -0.0 -0.0
vn -1.0 -0.0 -0.0
vn -1.0 -0.0 -0.0
vn -1.0 -0.0 -0.0
vn -1.0 -0.0 -0.0
vn -1.0 -0.0 -0.0
vn -1.0 -0.0 -0.0
vn -1.0 -0.0 -0.0
vn 0.0 -0.4146932363510132 -0.9099612832069397
vn 0.0 -0.4146932363510132 -0.9099612832069397
vn 0.0 -0.4146932363510132 -0.9099612832069397
vn 0.0 -0.4146932363510132 -0.9099612832069397
vn -0.0 -0.9099612832069397 0.4146932363510132
vn -0.0 -0.9099612832069397 0.4146932363510132
vn -0.0 -0.8304292559623718 0.5571240782737732
vn -0.0 -0.7287979125976562 0.6847288608551025
vn -0.0 -0.6077719330787659 0.7941116690635681
vn -0.0 -0.47057193517684937 0.882361650466919
vn -0.0 -0.32084915041923523 0.9471303224563599
vn -0.0 -0.1625879555940628 0.9866940379142761
vn -0.0 -0.0 1.0
vn -0.0 -0.0 1.0
vn -0.0 -0.1625879555940628 0.9866940379142761
vn -0.0 -0.32084915041923523 0.9471303224563599
vn -0.0 -0.47057193517684937 0.882361650466919
vn -0.0 -0.6077719330787659 0.7941116690635681
vn -0.0 -0.7287979125976562 0.6847288608551025
vn -0.0 -0.8304292559623718 0.5571240782737732
vn -0.0 0.0 1.0
vn -0.0 0.0 1.0
vn -0.0 0.0 1.0
vn -0.0 0.0 1.0
vn 0.0 0.9099612832069397 -0.4146932363510132
vn 0.0 0.9099612832069397 -0.4146932363510132
vn 0.0 0.9099612832069397 -0.4146932363510132
vn 0.0 0.9099612832069397 -0.4146932363510132
vn 0.0 1.0 -3.850484458578165e-16
vn 0.0 1.0 -3.850484458578165e-16
vn 0.0 1.0 -3.850484458578165e-16
vn 0.0 1.0 -3.850484458578165e-16
vn 0.0 -0.9099612832069397 0.4146932363510132
vn 0.0 -0.9099612832069397 0.4146932363510132
vn 0.0 -0.9099612832069397 0.4146932363510132
vn 0.0 -0.9099612832069397 0.4146932363510132
f 2//2 3//3 1//1
f 1//1 3//3 4//4
f 6//6 7//7 5//5
f 5//5 7//7 8//8
f 5//5 8//8 9//9
f 9//9 10//10 5//5
f 5//5 10//10 11//11
f 5//5 11//11 12//12
f 13//13 14//14 12//12
f 12//12 14//14 5//5
f 15//15 16//16 14//14
f 14//14 16//16 40//40
f 14//14 40//40 5//5
f 17//17 18//18 16//16
f 16//16 18//18 19//19
f 16//16 19//19 20//20
f 20//20 21//21 16//16
f 16//16 21//21 22//22
f 16//16 22//22 23//23
f 16//16 23//23 40//40
f 40//40 23//23 24//24
f 40//40 24//24 39//39
f 39//39 24//24 25//25
f 39//39 25//25 26//26
f 26//26 27//27 39//39
f 39//39 27//27 28//28
f 39//39 28//28 29//29
f 30//30 31//31 29//29
f 29//29 31//31 39//39
f 31//31 32//32 39//39
f 39//39 32//32 38//38
f 38//38 32//32 37//37
f 37//37 32//32 36//36
f 36//36 32//32 35//35
f 35//35 32//32 33//33
f 35//35 33//33 34//34
f 41//41 42//42 56//56
f 56//56 42//42 43//43
f 56//56 43//43 55//55
f 55//55 43//43 44//44
f 55//55 44//44 54//54
f 54//54 44//44 45//45
f 54//54 45//45 53//53
f 53//53 45//45 46//46
f 53//53 46//46 52//52
f 52//52 46//46 47//47
f 52//52 47//47 51//51
f 51//51 47//47 48//48
f 51//51 48//48 50//50
f 50//50 48//48 49//49
f 58//58 59//59 57//57
f 57//57 59//59 60//60
f 62//62 63//63 61//61
f 61//61 63//63 64//64
f 65//65 66//66 80//80
f 80//80 66//66 67//67
f 80//80 67//67 79//79
f 79//79 67//67 68//68
f 79//79 68//68 78//78
f 78//78 68//68 69//69
f 78//78 69//69 77//77
f 77//77 69//69 70//70
f 77//77 70//70 76//76
f 76//76 70//70 71//71
f 76//76 71//71 75//75
f 75//75 71//71 72//72
f 75//75 72//72 74//74
f 74//74 72//72 73//73
f 81//81 82//82 96//96
f 96//96 82//82 83//83
f 96//96 83//83 95//95
f 95//95 83//83 84//84
f 95//95 84//84 94//94
f 94//94 84//84 85//85
f 94//94 85//85 93//93
f 93//93 85//85 86//86
f 93//93 86//86 92//92
f 92//92 86//86 87//87
f 92//92 87//87 91//91
f 91//91 87//87 88//88
f 91//91 88//88 90//90
f 90//90 88//88 89//89
f 98//98 104//104 97//97
f 97//97 104//104 131//131
f 97//97 131//131 132//132
f 98//98 99//99 104//104
f 104//104 99//99 100//100
f 104//104 100//100 101//101
f 101//101 102//102 104//104
f 104//104 102//102 103//103
f 104//104 105//105 131//131
f 131//131 105//105 129//129
f 131//131 129//129 130//130
f 106//106 121//121 105//105
f 105//105 121//121 122//122
f 105//105 122//122 129//129
f 129//129 122//122 123//123
f 129//129 123//123 124//124
f 107//107 113//113 106//106
f 106//106 113//113 114//114
f 106//106 114//114 116//116
f 116//116 114//114 115//115
f 107//107 108//108 113//113
f 113//113 108//108 109//109
f 113//113 109//109 110//110
f 111//111 112//112 110//110
f 110//110 112//112 113//113
f 116//116 117//117 106//106
f 106//106 117//117 118//118
f 106//106 118//118 119//119
f 119//119 120//120 106//106
f 106//106 120//120 121//121
f 124//124 125//125 129//129
f 129//129 125//125 126//126
f 129//129 126//126 127//127
f 127//127 128//128 129//129
f 134//134 135//135 133//133
f 133//133 135//135 136//136
f 137//137 138//138 152//152
f 152//152 138//138 139//139
f 152//152 139//139 151//151
f 151//151 139//139 140//140
f 151//151 140//140 150//150
f 150//150 140//140 141//141
f 150//150 141//141 149//149
f 149//149 141//141 142//142
f 149//149 142//142 148//148
f 148//148 142//142 143//143
f 148//148 143//143 147//147
f 147//147 143//143 144//144
f 147//147 144//144 146//146
f 146//146 144//144 145//145
f 154//154 155//155 153//153
f 153//153 155//155 156//156
f 158//158 159//159 157//157
f 157//157 159//159 160//160
f 162//162 163//163 161//161
f 161//161 163//163 164//164
f 166//166 167//167 165//165
f 165//165 167//167 168//168

# End of file