# WaveFront *.obj file
# Vertices: 36
# Triangles : 20

v 0.6415805220603943 0.0 1.7191082335443753e-08
v 0.32079026103019714 0.0 -0.5556249618530273
v 0.32079026103019714 1.2000000476837158 -0.5556249618530273
v 0.6415805220603943 1.2000000476837158 1.7191082335443753e-08
v 0.32079023122787476 0.0 0.5556250214576721
v 0.6415805220603943 0.0 1.7191082335443753e-08
v 0.6415805220603943 1.2000000476837158 1.7191082335443753e-08
v 0.32079023122787476 1.2000000476837158 0.5556250214576721
v -0.32079023122787476 0.0 0.5556250214576721
v 0.32079023122787476 0.0 0.5556250214576721
v 0.32079023122787476 1.2000000476837158 0.5556250214576721
v -0.32079023122787476 1.2000000476837158 0.5556250214576721
v -0.6415805220603943 0.0 1.7191082335443753e-08
v -0.32079023122787476 0.0 0.5556250214576721
v -0.32079023122787476 1.2000000476837158 0.5556250214576721
v -0.6415805220603943 1.2000000476837158 1.7191082335443753e-08
v -0.32079026103019714 0.0 -0.5556249618530273
v -0.6415805220603943 0.0 1.7191082335443753e-08
v -0.6415805220603943 1.2000000476837158 1.7191082335443753e-08
v -0.32079026103019714 1.2000000476837158 -0.5556249618530273
v 0.32079026103019714 0.0 -0.5556249618530273
v -0.32079026103019714 0.0 -0.5556249618530273
v -0.32079026103019714 1.2000000476837158 -0.5556249618530273
v 0.32079026103019714 1.2000000476837158 -0.5556249618530273
v 0.32079026103019714 1.2000000476837158 -0.5556249618530273
v -0.32079026103019714 1.2000000476837158 -0.5556249618530273
v -0.6415805220603943 1.2000000476837158 1.7191082335443753e-08
v -0.32079023122787476 1.2000000476837158 0.5556250214576721
v 0.32079023122787476 1.2000000476837158 0.5556250214576721
v 0.6415805220603943 1.2000000476837158 1.7191082335443753e-08
v -0.32079026103019714 0.0 -0.5556249618530273
v 0.32079026103019714 0.0 -0.5556249618530273
v 0.6415805220603943 0.0 1.7191082335443753e-08
v 0.32079023122787476 0.0 0.5556250214576721
v -0.32079023122787476 0.0 0.5556250214576721
v -0.6415805220603943 0.0 1.7191082335443753e-08
vn 0.866025447845459 0.0 -0.4999999701976776
vn 0.866025447845459 0.0 -0.4999999701976776
vn 0.866025447845459 0.0 -0.4999999701976776
vn 0.866025447845459 0.0 -0.4999999701976776
vn 0.8660253882408142 -0.0 0.5
vn 0.8660253882408142 -0.0 0.5
vn 0.8660253882408142 -0.0 0.5
vn 0.8660253882408142 -0.0 0.5
vn 6.921800249636045e-16 -0.0 1.0
vn 6.921800249636045e-16 -0.0 1.0
vn 6.921800249636045e-16 -0.0 1.0
vn 6.921800249636045e-16 -0.0 1.0
vn -0.8660253882408142 0.0 0.5
vn -0.8660253882408142 0.0 0.5
vn -0.8660253882408142 0.0 0.5
vn -0.8660253882408142 0.0 0.5
vn -0.866025447845459 0.0 -0.4999999701976776
vn -0.866025447845459 0.0 -0.4999999701976776
vn -0.866025447845459 0.0 -0.4999999701976776
vn -0.866025447845459 0.0 -0.4999999701976776
vn 0.0 0.0 -1.0
vn 0.0 0.0 -1.0
vn 0.0 0.0 -1.0
vn 0.0 0.0 -1.0
vn 0.0 1.0 0.0
vn 0.0 1.0 0.0
vn 0.0 1.0 0.0
vn 0.0 1.0 0.0
vn 0.0 1.0 0.0
vn 0.0 1.0 0.0
vn -0.0 -1.0 -0.0
vn -0.0 -1.0 -0.0
vn -0.0 -1.0 -0.0
vn -0.0 -1.0 -0.0
vn -0.0 -1.0 -0.0
vn -0.0 -1.0 -0.0
g c2bc8e86-e29c-11ea-a4c8-54bf646e7e1f
f 1//1 2//2 4//4
f 4//4 2//2 3//3
g c2bcdcb0-e29c-11ea-a57e-54bf646e7e1f
f 5//5 6//6 8//8
f 8//8 6//6 7//7
g c2bd03b8-e29c-11ea-9d6d-54bf646e7e1f
f 9//9 10//10 12//12
f 12//12 10//10 11//11
g c2bd51da-e29c-11ea-a062-54bf646e7e1f
f 13//13 14//14 16//16
f 16//16 14//14 15//15
g c2bd78e8-e29c-11ea-833b-54bf646e7e1f
f 17//17 18//18 20//20
f 20//20 18//18 19//19
g c2bdc708-e29c-11ea-87a7-54bf646e7e1f
f 21//21 22//22 24//24
f 24//24 22//22 23//23
g c2be1526-e29c-11ea-8e53-54bf646e7e1f
f 25//25 26//26 30//30
f 30//30 26//26 27//27
f 30//30 27//27 29//29
f 29//29 27//27 28//28
g c2be634a-e29c-11ea-95e6-54bf646e7e1f
f 31//31 32//32 36//36
f 36//36 32//32 33//33
f 36//36 33//33 35//35
f 35//35 33//33 34//34

# End of file