# WaveFront *.obj file
# Vertices: 36
# Triangles : 20

v -0.32079026103019714 0.0 -0.5556249618530273
v 0.32079026103019714 0.0 -0.5556249618530273
v 0.6415805220603943 0.0 1.7191082335443753e-08
v 0.32079023122787476 0.0 0.5556250214576721
v -0.32079023122787476 0.0 0.5556250214576721
v -0.6415805220603943 0.0 1.7191082335443753e-08
v 0.6415805220603943 0.0 1.7191082335443753e-08
v 0.32079026103019714 0.0 -0.5556249618530273
v 0.32079026103019714 1.2000000476837158 -0.5556249618530273
v 0.6415805220603943 1.2000000476837158 1.7191082335443753e-08
v 0.32079026103019714 0.0 -0.5556249618530273
v -0.32079026103019714 0.0 -0.5556249618530273
v -0.32079026103019714 1.2000000476837158 -0.5556249618530273
v 0.32079026103019714 1.2000000476837158 -0.5556249618530273
v 0.32079026103019714 1.2000000476837158 -0.5556249618530273
v -0.32079026103019714 1.2000000476837158 -0.5556249618530273
v -0.6415805220603943 1.2000000476837158 1.7191082335443753e-08
v -0.32079023122787476 1.2000000476837158 0.5556250214576721
v 0.32079023122787476 1.2000000476837158 0.5556250214576721
v 0.6415805220603943 1.2000000476837158 1.7191082335443753e-08
v -0.32079026103019714 0.0 -0.5556249618530273
v -0.6415805220603943 0.0 1.7191082335443753e-08
v -0.6415805220603943 1.2000000476837158 1.7191082335443753e-08
v -0.32079026103019714 1.2000000476837158 -0.5556249618530273
v -0.6415805220603943 0.0 1.7191082335443753e-08
v -0.32079023122787476 0.0 0.5556250214576721
v -0.32079023122787476 1.2000000476837158 0.5556250214576721
v -0.6415805220603943 1.2000000476837158 1.7191082335443753e-08
v -0.32079023122787476 0.0 0.5556250214576721
v 0.32079023122787476 0.0 0.5556250214576721
v 0.32079023122787476 1.2000000476837158 0.5556250214576721
v -0.32079023122787476 1.2000000476837158 0.5556250214576721
v 0.32079023122787476 0.0 0.5556250214576721
v 0.6415805220603943 0.0 1.7191082335443753e-08
v 0.6415805220603943 1.2000000476837158 1.7191082335443753e-08
v 0.32079023122787476 1.2000000476837158 0.5556250214576721
vn -0.0 -1.0 -0.0
vn -0.0 -1.0 -0.0
vn -0.0 -1.0 -0.0
vn -0.0 -1.0 -0.0
vn -0.0 -1.0 -0.0
vn -0.0 -1.0 -0.0
vn 0.866025447845459 0.0 -0.4999999701976776
vn 0.866025447845459 0.0 -0.4999999701976776
vn 0.866025447845459 0.0 -0.4999999701976776
vn 0.866025447845459 0.0 -0.4999999701976776
vn 0.0 0.0 -1.0
vn 0.0 0.0 -1.0
vn 0.0 0.0 -1.0
vn 0.0 0.0 -1.0
vn 0.0 1.0 0.0
vn 0.0 1.0 0.0
vn 0.0 1.0 0.0
vn 0.0 1.0 0.0
vn 0.0 1.0 0.0
vn 0.0 1.0 0.0
vn -0.866025447845459 0.0 -0.4999999701976776
vn -0.866025447845459 0.0 -0.4999999701976776
vn -0.866025447845459 0.0 -0.4999999701976776
vn -0.866025447845459 0.0 -0.4999999701976776
vn -0.8660253882408142 0.0 0.5
vn -0.8660253882408142 0.0 0.5
vn -0.8660253882408142 0.0 0.5
vn -0.8660253882408142 0.0 0.5
vn 6.921800249636045e-16 -0.0 1.0
vn 6.921800249636045e-16 -0.0 1.0
vn 6.921800249636045e-16 -0.0 1.0
vn 6.921800249636045e-16 -0.0 1.0
vn 0.8660253882408142 -0.0 0.5
vn 0.8660253882408142 -0.0 0.5
vn 0.8660253882408142 -0.0 0.5
vn 0.8660253882408142 -0.0 0.5
f 1//1 2//2 6//6
f 6//6 2//2 3//3
f 6//6 3//3 5//5
f 5//5 3//3 4//4
f 7//7 8//8 10//10
f 10//10 8//8 9//9
f 11//11 12//12 14//14
f 14//14 12//12 13//13
f 15//15 16//16 20//20
f 20//20 16//16 17//17
f 20//20 17//17 19//19
f 19//19 17//17 18//18
f 21//21 22//22 24//24
f 24//24 22//22 23//23
f 25//25 26//26 28//28
f 28//28 26//26 27//27
f 29//29 30//30 32//32
f 32//32 30//30 31//31
f 33//33 34//34 36//36
f 36//36 34//34 35//35

# End of file