# WaveFront *.obj file
# Vertices: 72
# Triangles : 44

v -31.399999618530273 0.0 0.0
v -31.399999618530273 -3.5 0.0
v -31.399999618530273 -3.5 0.5
v -31.399999618530273 0.0 0.5
v -31.399999618530273 0.0 0.5
v -31.399999618530273 -3.5 0.5
v -36.79999923706055 -3.5 0.5
v -36.79999923706055 0.0 0.5
v -5.400000095367432 -3.5 0.0
v -5.400000095367432 0.0 0.0
v -5.400000095367432 0.0 0.5
v -5.400000095367432 -3.5 0.5
v -5.400000095367432 -3.5 0.5
v -5.400000095367432 0.0 0.5
v 0.0 0.0 0.5
v 0.0 -3.5 0.5
v -31.399999618530273 0.0 0.0
v -31.399999618530273 0.0 0.5
v -36.79999923706055 0.0 0.5
v -36.79999923706055 0.0 2.299999952316284
v -31.399999618530273 0.0 2.299999952316284
v -31.399999618530273 0.0 2.799999952316284
v -5.400000095367432 0.0 2.799999952316284
v -5.400000095367432 0.0 2.299999952316284
v 0.0 0.0 2.299999952316284
v 0.0 0.0 0.5
v -5.400000095367432 0.0 0.5
v -5.400000095367432 0.0 0.0
v -31.399999618530273 -3.5 0.0
v -31.399999618530273 0.0 0.0
v -5.400000095367432 0.0 0.0
v -5.400000095367432 -3.5 0.0
v -31.399999618530273 -3.5 2.799999952316284
v -31.399999618530273 0.0 2.799999952316284
v -31.399999618530273 0.0 2.299999952316284
v -31.399999618530273 -3.5 2.299999952316284
v -36.79999923706055 0.0 2.299999952316284
v -36.79999923706055 -3.5 2.299999952316284
v -31.399999618530273 -3.5 2.299999952316284
v -31.399999618530273 0.0 2.299999952316284
v -5.400000095367432 0.0 2.799999952316284
v -5.400000095367432 -3.5 2.799999952316284
v -5.400000095367432 -3.5 2.299999952316284
v -5.400000095367432 0.0 2.299999952316284
v 0.0 -3.5 2.299999952316284
v 0.0 0.0 2.299999952316284
v -5.400000095367432 0.0 2.299999952316284
v -5.400000095367432 -3.5 2.299999952316284
v -36.79999923706055 0.0 0.5
v -36.79999923706055 -3.5 0.5
v -36.79999923706055 -3.5 2.299999952316284
v -36.79999923706055 0.0 2.299999952316284
v 0.0 -3.5 0.5
v 0.0 0.0 0.5
v 0.0 0.0 2.299999952316284
v 0.0 -3.5 2.299999952316284
v -31.399999618530273 -3.5 0.5
v -31.399999618530273 -3.5 0.0
v -5.400000095367432 -3.5 0.0
v -5.400000095367432 -3.5 0.5
v 0.0 -3.5 0.5
v 0.0 -3.5 2.299999952316284
v -5.400000095367432 -3.5 2.299999952316284
v -5.400000095367432 -3.5 2.799999952316284
v -31.399999618530273 -3.5 2.799999952316284
v -31.399999618530273 -3.5 2.299999952316284
v -36.79999923706055 -3.5 2.299999952316284
v -36.79999923706055 -3.5 0.5
v -31.399999618530273 0.0 2.799999952316284
v -31.399999618530273 -3.5 2.799999952316284
v -5.400000095367432 -3.5 2.799999952316284
v -5.400000095367432 0.0 2.799999952316284
vn -1.0 -0.0 0.0
vn -1.0 -0.0 0.0
vn -1.0 -0.0 0.0
vn -1.0 -0.0 0.0
vn -0.0 -0.0 -1.0
vn -0.0 -0.0 -1.0
vn -0.0 -0.0 -1.0
vn -0.0 -0.0 -1.0
vn 1.0 -5.075305482313112e-16 -0.0
vn 1.0 -5.075305482313112e-16 -0.0
vn 1.0 -5.075305482313112e-16 -0.0
vn 1.0 -5.075305482313112e-16 -0.0
vn -0.0 -0.0 -1.0
vn -0.0 -0.0 -1.0
vn -0.0 -0.0 -1.0
vn -0.0 -0.0 -1.0
vn 0.0 1.0 -0.0
vn 0.0 1.0 -0.0
vn 0.0 1.0 -0.0
vn 0.0 1.0 -0.0
vn 0.0 1.0 -0.0
vn 0.0 1.0 -0.0
vn 0.0 1.0 -0.0
vn 0.0 1.0 -0.0
vn 0.0 1.0 -0.0
vn 0.0 1.0 -0.0
vn 0.0 1.0 -0.0
vn 0.0 1.0 -0.0
vn -0.0 -0.0 -1.0
vn -0.0 -0.0 -1.0
vn -0.0 -0.0 -1.0
vn -0.0 -0.0 -1.0
vn -1.0 -0.0 -0.0
vn -1.0 -0.0 -0.0
vn -1.0 -0.0 -0.0
vn -1.0 -0.0 -0.0
vn -0.0 -0.0 1.0
vn -0.0 -0.0 1.0
vn -0.0 -0.0 1.0
vn -0.0 -0.0 1.0
vn 1.0 -5.075305482313112e-16 -0.0
vn 1.0 -5.075305482313112e-16 -0.0
vn 1.0 -5.075305482313112e-16 -0.0
vn 1.0 -5.075305482313112e-16 -0.0
vn -0.0 -0.0 1.0
vn -0.0 -0.0 1.0
vn -0.0 -0.0 1.0
vn -0.0 -0.0 1.0
vn -1.0 0.0 0.0
vn -1.0 0.0 0.0
vn -1.0 0.0 0.0
vn -1.0 0.0 0.0
vn 1.0 0.0 0.0
vn 1.0 0.0 0.0
vn 1.0 0.0 0.0
vn 1.0 0.0 0.0
vn 0.0 -1.0 0.0
vn 0.0 -1.0 0.0
vn 0.0 -1.0 0.0
vn 0.0 -1.0 0.0
vn 0.0 -1.0 0.0
vn 0.0 -1.0 0.0
vn 0.0 -1.0 0.0
vn 0.0 -1.0 0.0
vn 0.0 -1.0 0.0
vn 0.0 -1.0 0.0
vn 0.0 -1.0 0.0
vn 0.0 -1.0 0.0
vn 0.0 0.0 1.0
vn 0.0 0.0 1.0
vn 0.0 0.0 1.0
vn 0.0 0.0 1.0
g fdcc8e02-e29d-11ea-971b-54bf646e7e1f
f 1//1 2//2 4//4
f 4//4 2//2 3//3
g fdcd7840-e29d-11ea-9139-54bf646e7e1f
f 6//6 7//7 5//5
f 5//5 7//7 8//8
g fdce1466-e29d-11ea-bcb3-54bf646e7e1f
f 9//9 10//10 12//12
f 12//12 10//10 11//11
g fdced7b6-e29d-11ea-9d8e-54bf646e7e1f
f 14//14 15//15 13//13
f 13//13 15//15 16//16
g fd101026-e29d-11ea-a851-54bf646e7e1f
f 28//28 17//17 27//27
f 27//27 17//17 18//18
f 27//27 18//18 24//24
f 24//24 18//18 21//21
f 24//24 21//21 23//23
f 23//23 21//21 22//22
f 18//18 19//19 21//21
f 21//21 19//19 20//20
f 24//24 25//25 27//27
f 27//27 25//25 26//26
g fd10fa58-e29d-11ea-a0fd-54bf646e7e1f
f 30//30 31//31 29//29
f 29//29 31//31 32//32
g fd6994da-e29d-11ea-b162-54bf646e7e1f
f 33//33 34//34 36//36
f 36//36 34//34 35//35
g fd6a0a08-e29d-11ea-9603-54bf646e7e1f
f 38//38 39//39 37//37
f 37//37 39//39 40//40
g fd6aa622-e29d-11ea-b2aa-54bf646e7e1f
f 41//41 42//42 44//44
f 44//44 42//42 43//43
g fd6b4264-e29d-11ea-b4e6-54bf646e7e1f
f 46//46 47//47 45//45
f 45//45 47//47 48//48
g fd0fc218-e29d-11ea-95f8-54bf646e7e1f
f 49//49 50//50 52//52
f 52//52 50//50 51//51
g fd105e38-e29d-11ea-8a9b-54bf646e7e1f
f 53//53 54//54 56//56
f 56//56 54//54 55//55
g fd0f7426-e29d-11ea-855a-54bf646e7e1f
f 58//58 59//59 57//57
f 57//57 59//59 60//60
f 57//57 60//60 66//66
f 66//66 60//60 63//63
f 66//66 63//63 65//65
f 65//65 63//63 64//64
f 60//60 61//61 63//63
f 63//63 61//61 62//62
f 66//66 67//67 57//57
f 57//57 67//67 68//68
g fd10ac4a-e29d-11ea-8604-54bf646e7e1f
f 70//70 71//71 69//69
f 69//69 71//71 72//72

# End of file