# WaveFront *.obj file
# Vertices: 48
# Triangles : 28

v 3.5 0.0 5.0
v 3.5 0.0 1.0
v 3.5 1.0 1.0
v 3.5 1.0 5.0
v -5.0 0.0 5.0
v 3.5 0.0 5.0
v 3.5 1.0 5.0
v -5.0 1.0 5.0
v -5.0 0.0 -5.0
v -5.0 0.0 5.0
v -5.0 1.0 5.0
v -5.0 1.0 -5.0
v 5.0 0.0 -5.0
v -5.0 0.0 -5.0
v -5.0 1.0 -5.0
v 5.0 1.0 -5.0
v 5.0 0.0 5.0
v 5.0 0.0 -5.0
v 5.0 1.0 -5.0
v 5.0 1.0 5.0
v 4.0 0.0 5.0
v 5.0 0.0 5.0
v 5.0 1.0 5.0
v 4.0 1.0 5.0
v 4.0 0.0 1.0
v 4.0 0.0 5.0
v 4.0 1.0 5.0
v 4.0 1.0 1.0
v 3.5 0.0 1.0
v 4.0 0.0 1.0
v 4.0 1.0 1.0
v 3.5 1.0 1.0
v 3.5 1.0 1.0
v 4.0 1.0 1.0
v 4.0 1.0 5.0
v 5.0 1.0 5.0
v 5.0 1.0 -5.0
v -5.0 1.0 -5.0
v -5.0 1.0 5.0
v 3.5 1.0 5.0
v 4.0 0.0 1.0
v 3.5 0.0 1.0
v 3.5 0.0 5.0
v -5.0 0.0 5.0
v -5.0 0.0 -5.0
v 5.0 0.0 -5.0
v 5.0 0.0 5.0
v 4.0 0.0 5.0
vn 1.0 -0.0 0.0
vn 1.0 -0.0 0.0
vn 1.0 -0.0 0.0
vn 1.0 -0.0 0.0
vn 0.0 -0.0 1.0
vn 0.0 -0.0 1.0
vn 0.0 -0.0 1.0
vn 0.0 -0.0 1.0
vn -1.0 0.0 0.0
vn -1.0 0.0 0.0
vn -1.0 0.0 0.0
vn -1.0 0.0 0.0
vn 0.0 0.0 -1.0
vn 0.0 0.0 -1.0
vn 0.0 0.0 -1.0
vn 0.0 0.0 -1.0
vn 1.0 0.0 0.0
vn 1.0 0.0 0.0
vn 1.0 0.0 0.0
vn 1.0 0.0 0.0
vn 0.0 -0.0 1.0
vn 0.0 -0.0 1.0
vn 0.0 -0.0 1.0
vn 0.0 -0.0 1.0
vn -1.0 0.0 0.0
vn -1.0 0.0 0.0
vn -1.0 0.0 0.0
vn -1.0 0.0 0.0
vn 0.0 0.0 1.0
vn 0.0 0.0 1.0
vn 0.0 0.0 1.0
vn 0.0 0.0 1.0
vn 0.0 1.0 0.0
vn 0.0 1.0 0.0
vn 0.0 1.0 0.0
vn 0.0 1.0 0.0
vn 0.0 1.0 0.0
vn 0.0 1.0 0.0
vn 0.0 1.0 0.0
vn 0.0 1.0 0.0
vn -0.0 -1.0 -0.0
vn -0.0 -1.0 -0.0
vn -0.0 -1.0 -0.0
vn -0.0 -1.0 -0.0
vn -0.0 -1.0 -0.0
vn -0.0 -1.0 -0.0
vn -0.0 -1.0 -0.0
vn -0.0 -1.0 -0.0
g 5ead8f6e-e29e-11ea-8d7c-54bf646e7e1f
f 1//1 2//2 4//4
f 4//4 2//2 3//3
g 5eadb680-e29e-11ea-8011-54bf646e7e1f
f 5//5 6//6 8//8
f 8//8 6//6 7//7
g 5eaddd92-e29e-11ea-acf8-54bf646e7e1f
f 9//9 10//10 12//12
f 12//12 10//10 11//11
g 5eae04ae-e29e-11ea-a66e-54bf646e7e1f
f 13//13 14//14 16//16
f 16//16 14//14 15//15
g 5eae52cc-e29e-11ea-a828-54bf646e7e1f
f 17//17 18//18 20//20
f 20//20 18//18 19//19
g 5eae79dc-e29e-11ea-9c46-54bf646e7e1f
f 21//21 22//22 24//24
f 24//24 22//22 23//23
g 5eaea0e8-e29e-11ea-a6e9-54bf646e7e1f
f 25//25 26//26 28//28
f 28//28 26//26 27//27
g 5eaeef06-e29e-11ea-896d-54bf646e7e1f
f 29//29 30//30 32//32
f 32//32 30//30 31//31
g 5eaf3d1e-e29e-11ea-97b4-54bf646e7e1f
f 34//34 37//37 33//33
f 33//33 37//37 38//38
f 33//33 38//38 39//39
f 35//35 36//36 34//34
f 34//34 36//36 37//37
f 39//39 40//40 33//33
g 5eaf8b46-e29e-11ea-b59b-54bf646e7e1f
f 42//42 46//46 41//41
f 41//41 46//46 47//47
f 41//41 47//47 48//48
f 43//43 44//44 42//42
f 42//42 44//44 45//45
f 42//42 45//45 46//46

# End of file