# WaveFront *.obj file
# Vertices: 24
# Triangles : 12

v -1.25 0.0 -2.5
v -1.600000023841858 0.0 1.3062899760908457e-16
v -1.600000023841858 0.6000000238418579 1.3062899760908457e-16
v -1.25 0.6000000238418579 -2.5
v 1.25 0.0 -2.5
v -1.25 0.0 -2.5
v -1.25 0.6000000238418579 -2.5
v 1.25 0.6000000238418579 -2.5
v 1.600000023841858 0.0 -6.531449880454229e-17
v 1.25 0.0 -2.5
v 1.25 0.6000000238418579 -2.5
v 1.600000023841858 0.6000000238418579 -6.531449880454229e-17
v -1.600000023841858 0.0 1.3062899760908457e-16
v 1.600000023841858 0.0 -6.531449880454229e-17
v 1.600000023841858 0.6000000238418579 -6.531449880454229e-17
v -1.600000023841858 0.6000000238418579 1.3062899760908457e-16
v -1.600000023841858 0.6000000238418579 1.3062899760908457e-16
v 1.600000023841858 0.6000000238418579 -6.531449880454229e-17
v 1.25 0.6000000238418579 -2.5
v -1.25 0.6000000238418579 -2.5
v 1.600000023841858 0.0 -6.531449880454229e-17
v -1.600000023841858 0.0 1.3062899760908457e-16
v -1.25 0.0 -2.5
v 1.25 0.0 -2.5
vn -0.9903417229652405 0.0 -0.13864783942699432
vn -0.9903417229652405 0.0 -0.13864783942699432
vn -0.9903417229652405 0.0 -0.13864783942699432
vn -0.9903417229652405 0.0 -0.13864783942699432
vn 0.0 0.0 -1.0
vn 0.0 0.0 -1.0
vn 0.0 0.0 -1.0
vn 0.0 0.0 -1.0
vn 0.9903417229652405 0.0 -0.13864783942699432
vn 0.9903417229652405 0.0 -0.13864783942699432
vn 0.9903417229652405 0.0 -0.13864783942699432
vn 0.9903417229652405 0.0 -0.13864783942699432
vn 6.123234262925839e-17 -0.0 1.0
vn 6.123234262925839e-17 -0.0 1.0
vn 6.123234262925839e-17 -0.0 1.0
vn 6.123234262925839e-17 -0.0 1.0
vn 0.0 1.0 0.0
vn 0.0 1.0 0.0
vn 0.0 1.0 0.0
vn 0.0 1.0 0.0
vn -0.0 -1.0 -0.0
vn -0.0 -1.0 -0.0
vn -0.0 -1.0 -0.0
vn -0.0 -1.0 -0.0
g 73c9abe8-e2b2-11ea-b54b-54bf646e7e1f
f 1//1 2//2 4//4
f 4//4 2//2 3//3
g 73d1e912-e2b2-11ea-a186-54bf646e7e1f
f 5//5 6//6 8//8
f 8//8 6//6 7//7
g 73dac290-e2b2-11ea-93a4-54bf646e7e1f
f 9//9 10//10 12//12
f 12//12 10//10 11//11
g 73e3ea02-e2b2-11ea-87c1-54bf646e7e1f
f 13//13 14//14 16//16
f 16//16 14//14 15//15
g 73ec7552-e2b2-11ea-8c62-54bf646e7e1f
f 18//18 19//19 17//17
f 17//17 19//19 20//20
g 73f4b28a-e2b2-11ea-bff7-54bf646e7e1f
f 21//21 22//22 24//24
f 24//24 22//22 23//23

# End of file