# WaveFront *.obj file
# Vertices: 24
# Triangles : 12

v -3.0 0.0 -10.600000381469727
v 3.0 0.0 -10.600000381469727
v 5.8403000831604 0.0 0.0
v -5.8403000831604 0.0 0.0
v 3.0 0.0 -10.600000381469727
v -3.0 0.0 -10.600000381469727
v -3.0 1.0 -10.600000381469727
v 3.0 1.0 -10.600000381469727
v 3.0 1.0 -10.600000381469727
v -3.0 1.0 -10.600000381469727
v -5.8403000831604 1.0 0.0
v 5.8403000831604 1.0 0.0
v -3.0 0.0 -10.600000381469727
v -5.8403000831604 0.0 0.0
v -5.8403000831604 1.0 0.0
v -3.0 1.0 -10.600000381469727
v 5.8403000831604 0.0 0.0
v 3.0 0.0 -10.600000381469727
v 3.0 1.0 -10.600000381469727
v 5.8403000831604 1.0 0.0
v -5.8403000831604 0.0 0.0
v 5.8403000831604 0.0 0.0
v 5.8403000831604 1.0 0.0
v -5.8403000831604 1.0 0.0
vn -0.0 -1.0 -0.0
vn -0.0 -1.0 -0.0
vn -0.0 -1.0 -0.0
vn -0.0 -1.0 -0.0
vn 0.0 0.0 -1.0
vn 0.0 0.0 -1.0
vn 0.0 0.0 -1.0
vn 0.0 0.0 -1.0
vn 0.0 1.0 0.0
vn 0.0 1.0 0.0
vn 0.0 1.0 0.0
vn 0.0 1.0 0.0
vn -0.9659249186515808 0.0 -0.25882232189178467
vn -0.9659249186515808 0.0 -0.25882232189178467
vn -0.9659249186515808 0.0 -0.25882232189178467
vn -0.9659249186515808 0.0 -0.25882232189178467
vn 0.9659249186515808 0.0 -0.25882232189178467
vn 0.9659249186515808 0.0 -0.25882232189178467
vn 0.9659249186515808 0.0 -0.25882232189178467
vn 0.9659249186515808 0.0 -0.25882232189178467
vn 0.0 0.0 1.0
vn 0.0 0.0 1.0
vn 0.0 0.0 1.0
vn 0.0 0.0 1.0
f 1//1 2//2 4//4
f 4//4 2//2 3//3
f 5//5 6//6 8//8
f 8//8 6//6 7//7
f 10//10 11//11 9//9
f 9//9 11//11 12//12
f 13//13 14//14 16//16
f 16//16 14//14 15//15
f 17//17 18//18 20//20
f 20//20 18//18 19//19
f 21//21 22//22 24//24
f 24//24 22//22 23//23

# End of file