# WaveFront *.obj file
# Vertices: 150
# Triangles : 144

v -1.1380000114440918 8.020999908447266 1.393648057361428e-16
v -1.1216309070587158 8.020999908447266 -0.19232293963432312
v -1.072994589805603 8.020999908447266 -0.3791130781173706
v -0.9934900403022766 8.020999908447266 -0.5549968481063843
v -0.8854047060012817 8.020999908447266 -0.7149143815040588
v -0.7518478631973267 8.020999908447266 -0.8542650938034058
v -0.5966616868972778 8.020999908447266 -0.9690401554107666
v -0.42431068420410156 8.020999908447266 -1.0559377670288086
v -0.23975300788879395 8.020999908447266 -1.1124578714370728
v -0.04829809069633484 8.020999908447266 -1.136974573135376
v 0.1445462852716446 8.020999908447266 -1.1287827491760254
v 0.3332323133945465 8.020999908447266 -1.0881177186965942
v 0.5123318433761597 8.020999908447266 -1.016149640083313
v 0.676692545413971 8.020999908447266 -0.9149487614631653
v 0.821586012840271 8.020999908447266 -0.7874264121055603
v 0.9428439736366272 8.020999908447266 -0.6372513175010681
v 1.036978006362915 8.020999908447266 -0.46874362230300903
v 1.1012800931930542 8.020999908447266 -0.28675103187561035
v 1.1339002847671509 8.020999908447266 -0.09650914371013641
v 1.1339002847671509 8.020999908447266 0.09650914371013641
v 1.1012800931930542 8.020999908447266 0.28675103187561035
v 1.036978006362915 8.020999908447266 0.46874362230300903
v 0.9428439736366272 8.020999908447266 0.6372513175010681
v 0.821586012840271 8.020999908447266 0.7874264121055603
v 0.676692545413971 8.020999908447266 0.9149487614631653
v 0.5123318433761597 8.020999908447266 1.016149640083313
v 0.3332323133945465 8.020999908447266 1.0881177186965942
v 0.1445462852716446 8.020999908447266 1.1287827491760254
v -0.04829809069633484 8.020999908447266 1.136974573135376
v -0.23975300788879395 8.020999908447266 1.1124578714370728
v -0.42431068420410156 8.020999908447266 1.0559377670288086
v -0.5966616868972778 8.020999908447266 0.9690401554107666
v -0.7518478631973267 8.020999908447266 0.8542650938034058
v -0.8854047060012817 8.020999908447266 0.7149143815040588
v -0.9934900403022766 8.020999908447266 0.5549968481063843
v -1.072994589805603 8.020999908447266 0.3791130781173706
v -1.1216309070587158 8.020999908447266 0.19232293963432312
v -1.1380000114440918 0.0 1.393648057361428e-16
v -1.1216309070587158 0.0 0.19232293963432312
v -1.072994589805603 0.0 0.3791130781173706
v -0.9934900403022766 0.0 0.5549968481063843
v -0.8854047060012817 0.0 0.7149143815040588
v -0.7518478631973267 0.0 0.8542650938034058
v -0.5966616868972778 0.0 0.9690401554107666
v -0.42431068420410156 0.0 1.0559377670288086
v -0.23975300788879395 0.0 1.1124578714370728
v -0.04829809069633484 0.0 1.136974573135376
v 0.1445462852716446 0.0 1.1287827491760254
v 0.3332323133945465 0.0 1.0881177186965942
v 0.5123318433761597 0.0 1.016149640083313
v 0.676692545413971 0.0 0.9149487614631653
v 0.821586012840271 0.0 0.7874264121055603
v 0.9428439736366272 0.0 0.6372513175010681
v 1.036978006362915 0.0 0.46874362230300903
v 1.1012800931930542 0.0 0.28675103187561035
v 1.1339002847671509 0.0 0.09650914371013641
v 1.1339002847671509 0.0 -0.09650914371013641
v 1.1012800931930542 0.0 -0.28675103187561035
v 1.036978006362915 0.0 -0.46874362230300903
v 0.9428439736366272 0.0 -0.6372513175010681
v 0.821586012840271 0.0 -0.7874264121055603
v 0.676692545413971 0.0 -0.9149487614631653
v 0.5123318433761597 0.0 -1.016149640083313
v 0.3332323133945465 0.0 -1.0881177186965942
v 0.1445462852716446 0.0 -1.1287827491760254
v -0.04829809069633484 0.0 -1.136974573135376
v -0.23975300788879395 0.0 -1.1124578714370728
v -0.42431068420410156 0.0 -1.0559377670288086
v -0.5966616868972778 0.0 -0.9690401554107666
v -0.7518478631973267 0.0 -0.8542650938034058
v -0.8854047060012817 0.0 -0.7149143815040588
v -0.9934900403022766 0.0 -0.5549968481063843
v -1.072994589805603 0.0 -0.3791130781173706
v -1.1216309070587158 0.0 -0.19232293963432312
v -1.1380000114440918 0.0 1.393648057361428e-16
v -1.1380000114440918 8.020999908447266 1.393648057361428e-16
v -1.1380000114440918 8.020999908447266 1.393648057361428e-16
v -1.1216309070587158 8.020999908447266 0.19232293963432312
v -1.072994589805603 8.020999908447266 0.3791130781173706
v -0.9934900403022766 8.020999908447266 0.5549968481063843
v -0.8854047060012817 8.020999908447266 0.7149143815040588
v -0.7518478631973267 8.020999908447266 0.8542650938034058
v -0.5966616868972778 8.020999908447266 0.9690401554107666
v -0.42431068420410156 8.020999908447266 1.0559377670288086
v -0.23975300788879395 8.020999908447266 1.1124578714370728
v -0.04829809069633484 8.020999908447266 1.136974573135376
v 0.1445462852716446 8.020999908447266 1.1287827491760254
v 0.3332323133945465 8.020999908447266 1.0881177186965942
v 0.5123318433761597 8.020999908447266 1.016149640083313
v 0.676692545413971 8.020999908447266 0.9149487614631653
v 0.821586012840271 8.020999908447266 0.7874264121055603
v 0.9428439736366272 8.020999908447266 0.6372513175010681
v 1.036978006362915 8.020999908447266 0.46874362230300903
v 1.1012800931930542 8.020999908447266 0.28675103187561035
v 1.1339002847671509 8.020999908447266 0.09650914371013641
v 1.1339002847671509 8.020999908447266 -0.09650914371013641
v 1.1012800931930542 8.020999908447266 -0.28675103187561035
v 1.036978006362915 8.020999908447266 -0.46874362230300903
v 0.9428439736366272 8.020999908447266 -0.6372513175010681
v 0.821586012840271 8.020999908447266 -0.7874264121055603
v 0.676692545413971 8.020999908447266 -0.9149487614631653
v 0.5123318433761597 8.020999908447266 -1.016149640083313
v 0.3332323133945465 8.020999908447266 -1.0881177186965942
v 0.1445462852716446 8.020999908447266 -1.1287827491760254
v -0.04829809069633484 8.020999908447266 -1.136974573135376
v -0.23975300788879395 8.020999908447266 -1.1124578714370728
v -0.42431068420410156 8.020999908447266 -1.0559377670288086
v -0.5966616868972778 8.020999908447266 -0.9690401554107666
v -0.7518478631973267 8.020999908447266 -0.8542650938034058
v -0.8854047060012817 8.020999908447266 -0.7149143815040588
v -0.9934900403022766 8.020999908447266 -0.5549968481063843
v -1.072994589805603 8.020999908447266 -0.3791130781173706
v -1.1216309070587158 8.020999908447266 -0.19232293963432312
v -1.1380000114440918 0.0 1.393648057361428e-16
v -1.1216309070587158 0.0 -0.19232293963432312
v -1.072994589805603 0.0 -0.3791130781173706
v -0.9934900403022766 0.0 -0.5549968481063843
v -0.8854047060012817 0.0 -0.7149143815040588
v -0.7518478631973267 0.0 -0.8542650938034058
v -0.5966616868972778 0.0 -0.9690401554107666
v -0.42431068420410156 0.0 -1.0559377670288086
v -0.23975300788879395 0.0 -1.1124578714370728
v -0.04829809069633484 0.0 -1.136974573135376
v 0.1445462852716446 0.0 -1.1287827491760254
v 0.3332323133945465 0.0 -1.0881177186965942
v 0.5123318433761597 0.0 -1.016149640083313
v 0.676692545413971 0.0 -0.9149487614631653
v 0.821586012840271 0.0 -0.7874264121055603
v 0.9428439736366272 0.0 -0.6372513175010681
v 1.036978006362915 0.0 -0.46874362230300903
v 1.1012800931930542 0.0 -0.28675103187561035
v 1.1339002847671509 0.0 -0.09650914371013641
v 1.1339002847671509 0.0 0.09650914371013641
v 1.1012800931930542 0.0 0.28675103187561035
v 1.036978006362915 0.0 0.46874362230300903
v 0.9428439736366272 0.0 0.6372513175010681
v 0.821586012840271 0.0 0.7874264121055603
v 0.676692545413971 0.0 0.9149487614631653
v 0.5123318433761597 0.0 1.016149640083313
v 0.3332323133945465 0.0 1.0881177186965942
v 0.1445462852716446 0.0 1.1287827491760254
v -0.04829809069633484 0.0 1.136974573135376
v -0.23975300788879395 0.0 1.1124578714370728
v -0.42431068420410156 0.0 1.0559377670288086
v -0.5966616868972778 0.0 0.9690401554107666
v -0.7518478631973267 0.0 0.8542650938034058
v -0.8854047060012817 0.0 0.7149143815040588
v -0.9934900403022766 0.0 0.5549968481063843
v -1.072994589805603 0.0 0.3791130781173706
v -1.1216309070587158 0.0 0.19232293963432312
vn -1.0 0.0 -1.2246468525851679e-16
vn -0.9856159090995789 0.0 -0.16900081932544708
vn -0.942877471446991 0.0 -0.3331398069858551
vn -0.8730140924453735 0.0 -0.48769494891166687
vn -0.7780357599258423 0.0 -0.6282200217247009
vn -0.6606747508049011 0.0 -0.7506722807884216
vn -0.5243073105812073 0.0 -0.8515291213989258
vn -0.372856467962265 0.0 -0.9278890490531921
vn -0.21067926287651062 0.0 -0.9775552153587341
vn -0.04244120419025421 0.0 -0.9990989565849304
vn 0.1270178258419037 -0.0 -0.9919004440307617
vn 0.29282277822494507 -0.0 -0.9561667442321777
vn 0.4502037465572357 -0.0 -0.8929258584976196
vn 0.594633162021637 -0.0 -0.8039971590042114
vn 0.7219560742378235 -0.0 -0.6919388771057129
vn 0.8285096287727356 -0.0 -0.5599747896194458
vn 0.9112284779548645 -0.0 -0.41190123558044434
vn 0.9677329659461975 -0.0 -0.2519780695438385
vn 0.9963974952697754 -0.0 -0.084805928170681
vn 0.9963974952697754 -0.0 0.084805928170681
vn 0.9677329659461975 -0.0 0.2519780695438385
vn 0.9112284779548645 -0.0 0.41190123558044434
vn 0.8285096287727356 -0.0 0.5599747896194458
vn 0.7219560742378235 -0.0 0.6919388771057129
vn 0.594633162021637 -0.0 0.8039971590042114
vn 0.4502037465572357 -0.0 0.8929258584976196
vn 0.29282277822494507 -0.0 0.9561667442321777
vn 0.1270178258419037 -0.0 0.9919004440307617
vn -0.04244120419025421 -0.0 0.9990989565849304
vn -0.21067926287651062 -0.0 0.9775552153587341
vn -0.372856467962265 -0.0 0.9278890490531921
vn -0.5243073105812073 -0.0 0.8515291213989258
vn -0.6606747508049011 -0.0 0.7506722807884216
vn -0.7780357599258423 -0.0 0.6282200217247009
vn -0.8730140924453735 -0.0 0.48769494891166687
vn -0.942877471446991 -0.0 0.3331398069858551
vn -0.9856159090995789 -0.0 0.16900081932544708
vn -1.0 -0.0 1.2246468525851679e-16
vn -0.9856159090995789 -0.0 0.16900081932544708
vn -0.942877471446991 -0.0 0.3331398069858551
vn -0.8730140924453735 -0.0 0.48769494891166687
vn -0.7780357599258423 -0.0 0.6282200217247009
vn -0.6606747508049011 -0.0 0.7506722807884216
vn -0.5243073105812073 -0.0 0.8515291213989258
vn -0.372856467962265 -0.0 0.9278890490531921
vn -0.21067926287651062 -0.0 0.9775552153587341
vn -0.04244120419025421 -0.0 0.9990989565849304
vn 0.1270178258419037 -0.0 0.9919004440307617
vn 0.29282277822494507 -0.0 0.9561667442321777
vn 0.4502037465572357 -0.0 0.8929258584976196
vn 0.594633162021637 -0.0 0.8039971590042114
vn 0.7219560742378235 -0.0 0.6919388771057129
vn 0.8285096287727356 -0.0 0.5599747896194458
vn 0.9112284779548645 -0.0 0.41190123558044434
vn 0.9677329659461975 -0.0 0.2519780695438385
vn 0.9963974952697754 -0.0 0.084805928170681
vn 0.9963974952697754 -0.0 -0.084805928170681
vn 0.9677329659461975 -0.0 -0.2519780695438385
vn 0.9112284779548645 -0.0 -0.41190123558044434
vn 0.8285096287727356 -0.0 -0.5599747896194458
vn 0.7219560742378235 -0.0 -0.6919388771057129
vn 0.594633162021637 -0.0 -0.8039971590042114
vn 0.4502037465572357 -0.0 -0.8929258584976196
vn 0.29282277822494507 -0.0 -0.9561667442321777
vn 0.1270178258419037 -0.0 -0.9919004440307617
vn -0.04244120419025421 0.0 -0.9990989565849304
vn -0.21067926287651062 0.0 -0.9775552153587341
vn -0.372856467962265 0.0 -0.9278890490531921
vn -0.5243073105812073 0.0 -0.8515291213989258
vn -0.6606747508049011 0.0 -0.7506722807884216
vn -0.7780357599258423 0.0 -0.6282200217247009
vn -0.8730140924453735 0.0 -0.48769494891166687
vn -0.942877471446991 0.0 -0.3331398069858551
vn -0.9856159090995789 0.0 -0.16900081932544708
vn -1.0 0.0 -1.2246468525851679e-16
vn -1.0 -0.0 1.2246468525851679e-16
vn 0.0 1.0 0.0
vn 0.0 1.0 0.0
vn 0.0 1.0 0.0
vn 0.0 1.0 0.0
vn 0.0 1.0 0.0
vn 0.0 1.0 0.0
vn 0.0 1.0 0.0
vn 0.0 1.0 0.0
vn 0.0 1.0 0.0
vn 0.0 1.0 0.0
vn 0.0 1.0 0.0
vn 0.0 1.0 0.0
vn 0.0 1.0 0.0
vn 0.0 1.0 0.0
vn 0.0 1.0 0.0
vn 0.0 1.0 0.0
vn 0.0 1.0 0.0
vn 0.0 1.0 0.0
vn 0.0 1.0 0.0
vn 0.0 1.0 0.0
vn 0.0 1.0 0.0
vn 0.0 1.0 0.0
vn 0.0 1.0 0.0
vn 0.0 1.0 0.0
vn 0.0 1.0 0.0
vn 0.0 1.0 0.0
vn 0.0 1.0 0.0
vn 0.0 1.0 0.0
vn 0.0 1.0 0.0
vn 0.0 1.0 0.0
vn 0.0 1.0 0.0
vn 0.0 1.0 0.0
vn 0.0 1.0 0.0
vn 0.0 1.0 0.0
vn 0.0 1.0 0.0
vn 0.0 1.0 0.0
vn 0.0 1.0 0.0
vn -0.0 -1.0 -0.0
vn -0.0 -1.0 -0.0
vn -0.0 -1.0 -0.0
vn -0.0 -1.0 -0.0
vn -0.0 -1.0 -0.0
vn -0.0 -1.0 -0.0
vn -0.0 -1.0 -0.0
vn -0.0 -1.0 -0.0
vn -0.0 -1.0 -0.0
vn -0.0 -1.0 -0.0
vn -0.0 -1.0 -0.0
vn -0.0 -1.0 -0.0
vn -0.0 -1.0 -0.0
vn -0.0 -1.0 -0.0
vn -0.0 -1.0 -0.0
vn -0.0 -1.0 -0.0
vn -0.0 -1.0 -0.0
vn -0.0 -1.0 -0.0
vn -0.0 -1.0 -0.0
vn -0.0 -1.0 -0.0
vn -0.0 -1.0 -0.0
vn -0.0 -1.0 -0.0
vn -0.0 -1.0 -0.0
vn -0.0 -1.0 -0.0
vn -0.0 -1.0 -0.0
vn -0.0 -1.0 -0.0
vn -0.0 -1.0 -0.0
vn -0.0 -1.0 -0.0
vn -0.0 -1.0 -0.0
vn -0.0 -1.0 -0.0
vn -0.0 -1.0 -0.0
vn -0.0 -1.0 -0.0
vn -0.0 -1.0 -0.0
vn -0.0 -1.0 -0.0
vn -0.0 -1.0 -0.0
vn -0.0 -1.0 -0.0
vn -0.0 -1.0 -0.0
g 9078c5fa-e2cc-11ea-b35a-54bf646e7e1f
f 2//2 74//74 1//1
f 1//1 74//74 75//75
f 76//76 38//38 37//37
f 37//37 38//38 39//39
f 37//37 39//39 36//36
f 36//36 39//39 40//40
f 36//36 40//40 35//35
f 35//35 40//40 41//41
f 35//35 41//41 34//34
f 34//34 41//41 42//42
f 34//34 42//42 33//33
f 33//33 42//42 43//43
f 33//33 43//43 32//32
f 32//32 43//43 44//44
f 32//32 44//44 31//31
f 31//31 44//44 45//45
f 31//31 45//45 30//30
f 30//30 45//45 46//46
f 30//30 46//46 29//29
f 29//29 46//46 47//47
f 29//29 47//47 28//28
f 28//28 47//47 48//48
f 28//28 48//48 27//27
f 27//27 48//48 49//49
f 27//27 49//49 26//26
f 26//26 49//49 50//50
f 26//26 50//50 25//25
f 25//25 50//50 51//51
f 25//25 51//51 24//24
f 24//24 51//51 52//52
f 24//24 52//52 23//23
f 23//23 52//52 53//53
f 23//23 53//53 22//22
f 22//22 53//53 54//54
f 22//22 54//54 21//21
f 21//21 54//54 55//55
f 21//21 55//55 20//20
f 20//20 55//55 56//56
f 20//20 56//56 19//19
f 19//19 56//56 57//57
f 19//19 57//57 18//18
f 18//18 57//57 58//58
f 18//18 58//58 17//17
f 17//17 58//58 59//59
f 17//17 59//59 16//16
f 16//16 59//59 60//60
f 16//16 60//60 15//15
f 15//15 60//60 61//61
f 15//15 61//61 14//14
f 14//14 61//61 62//62
f 14//14 62//62 13//13
f 13//13 62//62 63//63
f 13//13 63//63 12//12
f 12//12 63//63 64//64
f 12//12 64//64 11//11
f 11//11 64//64 65//65
f 11//11 65//65 10//10
f 10//10 65//65 66//66
f 10//10 66//66 9//9
f 9//9 66//66 67//67
f 9//9 67//67 8//8
f 8//8 67//67 68//68
f 8//8 68//68 7//7
f 7//7 68//68 69//69
f 7//7 69//69 6//6
f 6//6 69//69 70//70
f 6//6 70//70 5//5
f 5//5 70//70 71//71
f 5//5 71//71 4//4
f 4//4 71//71 72//72
f 4//4 72//72 3//3
f 3//3 72//72 73//73
f 3//3 73//73 2//2
f 2//2 73//73 74//74
g 90796206-e2cc-11ea-98f1-54bf646e7e1f
f 113//113 77//77 92//92
f 92//92 77//77 78//78
f 92//92 78//78 79//79
f 79//79 80//80 92//92
f 92//92 80//80 81//81
f 92//92 81//81 91//91
f 91//91 81//81 82//82
f 91//91 82//82 90//90
f 90//90 82//82 83//83
f 90//90 83//83 89//89
f 89//89 83//83 84//84
f 89//89 84//84 88//88
f 88//88 84//84 85//85
f 88//88 85//85 87//87
f 87//87 85//85 86//86
f 93//93 99//99 92//92
f 92//92 99//99 100//100
f 92//92 100//100 101//101
f 99//99 93//93 98//98
f 98//98 93//93 94//94
f 98//98 94//94 97//97
f 97//97 94//94 95//95
f 97//97 95//95 96//96
f 101//101 102//102 92//92
f 92//92 102//102 103//103
f 92//92 103//103 104//104
f 104//104 105//105 92//92
f 92//92 105//105 106//106
f 92//92 106//106 107//107
f 107//107 108//108 92//92
f 92//92 108//108 109//109
f 92//92 109//109 110//110
f 110//110 111//111 92//92
f 92//92 111//111 112//112
f 92//92 112//112 113//113
g 9079fe18-e2cc-11ea-a161-54bf646e7e1f
f 150//150 114//114 136//136
f 136//136 114//114 115//115
f 136//136 115//115 116//116
f 116//116 117//117 136//136
f 136//136 117//117 118//118
f 136//136 118//118 119//119
f 119//119 120//120 136//136
f 136//136 120//120 121//121
f 136//136 121//121 122//122
f 122//122 123//123 136//136
f 136//136 123//123 124//124
f 136//136 124//124 125//125
f 125//125 126//126 136//136
f 136//136 126//126 127//127
f 136//136 127//127 128//128
f 128//128 129//129 136//136
f 136//136 129//129 135//135
f 135//135 129//129 130//130
f 135//135 130//130 134//134
f 134//134 130//130 131//131
f 134//134 131//131 133//133
f 133//133 131//131 132//132
f 137//137 147//147 136//136
f 136//136 147//147 148//148
f 136//136 148//148 149//149
f 147//147 137//137 146//146
f 146//146 137//137 138//138
f 146//146 138//138 145//145
f 145//145 138//138 139//139
f 145//145 139//139 144//144
f 144//144 139//139 140//140
f 144//144 140//140 143//143
f 143//143 140//140 141//141
f 143//143 141//141 142//142
f 149//149 150//150 136//136

# End of file