# WaveFront *.obj file
# Vertices: 164
# Triangles : 148

v -7.550000190734863 0.17186056077480316 1.884791612625122
v -7.550000190734863 0.3020256757736206 1.9145009517669678
v -7.550000190734863 0.40641000866889954 1.9977446794509888
v -7.550000190734863 0.46433892846107483 2.118035316467285
v -7.550000190734863 0.46433892846107483 2.2515478134155273
v -7.550000190734863 0.40641000866889954 2.3718385696411133
v -7.550000190734863 0.3020256757736206 2.4550821781158447
v -7.550000190734863 0.17186056077480316 2.4847915172576904
v -7.550000190734863 0.04169543832540512 2.4550821781158447
v -7.550000190734863 -0.06268888711929321 2.3718385696411133
v -7.550000190734863 -0.1206178143620491 2.2515478134155273
v -7.550000190734863 -0.1206178143620491 2.118035316467285
v -7.550000190734863 -0.06268888711929321 1.9977446794509888
v -7.550000190734863 0.04169543832540512 1.9145009517669678
v 0.0 0.17186056077480316 1.884791612625122
v 0.0 0.04169543832540512 1.9145009517669678
v 0.0 -0.06268888711929321 1.9977446794509888
v 0.0 -0.1206178143620491 2.118035316467285
v 0.0 -0.1206178143620491 2.2515478134155273
v 0.0 -0.06268888711929321 2.3718385696411133
v 0.0 0.04169543832540512 2.4550821781158447
v 0.0 0.17186056077480316 2.4847915172576904
v 0.0 0.3020256757736206 2.4550821781158447
v 0.0 0.40641000866889954 2.3718385696411133
v 0.0 0.46433892846107483 2.2515478134155273
v 0.0 0.46433892846107483 2.118035316467285
v 0.0 0.40641000866889954 1.9977446794509888
v 0.0 0.3020256757736206 1.9145009517669678
v 0.0 0.17186056077480316 1.884791612625122
v -7.550000190734863 0.17186056077480316 1.884791612625122
v -7.550000190734863 0.17186056077480316 1.884791612625122
v -7.550000190734863 0.04169543832540512 1.9145009517669678
v -7.550000190734863 -0.06268888711929321 1.9977446794509888
v -7.550000190734863 -0.1206178143620491 2.118035316467285
v -7.550000190734863 -0.1206178143620491 2.2515478134155273
v -7.550000190734863 -0.06268888711929321 2.3718385696411133
v -7.550000190734863 0.04169543832540512 2.4550821781158447
v -7.550000190734863 0.17186056077480316 2.4847915172576904
v -7.550000190734863 0.3020256757736206 2.4550821781158447
v -7.550000190734863 0.40641000866889954 2.3718385696411133
v -7.550000190734863 0.46433892846107483 2.2515478134155273
v -7.550000190734863 0.46433892846107483 2.118035316467285
v -7.550000190734863 0.40641000866889954 1.9977446794509888
v -7.550000190734863 0.3020256757736206 1.9145009517669678
v 9.949999809265137 0.17186056077480316 2.4847915172576904
v 9.949999809265137 0.3020256757736206 2.4550821781158447
v 9.949999809265137 0.40641000866889954 2.3718385696411133
v 9.949999809265137 0.46433892846107483 2.2515478134155273
v 9.949999809265137 0.46433892846107483 2.118035316467285
v 9.949999809265137 0.40641000866889954 1.9977446794509888
v 9.949999809265137 0.3020256757736206 1.9145009517669678
v 9.949999809265137 0.17186056077480316 1.884791612625122
v 9.949999809265137 0.04169543832540512 1.9145009517669678
v 9.949999809265137 -0.06268888711929321 1.9977446794509888
v 9.949999809265137 -0.1206178143620491 2.118035316467285
v 9.949999809265137 -0.1206178143620491 2.2515478134155273
v 9.949999809265137 -0.06268888711929321 2.3718385696411133
v 9.949999809265137 0.04169543832540512 2.4550821781158447
v 2.299999952316284 0.17186056077480316 2.4847915172576904
v 2.299999952316284 0.04169543832540512 2.4550821781158447
v 2.299999952316284 -0.06268888711929321 2.3718385696411133
v 2.299999952316284 -0.1206178143620491 2.2515478134155273
v 2.299999952316284 -0.1206178143620491 2.118035316467285
v 2.299999952316284 -0.06268888711929321 1.9977446794509888
v 2.299999952316284 0.04169543832540512 1.9145009517669678
v 2.299999952316284 0.17186056077480316 1.884791612625122
v 2.299999952316284 0.3020256757736206 1.9145009517669678
v 2.299999952316284 0.40641000866889954 1.9977446794509888
v 2.299999952316284 0.46433892846107483 2.118035316467285
v 2.299999952316284 0.46433892846107483 2.2515478134155273
v 2.299999952316284 0.40641000866889954 2.3718385696411133
v 2.299999952316284 0.3020256757736206 2.4550821781158447
v 2.299999952316284 0.17186056077480316 2.4847915172576904
v 9.949999809265137 0.17186056077480316 2.4847915172576904
v 9.949999809265137 0.17186056077480316 2.4847915172576904
v 9.949999809265137 0.04169543832540512 2.4550821781158447
v 9.949999809265137 -0.06268888711929321 2.3718385696411133
v 9.949999809265137 -0.1206178143620491 2.2515478134155273
v 9.949999809265137 -0.1206178143620491 2.118035316467285
v 9.949999809265137 -0.06268888711929321 1.9977446794509888
v 9.949999809265137 0.04169543832540512 1.9145009517669678
v 9.949999809265137 0.17186056077480316 1.884791612625122
v 9.949999809265137 0.3020256757736206 1.9145009517669678
v 9.949999809265137 0.40641000866889954 1.9977446794509888
v 9.949999809265137 0.46433892846107483 2.118035316467285
v 9.949999809265137 0.46433892846107483 2.2515478134155273
v 9.949999809265137 0.40641000866889954 2.3718385696411133
v 9.949999809265137 0.3020256757736206 2.4550821781158447
v 0.0 -0.9943298101425171 1.73479163646698
v 0.0 1.3380509614944458 1.73479163646698
v 2.299999952316284 1.3380509614944458 1.73479163646698
v 2.299999952316284 -0.9943298101425171 1.73479163646698
v 0.0 -0.9943298101425171 2.634791612625122
v 0.0 -1.0570083856582642 2.4136605262756348
v 0.0 -1.0781394243240356 2.1847915649414062
v 0.0 -1.0570083856582642 1.9559226036071777
v 0.0 -0.9943298101425171 1.73479163646698
v 2.299999952316284 -0.9943298101425171 1.73479163646698
v 2.299999952316284 -1.0570083856582642 1.9559226036071777
v 2.299999952316284 -1.0781394243240356 2.1847915649414062
v 2.299999952316284 -1.0570083856582642 2.4136605262756348
v 2.299999952316284 -0.9943298101425171 2.634791612625122
v 0.0 1.3380509614944458 2.634791612625122
v 0.0 -0.9943298101425171 2.634791612625122
v 2.299999952316284 -0.9943298101425171 2.634791612625122
v 2.299999952316284 1.3380509614944458 2.634791612625122
v 0.0 1.3380509614944458 1.73479163646698
v 0.0 1.4007295370101929 1.9559226036071777
v 0.0 1.4218605756759644 2.1847915649414062
v 0.0 1.4007295370101929 2.4136605262756348
v 0.0 1.3380509614944458 2.634791612625122
v 2.299999952316284 1.3380509614944458 2.634791612625122
v 2.299999952316284 1.4007295370101929 2.4136605262756348
v 2.299999952316284 1.4218605756759644 2.1847915649414062
v 2.299999952316284 1.4007295370101929 1.9559226036071777
v 2.299999952316284 1.3380509614944458 1.73479163646698
v 2.299999952316284 0.17186056077480316 2.4847915172576904
v 2.299999952316284 0.3020256757736206 2.4550821781158447
v 2.299999952316284 0.40641000866889954 2.3718385696411133
v 2.299999952316284 0.46433892846107483 2.2515478134155273
v 2.299999952316284 0.46433892846107483 2.118035316467285
v 2.299999952316284 0.40641000866889954 1.9977446794509888
v 2.299999952316284 0.3020256757736206 1.9145009517669678
v 2.299999952316284 0.17186056077480316 1.884791612625122
v 2.299999952316284 0.04169543832540512 1.9145009517669678
v 2.299999952316284 -0.06268888711929321 1.9977446794509888
v 2.299999952316284 -0.1206178143620491 2.118035316467285
v 2.299999952316284 -0.1206178143620491 2.2515478134155273
v 2.299999952316284 -0.06268888711929321 2.3718385696411133
v 2.299999952316284 0.04169543832540512 2.4550821781158447
v 2.299999952316284 1.3380509614944458 1.73479163646698
v 2.299999952316284 1.4007295370101929 1.9559226036071777
v 2.299999952316284 1.4218605756759644 2.1847915649414062
v 2.299999952316284 1.4007295370101929 2.4136605262756348
v 2.299999952316284 1.3380509614944458 2.634791612625122
v 2.299999952316284 -0.9943298101425171 2.634791612625122
v 2.299999952316284 -1.0570083856582642 2.4136605262756348
v 2.299999952316284 -1.0781394243240356 2.1847915649414062
v 2.299999952316284 -1.0570083856582642 1.9559226036071777
v 2.299999952316284 -0.9943298101425171 1.73479163646698
v 0.0 0.17186056077480316 1.884791612625122
v 0.0 0.3020256757736206 1.9145009517669678
v 0.0 0.40641000866889954 1.9977446794509888
v 0.0 0.46433892846107483 2.118035316467285
v 0.0 0.46433892846107483 2.2515478134155273
v 0.0 0.40641000866889954 2.3718385696411133
v 0.0 0.3020256757736206 2.4550821781158447
v 0.0 0.17186056077480316 2.4847915172576904
v 0.0 0.04169543832540512 2.4550821781158447
v 0.0 -0.06268888711929321 2.3718385696411133
v 0.0 -0.1206178143620491 2.2515478134155273
v 0.0 -0.1206178143620491 2.118035316467285
v 0.0 -0.06268888711929321 1.9977446794509888
v 0.0 0.04169543832540512 1.9145009517669678
v 0.0 1.3380509614944458 2.634791612625122
v 0.0 1.4007295370101929 2.4136605262756348
v 0.0 1.4218605756759644 2.1847915649414062
v 0.0 1.4007295370101929 1.9559226036071777
v 0.0 1.3380509614944458 1.73479163646698
v 0.0 -0.9943298101425171 1.73479163646698
v 0.0 -1.0570083856582642 1.9559226036071777
v 0.0 -1.0781394243240356 2.1847915649414062
v 0.0 -1.0570083856582642 2.4136605262756348
v 0.0 -0.9943298101425171 2.634791612625122
vn -0.0 1.2246468525851679e-16 -1.0
vn -0.0 0.4338837265968323 -0.9009688496589661
vn -0.0 0.7818315029144287 -0.6234897971153259
vn -0.0 0.9749279022216797 -0.22252093255519867
vn 0.0 0.9749279022216797 0.22252093255519867
vn 0.0 0.7818315029144287 0.6234897971153259
vn 0.0 0.4338837265968323 0.9009688496589661
vn 0.0 -0.0 1.0
vn -0.0 -0.4338837265968323 0.9009688496589661
vn -0.0 -0.7818315029144287 0.6234897971153259
vn -0.0 -0.9749279022216797 0.22252093255519867
vn -0.0 -0.9749279022216797 -0.22252093255519867
vn -0.0 -0.7818315029144287 -0.6234897971153259
vn -0.0 -0.4338837265968323 -0.9009688496589661
vn -0.0 -1.2246468525851679e-16 -1.0
vn -0.0 -0.4338837265968323 -0.9009688496589661
vn -0.0 -0.7818315029144287 -0.6234897971153259
vn -0.0 -0.9749279022216797 -0.22252093255519867
vn -0.0 -0.9749279022216797 0.22252093255519867
vn -0.0 -0.7818315029144287 0.6234897971153259
vn -0.0 -0.4338837265968323 0.9009688496589661
vn 0.0 -0.0 1.0
vn 0.0 0.4338837265968323 0.9009688496589661
vn 0.0 0.7818315029144287 0.6234897971153259
vn 0.0 0.9749279022216797 0.22252093255519867
vn -0.0 0.9749279022216797 -0.22252093255519867
vn -0.0 0.7818315029144287 -0.6234897971153259
vn -0.0 0.4338837265968323 -0.9009688496589661
vn -0.0 1.2246468525851679e-16 -1.0
vn -0.0 -1.2246468525851679e-16 -1.0
vn -1.0 0.0 0.0
vn -1.0 0.0 0.0
vn -1.0 0.0 0.0
vn -1.0 0.0 0.0
vn -1.0 0.0 0.0
vn -1.0 0.0 0.0
vn -1.0 0.0 0.0
vn -1.0 0.0 0.0
vn -1.0 0.0 0.0
vn -1.0 0.0 0.0
vn -1.0 0.0 0.0
vn -1.0 0.0 0.0
vn -1.0 0.0 0.0
vn -1.0 0.0 0.0
vn -0.0 1.2246468525851679e-16 1.0
vn -0.0 0.4338837265968323 0.9009688496589661
vn -0.0 0.7818315029144287 0.6234897971153259
vn -0.0 0.9749279022216797 0.22252093255519867
vn -0.0 0.9749279022216797 -0.22252093255519867
vn -0.0 0.7818315029144287 -0.6234897971153259
vn -0.0 0.4338837265968323 -0.9009688496589661
vn -0.0 0.0 -1.0
vn 0.0 -0.4338837265968323 -0.9009688496589661
vn 0.0 -0.7818315029144287 -0.6234897971153259
vn 0.0 -0.9749279022216797 -0.22252093255519867
vn -0.0 -0.9749279022216797 0.22252093255519867
vn -0.0 -0.7818315029144287 0.6234897971153259
vn -0.0 -0.4338837265968323 0.9009688496589661
vn -0.0 -1.2246468525851679e-16 1.0
vn -0.0 -0.4338837265968323 0.9009688496589661
vn -0.0 -0.7818315029144287 0.6234897971153259
vn -0.0 -0.9749279022216797 0.22252093255519867
vn 0.0 -0.9749279022216797 -0.22252093255519867
vn 0.0 -0.7818315029144287 -0.6234897971153259
vn 0.0 -0.4338837265968323 -0.9009688496589661
vn -0.0 0.0 -1.0
vn -0.0 0.4338837265968323 -0.9009688496589661
vn -0.0 0.7818315029144287 -0.6234897971153259
vn -0.0 0.9749279022216797 -0.22252093255519867
vn -0.0 0.9749279022216797 0.22252093255519867
vn -0.0 0.7818315029144287 0.6234897971153259
vn -0.0 0.4338837265968323 0.9009688496589661
vn -0.0 1.2246468525851679e-16 1.0
vn -0.0 -1.2246468525851679e-16 1.0
vn 1.0 0.0 0.0
vn 1.0 0.0 0.0
vn 1.0 0.0 0.0
vn 1.0 0.0 0.0
vn 1.0 0.0 0.0
vn 1.0 0.0 0.0
vn 1.0 0.0 0.0
vn 1.0 0.0 0.0
vn 1.0 0.0 0.0
vn 1.0 0.0 0.0
vn 1.0 0.0 0.0
vn 1.0 0.0 0.0
vn 1.0 0.0 0.0
vn 1.0 0.0 0.0
vn 0.0 0.0 -1.0
vn 0.0 0.0 -1.0
vn 0.0 0.0 -1.0
vn 0.0 0.0 -1.0
vn -0.0 -0.9329522848129272 0.36000001430511475
vn -0.0 -0.9830951690673828 0.18309518694877625
vn 0.0 -1.0 -6.661338147750939e-16
vn 0.0 -0.9830951690673828 -0.18309518694877625
vn 0.0 -0.9329522848129272 -0.36000001430511475
vn 0.0 -0.9329522848129272 -0.36000001430511475
vn 0.0 -0.9830951690673828 -0.18309518694877625
vn 0.0 -1.0 -6.661338147750939e-16
vn -0.0 -0.9830951690673828 0.18309518694877625
vn -0.0 -0.9329522848129272 0.36000001430511475
vn -0.0 0.0 1.0
vn -0.0 0.0 1.0
vn -0.0 0.0 1.0
vn -0.0 0.0 1.0
vn -0.0 0.9329522848129272 -0.36000001430511475
vn -0.0 0.9830951690673828 -0.18309518694877625
vn -0.0 1.0 -0.0
vn -0.0 0.9830951690673828 0.18309518694877625
vn -0.0 0.9329522848129272 0.36000001430511475
vn -0.0 0.9329522848129272 0.36000001430511475
vn -0.0 0.9830951690673828 0.18309518694877625
vn -0.0 1.0 -0.0
vn -0.0 0.9830951690673828 -0.18309518694877625
vn -0.0 0.9329522848129272 -0.36000001430511475
vn 1.0 0.0 0.0
vn 1.0 0.0 0.0
vn 1.0 0.0 0.0
vn 1.0 0.0 0.0
vn 1.0 0.0 0.0
vn 1.0 0.0 0.0
vn 1.0 0.0 0.0
vn 1.0 0.0 0.0
vn 1.0 0.0 0.0
vn 1.0 0.0 0.0
vn 1.0 0.0 0.0
vn 1.0 0.0 0.0
vn 1.0 0.0 0.0
vn 1.0 0.0 0.0
vn 1.0 0.0 0.0
vn 1.0 0.0 0.0
vn 1.0 0.0 0.0
vn 1.0 0.0 0.0
vn 1.0 0.0 0.0
vn 1.0 0.0 0.0
vn 1.0 0.0 0.0
vn 1.0 0.0 0.0
vn 1.0 0.0 0.0
vn 1.0 0.0 0.0
vn -1.0 -0.0 -0.0
vn -1.0 -0.0 -0.0
vn -1.0 -0.0 -0.0
vn -1.0 -0.0 -0.0
vn -1.0 -0.0 -0.0
vn -1.0 -0.0 -0.0
vn -1.0 -0.0 -0.0
vn -1.0 -0.0 -0.0
vn -1.0 -0.0 -0.0
vn -1.0 -0.0 -0.0
vn -1.0 -0.0 -0.0
vn -1.0 -0.0 -0.0
vn -1.0 -0.0 -0.0
vn -1.0 -0.0 -0.0
vn -1.0 -0.0 -0.0
vn -1.0 -0.0 -0.0
vn -1.0 -0.0 -0.0
vn -1.0 -0.0 -0.0
vn -1.0 -0.0 -0.0
vn -1.0 -0.0 -0.0
vn -1.0 -0.0 -0.0
vn -1.0 -0.0 -0.0
vn -1.0 -0.0 -0.0
vn -1.0 -0.0 -0.0
g 42944376-e2d7-11ea-ac1e-54bf646e7e1f
f 2//2 28//28 1//1
f 1//1 28//28 29//29
f 30//30 15//15 14//14
f 14//14 15//15 16//16
f 14//14 16//16 17//17
f 2//2 3//3 28//28
f 28//28 3//3 27//27
f 27//27 3//3 4//4
f 27//27 4//4 26//26
f 26//26 4//4 5//5
f 26//26 5//5 25//25
f 25//25 5//5 6//6
f 25//25 6//6 24//24
f 24//24 6//6 7//7
f 24//24 7//7 23//23
f 23//23 7//7 8//8
f 23//23 8//8 22//22
f 22//22 8//8 9//9
f 22//22 9//9 21//21
f 21//21 9//9 10//10
f 21//21 10//10 20//20
f 20//20 10//10 11//11
f 20//20 11//11 19//19
f 19//19 11//11 12//12
f 19//19 12//12 18//18
f 18//18 12//12 13//13
f 18//18 13//13 17//17
f 17//17 13//13 14//14
g 429e5834-e2d7-11ea-a491-54bf646e7e1f
f 32//32 37//37 31//31
f 31//31 37//37 38//38
f 31//31 38//38 44//44
f 44//44 38//38 39//39
f 44//44 39//39 43//43
f 43//43 39//39 40//40
f 43//43 40//40 42//42
f 42//42 40//40 41//41
f 37//37 32//32 36//36
f 36//36 32//32 33//33
f 36//36 33//33 35//35
f 35//35 33//33 34//34
g 4157085a-e2d7-11ea-850c-54bf646e7e1f
f 46//46 72//72 45//45
f 45//45 72//72 73//73
f 74//74 59//59 58//58
f 58//58 59//59 60//60
f 58//58 60//60 61//61
f 46//46 47//47 72//72
f 72//72 47//47 71//71
f 71//71 47//47 48//48
f 71//71 48//48 70//70
f 70//70 48//48 49//49
f 70//70 49//49 69//69
f 69//69 49//49 50//50
f 69//69 50//50 68//68
f 68//68 50//50 51//51
f 68//68 51//51 67//67
f 67//67 51//51 52//52
f 67//67 52//52 66//66
f 66//66 52//52 53//53
f 66//66 53//53 65//65
f 65//65 53//53 54//54
f 65//65 54//54 64//64
f 64//64 54//54 55//55
f 64//64 55//55 63//63
f 63//63 55//55 56//56
f 63//63 56//56 62//62
f 62//62 56//56 57//57
f 62//62 57//57 61//61
f 61//61 57//57 58//58
g 41782d48-e2d7-11ea-aac9-54bf646e7e1f
f 76//76 81//81 75//75
f 75//75 81//81 82//82
f 75//75 82//82 88//88
f 88//88 82//82 83//83
f 88//88 83//83 87//87
f 87//87 83//83 84//84
f 87//87 84//84 86//86
f 86//86 84//84 85//85
f 81//81 76//76 80//80
f 80//80 76//76 77//77
f 80//80 77//77 79//79
f 79//79 77//77 78//78
g 4010f106-e2d7-11ea-a9de-54bf646e7e1f
f 89//89 90//90 92//92
f 92//92 90//90 91//91
g 401b53e8-e2d7-11ea-b105-54bf646e7e1f
f 102//102 93//93 101//101
f 101//101 93//93 94//94
f 101//101 94//94 100//100
f 100//100 94//94 95//95
f 100//100 95//95 99//99
f 99//99 95//95 96//96
f 99//99 96//96 98//98
f 98//98 96//96 97//97
g 4024cc40-e2d7-11ea-890d-54bf646e7e1f
f 103//103 104//104 106//106
f 106//106 104//104 105//105
g 402e6b8c-e2d7-11ea-ae7b-54bf646e7e1f
f 116//116 107//107 115//115
f 115//115 107//107 108//108
f 115//115 108//108 114//114
f 114//114 108//108 109//109
f 114//114 109//109 113//113
f 113//113 109//109 110//110
f 113//113 110//110 112//112
f 112//112 110//110 111//111
g 403831e8-e2d7-11ea-aecd-54bf646e7e1f
f 118//118 135//135 117//117
f 117//117 135//135 136//136
f 117//117 136//136 130//130
f 130//130 136//136 129//129
f 129//129 136//136 137//137
f 129//129 137//137 128//128
f 128//128 137//137 138//138
f 128//128 138//138 127//127
f 127//127 138//138 139//139
f 127//127 139//139 126//126
f 126//126 139//139 140//140
f 126//126 140//140 125//125
f 125//125 140//140 124//124
f 124//124 140//140 131//131
f 124//124 131//131 123//123
f 123//123 131//131 122//122
f 122//122 131//131 132//132
f 122//122 132//132 121//121
f 121//121 132//132 133//133
f 121//121 133//133 120//120
f 120//120 133//133 134//134
f 120//120 134//134 119//119
f 119//119 134//134 135//135
f 119//119 135//135 118//118
g 404442fe-e2d7-11ea-9fbc-54bf646e7e1f
f 142//142 159//159 141//141
f 141//141 159//159 160//160
f 141//141 160//160 154//154
f 154//154 160//160 153//153
f 153//153 160//160 161//161
f 153//153 161//161 152//152
f 152//152 161//161 162//162
f 152//152 162//162 151//151
f 151//151 162//162 163//163
f 151//151 163//163 150//150
f 150//150 163//163 164//164
f 150//150 164//164 149//149
f 149//149 164//164 148//148
f 148//148 164//164 155//155
f 148//148 155//155 147//147
f 147//147 155//155 146//146
f 146//146 155//155 156//156
f 146//146 156//156 145//145
f 145//145 156//156 157//157
f 145//145 157//157 144//144
f 144//144 157//157 158//158
f 144//144 158//158 143//143
f 143//143 158//158 159//159
f 143//143 159//159 142//142

# End of file