# WaveFront *.obj file
# Vertices: 280
# Triangles : 244

v -2.0 -1.5 -0.75
v -2.0 -1.5 0.75
v -4.0 -1.5 0.75
v -4.0 -1.5 -0.75
v 2.0 -1.5 0.75
v 2.0 -1.5 -0.75
v 4.0 -1.5 -0.75
v 4.0 -1.5 0.75
v -2.0 1.5 0.75
v -2.0 1.5 -0.75
v -4.0 1.5 -0.75
v -4.0 1.5 0.75
v 2.0 1.5 -0.75
v 2.0 1.5 0.75
v 4.0 1.5 0.75
v 4.0 1.5 -0.75
v 1.0 1.5 0.75
v 1.0 1.5 -0.75
v -1.0 1.5 -0.75
v -1.0 1.5 0.75
v -4.0 -1.5 0.75
v -4.0 1.5 0.75
v -4.0 1.5 -0.75
v -4.0 -1.5 -0.75
v 1.0 -1.5 -0.75
v 1.0 -1.5 0.75
v -1.0 -1.5 0.75
v -1.0 -1.5 -0.75
v 4.0 1.5 0.75
v 4.0 -1.5 0.75
v 4.0 -1.5 -0.75
v 4.0 1.5 -0.75
v 1.0 1.5 -0.75
v 1.0 1.5 0.75
v 1.0 15.0 0.75
v 1.0 15.0 -0.75
v 1.0 -1.5 0.75
v 1.0 -1.5 -0.75
v 1.0 -15.0 -0.75
v 1.0 -15.0 0.75
v 2.0 1.5 0.75
v 2.0 1.5 -0.75
v 2.0 15.0 -0.75
v 2.0 15.0 0.75
v -2.0 1.5 -0.75
v -2.0 1.5 0.75
v -2.0 15.0 0.75
v -2.0 15.0 -0.75
v -2.0 -1.5 0.75
v -2.0 -1.5 -0.75
v -2.0 -15.0 -0.75
v -2.0 -15.0 0.75
v -1.0 1.5 0.75
v -1.0 1.5 -0.75
v -1.0 15.0 -0.75
v -1.0 15.0 0.75
v 1.0 1.5 -0.75
v 1.0 15.0 -0.75
v 0.9396926164627075 15.342020034790039 -0.75
v 0.7660444378852844 15.64278793334961 -0.75
v 0.5 15.8660249710083 -0.75
v 0.1736481785774231 15.984807968139648 -0.75
v -0.1736481785774231 15.984807968139648 -0.75
v -0.5 15.8660249710083 -0.75
v -0.7660444378852844 15.64278793334961 -0.75
v -0.9396926164627075 15.342020034790039 -0.75
v -1.0 15.0 -0.75
v -1.0 1.5 -0.75
v 2.0 -1.5 -0.75
v 2.0 -15.0 -0.75
v 1.9418836832046509 -15.478631019592285 -0.75
v 1.7709120512008667 -15.92944622039795 -0.75
v 1.4970215559005737 -16.32624626159668 -0.75
v 1.1361294984817505 -16.645967483520508 -0.75
v 0.7092097997665405 -16.870033264160156 -0.75
v 0.2410733550786972 -16.98541831970215 -0.75
v -0.2410733550786972 -16.98541831970215 -0.75
v -0.7092097997665405 -16.870033264160156 -0.75
v -1.1361294984817505 -16.645967483520508 -0.75
v -1.4970215559005737 -16.32624626159668 -0.75
v -1.7709120512008667 -15.92944622039795 -0.75
v -1.9418836832046509 -15.478631019592285 -0.75
v -2.0 -15.0 -0.75
v -2.0 -1.5 -0.75
v -4.0 -1.5 -0.75
v -4.0 1.5 -0.75
v -2.0 1.5 -0.75
v -2.0 15.0 -0.75
v -1.9418836832046509 15.478631019592285 -0.75
v -1.7709120512008667 15.92944622039795 -0.75
v -1.4970215559005737 16.32624626159668 -0.75
v -1.1361294984817505 16.645967483520508 -0.75
v -0.7092097997665405 16.870033264160156 -0.75
v -0.2410733550786972 16.98541831970215 -0.75
v 0.2410733550786972 16.98541831970215 -0.75
v 0.7092097997665405 16.870033264160156 -0.75
v 1.1361294984817505 16.645967483520508 -0.75
v 1.4970215559005737 16.32624626159668 -0.75
v 1.7709120512008667 15.92944622039795 -0.75
v 1.9418836832046509 15.478631019592285 -0.75
v 2.0 15.0 -0.75
v 2.0 1.5 -0.75
v 4.0 1.5 -0.75
v 4.0 -1.5 -0.75
v 1.0 -1.5 -0.75
v -1.0 -1.5 -0.75
v -1.0 -15.0 -0.75
v -0.9396926164627075 -15.342020034790039 -0.75
v -0.7660444378852844 -15.64278793334961 -0.75
v -0.5 -15.8660249710083 -0.75
v -0.1736481785774231 -15.984807968139648 -0.75
v 0.1736481785774231 -15.984807968139648 -0.75
v 0.5 -15.8660249710083 -0.75
v 0.7660444378852844 -15.64278793334961 -0.75
v 0.9396926164627075 -15.342020034790039 -0.75
v 1.0 -15.0 -0.75
v -1.0 -1.5 -0.75
v -1.0 -1.5 0.75
v -1.0 -15.0 0.75
v -1.0 -15.0 -0.75
v -1.0 -15.0 -0.75
v -1.0 -15.0 0.75
v -0.9396926164627075 -15.342020034790039 0.75
v -0.7660444378852844 -15.64278793334961 0.75
v -0.5 -15.8660249710083 0.75
v -0.1736481785774231 -15.984807968139648 0.75
v 0.1736481785774231 -15.984807968139648 0.75
v 0.5 -15.8660249710083 0.75
v 0.7660444378852844 -15.64278793334961 0.75
v 0.9396926164627075 -15.342020034790039 0.75
v 1.0 -15.0 0.75
v 1.0 -15.0 -0.75
v 0.9396926164627075 -15.342020034790039 -0.75
v 0.7660444378852844 -15.64278793334961 -0.75
v 0.5 -15.8660249710083 -0.75
v 0.1736481785774231 -15.984807968139648 -0.75
v -0.1736481785774231 -15.984807968139648 -0.75
v -0.5 -15.8660249710083 -0.75
v -0.7660444378852844 -15.64278793334961 -0.75
v -0.9396926164627075 -15.342020034790039 -0.75
v 1.0 15.0 -0.75
v 1.0 15.0 0.75
v 0.9396926164627075 15.342020034790039 0.75
v 0.7660444378852844 15.64278793334961 0.75
v 0.5 15.8660249710083 0.75
v 0.1736481785774231 15.984807968139648 0.75
v -0.1736481785774231 15.984807968139648 0.75
v -0.5 15.8660249710083 0.75
v -0.7660444378852844 15.64278793334961 0.75
v -0.9396926164627075 15.342020034790039 0.75
v -1.0 15.0 0.75
v -1.0 15.0 -0.75
v -0.9396926164627075 15.342020034790039 -0.75
v -0.7660444378852844 15.64278793334961 -0.75
v -0.5 15.8660249710083 -0.75
v -0.1736481785774231 15.984807968139648 -0.75
v 0.1736481785774231 15.984807968139648 -0.75
v 0.5 15.8660249710083 -0.75
v 0.7660444378852844 15.64278793334961 -0.75
v 0.9396926164627075 15.342020034790039 -0.75
v 2.0 -1.5 -0.75
v 2.0 -1.5 0.75
v 2.0 -15.0 0.75
v 2.0 -15.0 -0.75
v 2.0 -15.0 -0.75
v 2.0 -15.0 0.75
v 1.9418836832046509 -15.478631019592285 0.75
v 1.7709120512008667 -15.92944622039795 0.75
v 1.4970215559005737 -16.32624626159668 0.75
v 1.1361294984817505 -16.645967483520508 0.75
v 0.7092097997665405 -16.870033264160156 0.75
v 0.2410733550786972 -16.98541831970215 0.75
v -0.2410733550786972 -16.98541831970215 0.75
v -0.7092097997665405 -16.870033264160156 0.75
v -1.1361294984817505 -16.645967483520508 0.75
v -1.4970215559005737 -16.32624626159668 0.75
v -1.7709120512008667 -15.92944622039795 0.75
v -1.9418836832046509 -15.478631019592285 0.75
v -2.0 -15.0 0.75
v -2.0 -15.0 -0.75
v -1.9418836832046509 -15.478631019592285 -0.75
v -1.7709120512008667 -15.92944622039795 -0.75
v -1.4970215559005737 -16.32624626159668 -0.75
v -1.1361294984817505 -16.645967483520508 -0.75
v -0.7092097997665405 -16.870033264160156 -0.75
v -0.2410733550786972 -16.98541831970215 -0.75
v 0.2410733550786972 -16.98541831970215 -0.75
v 0.7092097997665405 -16.870033264160156 -0.75
v 1.1361294984817505 -16.645967483520508 -0.75
v 1.4970215559005737 -16.32624626159668 -0.75
v 1.7709120512008667 -15.92944622039795 -0.75
v 1.9418836832046509 -15.478631019592285 -0.75
v -2.0 15.0 -0.75
v -2.0 15.0 0.75
v -1.9418836832046509 15.478631019592285 0.75
v -1.7709120512008667 15.92944622039795 0.75
v -1.4970215559005737 16.32624626159668 0.75
v -1.1361294984817505 16.645967483520508 0.75
v -0.7092097997665405 16.870033264160156 0.75
v -0.2410733550786972 16.98541831970215 0.75
v 0.2410733550786972 16.98541831970215 0.75
v 0.7092097997665405 16.870033264160156 0.75
v 1.1361294984817505 16.645967483520508 0.75
v 1.4970215559005737 16.32624626159668 0.75
v 1.7709120512008667 15.92944622039795 0.75
v 1.9418836832046509 15.478631019592285 0.75
v 2.0 15.0 0.75
v 2.0 15.0 -0.75
v 1.9418836832046509 15.478631019592285 -0.75
v 1.7709120512008667 15.92944622039795 -0.75
v 1.4970215559005737 16.32624626159668 -0.75
v 1.1361294984817505 16.645967483520508 -0.75
v 0.7092097997665405 16.870033264160156 -0.75
v 0.2410733550786972 16.98541831970215 -0.75
v -0.2410733550786972 16.98541831970215 -0.75
v -0.7092097997665405 16.870033264160156 -0.75
v -1.1361294984817505 16.645967483520508 -0.75
v -1.4970215559005737 16.32624626159668 -0.75
v -1.7709120512008667 15.92944622039795 -0.75
v -1.9418836832046509 15.478631019592285 -0.75
v 1.0 -1.5 0.75
v 1.0 -15.0 0.75
v 0.9396926164627075 -15.342020034790039 0.75
v 0.7660444378852844 -15.64278793334961 0.75
v 0.5 -15.8660249710083 0.75
v 0.1736481785774231 -15.984807968139648 0.75
v -0.1736481785774231 -15.984807968139648 0.75
v -0.5 -15.8660249710083 0.75
v -0.7660444378852844 -15.64278793334961 0.75
v -0.9396926164627075 -15.342020034790039 0.75
v -1.0 -15.0 0.75
v -1.0 -1.5 0.75
v 1.0 1.5 0.75
v -1.0 1.5 0.75
v -1.0 15.0 0.75
v -0.9396926164627075 15.342020034790039 0.75
v -0.7660444378852844 15.64278793334961 0.75
v -0.5 15.8660249710083 0.75
v -0.1736481785774231 15.984807968139648 0.75
v 0.1736481785774231 15.984807968139648 0.75
v 0.5 15.8660249710083 0.75
v 0.7660444378852844 15.64278793334961 0.75
v 0.9396926164627075 15.342020034790039 0.75
v 1.0 15.0 0.75
v 2.0 1.5 0.75
v 2.0 15.0 0.75
v 1.9418836832046509 15.478631019592285 0.75
v 1.7709120512008667 15.92944622039795 0.75
v 1.4970215559005737 16.32624626159668 0.75
v 1.1361294984817505 16.645967483520508 0.75
v 0.7092097997665405 16.870033264160156 0.75
v 0.2410733550786972 16.98541831970215 0.75
v -0.2410733550786972 16.98541831970215 0.75
v -0.7092097997665405 16.870033264160156 0.75
v -1.1361294984817505 16.645967483520508 0.75
v -1.4970215559005737 16.32624626159668 0.75
v -1.7709120512008667 15.92944622039795 0.75
v -1.9418836832046509 15.478631019592285 0.75
v -2.0 15.0 0.75
v -2.0 1.5 0.75
v -4.0 1.5 0.75
v -4.0 -1.5 0.75
v -2.0 -1.5 0.75
v -2.0 -15.0 0.75
v -1.9418836832046509 -15.478631019592285 0.75
v -1.7709120512008667 -15.92944622039795 0.75
v -1.4970215559005737 -16.32624626159668 0.75
v -1.1361294984817505 -16.645967483520508 0.75
v -0.7092097997665405 -16.870033264160156 0.75
v -0.2410733550786972 -16.98541831970215 0.75
v 0.2410733550786972 -16.98541831970215 0.75
v 0.7092097997665405 -16.870033264160156 0.75
v 1.1361294984817505 -16.645967483520508 0.75
v 1.4970215559005737 -16.32624626159668 0.75
v 1.7709120512008667 -15.92944622039795 0.75
v 1.9418836832046509 -15.478631019592285 0.75
v 2.0 -15.0 0.75
v 2.0 -1.5 0.75
v 4.0 -1.5 0.75
v 4.0 1.5 0.75
vn 0.0 -1.0 0.0
vn 0.0 -1.0 0.0
vn 0.0 -1.0 0.0
vn 0.0 -1.0 0.0
vn 0.0 -1.0 0.0
vn 0.0 -1.0 0.0
vn 0.0 -1.0 0.0
vn 0.0 -1.0 0.0
vn 0.0 1.0 0.0
vn 0.0 1.0 0.0
vn 0.0 1.0 0.0
vn 0.0 1.0 0.0
vn 0.0 1.0 0.0
vn 0.0 1.0 0.0
vn 0.0 1.0 0.0
vn 0.0 1.0 0.0
vn 0.0 1.0 0.0
vn 0.0 1.0 0.0
vn 0.0 1.0 0.0
vn 0.0 1.0 0.0
vn -1.0 0.0 0.0
vn -1.0 0.0 0.0
vn -1.0 0.0 0.0
vn -1.0 0.0 0.0
vn 0.0 -1.0 0.0
vn 0.0 -1.0 0.0
vn 0.0 -1.0 0.0
vn 0.0 -1.0 0.0
vn 1.0 0.0 0.0
vn 1.0 0.0 0.0
vn 1.0 0.0 0.0
vn 1.0 0.0 0.0
vn -1.0 0.0 0.0
vn -1.0 0.0 0.0
vn -1.0 0.0 0.0
vn -1.0 0.0 0.0
vn -1.0 0.0 0.0
vn -1.0 0.0 0.0
vn -1.0 0.0 0.0
vn -1.0 0.0 0.0
vn 1.0 0.0 0.0
vn 1.0 0.0 0.0
vn 1.0 0.0 0.0
vn 1.0 0.0 0.0
vn -1.0 0.0 0.0
vn -1.0 0.0 0.0
vn -1.0 0.0 0.0
vn -1.0 0.0 0.0
vn -1.0 0.0 0.0
vn -1.0 0.0 0.0
vn -1.0 0.0 0.0
vn -1.0 0.0 0.0
vn 1.0 0.0 -0.0
vn 1.0 0.0 -0.0
vn 1.0 0.0 -0.0
vn 1.0 0.0 -0.0
vn -0.0 -0.0 -1.0
vn -0.0 -0.0 -1.0
vn -0.0 -0.0 -1.0
vn -0.0 -0.0 -1.0
vn -0.0 -0.0 -1.0
vn -0.0 -0.0 -1.0
vn -0.0 -0.0 -1.0
vn -0.0 -0.0 -1.0
vn -0.0 -0.0 -1.0
vn -0.0 -0.0 -1.0
vn -0.0 -0.0 -1.0
vn -0.0 -0.0 -1.0
vn -0.0 -0.0 -1.0
vn -0.0 -0.0 -1.0
vn -0.0 -0.0 -1.0
vn -0.0 -0.0 -1.0
vn -0.0 -0.0 -1.0
vn -0.0 -0.0 -1.0
vn -0.0 -0.0 -1.0
vn -0.0 -0.0 -1.0
vn -0.0 -0.0 -1.0
vn -0.0 -0.0 -1.0
vn -0.0 -0.0 -1.0
vn -0.0 -0.0 -1.0
vn -0.0 -0.0 -1.0
vn -0.0 -0.0 -1.0
vn -0.0 -0.0 -1.0
vn -0.0 -0.0 -1.0
vn -0.0 -0.0 -1.0
vn -0.0 -0.0 -1.0
vn -0.0 -0.0 -1.0
vn -0.0 -0.0 -1.0
vn -0.0 -0.0 -1.0
vn -0.0 -0.0 -1.0
vn -0.0 -0.0 -1.0
vn -0.0 -0.0 -1.0
vn -0.0 -0.0 -1.0
vn -0.0 -0.0 -1.0
vn -0.0 -0.0 -1.0
vn -0.0 -0.0 -1.0
vn -0.0 -0.0 -1.0
vn -0.0 -0.0 -1.0
vn -0.0 -0.0 -1.0
vn -0.0 -0.0 -1.0
vn -0.0 -0.0 -1.0
vn -0.0 -0.0 -1.0
vn -0.0 -0.0 -1.0
vn -0.0 -0.0 -1.0
vn -0.0 -0.0 -1.0
vn -0.0 -0.0 -1.0
vn -0.0 -0.0 -1.0
vn -0.0 -0.0 -1.0
vn -0.0 -0.0 -1.0
vn -0.0 -0.0 -1.0
vn -0.0 -0.0 -1.0
vn -0.0 -0.0 -1.0
vn -0.0 -0.0 -1.0
vn -0.0 -0.0 -1.0
vn -0.0 -0.0 -1.0
vn -0.0 -0.0 -1.0
vn 1.0 0.0 -0.0
vn 1.0 0.0 -0.0
vn 1.0 0.0 -0.0
vn 1.0 0.0 -0.0
vn 1.0 0.0 -0.0
vn 1.0 0.0 -0.0
vn 0.9396926164627075 0.3420201539993286 -0.0
vn 0.7660444378852844 0.6427876353263855 -0.0
vn 0.5 0.8660253882408142 -0.0
vn 0.1736481785774231 0.9848077297210693 -0.0
vn -0.1736481785774231 0.9848077297210693 0.0
vn -0.5 0.8660253882408142 0.0
vn -0.7660444378852844 0.6427876353263855 0.0
vn -0.9396926164627075 0.3420201539993286 0.0
vn -1.0 1.2246468525851679e-16 0.0
vn -1.0 1.2246468525851679e-16 0.0
vn -0.9396926164627075 0.3420201539993286 0.0
vn -0.7660444378852844 0.6427876353263855 0.0
vn -0.5 0.8660253882408142 0.0
vn -0.1736481785774231 0.9848077297210693 0.0
vn 0.1736481785774231 0.9848077297210693 -0.0
vn 0.5 0.8660253882408142 -0.0
vn 0.7660444378852844 0.6427876353263855 -0.0
vn 0.9396926164627075 0.3420201539993286 -0.0
vn -1.0 0.0 0.0
vn -1.0 0.0 0.0
vn -0.9396926164627075 -0.3420201539993286 0.0
vn -0.7660444378852844 -0.6427876353263855 0.0
vn -0.5 -0.8660253882408142 0.0
vn -0.1736481785774231 -0.9848077297210693 0.0
vn 0.1736481785774231 -0.9848077297210693 0.0
vn 0.5 -0.8660253882408142 0.0
vn 0.7660444378852844 -0.6427876353263855 0.0
vn 0.9396926164627075 -0.3420201539993286 0.0
vn 1.0 -1.2246468525851679e-16 0.0
vn 1.0 -1.2246468525851679e-16 0.0
vn 0.9396926164627075 -0.3420201539993286 0.0
vn 0.7660444378852844 -0.6427876353263855 0.0
vn 0.5 -0.8660253882408142 0.0
vn 0.1736481785774231 -0.9848077297210693 0.0
vn -0.1736481785774231 -0.9848077297210693 0.0
vn -0.5 -0.8660253882408142 0.0
vn -0.7660444378852844 -0.6427876353263855 0.0
vn -0.9396926164627075 -0.3420201539993286 0.0
vn 1.0 0.0 0.0
vn 1.0 0.0 0.0
vn 1.0 0.0 0.0
vn 1.0 0.0 0.0
vn 1.0 -1.2246468525851679e-16 -0.0
vn 1.0 -1.2246468525851679e-16 -0.0
vn 0.9709418416023254 -0.23931565880775452 -0.0
vn 0.8854560256004333 -0.4647231698036194 -0.0
vn 0.7485107779502869 -0.6631226539611816 -0.0
vn 0.5680647492408752 -0.8229838609695435 -0.0
vn 0.35460489988327026 -0.9350162148475647 -0.0
vn 0.1205366775393486 -0.9927088618278503 -0.0
vn -0.1205366775393486 -0.9927088618278503 0.0
vn -0.35460489988327026 -0.9350162148475647 0.0
vn -0.5680647492408752 -0.8229838609695435 0.0
vn -0.7485107779502869 -0.6631226539611816 0.0
vn -0.8854560256004333 -0.4647231698036194 0.0
vn -0.9709418416023254 -0.23931565880775452 0.0
vn -1.0 -0.0 0.0
vn -1.0 -0.0 0.0
vn -0.9709418416023254 -0.23931565880775452 0.0
vn -0.8854560256004333 -0.4647231698036194 0.0
vn -0.7485107779502869 -0.6631226539611816 0.0
vn -0.5680647492408752 -0.8229838609695435 0.0
vn -0.35460489988327026 -0.9350162148475647 0.0
vn -0.1205366775393486 -0.9927088618278503 0.0
vn 0.1205366775393486 -0.9927088618278503 -0.0
vn 0.35460489988327026 -0.9350162148475647 -0.0
vn 0.5680647492408752 -0.8229838609695435 -0.0
vn 0.7485107779502869 -0.6631226539611816 -0.0
vn 0.8854560256004333 -0.4647231698036194 -0.0
vn 0.9709418416023254 -0.23931565880775452 -0.0
vn -1.0 1.2246468525851679e-16 -0.0
vn -1.0 1.2246468525851679e-16 -0.0
vn -0.9709418416023254 0.23931565880775452 -0.0
vn -0.8854560256004333 0.4647231698036194 -0.0
vn -0.7485107779502869 0.6631226539611816 -0.0
vn -0.5680647492408752 0.8229838609695435 -0.0
vn -0.35460489988327026 0.9350162148475647 -0.0
vn -0.1205366775393486 0.9927088618278503 -0.0
vn 0.1205366775393486 0.9927088618278503 -0.0
vn 0.35460489988327026 0.9350162148475647 -0.0
vn 0.5680647492408752 0.8229838609695435 -0.0
vn 0.7485107779502869 0.6631226539611816 -0.0
vn 0.8854560256004333 0.4647231698036194 -0.0
vn 0.9709418416023254 0.23931565880775452 -0.0
vn 1.0 -0.0 -0.0
vn 1.0 -0.0 -0.0
vn 0.9709418416023254 0.23931565880775452 -0.0
vn 0.8854560256004333 0.4647231698036194 -0.0
vn 0.7485107779502869 0.6631226539611816 -0.0
vn 0.5680647492408752 0.8229838609695435 -0.0
vn 0.35460489988327026 0.9350162148475647 -0.0
vn 0.1205366775393486 0.9927088618278503 -0.0
vn -0.1205366775393486 0.9927088618278503 -0.0
vn -0.35460489988327026 0.9350162148475647 -0.0
vn -0.5680647492408752 0.8229838609695435 -0.0
vn -0.7485107779502869 0.6631226539611816 -0.0
vn -0.8854560256004333 0.4647231698036194 -0.0
vn -0.9709418416023254 0.23931565880775452 -0.0
vn 0.0 0.0 1.0
vn 0.0 0.0 1.0
vn 0.0 0.0 1.0
vn 0.0 0.0 1.0
vn 0.0 0.0 1.0
vn 0.0 0.0 1.0
vn 0.0 0.0 1.0
vn 0.0 0.0 1.0
vn 0.0 0.0 1.0
vn 0.0 0.0 1.0
vn 0.0 0.0 1.0
vn 0.0 0.0 1.0
vn 0.0 0.0 1.0
vn 0.0 0.0 1.0
vn 0.0 0.0 1.0
vn 0.0 0.0 1.0
vn 0.0 0.0 1.0
vn 0.0 0.0 1.0
vn 0.0 0.0 1.0
vn 0.0 0.0 1.0
vn 0.0 0.0 1.0
vn 0.0 0.0 1.0
vn 0.0 0.0 1.0
vn 0.0 0.0 1.0
vn 0.0 0.0 1.0
vn 0.0 0.0 1.0
vn 0.0 0.0 1.0
vn 0.0 0.0 1.0
vn 0.0 0.0 1.0
vn 0.0 0.0 1.0
vn 0.0 0.0 1.0
vn 0.0 0.0 1.0
vn 0.0 0.0 1.0
vn 0.0 0.0 1.0
vn 0.0 0.0 1.0
vn 0.0 0.0 1.0
vn 0.0 0.0 1.0
vn 0.0 0.0 1.0
vn 0.0 0.0 1.0
vn 0.0 0.0 1.0
vn 0.0 0.0 1.0
vn 0.0 0.0 1.0
vn 0.0 0.0 1.0
vn 0.0 0.0 1.0
vn 0.0 0.0 1.0
vn 0.0 0.0 1.0
vn 0.0 0.0 1.0
vn 0.0 0.0 1.0
vn 0.0 0.0 1.0
vn 0.0 0.0 1.0
vn 0.0 0.0 1.0
vn 0.0 0.0 1.0
vn 0.0 0.0 1.0
vn 0.0 0.0 1.0
vn 0.0 0.0 1.0
vn 0.0 0.0 1.0
vn 0.0 0.0 1.0
vn 0.0 0.0 1.0
vn 0.0 0.0 1.0
vn 0.0 0.0 1.0
g 011d6080-e2dd-11ea-8de9-54bf646e7e1f
f 1//1 2//2 4//4
f 4//4 2//2 3//3
g 011ec012-e2dd-11ea-aefd-54bf646e7e1f
f 5//5 6//6 8//8
f 8//8 6//6 7//7
g 011ff890-e2dd-11ea-865c-54bf646e7e1f
f 9//9 10//10 12//12
f 12//12 10//10 11//11
g 01217f36-e2dd-11ea-ba47-54bf646e7e1f
f 13//13 14//14 16//16
f 16//16 14//14 15//15
g 012305d4-e2dd-11ea-b450-54bf646e7e1f
f 17//17 18//18 20//20
f 20//20 18//18 19//19
g 0124da92-e2dd-11ea-9333-54bf646e7e1f
f 22//22 23//23 21//21
f 21//21 23//23 24//24
g 01268848-e2dd-11ea-b20e-54bf646e7e1f
f 25//25 26//26 28//28
f 28//28 26//26 27//27
g 01288446-e2dd-11ea-aae9-54bf646e7e1f
f 30//30 31//31 29//29
f 29//29 31//31 32//32
g fa44e54c-98f0-3355-a90b-90cdf125e74c
f 34//34 35//35 33//33
f 33//33 35//35 36//36
g 00af5c1c-e2dd-11ea-9408-54bf646e7e1f
f 38//38 39//39 37//37
f 37//37 39//39 40//40
g 00aff85e-e2dd-11ea-91fa-54bf646e7e1f
f 42//42 43//43 41//41
f 41//41 43//43 44//44
g 00b0949c-e2dd-11ea-b599-54bf646e7e1f
f 46//46 47//47 45//45
f 45//45 47//47 48//48
g 665f5342-84f9-3ea9-a16a-13d0ded343d5
f 50//50 51//51 49//49
f 49//49 51//51 52//52
g 00aee702-e2dd-11ea-9447-54bf646e7e1f
f 54//54 55//55 53//53
f 53//53 55//55 56//56
g 00ae98d2-e2dd-11ea-a3c3-54bf646e7e1f
f 58//58 101//101 57//57
f 57//57 101//101 102//102
f 57//57 102//102 105//105
f 105//105 102//102 69//69
f 105//105 69//69 116//116
f 116//116 69//69 70//70
f 116//116 70//70 72//72
f 72//72 70//70 71//71
f 59//59 97//97 58//58
f 58//58 97//97 98//98
f 58//58 98//98 99//99
f 59//59 60//60 97//97
f 97//97 60//60 96//96
f 96//96 60//60 61//61
f 96//96 61//61 95//95
f 95//95 61//61 62//62
f 95//95 62//62 63//63
f 95//95 63//63 94//94
f 94//94 63//63 64//64
f 94//94 64//64 93//93
f 93//93 64//64 65//65
f 93//93 65//65 92//92
f 92//92 65//65 66//66
f 92//92 66//66 67//67
f 68//68 87//87 67//67
f 67//67 87//87 88//88
f 67//67 88//88 90//90
f 90//90 88//88 89//89
f 57//57 106//106 68//68
f 68//68 106//106 84//84
f 68//68 84//84 87//87
f 87//87 84//84 85//85
f 87//87 85//85 86//86
f 72//72 73//73 116//116
f 116//116 73//73 74//74
f 116//116 74//74 115//115
f 115//115 74//74 114//114
f 114//114 74//74 75//75
f 114//114 75//75 113//113
f 113//113 75//75 76//76
f 113//113 76//76 112//112
f 112//112 76//76 77//77
f 112//112 77//77 111//111
f 111//111 77//77 110//110
f 110//110 77//77 78//78
f 110//110 78//78 109//109
f 109//109 78//78 79//79
f 109//109 79//79 108//108
f 108//108 79//79 107//107
f 107//107 79//79 80//80
f 107//107 80//80 81//81
f 82//82 83//83 81//81
f 81//81 83//83 107//107
f 107//107 83//83 106//106
f 106//106 83//83 84//84
f 90//90 91//91 67//67
f 67//67 91//91 92//92
f 100//100 101//101 99//99
f 99//99 101//101 58//58
f 102//102 103//103 69//69
f 69//69 103//103 104//104
f 105//105 106//106 57//57
g 62349dad-6311-397c-91ab-5e17fc6b8ce3
f 118//118 119//119 117//117
f 117//117 119//119 120//120
g 00af0e00-e2dd-11ea-a65f-54bf646e7e1f
f 121//121 122//122 140//140
f 140//140 122//122 123//123
f 140//140 123//123 139//139
f 139//139 123//123 124//124
f 139//139 124//124 138//138
f 138//138 124//124 125//125
f 138//138 125//125 137//137
f 137//137 125//125 126//126
f 137//137 126//126 136//136
f 136//136 126//126 127//127
f 136//136 127//127 135//135
f 135//135 127//127 128//128
f 135//135 128//128 134//134
f 134//134 128//128 129//129
f 134//134 129//129 133//133
f 133//133 129//129 130//130
f 133//133 130//130 132//132
f 132//132 130//130 131//131
g 00afaa40-e2dd-11ea-a4f9-54bf646e7e1f
f 141//141 142//142 160//160
f 160//160 142//142 143//143
f 160//160 143//143 159//159
f 159//159 143//143 144//144
f 159//159 144//144 158//158
f 158//158 144//144 145//145
f 158//158 145//145 157//157
f 157//157 145//145 146//146
f 157//157 146//146 156//156
f 156//156 146//146 147//147
f 156//156 147//147 155//155
f 155//155 147//147 148//148
f 155//155 148//148 154//154
f 154//154 148//148 149//149
f 154//154 149//149 153//153
f 153//153 149//149 150//150
f 153//153 150//150 152//152
f 152//152 150//150 151//151
g 7890cf6a-129f-3e5c-8213-b9c8a7092c70
f 162//162 163//163 161//161
f 161//161 163//163 164//164
g 00b01f5e-e2dd-11ea-b5a6-54bf646e7e1f
f 165//165 166//166 192//192
f 192//192 166//166 167//167
f 192//192 167//167 168//168
f 192//192 168//168 191//191
f 191//191 168//168 169//169
f 191//191 169//169 190//190
f 190//190 169//169 170//170
f 190//190 170//170 189//189
f 189//189 170//170 171//171
f 189//189 171//171 188//188
f 188//188 171//171 172//172
f 188//188 172//172 187//187
f 187//187 172//172 173//173
f 187//187 173//173 186//186
f 186//186 173//173 174//174
f 186//186 174//174 185//185
f 185//185 174//174 175//175
f 185//185 175//175 184//184
f 184//184 175//175 176//176
f 184//184 176//176 183//183
f 183//183 176//176 177//177
f 183//183 177//177 182//182
f 182//182 177//177 178//178
f 182//182 178//178 181//181
f 181//181 178//178 180//180
f 180//180 178//178 179//179
g 00b0e2b4-e2dd-11ea-87a1-54bf646e7e1f
f 193//193 194//194 220//220
f 220//220 194//194 195//195
f 220//220 195//195 196//196
f 220//220 196//196 219//219
f 219//219 196//196 197//197
f 219//219 197//197 218//218
f 218//218 197//197 198//198
f 218//218 198//198 217//217
f 217//217 198//198 199//199
f 217//217 199//199 216//216
f 216//216 199//199 200//200
f 216//216 200//200 215//215
f 215//215 200//200 201//201
f 215//215 201//201 214//214
f 214//214 201//201 202//202
f 214//214 202//202 213//213
f 213//213 202//202 203//203
f 213//213 203//203 212//212
f 212//212 203//203 204//204
f 212//212 204//204 211//211
f 211//211 204//204 205//205
f 211//211 205//205 210//210
f 210//210 205//205 206//206
f 210//210 206//206 209//209
f 209//209 206//206 208//208
f 208//208 206//206 207//207
g 00b157f8-e2dd-11ea-aa14-54bf646e7e1f
f 222//222 277//277 221//221
f 221//221 277//277 278//278
f 221//221 278//278 233//233
f 233//233 278//278 245//245
f 233//233 245//245 244//244
f 244//244 245//245 246//246
f 244//244 246//246 248//248
f 248//248 246//246 247//247
f 223//223 273//273 222//222
f 222//222 273//273 274//274
f 222//222 274//274 275//275
f 223//223 224//224 273//273
f 273//273 224//224 272//272
f 272//272 224//224 225//225
f 272//272 225//225 271//271
f 271//271 225//225 226//226
f 271//271 226//226 227//227
f 271//271 227//227 270//270
f 270//270 227//227 228//228
f 270//270 228//228 269//269
f 269//269 228//228 229//229
f 269//269 229//229 268//268
f 268//268 229//229 230//230
f 268//268 230//230 231//231
f 232//232 263//263 231//231
f 231//231 263//263 264//264
f 231//231 264//264 266//266
f 266//266 264//264 265//265
f 221//221 234//234 232//232
f 232//232 234//234 260//260
f 232//232 260//260 263//263
f 263//263 260//260 261//261
f 263//263 261//261 262//262
f 233//233 234//234 221//221
f 260//260 234//234 259//259
f 259//259 234//234 235//235
f 259//259 235//235 257//257
f 257//257 235//235 256//256
f 256//256 235//235 255//255
f 255//255 235//235 236//236
f 255//255 236//236 237//237
f 255//255 237//237 254//254
f 254//254 237//237 238//238
f 254//254 238//238 253//253
f 253//253 238//238 239//239
f 253//253 239//239 240//240
f 253//253 240//240 252//252
f 252//252 240//240 241//241
f 252//252 241//241 251//251
f 251//251 241//241 242//242
f 251//251 242//242 250//250
f 250//250 242//242 243//243
f 250//250 243//243 244//244
f 248//248 249//249 244//244
f 244//244 249//249 250//250
f 257//257 258//258 259//259
f 266//266 267//267 231//231
f 231//231 267//267 268//268
f 276//276 277//277 275//275
f 275//275 277//277 222//222
f 278//278 279//279 245//245
f 245//245 279//279 280//280

# End of file