# WaveFront *.obj file
# Vertices: 188
# Triangles : 184

v -6.175000190734863 4.0 2.1431318265879212e-17
v -6.167225360870361 4.0 0.051582153886556625
v -6.144591808319092 4.0 0.09858100861310959
v -6.1091108322143555 4.0 0.13682051002979279
v -6.063934803009033 4.0 0.16290290653705597
v -6.013077735900879 4.0 0.174510657787323
v -5.961059093475342 4.0 0.1706123799085617
v -5.912499904632568 4.0 0.15155445039272308
v -5.871716022491455 4.0 0.11903022974729538
v -5.842330455780029 4.0 0.075929656624794
v -5.8269548416137695 4.0 0.026082396507263184
v -5.8269548416137695 4.0 -0.026082396507263184
v -5.842330455780029 4.0 -0.075929656624794
v -5.871716022491455 4.0 -0.11903022974729538
v -5.912499904632568 4.0 -0.15155445039272308
v -5.961059093475342 4.0 -0.1706123799085617
v -6.013077735900879 4.0 -0.174510657787323
v -6.063934803009033 4.0 -0.16290290653705597
v -6.1091108322143555 4.0 -0.13682051002979279
v -6.144591808319092 4.0 -0.09858100861310959
v -6.167225360870361 4.0 -0.051582153886556625
v -6.175000190734863 0.0 2.1431318265879212e-17
v -6.167225360870361 0.0 -0.051582153886556625
v -6.144591808319092 0.0 -0.09858100861310959
v -6.1091108322143555 0.0 -0.13682051002979279
v -6.063934803009033 0.0 -0.16290290653705597
v -6.013077735900879 0.0 -0.174510657787323
v -5.961059093475342 0.0 -0.1706123799085617
v -5.912499904632568 0.0 -0.15155445039272308
v -5.871716022491455 0.0 -0.11903022974729538
v -5.842330455780029 0.0 -0.075929656624794
v -5.8269548416137695 0.0 -0.026082396507263184
v -5.8269548416137695 0.0 0.026082396507263184
v -5.842330455780029 0.0 0.075929656624794
v -5.871716022491455 0.0 0.11903022974729538
v -5.912499904632568 0.0 0.15155445039272308
v -5.961059093475342 0.0 0.1706123799085617
v -6.013077735900879 0.0 0.174510657787323
v -6.063934803009033 0.0 0.16290290653705597
v -6.1091108322143555 0.0 0.13682051002979279
v -6.144591808319092 0.0 0.09858100861310959
v -6.167225360870361 0.0 0.051582153886556625
v -6.175000190734863 4.0 2.1431318265879212e-17
v -6.175000190734863 0.0 2.1431318265879212e-17
v -6.25 4.0 3.0616171314629196e-17
v -6.242146015167236 4.0 -0.06217247247695923
v -6.219076633453369 4.0 -0.12043841928243637
v -6.182242393493652 4.0 -0.1711367815732956
v -6.1339569091796875 4.0 -0.21108198165893555
v -6.077254295349121 4.0 -0.2377641350030899
v -6.015697956085205 4.0 -0.24950668215751648
v -5.953154563903809 4.0 -0.2455718070268631
v -5.893555164337158 4.0 -0.22620676457881927
v -5.840643882751465 4.0 -0.19262830913066864
v -5.797745704650879 4.0 -0.14694631099700928
v -5.767556190490723 4.0 -0.09203113615512848
v -5.751971244812012 4.0 -0.031333308666944504
v -5.751971244812012 4.0 0.031333308666944504
v -5.767556190490723 4.0 0.09203113615512848
v -5.797745704650879 4.0 0.14694631099700928
v -5.840643882751465 4.0 0.19262830913066864
v -5.893555164337158 4.0 0.22620676457881927
v -5.953154563903809 4.0 0.2455718070268631
v -6.015697956085205 4.0 0.24950668215751648
v -6.077254295349121 4.0 0.2377641350030899
v -6.1339569091796875 4.0 0.21108198165893555
v -6.182242393493652 4.0 0.1711367815732956
v -6.219076633453369 4.0 0.12043841928243637
v -6.242146015167236 4.0 0.06217247247695923
v -6.25 0.0 3.0616171314629196e-17
v -6.242146015167236 0.0 0.06217247247695923
v -6.219076633453369 0.0 0.12043841928243637
v -6.182242393493652 0.0 0.1711367815732956
v -6.1339569091796875 0.0 0.21108198165893555
v -6.077254295349121 0.0 0.2377641350030899
v -6.015697956085205 0.0 0.24950668215751648
v -5.953154563903809 0.0 0.2455718070268631
v -5.893555164337158 0.0 0.22620676457881927
v -5.840643882751465 0.0 0.19262830913066864
v -5.797745704650879 0.0 0.14694631099700928
v -5.767556190490723 0.0 0.09203113615512848
v -5.751971244812012 0.0 0.031333308666944504
v -5.751971244812012 0.0 -0.031333308666944504
v -5.767556190490723 0.0 -0.09203113615512848
v -5.797745704650879 0.0 -0.14694631099700928
v -5.840643882751465 0.0 -0.19262830913066864
v -5.893555164337158 0.0 -0.22620676457881927
v -5.953154563903809 0.0 -0.2455718070268631
v -6.015697956085205 0.0 -0.24950668215751648
v -6.077254295349121 0.0 -0.2377641350030899
v -6.1339569091796875 0.0 -0.21108198165893555
v -6.182242393493652 0.0 -0.1711367815732956
v -6.219076633453369 0.0 -0.12043841928243637
v -6.242146015167236 0.0 -0.06217247247695923
v -6.25 0.0 3.0616171314629196e-17
v -6.25 4.0 3.0616171314629196e-17
v -6.175000190734863 4.0 2.1431318265879212e-17
v -6.167225360870361 4.0 -0.051582153886556625
v -6.144591808319092 4.0 -0.09858100861310959
v -6.1091108322143555 4.0 -0.13682051002979279
v -6.063934803009033 4.0 -0.16290290653705597
v -6.013077735900879 4.0 -0.174510657787323
v -5.961059093475342 4.0 -0.1706123799085617
v -5.912499904632568 4.0 -0.15155445039272308
v -5.871716022491455 4.0 -0.11903022974729538
v -5.842330455780029 4.0 -0.075929656624794
v -5.8269548416137695 4.0 -0.026082396507263184
v -5.8269548416137695 4.0 0.026082396507263184
v -5.842330455780029 4.0 0.075929656624794
v -5.871716022491455 4.0 0.11903022974729538
v -5.912499904632568 4.0 0.15155445039272308
v -5.961059093475342 4.0 0.1706123799085617
v -6.013077735900879 4.0 0.174510657787323
v -6.063934803009033 4.0 0.16290290653705597
v -6.1091108322143555 4.0 0.13682051002979279
v -6.144591808319092 4.0 0.09858100861310959
v -6.167225360870361 4.0 0.051582153886556625
v -6.25 4.0 3.0616171314629196e-17
v -6.242146015167236 4.0 0.06217247247695923
v -6.219076633453369 4.0 0.12043841928243637
v -6.182242393493652 4.0 0.1711367815732956
v -6.1339569091796875 4.0 0.21108198165893555
v -6.077254295349121 4.0 0.2377641350030899
v -6.015697956085205 4.0 0.24950668215751648
v -5.953154563903809 4.0 0.2455718070268631
v -5.893555164337158 4.0 0.22620676457881927
v -5.840643882751465 4.0 0.19262830913066864
v -5.797745704650879 4.0 0.14694631099700928
v -5.767556190490723 4.0 0.09203113615512848
v -5.751971244812012 4.0 0.031333308666944504
v -5.751971244812012 4.0 -0.031333308666944504
v -5.767556190490723 4.0 -0.09203113615512848
v -5.797745704650879 4.0 -0.14694631099700928
v -5.840643882751465 4.0 -0.19262830913066864
v -5.893555164337158 4.0 -0.22620676457881927
v -5.953154563903809 4.0 -0.2455718070268631
v -6.015697956085205 4.0 -0.24950668215751648
v -6.077254295349121 4.0 -0.2377641350030899
v -6.1339569091796875 4.0 -0.21108198165893555
v -6.182242393493652 4.0 -0.1711367815732956
v -6.219076633453369 4.0 -0.12043841928243637
v -6.242146015167236 4.0 -0.06217247247695923
v -6.175000190734863 0.0 2.1431318265879212e-17
v -6.167225360870361 0.0 0.051582153886556625
v -6.144591808319092 0.0 0.09858100861310959
v -6.1091108322143555 0.0 0.13682051002979279
v -6.063934803009033 0.0 0.16290290653705597
v -6.013077735900879 0.0 0.174510657787323
v -5.961059093475342 0.0 0.1706123799085617
v -5.912499904632568 0.0 0.15155445039272308
v -5.871716022491455 0.0 0.11903022974729538
v -5.842330455780029 0.0 0.075929656624794
v -5.8269548416137695 0.0 0.026082396507263184
v -5.8269548416137695 0.0 -0.026082396507263184
v -5.842330455780029 0.0 -0.075929656624794
v -5.871716022491455 0.0 -0.11903022974729538
v -5.912499904632568 0.0 -0.15155445039272308
v -5.961059093475342 0.0 -0.1706123799085617
v -6.013077735900879 0.0 -0.174510657787323
v -6.063934803009033 0.0 -0.16290290653705597
v -6.1091108322143555 0.0 -0.13682051002979279
v -6.144591808319092 0.0 -0.09858100861310959
v -6.167225360870361 0.0 -0.051582153886556625
v -6.25 0.0 3.0616171314629196e-17
v -6.242146015167236 0.0 -0.06217247247695923
v -6.219076633453369 0.0 -0.12043841928243637
v -6.182242393493652 0.0 -0.1711367815732956
v -6.1339569091796875 0.0 -0.21108198165893555
v -6.077254295349121 0.0 -0.2377641350030899
v -6.015697956085205 0.0 -0.24950668215751648
v -5.953154563903809 0.0 -0.2455718070268631
v -5.893555164337158 0.0 -0.22620676457881927
v -5.840643882751465 0.0 -0.19262830913066864
v -5.797745704650879 0.0 -0.14694631099700928
v -5.767556190490723 0.0 -0.09203113615512848
v -5.751971244812012 0.0 -0.031333308666944504
v -5.751971244812012 0.0 0.031333308666944504
v -5.767556190490723 0.0 0.09203113615512848
v -5.797745704650879 0.0 0.14694631099700928
v -5.840643882751465 0.0 0.19262830913066864
v -5.893555164337158 0.0 0.22620676457881927
v -5.953154563903809 0.0 0.2455718070268631
v -6.015697956085205 0.0 0.24950668215751648
v -6.077254295349121 0.0 0.2377641350030899
v -6.1339569091796875 0.0 0.21108198165893555
v -6.182242393493652 0.0 0.1711367815732956
v -6.219076633453369 0.0 0.12043841928243637
v -6.242146015167236 0.0 0.06217247247695923
vn 1.0 0.0 -1.2246468525851679e-16
vn 0.955572783946991 0.0 -0.29475516080856323
vn 0.826238751411438 0.0 -0.5633200407028198
vn 0.6234897971153259 0.0 -0.7818315029144287
vn 0.36534103751182556 0.0 -0.9308737516403198
vn 0.07473009079694748 0.0 -0.9972038269042969
vn -0.22252093255519867 0.0 -0.9749279022216797
vn -0.5 0.0 -0.8660253882408142
vn -0.7330518960952759 0.0 -0.6801727414131165
vn -0.9009688496589661 0.0 -0.4338837265968323
vn -0.9888308048248291 0.0 -0.1490422636270523
vn -0.9888308048248291 0.0 0.1490422636270523
vn -0.9009688496589661 0.0 0.4338837265968323
vn -0.7330518960952759 0.0 0.6801727414131165
vn -0.5 0.0 0.8660253882408142
vn -0.22252093255519867 0.0 0.9749279022216797
vn 0.07473009079694748 -0.0 0.9972038269042969
vn 0.36534103751182556 -0.0 0.9308737516403198
vn 0.6234897971153259 -0.0 0.7818315029144287
vn 0.826238751411438 -0.0 0.5633200407028198
vn 0.955572783946991 -0.0 0.29475516080856323
vn 1.0 -0.0 1.2246468525851679e-16
vn 0.955572783946991 -0.0 0.29475516080856323
vn 0.826238751411438 -0.0 0.5633200407028198
vn 0.6234897971153259 -0.0 0.7818315029144287
vn 0.36534103751182556 -0.0 0.9308737516403198
vn 0.07473009079694748 -0.0 0.9972038269042969
vn -0.22252093255519867 0.0 0.9749279022216797
vn -0.5 0.0 0.8660253882408142
vn -0.7330518960952759 0.0 0.6801727414131165
vn -0.9009688496589661 0.0 0.4338837265968323
vn -0.9888308048248291 0.0 0.1490422636270523
vn -0.9888308048248291 0.0 -0.1490422636270523
vn -0.9009688496589661 0.0 -0.4338837265968323
vn -0.7330518960952759 0.0 -0.6801727414131165
vn -0.5 0.0 -0.8660253882408142
vn -0.22252093255519867 0.0 -0.9749279022216797
vn 0.07473009079694748 0.0 -0.9972038269042969
vn 0.36534103751182556 0.0 -0.9308737516403198
vn 0.6234897971153259 0.0 -0.7818315029144287
vn 0.826238751411438 0.0 -0.5633200407028198
vn 0.955572783946991 0.0 -0.29475516080856323
vn 1.0 -0.0 1.2246468525851679e-16
vn 1.0 0.0 -1.2246468525851679e-16
vn -1.0 0.0 -1.2246468525851679e-16
vn -0.9685831665992737 0.0 -0.24868988990783691
vn -0.8763066530227661 0.0 -0.4817536771297455
vn -0.728968620300293 0.0 -0.6845471262931824
vn -0.5358268022537231 0.0 -0.8443279266357422
vn -0.30901700258255005 0.0 -0.9510565400123596
vn -0.06279052048921585 0.0 -0.9980267286300659
vn 0.187381312251091 -0.0 -0.9822872281074524
vn 0.4257792830467224 -0.0 -0.9048270583152771
vn 0.6374239921569824 -0.0 -0.7705132365226746
vn 0.80901700258255 -0.0 -0.5877852439880371
vn 0.9297764897346497 -0.0 -0.3681245446205139
vn 0.9921147227287292 -0.0 -0.12533323466777802
vn 0.9921147227287292 -0.0 0.12533323466777802
vn 0.9297764897346497 -0.0 0.3681245446205139
vn 0.80901700258255 -0.0 0.5877852439880371
vn 0.6374239921569824 -0.0 0.7705132365226746
vn 0.4257792830467224 -0.0 0.9048270583152771
vn 0.187381312251091 -0.0 0.9822872281074524
vn -0.06279052048921585 -0.0 0.9980267286300659
vn -0.30901700258255005 -0.0 0.9510565400123596
vn -0.5358268022537231 -0.0 0.8443279266357422
vn -0.728968620300293 -0.0 0.6845471262931824
vn -0.8763066530227661 -0.0 0.4817536771297455
vn -0.9685831665992737 -0.0 0.24868988990783691
vn -1.0 -0.0 1.2246468525851679e-16
vn -0.9685831665992737 -0.0 0.24868988990783691
vn -0.8763066530227661 -0.0 0.4817536771297455
vn -0.728968620300293 -0.0 0.6845471262931824
vn -0.5358268022537231 -0.0 0.8443279266357422
vn -0.30901700258255005 -0.0 0.9510565400123596
vn -0.06279052048921585 -0.0 0.9980267286300659
vn 0.187381312251091 -0.0 0.9822872281074524
vn 0.4257792830467224 -0.0 0.9048270583152771
vn 0.6374239921569824 -0.0 0.7705132365226746
vn 0.80901700258255 -0.0 0.5877852439880371
vn 0.9297764897346497 -0.0 0.3681245446205139
vn 0.9921147227287292 -0.0 0.12533323466777802
vn 0.9921147227287292 -0.0 -0.12533323466777802
vn 0.9297764897346497 -0.0 -0.3681245446205139
vn 0.80901700258255 -0.0 -0.5877852439880371
vn 0.6374239921569824 -0.0 -0.7705132365226746
vn 0.4257792830467224 -0.0 -0.9048270583152771
vn 0.187381312251091 -0.0 -0.9822872281074524
vn -0.06279052048921585 0.0 -0.9980267286300659
vn -0.30901700258255005 0.0 -0.9510565400123596
vn -0.5358268022537231 0.0 -0.8443279266357422
vn -0.728968620300293 0.0 -0.6845471262931824
vn -0.8763066530227661 0.0 -0.4817536771297455
vn -0.9685831665992737 0.0 -0.24868988990783691
vn -1.0 0.0 -1.2246468525851679e-16
vn -1.0 -0.0 1.2246468525851679e-16
vn 0.0 1.0 0.0
vn 0.0 1.0 0.0
vn 0.0 1.0 0.0
vn 0.0 1.0 0.0
vn 0.0 1.0 0.0
vn 0.0 1.0 0.0
vn 0.0 1.0 0.0
vn 0.0 1.0 0.0
vn 0.0 1.0 0.0
vn 0.0 1.0 0.0
vn 0.0 1.0 0.0
vn 0.0 1.0 0.0
vn 0.0 1.0 0.0
vn 0.0 1.0 0.0
vn 0.0 1.0 0.0
vn 0.0 1.0 0.0
vn 0.0 1.0 0.0
vn 0.0 1.0 0.0
vn 0.0 1.0 0.0
vn 0.0 1.0 0.0
vn 0.0 1.0 0.0
vn 0.0 1.0 0.0
vn 0.0 1.0 0.0
vn 0.0 1.0 0.0
vn 0.0 1.0 0.0
vn 0.0 1.0 0.0
vn 0.0 1.0 0.0
vn 0.0 1.0 0.0
vn 0.0 1.0 0.0
vn 0.0 1.0 0.0
vn 0.0 1.0 0.0
vn 0.0 1.0 0.0
vn 0.0 1.0 0.0
vn 0.0 1.0 0.0
vn 0.0 1.0 0.0
vn 0.0 1.0 0.0
vn 0.0 1.0 0.0
vn 0.0 1.0 0.0
vn 0.0 1.0 0.0
vn 0.0 1.0 0.0
vn 0.0 1.0 0.0
vn 0.0 1.0 0.0
vn 0.0 1.0 0.0
vn 0.0 1.0 0.0
vn 0.0 1.0 0.0
vn 0.0 1.0 0.0
vn -0.0 -1.0 -0.0
vn -0.0 -1.0 -0.0
vn -0.0 -1.0 -0.0
vn -0.0 -1.0 -0.0
vn -0.0 -1.0 -0.0
vn -0.0 -1.0 -0.0
vn -0.0 -1.0 -0.0
vn -0.0 -1.0 -0.0
vn -0.0 -1.0 -0.0
vn -0.0 -1.0 -0.0
vn -0.0 -1.0 -0.0
vn -0.0 -1.0 -0.0
vn -0.0 -1.0 -0.0
vn -0.0 -1.0 -0.0
vn -0.0 -1.0 -0.0
vn -0.0 -1.0 -0.0
vn -0.0 -1.0 -0.0
vn -0.0 -1.0 -0.0
vn -0.0 -1.0 -0.0
vn -0.0 -1.0 -0.0
vn -0.0 -1.0 -0.0
vn -0.0 -1.0 -0.0
vn -0.0 -1.0 -0.0
vn -0.0 -1.0 -0.0
vn -0.0 -1.0 -0.0
vn -0.0 -1.0 -0.0
vn -0.0 -1.0 -0.0
vn -0.0 -1.0 -0.0
vn -0.0 -1.0 -0.0
vn -0.0 -1.0 -0.0
vn -0.0 -1.0 -0.0
vn -0.0 -1.0 -0.0
vn -0.0 -1.0 -0.0
vn -0.0 -1.0 -0.0
vn -0.0 -1.0 -0.0
vn -0.0 -1.0 -0.0
vn -0.0 -1.0 -0.0
vn -0.0 -1.0 -0.0
vn -0.0 -1.0 -0.0
vn -0.0 -1.0 -0.0
vn -0.0 -1.0 -0.0
vn -0.0 -1.0 -0.0
vn -0.0 -1.0 -0.0
vn -0.0 -1.0 -0.0
vn -0.0 -1.0 -0.0
vn -0.0 -1.0 -0.0
g 94d2df66-e2e2-11ea-bcf6-54bf646e7e1f
f 2//2 42//42 1//1
f 1//1 42//42 44//44
f 43//43 22//22 21//21
f 21//21 22//22 23//23
f 21//21 23//23 20//20
f 20//20 23//23 24//24
f 20//20 24//24 19//19
f 19//19 24//24 25//25
f 19//19 25//25 18//18
f 18//18 25//25 26//26
f 18//18 26//26 17//17
f 17//17 26//26 27//27
f 17//17 27//27 16//16
f 16//16 27//27 28//28
f 16//16 28//28 15//15
f 15//15 28//28 29//29
f 15//15 29//29 14//14
f 14//14 29//29 30//30
f 14//14 30//30 13//13
f 13//13 30//30 31//31
f 13//13 31//31 12//12
f 12//12 31//31 32//32
f 12//12 32//32 11//11
f 11//11 32//32 33//33
f 11//11 33//33 10//10
f 10//10 33//33 34//34
f 10//10 34//34 9//9
f 9//9 34//34 35//35
f 9//9 35//35 8//8
f 8//8 35//35 36//36
f 8//8 36//36 7//7
f 7//7 36//36 37//37
f 7//7 37//37 6//6
f 6//6 37//37 38//38
f 6//6 38//38 5//5
f 5//5 38//38 39//39
f 5//5 39//39 4//4
f 4//4 39//39 40//40
f 4//4 40//40 3//3
f 3//3 40//40 41//41
f 3//3 41//41 2//2
f 2//2 41//41 42//42
g 94dd8d9a-e2e2-11ea-8690-54bf646e7e1f
f 46//46 94//94 45//45
f 45//45 94//94 95//95
f 96//96 70//70 69//69
f 69//69 70//70 71//71
f 69//69 71//71 68//68
f 68//68 71//71 72//72
f 68//68 72//72 67//67
f 67//67 72//72 73//73
f 67//67 73//73 66//66
f 66//66 73//73 74//74
f 66//66 74//74 65//65
f 65//65 74//74 75//75
f 65//65 75//75 64//64
f 64//64 75//75 76//76
f 64//64 76//76 63//63
f 63//63 76//76 77//77
f 63//63 77//77 62//62
f 62//62 77//77 78//78
f 62//62 78//78 61//61
f 61//61 78//78 79//79
f 61//61 79//79 60//60
f 60//60 79//79 80//80
f 60//60 80//80 59//59
f 59//59 80//80 81//81
f 59//59 81//81 58//58
f 58//58 81//81 82//82
f 58//58 82//82 57//57
f 57//57 82//82 83//83
f 57//57 83//83 56//56
f 56//56 83//83 84//84
f 56//56 84//84 55//55
f 55//55 84//84 85//85
f 55//55 85//85 54//54
f 54//54 85//85 86//86
f 54//54 86//86 53//53
f 53//53 86//86 87//87
f 53//53 87//87 52//52
f 52//52 87//87 88//88
f 52//52 88//88 51//51
f 51//51 88//88 89//89
f 51//51 89//89 50//50
f 50//50 89//89 90//90
f 50//50 90//90 49//49
f 49//49 90//90 91//91
f 49//49 91//91 48//48
f 48//48 91//91 92//92
f 48//48 92//92 47//47
f 47//47 92//92 93//93
f 47//47 93//93 46//46
f 46//46 93//93 94//94
g 94e729be-e2e2-11ea-90db-54bf646e7e1f
f 98//98 142//142 97//97
f 97//97 142//142 118//118
f 97//97 118//118 119//119
f 142//142 98//98 141//141
f 141//141 98//98 99//99
f 141//141 99//99 140//140
f 140//140 99//99 100//100
f 140//140 100//100 139//139
f 139//139 100//100 101//101
f 139//139 101//101 138//138
f 138//138 101//101 102//102
f 138//138 102//102 137//137
f 137//137 102//102 136//136
f 136//136 102//102 103//103
f 136//136 103//103 135//135
f 135//135 103//103 104//104
f 135//135 104//104 134//134
f 134//134 104//104 105//105
f 134//134 105//105 133//133
f 133//133 105//105 106//106
f 133//133 106//106 132//132
f 132//132 106//106 107//107
f 132//132 107//107 131//131
f 131//131 107//107 130//130
f 130//130 107//107 108//108
f 130//130 108//108 129//129
f 129//129 108//108 109//109
f 129//129 109//109 128//128
f 128//128 109//109 110//110
f 128//128 110//110 127//127
f 127//127 110//110 111//111
f 127//127 111//111 126//126
f 126//126 111//111 112//112
f 126//126 112//112 125//125
f 125//125 112//112 113//113
f 125//125 113//113 124//124
f 124//124 113//113 123//123
f 123//123 113//113 114//114
f 123//123 114//114 122//122
f 122//122 114//114 115//115
f 122//122 115//115 121//121
f 121//121 115//115 116//116
f 121//121 116//116 120//120
f 120//120 116//116 117//117
f 120//120 117//117 119//119
f 119//119 117//117 97//97
g 94f0c63a-e2e2-11ea-8d6b-54bf646e7e1f
f 144//144 188//188 143//143
f 143//143 188//188 164//164
f 143//143 164//164 165//165
f 188//188 144//144 187//187
f 187//187 144//144 145//145
f 187//187 145//145 186//186
f 186//186 145//145 146//146
f 186//186 146//146 185//185
f 185//185 146//146 147//147
f 185//185 147//147 184//184
f 184//184 147//147 148//148
f 184//184 148//148 183//183
f 183//183 148//148 182//182
f 182//182 148//148 149//149
f 182//182 149//149 181//181
f 181//181 149//149 150//150
f 181//181 150//150 180//180
f 180//180 150//150 151//151
f 180//180 151//151 179//179
f 179//179 151//151 152//152
f 179//179 152//152 178//178
f 178//178 152//152 153//153
f 178//178 153//153 177//177
f 177//177 153//153 154//154
f 177//177 154//154 176//176
f 176//176 154//154 175//175
f 175//175 154//154 155//155
f 175//175 155//155 174//174
f 174//174 155//155 156//156
f 174//174 156//156 173//173
f 173//173 156//156 157//157
f 173//173 157//157 172//172
f 172//172 157//157 158//158
f 172//172 158//158 171//171
f 171//171 158//158 159//159
f 171//171 159//159 170//170
f 170//170 159//159 169//169
f 169//169 159//159 160//160
f 169//169 160//160 168//168
f 168//168 160//160 161//161
f 168//168 161//161 167//167
f 167//167 161//161 162//162
f 167//167 162//162 166//166
f 166//166 162//162 163//163
f 166//166 163//163 165//165
f 165//165 163//163 143//143

# End of file