# WaveFront *.obj file
# Vertices: 200
# Triangles : 156

v 0.20000000298023224 0.0 -0.75
v 0.20000000298023224 0.0 -8.050000190734863
v 0.20000000298023224 0.800000011920929 -8.050000190734863
v 0.20000000298023224 0.800000011920929 -0.75
v 0.20000000298023224 0.0 -8.050000190734863
v 0.24186626076698303 0.0 -8.260476112365723
v 0.3610912561416626 0.0 -8.438908576965332
v 0.5395241379737854 0.0 -8.558134078979492
v 0.75 0.0 -8.600000381469727
v 0.75 0.800000011920929 -8.600000381469727
v 0.5395241379737854 0.800000011920929 -8.558134078979492
v 0.3610912561416626 0.800000011920929 -8.438908576965332
v 0.24186626076698303 0.800000011920929 -8.260476112365723
v 0.20000000298023224 0.800000011920929 -8.050000190734863
v 0.75 0.0 -8.600000381469727
v 24.049999237060547 0.0 -8.600000381469727
v 24.049999237060547 0.800000011920929 -8.600000381469727
v 0.75 0.800000011920929 -8.600000381469727
v 24.049999237060547 0.0 -8.600000381469727
v 24.260475158691406 0.0 -8.558134078979492
v 24.43890953063965 0.0 -8.438908576965332
v 24.558134078979492 0.0 -8.260476112365723
v 24.600000381469727 0.0 -8.050000190734863
v 24.600000381469727 0.800000011920929 -8.050000190734863
v 24.558134078979492 0.800000011920929 -8.260476112365723
v 24.43890953063965 0.800000011920929 -8.438908576965332
v 24.260475158691406 0.800000011920929 -8.558134078979492
v 24.049999237060547 0.800000011920929 -8.600000381469727
v 24.600000381469727 0.0 -8.050000190734863
v 24.600000381469727 0.0 -0.75
v 24.600000381469727 0.800000011920929 -0.75
v 24.600000381469727 0.800000011920929 -8.050000190734863
v 24.600000381469727 0.0 -0.75
v 24.558134078979492 0.0 -0.5395241379737854
v 24.43890953063965 0.0 -0.3610912561416626
v 24.260475158691406 0.0 -0.24186626076698303
v 24.049999237060547 0.0 -0.20000000298023224
v 24.049999237060547 0.800000011920929 -0.20000000298023224
v 24.260475158691406 0.800000011920929 -0.24186626076698303
v 24.43890953063965 0.800000011920929 -0.3610912561416626
v 24.558134078979492 0.800000011920929 -0.5395241379737854
v 24.600000381469727 0.800000011920929 -0.75
v 24.049999237060547 0.0 -0.20000000298023224
v 0.75 0.0 -0.20000000298023224
v 0.75 0.800000011920929 -0.20000000298023224
v 24.049999237060547 0.800000011920929 -0.20000000298023224
v 0.75 0.0 -0.20000000298023224
v 0.5395241379737854 0.0 -0.24186626076698303
v 0.3610912561416626 0.0 -0.3610912561416626
v 0.24186626076698303 0.0 -0.5395241379737854
v 0.20000000298023224 0.0 -0.75
v 0.20000000298023224 0.800000011920929 -0.75
v 0.24186626076698303 0.800000011920929 -0.5395241379737854
v 0.3610912561416626 0.800000011920929 -0.3610912561416626
v 0.5395241379737854 0.800000011920929 -0.24186626076698303
v 0.75 0.800000011920929 -0.20000000298023224
v 0.75 0.800000011920929 -0.20000000298023224
v 0.5395241379737854 0.800000011920929 -0.24186626076698303
v 0.3610912561416626 0.800000011920929 -0.3610912561416626
v 0.24186626076698303 0.800000011920929 -0.5395241379737854
v 0.20000000298023224 0.800000011920929 -0.75
v 0.20000000298023224 0.800000011920929 -8.050000190734863
v 0.24186626076698303 0.800000011920929 -8.260476112365723
v 0.3610912561416626 0.800000011920929 -8.438908576965332
v 0.5395241379737854 0.800000011920929 -8.558134078979492
v 0.75 0.800000011920929 -8.600000381469727
v 24.049999237060547 0.800000011920929 -8.600000381469727
v 24.260475158691406 0.800000011920929 -8.558134078979492
v 24.43890953063965 0.800000011920929 -8.438908576965332
v 24.558134078979492 0.800000011920929 -8.260476112365723
v 24.600000381469727 0.800000011920929 -8.050000190734863
v 24.600000381469727 0.800000011920929 -0.75
v 24.558134078979492 0.800000011920929 -0.5395241379737854
v 24.43890953063965 0.800000011920929 -0.3610912561416626
v 24.260475158691406 0.800000011920929 -0.24186626076698303
v 24.049999237060547 0.800000011920929 -0.20000000298023224
v 0.75 1.274999976158142 -8.149999618530273
v 24.049999237060547 1.274999976158142 -8.149999618530273
v 24.049999237060547 1.024999976158142 -8.149999618530273
v 0.75 1.024999976158142 -8.149999618530273
v 24.049999237060547 1.274999976158142 -8.149999618530273
v 24.100000381469727 1.274999976158142 -8.136602401733398
v 24.1366024017334 1.274999976158142 -8.100000381469727
v 24.149999618530273 1.274999976158142 -8.050000190734863
v 24.149999618530273 1.024999976158142 -8.050000190734863
v 24.1366024017334 1.024999976158142 -8.100000381469727
v 24.100000381469727 1.024999976158142 -8.136602401733398
v 24.049999237060547 1.024999976158142 -8.149999618530273
v 24.149999618530273 1.274999976158142 -8.050000190734863
v 24.149999618530273 1.274999976158142 -0.75
v 24.149999618530273 1.024999976158142 -0.75
v 24.149999618530273 1.024999976158142 -8.050000190734863
v 24.149999618530273 1.274999976158142 -0.75
v 24.1366024017334 1.274999976158142 -0.699999988079071
v 24.100000381469727 1.274999976158142 -0.6633974313735962
v 24.049999237060547 1.274999976158142 -0.6499999761581421
v 24.049999237060547 1.024999976158142 -0.6499999761581421
v 24.100000381469727 1.024999976158142 -0.6633974313735962
v 24.1366024017334 1.024999976158142 -0.699999988079071
v 24.149999618530273 1.024999976158142 -0.75
v 24.049999237060547 1.274999976158142 -0.6499999761581421
v 0.75 1.274999976158142 -0.6499999761581421
v 0.75 1.024999976158142 -0.6499999761581421
v 24.049999237060547 1.024999976158142 -0.6499999761581421
v 0.75 1.274999976158142 -0.6499999761581421
v 0.699999988079071 1.274999976158142 -0.6633974313735962
v 0.6633974313735962 1.274999976158142 -0.699999988079071
v 0.6499999761581421 1.274999976158142 -0.75
v 0.6499999761581421 1.024999976158142 -0.75
v 0.6633974313735962 1.024999976158142 -0.699999988079071
v 0.699999988079071 1.024999976158142 -0.6633974313735962
v 0.75 1.024999976158142 -0.6499999761581421
v 0.6499999761581421 1.274999976158142 -0.75
v 0.6499999761581421 1.274999976158142 -8.050000190734863
v 0.6499999761581421 1.024999976158142 -8.050000190734863
v 0.6499999761581421 1.024999976158142 -0.75
v 0.6499999761581421 1.274999976158142 -8.050000190734863
v 0.6633974313735962 1.274999976158142 -8.100000381469727
v 0.699999988079071 1.274999976158142 -8.136602401733398
v 0.75 1.274999976158142 -8.149999618530273
v 0.75 1.024999976158142 -8.149999618530273
v 0.699999988079071 1.024999976158142 -8.136602401733398
v 0.6633974313735962 1.024999976158142 -8.100000381469727
v 0.6499999761581421 1.024999976158142 -8.050000190734863
v 0.6499999761581421 1.024999976158142 -8.050000190734863
v 0.6633974313735962 1.024999976158142 -8.100000381469727
v 0.699999988079071 1.024999976158142 -8.136602401733398
v 0.75 1.024999976158142 -8.149999618530273
v 24.049999237060547 1.024999976158142 -8.149999618530273
v 24.100000381469727 1.024999976158142 -8.136602401733398
v 24.1366024017334 1.024999976158142 -8.100000381469727
v 24.149999618530273 1.024999976158142 -8.050000190734863
v 24.149999618530273 1.024999976158142 -0.75
v 24.1366024017334 1.024999976158142 -0.699999988079071
v 24.100000381469727 1.024999976158142 -0.6633974313735962
v 24.049999237060547 1.024999976158142 -0.6499999761581421
v 0.75 1.024999976158142 -0.6499999761581421
v 0.699999988079071 1.024999976158142 -0.6633974313735962
v 0.6633974313735962 1.024999976158142 -0.699999988079071
v 0.6499999761581421 1.024999976158142 -0.75
v 24.799999237060547 1.024999976158142 -8.800000190734863
v 0.0 1.024999976158142 -8.800000190734863
v 0.0 1.024999976158142 0.0
v 24.799999237060547 1.024999976158142 0.0
v 0.0 1.024999976158142 0.0
v 0.0 1.024999976158142 -8.800000190734863
v 0.0 0.0 -8.800000190734863
v 0.0 0.0 0.0
v 0.0 1.024999976158142 -8.800000190734863
v 24.799999237060547 1.024999976158142 -8.800000190734863
v 24.799999237060547 0.0 -8.800000190734863
v 0.0 0.0 -8.800000190734863
v 24.799999237060547 1.024999976158142 -8.800000190734863
v 24.799999237060547 1.024999976158142 0.0
v 24.799999237060547 0.0 0.0
v 24.799999237060547 0.0 -8.800000190734863
v 24.799999237060547 1.024999976158142 0.0
v 0.0 1.024999976158142 0.0
v 0.0 0.0 0.0
v 24.799999237060547 0.0 0.0
v 24.049999237060547 1.274999976158142 -8.149999618530273
v 0.75 1.274999976158142 -8.149999618530273
v 0.699999988079071 1.274999976158142 -8.136602401733398
v 0.6633974313735962 1.274999976158142 -8.100000381469727
v 0.6499999761581421 1.274999976158142 -8.050000190734863
v 0.6499999761581421 1.274999976158142 -0.75
v 0.6633974313735962 1.274999976158142 -0.699999988079071
v 0.699999988079071 1.274999976158142 -0.6633974313735962
v 0.75 1.274999976158142 -0.6499999761581421
v 24.049999237060547 1.274999976158142 -0.6499999761581421
v 24.100000381469727 1.274999976158142 -0.6633974313735962
v 24.1366024017334 1.274999976158142 -0.699999988079071
v 24.149999618530273 1.274999976158142 -0.75
v 24.149999618530273 1.274999976158142 -8.050000190734863
v 24.1366024017334 1.274999976158142 -8.100000381469727
v 24.100000381469727 1.274999976158142 -8.136602401733398
v 0.20000000298023224 0.0 -8.050000190734863
v 0.20000000298023224 0.0 -0.75
v 0.24186626076698303 0.0 -0.5395241379737854
v 0.3610912561416626 0.0 -0.3610912561416626
v 0.5395241379737854 0.0 -0.24186626076698303
v 0.75 0.0 -0.20000000298023224
v 24.049999237060547 0.0 -0.20000000298023224
v 24.260475158691406 0.0 -0.24186626076698303
v 24.43890953063965 0.0 -0.3610912561416626
v 24.558134078979492 0.0 -0.5395241379737854
v 24.600000381469727 0.0 -0.75
v 24.600000381469727 0.0 -8.050000190734863
v 24.558134078979492 0.0 -8.260476112365723
v 24.43890953063965 0.0 -8.438908576965332
v 24.260475158691406 0.0 -8.558134078979492
v 24.049999237060547 0.0 -8.600000381469727
v 0.75 0.0 -8.600000381469727
v 0.5395241379737854 0.0 -8.558134078979492
v 0.3610912561416626 0.0 -8.438908576965332
v 0.24186626076698303 0.0 -8.260476112365723
v 0.0 0.0 0.0
v 0.0 0.0 -8.800000190734863
v 24.799999237060547 0.0 -8.800000190734863
v 24.799999237060547 0.0 0.0
vn 1.0 -0.0 2.2812802533071375e-17
vn 1.0 -0.0 2.2812802533071375e-17
vn 1.0 -0.0 2.2812802533071375e-17
vn 1.0 -0.0 2.2812802533071375e-17
vn 1.0 0.0 -3.2297398042541994e-15
vn 0.9238795042037964 -0.0 0.3826834261417389
vn 0.7071067690849304 -0.0 0.7071067690849304
vn 0.3826834261417389 -0.0 0.9238795042037964
vn -3.1483215150564584e-15 0.0 1.0
vn -3.1483215150564584e-15 0.0 1.0
vn 0.3826834261417389 -0.0 0.9238795042037964
vn 0.7071067690849304 -0.0 0.7071067690849304
vn 0.9238795042037964 -0.0 0.3826834261417389
vn 1.0 0.0 -3.2297398042541994e-15
vn 7.623849081937888e-17 -0.0 1.0
vn 7.623849081937888e-17 -0.0 1.0
vn 7.623849081937888e-17 -0.0 1.0
vn 7.623849081937888e-17 -0.0 1.0
vn 6.459479608508399e-15 -0.0 1.0
vn -0.3826834261417389 0.0 0.9238795042037964
vn -0.7071067690849304 0.0 0.7071067690849304
vn -0.9238795042037964 0.0 0.3826834261417389
vn -1.0 0.0 -1.301921318962087e-14
vn -1.0 0.0 -1.301921318962087e-14
vn -0.9238795042037964 0.0 0.3826834261417389
vn -0.7071067690849304 0.0 0.7071067690849304
vn -0.3826834261417389 0.0 0.9238795042037964
vn 6.459479608508399e-15 -0.0 1.0
vn -1.0 -0.0 9.733462061180058e-16
vn -1.0 -0.0 9.733462061180058e-16
vn -1.0 -0.0 9.733462061180058e-16
vn -1.0 -0.0 9.733462061180058e-16
vn -1.0 0.0 2.6241635512518676e-15
vn -0.9238795042037964 0.0 -0.3826834261417389
vn -0.7071067690849304 0.0 -0.7071067690849304
vn -0.3826834261417389 0.0 -0.9238795042037964
vn -2.0860593421719675e-17 0.0 -1.0
vn -2.0860593421719675e-17 0.0 -1.0
vn -0.3826834261417389 0.0 -0.9238795042037964
vn -0.7071067690849304 0.0 -0.7071067690849304
vn -0.9238795042037964 0.0 -0.3826834261417389
vn -1.0 0.0 2.6241635512518676e-15
vn 6.432622973077823e-17 -0.0 -1.0
vn 6.432622973077823e-17 -0.0 -1.0
vn 6.432622973077823e-17 -0.0 -1.0
vn 6.432622973077823e-17 -0.0 -1.0
vn -6.055762000627726e-16 0.0 -1.0
vn 0.3826834261417389 0.0 -0.9238795042037964
vn 0.7071067690849304 0.0 -0.7071067690849304
vn 0.9238795042037964 0.0 -0.3826834261417389
vn 1.0 -0.0 4.4341449516801536e-16
vn 1.0 -0.0 4.4341449516801536e-16
vn 0.9238795042037964 0.0 -0.3826834261417389
vn 0.7071067690849304 0.0 -0.7071067690849304
vn 0.3826834261417389 0.0 -0.9238795042037964
vn -6.055762000627726e-16 0.0 -1.0
vn 0.0 -1.0 0.0
vn 0.0 -1.0 0.0
vn 0.0 -1.0 0.0
vn 0.0 -1.0 0.0
vn 0.0 -1.0 0.0
vn 0.0 -1.0 0.0
vn 0.0 -1.0 0.0
vn 0.0 -1.0 0.0
vn 0.0 -1.0 0.0
vn 0.0 -1.0 0.0
vn 0.0 -1.0 0.0
vn 0.0 -1.0 0.0
vn 0.0 -1.0 0.0
vn 0.0 -1.0 0.0
vn 0.0 -1.0 0.0
vn 0.0 -1.0 0.0
vn 0.0 -1.0 0.0
vn 0.0 -1.0 0.0
vn 0.0 -1.0 0.0
vn 0.0 -1.0 0.0
vn -7.623849081937888e-17 -0.0 -1.0
vn -7.623849081937888e-17 -0.0 -1.0
vn -7.623849081937888e-17 -0.0 -1.0
vn -7.623849081937888e-17 -0.0 -1.0
vn -3.54659030821821e-14 -0.0 -1.0
vn 0.5 -0.0 -0.8660253882408142
vn 0.8660253882408142 -0.0 -0.5
vn 1.0 -0.0 -1.7763568394002505e-14
vn 1.0 -0.0 -1.7763568394002505e-14
vn 0.8660253882408142 -0.0 -0.5
vn 0.5 -0.0 -0.8660253882408142
vn -3.54659030821821e-14 -0.0 -1.0
vn 1.0 -0.0 -0.0
vn 1.0 -0.0 -0.0
vn 1.0 -0.0 -0.0
vn 1.0 -0.0 -0.0
vn 1.0 -0.0 -2.159213613976826e-15
vn 0.8660253882408142 0.0 0.5
vn 0.5 0.0 0.8660253882408142
vn 0.0 0.0 1.0
vn 0.0 0.0 1.0
vn 0.5 0.0 0.8660253882408142
vn 0.8660253882408142 0.0 0.5
vn 1.0 -0.0 -4.379659663227139e-15
vn 4.76490567621118e-18 0.0 1.0
vn 4.76490567621118e-18 0.0 1.0
vn 4.76490567621118e-18 0.0 1.0
vn 4.76490567621118e-18 0.0 1.0
vn 1.048990695230788e-15 0.0 1.0
vn -0.5 -0.0 0.8660253882408142
vn -0.8660253882408142 -0.0 0.5
vn -1.0 -0.0 -3.3306690738754696e-15
vn -1.0 -0.0 -3.3306690738754696e-15
vn -0.8660253882408142 -0.0 0.5
vn -0.5 -0.0 0.8660253882408142
vn 1.048990695230788e-15 0.0 1.0
vn -1.0 -0.0 -1.6729387752217103e-16
vn -1.0 -0.0 -1.6729387752217103e-16
vn -1.0 -0.0 -1.6729387752217103e-16
vn -1.0 -0.0 -1.6729387752217103e-16
vn -1.0 -0.0 -6.123234262925839e-17
vn -0.8660253882408142 -0.0 -0.5
vn -0.5 -0.0 -0.8660253882408142
vn -1.2212453270876722e-14 -0.0 -1.0
vn -1.2212453270876722e-14 -0.0 -1.0
vn -0.5 -0.0 -0.8660253882408142
vn -0.8660253882408142 -0.0 -0.5
vn -1.0 -0.0 -6.123234262925839e-17
vn 0.0 1.0 0.0
vn 0.0 1.0 0.0
vn 0.0 1.0 0.0
vn 0.0 1.0 0.0
vn 0.0 1.0 0.0
vn 0.0 1.0 0.0
vn 0.0 1.0 0.0
vn 0.0 1.0 0.0
vn 0.0 1.0 0.0
vn 0.0 1.0 0.0
vn 0.0 1.0 0.0
vn 0.0 1.0 0.0
vn 0.0 1.0 0.0
vn 0.0 1.0 0.0
vn 0.0 1.0 0.0
vn 0.0 1.0 0.0
vn 0.0 1.0 0.0
vn 0.0 1.0 0.0
vn 0.0 1.0 0.0
vn 0.0 1.0 0.0
vn -1.0 0.0 0.0
vn -1.0 0.0 0.0
vn -1.0 0.0 0.0
vn -1.0 0.0 0.0
vn 0.0 0.0 -1.0
vn 0.0 0.0 -1.0
vn 0.0 0.0 -1.0
vn 0.0 0.0 -1.0
vn 1.0 -0.0 0.0
vn 1.0 -0.0 0.0
vn 1.0 -0.0 0.0
vn 1.0 -0.0 0.0
vn 0.0 0.0 1.0
vn 0.0 0.0 1.0
vn 0.0 0.0 1.0
vn 0.0 0.0 1.0
vn 0.0 1.0 0.0
vn 0.0 1.0 0.0
vn 0.0 1.0 0.0
vn 0.0 1.0 0.0
vn 0.0 1.0 0.0
vn 0.0 1.0 0.0
vn 0.0 1.0 0.0
vn 0.0 1.0 0.0
vn 0.0 1.0 0.0
vn 0.0 1.0 0.0
vn 0.0 1.0 0.0
vn 0.0 1.0 0.0
vn 0.0 1.0 0.0
vn 0.0 1.0 0.0
vn 0.0 1.0 0.0
vn 0.0 1.0 0.0
vn -0.0 -1.0 -0.0
vn -0.0 -1.0 -0.0
vn -0.0 -1.0 -0.0
vn -0.0 -1.0 -0.0
vn -0.0 -1.0 -0.0
vn -0.0 -1.0 -0.0
vn -0.0 -1.0 -0.0
vn -0.0 -1.0 -0.0
vn -0.0 -1.0 -0.0
vn -0.0 -1.0 -0.0
vn -0.0 -1.0 -0.0
vn -0.0 -1.0 -0.0
vn -0.0 -1.0 -0.0
vn -0.0 -1.0 -0.0
vn -0.0 -1.0 -0.0
vn -0.0 -1.0 -0.0
vn -0.0 -1.0 -0.0
vn -0.0 -1.0 -0.0
vn -0.0 -1.0 -0.0
vn -0.0 -1.0 -0.0
vn -0.0 -1.0 -0.0
vn -0.0 -1.0 -0.0
vn -0.0 -1.0 -0.0
vn -0.0 -1.0 -0.0
g 36fa486c-e2eb-11ea-9bd0-54bf646e7e1f
f 1//1 2//2 4//4
f 4//4 2//2 3//3
g 36fd55c0-e2eb-11ea-a123-54bf646e7e1f
f 14//14 5//5 13//13
f 13//13 5//5 6//6
f 13//13 6//6 12//12
f 12//12 6//6 7//7
f 12//12 7//7 11//11
f 11//11 7//7 8//8
f 11//11 8//8 10//10
f 10//10 8//8 9//9
g 36ffedc6-e2eb-11ea-88d4-54bf646e7e1f
f 15//15 16//16 18//18
f 18//18 16//16 17//17
g 37025ee6-e2eb-11ea-b3df-54bf646e7e1f
f 28//28 19//19 27//27
f 27//27 19//19 20//20
f 27//27 20//20 26//26
f 26//26 20//20 21//21
f 26//26 21//21 25//25
f 25//25 21//21 22//22
f 25//25 22//22 24//24
f 24//24 22//22 23//23
g 3704f6fa-e2eb-11ea-9ea9-54bf646e7e1f
f 29//29 30//30 32//32
f 32//32 30//30 31//31
g 37078f06-e2eb-11ea-a2bb-54bf646e7e1f
f 42//42 33//33 41//41
f 41//41 33//33 34//34
f 41//41 34//34 40//40
f 40//40 34//34 35//35
f 40//40 35//35 39//39
f 39//39 35//35 36//36
f 39//39 36//36 38//38
f 38//38 36//36 37//37
g 370a000c-e2eb-11ea-a5c1-54bf646e7e1f
f 43//43 44//44 46//46
f 46//46 44//44 45//45
g 370c981a-e2eb-11ea-aee2-54bf646e7e1f
f 56//56 47//47 55//55
f 55//55 47//47 48//48
f 55//55 48//48 54//54
f 54//54 48//48 49//49
f 54//54 49//49 53//53
f 53//53 49//49 50//50
f 53//53 50//50 52//52
f 52//52 50//50 51//51
g 370f302e-e2eb-11ea-94f1-54bf646e7e1f
f 58//58 59//59 57//57
f 57//57 59//59 60//60
f 57//57 60//60 61//61
f 62//62 71//71 61//61
f 61//61 71//71 72//72
f 61//61 72//72 57//57
f 57//57 72//72 76//76
f 76//76 72//72 73//73
f 76//76 73//73 74//74
f 63//63 66//66 62//62
f 62//62 66//66 67//67
f 62//62 67//67 71//71
f 71//71 67//67 70//70
f 70//70 67//67 69//69
f 69//69 67//67 68//68
f 63//63 64//64 66//66
f 66//66 64//64 65//65
f 74//74 75//75 76//76
g 36145480-e2eb-11ea-aa14-54bf646e7e1f
f 77//77 78//78 80//80
f 80//80 78//78 79//79
g 3619f9ae-e2eb-11ea-9e70-54bf646e7e1f
f 88//88 81//81 87//87
f 87//87 81//81 82//82
f 87//87 82//82 83//83
f 84//84 85//85 83//83
f 83//83 85//85 86//86
f 83//83 86//86 87//87
g 361e3f88-e2eb-11ea-93bc-54bf646e7e1f
f 89//89 90//90 92//92
f 92//92 90//90 91//91
g 362285c6-e2eb-11ea-98ec-54bf646e7e1f
f 100//100 93//93 99//99
f 99//99 93//93 94//94
f 99//99 94//94 95//95
f 96//96 97//97 95//95
f 95//95 97//97 98//98
f 95//95 98//98 99//99
g 36267d54-e2eb-11ea-a3ef-54bf646e7e1f
f 101//101 102//102 104//104
f 104//104 102//102 103//103
g 3629da4c-e2eb-11ea-9927-54bf646e7e1f
f 112//112 105//105 111//111
f 111//111 105//105 106//106
f 111//111 106//106 107//107
f 108//108 109//109 107//107
f 107//107 109//109 110//110
f 107//107 110//110 111//111
g 362d0d4c-e2eb-11ea-9084-54bf646e7e1f
f 113//113 114//114 116//116
f 116//116 114//114 115//115
g 36306824-e2eb-11ea-bd9e-54bf646e7e1f
f 124//124 117//117 123//123
f 123//123 117//117 118//118
f 123//123 118//118 119//119
f 120//120 121//121 119//119
f 119//119 121//121 122//122
f 119//119 122//122 123//123
g 36339c48-e2eb-11ea-9d9c-54bf646e7e1f
f 140//140 125//125 142//142
f 142//142 125//125 126//126
f 142//142 126//126 127//127
f 127//127 128//128 142//142
f 142//142 128//128 129//129
f 142//142 129//129 141//141
f 141//141 129//129 130//130
f 141//141 130//130 131//131
f 131//131 132//132 141//141
f 141//141 132//132 133//133
f 141//141 133//133 144//144
f 144//144 133//133 134//134
f 144//144 134//134 135//135
f 135//135 136//136 144//144
f 144//144 136//136 137//137
f 144//144 137//137 143//143
f 143//143 137//137 138//138
f 143//143 138//138 139//139
f 139//139 140//140 143//143
f 143//143 140//140 142//142
g 3556a980-e2eb-11ea-8a9a-54bf646e7e1f
f 145//145 146//146 148//148
f 148//148 146//146 147//147
g 354f5622-e2eb-11ea-a299-54bf646e7e1f
f 149//149 150//150 152//152
f 152//152 150//150 151//151
g 3551ee2e-e2eb-11ea-b5e6-54bf646e7e1f
f 153//153 154//154 156//156
f 156//156 154//154 155//155
g 35545f46-e2eb-11ea-b308-54bf646e7e1f
f 157//157 158//158 160//160
f 160//160 158//158 159//159
g 3558f34a-e2eb-11ea-a723-54bf646e7e1f
f 162//162 174//174 161//161
f 161//161 174//174 175//175
f 161//161 175//175 176//176
f 163//163 164//164 162//162
f 162//162 164//164 165//165
f 162//162 165//165 174//174
f 174//174 165//165 166//166
f 174//174 166//166 173//173
f 173//173 166//166 169//169
f 173//173 169//169 170//170
f 166//166 167//167 169//169
f 169//169 167//167 168//168
f 171//171 172//172 170//170
f 170//170 172//172 173//173
g 355b3d64-e2eb-11ea-9fa4-54bf646e7e1f
f 178//178 197//197 177//177
f 177//177 197//197 198//198
f 177//177 198//198 196//196
f 196//196 198//198 195//195
f 195//195 198//198 194//194
f 194//194 198//198 193//193
f 193//193 198//198 199//199
f 193//193 199//199 192//192
f 192//192 199//199 191//191
f 191//191 199//199 190//190
f 190//190 199//199 189//189
f 189//189 199//199 188//188
f 188//188 199//199 200//200
f 188//188 200//200 187//187
f 187//187 200//200 186//186
f 186//186 200//200 185//185
f 185//185 200//200 184//184
f 184//184 200//200 183//183
f 183//183 200//200 197//197
f 183//183 197//197 182//182
f 182//182 197//197 181//181
f 181//181 197//197 180//180
f 180//180 197//197 179//179
f 179//179 197//197 178//178

# End of file