# WaveFront *.obj file
# Vertices: 90
# Triangles : 84

v -0.5 11.350000381469727 6.123234262925839e-17
v -0.4797464907169342 11.350000381469727 -0.14086627960205078
v -0.42062675952911377 11.350000381469727 -0.27032041549682617
v -0.3274303674697876 11.350000381469727 -0.37787479162216187
v -0.2077075093984604 11.350000381469727 -0.45481598377227783
v -0.07115741819143295 11.350000381469727 -0.49491071701049805
v 0.07115741819143295 11.350000381469727 -0.49491071701049805
v 0.2077075093984604 11.350000381469727 -0.45481598377227783
v 0.3274303674697876 11.350000381469727 -0.37787479162216187
v 0.42062675952911377 11.350000381469727 -0.27032041549682617
v 0.4797464907169342 11.350000381469727 -0.14086627960205078
v 0.5 11.350000381469727 0.0
v 0.4797464907169342 11.350000381469727 0.14086627960205078
v 0.42062675952911377 11.350000381469727 0.27032041549682617
v 0.3274303674697876 11.350000381469727 0.37787479162216187
v 0.2077075093984604 11.350000381469727 0.45481598377227783
v 0.07115741819143295 11.350000381469727 0.49491071701049805
v -0.07115741819143295 11.350000381469727 0.49491071701049805
v -0.2077075093984604 11.350000381469727 0.45481598377227783
v -0.3274303674697876 11.350000381469727 0.37787479162216187
v -0.42062675952911377 11.350000381469727 0.27032041549682617
v -0.4797464907169342 11.350000381469727 0.14086627960205078
v -0.5 0.0 6.123234262925839e-17
v -0.4797464907169342 0.0 0.14086627960205078
v -0.42062675952911377 0.0 0.27032041549682617
v -0.3274303674697876 0.0 0.37787479162216187
v -0.2077075093984604 0.0 0.45481598377227783
v -0.07115741819143295 0.0 0.49491071701049805
v 0.07115741819143295 0.0 0.49491071701049805
v 0.2077075093984604 0.0 0.45481598377227783
v 0.3274303674697876 0.0 0.37787479162216187
v 0.42062675952911377 0.0 0.27032041549682617
v 0.4797464907169342 0.0 0.14086627960205078
v 0.5 0.0 0.0
v 0.4797464907169342 0.0 -0.14086627960205078
v 0.42062675952911377 0.0 -0.27032041549682617
v 0.3274303674697876 0.0 -0.37787479162216187
v 0.2077075093984604 0.0 -0.45481598377227783
v 0.07115741819143295 0.0 -0.49491071701049805
v -0.07115741819143295 0.0 -0.49491071701049805
v -0.2077075093984604 0.0 -0.45481598377227783
v -0.3274303674697876 0.0 -0.37787479162216187
v -0.42062675952911377 0.0 -0.27032041549682617
v -0.4797464907169342 0.0 -0.14086627960205078
v -0.5 0.0 6.123234262925839e-17
v -0.5 11.350000381469727 6.123234262925839e-17
v -0.5 11.350000381469727 6.123234262925839e-17
v -0.4797464907169342 11.350000381469727 0.14086627960205078
v -0.42062675952911377 11.350000381469727 0.27032041549682617
v -0.3274303674697876 11.350000381469727 0.37787479162216187
v -0.2077075093984604 11.350000381469727 0.45481598377227783
v -0.07115741819143295 11.350000381469727 0.49491071701049805
v 0.07115741819143295 11.350000381469727 0.49491071701049805
v 0.2077075093984604 11.350000381469727 0.45481598377227783
v 0.3274303674697876 11.350000381469727 0.37787479162216187
v 0.42062675952911377 11.350000381469727 0.27032041549682617
v 0.4797464907169342 11.350000381469727 0.14086627960205078
v 0.5 11.350000381469727 0.0
v 0.4797464907169342 11.350000381469727 -0.14086627960205078
v 0.42062675952911377 11.350000381469727 -0.27032041549682617
v 0.3274303674697876 11.350000381469727 -0.37787479162216187
v 0.2077075093984604 11.350000381469727 -0.45481598377227783
v 0.07115741819143295 11.350000381469727 -0.49491071701049805
v -0.07115741819143295 11.350000381469727 -0.49491071701049805
v -0.2077075093984604 11.350000381469727 -0.45481598377227783
v -0.3274303674697876 11.350000381469727 -0.37787479162216187
v -0.42062675952911377 11.350000381469727 -0.27032041549682617
v -0.4797464907169342 11.350000381469727 -0.14086627960205078
v -0.5 0.0 6.123234262925839e-17
v -0.4797464907169342 0.0 -0.14086627960205078
v -0.42062675952911377 0.0 -0.27032041549682617
v -0.3274303674697876 0.0 -0.37787479162216187
v -0.2077075093984604 0.0 -0.45481598377227783
v -0.07115741819143295 0.0 -0.49491071701049805
v 0.07115741819143295 0.0 -0.49491071701049805
v 0.2077075093984604 0.0 -0.45481598377227783
v 0.3274303674697876 0.0 -0.37787479162216187
v 0.42062675952911377 0.0 -0.27032041549682617
v 0.4797464907169342 0.0 -0.14086627960205078
v 0.5 0.0 0.0
v 0.4797464907169342 0.0 0.14086627960205078
v 0.42062675952911377 0.0 0.27032041549682617
v 0.3274303674697876 0.0 0.37787479162216187
v 0.2077075093984604 0.0 0.45481598377227783
v 0.07115741819143295 0.0 0.49491071701049805
v -0.07115741819143295 0.0 0.49491071701049805
v -0.2077075093984604 0.0 0.45481598377227783
v -0.3274303674697876 0.0 0.37787479162216187
v -0.42062675952911377 0.0 0.27032041549682617
v -0.4797464907169342 0.0 0.14086627960205078
vn -1.0 0.0 -1.2246468525851679e-16
vn -0.9594929814338684 0.0 -0.28173255920410156
vn -0.8412535190582275 0.0 -0.5406408309936523
vn -0.6548607349395752 0.0 -0.7557495832443237
vn -0.4154150187969208 0.0 -0.9096319675445557
vn -0.1423148363828659 0.0 -0.9898214340209961
vn 0.1423148363828659 -0.0 -0.9898214340209961
vn 0.4154150187969208 -0.0 -0.9096319675445557
vn 0.6548607349395752 -0.0 -0.7557495832443237
vn 0.8412535190582275 -0.0 -0.5406408309936523
vn 0.9594929814338684 -0.0 -0.28173255920410156
vn 1.0 -0.0 -0.0
vn 0.9594929814338684 -0.0 0.28173255920410156
vn 0.8412535190582275 -0.0 0.5406408309936523
vn 0.6548607349395752 -0.0 0.7557495832443237
vn 0.4154150187969208 -0.0 0.9096319675445557
vn 0.1423148363828659 -0.0 0.9898214340209961
vn -0.1423148363828659 -0.0 0.9898214340209961
vn -0.4154150187969208 -0.0 0.9096319675445557
vn -0.6548607349395752 -0.0 0.7557495832443237
vn -0.8412535190582275 -0.0 0.5406408309936523
vn -0.9594929814338684 -0.0 0.28173255920410156
vn -1.0 -0.0 1.2246468525851679e-16
vn -0.9594929814338684 -0.0 0.28173255920410156
vn -0.8412535190582275 -0.0 0.5406408309936523
vn -0.6548607349395752 -0.0 0.7557495832443237
vn -0.4154150187969208 -0.0 0.9096319675445557
vn -0.1423148363828659 -0.0 0.9898214340209961
vn 0.1423148363828659 -0.0 0.9898214340209961
vn 0.4154150187969208 -0.0 0.9096319675445557
vn 0.6548607349395752 -0.0 0.7557495832443237
vn 0.8412535190582275 -0.0 0.5406408309936523
vn 0.9594929814338684 -0.0 0.28173255920410156
vn 1.0 -0.0 -0.0
vn 0.9594929814338684 -0.0 -0.28173255920410156
vn 0.8412535190582275 -0.0 -0.5406408309936523
vn 0.6548607349395752 -0.0 -0.7557495832443237
vn 0.4154150187969208 -0.0 -0.9096319675445557
vn 0.1423148363828659 -0.0 -0.9898214340209961
vn -0.1423148363828659 0.0 -0.9898214340209961
vn -0.4154150187969208 0.0 -0.9096319675445557
vn -0.6548607349395752 0.0 -0.7557495832443237
vn -0.8412535190582275 0.0 -0.5406408309936523
vn -0.9594929814338684 0.0 -0.28173255920410156
vn -1.0 0.0 -1.2246468525851679e-16
vn -1.0 -0.0 1.2246468525851679e-16
vn 0.0 1.0 0.0
vn 0.0 1.0 0.0
vn 0.0 1.0 0.0
vn 0.0 1.0 0.0
vn 0.0 1.0 0.0
vn 0.0 1.0 0.0
vn 0.0 1.0 0.0
vn 0.0 1.0 0.0
vn 0.0 1.0 0.0
vn 0.0 1.0 0.0
vn 0.0 1.0 0.0
vn 0.0 1.0 0.0
vn 0.0 1.0 0.0
vn 0.0 1.0 0.0
vn 0.0 1.0 0.0
vn 0.0 1.0 0.0
vn 0.0 1.0 0.0
vn 0.0 1.0 0.0
vn 0.0 1.0 0.0
vn 0.0 1.0 0.0
vn 0.0 1.0 0.0
vn 0.0 1.0 0.0
vn -0.0 -1.0 -0.0
vn -0.0 -1.0 -0.0
vn -0.0 -1.0 -0.0
vn -0.0 -1.0 -0.0
vn -0.0 -1.0 -0.0
vn -0.0 -1.0 -0.0
vn -0.0 -1.0 -0.0
vn -0.0 -1.0 -0.0
vn -0.0 -1.0 -0.0
vn -0.0 -1.0 -0.0
vn -0.0 -1.0 -0.0
vn -0.0 -1.0 -0.0
vn -0.0 -1.0 -0.0
vn -0.0 -1.0 -0.0
vn -0.0 -1.0 -0.0
vn -0.0 -1.0 -0.0
vn -0.0 -1.0 -0.0
vn -0.0 -1.0 -0.0
vn -0.0 -1.0 -0.0
vn -0.0 -1.0 -0.0
vn -0.0 -1.0 -0.0
vn -0.0 -1.0 -0.0
g b050bb3a-e2f2-11ea-9e01-54bf646e7e1f
f 2//2 44//44 1//1
f 1//1 44//44 45//45
f 46//46 23//23 22//22
f 22//22 23//23 24//24
f 22//22 24//24 25//25
f 2//2 3//3 44//44
f 44//44 3//3 43//43
f 43//43 3//3 4//4
f 43//43 4//4 42//42
f 42//42 4//4 5//5
f 42//42 5//5 41//41
f 41//41 5//5 6//6
f 41//41 6//6 40//40
f 40//40 6//6 7//7
f 40//40 7//7 39//39
f 39//39 7//7 8//8
f 39//39 8//8 38//38
f 38//38 8//8 9//9
f 38//38 9//9 37//37
f 37//37 9//9 10//10
f 37//37 10//10 36//36
f 36//36 10//10 11//11
f 36//36 11//11 35//35
f 35//35 11//11 12//12
f 35//35 12//12 34//34
f 34//34 12//12 13//13
f 34//34 13//13 33//33
f 33//33 13//13 14//14
f 33//33 14//14 32//32
f 32//32 14//14 15//15
f 32//32 15//15 31//31
f 31//31 15//15 16//16
f 31//31 16//16 30//30
f 30//30 16//16 17//17
f 30//30 17//17 29//29
f 29//29 17//17 18//18
f 29//29 18//18 28//28
f 28//28 18//18 19//19
f 28//28 19//19 27//27
f 27//27 19//19 20//20
f 27//27 20//20 26//26
f 26//26 20//20 21//21
f 26//26 21//21 25//25
f 25//25 21//21 22//22
g b051a5ae-e2f2-11ea-8e35-54bf646e7e1f
f 48//48 57//57 47//47
f 47//47 57//57 58//58
f 47//47 58//58 68//68
f 68//68 58//58 59//59
f 68//68 59//59 67//67
f 67//67 59//59 60//60
f 67//67 60//60 66//66
f 66//66 60//60 61//61
f 66//66 61//61 65//65
f 65//65 61//61 62//62
f 65//65 62//62 64//64
f 64//64 62//62 63//63
f 57//57 48//48 56//56
f 56//56 48//48 49//49
f 56//56 49//49 55//55
f 55//55 49//49 50//50
f 55//55 50//50 54//54
f 54//54 50//50 51//51
f 54//54 51//51 53//53
f 53//53 51//51 52//52
g b052b72c-e2f2-11ea-8647-54bf646e7e1f
f 70//70 79//79 69//69
f 69//69 79//79 80//80
f 69//69 80//80 90//90
f 90//90 80//80 81//81
f 90//90 81//81 89//89
f 89//89 81//81 82//82
f 89//89 82//82 88//88
f 88//88 82//82 83//83
f 88//88 83//83 87//87
f 87//87 83//83 84//84
f 87//87 84//84 86//86
f 86//86 84//84 85//85
f 79//79 70//70 78//78
f 78//78 70//70 71//71
f 78//78 71//71 77//77
f 77//77 71//71 72//72
f 77//77 72//72 76//76
f 76//76 72//72 73//73
f 76//76 73//73 75//75
f 75//75 73//73 74//74

# End of file