# WaveFront *.obj file
# Vertices: 86
# Triangles : 80

v 11.5 -6.123234262925839e-17 0.5
v 11.5 0.14737758040428162 0.4777863919734955
v 11.5 0.2816600203514099 0.413119375705719
v 11.5 0.39091575145721436 0.31174489855766296
v 11.5 0.4654368758201599 0.18267051875591278
v 11.5 0.49860191345214844 0.03736504539847374
v 11.5 0.48746395111083984 -0.11126046627759933
v 11.5 0.4330126941204071 -0.25
v 11.5 0.3400863707065582 -0.36652594804763794
v 11.5 0.21694186329841614 -0.45048442482948303
v 11.5 0.07452113181352615 -0.49441540241241455
v 11.5 -0.07452113181352615 -0.49441540241241455
v 11.5 -0.21694186329841614 -0.45048442482948303
v 11.5 -0.3400863707065582 -0.36652594804763794
v 11.5 -0.4330126941204071 -0.25
v 11.5 -0.48746395111083984 -0.11126046627759933
v 11.5 -0.49860191345214844 0.03736504539847374
v 11.5 -0.4654368758201599 0.18267051875591278
v 11.5 -0.39091575145721436 0.31174489855766296
v 11.5 -0.2816600203514099 0.413119375705719
v 11.5 -0.14737758040428162 0.4777863919734955
v 0.0 -6.123234262925839e-17 0.5
v 0.0 -0.14737758040428162 0.4777863919734955
v 0.0 -0.2816600203514099 0.413119375705719
v 0.0 -0.39091575145721436 0.31174489855766296
v 0.0 -0.4654368758201599 0.18267051875591278
v 0.0 -0.49860191345214844 0.03736504539847374
v 0.0 -0.48746395111083984 -0.11126046627759933
v 0.0 -0.4330126941204071 -0.25
v 0.0 -0.3400863707065582 -0.36652594804763794
v 0.0 -0.21694186329841614 -0.45048442482948303
v 0.0 -0.07452113181352615 -0.49441540241241455
v 0.0 0.07452113181352615 -0.49441540241241455
v 0.0 0.21694186329841614 -0.45048442482948303
v 0.0 0.3400863707065582 -0.36652594804763794
v 0.0 0.4330126941204071 -0.25
v 0.0 0.48746395111083984 -0.11126046627759933
v 0.0 0.49860191345214844 0.03736504539847374
v 0.0 0.4654368758201599 0.18267051875591278
v 0.0 0.39091575145721436 0.31174489855766296
v 0.0 0.2816600203514099 0.413119375705719
v 0.0 0.14737758040428162 0.4777863919734955
v 0.0 -6.123234262925839e-17 0.5
v 11.5 -6.123234262925839e-17 0.5
v 11.5 -6.123234262925839e-17 0.5
v 11.5 -0.14737758040428162 0.4777863919734955
v 11.5 -0.2816600203514099 0.413119375705719
v 11.5 -0.39091575145721436 0.31174489855766296
v 11.5 -0.4654368758201599 0.18267051875591278
v 11.5 -0.49860191345214844 0.03736504539847374
v 11.5 -0.48746395111083984 -0.11126046627759933
v 11.5 -0.4330126941204071 -0.25
v 11.5 -0.3400863707065582 -0.36652594804763794
v 11.5 -0.21694186329841614 -0.45048442482948303
v 11.5 -0.07452113181352615 -0.49441540241241455
v 11.5 0.07452113181352615 -0.49441540241241455
v 11.5 0.21694186329841614 -0.45048442482948303
v 11.5 0.3400863707065582 -0.36652594804763794
v 11.5 0.4330126941204071 -0.25
v 11.5 0.48746395111083984 -0.11126046627759933
v 11.5 0.49860191345214844 0.03736504539847374
v 11.5 0.4654368758201599 0.18267051875591278
v 11.5 0.39091575145721436 0.31174489855766296
v 11.5 0.2816600203514099 0.413119375705719
v 11.5 0.14737758040428162 0.4777863919734955
v 0.0 -6.123234262925839e-17 0.5
v 0.0 0.14737758040428162 0.4777863919734955
v 0.0 0.2816600203514099 0.413119375705719
v 0.0 0.39091575145721436 0.31174489855766296
v 0.0 0.4654368758201599 0.18267051875591278
v 0.0 0.49860191345214844 0.03736504539847374
v 0.0 0.48746395111083984 -0.11126046627759933
v 0.0 0.4330126941204071 -0.25
v 0.0 0.3400863707065582 -0.36652594804763794
v 0.0 0.21694186329841614 -0.45048442482948303
v 0.0 0.07452113181352615 -0.49441540241241455
v 0.0 -0.07452113181352615 -0.49441540241241455
v 0.0 -0.21694186329841614 -0.45048442482948303
v 0.0 -0.3400863707065582 -0.36652594804763794
v 0.0 -0.4330126941204071 -0.25
v 0.0 -0.48746395111083984 -0.11126046627759933
v 0.0 -0.49860191345214844 0.03736504539847374
v 0.0 -0.4654368758201599 0.18267051875591278
v 0.0 -0.39091575145721436 0.31174489855766296
v 0.0 -0.2816600203514099 0.413119375705719
v 0.0 -0.14737758040428162 0.4777863919734955
vn -0.0 1.2246468525851679e-16 1.0
vn -0.0 0.29475516080856323 0.955572783946991
vn -0.0 0.5633200407028198 0.826238751411438
vn -0.0 0.7818315029144287 0.6234897971153259
vn -0.0 0.9308737516403198 0.36534103751182556
vn -0.0 0.9972038269042969 0.07473009079694748
vn -0.0 0.9749279022216797 -0.22252093255519867
vn -0.0 0.8660253882408142 -0.5
vn -0.0 0.6801727414131165 -0.7330518960952759
vn -0.0 0.4338837265968323 -0.9009688496589661
vn -0.0 0.1490422636270523 -0.9888308048248291
vn 0.0 -0.1490422636270523 -0.9888308048248291
vn 0.0 -0.4338837265968323 -0.9009688496589661
vn 0.0 -0.6801727414131165 -0.7330518960952759
vn 0.0 -0.8660253882408142 -0.5
vn 0.0 -0.9749279022216797 -0.22252093255519867
vn -0.0 -0.9972038269042969 0.07473009079694748
vn -0.0 -0.9308737516403198 0.36534103751182556
vn -0.0 -0.7818315029144287 0.6234897971153259
vn -0.0 -0.5633200407028198 0.826238751411438
vn -0.0 -0.29475516080856323 0.955572783946991
vn -0.0 -1.2246468525851679e-16 1.0
vn -0.0 -0.29475516080856323 0.955572783946991
vn -0.0 -0.5633200407028198 0.826238751411438
vn -0.0 -0.7818315029144287 0.6234897971153259
vn -0.0 -0.9308737516403198 0.36534103751182556
vn -0.0 -0.9972038269042969 0.07473009079694748
vn 0.0 -0.9749279022216797 -0.22252093255519867
vn 0.0 -0.8660253882408142 -0.5
vn 0.0 -0.6801727414131165 -0.7330518960952759
vn 0.0 -0.4338837265968323 -0.9009688496589661
vn 0.0 -0.1490422636270523 -0.9888308048248291
vn -0.0 0.1490422636270523 -0.9888308048248291
vn -0.0 0.4338837265968323 -0.9009688496589661
vn -0.0 0.6801727414131165 -0.7330518960952759
vn -0.0 0.8660253882408142 -0.5
vn -0.0 0.9749279022216797 -0.22252093255519867
vn -0.0 0.9972038269042969 0.07473009079694748
vn -0.0 0.9308737516403198 0.36534103751182556
vn -0.0 0.7818315029144287 0.6234897971153259
vn -0.0 0.5633200407028198 0.826238751411438
vn -0.0 0.29475516080856323 0.955572783946991
vn -0.0 1.2246468525851679e-16 1.0
vn -0.0 -1.2246468525851679e-16 1.0
vn 1.0 0.0 0.0
vn 1.0 0.0 0.0
vn 1.0 0.0 0.0
vn 1.0 0.0 0.0
vn 1.0 0.0 0.0
vn 1.0 0.0 0.0
vn 1.0 0.0 0.0
vn 1.0 0.0 0.0
vn 1.0 0.0 0.0
vn 1.0 0.0 0.0
vn 1.0 0.0 0.0
vn 1.0 0.0 0.0
vn 1.0 0.0 0.0
vn 1.0 0.0 0.0
vn 1.0 0.0 0.0
vn 1.0 0.0 0.0
vn 1.0 0.0 0.0
vn 1.0 0.0 0.0
vn 1.0 0.0 0.0
vn 1.0 0.0 0.0
vn 1.0 0.0 0.0
vn -1.0 -0.0 -0.0
vn -1.0 -0.0 -0.0
vn -1.0 -0.0 -0.0
vn -1.0 -0.0 -0.0
vn -1.0 -0.0 -0.0
vn -1.0 -0.0 -0.0
vn -1.0 -0.0 -0.0
vn -1.0 -0.0 -0.0
vn -1.0 -0.0 -0.0
vn -1.0 -0.0 -0.0
vn -1.0 -0.0 -0.0
vn -1.0 -0.0 -0.0
vn -1.0 -0.0 -0.0
vn -1.0 -0.0 -0.0
vn -1.0 -0.0 -0.0
vn -1.0 -0.0 -0.0
vn -1.0 -0.0 -0.0
vn -1.0 -0.0 -0.0
vn -1.0 -0.0 -0.0
vn -1.0 -0.0 -0.0
vn -1.0 -0.0 -0.0
g 2117ac7a-e2f4-11ea-864d-54bf646e7e1f
f 2//2 42//42 1//1
f 1//1 42//42 43//43
f 44//44 22//22 21//21
f 21//21 22//22 23//23
f 21//21 23//23 20//20
f 20//20 23//23 24//24
f 20//20 24//24 19//19
f 19//19 24//24 25//25
f 19//19 25//25 18//18
f 18//18 25//25 26//26
f 18//18 26//26 17//17
f 17//17 26//26 27//27
f 17//17 27//27 16//16
f 16//16 27//27 28//28
f 16//16 28//28 15//15
f 15//15 28//28 29//29
f 15//15 29//29 14//14
f 14//14 29//29 30//30
f 14//14 30//30 13//13
f 13//13 30//30 31//31
f 13//13 31//31 12//12
f 12//12 31//31 32//32
f 12//12 32//32 11//11
f 11//11 32//32 33//33
f 11//11 33//33 10//10
f 10//10 33//33 34//34
f 10//10 34//34 9//9
f 9//9 34//34 35//35
f 9//9 35//35 8//8
f 8//8 35//35 36//36
f 8//8 36//36 7//7
f 7//7 36//36 37//37
f 7//7 37//37 6//6
f 6//6 37//37 38//38
f 6//6 38//38 5//5
f 5//5 38//38 39//39
f 5//5 39//39 4//4
f 4//4 39//39 40//40
f 4//4 40//40 3//3
f 3//3 40//40 41//41
f 3//3 41//41 2//2
f 2//2 41//41 42//42
g 21195a26-e2f4-11ea-b836-54bf646e7e1f
f 46//46 55//55 45//45
f 45//45 55//55 56//56
f 45//45 56//56 65//65
f 65//65 56//56 57//57
f 65//65 57//57 64//64
f 64//64 57//57 58//58
f 64//64 58//58 63//63
f 63//63 58//58 59//59
f 63//63 59//59 62//62
f 62//62 59//59 60//60
f 62//62 60//60 61//61
f 55//55 46//46 54//54
f 54//54 46//46 47//47
f 54//54 47//47 53//53
f 53//53 47//47 48//48
f 53//53 48//48 52//52
f 52//52 48//48 49//49
f 52//52 49//49 51//51
f 51//51 49//49 50//50
g 211ae0be-e2f4-11ea-9b5b-54bf646e7e1f
f 67//67 76//76 66//66
f 66//66 76//76 77//77
f 66//66 77//77 86//86
f 86//86 77//77 78//78
f 86//86 78//78 85//85
f 85//85 78//78 79//79
f 85//85 79//79 84//84
f 84//84 79//79 80//80
f 84//84 80//80 83//83
f 83//83 80//80 81//81
f 83//83 81//81 82//82
f 76//76 67//67 75//75
f 75//75 67//67 68//68
f 75//75 68//68 74//74
f 74//74 68//68 69//69
f 74//74 69//69 73//73
f 73//73 69//69 70//70
f 73//73 70//70 72//72
f 72//72 70//70 71//71

# End of file