# WaveFront *.obj file
# Vertices: 138
# Triangles : 108

v 0.0 2.38124942779541 2.5400002002716064
v 0.0 4.440892098500626e-16 2.5400002002716064
v -1.2699999809265137 4.440892098500626e-16 2.5400002002716064
v -1.2699999809265137 2.38124942779541 2.5400002002716064
v 0.0 2.3812499046325684 1.2699999809265137
v 0.0 2.5051321983337402 1.2822012901306152
v 0.0 2.624253988265991 1.3183364868164062
v 0.0 2.734037160873413 1.3770167827606201
v 0.0 2.8302628993988037 1.4559872150421143
v 0.0 2.909233331680298 1.5522130727767944
v 0.0 2.9679136276245117 1.6619962453842163
v 0.0 3.0040488243103027 1.7811179161071777
v 0.0 3.0162501335144043 1.9050003290176392
v 0.0 3.0040485858917236 2.0288827419281006
v 0.0 2.9679133892059326 2.1480042934417725
v 0.0 2.9092330932617188 2.2577874660491943
v 0.0 2.8302626609802246 2.354013204574585
v 0.0 2.734036684036255 2.432983636856079
v 0.0 2.624253511428833 2.491663932800293
v 0.0 2.505131959915161 2.527798891067505
v 0.0 2.38124942779541 2.5400002002716064
v -1.2699999809265137 2.38124942779541 2.5400002002716064
v -1.2699999809265137 2.505131959915161 2.527798891067505
v -1.2699999809265137 2.624253511428833 2.491663932800293
v -1.2699999809265137 2.734036684036255 2.432983636856079
v -1.2699999809265137 2.8302626609802246 2.354013204574585
v -1.2699999809265137 2.9092330932617188 2.2577874660491943
v -1.2699999809265137 2.9679133892059326 2.1480042934417725
v -1.2699999809265137 3.0040485858917236 2.0288827419281006
v -1.2699999809265137 3.0162501335144043 1.9050003290176392
v -1.2699999809265137 3.0040488243103027 1.7811179161071777
v -1.2699999809265137 2.9679136276245117 1.6619962453842163
v -1.2699999809265137 2.909233331680298 1.5522130727767944
v -1.2699999809265137 2.8302628993988037 1.4559872150421143
v -1.2699999809265137 2.734037160873413 1.3770167827606201
v -1.2699999809265137 2.624253988265991 1.3183364868164062
v -1.2699999809265137 2.5051321983337402 1.2822012901306152
v -1.2699999809265137 2.3812499046325684 1.2699999809265137
v 0.0 2.3329521416781815e-16 1.2699999809265137
v 0.0 2.3812499046325684 1.2699999809265137
v -1.2699999809265137 2.3812499046325684 1.2699999809265137
v -1.2699999809265137 2.3329521416781815e-16 1.2699999809265137
v 0.0 0.0 0.0
v 0.0 2.3329521416781815e-16 1.2699999809265137
v -1.2699999809265137 2.3329521416781815e-16 1.2699999809265137
v -1.2699999809265137 0.0 0.0
v 0.0 1.2699999809265137 0.0
v 0.0 0.0 0.0
v -1.2699999809265137 0.0 0.0
v -1.2699999809265137 1.2699999809265137 0.0
v 0.0 2.069242477416992 -0.9524999856948853
v 0.0 1.2699999809265137 0.0
v -1.2699999809265137 1.2699999809265137 0.0
v -1.2699999809265137 2.069242477416992 -0.9524999856948853
v 0.0 3.492500066757202 -0.9524999856948853
v 0.0 2.069242477416992 -0.9524999856948853
v -1.2699999809265137 2.069242477416992 -0.9524999856948853
v -1.2699999809265137 3.492500066757202 -0.9524999856948853
v 0.0 3.492500066757202 0.10920366644859314
v 0.0 3.492500066757202 -0.9524999856948853
v -1.2699999809265137 3.492500066757202 -0.9524999856948853
v -1.2699999809265137 3.492500066757202 0.10920366644859314
v 0.0 5.079999923706055 0.41778239607810974
v 0.0 3.492500066757202 0.10920366644859314
v -1.2699999809265137 3.492500066757202 0.10920366644859314
v -1.2699999809265137 5.079999923706055 0.41778239607810974
v 0.0 5.079999923706055 3.502089023590088
v 0.0 5.079999923706055 0.41778239607810974
v -1.2699999809265137 5.079999923706055 0.41778239607810974
v -1.2699999809265137 5.079999923706055 3.502089023590088
v 0.0 3.333750009536743 3.81000018119812
v 0.0 5.079999923706055 3.502089023590088
v -1.2699999809265137 5.079999923706055 3.502089023590088
v -1.2699999809265137 3.333750009536743 3.81000018119812
v 0.0 5.551115123125783e-16 3.81000018119812
v 0.0 3.333750009536743 3.81000018119812
v -1.2699999809265137 3.333750009536743 3.81000018119812
v -1.2699999809265137 5.551115123125783e-16 3.81000018119812
v 0.0 4.440892098500626e-16 2.5400002002716064
v 0.0 5.551115123125783e-16 3.81000018119812
v -1.2699999809265137 5.551115123125783e-16 3.81000018119812
v -1.2699999809265137 4.440892098500626e-16 2.5400002002716064
v 0.0 5.551115123125783e-16 3.81000018119812
v 0.0 4.440892098500626e-16 2.5400002002716064
v 0.0 2.38124942779541 2.5400002002716064
v 0.0 2.505131959915161 2.527798891067505
v 0.0 2.624253511428833 2.491663932800293
v 0.0 2.734036684036255 2.432983636856079
v 0.0 2.8302626609802246 2.354013204574585
v 0.0 2.9092330932617188 2.2577874660491943
v 0.0 2.9679133892059326 2.1480042934417725
v 0.0 3.0040485858917236 2.0288827419281006
v 0.0 3.0162501335144043 1.9050003290176392
v 0.0 3.0040488243103027 1.7811179161071777
v 0.0 2.9679136276245117 1.6619962453842163
v 0.0 2.909233331680298 1.5522130727767944
v 0.0 2.8302628993988037 1.4559872150421143
v 0.0 2.734037160873413 1.3770167827606201
v 0.0 2.624253988265991 1.3183364868164062
v 0.0 2.5051321983337402 1.2822012901306152
v 0.0 2.3812499046325684 1.2699999809265137
v 0.0 2.3329521416781815e-16 1.2699999809265137
v 0.0 0.0 0.0
v 0.0 1.2699999809265137 0.0
v 0.0 2.069242477416992 -0.9524999856948853
v 0.0 3.492500066757202 -0.9524999856948853
v 0.0 3.492500066757202 0.10920366644859314
v 0.0 5.079999923706055 0.41778239607810974
v 0.0 5.079999923706055 3.502089023590088
v 0.0 3.333750009536743 3.81000018119812
v -1.2699999809265137 4.440892098500626e-16 2.5400002002716064
v -1.2699999809265137 5.551115123125783e-16 3.81000018119812
v -1.2699999809265137 3.333750009536743 3.81000018119812
v -1.2699999809265137 5.079999923706055 3.502089023590088
v -1.2699999809265137 5.079999923706055 0.41778239607810974
v -1.2699999809265137 3.492500066757202 0.10920366644859314
v -1.2699999809265137 3.492500066757202 -0.9524999856948853
v -1.2699999809265137 2.069242477416992 -0.9524999856948853
v -1.2699999809265137 1.2699999809265137 0.0
v -1.2699999809265137 0.0 0.0
v -1.2699999809265137 2.3329521416781815e-16 1.2699999809265137
v -1.2699999809265137 2.3812499046325684 1.2699999809265137
v -1.2699999809265137 2.5051321983337402 1.2822012901306152
v -1.2699999809265137 2.624253988265991 1.3183364868164062
v -1.2699999809265137 2.734037160873413 1.3770167827606201
v -1.2699999809265137 2.8302628993988037 1.4559872150421143
v -1.2699999809265137 2.909233331680298 1.5522130727767944
v -1.2699999809265137 2.9679136276245117 1.6619962453842163
v -1.2699999809265137 3.0040488243103027 1.7811179161071777
v -1.2699999809265137 3.0162501335144043 1.9050003290176392
v -1.2699999809265137 3.0040485858917236 2.0288827419281006
v -1.2699999809265137 2.9679133892059326 2.1480042934417725
v -1.2699999809265137 2.9092330932617188 2.2577874660491943
v -1.2699999809265137 2.8302626609802246 2.354013204574585
v -1.2699999809265137 2.734036684036255 2.432983636856079
v -1.2699999809265137 2.624253511428833 2.491663932800293
v -1.2699999809265137 2.505131959915161 2.527798891067505
v -1.2699999809265137 2.38124942779541 2.5400002002716064
vn 0.0 1.6383808087994112e-08 -1.0
vn 0.0 1.6383808087994112e-08 -1.0
vn 0.0 1.6383808087994112e-08 -1.0
vn 0.0 1.6383808087994112e-08 -1.0
vn 0.0 1.8882124663832656e-07 1.0
vn 0.0 -0.19509020447731018 0.9807853102684021
vn 0.0 -0.3826833963394165 0.9238795638084412
vn 0.0 -0.5555702447891235 0.8314695954322815
vn 0.0 -0.7071068286895752 0.7071067094802856
vn 0.0 -0.831469714641571 0.555570125579834
vn 0.0 -0.9238796234130859 0.38268324732780457
vn 0.0 -0.9807853102684021 0.19509004056453705
vn -0.0 -1.0 -3.499438321341586e-07
vn -0.0 -0.9807851910591125 -0.19509072601795197
vn -0.0 -0.9238793253898621 -0.3826838731765747
vn -0.0 -0.8314692974090576 -0.5555707216262817
vn -0.0 -0.707106351852417 -0.7071072459220886
vn -0.0 -0.5555696487426758 -0.8314700126647949
vn -0.0 -0.382682740688324 -0.9238798022270203
vn -0.0 -0.19508951902389526 -0.9807854294776917
vn 0.0 8.887089393283532e-07 -1.0
vn 0.0 8.887089393283532e-07 -1.0
vn -0.0 -0.19508951902389526 -0.9807854294776917
vn -0.0 -0.382682740688324 -0.9238798022270203
vn -0.0 -0.5555696487426758 -0.8314700126647949
vn -0.0 -0.707106351852417 -0.7071072459220886
vn -0.0 -0.8314692974090576 -0.5555707216262817
vn -0.0 -0.9238793253898621 -0.3826838731765747
vn -0.0 -0.9807851910591125 -0.19509072601795197
vn -0.0 -1.0 -3.499438321341586e-07
vn 0.0 -0.9807853102684021 0.19509004056453705
vn 0.0 -0.9238796234130859 0.38268324732780457
vn 0.0 -0.831469714641571 0.555570125579834
vn 0.0 -0.7071068286895752 0.7071067094802856
vn 0.0 -0.5555702447891235 0.8314695954322815
vn 0.0 -0.3826833963394165 0.9238795638084412
vn 0.0 -0.19509020447731018 0.9807853102684021
vn 0.0 1.8882124663832656e-07 1.0
vn 0.0 -8.392237269970893e-16 1.0
vn 0.0 -8.392237269970893e-16 1.0
vn 0.0 -8.392237269970893e-16 1.0
vn 0.0 -8.392237269970893e-16 1.0
vn 0.0 -1.0 1.8369701465288538e-16
vn 0.0 -1.0 1.8369701465288538e-16
vn 0.0 -1.0 1.8369701465288538e-16
vn 0.0 -1.0 1.8369701465288538e-16
vn 0.0 0.0 -1.0
vn 0.0 0.0 -1.0
vn 0.0 0.0 -1.0
vn 0.0 0.0 -1.0
vn -0.0 -0.7660444378852844 -0.6427876353263855
vn -0.0 -0.7660444378852844 -0.6427876353263855
vn -0.0 -0.7660444378852844 -0.6427876353263855
vn -0.0 -0.7660444378852844 -0.6427876353263855
vn 0.0 0.0 -1.0
vn 0.0 0.0 -1.0
vn 0.0 0.0 -1.0
vn 0.0 0.0 -1.0
vn 0.0 1.0 -8.365596495592969e-16
vn 0.0 1.0 -8.365596495592969e-16
vn 0.0 1.0 -8.365596495592969e-16
vn 0.0 1.0 -8.365596495592969e-16
vn 0.0 0.1908089965581894 -0.9816271662712097
vn 0.0 0.1908089965581894 -0.9816271662712097
vn 0.0 0.1908089965581894 -0.9816271662712097
vn 0.0 0.1908089965581894 -0.9816271662712097
vn 0.0 1.0 -0.0
vn 0.0 1.0 -0.0
vn 0.0 1.0 -0.0
vn 0.0 1.0 -0.0
vn 0.0 0.1736481785774231 0.9848077297210693
vn 0.0 0.1736481785774231 0.9848077297210693
vn 0.0 0.1736481785774231 0.9848077297210693
vn 0.0 0.1736481785774231 0.9848077297210693
vn 0.0 1.3321010552271544e-16 1.0
vn 0.0 1.3321010552271544e-16 1.0
vn 0.0 1.3321010552271544e-16 1.0
vn 0.0 1.3321010552271544e-16 1.0
vn 0.0 -1.0 8.741913381723354e-17
vn 0.0 -1.0 8.741913381723354e-17
vn 0.0 -1.0 8.741913381723354e-17
vn 0.0 -1.0 8.741913381723354e-17
vn 1.0 0.0 0.0
vn 1.0 0.0 0.0
vn 1.0 0.0 0.0
vn 1.0 0.0 0.0
vn 1.0 0.0 0.0
vn 1.0 0.0 0.0
vn 1.0 0.0 0.0
vn 1.0 0.0 0.0
vn 1.0 0.0 0.0
vn 1.0 0.0 0.0
vn 1.0 0.0 0.0
vn 1.0 0.0 0.0
vn 1.0 0.0 0.0
vn 1.0 0.0 0.0
vn 1.0 0.0 0.0
vn 1.0 0.0 0.0
vn 1.0 0.0 0.0
vn 1.0 0.0 0.0
vn 1.0 0.0 0.0
vn 1.0 0.0 0.0
vn 1.0 0.0 0.0
vn 1.0 0.0 0.0
vn 1.0 0.0 0.0
vn 1.0 0.0 0.0
vn 1.0 0.0 0.0
vn 1.0 0.0 0.0
vn 1.0 0.0 0.0
vn 1.0 0.0 0.0
vn -1.0 -0.0 -0.0
vn -1.0 -0.0 -0.0
vn -1.0 -0.0 -0.0
vn -1.0 -0.0 -0.0
vn -1.0 -0.0 -0.0
vn -1.0 -0.0 -0.0
vn -1.0 -0.0 -0.0
vn -1.0 -0.0 -0.0
vn -1.0 -0.0 -0.0
vn -1.0 -0.0 -0.0
vn -1.0 -0.0 -0.0
vn -1.0 -0.0 -0.0
vn -1.0 -0.0 -0.0
vn -1.0 -0.0 -0.0
vn -1.0 -0.0 -0.0
vn -1.0 -0.0 -0.0
vn -1.0 -0.0 -0.0
vn -1.0 -0.0 -0.0
vn -1.0 -0.0 -0.0
vn -1.0 -0.0 -0.0
vn -1.0 -0.0 -0.0
vn -1.0 -0.0 -0.0
vn -1.0 -0.0 -0.0
vn -1.0 -0.0 -0.0
vn -1.0 -0.0 -0.0
vn -1.0 -0.0 -0.0
vn -1.0 -0.0 -0.0
vn -1.0 -0.0 -0.0
g 6f69eeb6-e300-11ea-92c8-54bf646e7e1f
f 1//1 2//2 4//4
f 4//4 2//2 3//3
g 6f6a8aec-e300-11ea-ad65-54bf646e7e1f
f 38//38 5//5 37//37
f 37//37 5//5 6//6
f 37//37 6//6 7//7
f 37//37 7//7 36//36
f 36//36 7//7 8//8
f 36//36 8//8 35//35
f 35//35 8//8 9//9
f 35//35 9//9 34//34
f 34//34 9//9 10//10
f 34//34 10//10 33//33
f 33//33 10//10 11//11
f 33//33 11//11 32//32
f 32//32 11//11 12//12
f 32//32 12//12 31//31
f 31//31 12//12 13//13
f 31//31 13//13 30//30
f 30//30 13//13 14//14
f 30//30 14//14 29//29
f 29//29 14//14 15//15
f 29//29 15//15 28//28
f 28//28 15//15 16//16
f 28//28 16//16 27//27
f 27//27 16//16 17//17
f 27//27 17//17 26//26
f 26//26 17//17 18//18
f 26//26 18//18 25//25
f 25//25 18//18 19//19
f 25//25 19//19 24//24
f 24//24 19//19 20//20
f 24//24 20//20 23//23
f 23//23 20//20 22//22
f 22//22 20//20 21//21
g 6f6b2730-e300-11ea-85b0-54bf646e7e1f
f 39//39 40//40 42//42
f 42//42 40//40 41//41
g 6f6bc376-e300-11ea-af29-54bf646e7e1f
f 43//43 44//44 46//46
f 46//46 44//44 45//45
g 6f6c5fb0-e300-11ea-aba7-54bf646e7e1f
f 47//47 48//48 50//50
f 50//50 48//48 49//49
g 6f6cd4f4-e300-11ea-b59a-54bf646e7e1f
f 51//51 52//52 54//54
f 54//54 52//52 53//53
g 6f6d4a1e-e300-11ea-9d6d-54bf646e7e1f
f 55//55 56//56 58//58
f 58//58 56//56 57//57
g 6f6dbf50-e300-11ea-a63e-54bf646e7e1f
f 59//59 60//60 62//62
f 62//62 60//60 61//61
g 6f6e3466-e300-11ea-b61a-54bf646e7e1f
f 63//63 64//64 66//66
f 66//66 64//64 65//65
g 6f6ea9a6-e300-11ea-9d27-54bf646e7e1f
f 67//67 68//68 70//70
f 70//70 68//68 69//69
g 6f6f45e8-e300-11ea-95b3-54bf646e7e1f
f 71//71 72//72 74//74
f 74//74 72//72 73//73
g 6f6fbb18-e300-11ea-9781-54bf646e7e1f
f 75//75 76//76 78//78
f 78//78 76//76 77//77
g 6f705758-e300-11ea-9770-54bf646e7e1f
f 79//79 80//80 82//82
f 82//82 80//80 81//81
g 6f70f398-e300-11ea-ad30-54bf646e7e1f
f 84//84 85//85 83//83
f 83//83 85//85 110//110
f 110//110 85//85 86//86
f 110//110 86//86 87//87
f 87//87 88//88 110//110
f 110//110 88//88 89//89
f 110//110 89//89 90//90
f 110//110 90//90 109//109
f 109//109 90//90 91//91
f 109//109 91//91 92//92
f 92//92 93//93 109//109
f 109//109 93//93 108//108
f 108//108 93//93 94//94
f 108//108 94//94 95//95
f 108//108 95//95 107//107
f 107//107 95//95 96//96
f 107//107 96//96 97//97
f 97//97 98//98 107//107
f 107//107 98//98 99//99
f 107//107 99//99 100//100
f 100//100 101//101 107//107
f 107//107 101//101 104//104
f 107//107 104//104 105//105
f 101//101 102//102 104//104
f 104//104 102//102 103//103
f 105//105 106//106 107//107
g 6f718fd0-e300-11ea-9df6-54bf646e7e1f
f 111//111 112//112 138//138
f 138//138 112//112 113//113
f 138//138 113//113 137//137
f 137//137 113//113 136//136
f 136//136 113//113 135//135
f 135//135 113//113 134//134
f 134//134 113//113 133//133
f 133//133 113//113 114//114
f 133//133 114//114 132//132
f 132//132 114//114 131//131
f 131//131 114//114 130//130
f 130//130 114//114 115//115
f 130//130 115//115 129//129
f 129//129 115//115 128//128
f 128//128 115//115 116//116
f 128//128 116//116 127//127
f 127//127 116//116 126//126
f 126//126 116//116 125//125
f 125//125 116//116 124//124
f 124//124 116//116 123//123
f 123//123 116//116 122//122
f 122//122 116//116 119//119
f 122//122 119//119 121//121
f 121//121 119//119 120//120
f 117//117 118//118 116//116
f 116//116 118//118 119//119

# End of file