# WaveFront *.obj file
# Vertices: 210
# Triangles : 196

v -0.699999988079071 1.600000023841858 8.572527306351685e-17
v -0.6925403475761414 1.600000023841858 0.10192082077264786
v -0.6703203916549683 1.600000023841858 0.2016693651676178
v -0.633813738822937 1.600000023841858 0.297119677066803
v -0.5837984681129456 1.600000023841858 0.38623741269111633
v -0.521340548992157 1.600000023841858 0.4671231806278229
v -0.4477711021900177 1.600000023841858 0.5380529761314392
v -0.3646582365036011 1.600000023841858 0.5975151658058167
v -0.27377331256866455 1.600000023841858 0.6442423462867737
v -0.17705336213111877 1.600000023841858 0.6772385835647583
v -0.07655984908342361 1.600000023841858 0.6958006620407104
v 0.025565415620803833 1.600000023841858 0.6995329856872559
v 0.12714579701423645 1.600000023841858 0.6883559823036194
v 0.22601628303527832 1.600000023841858 0.6625078320503235
v 0.32006964087486267 1.600000023841858 0.6225395202636719
v 0.40730124711990356 1.600000023841858 0.5693027973175049
v 0.4858519434928894 1.600000023841858 0.5039324164390564
v 0.5540475249290466 1.600000023841858 0.4278216063976288
v 0.6104345917701721 1.600000023841858 0.3425925076007843
v 0.6538112759590149 1.600000023841858 0.25006163120269775
v 0.6832531094551086 1.600000023841858 0.1522011160850525
v 0.6981325745582581 1.600000023841858 0.05109671875834465
v 0.6981325745582581 1.600000023841858 -0.05109671875834465
v 0.6832531094551086 1.600000023841858 -0.1522011160850525
v 0.6538112759590149 1.600000023841858 -0.25006163120269775
v 0.6104345917701721 1.600000023841858 -0.3425925076007843
v 0.5540475249290466 1.600000023841858 -0.4278216063976288
v 0.4858519434928894 1.600000023841858 -0.5039324164390564
v 0.40730124711990356 1.600000023841858 -0.5693027973175049
v 0.32006964087486267 1.600000023841858 -0.6225395202636719
v 0.22601628303527832 1.600000023841858 -0.6625078320503235
v 0.12714579701423645 1.600000023841858 -0.6883559823036194
v 0.025565415620803833 1.600000023841858 -0.6995329856872559
v -0.07655984908342361 1.600000023841858 -0.6958006620407104
v -0.17705336213111877 1.600000023841858 -0.6772385835647583
v -0.27377331256866455 1.600000023841858 -0.6442423462867737
v -0.3646582365036011 1.600000023841858 -0.5975151658058167
v -0.4477711021900177 1.600000023841858 -0.5380529761314392
v -0.521340548992157 1.600000023841858 -0.4671231806278229
v -0.5837984681129456 1.600000023841858 -0.38623741269111633
v -0.633813738822937 1.600000023841858 -0.297119677066803
v -0.6703203916549683 1.600000023841858 -0.2016693651676178
v -0.6925403475761414 1.600000023841858 -0.10192082077264786
v -0.699999988079071 0.0 8.572527306351685e-17
v -0.6925403475761414 0.0 -0.10192082077264786
v -0.6703203916549683 0.0 -0.2016693651676178
v -0.633813738822937 0.0 -0.297119677066803
v -0.5837984681129456 0.0 -0.38623741269111633
v -0.521340548992157 0.0 -0.4671231806278229
v -0.4477711021900177 0.0 -0.5380529761314392
v -0.3646582365036011 0.0 -0.5975151658058167
v -0.27377331256866455 0.0 -0.6442423462867737
v -0.17705336213111877 0.0 -0.6772385835647583
v -0.07655984908342361 0.0 -0.6958006620407104
v 0.025565415620803833 0.0 -0.6995329856872559
v 0.12714579701423645 0.0 -0.6883559823036194
v 0.22601628303527832 0.0 -0.6625078320503235
v 0.32006964087486267 0.0 -0.6225395202636719
v 0.40730124711990356 0.0 -0.5693027973175049
v 0.4858519434928894 0.0 -0.5039324164390564
v 0.5540475249290466 0.0 -0.4278216063976288
v 0.6104345917701721 0.0 -0.3425925076007843
v 0.6538112759590149 0.0 -0.25006163120269775
v 0.6832531094551086 0.0 -0.1522011160850525
v 0.6981325745582581 0.0 -0.05109671875834465
v 0.6981325745582581 0.0 0.05109671875834465
v 0.6832531094551086 0.0 0.1522011160850525
v 0.6538112759590149 0.0 0.25006163120269775
v 0.6104345917701721 0.0 0.3425925076007843
v 0.5540475249290466 0.0 0.4278216063976288
v 0.4858519434928894 0.0 0.5039324164390564
v 0.40730124711990356 0.0 0.5693027973175049
v 0.32006964087486267 0.0 0.6225395202636719
v 0.22601628303527832 0.0 0.6625078320503235
v 0.12714579701423645 0.0 0.6883559823036194
v 0.025565415620803833 0.0 0.6995329856872559
v -0.07655984908342361 0.0 0.6958006620407104
v -0.17705336213111877 0.0 0.6772385835647583
v -0.27377331256866455 0.0 0.6442423462867737
v -0.3646582365036011 0.0 0.5975151658058167
v -0.4477711021900177 0.0 0.5380529761314392
v -0.521340548992157 0.0 0.4671231806278229
v -0.5837984681129456 0.0 0.38623741269111633
v -0.633813738822937 0.0 0.297119677066803
v -0.6703203916549683 0.0 0.2016693651676178
v -0.6925403475761414 0.0 0.10192082077264786
v -0.699999988079071 1.600000023841858 8.572527306351685e-17
v -0.699999988079071 0.0 8.572527306351685e-17
v -1.2000000476837158 0.0 0.6928203105926514
v -1.6237011735142914e-15 0.0 1.3856406211853027
v -1.6653345369377348e-15 1.600000023841858 1.3856406211853027
v -1.2000000476837158 1.600000023841858 0.6928203105926514
v -1.2000000476837158 0.0 -0.6928203105926514
v -1.2000000476837158 0.0 0.6928203105926514
v -1.2000000476837158 1.600000023841858 0.6928203105926514
v -1.2000000476837158 1.600000023841858 -0.6928203105926514
v 7.7021722333370235e-16 0.0 -1.3856406211853027
v -1.2000000476837158 0.0 -0.6928203105926514
v -1.2000000476837158 1.600000023841858 -0.6928203105926514
v 7.771561172376096e-16 1.600000023841858 -1.3856406211853027
v 1.2000000476837158 0.0 -0.6928203105926514
v 7.7021722333370235e-16 0.0 -1.3856406211853027
v 7.771561172376096e-16 1.600000023841858 -1.3856406211853027
v 1.2000000476837158 1.600000023841858 -0.6928203105926514
v 1.2000000476837158 0.0 0.6928203105926514
v 1.2000000476837158 0.0 -0.6928203105926514
v 1.2000000476837158 1.600000023841858 -0.6928203105926514
v 1.2000000476837158 1.600000023841858 0.6928203105926514
v -1.6237011735142914e-15 0.0 1.3856406211853027
v 1.2000000476837158 0.0 0.6928203105926514
v 1.2000000476837158 1.600000023841858 0.6928203105926514
v -1.6653345369377348e-15 1.600000023841858 1.3856406211853027
v -0.699999988079071 1.600000023841858 8.572527306351685e-17
v -0.6925403475761414 1.600000023841858 -0.10192082077264786
v -0.6703203916549683 1.600000023841858 -0.2016693651676178
v -0.633813738822937 1.600000023841858 -0.297119677066803
v -0.5837984681129456 1.600000023841858 -0.38623741269111633
v -0.521340548992157 1.600000023841858 -0.4671231806278229
v -0.4477711021900177 1.600000023841858 -0.5380529761314392
v -0.3646582365036011 1.600000023841858 -0.5975151658058167
v -0.27377331256866455 1.600000023841858 -0.6442423462867737
v -0.17705336213111877 1.600000023841858 -0.6772385835647583
v -0.07655984908342361 1.600000023841858 -0.6958006620407104
v 0.025565415620803833 1.600000023841858 -0.6995329856872559
v 0.12714579701423645 1.600000023841858 -0.6883559823036194
v 0.22601628303527832 1.600000023841858 -0.6625078320503235
v 0.32006964087486267 1.600000023841858 -0.6225395202636719
v 0.40730124711990356 1.600000023841858 -0.5693027973175049
v 0.4858519434928894 1.600000023841858 -0.5039324164390564
v 0.5540475249290466 1.600000023841858 -0.4278216063976288
v 0.6104345917701721 1.600000023841858 -0.3425925076007843
v 0.6538112759590149 1.600000023841858 -0.25006163120269775
v 0.6832531094551086 1.600000023841858 -0.1522011160850525
v 0.6981325745582581 1.600000023841858 -0.05109671875834465
v 0.6981325745582581 1.600000023841858 0.05109671875834465
v 0.6832531094551086 1.600000023841858 0.1522011160850525
v 0.6538112759590149 1.600000023841858 0.25006163120269775
v 0.6104345917701721 1.600000023841858 0.3425925076007843
v 0.5540475249290466 1.600000023841858 0.4278216063976288
v 0.4858519434928894 1.600000023841858 0.5039324164390564
v 0.40730124711990356 1.600000023841858 0.5693027973175049
v 0.32006964087486267 1.600000023841858 0.6225395202636719
v 0.22601628303527832 1.600000023841858 0.6625078320503235
v 0.12714579701423645 1.600000023841858 0.6883559823036194
v 0.025565415620803833 1.600000023841858 0.6995329856872559
v -0.07655984908342361 1.600000023841858 0.6958006620407104
v -0.17705336213111877 1.600000023841858 0.6772385835647583
v -0.27377331256866455 1.600000023841858 0.6442423462867737
v -0.3646582365036011 1.600000023841858 0.5975151658058167
v -0.4477711021900177 1.600000023841858 0.5380529761314392
v -0.521340548992157 1.600000023841858 0.4671231806278229
v -0.5837984681129456 1.600000023841858 0.38623741269111633
v -0.633813738822937 1.600000023841858 0.297119677066803
v -0.6703203916549683 1.600000023841858 0.2016693651676178
v -0.6925403475761414 1.600000023841858 0.10192082077264786
v -1.6653345369377348e-15 1.600000023841858 1.3856406211853027
v 1.2000000476837158 1.600000023841858 0.6928203105926514
v 1.2000000476837158 1.600000023841858 -0.6928203105926514
v 7.771561172376096e-16 1.600000023841858 -1.3856406211853027
v -1.2000000476837158 1.600000023841858 -0.6928203105926514
v -1.2000000476837158 1.600000023841858 0.6928203105926514
v -0.699999988079071 0.0 8.572527306351685e-17
v -0.6925403475761414 0.0 0.10192082077264786
v -0.6703203916549683 0.0 0.2016693651676178
v -0.633813738822937 0.0 0.297119677066803
v -0.5837984681129456 0.0 0.38623741269111633
v -0.521340548992157 0.0 0.4671231806278229
v -0.4477711021900177 0.0 0.5380529761314392
v -0.3646582365036011 0.0 0.5975151658058167
v -0.27377331256866455 0.0 0.6442423462867737
v -0.17705336213111877 0.0 0.6772385835647583
v -0.07655984908342361 0.0 0.6958006620407104
v 0.025565415620803833 0.0 0.6995329856872559
v 0.12714579701423645 0.0 0.6883559823036194
v 0.22601628303527832 0.0 0.6625078320503235
v 0.32006964087486267 0.0 0.6225395202636719
v 0.40730124711990356 0.0 0.5693027973175049
v 0.4858519434928894 0.0 0.5039324164390564
v 0.5540475249290466 0.0 0.4278216063976288
v 0.6104345917701721 0.0 0.3425925076007843
v 0.6538112759590149 0.0 0.25006163120269775
v 0.6832531094551086 0.0 0.1522011160850525
v 0.6981325745582581 0.0 0.05109671875834465
v 0.6981325745582581 0.0 -0.05109671875834465
v 0.6832531094551086 0.0 -0.1522011160850525
v 0.6538112759590149 0.0 -0.25006163120269775
v 0.6104345917701721 0.0 -0.3425925076007843
v 0.5540475249290466 0.0 -0.4278216063976288
v 0.4858519434928894 0.0 -0.5039324164390564
v 0.40730124711990356 0.0 -0.5693027973175049
v 0.32006964087486267 0.0 -0.6225395202636719
v 0.22601628303527832 0.0 -0.6625078320503235
v 0.12714579701423645 0.0 -0.6883559823036194
v 0.025565415620803833 0.0 -0.6995329856872559
v -0.07655984908342361 0.0 -0.6958006620407104
v -0.17705336213111877 0.0 -0.6772385835647583
v -0.27377331256866455 0.0 -0.6442423462867737
v -0.3646582365036011 0.0 -0.5975151658058167
v -0.4477711021900177 0.0 -0.5380529761314392
v -0.521340548992157 0.0 -0.4671231806278229
v -0.5837984681129456 0.0 -0.38623741269111633
v -0.633813738822937 0.0 -0.297119677066803
v -0.6703203916549683 0.0 -0.2016693651676178
v -0.6925403475761414 0.0 -0.10192082077264786
v 1.2000000476837158 0.0 0.6928203105926514
v -1.6237011735142914e-15 0.0 1.3856406211853027
v -1.2000000476837158 0.0 0.6928203105926514
v -1.2000000476837158 0.0 -0.6928203105926514
v 7.7021722333370235e-16 0.0 -1.3856406211853027
v 1.2000000476837158 0.0 -0.6928203105926514
vn 1.0 0.0 -1.2246468525851679e-16
vn 0.9893433451652527 0.0 -0.14560116827487946
vn 0.9576005935668945 0.0 -0.28809911012649536
vn 0.9054482579231262 0.0 -0.4244566857814789
vn 0.8339978456497192 0.0 -0.5517677664756775
vn 0.74477219581604 0.0 -0.6673188209533691
vn 0.6396729946136475 0.0 -0.7686471343040466
vn 0.520940363407135 0.0 -0.853593111038208
vn 0.39110472798347473 0.0 -0.920346200466156
vn 0.2529333829879761 0.0 -0.9674836993217468
vn 0.10937120765447617 0.0 -0.9940009713172913
vn -0.036522023379802704 0.0 -0.999332845211029
vn -0.18163685500621796 0.0 -0.9833656549453735
vn -0.32288041710853577 0.0 -0.946439802646637
vn -0.45724231004714966 0.0 -0.8893421292304993
vn -0.5818589329719543 0.0 -0.8132897615432739
vn -0.6940742135047913 0.0 -0.7199034690856934
vn -0.7914965152740479 0.0 -0.611173689365387
vn -0.8720493912696838 0.0 -0.4894178509712219
vn -0.9340161085128784 0.0 -0.35723090171813965
vn -0.9760758876800537 0.0 -0.21743017435073853
vn -0.9973322749137878 0.0 -0.07299531251192093
vn -0.9973322749137878 0.0 0.07299531251192093
vn -0.9760758876800537 0.0 0.21743017435073853
vn -0.9340161085128784 0.0 0.35723090171813965
vn -0.8720493912696838 0.0 0.4894178509712219
vn -0.7914965152740479 0.0 0.611173689365387
vn -0.6940742135047913 0.0 0.7199034690856934
vn -0.5818589329719543 0.0 0.8132897615432739
vn -0.45724231004714966 0.0 0.8893421292304993
vn -0.32288041710853577 0.0 0.946439802646637
vn -0.18163685500621796 0.0 0.9833656549453735
vn -0.036522023379802704 0.0 0.999332845211029
vn 0.10937120765447617 -0.0 0.9940009713172913
vn 0.2529333829879761 -0.0 0.9674836993217468
vn 0.39110472798347473 -0.0 0.920346200466156
vn 0.520940363407135 -0.0 0.853593111038208
vn 0.6396729946136475 -0.0 0.7686471343040466
vn 0.74477219581604 -0.0 0.6673188209533691
vn 0.8339978456497192 -0.0 0.5517677664756775
vn 0.9054482579231262 -0.0 0.4244566857814789
vn 0.9576005935668945 -0.0 0.28809911012649536
vn 0.9893433451652527 -0.0 0.14560116827487946
vn 1.0 -0.0 1.2246468525851679e-16
vn 0.9893433451652527 -0.0 0.14560116827487946
vn 0.9576005935668945 -0.0 0.28809911012649536
vn 0.9054482579231262 -0.0 0.4244566857814789
vn 0.8339978456497192 -0.0 0.5517677664756775
vn 0.74477219581604 -0.0 0.6673188209533691
vn 0.6396729946136475 -0.0 0.7686471343040466
vn 0.520940363407135 -0.0 0.853593111038208
vn 0.39110472798347473 -0.0 0.920346200466156
vn 0.2529333829879761 -0.0 0.9674836993217468
vn 0.10937120765447617 -0.0 0.9940009713172913
vn -0.036522023379802704 0.0 0.999332845211029
vn -0.18163685500621796 0.0 0.9833656549453735
vn -0.32288041710853577 0.0 0.946439802646637
vn -0.45724231004714966 0.0 0.8893421292304993
vn -0.5818589329719543 0.0 0.8132897615432739
vn -0.6940742135047913 0.0 0.7199034690856934
vn -0.7914965152740479 0.0 0.611173689365387
vn -0.8720493912696838 0.0 0.4894178509712219
vn -0.9340161085128784 0.0 0.35723090171813965
vn -0.9760758876800537 0.0 0.21743017435073853
vn -0.9973322749137878 0.0 0.07299531251192093
vn -0.9973322749137878 0.0 -0.07299531251192093
vn -0.9760758876800537 0.0 -0.21743017435073853
vn -0.9340161085128784 0.0 -0.35723090171813965
vn -0.8720493912696838 0.0 -0.4894178509712219
vn -0.7914965152740479 0.0 -0.611173689365387
vn -0.6940742135047913 0.0 -0.7199034690856934
vn -0.5818589329719543 0.0 -0.8132897615432739
vn -0.45724231004714966 0.0 -0.8893421292304993
vn -0.32288041710853577 0.0 -0.946439802646637
vn -0.18163685500621796 0.0 -0.9833656549453735
vn -0.036522023379802704 0.0 -0.999332845211029
vn 0.10937120765447617 0.0 -0.9940009713172913
vn 0.2529333829879761 0.0 -0.9674836993217468
vn 0.39110472798347473 0.0 -0.920346200466156
vn 0.520940363407135 0.0 -0.853593111038208
vn 0.6396729946136475 0.0 -0.7686471343040466
vn 0.74477219581604 0.0 -0.6673188209533691
vn 0.8339978456497192 0.0 -0.5517677664756775
vn 0.9054482579231262 0.0 -0.4244566857814789
vn 0.9576005935668945 0.0 -0.28809911012649536
vn 0.9893433451652527 0.0 -0.14560116827487946
vn 1.0 -0.0 1.2246468525851679e-16
vn 1.0 0.0 -1.2246468525851679e-16
vn -0.5 0.0 0.8660253882408142
vn -0.5 0.0 0.8660253882408142
vn -0.5 0.0 0.8660253882408142
vn -0.5 0.0 0.8660253882408142
vn -1.0 0.0 -8.012344581314116e-16
vn -1.0 0.0 -8.012344581314116e-16
vn -1.0 0.0 -8.012344581314116e-16
vn -1.0 0.0 -8.012344581314116e-16
vn -0.5 0.0 -0.8660253882408142
vn -0.5 0.0 -0.8660253882408142
vn -0.5 0.0 -0.8660253882408142
vn -0.5 0.0 -0.8660253882408142
vn 0.5 0.0 -0.8660253882408142
vn 0.5 0.0 -0.8660253882408142
vn 0.5 0.0 -0.8660253882408142
vn 0.5 0.0 -0.8660253882408142
vn 1.0 -0.0 0.0
vn 1.0 -0.0 0.0
vn 1.0 -0.0 0.0
vn 1.0 -0.0 0.0
vn 0.5 -0.0 0.8660253882408142
vn 0.5 -0.0 0.8660253882408142
vn 0.5 -0.0 0.8660253882408142
vn 0.5 -0.0 0.8660253882408142
vn 0.0 1.0 0.0
vn 0.0 1.0 0.0
vn 0.0 1.0 0.0
vn 0.0 1.0 0.0
vn 0.0 1.0 0.0
vn 0.0 1.0 0.0
vn 0.0 1.0 0.0
vn 0.0 1.0 0.0
vn 0.0 1.0 0.0
vn 0.0 1.0 0.0
vn 0.0 1.0 0.0
vn 0.0 1.0 0.0
vn 0.0 1.0 0.0
vn 0.0 1.0 0.0
vn 0.0 1.0 0.0
vn 0.0 1.0 0.0
vn 0.0 1.0 0.0
vn 0.0 1.0 0.0
vn 0.0 1.0 0.0
vn 0.0 1.0 0.0
vn 0.0 1.0 0.0
vn 0.0 1.0 0.0
vn 0.0 1.0 0.0
vn 0.0 1.0 0.0
vn 0.0 1.0 0.0
vn 0.0 1.0 0.0
vn 0.0 1.0 0.0
vn 0.0 1.0 0.0
vn 0.0 1.0 0.0
vn 0.0 1.0 0.0
vn 0.0 1.0 0.0
vn 0.0 1.0 0.0
vn 0.0 1.0 0.0
vn 0.0 1.0 0.0
vn 0.0 1.0 0.0
vn 0.0 1.0 0.0
vn 0.0 1.0 0.0
vn 0.0 1.0 0.0
vn 0.0 1.0 0.0
vn 0.0 1.0 0.0
vn 0.0 1.0 0.0
vn 0.0 1.0 0.0
vn 0.0 1.0 0.0
vn 0.0 1.0 0.0
vn 0.0 1.0 0.0
vn 0.0 1.0 0.0
vn 0.0 1.0 0.0
vn 0.0 1.0 0.0
vn 0.0 1.0 0.0
vn -0.0 -1.0 -0.0
vn -0.0 -1.0 -0.0
vn -0.0 -1.0 -0.0
vn -0.0 -1.0 -0.0
vn -0.0 -1.0 -0.0
vn -0.0 -1.0 -0.0
vn -0.0 -1.0 -0.0
vn -0.0 -1.0 -0.0
vn -0.0 -1.0 -0.0
vn -0.0 -1.0 -0.0
vn -0.0 -1.0 -0.0
vn -0.0 -1.0 -0.0
vn -0.0 -1.0 -0.0
vn -0.0 -1.0 -0.0
vn -0.0 -1.0 -0.0
vn -0.0 -1.0 -0.0
vn -0.0 -1.0 -0.0
vn -0.0 -1.0 -0.0
vn -0.0 -1.0 -0.0
vn -0.0 -1.0 -0.0
vn -0.0 -1.0 -0.0
vn -0.0 -1.0 -0.0
vn -0.0 -1.0 -0.0
vn -0.0 -1.0 -0.0
vn -0.0 -1.0 -0.0
vn -0.0 -1.0 -0.0
vn -0.0 -1.0 -0.0
vn -0.0 -1.0 -0.0
vn -0.0 -1.0 -0.0
vn -0.0 -1.0 -0.0
vn -0.0 -1.0 -0.0
vn -0.0 -1.0 -0.0
vn -0.0 -1.0 -0.0
vn -0.0 -1.0 -0.0
vn -0.0 -1.0 -0.0
vn -0.0 -1.0 -0.0
vn -0.0 -1.0 -0.0
vn -0.0 -1.0 -0.0
vn -0.0 -1.0 -0.0
vn -0.0 -1.0 -0.0
vn -0.0 -1.0 -0.0
vn -0.0 -1.0 -0.0
vn -0.0 -1.0 -0.0
vn -0.0 -1.0 -0.0
vn -0.0 -1.0 -0.0
vn -0.0 -1.0 -0.0
vn -0.0 -1.0 -0.0
vn -0.0 -1.0 -0.0
vn -0.0 -1.0 -0.0
g 3d90ee62-e309-11ea-b7a8-54bf646e7e1f
f 2//2 86//86 1//1
f 1//1 86//86 88//88
f 87//87 44//44 43//43
f 43//43 44//44 45//45
f 43//43 45//45 46//46
f 2//2 3//3 86//86
f 86//86 3//3 85//85
f 85//85 3//3 4//4
f 85//85 4//4 84//84
f 84//84 4//4 5//5
f 84//84 5//5 83//83
f 83//83 5//5 6//6
f 83//83 6//6 82//82
f 82//82 6//6 7//7
f 82//82 7//7 81//81
f 81//81 7//7 8//8
f 81//81 8//8 80//80
f 80//80 8//8 9//9
f 80//80 9//9 79//79
f 79//79 9//9 10//10
f 79//79 10//10 78//78
f 78//78 10//10 11//11
f 78//78 11//11 77//77
f 77//77 11//11 12//12
f 77//77 12//12 76//76
f 76//76 12//12 13//13
f 76//76 13//13 75//75
f 75//75 13//13 14//14
f 75//75 14//14 74//74
f 74//74 14//14 15//15
f 74//74 15//15 73//73
f 73//73 15//15 16//16
f 73//73 16//16 72//72
f 72//72 16//16 17//17
f 72//72 17//17 71//71
f 71//71 17//17 18//18
f 71//71 18//18 70//70
f 70//70 18//18 19//19
f 70//70 19//19 69//69
f 69//69 19//19 20//20
f 69//69 20//20 68//68
f 68//68 20//20 21//21
f 68//68 21//21 67//67
f 67//67 21//21 22//22
f 67//67 22//22 66//66
f 66//66 22//22 23//23
f 66//66 23//23 65//65
f 65//65 23//23 24//24
f 65//65 24//24 64//64
f 64//64 24//24 25//25
f 64//64 25//25 63//63
f 63//63 25//25 26//26
f 63//63 26//26 62//62
f 62//62 26//26 27//27
f 62//62 27//27 61//61
f 61//61 27//27 28//28
f 61//61 28//28 60//60
f 60//60 28//28 29//29
f 60//60 29//29 59//59
f 59//59 29//29 30//30
f 59//59 30//30 58//58
f 58//58 30//30 31//31
f 58//58 31//31 57//57
f 57//57 31//31 32//32
f 57//57 32//32 56//56
f 56//56 32//32 33//33
f 56//56 33//33 55//55
f 55//55 33//33 34//34
f 55//55 34//34 54//54
f 54//54 34//34 35//35
f 54//54 35//35 53//53
f 53//53 35//35 36//36
f 53//53 36//36 52//52
f 52//52 36//36 37//37
f 52//52 37//37 51//51
f 51//51 37//37 38//38
f 51//51 38//38 50//50
f 50//50 38//38 39//39
f 50//50 39//39 49//49
f 49//49 39//39 40//40
f 49//49 40//40 48//48
f 48//48 40//40 41//41
f 48//48 41//41 47//47
f 47//47 41//41 42//42
f 47//47 42//42 46//46
f 46//46 42//42 43//43
g 3d913c7a-e309-11ea-aecc-54bf646e7e1f
f 89//89 90//90 92//92
f 92//92 90//90 91//91
g 3d916392-e309-11ea-9a02-54bf646e7e1f
f 93//93 94//94 96//96
f 96//96 94//94 95//95
g 3d91b1c0-e309-11ea-b515-54bf646e7e1f
f 97//97 98//98 100//100
f 100//100 98//98 99//99
g 3d91ffdc-e309-11ea-8260-54bf646e7e1f
f 101//101 102//102 104//104
f 104//104 102//102 103//103
g 3d924df0-e309-11ea-8e75-54bf646e7e1f
f 105//105 106//106 108//108
f 108//108 106//106 107//107
g 3d929c06-e309-11ea-b78d-54bf646e7e1f
f 109//109 110//110 112//112
f 112//112 110//110 111//111
g 3d92ea2e-e309-11ea-90f9-54bf646e7e1f
f 114//114 160//160 113//113
f 113//113 160//160 161//161
f 113//113 161//161 155//155
f 155//155 161//161 154//154
f 154//154 161//161 153//153
f 153//153 161//161 152//152
f 152//152 161//161 151//151
f 151//151 161//161 150//150
f 150//150 161//161 149//149
f 149//149 161//161 156//156
f 149//149 156//156 148//148
f 148//148 156//156 147//147
f 147//147 156//156 146//146
f 146//146 156//156 145//145
f 145//145 156//156 144//144
f 144//144 156//156 143//143
f 143//143 156//156 142//142
f 142//142 156//156 141//141
f 141//141 156//156 157//157
f 141//141 157//157 140//140
f 140//140 157//157 139//139
f 139//139 157//157 138//138
f 138//138 157//157 137//137
f 137//137 157//157 136//136
f 136//136 157//157 135//135
f 135//135 157//157 134//134
f 134//134 157//157 158//158
f 134//134 158//158 133//133
f 133//133 158//158 132//132
f 132//132 158//158 131//131
f 131//131 158//158 130//130
f 130//130 158//158 129//129
f 129//129 158//158 128//128
f 128//128 158//158 159//159
f 128//128 159//159 127//127
f 127//127 159//159 126//126
f 126//126 159//159 125//125
f 125//125 159//159 124//124
f 124//124 159//159 123//123
f 123//123 159//159 122//122
f 122//122 159//159 121//121
f 121//121 159//159 120//120
f 120//120 159//159 160//160
f 120//120 160//160 119//119
f 119//119 160//160 118//118
f 118//118 160//160 117//117
f 117//117 160//160 116//116
f 116//116 160//160 115//115
f 115//115 160//160 114//114
g 3d935f58-e309-11ea-b11d-54bf646e7e1f
f 163//163 207//207 162//162
f 162//162 207//207 208//208
f 162//162 208//208 204//204
f 204//204 208//208 203//203
f 203//203 208//208 202//202
f 202//202 208//208 201//201
f 201//201 208//208 200//200
f 200//200 208//208 199//199
f 199//199 208//208 198//198
f 198//198 208//208 209//209
f 198//198 209//209 197//197
f 197//197 209//209 196//196
f 196//196 209//209 195//195
f 195//195 209//209 194//194
f 194//194 209//209 193//193
f 193//193 209//209 192//192
f 192//192 209//209 191//191
f 191//191 209//209 190//190
f 190//190 209//209 210//210
f 190//190 210//210 189//189
f 189//189 210//210 188//188
f 188//188 210//210 187//187
f 187//187 210//210 186//186
f 186//186 210//210 185//185
f 185//185 210//210 184//184
f 184//184 210//210 205//205
f 184//184 205//205 183//183
f 183//183 205//205 182//182
f 182//182 205//205 181//181
f 181//181 205//205 180//180
f 180//180 205//205 179//179
f 179//179 205//205 178//178
f 178//178 205//205 177//177
f 177//177 205//205 206//206
f 177//177 206//206 176//176
f 176//176 206//206 175//175
f 175//175 206//206 174//174
f 174//174 206//206 173//173
f 173//173 206//206 172//172
f 172//172 206//206 171//171
f 171//171 206//206 170//170
f 170//170 206//206 169//169
f 169//169 206//206 207//207
f 169//169 207//207 168//168
f 168//168 207//207 167//167
f 167//167 207//207 166//166
f 166//166 207//207 165//165
f 165//165 207//207 164//164
f 164//164 207//207 163//163

# End of file