# WaveFront *.obj file
# Vertices: 210
# Triangles : 196

v -0.20000000298023224 -0.125 2.4492935397342132e-17
v -0.19786867499351501 -0.125 0.02912023290991783
v -0.19152012467384338 -0.125 0.05761982128024101
v -0.18108965456485748 -0.125 0.08489134162664413
v -0.16679956018924713 -0.125 0.11035355180501938
v -0.14895443618297577 -0.125 0.1334637552499771
v -0.12793460488319397 -0.125 0.1537294238805771
v -0.10418806970119476 -0.125 0.17071862518787384
v -0.07822094112634659 -0.125 0.18406923115253448
v -0.050586678087711334 -0.125 0.1934967339038849
v -0.021874241530895233 -0.125 0.198800191283226
v 0.007304404396563768 -0.125 0.19986656308174133
v 0.03632736951112747 -0.125 0.19667313992977142
v 0.06457608193159103 -0.125 0.1892879605293274
v 0.09144846349954605 -0.125 0.17786842584609985
v 0.11637178063392639 -0.125 0.1626579463481903
v 0.13881483674049377 -0.125 0.1439806967973709
v 0.1582992970943451 -0.125 0.12223473936319351
v 0.174409881234169 -0.125 0.09788356721401215
v 0.18680322170257568 -0.125 0.07144618034362793
v 0.19521518051624298 -0.125 0.043486036360263824
v 0.19946645200252533 -0.125 0.014599062502384186
v 0.19946645200252533 -0.125 -0.014599062502384186
v 0.19521518051624298 -0.125 -0.043486036360263824
v 0.18680322170257568 -0.125 -0.07144618034362793
v 0.174409881234169 -0.125 -0.09788356721401215
v 0.1582992970943451 -0.125 -0.12223473936319351
v 0.13881483674049377 -0.125 -0.1439806967973709
v 0.11637178063392639 -0.125 -0.1626579463481903
v 0.09144846349954605 -0.125 -0.17786842584609985
v 0.06457608193159103 -0.125 -0.1892879605293274
v 0.03632736951112747 -0.125 -0.19667313992977142
v 0.007304404396563768 -0.125 -0.19986656308174133
v -0.021874241530895233 -0.125 -0.198800191283226
v -0.050586678087711334 -0.125 -0.1934967339038849
v -0.07822094112634659 -0.125 -0.18406923115253448
v -0.10418806970119476 -0.125 -0.17071862518787384
v -0.12793460488319397 -0.125 -0.1537294238805771
v -0.14895443618297577 -0.125 -0.1334637552499771
v -0.16679956018924713 -0.125 -0.11035355180501938
v -0.18108965456485748 -0.125 -0.08489134162664413
v -0.19152012467384338 -0.125 -0.05761982128024101
v -0.19786867499351501 -0.125 -0.02912023290991783
v -0.20190151035785675 -0.125 -0.35009872913360596
v 0.2022436410188675 -0.125 -0.3499011993408203
v 0.40414515137672424 -0.125 0.0001975294726435095
v 0.20190151035785675 -0.125 0.35009872913360596
v -0.2022436410188675 -0.125 0.3499011993408203
v -0.40414515137672424 -0.125 -0.0001975294726435095
v -0.20000000298023224 -0.125 2.4492935397342132e-17
v -0.19786867499351501 -0.125 -0.02912023290991783
v -0.19152012467384338 -0.125 -0.05761982128024101
v -0.18108965456485748 -0.125 -0.08489134162664413
v -0.16679956018924713 -0.125 -0.11035355180501938
v -0.14895443618297577 -0.125 -0.1334637552499771
v -0.12793460488319397 -0.125 -0.1537294238805771
v -0.10418806970119476 -0.125 -0.17071862518787384
v -0.07822094112634659 -0.125 -0.18406923115253448
v -0.050586678087711334 -0.125 -0.1934967339038849
v -0.021874241530895233 -0.125 -0.198800191283226
v 0.007304404396563768 -0.125 -0.19986656308174133
v 0.03632736951112747 -0.125 -0.19667313992977142
v 0.06457608193159103 -0.125 -0.1892879605293274
v 0.09144846349954605 -0.125 -0.17786842584609985
v 0.11637178063392639 -0.125 -0.1626579463481903
v 0.13881483674049377 -0.125 -0.1439806967973709
v 0.1582992970943451 -0.125 -0.12223473936319351
v 0.174409881234169 -0.125 -0.09788356721401215
v 0.18680322170257568 -0.125 -0.07144618034362793
v 0.19521518051624298 -0.125 -0.043486036360263824
v 0.19946645200252533 -0.125 -0.014599062502384186
v 0.19946645200252533 -0.125 0.014599062502384186
v 0.19521518051624298 -0.125 0.043486036360263824
v 0.18680322170257568 -0.125 0.07144618034362793
v 0.174409881234169 -0.125 0.09788356721401215
v 0.1582992970943451 -0.125 0.12223473936319351
v 0.13881483674049377 -0.125 0.1439806967973709
v 0.11637178063392639 -0.125 0.1626579463481903
v 0.09144846349954605 -0.125 0.17786842584609985
v 0.06457608193159103 -0.125 0.1892879605293274
v 0.03632736951112747 -0.125 0.19667313992977142
v 0.007304404396563768 -0.125 0.19986656308174133
v -0.021874241530895233 -0.125 0.198800191283226
v -0.050586678087711334 -0.125 0.1934967339038849
v -0.07822094112634659 -0.125 0.18406923115253448
v -0.10418806970119476 -0.125 0.17071862518787384
v -0.12793460488319397 -0.125 0.1537294238805771
v -0.14895443618297577 -0.125 0.1334637552499771
v -0.16679956018924713 -0.125 0.11035355180501938
v -0.18108965456485748 -0.125 0.08489134162664413
v -0.19152012467384338 -0.125 0.05761982128024101
v -0.19786867499351501 -0.125 0.02912023290991783
v -0.20000000298023224 0.125 2.4492935397342132e-17
v -0.19786867499351501 0.125 0.02912023290991783
v -0.19152012467384338 0.125 0.05761982128024101
v -0.18108965456485748 0.125 0.08489134162664413
v -0.16679956018924713 0.125 0.11035355180501938
v -0.14895443618297577 0.125 0.1334637552499771
v -0.12793460488319397 0.125 0.1537294238805771
v -0.10418806970119476 0.125 0.17071862518787384
v -0.07822094112634659 0.125 0.18406923115253448
v -0.050586678087711334 0.125 0.1934967339038849
v -0.021874241530895233 0.125 0.198800191283226
v 0.007304404396563768 0.125 0.19986656308174133
v 0.03632736951112747 0.125 0.19667313992977142
v 0.06457608193159103 0.125 0.1892879605293274
v 0.09144846349954605 0.125 0.17786842584609985
v 0.11637178063392639 0.125 0.1626579463481903
v 0.13881483674049377 0.125 0.1439806967973709
v 0.1582992970943451 0.125 0.12223473936319351
v 0.174409881234169 0.125 0.09788356721401215
v 0.18680322170257568 0.125 0.07144618034362793
v 0.19521518051624298 0.125 0.043486036360263824
v 0.19946645200252533 0.125 0.014599062502384186
v 0.19946645200252533 0.125 -0.014599062502384186
v 0.19521518051624298 0.125 -0.043486036360263824
v 0.18680322170257568 0.125 -0.07144618034362793
v 0.174409881234169 0.125 -0.09788356721401215
v 0.1582992970943451 0.125 -0.12223473936319351
v 0.13881483674049377 0.125 -0.1439806967973709
v 0.11637178063392639 0.125 -0.1626579463481903
v 0.09144846349954605 0.125 -0.17786842584609985
v 0.06457608193159103 0.125 -0.1892879605293274
v 0.03632736951112747 0.125 -0.19667313992977142
v 0.007304404396563768 0.125 -0.19986656308174133
v -0.021874241530895233 0.125 -0.198800191283226
v -0.050586678087711334 0.125 -0.1934967339038849
v -0.07822094112634659 0.125 -0.18406923115253448
v -0.10418806970119476 0.125 -0.17071862518787384
v -0.12793460488319397 0.125 -0.1537294238805771
v -0.14895443618297577 0.125 -0.1334637552499771
v -0.16679956018924713 0.125 -0.11035355180501938
v -0.18108965456485748 0.125 -0.08489134162664413
v -0.19152012467384338 0.125 -0.05761982128024101
v -0.19786867499351501 0.125 -0.02912023290991783
v -0.20000000298023224 0.125 2.4492935397342132e-17
v -0.20000000298023224 -0.125 2.4492935397342132e-17
v 0.2022436410188675 -0.125 -0.3499011993408203
v 0.2022436410188675 0.125 -0.3499011993408203
v 0.40414515137672424 0.125 0.0001975294726435095
v 0.40414515137672424 -0.125 0.0001975294726435095
v 0.40414515137672424 -0.125 0.0001975294726435095
v 0.40414515137672424 0.125 0.0001975294726435095
v 0.20190151035785675 0.125 0.35009872913360596
v 0.20190151035785675 -0.125 0.35009872913360596
v 0.20190151035785675 -0.125 0.35009872913360596
v 0.20190151035785675 0.125 0.35009872913360596
v -0.2022436410188675 0.125 0.3499011993408203
v -0.2022436410188675 -0.125 0.3499011993408203
v -0.2022436410188675 -0.125 0.3499011993408203
v -0.2022436410188675 0.125 0.3499011993408203
v -0.40414515137672424 0.125 -0.0001975294726435095
v -0.40414515137672424 -0.125 -0.0001975294726435095
v -0.40414515137672424 -0.125 -0.0001975294726435095
v -0.40414515137672424 0.125 -0.0001975294726435095
v -0.20190151035785675 0.125 -0.35009872913360596
v -0.20190151035785675 -0.125 -0.35009872913360596
v -0.20190151035785675 -0.125 -0.35009872913360596
v -0.20190151035785675 0.125 -0.35009872913360596
v 0.2022436410188675 0.125 -0.3499011993408203
v 0.2022436410188675 -0.125 -0.3499011993408203
v -0.20000000298023224 0.125 2.4492935397342132e-17
v -0.19786867499351501 0.125 -0.02912023290991783
v -0.19152012467384338 0.125 -0.05761982128024101
v -0.18108965456485748 0.125 -0.08489134162664413
v -0.16679956018924713 0.125 -0.11035355180501938
v -0.14895443618297577 0.125 -0.1334637552499771
v -0.12793460488319397 0.125 -0.1537294238805771
v -0.10418806970119476 0.125 -0.17071862518787384
v -0.07822094112634659 0.125 -0.18406923115253448
v -0.050586678087711334 0.125 -0.1934967339038849
v -0.021874241530895233 0.125 -0.198800191283226
v 0.007304404396563768 0.125 -0.19986656308174133
v 0.03632736951112747 0.125 -0.19667313992977142
v 0.06457608193159103 0.125 -0.1892879605293274
v 0.09144846349954605 0.125 -0.17786842584609985
v 0.11637178063392639 0.125 -0.1626579463481903
v 0.13881483674049377 0.125 -0.1439806967973709
v 0.1582992970943451 0.125 -0.12223473936319351
v 0.174409881234169 0.125 -0.09788356721401215
v 0.18680322170257568 0.125 -0.07144618034362793
v 0.19521518051624298 0.125 -0.043486036360263824
v 0.19946645200252533 0.125 -0.014599062502384186
v 0.19946645200252533 0.125 0.014599062502384186
v 0.19521518051624298 0.125 0.043486036360263824
v 0.18680322170257568 0.125 0.07144618034362793
v 0.174409881234169 0.125 0.09788356721401215
v 0.1582992970943451 0.125 0.12223473936319351
v 0.13881483674049377 0.125 0.1439806967973709
v 0.11637178063392639 0.125 0.1626579463481903
v 0.09144846349954605 0.125 0.17786842584609985
v 0.06457608193159103 0.125 0.1892879605293274
v 0.03632736951112747 0.125 0.19667313992977142
v 0.007304404396563768 0.125 0.19986656308174133
v -0.021874241530895233 0.125 0.198800191283226
v -0.050586678087711334 0.125 0.1934967339038849
v -0.07822094112634659 0.125 0.18406923115253448
v -0.10418806970119476 0.125 0.17071862518787384
v -0.12793460488319397 0.125 0.1537294238805771
v -0.14895443618297577 0.125 0.1334637552499771
v -0.16679956018924713 0.125 0.11035355180501938
v -0.18108965456485748 0.125 0.08489134162664413
v -0.19152012467384338 0.125 0.05761982128024101
v -0.19786867499351501 0.125 0.02912023290991783
v 0.2022436410188675 0.125 -0.3499011993408203
v -0.20190151035785675 0.125 -0.35009872913360596
v -0.40414515137672424 0.125 -0.0001975294726435095
v -0.2022436410188675 0.125 0.3499011993408203
v 0.20190151035785675 0.125 0.35009872913360596
v 0.40414515137672424 0.125 0.0001975294726435095
vn -0.0 -1.0 -0.0
vn -0.0 -1.0 -0.0
vn -0.0 -1.0 -0.0
vn -0.0 -1.0 -0.0
vn -0.0 -1.0 -0.0
vn -0.0 -1.0 -0.0
vn -0.0 -1.0 -0.0
vn -0.0 -1.0 -0.0
vn -0.0 -1.0 -0.0
vn -0.0 -1.0 -0.0
vn -0.0 -1.0 -0.0
vn -0.0 -1.0 -0.0
vn -0.0 -1.0 -0.0
vn -0.0 -1.0 -0.0
vn -0.0 -1.0 -0.0
vn -0.0 -1.0 -0.0
vn -0.0 -1.0 -0.0
vn -0.0 -1.0 -0.0
vn -0.0 -1.0 -0.0
vn -0.0 -1.0 -0.0
vn -0.0 -1.0 -0.0
vn -0.0 -1.0 -0.0
vn -0.0 -1.0 -0.0
vn -0.0 -1.0 -0.0
vn -0.0 -1.0 -0.0
vn -0.0 -1.0 -0.0
vn -0.0 -1.0 -0.0
vn -0.0 -1.0 -0.0
vn -0.0 -1.0 -0.0
vn -0.0 -1.0 -0.0
vn -0.0 -1.0 -0.0
vn -0.0 -1.0 -0.0
vn -0.0 -1.0 -0.0
vn -0.0 -1.0 -0.0
vn -0.0 -1.0 -0.0
vn -0.0 -1.0 -0.0
vn -0.0 -1.0 -0.0
vn -0.0 -1.0 -0.0
vn -0.0 -1.0 -0.0
vn -0.0 -1.0 -0.0
vn -0.0 -1.0 -0.0
vn -0.0 -1.0 -0.0
vn -0.0 -1.0 -0.0
vn -0.0 -1.0 -0.0
vn -0.0 -1.0 -0.0
vn -0.0 -1.0 -0.0
vn -0.0 -1.0 -0.0
vn -0.0 -1.0 -0.0
vn -0.0 -1.0 -0.0
vn 1.0 -0.0 1.2246468525851679e-16
vn 0.9893433451652527 -0.0 0.14560116827487946
vn 0.9576005935668945 -0.0 0.28809911012649536
vn 0.9054482579231262 -0.0 0.4244566857814789
vn 0.8339978456497192 -0.0 0.5517677664756775
vn 0.74477219581604 -0.0 0.6673188209533691
vn 0.6396729946136475 -0.0 0.7686471343040466
vn 0.520940363407135 -0.0 0.853593111038208
vn 0.39110472798347473 -0.0 0.920346200466156
vn 0.2529333829879761 -0.0 0.9674836993217468
vn 0.10937120765447617 -0.0 0.9940009713172913
vn -0.036522023379802704 0.0 0.999332845211029
vn -0.18163685500621796 0.0 0.9833656549453735
vn -0.32288041710853577 0.0 0.946439802646637
vn -0.45724231004714966 0.0 0.8893421292304993
vn -0.5818589329719543 0.0 0.8132897615432739
vn -0.6940742135047913 0.0 0.7199034690856934
vn -0.7914965152740479 0.0 0.611173689365387
vn -0.8720493912696838 0.0 0.4894178509712219
vn -0.9340161085128784 0.0 0.35723090171813965
vn -0.9760758876800537 0.0 0.21743017435073853
vn -0.9973322749137878 0.0 0.07299531251192093
vn -0.9973322749137878 0.0 -0.07299531251192093
vn -0.9760758876800537 0.0 -0.21743017435073853
vn -0.9340161085128784 0.0 -0.35723090171813965
vn -0.8720493912696838 0.0 -0.4894178509712219
vn -0.7914965152740479 0.0 -0.611173689365387
vn -0.6940742135047913 0.0 -0.7199034690856934
vn -0.5818589329719543 0.0 -0.8132897615432739
vn -0.45724231004714966 0.0 -0.8893421292304993
vn -0.32288041710853577 0.0 -0.946439802646637
vn -0.18163685500621796 0.0 -0.9833656549453735
vn -0.036522023379802704 0.0 -0.999332845211029
vn 0.10937120765447617 0.0 -0.9940009713172913
vn 0.2529333829879761 0.0 -0.9674836993217468
vn 0.39110472798347473 0.0 -0.920346200466156
vn 0.520940363407135 0.0 -0.853593111038208
vn 0.6396729946136475 0.0 -0.7686471343040466
vn 0.74477219581604 0.0 -0.6673188209533691
vn 0.8339978456497192 0.0 -0.5517677664756775
vn 0.9054482579231262 0.0 -0.4244566857814789
vn 0.9576005935668945 0.0 -0.28809911012649536
vn 0.9893433451652527 0.0 -0.14560116827487946
vn 1.0 0.0 -1.2246468525851679e-16
vn 0.9893433451652527 0.0 -0.14560116827487946
vn 0.9576005935668945 0.0 -0.28809911012649536
vn 0.9054482579231262 0.0 -0.4244566857814789
vn 0.8339978456497192 0.0 -0.5517677664756775
vn 0.74477219581604 0.0 -0.6673188209533691
vn 0.6396729946136475 0.0 -0.7686471343040466
vn 0.520940363407135 0.0 -0.853593111038208
vn 0.39110472798347473 0.0 -0.920346200466156
vn 0.2529333829879761 0.0 -0.9674836993217468
vn 0.10937120765447617 0.0 -0.9940009713172913
vn -0.036522023379802704 0.0 -0.999332845211029
vn -0.18163685500621796 0.0 -0.9833656549453735
vn -0.32288041710853577 0.0 -0.946439802646637
vn -0.45724231004714966 0.0 -0.8893421292304993
vn -0.5818589329719543 0.0 -0.8132897615432739
vn -0.6940742135047913 0.0 -0.7199034690856934
vn -0.7914965152740479 0.0 -0.611173689365387
vn -0.8720493912696838 0.0 -0.4894178509712219
vn -0.9340161085128784 0.0 -0.35723090171813965
vn -0.9760758876800537 0.0 -0.21743017435073853
vn -0.9973322749137878 0.0 -0.07299531251192093
vn -0.9973322749137878 0.0 0.07299531251192093
vn -0.9760758876800537 0.0 0.21743017435073853
vn -0.9340161085128784 0.0 0.35723090171813965
vn -0.8720493912696838 0.0 0.4894178509712219
vn -0.7914965152740479 0.0 0.611173689365387
vn -0.6940742135047913 0.0 0.7199034690856934
vn -0.5818589329719543 0.0 0.8132897615432739
vn -0.45724231004714966 0.0 0.8893421292304993
vn -0.32288041710853577 0.0 0.946439802646637
vn -0.18163685500621796 0.0 0.9833656549453735
vn -0.036522023379802704 0.0 0.999332845211029
vn 0.10937120765447617 -0.0 0.9940009713172913
vn 0.2529333829879761 -0.0 0.9674836993217468
vn 0.39110472798347473 -0.0 0.920346200466156
vn 0.520940363407135 -0.0 0.853593111038208
vn 0.6396729946136475 -0.0 0.7686471343040466
vn 0.74477219581604 -0.0 0.6673188209533691
vn 0.8339978456497192 -0.0 0.5517677664756775
vn 0.9054482579231262 -0.0 0.4244566857814789
vn 0.9576005935668945 -0.0 0.28809911012649536
vn 0.9893433451652527 -0.0 0.14560116827487946
vn 1.0 -0.0 1.2246468525851679e-16
vn 1.0 0.0 -1.2246468525851679e-16
vn 0.8662697076797485 0.0 -0.4995766580104828
vn 0.8662697076797485 0.0 -0.4995766580104828
vn 0.8662697076797485 0.0 -0.4995766580104828
vn 0.8662697076797485 0.0 -0.4995766580104828
vn 0.8657809495925903 -0.0 0.5004231929779053
vn 0.8657809495925903 -0.0 0.5004231929779053
vn 0.8657809495925903 -0.0 0.5004231929779053
vn 0.8657809495925903 -0.0 0.5004231929779053
vn -0.0004887587274424732 0.0 0.9999998807907104
vn -0.0004887587274424732 0.0 0.9999998807907104
vn -0.0004887587274424732 0.0 0.9999998807907104
vn -0.0004887587274424732 0.0 0.9999998807907104
vn -0.8662697076797485 0.0 0.4995766580104828
vn -0.8662697076797485 0.0 0.4995766580104828
vn -0.8662697076797485 0.0 0.4995766580104828
vn -0.8662697076797485 0.0 0.4995766580104828
vn -0.8657809495925903 0.0 -0.5004231929779053
vn -0.8657809495925903 0.0 -0.5004231929779053
vn -0.8657809495925903 0.0 -0.5004231929779053
vn -0.8657809495925903 0.0 -0.5004231929779053
vn 0.0004887587274424732 0.0 -0.9999998807907104
vn 0.0004887587274424732 0.0 -0.9999998807907104
vn 0.0004887587274424732 0.0 -0.9999998807907104
vn 0.0004887587274424732 0.0 -0.9999998807907104
vn 0.0 1.0 0.0
vn 0.0 1.0 0.0
vn 0.0 1.0 0.0
vn 0.0 1.0 0.0
vn 0.0 1.0 0.0
vn 0.0 1.0 0.0
vn 0.0 1.0 0.0
vn 0.0 1.0 0.0
vn 0.0 1.0 0.0
vn 0.0 1.0 0.0
vn 0.0 1.0 0.0
vn 0.0 1.0 0.0
vn 0.0 1.0 0.0
vn 0.0 1.0 0.0
vn 0.0 1.0 0.0
vn 0.0 1.0 0.0
vn 0.0 1.0 0.0
vn 0.0 1.0 0.0
vn 0.0 1.0 0.0
vn 0.0 1.0 0.0
vn 0.0 1.0 0.0
vn 0.0 1.0 0.0
vn 0.0 1.0 0.0
vn 0.0 1.0 0.0
vn 0.0 1.0 0.0
vn 0.0 1.0 0.0
vn 0.0 1.0 0.0
vn 0.0 1.0 0.0
vn 0.0 1.0 0.0
vn 0.0 1.0 0.0
vn 0.0 1.0 0.0
vn 0.0 1.0 0.0
vn 0.0 1.0 0.0
vn 0.0 1.0 0.0
vn 0.0 1.0 0.0
vn 0.0 1.0 0.0
vn 0.0 1.0 0.0
vn 0.0 1.0 0.0
vn 0.0 1.0 0.0
vn 0.0 1.0 0.0
vn 0.0 1.0 0.0
vn 0.0 1.0 0.0
vn 0.0 1.0 0.0
vn 0.0 1.0 0.0
vn 0.0 1.0 0.0
vn 0.0 1.0 0.0
vn 0.0 1.0 0.0
vn 0.0 1.0 0.0
vn 0.0 1.0 0.0
g e4ab1b80-e31a-11ea-a067-54bf646e7e1f
f 43//43 1//1 49//49
f 49//49 1//1 2//2
f 49//49 2//2 3//3
f 3//3 4//4 49//49
f 49//49 4//4 5//5
f 49//49 5//5 48//48
f 48//48 5//5 6//6
f 48//48 6//6 7//7
f 7//7 8//8 48//48
f 48//48 8//8 9//9
f 48//48 9//9 10//10
f 10//10 11//11 48//48
f 48//48 11//11 12//12
f 48//48 12//12 47//47
f 47//47 12//12 13//13
f 47//47 13//13 14//14
f 14//14 15//15 47//47
f 47//47 15//15 16//16
f 47//47 16//16 17//17
f 17//17 18//18 47//47
f 47//47 18//18 19//19
f 47//47 19//19 46//46
f 46//46 19//19 20//20
f 46//46 20//20 21//21
f 21//21 22//22 46//46
f 46//46 22//22 23//23
f 46//46 23//23 24//24
f 24//24 25//25 46//46
f 46//46 25//25 26//26
f 46//46 26//26 45//45
f 45//45 26//26 27//27
f 45//45 27//27 28//28
f 28//28 29//29 45//45
f 45//45 29//29 30//30
f 45//45 30//30 31//31
f 31//31 32//32 45//45
f 45//45 32//32 33//33
f 45//45 33//33 44//44
f 44//44 33//33 34//34
f 44//44 34//34 35//35
f 35//35 36//36 44//44
f 44//44 36//36 37//37
f 44//44 37//37 38//38
f 38//38 39//39 44//44
f 44//44 39//39 40//40
f 44//44 40//40 49//49
f 49//49 40//40 41//41
f 49//49 41//41 42//42
f 42//42 43//43 49//49
g e4ab69a4-e31a-11ea-8853-54bf646e7e1f
f 51//51 135//135 50//50
f 50//50 135//135 136//136
f 137//137 93//93 92//92
f 92//92 93//93 94//94
f 92//92 94//94 91//91
f 91//91 94//94 95//95
f 91//91 95//95 90//90
f 90//90 95//95 96//96
f 90//90 96//96 89//89
f 89//89 96//96 97//97
f 89//89 97//97 88//88
f 88//88 97//97 98//98
f 88//88 98//98 87//87
f 87//87 98//98 99//99
f 87//87 99//99 86//86
f 86//86 99//99 100//100
f 86//86 100//100 85//85
f 85//85 100//100 101//101
f 85//85 101//101 84//84
f 84//84 101//101 102//102
f 84//84 102//102 83//83
f 83//83 102//102 103//103
f 83//83 103//103 82//82
f 82//82 103//103 104//104
f 82//82 104//104 81//81
f 81//81 104//104 105//105
f 81//81 105//105 80//80
f 80//80 105//105 106//106
f 80//80 106//106 79//79
f 79//79 106//106 107//107
f 79//79 107//107 78//78
f 78//78 107//107 108//108
f 78//78 108//108 77//77
f 77//77 108//108 109//109
f 77//77 109//109 76//76
f 76//76 109//109 110//110
f 76//76 110//110 75//75
f 75//75 110//110 111//111
f 75//75 111//111 74//74
f 74//74 111//111 112//112
f 74//74 112//112 73//73
f 73//73 112//112 113//113
f 73//73 113//113 72//72
f 72//72 113//113 114//114
f 72//72 114//114 71//71
f 71//71 114//114 115//115
f 71//71 115//115 70//70
f 70//70 115//115 116//116
f 70//70 116//116 69//69
f 69//69 116//116 117//117
f 69//69 117//117 68//68
f 68//68 117//117 118//118
f 68//68 118//118 67//67
f 67//67 118//118 119//119
f 67//67 119//119 66//66
f 66//66 119//119 120//120
f 66//66 120//120 65//65
f 65//65 120//120 121//121
f 65//65 121//121 64//64
f 64//64 121//121 122//122
f 64//64 122//122 63//63
f 63//63 122//122 123//123
f 63//63 123//123 62//62
f 62//62 123//123 124//124
f 62//62 124//124 61//61
f 61//61 124//124 125//125
f 61//61 125//125 60//60
f 60//60 125//125 126//126
f 60//60 126//126 59//59
f 59//59 126//126 127//127
f 59//59 127//127 58//58
f 58//58 127//127 128//128
f 58//58 128//128 57//57
f 57//57 128//128 129//129
f 57//57 129//129 56//56
f 56//56 129//129 130//130
f 56//56 130//130 55//55
f 55//55 130//130 131//131
f 55//55 131//131 54//54
f 54//54 131//131 132//132
f 54//54 132//132 53//53
f 53//53 132//132 133//133
f 53//53 133//133 52//52
f 52//52 133//133 134//134
f 52//52 134//134 51//51
f 51//51 134//134 135//135
g e4abb7d8-e31a-11ea-93d8-54bf646e7e1f
f 139//139 140//140 138//138
f 138//138 140//140 141//141
g e4ac0606-e31a-11ea-bb2c-54bf646e7e1f
f 143//143 144//144 142//142
f 142//142 144//144 145//145
g e4ac2d12-e31a-11ea-80a7-54bf646e7e1f
f 147//147 148//148 146//146
f 146//146 148//148 149//149
g e4ac7b38-e31a-11ea-874c-54bf646e7e1f
f 151//151 152//152 150//150
f 150//150 152//152 153//153
g e4acc95a-e31a-11ea-bc1e-54bf646e7e1f
f 155//155 156//156 154//154
f 154//154 156//156 157//157
g e4ad3e92-e31a-11ea-91c9-54bf646e7e1f
f 159//159 160//160 158//158
f 158//158 160//160 161//161
g e4ad8cbe-e31a-11ea-aa8f-54bf646e7e1f
f 204//204 162//162 207//207
f 207//207 162//162 163//163
f 207//207 163//163 164//164
f 164//164 165//165 207//207
f 207//207 165//165 166//166
f 207//207 166//166 206//206
f 206//206 166//166 167//167
f 206//206 167//167 168//168
f 168//168 169//169 206//206
f 206//206 169//169 170//170
f 206//206 170//170 171//171
f 171//171 172//172 206//206
f 206//206 172//172 173//173
f 206//206 173//173 205//205
f 205//205 173//173 174//174
f 205//205 174//174 175//175
f 175//175 176//176 205//205
f 205//205 176//176 177//177
f 205//205 177//177 178//178
f 178//178 179//179 205//205
f 205//205 179//179 180//180
f 205//205 180//180 210//210
f 210//210 180//180 181//181
f 210//210 181//181 182//182
f 182//182 183//183 210//210
f 210//210 183//183 184//184
f 210//210 184//184 185//185
f 185//185 186//186 210//210
f 210//210 186//186 187//187
f 210//210 187//187 209//209
f 209//209 187//187 188//188
f 209//209 188//188 189//189
f 189//189 190//190 209//209
f 209//209 190//190 191//191
f 209//209 191//191 192//192
f 192//192 193//193 209//209
f 209//209 193//193 194//194
f 209//209 194//194 208//208
f 208//208 194//194 195//195
f 208//208 195//195 196//196
f 196//196 197//197 208//208
f 208//208 197//197 198//198
f 208//208 198//198 199//199
f 199//199 200//200 208//208
f 208//208 200//200 201//201
f 208//208 201//201 207//207
f 207//207 201//201 202//202
f 207//207 202//202 203//203
f 203//203 204//204 207//207

# End of file