# WaveFront *.obj file
# Vertices: 24
# Triangles : 12

v -2.0 0.0 2.0
v 2.0 0.0 2.0
v 2.0 4.0 2.0
v -2.0 4.0 2.0
v -2.0 0.0 -2.0
v -2.0 0.0 2.0
v -2.0 4.0 2.0
v -2.0 4.0 -2.0
v 2.0 0.0 -2.0
v -2.0 0.0 -2.0
v -2.0 4.0 -2.0
v 2.0 4.0 -2.0
v 2.0 0.0 2.0
v 2.0 0.0 -2.0
v 2.0 4.0 -2.0
v 2.0 4.0 2.0
v 2.0 4.0 2.0
v 2.0 4.0 -2.0
v -2.0 4.0 -2.0
v -2.0 4.0 2.0
v 2.0 0.0 -2.0
v 2.0 0.0 2.0
v -2.0 0.0 2.0
v -2.0 0.0 -2.0
vn 0.0 0.0 1.0
vn 0.0 0.0 1.0
vn 0.0 0.0 1.0
vn 0.0 0.0 1.0
vn -1.0 0.0 0.0
vn -1.0 0.0 0.0
vn -1.0 0.0 0.0
vn -1.0 0.0 0.0
vn 0.0 0.0 -1.0
vn 0.0 0.0 -1.0
vn 0.0 0.0 -1.0
vn 0.0 0.0 -1.0
vn 1.0 -0.0 0.0
vn 1.0 -0.0 0.0
vn 1.0 -0.0 0.0
vn 1.0 -0.0 0.0
vn 0.0 1.0 0.0
vn 0.0 1.0 0.0
vn 0.0 1.0 0.0
vn 0.0 1.0 0.0
vn -0.0 -1.0 -0.0
vn -0.0 -1.0 -0.0
vn -0.0 -1.0 -0.0
vn -0.0 -1.0 -0.0
g 118a738a-e31b-11ea-9717-54bf646e7e1f
f 1//1 2//2 4//4
f 4//4 2//2 3//3
g 118cbd90-e31b-11ea-9d54-54bf646e7e1f
f 5//5 6//6 8//8
f 8//8 6//6 7//7
g 118f0798-e31b-11ea-a499-54bf646e7e1f
f 9//9 10//10 12//12
f 12//12 10//10 11//11
g 11910380-e31b-11ea-99c9-54bf646e7e1f
f 13//13 14//14 16//16
f 16//16 14//14 15//15
g 11934da8-e31b-11ea-8829-54bf646e7e1f
f 17//17 18//18 20//20
f 20//20 18//18 19//19
g 11965b2c-e31b-11ea-993b-54bf646e7e1f
f 22//22 23//23 21//21
f 21//21 23//23 24//24

# End of file