# WaveFront *.obj file
# Vertices: 144
# Triangles : 124

v 2.3485000133514404 -0.3449999988079071 -6.9070000648498535
v 2.5710208415985107 -0.3449999988079071 -6.881927967071533
v 2.782383680343628 -0.3449999988079071 -6.807969093322754
v 2.971989870071411 -0.3449999988079071 -6.688831329345703
v 3.130331516265869 -0.3449999988079071 -6.530489921569824
v 3.2494688034057617 -0.3449999988079071 -6.340883731842041
v 3.32342791557312 -0.3449999988079071 -6.129520893096924
v 3.3485000133514404 -0.3449999988079071 -5.9070000648498535
v 3.3485000133514404 -0.3449999988079071 5.9070000648498535
v 3.32342791557312 -0.3449999988079071 6.129520893096924
v 3.2494688034057617 -0.3449999988079071 6.340883731842041
v 3.130331516265869 -0.3449999988079071 6.530489921569824
v 2.971989870071411 -0.3449999988079071 6.688831329345703
v 2.782383680343628 -0.3449999988079071 6.807969093322754
v 2.5710208415985107 -0.3449999988079071 6.881927967071533
v 2.3485000133514404 -0.3449999988079071 6.9070000648498535
v -2.3485000133514404 -0.3449999988079071 6.9070000648498535
v -2.5710208415985107 -0.3449999988079071 6.881927967071533
v -2.782383680343628 -0.3449999988079071 6.807969093322754
v -2.971989870071411 -0.3449999988079071 6.688831329345703
v -3.130331516265869 -0.3449999988079071 6.530489921569824
v -3.2494688034057617 -0.3449999988079071 6.340883731842041
v -3.32342791557312 -0.3449999988079071 6.129520893096924
v -3.3485000133514404 -0.3449999988079071 5.9070000648498535
v -3.3485000133514404 -0.3449999988079071 -5.9070000648498535
v -3.32342791557312 -0.3449999988079071 -6.129520893096924
v -3.2494688034057617 -0.3449999988079071 -6.340883731842041
v -3.130331516265869 -0.3449999988079071 -6.530489921569824
v -2.971989870071411 -0.3449999988079071 -6.688831329345703
v -2.782383680343628 -0.3449999988079071 -6.807969093322754
v -2.5710208415985107 -0.3449999988079071 -6.881927967071533
v -2.3485000133514404 -0.3449999988079071 -6.9070000648498535
v 3.3485000133514404 -0.3449999988079071 -5.9070000648498535
v 3.3485000133514404 0.3449999988079071 -5.9070000648498535
v 3.3485000133514404 0.3449999988079071 5.9070000648498535
v 3.3485000133514404 -0.3449999988079071 5.9070000648498535
v 3.3485000133514404 -0.3449999988079071 5.9070000648498535
v 3.3485000133514404 0.3449999988079071 5.9070000648498535
v 3.32342791557312 0.3449999988079071 6.129520893096924
v 3.2494688034057617 0.3449999988079071 6.340883731842041
v 3.130331516265869 0.3449999988079071 6.530489921569824
v 2.971989870071411 0.3449999988079071 6.688831329345703
v 2.782383680343628 0.3449999988079071 6.807969093322754
v 2.5710208415985107 0.3449999988079071 6.881927967071533
v 2.3485000133514404 0.3449999988079071 6.9070000648498535
v 2.3485000133514404 -0.3449999988079071 6.9070000648498535
v 2.5710208415985107 -0.3449999988079071 6.881927967071533
v 2.782383680343628 -0.3449999988079071 6.807969093322754
v 2.971989870071411 -0.3449999988079071 6.688831329345703
v 3.130331516265869 -0.3449999988079071 6.530489921569824
v 3.2494688034057617 -0.3449999988079071 6.340883731842041
v 3.32342791557312 -0.3449999988079071 6.129520893096924
v 2.3485000133514404 -0.3449999988079071 6.9070000648498535
v 2.3485000133514404 0.3449999988079071 6.9070000648498535
v -2.3485000133514404 0.3449999988079071 6.9070000648498535
v -2.3485000133514404 -0.3449999988079071 6.9070000648498535
v -2.3485000133514404 -0.3449999988079071 6.9070000648498535
v -2.3485000133514404 0.3449999988079071 6.9070000648498535
v -2.5710208415985107 0.3449999988079071 6.881927967071533
v -2.782383680343628 0.3449999988079071 6.807969093322754
v -2.971989870071411 0.3449999988079071 6.688831329345703
v -3.130331516265869 0.3449999988079071 6.530489921569824
v -3.2494688034057617 0.3449999988079071 6.340883731842041
v -3.32342791557312 0.3449999988079071 6.129520893096924
v -3.3485000133514404 0.3449999988079071 5.9070000648498535
v -3.3485000133514404 -0.3449999988079071 5.9070000648498535
v -3.32342791557312 -0.3449999988079071 6.129520893096924
v -3.2494688034057617 -0.3449999988079071 6.340883731842041
v -3.130331516265869 -0.3449999988079071 6.530489921569824
v -2.971989870071411 -0.3449999988079071 6.688831329345703
v -2.782383680343628 -0.3449999988079071 6.807969093322754
v -2.5710208415985107 -0.3449999988079071 6.881927967071533
v -3.3485000133514404 -0.3449999988079071 5.9070000648498535
v -3.3485000133514404 0.3449999988079071 5.9070000648498535
v -3.3485000133514404 0.3449999988079071 -5.9070000648498535
v -3.3485000133514404 -0.3449999988079071 -5.9070000648498535
v -3.3485000133514404 -0.3449999988079071 -5.9070000648498535
v -3.3485000133514404 0.3449999988079071 -5.9070000648498535
v -3.32342791557312 0.3449999988079071 -6.129520893096924
v -3.2494688034057617 0.3449999988079071 -6.340883731842041
v -3.130331516265869 0.3449999988079071 -6.530489921569824
v -2.971989870071411 0.3449999988079071 -6.688831329345703
v -2.782383680343628 0.3449999988079071 -6.807969093322754
v -2.5710208415985107 0.3449999988079071 -6.881927967071533
v -2.3485000133514404 0.3449999988079071 -6.9070000648498535
v -2.3485000133514404 -0.3449999988079071 -6.9070000648498535
v -2.5710208415985107 -0.3449999988079071 -6.881927967071533
v -2.782383680343628 -0.3449999988079071 -6.807969093322754
v -2.971989870071411 -0.3449999988079071 -6.688831329345703
v -3.130331516265869 -0.3449999988079071 -6.530489921569824
v -3.2494688034057617 -0.3449999988079071 -6.340883731842041
v -3.32342791557312 -0.3449999988079071 -6.129520893096924
v -2.3485000133514404 -0.3449999988079071 -6.9070000648498535
v -2.3485000133514404 0.3449999988079071 -6.9070000648498535
v 2.3485000133514404 0.3449999988079071 -6.9070000648498535
v 2.3485000133514404 -0.3449999988079071 -6.9070000648498535
v 2.3485000133514404 -0.3449999988079071 -6.9070000648498535
v 2.3485000133514404 0.3449999988079071 -6.9070000648498535
v 2.5710208415985107 0.3449999988079071 -6.881927967071533
v 2.782383680343628 0.3449999988079071 -6.807969093322754
v 2.971989870071411 0.3449999988079071 -6.688831329345703
v 3.130331516265869 0.3449999988079071 -6.530489921569824
v 3.2494688034057617 0.3449999988079071 -6.340883731842041
v 3.32342791557312 0.3449999988079071 -6.129520893096924
v 3.3485000133514404 0.3449999988079071 -5.9070000648498535
v 3.3485000133514404 -0.3449999988079071 -5.9070000648498535
v 3.32342791557312 -0.3449999988079071 -6.129520893096924
v 3.2494688034057617 -0.3449999988079071 -6.340883731842041
v 3.130331516265869 -0.3449999988079071 -6.530489921569824
v 2.971989870071411 -0.3449999988079071 -6.688831329345703
v 2.782383680343628 -0.3449999988079071 -6.807969093322754
v 2.5710208415985107 -0.3449999988079071 -6.881927967071533
v 3.3485000133514404 0.3449999988079071 -5.9070000648498535
v 3.32342791557312 0.3449999988079071 -6.129520893096924
v 3.2494688034057617 0.3449999988079071 -6.340883731842041
v 3.130331516265869 0.3449999988079071 -6.530489921569824
v 2.971989870071411 0.3449999988079071 -6.688831329345703
v 2.782383680343628 0.3449999988079071 -6.807969093322754
v 2.5710208415985107 0.3449999988079071 -6.881927967071533
v 2.3485000133514404 0.3449999988079071 -6.9070000648498535
v -2.3485000133514404 0.3449999988079071 -6.9070000648498535
v -2.5710208415985107 0.3449999988079071 -6.881927967071533
v -2.782383680343628 0.3449999988079071 -6.807969093322754
v -2.971989870071411 0.3449999988079071 -6.688831329345703
v -3.130331516265869 0.3449999988079071 -6.530489921569824
v -3.2494688034057617 0.3449999988079071 -6.340883731842041
v -3.32342791557312 0.3449999988079071 -6.129520893096924
v -3.3485000133514404 0.3449999988079071 -5.9070000648498535
v -3.3485000133514404 0.3449999988079071 5.9070000648498535
v -3.32342791557312 0.3449999988079071 6.129520893096924
v -3.2494688034057617 0.3449999988079071 6.340883731842041
v -3.130331516265869 0.3449999988079071 6.530489921569824
v -2.971989870071411 0.3449999988079071 6.688831329345703
v -2.782383680343628 0.3449999988079071 6.807969093322754
v -2.5710208415985107 0.3449999988079071 6.881927967071533
v -2.3485000133514404 0.3449999988079071 6.9070000648498535
v 2.3485000133514404 0.3449999988079071 6.9070000648498535
v 2.5710208415985107 0.3449999988079071 6.881927967071533
v 2.782383680343628 0.3449999988079071 6.807969093322754
v 2.971989870071411 0.3449999988079071 6.688831329345703
v 3.130331516265869 0.3449999988079071 6.530489921569824
v 3.2494688034057617 0.3449999988079071 6.340883731842041
v 3.32342791557312 0.3449999988079071 6.129520893096924
v 3.3485000133514404 0.3449999988079071 5.9070000648498535
vn -0.0 -1.0 -0.0
vn -0.0 -1.0 -0.0
vn -0.0 -1.0 -0.0
vn -0.0 -1.0 -0.0
vn -0.0 -1.0 -0.0
vn -0.0 -1.0 -0.0
vn -0.0 -1.0 -0.0
vn -0.0 -1.0 -0.0
vn -0.0 -1.0 -0.0
vn -0.0 -1.0 -0.0
vn -0.0 -1.0 -0.0
vn -0.0 -1.0 -0.0
vn -0.0 -1.0 -0.0
vn -0.0 -1.0 -0.0
vn -0.0 -1.0 -0.0
vn -0.0 -1.0 -0.0
vn -0.0 -1.0 -0.0
vn -0.0 -1.0 -0.0
vn -0.0 -1.0 -0.0
vn -0.0 -1.0 -0.0
vn -0.0 -1.0 -0.0
vn -0.0 -1.0 -0.0
vn -0.0 -1.0 -0.0
vn -0.0 -1.0 -0.0
vn -0.0 -1.0 -0.0
vn -0.0 -1.0 -0.0
vn -0.0 -1.0 -0.0
vn -0.0 -1.0 -0.0
vn -0.0 -1.0 -0.0
vn -0.0 -1.0 -0.0
vn -0.0 -1.0 -0.0
vn -0.0 -1.0 -0.0
vn 1.0 -0.0 0.0
vn 1.0 -0.0 0.0
vn 1.0 -0.0 0.0
vn 1.0 -0.0 0.0
vn 1.0 -0.0 -8.269460903057566e-16
vn 1.0 -0.0 -8.269460903057566e-16
vn 0.9749279022216797 -0.0 0.22252093255519867
vn 0.9009688496589661 -0.0 0.4338837265968323
vn 0.7818315029144287 -0.0 0.6234897971153259
vn 0.6234897971153259 -0.0 0.7818315029144287
vn 0.4338837265968323 -0.0 0.9009688496589661
vn 0.22252093255519867 -0.0 0.9749279022216797
vn 4.440892098500626e-16 -0.0 1.0
vn 4.440892098500626e-16 -0.0 1.0
vn 0.22252093255519867 -0.0 0.9749279022216797
vn 0.4338837265968323 -0.0 0.9009688496589661
vn 0.6234897971153259 -0.0 0.7818315029144287
vn 0.7818315029144287 -0.0 0.6234897971153259
vn 0.9009688496589661 -0.0 0.4338837265968323
vn 0.9749279022216797 -0.0 0.22252093255519867
vn 0.0 0.0 1.0
vn 0.0 0.0 1.0
vn 0.0 0.0 1.0
vn 0.0 0.0 1.0
vn 3.82856880455694e-16 -0.0 1.0
vn 3.82856880455694e-16 -0.0 1.0
vn -0.22252093255519867 -0.0 0.9749279022216797
vn -0.4338837265968323 -0.0 0.9009688496589661
vn -0.6234897971153259 -0.0 0.7818315029144287
vn -0.7818315029144287 -0.0 0.6234897971153259
vn -0.9009688496589661 -0.0 0.4338837265968323
vn -0.9749279022216797 -0.0 0.22252093255519867
vn -1.0 0.0 -1.7763568394002505e-15
vn -1.0 0.0 -1.7763568394002505e-15
vn -0.9749279022216797 -0.0 0.22252093255519867
vn -0.9009688496589661 -0.0 0.4338837265968323
vn -0.7818315029144287 -0.0 0.6234897971153259
vn -0.6234897971153259 -0.0 0.7818315029144287
vn -0.4338837265968323 -0.0 0.9009688496589661
vn -0.22252093255519867 -0.0 0.9749279022216797
vn -1.0 0.0 0.0
vn -1.0 0.0 0.0
vn -1.0 0.0 0.0
vn -1.0 0.0 0.0
vn -1.0 -0.0 8.269460903057566e-16
vn -1.0 -0.0 8.269460903057566e-16
vn -0.9749279022216797 0.0 -0.22252093255519867
vn -0.9009688496589661 0.0 -0.4338837265968323
vn -0.7818315029144287 0.0 -0.6234897971153259
vn -0.6234897971153259 0.0 -0.7818315029144287
vn -0.4338837265968323 0.0 -0.9009688496589661
vn -0.22252093255519867 0.0 -0.9749279022216797
vn 4.440892098500626e-16 -0.0 -1.0
vn 4.440892098500626e-16 -0.0 -1.0
vn -0.22252093255519867 0.0 -0.9749279022216797
vn -0.4338837265968323 0.0 -0.9009688496589661
vn -0.6234897971153259 0.0 -0.7818315029144287
vn -0.7818315029144287 0.0 -0.6234897971153259
vn -0.9009688496589661 0.0 -0.4338837265968323
vn -0.9749279022216797 0.0 -0.22252093255519867
vn 0.0 0.0 -1.0
vn 0.0 0.0 -1.0
vn 0.0 0.0 -1.0
vn 0.0 0.0 -1.0
vn -8.269460903057566e-16 0.0 -1.0
vn -8.269460903057566e-16 0.0 -1.0
vn 0.22252093255519867 -0.0 -0.9749279022216797
vn 0.4338837265968323 -0.0 -0.9009688496589661
vn 0.6234897971153259 -0.0 -0.7818315029144287
vn 0.7818315029144287 -0.0 -0.6234897971153259
vn 0.9009688496589661 -0.0 -0.4338837265968323
vn 0.9749279022216797 -0.0 -0.22252093255519867
vn 1.0 -0.0 3.552713678800501e-15
vn 1.0 -0.0 3.552713678800501e-15
vn 0.9749279022216797 -0.0 -0.22252093255519867
vn 0.9009688496589661 -0.0 -0.4338837265968323
vn 0.7818315029144287 -0.0 -0.6234897971153259
vn 0.6234897971153259 -0.0 -0.7818315029144287
vn 0.4338837265968323 -0.0 -0.9009688496589661
vn 0.22252093255519867 -0.0 -0.9749279022216797
vn 0.0 1.0 0.0
vn 0.0 1.0 0.0
vn 0.0 1.0 0.0
vn 0.0 1.0 0.0
vn 0.0 1.0 0.0
vn 0.0 1.0 0.0
vn 0.0 1.0 0.0
vn 0.0 1.0 0.0
vn 0.0 1.0 0.0
vn 0.0 1.0 0.0
vn 0.0 1.0 0.0
vn 0.0 1.0 0.0
vn 0.0 1.0 0.0
vn 0.0 1.0 0.0
vn 0.0 1.0 0.0
vn 0.0 1.0 0.0
vn 0.0 1.0 0.0
vn 0.0 1.0 0.0
vn 0.0 1.0 0.0
vn 0.0 1.0 0.0
vn 0.0 1.0 0.0
vn 0.0 1.0 0.0
vn 0.0 1.0 0.0
vn 0.0 1.0 0.0
vn 0.0 1.0 0.0
vn 0.0 1.0 0.0
vn 0.0 1.0 0.0
vn 0.0 1.0 0.0
vn 0.0 1.0 0.0
vn 0.0 1.0 0.0
vn 0.0 1.0 0.0
vn 0.0 1.0 0.0
g b5b5589c-e32d-11ea-bccc-54bf646e7e1f
f 2//2 8//8 1//1
f 1//1 8//8 9//9
f 1//1 9//9 16//16
f 16//16 9//9 15//15
f 15//15 9//9 14//14
f 14//14 9//9 13//13
f 13//13 9//9 12//12
f 12//12 9//9 11//11
f 11//11 9//9 10//10
f 2//2 3//3 8//8
f 8//8 3//3 4//4
f 8//8 4//4 5//5
f 5//5 6//6 8//8
f 8//8 6//6 7//7
f 16//16 17//17 1//1
f 1//1 17//17 32//32
f 32//32 17//17 24//24
f 32//32 24//24 25//25
f 17//17 18//18 24//24
f 24//24 18//18 19//19
f 24//24 19//19 20//20
f 20//20 21//21 24//24
f 24//24 21//21 22//22
f 24//24 22//22 23//23
f 26//26 27//27 25//25
f 25//25 27//27 28//28
f 25//25 28//28 29//29
f 29//29 30//30 25//25
f 25//25 30//30 31//31
f 25//25 31//31 32//32
g b5b57fb0-e32d-11ea-ad02-54bf646e7e1f
f 34//34 35//35 33//33
f 33//33 35//35 36//36
g b5b5a6b6-e32d-11ea-afd2-54bf646e7e1f
f 37//37 38//38 52//52
f 52//52 38//38 39//39
f 52//52 39//39 51//51
f 51//51 39//39 40//40
f 51//51 40//40 50//50
f 50//50 40//40 41//41
f 50//50 41//41 49//49
f 49//49 41//41 42//42
f 49//49 42//42 48//48
f 48//48 42//42 43//43
f 48//48 43//43 47//47
f 47//47 43//43 44//44
f 47//47 44//44 46//46
f 46//46 44//44 45//45
g b5b5cda8-e32d-11ea-83da-54bf646e7e1f
f 54//54 55//55 53//53
f 53//53 55//55 56//56
g b5b5f4a8-e32d-11ea-8e57-54bf646e7e1f
f 57//57 58//58 72//72
f 72//72 58//58 59//59
f 72//72 59//59 71//71
f 71//71 59//59 60//60
f 71//71 60//60 70//70
f 70//70 60//60 61//61
f 70//70 61//61 69//69
f 69//69 61//61 62//62
f 69//69 62//62 68//68
f 68//68 62//62 63//63
f 68//68 63//63 67//67
f 67//67 63//63 64//64
f 67//67 64//64 66//66
f 66//66 64//64 65//65
g b5b61bd2-e32d-11ea-a084-54bf646e7e1f
f 74//74 75//75 73//73
f 73//73 75//75 76//76
g b5b669fe-e32d-11ea-958f-54bf646e7e1f
f 77//77 78//78 92//92
f 92//92 78//78 79//79
f 92//92 79//79 91//91
f 91//91 79//79 80//80
f 91//91 80//80 90//90
f 90//90 80//80 81//81
f 90//90 81//81 89//89
f 89//89 81//81 82//82
f 89//89 82//82 88//88
f 88//88 82//82 83//83
f 88//88 83//83 87//87
f 87//87 83//83 84//84
f 87//87 84//84 86//86
f 86//86 84//84 85//85
g b5b690f6-e32d-11ea-940c-54bf646e7e1f
f 94//94 95//95 93//93
f 93//93 95//95 96//96
g b5b6df10-e32d-11ea-a6c6-54bf646e7e1f
f 97//97 98//98 112//112
f 112//112 98//98 99//99
f 112//112 99//99 111//111
f 111//111 99//99 100//100
f 111//111 100//100 110//110
f 110//110 100//100 101//101
f 110//110 101//101 109//109
f 109//109 101//101 102//102
f 109//109 102//102 108//108
f 108//108 102//102 103//103
f 108//108 103//103 107//107
f 107//107 103//103 104//104
f 107//107 104//104 106//106
f 106//106 104//104 105//105
g b5b72d40-e32d-11ea-9d70-54bf646e7e1f
f 114//114 115//115 113//113
f 113//113 115//115 116//116
f 113//113 116//116 117//117
f 117//117 118//118 113//113
f 113//113 118//118 119//119
f 113//113 119//119 120//120
f 121//121 137//137 120//120
f 120//120 137//137 144//144
f 120//120 144//144 113//113
f 122//122 128//128 121//121
f 121//121 128//128 129//129
f 121//121 129//129 136//136
f 136//136 129//129 135//135
f 135//135 129//129 134//134
f 134//134 129//129 133//133
f 133//133 129//129 132//132
f 132//132 129//129 131//131
f 131//131 129//129 130//130
f 122//122 123//123 128//128
f 128//128 123//123 124//124
f 128//128 124//124 125//125
f 125//125 126//126 128//128
f 128//128 126//126 127//127
f 136//136 137//137 121//121
f 137//137 138//138 144//144
f 144//144 138//138 139//139
f 144//144 139//139 140//140
f 140//140 141//141 144//144
f 144//144 141//141 142//142
f 144//144 142//142 143//143

# End of file