# WaveFront *.obj file
# Vertices: 190
# Triangles : 176

v 0.793749988079071 3.812540054321289 -9.720634144240586e-17
v 0.7844476103782654 3.812540054321289 0.12116537243127823
v 0.7567583918571472 3.812540054321289 0.23949073255062103
v 0.7113314270973206 3.812540054321289 0.3522026240825653
v 0.6492314338684082 3.812540054321289 0.456659197807312
v 0.57191401720047 3.812540054321289 0.5504120588302612
v 0.4811914265155792 3.812540054321289 0.6312637329101562
v 0.3791901171207428 3.812540054321289 0.6973190903663635
v 0.2683008909225464 3.812540054321289 0.7470299005508423
v 0.15112294256687164 3.812540054321289 0.7792309522628784
v 0.03040279448032379 3.812540054321289 0.7931675314903259
v -0.09102997183799744 3.812540054321289 0.7885128855705261
v -0.210329070687294 3.812540054321289 0.7653762102127075
v -0.32469823956489563 3.812540054321289 0.7242997288703918
v -0.4314567446708679 3.812540054321289 0.6662462949752808
v -0.5281022787094116 3.812540054321289 0.5925766229629517
v -0.6123695373535156 3.812540054321289 0.5050174593925476
v -0.6822834014892578 3.812540054321289 0.40562108159065247
v -0.7362050414085388 3.812540054321289 0.2967172861099243
v -0.7728707194328308 3.812540054321289 0.18085871636867523
v -0.7914209961891174 3.812540054321289 0.060760971158742905
v -0.7914209961891174 3.812540054321289 -0.060760971158742905
v -0.7728707194328308 3.812540054321289 -0.18085871636867523
v -0.7362050414085388 3.812540054321289 -0.2967172861099243
v -0.6822834014892578 3.812540054321289 -0.40562108159065247
v -0.6123695373535156 3.812540054321289 -0.5050174593925476
v -0.5281022787094116 3.812540054321289 -0.5925766229629517
v -0.4314567446708679 3.812540054321289 -0.6662462949752808
v -0.32469823956489563 3.812540054321289 -0.7242997288703918
v -0.210329070687294 3.812540054321289 -0.7653762102127075
v -0.09102997183799744 3.812540054321289 -0.7885128855705261
v 0.03040279448032379 3.812540054321289 -0.7931675314903259
v 0.15112294256687164 3.812540054321289 -0.7792309522628784
v 0.2683008909225464 3.812540054321289 -0.7470299005508423
v 0.3791901171207428 3.812540054321289 -0.6973190903663635
v 0.4811914265155792 3.812540054321289 -0.6312637329101562
v 0.57191401720047 3.812540054321289 -0.5504120588302612
v 0.6492314338684082 3.812540054321289 -0.456659197807312
v 0.7113314270973206 3.812540054321289 -0.3522026240825653
v 0.7567583918571472 3.812540054321289 -0.23949073255062103
v 0.7844476103782654 3.812540054321289 -0.12116537243127823
v 0.793749988079071 0.9524999856948853 -9.720634144240586e-17
v 0.7844476103782654 0.9524999856948853 -0.12116537243127823
v 0.7567583918571472 0.9524999856948853 -0.23949073255062103
v 0.7113314270973206 0.9524999856948853 -0.3522026240825653
v 0.6492314338684082 0.9524999856948853 -0.456659197807312
v 0.57191401720047 0.9524999856948853 -0.5504120588302612
v 0.4811914265155792 0.9524999856948853 -0.6312637329101562
v 0.3791901171207428 0.9524999856948853 -0.6973190903663635
v 0.2683008909225464 0.9524999856948853 -0.7470299005508423
v 0.15112294256687164 0.9524999856948853 -0.7792309522628784
v 0.03040279448032379 0.9524999856948853 -0.7931675314903259
v -0.09102997183799744 0.9524999856948853 -0.7885128855705261
v -0.210329070687294 0.9524999856948853 -0.7653762102127075
v -0.32469823956489563 0.9524999856948853 -0.7242997288703918
v -0.4314567446708679 0.9524999856948853 -0.6662462949752808
v -0.5281022787094116 0.9524999856948853 -0.5925766229629517
v -0.6123695373535156 0.9524999856948853 -0.5050174593925476
v -0.6822834014892578 0.9524999856948853 -0.40562108159065247
v -0.7362050414085388 0.9524999856948853 -0.2967172861099243
v -0.7728707194328308 0.9524999856948853 -0.18085871636867523
v -0.7914209961891174 0.9524999856948853 -0.060760971158742905
v -0.7914209961891174 0.9524999856948853 0.060760971158742905
v -0.7728707194328308 0.9524999856948853 0.18085871636867523
v -0.7362050414085388 0.9524999856948853 0.2967172861099243
v -0.6822834014892578 0.9524999856948853 0.40562108159065247
v -0.6123695373535156 0.9524999856948853 0.5050174593925476
v -0.5281022787094116 0.9524999856948853 0.5925766229629517
v -0.4314567446708679 0.9524999856948853 0.6662462949752808
v -0.32469823956489563 0.9524999856948853 0.7242997288703918
v -0.210329070687294 0.9524999856948853 0.7653762102127075
v -0.09102997183799744 0.9524999856948853 0.7885128855705261
v 0.03040279448032379 0.9524999856948853 0.7931675314903259
v 0.15112294256687164 0.9524999856948853 0.7792309522628784
v 0.2683008909225464 0.9524999856948853 0.7470299005508423
v 0.3791901171207428 0.9524999856948853 0.6973190903663635
v 0.4811914265155792 0.9524999856948853 0.6312637329101562
v 0.57191401720047 0.9524999856948853 0.5504120588302612
v 0.6492314338684082 0.9524999856948853 0.456659197807312
v 0.7113314270973206 0.9524999856948853 0.3522026240825653
v 0.7567583918571472 0.9524999856948853 0.23949073255062103
v 0.7844476103782654 0.9524999856948853 0.12116537243127823
v 0.793749988079071 0.9524999856948853 -9.720634144240586e-17
v 0.793749988079071 3.812540054321289 -9.720634144240586e-17
v 0.793749988079071 3.812540054321289 -9.720634144240586e-17
v 0.7844476103782654 3.812540054321289 -0.12116537243127823
v 0.7567583918571472 3.812540054321289 -0.23949073255062103
v 0.7113314270973206 3.812540054321289 -0.3522026240825653
v 0.6492314338684082 3.812540054321289 -0.456659197807312
v 0.57191401720047 3.812540054321289 -0.5504120588302612
v 0.4811914265155792 3.812540054321289 -0.6312637329101562
v 0.3791901171207428 3.812540054321289 -0.6973190903663635
v 0.2683008909225464 3.812540054321289 -0.7470299005508423
v 0.15112294256687164 3.812540054321289 -0.7792309522628784
v 0.03040279448032379 3.812540054321289 -0.7931675314903259
v -0.09102997183799744 3.812540054321289 -0.7885128855705261
v -0.210329070687294 3.812540054321289 -0.7653762102127075
v -0.32469823956489563 3.812540054321289 -0.7242997288703918
v -0.4314567446708679 3.812540054321289 -0.6662462949752808
v -0.5281022787094116 3.812540054321289 -0.5925766229629517
v -0.6123695373535156 3.812540054321289 -0.5050174593925476
v -0.6822834014892578 3.812540054321289 -0.40562108159065247
v -0.7362050414085388 3.812540054321289 -0.2967172861099243
v -0.7728707194328308 3.812540054321289 -0.18085871636867523
v -0.7914209961891174 3.812540054321289 -0.060760971158742905
v -0.7914209961891174 3.812540054321289 0.060760971158742905
v -0.7728707194328308 3.812540054321289 0.18085871636867523
v -0.7362050414085388 3.812540054321289 0.2967172861099243
v -0.6822834014892578 3.812540054321289 0.40562108159065247
v -0.6123695373535156 3.812540054321289 0.5050174593925476
v -0.5281022787094116 3.812540054321289 0.5925766229629517
v -0.4314567446708679 3.812540054321289 0.6662462949752808
v -0.32469823956489563 3.812540054321289 0.7242997288703918
v -0.210329070687294 3.812540054321289 0.7653762102127075
v -0.09102997183799744 3.812540054321289 0.7885128855705261
v 0.03040279448032379 3.812540054321289 0.7931675314903259
v 0.15112294256687164 3.812540054321289 0.7792309522628784
v 0.2683008909225464 3.812540054321289 0.7470299005508423
v 0.3791901171207428 3.812540054321289 0.6973190903663635
v 0.4811914265155792 3.812540054321289 0.6312637329101562
v 0.57191401720047 3.812540054321289 0.5504120588302612
v 0.6492314338684082 3.812540054321289 0.456659197807312
v 0.7113314270973206 3.812540054321289 0.3522026240825653
v 0.7567583918571472 3.812540054321289 0.23949073255062103
v 0.7844476103782654 3.812540054321289 0.12116537243127823
v -0.9524999856948853 0.0 1.2699999809265137
v 0.9524999856948853 0.0 1.2699999809265137
v 0.9524999856948853 0.9524999856948853 1.2699999809265137
v -0.9524999856948853 0.9524999856948853 1.2699999809265137
v -0.9524999856948853 0.0 -1.199306607246399
v -0.9524999856948853 0.0 1.2699999809265137
v -0.9524999856948853 0.9524999856948853 1.2699999809265137
v -0.9524999856948853 0.9524999856948853 -1.199306607246399
v 0.9524999856948853 0.0 -1.199306607246399
v -0.9524999856948853 0.0 -1.199306607246399
v -0.9524999856948853 0.9524999856948853 -1.199306607246399
v 0.9524999856948853 0.9524999856948853 -1.199306607246399
v 0.9524999856948853 0.0 1.2699999809265137
v 0.9524999856948853 0.0 -1.199306607246399
v 0.9524999856948853 0.9524999856948853 -1.199306607246399
v 0.9524999856948853 0.9524999856948853 1.2699999809265137
v 0.793749988079071 0.9524999856948853 -9.720634144240586e-17
v 0.7844476103782654 0.9524999856948853 0.12116537243127823
v 0.7567583918571472 0.9524999856948853 0.23949073255062103
v 0.7113314270973206 0.9524999856948853 0.3522026240825653
v 0.6492314338684082 0.9524999856948853 0.456659197807312
v 0.57191401720047 0.9524999856948853 0.5504120588302612
v 0.4811914265155792 0.9524999856948853 0.6312637329101562
v 0.3791901171207428 0.9524999856948853 0.6973190903663635
v 0.2683008909225464 0.9524999856948853 0.7470299005508423
v 0.15112294256687164 0.9524999856948853 0.7792309522628784
v 0.03040279448032379 0.9524999856948853 0.7931675314903259
v -0.09102997183799744 0.9524999856948853 0.7885128855705261
v -0.210329070687294 0.9524999856948853 0.7653762102127075
v -0.32469823956489563 0.9524999856948853 0.7242997288703918
v -0.4314567446708679 0.9524999856948853 0.6662462949752808
v -0.5281022787094116 0.9524999856948853 0.5925766229629517
v -0.6123695373535156 0.9524999856948853 0.5050174593925476
v -0.6822834014892578 0.9524999856948853 0.40562108159065247
v -0.7362050414085388 0.9524999856948853 0.2967172861099243
v -0.7728707194328308 0.9524999856948853 0.18085871636867523
v -0.7914209961891174 0.9524999856948853 0.060760971158742905
v -0.7914209961891174 0.9524999856948853 -0.060760971158742905
v -0.7728707194328308 0.9524999856948853 -0.18085871636867523
v -0.7362050414085388 0.9524999856948853 -0.2967172861099243
v -0.6822834014892578 0.9524999856948853 -0.40562108159065247
v -0.6123695373535156 0.9524999856948853 -0.5050174593925476
v -0.5281022787094116 0.9524999856948853 -0.5925766229629517
v -0.4314567446708679 0.9524999856948853 -0.6662462949752808
v -0.32469823956489563 0.9524999856948853 -0.7242997288703918
v -0.210329070687294 0.9524999856948853 -0.7653762102127075
v -0.09102997183799744 0.9524999856948853 -0.7885128855705261
v 0.03040279448032379 0.9524999856948853 -0.7931675314903259
v 0.15112294256687164 0.9524999856948853 -0.7792309522628784
v 0.2683008909225464 0.9524999856948853 -0.7470299005508423
v 0.3791901171207428 0.9524999856948853 -0.6973190903663635
v 0.4811914265155792 0.9524999856948853 -0.6312637329101562
v 0.57191401720047 0.9524999856948853 -0.5504120588302612
v 0.6492314338684082 0.9524999856948853 -0.456659197807312
v 0.7113314270973206 0.9524999856948853 -0.3522026240825653
v 0.7567583918571472 0.9524999856948853 -0.23949073255062103
v 0.7844476103782654 0.9524999856948853 -0.12116537243127823
v 0.9524999856948853 0.9524999856948853 1.2699999809265137
v 0.9524999856948853 0.9524999856948853 -1.199306607246399
v -0.9524999856948853 0.9524999856948853 -1.199306607246399
v -0.9524999856948853 0.9524999856948853 1.2699999809265137
v 0.9524999856948853 0.0 -1.199306607246399
v 0.9524999856948853 0.0 1.2699999809265137
v -0.9524999856948853 0.0 1.2699999809265137
v -0.9524999856948853 0.0 -1.199306607246399
vn 1.0 -0.0 1.2246468525851679e-16
vn 0.9882804155349731 -0.0 0.15264928340911865
vn 0.9533963799476624 -0.0 0.30172058939933777
vn 0.8961655497550964 -0.0 0.4437198340892792
vn 0.8179293870925903 -0.0 0.5753186345100403
vn 0.7205215692520142 -0.0 0.6934325098991394
vn 0.6062254309654236 -0.0 0.795292854309082
vn 0.47771981358528137 -0.0 0.8785122632980347
vn 0.3380168676376343 -0.0 0.9411400556564331
vn 0.19039110839366913 -0.0 0.9817083477973938
vn 0.03830273449420929 -0.0 0.9992662072181702
vn -0.11468342691659927 -0.0 0.9934020638465881
vn -0.2649815082550049 -0.0 0.9642534852027893
vn -0.40906864404678345 -0.0 0.9125036001205444
vn -0.5435675382614136 -0.0 0.8393654227256775
vn -0.6653257012367249 -0.0 0.7465532422065735
vn -0.7714892029762268 -0.0 0.6362424492835999
vn -0.8595696091651917 -0.0 0.511018693447113
vn -0.927502453327179 -0.0 0.3738170862197876
vn -0.9736953973770142 -0.0 0.22785350680351257
vn -0.9970657825469971 -0.0 0.07654925435781479
vn -0.9970657825469971 0.0 -0.07654925435781479
vn -0.9736953973770142 0.0 -0.22785350680351257
vn -0.927502453327179 0.0 -0.3738170862197876
vn -0.8595696091651917 0.0 -0.511018693447113
vn -0.7714892029762268 0.0 -0.6362424492835999
vn -0.6653257012367249 0.0 -0.7465532422065735
vn -0.5435675382614136 0.0 -0.8393654227256775
vn -0.40906864404678345 0.0 -0.9125036001205444
vn -0.2649815082550049 0.0 -0.9642534852027893
vn -0.11468342691659927 0.0 -0.9934020638465881
vn 0.03830273449420929 -0.0 -0.9992662072181702
vn 0.19039110839366913 -0.0 -0.9817083477973938
vn 0.3380168676376343 -0.0 -0.9411400556564331
vn 0.47771981358528137 -0.0 -0.8785122632980347
vn 0.6062254309654236 -0.0 -0.795292854309082
vn 0.7205215692520142 -0.0 -0.6934325098991394
vn 0.8179293870925903 -0.0 -0.5753186345100403
vn 0.8961655497550964 -0.0 -0.4437198340892792
vn 0.9533963799476624 -0.0 -0.30172058939933777
vn 0.9882804155349731 -0.0 -0.15264928340911865
vn 1.0 -0.0 -1.2246468525851679e-16
vn 0.9882804155349731 -0.0 -0.15264928340911865
vn 0.9533963799476624 -0.0 -0.30172058939933777
vn 0.8961655497550964 -0.0 -0.4437198340892792
vn 0.8179293870925903 -0.0 -0.5753186345100403
vn 0.7205215692520142 -0.0 -0.6934325098991394
vn 0.6062254309654236 -0.0 -0.795292854309082
vn 0.47771981358528137 -0.0 -0.8785122632980347
vn 0.3380168676376343 -0.0 -0.9411400556564331
vn 0.19039110839366913 -0.0 -0.9817083477973938
vn 0.03830273449420929 -0.0 -0.9992662072181702
vn -0.11468342691659927 0.0 -0.9934020638465881
vn -0.2649815082550049 0.0 -0.9642534852027893
vn -0.40906864404678345 0.0 -0.9125036001205444
vn -0.5435675382614136 0.0 -0.8393654227256775
vn -0.6653257012367249 0.0 -0.7465532422065735
vn -0.7714892029762268 0.0 -0.6362424492835999
vn -0.8595696091651917 0.0 -0.511018693447113
vn -0.927502453327179 0.0 -0.3738170862197876
vn -0.9736953973770142 0.0 -0.22785350680351257
vn -0.9970657825469971 0.0 -0.07654925435781479
vn -0.9970657825469971 -0.0 0.07654925435781479
vn -0.9736953973770142 -0.0 0.22785350680351257
vn -0.927502453327179 -0.0 0.3738170862197876
vn -0.8595696091651917 -0.0 0.511018693447113
vn -0.7714892029762268 -0.0 0.6362424492835999
vn -0.6653257012367249 -0.0 0.7465532422065735
vn -0.5435675382614136 -0.0 0.8393654227256775
vn -0.40906864404678345 -0.0 0.9125036001205444
vn -0.2649815082550049 -0.0 0.9642534852027893
vn -0.11468342691659927 -0.0 0.9934020638465881
vn 0.03830273449420929 -0.0 0.9992662072181702
vn 0.19039110839366913 -0.0 0.9817083477973938
vn 0.3380168676376343 -0.0 0.9411400556564331
vn 0.47771981358528137 -0.0 0.8785122632980347
vn 0.6062254309654236 -0.0 0.795292854309082
vn 0.7205215692520142 -0.0 0.6934325098991394
vn 0.8179293870925903 -0.0 0.5753186345100403
vn 0.8961655497550964 -0.0 0.4437198340892792
vn 0.9533963799476624 -0.0 0.30172058939933777
vn 0.9882804155349731 -0.0 0.15264928340911865
vn 1.0 -0.0 1.2246468525851679e-16
vn 1.0 -0.0 -1.2246468525851679e-16
vn 0.0 1.0 0.0
vn 0.0 1.0 0.0
vn 0.0 1.0 0.0
vn 0.0 1.0 0.0
vn 0.0 1.0 0.0
vn 0.0 1.0 0.0
vn 0.0 1.0 0.0
vn 0.0 1.0 0.0
vn 0.0 1.0 0.0
vn 0.0 1.0 0.0
vn 0.0 1.0 0.0
vn 0.0 1.0 0.0
vn 0.0 1.0 0.0
vn 0.0 1.0 0.0
vn 0.0 1.0 0.0
vn 0.0 1.0 0.0
vn 0.0 1.0 0.0
vn 0.0 1.0 0.0
vn 0.0 1.0 0.0
vn 0.0 1.0 0.0
vn 0.0 1.0 0.0
vn 0.0 1.0 0.0
vn 0.0 1.0 0.0
vn 0.0 1.0 0.0
vn 0.0 1.0 0.0
vn 0.0 1.0 0.0
vn 0.0 1.0 0.0
vn 0.0 1.0 0.0
vn 0.0 1.0 0.0
vn 0.0 1.0 0.0
vn 0.0 1.0 0.0
vn 0.0 1.0 0.0
vn 0.0 1.0 0.0
vn 0.0 1.0 0.0
vn 0.0 1.0 0.0
vn 0.0 1.0 0.0
vn 0.0 1.0 0.0
vn 0.0 1.0 0.0
vn 0.0 1.0 0.0
vn 0.0 1.0 0.0
vn 0.0 1.0 0.0
vn 0.0 0.0 1.0
vn 0.0 0.0 1.0
vn 0.0 0.0 1.0
vn 0.0 0.0 1.0
vn -1.0 0.0 0.0
vn -1.0 0.0 0.0
vn -1.0 0.0 0.0
vn -1.0 0.0 0.0
vn 0.0 0.0 -1.0
vn 0.0 0.0 -1.0
vn 0.0 0.0 -1.0
vn 0.0 0.0 -1.0
vn 1.0 -0.0 0.0
vn 1.0 -0.0 0.0
vn 1.0 -0.0 0.0
vn 1.0 -0.0 0.0
vn 0.0 1.0 0.0
vn 0.0 1.0 0.0
vn 0.0 1.0 0.0
vn 0.0 1.0 0.0
vn 0.0 1.0 0.0
vn 0.0 1.0 0.0
vn 0.0 1.0 0.0
vn 0.0 1.0 0.0
vn 0.0 1.0 0.0
vn 0.0 1.0 0.0
vn 0.0 1.0 0.0
vn 0.0 1.0 0.0
vn 0.0 1.0 0.0
vn 0.0 1.0 0.0
vn 0.0 1.0 0.0
vn 0.0 1.0 0.0
vn 0.0 1.0 0.0
vn 0.0 1.0 0.0
vn 0.0 1.0 0.0
vn 0.0 1.0 0.0
vn 0.0 1.0 0.0
vn 0.0 1.0 0.0
vn 0.0 1.0 0.0
vn 0.0 1.0 0.0
vn 0.0 1.0 0.0
vn 0.0 1.0 0.0
vn 0.0 1.0 0.0
vn 0.0 1.0 0.0
vn 0.0 1.0 0.0
vn 0.0 1.0 0.0
vn 0.0 1.0 0.0
vn 0.0 1.0 0.0
vn 0.0 1.0 0.0
vn 0.0 1.0 0.0
vn 0.0 1.0 0.0
vn 0.0 1.0 0.0
vn 0.0 1.0 0.0
vn 0.0 1.0 0.0
vn 0.0 1.0 0.0
vn 0.0 1.0 0.0
vn 0.0 1.0 0.0
vn 0.0 1.0 0.0
vn 0.0 1.0 0.0
vn 0.0 1.0 0.0
vn 0.0 1.0 0.0
vn -0.0 -1.0 -0.0
vn -0.0 -1.0 -0.0
vn -0.0 -1.0 -0.0
vn -0.0 -1.0 -0.0
g 6413f63a-e330-11ea-8472-54bf646e7e1f
f 2//2 82//82 1//1
f 1//1 82//82 83//83
f 84//84 42//42 41//41
f 41//41 42//42 43//43
f 41//41 43//43 40//40
f 40//40 43//43 44//44
f 40//40 44//44 39//39
f 39//39 44//44 45//45
f 39//39 45//45 38//38
f 38//38 45//45 46//46
f 38//38 46//46 37//37
f 37//37 46//46 47//47
f 37//37 47//47 36//36
f 36//36 47//47 48//48
f 36//36 48//48 35//35
f 35//35 48//48 49//49
f 35//35 49//49 34//34
f 34//34 49//49 50//50
f 34//34 50//50 33//33
f 33//33 50//50 51//51
f 33//33 51//51 32//32
f 32//32 51//51 52//52
f 32//32 52//52 31//31
f 31//31 52//52 53//53
f 31//31 53//53 30//30
f 30//30 53//53 54//54
f 30//30 54//54 29//29
f 29//29 54//54 55//55
f 29//29 55//55 28//28
f 28//28 55//55 56//56
f 28//28 56//56 27//27
f 27//27 56//56 57//57
f 27//27 57//57 26//26
f 26//26 57//57 58//58
f 26//26 58//58 25//25
f 25//25 58//58 59//59
f 25//25 59//59 24//24
f 24//24 59//59 60//60
f 24//24 60//60 23//23
f 23//23 60//60 61//61
f 23//23 61//61 22//22
f 22//22 61//61 62//62
f 22//22 62//62 21//21
f 21//21 62//62 63//63
f 21//21 63//63 20//20
f 20//20 63//63 64//64
f 20//20 64//64 19//19
f 19//19 64//64 65//65
f 19//19 65//65 18//18
f 18//18 65//65 66//66
f 18//18 66//66 17//17
f 17//17 66//66 67//67
f 17//17 67//67 16//16
f 16//16 67//67 68//68
f 16//16 68//68 15//15
f 15//15 68//68 69//69
f 15//15 69//69 14//14
f 14//14 69//69 70//70
f 14//14 70//70 13//13
f 13//13 70//70 71//71
f 13//13 71//71 12//12
f 12//12 71//71 72//72
f 12//12 72//72 11//11
f 11//11 72//72 73//73
f 11//11 73//73 10//10
f 10//10 73//73 74//74
f 10//10 74//74 9//9
f 9//9 74//74 75//75
f 9//9 75//75 8//8
f 8//8 75//75 76//76
f 8//8 76//76 7//7
f 7//7 76//76 77//77
f 7//7 77//77 6//6
f 6//6 77//77 78//78
f 6//6 78//78 5//5
f 5//5 78//78 79//79
f 5//5 79//79 4//4
f 4//4 79//79 80//80
f 4//4 80//80 3//3
f 3//3 80//80 81//81
f 3//3 81//81 2//2
f 2//2 81//81 82//82
g 64172a1e-e330-11ea-a6f4-54bf646e7e1f
f 86//86 105//105 85//85
f 85//85 105//105 106//106
f 85//85 106//106 125//125
f 125//125 106//106 107//107
f 125//125 107//107 124//124
f 124//124 107//107 108//108
f 124//124 108//108 123//123
f 123//123 108//108 109//109
f 123//123 109//109 122//122
f 122//122 109//109 110//110
f 122//122 110//110 121//121
f 121//121 110//110 111//111
f 121//121 111//111 120//120
f 120//120 111//111 112//112
f 120//120 112//112 119//119
f 119//119 112//112 113//113
f 119//119 113//113 118//118
f 118//118 113//113 114//114
f 118//118 114//114 117//117
f 117//117 114//114 115//115
f 117//117 115//115 116//116
f 105//105 86//86 104//104
f 104//104 86//86 87//87
f 104//104 87//87 103//103
f 103//103 87//87 88//88
f 103//103 88//88 102//102
f 102//102 88//88 89//89
f 102//102 89//89 101//101
f 101//101 89//89 90//90
f 101//101 90//90 100//100
f 100//100 90//90 91//91
f 100//100 91//91 99//99
f 99//99 91//91 92//92
f 99//99 92//92 98//98
f 98//98 92//92 93//93
f 98//98 93//93 97//97
f 97//97 93//93 94//94
f 97//97 94//94 96//96
f 96//96 94//94 95//95
g 634f9c88-e330-11ea-8a26-54bf646e7e1f
f 126//126 127//127 129//129
f 129//129 127//127 128//128
g 635282a4-e330-11ea-9b2e-54bf646e7e1f
f 130//130 131//131 133//133
f 133//133 131//131 132//132
g 6355b6d4-e330-11ea-9390-54bf646e7e1f
f 134//134 135//135 137//137
f 137//137 135//135 136//136
g 63591212-e330-11ea-b5c4-54bf646e7e1f
f 138//138 139//139 141//141
f 141//141 139//139 140//140
g 635d3092-e330-11ea-8f88-54bf646e7e1f
f 143//143 183//183 142//142
f 142//142 183//183 184//184
f 142//142 184//184 182//182
f 182//182 184//184 181//181
f 181//181 184//184 180//180
f 180//180 184//184 179//179
f 179//179 184//184 178//178
f 178//178 184//184 177//177
f 177//177 184//184 176//176
f 176//176 184//184 175//175
f 175//175 184//184 174//174
f 174//174 184//184 173//173
f 173//173 184//184 185//185
f 173//173 185//185 172//172
f 172//172 185//185 171//171
f 171//171 185//185 170//170
f 170//170 185//185 169//169
f 169//169 185//185 168//168
f 168//168 185//185 167//167
f 167//167 185//185 166//166
f 166//166 185//185 165//165
f 165//165 185//185 164//164
f 164//164 185//185 163//163
f 163//163 185//185 162//162
f 162//162 185//185 186//186
f 162//162 186//186 161//161
f 161//161 186//186 160//160
f 160//160 186//186 159//159
f 159//159 186//186 158//158
f 158//158 186//186 157//157
f 157//157 186//186 156//156
f 156//156 186//186 155//155
f 155//155 186//186 154//154
f 154//154 186//186 153//153
f 153//153 186//186 152//152
f 152//152 186//186 183//183
f 152//152 183//183 151//151
f 151//151 183//183 150//150
f 150//150 183//183 149//149
f 149//149 183//183 148//148
f 148//148 183//183 147//147
f 147//147 183//183 146//146
f 146//146 183//183 145//145
f 145//145 183//183 144//144
f 144//144 183//183 143//143
g 63612802-e330-11ea-a6ed-54bf646e7e1f
f 188//188 189//189 187//187
f 187//187 189//189 190//190

# End of file