# WaveFront *.obj file
# Vertices: 220
# Triangles : 208

v -0.20787274837493896 0.0 -0.6684226989746094
v -0.3292944133281708 0.0 -0.6177096366882324
v -0.4390798807144165 0.0 -0.5451686382293701
v -0.5333496332168579 0.0 -0.4533631503582001
v -0.6087725758552551 0.0 -0.3455372452735901
v -0.662683367729187 0.0 -0.2255011349916458
v -0.6931770443916321 0.0 -0.09749654680490494
v -0.6991760730743408 0.0 0.033953260630369186
v -0.6804684400558472 0.0 0.16420327126979828
v -0.637715220451355 0.0 0.28865084052085876
v -0.5724271535873413 0.0 0.4028984308242798
v -0.4869113564491272 0.0 0.5029088854789734
v -0.384189635515213 0.0 0.5851480960845947
v -0.26789191365242004 0.0 0.6467100977897644
v -0.14212770760059357 0.0 0.6854193806648254
v -0.011341184377670288 0.0 0.6999081373214722
v 0.11984610557556152 0.0 0.689664363861084
v 0.24679842591285706 0.0 0.6550500392913818
v 0.24679842591285706 0.4000000059604645 0.6550500392913818
v 0.11984610557556152 0.4000000059604645 0.689664363861084
v -0.011341184377670288 0.4000000059604645 0.6999081373214722
v -0.14212770760059357 0.4000000059604645 0.6854193806648254
v -0.26789191365242004 0.4000000059604645 0.6467100977897644
v -0.384189635515213 0.4000000059604645 0.5851480960845947
v -0.4869113564491272 0.4000000059604645 0.5029088854789734
v -0.5724271535873413 0.4000000059604645 0.4028984308242798
v -0.637715220451355 0.4000000059604645 0.28865084052085876
v -0.6804684400558472 0.4000000059604645 0.16420327126979828
v -0.6991760730743408 0.4000000059604645 0.033953260630369186
v -0.6931770443916321 0.4000000059604645 -0.09749654680490494
v -0.662683367729187 0.4000000059604645 -0.2255011349916458
v -0.6087725758552551 0.4000000059604645 -0.3455372452735901
v -0.5333496332168579 0.4000000059604645 -0.4533631503582001
v -0.4390798807144165 0.4000000059604645 -0.5451686382293701
v -0.3292944133281708 0.4000000059604645 -0.6177096366882324
v -0.20787274837493896 0.4000000059604645 -0.6684226989746094
v 5.657216548919678 0.0 -0.3678082823753357
v 5.228370189666748 0.0 -0.5375077724456787
v 4.790951251983643 0.0 -0.6836972832679749
v 4.346246719360352 0.0 -0.8059463500976562
v 3.8955657482147217 0.0 -0.9038950800895691
v 3.4402358531951904 0.0 -0.9772552251815796
v 2.981597423553467 0.0 -1.0258105993270874
v 2.5210001468658447 0.0 -1.0494184494018555
v 2.059800624847412 0.0 -1.0480092763900757
v 1.5993565320968628 0.0 -1.0215870141983032
v 1.1410231590270996 0.0 -0.9702296853065491
v 0.6861501336097717 0.0 -0.8940883278846741
v 0.2360764592885971 0.0 -0.7933871746063232
v -0.20787274837493896 0.0 -0.6684226989746094
v -0.20787274837493896 0.4000000059604645 -0.6684226989746094
v 0.2360764592885971 0.4000000059604645 -0.7933871746063232
v 0.6861501336097717 0.4000000059604645 -0.8940883278846741
v 1.1410231590270996 0.4000000059604645 -0.9702296853065491
v 1.5993565320968628 0.4000000059604645 -1.0215870141983032
v 2.059800624847412 0.4000000059604645 -1.0480092763900757
v 2.5210001468658447 0.4000000059604645 -1.0494184494018555
v 2.981597423553467 0.4000000059604645 -1.0258105993270874
v 3.4402358531951904 0.4000000059604645 -0.9772552251815796
v 3.8955657482147217 0.4000000059604645 -0.9038950800895691
v 4.346246719360352 0.4000000059604645 -0.8059463500976562
v 4.790951251983643 0.4000000059604645 -0.6836972832679749
v 5.228370189666748 0.4000000059604645 -0.5375077724456787
v 5.657216548919678 0.4000000059604645 -0.3678082823753357
v 5.398590564727783 0.0 0.3869316875934601
v 5.497270584106445 0.0 0.39999067783355713
v 5.5961198806762695 0.0 0.3882794678211212
v 5.689016819000244 0.0 0.35252323746681213
v 5.770208358764648 0.0 0.29493629932403564
v 5.834666728973389 0.0 0.21908481419086456
v 5.8784003257751465 0.0 0.1296660602092743
v 5.89870023727417 0.0 0.03221747651696205
v 5.894310474395752 0.0 -0.06722624599933624
v 5.865501880645752 0.0 -0.1625068336725235
v 5.814058780670166 0.0 -0.24772387742996216
v 5.743166923522949 0.0 -0.3176001012325287
v 5.657216548919678 0.0 -0.3678082823753357
v 5.657216548919678 0.4000000059604645 -0.3678082823753357
v 5.743166923522949 0.4000000059604645 -0.3176001012325287
v 5.814058780670166 0.4000000059604645 -0.24772387742996216
v 5.865501880645752 0.4000000059604645 -0.1625068336725235
v 5.894310474395752 0.4000000059604645 -0.06722624599933624
v 5.89870023727417 0.4000000059604645 0.03221747651696205
v 5.8784003257751465 0.4000000059604645 0.1296660602092743
v 5.834666728973389 0.4000000059604645 0.21908481419086456
v 5.770208358764648 0.4000000059604645 0.29493629932403564
v 5.689016819000244 0.4000000059604645 0.35252323746681213
v 5.5961198806762695 0.4000000059604645 0.3882794678211212
v 5.497270584106445 0.4000000059604645 0.39999067783355713
v 5.398590564727783 0.4000000059604645 0.3869316875934601
v 0.24679842591285706 0.0 0.6550500392913818
v 0.6971668601036072 0.0 0.49963629245758057
v 1.1555354595184326 0.0 0.369700163602829
v 1.6204642057418823 0.0 0.26564985513687134
v 2.0904924869537354 0.0 0.18781226873397827
v 2.564143419265747 0.0 0.13643193244934082
v 3.039929151535034 0.0 0.11167027801275253
v 3.51635479927063 0.0 0.11360509693622589
v 3.9919238090515137 0.0 0.1422303020954132
v 4.465141773223877 0.0 0.1974559873342514
v 4.9345221519470215 0.0 0.27910861372947693
v 5.398590564727783 0.0 0.3869316875934601
v 5.398590564727783 0.4000000059604645 0.3869316875934601
v 4.9345221519470215 0.4000000059604645 0.27910861372947693
v 4.465141773223877 0.4000000059604645 0.1974559873342514
v 3.9919238090515137 0.4000000059604645 0.1422303020954132
v 3.51635479927063 0.4000000059604645 0.11360509693622589
v 3.039929151535034 0.4000000059604645 0.11167027801275253
v 2.564143419265747 0.4000000059604645 0.13643193244934082
v 2.0904924869537354 0.4000000059604645 0.18781226873397827
v 1.6204642057418823 0.4000000059604645 0.26564985513687134
v 1.1555354595184326 0.4000000059604645 0.369700163602829
v 0.6971668601036072 0.4000000059604645 0.49963629245758057
v 0.24679842591285706 0.4000000059604645 0.6550500392913818
v 5.398590564727783 0.4000000059604645 0.3869316875934601
v 5.497270584106445 0.4000000059604645 0.39999067783355713
v 5.5961198806762695 0.4000000059604645 0.3882794678211212
v 5.689016819000244 0.4000000059604645 0.35252323746681213
v 5.770208358764648 0.4000000059604645 0.29493629932403564
v 5.834666728973389 0.4000000059604645 0.21908481419086456
v 5.8784003257751465 0.4000000059604645 0.1296660602092743
v 5.89870023727417 0.4000000059604645 0.03221747651696205
v 5.894310474395752 0.4000000059604645 -0.06722624599933624
v 5.865501880645752 0.4000000059604645 -0.1625068336725235
v 5.814058780670166 0.4000000059604645 -0.24772387742996216
v 5.743166923522949 0.4000000059604645 -0.3176001012325287
v 5.657216548919678 0.4000000059604645 -0.3678082823753357
v 5.228370189666748 0.4000000059604645 -0.5375077724456787
v 4.790951251983643 0.4000000059604645 -0.6836972832679749
v 4.346246719360352 0.4000000059604645 -0.8059463500976562
v 3.8955657482147217 0.4000000059604645 -0.9038950800895691
v 3.4402358531951904 0.4000000059604645 -0.9772552251815796
v 2.981597423553467 0.4000000059604645 -1.0258105993270874
v 2.5210001468658447 0.4000000059604645 -1.0494184494018555
v 2.059800624847412 0.4000000059604645 -1.0480092763900757
v 1.5993565320968628 0.4000000059604645 -1.0215870141983032
v 1.1410231590270996 0.4000000059604645 -0.9702296853065491
v 0.6861501336097717 0.4000000059604645 -0.8940883278846741
v 0.2360764592885971 0.4000000059604645 -0.7933871746063232
v -0.20787274837493896 0.4000000059604645 -0.6684226989746094
v -0.3292944133281708 0.4000000059604645 -0.6177096366882324
v -0.4390798807144165 0.4000000059604645 -0.5451686382293701
v -0.5333496332168579 0.4000000059604645 -0.4533631503582001
v -0.6087725758552551 0.4000000059604645 -0.3455372452735901
v -0.662683367729187 0.4000000059604645 -0.2255011349916458
v -0.6931770443916321 0.4000000059604645 -0.09749654680490494
v -0.6991760730743408 0.4000000059604645 0.033953260630369186
v -0.6804684400558472 0.4000000059604645 0.16420327126979828
v -0.637715220451355 0.4000000059604645 0.28865084052085876
v -0.5724271535873413 0.4000000059604645 0.4028984308242798
v -0.4869113564491272 0.4000000059604645 0.5029088854789734
v -0.384189635515213 0.4000000059604645 0.5851480960845947
v -0.26789191365242004 0.4000000059604645 0.6467100977897644
v -0.14212770760059357 0.4000000059604645 0.6854193806648254
v -0.011341184377670288 0.4000000059604645 0.6999081373214722
v 0.11984610557556152 0.4000000059604645 0.689664363861084
v 0.24679842591285706 0.4000000059604645 0.6550500392913818
v 0.6971668601036072 0.4000000059604645 0.49963629245758057
v 1.1555354595184326 0.4000000059604645 0.369700163602829
v 1.6204642057418823 0.4000000059604645 0.26564985513687134
v 2.0904924869537354 0.4000000059604645 0.18781226873397827
v 2.564143419265747 0.4000000059604645 0.13643193244934082
v 3.039929151535034 0.4000000059604645 0.11167027801275253
v 3.51635479927063 0.4000000059604645 0.11360509693622589
v 3.9919238090515137 0.4000000059604645 0.1422303020954132
v 4.465141773223877 0.4000000059604645 0.1974559873342514
v 4.9345221519470215 0.4000000059604645 0.27910861372947693
v 5.657216548919678 0.0 -0.3678082823753357
v 5.743166923522949 0.0 -0.3176001012325287
v 5.814058780670166 0.0 -0.24772387742996216
v 5.865501880645752 0.0 -0.1625068336725235
v 5.894310474395752 0.0 -0.06722624599933624
v 5.89870023727417 0.0 0.03221747651696205
v 5.8784003257751465 0.0 0.1296660602092743
v 5.834666728973389 0.0 0.21908481419086456
v 5.770208358764648 0.0 0.29493629932403564
v 5.689016819000244 0.0 0.35252323746681213
v 5.5961198806762695 0.0 0.3882794678211212
v 5.497270584106445 0.0 0.39999067783355713
v 5.398590564727783 0.0 0.3869316875934601
v 4.9345221519470215 0.0 0.27910861372947693
v 4.465141773223877 0.0 0.1974559873342514
v 3.9919238090515137 0.0 0.1422303020954132
v 3.51635479927063 0.0 0.11360509693622589
v 3.039929151535034 0.0 0.11167027801275253
v 2.564143419265747 0.0 0.13643193244934082
v 2.0904924869537354 0.0 0.18781226873397827
v 1.6204642057418823 0.0 0.26564985513687134
v 1.1555354595184326 0.0 0.369700163602829
v 0.6971668601036072 0.0 0.49963629245758057
v 0.24679842591285706 0.0 0.6550500392913818
v 0.11984610557556152 0.0 0.689664363861084
v -0.011341184377670288 0.0 0.6999081373214722
v -0.14212770760059357 0.0 0.6854193806648254
v -0.26789191365242004 0.0 0.6467100977897644
v -0.384189635515213 0.0 0.5851480960845947
v -0.4869113564491272 0.0 0.5029088854789734
v -0.5724271535873413 0.0 0.4028984308242798
v -0.637715220451355 0.0 0.28865084052085876
v -0.6804684400558472 0.0 0.16420327126979828
v -0.6991760730743408 0.0 0.033953260630369186
v -0.6931770443916321 0.0 -0.09749654680490494
v -0.662683367729187 0.0 -0.2255011349916458
v -0.6087725758552551 0.0 -0.3455372452735901
v -0.5333496332168579 0.0 -0.4533631503582001
v -0.4390798807144165 0.0 -0.5451686382293701
v -0.3292944133281708 0.0 -0.6177096366882324
v -0.20787274837493896 0.0 -0.6684226989746094
v 0.2360764592885971 0.0 -0.7933871746063232
v 0.6861501336097717 0.0 -0.8940883278846741
v 1.1410231590270996 0.0 -0.9702296853065491
v 1.5993565320968628 0.0 -1.0215870141983032
v 2.059800624847412 0.0 -1.0480092763900757
v 2.5210001468658447 0.0 -1.0494184494018555
v 2.981597423553467 0.0 -1.0258105993270874
v 3.4402358531951904 0.0 -0.9772552251815796
v 3.8955657482147217 0.0 -0.9038950800895691
v 4.346246719360352 0.0 -0.8059463500976562
v 4.790951251983643 0.0 -0.6836972832679749
v 5.228370189666748 0.0 -0.5375077724456787
vn -0.29696106910705566 0.0 -0.9548895955085754
vn -0.47042059898376465 0.0 -0.8824423551559448
vn -0.6272569894790649 0.0 -0.7788123488426208
vn -0.7619280815124512 0.0 -0.6476616263389587
vn -0.8696750998497009 0.0 -0.49362462759017944
vn -0.9466904997825623 0.0 -0.322144478559494
vn -0.9902529120445251 0.0 -0.1392807811498642
vn -0.9988229274749756 -0.0 0.048504654318094254
vn -0.9720977544784546 -0.0 0.23457609117031097
vn -0.9110217094421387 -0.0 0.4123583734035492
vn -0.8177530765533447 -0.0 0.575569212436676
vn -0.6955876350402832 -0.0 0.7184412479400635
vn -0.5488423705101013 -0.0 0.8359258770942688
vn -0.38270270824432373 -0.0 0.9238715171813965
vn -0.20303958654403687 -0.0 0.9791705012321472
vn -0.016201691702008247 -0.0 0.9998687505722046
vn 0.1712087243795395 -0.0 0.985234797000885
vn 0.3525691628456116 -0.0 0.9357857704162598
vn 0.3525691628456116 -0.0 0.9357857704162598
vn 0.1712087243795395 -0.0 0.985234797000885
vn -0.016201691702008247 -0.0 0.9998687505722046
vn -0.20303958654403687 -0.0 0.9791705012321472
vn -0.38270270824432373 -0.0 0.9238715171813965
vn -0.5488423705101013 -0.0 0.8359258770942688
vn -0.6955876350402832 -0.0 0.7184412479400635
vn -0.8177530765533447 -0.0 0.575569212436676
vn -0.9110217094421387 -0.0 0.4123583734035492
vn -0.9720977544784546 -0.0 0.23457609117031097
vn -0.9988229274749756 -0.0 0.048504654318094254
vn -0.9902529120445251 0.0 -0.1392807811498642
vn -0.9466904997825623 0.0 -0.322144478559494
vn -0.8696750998497009 0.0 -0.49362462759017944
vn -0.7619280815124512 0.0 -0.6476616263389587
vn -0.6272569894790649 0.0 -0.7788123488426208
vn -0.47042059898376465 0.0 -0.8824423551559448
vn -0.29696106910705566 0.0 -0.9548895955085754
vn 0.3930415213108063 -0.0 -0.9195207357406616
vn 0.34258902072906494 -0.0 -0.9394853711128235
vn 0.2911279499530792 -0.0 -0.9566841125488281
vn 0.2388097494840622 -0.0 -0.9710663557052612
vn 0.18578849732875824 -0.0 -0.9825897812843323
vn 0.13222026824951172 -0.0 -0.9912203550338745
vn 0.07826279103755951 -0.0 -0.9969327449798584
vn 0.024074897170066833 -0.0 -0.9997101426124573
vn -0.03018387407064438 0.0 -0.9995443820953369
vn -0.08435378223657608 0.0 -0.9964358806610107
vn -0.1382753551006317 0.0 -0.9903938174247742
vn -0.19178982079029083 0.0 -0.981436014175415
vn -0.24473966658115387 0.0 -0.9695888161659241
vn -0.2969689965248108 0.0 -0.9548871517181396
vn -0.2969689965248108 0.0 -0.9548871517181396
vn -0.24473966658115387 0.0 -0.9695888161659241
vn -0.19178982079029083 0.0 -0.981436014175415
vn -0.1382753551006317 0.0 -0.9903938174247742
vn -0.08435378223657608 0.0 -0.9964358806610107
vn -0.03018387407064438 0.0 -0.9995443820953369
vn 0.024074897170066833 -0.0 -0.9997101426124573
vn 0.07826279103755951 -0.0 -0.9969327449798584
vn 0.13222026824951172 -0.0 -0.9912203550338745
vn 0.18578849732875824 -0.0 -0.9825897812843323
vn 0.2388097494840622 -0.0 -0.9710663557052612
vn 0.2911279499530792 -0.0 -0.9566841125488281
vn 0.34258902072906494 -0.0 -0.9394853711128235
vn 0.3930415213108063 -0.0 -0.9195207357406616
vn -0.2535236179828644 -0.0 0.967329204082489
vn -0.006823047064244747 -0.0 0.9999766945838928
vn 0.24030007421970367 -0.0 0.9706986546516418
vn 0.4725421071052551 -0.0 0.8813080787658691
vn 0.6755210161209106 -0.0 0.7373407483100891
vn 0.8366669416427612 -0.0 0.5477120280265808
vn 0.9460005164146423 -0.0 0.3241651654243469
vn 0.996751070022583 -0.0 0.08054368942975998
vn 0.9857758283615112 -0.0 -0.16806560754776
vn 0.9137543439865112 -0.0 -0.40626710653305054
vn 0.7851468324661255 -0.0 -0.619309663772583
vn 0.6079174280166626 -0.0 -0.7940002083778381
vn 0.39304155111312866 -0.0 -0.9195207357406616
vn 0.39304155111312866 -0.0 -0.9195207357406616
vn 0.6079174280166626 -0.0 -0.7940002083778381
vn 0.7851468324661255 -0.0 -0.619309663772583
vn 0.9137543439865112 -0.0 -0.40626710653305054
vn 0.9857758283615112 -0.0 -0.16806560754776
vn 0.996751070022583 -0.0 0.08054368942975998
vn 0.9460005164146423 -0.0 0.3241651654243469
vn 0.8366669416427612 -0.0 0.5477120280265808
vn 0.6755210161209106 -0.0 0.7373407483100891
vn 0.4725421071052551 -0.0 0.8813080787658691
vn 0.24030007421970367 -0.0 0.9706986546516418
vn -0.006823047064244747 -0.0 0.9999766945838928
vn -0.2535236179828644 -0.0 0.967329204082489
vn 0.3525691628456116 -0.0 0.9357857704162598
vn 0.29958465695381165 -0.0 0.9540697336196899
vn 0.24565891921520233 -0.0 0.9693563580513
vn 0.19096142053604126 -0.0 0.9815975427627563
vn 0.1356639862060547 -0.0 0.9907549023628235
vn 0.07994034886360168 -0.0 0.996799647808075
vn 0.023965558037161827 -0.0 0.9997127652168274
vn -0.032084524631500244 0.0 0.9994851350784302
vn -0.08803381025791168 0.0 0.9961174726486206
vn -0.1437065154314041 0.0 0.9896203279495239
vn -0.19892774522304535 0.0 0.9800141453742981
vn -0.2535240352153778 0.0 0.9673290848731995
vn -0.2535240352153778 0.0 0.9673290848731995
vn -0.19892774522304535 0.0 0.9800141453742981
vn -0.1437065154314041 0.0 0.9896203279495239
vn -0.08803381025791168 0.0 0.9961174726486206
vn -0.032084524631500244 0.0 0.9994851350784302
vn 0.023965558037161827 -0.0 0.9997127652168274
vn 0.07994034886360168 -0.0 0.996799647808075
vn 0.1356639862060547 -0.0 0.9907549023628235
vn 0.19096142053604126 -0.0 0.9815975427627563
vn 0.24565891921520233 -0.0 0.9693563580513
vn 0.29958465695381165 -0.0 0.9540697336196899
vn 0.3525691628456116 -0.0 0.9357857704162598
vn 0.0 1.0 0.0
vn 0.0 1.0 0.0
vn 0.0 1.0 0.0
vn 0.0 1.0 0.0
vn 0.0 1.0 0.0
vn 0.0 1.0 0.0
vn 0.0 1.0 0.0
vn 0.0 1.0 0.0
vn 0.0 1.0 0.0
vn 0.0 1.0 0.0
vn 0.0 1.0 0.0
vn 0.0 1.0 0.0
vn 0.0 1.0 0.0
vn 0.0 1.0 0.0
vn 0.0 1.0 0.0
vn 0.0 1.0 0.0
vn 0.0 1.0 0.0
vn 0.0 1.0 0.0
vn 0.0 1.0 0.0
vn 0.0 1.0 0.0
vn 0.0 1.0 0.0
vn 0.0 1.0 0.0
vn 0.0 1.0 0.0
vn 0.0 1.0 0.0
vn 0.0 1.0 0.0
vn 0.0 1.0 0.0
vn 0.0 1.0 0.0
vn 0.0 1.0 0.0
vn 0.0 1.0 0.0
vn 0.0 1.0 0.0
vn 0.0 1.0 0.0
vn 0.0 1.0 0.0
vn 0.0 1.0 0.0
vn 0.0 1.0 0.0
vn 0.0 1.0 0.0
vn 0.0 1.0 0.0
vn 0.0 1.0 0.0
vn 0.0 1.0 0.0
vn 0.0 1.0 0.0
vn 0.0 1.0 0.0
vn 0.0 1.0 0.0
vn 0.0 1.0 0.0
vn 0.0 1.0 0.0
vn 0.0 1.0 0.0
vn 0.0 1.0 0.0
vn 0.0 1.0 0.0
vn 0.0 1.0 0.0
vn 0.0 1.0 0.0
vn 0.0 1.0 0.0
vn 0.0 1.0 0.0
vn 0.0 1.0 0.0
vn 0.0 1.0 0.0
vn 0.0 1.0 0.0
vn -0.0 -1.0 -0.0
vn -0.0 -1.0 -0.0
vn -0.0 -1.0 -0.0
vn -0.0 -1.0 -0.0
vn -0.0 -1.0 -0.0
vn -0.0 -1.0 -0.0
vn -0.0 -1.0 -0.0
vn -0.0 -1.0 -0.0
vn -0.0 -1.0 -0.0
vn -0.0 -1.0 -0.0
vn -0.0 -1.0 -0.0
vn -0.0 -1.0 -0.0
vn -0.0 -1.0 -0.0
vn -0.0 -1.0 -0.0
vn -0.0 -1.0 -0.0
vn -0.0 -1.0 -0.0
vn -0.0 -1.0 -0.0
vn -0.0 -1.0 -0.0
vn -0.0 -1.0 -0.0
vn -0.0 -1.0 -0.0
vn -0.0 -1.0 -0.0
vn -0.0 -1.0 -0.0
vn -0.0 -1.0 -0.0
vn -0.0 -1.0 -0.0
vn -0.0 -1.0 -0.0
vn -0.0 -1.0 -0.0
vn -0.0 -1.0 -0.0
vn -0.0 -1.0 -0.0
vn -0.0 -1.0 -0.0
vn -0.0 -1.0 -0.0
vn -0.0 -1.0 -0.0
vn -0.0 -1.0 -0.0
vn -0.0 -1.0 -0.0
vn -0.0 -1.0 -0.0
vn -0.0 -1.0 -0.0
vn -0.0 -1.0 -0.0
vn -0.0 -1.0 -0.0
vn -0.0 -1.0 -0.0
vn -0.0 -1.0 -0.0
vn -0.0 -1.0 -0.0
vn -0.0 -1.0 -0.0
vn -0.0 -1.0 -0.0
vn -0.0 -1.0 -0.0
vn -0.0 -1.0 -0.0
vn -0.0 -1.0 -0.0
vn -0.0 -1.0 -0.0
vn -0.0 -1.0 -0.0
vn -0.0 -1.0 -0.0
vn -0.0 -1.0 -0.0
vn -0.0 -1.0 -0.0
vn -0.0 -1.0 -0.0
vn -0.0 -1.0 -0.0
vn -0.0 -1.0 -0.0
f 36//36 1//1 35//35
f 35//35 1//1 2//2
f 35//35 2//2 34//34
f 34//34 2//2 3//3
f 34//34 3//3 33//33
f 33//33 3//3 4//4
f 33//33 4//4 32//32
f 32//32 4//4 5//5
f 32//32 5//5 31//31
f 31//31 5//5 6//6
f 31//31 6//6 30//30
f 30//30 6//6 7//7
f 30//30 7//7 29//29
f 29//29 7//7 8//8
f 29//29 8//8 28//28
f 28//28 8//8 9//9
f 28//28 9//9 27//27
f 27//27 9//9 10//10
f 27//27 10//10 26//26
f 26//26 10//10 11//11
f 26//26 11//11 25//25
f 25//25 11//11 12//12
f 25//25 12//12 24//24
f 24//24 12//12 13//13
f 24//24 13//13 23//23
f 23//23 13//13 14//14
f 23//23 14//14 22//22
f 22//22 14//14 15//15
f 22//22 15//15 21//21
f 21//21 15//15 16//16
f 21//21 16//16 20//20
f 20//20 16//16 17//17
f 20//20 17//17 19//19
f 19//19 17//17 18//18
f 64//64 37//37 63//63
f 63//63 37//37 38//38
f 63//63 38//38 62//62
f 62//62 38//38 39//39
f 62//62 39//39 61//61
f 61//61 39//39 40//40
f 61//61 40//40 60//60
f 60//60 40//40 41//41
f 60//60 41//41 59//59
f 59//59 41//41 42//42
f 59//59 42//42 58//58
f 58//58 42//42 43//43
f 58//58 43//43 57//57
f 57//57 43//43 44//44
f 57//57 44//44 56//56
f 56//56 44//44 45//45
f 56//56 45//45 55//55
f 55//55 45//45 46//46
f 55//55 46//46 54//54
f 54//54 46//46 47//47
f 54//54 47//47 53//53
f 53//53 47//47 48//48
f 53//53 48//48 52//52
f 52//52 48//48 49//49
f 52//52 49//49 51//51
f 51//51 49//49 50//50
f 90//90 65//65 89//89
f 89//89 65//65 66//66
f 89//89 66//66 88//88
f 88//88 66//66 67//67
f 88//88 67//67 87//87
f 87//87 67//67 68//68
f 87//87 68//68 86//86
f 86//86 68//68 69//69
f 86//86 69//69 85//85
f 85//85 69//69 70//70
f 85//85 70//70 84//84
f 84//84 70//70 71//71
f 84//84 71//71 83//83
f 83//83 71//71 72//72
f 83//83 72//72 82//82
f 82//82 72//72 73//73
f 82//82 73//73 81//81
f 81//81 73//73 74//74
f 81//81 74//74 80//80
f 80//80 74//74 75//75
f 80//80 75//75 79//79
f 79//79 75//75 76//76
f 79//79 76//76 78//78
f 78//78 76//76 77//77
f 114//114 91//91 113//113
f 113//113 91//91 92//92
f 113//113 92//92 112//112
f 112//112 92//92 93//93
f 112//112 93//93 111//111
f 111//111 93//93 94//94
f 111//111 94//94 110//110
f 110//110 94//94 95//95
f 110//110 95//95 109//109
f 109//109 95//95 96//96
f 109//109 96//96 108//108
f 108//108 96//96 97//97
f 108//108 97//97 107//107
f 107//107 97//97 98//98
f 107//107 98//98 106//106
f 106//106 98//98 99//99
f 106//106 99//99 105//105
f 105//105 99//99 100//100
f 105//105 100//100 104//104
f 104//104 100//100 101//101
f 104//104 101//101 103//103
f 103//103 101//101 102//102
f 116//116 117//117 115//115
f 115//115 117//117 118//118
f 115//115 118//118 119//119
f 115//115 119//119 167//167
f 167//167 119//119 120//120
f 167//167 120//120 121//121
f 121//121 122//122 167//167
f 167//167 122//122 166//166
f 166//166 122//122 123//123
f 166//166 123//123 124//124
f 166//166 124//124 165//165
f 165//165 124//124 125//125
f 165//165 125//125 126//126
f 126//126 127//127 165//165
f 165//165 127//127 128//128
f 165//165 128//128 164//164
f 164//164 128//128 129//129
f 164//164 129//129 130//130
f 164//164 130//130 163//163
f 163//163 130//130 131//131
f 163//163 131//131 132//132
f 132//132 133//133 163//163
f 163//163 133//133 162//162
f 162//162 133//133 134//134
f 162//162 134//134 135//135
f 135//135 136//136 162//162
f 162//162 136//136 137//137
f 162//162 137//137 138//138
f 138//138 139//139 162//162
f 162//162 139//139 161//161
f 161//161 139//139 140//140
f 161//161 140//140 142//142
f 142//142 140//140 141//141
f 142//142 143//143 161//161
f 161//161 143//143 144//144
f 161//161 144//144 145//145
f 161//161 145//145 160//160
f 160//160 145//145 146//146
f 160//160 146//146 147//147
f 160//160 147//147 159//159
f 159//159 147//147 148//148
f 159//159 148//148 149//149
f 159//159 149//149 158//158
f 158//158 149//149 150//150
f 158//158 150//150 151//151
f 151//151 152//152 158//158
f 158//158 152//152 157//157
f 157//157 152//152 153//153
f 157//157 153//153 154//154
f 155//155 156//156 154//154
f 154//154 156//156 157//157
f 220//220 168//168 183//183
f 183//183 168//168 169//169
f 183//183 169//169 170//170
f 170//170 171//171 183//183
f 183//183 171//171 182//182
f 182//182 171//171 172//172
f 182//182 172//172 173//173
f 182//182 173//173 181//181
f 181//181 173//173 174//174
f 181//181 174//174 175//175
f 175//175 176//176 181//181
f 181//181 176//176 180//180
f 180//180 176//176 177//177
f 180//180 177//177 178//178
f 178//178 179//179 180//180
f 183//183 184//184 220//220
f 220//220 184//184 219//219
f 219//219 184//184 218//218
f 218//218 184//184 185//185
f 218//218 185//185 217//217
f 217//217 185//185 216//216
f 216//216 185//185 215//215
f 215//215 185//185 186//186
f 215//215 186//186 214//214
f 214//214 186//186 213//213
f 213//213 186//186 212//212
f 212//212 186//186 211//211
f 211//211 186//186 210//210
f 210//210 186//186 209//209
f 209//209 186//186 187//187
f 209//209 187//187 208//208
f 208//208 187//187 206//206
f 208//208 206//206 207//207
f 188//188 203//203 187//187
f 187//187 203//203 204//204
f 187//187 204//204 205//205
f 189//189 201//201 188//188
f 188//188 201//201 202//202
f 188//188 202//202 203//203
f 190//190 199//199 189//189
f 189//189 199//199 200//200
f 189//189 200//200 201//201
f 191//191 196//196 190//190
f 190//190 196//196 197//197
f 190//190 197//197 198//198
f 192//192 194//194 191//191
f 191//191 194//194 195//195
f 191//191 195//195 196//196
f 192//192 193//193 194//194
f 198//198 199//199 190//190
f 205//205 206//206 187//187

# End of file