# WaveFront *.obj file
# Vertices: 72
# Triangles : 40

v 0.0 0.0 0.0
v 0.0 0.0 7.800000190734863
v 0.0 0.75 7.800000190734863
v 0.0 0.75 0.0
v 5.5 0.0 -1.232595164407831e-32
v 0.0 0.0 0.0
v 0.0 0.75 0.0
v 5.5 0.75 0.0
v 5.5 0.0 7.800000190734863
v 5.5 0.0 -1.232595164407831e-32
v 5.5 0.75 0.0
v 5.5 0.75 7.800000190734863
v 0.0 0.0 7.800000190734863
v 5.5 0.0 7.800000190734863
v 5.5 0.75 7.800000190734863
v 0.0 0.75 7.800000190734863
v 0.0 0.75 7.800000190734863
v 5.5 0.75 7.800000190734863
v 5.5 0.75 0.0
v 0.0 0.75 0.0
v 5.5 0.0 7.800000190734863
v 0.0 0.0 7.800000190734863
v 0.0 0.0 0.0
v 5.5 0.0 -1.232595164407831e-32
v 1.5 1.7352813482284546 0.0
v 1.5 0.75 0.0
v 1.5 0.75 7.800000190734863
v 1.5 2.4642136096954346 7.800000190734863
v 1.5 3.878427028656006 6.385786533355713
v 1.5 1.0499999523162842 3.557359218597412
v 1.5 1.0499999523162842 2.143145799636841
v 1.5 2.4642136096954346 0.7289322018623352
v 1.5 3.878427028656006 6.385786533355713
v 1.5 2.4642136096954346 7.800000190734863
v 4.0 2.4642136096954346 7.800000190734863
v 4.0 3.878427028656006 6.385786533355713
v 1.5 2.4642136096954346 7.800000190734863
v 1.5 0.75 7.800000190734863
v 4.0 0.75 7.800000190734863
v 4.0 2.4642136096954346 7.800000190734863
v 1.5 0.75 7.800000190734863
v 1.5 0.75 0.0
v 4.0 0.75 0.0
v 4.0 0.75 7.800000190734863
v 1.5 0.75 0.0
v 1.5 1.7352813482284546 0.0
v 4.0 1.7352813482284546 0.0
v 4.0 0.75 0.0
v 1.5 1.0499999523162842 3.557359218597412
v 1.5 3.878427028656006 6.385786533355713
v 4.0 3.878427028656006 6.385786533355713
v 4.0 1.0499999523162842 3.557359218597412
v 1.5 1.0499999523162842 2.143145799636841
v 1.5 1.0499999523162842 3.557359218597412
v 4.0 1.0499999523162842 3.557359218597412
v 4.0 1.0499999523162842 2.143145799636841
v 1.5 2.4642136096954346 0.7289322018623352
v 1.5 1.0499999523162842 2.143145799636841
v 4.0 1.0499999523162842 2.143145799636841
v 4.0 2.4642136096954346 0.7289322018623352
v 1.5 1.7352813482284546 0.0
v 1.5 2.4642136096954346 0.7289322018623352
v 4.0 2.4642136096954346 0.7289322018623352
v 4.0 1.7352813482284546 0.0
v 4.0 0.75 0.0
v 4.0 1.7352813482284546 0.0
v 4.0 2.4642136096954346 0.7289322018623352
v 4.0 1.0499999523162842 2.143145799636841
v 4.0 1.0499999523162842 3.557359218597412
v 4.0 3.878427028656006 6.385786533355713
v 4.0 2.4642136096954346 7.800000190734863
v 4.0 0.75 7.800000190734863
vn -1.0 0.0 0.0
vn -1.0 0.0 0.0
vn -1.0 0.0 0.0
vn -1.0 0.0 0.0
vn -2.241082183894599e-33 0.0 -1.0
vn -2.241082183894599e-33 0.0 -1.0
vn -2.241082183894599e-33 0.0 -1.0
vn -2.241082183894599e-33 0.0 -1.0
vn 1.0 0.0 0.0
vn 1.0 0.0 0.0
vn 1.0 0.0 0.0
vn 1.0 0.0 0.0
vn 0.0 -0.0 1.0
vn 0.0 -0.0 1.0
vn 0.0 -0.0 1.0
vn 0.0 -0.0 1.0
vn 0.0 1.0 0.0
vn 0.0 1.0 0.0
vn 0.0 1.0 0.0
vn 0.0 1.0 0.0
vn -0.0 -1.0 -0.0
vn -0.0 -1.0 -0.0
vn -0.0 -1.0 -0.0
vn -0.0 -1.0 -0.0
vn -1.0 -0.0 -0.0
vn -1.0 -0.0 -0.0
vn -1.0 -0.0 -0.0
vn -1.0 -0.0 -0.0
vn -1.0 -0.0 -0.0
vn -1.0 -0.0 -0.0
vn -1.0 -0.0 -0.0
vn -1.0 -0.0 -0.0
vn -0.0 0.7071067690849304 0.7071067690849304
vn -0.0 0.7071067690849304 0.7071067690849304
vn -0.0 0.7071067690849304 0.7071067690849304
vn -0.0 0.7071067690849304 0.7071067690849304
vn -0.0 1.5543776677703946e-15 1.0
vn -0.0 1.5543776677703946e-15 1.0
vn -0.0 1.5543776677703946e-15 1.0
vn -0.0 1.5543776677703946e-15 1.0
vn 0.0 -1.0 0.0
vn 0.0 -1.0 0.0
vn 0.0 -1.0 0.0
vn 0.0 -1.0 0.0
vn 0.0 0.0 -1.0
vn 0.0 0.0 -1.0
vn 0.0 0.0 -1.0
vn 0.0 0.0 -1.0
vn 0.0 0.7071067690849304 -0.7071067690849304
vn 0.0 0.7071067690849304 -0.7071067690849304
vn 0.0 0.7071067690849304 -0.7071067690849304
vn 0.0 0.7071067690849304 -0.7071067690849304
vn -0.0 1.0 3.1401848636255743e-16
vn -0.0 1.0 3.1401848636255743e-16
vn -0.0 1.0 3.1401848636255743e-16
vn -0.0 1.0 3.1401848636255743e-16
vn -0.0 0.7071067690849304 0.7071067690849304
vn -0.0 0.7071067690849304 0.7071067690849304
vn -0.0 0.7071067690849304 0.7071067690849304
vn -0.0 0.7071067690849304 0.7071067690849304
vn 0.0 0.7071067690849304 -0.7071067690849304
vn 0.0 0.7071067690849304 -0.7071067690849304
vn 0.0 0.7071067690849304 -0.7071067690849304
vn 0.0 0.7071067690849304 -0.7071067690849304
vn 1.0 0.0 0.0
vn 1.0 0.0 0.0
vn 1.0 0.0 0.0
vn 1.0 0.0 0.0
vn 1.0 0.0 0.0
vn 1.0 0.0 0.0
vn 1.0 0.0 0.0
vn 1.0 0.0 0.0
g 546701dc-e333-11ea-b839-54bf646e7e1f
f 1//1 2//2 4//4
f 4//4 2//2 3//3
g 5467c536-e333-11ea-8940-54bf646e7e1f
f 5//5 6//6 8//8
f 8//8 6//6 7//7
g 54688876-e333-11ea-851f-54bf646e7e1f
f 9//9 10//10 12//12
f 12//12 10//10 11//11
g 546972c8-e333-11ea-b2d0-54bf646e7e1f
f 13//13 14//14 16//16
f 16//16 14//14 15//15
g 546a5d36-e333-11ea-8e3e-54bf646e7e1f
f 18//18 19//19 17//17
f 17//17 19//19 20//20
g 546b2076-e333-11ea-9259-54bf646e7e1f
f 21//21 22//22 24//24
f 24//24 22//22 23//23
g 54b34a92-e333-11ea-a3f4-54bf646e7e1f
f 32//32 25//25 31//31
f 31//31 25//25 26//26
f 31//31 26//26 30//30
f 30//30 26//26 27//27
f 30//30 27//27 28//28
f 28//28 29//29 30//30
g 54b45c06-e333-11ea-bbdc-54bf646e7e1f
f 33//33 34//34 36//36
f 36//36 34//34 35//35
g 54b54662-e333-11ea-8a64-54bf646e7e1f
f 37//37 38//38 40//40
f 40//40 38//38 39//39
g 54b630cc-e333-11ea-9771-54bf646e7e1f
f 41//41 42//42 44//44
f 44//44 42//42 43//43
g 54b71b24-e333-11ea-8e67-54bf646e7e1f
f 45//45 46//46 48//48
f 48//48 46//46 47//47
g 54b8538a-e333-11ea-8028-54bf646e7e1f
f 49//49 50//50 52//52
f 52//52 50//50 51//51
g 54b964ec-e333-11ea-92fb-54bf646e7e1f
f 53//53 54//54 56//56
f 56//56 54//54 55//55
g 54ba7652-e333-11ea-9bb4-54bf646e7e1f
f 57//57 58//58 60//60
f 60//60 58//58 59//59
g 54bb60a8-e333-11ea-a8b2-54bf646e7e1f
f 61//61 62//62 64//64
f 64//64 62//62 63//63
g 54bc7218-e333-11ea-9559-54bf646e7e1f
f 66//66 68//68 65//65
f 65//65 68//68 69//69
f 65//65 69//69 72//72
f 72//72 69//69 71//71
f 71//71 69//69 70//70
f 66//66 67//67 68//68

# End of file