# WaveFront *.obj file
# Vertices: 72
# Triangles : 44

v 14.435846328735352 4.300000190734863 0.0
v 14.435846328735352 4.0 0.0
v 14.435846328735352 4.0 4.0
v 14.435846328735352 4.300000190734863 4.0
v 17.035846710205078 4.300000190734863 0.0
v 14.435846328735352 4.300000190734863 0.0
v 14.435846328735352 4.300000190734863 4.0
v 17.035846710205078 4.300000190734863 4.0
v 17.035846710205078 2.299999952316284 0.0
v 17.035846710205078 4.300000190734863 0.0
v 17.035846710205078 4.300000190734863 4.0
v 17.035846710205078 2.299999952316284 4.0
v 14.435846328735352 2.299999952316284 0.0
v 17.035846710205078 2.299999952316284 0.0
v 17.035846710205078 2.299999952316284 4.0
v 14.435846328735352 2.299999952316284 4.0
v 14.435846328735352 2.5999999046325684 0.0
v 14.435846328735352 2.299999952316284 0.0
v 14.435846328735352 2.299999952316284 4.0
v 14.435846328735352 2.5999999046325684 4.0
v 6.998046398162842 2.5999999046325684 0.0
v 14.435846328735352 2.5999999046325684 0.0
v 14.435846328735352 2.5999999046325684 4.0
v 6.998046398162842 2.5999999046325684 4.0
v 6.0 0.0 0.0
v 6.998046398162842 2.5999999046325684 0.0
v 6.998046398162842 2.5999999046325684 4.0
v 6.0 0.0 4.0
v 0.0 0.0 0.0
v 6.0 0.0 0.0
v 6.0 0.0 4.0
v 0.0 0.0 4.0
v 0.0 1.399999976158142 0.0
v 0.0 0.0 0.0
v 0.0 0.0 4.0
v 0.0 1.399999976158142 4.0
v 5.037799835205078 1.399999976158142 0.0
v 0.0 1.399999976158142 0.0
v 0.0 1.399999976158142 4.0
v 5.037799835205078 1.399999976158142 4.0
v 6.035846710205078 4.0 0.0
v 5.037799835205078 1.399999976158142 0.0
v 5.037799835205078 1.399999976158142 4.0
v 6.035846710205078 4.0 4.0
v 14.435846328735352 4.0 0.0
v 6.035846710205078 4.0 0.0
v 6.035846710205078 4.0 4.0
v 14.435846328735352 4.0 4.0
v 14.435846328735352 4.0 4.0
v 6.035846710205078 4.0 4.0
v 5.037799835205078 1.399999976158142 4.0
v 0.0 1.399999976158142 4.0
v 0.0 0.0 4.0
v 6.0 0.0 4.0
v 6.998046398162842 2.5999999046325684 4.0
v 14.435846328735352 2.5999999046325684 4.0
v 14.435846328735352 2.299999952316284 4.0
v 17.035846710205078 2.299999952316284 4.0
v 17.035846710205078 4.300000190734863 4.0
v 14.435846328735352 4.300000190734863 4.0
v 6.035846710205078 4.0 0.0
v 14.435846328735352 4.0 0.0
v 14.435846328735352 4.300000190734863 0.0
v 17.035846710205078 4.300000190734863 0.0
v 17.035846710205078 2.299999952316284 0.0
v 14.435846328735352 2.299999952316284 0.0
v 14.435846328735352 2.5999999046325684 0.0
v 6.998046398162842 2.5999999046325684 0.0
v 6.0 0.0 0.0
v 0.0 0.0 0.0
v 0.0 1.399999976158142 0.0
v 5.037799835205078 1.399999976158142 0.0
vn -1.0 0.0 0.0
vn -1.0 0.0 0.0
vn -1.0 0.0 0.0
vn -1.0 0.0 0.0
vn 0.0 1.0 0.0
vn 0.0 1.0 0.0
vn 0.0 1.0 0.0
vn 0.0 1.0 0.0
vn 1.0 0.0 -0.0
vn 1.0 0.0 -0.0
vn 1.0 0.0 -0.0
vn 1.0 0.0 -0.0
vn 0.0 -1.0 0.0
vn 0.0 -1.0 0.0
vn 0.0 -1.0 0.0
vn 0.0 -1.0 0.0
vn -1.0 0.0 0.0
vn -1.0 0.0 0.0
vn -1.0 0.0 0.0
vn -1.0 0.0 0.0
vn 0.0 -1.0 0.0
vn 0.0 -1.0 0.0
vn 0.0 -1.0 0.0
vn 0.0 -1.0 0.0
vn 0.9335803985595703 -0.3583679497241974 0.0
vn 0.9335803985595703 -0.3583679497241974 0.0
vn 0.9335803985595703 -0.3583679497241974 0.0
vn 0.9335803985595703 -0.3583679497241974 0.0
vn 0.0 -1.0 0.0
vn 0.0 -1.0 0.0
vn 0.0 -1.0 0.0
vn 0.0 -1.0 0.0
vn -1.0 0.0 0.0
vn -1.0 0.0 0.0
vn -1.0 0.0 0.0
vn -1.0 0.0 0.0
vn 0.0 1.0 0.0
vn 0.0 1.0 0.0
vn 0.0 1.0 0.0
vn 0.0 1.0 0.0
vn -0.9335803985595703 0.3583679497241974 0.0
vn -0.9335803985595703 0.3583679497241974 0.0
vn -0.9335803985595703 0.3583679497241974 0.0
vn -0.9335803985595703 0.3583679497241974 0.0
vn 0.0 1.0 -0.0
vn 0.0 1.0 -0.0
vn 0.0 1.0 -0.0
vn 0.0 1.0 -0.0
vn 0.0 0.0 1.0
vn 0.0 0.0 1.0
vn 0.0 0.0 1.0
vn 0.0 0.0 1.0
vn 0.0 0.0 1.0
vn 0.0 0.0 1.0
vn 0.0 0.0 1.0
vn 0.0 0.0 1.0
vn 0.0 0.0 1.0
vn 0.0 0.0 1.0
vn 0.0 0.0 1.0
vn 0.0 0.0 1.0
vn -0.0 0.0 -1.0
vn -0.0 0.0 -1.0
vn -0.0 0.0 -1.0
vn -0.0 0.0 -1.0
vn -0.0 0.0 -1.0
vn -0.0 0.0 -1.0
vn -0.0 0.0 -1.0
vn -0.0 0.0 -1.0
vn -0.0 0.0 -1.0
vn -0.0 0.0 -1.0
vn -0.0 0.0 -1.0
vn -0.0 0.0 -1.0
g 1aa6e9fe-e334-11ea-ae90-54bf646e7e1f
f 1//1 2//2 4//4
f 4//4 2//2 3//3
g 1aa8498c-e334-11ea-8255-54bf646e7e1f
f 5//5 6//6 8//8
f 8//8 6//6 7//7
g 1aa9a906-e334-11ea-9e29-54bf646e7e1f
f 9//9 10//10 12//12
f 12//12 10//10 11//11
g 1aaae17a-e334-11ea-92fd-54bf646e7e1f
f 13//13 14//14 16//16
f 16//16 14//14 15//15
g 1aac19f4-e334-11ea-92e9-54bf646e7e1f
f 17//17 18//18 20//20
f 20//20 18//18 19//19
g 1aad7978-e334-11ea-b028-54bf646e7e1f
f 21//21 22//22 24//24
f 24//24 22//22 23//23
g 1aaed8fa-e334-11ea-a3ef-54bf646e7e1f
f 25//25 26//26 28//28
f 28//28 26//26 27//27
g 1ab01178-e334-11ea-ace2-54bf646e7e1f
f 29//29 30//30 32//32
f 32//32 30//30 31//31
g 1ab3badc-e334-11ea-87cd-54bf646e7e1f
f 33//33 34//34 36//36
f 36//36 34//34 35//35
g 1ab56880-e334-11ea-a416-54bf646e7e1f
f 37//37 38//38 40//40
f 40//40 38//38 39//39
g 1ab71624-e334-11ea-9f14-54bf646e7e1f
f 41//41 42//42 44//44
f 44//44 42//42 43//43
g 1ab8eacc-e334-11ea-8b7d-54bf646e7e1f
f 45//45 46//46 48//48
f 48//48 46//46 47//47
g 1ababf82-e334-11ea-bbab-54bf646e7e1f
f 50//50 55//55 49//49
f 49//49 55//55 56//56
f 49//49 56//56 58//58
f 58//58 56//56 57//57
f 50//50 51//51 55//55
f 55//55 51//51 54//54
f 54//54 51//51 53//53
f 53//53 51//51 52//52
f 58//58 59//59 49//49
f 49//49 59//59 60//60
g 1abc6d26-e334-11ea-816e-54bf646e7e1f
f 72//72 61//61 68//68
f 68//68 61//61 62//62
f 68//68 62//62 67//67
f 67//67 62//62 65//65
f 67//67 65//65 66//66
f 63//63 64//64 62//62
f 62//62 64//64 65//65
f 68//68 69//69 72//72
f 72//72 69//69 70//70
f 72//72 70//70 71//71

# End of file