# WaveFront *.obj file
# Vertices: 72
# Triangles : 44

v 0.793749988079071 -4.921249866485596 -7.619999885559082
v 0.793749988079071 4.921249866485596 -7.619999885559082
v 0.5397499799728394 4.921249866485596 -7.619999885559082
v 0.5397499799728394 -4.921249866485596 -7.619999885559082
v 0.793749988079071 4.921249866485596 -7.302499771118164
v 0.793749988079071 -4.921249866485596 -7.302499771118164
v 0.5397499799728394 -4.921249866485596 -7.302499771118164
v 0.5397499799728394 4.921249866485596 -7.302499771118164
v 0.5397499799728394 -4.921249866485596 -7.302499771118164
v 0.5397499799728394 -4.921249866485596 -7.619999885559082
v 0.5397499799728394 4.921249866485596 -7.619999885559082
v 0.5397499799728394 4.921249866485596 -7.302499771118164
v 0.793749988079071 -4.921249866485596 -36.19499969482422
v 0.793749988079071 4.921249866485596 -36.19499969482422
v 0.5397499799728394 4.921249866485596 -36.19499969482422
v 0.5397499799728394 -4.921249866485596 -36.19499969482422
v 0.793749988079071 4.921249866485596 -35.877498626708984
v 0.793749988079071 -4.921249866485596 -35.877498626708984
v 0.5397499799728394 -4.921249866485596 -35.877498626708984
v 0.5397499799728394 4.921249866485596 -35.877498626708984
v 0.5397499799728394 -4.921249866485596 -35.877498626708984
v 0.5397499799728394 -4.921249866485596 -36.19499969482422
v 0.5397499799728394 4.921249866485596 -36.19499969482422
v 0.5397499799728394 4.921249866485596 -35.877498626708984
v 0.793749988079071 4.921249866485596 -36.19499969482422
v 0.793749988079071 -4.921249866485596 -36.19499969482422
v 0.793749988079071 -4.921249866485596 -43.497501373291016
v 0.793749988079071 4.921249866485596 -43.497501373291016
v 0.793749988079071 -4.921249866485596 -7.302499771118164
v 0.793749988079071 4.921249866485596 -7.302499771118164
v 0.793749988079071 4.921249866485596 0.0
v 0.793749988079071 -4.921249866485596 0.0
v 0.793749988079071 4.921249866485596 -7.619999885559082
v 0.793749988079071 -4.921249866485596 -7.619999885559082
v 0.793749988079071 -4.921249866485596 -35.877498626708984
v 0.793749988079071 4.921249866485596 -35.877498626708984
v 0.793749988079071 -4.921249866485596 -7.619999885559082
v 0.5397499799728394 -4.921249866485596 -7.619999885559082
v 0.5397499799728394 -4.921249866485596 -7.302499771118164
v 0.793749988079071 -4.921249866485596 -7.302499771118164
v 0.793749988079071 -4.921249866485596 0.0
v -0.793749988079071 -4.921249866485596 0.0
v -0.793749988079071 -4.921249866485596 -43.497501373291016
v 0.793749988079071 -4.921249866485596 -43.497501373291016
v 0.793749988079071 -4.921249866485596 -36.19499969482422
v 0.5397499799728394 -4.921249866485596 -36.19499969482422
v 0.5397499799728394 -4.921249866485596 -35.877498626708984
v 0.793749988079071 -4.921249866485596 -35.877498626708984
v -0.793749988079071 -4.921249866485596 0.0
v -0.793749988079071 4.921249866485596 0.0
v -0.793749988079071 4.921249866485596 -43.497501373291016
v -0.793749988079071 -4.921249866485596 -43.497501373291016
v 0.5397499799728394 4.921249866485596 -7.619999885559082
v 0.793749988079071 4.921249866485596 -7.619999885559082
v 0.793749988079071 4.921249866485596 -35.877498626708984
v 0.5397499799728394 4.921249866485596 -35.877498626708984
v 0.5397499799728394 4.921249866485596 -36.19499969482422
v 0.793749988079071 4.921249866485596 -36.19499969482422
v 0.793749988079071 4.921249866485596 -43.497501373291016
v -0.793749988079071 4.921249866485596 -43.497501373291016
v -0.793749988079071 4.921249866485596 0.0
v 0.793749988079071 4.921249866485596 0.0
v 0.793749988079071 4.921249866485596 -7.302499771118164
v 0.5397499799728394 4.921249866485596 -7.302499771118164
v 0.793749988079071 4.921249866485596 0.0
v -0.793749988079071 4.921249866485596 0.0
v -0.793749988079071 -4.921249866485596 0.0
v 0.793749988079071 -4.921249866485596 0.0
v -0.793749988079071 4.921249866485596 -43.497501373291016
v 0.793749988079071 4.921249866485596 -43.497501373291016
v 0.793749988079071 -4.921249866485596 -43.497501373291016
v -0.793749988079071 -4.921249866485596 -43.497501373291016
vn 0.0 0.0 1.0
vn 0.0 0.0 1.0
vn 0.0 0.0 1.0
vn 0.0 0.0 1.0
vn -0.0 0.0 -1.0
vn -0.0 0.0 -1.0
vn -0.0 0.0 -1.0
vn -0.0 0.0 -1.0
vn 1.0 -0.0 -0.0
vn 1.0 -0.0 -0.0
vn 1.0 -0.0 -0.0
vn 1.0 -0.0 -0.0
vn -0.0 -0.0 1.0
vn -0.0 -0.0 1.0
vn -0.0 -0.0 1.0
vn -0.0 -0.0 1.0
vn -0.0 -0.0 -1.0
vn -0.0 -0.0 -1.0
vn -0.0 -0.0 -1.0
vn -0.0 -0.0 -1.0
vn 1.0 -0.0 -0.0
vn 1.0 -0.0 -0.0
vn 1.0 -0.0 -0.0
vn 1.0 -0.0 -0.0
vn 1.0 0.0 0.0
vn 1.0 0.0 0.0
vn 1.0 0.0 0.0
vn 1.0 0.0 0.0
vn 1.0 0.0 0.0
vn 1.0 0.0 0.0
vn 1.0 0.0 0.0
vn 1.0 0.0 0.0
vn 1.0 0.0 0.0
vn 1.0 0.0 0.0
vn 1.0 0.0 0.0
vn 1.0 0.0 0.0
vn -0.0 -1.0 -0.0
vn -0.0 -1.0 -0.0
vn -0.0 -1.0 -0.0
vn -0.0 -1.0 -0.0
vn -0.0 -1.0 -0.0
vn -0.0 -1.0 -0.0
vn -0.0 -1.0 -0.0
vn -0.0 -1.0 -0.0
vn -0.0 -1.0 -0.0
vn -0.0 -1.0 -0.0
vn -0.0 -1.0 -0.0
vn -0.0 -1.0 -0.0
vn -1.0 0.0 0.0
vn -1.0 0.0 0.0
vn -1.0 0.0 0.0
vn -1.0 0.0 0.0
vn -0.0 1.0 0.0
vn -0.0 1.0 0.0
vn -0.0 1.0 0.0
vn -0.0 1.0 0.0
vn -0.0 1.0 0.0
vn -0.0 1.0 0.0
vn -0.0 1.0 0.0
vn -0.0 1.0 0.0
vn -0.0 1.0 0.0
vn -0.0 1.0 0.0
vn -0.0 1.0 0.0
vn -0.0 1.0 0.0
vn 0.0 -0.0 1.0
vn 0.0 -0.0 1.0
vn 0.0 -0.0 1.0
vn 0.0 -0.0 1.0
vn 0.0 0.0 -1.0
vn 0.0 0.0 -1.0
vn 0.0 0.0 -1.0
vn 0.0 0.0 -1.0
g 7721efc6-e33a-11ea-90fb-54bf646e7e1f
f 1//1 2//2 4//4
f 4//4 2//2 3//3
g 772b8c98-e33a-11ea-8ae5-54bf646e7e1f
f 5//5 6//6 8//8
f 8//8 6//6 7//7
g 7734db36-e33a-11ea-ab5d-54bf646e7e1f
f 9//9 10//10 12//12
f 12//12 10//10 11//11
g 773e50dc-e33a-11ea-a8ed-54bf646e7e1f
f 13//13 14//14 16//16
f 16//16 14//14 15//15
g 7747ed9e-e33a-11ea-a4af-54bf646e7e1f
f 17//17 18//18 20//20
f 20//20 18//18 19//19
g 77513c4c-e33a-11ea-a2ba-54bf646e7e1f
f 21//21 22//22 24//24
f 24//24 22//22 23//23
g 75fe0e46-e33a-11ea-bc6b-54bf646e7e1f
f 25//25 26//26 28//28
f 28//28 26//26 27//27
g b5fa6b42-06ec-36bd-9aac-c1e00f1a579a
f 29//29 30//30 32//32
f 32//32 30//30 31//31
g 775bea68-e33a-11ea-90cb-54bf646e7e1f
f 33//33 34//34 36//36
f 36//36 34//34 35//35
g 75f4e6d0-e33a-11ea-8fb1-54bf646e7e1f
f 37//37 38//38 48//48
f 48//48 38//38 47//47
f 47//47 38//38 42//42
f 47//47 42//42 43//43
f 38//38 39//39 42//42
f 42//42 39//39 41//41
f 41//41 39//39 40//40
f 47//47 43//43 46//46
f 46//46 43//43 44//44
f 46//46 44//44 45//45
g 75ec0d2e-e33a-11ea-822a-54bf646e7e1f
f 49//49 50//50 52//52
f 52//52 50//50 51//51
g 76075cf0-e33a-11ea-afb0-54bf646e7e1f
f 54//54 56//56 53//53
f 53//53 56//56 61//61
f 53//53 61//61 64//64
f 64//64 61//61 62//62
f 64//64 62//62 63//63
f 54//54 55//55 56//56
f 61//61 56//56 60//60
f 60//60 56//56 57//57
f 60//60 57//57 59//59
f 59//59 57//57 58//58
g 76105d70-e33a-11ea-a025-54bf646e7e1f
f 65//65 66//66 68//68
f 68//68 66//66 67//67
g 762d5ad2-e33a-11ea-a762-54bf646e7e1f
f 69//69 70//70 72//72
f 72//72 70//70 71//71

# End of file