# WaveFront *.obj file
# Vertices: 72
# Triangles : 44

v -2.0 0.0 17.0
v -2.0 0.0 15.0
v -2.0 1.0 15.0
v -2.0 1.0 17.0
v 0.0 0.0 17.0
v -2.0 0.0 17.0
v -2.0 1.0 17.0
v 0.0 1.0 17.0
v 0.0 0.0 18.0
v 0.0 0.0 17.0
v 0.0 1.0 17.0
v 0.0 1.0 18.0
v -2.0 0.0 18.0
v 0.0 0.0 18.0
v 0.0 1.0 18.0
v -2.0 1.0 18.0
v -2.0 0.0 20.0
v -2.0 0.0 18.0
v -2.0 1.0 18.0
v -2.0 1.0 20.0
v -3.0 0.0 20.0
v -2.0 0.0 20.0
v -2.0 1.0 20.0
v -3.0 1.0 20.0
v -3.0 0.0 18.0
v -3.0 0.0 20.0
v -3.0 1.0 20.0
v -3.0 1.0 18.0
v -5.0 0.0 18.0
v -3.0 0.0 18.0
v -3.0 1.0 18.0
v -5.0 1.0 18.0
v -5.0 0.0 17.0
v -5.0 0.0 18.0
v -5.0 1.0 18.0
v -5.0 1.0 17.0
v -3.0 0.0 17.0
v -5.0 0.0 17.0
v -5.0 1.0 17.0
v -3.0 1.0 17.0
v -3.0 0.0 15.0
v -3.0 0.0 17.0
v -3.0 1.0 17.0
v -3.0 1.0 15.0
v -2.0 0.0 15.0
v -3.0 0.0 15.0
v -3.0 1.0 15.0
v -2.0 1.0 15.0
v -2.0 1.0 15.0
v -3.0 1.0 15.0
v -3.0 1.0 17.0
v -5.0 1.0 17.0
v -5.0 1.0 18.0
v -3.0 1.0 18.0
v -3.0 1.0 20.0
v -2.0 1.0 20.0
v -2.0 1.0 18.0
v 0.0 1.0 18.0
v 0.0 1.0 17.0
v -2.0 1.0 17.0
v -3.0 0.0 15.0
v -2.0 0.0 15.0
v -2.0 0.0 17.0
v 0.0 0.0 17.0
v 0.0 0.0 18.0
v -2.0 0.0 18.0
v -2.0 0.0 20.0
v -3.0 0.0 20.0
v -3.0 0.0 18.0
v -5.0 0.0 18.0
v -5.0 0.0 17.0
v -3.0 0.0 17.0
vn 1.0 -0.0 0.0
vn 1.0 -0.0 0.0
vn 1.0 -0.0 0.0
vn 1.0 -0.0 0.0
vn 0.0 0.0 -1.0
vn 0.0 0.0 -1.0
vn 0.0 0.0 -1.0
vn 0.0 0.0 -1.0
vn 1.0 -0.0 0.0
vn 1.0 -0.0 0.0
vn 1.0 -0.0 0.0
vn 1.0 -0.0 0.0
vn 0.0 0.0 1.0
vn 0.0 0.0 1.0
vn 0.0 0.0 1.0
vn 0.0 0.0 1.0
vn 1.0 -0.0 0.0
vn 1.0 -0.0 0.0
vn 1.0 -0.0 0.0
vn 1.0 -0.0 0.0
vn 0.0 0.0 1.0
vn 0.0 0.0 1.0
vn 0.0 0.0 1.0
vn 0.0 0.0 1.0
vn -1.0 0.0 0.0
vn -1.0 0.0 0.0
vn -1.0 0.0 0.0
vn -1.0 0.0 0.0
vn 0.0 0.0 1.0
vn 0.0 0.0 1.0
vn 0.0 0.0 1.0
vn 0.0 0.0 1.0
vn -1.0 0.0 0.0
vn -1.0 0.0 0.0
vn -1.0 0.0 0.0
vn -1.0 0.0 0.0
vn 0.0 0.0 -1.0
vn 0.0 0.0 -1.0
vn 0.0 0.0 -1.0
vn 0.0 0.0 -1.0
vn -1.0 0.0 0.0
vn -1.0 0.0 0.0
vn -1.0 0.0 0.0
vn -1.0 0.0 0.0
vn 0.0 0.0 -1.0
vn 0.0 0.0 -1.0
vn 0.0 0.0 -1.0
vn 0.0 0.0 -1.0
vn 0.0 1.0 0.0
vn 0.0 1.0 0.0
vn 0.0 1.0 0.0
vn 0.0 1.0 0.0
vn 0.0 1.0 0.0
vn 0.0 1.0 0.0
vn 0.0 1.0 0.0
vn 0.0 1.0 0.0
vn 0.0 1.0 0.0
vn 0.0 1.0 0.0
vn 0.0 1.0 0.0
vn 0.0 1.0 0.0
vn -0.0 -1.0 -0.0
vn -0.0 -1.0 -0.0
vn -0.0 -1.0 -0.0
vn -0.0 -1.0 -0.0
vn -0.0 -1.0 -0.0
vn -0.0 -1.0 -0.0
vn -0.0 -1.0 -0.0
vn -0.0 -1.0 -0.0
vn -0.0 -1.0 -0.0
vn -0.0 -1.0 -0.0
vn -0.0 -1.0 -0.0
vn -0.0 -1.0 -0.0
g ddd25910-e340-11ea-9ef2-54bf646e7e1f
f 1//1 2//2 4//4
f 4//4 2//2 3//3
g ddd2a71e-e340-11ea-900f-54bf646e7e1f
f 5//5 6//6 8//8
f 8//8 6//6 7//7
g ddd31c64-e340-11ea-8f09-54bf646e7e1f
f 9//9 10//10 12//12
f 12//12 10//10 11//11
g ddd36a88-e340-11ea-8843-54bf646e7e1f
f 13//13 14//14 16//16
f 16//16 14//14 15//15
g ddd3b8ac-e340-11ea-af46-54bf646e7e1f
f 17//17 18//18 20//20
f 20//20 18//18 19//19
g ddd42de2-e340-11ea-9f30-54bf646e7e1f
f 21//21 22//22 24//24
f 24//24 22//22 23//23
g ddd47c00-e340-11ea-ad11-54bf646e7e1f
f 25//25 26//26 28//28
f 28//28 26//26 27//27
g ddd4f138-e340-11ea-b529-54bf646e7e1f
f 29//29 30//30 32//32
f 32//32 30//30 31//31
g ddd56668-e340-11ea-9eb9-54bf646e7e1f
f 33//33 34//34 36//36
f 36//36 34//34 35//35
g ddd5b488-e340-11ea-bdfa-54bf646e7e1f
f 37//37 38//38 40//40
f 40//40 38//38 39//39
g ddd629ba-e340-11ea-85cd-54bf646e7e1f
f 41//41 42//42 44//44
f 44//44 42//42 43//43
g ddd6c60a-e340-11ea-baa3-54bf646e7e1f
f 45//45 46//46 48//48
f 48//48 46//46 47//47
g ddd73b3a-e340-11ea-9f4d-54bf646e7e1f
f 50//50 51//51 49//49
f 49//49 51//51 60//60
f 60//60 51//51 54//54
f 60//60 54//54 57//57
f 57//57 54//54 55//55
f 57//57 55//55 56//56
f 52//52 53//53 51//51
f 51//51 53//53 54//54
f 58//58 59//59 57//57
f 57//57 59//59 60//60
g ddd7b066-e340-11ea-a10a-54bf646e7e1f
f 61//61 62//62 72//72
f 72//72 62//62 63//63
f 72//72 63//63 69//69
f 69//69 63//63 66//66
f 69//69 66//66 68//68
f 68//68 66//66 67//67
f 63//63 64//64 66//66
f 66//66 64//64 65//65
f 69//69 70//70 72//72
f 72//72 70//70 71//71

# End of file