# WaveFront *.obj file
# Vertices: 206
# Triangles : 188

v 0.699999988079071 0.40414518117904663 1.7999999523162842
v 0.699999988079071 -0.40414518117904663 1.7999999523162842
v -5.551115123125783e-16 -0.8082903623580933 1.7999999523162842
v -0.699999988079071 -0.40414518117904663 1.7999999523162842
v -0.699999988079071 0.40414518117904663 1.7999999523162842
v 2.220446049250313e-16 0.8082903623580933 1.7999999523162842
v -0.5 -6.123234262925839e-17 1.7999999523162842
v -0.49441540241241455 -0.07452113181352615 1.7999999523162842
v -0.4777863919734955 -0.14737758040428162 1.7999999523162842
v -0.45048442482948303 -0.21694186329841614 1.7999999523162842
v -0.413119375705719 -0.2816600203514099 1.7999999523162842
v -0.36652594804763794 -0.3400863707065582 1.7999999523162842
v -0.31174489855766296 -0.39091575145721436 1.7999999523162842
v -0.25 -0.4330126941204071 1.7999999523162842
v -0.18267051875591278 -0.4654368758201599 1.7999999523162842
v -0.11126046627759933 -0.48746395111083984 1.7999999523162842
v -0.03736504539847374 -0.49860191345214844 1.7999999523162842
v 0.03736504539847374 -0.49860191345214844 1.7999999523162842
v 0.11126046627759933 -0.48746395111083984 1.7999999523162842
v 0.18267051875591278 -0.4654368758201599 1.7999999523162842
v 0.25 -0.4330126941204071 1.7999999523162842
v 0.31174489855766296 -0.39091575145721436 1.7999999523162842
v 0.36652594804763794 -0.3400863707065582 1.7999999523162842
v 0.413119375705719 -0.2816600203514099 1.7999999523162842
v 0.45048442482948303 -0.21694186329841614 1.7999999523162842
v 0.4777863919734955 -0.14737758040428162 1.7999999523162842
v 0.49441540241241455 -0.07452113181352615 1.7999999523162842
v 0.5 0.0 1.7999999523162842
v 0.49441540241241455 0.07452113181352615 1.7999999523162842
v 0.4777863919734955 0.14737758040428162 1.7999999523162842
v 0.45048442482948303 0.21694186329841614 1.7999999523162842
v 0.413119375705719 0.2816600203514099 1.7999999523162842
v 0.36652594804763794 0.3400863707065582 1.7999999523162842
v 0.31174489855766296 0.39091575145721436 1.7999999523162842
v 0.25 0.4330126941204071 1.7999999523162842
v 0.18267051875591278 0.4654368758201599 1.7999999523162842
v 0.11126046627759933 0.48746395111083984 1.7999999523162842
v 0.03736504539847374 0.49860191345214844 1.7999999523162842
v -0.03736504539847374 0.49860191345214844 1.7999999523162842
v -0.11126046627759933 0.48746395111083984 1.7999999523162842
v -0.18267051875591278 0.4654368758201599 1.7999999523162842
v -0.25 0.4330126941204071 1.7999999523162842
v -0.31174489855766296 0.39091575145721436 1.7999999523162842
v -0.36652594804763794 0.3400863707065582 1.7999999523162842
v -0.413119375705719 0.2816600203514099 1.7999999523162842
v -0.45048442482948303 0.21694186329841614 1.7999999523162842
v -0.4777863919734955 0.14737758040428162 1.7999999523162842
v -0.49441540241241455 0.07452113181352615 1.7999999523162842
v -5.551115123125783e-16 -0.8082903623580933 1.7999999523162842
v 0.699999988079071 -0.40414518117904663 1.7999999523162842
v 0.699999988079071 -0.40414518117904663 2.0999999046325684
v -5.551115123125783e-16 -0.8082903623580933 2.0999999046325684
v -0.699999988079071 -0.40414518117904663 1.7999999523162842
v -5.551115123125783e-16 -0.8082903623580933 1.7999999523162842
v -5.551115123125783e-16 -0.8082903623580933 2.0999999046325684
v -0.699999988079071 -0.40414518117904663 2.0999999046325684
v -0.699999988079071 0.40414518117904663 1.7999999523162842
v -0.699999988079071 -0.40414518117904663 1.7999999523162842
v -0.699999988079071 -0.40414518117904663 2.0999999046325684
v -0.699999988079071 0.40414518117904663 2.0999999046325684
v 2.220446049250313e-16 0.8082903623580933 1.7999999523162842
v -0.699999988079071 0.40414518117904663 1.7999999523162842
v -0.699999988079071 0.40414518117904663 2.0999999046325684
v 2.220446049250313e-16 0.8082903623580933 2.0999999046325684
v 0.699999988079071 0.40414518117904663 1.7999999523162842
v 2.220446049250313e-16 0.8082903623580933 1.7999999523162842
v 2.220446049250313e-16 0.8082903623580933 2.0999999046325684
v 0.699999988079071 0.40414518117904663 2.0999999046325684
v 0.699999988079071 -0.40414518117904663 1.7999999523162842
v 0.699999988079071 0.40414518117904663 1.7999999523162842
v 0.699999988079071 0.40414518117904663 2.0999999046325684
v 0.699999988079071 -0.40414518117904663 2.0999999046325684
v 0.699999988079071 -0.40414518117904663 2.0999999046325684
v 0.699999988079071 0.40414518117904663 2.0999999046325684
v 2.220446049250313e-16 0.8082903623580933 2.0999999046325684
v -0.699999988079071 0.40414518117904663 2.0999999046325684
v -0.699999988079071 -0.40414518117904663 2.0999999046325684
v -5.551115123125783e-16 -0.8082903623580933 2.0999999046325684
v -0.5 -6.123234262925839e-17 1.7999999523162842
v -0.49441540241241455 0.07452113181352615 1.7999999523162842
v -0.4777863919734955 0.14737758040428162 1.7999999523162842
v -0.45048442482948303 0.21694186329841614 1.7999999523162842
v -0.413119375705719 0.2816600203514099 1.7999999523162842
v -0.36652594804763794 0.3400863707065582 1.7999999523162842
v -0.31174489855766296 0.39091575145721436 1.7999999523162842
v -0.25 0.4330126941204071 1.7999999523162842
v -0.18267051875591278 0.4654368758201599 1.7999999523162842
v -0.11126046627759933 0.48746395111083984 1.7999999523162842
v -0.03736504539847374 0.49860191345214844 1.7999999523162842
v 0.03736504539847374 0.49860191345214844 1.7999999523162842
v 0.11126046627759933 0.48746395111083984 1.7999999523162842
v 0.18267051875591278 0.4654368758201599 1.7999999523162842
v 0.25 0.4330126941204071 1.7999999523162842
v 0.31174489855766296 0.39091575145721436 1.7999999523162842
v 0.36652594804763794 0.3400863707065582 1.7999999523162842
v 0.413119375705719 0.2816600203514099 1.7999999523162842
v 0.45048442482948303 0.21694186329841614 1.7999999523162842
v 0.4777863919734955 0.14737758040428162 1.7999999523162842
v 0.49441540241241455 0.07452113181352615 1.7999999523162842
v 0.5 0.0 1.7999999523162842
v 0.49441540241241455 -0.07452113181352615 1.7999999523162842
v 0.4777863919734955 -0.14737758040428162 1.7999999523162842
v 0.45048442482948303 -0.21694186329841614 1.7999999523162842
v 0.413119375705719 -0.2816600203514099 1.7999999523162842
v 0.36652594804763794 -0.3400863707065582 1.7999999523162842
v 0.31174489855766296 -0.39091575145721436 1.7999999523162842
v 0.25 -0.4330126941204071 1.7999999523162842
v 0.18267051875591278 -0.4654368758201599 1.7999999523162842
v 0.11126046627759933 -0.48746395111083984 1.7999999523162842
v 0.03736504539847374 -0.49860191345214844 1.7999999523162842
v -0.03736504539847374 -0.49860191345214844 1.7999999523162842
v -0.11126046627759933 -0.48746395111083984 1.7999999523162842
v -0.18267051875591278 -0.4654368758201599 1.7999999523162842
v -0.25 -0.4330126941204071 1.7999999523162842
v -0.31174489855766296 -0.39091575145721436 1.7999999523162842
v -0.36652594804763794 -0.3400863707065582 1.7999999523162842
v -0.413119375705719 -0.2816600203514099 1.7999999523162842
v -0.45048442482948303 -0.21694186329841614 1.7999999523162842
v -0.4777863919734955 -0.14737758040428162 1.7999999523162842
v -0.49441540241241455 -0.07452113181352615 1.7999999523162842
v -0.5 -6.123234262925839e-17 0.0
v -0.49441540241241455 -0.07452113181352615 0.0
v -0.4777863919734955 -0.14737758040428162 0.0
v -0.45048442482948303 -0.21694186329841614 0.0
v -0.413119375705719 -0.2816600203514099 0.0
v -0.36652594804763794 -0.3400863707065582 0.0
v -0.31174489855766296 -0.39091575145721436 0.0
v -0.25 -0.4330126941204071 0.0
v -0.18267051875591278 -0.4654368758201599 0.0
v -0.11126046627759933 -0.48746395111083984 0.0
v -0.03736504539847374 -0.49860191345214844 0.0
v 0.03736504539847374 -0.49860191345214844 0.0
v 0.11126046627759933 -0.48746395111083984 0.0
v 0.18267051875591278 -0.4654368758201599 0.0
v 0.25 -0.4330126941204071 0.0
v 0.31174489855766296 -0.39091575145721436 0.0
v 0.36652594804763794 -0.3400863707065582 0.0
v 0.413119375705719 -0.2816600203514099 0.0
v 0.45048442482948303 -0.21694186329841614 0.0
v 0.4777863919734955 -0.14737758040428162 0.0
v 0.49441540241241455 -0.07452113181352615 0.0
v 0.5 0.0 0.0
v 0.49441540241241455 0.07452113181352615 0.0
v 0.4777863919734955 0.14737758040428162 0.0
v 0.45048442482948303 0.21694186329841614 0.0
v 0.413119375705719 0.2816600203514099 0.0
v 0.36652594804763794 0.3400863707065582 0.0
v 0.31174489855766296 0.39091575145721436 0.0
v 0.25 0.4330126941204071 0.0
v 0.18267051875591278 0.4654368758201599 0.0
v 0.11126046627759933 0.48746395111083984 0.0
v 0.03736504539847374 0.49860191345214844 0.0
v -0.03736504539847374 0.49860191345214844 0.0
v -0.11126046627759933 0.48746395111083984 0.0
v -0.18267051875591278 0.4654368758201599 0.0
v -0.25 0.4330126941204071 0.0
v -0.31174489855766296 0.39091575145721436 0.0
v -0.36652594804763794 0.3400863707065582 0.0
v -0.413119375705719 0.2816600203514099 0.0
v -0.45048442482948303 0.21694186329841614 0.0
v -0.4777863919734955 0.14737758040428162 0.0
v -0.49441540241241455 0.07452113181352615 0.0
v -0.5 -6.123234262925839e-17 0.0
v -0.5 -6.123234262925839e-17 1.7999999523162842
v -0.5 -6.123234262925839e-17 0.0
v -0.49441540241241455 0.07452113181352615 0.0
v -0.4777863919734955 0.14737758040428162 0.0
v -0.45048442482948303 0.21694186329841614 0.0
v -0.413119375705719 0.2816600203514099 0.0
v -0.36652594804763794 0.3400863707065582 0.0
v -0.31174489855766296 0.39091575145721436 0.0
v -0.25 0.4330126941204071 0.0
v -0.18267051875591278 0.4654368758201599 0.0
v -0.11126046627759933 0.48746395111083984 0.0
v -0.03736504539847374 0.49860191345214844 0.0
v 0.03736504539847374 0.49860191345214844 0.0
v 0.11126046627759933 0.48746395111083984 0.0
v 0.18267051875591278 0.4654368758201599 0.0
v 0.25 0.4330126941204071 0.0
v 0.31174489855766296 0.39091575145721436 0.0
v 0.36652594804763794 0.3400863707065582 0.0
v 0.413119375705719 0.2816600203514099 0.0
v 0.45048442482948303 0.21694186329841614 0.0
v 0.4777863919734955 0.14737758040428162 0.0
v 0.49441540241241455 0.07452113181352615 0.0
v 0.5 0.0 0.0
v 0.49441540241241455 -0.07452113181352615 0.0
v 0.4777863919734955 -0.14737758040428162 0.0
v 0.45048442482948303 -0.21694186329841614 0.0
v 0.413119375705719 -0.2816600203514099 0.0
v 0.36652594804763794 -0.3400863707065582 0.0
v 0.31174489855766296 -0.39091575145721436 0.0
v 0.25 -0.4330126941204071 0.0
v 0.18267051875591278 -0.4654368758201599 0.0
v 0.11126046627759933 -0.48746395111083984 0.0
v 0.03736504539847374 -0.49860191345214844 0.0
v -0.03736504539847374 -0.49860191345214844 0.0
v -0.11126046627759933 -0.48746395111083984 0.0
v -0.18267051875591278 -0.4654368758201599 0.0
v -0.25 -0.4330126941204071 0.0
v -0.31174489855766296 -0.39091575145721436 0.0
v -0.36652594804763794 -0.3400863707065582 0.0
v -0.413119375705719 -0.2816600203514099 0.0
v -0.45048442482948303 -0.21694186329841614 0.0
v -0.4777863919734955 -0.14737758040428162 0.0
v -0.49441540241241455 -0.07452113181352615 0.0
vn -0.0 -0.0 -1.0
vn -0.0 -0.0 -1.0
vn -0.0 -0.0 -1.0
vn -0.0 -0.0 -1.0
vn -0.0 -0.0 -1.0
vn -0.0 -0.0 -1.0
vn -0.0 -0.0 -1.0
vn -0.0 -0.0 -1.0
vn -0.0 -0.0 -1.0
vn -0.0 -0.0 -1.0
vn -0.0 -0.0 -1.0
vn -0.0 -0.0 -1.0
vn -0.0 -0.0 -1.0
vn -0.0 -0.0 -1.0
vn -0.0 -0.0 -1.0
vn -0.0 -0.0 -1.0
vn -0.0 -0.0 -1.0
vn -0.0 -0.0 -1.0
vn -0.0 -0.0 -1.0
vn -0.0 -0.0 -1.0
vn -0.0 -0.0 -1.0
vn -0.0 -0.0 -1.0
vn -0.0 -0.0 -1.0
vn -0.0 -0.0 -1.0
vn -0.0 -0.0 -1.0
vn -0.0 -0.0 -1.0
vn -0.0 -0.0 -1.0
vn -0.0 -0.0 -1.0
vn -0.0 -0.0 -1.0
vn -0.0 -0.0 -1.0
vn -0.0 -0.0 -1.0
vn -0.0 -0.0 -1.0
vn -0.0 -0.0 -1.0
vn -0.0 -0.0 -1.0
vn -0.0 -0.0 -1.0
vn -0.0 -0.0 -1.0
vn -0.0 -0.0 -1.0
vn -0.0 -0.0 -1.0
vn -0.0 -0.0 -1.0
vn -0.0 -0.0 -1.0
vn -0.0 -0.0 -1.0
vn -0.0 -0.0 -1.0
vn -0.0 -0.0 -1.0
vn -0.0 -0.0 -1.0
vn -0.0 -0.0 -1.0
vn -0.0 -0.0 -1.0
vn -0.0 -0.0 -1.0
vn -0.0 -0.0 -1.0
vn 0.5 -0.8660253882408142 0.0
vn 0.5 -0.8660253882408142 0.0
vn 0.5 -0.8660253882408142 0.0
vn 0.5 -0.8660253882408142 0.0
vn -0.5 -0.8660253882408142 0.0
vn -0.5 -0.8660253882408142 0.0
vn -0.5 -0.8660253882408142 0.0
vn -0.5 -0.8660253882408142 0.0
vn -1.0 4.1206342350996955e-16 0.0
vn -1.0 4.1206342350996955e-16 0.0
vn -1.0 4.1206342350996955e-16 0.0
vn -1.0 4.1206342350996955e-16 0.0
vn -0.5 0.8660253882408142 0.0
vn -0.5 0.8660253882408142 0.0
vn -0.5 0.8660253882408142 0.0
vn -0.5 0.8660253882408142 0.0
vn 0.5 0.8660253882408142 -0.0
vn 0.5 0.8660253882408142 -0.0
vn 0.5 0.8660253882408142 -0.0
vn 0.5 0.8660253882408142 -0.0
vn 1.0 -5.494179156598125e-16 0.0
vn 1.0 -5.494179156598125e-16 0.0
vn 1.0 -5.494179156598125e-16 0.0
vn 1.0 -5.494179156598125e-16 0.0
vn 0.0 0.0 1.0
vn 0.0 0.0 1.0
vn 0.0 0.0 1.0
vn 0.0 0.0 1.0
vn 0.0 0.0 1.0
vn 0.0 0.0 1.0
vn -1.0 1.2246468525851679e-16 -0.0
vn -0.9888308048248291 0.1490422636270523 -0.0
vn -0.955572783946991 0.29475516080856323 -0.0
vn -0.9009688496589661 0.4338837265968323 -0.0
vn -0.826238751411438 0.5633200407028198 -0.0
vn -0.7330518960952759 0.6801727414131165 -0.0
vn -0.6234897971153259 0.7818315029144287 -0.0
vn -0.5 0.8660253882408142 -0.0
vn -0.36534103751182556 0.9308737516403198 -0.0
vn -0.22252093255519867 0.9749279022216797 -0.0
vn -0.07473009079694748 0.9972038269042969 -0.0
vn 0.07473009079694748 0.9972038269042969 -0.0
vn 0.22252093255519867 0.9749279022216797 -0.0
vn 0.36534103751182556 0.9308737516403198 -0.0
vn 0.5 0.8660253882408142 -0.0
vn 0.6234897971153259 0.7818315029144287 -0.0
vn 0.7330518960952759 0.6801727414131165 -0.0
vn 0.826238751411438 0.5633200407028198 -0.0
vn 0.9009688496589661 0.4338837265968323 -0.0
vn 0.955572783946991 0.29475516080856323 -0.0
vn 0.9888308048248291 0.1490422636270523 -0.0
vn 1.0 -0.0 -0.0
vn 0.9888308048248291 -0.1490422636270523 -0.0
vn 0.955572783946991 -0.29475516080856323 -0.0
vn 0.9009688496589661 -0.4338837265968323 -0.0
vn 0.826238751411438 -0.5633200407028198 -0.0
vn 0.7330518960952759 -0.6801727414131165 -0.0
vn 0.6234897971153259 -0.7818315029144287 -0.0
vn 0.5 -0.8660253882408142 -0.0
vn 0.36534103751182556 -0.9308737516403198 -0.0
vn 0.22252093255519867 -0.9749279022216797 -0.0
vn 0.07473009079694748 -0.9972038269042969 -0.0
vn -0.07473009079694748 -0.9972038269042969 0.0
vn -0.22252093255519867 -0.9749279022216797 0.0
vn -0.36534103751182556 -0.9308737516403198 0.0
vn -0.5 -0.8660253882408142 0.0
vn -0.6234897971153259 -0.7818315029144287 0.0
vn -0.7330518960952759 -0.6801727414131165 0.0
vn -0.826238751411438 -0.5633200407028198 0.0
vn -0.9009688496589661 -0.4338837265968323 0.0
vn -0.955572783946991 -0.29475516080856323 0.0
vn -0.9888308048248291 -0.1490422636270523 0.0
vn -1.0 -1.2246468525851679e-16 0.0
vn -0.9888308048248291 -0.1490422636270523 0.0
vn -0.955572783946991 -0.29475516080856323 0.0
vn -0.9009688496589661 -0.4338837265968323 0.0
vn -0.826238751411438 -0.5633200407028198 0.0
vn -0.7330518960952759 -0.6801727414131165 0.0
vn -0.6234897971153259 -0.7818315029144287 0.0
vn -0.5 -0.8660253882408142 0.0
vn -0.36534103751182556 -0.9308737516403198 0.0
vn -0.22252093255519867 -0.9749279022216797 0.0
vn -0.07473009079694748 -0.9972038269042969 0.0
vn 0.07473009079694748 -0.9972038269042969 -0.0
vn 0.22252093255519867 -0.9749279022216797 -0.0
vn 0.36534103751182556 -0.9308737516403198 -0.0
vn 0.5 -0.8660253882408142 -0.0
vn 0.6234897971153259 -0.7818315029144287 -0.0
vn 0.7330518960952759 -0.6801727414131165 -0.0
vn 0.826238751411438 -0.5633200407028198 -0.0
vn 0.9009688496589661 -0.4338837265968323 -0.0
vn 0.955572783946991 -0.29475516080856323 -0.0
vn 0.9888308048248291 -0.1490422636270523 -0.0
vn 1.0 -0.0 -0.0
vn 0.9888308048248291 0.1490422636270523 -0.0
vn 0.955572783946991 0.29475516080856323 -0.0
vn 0.9009688496589661 0.4338837265968323 -0.0
vn 0.826238751411438 0.5633200407028198 -0.0
vn 0.7330518960952759 0.6801727414131165 -0.0
vn 0.6234897971153259 0.7818315029144287 -0.0
vn 0.5 0.8660253882408142 -0.0
vn 0.36534103751182556 0.9308737516403198 -0.0
vn 0.22252093255519867 0.9749279022216797 -0.0
vn 0.07473009079694748 0.9972038269042969 -0.0
vn -0.07473009079694748 0.9972038269042969 -0.0
vn -0.22252093255519867 0.9749279022216797 -0.0
vn -0.36534103751182556 0.9308737516403198 -0.0
vn -0.5 0.8660253882408142 -0.0
vn -0.6234897971153259 0.7818315029144287 -0.0
vn -0.7330518960952759 0.6801727414131165 -0.0
vn -0.826238751411438 0.5633200407028198 -0.0
vn -0.9009688496589661 0.4338837265968323 -0.0
vn -0.955572783946991 0.29475516080856323 -0.0
vn -0.9888308048248291 0.1490422636270523 -0.0
vn -1.0 1.2246468525851679e-16 -0.0
vn -1.0 -1.2246468525851679e-16 0.0
vn -0.0 -0.0 -1.0
vn -0.0 -0.0 -1.0
vn -0.0 -0.0 -1.0
vn -0.0 -0.0 -1.0
vn -0.0 -0.0 -1.0
vn -0.0 -0.0 -1.0
vn -0.0 -0.0 -1.0
vn -0.0 -0.0 -1.0
vn -0.0 -0.0 -1.0
vn -0.0 -0.0 -1.0
vn -0.0 -0.0 -1.0
vn -0.0 -0.0 -1.0
vn -0.0 -0.0 -1.0
vn -0.0 -0.0 -1.0
vn -0.0 -0.0 -1.0
vn -0.0 -0.0 -1.0
vn -0.0 -0.0 -1.0
vn -0.0 -0.0 -1.0
vn -0.0 -0.0 -1.0
vn -0.0 -0.0 -1.0
vn -0.0 -0.0 -1.0
vn -0.0 -0.0 -1.0
vn -0.0 -0.0 -1.0
vn -0.0 -0.0 -1.0
vn -0.0 -0.0 -1.0
vn -0.0 -0.0 -1.0
vn -0.0 -0.0 -1.0
vn -0.0 -0.0 -1.0
vn -0.0 -0.0 -1.0
vn -0.0 -0.0 -1.0
vn -0.0 -0.0 -1.0
vn -0.0 -0.0 -1.0
vn -0.0 -0.0 -1.0
vn -0.0 -0.0 -1.0
vn -0.0 -0.0 -1.0
vn -0.0 -0.0 -1.0
vn -0.0 -0.0 -1.0
vn -0.0 -0.0 -1.0
vn -0.0 -0.0 -1.0
vn -0.0 -0.0 -1.0
vn -0.0 -0.0 -1.0
vn -0.0 -0.0 -1.0
g 3ea4aeba-e343-11ea-8a7f-54bf646e7e1f
f 2//2 28//28 1//1
f 1//1 28//28 29//29
f 1//1 29//29 30//30
f 3//3 21//21 2//2
f 2//2 21//21 22//22
f 2//2 22//22 23//23
f 4//4 14//14 3//3
f 3//3 14//14 15//15
f 3//3 15//15 16//16
f 5//5 7//7 4//4
f 4//4 7//7 8//8
f 4//4 8//8 9//9
f 6//6 42//42 5//5
f 5//5 42//42 43//43
f 5//5 43//43 44//44
f 1//1 35//35 6//6
f 6//6 35//35 36//36
f 6//6 36//36 37//37
f 9//9 10//10 4//4
f 4//4 10//10 11//11
f 4//4 11//11 12//12
f 12//12 13//13 4//4
f 4//4 13//13 14//14
f 16//16 17//17 3//3
f 3//3 17//17 18//18
f 3//3 18//18 19//19
f 19//19 20//20 3//3
f 3//3 20//20 21//21
f 23//23 24//24 2//2
f 2//2 24//24 25//25
f 2//2 25//25 26//26
f 26//26 27//27 2//2
f 2//2 27//27 28//28
f 30//30 31//31 1//1
f 1//1 31//31 32//32
f 1//1 32//32 33//33
f 33//33 34//34 1//1
f 1//1 34//34 35//35
f 37//37 38//38 6//6
f 6//6 38//38 39//39
f 6//6 39//39 40//40
f 40//40 41//41 6//6
f 6//6 41//41 42//42
f 44//44 45//45 5//5
f 5//5 45//45 46//46
f 5//5 46//46 47//47
f 47//47 48//48 5//5
f 5//5 48//48 7//7
g 3ea54afe-e343-11ea-883b-54bf646e7e1f
f 49//49 50//50 52//52
f 52//52 50//50 51//51
g 3ea5e748-e343-11ea-b450-54bf646e7e1f
f 53//53 54//54 56//56
f 56//56 54//54 55//55
g 3ea65c7a-e343-11ea-87c4-54bf646e7e1f
f 57//57 58//58 60//60
f 60//60 58//58 59//59
g 3ea6d19e-e343-11ea-9af6-54bf646e7e1f
f 61//61 62//62 64//64
f 64//64 62//62 63//63
g 3ea76df0-e343-11ea-ac8c-54bf646e7e1f
f 65//65 66//66 68//68
f 68//68 66//66 67//67
g 3ea7e31e-e343-11ea-acc8-54bf646e7e1f
f 69//69 70//70 72//72
f 72//72 70//70 71//71
g 3ea87f68-e343-11ea-b054-54bf646e7e1f
f 74//74 75//75 73//73
f 73//73 75//75 78//78
f 78//78 75//75 76//76
f 78//78 76//76 77//77
g 3e666ba6-e343-11ea-b7ac-54bf646e7e1f
f 80//80 162//162 79//79
f 79//79 162//162 163//163
f 164//164 121//121 120//120
f 120//120 121//121 122//122
f 120//120 122//122 123//123
f 80//80 81//81 162//162
f 162//162 81//81 161//161
f 161//161 81//81 82//82
f 161//161 82//82 160//160
f 160//160 82//82 83//83
f 160//160 83//83 159//159
f 159//159 83//83 84//84
f 159//159 84//84 158//158
f 158//158 84//84 85//85
f 158//158 85//85 157//157
f 157//157 85//85 86//86
f 157//157 86//86 156//156
f 156//156 86//86 87//87
f 156//156 87//87 155//155
f 155//155 87//87 88//88
f 155//155 88//88 154//154
f 154//154 88//88 89//89
f 154//154 89//89 153//153
f 153//153 89//89 90//90
f 153//153 90//90 152//152
f 152//152 90//90 91//91
f 152//152 91//91 151//151
f 151//151 91//91 92//92
f 151//151 92//92 150//150
f 150//150 92//92 93//93
f 150//150 93//93 149//149
f 149//149 93//93 94//94
f 149//149 94//94 148//148
f 148//148 94//94 95//95
f 148//148 95//95 147//147
f 147//147 95//95 96//96
f 147//147 96//96 146//146
f 146//146 96//96 97//97
f 146//146 97//97 145//145
f 145//145 97//97 98//98
f 145//145 98//98 144//144
f 144//144 98//98 99//99
f 144//144 99//99 143//143
f 143//143 99//99 100//100
f 143//143 100//100 142//142
f 142//142 100//100 101//101
f 142//142 101//101 141//141
f 141//141 101//101 102//102
f 141//141 102//102 140//140
f 140//140 102//102 103//103
f 140//140 103//103 139//139
f 139//139 103//103 104//104
f 139//139 104//104 138//138
f 138//138 104//104 105//105
f 138//138 105//105 137//137
f 137//137 105//105 106//106
f 137//137 106//106 136//136
f 136//136 106//106 107//107
f 136//136 107//107 135//135
f 135//135 107//107 108//108
f 135//135 108//108 134//134
f 134//134 108//108 109//109
f 134//134 109//109 133//133
f 133//133 109//109 110//110
f 133//133 110//110 132//132
f 132//132 110//110 111//111
f 132//132 111//111 131//131
f 131//131 111//111 112//112
f 131//131 112//112 130//130
f 130//130 112//112 113//113
f 130//130 113//113 129//129
f 129//129 113//113 114//114
f 129//129 114//114 128//128
f 128//128 114//114 115//115
f 128//128 115//115 127//127
f 127//127 115//115 116//116
f 127//127 116//116 126//126
f 126//126 116//116 117//117
f 126//126 117//117 125//125
f 125//125 117//117 118//118
f 125//125 118//118 124//124
f 124//124 118//118 119//119
f 124//124 119//119 123//123
f 123//123 119//119 120//120
g 3e672efe-e343-11ea-bd4f-54bf646e7e1f
f 166//166 185//185 165//165
f 165//165 185//185 186//186
f 165//165 186//186 206//206
f 206//206 186//186 187//187
f 206//206 187//187 205//205
f 205//205 187//187 188//188
f 205//205 188//188 204//204
f 204//204 188//188 189//189
f 204//204 189//189 203//203
f 203//203 189//189 190//190
f 203//203 190//190 202//202
f 202//202 190//190 191//191
f 202//202 191//191 201//201
f 201//201 191//191 192//192
f 201//201 192//192 200//200
f 200//200 192//192 193//193
f 200//200 193//193 199//199
f 199//199 193//193 194//194
f 199//199 194//194 198//198
f 198//198 194//194 195//195
f 198//198 195//195 197//197
f 197//197 195//195 196//196
f 185//185 166//166 184//184
f 184//184 166//166 167//167
f 184//184 167//167 183//183
f 183//183 167//167 168//168
f 183//183 168//168 182//182
f 182//182 168//168 169//169
f 182//182 169//169 181//181
f 181//181 169//169 170//170
f 181//181 170//170 180//180
f 180//180 170//170 171//171
f 180//180 171//171 179//179
f 179//179 171//171 172//172
f 179//179 172//172 178//178
f 178//178 172//172 173//173
f 178//178 173//173 177//177
f 177//177 173//173 174//174
f 177//177 174//174 176//176
f 176//176 174//174 175//175

# End of file