# WaveFront *.obj file
# Vertices: 24
# Triangles : 12

v -25.399999618530273 0.0 -26.670000076293945
v -25.399999618530273 0.0 26.670000076293945
v -25.399999618530273 50.79999923706055 26.670000076293945
v -25.399999618530273 50.79999923706055 -26.670000076293945
v 25.399999618530273 0.0 -26.670000076293945
v -25.399999618530273 0.0 -26.670000076293945
v -25.399999618530273 50.79999923706055 -26.670000076293945
v 25.399999618530273 50.79999923706055 -26.670000076293945
v 25.399999618530273 0.0 26.670000076293945
v 25.399999618530273 0.0 -26.670000076293945
v 25.399999618530273 50.79999923706055 -26.670000076293945
v 25.399999618530273 50.79999923706055 26.670000076293945
v -25.399999618530273 0.0 26.670000076293945
v 25.399999618530273 0.0 26.670000076293945
v 25.399999618530273 50.79999923706055 26.670000076293945
v -25.399999618530273 50.79999923706055 26.670000076293945
v -25.399999618530273 50.79999923706055 26.670000076293945
v 25.399999618530273 50.79999923706055 26.670000076293945
v 25.399999618530273 50.79999923706055 -26.670000076293945
v -25.399999618530273 50.79999923706055 -26.670000076293945
v 25.399999618530273 0.0 26.670000076293945
v -25.399999618530273 0.0 26.670000076293945
v -25.399999618530273 0.0 -26.670000076293945
v 25.399999618530273 0.0 -26.670000076293945
vn -1.0 0.0 0.0
vn -1.0 0.0 0.0
vn -1.0 0.0 0.0
vn -1.0 0.0 0.0
vn 0.0 0.0 -1.0
vn 0.0 0.0 -1.0
vn 0.0 0.0 -1.0
vn 0.0 0.0 -1.0
vn 1.0 0.0 0.0
vn 1.0 0.0 0.0
vn 1.0 0.0 0.0
vn 1.0 0.0 0.0
vn 0.0 -0.0 1.0
vn 0.0 -0.0 1.0
vn 0.0 -0.0 1.0
vn 0.0 -0.0 1.0
vn 0.0 1.0 0.0
vn 0.0 1.0 0.0
vn 0.0 1.0 0.0
vn 0.0 1.0 0.0
vn -0.0 -1.0 -0.0
vn -0.0 -1.0 -0.0
vn -0.0 -1.0 -0.0
vn -0.0 -1.0 -0.0
g fdc8445a-e344-11ea-bd50-54bf646e7e1f
f 1//1 2//2 4//4
f 4//4 2//2 3//3
g fdc8e080-e344-11ea-9c0c-54bf646e7e1f
f 5//5 6//6 8//8
f 8//8 6//6 7//7
g fdc955ba-e344-11ea-b74e-54bf646e7e1f
f 9//9 10//10 12//12
f 12//12 10//10 11//11
g fdc9f1fa-e344-11ea-b3c3-54bf646e7e1f
f 13//13 14//14 16//16
f 16//16 14//14 15//15
g fdca6746-e344-11ea-acea-54bf646e7e1f
f 18//18 19//19 17//17
f 17//17 19//19 20//20
g fdcb03be-e344-11ea-a0dd-54bf646e7e1f
f 21//21 22//22 24//24
f 24//24 22//22 23//23

# End of file