# WaveFront *.obj file
# Vertices: 36
# Triangles : 20

v 0.28867512941360474 0.0 1.7025199450666886e-16
v 0.14433756470680237 0.0 -0.25
v 0.14433756470680237 0.25 -0.25
v 0.28867512941360474 0.25 1.6653345369377348e-16
v 0.14433756470680237 0.0 0.25
v 0.28867512941360474 0.0 1.7025199450666886e-16
v 0.28867512941360474 0.25 1.6653345369377348e-16
v 0.14433756470680237 0.25 0.25
v -0.14433756470680237 0.0 0.25
v 0.14433756470680237 0.0 0.25
v 0.14433756470680237 0.25 0.25
v -0.14433756470680237 0.25 0.25
v -0.28867512941360474 0.0 -1.1102230246251565e-16
v -0.14433756470680237 0.0 0.25
v -0.14433756470680237 0.25 0.25
v -0.28867512941360474 0.25 -1.1102230246251565e-16
v -0.14433756470680237 0.0 -0.25
v -0.28867512941360474 0.0 -1.1102230246251565e-16
v -0.28867512941360474 0.25 -1.1102230246251565e-16
v -0.14433756470680237 0.25 -0.25
v 0.14433756470680237 0.0 -0.25
v -0.14433756470680237 0.0 -0.25
v -0.14433756470680237 0.25 -0.25
v 0.14433756470680237 0.25 -0.25
v 0.14433756470680237 0.25 -0.25
v -0.14433756470680237 0.25 -0.25
v -0.28867512941360474 0.25 -1.1102230246251565e-16
v -0.14433756470680237 0.25 0.25
v 0.14433756470680237 0.25 0.25
v 0.28867512941360474 0.25 1.6653345369377348e-16
v -0.14433756470680237 0.0 -0.25
v 0.14433756470680237 0.0 -0.25
v 0.28867512941360474 0.0 1.7025199450666886e-16
v 0.14433756470680237 0.0 0.25
v -0.14433756470680237 0.0 0.25
v -0.28867512941360474 0.0 -1.1102230246251565e-16
vn 0.8660253882408142 0.0 -0.5
vn 0.8660253882408142 0.0 -0.5
vn 0.8660253882408142 0.0 -0.5
vn 0.8660253882408142 0.0 -0.5
vn 0.8660253882408142 -0.0 0.5
vn 0.8660253882408142 -0.0 0.5
vn 0.8660253882408142 -0.0 0.5
vn 0.8660253882408142 -0.0 0.5
vn -1.9229626518697845e-16 0.0 1.0
vn -1.9229626518697845e-16 0.0 1.0
vn -1.9229626518697845e-16 0.0 1.0
vn -1.9229626518697845e-16 0.0 1.0
vn -0.8660253882408142 0.0 0.5
vn -0.8660253882408142 0.0 0.5
vn -0.8660253882408142 0.0 0.5
vn -0.8660253882408142 0.0 0.5
vn -0.8660253882408142 0.0 -0.5
vn -0.8660253882408142 0.0 -0.5
vn -0.8660253882408142 0.0 -0.5
vn -0.8660253882408142 0.0 -0.5
vn 5.768887823260455e-16 0.0 -1.0
vn 5.768887823260455e-16 0.0 -1.0
vn 5.768887823260455e-16 0.0 -1.0
vn 5.768887823260455e-16 0.0 -1.0
vn 0.0 1.0 0.0
vn 0.0 1.0 0.0
vn 0.0 1.0 0.0
vn 0.0 1.0 0.0
vn 0.0 1.0 0.0
vn 0.0 1.0 0.0
vn -0.0 -1.0 -0.0
vn -0.0 -1.0 -0.0
vn -0.0 -1.0 -0.0
vn -0.0 -1.0 -0.0
vn -0.0 -1.0 -0.0
vn -0.0 -1.0 -0.0
g 99d0b610-e348-11ea-a327-54bf646e7e1f
f 1//1 2//2 4//4
f 4//4 2//2 3//3
g 99db6498-e348-11ea-841b-54bf646e7e1f
f 5//5 6//6 8//8
f 8//8 6//6 7//7
g 9a0ef83a-e348-11ea-b294-54bf646e7e1f
f 9//9 10//10 12//12
f 12//12 10//10 11//11
g 9a1cb414-e348-11ea-b24a-54bf646e7e1f
f 13//13 14//14 16//16
f 16//16 14//14 15//15
g 9a2d7d0a-e348-11ea-89b1-54bf646e7e1f
f 17//17 18//18 20//20
f 20//20 18//18 19//19
g 9a3c2354-e348-11ea-aa84-54bf646e7e1f
f 21//21 22//22 24//24
f 24//24 22//22 23//23
g 9a471fc2-e348-11ea-82ee-54bf646e7e1f
f 26//26 27//27 25//25
f 25//25 27//27 30//30
f 30//30 27//27 28//28
f 30//30 28//28 29//29
g 9a51a736-e348-11ea-b2e3-54bf646e7e1f
f 31//31 32//32 36//36
f 36//36 32//32 33//33
f 36//36 33//33 35//35
f 35//35 33//33 34//34

# End of file