# WaveFront *.obj file
# Vertices: 146
# Triangles : 140

v 1.0500000715255737 7.599999904632568 -0.9599999785423279
v 1.0537980794906616 7.643412113189697 -0.9599999785423279
v 1.0650768280029297 7.685504913330078 -0.9599999785423279
v 1.083493709564209 7.724999904632568 -0.9599999785423279
v 1.108488917350769 7.760696887969971 -0.9599999785423279
v 1.1393030881881714 7.791511058807373 -0.9599999785423279
v 1.1750000715255737 7.816506385803223 -0.9599999785423279
v 1.2144949436187744 7.834923267364502 -0.9599999785423279
v 1.2565879821777344 7.8462018966674805 -0.9599999785423279
v 1.3000000715255737 7.849999904632568 -0.9599999785423279
v 1.3434120416641235 7.8462018966674805 -0.9599999785423279
v 1.3855050802230835 7.834923267364502 -0.9599999785423279
v 1.4250000715255737 7.816506385803223 -0.9599999785423279
v 1.4606969356536865 7.791511058807373 -0.9599999785423279
v 1.4915111064910889 7.760696887969971 -0.9599999785423279
v 1.516506314277649 7.724999904632568 -0.9599999785423279
v 1.5349231958389282 7.685504913330078 -0.9599999785423279
v 1.5462019443511963 7.643412113189697 -0.9599999785423279
v 1.5500000715255737 7.599999904632568 -0.9599999785423279
v 1.5462019443511963 7.556588172912598 -0.9599999785423279
v 1.5349231958389282 7.514494895935059 -0.9599999785423279
v 1.516506314277649 7.474999904632568 -0.9599999785423279
v 1.4915111064910889 7.439303398132324 -0.9599999785423279
v 1.4606969356536865 7.408489227294922 -0.9599999785423279
v 1.4250000715255737 7.383493900299072 -0.9599999785423279
v 1.3855050802230835 7.365077018737793 -0.9599999785423279
v 1.3434120416641235 7.3537983894348145 -0.9599999785423279
v 1.3000000715255737 7.349999904632568 -0.9599999785423279
v 1.2565879821777344 7.3537983894348145 -0.9599999785423279
v 1.2144949436187744 7.365077018737793 -0.9599999785423279
v 1.1750000715255737 7.383493900299072 -0.9599999785423279
v 1.1393030881881714 7.408489227294922 -0.9599999785423279
v 1.108488917350769 7.439303398132324 -0.9599999785423279
v 1.083493709564209 7.474999904632568 -0.9599999785423279
v 1.0650768280029297 7.514494895935059 -0.9599999785423279
v 1.0537980794906616 7.556588172912598 -0.9599999785423279
v 1.0500000715255737 7.599999904632568 -0.9599999785423279
v 1.0537980794906616 7.556588172912598 -0.9599999785423279
v 1.0650768280029297 7.514494895935059 -0.9599999785423279
v 1.083493709564209 7.474999904632568 -0.9599999785423279
v 1.108488917350769 7.439303398132324 -0.9599999785423279
v 1.1393030881881714 7.408489227294922 -0.9599999785423279
v 1.1750000715255737 7.383493900299072 -0.9599999785423279
v 1.2144949436187744 7.365077018737793 -0.9599999785423279
v 1.2565879821777344 7.3537983894348145 -0.9599999785423279
v 1.3000000715255737 7.349999904632568 -0.9599999785423279
v 1.3434120416641235 7.3537983894348145 -0.9599999785423279
v 1.3855050802230835 7.365077018737793 -0.9599999785423279
v 1.4250000715255737 7.383493900299072 -0.9599999785423279
v 1.4606969356536865 7.408489227294922 -0.9599999785423279
v 1.4915111064910889 7.439303398132324 -0.9599999785423279
v 1.516506314277649 7.474999904632568 -0.9599999785423279
v 1.5349231958389282 7.514494895935059 -0.9599999785423279
v 1.5462019443511963 7.556588172912598 -0.9599999785423279
v 1.5500000715255737 7.599999904632568 -0.9599999785423279
v 1.5462019443511963 7.643412113189697 -0.9599999785423279
v 1.5349231958389282 7.685504913330078 -0.9599999785423279
v 1.516506314277649 7.724999904632568 -0.9599999785423279
v 1.4915111064910889 7.760696887969971 -0.9599999785423279
v 1.4606969356536865 7.791511058807373 -0.9599999785423279
v 1.4250000715255737 7.816506385803223 -0.9599999785423279
v 1.3855050802230835 7.834923267364502 -0.9599999785423279
v 1.3434120416641235 7.8462018966674805 -0.9599999785423279
v 1.3000000715255737 7.849999904632568 -0.9599999785423279
v 1.2565879821777344 7.8462018966674805 -0.9599999785423279
v 1.2144949436187744 7.834923267364502 -0.9599999785423279
v 1.1750000715255737 7.816506385803223 -0.9599999785423279
v 1.1393030881881714 7.791511058807373 -0.9599999785423279
v 1.108488917350769 7.760696887969971 -0.9599999785423279
v 1.083493709564209 7.724999904632568 -0.9599999785423279
v 1.0650768280029297 7.685504913330078 -0.9599999785423279
v 1.0537980794906616 7.643412113189697 -0.9599999785423279
v 1.0500000715255737 7.599999904632568 0.9599999785423279
v 1.0537980794906616 7.643412113189697 0.9599999785423279
v 1.0650768280029297 7.685504913330078 0.9599999785423279
v 1.083493709564209 7.724999904632568 0.9599999785423279
v 1.108488917350769 7.760696887969971 0.9599999785423279
v 1.1393030881881714 7.791511058807373 0.9599999785423279
v 1.1750000715255737 7.816506385803223 0.9599999785423279
v 1.2144949436187744 7.834923267364502 0.9599999785423279
v 1.2565879821777344 7.8462018966674805 0.9599999785423279
v 1.3000000715255737 7.849999904632568 0.9599999785423279
v 1.3434120416641235 7.8462018966674805 0.9599999785423279
v 1.3855050802230835 7.834923267364502 0.9599999785423279
v 1.4250000715255737 7.816506385803223 0.9599999785423279
v 1.4606969356536865 7.791511058807373 0.9599999785423279
v 1.4915111064910889 7.760696887969971 0.9599999785423279
v 1.516506314277649 7.724999904632568 0.9599999785423279
v 1.5349231958389282 7.685504913330078 0.9599999785423279
v 1.5462019443511963 7.643412113189697 0.9599999785423279
v 1.5500000715255737 7.599999904632568 0.9599999785423279
v 1.5462019443511963 7.556588172912598 0.9599999785423279
v 1.5349231958389282 7.514494895935059 0.9599999785423279
v 1.516506314277649 7.474999904632568 0.9599999785423279
v 1.4915111064910889 7.439303398132324 0.9599999785423279
v 1.4606969356536865 7.408489227294922 0.9599999785423279
v 1.4250000715255737 7.383493900299072 0.9599999785423279
v 1.3855050802230835 7.365077018737793 0.9599999785423279
v 1.3434120416641235 7.3537983894348145 0.9599999785423279
v 1.3000000715255737 7.349999904632568 0.9599999785423279
v 1.2565879821777344 7.3537983894348145 0.9599999785423279
v 1.2144949436187744 7.365077018737793 0.9599999785423279
v 1.1750000715255737 7.383493900299072 0.9599999785423279
v 1.1393030881881714 7.408489227294922 0.9599999785423279
v 1.108488917350769 7.439303398132324 0.9599999785423279
v 1.083493709564209 7.474999904632568 0.9599999785423279
v 1.0650768280029297 7.514494895935059 0.9599999785423279
v 1.0537980794906616 7.556588172912598 0.9599999785423279
v 1.0500000715255737 7.599999904632568 -0.9599999785423279
v 1.0500000715255737 7.599999904632568 0.9599999785423279
v 1.0500000715255737 7.599999904632568 0.9599999785423279
v 1.0537980794906616 7.556588172912598 0.9599999785423279
v 1.0650768280029297 7.514494895935059 0.9599999785423279
v 1.083493709564209 7.474999904632568 0.9599999785423279
v 1.108488917350769 7.439303398132324 0.9599999785423279
v 1.1393030881881714 7.408489227294922 0.9599999785423279
v 1.1750000715255737 7.383493900299072 0.9599999785423279
v 1.2144949436187744 7.365077018737793 0.9599999785423279
v 1.2565879821777344 7.3537983894348145 0.9599999785423279
v 1.3000000715255737 7.349999904632568 0.9599999785423279
v 1.3434120416641235 7.3537983894348145 0.9599999785423279
v 1.3855050802230835 7.365077018737793 0.9599999785423279
v 1.4250000715255737 7.383493900299072 0.9599999785423279
v 1.4606969356536865 7.408489227294922 0.9599999785423279
v 1.4915111064910889 7.439303398132324 0.9599999785423279
v 1.516506314277649 7.474999904632568 0.9599999785423279
v 1.5349231958389282 7.514494895935059 0.9599999785423279
v 1.5462019443511963 7.556588172912598 0.9599999785423279
v 1.5500000715255737 7.599999904632568 0.9599999785423279
v 1.5462019443511963 7.643412113189697 0.9599999785423279
v 1.5349231958389282 7.685504913330078 0.9599999785423279
v 1.516506314277649 7.724999904632568 0.9599999785423279
v 1.4915111064910889 7.760696887969971 0.9599999785423279
v 1.4606969356536865 7.791511058807373 0.9599999785423279
v 1.4250000715255737 7.816506385803223 0.9599999785423279
v 1.3855050802230835 7.834923267364502 0.9599999785423279
v 1.3434120416641235 7.8462018966674805 0.9599999785423279
v 1.3000000715255737 7.849999904632568 0.9599999785423279
v 1.2565879821777344 7.8462018966674805 0.9599999785423279
v 1.2144949436187744 7.834923267364502 0.9599999785423279
v 1.1750000715255737 7.816506385803223 0.9599999785423279
v 1.1393030881881714 7.791511058807373 0.9599999785423279
v 1.108488917350769 7.760696887969971 0.9599999785423279
v 1.083493709564209 7.724999904632568 0.9599999785423279
v 1.0650768280029297 7.685504913330078 0.9599999785423279
v 1.0537980794906616 7.643412113189697 0.9599999785423279
vn -0.0 -0.0 -1.0
vn -0.0 -0.0 -1.0
vn -0.0 -0.0 -1.0
vn -0.0 -0.0 -1.0
vn -0.0 -0.0 -1.0
vn -0.0 -0.0 -1.0
vn -0.0 -0.0 -1.0
vn -0.0 -0.0 -1.0
vn -0.0 -0.0 -1.0
vn -0.0 -0.0 -1.0
vn -0.0 -0.0 -1.0
vn -0.0 -0.0 -1.0
vn -0.0 -0.0 -1.0
vn -0.0 -0.0 -1.0
vn -0.0 -0.0 -1.0
vn -0.0 -0.0 -1.0
vn -0.0 -0.0 -1.0
vn -0.0 -0.0 -1.0
vn -0.0 -0.0 -1.0
vn -0.0 -0.0 -1.0
vn -0.0 -0.0 -1.0
vn -0.0 -0.0 -1.0
vn -0.0 -0.0 -1.0
vn -0.0 -0.0 -1.0
vn -0.0 -0.0 -1.0
vn -0.0 -0.0 -1.0
vn -0.0 -0.0 -1.0
vn -0.0 -0.0 -1.0
vn -0.0 -0.0 -1.0
vn -0.0 -0.0 -1.0
vn -0.0 -0.0 -1.0
vn -0.0 -0.0 -1.0
vn -0.0 -0.0 -1.0
vn -0.0 -0.0 -1.0
vn -0.0 -0.0 -1.0
vn -0.0 -0.0 -1.0
vn -1.0 -1.2246468525851679e-16 0.0
vn -0.9848077297210693 -0.1736481785774231 0.0
vn -0.9396926164627075 -0.3420201539993286 0.0
vn -0.8660253882408142 -0.5 0.0
vn -0.7660444378852844 -0.6427876353263855 0.0
vn -0.6427876353263855 -0.7660444378852844 0.0
vn -0.5 -0.8660253882408142 0.0
vn -0.3420201539993286 -0.9396926164627075 0.0
vn -0.1736481785774231 -0.9848077297210693 0.0
vn 6.123234262925839e-17 -1.0 -0.0
vn 0.1736481785774231 -0.9848077297210693 -0.0
vn 0.3420201539993286 -0.9396926164627075 -0.0
vn 0.5 -0.8660253882408142 -0.0
vn 0.6427876353263855 -0.7660444378852844 -0.0
vn 0.7660444378852844 -0.6427876353263855 -0.0
vn 0.8660253882408142 -0.5 -0.0
vn 0.9396926164627075 -0.3420201539993286 -0.0
vn 0.9848077297210693 -0.1736481785774231 -0.0
vn 1.0 -0.0 -0.0
vn 0.9848077297210693 0.1736481785774231 -0.0
vn 0.9396926164627075 0.3420201539993286 -0.0
vn 0.8660253882408142 0.5 -0.0
vn 0.7660444378852844 0.6427876353263855 -0.0
vn 0.6427876353263855 0.7660444378852844 -0.0
vn 0.5 0.8660253882408142 -0.0
vn 0.3420201539993286 0.9396926164627075 -0.0
vn 0.1736481785774231 0.9848077297210693 -0.0
vn 6.123234262925839e-17 1.0 -0.0
vn -0.1736481785774231 0.9848077297210693 -0.0
vn -0.3420201539993286 0.9396926164627075 -0.0
vn -0.5 0.8660253882408142 -0.0
vn -0.6427876353263855 0.7660444378852844 -0.0
vn -0.7660444378852844 0.6427876353263855 -0.0
vn -0.8660253882408142 0.5 -0.0
vn -0.9396926164627075 0.3420201539993286 -0.0
vn -0.9848077297210693 0.1736481785774231 -0.0
vn -1.0 1.2246468525851679e-16 -0.0
vn -0.9848077297210693 0.1736481785774231 -0.0
vn -0.9396926164627075 0.3420201539993286 -0.0
vn -0.8660253882408142 0.5 -0.0
vn -0.7660444378852844 0.6427876353263855 -0.0
vn -0.6427876353263855 0.7660444378852844 -0.0
vn -0.5 0.8660253882408142 -0.0
vn -0.3420201539993286 0.9396926164627075 -0.0
vn -0.1736481785774231 0.9848077297210693 -0.0
vn 6.123234262925839e-17 1.0 -0.0
vn 0.1736481785774231 0.9848077297210693 -0.0
vn 0.3420201539993286 0.9396926164627075 -0.0
vn 0.5 0.8660253882408142 -0.0
vn 0.6427876353263855 0.7660444378852844 -0.0
vn 0.7660444378852844 0.6427876353263855 -0.0
vn 0.8660253882408142 0.5 -0.0
vn 0.9396926164627075 0.3420201539993286 -0.0
vn 0.9848077297210693 0.1736481785774231 -0.0
vn 1.0 -0.0 -0.0
vn 0.9848077297210693 -0.1736481785774231 -0.0
vn 0.9396926164627075 -0.3420201539993286 -0.0
vn 0.8660253882408142 -0.5 -0.0
vn 0.7660444378852844 -0.6427876353263855 -0.0
vn 0.6427876353263855 -0.7660444378852844 -0.0
vn 0.5 -0.8660253882408142 -0.0
vn 0.3420201539993286 -0.9396926164627075 -0.0
vn 0.1736481785774231 -0.9848077297210693 -0.0
vn 6.123234262925839e-17 -1.0 -0.0
vn -0.1736481785774231 -0.9848077297210693 0.0
vn -0.3420201539993286 -0.9396926164627075 0.0
vn -0.5 -0.8660253882408142 0.0
vn -0.6427876353263855 -0.7660444378852844 0.0
vn -0.7660444378852844 -0.6427876353263855 0.0
vn -0.8660253882408142 -0.5 0.0
vn -0.9396926164627075 -0.3420201539993286 0.0
vn -0.9848077297210693 -0.1736481785774231 0.0
vn -1.0 1.2246468525851679e-16 -0.0
vn -1.0 -1.2246468525851679e-16 0.0
vn 0.0 0.0 1.0
vn 0.0 0.0 1.0
vn 0.0 0.0 1.0
vn 0.0 0.0 1.0
vn 0.0 0.0 1.0
vn 0.0 0.0 1.0
vn 0.0 0.0 1.0
vn 0.0 0.0 1.0
vn 0.0 0.0 1.0
vn 0.0 0.0 1.0
vn 0.0 0.0 1.0
vn 0.0 0.0 1.0
vn 0.0 0.0 1.0
vn 0.0 0.0 1.0
vn 0.0 0.0 1.0
vn 0.0 0.0 1.0
vn 0.0 0.0 1.0
vn 0.0 0.0 1.0
vn 0.0 0.0 1.0
vn 0.0 0.0 1.0
vn 0.0 0.0 1.0
vn 0.0 0.0 1.0
vn 0.0 0.0 1.0
vn 0.0 0.0 1.0
vn 0.0 0.0 1.0
vn 0.0 0.0 1.0
vn 0.0 0.0 1.0
vn 0.0 0.0 1.0
vn 0.0 0.0 1.0
vn 0.0 0.0 1.0
vn 0.0 0.0 1.0
vn 0.0 0.0 1.0
vn 0.0 0.0 1.0
vn 0.0 0.0 1.0
vn 0.0 0.0 1.0
vn 0.0 0.0 1.0
g fa3c3300-e349-11ea-b5bf-54bf646e7e1f
f 2//2 18//18 1//1
f 1//1 18//18 19//19
f 1//1 19//19 36//36
f 36//36 19//19 20//20
f 36//36 20//20 35//35
f 35//35 20//20 21//21
f 35//35 21//21 34//34
f 34//34 21//21 22//22
f 34//34 22//22 33//33
f 33//33 22//22 23//23
f 33//33 23//23 32//32
f 32//32 23//23 24//24
f 32//32 24//24 31//31
f 31//31 24//24 25//25
f 31//31 25//25 30//30
f 30//30 25//25 26//26
f 30//30 26//26 29//29
f 29//29 26//26 27//27
f 29//29 27//27 28//28
f 18//18 2//2 17//17
f 17//17 2//2 3//3
f 17//17 3//3 16//16
f 16//16 3//3 4//4
f 16//16 4//4 15//15
f 15//15 4//4 5//5
f 15//15 5//5 14//14
f 14//14 5//5 6//6
f 14//14 6//6 13//13
f 13//13 6//6 7//7
f 13//13 7//7 12//12
f 12//12 7//7 8//8
f 12//12 8//8 11//11
f 11//11 8//8 9//9
f 11//11 9//9 10//10
g fa3c8112-e349-11ea-86a5-54bf646e7e1f
f 38//38 108//108 37//37
f 37//37 108//108 110//110
f 109//109 73//73 72//72
f 72//72 73//73 74//74
f 72//72 74//74 71//71
f 71//71 74//74 75//75
f 71//71 75//75 70//70
f 70//70 75//75 76//76
f 70//70 76//76 69//69
f 69//69 76//76 77//77
f 69//69 77//77 68//68
f 68//68 77//77 78//78
f 68//68 78//78 67//67
f 67//67 78//78 79//79
f 67//67 79//79 66//66
f 66//66 79//79 80//80
f 66//66 80//80 65//65
f 65//65 80//80 81//81
f 65//65 81//81 64//64
f 64//64 81//81 82//82
f 64//64 82//82 63//63
f 63//63 82//82 83//83
f 63//63 83//83 62//62
f 62//62 83//83 84//84
f 62//62 84//84 61//61
f 61//61 84//84 85//85
f 61//61 85//85 60//60
f 60//60 85//85 86//86
f 60//60 86//86 59//59
f 59//59 86//86 87//87
f 59//59 87//87 58//58
f 58//58 87//87 88//88
f 58//58 88//88 57//57
f 57//57 88//88 89//89
f 57//57 89//89 56//56
f 56//56 89//89 90//90
f 56//56 90//90 55//55
f 55//55 90//90 91//91
f 55//55 91//91 54//54
f 54//54 91//91 92//92
f 54//54 92//92 53//53
f 53//53 92//92 93//93
f 53//53 93//93 52//52
f 52//52 93//93 94//94
f 52//52 94//94 51//51
f 51//51 94//94 95//95
f 51//51 95//95 50//50
f 50//50 95//95 96//96
f 50//50 96//96 49//49
f 49//49 96//96 97//97
f 49//49 97//97 48//48
f 48//48 97//97 98//98
f 48//48 98//98 47//47
f 47//47 98//98 99//99
f 47//47 99//99 46//46
f 46//46 99//99 100//100
f 46//46 100//100 45//45
f 45//45 100//100 101//101
f 45//45 101//101 44//44
f 44//44 101//101 102//102
f 44//44 102//102 43//43
f 43//43 102//102 103//103
f 43//43 103//103 42//42
f 42//42 103//103 104//104
f 42//42 104//104 41//41
f 41//41 104//104 105//105
f 41//41 105//105 40//40
f 40//40 105//105 106//106
f 40//40 106//106 39//39
f 39//39 106//106 107//107
f 39//39 107//107 38//38
f 38//38 107//107 108//108
g fa3ca826-e349-11ea-8a39-54bf646e7e1f
f 112//112 128//128 111//111
f 111//111 128//128 129//129
f 111//111 129//129 146//146
f 146//146 129//129 130//130
f 146//146 130//130 145//145
f 145//145 130//130 131//131
f 145//145 131//131 144//144
f 144//144 131//131 132//132
f 144//144 132//132 143//143
f 143//143 132//132 133//133
f 143//143 133//133 142//142
f 142//142 133//133 134//134
f 142//142 134//134 141//141
f 141//141 134//134 135//135
f 141//141 135//135 140//140
f 140//140 135//135 136//136
f 140//140 136//136 139//139
f 139//139 136//136 137//137
f 139//139 137//137 138//138
f 128//128 112//112 127//127
f 127//127 112//112 113//113
f 127//127 113//113 126//126
f 126//126 113//113 114//114
f 126//126 114//114 125//125
f 125//125 114//114 115//115
f 125//125 115//115 124//124
f 124//124 115//115 116//116
f 124//124 116//116 123//123
f 123//123 116//116 117//117
f 123//123 117//117 122//122
f 122//122 117//117 118//118
f 122//122 118//118 121//121
f 121//121 118//118 119//119
f 121//121 119//119 120//120

# End of file