# WaveFront *.obj file
# Vertices: 208
# Triangles : 188

v -5.900003910064697 0.0 -8.935514450073242
v -5.463691234588623 0.0 -9.566048622131348
v -5.103453636169434 0.0 -10.24293041229248
v -4.824152946472168 0.0 -10.957026481628418
v -4.62955904006958 0.0 -11.69869613647461
v -4.522298336029053 0.0 -12.457930564880371
v -4.503818511962891 0.0 -13.224480628967285
v -4.503818511962891 -0.949999988079071 -13.224480628967285
v -4.522298336029053 -0.949999988079071 -12.457930564880371
v -4.62955904006958 -0.949999988079071 -11.69869613647461
v -4.824152946472168 -0.949999988079071 -10.957026481628418
v -5.103453636169434 -0.949999988079071 -10.24293041229248
v -5.463691234588623 -0.949999988079071 -9.566048622131348
v -5.900003910064697 -0.949999988079071 -8.935514450073242
v -5.900010585784912 0.0 8.935506820678711
v -5.900003910064697 0.0 -8.935514450073242
v -5.900003910064697 -0.949999988079071 -8.935514450073242
v -5.900010585784912 -0.949999988079071 8.935506820678711
v -4.503819465637207 0.0 13.224480628967285
v -4.522299289703369 0.0 12.457928657531738
v -4.6295599937438965 0.0 11.698692321777344
v -4.824154853820801 0.0 10.95702075958252
v -5.103456974029541 0.0 10.242924690246582
v -5.463696002960205 0.0 9.566040992736816
v -5.900010585784912 0.0 8.935506820678711
v -5.900010585784912 -0.949999988079071 8.935506820678711
v -5.463696002960205 -0.949999988079071 9.566040992736816
v -5.103456974029541 -0.949999988079071 10.242924690246582
v -4.824154853820801 -0.949999988079071 10.95702075958252
v -4.6295599937438965 -0.949999988079071 11.698692321777344
v -4.522299289703369 -0.949999988079071 12.457928657531738
v -4.503819465637207 -0.949999988079071 13.224480628967285
v 4.503818511962891 0.0 13.224480628967285
v 3.8051462173461914 0.0 13.792667388916016
v 3.0356311798095703 0.0 14.260456085205078
v 2.2096004486083984 0.0 14.619136810302734
v 1.3424322605133057 0.0 14.86203384399414
v 0.4502713978290558 0.0 14.984622955322266
v -0.45027241110801697 0.0 14.984622955322266
v -1.3424333333969116 0.0 14.862032890319824
v -2.209601402282715 0.0 14.619136810302734
v -3.0356321334838867 0.0 14.260455131530762
v -3.8051469326019287 0.0 13.792667388916016
v -4.503819465637207 0.0 13.224480628967285
v -4.503819465637207 -0.949999988079071 13.224480628967285
v -3.8051469326019287 -0.949999988079071 13.792667388916016
v -3.0356321334838867 -0.949999988079071 14.260455131530762
v -2.209601402282715 -0.949999988079071 14.619136810302734
v -1.3424333333969116 -0.949999988079071 14.862032890319824
v -0.45027241110801697 -0.949999988079071 14.984622955322266
v 0.4502713978290558 -0.949999988079071 14.984622955322266
v 1.3424322605133057 -0.949999988079071 14.86203384399414
v 2.2096004486083984 -0.949999988079071 14.619136810302734
v 3.0356311798095703 -0.949999988079071 14.260456085205078
v 3.8051462173461914 -0.949999988079071 13.792667388916016
v 4.503818511962891 -0.949999988079071 13.224480628967285
v 5.90000057220459 0.0 8.935519218444824
v 5.463688850402832 0.0 9.566052436828613
v 5.103452205657959 0.0 10.242934226989746
v 4.824151992797852 0.0 10.957029342651367
v 4.629558563232422 0.0 11.698698043823242
v 4.522298336029053 0.0 12.457931518554688
v 4.503818511962891 0.0 13.224480628967285
v 4.503818511962891 -0.949999988079071 13.224480628967285
v 4.522298336029053 -0.949999988079071 12.457931518554688
v 4.629558563232422 -0.949999988079071 11.698698043823242
v 4.824151992797852 -0.949999988079071 10.957029342651367
v 5.103452205657959 -0.949999988079071 10.242934226989746
v 5.463688850402832 -0.949999988079071 9.566052436828613
v 5.90000057220459 -0.949999988079071 8.935519218444824
v 5.900007247924805 0.0 -8.935508728027344
v 5.90000057220459 0.0 8.935519218444824
v 5.90000057220459 -0.949999988079071 8.935519218444824
v 5.900007247924805 -0.949999988079071 -8.935508728027344
v 4.5038161277771 0.0 -13.224481582641602
v 4.522295951843262 0.0 -12.457929611206055
v 4.629557132720947 0.0 -11.698694229125977
v 4.824151992797852 0.0 -10.957022666931152
v 5.103453636169434 0.0 -10.242925643920898
v 5.463692665100098 0.0 -9.56604290008545
v 5.900007247924805 0.0 -8.935508728027344
v 5.900007247924805 -0.949999988079071 -8.935508728027344
v 5.463692665100098 -0.949999988079071 -9.56604290008545
v 5.103453636169434 -0.949999988079071 -10.242925643920898
v 4.824151992797852 -0.949999988079071 -10.957022666931152
v 4.629557132720947 -0.949999988079071 -11.698694229125977
v 4.522295951843262 -0.949999988079071 -12.457929611206055
v 4.5038161277771 -0.949999988079071 -13.224481582641602
v -4.503818511962891 0.0 -13.224480628967285
v -3.8051464557647705 0.0 -13.792667388916016
v -3.0356316566467285 0.0 -14.260455131530762
v -2.209601402282715 0.0 -14.619135856628418
v -1.3424335718154907 0.0 -14.862031936645508
v -0.4502730667591095 0.0 -14.98462200164795
v 0.4502703547477722 0.0 -14.98462200164795
v 1.342430830001831 0.0 -14.862032890319824
v 2.2095985412597656 0.0 -14.619136810302734
v 3.0356290340423584 0.0 -14.260455131530762
v 3.8051438331604004 0.0 -13.792667388916016
v 4.5038161277771 0.0 -13.224481582641602
v 4.5038161277771 -0.949999988079071 -13.224481582641602
v 3.8051438331604004 -0.949999988079071 -13.792667388916016
v 3.0356290340423584 -0.949999988079071 -14.260455131530762
v 2.2095985412597656 -0.949999988079071 -14.619136810302734
v 1.342430830001831 -0.949999988079071 -14.862032890319824
v 0.4502703547477722 -0.949999988079071 -14.98462200164795
v -0.4502730667591095 -0.949999988079071 -14.98462200164795
v -1.3424335718154907 -0.949999988079071 -14.862031936645508
v -2.209601402282715 -0.949999988079071 -14.619135856628418
v -3.0356316566467285 -0.949999988079071 -14.260455131530762
v -3.8051464557647705 -0.949999988079071 -13.792667388916016
v -4.503818511962891 -0.949999988079071 -13.224480628967285
v 4.5038161277771 0.0 -13.224481582641602
v 3.8051438331604004 0.0 -13.792667388916016
v 3.0356290340423584 0.0 -14.260455131530762
v 2.2095985412597656 0.0 -14.619136810302734
v 1.342430830001831 0.0 -14.862032890319824
v 0.4502703547477722 0.0 -14.98462200164795
v -0.4502730667591095 0.0 -14.98462200164795
v -1.3424335718154907 0.0 -14.862031936645508
v -2.209601402282715 0.0 -14.619135856628418
v -3.0356316566467285 0.0 -14.260455131530762
v -3.8051464557647705 0.0 -13.792667388916016
v -4.503818511962891 0.0 -13.224480628967285
v -4.522298336029053 0.0 -12.457930564880371
v -4.62955904006958 0.0 -11.69869613647461
v -4.824152946472168 0.0 -10.957026481628418
v -5.103453636169434 0.0 -10.24293041229248
v -5.463691234588623 0.0 -9.566048622131348
v -5.900003910064697 0.0 -8.935514450073242
v -5.900010585784912 0.0 8.935506820678711
v -5.463696002960205 0.0 9.566040992736816
v -5.103456974029541 0.0 10.242924690246582
v -4.824154853820801 0.0 10.95702075958252
v -4.6295599937438965 0.0 11.698692321777344
v -4.522299289703369 0.0 12.457928657531738
v -4.503819465637207 0.0 13.224480628967285
v -3.8051469326019287 0.0 13.792667388916016
v -3.0356321334838867 0.0 14.260455131530762
v -2.209601402282715 0.0 14.619136810302734
v -1.3424333333969116 0.0 14.862032890319824
v -0.45027241110801697 0.0 14.984622955322266
v 0.4502713978290558 0.0 14.984622955322266
v 1.3424322605133057 0.0 14.86203384399414
v 2.2096004486083984 0.0 14.619136810302734
v 3.0356311798095703 0.0 14.260456085205078
v 3.8051462173461914 0.0 13.792667388916016
v 4.503818511962891 0.0 13.224480628967285
v 4.522298336029053 0.0 12.457931518554688
v 4.629558563232422 0.0 11.698698043823242
v 4.824151992797852 0.0 10.957029342651367
v 5.103452205657959 0.0 10.242934226989746
v 5.463688850402832 0.0 9.566052436828613
v 5.90000057220459 0.0 8.935519218444824
v 5.900007247924805 0.0 -8.935508728027344
v 5.463692665100098 0.0 -9.56604290008545
v 5.103453636169434 0.0 -10.242925643920898
v 4.824151992797852 0.0 -10.957022666931152
v 4.629557132720947 0.0 -11.698694229125977
v 4.522295951843262 0.0 -12.457929611206055
v -4.503818511962891 -0.949999988079071 -13.224480628967285
v -3.8051464557647705 -0.949999988079071 -13.792667388916016
v -3.0356316566467285 -0.949999988079071 -14.260455131530762
v -2.209601402282715 -0.949999988079071 -14.619135856628418
v -1.3424335718154907 -0.949999988079071 -14.862031936645508
v -0.4502730667591095 -0.949999988079071 -14.98462200164795
v 0.4502703547477722 -0.949999988079071 -14.98462200164795
v 1.342430830001831 -0.949999988079071 -14.862032890319824
v 2.2095985412597656 -0.949999988079071 -14.619136810302734
v 3.0356290340423584 -0.949999988079071 -14.260455131530762
v 3.8051438331604004 -0.949999988079071 -13.792667388916016
v 4.5038161277771 -0.949999988079071 -13.224481582641602
v 4.522295951843262 -0.949999988079071 -12.457929611206055
v 4.629557132720947 -0.949999988079071 -11.698694229125977
v 4.824151992797852 -0.949999988079071 -10.957022666931152
v 5.103453636169434 -0.949999988079071 -10.242925643920898
v 5.463692665100098 -0.949999988079071 -9.56604290008545
v 5.900007247924805 -0.949999988079071 -8.935508728027344
v 5.90000057220459 -0.949999988079071 8.935519218444824
v 5.463688850402832 -0.949999988079071 9.566052436828613
v 5.103452205657959 -0.949999988079071 10.242934226989746
v 4.824151992797852 -0.949999988079071 10.957029342651367
v 4.629558563232422 -0.949999988079071 11.698698043823242
v 4.522298336029053 -0.949999988079071 12.457931518554688
v 4.503818511962891 -0.949999988079071 13.224480628967285
v 3.8051462173461914 -0.949999988079071 13.792667388916016
v 3.0356311798095703 -0.949999988079071 14.260456085205078
v 2.2096004486083984 -0.949999988079071 14.619136810302734
v 1.3424322605133057 -0.949999988079071 14.86203384399414
v 0.4502713978290558 -0.949999988079071 14.984622955322266
v -0.45027241110801697 -0.949999988079071 14.984622955322266
v -1.3424333333969116 -0.949999988079071 14.862032890319824
v -2.209601402282715 -0.949999988079071 14.619136810302734
v -3.0356321334838867 -0.949999988079071 14.260455131530762
v -3.8051469326019287 -0.949999988079071 13.792667388916016
v -4.503819465637207 -0.949999988079071 13.224480628967285
v -4.522299289703369 -0.949999988079071 12.457928657531738
v -4.6295599937438965 -0.949999988079071 11.698692321777344
v -4.824154853820801 -0.949999988079071 10.95702075958252
v -5.103456974029541 -0.949999988079071 10.242924690246582
v -5.463696002960205 -0.949999988079071 9.566040992736816
v -5.900010585784912 -0.949999988079071 8.935506820678711
v -5.900003910064697 -0.949999988079071 -8.935514450073242
v -5.463691234588623 -0.949999988079071 -9.566048622131348
v -5.103453636169434 -0.949999988079071 -10.24293041229248
v -4.824152946472168 -0.949999988079071 -10.957026481628418
v -4.62955904006958 -0.949999988079071 -11.69869613647461
v -4.522298336029053 -0.949999988079071 -12.457930564880371
vn -0.7878782153129578 -0.0 -0.6158310770988464
vn -0.8539861440658569 -0.0 -0.5202956795692444
vn -0.9085676670074463 -0.0 -0.417737752199173
vn -0.9508859515190125 -0.0 -0.3095414638519287
vn -0.9803698658943176 -0.0 -0.19716723263263702
vn -0.9966214895248413 -0.0 -0.0821317806839943
vn -0.9994214177131653 0.0 0.034012239426374435
vn -0.9994214177131653 0.0 0.034012239426374435
vn -0.9966214895248413 -0.0 -0.0821317806839943
vn -0.9803698658943176 -0.0 -0.19716723263263702
vn -0.9508859515190125 -0.0 -0.3095414638519287
vn -0.9085676670074463 -0.0 -0.417737752199173
vn -0.8539861440658569 -0.0 -0.5202956795692444
vn -0.7878782153129578 -0.0 -0.6158310770988464
vn -1.0 -0.0 -3.6991266938457557e-07
vn -1.0 -0.0 -3.6991266938457557e-07
vn -1.0 -0.0 -3.6991266938457557e-07
vn -1.0 -0.0 -3.6991266938457557e-07
vn -0.9994214177131653 -0.0 -0.034012265503406525
vn -0.9966214895248413 0.0 0.08213198930025101
vn -0.9803698062896729 0.0 0.19716769456863403
vn -0.9508857131004333 0.0 0.30954214930534363
vn -0.9085672497749329 0.0 0.4177386164665222
vn -0.8539855480194092 0.0 0.5202967524528503
vn -0.7878773212432861 0.0 0.6158322095870972
vn -0.7878773212432861 0.0 0.6158322095870972
vn -0.8539855480194092 0.0 0.5202967524528503
vn -0.9085672497749329 0.0 0.4177386164665222
vn -0.9508857131004333 0.0 0.30954214930534363
vn -0.9803698062896729 0.0 0.19716769456863403
vn -0.9966214895248413 0.0 0.08213198930025101
vn -0.9994214177131653 -0.0 -0.034012265503406525
vn 0.6823967695236206 0.0 0.7309820055961609
vn 0.5765373110771179 0.0 0.8170708417892456
vn 0.45994412899017334 0.0 0.8879478573799133
vn 0.33478793501853943 0.0 0.9422935247421265
vn 0.20339882373809814 0.0 0.979095995426178
vn 0.06822293996810913 0.0 0.9976701140403748
vn -0.06822309643030167 -0.0 0.9976701140403748
vn -0.20339898765087128 -0.0 0.9790959358215332
vn -0.33478808403015137 -0.0 0.9422934651374817
vn -0.4599442481994629 -0.0 0.8879477977752686
vn -0.5765374302864075 -0.0 0.817070722579956
vn -0.6823968887329102 -0.0 0.7309818863868713
vn -0.6823968887329102 -0.0 0.7309818863868713
vn -0.5765374302864075 -0.0 0.817070722579956
vn -0.4599442481994629 -0.0 0.8879477977752686
vn -0.33478808403015137 -0.0 0.9422934651374817
vn -0.20339898765087128 -0.0 0.9790959358215332
vn -0.06822309643030167 -0.0 0.9976701140403748
vn 0.06822293996810913 0.0 0.9976701140403748
vn 0.20339882373809814 0.0 0.979095995426178
vn 0.33478793501853943 0.0 0.9422935247421265
vn 0.45994412899017334 0.0 0.8879478573799133
vn 0.5765373110771179 0.0 0.8170708417892456
vn 0.6823967695236206 0.0 0.7309820055961609
vn 0.787878692150116 0.0 0.6158304214477539
vn 0.8539865016937256 0.0 0.5202951431274414
vn 0.9085679054260254 0.0 0.4177372455596924
vn 0.950886070728302 0.0 0.30954107642173767
vn 0.9803699254989624 0.0 0.19716693460941315
vn 0.9966214895248413 0.0 0.08213160187005997
vn 0.9994214177131653 0.0 -0.03401228040456772
vn 0.9994214177131653 0.0 -0.03401228040456772
vn 0.9966214895248413 0.0 0.08213160187005997
vn 0.9803699254989624 0.0 0.19716693460941315
vn 0.950886070728302 0.0 0.30954107642173767
vn 0.9085679054260254 0.0 0.4177372455596924
vn 0.8539865016937256 0.0 0.5202951431274414
vn 0.787878692150116 0.0 0.6158304214477539
vn 1.0 0.0 3.6991266938457557e-07
vn 1.0 0.0 3.6991266938457557e-07
vn 1.0 0.0 3.6991266938457557e-07
vn 1.0 0.0 3.6991266938457557e-07
vn 0.9994214177131653 0.0 0.03401217609643936
vn 0.9966214299201965 0.0 -0.08213206380605698
vn 0.9803697466850281 0.0 -0.19716773927211761
vn 0.9508857131004333 0.0 -0.309542179107666
vn 0.9085672497749329 0.0 -0.4177386462688446
vn 0.8539855480194092 0.0 -0.5202967524528503
vn 0.7878773212432861 0.0 -0.6158322095870972
vn 0.7878773212432861 0.0 -0.6158322095870972
vn 0.8539855480194092 0.0 -0.5202967524528503
vn 0.9085672497749329 0.0 -0.4177386462688446
vn 0.9508857131004333 0.0 -0.309542179107666
vn 0.9803697466850281 0.0 -0.19716773927211761
vn 0.9966214299201965 0.0 -0.08213206380605698
vn 0.9994214177131653 0.0 0.03401217609643936
vn -0.6823967099189758 -0.0 -0.7309820652008057
vn -0.5765372514724731 -0.0 -0.8170709013938904
vn -0.45994409918785095 -0.0 -0.8879478573799133
vn -0.3347879648208618 -0.0 -0.9422934651374817
vn -0.2033988982439041 -0.0 -0.9790959358215332
vn -0.06822305172681808 -0.0 -0.9976701140403748
vn 0.06822293251752853 -0.0 -0.9976701140403748
vn 0.20339877903461456 -0.0 -0.979095995426178
vn 0.33478784561157227 -0.0 -0.9422935247421265
vn 0.4599440097808838 -0.0 -0.8879479169845581
vn 0.5765371322631836 -0.0 -0.8170709609985352
vn 0.6823965907096863 -0.0 -0.7309821248054504
vn 0.6823965907096863 -0.0 -0.7309821248054504
vn 0.5765371322631836 -0.0 -0.8170709609985352
vn 0.4599440097808838 -0.0 -0.8879479169845581
vn 0.33478784561157227 -0.0 -0.9422935247421265
vn 0.20339877903461456 -0.0 -0.979095995426178
vn 0.06822293251752853 -0.0 -0.9976701140403748
vn -0.06822305172681808 -0.0 -0.9976701140403748
vn -0.2033988982439041 -0.0 -0.9790959358215332
vn -0.3347879648208618 -0.0 -0.9422934651374817
vn -0.45994409918785095 -0.0 -0.8879478573799133
vn -0.5765372514724731 -0.0 -0.8170709013938904
vn -0.6823967099189758 -0.0 -0.7309820652008057
vn 0.0 1.0 0.0
vn 0.0 1.0 0.0
vn 0.0 1.0 0.0
vn 0.0 1.0 0.0
vn 0.0 1.0 0.0
vn 0.0 1.0 0.0
vn 0.0 1.0 0.0
vn 0.0 1.0 0.0
vn 0.0 1.0 0.0
vn 0.0 1.0 0.0
vn 0.0 1.0 0.0
vn 0.0 1.0 0.0
vn 0.0 1.0 0.0
vn 0.0 1.0 0.0
vn 0.0 1.0 0.0
vn 0.0 1.0 0.0
vn 0.0 1.0 0.0
vn 0.0 1.0 0.0
vn 0.0 1.0 0.0
vn 0.0 1.0 0.0
vn 0.0 1.0 0.0
vn 0.0 1.0 0.0
vn 0.0 1.0 0.0
vn 0.0 1.0 0.0
vn 0.0 1.0 0.0
vn 0.0 1.0 0.0
vn 0.0 1.0 0.0
vn 0.0 1.0 0.0
vn 0.0 1.0 0.0
vn 0.0 1.0 0.0
vn 0.0 1.0 0.0
vn 0.0 1.0 0.0
vn 0.0 1.0 0.0
vn 0.0 1.0 0.0
vn 0.0 1.0 0.0
vn 0.0 1.0 0.0
vn 0.0 1.0 0.0
vn 0.0 1.0 0.0
vn 0.0 1.0 0.0
vn 0.0 1.0 0.0
vn 0.0 1.0 0.0
vn 0.0 1.0 0.0
vn 0.0 1.0 0.0
vn 0.0 1.0 0.0
vn 0.0 1.0 0.0
vn 0.0 1.0 0.0
vn 0.0 1.0 0.0
vn 0.0 1.0 0.0
vn -0.0 -1.0 -0.0
vn -0.0 -1.0 -0.0
vn -0.0 -1.0 -0.0
vn -0.0 -1.0 -0.0
vn -0.0 -1.0 -0.0
vn -0.0 -1.0 -0.0
vn -0.0 -1.0 -0.0
vn -0.0 -1.0 -0.0
vn -0.0 -1.0 -0.0
vn -0.0 -1.0 -0.0
vn -0.0 -1.0 -0.0
vn -0.0 -1.0 -0.0
vn -0.0 -1.0 -0.0
vn -0.0 -1.0 -0.0
vn -0.0 -1.0 -0.0
vn -0.0 -1.0 -0.0
vn -0.0 -1.0 -0.0
vn -0.0 -1.0 -0.0
vn -0.0 -1.0 -0.0
vn -0.0 -1.0 -0.0
vn -0.0 -1.0 -0.0
vn -0.0 -1.0 -0.0
vn -0.0 -1.0 -0.0
vn -0.0 -1.0 -0.0
vn -0.0 -1.0 -0.0
vn -0.0 -1.0 -0.0
vn -0.0 -1.0 -0.0
vn -0.0 -1.0 -0.0
vn -0.0 -1.0 -0.0
vn -0.0 -1.0 -0.0
vn -0.0 -1.0 -0.0
vn -0.0 -1.0 -0.0
vn -0.0 -1.0 -0.0
vn -0.0 -1.0 -0.0
vn -0.0 -1.0 -0.0
vn -0.0 -1.0 -0.0
vn -0.0 -1.0 -0.0
vn -0.0 -1.0 -0.0
vn -0.0 -1.0 -0.0
vn -0.0 -1.0 -0.0
vn -0.0 -1.0 -0.0
vn -0.0 -1.0 -0.0
vn -0.0 -1.0 -0.0
vn -0.0 -1.0 -0.0
vn -0.0 -1.0 -0.0
vn -0.0 -1.0 -0.0
vn -0.0 -1.0 -0.0
vn -0.0 -1.0 -0.0
g 5830e810-e34c-11ea-ad08-54bf646e7e1f
f 14//14 1//1 13//13
f 13//13 1//1 2//2
f 13//13 2//2 3//3
f 13//13 3//3 12//12
f 12//12 3//3 4//4
f 12//12 4//4 11//11
f 11//11 4//4 5//5
f 11//11 5//5 10//10
f 10//10 5//5 6//6
f 10//10 6//6 9//9
f 9//9 6//6 8//8
f 8//8 6//6 7//7
g 583295be-e34c-11ea-af8d-54bf646e7e1f
f 15//15 16//16 18//18
f 18//18 16//16 17//17
g 5833ce4c-e34c-11ea-bcf5-54bf646e7e1f
f 32//32 19//19 31//31
f 31//31 19//19 20//20
f 31//31 20//20 21//21
f 31//31 21//21 30//30
f 30//30 21//21 22//22
f 30//30 22//22 29//29
f 29//29 22//22 23//23
f 29//29 23//23 28//28
f 28//28 23//23 24//24
f 28//28 24//24 27//27
f 27//27 24//24 26//26
f 26//26 24//24 25//25
g 5837ed28-e34c-11ea-aa9f-54bf646e7e1f
f 56//56 33//33 55//55
f 55//55 33//33 34//34
f 55//55 34//34 54//54
f 54//54 34//34 35//35
f 54//54 35//35 53//53
f 53//53 35//35 36//36
f 53//53 36//36 52//52
f 52//52 36//36 37//37
f 52//52 37//37 51//51
f 51//51 37//37 38//38
f 51//51 38//38 50//50
f 50//50 38//38 39//39
f 50//50 39//39 49//49
f 49//49 39//39 40//40
f 49//49 40//40 48//48
f 48//48 40//40 41//41
f 48//48 41//41 47//47
f 47//47 41//41 42//42
f 47//47 42//42 46//46
f 46//46 42//42 43//43
f 46//46 43//43 45//45
f 45//45 43//43 44//44
g 583973fe-e34c-11ea-8769-54bf646e7e1f
f 70//70 57//57 69//69
f 69//69 57//57 58//58
f 69//69 58//58 59//59
f 69//69 59//59 68//68
f 68//68 59//59 60//60
f 68//68 60//60 67//67
f 67//67 60//60 61//61
f 67//67 61//61 66//66
f 66//66 61//61 62//62
f 66//66 62//62 65//65
f 65//65 62//62 64//64
f 64//64 62//62 63//63
g 583ad364-e34c-11ea-a3cb-54bf646e7e1f
f 71//71 72//72 74//74
f 74//74 72//72 73//73
g 583c813e-e34c-11ea-bf86-54bf646e7e1f
f 88//88 75//75 87//87
f 87//87 75//75 76//76
f 87//87 76//76 77//77
f 87//87 77//77 86//86
f 86//86 77//77 78//78
f 86//86 78//78 85//85
f 85//85 78//78 79//79
f 85//85 79//79 84//84
f 84//84 79//79 80//80
f 84//84 80//80 83//83
f 83//83 80//80 82//82
f 82//82 80//80 81//81
g 583e07f6-e34c-11ea-b7a1-54bf646e7e1f
f 112//112 89//89 111//111
f 111//111 89//89 90//90
f 111//111 90//90 110//110
f 110//110 90//90 91//91
f 110//110 91//91 109//109
f 109//109 91//91 92//92
f 109//109 92//92 108//108
f 108//108 92//92 93//93
f 108//108 93//93 107//107
f 107//107 93//93 94//94
f 107//107 94//94 106//106
f 106//106 94//94 95//95
f 106//106 95//95 105//105
f 105//105 95//95 96//96
f 105//105 96//96 104//104
f 104//104 96//96 97//97
f 104//104 97//97 103//103
f 103//103 97//97 98//98
f 103//103 98//98 102//102
f 102//102 98//98 99//99
f 102//102 99//99 101//101
f 101//101 99//99 100//100
g 583f6776-e34c-11ea-af33-54bf646e7e1f
f 113//113 114//114 160//160
f 160//160 114//114 159//159
f 159//159 114//114 115//115
f 159//159 115//115 158//158
f 158//158 115//115 116//116
f 158//158 116//116 117//117
f 118//118 143//143 117//117
f 117//117 143//143 144//144
f 117//117 144//144 152//152
f 152//152 144//144 151//151
f 151//151 144//144 145//145
f 151//151 145//145 146//146
f 143//143 118//118 142//142
f 142//142 118//118 119//119
f 142//142 119//119 120//120
f 121//121 127//127 120//120
f 120//120 127//127 128//128
f 120//120 128//128 141//141
f 141//141 128//128 133//133
f 141//141 133//133 134//134
f 121//121 122//122 127//127
f 127//127 122//122 126//126
f 126//126 122//122 123//123
f 126//126 123//123 125//125
f 125//125 123//123 124//124
f 128//128 129//129 133//133
f 133//133 129//129 132//132
f 132//132 129//129 130//130
f 132//132 130//130 131//131
f 135//135 139//139 134//134
f 134//134 139//139 140//140
f 134//134 140//140 141//141
f 139//139 135//135 138//138
f 138//138 135//135 136//136
f 138//138 136//136 137//137
f 141//141 142//142 120//120
f 151//151 146//146 150//150
f 150//150 146//146 147//147
f 150//150 147//147 149//149
f 149//149 147//147 148//148
f 117//117 152//152 157//157
f 157//157 152//152 153//153
f 157//157 153//153 156//156
f 156//156 153//153 154//154
f 156//156 154//154 155//155
f 157//157 158//158 117//117
g 5840edde-e34c-11ea-9283-54bf646e7e1f
f 161//161 162//162 208//208
f 208//208 162//162 207//207
f 207//207 162//162 163//163
f 207//207 163//163 206//206
f 206//206 163//163 164//164
f 206//206 164//164 165//165
f 166//166 191//191 165//165
f 165//165 191//191 192//192
f 165//165 192//192 205//205
f 205//205 192//192 200//200
f 205//205 200//200 204//204
f 204//204 200//200 201//201
f 204//204 201//201 203//203
f 203//203 201//201 202//202
f 166//166 167//167 191//191
f 191//191 167//167 190//190
f 190//190 167//167 168//168
f 190//190 168//168 189//189
f 189//189 168//168 181//181
f 189//189 181//181 182//182
f 169//169 175//175 168//168
f 168//168 175//175 176//176
f 168//168 176//176 181//181
f 181//181 176//176 180//180
f 180//180 176//176 177//177
f 180//180 177//177 179//179
f 179//179 177//177 178//178
f 169//169 170//170 175//175
f 175//175 170//170 174//174
f 174//174 170//170 171//171
f 174//174 171//171 173//173
f 173//173 171//171 172//172
f 183//183 187//187 182//182
f 182//182 187//187 188//188
f 182//182 188//188 189//189
f 187//187 183//183 186//186
f 186//186 183//183 184//184
f 186//186 184//184 185//185
f 200//200 192//192 199//199
f 199//199 192//192 193//193
f 199//199 193//193 194//194
f 199//199 194//194 198//198
f 198//198 194//194 195//195
f 198//198 195//195 197//197
f 197//197 195//195 196//196
f 205//205 206//206 165//165

# End of file