# WaveFront *.obj file
# Vertices: 212
# Triangles : 192

v 0.0 -1.0 3.0
v 0.0 -1.0 1.7320507764816284
v 2.5 -1.0 1.7320507764816284
v 2.5 -1.0 3.0
v 0.0 0.0 3.0
v 0.0 -1.0 3.0
v 2.5 -1.0 3.0
v 2.5 0.0 3.0
v 0.0 0.0 1.5
v 0.0 0.0 3.0
v 2.5 0.0 3.0
v 2.5 0.0 1.5
v 0.0 0.0 -1.5
v 0.0 -0.19578929245471954 -1.487167239189148
v 0.0 -0.38822856545448303 -1.4488887786865234
v 0.0 -0.5740251541137695 -1.3858193159103394
v 0.0 -0.75 -1.299038052558899
v 0.0 -0.9131421446800232 -1.1900299787521362
v 0.0 -1.0606601238250732 -1.0606601238250732
v 0.0 -1.1900299787521362 -0.9131421446800232
v 0.0 -1.299038052558899 -0.75
v 0.0 -1.3858193159103394 -0.5740251541137695
v 0.0 -1.4488887786865234 -0.38822856545448303
v 0.0 -1.487167239189148 -0.19578929245471954
v 0.0 -1.5 9.184850732644269e-17
v 0.0 -1.487167239189148 0.19578929245471954
v 0.0 -1.4488887786865234 0.38822856545448303
v 0.0 -1.3858193159103394 0.5740251541137695
v 0.0 -1.299038052558899 0.75
v 0.0 -1.1900299787521362 0.9131421446800232
v 0.0 -1.0606601238250732 1.0606601238250732
v 0.0 -0.9131421446800232 1.1900299787521362
v 0.0 -0.75 1.299038052558899
v 0.0 -0.5740251541137695 1.3858193159103394
v 0.0 -0.38822856545448303 1.4488887786865234
v 0.0 -0.19578929245471954 1.487167239189148
v 0.0 0.0 1.5
v 2.5 0.0 1.5
v 2.5 -0.19578929245471954 1.487167239189148
v 2.5 -0.38822856545448303 1.4488887786865234
v 2.5 -0.5740251541137695 1.3858193159103394
v 2.5 -0.75 1.299038052558899
v 2.5 -0.9131421446800232 1.1900299787521362
v 2.5 -1.0606601238250732 1.0606601238250732
v 2.5 -1.1900299787521362 0.9131421446800232
v 2.5 -1.299038052558899 0.75
v 2.5 -1.3858193159103394 0.5740251541137695
v 2.5 -1.4488887786865234 0.38822856545448303
v 2.5 -1.487167239189148 0.19578929245471954
v 2.5 -1.5 9.184850732644269e-17
v 2.5 -1.487167239189148 -0.19578929245471954
v 2.5 -1.4488887786865234 -0.38822856545448303
v 2.5 -1.3858193159103394 -0.5740251541137695
v 2.5 -1.299038052558899 -0.75
v 2.5 -1.1900299787521362 -0.9131421446800232
v 2.5 -1.0606601238250732 -1.0606601238250732
v 2.5 -0.9131421446800232 -1.1900299787521362
v 2.5 -0.75 -1.299038052558899
v 2.5 -0.5740251541137695 -1.3858193159103394
v 2.5 -0.38822856545448303 -1.4488887786865234
v 2.5 -0.19578929245471954 -1.487167239189148
v 2.5 0.0 -1.5
v 0.0 0.0 -3.0
v 0.0 0.0 -1.5
v 2.5 0.0 -1.5
v 2.5 0.0 -3.0
v 0.0 -1.0 -3.0
v 0.0 0.0 -3.0
v 2.5 0.0 -3.0
v 2.5 -1.0 -3.0
v 0.0 -1.0 -1.7320507764816284
v 0.0 -1.0 -3.0
v 2.5 -1.0 -3.0
v 2.5 -1.0 -1.7320507764816284
v 0.0 -1.0 1.7320507764816284
v 0.0 -1.184470534324646 1.6115301847457886
v 0.0 -1.3545631170272827 1.4714478254318237
v 0.0 -1.5082131624221802 1.3135040998458862
v 0.0 -1.6435556411743164 1.1396161317825317
v 0.0 -1.758947491645813 0.9518947601318359
v 0.0 -1.8529881238937378 0.7526187300682068
v 0.0 -1.9245359897613525 0.5442069172859192
v 0.0 -1.9727226495742798 0.3291891813278198
v 0.0 -1.9969630241394043 0.11017552018165588
v 0.0 -1.9969630241394043 -0.11017552018165588
v 0.0 -1.9727226495742798 -0.3291891813278198
v 0.0 -1.9245359897613525 -0.5442069172859192
v 0.0 -1.8529881238937378 -0.7526187300682068
v 0.0 -1.758947491645813 -0.9518947601318359
v 0.0 -1.6435556411743164 -1.1396161317825317
v 0.0 -1.5082131624221802 -1.3135040998458862
v 0.0 -1.3545631170272827 -1.4714478254318237
v 0.0 -1.184470534324646 -1.6115301847457886
v 0.0 -1.0 -1.7320507764816284
v 2.5 -1.0 -1.7320507764816284
v 2.5 -1.184470534324646 -1.6115301847457886
v 2.5 -1.3545631170272827 -1.4714478254318237
v 2.5 -1.5082131624221802 -1.3135040998458862
v 2.5 -1.6435556411743164 -1.1396161317825317
v 2.5 -1.758947491645813 -0.9518947601318359
v 2.5 -1.8529881238937378 -0.7526187300682068
v 2.5 -1.9245359897613525 -0.5442069172859192
v 2.5 -1.9727226495742798 -0.3291891813278198
v 2.5 -1.9969630241394043 -0.11017552018165588
v 2.5 -1.9969630241394043 0.11017552018165588
v 2.5 -1.9727226495742798 0.3291891813278198
v 2.5 -1.9245359897613525 0.5442069172859192
v 2.5 -1.8529881238937378 0.7526187300682068
v 2.5 -1.758947491645813 0.9518947601318359
v 2.5 -1.6435556411743164 1.1396161317825317
v 2.5 -1.5082131624221802 1.3135040998458862
v 2.5 -1.3545631170272827 1.4714478254318237
v 2.5 -1.184470534324646 1.6115301847457886
v 2.5 -1.0 1.7320507764816284
v 2.5 -1.0 1.7320507764816284
v 2.5 -1.184470534324646 1.6115301847457886
v 2.5 -1.3545631170272827 1.4714478254318237
v 2.5 -1.5082131624221802 1.3135040998458862
v 2.5 -1.6435556411743164 1.1396161317825317
v 2.5 -1.758947491645813 0.9518947601318359
v 2.5 -1.8529881238937378 0.7526187300682068
v 2.5 -1.9245359897613525 0.5442069172859192
v 2.5 -1.9727226495742798 0.3291891813278198
v 2.5 -1.9969630241394043 0.11017552018165588
v 2.5 -1.9969630241394043 -0.11017552018165588
v 2.5 -1.9727226495742798 -0.3291891813278198
v 2.5 -1.9245359897613525 -0.5442069172859192
v 2.5 -1.8529881238937378 -0.7526187300682068
v 2.5 -1.758947491645813 -0.9518947601318359
v 2.5 -1.6435556411743164 -1.1396161317825317
v 2.5 -1.5082131624221802 -1.3135040998458862
v 2.5 -1.3545631170272827 -1.4714478254318237
v 2.5 -1.184470534324646 -1.6115301847457886
v 2.5 -1.0 -1.7320507764816284
v 2.5 -1.0 -3.0
v 2.5 0.0 -3.0
v 2.5 0.0 -1.5
v 2.5 -0.19578929245471954 -1.487167239189148
v 2.5 -0.38822856545448303 -1.4488887786865234
v 2.5 -0.5740251541137695 -1.3858193159103394
v 2.5 -0.75 -1.299038052558899
v 2.5 -0.9131421446800232 -1.1900299787521362
v 2.5 -1.0606601238250732 -1.0606601238250732
v 2.5 -1.1900299787521362 -0.9131421446800232
v 2.5 -1.299038052558899 -0.75
v 2.5 -1.3858193159103394 -0.5740251541137695
v 2.5 -1.4488887786865234 -0.38822856545448303
v 2.5 -1.487167239189148 -0.19578929245471954
v 2.5 -1.5 9.184850732644269e-17
v 2.5 -1.487167239189148 0.19578929245471954
v 2.5 -1.4488887786865234 0.38822856545448303
v 2.5 -1.3858193159103394 0.5740251541137695
v 2.5 -1.299038052558899 0.75
v 2.5 -1.1900299787521362 0.9131421446800232
v 2.5 -1.0606601238250732 1.0606601238250732
v 2.5 -0.9131421446800232 1.1900299787521362
v 2.5 -0.75 1.299038052558899
v 2.5 -0.5740251541137695 1.3858193159103394
v 2.5 -0.38822856545448303 1.4488887786865234
v 2.5 -0.19578929245471954 1.487167239189148
v 2.5 0.0 1.5
v 2.5 0.0 3.0
v 2.5 -1.0 3.0
v 0.0 -1.0 -1.7320507764816284
v 0.0 -1.184470534324646 -1.6115301847457886
v 0.0 -1.3545631170272827 -1.4714478254318237
v 0.0 -1.5082131624221802 -1.3135040998458862
v 0.0 -1.6435556411743164 -1.1396161317825317
v 0.0 -1.758947491645813 -0.9518947601318359
v 0.0 -1.8529881238937378 -0.7526187300682068
v 0.0 -1.9245359897613525 -0.5442069172859192
v 0.0 -1.9727226495742798 -0.3291891813278198
v 0.0 -1.9969630241394043 -0.11017552018165588
v 0.0 -1.9969630241394043 0.11017552018165588
v 0.0 -1.9727226495742798 0.3291891813278198
v 0.0 -1.9245359897613525 0.5442069172859192
v 0.0 -1.8529881238937378 0.7526187300682068
v 0.0 -1.758947491645813 0.9518947601318359
v 0.0 -1.6435556411743164 1.1396161317825317
v 0.0 -1.5082131624221802 1.3135040998458862
v 0.0 -1.3545631170272827 1.4714478254318237
v 0.0 -1.184470534324646 1.6115301847457886
v 0.0 -1.0 1.7320507764816284
v 0.0 -1.0 3.0
v 0.0 0.0 3.0
v 0.0 0.0 1.5
v 0.0 -0.19578929245471954 1.487167239189148
v 0.0 -0.38822856545448303 1.4488887786865234
v 0.0 -0.5740251541137695 1.3858193159103394
v 0.0 -0.75 1.299038052558899
v 0.0 -0.9131421446800232 1.1900299787521362
v 0.0 -1.0606601238250732 1.0606601238250732
v 0.0 -1.1900299787521362 0.9131421446800232
v 0.0 -1.299038052558899 0.75
v 0.0 -1.3858193159103394 0.5740251541137695
v 0.0 -1.4488887786865234 0.38822856545448303
v 0.0 -1.487167239189148 0.19578929245471954
v 0.0 -1.5 9.184850732644269e-17
v 0.0 -1.487167239189148 -0.19578929245471954
v 0.0 -1.4488887786865234 -0.38822856545448303
v 0.0 -1.3858193159103394 -0.5740251541137695
v 0.0 -1.299038052558899 -0.75
v 0.0 -1.1900299787521362 -0.9131421446800232
v 0.0 -1.0606601238250732 -1.0606601238250732
v 0.0 -0.9131421446800232 -1.1900299787521362
v 0.0 -0.75 -1.299038052558899
v 0.0 -0.5740251541137695 -1.3858193159103394
v 0.0 -0.38822856545448303 -1.4488887786865234
v 0.0 -0.19578929245471954 -1.487167239189148
v 0.0 0.0 -1.5
v 0.0 0.0 -3.0
v 0.0 -1.0 -3.0
vn 0.0 -1.0 0.0
vn 0.0 -1.0 0.0
vn 0.0 -1.0 0.0
vn 0.0 -1.0 0.0
vn 0.0 0.0 1.0
vn 0.0 0.0 1.0
vn 0.0 0.0 1.0
vn 0.0 0.0 1.0
vn -0.0 1.0 0.0
vn -0.0 1.0 0.0
vn -0.0 1.0 0.0
vn -0.0 1.0 0.0
vn -0.0 1.2246468525851679e-16 1.0
vn -0.0 0.13052618503570557 0.9914448857307434
vn -0.0 0.258819043636322 0.9659258127212524
vn -0.0 0.3826834261417389 0.9238795042037964
vn -0.0 0.5 0.8660253882408142
vn -0.0 0.6087614297866821 0.7933533191680908
vn -0.0 0.7071067690849304 0.7071067690849304
vn -0.0 0.7933533191680908 0.6087614297866821
vn -0.0 0.8660253882408142 0.5
vn -0.0 0.9238795042037964 0.3826834261417389
vn -0.0 0.9659258127212524 0.258819043636322
vn -0.0 0.9914448857307434 0.13052618503570557
vn 0.0 1.0 -6.123234262925839e-17
vn 0.0 0.9914448857307434 -0.13052618503570557
vn 0.0 0.9659258127212524 -0.258819043636322
vn 0.0 0.9238795042037964 -0.3826834261417389
vn 0.0 0.8660253882408142 -0.5
vn 0.0 0.7933533191680908 -0.6087614297866821
vn 0.0 0.7071067690849304 -0.7071067690849304
vn 0.0 0.6087614297866821 -0.7933533191680908
vn 0.0 0.5 -0.8660253882408142
vn 0.0 0.3826834261417389 -0.9238795042037964
vn 0.0 0.258819043636322 -0.9659258127212524
vn 0.0 0.13052618503570557 -0.9914448857307434
vn 0.0 0.0 -1.0
vn 0.0 0.0 -1.0
vn 0.0 0.13052618503570557 -0.9914448857307434
vn 0.0 0.258819043636322 -0.9659258127212524
vn 0.0 0.3826834261417389 -0.9238795042037964
vn 0.0 0.5 -0.8660253882408142
vn 0.0 0.6087614297866821 -0.7933533191680908
vn 0.0 0.7071067690849304 -0.7071067690849304
vn 0.0 0.7933533191680908 -0.6087614297866821
vn 0.0 0.8660253882408142 -0.5
vn 0.0 0.9238795042037964 -0.3826834261417389
vn 0.0 0.9659258127212524 -0.258819043636322
vn 0.0 0.9914448857307434 -0.13052618503570557
vn 0.0 1.0 -6.123234262925839e-17
vn -0.0 0.9914448857307434 0.13052618503570557
vn -0.0 0.9659258127212524 0.258819043636322
vn -0.0 0.9238795042037964 0.3826834261417389
vn -0.0 0.8660253882408142 0.5
vn -0.0 0.7933533191680908 0.6087614297866821
vn -0.0 0.7071067690849304 0.7071067690849304
vn -0.0 0.6087614297866821 0.7933533191680908
vn -0.0 0.5 0.8660253882408142
vn -0.0 0.3826834261417389 0.9238795042037964
vn -0.0 0.258819043636322 0.9659258127212524
vn -0.0 0.13052618503570557 0.9914448857307434
vn -0.0 1.2246468525851679e-16 1.0
vn -0.0 1.0 0.0
vn -0.0 1.0 0.0
vn -0.0 1.0 0.0
vn -0.0 1.0 0.0
vn 0.0 0.0 -1.0
vn 0.0 0.0 -1.0
vn 0.0 0.0 -1.0
vn 0.0 0.0 -1.0
vn 0.0 -1.0 0.0
vn 0.0 -1.0 0.0
vn 0.0 -1.0 0.0
vn 0.0 -1.0 0.0
vn -0.0 -0.5 0.8660253882408142
vn -0.0 -0.592235267162323 0.8057650923728943
vn -0.0 -0.6772815585136414 0.7357239127159119
vn -0.0 -0.7541065812110901 0.6567520499229431
vn -0.0 -0.8217778205871582 0.5698080658912659
vn -0.0 -0.8794737458229065 0.47594738006591797
vn -0.0 -0.9264940619468689 0.3763093650341034
vn -0.0 -0.9622679948806763 0.2721034586429596
vn -0.0 -0.9863613247871399 0.1645945906639099
vn -0.0 -0.9984815120697021 0.05508776009082794
vn 0.0 -0.9984815120697021 -0.05508776009082794
vn 0.0 -0.9863613247871399 -0.1645945906639099
vn 0.0 -0.9622679948806763 -0.2721034586429596
vn 0.0 -0.9264940619468689 -0.3763093650341034
vn 0.0 -0.8794737458229065 -0.47594738006591797
vn 0.0 -0.8217778205871582 -0.5698080658912659
vn 0.0 -0.7541065812110901 -0.6567520499229431
vn 0.0 -0.6772815585136414 -0.7357239127159119
vn 0.0 -0.592235267162323 -0.8057650923728943
vn 0.0 -0.5 -0.8660253882408142
vn 0.0 -0.5 -0.8660253882408142
vn 0.0 -0.592235267162323 -0.8057650923728943
vn 0.0 -0.6772815585136414 -0.7357239127159119
vn 0.0 -0.7541065812110901 -0.6567520499229431
vn 0.0 -0.8217778205871582 -0.5698080658912659
vn 0.0 -0.8794737458229065 -0.47594738006591797
vn 0.0 -0.9264940619468689 -0.3763093650341034
vn 0.0 -0.9622679948806763 -0.2721034586429596
vn 0.0 -0.9863613247871399 -0.1645945906639099
vn 0.0 -0.9984815120697021 -0.05508776009082794
vn -0.0 -0.9984815120697021 0.05508776009082794
vn -0.0 -0.9863613247871399 0.1645945906639099
vn -0.0 -0.9622679948806763 0.2721034586429596
vn -0.0 -0.9264940619468689 0.3763093650341034
vn -0.0 -0.8794737458229065 0.47594738006591797
vn -0.0 -0.8217778205871582 0.5698080658912659
vn -0.0 -0.7541065812110901 0.6567520499229431
vn -0.0 -0.6772815585136414 0.7357239127159119
vn -0.0 -0.592235267162323 0.8057650923728943
vn -0.0 -0.5 0.8660253882408142
vn 1.0 0.0 0.0
vn 1.0 0.0 0.0
vn 1.0 0.0 0.0
vn 1.0 0.0 0.0
vn 1.0 0.0 0.0
vn 1.0 0.0 0.0
vn 1.0 0.0 0.0
vn 1.0 0.0 0.0
vn 1.0 0.0 0.0
vn 1.0 0.0 0.0
vn 1.0 0.0 0.0
vn 1.0 0.0 0.0
vn 1.0 0.0 0.0
vn 1.0 0.0 0.0
vn 1.0 0.0 0.0
vn 1.0 0.0 0.0
vn 1.0 0.0 0.0
vn 1.0 0.0 0.0
vn 1.0 0.0 0.0
vn 1.0 0.0 0.0
vn 1.0 0.0 0.0
vn 1.0 0.0 0.0
vn 1.0 0.0 0.0
vn 1.0 0.0 0.0
vn 1.0 0.0 0.0
vn 1.0 0.0 0.0
vn 1.0 0.0 0.0
vn 1.0 0.0 0.0
vn 1.0 0.0 0.0
vn 1.0 0.0 0.0
vn 1.0 0.0 0.0
vn 1.0 0.0 0.0
vn 1.0 0.0 0.0
vn 1.0 0.0 0.0
vn 1.0 0.0 0.0
vn 1.0 0.0 0.0
vn 1.0 0.0 0.0
vn 1.0 0.0 0.0
vn 1.0 0.0 0.0
vn 1.0 0.0 0.0
vn 1.0 0.0 0.0
vn 1.0 0.0 0.0
vn 1.0 0.0 0.0
vn 1.0 0.0 0.0
vn 1.0 0.0 0.0
vn 1.0 0.0 0.0
vn 1.0 0.0 0.0
vn 1.0 0.0 0.0
vn 1.0 0.0 0.0
vn -1.0 -0.0 -0.0
vn -1.0 -0.0 -0.0
vn -1.0 -0.0 -0.0
vn -1.0 -0.0 -0.0
vn -1.0 -0.0 -0.0
vn -1.0 -0.0 -0.0
vn -1.0 -0.0 -0.0
vn -1.0 -0.0 -0.0
vn -1.0 -0.0 -0.0
vn -1.0 -0.0 -0.0
vn -1.0 -0.0 -0.0
vn -1.0 -0.0 -0.0
vn -1.0 -0.0 -0.0
vn -1.0 -0.0 -0.0
vn -1.0 -0.0 -0.0
vn -1.0 -0.0 -0.0
vn -1.0 -0.0 -0.0
vn -1.0 -0.0 -0.0
vn -1.0 -0.0 -0.0
vn -1.0 -0.0 -0.0
vn -1.0 -0.0 -0.0
vn -1.0 -0.0 -0.0
vn -1.0 -0.0 -0.0
vn -1.0 -0.0 -0.0
vn -1.0 -0.0 -0.0
vn -1.0 -0.0 -0.0
vn -1.0 -0.0 -0.0
vn -1.0 -0.0 -0.0
vn -1.0 -0.0 -0.0
vn -1.0 -0.0 -0.0
vn -1.0 -0.0 -0.0
vn -1.0 -0.0 -0.0
vn -1.0 -0.0 -0.0
vn -1.0 -0.0 -0.0
vn -1.0 -0.0 -0.0
vn -1.0 -0.0 -0.0
vn -1.0 -0.0 -0.0
vn -1.0 -0.0 -0.0
vn -1.0 -0.0 -0.0
vn -1.0 -0.0 -0.0
vn -1.0 -0.0 -0.0
vn -1.0 -0.0 -0.0
vn -1.0 -0.0 -0.0
vn -1.0 -0.0 -0.0
vn -1.0 -0.0 -0.0
vn -1.0 -0.0 -0.0
vn -1.0 -0.0 -0.0
vn -1.0 -0.0 -0.0
vn -1.0 -0.0 -0.0
g 56f240d0-e34e-11ea-83b4-54bf646e7e1f
f 1//1 2//2 4//4
f 4//4 2//2 3//3
g 56fe760c-e34e-11ea-92e8-54bf646e7e1f
f 5//5 6//6 8//8
f 8//8 6//6 7//7
g 570a5d26-e34e-11ea-b837-54bf646e7e1f
f 9//9 10//10 12//12
f 12//12 10//10 11//11
g 5719ed7e-e34e-11ea-8494-54bf646e7e1f
f 62//62 13//13 61//61
f 61//61 13//13 14//14
f 61//61 14//14 60//60
f 60//60 14//14 15//15
f 60//60 15//15 59//59
f 59//59 15//15 16//16
f 59//59 16//16 58//58
f 58//58 16//16 17//17
f 58//58 17//17 57//57
f 57//57 17//17 18//18
f 57//57 18//18 56//56
f 56//56 18//18 19//19
f 56//56 19//19 55//55
f 55//55 19//19 20//20
f 55//55 20//20 54//54
f 54//54 20//20 21//21
f 54//54 21//21 53//53
f 53//53 21//21 22//22
f 53//53 22//22 52//52
f 52//52 22//22 23//23
f 52//52 23//23 51//51
f 51//51 23//23 24//24
f 51//51 24//24 50//50
f 50//50 24//24 25//25
f 50//50 25//25 49//49
f 49//49 25//25 26//26
f 49//49 26//26 48//48
f 48//48 26//26 27//27
f 48//48 27//27 47//47
f 47//47 27//27 28//28
f 47//47 28//28 46//46
f 46//46 28//28 29//29
f 46//46 29//29 45//45
f 45//45 29//29 30//30
f 45//45 30//30 44//44
f 44//44 30//30 31//31
f 44//44 31//31 43//43
f 43//43 31//31 32//32
f 43//43 32//32 42//42
f 42//42 32//32 33//33
f 42//42 33//33 41//41
f 41//41 33//33 34//34
f 41//41 34//34 40//40
f 40//40 34//34 35//35
f 40//40 35//35 39//39
f 39//39 35//35 36//36
f 39//39 36//36 38//38
f 38//38 36//36 37//37
g 5729089c-e34e-11ea-b024-54bf646e7e1f
f 63//63 64//64 66//66
f 66//66 64//64 65//65
g 5734ef58-e34e-11ea-8632-54bf646e7e1f
f 67//67 68//68 70//70
f 70//70 68//68 69//69
g 57403a1e-e34e-11ea-8db5-54bf646e7e1f
f 71//71 72//72 74//74
f 74//74 72//72 73//73
g 574b84a8-e34e-11ea-9b23-54bf646e7e1f
f 114//114 75//75 113//113
f 113//113 75//75 76//76
f 113//113 76//76 112//112
f 112//112 76//76 77//77
f 112//112 77//77 111//111
f 111//111 77//77 78//78
f 111//111 78//78 110//110
f 110//110 78//78 79//79
f 110//110 79//79 109//109
f 109//109 79//79 80//80
f 109//109 80//80 108//108
f 108//108 80//80 81//81
f 108//108 81//81 107//107
f 107//107 81//81 82//82
f 107//107 82//82 106//106
f 106//106 82//82 83//83
f 106//106 83//83 105//105
f 105//105 83//83 84//84
f 105//105 84//84 104//104
f 104//104 84//84 85//85
f 104//104 85//85 103//103
f 103//103 85//85 86//86
f 103//103 86//86 102//102
f 102//102 86//86 87//87
f 102//102 87//87 101//101
f 101//101 87//87 88//88
f 101//101 88//88 100//100
f 100//100 88//88 89//89
f 100//100 89//89 99//99
f 99//99 89//89 90//90
f 99//99 90//90 98//98
f 98//98 90//90 91//91
f 98//98 91//91 97//97
f 97//97 91//91 92//92
f 97//97 92//92 96//96
f 96//96 92//92 93//93
f 96//96 93//93 95//95
f 95//95 93//93 94//94
g 5757e0e6-e34e-11ea-9fe6-54bf646e7e1f
f 116//116 155//155 115//115
f 115//115 155//155 156//156
f 115//115 156//156 157//157
f 155//155 116//116 154//154
f 154//154 116//116 117//117
f 154//154 117//117 153//153
f 153//153 117//117 118//118
f 153//153 118//118 152//152
f 152//152 118//118 119//119
f 152//152 119//119 151//151
f 151//151 119//119 120//120
f 151//151 120//120 150//150
f 150//150 120//120 121//121
f 150//150 121//121 149//149
f 149//149 121//121 122//122
f 149//149 122//122 123//123
f 123//123 124//124 149//149
f 149//149 124//124 125//125
f 149//149 125//125 126//126
f 126//126 127//127 149//149
f 149//149 127//127 128//128
f 149//149 128//128 148//148
f 148//148 128//128 129//129
f 148//148 129//129 147//147
f 147//147 129//129 130//130
f 147//147 130//130 146//146
f 146//146 130//130 131//131
f 146//146 131//131 145//145
f 145//145 131//131 132//132
f 145//145 132//132 144//144
f 144//144 132//132 133//133
f 144//144 133//133 143//143
f 143//143 133//133 134//134
f 143//143 134//134 142//142
f 142//142 134//134 141//141
f 141//141 134//134 135//135
f 141//141 135//135 140//140
f 140//140 135//135 139//139
f 139//139 135//135 136//136
f 139//139 136//136 138//138
f 138//138 136//136 137//137
f 115//115 157//157 163//163
f 163//163 157//157 158//158
f 163//163 158//158 159//159
f 163//163 159//159 162//162
f 162//162 159//159 160//160
f 162//162 160//160 161//161
g 5762dd6e-e34e-11ea-8a62-54bf646e7e1f
f 165//165 204//204 164//164
f 164//164 204//204 205//205
f 164//164 205//205 206//206
f 204//204 165//165 203//203
f 203//203 165//165 166//166
f 203//203 166//166 202//202
f 202//202 166//166 167//167
f 202//202 167//167 201//201
f 201//201 167//167 168//168
f 201//201 168//168 200//200
f 200//200 168//168 169//169
f 200//200 169//169 199//199
f 199//199 169//169 170//170
f 199//199 170//170 198//198
f 198//198 170//170 171//171
f 198//198 171//171 172//172
f 172//172 173//173 198//198
f 198//198 173//173 174//174
f 198//198 174//174 175//175
f 175//175 176//176 198//198
f 198//198 176//176 177//177
f 198//198 177//177 197//197
f 197//197 177//177 178//178
f 197//197 178//178 196//196
f 196//196 178//178 179//179
f 196//196 179//179 195//195
f 195//195 179//179 180//180
f 195//195 180//180 194//194
f 194//194 180//180 181//181
f 194//194 181//181 193//193
f 193//193 181//181 182//182
f 193//193 182//182 192//192
f 192//192 182//182 183//183
f 192//192 183//183 191//191
f 191//191 183//183 190//190
f 190//190 183//183 184//184
f 190//190 184//184 189//189
f 189//189 184//184 188//188
f 188//188 184//184 185//185
f 188//188 185//185 187//187
f 187//187 185//185 186//186
f 164//164 206//206 212//212
f 212//212 206//206 207//207
f 212//212 207//207 208//208
f 212//212 208//208 211//211
f 211//211 208//208 209//209
f 211//211 209//209 210//210

# End of file