# WaveFront *.obj file
# Vertices: 24
# Triangles : 12

v -5.0 0.0 3.5
v 5.0 0.0 3.5
v 5.0 0.5 3.5
v -5.0 0.5 3.5
v -5.0 0.0 -3.5
v -5.0 0.0 3.5
v -5.0 0.5 3.5
v -5.0 0.5 -3.5
v 5.0 0.0 -3.5
v -5.0 0.0 -3.5
v -5.0 0.5 -3.5
v 5.0 0.5 -3.5
v 5.0 0.0 3.5
v 5.0 0.0 -3.5
v 5.0 0.5 -3.5
v 5.0 0.5 3.5
v 5.0 0.5 3.5
v 5.0 0.5 -3.5
v -5.0 0.5 -3.5
v -5.0 0.5 3.5
v 5.0 0.0 -3.5
v 5.0 0.0 3.5
v -5.0 0.0 3.5
v -5.0 0.0 -3.5
vn 0.0 0.0 1.0
vn 0.0 0.0 1.0
vn 0.0 0.0 1.0
vn 0.0 0.0 1.0
vn -1.0 0.0 0.0
vn -1.0 0.0 0.0
vn -1.0 0.0 0.0
vn -1.0 0.0 0.0
vn 0.0 0.0 -1.0
vn 0.0 0.0 -1.0
vn 0.0 0.0 -1.0
vn 0.0 0.0 -1.0
vn 1.0 -0.0 0.0
vn 1.0 -0.0 0.0
vn 1.0 -0.0 0.0
vn 1.0 -0.0 0.0
vn 0.0 1.0 0.0
vn 0.0 1.0 0.0
vn 0.0 1.0 0.0
vn 0.0 1.0 0.0
vn -0.0 -1.0 -0.0
vn -0.0 -1.0 -0.0
vn -0.0 -1.0 -0.0
vn -0.0 -1.0 -0.0
g f1c5ee40-e350-11ea-b31d-54bf646e7e1f
f 1//1 2//2 4//4
f 4//4 2//2 3//3
g f1c68a88-e350-11ea-b215-54bf646e7e1f
f 5//5 6//6 8//8
f 8//8 6//6 7//7
g f1c74dd2-e350-11ea-b7c5-54bf646e7e1f
f 9//9 10//10 12//12
f 12//12 10//10 11//11
g f1c85f22-e350-11ea-a698-54bf646e7e1f
f 13//13 14//14 16//16
f 16//16 14//14 15//15
g f1c9227e-e350-11ea-a394-54bf646e7e1f
f 17//17 18//18 20//20
f 20//20 18//18 19//19
g f1ca0c98-e350-11ea-b786-54bf646e7e1f
f 22//22 23//23 21//21
f 21//21 23//23 24//24

# End of file