# WaveFront *.obj file
# Vertices: 36
# Triangles : 20

v 0.2979274094104767 0.0 -0.6500000357627869
v 0.7020726203918457 0.0 -0.6500000357627869
v 0.7020726203918457 0.20000000298023224 -0.6500000357627869
v 0.2979274094104767 0.20000000298023224 -0.6500000357627869
v 0.7020726203918457 0.0 -0.6500000357627869
v 0.2979274094104767 0.0 -0.6500000357627869
v 0.09585481882095337 0.0 -1.0
v 0.2979274094104767 0.0 -1.350000023841858
v 0.7020726203918457 0.0 -1.350000023841858
v 0.9041451811790466 0.0 -1.0
v 0.9041451811790466 0.0 -1.0
v 0.7020726203918457 0.0 -1.350000023841858
v 0.7020726203918457 0.20000000298023224 -1.350000023841858
v 0.9041451811790466 0.20000000298023224 -1.0
v 0.2979274094104767 0.0 -1.350000023841858
v 0.09585481882095337 0.0 -1.0
v 0.09585481882095337 0.20000000298023224 -1.0
v 0.2979274094104767 0.20000000298023224 -1.350000023841858
v 0.7020726203918457 0.0 -0.6500000357627869
v 0.9041451811790466 0.0 -1.0
v 0.9041451811790466 0.20000000298023224 -1.0
v 0.7020726203918457 0.20000000298023224 -0.6500000357627869
v 0.2979274094104767 0.20000000298023224 -0.6500000357627869
v 0.7020726203918457 0.20000000298023224 -0.6500000357627869
v 0.9041451811790466 0.20000000298023224 -1.0
v 0.7020726203918457 0.20000000298023224 -1.350000023841858
v 0.2979274094104767 0.20000000298023224 -1.350000023841858
v 0.09585481882095337 0.20000000298023224 -1.0
v 0.09585481882095337 0.0 -1.0
v 0.2979274094104767 0.0 -0.6500000357627869
v 0.2979274094104767 0.20000000298023224 -0.6500000357627869
v 0.09585481882095337 0.20000000298023224 -1.0
v 0.7020726203918457 0.0 -1.350000023841858
v 0.2979274094104767 0.0 -1.350000023841858
v 0.2979274094104767 0.20000000298023224 -1.350000023841858
v 0.7020726203918457 0.20000000298023224 -1.350000023841858
vn -1.098835831319625e-15 0.0 1.0
vn -1.098835831319625e-15 0.0 1.0
vn -1.098835831319625e-15 0.0 1.0
vn -1.098835831319625e-15 0.0 1.0
vn -0.0 -1.0 -0.0
vn -0.0 -1.0 -0.0
vn -0.0 -1.0 -0.0
vn -0.0 -1.0 -0.0
vn -0.0 -1.0 -0.0
vn -0.0 -1.0 -0.0
vn 0.8660253882408142 0.0 -0.5
vn 0.8660253882408142 0.0 -0.5
vn 0.8660253882408142 0.0 -0.5
vn 0.8660253882408142 0.0 -0.5
vn -0.8660253882408142 0.0 -0.5
vn -0.8660253882408142 0.0 -0.5
vn -0.8660253882408142 0.0 -0.5
vn -0.8660253882408142 0.0 -0.5
vn 0.8660253882408142 -0.0 0.5
vn 0.8660253882408142 -0.0 0.5
vn 0.8660253882408142 -0.0 0.5
vn 0.8660253882408142 -0.0 0.5
vn 0.0 1.0 0.0
vn 0.0 1.0 0.0
vn 0.0 1.0 0.0
vn 0.0 1.0 0.0
vn 0.0 1.0 0.0
vn 0.0 1.0 0.0
vn -0.8660253882408142 0.0 0.5
vn -0.8660253882408142 0.0 0.5
vn -0.8660253882408142 0.0 0.5
vn -0.8660253882408142 0.0 0.5
vn 5.494179156598125e-16 0.0 -1.0
vn 5.494179156598125e-16 0.0 -1.0
vn 5.494179156598125e-16 0.0 -1.0
vn 5.494179156598125e-16 0.0 -1.0
f 1//1 2//2 4//4
f 4//4 2//2 3//3
f 5//5 6//6 10//10
f 10//10 6//6 7//7
f 10//10 7//7 9//9
f 9//9 7//7 8//8
f 11//11 12//12 14//14
f 14//14 12//12 13//13
f 15//15 16//16 18//18
f 18//18 16//16 17//17
f 19//19 20//20 22//22
f 22//22 20//20 21//21
f 24//24 25//25 23//23
f 23//23 25//25 28//28
f 28//28 25//25 26//26
f 28//28 26//26 27//27
f 29//29 30//30 32//32
f 32//32 30//30 31//31
f 33//33 34//34 36//36
f 36//36 34//34 35//35

# End of file