# WaveFront *.obj file
# Vertices: 36
# Triangles : 20

v 0.0 50.0 0.0
v 0.0 50.0 5.0
v 0.20000000298023224 50.0 5.0
v 0.20000000298023224 50.0 -0.20000000298023224
v -5.0 50.0 -0.20000000298023224
v -5.0 50.0 0.0
v 0.0 0.0 5.0
v 0.0 0.0 0.0
v -5.0 0.0 0.0
v -5.0 0.0 -0.20000000298023224
v 0.20000000298023224 0.0 -0.20000000298023224
v 0.20000000298023224 0.0 5.0
v 0.20000000298023224 0.0 5.0
v 0.20000000298023224 0.0 -0.20000000298023224
v 0.20000000298023224 50.0 -0.20000000298023224
v 0.20000000298023224 50.0 5.0
v -5.0 0.0 -0.20000000298023224
v -5.0 0.0 0.0
v -5.0 50.0 0.0
v -5.0 50.0 -0.20000000298023224
v 0.20000000298023224 0.0 -0.20000000298023224
v -5.0 0.0 -0.20000000298023224
v -5.0 50.0 -0.20000000298023224
v 0.20000000298023224 50.0 -0.20000000298023224
v -5.0 0.0 0.0
v 0.0 0.0 0.0
v 0.0 50.0 0.0
v -5.0 50.0 0.0
v 0.0 0.0 5.0
v 0.20000000298023224 0.0 5.0
v 0.20000000298023224 50.0 5.0
v 0.0 50.0 5.0
v 0.0 0.0 0.0
v 0.0 0.0 5.0
v 0.0 50.0 5.0
v 0.0 50.0 0.0
vn 0.0 1.0 0.0
vn 0.0 1.0 0.0
vn 0.0 1.0 0.0
vn 0.0 1.0 0.0
vn 0.0 1.0 0.0
vn 0.0 1.0 0.0
vn -0.0 -1.0 -0.0
vn -0.0 -1.0 -0.0
vn -0.0 -1.0 -0.0
vn -0.0 -1.0 -0.0
vn -0.0 -1.0 -0.0
vn -0.0 -1.0 -0.0
vn 1.0 -0.0 0.0
vn 1.0 -0.0 0.0
vn 1.0 -0.0 0.0
vn 1.0 -0.0 0.0
vn -1.0 0.0 0.0
vn -1.0 0.0 0.0
vn -1.0 0.0 0.0
vn -1.0 0.0 0.0
vn 0.0 0.0 -1.0
vn 0.0 0.0 -1.0
vn 0.0 0.0 -1.0
vn 0.0 0.0 -1.0
vn 0.0 -0.0 1.0
vn 0.0 -0.0 1.0
vn 0.0 -0.0 1.0
vn 0.0 -0.0 1.0
vn 0.0 0.0 1.0
vn 0.0 0.0 1.0
vn 0.0 0.0 1.0
vn 0.0 0.0 1.0
vn -1.0 0.0 0.0
vn -1.0 0.0 0.0
vn -1.0 0.0 0.0
vn -1.0 0.0 0.0
f 2//2 3//3 1//1
f 1//1 3//3 4//4
f 1//1 4//4 5//5
f 5//5 6//6 1//1
f 7//7 8//8 12//12
f 12//12 8//8 11//11
f 11//11 8//8 10//10
f 10//10 8//8 9//9
f 13//13 14//14 16//16
f 16//16 14//14 15//15
f 17//17 18//18 20//20
f 20//20 18//18 19//19
f 21//21 22//22 24//24
f 24//24 22//22 23//23
f 25//25 26//26 28//28
f 28//28 26//26 27//27
f 29//29 30//30 32//32
f 32//32 30//30 31//31
f 33//33 34//34 36//36
f 36//36 34//34 35//35

# End of file