# WaveFront *.obj file
# Vertices: 42
# Triangles : 24

v 1.899999976158142 0.0 1.899999976158142
v 1.899999976158142 0.0 0.0
v 1.899999976158142 4.400000095367432 0.0
v 1.899999976158142 4.400000095367432 1.899999976158142
v 0.0 0.0 1.899999976158142
v 1.899999976158142 0.0 1.899999976158142
v 1.899999976158142 4.400000095367432 1.899999976158142
v 0.0 4.400000095367432 1.899999976158142
v 0.0 0.0 -0.7254834175109863
v 0.0 0.0 1.899999976158142
v 0.0 4.400000095367432 1.899999976158142
v 0.0 4.400000095367432 -0.7254834175109863
v 1.1745165586471558 0.0 -1.899999976158142
v 0.0 0.0 -0.7254834175109863
v 0.0 4.400000095367432 -0.7254834175109863
v 1.1745165586471558 4.400000095367432 -1.899999976158142
v 3.799999952316284 0.0 -1.899999976158142
v 1.1745165586471558 0.0 -1.899999976158142
v 1.1745165586471558 4.400000095367432 -1.899999976158142
v 3.799999952316284 4.400000095367432 -1.899999976158142
v 3.799999952316284 0.0 0.0
v 3.799999952316284 0.0 -1.899999976158142
v 3.799999952316284 4.400000095367432 -1.899999976158142
v 3.799999952316284 4.400000095367432 0.0
v 1.899999976158142 0.0 0.0
v 3.799999952316284 0.0 0.0
v 3.799999952316284 4.400000095367432 0.0
v 1.899999976158142 4.400000095367432 0.0
v 1.899999976158142 4.400000095367432 0.0
v 3.799999952316284 4.400000095367432 0.0
v 3.799999952316284 4.400000095367432 -1.899999976158142
v 1.1745165586471558 4.400000095367432 -1.899999976158142
v 0.0 4.400000095367432 -0.7254834175109863
v 0.0 4.400000095367432 1.899999976158142
v 1.899999976158142 4.400000095367432 1.899999976158142
v 3.799999952316284 0.0 0.0
v 1.899999976158142 0.0 0.0
v 1.899999976158142 0.0 1.899999976158142
v 0.0 0.0 1.899999976158142
v 0.0 0.0 -0.7254834175109863
v 1.1745165586471558 0.0 -1.899999976158142
v 3.799999952316284 0.0 -1.899999976158142
vn 1.0 0.0 0.0
vn 1.0 0.0 0.0
vn 1.0 0.0 0.0
vn 1.0 0.0 0.0
vn 0.0 -0.0 1.0
vn 0.0 -0.0 1.0
vn 0.0 -0.0 1.0
vn 0.0 -0.0 1.0
vn -1.0 0.0 0.0
vn -1.0 0.0 0.0
vn -1.0 0.0 0.0
vn -1.0 0.0 0.0
vn -0.7071067690849304 0.0 -0.7071067690849304
vn -0.7071067690849304 0.0 -0.7071067690849304
vn -0.7071067690849304 0.0 -0.7071067690849304
vn -0.7071067690849304 0.0 -0.7071067690849304
vn 0.0 0.0 -1.0
vn 0.0 0.0 -1.0
vn 0.0 0.0 -1.0
vn 0.0 0.0 -1.0
vn 1.0 -0.0 0.0
vn 1.0 -0.0 0.0
vn 1.0 -0.0 0.0
vn 1.0 -0.0 0.0
vn 0.0 0.0 1.0
vn 0.0 0.0 1.0
vn 0.0 0.0 1.0
vn 0.0 0.0 1.0
vn 0.0 1.0 0.0
vn 0.0 1.0 0.0
vn 0.0 1.0 0.0
vn 0.0 1.0 0.0
vn 0.0 1.0 0.0
vn 0.0 1.0 0.0
vn 0.0 1.0 0.0
vn -0.0 -1.0 -0.0
vn -0.0 -1.0 -0.0
vn -0.0 -1.0 -0.0
vn -0.0 -1.0 -0.0
vn -0.0 -1.0 -0.0
vn -0.0 -1.0 -0.0
vn -0.0 -1.0 -0.0
g e12adb5a-e359-11ea-a15b-54bf646e7e1f
f 1//1 2//2 4//4
f 4//4 2//2 3//3
g e12becbe-e359-11ea-a8e4-54bf646e7e1f
f 5//5 6//6 8//8
f 8//8 6//6 7//7
g e12cfe18-e359-11ea-afdf-54bf646e7e1f
f 9//9 10//10 12//12
f 12//12 10//10 11//11
g e12de864-e359-11ea-a64d-54bf646e7e1f
f 13//13 14//14 16//16
f 16//16 14//14 15//15
g e12ef9e2-e359-11ea-90c1-54bf646e7e1f
f 17//17 18//18 20//20
f 20//20 18//18 19//19
g e1300b40-e359-11ea-ae29-54bf646e7e1f
f 21//21 22//22 24//24
f 24//24 22//22 23//23
g e130f58a-e359-11ea-ac2e-54bf646e7e1f
f 25//25 26//26 28//28
f 28//28 26//26 27//27
g e13206f6-e359-11ea-990c-54bf646e7e1f
f 30//30 31//31 29//29
f 29//29 31//31 32//32
f 29//29 32//32 33//33
f 33//33 34//34 29//29
f 29//29 34//34 35//35
g e1331858-e359-11ea-aa8b-54bf646e7e1f
f 36//36 37//37 42//42
f 42//42 37//37 41//41
f 41//41 37//37 40//40
f 40//40 37//37 39//39
f 39//39 37//37 38//38

# End of file