# WaveFront *.obj file
# Vertices: 48
# Triangles : 28

v -0.5847949385643005 0.0 0.8917102813720703
v 0.2170218825340271 0.0 1.0440468788146973
v 0.2170218825340271 0.5 1.0440468788146973
v -0.5847949385643005 0.5 0.8917102813720703
v -1.0440468788146973 0.0 0.2170218825340271
v -0.5847949385643005 0.0 0.8917102813720703
v -0.5847949385643005 0.5 0.8917102813720703
v -1.0440468788146973 0.5 0.2170218825340271
v -0.8917102813720703 0.0 -0.5847949385643005
v -1.0440468788146973 0.0 0.2170218825340271
v -1.0440468788146973 0.5 0.2170218825340271
v -0.8917102813720703 0.5 -0.5847949385643005
v -0.2170218825340271 0.0 -1.0440468788146973
v -0.8917102813720703 0.0 -0.5847949385643005
v -0.8917102813720703 0.5 -0.5847949385643005
v -0.2170218825340271 0.5 -1.0440468788146973
v 0.5847949385643005 0.0 -0.8917102813720703
v -0.2170218825340271 0.0 -1.0440468788146973
v -0.2170218825340271 0.5 -1.0440468788146973
v 0.5847949385643005 0.5 -0.8917102813720703
v 1.0440468788146973 0.0 -0.2170218825340271
v 0.5847949385643005 0.0 -0.8917102813720703
v 0.5847949385643005 0.5 -0.8917102813720703
v 1.0440468788146973 0.5 -0.2170218825340271
v 0.8917102813720703 0.0 0.5847949385643005
v 1.0440468788146973 0.0 -0.2170218825340271
v 1.0440468788146973 0.5 -0.2170218825340271
v 0.8917102813720703 0.5 0.5847949385643005
v 0.2170218825340271 0.0 1.0440468788146973
v 0.8917102813720703 0.0 0.5847949385643005
v 0.8917102813720703 0.5 0.5847949385643005
v 0.2170218825340271 0.5 1.0440468788146973
v 0.2170218825340271 0.5 1.0440468788146973
v 0.8917102813720703 0.5 0.5847949385643005
v 1.0440468788146973 0.5 -0.2170218825340271
v 0.5847949385643005 0.5 -0.8917102813720703
v -0.2170218825340271 0.5 -1.0440468788146973
v -0.8917102813720703 0.5 -0.5847949385643005
v -1.0440468788146973 0.5 0.2170218825340271
v -0.5847949385643005 0.5 0.8917102813720703
v 0.8917102813720703 0.0 0.5847949385643005
v 0.2170218825340271 0.0 1.0440468788146973
v -0.5847949385643005 0.0 0.8917102813720703
v -1.0440468788146973 0.0 0.2170218825340271
v -0.8917102813720703 0.0 -0.5847949385643005
v -0.2170218825340271 0.0 -1.0440468788146973
v 0.5847949385643005 0.0 -0.8917102813720703
v 1.0440468788146973 0.0 -0.2170218825340271
vn -0.18665046989917755 0.0 0.9824264049530029
vn -0.18665046989917755 0.0 0.9824264049530029
vn -0.18665046989917755 0.0 0.9824264049530029
vn -0.18665046989917755 0.0 0.9824264049530029
vn -0.8266621828079224 0.0 0.5626985430717468
vn -0.8266621828079224 0.0 0.5626985430717468
vn -0.8266621828079224 0.0 0.5626985430717468
vn -0.8266621828079224 0.0 0.5626985430717468
vn -0.9824264049530029 0.0 -0.18665046989917755
vn -0.9824264049530029 0.0 -0.18665046989917755
vn -0.9824264049530029 0.0 -0.18665046989917755
vn -0.9824264049530029 0.0 -0.18665046989917755
vn -0.5626985430717468 0.0 -0.8266621828079224
vn -0.5626985430717468 0.0 -0.8266621828079224
vn -0.5626985430717468 0.0 -0.8266621828079224
vn -0.5626985430717468 0.0 -0.8266621828079224
vn 0.18665046989917755 0.0 -0.9824264049530029
vn 0.18665046989917755 0.0 -0.9824264049530029
vn 0.18665046989917755 0.0 -0.9824264049530029
vn 0.18665046989917755 0.0 -0.9824264049530029
vn 0.8266621828079224 0.0 -0.5626985430717468
vn 0.8266621828079224 0.0 -0.5626985430717468
vn 0.8266621828079224 0.0 -0.5626985430717468
vn 0.8266621828079224 0.0 -0.5626985430717468
vn 0.9824264049530029 -0.0 0.18665046989917755
vn 0.9824264049530029 -0.0 0.18665046989917755
vn 0.9824264049530029 -0.0 0.18665046989917755
vn 0.9824264049530029 -0.0 0.18665046989917755
vn 0.5626985430717468 -0.0 0.8266621828079224
vn 0.5626985430717468 -0.0 0.8266621828079224
vn 0.5626985430717468 -0.0 0.8266621828079224
vn 0.5626985430717468 -0.0 0.8266621828079224
vn 0.0 1.0 0.0
vn 0.0 1.0 0.0
vn 0.0 1.0 0.0
vn 0.0 1.0 0.0
vn 0.0 1.0 0.0
vn 0.0 1.0 0.0
vn 0.0 1.0 0.0
vn 0.0 1.0 0.0
vn -0.0 -1.0 -0.0
vn -0.0 -1.0 -0.0
vn -0.0 -1.0 -0.0
vn -0.0 -1.0 -0.0
vn -0.0 -1.0 -0.0
vn -0.0 -1.0 -0.0
vn -0.0 -1.0 -0.0
vn -0.0 -1.0 -0.0
g 387b7ee4-e36f-11ea-ad7a-54bf646e7e1f
f 1//1 2//2 4//4
f 4//4 2//2 3//3
g 3881c09c-e36f-11ea-9940-54bf646e7e1f
f 5//5 6//6 8//8
f 8//8 6//6 7//7
g 38994078-e36f-11ea-96d4-54bf646e7e1f
f 9//9 10//10 12//12
f 12//12 10//10 11//11
g 38a17de4-e36f-11ea-b3c8-54bf646e7e1f
f 13//13 14//14 16//16
f 16//16 14//14 15//15
g 38a83498-e36f-11ea-9d6b-54bf646e7e1f
f 17//17 18//18 20//20
f 20//20 18//18 19//19
g 38ae764a-e36f-11ea-ac28-54bf646e7e1f
f 21//21 22//22 24//24
f 24//24 22//22 23//23
g 38b469f4-e36f-11ea-85f0-54bf646e7e1f
f 25//25 26//26 28//28
f 28//28 26//26 27//27
g 38baf9e8-e36f-11ea-a907-54bf646e7e1f
f 29//29 30//30 32//32
f 32//32 30//30 31//31
g 38c1d7c0-e36f-11ea-b969-54bf646e7e1f
f 34//34 36//36 33//33
f 33//33 36//36 37//37
f 33//33 37//37 40//40
f 40//40 37//37 38//38
f 40//40 38//38 39//39
f 34//34 35//35 36//36
g 38c7f24c-e36f-11ea-8fd8-54bf646e7e1f
f 42//42 43//43 41//41
f 41//41 43//43 44//44
f 41//41 44//44 48//48
f 48//48 44//44 45//45
f 48//48 45//45 47//47
f 47//47 45//45 46//46

# End of file