# WaveFront *.obj file
# Vertices: 24
# Triangles : 12

v -7.75 0.0 2.0
v 7.75 0.0 2.0
v 7.75 1.25 2.0
v -7.75 1.25 2.0
v -7.75 0.0 -2.0
v -7.75 0.0 2.0
v -7.75 1.25 2.0
v -7.75 1.25 -2.0
v 7.75 0.0 -2.0
v -7.75 0.0 -2.0
v -7.75 1.25 -2.0
v 7.75 1.25 -2.0
v 7.75 0.0 2.0
v 7.75 0.0 -2.0
v 7.75 1.25 -2.0
v 7.75 1.25 2.0
v 7.75 1.25 2.0
v 7.75 1.25 -2.0
v -7.75 1.25 -2.0
v -7.75 1.25 2.0
v 7.75 0.0 -2.0
v 7.75 0.0 2.0
v -7.75 0.0 2.0
v -7.75 0.0 -2.0
vn 0.0 0.0 1.0
vn 0.0 0.0 1.0
vn 0.0 0.0 1.0
vn 0.0 0.0 1.0
vn -1.0 0.0 0.0
vn -1.0 0.0 0.0
vn -1.0 0.0 0.0
vn -1.0 0.0 0.0
vn 0.0 0.0 -1.0
vn 0.0 0.0 -1.0
vn 0.0 0.0 -1.0
vn 0.0 0.0 -1.0
vn 1.0 -0.0 0.0
vn 1.0 -0.0 0.0
vn 1.0 -0.0 0.0
vn 1.0 -0.0 0.0
vn 0.0 1.0 0.0
vn 0.0 1.0 0.0
vn 0.0 1.0 0.0
vn 0.0 1.0 0.0
vn -0.0 -1.0 -0.0
vn -0.0 -1.0 -0.0
vn -0.0 -1.0 -0.0
vn -0.0 -1.0 -0.0
g 48f2dd2c-e371-11ea-b68c-54bf646e7e1f
f 1//1 2//2 4//4
f 4//4 2//2 3//3
g 48f463d2-e371-11ea-83cc-54bf646e7e1f
f 5//5 6//6 8//8
f 8//8 6//6 7//7
g 48f57540-e371-11ea-8a5a-54bf646e7e1f
f 9//9 10//10 12//12
f 12//12 10//10 11//11
g 48f749fa-e371-11ea-881e-54bf646e7e1f
f 13//13 14//14 16//16
f 16//16 14//14 15//15
g 48f8828a-e371-11ea-ba18-54bf646e7e1f
f 17//17 18//18 20//20
f 20//20 18//18 19//19
g 48f99400-e371-11ea-8ad7-54bf646e7e1f
f 22//22 23//23 21//21
f 21//21 23//23 24//24

# End of file