# WaveFront *.obj file
# Vertices: 200
# Triangles : 168

v 9.0 -0.30000001192092896 2.7790255546569824
v 9.0 0.30000001192092896 2.7790255546569824
v 8.984877586364746 0.30000001192092896 3.024503469467163
v 8.939740180969238 0.30000001192092896 3.2662694454193115
v 8.865270614624023 0.30000001192092896 3.5006673336029053
v 8.762593269348145 0.30000001192092896 3.7241523265838623
v 8.633262634277344 0.30000001192092896 3.933345317840576
v 8.479232788085938 0.30000001192092896 4.125082492828369
v 8.302834510803223 0.30000001192092896 4.296464443206787
v 8.106735229492188 0.30000001192092896 4.444900035858154
v 7.893898963928223 0.30000001192092896 4.568143844604492
v 7.667545795440674 0.30000001192092896 4.664332389831543
v 7.431097507476807 0.30000001192092896 4.732011795043945
v 7.431097507476807 -0.30000001192092896 4.732011795043945
v 7.667545795440674 -0.30000001192092896 4.664332389831543
v 7.893898963928223 -0.30000001192092896 4.568143844604492
v 8.106735229492188 -0.30000001192092896 4.444900035858154
v 8.302834510803223 -0.30000001192092896 4.296464443206787
v 8.479232788085938 -0.30000001192092896 4.125082492828369
v 8.633262634277344 -0.30000001192092896 3.933345317840576
v 8.762593269348145 -0.30000001192092896 3.7241523265838623
v 8.865270614624023 -0.30000001192092896 3.5006673336029053
v 8.939740180969238 -0.30000001192092896 3.2662694454193115
v 8.984877586364746 -0.30000001192092896 3.024503469467163
v 2.5 -0.30000001192092896 1.0549216270446777
v 2.5 0.30000001192092896 1.0549216270446777
v 8.5 0.30000001192092896 1.0549216270446777
v 8.5 -0.30000001192092896 1.0549216270446777
v 9.0 -0.30000001192092896 1.5549216270446777
v 9.0 0.30000001192092896 1.5549216270446777
v 9.0 0.30000001192092896 2.7790255546569824
v 9.0 -0.30000001192092896 2.7790255546569824
v 8.5 -0.30000001192092896 1.0549216270446777
v 8.611260414123535 -0.30000001192092896 1.067457675933838
v 8.716941833496094 -0.30000001192092896 1.1044371128082275
v 8.811744689941406 -0.30000001192092896 1.1640058755874634
v 8.890915870666504 -0.30000001192092896 1.2431766986846924
v 8.950484275817871 -0.30000001192092896 1.3379796743392944
v 8.98746395111084 -0.30000001192092896 1.443661093711853
v 9.0 -0.30000001192092896 1.5549216270446777
v 9.0 -0.30000001192092896 2.7790255546569824
v 8.984877586364746 -0.30000001192092896 3.024503469467163
v 8.939740180969238 -0.30000001192092896 3.2662694454193115
v 8.865270614624023 -0.30000001192092896 3.5006673336029053
v 8.762593269348145 -0.30000001192092896 3.7241523265838623
v 8.633262634277344 -0.30000001192092896 3.933345317840576
v 8.479232788085938 -0.30000001192092896 4.125082492828369
v 8.302834510803223 -0.30000001192092896 4.296464443206787
v 8.106735229492188 -0.30000001192092896 4.444900035858154
v 7.893898963928223 -0.30000001192092896 4.568143844604492
v 7.667545795440674 -0.30000001192092896 4.664332389831543
v 7.431097507476807 -0.30000001192092896 4.732011795043945
v 2.5 -0.30000001192092896 5.820490837097168
v 2.5 -0.30000001192092896 1.0549216270446777
v 9.0 0.30000001192092896 1.5549216270446777
v 8.98746395111084 0.30000001192092896 1.443661093711853
v 8.950484275817871 0.30000001192092896 1.3379796743392944
v 8.890915870666504 0.30000001192092896 1.2431766986846924
v 8.811744689941406 0.30000001192092896 1.1640058755874634
v 8.716941833496094 0.30000001192092896 1.1044371128082275
v 8.611260414123535 0.30000001192092896 1.067457675933838
v 8.5 0.30000001192092896 1.0549216270446777
v 2.5 0.30000001192092896 1.0549216270446777
v 2.5 0.30000001192092896 5.820490837097168
v 7.431097507476807 0.30000001192092896 4.732011795043945
v 7.667545795440674 0.30000001192092896 4.664332389831543
v 7.893898963928223 0.30000001192092896 4.568143844604492
v 8.106735229492188 0.30000001192092896 4.444900035858154
v 8.302834510803223 0.30000001192092896 4.296464443206787
v 8.479232788085938 0.30000001192092896 4.125082492828369
v 8.633262634277344 0.30000001192092896 3.933345317840576
v 8.762593269348145 0.30000001192092896 3.7241523265838623
v 8.865270614624023 0.30000001192092896 3.5006673336029053
v 8.939740180969238 0.30000001192092896 3.2662694454193115
v 8.984877586364746 0.30000001192092896 3.024503469467163
v 9.0 0.30000001192092896 2.7790255546569824
v 2.5 -0.30000001192092896 5.820490837097168
v 2.5 0.30000001192092896 5.820490837097168
v 2.5 0.30000001192092896 1.0549216270446777
v 2.5 -0.30000001192092896 1.0549216270446777
v 8.5 -0.30000001192092896 1.0549216270446777
v 8.5 0.30000001192092896 1.0549216270446777
v 8.611260414123535 0.30000001192092896 1.067457675933838
v 8.716941833496094 0.30000001192092896 1.1044371128082275
v 8.811744689941406 0.30000001192092896 1.1640058755874634
v 8.890915870666504 0.30000001192092896 1.2431766986846924
v 8.950484275817871 0.30000001192092896 1.3379796743392944
v 8.98746395111084 0.30000001192092896 1.443661093711853
v 9.0 0.30000001192092896 1.5549216270446777
v 9.0 -0.30000001192092896 1.5549216270446777
v 8.98746395111084 -0.30000001192092896 1.443661093711853
v 8.950484275817871 -0.30000001192092896 1.3379796743392944
v 8.890915870666504 -0.30000001192092896 1.2431766986846924
v 8.811744689941406 -0.30000001192092896 1.1640058755874634
v 8.716941833496094 -0.30000001192092896 1.1044371128082275
v 8.611260414123535 -0.30000001192092896 1.067457675933838
v 7.431097507476807 -0.30000001192092896 4.732011795043945
v 7.431097507476807 0.30000001192092896 4.732011795043945
v 2.5 0.30000001192092896 5.820490837097168
v 2.5 -0.30000001192092896 5.820490837097168
v -8.5 -0.30000001192092896 1.0549216270446777
v -8.5 0.30000001192092896 1.0549216270446777
v -2.5 0.30000001192092896 1.0549216270446777
v -2.5 -0.30000001192092896 1.0549216270446777
v -7.431097507476807 -0.30000001192092896 4.732011795043945
v -7.431097507476807 0.30000001192092896 4.732011795043945
v -7.667545795440674 0.30000001192092896 4.664332389831543
v -7.893898963928223 0.30000001192092896 4.568143844604492
v -8.106735229492188 0.30000001192092896 4.444900035858154
v -8.302834510803223 0.30000001192092896 4.296464443206787
v -8.479232788085938 0.30000001192092896 4.125082492828369
v -8.633262634277344 0.30000001192092896 3.933345317840576
v -8.762593269348145 0.30000001192092896 3.7241523265838623
v -8.865270614624023 0.30000001192092896 3.5006673336029053
v -8.939740180969238 0.30000001192092896 3.2662694454193115
v -8.984877586364746 0.30000001192092896 3.024503469467163
v -9.0 0.30000001192092896 2.7790255546569824
v -9.0 -0.30000001192092896 2.7790255546569824
v -8.984877586364746 -0.30000001192092896 3.024503469467163
v -8.939740180969238 -0.30000001192092896 3.2662694454193115
v -8.865270614624023 -0.30000001192092896 3.5006673336029053
v -8.762593269348145 -0.30000001192092896 3.7241523265838623
v -8.633262634277344 -0.30000001192092896 3.933345317840576
v -8.479232788085938 -0.30000001192092896 4.125082492828369
v -8.302834510803223 -0.30000001192092896 4.296464443206787
v -8.106735229492188 -0.30000001192092896 4.444900035858154
v -7.893898963928223 -0.30000001192092896 4.568143844604492
v -7.667545795440674 -0.30000001192092896 4.664332389831543
v -2.5 -0.30000001192092896 1.0549216270446777
v -2.5 0.30000001192092896 1.0549216270446777
v -2.5 0.30000001192092896 5.820490837097168
v -2.5 -0.30000001192092896 5.820490837097168
v -9.0 -0.30000001192092896 1.5549216270446777
v -9.0 0.30000001192092896 1.5549216270446777
v -8.98746395111084 0.30000001192092896 1.443661093711853
v -8.950484275817871 0.30000001192092896 1.3379796743392944
v -8.890915870666504 0.30000001192092896 1.2431766986846924
v -8.811744689941406 0.30000001192092896 1.1640058755874634
v -8.716941833496094 0.30000001192092896 1.1044371128082275
v -8.611260414123535 0.30000001192092896 1.067457675933838
v -8.5 0.30000001192092896 1.0549216270446777
v -8.5 -0.30000001192092896 1.0549216270446777
v -8.611260414123535 -0.30000001192092896 1.067457675933838
v -8.716941833496094 -0.30000001192092896 1.1044371128082275
v -8.811744689941406 -0.30000001192092896 1.1640058755874634
v -8.890915870666504 -0.30000001192092896 1.2431766986846924
v -8.950484275817871 -0.30000001192092896 1.3379796743392944
v -8.98746395111084 -0.30000001192092896 1.443661093711853
v -2.5 -0.30000001192092896 5.820490837097168
v -2.5 0.30000001192092896 5.820490837097168
v -7.431097507476807 0.30000001192092896 4.732011795043945
v -7.431097507476807 -0.30000001192092896 4.732011795043945
v -9.0 -0.30000001192092896 2.7790255546569824
v -9.0 0.30000001192092896 2.7790255546569824
v -9.0 0.30000001192092896 1.5549216270446777
v -9.0 -0.30000001192092896 1.5549216270446777
v -8.5 -0.30000001192092896 1.0549216270446777
v -2.5 -0.30000001192092896 1.0549216270446777
v -2.5 -0.30000001192092896 5.820490837097168
v -7.431097507476807 -0.30000001192092896 4.732011795043945
v -7.667545795440674 -0.30000001192092896 4.664332389831543
v -7.893898963928223 -0.30000001192092896 4.568143844604492
v -8.106735229492188 -0.30000001192092896 4.444900035858154
v -8.302834510803223 -0.30000001192092896 4.296464443206787
v -8.479232788085938 -0.30000001192092896 4.125082492828369
v -8.633262634277344 -0.30000001192092896 3.933345317840576
v -8.762593269348145 -0.30000001192092896 3.7241523265838623
v -8.865270614624023 -0.30000001192092896 3.5006673336029053
v -8.939740180969238 -0.30000001192092896 3.2662694454193115
v -8.984877586364746 -0.30000001192092896 3.024503469467163
v -9.0 -0.30000001192092896 2.7790255546569824
v -9.0 -0.30000001192092896 1.5549216270446777
v -8.98746395111084 -0.30000001192092896 1.443661093711853
v -8.950484275817871 -0.30000001192092896 1.3379796743392944
v -8.890915870666504 -0.30000001192092896 1.2431766986846924
v -8.811744689941406 -0.30000001192092896 1.1640058755874634
v -8.716941833496094 -0.30000001192092896 1.1044371128082275
v -8.611260414123535 -0.30000001192092896 1.067457675933838
v -2.5 0.30000001192092896 1.0549216270446777
v -8.5 0.30000001192092896 1.0549216270446777
v -8.611260414123535 0.30000001192092896 1.067457675933838
v -8.716941833496094 0.30000001192092896 1.1044371128082275
v -8.811744689941406 0.30000001192092896 1.1640058755874634
v -8.890915870666504 0.30000001192092896 1.2431766986846924
v -8.950484275817871 0.30000001192092896 1.3379796743392944
v -8.98746395111084 0.30000001192092896 1.443661093711853
v -9.0 0.30000001192092896 1.5549216270446777
v -9.0 0.30000001192092896 2.7790255546569824
v -8.984877586364746 0.30000001192092896 3.024503469467163
v -8.939740180969238 0.30000001192092896 3.2662694454193115
v -8.865270614624023 0.30000001192092896 3.5006673336029053
v -8.762593269348145 0.30000001192092896 3.7241523265838623
v -8.633262634277344 0.30000001192092896 3.933345317840576
v -8.479232788085938 0.30000001192092896 4.125082492828369
v -8.302834510803223 0.30000001192092896 4.296464443206787
v -8.106735229492188 0.30000001192092896 4.444900035858154
v -7.893898963928223 0.30000001192092896 4.568143844604492
v -7.667545795440674 0.30000001192092896 4.664332389831543
v -7.431097507476807 0.30000001192092896 4.732011795043945
v -2.5 0.30000001192092896 5.820490837097168
vn 1.0 -0.0 -5.551115123125783e-16
vn 1.0 -0.0 -5.551115123125783e-16
vn 0.9924389719963074 -0.0 0.1227390319108963
vn 0.9698702692985535 -0.0 0.24362200498580933
vn 0.9326351284980774 -0.0 0.3608209192752838
vn 0.8812966346740723 -0.0 0.4725634753704071
vn 0.8166311383247375 -0.0 0.5771598815917969
vn 0.7396165132522583 -0.0 0.6730285286903381
vn 0.6514174342155457 -0.0 0.7587195634841919
vn 0.5533674955368042 -0.0 0.8329371809959412
vn 0.4469496011734009 -0.0 0.8945591449737549
vn 0.3337728679180145 -0.0 0.9426535367965698
vn 0.2155488282442093 -0.0 0.9764930605888367
vn 0.2155488282442093 -0.0 0.9764930605888367
vn 0.3337728679180145 -0.0 0.9426535367965698
vn 0.4469496011734009 -0.0 0.8945591449737549
vn 0.5533674955368042 -0.0 0.8329371809959412
vn 0.6514174342155457 -0.0 0.7587195634841919
vn 0.7396165132522583 -0.0 0.6730285286903381
vn 0.8166311383247375 -0.0 0.5771598815917969
vn 0.8812966346740723 -0.0 0.4725634753704071
vn 0.9326351284980774 -0.0 0.3608209192752838
vn 0.9698702692985535 -0.0 0.24362200498580933
vn 0.9924389719963074 -0.0 0.1227390319108963
vn 0.0 0.0 -1.0
vn 0.0 0.0 -1.0
vn 0.0 0.0 -1.0
vn 0.0 0.0 -1.0
vn 1.0 0.0 0.0
vn 1.0 0.0 0.0
vn 1.0 0.0 0.0
vn 1.0 0.0 0.0
vn -0.0 -1.0 -0.0
vn -0.0 -1.0 -0.0
vn -0.0 -1.0 -0.0
vn -0.0 -1.0 -0.0
vn -0.0 -1.0 -0.0
vn -0.0 -1.0 -0.0
vn -0.0 -1.0 -0.0
vn -0.0 -1.0 -0.0
vn -0.0 -1.0 -0.0
vn -0.0 -1.0 -0.0
vn -0.0 -1.0 -0.0
vn -0.0 -1.0 -0.0
vn -0.0 -1.0 -0.0
vn -0.0 -1.0 -0.0
vn -0.0 -1.0 -0.0
vn -0.0 -1.0 -0.0
vn -0.0 -1.0 -0.0
vn -0.0 -1.0 -0.0
vn -0.0 -1.0 -0.0
vn -0.0 -1.0 -0.0
vn -0.0 -1.0 -0.0
vn -0.0 -1.0 -0.0
vn 0.0 1.0 0.0
vn 0.0 1.0 0.0
vn 0.0 1.0 0.0
vn 0.0 1.0 0.0
vn 0.0 1.0 0.0
vn 0.0 1.0 0.0
vn 0.0 1.0 0.0
vn 0.0 1.0 0.0
vn 0.0 1.0 0.0
vn 0.0 1.0 0.0
vn 0.0 1.0 0.0
vn 0.0 1.0 0.0
vn 0.0 1.0 0.0
vn 0.0 1.0 0.0
vn 0.0 1.0 0.0
vn 0.0 1.0 0.0
vn 0.0 1.0 0.0
vn 0.0 1.0 0.0
vn 0.0 1.0 0.0
vn 0.0 1.0 0.0
vn 0.0 1.0 0.0
vn 0.0 1.0 0.0
vn -1.0 0.0 0.0
vn -1.0 0.0 0.0
vn -1.0 0.0 0.0
vn -1.0 0.0 0.0
vn 3.613946114073988e-15 -0.0 -1.0
vn 3.613946114073988e-15 -0.0 -1.0
vn 0.22252093255519867 -0.0 -0.9749279022216797
vn 0.4338837265968323 -0.0 -0.9009688496589661
vn 0.6234897971153259 -0.0 -0.7818315029144287
vn 0.7818315029144287 -0.0 -0.6234897971153259
vn 0.9009688496589661 -0.0 -0.4338837265968323
vn 0.9749279022216797 -0.0 -0.22252093255519867
vn 1.0 -0.0 -2.220446049250313e-15
vn 1.0 -0.0 -2.220446049250313e-15
vn 0.9749279022216797 -0.0 -0.22252093255519867
vn 0.9009688496589661 -0.0 -0.4338837265968323
vn 0.7818315029144287 -0.0 -0.6234897971153259
vn 0.6234897971153259 -0.0 -0.7818315029144287
vn 0.4338837265968323 -0.0 -0.9009688496589661
vn 0.22252093255519867 -0.0 -0.9749279022216797
vn 0.2155488282442093 -0.0 0.9764930605888367
vn 0.2155488282442093 -0.0 0.9764930605888367
vn 0.2155488282442093 -0.0 0.9764930605888367
vn 0.2155488282442093 -0.0 0.9764930605888367
vn 0.0 0.0 -1.0
vn 0.0 0.0 -1.0
vn 0.0 0.0 -1.0
vn 0.0 0.0 -1.0
vn -0.2155488282442093 -0.0 0.9764930605888367
vn -0.2155488282442093 -0.0 0.9764930605888367
vn -0.3337728679180145 -0.0 0.9426535367965698
vn -0.4469496011734009 -0.0 0.8945591449737549
vn -0.5533674955368042 -0.0 0.8329371809959412
vn -0.6514174342155457 -0.0 0.7587195634841919
vn -0.7396165132522583 -0.0 0.6730285286903381
vn -0.8166311383247375 -0.0 0.5771598815917969
vn -0.8812966346740723 -0.0 0.4725634753704071
vn -0.9326351284980774 -0.0 0.3608209192752838
vn -0.9698702692985535 -0.0 0.24362200498580933
vn -0.9924389719963074 -0.0 0.1227390319108963
vn -1.0 0.0 -4.440892098500626e-16
vn -1.0 0.0 -4.440892098500626e-16
vn -0.9924389719963074 -0.0 0.1227390319108963
vn -0.9698702692985535 -0.0 0.24362200498580933
vn -0.9326351284980774 -0.0 0.3608209192752838
vn -0.8812966346740723 -0.0 0.4725634753704071
vn -0.8166311383247375 -0.0 0.5771598815917969
vn -0.7396165132522583 -0.0 0.6730285286903381
vn -0.6514174342155457 -0.0 0.7587195634841919
vn -0.5533674955368042 -0.0 0.8329371809959412
vn -0.4469496011734009 -0.0 0.8945591449737549
vn -0.3337728679180145 -0.0 0.9426535367965698
vn 1.0 0.0 0.0
vn 1.0 0.0 0.0
vn 1.0 0.0 0.0
vn 1.0 0.0 0.0
vn -1.0 0.0 -1.8375892746737375e-15
vn -1.0 0.0 -1.8375892746737375e-15
vn -0.9749279022216797 0.0 -0.22252093255519867
vn -0.9009688496589661 0.0 -0.4338837265968323
vn -0.7818315029144287 0.0 -0.6234897971153259
vn -0.6234897971153259 0.0 -0.7818315029144287
vn -0.4338837265968323 0.0 -0.9009688496589661
vn -0.22252093255519867 0.0 -0.9749279022216797
vn -3.552713678800501e-15 0.0 -1.0
vn -3.552713678800501e-15 0.0 -1.0
vn -0.22252093255519867 0.0 -0.9749279022216797
vn -0.4338837265968323 0.0 -0.9009688496589661
vn -0.6234897971153259 0.0 -0.7818315029144287
vn -0.7818315029144287 0.0 -0.6234897971153259
vn -0.9009688496589661 0.0 -0.4338837265968323
vn -0.9749279022216797 0.0 -0.22252093255519867
vn -0.2155488282442093 0.0 0.9764930605888367
vn -0.2155488282442093 0.0 0.9764930605888367
vn -0.2155488282442093 0.0 0.9764930605888367
vn -0.2155488282442093 0.0 0.9764930605888367
vn -1.0 0.0 0.0
vn -1.0 0.0 0.0
vn -1.0 0.0 0.0
vn -1.0 0.0 0.0
vn -0.0 -1.0 -0.0
vn -0.0 -1.0 -0.0
vn -0.0 -1.0 -0.0
vn -0.0 -1.0 -0.0
vn -0.0 -1.0 -0.0
vn -0.0 -1.0 -0.0
vn -0.0 -1.0 -0.0
vn -0.0 -1.0 -0.0
vn -0.0 -1.0 -0.0
vn -0.0 -1.0 -0.0
vn -0.0 -1.0 -0.0
vn -0.0 -1.0 -0.0
vn -0.0 -1.0 -0.0
vn -0.0 -1.0 -0.0
vn -0.0 -1.0 -0.0
vn -0.0 -1.0 -0.0
vn -0.0 -1.0 -0.0
vn -0.0 -1.0 -0.0
vn -0.0 -1.0 -0.0
vn -0.0 -1.0 -0.0
vn -0.0 -1.0 -0.0
vn -0.0 -1.0 -0.0
vn 0.0 1.0 0.0
vn 0.0 1.0 0.0
vn 0.0 1.0 0.0
vn 0.0 1.0 0.0
vn 0.0 1.0 0.0
vn 0.0 1.0 0.0
vn 0.0 1.0 0.0
vn 0.0 1.0 0.0
vn 0.0 1.0 0.0
vn 0.0 1.0 0.0
vn 0.0 1.0 0.0
vn 0.0 1.0 0.0
vn 0.0 1.0 0.0
vn 0.0 1.0 0.0
vn 0.0 1.0 0.0
vn 0.0 1.0 0.0
vn 0.0 1.0 0.0
vn 0.0 1.0 0.0
vn 0.0 1.0 0.0
vn 0.0 1.0 0.0
vn 0.0 1.0 0.0
vn 0.0 1.0 0.0
f 1//1 2//2 24//24
f 24//24 2//2 3//3
f 24//24 3//3 23//23
f 23//23 3//3 4//4
f 23//23 4//4 22//22
f 22//22 4//4 5//5
f 22//22 5//5 21//21
f 21//21 5//5 6//6
f 21//21 6//6 20//20
f 20//20 6//6 7//7
f 20//20 7//7 19//19
f 19//19 7//7 8//8
f 19//19 8//8 18//18
f 18//18 8//8 9//9
f 18//18 9//9 17//17
f 17//17 9//9 10//10
f 17//17 10//10 16//16
f 16//16 10//10 11//11
f 16//16 11//11 15//15
f 15//15 11//11 12//12
f 15//15 12//12 14//14
f 14//14 12//12 13//13
f 26//26 27//27 25//25
f 25//25 27//27 28//28
f 30//30 31//31 29//29
f 29//29 31//31 32//32
f 34//34 35//35 33//33
f 33//33 35//35 36//36
f 33//33 36//36 37//37
f 37//37 38//38 33//33
f 33//33 38//38 39//39
f 33//33 39//39 40//40
f 40//40 41//41 33//33
f 33//33 41//41 54//54
f 54//54 41//41 52//52
f 54//54 52//52 53//53
f 41//41 42//42 52//52
f 52//52 42//42 43//43
f 52//52 43//43 44//44
f 44//44 45//45 52//52
f 52//52 45//45 46//46
f 52//52 46//46 47//47
f 47//47 48//48 52//52
f 52//52 48//48 49//49
f 52//52 49//49 50//50
f 50//50 51//51 52//52
f 76//76 55//55 62//62
f 62//62 55//55 56//56
f 62//62 56//56 57//57
f 57//57 58//58 62//62
f 62//62 58//58 59//59
f 62//62 59//59 60//60
f 60//60 61//61 62//62
f 62//62 63//63 76//76
f 76//76 63//63 65//65
f 76//76 65//65 75//75
f 75//75 65//65 74//74
f 74//74 65//65 73//73
f 73//73 65//65 72//72
f 72//72 65//65 71//71
f 71//71 65//65 70//70
f 70//70 65//65 69//69
f 69//69 65//65 68//68
f 68//68 65//65 67//67
f 67//67 65//65 66//66
f 63//63 64//64 65//65
f 78//78 79//79 77//77
f 77//77 79//79 80//80
f 81//81 82//82 96//96
f 96//96 82//82 83//83
f 96//96 83//83 95//95
f 95//95 83//83 84//84
f 95//95 84//84 94//94
f 94//94 84//84 85//85
f 94//94 85//85 93//93
f 93//93 85//85 86//86
f 93//93 86//86 92//92
f 92//92 86//86 87//87
f 92//92 87//87 91//91
f 91//91 87//87 88//88
f 91//91 88//88 90//90
f 90//90 88//88 89//89
f 98//98 99//99 97//97
f 97//97 99//99 100//100
f 102//102 103//103 101//101
f 101//101 103//103 104//104
f 105//105 106//106 128//128
f 128//128 106//106 107//107
f 128//128 107//107 127//127
f 127//127 107//107 108//108
f 127//127 108//108 126//126
f 126//126 108//108 109//109
f 126//126 109//109 125//125
f 125//125 109//109 110//110
f 125//125 110//110 124//124
f 124//124 110//110 111//111
f 124//124 111//111 123//123
f 123//123 111//111 112//112
f 123//123 112//112 122//122
f 122//122 112//112 113//113
f 122//122 113//113 121//121
f 121//121 113//113 114//114
f 121//121 114//114 120//120
f 120//120 114//114 115//115
f 120//120 115//115 119//119
f 119//119 115//115 116//116
f 119//119 116//116 118//118
f 118//118 116//116 117//117
f 130//130 131//131 129//129
f 129//129 131//131 132//132
f 133//133 134//134 148//148
f 148//148 134//134 135//135
f 148//148 135//135 147//147
f 147//147 135//135 136//136
f 147//147 136//136 146//146
f 146//146 136//136 137//137
f 146//146 137//137 145//145
f 145//145 137//137 138//138
f 145//145 138//138 144//144
f 144//144 138//138 139//139
f 144//144 139//139 143//143
f 143//143 139//139 140//140
f 143//143 140//140 142//142
f 142//142 140//140 141//141
f 150//150 151//151 149//149
f 149//149 151//151 152//152
f 154//154 155//155 153//153
f 153//153 155//155 156//156
f 158//158 171//171 157//157
f 157//157 171//171 172//172
f 157//157 172//172 173//173
f 159//159 160//160 158//158
f 158//158 160//160 171//171
f 161//161 162//162 160//160
f 160//160 162//162 163//163
f 160//160 163//163 164//164
f 164//164 165//165 160//160
f 160//160 165//165 166//166
f 160//160 166//166 167//167
f 167//167 168//168 160//160
f 160//160 168//168 169//169
f 160//160 169//169 170//170
f 170//170 171//171 160//160
f 173//173 174//174 157//157
f 157//157 174//174 175//175
f 157//157 175//175 176//176
f 176//176 177//177 157//157
f 157//157 177//177 178//178
f 180//180 188//188 179//179
f 179//179 188//188 199//199
f 179//179 199//199 200//200
f 181//181 182//182 180//180
f 180//180 182//182 183//183
f 180//180 183//183 184//184
f 184//184 185//185 180//180
f 180//180 185//185 186//186
f 180//180 186//186 187//187
f 187//187 188//188 180//180
f 188//188 189//189 199//199
f 199//199 189//189 190//190
f 199//199 190//190 191//191
f 191//191 192//192 199//199
f 199//199 192//192 193//193
f 199//199 193//193 194//194
f 194//194 195//195 199//199
f 199//199 195//195 196//196
f 199//199 196//196 197//197
f 197//197 198//198 199//199

# End of file