# WaveFront *.obj file
# Vertices: 220
# Triangles : 196

v -11.0 1.5 1.0
v -11.0 1.8420201539993286 0.9396926164627075
v -11.0 2.1427876949310303 0.7660444378852844
v -11.0 2.366025447845459 0.5
v -11.0 2.4848077297210693 0.1736481785774231
v -11.0 2.4848077297210693 -0.1736481785774231
v -11.0 2.366025447845459 -0.5
v -11.0 2.1427876949310303 -0.7660444378852844
v -11.0 1.8420201539993286 -0.9396926164627075
v -11.0 1.5 -1.0
v -11.0 1.1579798460006714 -0.9396926164627075
v -11.0 0.8572123646736145 -0.7660444378852844
v -11.0 0.6339746117591858 -0.5
v -11.0 0.5151922702789307 -0.1736481785774231
v -11.0 0.5151922702789307 0.1736481785774231
v -11.0 0.6339746117591858 0.5
v -11.0 0.8572123646736145 0.7660444378852844
v -11.0 1.1579798460006714 0.9396926164627075
v 11.0 1.5 1.0
v 11.0 1.1579798460006714 0.9396926164627075
v 11.0 0.8572123646736145 0.7660444378852844
v 11.0 0.6339746117591858 0.5
v 11.0 0.5151922702789307 0.1736481785774231
v 11.0 0.5151922702789307 -0.1736481785774231
v 11.0 0.6339746117591858 -0.5
v 11.0 0.8572123646736145 -0.7660444378852844
v 11.0 1.1579798460006714 -0.9396926164627075
v 11.0 1.5 -1.0
v 11.0 1.8420201539993286 -0.9396926164627075
v 11.0 2.1427876949310303 -0.7660444378852844
v 11.0 2.366025447845459 -0.5
v 11.0 2.4848077297210693 -0.1736481785774231
v 11.0 2.4848077297210693 0.1736481785774231
v 11.0 2.366025447845459 0.5
v 11.0 2.1427876949310303 0.7660444378852844
v 11.0 1.8420201539993286 0.9396926164627075
v -11.0 1.5 1.0
v 11.0 1.5 1.0
v -8.0 3.0 11.0
v -8.0 3.0 8.0
v -8.0 11.0 8.0
v -8.0 11.0 11.0
v 8.0 3.0 -11.0
v 8.0 3.0 -8.0
v 8.0 11.0 -8.0
v 8.0 11.0 -11.0
v 11.0 12.0 -11.0
v 11.0 1.5 -11.0
v -11.0 1.5 -11.0
v -11.0 12.0 -11.0
v 8.0 11.0 -11.0
v -8.0 11.0 -11.0
v -8.0 3.0 -11.0
v 8.0 3.0 -11.0
v -11.0 1.5 1.0
v -11.0 1.1579798460006714 0.9396926164627075
v -11.0 0.8572123646736145 0.7660444378852844
v -11.0 0.6339746117591858 0.5
v -11.0 0.5151922702789307 0.1736481785774231
v -11.0 0.5151922702789307 -0.1736481785774231
v -11.0 0.6339746117591858 -0.5
v -11.0 0.8572123646736145 -0.7660444378852844
v -11.0 1.1579798460006714 -0.9396926164627075
v -11.0 1.5 -1.0
v -11.0 1.8420201539993286 -0.9396926164627075
v -11.0 2.1427876949310303 -0.7660444378852844
v -11.0 2.366025447845459 -0.5
v -11.0 2.4848077297210693 -0.1736481785774231
v -11.0 2.4848077297210693 0.1736481785774231
v -11.0 2.366025447845459 0.5
v -11.0 2.1427876949310303 0.7660444378852844
v -11.0 1.8420201539993286 0.9396926164627075
v -11.0 12.0 -11.0
v -11.0 1.5 -11.0
v -11.0 1.5 -7.5
v -11.0 0.0 -7.5
v -11.0 0.0 11.0
v -11.0 12.0 11.0
v -11.0 11.0 -8.0
v -11.0 11.0 8.0
v -11.0 3.0 8.0
v -11.0 3.0 -8.0
v -11.0 1.5 9.050000190734863
v -11.0 1.3393031358718872 8.991511344909668
v -11.0 1.253798007965088 8.843412399291992
v -11.0 1.2834936380386353 8.675000190734863
v -11.0 1.4144949913024902 8.56507682800293
v -11.0 1.5855050086975098 8.56507682800293
v -11.0 1.7165063619613647 8.675000190734863
v -11.0 1.746201992034912 8.843412399291992
v -11.0 1.6606968641281128 8.991511344909668
v -11.0 0.0 -7.5
v 11.0 0.0 -7.5
v 11.0 0.0 11.0
v -11.0 0.0 11.0
v 8.0 3.0 -8.0
v 11.0 3.0 -8.0
v 11.0 11.0 -8.0
v 8.0 11.0 -8.0
v 11.0 1.5 1.0
v 11.0 1.8420201539993286 0.9396926164627075
v 11.0 2.1427876949310303 0.7660444378852844
v 11.0 2.366025447845459 0.5
v 11.0 2.4848077297210693 0.1736481785774231
v 11.0 2.4848077297210693 -0.1736481785774231
v 11.0 2.366025447845459 -0.5
v 11.0 2.1427876949310303 -0.7660444378852844
v 11.0 1.8420201539993286 -0.9396926164627075
v 11.0 1.5 -1.0
v 11.0 1.1579798460006714 -0.9396926164627075
v 11.0 0.8572123646736145 -0.7660444378852844
v 11.0 0.6339746117591858 -0.5
v 11.0 0.5151922702789307 -0.1736481785774231
v 11.0 0.5151922702789307 0.1736481785774231
v 11.0 0.6339746117591858 0.5
v 11.0 0.8572123646736145 0.7660444378852844
v 11.0 1.1579798460006714 0.9396926164627075
v 11.0 11.0 -8.0
v 11.0 3.0 -8.0
v 11.0 3.0 8.0
v 11.0 11.0 8.0
v 11.0 1.5 -11.0
v 11.0 12.0 -11.0
v 11.0 12.0 11.0
v 11.0 0.0 11.0
v 11.0 0.0 -7.5
v 11.0 1.5 -7.5
v 11.0 1.5 9.050000190734863
v 11.0 1.6606968641281128 8.991511344909668
v 11.0 1.746201992034912 8.843412399291992
v 11.0 1.7165063619613647 8.675000190734863
v 11.0 1.5855050086975098 8.56507682800293
v 11.0 1.4144949913024902 8.56507682800293
v 11.0 1.2834936380386353 8.675000190734863
v 11.0 1.253798007965088 8.843412399291992
v 11.0 1.3393031358718872 8.991511344909668
v -11.0 1.5 -11.0
v 11.0 1.5 -11.0
v 11.0 1.5 -7.5
v -11.0 1.5 -7.5
v 8.0 3.0 8.0
v 8.0 3.0 11.0
v 8.0 11.0 11.0
v 8.0 11.0 8.0
v -11.0 3.0 -8.0
v -8.0 3.0 -8.0
v -8.0 11.0 -8.0
v -11.0 11.0 -8.0
v -8.0 3.0 -8.0
v -8.0 3.0 -11.0
v -8.0 11.0 -11.0
v -8.0 11.0 -8.0
v 11.0 3.0 8.0
v 8.0 3.0 8.0
v 8.0 11.0 8.0
v 11.0 11.0 8.0
v -11.0 1.5 9.050000190734863
v -11.0 1.6606968641281128 8.991511344909668
v -11.0 1.746201992034912 8.843412399291992
v -11.0 1.7165063619613647 8.675000190734863
v -11.0 1.5855050086975098 8.56507682800293
v -11.0 1.4144949913024902 8.56507682800293
v -11.0 1.2834936380386353 8.675000190734863
v -11.0 1.253798007965088 8.843412399291992
v -11.0 1.3393031358718872 8.991511344909668
v 11.0 1.5 9.050000190734863
v 11.0 1.3393031358718872 8.991511344909668
v 11.0 1.253798007965088 8.843412399291992
v 11.0 1.2834936380386353 8.675000190734863
v 11.0 1.4144949913024902 8.56507682800293
v 11.0 1.5855050086975098 8.56507682800293
v 11.0 1.7165063619613647 8.675000190734863
v 11.0 1.746201992034912 8.843412399291992
v 11.0 1.6606968641281128 8.991511344909668
v -11.0 1.5 9.050000190734863
v 11.0 1.5 9.050000190734863
v 8.0 11.0 11.0
v 8.0 3.0 11.0
v -8.0 3.0 11.0
v -8.0 11.0 11.0
v 11.0 0.0 11.0
v 11.0 12.0 11.0
v -11.0 12.0 11.0
v -11.0 0.0 11.0
v 11.0 0.0 -7.5
v -11.0 0.0 -7.5
v -11.0 1.5 -7.5
v 11.0 1.5 -7.5
v -11.0 12.0 -11.0
v -11.0 12.0 11.0
v 11.0 12.0 11.0
v 11.0 12.0 -11.0
v 8.0 11.0 -8.0
v 11.0 11.0 -8.0
v 11.0 11.0 8.0
v 8.0 11.0 8.0
v 8.0 11.0 11.0
v -8.0 11.0 11.0
v -8.0 11.0 8.0
v -11.0 11.0 8.0
v -11.0 11.0 -8.0
v -8.0 11.0 -8.0
v -8.0 11.0 -11.0
v 8.0 11.0 -11.0
v 8.0 3.0 8.0
v 11.0 3.0 8.0
v 11.0 3.0 -8.0
v 8.0 3.0 -8.0
v 8.0 3.0 -11.0
v -8.0 3.0 -11.0
v -8.0 3.0 -8.0
v -11.0 3.0 -8.0
v -11.0 3.0 8.0
v -8.0 3.0 8.0
v -8.0 3.0 11.0
v 8.0 3.0 11.0
v -8.0 3.0 8.0
v -11.0 3.0 8.0
v -11.0 11.0 8.0
v -8.0 11.0 8.0
vn -0.0 -1.2246468525851679e-16 -1.0
vn -0.0 -0.3420201539993286 -0.9396926164627075
vn -0.0 -0.6427876353263855 -0.7660444378852844
vn -0.0 -0.8660253882408142 -0.5
vn -0.0 -0.9848077297210693 -0.1736481785774231
vn 0.0 -0.9848077297210693 0.1736481785774231
vn 0.0 -0.8660253882408142 0.5
vn 0.0 -0.6427876353263855 0.7660444378852844
vn 0.0 -0.3420201539993286 0.9396926164627075
vn 0.0 0.0 1.0
vn 0.0 0.3420201539993286 0.9396926164627075
vn 0.0 0.6427876353263855 0.7660444378852844
vn 0.0 0.8660253882408142 0.5
vn 0.0 0.9848077297210693 0.1736481785774231
vn 0.0 0.9848077297210693 -0.1736481785774231
vn 0.0 0.8660253882408142 -0.5
vn 0.0 0.6427876353263855 -0.7660444378852844
vn 0.0 0.3420201539993286 -0.9396926164627075
vn 0.0 1.2246468525851679e-16 -1.0
vn 0.0 0.3420201539993286 -0.9396926164627075
vn 0.0 0.6427876353263855 -0.7660444378852844
vn 0.0 0.8660253882408142 -0.5
vn 0.0 0.9848077297210693 -0.1736481785774231
vn 0.0 0.9848077297210693 0.1736481785774231
vn 0.0 0.8660253882408142 0.5
vn 0.0 0.6427876353263855 0.7660444378852844
vn 0.0 0.3420201539993286 0.9396926164627075
vn 0.0 0.0 1.0
vn 0.0 -0.3420201539993286 0.9396926164627075
vn 0.0 -0.6427876353263855 0.7660444378852844
vn 0.0 -0.8660253882408142 0.5
vn 0.0 -0.9848077297210693 0.1736481785774231
vn -0.0 -0.9848077297210693 -0.1736481785774231
vn -0.0 -0.8660253882408142 -0.5
vn -0.0 -0.6427876353263855 -0.7660444378852844
vn -0.0 -0.3420201539993286 -0.9396926164627075
vn 0.0 1.2246468525851679e-16 -1.0
vn -0.0 -1.2246468525851679e-16 -1.0
vn 1.0 0.0 0.0
vn 1.0 0.0 0.0
vn 1.0 0.0 0.0
vn 1.0 0.0 0.0
vn -1.0 0.0 0.0
vn -1.0 0.0 0.0
vn -1.0 0.0 0.0
vn -1.0 0.0 0.0
vn 0.0 0.0 -1.0
vn 0.0 0.0 -1.0
vn 0.0 0.0 -1.0
vn 0.0 0.0 -1.0
vn 0.0 0.0 -1.0
vn 0.0 0.0 -1.0
vn 0.0 0.0 -1.0
vn 0.0 0.0 -1.0
vn -1.0 0.0 0.0
vn -1.0 0.0 0.0
vn -1.0 0.0 0.0
vn -1.0 0.0 0.0
vn -1.0 0.0 0.0
vn -1.0 0.0 0.0
vn -1.0 0.0 0.0
vn -1.0 0.0 0.0
vn -1.0 0.0 0.0
vn -1.0 0.0 0.0
vn -1.0 0.0 0.0
vn -1.0 0.0 0.0
vn -1.0 0.0 0.0
vn -1.0 0.0 0.0
vn -1.0 0.0 0.0
vn -1.0 0.0 0.0
vn -1.0 0.0 0.0
vn -1.0 0.0 0.0
vn -1.0 0.0 0.0
vn -1.0 0.0 0.0
vn -1.0 0.0 0.0
vn -1.0 0.0 0.0
vn -1.0 0.0 0.0
vn -1.0 0.0 0.0
vn -1.0 0.0 0.0
vn -1.0 0.0 0.0
vn -1.0 0.0 0.0
vn -1.0 0.0 0.0
vn -1.0 0.0 0.0
vn -1.0 0.0 0.0
vn -1.0 0.0 0.0
vn -1.0 0.0 0.0
vn -1.0 0.0 0.0
vn -1.0 0.0 0.0
vn -1.0 0.0 0.0
vn -1.0 0.0 0.0
vn -1.0 0.0 0.0
vn -0.0 -1.0 -0.0
vn -0.0 -1.0 -0.0
vn -0.0 -1.0 -0.0
vn -0.0 -1.0 -0.0
vn 0.0 0.0 1.0
vn 0.0 0.0 1.0
vn 0.0 0.0 1.0
vn 0.0 0.0 1.0
vn 1.0 -0.0 0.0
vn 1.0 -0.0 0.0
vn 1.0 -0.0 0.0
vn 1.0 -0.0 0.0
vn 1.0 -0.0 0.0
vn 1.0 -0.0 0.0
vn 1.0 -0.0 0.0
vn 1.0 -0.0 0.0
vn 1.0 -0.0 0.0
vn 1.0 -0.0 0.0
vn 1.0 -0.0 0.0
vn 1.0 -0.0 0.0
vn 1.0 -0.0 0.0
vn 1.0 -0.0 0.0
vn 1.0 -0.0 0.0
vn 1.0 -0.0 0.0
vn 1.0 -0.0 0.0
vn 1.0 -0.0 0.0
vn 1.0 -0.0 0.0
vn 1.0 -0.0 0.0
vn 1.0 -0.0 0.0
vn 1.0 -0.0 0.0
vn 1.0 -0.0 0.0
vn 1.0 -0.0 0.0
vn 1.0 -0.0 0.0
vn 1.0 -0.0 0.0
vn 1.0 -0.0 0.0
vn 1.0 -0.0 0.0
vn 1.0 -0.0 0.0
vn 1.0 -0.0 0.0
vn 1.0 -0.0 0.0
vn 1.0 -0.0 0.0
vn 1.0 -0.0 0.0
vn 1.0 -0.0 0.0
vn 1.0 -0.0 0.0
vn 1.0 -0.0 0.0
vn 1.0 -0.0 0.0
vn -0.0 -1.0 0.0
vn -0.0 -1.0 0.0
vn -0.0 -1.0 0.0
vn -0.0 -1.0 0.0
vn -1.0 0.0 0.0
vn -1.0 0.0 0.0
vn -1.0 0.0 0.0
vn -1.0 0.0 0.0
vn 0.0 -0.0 1.0
vn 0.0 -0.0 1.0
vn 0.0 -0.0 1.0
vn 0.0 -0.0 1.0
vn 1.0 0.0 0.0
vn 1.0 0.0 0.0
vn 1.0 0.0 0.0
vn 1.0 0.0 0.0
vn 0.0 0.0 -1.0
vn 0.0 0.0 -1.0
vn 0.0 0.0 -1.0
vn 0.0 0.0 -1.0
vn -0.0 -1.2246468525851679e-16 -1.0
vn -0.0 -0.6427876353263855 -0.7660444378852844
vn -0.0 -0.9848077297210693 -0.1736481785774231
vn 0.0 -0.8660253882408142 0.5
vn 0.0 -0.3420201539993286 0.9396926164627075
vn 0.0 0.3420201539993286 0.9396926164627075
vn 0.0 0.8660253882408142 0.5
vn 0.0 0.9848077297210693 -0.1736481785774231
vn 0.0 0.6427876353263855 -0.7660444378852844
vn 0.0 1.2246468525851679e-16 -1.0
vn 0.0 0.6427876353263855 -0.7660444378852844
vn 0.0 0.9848077297210693 -0.1736481785774231
vn 0.0 0.8660253882408142 0.5
vn 0.0 0.3420201539993286 0.9396926164627075
vn 0.0 -0.3420201539993286 0.9396926164627075
vn 0.0 -0.8660253882408142 0.5
vn -0.0 -0.9848077297210693 -0.1736481785774231
vn -0.0 -0.6427876353263855 -0.7660444378852844
vn 0.0 1.2246468525851679e-16 -1.0
vn -0.0 -1.2246468525851679e-16 -1.0
vn 0.0 0.0 1.0
vn 0.0 0.0 1.0
vn 0.0 0.0 1.0
vn 0.0 0.0 1.0
vn 0.0 0.0 1.0
vn 0.0 0.0 1.0
vn 0.0 0.0 1.0
vn 0.0 0.0 1.0
vn -0.0 -0.0 -1.0
vn -0.0 -0.0 -1.0
vn -0.0 -0.0 -1.0
vn -0.0 -0.0 -1.0
vn 0.0 1.0 0.0
vn 0.0 1.0 0.0
vn 0.0 1.0 0.0
vn 0.0 1.0 0.0
vn -0.0 -1.0 -0.0
vn -0.0 -1.0 -0.0
vn -0.0 -1.0 -0.0
vn -0.0 -1.0 -0.0
vn -0.0 -1.0 -0.0
vn -0.0 -1.0 -0.0
vn -0.0 -1.0 -0.0
vn -0.0 -1.0 -0.0
vn -0.0 -1.0 -0.0
vn -0.0 -1.0 -0.0
vn -0.0 -1.0 -0.0
vn -0.0 -1.0 -0.0
vn 0.0 1.0 0.0
vn 0.0 1.0 0.0
vn 0.0 1.0 0.0
vn 0.0 1.0 0.0
vn 0.0 1.0 0.0
vn 0.0 1.0 0.0
vn 0.0 1.0 0.0
vn 0.0 1.0 0.0
vn 0.0 1.0 0.0
vn 0.0 1.0 0.0
vn 0.0 1.0 0.0
vn 0.0 1.0 0.0
vn 0.0 0.0 -1.0
vn 0.0 0.0 -1.0
vn 0.0 0.0 -1.0
vn 0.0 0.0 -1.0
f 2//2 36//36 1//1
f 1//1 36//36 38//38
f 37//37 19//19 18//18
f 18//18 19//19 20//20
f 18//18 20//20 17//17
f 17//17 20//20 21//21
f 17//17 21//21 16//16
f 16//16 21//21 22//22
f 16//16 22//22 15//15
f 15//15 22//22 23//23
f 15//15 23//23 14//14
f 14//14 23//23 24//24
f 14//14 24//24 13//13
f 13//13 24//24 25//25
f 13//13 25//25 12//12
f 12//12 25//25 26//26
f 12//12 26//26 11//11
f 11//11 26//26 27//27
f 11//11 27//27 10//10
f 10//10 27//27 28//28
f 10//10 28//28 9//9
f 9//9 28//28 29//29
f 9//9 29//29 8//8
f 8//8 29//29 30//30
f 8//8 30//30 7//7
f 7//7 30//30 31//31
f 7//7 31//31 6//6
f 6//6 31//31 32//32
f 6//6 32//32 5//5
f 5//5 32//32 33//33
f 5//5 33//33 4//4
f 4//4 33//33 34//34
f 4//4 34//34 3//3
f 3//3 34//34 35//35
f 3//3 35//35 2//2
f 2//2 35//35 36//36
f 39//39 40//40 42//42
f 42//42 40//40 41//41
f 43//43 44//44 46//46
f 46//46 44//44 45//45
f 48//48 54//54 47//47
f 47//47 54//54 51//51
f 47//47 51//51 52//52
f 48//48 49//49 54//54
f 54//54 49//49 53//53
f 53//53 49//49 50//50
f 53//53 50//50 52//52
f 52//52 50//50 47//47
f 56//56 87//87 55//55
f 55//55 87//87 88//88
f 55//55 88//88 72//72
f 72//72 88//88 81//81
f 72//72 81//81 71//71
f 71//71 81//81 70//70
f 70//70 81//81 69//69
f 69//69 81//81 82//82
f 69//69 82//82 68//68
f 68//68 82//82 67//67
f 67//67 82//82 66//66
f 66//66 82//82 65//65
f 65//65 82//82 75//75
f 65//65 75//75 64//64
f 64//64 75//75 63//63
f 63//63 75//75 76//76
f 63//63 76//76 62//62
f 62//62 76//76 61//61
f 61//61 76//76 60//60
f 60//60 76//76 59//59
f 59//59 76//76 77//77
f 59//59 77//77 58//58
f 58//58 77//77 86//86
f 58//58 86//86 57//57
f 57//57 86//86 56//56
f 56//56 86//86 87//87
f 74//74 82//82 73//73
f 73//73 82//82 79//79
f 73//73 79//79 80//80
f 74//74 75//75 82//82
f 78//78 91//91 77//77
f 77//77 91//91 83//83
f 77//77 83//83 84//84
f 73//73 80//80 78//78
f 78//78 80//80 81//81
f 78//78 81//81 91//91
f 91//91 81//81 90//90
f 90//90 81//81 89//89
f 89//89 81//81 88//88
f 84//84 85//85 77//77
f 77//77 85//85 86//86
f 92//92 93//93 95//95
f 95//95 93//93 94//94
f 96//96 97//97 99//99
f 99//99 97//97 98//98
f 101//101 132//132 100//100
f 100//100 132//132 133//133
f 100//100 133//133 117//117
f 117//117 133//133 134//134
f 117//117 134//134 116//116
f 116//116 134//134 115//115
f 115//115 134//134 125//125
f 115//115 125//125 114//114
f 114//114 125//125 126//126
f 114//114 126//126 113//113
f 113//113 126//126 112//112
f 112//112 126//126 111//111
f 111//111 126//126 110//110
f 110//110 126//126 127//127
f 110//110 127//127 109//109
f 109//109 127//127 108//108
f 108//108 127//127 119//119
f 108//108 119//119 107//107
f 107//107 119//119 106//106
f 106//106 119//119 105//105
f 105//105 119//119 120//120
f 105//105 120//120 104//104
f 104//104 120//120 103//103
f 103//103 120//120 102//102
f 102//102 120//120 101//101
f 101//101 120//120 132//132
f 119//119 123//123 118//118
f 118//118 123//123 124//124
f 118//118 124//124 121//121
f 121//121 124//124 120//120
f 120//120 124//124 129//129
f 120//120 129//129 130//130
f 127//127 122//122 119//119
f 119//119 122//122 123//123
f 124//124 125//125 129//129
f 129//129 125//125 128//128
f 128//128 125//125 136//136
f 136//136 125//125 135//135
f 135//135 125//125 134//134
f 130//130 131//131 120//120
f 120//120 131//131 132//132
f 137//137 138//138 140//140
f 140//140 138//138 139//139
f 141//141 142//142 144//144
f 144//144 142//142 143//143
f 145//145 146//146 148//148
f 148//148 146//146 147//147
f 149//149 150//150 152//152
f 152//152 150//150 151//151
f 153//153 154//154 156//156
f 156//156 154//154 155//155
f 158//158 174//174 157//157
f 157//157 174//174 176//176
f 175//175 166//166 165//165
f 165//165 166//166 167//167
f 165//165 167//167 164//164
f 164//164 167//167 168//168
f 164//164 168//168 163//163
f 163//163 168//168 169//169
f 163//163 169//169 162//162
f 162//162 169//169 170//170
f 162//162 170//170 161//161
f 161//161 170//170 171//171
f 161//161 171//171 160//160
f 160//160 171//171 172//172
f 160//160 172//172 159//159
f 159//159 172//172 173//173
f 159//159 173//173 158//158
f 158//158 173//173 174//174
f 178//178 182//182 177//177
f 177//177 182//182 183//183
f 177//177 183//183 180//180
f 180//180 183//183 179//179
f 179//179 183//183 184//184
f 179//179 184//184 181//181
f 182//182 178//178 181//181
f 181//181 178//178 179//179
f 185//185 186//186 188//188
f 188//188 186//186 187//187
f 189//189 190//190 192//192
f 192//192 190//190 191//191
f 194//194 196//196 193//193
f 193//193 196//196 199//199
f 193//193 199//199 202//202
f 202//202 199//199 200//200
f 202//202 200//200 201//201
f 194//194 195//195 196//196
f 197//197 198//198 196//196
f 196//196 198//198 199//199
f 203//203 204//204 202//202
f 202//202 204//204 193//193
f 206//206 207//207 205//205
f 205//205 207//207 208//208
f 205//205 208//208 214//214
f 214//214 208//208 211//211
f 214//214 211//211 213//213
f 213//213 211//211 212//212
f 208//208 209//209 211//211
f 211//211 209//209 210//210
f 214//214 215//215 205//205
f 205//205 215//215 216//216
f 217//217 218//218 220//220
f 220//220 218//218 219//219

# End of file