# WaveFront *.obj file
# Vertices: 158
# Triangles : 152

v -0.125 -1.5308085657314598e-17 0.0
v -0.12338127940893173 0.020051410421729088 0.0
v -0.11856705695390701 0.03958350047469139 0.0
v -0.11068200320005417 0.05809039622545242 0.0
v -0.09993034601211548 0.07509278506040573 0.0
v -0.08659054338932037 0.09015030413866043 0.0
v -0.0710080936551094 0.10287298262119293 0.0
v -0.05358656868338585 0.11293130367994308 0.0
v -0.03477718308568001 0.12006476521492004 0.0
v -0.015067084692418575 0.12408860772848129 0.0
v 0.005033242516219616 0.12489862740039825 0.0
v 0.025003211572766304 0.1224738284945488 0.0
v 0.04432561248540878 0.11687702685594559 0.0
v 0.0625 0.10825317353010178 0.0
v 0.07905567437410355 0.09682562202215195 0.0
v 0.09356384724378586 0.0828903317451477 0.0
v 0.10564876347780228 0.06680823117494583 0.0
v 0.11499743163585663 0.04899582639336586 0.0
v 0.12136773020029068 0.029914457350969315 0.0
v 0.12459466606378555 0.010058321058750153 0.0
v 0.12459466606378555 -0.010058321058750153 0.0
v 0.12136773020029068 -0.029914457350969315 0.0
v 0.11499743163585663 -0.04899582639336586 0.0
v 0.10564876347780228 -0.06680823117494583 0.0
v 0.09356384724378586 -0.0828903317451477 0.0
v 0.07905567437410355 -0.09682562202215195 0.0
v 0.0625 -0.10825317353010178 0.0
v 0.04432561248540878 -0.11687702685594559 0.0
v 0.025003211572766304 -0.1224738284945488 0.0
v 0.005033242516219616 -0.12489862740039825 0.0
v -0.015067084692418575 -0.12408860772848129 0.0
v -0.03477718308568001 -0.12006476521492004 0.0
v -0.05358656868338585 -0.11293130367994308 0.0
v -0.0710080936551094 -0.10287298262119293 0.0
v -0.08659054338932037 -0.09015030413866043 0.0
v -0.09993034601211548 -0.07509278506040573 0.0
v -0.11068200320005417 -0.05809039622545242 0.0
v -0.11856705695390701 -0.03958350047469139 0.0
v -0.12338127940893173 -0.020051410421729088 0.0
v -0.125 -1.5308085657314598e-17 0.7900000214576721
v -0.12338127940893173 -0.020051410421729088 0.7900000214576721
v -0.11856705695390701 -0.03958350047469139 0.7900000214576721
v -0.11068200320005417 -0.05809039622545242 0.7900000214576721
v -0.09993034601211548 -0.07509278506040573 0.7900000214576721
v -0.08659054338932037 -0.09015030413866043 0.7900000214576721
v -0.0710080936551094 -0.10287298262119293 0.7900000214576721
v -0.05358656868338585 -0.11293130367994308 0.7900000214576721
v -0.03477718308568001 -0.12006476521492004 0.7900000214576721
v -0.015067084692418575 -0.12408860772848129 0.7900000214576721
v 0.005033242516219616 -0.12489862740039825 0.7900000214576721
v 0.025003211572766304 -0.1224738284945488 0.7900000214576721
v 0.04432561248540878 -0.11687702685594559 0.7900000214576721
v 0.0625 -0.10825317353010178 0.7900000214576721
v 0.07905567437410355 -0.09682562202215195 0.7900000214576721
v 0.09356384724378586 -0.0828903317451477 0.7900000214576721
v 0.10564876347780228 -0.06680823117494583 0.7900000214576721
v 0.11499743163585663 -0.04899582639336586 0.7900000214576721
v 0.12136773020029068 -0.029914457350969315 0.7900000214576721
v 0.12459466606378555 -0.010058321058750153 0.7900000214576721
v 0.12459466606378555 0.010058321058750153 0.7900000214576721
v 0.12136773020029068 0.029914457350969315 0.7900000214576721
v 0.11499743163585663 0.04899582639336586 0.7900000214576721
v 0.10564876347780228 0.06680823117494583 0.7900000214576721
v 0.09356384724378586 0.0828903317451477 0.7900000214576721
v 0.07905567437410355 0.09682562202215195 0.7900000214576721
v 0.0625 0.10825317353010178 0.7900000214576721
v 0.04432561248540878 0.11687702685594559 0.7900000214576721
v 0.025003211572766304 0.1224738284945488 0.7900000214576721
v 0.005033242516219616 0.12489862740039825 0.7900000214576721
v -0.015067084692418575 0.12408860772848129 0.7900000214576721
v -0.03477718308568001 0.12006476521492004 0.7900000214576721
v -0.05358656868338585 0.11293130367994308 0.7900000214576721
v -0.0710080936551094 0.10287298262119293 0.7900000214576721
v -0.08659054338932037 0.09015030413866043 0.7900000214576721
v -0.09993034601211548 0.07509278506040573 0.7900000214576721
v -0.11068200320005417 0.05809039622545242 0.7900000214576721
v -0.11856705695390701 0.03958350047469139 0.7900000214576721
v -0.12338127940893173 0.020051410421729088 0.7900000214576721
v -0.125 -1.5308085657314598e-17 0.7900000214576721
v -0.12338127940893173 0.020051410421729088 0.7900000214576721
v -0.11856705695390701 0.03958350047469139 0.7900000214576721
v -0.11068200320005417 0.05809039622545242 0.7900000214576721
v -0.09993034601211548 0.07509278506040573 0.7900000214576721
v -0.08659054338932037 0.09015030413866043 0.7900000214576721
v -0.0710080936551094 0.10287298262119293 0.7900000214576721
v -0.05358656868338585 0.11293130367994308 0.7900000214576721
v -0.03477718308568001 0.12006476521492004 0.7900000214576721
v -0.015067084692418575 0.12408860772848129 0.7900000214576721
v 0.005033242516219616 0.12489862740039825 0.7900000214576721
v 0.025003211572766304 0.1224738284945488 0.7900000214576721
v 0.04432561248540878 0.11687702685594559 0.7900000214576721
v 0.0625 0.10825317353010178 0.7900000214576721
v 0.07905567437410355 0.09682562202215195 0.7900000214576721
v 0.09356384724378586 0.0828903317451477 0.7900000214576721
v 0.10564876347780228 0.06680823117494583 0.7900000214576721
v 0.11499743163585663 0.04899582639336586 0.7900000214576721
v 0.12136773020029068 0.029914457350969315 0.7900000214576721
v 0.12459466606378555 0.010058321058750153 0.7900000214576721
v 0.12459466606378555 -0.010058321058750153 0.7900000214576721
v 0.12136773020029068 -0.029914457350969315 0.7900000214576721
v 0.11499743163585663 -0.04899582639336586 0.7900000214576721
v 0.10564876347780228 -0.06680823117494583 0.7900000214576721
v 0.09356384724378586 -0.0828903317451477 0.7900000214576721
v 0.07905567437410355 -0.09682562202215195 0.7900000214576721
v 0.0625 -0.10825317353010178 0.7900000214576721
v 0.04432561248540878 -0.11687702685594559 0.7900000214576721
v 0.025003211572766304 -0.1224738284945488 0.7900000214576721
v 0.005033242516219616 -0.12489862740039825 0.7900000214576721
v -0.015067084692418575 -0.12408860772848129 0.7900000214576721
v -0.03477718308568001 -0.12006476521492004 0.7900000214576721
v -0.05358656868338585 -0.11293130367994308 0.7900000214576721
v -0.0710080936551094 -0.10287298262119293 0.7900000214576721
v -0.08659054338932037 -0.09015030413866043 0.7900000214576721
v -0.09993034601211548 -0.07509278506040573 0.7900000214576721
v -0.11068200320005417 -0.05809039622545242 0.7900000214576721
v -0.11856705695390701 -0.03958350047469139 0.7900000214576721
v -0.12338127940893173 -0.020051410421729088 0.7900000214576721
v -0.125 -1.5308085657314598e-17 0.0
v -0.12338127940893173 -0.020051410421729088 0.0
v -0.11856705695390701 -0.03958350047469139 0.0
v -0.11068200320005417 -0.05809039622545242 0.0
v -0.09993034601211548 -0.07509278506040573 0.0
v -0.08659054338932037 -0.09015030413866043 0.0
v -0.0710080936551094 -0.10287298262119293 0.0
v -0.05358656868338585 -0.11293130367994308 0.0
v -0.03477718308568001 -0.12006476521492004 0.0
v -0.015067084692418575 -0.12408860772848129 0.0
v 0.005033242516219616 -0.12489862740039825 0.0
v 0.025003211572766304 -0.1224738284945488 0.0
v 0.04432561248540878 -0.11687702685594559 0.0
v 0.0625 -0.10825317353010178 0.0
v 0.07905567437410355 -0.09682562202215195 0.0
v 0.09356384724378586 -0.0828903317451477 0.0
v 0.10564876347780228 -0.06680823117494583 0.0
v 0.11499743163585663 -0.04899582639336586 0.0
v 0.12136773020029068 -0.029914457350969315 0.0
v 0.12459466606378555 -0.010058321058750153 0.0
v 0.12459466606378555 0.010058321058750153 0.0
v 0.12136773020029068 0.029914457350969315 0.0
v 0.11499743163585663 0.04899582639336586 0.0
v 0.10564876347780228 0.06680823117494583 0.0
v 0.09356384724378586 0.0828903317451477 0.0
v 0.07905567437410355 0.09682562202215195 0.0
v 0.0625 0.10825317353010178 0.0
v 0.04432561248540878 0.11687702685594559 0.0
v 0.025003211572766304 0.1224738284945488 0.0
v 0.005033242516219616 0.12489862740039825 0.0
v -0.015067084692418575 0.12408860772848129 0.0
v -0.03477718308568001 0.12006476521492004 0.0
v -0.05358656868338585 0.11293130367994308 0.0
v -0.0710080936551094 0.10287298262119293 0.0
v -0.08659054338932037 0.09015030413866043 0.0
v -0.09993034601211548 0.07509278506040573 0.0
v -0.11068200320005417 0.05809039622545242 0.0
v -0.11856705695390701 0.03958350047469139 0.0
v -0.12338127940893173 0.020051410421729088 0.0
v -0.125 -1.5308085657314598e-17 0.0
v -0.125 -1.5308085657314598e-17 0.7900000214576721
vn -0.0 -0.0 -1.0
vn -0.0 -0.0 -1.0
vn -0.0 -0.0 -1.0
vn -0.0 -0.0 -1.0
vn -0.0 -0.0 -1.0
vn -0.0 -0.0 -1.0
vn -0.0 -0.0 -1.0
vn -0.0 -0.0 -1.0
vn -0.0 -0.0 -1.0
vn -0.0 -0.0 -1.0
vn -0.0 -0.0 -1.0
vn -0.0 -0.0 -1.0
vn -0.0 -0.0 -1.0
vn -0.0 -0.0 -1.0
vn -0.0 -0.0 -1.0
vn -0.0 -0.0 -1.0
vn -0.0 -0.0 -1.0
vn -0.0 -0.0 -1.0
vn -0.0 -0.0 -1.0
vn -0.0 -0.0 -1.0
vn -0.0 -0.0 -1.0
vn -0.0 -0.0 -1.0
vn -0.0 -0.0 -1.0
vn -0.0 -0.0 -1.0
vn -0.0 -0.0 -1.0
vn -0.0 -0.0 -1.0
vn -0.0 -0.0 -1.0
vn -0.0 -0.0 -1.0
vn -0.0 -0.0 -1.0
vn -0.0 -0.0 -1.0
vn -0.0 -0.0 -1.0
vn -0.0 -0.0 -1.0
vn -0.0 -0.0 -1.0
vn -0.0 -0.0 -1.0
vn -0.0 -0.0 -1.0
vn -0.0 -0.0 -1.0
vn -0.0 -0.0 -1.0
vn -0.0 -0.0 -1.0
vn -0.0 -0.0 -1.0
vn 0.0 0.0 1.0
vn 0.0 0.0 1.0
vn 0.0 0.0 1.0
vn 0.0 0.0 1.0
vn 0.0 0.0 1.0
vn 0.0 0.0 1.0
vn 0.0 0.0 1.0
vn 0.0 0.0 1.0
vn 0.0 0.0 1.0
vn 0.0 0.0 1.0
vn 0.0 0.0 1.0
vn 0.0 0.0 1.0
vn 0.0 0.0 1.0
vn 0.0 0.0 1.0
vn 0.0 0.0 1.0
vn 0.0 0.0 1.0
vn 0.0 0.0 1.0
vn 0.0 0.0 1.0
vn 0.0 0.0 1.0
vn 0.0 0.0 1.0
vn 0.0 0.0 1.0
vn 0.0 0.0 1.0
vn 0.0 0.0 1.0
vn 0.0 0.0 1.0
vn 0.0 0.0 1.0
vn 0.0 0.0 1.0
vn 0.0 0.0 1.0
vn 0.0 0.0 1.0
vn 0.0 0.0 1.0
vn 0.0 0.0 1.0
vn 0.0 0.0 1.0
vn 0.0 0.0 1.0
vn 0.0 0.0 1.0
vn 0.0 0.0 1.0
vn 0.0 0.0 1.0
vn 0.0 0.0 1.0
vn 0.0 0.0 1.0
vn 0.0 0.0 1.0
vn 0.0 0.0 1.0
vn -1.0 1.2246468525851679e-16 -0.0
vn -0.9870502352714539 0.1604112833738327 -0.0
vn -0.9485364556312561 0.31666800379753113 -0.0
vn -0.8854560256004333 0.4647231698036194 -0.0
vn -0.7994427680969238 0.6007422804832458 -0.0
vn -0.692724347114563 0.7212024331092834 -0.0
vn -0.5680647492408752 0.8229838609695435 -0.0
vn -0.4286925494670868 0.9034504294395447 -0.0
vn -0.27821746468544006 0.9605181217193604 -0.0
vn -0.1205366775393486 0.9927088618278503 -0.0
vn 0.04026594012975693 0.999189019203186 -0.0
vn 0.20002569258213043 0.9797906279563904 -0.0
vn 0.35460489988327026 0.9350162148475647 -0.0
vn 0.5 0.8660253882408142 -0.0
vn 0.6324453949928284 0.7746049761772156 -0.0
vn 0.7485107779502869 0.6631226539611816 -0.0
vn 0.8451901078224182 0.5344658493995667 -0.0
vn 0.919979453086853 0.3919666111469269 -0.0
vn 0.9709418416023254 0.23931565880775452 -0.0
vn 0.9967573285102844 0.08046656847000122 -0.0
vn 0.9967573285102844 -0.08046656847000122 -0.0
vn 0.9709418416023254 -0.23931565880775452 -0.0
vn 0.919979453086853 -0.3919666111469269 -0.0
vn 0.8451901078224182 -0.5344658493995667 -0.0
vn 0.7485107779502869 -0.6631226539611816 -0.0
vn 0.6324453949928284 -0.7746049761772156 -0.0
vn 0.5 -0.8660253882408142 -0.0
vn 0.35460489988327026 -0.9350162148475647 -0.0
vn 0.20002569258213043 -0.9797906279563904 -0.0
vn 0.04026594012975693 -0.999189019203186 -0.0
vn -0.1205366775393486 -0.9927088618278503 0.0
vn -0.27821746468544006 -0.9605181217193604 0.0
vn -0.4286925494670868 -0.9034504294395447 0.0
vn -0.5680647492408752 -0.8229838609695435 0.0
vn -0.692724347114563 -0.7212024331092834 0.0
vn -0.7994427680969238 -0.6007422804832458 0.0
vn -0.8854560256004333 -0.4647231698036194 0.0
vn -0.9485364556312561 -0.31666800379753113 0.0
vn -0.9870502352714539 -0.1604112833738327 0.0
vn -1.0 -1.2246468525851679e-16 0.0
vn -0.9870502352714539 -0.1604112833738327 0.0
vn -0.9485364556312561 -0.31666800379753113 0.0
vn -0.8854560256004333 -0.4647231698036194 0.0
vn -0.7994427680969238 -0.6007422804832458 0.0
vn -0.692724347114563 -0.7212024331092834 0.0
vn -0.5680647492408752 -0.8229838609695435 0.0
vn -0.4286925494670868 -0.9034504294395447 0.0
vn -0.27821746468544006 -0.9605181217193604 0.0
vn -0.1205366775393486 -0.9927088618278503 0.0
vn 0.04026594012975693 -0.999189019203186 -0.0
vn 0.20002569258213043 -0.9797906279563904 -0.0
vn 0.35460489988327026 -0.9350162148475647 -0.0
vn 0.5 -0.8660253882408142 -0.0
vn 0.6324453949928284 -0.7746049761772156 -0.0
vn 0.7485107779502869 -0.6631226539611816 -0.0
vn 0.8451901078224182 -0.5344658493995667 -0.0
vn 0.919979453086853 -0.3919666111469269 -0.0
vn 0.9709418416023254 -0.23931565880775452 -0.0
vn 0.9967573285102844 -0.08046656847000122 -0.0
vn 0.9967573285102844 0.08046656847000122 -0.0
vn 0.9709418416023254 0.23931565880775452 -0.0
vn 0.919979453086853 0.3919666111469269 -0.0
vn 0.8451901078224182 0.5344658493995667 -0.0
vn 0.7485107779502869 0.6631226539611816 -0.0
vn 0.6324453949928284 0.7746049761772156 -0.0
vn 0.5 0.8660253882408142 -0.0
vn 0.35460489988327026 0.9350162148475647 -0.0
vn 0.20002569258213043 0.9797906279563904 -0.0
vn 0.04026594012975693 0.999189019203186 -0.0
vn -0.1205366775393486 0.9927088618278503 -0.0
vn -0.27821746468544006 0.9605181217193604 -0.0
vn -0.4286925494670868 0.9034504294395447 -0.0
vn -0.5680647492408752 0.8229838609695435 -0.0
vn -0.692724347114563 0.7212024331092834 -0.0
vn -0.7994427680969238 0.6007422804832458 -0.0
vn -0.8854560256004333 0.4647231698036194 -0.0
vn -0.9485364556312561 0.31666800379753113 -0.0
vn -0.9870502352714539 0.1604112833738327 -0.0
vn -1.0 1.2246468525851679e-16 -0.0
vn -1.0 -1.2246468525851679e-16 0.0
f 2//2 20//20 1//1
f 1//1 20//20 21//21
f 1//1 21//21 39//39
f 39//39 21//21 22//22
f 39//39 22//22 38//38
f 38//38 22//22 23//23
f 38//38 23//23 37//37
f 37//37 23//23 24//24
f 37//37 24//24 36//36
f 36//36 24//24 25//25
f 36//36 25//25 35//35
f 35//35 25//25 26//26
f 35//35 26//26 34//34
f 34//34 26//26 27//27
f 34//34 27//27 33//33
f 33//33 27//27 28//28
f 33//33 28//28 32//32
f 32//32 28//28 29//29
f 32//32 29//29 31//31
f 31//31 29//29 30//30
f 20//20 2//2 19//19
f 19//19 2//2 3//3
f 19//19 3//3 18//18
f 18//18 3//3 4//4
f 18//18 4//4 17//17
f 17//17 4//4 5//5
f 17//17 5//5 16//16
f 16//16 5//5 6//6
f 16//16 6//6 15//15
f 15//15 6//6 7//7
f 15//15 7//7 14//14
f 14//14 7//7 8//8
f 14//14 8//8 13//13
f 13//13 8//8 9//9
f 13//13 9//9 12//12
f 12//12 9//9 10//10
f 12//12 10//10 11//11
f 41//41 59//59 40//40
f 40//40 59//59 60//60
f 40//40 60//60 78//78
f 78//78 60//60 61//61
f 78//78 61//61 77//77
f 77//77 61//61 62//62
f 77//77 62//62 76//76
f 76//76 62//62 63//63
f 76//76 63//63 75//75
f 75//75 63//63 64//64
f 75//75 64//64 74//74
f 74//74 64//64 65//65
f 74//74 65//65 73//73
f 73//73 65//65 66//66
f 73//73 66//66 72//72
f 72//72 66//66 67//67
f 72//72 67//67 71//71
f 71//71 67//67 68//68
f 71//71 68//68 70//70
f 70//70 68//68 69//69
f 59//59 41//41 58//58
f 58//58 41//41 42//42
f 58//58 42//42 57//57
f 57//57 42//42 43//43
f 57//57 43//43 56//56
f 56//56 43//43 44//44
f 56//56 44//44 55//55
f 55//55 44//44 45//45
f 55//55 45//45 54//54
f 54//54 45//45 46//46
f 54//54 46//46 53//53
f 53//53 46//46 47//47
f 53//53 47//47 52//52
f 52//52 47//47 48//48
f 52//52 48//48 51//51
f 51//51 48//48 49//49
f 51//51 49//49 50//50
f 80//80 156//156 79//79
f 79//79 156//156 157//157
f 158//158 118//118 117//117
f 117//117 118//118 119//119
f 117//117 119//119 116//116
f 116//116 119//119 120//120
f 116//116 120//120 115//115
f 115//115 120//120 121//121
f 115//115 121//121 114//114
f 114//114 121//121 122//122
f 114//114 122//122 113//113
f 113//113 122//122 123//123
f 113//113 123//123 112//112
f 112//112 123//123 124//124
f 112//112 124//124 111//111
f 111//111 124//124 125//125
f 111//111 125//125 110//110
f 110//110 125//125 126//126
f 110//110 126//126 109//109
f 109//109 126//126 127//127
f 109//109 127//127 108//108
f 108//108 127//127 128//128
f 108//108 128//128 107//107
f 107//107 128//128 129//129
f 107//107 129//129 106//106
f 106//106 129//129 130//130
f 106//106 130//130 105//105
f 105//105 130//130 131//131
f 105//105 131//131 104//104
f 104//104 131//131 132//132
f 104//104 132//132 103//103
f 103//103 132//132 133//133
f 103//103 133//133 102//102
f 102//102 133//133 134//134
f 102//102 134//134 101//101
f 101//101 134//134 135//135
f 101//101 135//135 100//100
f 100//100 135//135 136//136
f 100//100 136//136 99//99
f 99//99 136//136 137//137
f 99//99 137//137 98//98
f 98//98 137//137 138//138
f 98//98 138//138 97//97
f 97//97 138//138 139//139
f 97//97 139//139 96//96
f 96//96 139//139 140//140
f 96//96 140//140 95//95
f 95//95 140//140 141//141
f 95//95 141//141 94//94
f 94//94 141//141 142//142
f 94//94 142//142 93//93
f 93//93 142//142 143//143
f 93//93 143//143 92//92
f 92//92 143//143 144//144
f 92//92 144//144 91//91
f 91//91 144//144 145//145
f 91//91 145//145 90//90
f 90//90 145//145 146//146
f 90//90 146//146 89//89
f 89//89 146//146 147//147
f 89//89 147//147 88//88
f 88//88 147//147 148//148
f 88//88 148//148 87//87
f 87//87 148//148 149//149
f 87//87 149//149 86//86
f 86//86 149//149 150//150
f 86//86 150//150 85//85
f 85//85 150//150 151//151
f 85//85 151//151 84//84
f 84//84 151//151 152//152
f 84//84 152//152 83//83
f 83//83 152//152 153//153
f 83//83 153//153 82//82
f 82//82 153//153 154//154
f 82//82 154//154 81//81
f 81//81 154//154 155//155
f 81//81 155//155 80//80
f 80//80 155//155 156//156

# End of file