# WaveFront *.obj file
# Vertices: 166
# Triangles : 156

v 2.8956000804901123 1.9049999713897705 0.0
v -2.8956000804901123 1.9049999713897705 0.0
v -2.8956000804901123 1.9049999713897705 0.5080000162124634
v 2.8956000804901123 1.9049999713897705 0.5080000162124634
v -2.8956000804901123 1.9049999713897705 0.0
v -2.8956000804901123 -1.9049999713897705 0.0
v -2.8956000804901123 -1.9049999713897705 0.5080000162124634
v -2.8956000804901123 1.9049999713897705 0.5080000162124634
v -0.8001000285148621 -9.798399047987921e-17 0.0
v -0.78724205493927 -0.14286337792873383 0.0
v -0.7490814924240112 -0.2811349928379059 0.0
v -0.6868448853492737 -0.41037070751190186 0.0
v -0.6025325059890747 -0.5264167785644531 0.0
v -0.4988541901111603 -0.6255433559417725 0.0
v -0.37914231419563293 -0.7045645117759705 0.0
v -0.24724449217319489 -0.7609403133392334 0.0
v -0.10740003734827042 -0.792858898639679 0.0
v 0.03589634969830513 -0.7992943525314331 0.0
v 0.17803899943828583 -0.7800398468971252 0.0
v 0.31445932388305664 -0.7357141971588135 0.0
v 0.44077268242836 -0.6677420735359192 0.0
v 0.5529192090034485 -0.5783081650733948 0.0
v 0.6472945213317871 -0.4702869951725006 0.0
v 0.7208651900291443 -0.34715038537979126 0.0
v 0.7712666988372803 -0.21285608410835266 0.0
v 0.7968790531158447 -0.0717204138636589 0.0
v 0.7968790531158447 0.0717204138636589 0.0
v 0.7712666988372803 0.21285608410835266 0.0
v 0.7208651900291443 0.34715038537979126 0.0
v 0.6472945213317871 0.4702869951725006 0.0
v 0.5529192090034485 0.5783081650733948 0.0
v 0.44077268242836 0.6677420735359192 0.0
v 0.31445932388305664 0.7357141971588135 0.0
v 0.17803899943828583 0.7800398468971252 0.0
v 0.03589634969830513 0.7992943525314331 0.0
v -0.10740003734827042 0.792858898639679 0.0
v -0.24724449217319489 0.7609403133392334 0.0
v -0.37914231419563293 0.7045645117759705 0.0
v -0.4988541901111603 0.6255433559417725 0.0
v -0.6025325059890747 0.5264167785644531 0.0
v -0.6868448853492737 0.41037070751190186 0.0
v -0.7490814924240112 0.2811349928379059 0.0
v -0.78724205493927 0.14286337792873383 0.0
v -2.8956000804901123 1.9049999713897705 0.0
v 2.8956000804901123 1.9049999713897705 0.0
v 2.8956000804901123 -1.9049999713897705 0.0
v -2.8956000804901123 -1.9049999713897705 0.0
v -2.8956000804901123 -1.9049999713897705 0.0
v 2.8956000804901123 -1.9049999713897705 0.0
v 2.8956000804901123 -1.9049999713897705 0.5080000162124634
v -2.8956000804901123 -1.9049999713897705 0.5080000162124634
v -0.8001000285148621 -9.798399047987921e-17 0.5080000162124634
v -0.78724205493927 0.14286337792873383 0.5080000162124634
v -0.7490814924240112 0.2811349928379059 0.5080000162124634
v -0.6868448853492737 0.41037070751190186 0.5080000162124634
v -0.6025325059890747 0.5264167785644531 0.5080000162124634
v -0.4988541901111603 0.6255433559417725 0.5080000162124634
v -0.37914231419563293 0.7045645117759705 0.5080000162124634
v -0.24724449217319489 0.7609403133392334 0.5080000162124634
v -0.10740003734827042 0.792858898639679 0.5080000162124634
v 0.03589634969830513 0.7992943525314331 0.5080000162124634
v 0.17803899943828583 0.7800398468971252 0.5080000162124634
v 0.31445932388305664 0.7357141971588135 0.5080000162124634
v 0.44077268242836 0.6677420735359192 0.5080000162124634
v 0.5529192090034485 0.5783081650733948 0.5080000162124634
v 0.6472945213317871 0.4702869951725006 0.5080000162124634
v 0.7208651900291443 0.34715038537979126 0.5080000162124634
v 0.7712666988372803 0.21285608410835266 0.5080000162124634
v 0.7968790531158447 0.0717204138636589 0.5080000162124634
v 0.7968790531158447 -0.0717204138636589 0.5080000162124634
v 0.7712666988372803 -0.21285608410835266 0.5080000162124634
v 0.7208651900291443 -0.34715038537979126 0.5080000162124634
v 0.6472945213317871 -0.4702869951725006 0.5080000162124634
v 0.5529192090034485 -0.5783081650733948 0.5080000162124634
v 0.44077268242836 -0.6677420735359192 0.5080000162124634
v 0.31445932388305664 -0.7357141971588135 0.5080000162124634
v 0.17803899943828583 -0.7800398468971252 0.5080000162124634
v 0.03589634969830513 -0.7992943525314331 0.5080000162124634
v -0.10740003734827042 -0.792858898639679 0.5080000162124634
v -0.24724449217319489 -0.7609403133392334 0.5080000162124634
v -0.37914231419563293 -0.7045645117759705 0.5080000162124634
v -0.4988541901111603 -0.6255433559417725 0.5080000162124634
v -0.6025325059890747 -0.5264167785644531 0.5080000162124634
v -0.6868448853492737 -0.41037070751190186 0.5080000162124634
v -0.7490814924240112 -0.2811349928379059 0.5080000162124634
v -0.78724205493927 -0.14286337792873383 0.5080000162124634
v 2.8956000804901123 1.9049999713897705 0.5080000162124634
v -2.8956000804901123 1.9049999713897705 0.5080000162124634
v -2.8956000804901123 -1.9049999713897705 0.5080000162124634
v 2.8956000804901123 -1.9049999713897705 0.5080000162124634
v 2.8956000804901123 -1.9049999713897705 0.0
v 2.8956000804901123 1.9049999713897705 0.0
v 2.8956000804901123 1.9049999713897705 0.5080000162124634
v 2.8956000804901123 -1.9049999713897705 0.5080000162124634
v -0.8001000285148621 -9.798399047987921e-17 0.0
v -0.78724205493927 0.14286337792873383 0.0
v -0.7490814924240112 0.2811349928379059 0.0
v -0.6868448853492737 0.41037070751190186 0.0
v -0.6025325059890747 0.5264167785644531 0.0
v -0.4988541901111603 0.6255433559417725 0.0
v -0.37914231419563293 0.7045645117759705 0.0
v -0.24724449217319489 0.7609403133392334 0.0
v -0.10740003734827042 0.792858898639679 0.0
v 0.03589634969830513 0.7992943525314331 0.0
v 0.17803899943828583 0.7800398468971252 0.0
v 0.31445932388305664 0.7357141971588135 0.0
v 0.44077268242836 0.6677420735359192 0.0
v 0.5529192090034485 0.5783081650733948 0.0
v 0.6472945213317871 0.4702869951725006 0.0
v 0.7208651900291443 0.34715038537979126 0.0
v 0.7712666988372803 0.21285608410835266 0.0
v 0.7968790531158447 0.0717204138636589 0.0
v 0.7968790531158447 -0.0717204138636589 0.0
v 0.7712666988372803 -0.21285608410835266 0.0
v 0.7208651900291443 -0.34715038537979126 0.0
v 0.6472945213317871 -0.4702869951725006 0.0
v 0.5529192090034485 -0.5783081650733948 0.0
v 0.44077268242836 -0.6677420735359192 0.0
v 0.31445932388305664 -0.7357141971588135 0.0
v 0.17803899943828583 -0.7800398468971252 0.0
v 0.03589634969830513 -0.7992943525314331 0.0
v -0.10740003734827042 -0.792858898639679 0.0
v -0.24724449217319489 -0.7609403133392334 0.0
v -0.37914231419563293 -0.7045645117759705 0.0
v -0.4988541901111603 -0.6255433559417725 0.0
v -0.6025325059890747 -0.5264167785644531 0.0
v -0.6868448853492737 -0.41037070751190186 0.0
v -0.7490814924240112 -0.2811349928379059 0.0
v -0.78724205493927 -0.14286337792873383 0.0
v -0.8001000285148621 -9.798399047987921e-17 0.5080000162124634
v -0.78724205493927 -0.14286337792873383 0.5080000162124634
v -0.7490814924240112 -0.2811349928379059 0.5080000162124634
v -0.6868448853492737 -0.41037070751190186 0.5080000162124634
v -0.6025325059890747 -0.5264167785644531 0.5080000162124634
v -0.4988541901111603 -0.6255433559417725 0.5080000162124634
v -0.37914231419563293 -0.7045645117759705 0.5080000162124634
v -0.24724449217319489 -0.7609403133392334 0.5080000162124634
v -0.10740003734827042 -0.792858898639679 0.5080000162124634
v 0.03589634969830513 -0.7992943525314331 0.5080000162124634
v 0.17803899943828583 -0.7800398468971252 0.5080000162124634
v 0.31445932388305664 -0.7357141971588135 0.5080000162124634
v 0.44077268242836 -0.6677420735359192 0.5080000162124634
v 0.5529192090034485 -0.5783081650733948 0.5080000162124634
v 0.6472945213317871 -0.4702869951725006 0.5080000162124634
v 0.7208651900291443 -0.34715038537979126 0.5080000162124634
v 0.7712666988372803 -0.21285608410835266 0.5080000162124634
v 0.7968790531158447 -0.0717204138636589 0.5080000162124634
v 0.7968790531158447 0.0717204138636589 0.5080000162124634
v 0.7712666988372803 0.21285608410835266 0.5080000162124634
v 0.7208651900291443 0.34715038537979126 0.5080000162124634
v 0.6472945213317871 0.4702869951725006 0.5080000162124634
v 0.5529192090034485 0.5783081650733948 0.5080000162124634
v 0.44077268242836 0.6677420735359192 0.5080000162124634
v 0.31445932388305664 0.7357141971588135 0.5080000162124634
v 0.17803899943828583 0.7800398468971252 0.5080000162124634
v 0.03589634969830513 0.7992943525314331 0.5080000162124634
v -0.10740003734827042 0.792858898639679 0.5080000162124634
v -0.24724449217319489 0.7609403133392334 0.5080000162124634
v -0.37914231419563293 0.7045645117759705 0.5080000162124634
v -0.4988541901111603 0.6255433559417725 0.5080000162124634
v -0.6025325059890747 0.5264167785644531 0.5080000162124634
v -0.6868448853492737 0.41037070751190186 0.5080000162124634
v -0.7490814924240112 0.2811349928379059 0.5080000162124634
v -0.78724205493927 0.14286337792873383 0.5080000162124634
v -0.8001000285148621 -9.798399047987921e-17 0.0
v -0.8001000285148621 -9.798399047987921e-17 0.5080000162124634
vn -3.8341727215964155e-17 1.0 0.0
vn -3.8341727215964155e-17 1.0 0.0
vn -3.8341727215964155e-17 1.0 0.0
vn -3.8341727215964155e-17 1.0 0.0
vn -1.0 2.3311770782580917e-16 0.0
vn -1.0 2.3311770782580917e-16 0.0
vn -1.0 2.3311770782580917e-16 0.0
vn -1.0 2.3311770782580917e-16 0.0
vn -0.0 0.0 -1.0
vn -0.0 0.0 -1.0
vn -0.0 0.0 -1.0
vn -0.0 0.0 -1.0
vn -0.0 0.0 -1.0
vn -0.0 0.0 -1.0
vn -0.0 0.0 -1.0
vn -0.0 0.0 -1.0
vn -0.0 0.0 -1.0
vn -0.0 0.0 -1.0
vn -0.0 0.0 -1.0
vn -0.0 0.0 -1.0
vn -0.0 0.0 -1.0
vn -0.0 0.0 -1.0
vn -0.0 0.0 -1.0
vn -0.0 0.0 -1.0
vn -0.0 0.0 -1.0
vn -0.0 0.0 -1.0
vn -0.0 0.0 -1.0
vn -0.0 0.0 -1.0
vn -0.0 0.0 -1.0
vn -0.0 0.0 -1.0
vn -0.0 0.0 -1.0
vn -0.0 0.0 -1.0
vn -0.0 0.0 -1.0
vn -0.0 0.0 -1.0
vn -0.0 0.0 -1.0
vn -0.0 0.0 -1.0
vn -0.0 0.0 -1.0
vn -0.0 0.0 -1.0
vn -0.0 0.0 -1.0
vn -0.0 0.0 -1.0
vn -0.0 0.0 -1.0
vn -0.0 0.0 -1.0
vn -0.0 0.0 -1.0
vn -0.0 0.0 -1.0
vn -0.0 0.0 -1.0
vn -0.0 0.0 -1.0
vn -0.0 0.0 -1.0
vn -3.8341727215964155e-17 -1.0 0.0
vn -3.8341727215964155e-17 -1.0 0.0
vn -3.8341727215964155e-17 -1.0 0.0
vn -3.8341727215964155e-17 -1.0 0.0
vn 0.0 0.0 1.0
vn 0.0 0.0 1.0
vn 0.0 0.0 1.0
vn 0.0 0.0 1.0
vn 0.0 0.0 1.0
vn 0.0 0.0 1.0
vn 0.0 0.0 1.0
vn 0.0 0.0 1.0
vn 0.0 0.0 1.0
vn 0.0 0.0 1.0
vn 0.0 0.0 1.0
vn 0.0 0.0 1.0
vn 0.0 0.0 1.0
vn 0.0 0.0 1.0
vn 0.0 0.0 1.0
vn 0.0 0.0 1.0
vn 0.0 0.0 1.0
vn 0.0 0.0 1.0
vn 0.0 0.0 1.0
vn 0.0 0.0 1.0
vn 0.0 0.0 1.0
vn 0.0 0.0 1.0
vn 0.0 0.0 1.0
vn 0.0 0.0 1.0
vn 0.0 0.0 1.0
vn 0.0 0.0 1.0
vn 0.0 0.0 1.0
vn 0.0 0.0 1.0
vn 0.0 0.0 1.0
vn 0.0 0.0 1.0
vn 0.0 0.0 1.0
vn 0.0 0.0 1.0
vn 0.0 0.0 1.0
vn 0.0 0.0 1.0
vn 0.0 0.0 1.0
vn 0.0 0.0 1.0
vn 0.0 0.0 1.0
vn 0.0 0.0 1.0
vn 0.0 0.0 1.0
vn 1.0 -2.3311770782580917e-16 0.0
vn 1.0 -2.3311770782580917e-16 0.0
vn 1.0 -2.3311770782580917e-16 0.0
vn 1.0 -2.3311770782580917e-16 0.0
vn 1.0 -1.2246468525851679e-16 0.0
vn 0.9839295744895935 -0.178556889295578 0.0
vn 0.9362348914146423 -0.3513748347759247 0.0
vn 0.8584488034248352 -0.5128992795944214 0.0
vn 0.7530714869499207 -0.6579387187957764 0.0
vn 0.6234897971153259 -0.7818315029144287 0.0
vn 0.4738686680793762 -0.8805955052375793 0.0
vn 0.30901700258255005 -0.9510565400123596 0.0
vn 0.1342332661151886 -0.9909497499465942 0.0
vn -0.04486482962965965 -0.9989930391311646 -0.0
vn -0.22252093255519867 -0.9749279022216797 -0.0
vn -0.3930250406265259 -0.9195277690887451 -0.0
vn -0.5508970022201538 -0.8345732688903809 -0.0
vn -0.6910626292228699 -0.7227948904037476 -0.0
vn -0.80901700258255 -0.5877852439880371 -0.0
vn -0.9009688496589661 -0.4338837265968323 -0.0
vn -0.9639628529548645 -0.26603683829307556 -0.0
vn -0.9959743022918701 -0.08963930606842041 -0.0
vn -0.9959743022918701 0.08963930606842041 0.0
vn -0.9639628529548645 0.26603683829307556 0.0
vn -0.9009688496589661 0.4338837265968323 0.0
vn -0.80901700258255 0.5877852439880371 0.0
vn -0.6910626292228699 0.7227948904037476 0.0
vn -0.5508970022201538 0.8345732688903809 0.0
vn -0.3930250406265259 0.9195277690887451 0.0
vn -0.22252093255519867 0.9749279022216797 0.0
vn -0.04486482962965965 0.9989930391311646 0.0
vn 0.1342332661151886 0.9909497499465942 0.0
vn 0.30901700258255005 0.9510565400123596 0.0
vn 0.4738686680793762 0.8805955052375793 0.0
vn 0.6234897971153259 0.7818315029144287 0.0
vn 0.7530714869499207 0.6579387187957764 0.0
vn 0.8584488034248352 0.5128992795944214 0.0
vn 0.9362348914146423 0.3513748347759247 0.0
vn 0.9839295744895935 0.178556889295578 0.0
vn 1.0 1.2246468525851679e-16 0.0
vn 0.9839295744895935 0.178556889295578 0.0
vn 0.9362348914146423 0.3513748347759247 0.0
vn 0.8584488034248352 0.5128992795944214 0.0
vn 0.7530714869499207 0.6579387187957764 0.0
vn 0.6234897971153259 0.7818315029144287 0.0
vn 0.4738686680793762 0.8805955052375793 0.0
vn 0.30901700258255005 0.9510565400123596 0.0
vn 0.1342332661151886 0.9909497499465942 0.0
vn -0.04486482962965965 0.9989930391311646 0.0
vn -0.22252093255519867 0.9749279022216797 0.0
vn -0.3930250406265259 0.9195277690887451 0.0
vn -0.5508970022201538 0.8345732688903809 0.0
vn -0.6910626292228699 0.7227948904037476 0.0
vn -0.80901700258255 0.5877852439880371 0.0
vn -0.9009688496589661 0.4338837265968323 0.0
vn -0.9639628529548645 0.26603683829307556 0.0
vn -0.9959743022918701 0.08963930606842041 0.0
vn -0.9959743022918701 -0.08963930606842041 -0.0
vn -0.9639628529548645 -0.26603683829307556 -0.0
vn -0.9009688496589661 -0.4338837265968323 -0.0
vn -0.80901700258255 -0.5877852439880371 -0.0
vn -0.6910626292228699 -0.7227948904037476 -0.0
vn -0.5508970022201538 -0.8345732688903809 -0.0
vn -0.3930250406265259 -0.9195277690887451 -0.0
vn -0.22252093255519867 -0.9749279022216797 -0.0
vn -0.04486482962965965 -0.9989930391311646 -0.0
vn 0.1342332661151886 -0.9909497499465942 0.0
vn 0.30901700258255005 -0.9510565400123596 0.0
vn 0.4738686680793762 -0.8805955052375793 0.0
vn 0.6234897971153259 -0.7818315029144287 0.0
vn 0.7530714869499207 -0.6579387187957764 0.0
vn 0.8584488034248352 -0.5128992795944214 0.0
vn 0.9362348914146423 -0.3513748347759247 0.0
vn 0.9839295744895935 -0.178556889295578 0.0
vn 1.0 1.2246468525851679e-16 0.0
vn 1.0 -1.2246468525851679e-16 0.0
f 1//1 2//2 4//4
f 4//4 2//2 3//3
f 5//5 6//6 8//8
f 8//8 6//6 7//7
f 10//10 47//47 9//9
f 9//9 47//47 44//44
f 9//9 44//44 43//43
f 43//43 44//44 42//42
f 42//42 44//44 41//41
f 41//41 44//44 40//40
f 40//40 44//44 39//39
f 39//39 44//44 38//38
f 38//38 44//44 37//37
f 37//37 44//44 36//36
f 36//36 44//44 35//35
f 35//35 44//44 45//45
f 35//35 45//45 34//34
f 34//34 45//45 33//33
f 33//33 45//45 32//32
f 32//32 45//45 31//31
f 31//31 45//45 30//30
f 30//30 45//45 29//29
f 29//29 45//45 28//28
f 28//28 45//45 27//27
f 27//27 45//45 46//46
f 27//27 46//46 26//26
f 26//26 46//46 25//25
f 25//25 46//46 24//24
f 24//24 46//46 23//23
f 23//23 46//46 22//22
f 22//22 46//46 21//21
f 21//21 46//46 20//20
f 20//20 46//46 19//19
f 19//19 46//46 18//18
f 18//18 46//46 47//47
f 18//18 47//47 17//17
f 17//17 47//47 16//16
f 16//16 47//47 15//15
f 15//15 47//47 14//14
f 14//14 47//47 13//13
f 13//13 47//47 12//12
f 12//12 47//47 11//11
f 11//11 47//47 10//10
f 48//48 49//49 51//51
f 51//51 49//49 50//50
f 53//53 88//88 52//52
f 52//52 88//88 89//89
f 52//52 89//89 86//86
f 86//86 89//89 85//85
f 85//85 89//89 84//84
f 84//84 89//89 83//83
f 83//83 89//89 82//82
f 82//82 89//89 81//81
f 81//81 89//89 80//80
f 80//80 89//89 79//79
f 79//79 89//89 78//78
f 78//78 89//89 90//90
f 78//78 90//90 77//77
f 77//77 90//90 76//76
f 76//76 90//90 75//75
f 75//75 90//90 74//74
f 74//74 90//90 73//73
f 73//73 90//90 72//72
f 72//72 90//90 71//71
f 71//71 90//90 70//70
f 70//70 90//90 69//69
f 69//69 90//90 87//87
f 69//69 87//87 68//68
f 68//68 87//87 67//67
f 67//67 87//87 66//66
f 66//66 87//87 65//65
f 65//65 87//87 64//64
f 64//64 87//87 63//63
f 63//63 87//87 62//62
f 62//62 87//87 61//61
f 61//61 87//87 88//88
f 61//61 88//88 60//60
f 60//60 88//88 59//59
f 59//59 88//88 58//58
f 58//58 88//88 57//57
f 57//57 88//88 56//56
f 56//56 88//88 55//55
f 55//55 88//88 54//54
f 54//54 88//88 53//53
f 91//91 92//92 94//94
f 94//94 92//92 93//93
f 96//96 164//164 95//95
f 95//95 164//164 166//166
f 165//165 130//130 129//129
f 129//129 130//130 131//131
f 129//129 131//131 132//132
f 96//96 97//97 164//164
f 164//164 97//97 163//163
f 163//163 97//97 98//98
f 163//163 98//98 162//162
f 162//162 98//98 99//99
f 162//162 99//99 161//161
f 161//161 99//99 100//100
f 161//161 100//100 160//160
f 160//160 100//100 101//101
f 160//160 101//101 159//159
f 159//159 101//101 102//102
f 159//159 102//102 158//158
f 158//158 102//102 103//103
f 158//158 103//103 157//157
f 157//157 103//103 104//104
f 157//157 104//104 156//156
f 156//156 104//104 105//105
f 156//156 105//105 155//155
f 155//155 105//105 106//106
f 155//155 106//106 154//154
f 154//154 106//106 107//107
f 154//154 107//107 153//153
f 153//153 107//107 108//108
f 153//153 108//108 152//152
f 152//152 108//108 109//109
f 152//152 109//109 151//151
f 151//151 109//109 110//110
f 151//151 110//110 150//150
f 150//150 110//110 111//111
f 150//150 111//111 149//149
f 149//149 111//111 112//112
f 149//149 112//112 148//148
f 148//148 112//112 113//113
f 148//148 113//113 147//147
f 147//147 113//113 114//114
f 147//147 114//114 146//146
f 146//146 114//114 115//115
f 146//146 115//115 145//145
f 145//145 115//115 116//116
f 145//145 116//116 144//144
f 144//144 116//116 117//117
f 144//144 117//117 143//143
f 143//143 117//117 118//118
f 143//143 118//118 142//142
f 142//142 118//118 119//119
f 142//142 119//119 141//141
f 141//141 119//119 120//120
f 141//141 120//120 140//140
f 140//140 120//120 121//121
f 140//140 121//121 139//139
f 139//139 121//121 122//122
f 139//139 122//122 138//138
f 138//138 122//122 123//123
f 138//138 123//123 137//137
f 137//137 123//123 124//124
f 137//137 124//124 136//136
f 136//136 124//124 125//125
f 136//136 125//125 135//135
f 135//135 125//125 126//126
f 135//135 126//126 134//134
f 134//134 126//126 127//127
f 134//134 127//127 133//133
f 133//133 127//127 128//128
f 133//133 128//128 132//132
f 132//132 128//128 129//129

# End of file