# WaveFront *.obj file
# Vertices: 78
# Triangles : 36

v -2.799999952316284 0.0 1.0549999475479126
v -1.7640000581741333 0.0 -2.325000047683716
v -1.7640000581741333 -1.0 -2.325000047683716
v -2.799999952316284 -1.0 1.0549999475479126
v 2.799999952316284 0.0 1.0549999475479126
v -2.799999952316284 0.0 1.0549999475479126
v -2.799999952316284 -1.0 1.0549999475479126
v 2.799999952316284 -1.0 1.0549999475479126
v 1.7640000581741333 0.0 -2.325000047683716
v 2.799999952316284 0.0 1.0549999475479126
v 2.799999952316284 -1.0 1.0549999475479126
v 1.7640000581741333 -1.0 -2.325000047683716
v -1.7640000581741333 0.0 -2.325000047683716
v 1.7640000581741333 0.0 -2.325000047683716
v 1.7640000581741333 -1.0 -2.325000047683716
v -1.7640000581741333 -1.0 -2.325000047683716
v 1.7640000581741333 0.0 -2.325000047683716
v -1.7640000581741333 0.0 -2.325000047683716
v -2.799999952316284 0.0 1.0549999475479126
v 2.799999952316284 0.0 1.0549999475479126
v -1.7640000581741333 -1.0 -2.325000047683716
v 1.7640000581741333 -1.0 -2.325000047683716
v 2.799999952316284 -1.0 1.0549999475479126
v -2.799999952316284 -1.0 1.0549999475479126
v 2.799999952316284 0.800000011920929 2.325000047683716
v 2.799999952316284 0.0 1.0549999475479126
v 2.8059730529785156 0.006786007899791002 1.0507253408432007
v 2.8059730529785156 0.8067860007286072 2.320725440979004
v 0.0 1.7999999523162842 0.0
v 2.799999952316284 0.800000011920929 2.325000047683716
v 2.8059730529785156 0.8067860007286072 2.320725440979004
v 0.005973061081022024 1.806786060333252 -0.004274650476872921
v 2.799999952316284 0.0 1.0549999475479126
v 0.0 1.7999999523162842 0.0
v 0.005973061081022024 1.806786060333252 -0.004274650476872921
v 2.8059730529785156 0.006786007899791002 1.0507253408432007
v 2.8059730529785156 0.006786007899791002 1.0507253408432007
v 0.005973061081022024 1.806786060333252 -0.004274650476872921
v 2.8059730529785156 0.8067860007286072 2.320725440979004
v 0.0 1.7999999523162842 0.0
v 2.799999952316284 0.0 1.0549999475479126
v 2.799999952316284 0.800000011920929 2.325000047683716
v 1.7640000581741333 0.0 -2.325000047683716
v -1.7640000581741333 0.0 -2.325000047683716
v -1.7640000581741333 0.00790723692625761 -2.3311216831207275
v 1.7640000581741333 0.00790723692625761 -2.3311216831207275
v 0.0 1.7999999523162842 0.0
v 1.7640000581741333 0.0 -2.325000047683716
v 1.7640000581741333 0.00790723692625761 -2.3311216831207275
v 0.0 1.807907223701477 -0.0061217318288981915
v -1.7640000581741333 0.0 -2.325000047683716
v 0.0 1.7999999523162842 0.0
v 0.0 1.807907223701477 -0.0061217318288981915
v -1.7640000581741333 0.00790723692625761 -2.3311216831207275
v -1.7640000581741333 0.00790723692625761 -2.3311216831207275
v 0.0 1.807907223701477 -0.0061217318288981915
v 1.7640000581741333 0.00790723692625761 -2.3311216831207275
v 0.0 1.7999999523162842 0.0
v -1.7640000581741333 0.0 -2.325000047683716
v 1.7640000581741333 0.0 -2.325000047683716
v 0.0 1.7999999523162842 0.0
v -1.7640000581741333 0.0 -2.325000047683716
v -1.76978600025177 0.007960980758070946 -2.3267734050750732
v -0.005785986315459013 1.8079609870910645 -0.0017734561115503311
v -2.799999952316284 0.0 1.0549999475479126
v 0.0 1.7999999523162842 0.0
v -0.005785986315459013 1.8079609870910645 -0.0017734561115503311
v -2.805785894393921 0.007960980758070946 1.0532265901565552
v -1.7640000581741333 0.0 -2.325000047683716
v -2.799999952316284 0.0 1.0549999475479126
v -2.805785894393921 0.007960980758070946 1.0532265901565552
v -1.76978600025177 0.007960980758070946 -2.3267734050750732
v -1.76978600025177 0.007960980758070946 -2.3267734050750732
v -2.805785894393921 0.007960980758070946 1.0532265901565552
v -0.005785986315459013 1.8079609870910645 -0.0017734561115503311
v -2.799999952316284 0.0 1.0549999475479126
v -1.7640000581741333 0.0 -2.325000047683716
v 0.0 1.7999999523162842 0.0
vn -0.9560964703559875 -0.0 -0.2930520474910736
vn -0.9560964703559875 -0.0 -0.2930520474910736
vn -0.9560964703559875 -0.0 -0.2930520474910736
vn -0.9560964703559875 -0.0 -0.2930520474910736
vn 0.0 0.0 1.0
vn 0.0 0.0 1.0
vn 0.0 0.0 1.0
vn 0.0 0.0 1.0
vn 0.9560964703559875 0.0 -0.2930520474910736
vn 0.9560964703559875 0.0 -0.2930520474910736
vn 0.9560964703559875 0.0 -0.2930520474910736
vn 0.9560964703559875 0.0 -0.2930520474910736
vn 0.0 0.0 -1.0
vn 0.0 0.0 -1.0
vn 0.0 0.0 -1.0
vn 0.0 0.0 -1.0
vn 0.0 1.0 0.0
vn 0.0 1.0 0.0
vn 0.0 1.0 0.0
vn 0.0 1.0 0.0
vn 0.0 -1.0 0.0
vn 0.0 -1.0 0.0
vn 0.0 -1.0 0.0
vn 0.0 -1.0 0.0
vn 0.8020133376121521 -0.5053935647010803 0.3183581531047821
vn 0.8020133376121521 -0.5053935647010803 0.3183581531047821
vn 0.8020133376121521 -0.5053935647010803 0.3183581531047821
vn 0.8020133376121521 -0.5053935647010803 0.3183581531047821
vn -0.30476388335227966 0.6850576400756836 0.6616759300231934
vn -0.30476388335227966 0.6850576400756836 0.6616759300231934
vn -0.30476388335227966 0.6850576400756836 0.6616759300231934
vn -0.30476388335227966 0.6850576400756836 0.6616759300231934
vn -0.01532518956810236 -0.5232353806495667 -0.8520503640174866
vn -0.01532518956810236 -0.5232353806495667 -0.8520503640174866
vn -0.01532518956810236 -0.5232353806495667 -0.8520503640174866
vn -0.01532518956810236 -0.5232353806495667 -0.8520503640174866
vn 0.5973060727119446 0.6786007881164551 -0.4274650812149048
vn 0.5973060727119446 0.6786007881164551 -0.4274650812149048
vn 0.5973060727119446 0.6786007881164551 -0.4274650812149048
vn -0.5973060727119446 -0.6786007881164551 0.4274650812149048
vn -0.5973060727119446 -0.6786007881164551 0.4274650812149048
vn -0.5973060727119446 -0.6786007881164551 0.4274650812149048
vn -0.0 -0.6121731996536255 -0.7907236814498901
vn -0.0 -0.6121731996536255 -0.7907236814498901
vn -0.0 -0.6121731996536255 -0.7907236814498901
vn -0.0 -0.6121731996536255 -0.7907236814498901
vn 0.8575195074081421 0.3149333894252777 0.4067889451980591
vn 0.8575195074081421 0.3149333894252777 0.4067889451980591
vn 0.8575195074081421 0.3149333894252777 0.4067889451980591
vn 0.8575195074081421 0.3149333894252777 0.4067889451980591
vn -0.8575195074081421 0.3149333894252777 0.4067889451980591
vn -0.8575195074081421 0.3149333894252777 0.4067889451980591
vn -0.8575195074081421 0.3149333894252777 0.4067889451980591
vn -0.8575195074081421 0.3149333894252777 0.4067889451980591
vn 0.0 0.7907236814498901 -0.6121731996536255
vn 0.0 0.7907236814498901 -0.6121731996536255
vn 0.0 0.7907236814498901 -0.6121731996536255
vn -0.0 -0.7907236814498901 0.6121731996536255
vn -0.0 -0.7907236814498901 0.6121731996536255
vn -0.0 -0.7907236814498901 0.6121731996536255
vn 0.6329007148742676 0.30108946561813354 -0.7132894396781921
vn 0.6329007148742676 0.30108946561813354 -0.7132894396781921
vn 0.6329007148742676 0.30108946561813354 -0.7132894396781921
vn 0.6329007148742676 0.30108946561813354 -0.7132894396781921
vn 0.14910754561424255 0.3170207440853119 0.9366241693496704
vn 0.14910754561424255 0.3170207440853119 0.9366241693496704
vn 0.14910754561424255 0.3170207440853119 0.9366241693496704
vn 0.14910754561424255 0.3170207440853119 0.9366241693496704
vn -0.761146605014801 -0.6051676273345947 -0.2332981824874878
vn -0.761146605014801 -0.6051676273345947 -0.2332981824874878
vn -0.761146605014801 -0.6051676273345947 -0.2332981824874878
vn -0.761146605014801 -0.6051676273345947 -0.2332981824874878
vn -0.5785986185073853 0.7960980534553528 -0.1773456186056137
vn -0.5785986185073853 0.7960980534553528 -0.1773456186056137
vn -0.5785986185073853 0.7960980534553528 -0.1773456186056137
vn 0.5785986185073853 -0.7960980534553528 0.1773456186056137
vn 0.5785986185073853 -0.7960980534553528 0.1773456186056137
vn 0.5785986185073853 -0.7960980534553528 0.1773456186056137
g b05dd19c-e37a-11ea-88f6-54bf646e7e1f
f 1//1 2//2 4//4
f 4//4 2//2 3//3
g b05e6df6-e37a-11ea-9f9d-54bf646e7e1f
f 5//5 6//6 8//8
f 8//8 6//6 7//7
g b05ee30c-e37a-11ea-b6bb-54bf646e7e1f
f 9//9 10//10 12//12
f 12//12 10//10 11//11
g b05f5838-e37a-11ea-aa1d-54bf646e7e1f
f 13//13 14//14 16//16
f 16//16 14//14 15//15
g b05fcd70-e37a-11ea-be9a-54bf646e7e1f
f 17//17 18//18 20//20
f 20//20 18//18 19//19
g b06042b4-e37a-11ea-a781-54bf646e7e1f
f 21//21 22//22 24//24
f 24//24 22//22 23//23
g b0e68982-e37a-11ea-be8b-54bf646e7e1f
f 25//25 26//26 28//28
f 28//28 26//26 27//27
g b0e725b8-e37a-11ea-8da6-54bf646e7e1f
f 29//29 30//30 32//32
f 32//32 30//30 31//31
g b0e7c1fa-e37a-11ea-88bc-54bf646e7e1f
f 33//33 34//34 36//36
f 36//36 34//34 35//35
g b0e8856e-e37a-11ea-ad34-54bf646e7e1f
f 37//37 38//38 39//39
g b0e948be-e37a-11ea-bebb-54bf646e7e1f
f 40//40 41//41 42//42
g b177a5ac-e37a-11ea-bab6-54bf646e7e1f
f 43//43 44//44 46//46
f 46//46 44//44 45//45
g b1786934-e37a-11ea-9c1e-54bf646e7e1f
f 47//47 48//48 50//50
f 50//50 48//48 49//49
g b1792c5e-e37a-11ea-ab69-54bf646e7e1f
f 51//51 52//52 54//54
f 54//54 52//52 53//53
g b179efb4-e37a-11ea-ad18-54bf646e7e1f
f 55//55 56//56 57//57
g b17ab2fa-e37a-11ea-bd34-54bf646e7e1f
f 58//58 59//59 60//60
g b20c4468-e37a-11ea-8067-54bf646e7e1f
f 61//61 62//62 64//64
f 64//64 62//62 63//63
g b20d55e8-e37a-11ea-a5c1-54bf646e7e1f
f 65//65 66//66 68//68
f 68//68 66//66 67//67
g b20e191a-e37a-11ea-81fd-54bf646e7e1f
f 69//69 70//70 72//72
f 72//72 70//70 71//71
g b20edc80-e37a-11ea-a4fd-54bf646e7e1f
f 73//73 74//74 75//75
g b20f9fdc-e37a-11ea-a1b6-54bf646e7e1f
f 76//76 77//77 78//78

# End of file