# WaveFront *.obj file
# Vertices: 80
# Triangles : 48

v 138.0 -11.0 4.0
v 138.0 -11.0 3.0
v 138.0 3.0 3.0
v 138.0 3.0 4.0
v 138.0 -11.0 -6.0
v 138.0 3.0 -6.0
v 138.0 3.0 -5.0
v 138.0 -11.0 -5.0
v 122.0 -5.0 -5.0
v 122.0 3.0 -5.0
v 122.0 3.0 -6.0
v 122.0 -11.0 -6.0
v 122.0 -11.0 -5.0
v 138.0 -11.0 -5.0
v 122.0 -11.0 -5.0
v 122.0 -11.0 -6.0
v 138.0 -11.0 -6.0
v 138.0 -11.0 -6.0
v 122.0 -11.0 -6.0
v 122.0 3.0 -6.0
v 138.0 3.0 -6.0
v 130.0 -5.0 -5.0
v 122.0 -5.0 -5.0
v 122.0 -11.0 -5.0
v 138.0 -11.0 -5.0
v 138.0 3.0 -5.0
v 130.0 3.0 -5.0
v 122.0 -11.0 3.0
v 138.0 -11.0 3.0
v 138.0 -11.0 4.0
v 122.0 -11.0 4.0
v 122.0 3.0 3.0
v 122.0 -5.0 3.0
v 122.0 -11.0 3.0
v 122.0 -11.0 4.0
v 122.0 3.0 4.0
v 138.0 3.0 4.0
v 122.0 3.0 4.0
v 122.0 -11.0 4.0
v 138.0 -11.0 4.0
v 122.0 -5.0 3.0
v 130.0 -5.0 3.0
v 130.0 3.0 3.0
v 138.0 3.0 3.0
v 138.0 -11.0 3.0
v 122.0 -11.0 3.0
v 122.0 -5.0 3.0
v 122.0 3.0 3.0
v 0.0 3.0 3.0
v 0.0 -5.0 3.0
v 0.0 3.0 -5.0
v 0.0 3.0 3.0
v 122.0 3.0 3.0
v 122.0 3.0 4.0
v 138.0 3.0 4.0
v 138.0 3.0 3.0
v 130.0 3.0 3.0
v 130.0 3.0 -5.0
v 138.0 3.0 -5.0
v 138.0 3.0 -6.0
v 122.0 3.0 -6.0
v 122.0 3.0 -5.0
v 122.0 3.0 -5.0
v 122.0 -5.0 -5.0
v 0.0 -5.0 -5.0
v 0.0 3.0 -5.0
v 0.0 -5.0 3.0
v 0.0 -5.0 -5.0
v 122.0 -5.0 -5.0
v 130.0 -5.0 -5.0
v 130.0 -5.0 3.0
v 122.0 -5.0 3.0
v 130.0 3.0 3.0
v 130.0 -5.0 3.0
v 130.0 -5.0 -5.0
v 130.0 3.0 -5.0
v 0.0 -5.0 -5.0
v 0.0 -5.0 3.0
v 0.0 3.0 3.0
v 0.0 3.0 -5.0
vn 1.0 0.0 0.0
vn 1.0 0.0 0.0
vn 1.0 0.0 0.0
vn 1.0 0.0 0.0
vn 1.0 0.0 0.0
vn 1.0 0.0 0.0
vn 1.0 0.0 0.0
vn 1.0 0.0 0.0
vn -1.0 -0.0 -0.0
vn -1.0 -0.0 -0.0
vn -1.0 -0.0 -0.0
vn -1.0 -0.0 -0.0
vn -1.0 -0.0 -0.0
vn 0.0 -1.0 0.0
vn 0.0 -1.0 0.0
vn 0.0 -1.0 0.0
vn 0.0 -1.0 0.0
vn 0.0 0.0 -1.0
vn 0.0 0.0 -1.0
vn 0.0 0.0 -1.0
vn 0.0 0.0 -1.0
vn -0.0 -0.0 1.0
vn -0.0 -0.0 1.0
vn -0.0 -0.0 1.0
vn -0.0 -0.0 1.0
vn -0.0 -0.0 1.0
vn -0.0 -0.0 1.0
vn 0.0 -1.0 0.0
vn 0.0 -1.0 0.0
vn 0.0 -1.0 0.0
vn 0.0 -1.0 0.0
vn -1.0 0.0 0.0
vn -1.0 0.0 0.0
vn -1.0 0.0 0.0
vn -1.0 0.0 0.0
vn -1.0 0.0 0.0
vn 0.0 0.0 1.0
vn 0.0 0.0 1.0
vn 0.0 0.0 1.0
vn 0.0 0.0 1.0
vn -0.0 -0.0 -1.0
vn -0.0 -0.0 -1.0
vn -0.0 -0.0 -1.0
vn -0.0 -0.0 -1.0
vn -0.0 -0.0 -1.0
vn -0.0 -0.0 -1.0
vn 0.0 0.0 1.0
vn 0.0 0.0 1.0
vn 0.0 0.0 1.0
vn 0.0 0.0 1.0
vn -0.0 1.0 0.0
vn -0.0 1.0 0.0
vn -0.0 1.0 0.0
vn -0.0 1.0 0.0
vn -0.0 1.0 0.0
vn -0.0 1.0 0.0
vn -0.0 1.0 0.0
vn -0.0 1.0 0.0
vn -0.0 1.0 0.0
vn -0.0 1.0 0.0
vn -0.0 1.0 0.0
vn -0.0 1.0 0.0
vn 0.0 0.0 -1.0
vn 0.0 0.0 -1.0
vn 0.0 0.0 -1.0
vn 0.0 0.0 -1.0
vn 0.0 -1.0 0.0
vn 0.0 -1.0 0.0
vn 0.0 -1.0 0.0
vn 0.0 -1.0 0.0
vn 0.0 -1.0 0.0
vn 0.0 -1.0 0.0
vn 1.0 0.0 0.0
vn 1.0 0.0 0.0
vn 1.0 0.0 0.0
vn 1.0 0.0 0.0
vn -1.0 -0.0 -0.0
vn -1.0 -0.0 -0.0
vn -1.0 -0.0 -0.0
vn -1.0 -0.0 -0.0
g dbadf988-e37b-11ea-88fa-54bf646e7e1f
f 1//1 2//2 4//4
f 4//4 2//2 3//3
g dbb0df86-e37b-11ea-8f77-54bf646e7e1f
f 6//6 7//7 5//5
f 5//5 7//7 8//8
g dacac5dc-e37b-11ea-bc29-54bf646e7e1f
f 10//10 11//11 9//9
f 9//9 11//11 12//12
f 9//9 12//12 13//13
g dacd3724-e37b-11ea-b1a7-54bf646e7e1f
f 14//14 15//15 17//17
f 17//17 15//15 16//16
g dacf80c0-e37b-11ea-a8b6-54bf646e7e1f
f 18//18 19//19 21//21
f 21//21 19//19 20//20
g dad1a3c2-e37b-11ea-8df7-54bf646e7e1f
f 23//23 24//24 22//22
f 22//22 24//24 25//25
f 22//22 25//25 26//26
f 26//26 27//27 22//22
g d9e7e086-e37b-11ea-81c4-54bf646e7e1f
f 28//28 29//29 31//31
f 31//31 29//29 30//30
g d9ea789a-e37b-11ea-b422-54bf646e7e1f
f 32//32 33//33 36//36
f 36//36 33//33 35//35
f 35//35 33//33 34//34
g d9f0ba2e-e37b-11ea-8ee6-54bf646e7e1f
f 37//37 38//38 40//40
f 40//40 38//38 39//39
g d9f48ada-e37b-11ea-8f6a-54bf646e7e1f
f 41//41 42//42 46//46
f 46//46 42//42 45//45
f 45//45 42//42 44//44
f 44//44 42//42 43//43
g d91e4f22-e37b-11ea-b9df-54bf646e7e1f
f 47//47 48//48 50//50
f 50//50 48//48 49//49
g d9204af6-e37b-11ea-a1ba-54bf646e7e1f
f 51//51 52//52 62//62
f 62//62 52//52 53//53
f 62//62 53//53 58//58
f 58//58 53//53 57//57
f 57//57 53//53 54//54
f 57//57 54//54 55//55
f 55//55 56//56 57//57
f 59//59 60//60 58//58
f 58//58 60//60 61//61
f 58//58 61//61 62//62
g d92246d0-e37b-11ea-b9a5-54bf646e7e1f
f 63//63 64//64 66//66
f 66//66 64//64 65//65
g d9241b94-e37b-11ea-9ee5-54bf646e7e1f
f 67//67 68//68 72//72
f 72//72 68//68 69//69
f 72//72 69//69 71//71
f 71//71 69//69 70//70
g d925f07a-e37b-11ea-8506-54bf646e7e1f
f 74//74 75//75 73//73
f 73//73 75//75 76//76
g d927ec66-e37b-11ea-9ac0-54bf646e7e1f
f 77//77 78//78 80//80
f 80//80 78//78 79//79

# End of file