# WaveFront *.obj file
# Vertices: 68
# Triangles : 40

v 122.0 -5.0 -5.0
v 122.0 3.0 -5.0
v 122.0 3.0 -6.0
v 122.0 -11.0 -6.0
v 122.0 -11.0 -5.0
v 130.0 -11.0 -5.0
v 122.0 -11.0 -5.0
v 122.0 -11.0 -6.0
v 130.0 -11.0 -6.0
v 130.0 -11.0 -6.0
v 122.0 -11.0 -6.0
v 122.0 3.0 -6.0
v 130.0 3.0 -6.0
v 130.0 -5.0 -5.0
v 122.0 -5.0 -5.0
v 122.0 -11.0 -5.0
v 130.0 -11.0 -5.0
v 122.0 -11.0 3.0
v 130.0 -11.0 3.0
v 130.0 -11.0 4.0
v 122.0 -11.0 4.0
v 122.0 3.0 3.0
v 122.0 -5.0 3.0
v 122.0 -11.0 3.0
v 122.0 -11.0 4.0
v 122.0 3.0 4.0
v 130.0 -11.0 4.0
v 130.0 3.0 4.0
v 122.0 3.0 4.0
v 122.0 -11.0 4.0
v 122.0 -5.0 3.0
v 130.0 -5.0 3.0
v 130.0 -11.0 3.0
v 122.0 -11.0 3.0
v 122.0 -5.0 3.0
v 122.0 3.0 3.0
v 0.0 3.0 3.0
v 0.0 -5.0 3.0
v 0.0 3.0 -5.0
v 0.0 3.0 3.0
v 122.0 3.0 3.0
v 122.0 3.0 4.0
v 130.0 3.0 4.0
v 130.0 3.0 -6.0
v 122.0 3.0 -6.0
v 122.0 3.0 -5.0
v 122.0 3.0 -5.0
v 122.0 -5.0 -5.0
v 0.0 -5.0 -5.0
v 0.0 3.0 -5.0
v 0.0 -5.0 3.0
v 0.0 -5.0 -5.0
v 122.0 -5.0 -5.0
v 130.0 -5.0 -5.0
v 130.0 -5.0 3.0
v 122.0 -5.0 3.0
v 130.0 -5.0 3.0
v 130.0 -5.0 -5.0
v 130.0 -11.0 -5.0
v 130.0 -11.0 -6.0
v 130.0 3.0 -6.0
v 130.0 3.0 4.0
v 130.0 -11.0 4.0
v 130.0 -11.0 3.0
v 0.0 -5.0 -5.0
v 0.0 -5.0 3.0
v 0.0 3.0 3.0
v 0.0 3.0 -5.0
vn -1.0 -0.0 -0.0
vn -1.0 -0.0 -0.0
vn -1.0 -0.0 -0.0
vn -1.0 -0.0 -0.0
vn -1.0 -0.0 -0.0
vn 0.0 -1.0 0.0
vn 0.0 -1.0 0.0
vn 0.0 -1.0 0.0
vn 0.0 -1.0 0.0
vn 0.0 0.0 -1.0
vn 0.0 0.0 -1.0
vn 0.0 0.0 -1.0
vn 0.0 0.0 -1.0
vn -0.0 -0.0 1.0
vn -0.0 -0.0 1.0
vn -0.0 -0.0 1.0
vn -0.0 -0.0 1.0
vn 0.0 -1.0 0.0
vn 0.0 -1.0 0.0
vn 0.0 -1.0 0.0
vn 0.0 -1.0 0.0
vn -1.0 0.0 0.0
vn -1.0 0.0 0.0
vn -1.0 0.0 0.0
vn -1.0 0.0 0.0
vn -1.0 0.0 0.0
vn 0.0 0.0 1.0
vn 0.0 0.0 1.0
vn 0.0 0.0 1.0
vn 0.0 0.0 1.0
vn -0.0 -0.0 -1.0
vn -0.0 -0.0 -1.0
vn -0.0 -0.0 -1.0
vn -0.0 -0.0 -1.0
vn 0.0 0.0 1.0
vn 0.0 0.0 1.0
vn 0.0 0.0 1.0
vn 0.0 0.0 1.0
vn -0.0 1.0 0.0
vn -0.0 1.0 0.0
vn -0.0 1.0 0.0
vn -0.0 1.0 0.0
vn -0.0 1.0 0.0
vn -0.0 1.0 0.0
vn -0.0 1.0 0.0
vn -0.0 1.0 0.0
vn 0.0 0.0 -1.0
vn 0.0 0.0 -1.0
vn 0.0 0.0 -1.0
vn 0.0 0.0 -1.0
vn 0.0 -1.0 0.0
vn 0.0 -1.0 0.0
vn 0.0 -1.0 0.0
vn 0.0 -1.0 0.0
vn 0.0 -1.0 0.0
vn 0.0 -1.0 0.0
vn 1.0 0.0 0.0
vn 1.0 0.0 0.0
vn 1.0 0.0 0.0
vn 1.0 0.0 0.0
vn 1.0 0.0 0.0
vn 1.0 0.0 0.0
vn 1.0 0.0 0.0
vn 1.0 0.0 0.0
vn -1.0 -0.0 -0.0
vn -1.0 -0.0 -0.0
vn -1.0 -0.0 -0.0
vn -1.0 -0.0 -0.0
g dacac5dc-e37b-11ea-bc29-54bf646e7e1f
f 2//2 3//3 1//1
f 1//1 3//3 4//4
f 1//1 4//4 5//5
g dacd3724-e37b-11ea-b1a7-54bf646e7e1f
f 6//6 7//7 9//9
f 9//9 7//7 8//8
g dacf80c0-e37b-11ea-a8b6-54bf646e7e1f
f 10//10 11//11 13//13
f 13//13 11//11 12//12
g dad1a3c2-e37b-11ea-8df7-54bf646e7e1f
f 14//14 15//15 17//17
f 17//17 15//15 16//16
g d9e7e086-e37b-11ea-81c4-54bf646e7e1f
f 18//18 19//19 21//21
f 21//21 19//19 20//20
g d9ea789a-e37b-11ea-b422-54bf646e7e1f
f 22//22 23//23 26//26
f 26//26 23//23 25//25
f 25//25 23//23 24//24
g d9f0ba2e-e37b-11ea-8ee6-54bf646e7e1f
f 28//28 29//29 27//27
f 27//27 29//29 30//30
g d9f48ada-e37b-11ea-8f6a-54bf646e7e1f
f 31//31 32//32 34//34
f 34//34 32//32 33//33
g d91e4f22-e37b-11ea-b9df-54bf646e7e1f
f 35//35 36//36 38//38
f 38//38 36//36 37//37
g d9204af6-e37b-11ea-a1ba-54bf646e7e1f
f 39//39 40//40 46//46
f 46//46 40//40 41//41
f 46//46 41//41 44//44
f 44//44 41//41 43//43
f 43//43 41//41 42//42
f 44//44 45//45 46//46
g d92246d0-e37b-11ea-b9a5-54bf646e7e1f
f 47//47 48//48 50//50
f 50//50 48//48 49//49
g d9241b94-e37b-11ea-9ee5-54bf646e7e1f
f 51//51 52//52 56//56
f 56//56 52//52 53//53
f 56//56 53//53 55//55
f 55//55 53//53 54//54
g d925f07a-e37b-11ea-8506-54bf646e7e1f
f 58//58 62//62 57//57
f 57//57 62//62 63//63
f 57//57 63//63 64//64
f 59//59 60//60 58//58
f 58//58 60//60 61//61
f 58//58 61//61 62//62
g d927ec66-e37b-11ea-9ac0-54bf646e7e1f
f 65//65 66//66 68//68
f 68//68 66//66 67//67

# End of file