# WaveFront *.obj file
# Vertices: 58
# Triangles : 34

v 0.5 1.5 5.703815460205078
v 0.5 1.5 0.5038153529167175
v 0.5 3.0 0.5038153529167175
v 0.5 3.0 5.703815460205078
v -2.5 0.0 5.703815460205078
v -2.5 3.0 5.703815460205078
v -2.5 3.0 0.5038153529167175
v -2.5 0.0 0.5038153529167175
v -2.5 3.0 5.703815460205078
v 0.5 3.0 5.703815460205078
v 0.5 3.0 0.5038153529167175
v -2.5 3.0 0.5038153529167175
v -2.5 3.0 0.5038153529167175
v 0.5 3.0 0.5038153529167175
v 0.5 1.5 0.5038153529167175
v 0.5 0.0 0.5038153529167175
v -2.5 0.0 0.5038153529167175
v 0.5 0.0 0.5038153529167175
v 0.5 1.5 0.5038153529167175
v 0.5 1.5 0.5
v 0.5 0.0 0.5
v 8.348958015441895 2.0 5.703815460205078
v 8.348958015441895 2.0 0.5
v 8.348958015441895 1.5 0.5
v 8.348958015441895 1.5 5.703815460205078
v 8.348958015441895 1.5 5.703815460205078
v 8.348958015441895 1.5 0.5
v 0.5 1.5 0.5
v 0.5 1.5 0.5038153529167175
v 0.5 1.5 5.703815460205078
v 8.348958015441895 2.0 0.5
v 8.348958015441895 2.0 5.703815460205078
v 10.192591667175293 2.0 5.703815460205078
v 10.192591667175293 2.0 0.5
v 8.348958015441895 2.0 5.703815460205078
v 8.348958015441895 1.5 5.703815460205078
v 0.5 1.5 5.703815460205078
v 0.5 3.0 5.703815460205078
v -2.5 3.0 5.703815460205078
v -2.5 0.0 5.703815460205078
v 10.192591667175293 0.0 5.703815460205078
v 10.192591667175293 2.0 5.703815460205078
v 8.348958015441895 1.5 0.5
v 8.348958015441895 2.0 0.5
v 10.192591667175293 2.0 0.5
v 10.192591667175293 0.0 0.5
v 0.5 0.0 0.5
v 0.5 1.5 0.5
v 10.192591667175293 0.0 5.703815460205078
v 10.192591667175293 0.0 0.5
v 10.192591667175293 2.0 0.5
v 10.192591667175293 2.0 5.703815460205078
v 10.192591667175293 0.0 5.703815460205078
v -2.5 0.0 5.703815460205078
v -2.5 0.0 0.5038153529167175
v 0.5 0.0 0.5038153529167175
v 0.5 0.0 0.5
v 10.192591667175293 0.0 0.5
vn 1.0 0.0 0.0
vn 1.0 0.0 0.0
vn 1.0 0.0 0.0
vn 1.0 0.0 0.0
vn -1.0 0.0 0.0
vn -1.0 0.0 0.0
vn -1.0 0.0 0.0
vn -1.0 0.0 0.0
vn -0.0 1.0 0.0
vn -0.0 1.0 0.0
vn -0.0 1.0 0.0
vn -0.0 1.0 0.0
vn 0.0 0.0 -1.0
vn 0.0 0.0 -1.0
vn 0.0 0.0 -1.0
vn 0.0 0.0 -1.0
vn 0.0 0.0 -1.0
vn -1.0 0.0 0.0
vn -1.0 0.0 0.0
vn -1.0 0.0 0.0
vn -1.0 0.0 0.0
vn -1.0 -0.0 -0.0
vn -1.0 -0.0 -0.0
vn -1.0 -0.0 -0.0
vn -1.0 -0.0 -0.0
vn -0.0 1.0 -0.0
vn -0.0 1.0 -0.0
vn -0.0 1.0 -0.0
vn -0.0 1.0 -0.0
vn -0.0 1.0 -0.0
vn 0.0 1.0 0.0
vn 0.0 1.0 0.0
vn 0.0 1.0 0.0
vn 0.0 1.0 0.0
vn 0.0 -0.0 1.0
vn 0.0 -0.0 1.0
vn 0.0 -0.0 1.0
vn 0.0 -0.0 1.0
vn 0.0 -0.0 1.0
vn 0.0 -0.0 1.0
vn 0.0 -0.0 1.0
vn 0.0 -0.0 1.0
vn 0.0 0.0 -1.0
vn 0.0 0.0 -1.0
vn 0.0 0.0 -1.0
vn 0.0 0.0 -1.0
vn 0.0 0.0 -1.0
vn 0.0 0.0 -1.0
vn 1.0 0.0 0.0
vn 1.0 0.0 0.0
vn 1.0 0.0 0.0
vn 1.0 0.0 0.0
vn -0.0 -1.0 -0.0
vn -0.0 -1.0 -0.0
vn -0.0 -1.0 -0.0
vn -0.0 -1.0 -0.0
vn -0.0 -1.0 -0.0
vn -0.0 -1.0 -0.0
g f05d362e-e386-11ea-9790-54bf646e7e1f
f 2//2 3//3 1//1
f 1//1 3//3 4//4
g f05dd25c-e386-11ea-bc0f-54bf646e7e1f
f 5//5 6//6 8//8
f 8//8 6//6 7//7
g f05e6e9a-e386-11ea-96b9-54bf646e7e1f
f 9//9 10//10 12//12
f 12//12 10//10 11//11
g f05f0ad4-e386-11ea-b66a-54bf646e7e1f
f 14//14 15//15 13//13
f 13//13 15//15 17//17
f 17//17 15//15 16//16
g ef647fe4-e386-11ea-a4e8-54bf646e7e1f
f 19//19 20//20 18//18
f 18//18 20//20 21//21
g efdfc9a6-e386-11ea-9dc4-54bf646e7e1f
f 22//22 23//23 25//25
f 25//25 23//23 24//24
g efe065e6-e386-11ea-8195-54bf646e7e1f
f 30//30 26//26 29//29
f 29//29 26//26 27//27
f 29//29 27//27 28//28
g ef65df24-e386-11ea-9cad-54bf646e7e1f
f 31//31 32//32 34//34
f 34//34 32//32 33//33
g ef659102-e386-11ea-a2ff-54bf646e7e1f
f 35//35 36//36 42//42
f 42//42 36//36 41//41
f 41//41 36//36 37//37
f 41//41 37//37 40//40
f 40//40 37//37 39//39
f 39//39 37//37 38//38
g ef64cdc0-e386-11ea-ab7d-54bf646e7e1f
f 44//44 45//45 43//43
f 43//43 45//45 46//46
f 43//43 46//46 47//47
f 47//47 48//48 43//43
g ef654324-e386-11ea-8b18-54bf646e7e1f
f 49//49 50//50 52//52
f 52//52 50//50 51//51
g ef665452-e386-11ea-b7f6-54bf646e7e1f
f 58//58 53//53 56//56
f 56//56 53//53 54//54
f 56//56 54//54 55//55
f 56//56 57//57 58//58

# End of file