# WaveFront *.obj file
# Vertices: 192
# Triangles : 172

v 0.5 1.2999999523162842 -0.0041000149212777615
v 0.5 1.2961074113845825 -0.05976773798465729
v 0.5 1.2845054864883423 -0.11435201019048691
v 0.5 1.2654200792312622 -0.16679047048091888
v 0.5 1.239222526550293 -0.2160625159740448
v 0.5 1.2064226865768433 -0.2612091898918152
v 0.25 1.2064226865768433 -0.2612091898918152
v 0.25 1.239222526550293 -0.2160625159740448
v 0.25 1.2654200792312622 -0.16679047048091888
v 0.25 1.2845054864883423 -0.11435201019048691
v 0.25 1.2961074113845825 -0.05976773798465729
v 0.25 1.2999999523162842 -0.0041000149212777615
v 0.5 1.2064226865768433 -0.2612091898918152
v 0.5 0.7064226865768433 -0.8571091890335083
v 0.25 0.7064226865768433 -0.8571091890335083
v 0.25 1.2064226865768433 -0.2612091898918152
v 0.5 0.7064226865768433 -0.8571091890335083
v 0.5 0.6606683135032654 -0.9034007787704468
v 0.5 0.6080121397972107 -0.941659152507782
v 0.5 0.5498483180999756 -0.9708712697029114
v 0.5 0.487716943025589 -0.9902637004852295
v 0.5 0.4232630431652069 -0.9993230104446411
v 0.5 0.35819318890571594 -0.9978092312812805
v 0.5 0.29423028230667114 -0.9857625961303711
v 0.5 0.23306787014007568 -0.9635019898414612
v 0.5 0.17632538080215454 -0.9316167831420898
v 0.5 0.1255052089691162 -0.8909512162208557
v 0.5 0.08195292204618454 -0.8425820469856262
v 0.5 0.04682168364524841 -0.7877900004386902
v 0.5 0.021041670814156532 -0.7280257344245911
v 0.5 0.005295469891279936 -0.6648716926574707
v 0.5 0.0 -0.6000000238418579
v 0.25 0.0 -0.6000000238418579
v 0.25 0.005295469891279936 -0.6648716926574707
v 0.25 0.021041670814156532 -0.7280257344245911
v 0.25 0.04682168364524841 -0.7877900004386902
v 0.25 0.08195292204618454 -0.8425820469856262
v 0.25 0.1255052089691162 -0.8909512162208557
v 0.25 0.17632538080215454 -0.9316167831420898
v 0.25 0.23306787014007568 -0.9635019898414612
v 0.25 0.29423028230667114 -0.9857625961303711
v 0.25 0.35819318890571594 -0.9978092312812805
v 0.25 0.4232630431652069 -0.9993230104446411
v 0.25 0.487716943025589 -0.9902637004852295
v 0.25 0.5498483180999756 -0.9708712697029114
v 0.25 0.6080121397972107 -0.941659152507782
v 0.25 0.6606683135032654 -0.9034007787704468
v 0.25 0.7064226865768433 -0.8571091890335083
v 0.5 1.3877787807814457e-16 1.1999999284744263
v 0.5 0.005295469891279936 1.2648717164993286
v 0.5 0.021041670814156532 1.3280256986618042
v 0.5 0.04682168364524841 1.3877899646759033
v 0.5 0.08195292204618454 1.4425820112228394
v 0.5 0.1255052089691162 1.4909511804580688
v 0.5 0.17632538080215454 1.5316166877746582
v 0.5 0.23306787014007568 1.5635019540786743
v 0.5 0.29423028230667114 1.585762619972229
v 0.5 0.35819318890571594 1.5978091955184937
v 0.5 0.4232630431652069 1.5993229150772095
v 0.5 0.487716943025589 1.5902636051177979
v 0.5 0.5498483180999756 1.5708712339401245
v 0.5 0.6080121397972107 1.5416591167449951
v 0.5 0.6606683135032654 1.5034008026123047
v 0.5 0.7064226865768433 1.4571092128753662
v 0.25 0.7064226865768433 1.4571092128753662
v 0.25 0.6606683135032654 1.5034008026123047
v 0.25 0.6080121397972107 1.5416591167449951
v 0.25 0.5498483180999756 1.5708712339401245
v 0.25 0.487716943025589 1.5902636051177979
v 0.25 0.4232630431652069 1.5993229150772095
v 0.25 0.35819318890571594 1.5978091955184937
v 0.25 0.29423028230667114 1.585762619972229
v 0.25 0.23306787014007568 1.5635019540786743
v 0.25 0.17632538080215454 1.5316166877746582
v 0.25 0.1255052089691162 1.4909511804580688
v 0.25 0.08195292204618454 1.4425820112228394
v 0.25 0.04682168364524841 1.3877899646759033
v 0.25 0.021041670814156532 1.3280256986618042
v 0.25 0.005295469891279936 1.2648717164993286
v 0.25 1.1102230246251565e-16 1.1999999284744263
v 0.5 0.7064226865768433 1.4571092128753662
v 0.5 1.2064226865768433 0.8612091541290283
v 0.25 1.2064226865768433 0.8612091541290283
v 0.25 0.7064226865768433 1.4571092128753662
v 0.5 1.2064226865768433 0.8612091541290283
v 0.5 1.239222526550293 0.8160625100135803
v 0.5 1.2654200792312622 0.7667904496192932
v 0.5 1.2845054864883423 0.7143519520759583
v 0.5 1.2961074113845825 0.6597676873207092
v 0.5 1.2999999523162842 0.6040999889373779
v 0.25 1.2999999523162842 0.6040999889373779
v 0.25 1.2961074113845825 0.6597676873207092
v 0.25 1.2845054864883423 0.7143519520759583
v 0.25 1.2654200792312622 0.7667904496192932
v 0.25 1.239222526550293 0.8160625100135803
v 0.25 1.2064226865768433 0.8612091541290283
v 0.5 1.2999999523162842 -0.0041000149212777615
v 0.25 1.2999999523162842 -0.0041000149212777615
v 0.25 1.2999999523162842 0.6040999889373779
v 0.5 1.2999999523162842 0.6040999889373779
v 0.5 0.0 -0.6000000238418579
v 0.5 0.005295469891279936 -0.6648716926574707
v 0.5 0.021041670814156532 -0.7280257344245911
v 0.5 0.04682168364524841 -0.7877900004386902
v 0.5 0.08195292204618454 -0.8425820469856262
v 0.5 0.1255052089691162 -0.8909512162208557
v 0.5 0.17632538080215454 -0.9316167831420898
v 0.5 0.23306787014007568 -0.9635019898414612
v 0.5 0.29423028230667114 -0.9857625961303711
v 0.5 0.35819318890571594 -0.9978092312812805
v 0.5 0.4232630431652069 -0.9993230104446411
v 0.5 0.487716943025589 -0.9902637004852295
v 0.5 0.5498483180999756 -0.9708712697029114
v 0.5 0.6080121397972107 -0.941659152507782
v 0.5 0.6606683135032654 -0.9034007787704468
v 0.5 0.7064226865768433 -0.8571091890335083
v 0.5 1.2064226865768433 -0.2612091898918152
v 0.5 1.239222526550293 -0.2160625159740448
v 0.5 1.2654200792312622 -0.16679047048091888
v 0.5 1.2845054864883423 -0.11435201019048691
v 0.5 1.2961074113845825 -0.05976773798465729
v 0.5 1.2999999523162842 -0.0041000149212777615
v 0.5 1.2999999523162842 0.6040999889373779
v 0.5 1.2961074113845825 0.6597676873207092
v 0.5 1.2845054864883423 0.7143519520759583
v 0.5 1.2654200792312622 0.7667904496192932
v 0.5 1.239222526550293 0.8160625100135803
v 0.5 1.2064226865768433 0.8612091541290283
v 0.5 0.7064226865768433 1.4571092128753662
v 0.5 0.6606683135032654 1.5034008026123047
v 0.5 0.6080121397972107 1.5416591167449951
v 0.5 0.5498483180999756 1.5708712339401245
v 0.5 0.487716943025589 1.5902636051177979
v 0.5 0.4232630431652069 1.5993229150772095
v 0.5 0.35819318890571594 1.5978091955184937
v 0.5 0.29423028230667114 1.585762619972229
v 0.5 0.23306787014007568 1.5635019540786743
v 0.5 0.17632538080215454 1.5316166877746582
v 0.5 0.1255052089691162 1.4909511804580688
v 0.5 0.08195292204618454 1.4425820112228394
v 0.5 0.04682168364524841 1.3877899646759033
v 0.5 0.021041670814156532 1.3280256986618042
v 0.5 0.005295469891279936 1.2648717164993286
v 0.5 1.3877787807814457e-16 1.1999999284744263
v 0.25 0.7064226865768433 -0.8571091890335083
v 0.25 0.6606683135032654 -0.9034007787704468
v 0.25 0.6080121397972107 -0.941659152507782
v 0.25 0.5498483180999756 -0.9708712697029114
v 0.25 0.487716943025589 -0.9902637004852295
v 0.25 0.4232630431652069 -0.9993230104446411
v 0.25 0.35819318890571594 -0.9978092312812805
v 0.25 0.29423028230667114 -0.9857625961303711
v 0.25 0.23306787014007568 -0.9635019898414612
v 0.25 0.17632538080215454 -0.9316167831420898
v 0.25 0.1255052089691162 -0.8909512162208557
v 0.25 0.08195292204618454 -0.8425820469856262
v 0.25 0.04682168364524841 -0.7877900004386902
v 0.25 0.021041670814156532 -0.7280257344245911
v 0.25 0.005295469891279936 -0.6648716926574707
v 0.25 0.0 -0.6000000238418579
v 0.25 1.1102230246251565e-16 1.1999999284744263
v 0.25 0.005295469891279936 1.2648717164993286
v 0.25 0.021041670814156532 1.3280256986618042
v 0.25 0.04682168364524841 1.3877899646759033
v 0.25 0.08195292204618454 1.4425820112228394
v 0.25 0.1255052089691162 1.4909511804580688
v 0.25 0.17632538080215454 1.5316166877746582
v 0.25 0.23306787014007568 1.5635019540786743
v 0.25 0.29423028230667114 1.585762619972229
v 0.25 0.35819318890571594 1.5978091955184937
v 0.25 0.4232630431652069 1.5993229150772095
v 0.25 0.487716943025589 1.5902636051177979
v 0.25 0.5498483180999756 1.5708712339401245
v 0.25 0.6080121397972107 1.5416591167449951
v 0.25 0.6606683135032654 1.5034008026123047
v 0.25 0.7064226865768433 1.4571092128753662
v 0.25 1.2064226865768433 0.8612091541290283
v 0.25 1.239222526550293 0.8160625100135803
v 0.25 1.2654200792312622 0.7667904496192932
v 0.25 1.2845054864883423 0.7143519520759583
v 0.25 1.2961074113845825 0.6597676873207092
v 0.25 1.2999999523162842 0.6040999889373779
v 0.25 1.2999999523162842 -0.0041000149212777615
v 0.25 1.2961074113845825 -0.05976773798465729
v 0.25 1.2845054864883423 -0.11435201019048691
v 0.25 1.2654200792312622 -0.16679047048091888
v 0.25 1.239222526550293 -0.2160625159740448
v 0.25 1.2064226865768433 -0.2612091898918152
v 0.25 0.0 -0.6000000238418579
v 0.5 0.0 -0.6000000238418579
v 0.5 1.3877787807814457e-16 1.1999999284744263
v 0.25 1.1102230246251565e-16 1.1999999284744263
vn 0.0 1.0 2.7755575615628914e-16
vn -0.0 0.9902685880661011 -0.13916930556297302
vn -0.0 0.9612638354301453 -0.27562999725341797
vn -0.0 0.9135501384735107 -0.4067261219024658
vn -0.0 0.8480561971664429 -0.5299062728881836
vn -0.0 0.7660567760467529 -0.642772912979126
vn -0.0 0.7660567760467529 -0.642772912979126
vn -0.0 0.8480561971664429 -0.5299062728881836
vn -0.0 0.9135501384735107 -0.4067261219024658
vn -0.0 0.9612638354301453 -0.27562999725341797
vn -0.0 0.9902685880661011 -0.13916930556297302
vn 0.0 1.0 2.7755575615628914e-16
vn -0.0 0.7660567760467529 -0.642772912979126
vn -0.0 0.7660567760467529 -0.642772912979126
vn -0.0 0.7660567760467529 -0.642772912979126
vn -0.0 0.7660567760467529 -0.642772912979126
vn -0.0 0.7660567760467529 -0.642772912979126
vn -0.0 0.6516708135604858 -0.7585019469261169
vn -0.0 0.5200303196907043 -0.8541477918624878
vn -0.0 0.37462082505226135 -0.9271780848503113
vn -0.0 0.21929234266281128 -0.975659191608429
vn -0.0 0.05815758928656578 -0.9983074069023132
vn -0.0 -0.10451702028512955 -0.9945231080055237
vn -0.0 -0.26442429423332214 -0.964406430721283
vn -0.0 -0.4173303246498108 -0.9087548851966858
vn -0.0 -0.5591865181922913 -0.8290418386459351
vn -0.0 -0.6862369775772095 -0.7273780107498169
vn -0.0 -0.7951176762580872 -0.6064551472663879
vn -0.0 -0.8829457759857178 -0.4694749414920807
vn -0.0 -0.9473958015441895 -0.3200643062591553
vn -0.0 -0.9867613315582275 -0.16217918694019318
vn -0.0 -1.0 0.0
vn -0.0 -1.0 0.0
vn -0.0 -0.9867613315582275 -0.16217918694019318
vn -0.0 -0.9473958015441895 -0.3200643062591553
vn -0.0 -0.8829457759857178 -0.4694749414920807
vn -0.0 -0.7951176762580872 -0.6064551472663879
vn -0.0 -0.6862369775772095 -0.7273780107498169
vn -0.0 -0.5591865181922913 -0.8290418386459351
vn -0.0 -0.4173303246498108 -0.9087548851966858
vn -0.0 -0.26442429423332214 -0.964406430721283
vn -0.0 -0.10451702028512955 -0.9945231080055237
vn -0.0 0.05815758928656578 -0.9983074069023132
vn -0.0 0.21929234266281128 -0.975659191608429
vn -0.0 0.37462082505226135 -0.9271780848503113
vn -0.0 0.5200303196907043 -0.8541477918624878
vn -0.0 0.6516708135604858 -0.7585019469261169
vn -0.0 0.7660567760467529 -0.642772912979126
vn -0.0 -1.0 0.0
vn -0.0 -0.9867613315582275 0.16217918694019318
vn -0.0 -0.9473958015441895 0.3200643062591553
vn -0.0 -0.8829457759857178 0.4694749414920807
vn -0.0 -0.7951176762580872 0.6064551472663879
vn -0.0 -0.6862369775772095 0.7273780107498169
vn -0.0 -0.5591865181922913 0.8290418386459351
vn -0.0 -0.4173303246498108 0.9087548851966858
vn -0.0 -0.26442429423332214 0.964406430721283
vn -0.0 -0.10451702028512955 0.9945231080055237
vn 0.0 0.05815758928656578 0.9983074069023132
vn 0.0 0.21929234266281128 0.975659191608429
vn 0.0 0.37462082505226135 0.9271780848503113
vn 0.0 0.5200303196907043 0.8541477918624878
vn 0.0 0.6516708135604858 0.7585019469261169
vn 0.0 0.7660567760467529 0.642772912979126
vn 0.0 0.7660567760467529 0.642772912979126
vn 0.0 0.6516708135604858 0.7585019469261169
vn 0.0 0.5200303196907043 0.8541477918624878
vn 0.0 0.37462082505226135 0.9271780848503113
vn 0.0 0.21929234266281128 0.975659191608429
vn 0.0 0.05815758928656578 0.9983074069023132
vn -0.0 -0.10451702028512955 0.9945231080055237
vn -0.0 -0.26442429423332214 0.964406430721283
vn -0.0 -0.4173303246498108 0.9087548851966858
vn -0.0 -0.5591865181922913 0.8290418386459351
vn -0.0 -0.6862369775772095 0.7273780107498169
vn -0.0 -0.7951176762580872 0.6064551472663879
vn -0.0 -0.8829457759857178 0.4694749414920807
vn -0.0 -0.9473958015441895 0.3200643062591553
vn -0.0 -0.9867613315582275 0.16217918694019318
vn -0.0 -1.0 0.0
vn 0.0 0.7660567760467529 0.642772912979126
vn 0.0 0.7660567760467529 0.642772912979126
vn 0.0 0.7660567760467529 0.642772912979126
vn 0.0 0.7660567760467529 0.642772912979126
vn 0.0 0.7660567760467529 0.642772912979126
vn 0.0 0.8480561971664429 0.5299062728881836
vn 0.0 0.9135501384735107 0.4067261219024658
vn 0.0 0.9612638354301453 0.27562999725341797
vn 0.0 0.9902685880661011 0.13916930556297302
vn 0.0 1.0 0.0
vn 0.0 1.0 0.0
vn 0.0 0.9902685880661011 0.13916930556297302
vn 0.0 0.9612638354301453 0.27562999725341797
vn 0.0 0.9135501384735107 0.4067261219024658
vn 0.0 0.8480561971664429 0.5299062728881836
vn 0.0 0.7660567760467529 0.642772912979126
vn 0.0 1.0 0.0
vn 0.0 1.0 0.0
vn 0.0 1.0 0.0
vn 0.0 1.0 0.0
vn 1.0 0.0 0.0
vn 1.0 0.0 0.0
vn 1.0 0.0 0.0
vn 1.0 0.0 0.0
vn 1.0 0.0 0.0
vn 1.0 0.0 0.0
vn 1.0 0.0 0.0
vn 1.0 0.0 0.0
vn 1.0 0.0 0.0
vn 1.0 0.0 0.0
vn 1.0 0.0 0.0
vn 1.0 0.0 0.0
vn 1.0 0.0 0.0
vn 1.0 0.0 0.0
vn 1.0 0.0 0.0
vn 1.0 0.0 0.0
vn 1.0 0.0 0.0
vn 1.0 0.0 0.0
vn 1.0 0.0 0.0
vn 1.0 0.0 0.0
vn 1.0 0.0 0.0
vn 1.0 0.0 0.0
vn 1.0 0.0 0.0
vn 1.0 0.0 0.0
vn 1.0 0.0 0.0
vn 1.0 0.0 0.0
vn 1.0 0.0 0.0
vn 1.0 0.0 0.0
vn 1.0 0.0 0.0
vn 1.0 0.0 0.0
vn 1.0 0.0 0.0
vn 1.0 0.0 0.0
vn 1.0 0.0 0.0
vn 1.0 0.0 0.0
vn 1.0 0.0 0.0
vn 1.0 0.0 0.0
vn 1.0 0.0 0.0
vn 1.0 0.0 0.0
vn 1.0 0.0 0.0
vn 1.0 0.0 0.0
vn 1.0 0.0 0.0
vn 1.0 0.0 0.0
vn 1.0 0.0 0.0
vn 1.0 0.0 0.0
vn -1.0 0.0 0.0
vn -1.0 0.0 0.0
vn -1.0 0.0 0.0
vn -1.0 0.0 0.0
vn -1.0 0.0 0.0
vn -1.0 0.0 0.0
vn -1.0 0.0 0.0
vn -1.0 0.0 0.0
vn -1.0 0.0 0.0
vn -1.0 0.0 0.0
vn -1.0 0.0 0.0
vn -1.0 0.0 0.0
vn -1.0 0.0 0.0
vn -1.0 0.0 0.0
vn -1.0 0.0 0.0
vn -1.0 0.0 0.0
vn -1.0 0.0 0.0
vn -1.0 0.0 0.0
vn -1.0 0.0 0.0
vn -1.0 0.0 0.0
vn -1.0 0.0 0.0
vn -1.0 0.0 0.0
vn -1.0 0.0 0.0
vn -1.0 0.0 0.0
vn -1.0 0.0 0.0
vn -1.0 0.0 0.0
vn -1.0 0.0 0.0
vn -1.0 0.0 0.0
vn -1.0 0.0 0.0
vn -1.0 0.0 0.0
vn -1.0 0.0 0.0
vn -1.0 0.0 0.0
vn -1.0 0.0 0.0
vn -1.0 0.0 0.0
vn -1.0 0.0 0.0
vn -1.0 0.0 0.0
vn -1.0 0.0 0.0
vn -1.0 0.0 0.0
vn -1.0 0.0 0.0
vn -1.0 0.0 0.0
vn -1.0 0.0 0.0
vn -1.0 0.0 0.0
vn -1.0 0.0 0.0
vn -1.0 0.0 0.0
vn -0.0 -1.0 -0.0
vn -0.0 -1.0 -0.0
vn -0.0 -1.0 -0.0
vn -0.0 -1.0 -0.0
g 623b17f6-e387-11ea-b496-54bf646e7e1f
f 12//12 1//1 11//11
f 11//11 1//1 2//2
f 11//11 2//2 10//10
f 10//10 2//2 3//3
f 10//10 3//3 9//9
f 9//9 3//3 4//4
f 9//9 4//4 8//8
f 8//8 4//4 5//5
f 8//8 5//5 7//7
f 7//7 5//5 6//6
g 623bb442-e387-11ea-92d5-54bf646e7e1f
f 13//13 14//14 16//16
f 16//16 14//14 15//15
g 623c2976-e387-11ea-bd22-54bf646e7e1f
f 48//48 17//17 47//47
f 47//47 17//17 18//18
f 47//47 18//18 46//46
f 46//46 18//18 19//19
f 46//46 19//19 45//45
f 45//45 19//19 20//20
f 45//45 20//20 44//44
f 44//44 20//20 21//21
f 44//44 21//21 43//43
f 43//43 21//21 22//22
f 43//43 22//22 42//42
f 42//42 22//22 23//23
f 42//42 23//23 41//41
f 41//41 23//23 24//24
f 41//41 24//24 40//40
f 40//40 24//24 25//25
f 40//40 25//25 39//39
f 39//39 25//25 26//26
f 39//39 26//26 38//38
f 38//38 26//26 27//27
f 38//38 27//27 37//37
f 37//37 27//27 28//28
f 37//37 28//28 36//36
f 36//36 28//28 29//29
f 36//36 29//29 35//35
f 35//35 29//29 30//30
f 35//35 30//30 34//34
f 34//34 30//30 31//31
f 34//34 31//31 33//33
f 33//33 31//31 32//32
g 623c9e92-e387-11ea-8e2a-54bf646e7e1f
f 80//80 49//49 79//79
f 79//79 49//49 50//50
f 79//79 50//50 78//78
f 78//78 50//50 51//51
f 78//78 51//51 77//77
f 77//77 51//51 52//52
f 77//77 52//52 76//76
f 76//76 52//52 53//53
f 76//76 53//53 75//75
f 75//75 53//53 54//54
f 75//75 54//54 74//74
f 74//74 54//54 55//55
f 74//74 55//55 73//73
f 73//73 55//55 56//56
f 73//73 56//56 72//72
f 72//72 56//56 57//57
f 72//72 57//57 71//71
f 71//71 57//57 58//58
f 71//71 58//58 70//70
f 70//70 58//58 59//59
f 70//70 59//59 69//69
f 69//69 59//59 60//60
f 69//69 60//60 68//68
f 68//68 60//60 61//61
f 68//68 61//61 67//67
f 67//67 61//61 62//62
f 67//67 62//62 66//66
f 66//66 62//62 63//63
f 66//66 63//63 65//65
f 65//65 63//63 64//64
g 623d13ca-e387-11ea-865a-54bf646e7e1f
f 81//81 82//82 84//84
f 84//84 82//82 83//83
g 623d88f4-e387-11ea-80e9-54bf646e7e1f
f 96//96 85//85 95//95
f 95//95 85//85 86//86
f 95//95 86//86 94//94
f 94//94 86//86 87//87
f 94//94 87//87 93//93
f 93//93 87//87 88//88
f 93//93 88//88 92//92
f 92//92 88//88 89//89
f 92//92 89//89 91//91
f 91//91 89//89 90//90
g 61c43b2c-e387-11ea-b592-54bf646e7e1f
f 98//98 99//99 97//97
f 97//97 99//99 100//100
g 61c39ee4-e387-11ea-87a7-54bf646e7e1f
f 102//102 103//103 101//101
f 101//101 103//103 104//104
f 101//101 104//104 105//105
f 105//105 106//106 101//101
f 101//101 106//106 107//107
f 101//101 107//107 108//108
f 108//108 109//109 101//101
f 101//101 109//109 110//110
f 101//101 110//110 111//111
f 111//111 112//112 101//101
f 101//101 112//112 113//113
f 101//101 113//113 114//114
f 114//114 115//115 101//101
f 101//101 115//115 116//116
f 101//101 116//116 129//129
f 129//129 116//116 128//128
f 128//128 116//116 117//117
f 128//128 117//117 123//123
f 123//123 117//117 122//122
f 122//122 117//117 118//118
f 122//122 118//118 119//119
f 119//119 120//120 122//122
f 122//122 120//120 121//121
f 124//124 125//125 123//123
f 123//123 125//125 126//126
f 123//123 126//126 127//127
f 127//127 128//128 123//123
f 101//101 129//129 144//144
f 144//144 129//129 130//130
f 144//144 130//130 131//131
f 131//131 132//132 144//144
f 144//144 132//132 133//133
f 144//144 133//133 134//134
f 134//134 135//135 144//144
f 144//144 135//135 136//136
f 144//144 136//136 137//137
f 137//137 138//138 144//144
f 144//144 138//138 139//139
f 144//144 139//139 140//140
f 140//140 141//141 144//144
f 144//144 141//141 142//142
f 144//144 142//142 143//143
g 61c302a2-e387-11ea-8532-54bf646e7e1f
f 146//146 160//160 145//145
f 145//145 160//160 161//161
f 145//145 161//161 176//176
f 176//176 161//161 175//175
f 175//175 161//161 174//174
f 174//174 161//161 173//173
f 173//173 161//161 172//172
f 172//172 161//161 171//171
f 171//171 161//161 170//170
f 170//170 161//161 169//169
f 169//169 161//161 168//168
f 168//168 161//161 167//167
f 167//167 161//161 166//166
f 166//166 161//161 165//165
f 165//165 161//161 164//164
f 164//164 161//161 163//163
f 163//163 161//161 162//162
f 146//146 147//147 160//160
f 160//160 147//147 148//148
f 160//160 148//148 149//149
f 149//149 150//150 160//160
f 160//160 150//150 151//151
f 160//160 151//151 152//152
f 152//152 153//153 160//160
f 160//160 153//153 154//154
f 160//160 154//154 155//155
f 155//155 156//156 160//160
f 160//160 156//156 157//157
f 160//160 157//157 158//158
f 158//158 159//159 160//160
f 145//145 176//176 188//188
f 188//188 176//176 177//177
f 188//188 177//177 183//183
f 183//183 177//177 182//182
f 182//182 177//177 178//178
f 182//182 178//178 179//179
f 179//179 180//180 182//182
f 182//182 180//180 181//181
f 184//184 185//185 183//183
f 183//183 185//185 186//186
f 183//183 186//186 187//187
f 187//187 188//188 183//183
g 61c4b0d8-e387-11ea-a146-54bf646e7e1f
f 189//189 190//190 192//192
f 192//192 190//190 191//191

# End of file