# WaveFront *.obj file
# Vertices: 212
# Triangles : 196

v 2.5 -8.411709498637085e-17 0.0
v 0.6000000238418579 0.0 0.0
v 0.6000000238418579 0.0 0.800000011920929
v 2.5 -8.411709498637085e-17 0.800000011920929
v -2.5 0.0 0.0
v -2.487173318862915 -0.25292080640792847 0.0
v -2.448824882507324 -0.5032463073730469 0.0
v -2.385348081588745 -0.748407781124115 0.0
v -2.2973945140838623 -0.9858896136283875 0.0
v -2.185866594314575 -1.2132549285888672 0.0
v -2.051908493041992 -1.4281705617904663 0.0
v -1.8968952894210815 -1.6284312009811401 0.0
v -1.7224173545837402 -1.8119819164276123 0.0
v -1.530264973640442 -1.97693932056427 0.0
v -1.322409987449646 -2.121610641479492 0.0
v -1.1009854078292847 -2.244511365890503 0.0
v -0.8682631254196167 -2.3443803787231445 0.0
v -0.6266313195228577 -2.4201927185058594 0.0
v -0.37856945395469666 -2.4711709022521973 0.0
v -0.12662291526794434 -2.496791362762451 0.0
v 0.12662291526794434 -2.496791362762451 0.0
v 0.37856945395469666 -2.4711709022521973 0.0
v 0.6266313195228577 -2.4201927185058594 0.0
v 0.8682631254196167 -2.3443803787231445 0.0
v 1.1009854078292847 -2.244511365890503 0.0
v 1.322409987449646 -2.121610641479492 0.0
v 1.530264973640442 -1.97693932056427 0.0
v 1.7224173545837402 -1.8119819164276123 0.0
v 1.8968952894210815 -1.6284312009811401 0.0
v 2.051908493041992 -1.4281705617904663 0.0
v 2.185866594314575 -1.2132549285888672 0.0
v 2.2973945140838623 -0.9858896136283875 0.0
v 2.385348081588745 -0.748407781124115 0.0
v 2.448824882507324 -0.5032463073730469 0.0
v 2.487173318862915 -0.25292080640792847 0.0
v 2.5 -8.411709498637085e-17 0.0
v 2.5 -8.411709498637085e-17 0.800000011920929
v 2.487173318862915 -0.25292080640792847 0.800000011920929
v 2.448824882507324 -0.5032463073730469 0.800000011920929
v 2.385348081588745 -0.748407781124115 0.800000011920929
v 2.2973945140838623 -0.9858896136283875 0.800000011920929
v 2.185866594314575 -1.2132549285888672 0.800000011920929
v 2.051908493041992 -1.4281705617904663 0.800000011920929
v 1.8968952894210815 -1.6284312009811401 0.800000011920929
v 1.7224173545837402 -1.8119819164276123 0.800000011920929
v 1.530264973640442 -1.97693932056427 0.800000011920929
v 1.322409987449646 -2.121610641479492 0.800000011920929
v 1.1009854078292847 -2.244511365890503 0.800000011920929
v 0.8682631254196167 -2.3443803787231445 0.800000011920929
v 0.6266313195228577 -2.4201927185058594 0.800000011920929
v 0.37856945395469666 -2.4711709022521973 0.800000011920929
v 0.12662291526794434 -2.496791362762451 0.800000011920929
v -0.12662291526794434 -2.496791362762451 0.800000011920929
v -0.37856945395469666 -2.4711709022521973 0.800000011920929
v -0.6266313195228577 -2.4201927185058594 0.800000011920929
v -0.8682631254196167 -2.3443803787231445 0.800000011920929
v -1.1009854078292847 -2.244511365890503 0.800000011920929
v -1.322409987449646 -2.121610641479492 0.800000011920929
v -1.530264973640442 -1.97693932056427 0.800000011920929
v -1.7224173545837402 -1.8119819164276123 0.800000011920929
v -1.8968952894210815 -1.6284312009811401 0.800000011920929
v -2.051908493041992 -1.4281705617904663 0.800000011920929
v -2.185866594314575 -1.2132549285888672 0.800000011920929
v -2.2973945140838623 -0.9858896136283875 0.800000011920929
v -2.385348081588745 -0.748407781124115 0.800000011920929
v -2.448824882507324 -0.5032463073730469 0.800000011920929
v -2.487173318862915 -0.25292080640792847 0.800000011920929
v -2.5 0.0 0.800000011920929
v -0.6000000238418579 0.0 0.0
v -2.5 0.0 0.0
v -2.5 0.0 0.800000011920929
v -0.6000000238418579 0.0 0.800000011920929
v -0.6000000238418579 1.5 0.0
v -0.6000000238418579 0.0 0.0
v -0.6000000238418579 0.0 0.800000011920929
v -0.6000000238418579 1.5 0.800000011920929
v 0.6000000238418579 1.5 0.0
v 0.5868885517120361 1.6247470378875732 0.0
v 0.548127293586731 1.7440420389175415 0.0
v 0.4854101836681366 1.8526711463928223 0.0
v 0.4014783501625061 1.9458868503570557 0.0
v 0.30000001192092896 2.0196151733398438 0.0
v 0.18541020154953003 2.070633888244629 0.0
v 0.06271708011627197 2.096713066101074 0.0
v -0.06271708011627197 2.096713066101074 0.0
v -0.18541020154953003 2.070633888244629 0.0
v -0.30000001192092896 2.0196151733398438 0.0
v -0.4014783501625061 1.9458868503570557 0.0
v -0.4854101836681366 1.8526711463928223 0.0
v -0.548127293586731 1.7440420389175415 0.0
v -0.5868885517120361 1.6247470378875732 0.0
v -0.6000000238418579 1.5 0.0
v -0.6000000238418579 1.5 0.800000011920929
v -0.5868885517120361 1.6247470378875732 0.800000011920929
v -0.548127293586731 1.7440420389175415 0.800000011920929
v -0.4854101836681366 1.8526711463928223 0.800000011920929
v -0.4014783501625061 1.9458868503570557 0.800000011920929
v -0.30000001192092896 2.0196151733398438 0.800000011920929
v -0.18541020154953003 2.070633888244629 0.800000011920929
v -0.06271708011627197 2.096713066101074 0.800000011920929
v 0.06271708011627197 2.096713066101074 0.800000011920929
v 0.18541020154953003 2.070633888244629 0.800000011920929
v 0.30000001192092896 2.0196151733398438 0.800000011920929
v 0.4014783501625061 1.9458868503570557 0.800000011920929
v 0.4854101836681366 1.8526711463928223 0.800000011920929
v 0.548127293586731 1.7440420389175415 0.800000011920929
v 0.5868885517120361 1.6247470378875732 0.800000011920929
v 0.6000000238418579 1.5 0.800000011920929
v 0.6000000238418579 0.0 0.0
v 0.6000000238418579 1.5 0.0
v 0.6000000238418579 1.5 0.800000011920929
v 0.6000000238418579 0.0 0.800000011920929
v 0.6000000238418579 0.0 0.800000011920929
v 0.6000000238418579 1.5 0.800000011920929
v 0.5868885517120361 1.6247470378875732 0.800000011920929
v 0.548127293586731 1.7440420389175415 0.800000011920929
v 0.4854101836681366 1.8526711463928223 0.800000011920929
v 0.4014783501625061 1.9458868503570557 0.800000011920929
v 0.30000001192092896 2.0196151733398438 0.800000011920929
v 0.18541020154953003 2.070633888244629 0.800000011920929
v 0.06271708011627197 2.096713066101074 0.800000011920929
v -0.06271708011627197 2.096713066101074 0.800000011920929
v -0.18541020154953003 2.070633888244629 0.800000011920929
v -0.30000001192092896 2.0196151733398438 0.800000011920929
v -0.4014783501625061 1.9458868503570557 0.800000011920929
v -0.4854101836681366 1.8526711463928223 0.800000011920929
v -0.548127293586731 1.7440420389175415 0.800000011920929
v -0.5868885517120361 1.6247470378875732 0.800000011920929
v -0.6000000238418579 1.5 0.800000011920929
v -0.6000000238418579 0.0 0.800000011920929
v -2.5 0.0 0.800000011920929
v -2.487173318862915 -0.25292080640792847 0.800000011920929
v -2.448824882507324 -0.5032463073730469 0.800000011920929
v -2.385348081588745 -0.748407781124115 0.800000011920929
v -2.2973945140838623 -0.9858896136283875 0.800000011920929
v -2.185866594314575 -1.2132549285888672 0.800000011920929
v -2.051908493041992 -1.4281705617904663 0.800000011920929
v -1.8968952894210815 -1.6284312009811401 0.800000011920929
v -1.7224173545837402 -1.8119819164276123 0.800000011920929
v -1.530264973640442 -1.97693932056427 0.800000011920929
v -1.322409987449646 -2.121610641479492 0.800000011920929
v -1.1009854078292847 -2.244511365890503 0.800000011920929
v -0.8682631254196167 -2.3443803787231445 0.800000011920929
v -0.6266313195228577 -2.4201927185058594 0.800000011920929
v -0.37856945395469666 -2.4711709022521973 0.800000011920929
v -0.12662291526794434 -2.496791362762451 0.800000011920929
v 0.12662291526794434 -2.496791362762451 0.800000011920929
v 0.37856945395469666 -2.4711709022521973 0.800000011920929
v 0.6266313195228577 -2.4201927185058594 0.800000011920929
v 0.8682631254196167 -2.3443803787231445 0.800000011920929
v 1.1009854078292847 -2.244511365890503 0.800000011920929
v 1.322409987449646 -2.121610641479492 0.800000011920929
v 1.530264973640442 -1.97693932056427 0.800000011920929
v 1.7224173545837402 -1.8119819164276123 0.800000011920929
v 1.8968952894210815 -1.6284312009811401 0.800000011920929
v 2.051908493041992 -1.4281705617904663 0.800000011920929
v 2.185866594314575 -1.2132549285888672 0.800000011920929
v 2.2973945140838623 -0.9858896136283875 0.800000011920929
v 2.385348081588745 -0.748407781124115 0.800000011920929
v 2.448824882507324 -0.5032463073730469 0.800000011920929
v 2.487173318862915 -0.25292080640792847 0.800000011920929
v 2.5 -8.411709498637085e-17 0.800000011920929
v 0.6000000238418579 1.5 0.0
v 0.6000000238418579 0.0 0.0
v 2.5 -8.411709498637085e-17 0.0
v 2.487173318862915 -0.25292080640792847 0.0
v 2.448824882507324 -0.5032463073730469 0.0
v 2.385348081588745 -0.748407781124115 0.0
v 2.2973945140838623 -0.9858896136283875 0.0
v 2.185866594314575 -1.2132549285888672 0.0
v 2.051908493041992 -1.4281705617904663 0.0
v 1.8968952894210815 -1.6284312009811401 0.0
v 1.7224173545837402 -1.8119819164276123 0.0
v 1.530264973640442 -1.97693932056427 0.0
v 1.322409987449646 -2.121610641479492 0.0
v 1.1009854078292847 -2.244511365890503 0.0
v 0.8682631254196167 -2.3443803787231445 0.0
v 0.6266313195228577 -2.4201927185058594 0.0
v 0.37856945395469666 -2.4711709022521973 0.0
v 0.12662291526794434 -2.496791362762451 0.0
v -0.12662291526794434 -2.496791362762451 0.0
v -0.37856945395469666 -2.4711709022521973 0.0
v -0.6266313195228577 -2.4201927185058594 0.0
v -0.8682631254196167 -2.3443803787231445 0.0
v -1.1009854078292847 -2.244511365890503 0.0
v -1.322409987449646 -2.121610641479492 0.0
v -1.530264973640442 -1.97693932056427 0.0
v -1.7224173545837402 -1.8119819164276123 0.0
v -1.8968952894210815 -1.6284312009811401 0.0
v -2.051908493041992 -1.4281705617904663 0.0
v -2.185866594314575 -1.2132549285888672 0.0
v -2.2973945140838623 -0.9858896136283875 0.0
v -2.385348081588745 -0.748407781124115 0.0
v -2.448824882507324 -0.5032463073730469 0.0
v -2.487173318862915 -0.25292080640792847 0.0
v -2.5 0.0 0.0
v -0.6000000238418579 0.0 0.0
v -0.6000000238418579 1.5 0.0
v -0.5868885517120361 1.6247470378875732 0.0
v -0.548127293586731 1.7440420389175415 0.0
v -0.4854101836681366 1.8526711463928223 0.0
v -0.4014783501625061 1.9458868503570557 0.0
v -0.30000001192092896 2.0196151733398438 0.0
v -0.18541020154953003 2.070633888244629 0.0
v -0.06271708011627197 2.096713066101074 0.0
v 0.06271708011627197 2.096713066101074 0.0
v 0.18541020154953003 2.070633888244629 0.0
v 0.30000001192092896 2.0196151733398438 0.0
v 0.4014783501625061 1.9458868503570557 0.0
v 0.4854101836681366 1.8526711463928223 0.0
v 0.548127293586731 1.7440420389175415 0.0
v 0.5868885517120361 1.6247470378875732 0.0
vn 0.0 1.0 0.0
vn 0.0 1.0 0.0
vn 0.0 1.0 0.0
vn 0.0 1.0 0.0
vn -1.0 1.77635686587003e-16 -0.0
vn -0.9948693513870239 -0.10116831958293915 0.0
vn -0.9795299172401428 -0.2012985199689865 0.0
vn -0.954139232635498 -0.2993631362915039 0.0
vn -0.9189578294754028 -0.3943558633327484 0.0
vn -0.8743466138839722 -0.4853019714355469 0.0
vn -0.8207634687423706 -0.5712682008743286 0.0
vn -0.7587581276893616 -0.651372492313385 0.0
vn -0.6889669299125671 -0.7247927784919739 0.0
vn -0.6121059656143188 -0.790775716304779 0.0
vn -0.5289639830589294 -0.8486442565917969 0.0
vn -0.44039416313171387 -0.8978045582771301 0.0
vn -0.3473052382469177 -0.9377521276473999 0.0
vn -0.2506525218486786 -0.9680771231651306 0.0
vn -0.15142777562141418 -0.98846834897995 0.0
vn -0.05064916983246803 -0.9987165331840515 0.0
vn 0.05064916983246803 -0.9987165331840515 -0.0
vn 0.15142777562141418 -0.98846834897995 -0.0
vn 0.2506525218486786 -0.9680771231651306 -0.0
vn 0.3473052382469177 -0.9377521276473999 -0.0
vn 0.44039416313171387 -0.8978045582771301 -0.0
vn 0.5289639830589294 -0.8486442565917969 -0.0
vn 0.6121059656143188 -0.790775716304779 -0.0
vn 0.6889669299125671 -0.7247927784919739 -0.0
vn 0.7587581276893616 -0.651372492313385 -0.0
vn 0.8207634687423706 -0.5712682008743286 -0.0
vn 0.8743466138839722 -0.4853019714355469 -0.0
vn 0.9189578294754028 -0.3943558633327484 -0.0
vn 0.954139232635498 -0.2993631362915039 -0.0
vn 0.9795299172401428 -0.2012985199689865 -0.0
vn 0.9948693513870239 -0.10116831958293915 -0.0
vn 1.0 -3.0010035861063e-16 -0.0
vn 1.0 -3.0010035861063e-16 -0.0
vn 0.9948693513870239 -0.10116831958293915 -0.0
vn 0.9795299172401428 -0.2012985199689865 -0.0
vn 0.954139232635498 -0.2993631362915039 -0.0
vn 0.9189578294754028 -0.3943558633327484 -0.0
vn 0.8743466138839722 -0.4853019714355469 -0.0
vn 0.8207634687423706 -0.5712682008743286 -0.0
vn 0.7587581276893616 -0.651372492313385 -0.0
vn 0.6889669299125671 -0.7247927784919739 -0.0
vn 0.6121059656143188 -0.790775716304779 -0.0
vn 0.5289639830589294 -0.8486442565917969 -0.0
vn 0.44039416313171387 -0.8978045582771301 -0.0
vn 0.3473052382469177 -0.9377521276473999 -0.0
vn 0.2506525218486786 -0.9680771231651306 -0.0
vn 0.15142777562141418 -0.98846834897995 -0.0
vn 0.05064916983246803 -0.9987165331840515 -0.0
vn -0.05064916983246803 -0.9987165331840515 0.0
vn -0.15142777562141418 -0.98846834897995 0.0
vn -0.2506525218486786 -0.9680771231651306 0.0
vn -0.3473052382469177 -0.9377521276473999 0.0
vn -0.44039416313171387 -0.8978045582771301 0.0
vn -0.5289639830589294 -0.8486442565917969 0.0
vn -0.6121059656143188 -0.790775716304779 0.0
vn -0.6889669299125671 -0.7247927784919739 0.0
vn -0.7587581276893616 -0.651372492313385 0.0
vn -0.8207634687423706 -0.5712682008743286 0.0
vn -0.8743466138839722 -0.4853019714355469 0.0
vn -0.9189578294754028 -0.3943558633327484 0.0
vn -0.954139232635498 -0.2993631362915039 0.0
vn -0.9795299172401428 -0.2012985199689865 0.0
vn -0.9948693513870239 -0.10116831958293915 0.0
vn -1.0 1.77635686587003e-16 -0.0
vn 0.0 1.0 0.0
vn 0.0 1.0 0.0
vn 0.0 1.0 0.0
vn 0.0 1.0 0.0
vn -1.0 0.0 0.0
vn -1.0 0.0 0.0
vn -1.0 0.0 0.0
vn -1.0 0.0 0.0
vn 1.0 -0.0 -0.0
vn 0.9781476259231567 0.2079116851091385 -0.0
vn 0.9135454297065735 0.4067366421222687 -0.0
vn 0.80901700258255 0.5877852439880371 -0.0
vn 0.6691306233406067 0.7431448101997375 -0.0
vn 0.5 0.8660253882408142 -0.0
vn 0.30901700258255005 0.9510565400123596 -0.0
vn 0.10452846437692642 0.9945219159126282 -0.0
vn -0.10452846437692642 0.9945219159126282 -0.0
vn -0.30901700258255005 0.9510565400123596 -0.0
vn -0.5 0.8660253882408142 -0.0
vn -0.6691306233406067 0.7431448101997375 -0.0
vn -0.80901700258255 0.5877852439880371 -0.0
vn -0.9135454297065735 0.4067366421222687 -0.0
vn -0.9781476259231567 0.2079116851091385 -0.0
vn -1.0 1.2246468525851679e-16 -0.0
vn -1.0 1.2246468525851679e-16 -0.0
vn -0.9781476259231567 0.2079116851091385 -0.0
vn -0.9135454297065735 0.4067366421222687 -0.0
vn -0.80901700258255 0.5877852439880371 -0.0
vn -0.6691306233406067 0.7431448101997375 -0.0
vn -0.5 0.8660253882408142 -0.0
vn -0.30901700258255005 0.9510565400123596 -0.0
vn -0.10452846437692642 0.9945219159126282 -0.0
vn 0.10452846437692642 0.9945219159126282 -0.0
vn 0.30901700258255005 0.9510565400123596 -0.0
vn 0.5 0.8660253882408142 -0.0
vn 0.6691306233406067 0.7431448101997375 -0.0
vn 0.80901700258255 0.5877852439880371 -0.0
vn 0.9135454297065735 0.4067366421222687 -0.0
vn 0.9781476259231567 0.2079116851091385 -0.0
vn 1.0 -0.0 -0.0
vn 1.0 0.0 0.0
vn 1.0 0.0 0.0
vn 1.0 0.0 0.0
vn 1.0 0.0 0.0
vn 0.0 0.0 1.0
vn 0.0 0.0 1.0
vn 0.0 0.0 1.0
vn 0.0 0.0 1.0
vn 0.0 0.0 1.0
vn 0.0 0.0 1.0
vn 0.0 0.0 1.0
vn 0.0 0.0 1.0
vn 0.0 0.0 1.0
vn 0.0 0.0 1.0
vn 0.0 0.0 1.0
vn 0.0 0.0 1.0
vn 0.0 0.0 1.0
vn 0.0 0.0 1.0
vn 0.0 0.0 1.0
vn 0.0 0.0 1.0
vn 0.0 0.0 1.0
vn 0.0 0.0 1.0
vn 0.0 0.0 1.0
vn 0.0 0.0 1.0
vn 0.0 0.0 1.0
vn 0.0 0.0 1.0
vn 0.0 0.0 1.0
vn 0.0 0.0 1.0
vn 0.0 0.0 1.0
vn 0.0 0.0 1.0
vn 0.0 0.0 1.0
vn 0.0 0.0 1.0
vn 0.0 0.0 1.0
vn 0.0 0.0 1.0
vn 0.0 0.0 1.0
vn 0.0 0.0 1.0
vn 0.0 0.0 1.0
vn 0.0 0.0 1.0
vn 0.0 0.0 1.0
vn 0.0 0.0 1.0
vn 0.0 0.0 1.0
vn 0.0 0.0 1.0
vn 0.0 0.0 1.0
vn 0.0 0.0 1.0
vn 0.0 0.0 1.0
vn 0.0 0.0 1.0
vn 0.0 0.0 1.0
vn 0.0 0.0 1.0
vn 0.0 0.0 1.0
vn 0.0 0.0 1.0
vn 0.0 0.0 1.0
vn 0.0 0.0 1.0
vn 0.0 0.0 1.0
vn 0.0 0.0 1.0
vn -0.0 -0.0 -1.0
vn -0.0 -0.0 -1.0
vn -0.0 -0.0 -1.0
vn -0.0 -0.0 -1.0
vn -0.0 -0.0 -1.0
vn -0.0 -0.0 -1.0
vn -0.0 -0.0 -1.0
vn -0.0 -0.0 -1.0
vn -0.0 -0.0 -1.0
vn -0.0 -0.0 -1.0
vn -0.0 -0.0 -1.0
vn -0.0 -0.0 -1.0
vn -0.0 -0.0 -1.0
vn -0.0 -0.0 -1.0
vn -0.0 -0.0 -1.0
vn -0.0 -0.0 -1.0
vn -0.0 -0.0 -1.0
vn -0.0 -0.0 -1.0
vn -0.0 -0.0 -1.0
vn -0.0 -0.0 -1.0
vn -0.0 -0.0 -1.0
vn -0.0 -0.0 -1.0
vn -0.0 -0.0 -1.0
vn -0.0 -0.0 -1.0
vn -0.0 -0.0 -1.0
vn -0.0 -0.0 -1.0
vn -0.0 -0.0 -1.0
vn -0.0 -0.0 -1.0
vn -0.0 -0.0 -1.0
vn -0.0 -0.0 -1.0
vn -0.0 -0.0 -1.0
vn -0.0 -0.0 -1.0
vn -0.0 -0.0 -1.0
vn -0.0 -0.0 -1.0
vn -0.0 -0.0 -1.0
vn -0.0 -0.0 -1.0
vn -0.0 -0.0 -1.0
vn -0.0 -0.0 -1.0
vn -0.0 -0.0 -1.0
vn -0.0 -0.0 -1.0
vn -0.0 -0.0 -1.0
vn -0.0 -0.0 -1.0
vn -0.0 -0.0 -1.0
vn -0.0 -0.0 -1.0
vn -0.0 -0.0 -1.0
vn -0.0 -0.0 -1.0
vn -0.0 -0.0 -1.0
vn -0.0 -0.0 -1.0
vn -0.0 -0.0 -1.0
vn -0.0 -0.0 -1.0
g 7c4195a2-e29f-11ea-82ed-54bf646e7e1f
f 1//1 2//2 4//4
f 4//4 2//2 3//3
g 7c451834-e29f-11ea-b5dd-54bf646e7e1f
f 68//68 5//5 67//67
f 67//67 5//5 6//6
f 67//67 6//6 66//66
f 66//66 6//6 7//7
f 66//66 7//7 65//65
f 65//65 7//7 8//8
f 65//65 8//8 64//64
f 64//64 8//8 9//9
f 64//64 9//9 63//63
f 63//63 9//9 10//10
f 63//63 10//10 62//62
f 62//62 10//10 11//11
f 62//62 11//11 61//61
f 61//61 11//11 12//12
f 61//61 12//12 60//60
f 60//60 12//12 13//13
f 60//60 13//13 59//59
f 59//59 13//13 14//14
f 59//59 14//14 58//58
f 58//58 14//14 15//15
f 58//58 15//15 57//57
f 57//57 15//15 16//16
f 57//57 16//16 56//56
f 56//56 16//16 17//17
f 56//56 17//17 55//55
f 55//55 17//17 18//18
f 55//55 18//18 54//54
f 54//54 18//18 19//19
f 54//54 19//19 53//53
f 53//53 19//19 20//20
f 53//53 20//20 52//52
f 52//52 20//20 21//21
f 52//52 21//21 51//51
f 51//51 21//21 22//22
f 51//51 22//22 50//50
f 50//50 22//22 23//23
f 50//50 23//23 49//49
f 49//49 23//23 24//24
f 49//49 24//24 48//48
f 48//48 24//24 25//25
f 48//48 25//25 47//47
f 47//47 25//25 26//26
f 47//47 26//26 46//46
f 46//46 26//26 27//27
f 46//46 27//27 45//45
f 45//45 27//27 28//28
f 45//45 28//28 44//44
f 44//44 28//28 29//29
f 44//44 29//29 43//43
f 43//43 29//29 30//30
f 43//43 30//30 42//42
f 42//42 30//30 31//31
f 42//42 31//31 41//41
f 41//41 31//31 32//32
f 41//41 32//32 40//40
f 40//40 32//32 33//33
f 40//40 33//33 39//39
f 39//39 33//33 34//34
f 39//39 34//34 38//38
f 38//38 34//34 35//35
f 38//38 35//35 37//37
f 37//37 35//35 36//36
g 7c489a9e-e29f-11ea-851a-54bf646e7e1f
f 69//69 70//70 72//72
f 72//72 70//70 71//71
g 7c4c1d0a-e29f-11ea-b22e-54bf646e7e1f
f 73//73 74//74 76//76
f 76//76 74//74 75//75
g 7c4fc68c-e29f-11ea-8e66-54bf646e7e1f
f 108//108 77//77 107//107
f 107//107 77//77 78//78
f 107//107 78//78 106//106
f 106//106 78//78 79//79
f 106//106 79//79 105//105
f 105//105 79//79 80//80
f 105//105 80//80 104//104
f 104//104 80//80 81//81
f 104//104 81//81 103//103
f 103//103 81//81 82//82
f 103//103 82//82 102//102
f 102//102 82//82 83//83
f 102//102 83//83 101//101
f 101//101 83//83 84//84
f 101//101 84//84 100//100
f 100//100 84//84 85//85
f 100//100 85//85 99//99
f 99//99 85//85 86//86
f 99//99 86//86 98//98
f 98//98 86//86 87//87
f 98//98 87//87 97//97
f 97//97 87//87 88//88
f 97//97 88//88 96//96
f 96//96 88//88 89//89
f 96//96 89//89 95//95
f 95//95 89//89 90//90
f 95//95 90//90 94//94
f 94//94 90//90 91//91
f 94//94 91//91 93//93
f 93//93 91//91 92//92
g 7c53be40-e29f-11ea-b0d6-54bf646e7e1f
f 109//109 110//110 112//112
f 112//112 110//110 111//111
g 7c578ebe-e29f-11ea-bedb-54bf646e7e1f
f 114//114 129//129 113//113
f 113//113 129//129 130//130
f 113//113 130//130 147//147
f 147//147 130//130 146//146
f 146//146 130//130 145//145
f 145//145 130//130 144//144
f 144//144 130//130 143//143
f 143//143 130//130 142//142
f 142//142 130//130 141//141
f 141//141 130//130 140//140
f 140//140 130//130 139//139
f 139//139 130//130 138//138
f 138//138 130//130 137//137
f 137//137 130//130 136//136
f 136//136 130//130 135//135
f 135//135 130//130 134//134
f 134//134 130//130 133//133
f 133//133 130//130 132//132
f 132//132 130//130 131//131
f 129//129 114//114 128//128
f 128//128 114//114 115//115
f 128//128 115//115 127//127
f 127//127 115//115 116//116
f 127//127 116//116 126//126
f 126//126 116//116 117//117
f 126//126 117//117 125//125
f 125//125 117//117 118//118
f 125//125 118//118 124//124
f 124//124 118//118 119//119
f 124//124 119//119 123//123
f 123//123 119//119 120//120
f 123//123 120//120 122//122
f 122//122 120//120 121//121
f 147//147 148//148 113//113
f 113//113 148//148 149//149
f 113//113 149//149 150//150
f 150//150 151//151 113//113
f 113//113 151//151 152//152
f 113//113 152//152 153//153
f 153//153 154//154 113//113
f 113//113 154//154 155//155
f 113//113 155//155 156//156
f 156//156 157//157 113//113
f 113//113 157//157 158//158
f 113//113 158//158 159//159
f 159//159 160//160 113//113
f 113//113 160//160 161//161
f 113//113 161//161 162//162
g 7c5b8670-e29f-11ea-be24-54bf646e7e1f
f 164//164 197//197 163//163
f 163//163 197//197 198//198
f 163//163 198//198 212//212
f 212//212 198//198 199//199
f 212//212 199//199 211//211
f 211//211 199//199 200//200
f 211//211 200//200 210//210
f 210//210 200//200 201//201
f 210//210 201//201 209//209
f 209//209 201//201 202//202
f 209//209 202//202 208//208
f 208//208 202//202 203//203
f 208//208 203//203 207//207
f 207//207 203//203 204//204
f 207//207 204//204 206//206
f 206//206 204//204 205//205
f 165//165 166//166 164//164
f 164//164 166//166 167//167
f 164//164 167//167 168//168
f 168//168 169//169 164//164
f 164//164 169//169 170//170
f 164//164 170//170 171//171
f 171//171 172//172 164//164
f 164//164 172//172 173//173
f 164//164 173//173 174//174
f 174//174 175//175 164//164
f 164//164 175//175 176//176
f 164//164 176//176 177//177
f 177//177 178//178 164//164
f 164//164 178//178 179//179
f 164//164 179//179 180//180
f 180//180 181//181 164//164
f 164//164 181//181 197//197
f 181//181 182//182 197//197
f 197//197 182//182 183//183
f 197//197 183//183 184//184
f 184//184 185//185 197//197
f 197//197 185//185 186//186
f 197//197 186//186 187//187
f 187//187 188//188 197//197
f 197//197 188//188 189//189
f 197//197 189//189 190//190
f 190//190 191//191 197//197
f 197//197 191//191 192//192
f 197//197 192//192 193//193
f 193//193 194//194 197//197
f 197//197 194//194 195//195
f 197//197 195//195 196//196

# End of file