# WaveFront *.obj file
# Vertices: 72
# Triangles : 44

v 0.0 0.0 0.0
v -3.9249928515155527e-17 0.0 0.640999972820282
v 0.0 0.5799999833106995 0.640999972820282
v 0.0 0.5799999833106995 0.0
v 2.6579999923706055 0.0 0.0
v 0.0 0.0 0.0
v 0.0 0.5799999833106995 0.0
v 2.6579999923706055 0.5799999833106995 0.0
v 3.497999906539917 0.0 -1.9559999704360962
v 2.6579999923706055 0.0 0.0
v 2.6579999923706055 0.5799999833106995 0.0
v 3.497999906539917 0.5799999833106995 -1.9559999704360962
v 4.584000110626221 0.0 -1.9559999704360962
v 3.497999906539917 0.0 -1.9559999704360962
v 3.497999906539917 0.5799999833106995 -1.9559999704360962
v 4.584000110626221 0.5799999833106995 -1.9559999704360962
v 4.584000110626221 0.0 4.039999961853027
v 4.584000110626221 0.0 -1.9559999704360962
v 4.584000110626221 0.5799999833106995 -1.9559999704360962
v 4.584000110626221 0.5799999833106995 4.039999961853027
v 3.680999994277954 0.0 4.039999961853027
v 4.584000110626221 0.0 4.039999961853027
v 4.584000110626221 0.5799999833106995 4.039999961853027
v 3.680999994277954 0.5799999833106995 4.039999961853027
v 3.680999994277954 0.0 3.4600000381469727
v 3.680999994277954 0.0 4.039999961853027
v 3.680999994277954 0.5799999833106995 4.039999961853027
v 3.680999994277954 0.5799999833106995 3.4600000381469727
v 3.024044470458393e-16 0.0 3.4600000381469727
v 3.680999994277954 0.0 3.4600000381469727
v 3.680999994277954 0.5799999833106995 3.4600000381469727
v 3.3306690738754696e-16 0.5799999833106995 3.4600000381469727
v -6.089514410691238e-17 0.0 1.7059999704360962
v 3.024044470458393e-16 0.0 3.4600000381469727
v 3.3306690738754696e-16 0.5799999833106995 3.4600000381469727
v -1.1102230246251565e-16 0.5799999833106995 1.7059999704360962
v -0.5799999833106995 0.0 1.7059999704360962
v -6.089514410691238e-17 0.0 1.7059999704360962
v -1.1102230246251565e-16 0.5799999833106995 1.7059999704360962
v -0.5799999833106995 0.5799999833106995 1.7059999704360962
v -0.5799999833106995 0.0 0.640999972820282
v -0.5799999833106995 0.0 1.7059999704360962
v -0.5799999833106995 0.5799999833106995 1.7059999704360962
v -0.5799999833106995 0.5799999833106995 0.640999972820282
v -3.9249928515155527e-17 0.0 0.640999972820282
v -0.5799999833106995 0.0 0.640999972820282
v -0.5799999833106995 0.5799999833106995 0.640999972820282
v 0.0 0.5799999833106995 0.640999972820282
v 0.0 0.5799999833106995 0.640999972820282
v -0.5799999833106995 0.5799999833106995 0.640999972820282
v -0.5799999833106995 0.5799999833106995 1.7059999704360962
v -1.1102230246251565e-16 0.5799999833106995 1.7059999704360962
v 3.3306690738754696e-16 0.5799999833106995 3.4600000381469727
v 3.680999994277954 0.5799999833106995 3.4600000381469727
v 3.680999994277954 0.5799999833106995 4.039999961853027
v 4.584000110626221 0.5799999833106995 4.039999961853027
v 4.584000110626221 0.5799999833106995 -1.9559999704360962
v 3.497999906539917 0.5799999833106995 -1.9559999704360962
v 2.6579999923706055 0.5799999833106995 0.0
v 0.0 0.5799999833106995 0.0
v -0.5799999833106995 0.0 0.640999972820282
v -3.9249928515155527e-17 0.0 0.640999972820282
v 0.0 0.0 0.0
v 2.6579999923706055 0.0 0.0
v 3.497999906539917 0.0 -1.9559999704360962
v 4.584000110626221 0.0 -1.9559999704360962
v 4.584000110626221 0.0 4.039999961853027
v 3.680999994277954 0.0 4.039999961853027
v 3.680999994277954 0.0 3.4600000381469727
v 3.024044470458393e-16 0.0 3.4600000381469727
v -6.089514410691238e-17 0.0 1.7059999704360962
v -0.5799999833106995 0.0 1.7059999704360962
vn -1.0 0.0 -6.123234262925839e-17
vn -1.0 0.0 -6.123234262925839e-17
vn -1.0 0.0 -6.123234262925839e-17
vn -1.0 0.0 -6.123234262925839e-17
vn 0.0 0.0 -1.0
vn 0.0 0.0 -1.0
vn 0.0 0.0 -1.0
vn 0.0 0.0 -1.0
vn -0.918853223323822 0.0 -0.3945995271205902
vn -0.918853223323822 0.0 -0.3945995271205902
vn -0.918853223323822 0.0 -0.3945995271205902
vn -0.918853223323822 0.0 -0.3945995271205902
vn -2.0446096856364048e-16 0.0 -1.0
vn -2.0446096856364048e-16 0.0 -1.0
vn -2.0446096856364048e-16 0.0 -1.0
vn -2.0446096856364048e-16 0.0 -1.0
vn 1.0 0.0 0.0
vn 1.0 0.0 0.0
vn 1.0 0.0 0.0
vn 1.0 0.0 0.0
vn 0.0 -0.0 1.0
vn 0.0 -0.0 1.0
vn 0.0 -0.0 1.0
vn 0.0 -0.0 1.0
vn -1.0 0.0 1.5313420773742218e-15
vn -1.0 0.0 1.5313420773742218e-15
vn -1.0 0.0 1.5313420773742218e-15
vn -1.0 0.0 1.5313420773742218e-15
vn 4.825745223854762e-16 -0.0 1.0
vn 4.825745223854762e-16 -0.0 1.0
vn 4.825745223854762e-16 -0.0 1.0
vn 4.825745223854762e-16 -0.0 1.0
vn -1.0 0.0 2.0712634302063335e-16
vn -1.0 0.0 2.0712634302063335e-16
vn -1.0 0.0 2.0712634302063335e-16
vn -1.0 0.0 2.0712634302063335e-16
vn -3.8283551934355545e-16 0.0 1.0
vn -3.8283551934355545e-16 0.0 1.0
vn -3.8283551934355545e-16 0.0 1.0
vn -3.8283551934355545e-16 0.0 1.0
vn -1.0 0.0 -1.0424629034738747e-16
vn -1.0 0.0 -1.0424629034738747e-16
vn -1.0 0.0 -1.0424629034738747e-16
vn -1.0 0.0 -1.0424629034738747e-16
vn 0.0 0.0 -1.0
vn 0.0 0.0 -1.0
vn 0.0 0.0 -1.0
vn 0.0 0.0 -1.0
vn 0.0 1.0 0.0
vn 0.0 1.0 0.0
vn 0.0 1.0 0.0
vn 0.0 1.0 0.0
vn 0.0 1.0 0.0
vn 0.0 1.0 0.0
vn 0.0 1.0 0.0
vn 0.0 1.0 0.0
vn 0.0 1.0 0.0
vn 0.0 1.0 0.0
vn 0.0 1.0 0.0
vn 0.0 1.0 0.0
vn -0.0 -1.0 -0.0
vn -0.0 -1.0 -0.0
vn -0.0 -1.0 -0.0
vn -0.0 -1.0 -0.0
vn -0.0 -1.0 -0.0
vn -0.0 -1.0 -0.0
vn -0.0 -1.0 -0.0
vn -0.0 -1.0 -0.0
vn -0.0 -1.0 -0.0
vn -0.0 -1.0 -0.0
vn -0.0 -1.0 -0.0
vn -0.0 -1.0 -0.0
g 84715924-e2ac-11ea-af9d-54bf646e7e1f
f 1//1 2//2 4//4
f 4//4 2//2 3//3
g 8477c2a8-e2ac-11ea-af31-54bf646e7e1f
f 5//5 6//6 8//8
f 8//8 6//6 7//7
g 847ea1c0-e2ac-11ea-8016-54bf646e7e1f
f 9//9 10//10 12//12
f 12//12 10//10 11//11
g 8487078c-e2ac-11ea-bfef-54bf646e7e1f
f 13//13 14//14 16//16
f 16//16 14//14 15//15
g 848e5bae-e2ac-11ea-9b30-54bf646e7e1f
f 17//17 18//18 20//20
f 20//20 18//18 19//19
g 84a1bfb6-e2ac-11ea-a134-54bf646e7e1f
f 21//21 22//22 24//24
f 24//24 22//22 23//23
g 84a877a6-e2ac-11ea-a8bb-54bf646e7e1f
f 25//25 26//26 28//28
f 28//28 26//26 27//27
g 84af7dd0-e2ac-11ea-b713-54bf646e7e1f
f 29//29 30//30 32//32
f 32//32 30//30 31//31
g 84b5e780-e2ac-11ea-b1d7-54bf646e7e1f
f 33//33 34//34 36//36
f 36//36 34//34 35//35
g 84bc29e4-e2ac-11ea-a730-54bf646e7e1f
f 37//37 38//38 40//40
f 40//40 38//38 39//39
g 84c293a4-e2ac-11ea-9b9e-54bf646e7e1f
f 41//41 42//42 44//44
f 44//44 42//42 43//43
g 84c999ac-e2ac-11ea-8fb1-54bf646e7e1f
f 45//45 46//46 48//48
f 48//48 46//46 47//47
g 84d1d862-e2ac-11ea-9677-54bf646e7e1f
f 50//50 51//51 49//49
f 49//49 51//51 52//52
f 49//49 52//52 59//59
f 59//59 52//52 54//54
f 59//59 54//54 57//57
f 57//57 54//54 56//56
f 56//56 54//54 55//55
f 52//52 53//53 54//54
f 57//57 58//58 59//59
f 59//59 60//60 49//49
g 84d90592-e2ac-11ea-b141-54bf646e7e1f
f 61//61 62//62 72//72
f 72//72 62//62 71//71
f 71//71 62//62 64//64
f 71//71 64//64 69//69
f 69//69 64//64 66//66
f 69//69 66//66 67//67
f 62//62 63//63 64//64
f 64//64 65//65 66//66
f 67//67 68//68 69//69
f 69//69 70//70 71//71

# End of file