# WaveFront *.obj file
# Vertices: 212
# Triangles : 204

v 0.20000000298023224 0.4699999988079071 -0.3499999940395355
v 0.2200961858034134 0.4699999988079071 -0.2750000059604645
v 0.2750000059604645 0.4699999988079071 -0.2200961858034134
v 0.3499999940395355 0.4699999988079071 -0.20000000298023224
v 0.42500001192092896 0.4699999988079071 -0.2200961858034134
v 0.47990381717681885 0.4699999988079071 -0.2750000059604645
v 0.5 0.4699999988079071 -0.3499999940395355
v 0.47990381717681885 0.4699999988079071 -0.42500001192092896
v 0.42500001192092896 0.4699999988079071 -0.47990381717681885
v 0.3499999940395355 0.4699999988079071 -0.5
v 0.2750000059604645 0.4699999988079071 -0.47990381717681885
v 0.2200961858034134 0.4699999988079071 -0.42500001192092896
v 0.20000000298023224 0.0 -0.3499999940395355
v 0.2200961858034134 0.0 -0.42500001192092896
v 0.2750000059604645 0.0 -0.47990381717681885
v 0.3499999940395355 0.0 -0.5
v 0.42500001192092896 0.0 -0.47990381717681885
v 0.47990381717681885 0.0 -0.42500001192092896
v 0.5 0.0 -0.3499999940395355
v 0.47990381717681885 0.0 -0.2750000059604645
v 0.42500001192092896 0.0 -0.2200961858034134
v 0.3499999940395355 0.0 -0.20000000298023224
v 0.2750000059604645 0.0 -0.2200961858034134
v 0.2200961858034134 0.0 -0.2750000059604645
v 0.20000000298023224 0.4699999988079071 -0.3499999940395355
v 0.20000000298023224 0.0 -0.3499999940395355
v 11.510000228881836 0.4699999988079071 -0.3499999940395355
v 11.530096054077148 0.4699999988079071 -0.2750000059604645
v 11.585000038146973 0.4699999988079071 -0.2200961858034134
v 11.65999984741211 0.4699999988079071 -0.20000000298023224
v 11.734999656677246 0.4699999988079071 -0.2200961858034134
v 11.78990364074707 0.4699999988079071 -0.2750000059604645
v 11.8100004196167 0.4699999988079071 -0.3499999940395355
v 11.78990364074707 0.4699999988079071 -0.42500001192092896
v 11.734999656677246 0.4699999988079071 -0.47990381717681885
v 11.65999984741211 0.4699999988079071 -0.5
v 11.585000038146973 0.4699999988079071 -0.47990381717681885
v 11.530096054077148 0.4699999988079071 -0.42500001192092896
v 11.510000228881836 0.0 -0.3499999940395355
v 11.530096054077148 0.0 -0.42500001192092896
v 11.585000038146973 0.0 -0.47990381717681885
v 11.65999984741211 0.0 -0.5
v 11.734999656677246 0.0 -0.47990381717681885
v 11.78990364074707 0.0 -0.42500001192092896
v 11.8100004196167 0.0 -0.3499999940395355
v 11.78990364074707 0.0 -0.2750000059604645
v 11.734999656677246 0.0 -0.2200961858034134
v 11.65999984741211 0.0 -0.20000000298023224
v 11.585000038146973 0.0 -0.2200961858034134
v 11.530096054077148 0.0 -0.2750000059604645
v 11.510000228881836 0.4699999988079071 -0.3499999940395355
v 11.510000228881836 0.0 -0.3499999940395355
v 8.119999885559082 0.4699999988079071 -0.3499999940395355
v 8.141763687133789 0.4699999988079071 -0.26170259714126587
v 8.202067375183105 0.4699999988079071 -0.1936330646276474
v 8.287097930908203 0.4699999988079071 -0.16138531267642975
v 8.377374649047852 0.4699999988079071 -0.17234691977500916
v 8.452217102050781 0.4699999988079071 -0.22400669753551483
v 8.494479179382324 0.4699999988079071 -0.3045300245285034
v 8.494479179382324 0.4699999988079071 -0.3954699635505676
v 8.452217102050781 0.4699999988079071 -0.4759933054447174
v 8.377374649047852 0.4699999988079071 -0.5276530981063843
v 8.287097930908203 0.4699999988079071 -0.5386146903038025
v 8.202067375183105 0.4699999988079071 -0.5063669085502625
v 8.141763687133789 0.4699999988079071 -0.4382973909378052
v 8.119999885559082 0.0 -0.3499999940395355
v 8.141763687133789 0.0 -0.4382973909378052
v 8.202067375183105 0.0 -0.5063669085502625
v 8.287097930908203 0.0 -0.5386146903038025
v 8.377374649047852 0.0 -0.5276530981063843
v 8.452217102050781 0.0 -0.4759933054447174
v 8.494479179382324 0.0 -0.3954699635505676
v 8.494479179382324 0.0 -0.3045300245285034
v 8.452217102050781 0.0 -0.22400669753551483
v 8.377374649047852 0.0 -0.17234691977500916
v 8.287097930908203 0.0 -0.16138531267642975
v 8.202067375183105 0.0 -0.1936330646276474
v 8.141763687133789 0.0 -0.26170259714126587
v 8.119999885559082 0.4699999988079071 -0.3499999940395355
v 8.119999885559082 0.0 -0.3499999940395355
v 12.0600004196167 0.0 -0.7496970295906067
v 1.7200000286102295 0.0 -1.2999999523162842
v 1.7200000286102295 0.4699999988079071 -1.2999999523162842
v 12.0600004196167 0.4699999988079071 -0.7496970295906067
v 12.0600004196167 0.0 0.0
v 12.0600004196167 0.0 -0.7496970295906067
v 12.0600004196167 0.4699999988079071 -0.7496970295906067
v 12.0600004196167 0.4699999988079071 0.0
v 0.3499999940395355 0.0 1.3877787807814457e-16
v 12.0600004196167 0.0 0.0
v 12.0600004196167 0.4699999988079071 0.0
v 0.3499999940395355 0.4699999988079071 1.6653345369377348e-16
v 0.22005151212215424 0.0 -0.6749821305274963
v 0.11776137351989746 0.0 -0.6118496060371399
v 0.04286399856209755 0.0 -0.5178316831588745
v 0.004193595144897699 0.0 -0.4040178656578064
v 0.006311370525509119 0.0 -0.2838325798511505
v 0.04896753281354904 0.0 -0.17145182192325592
v 0.12713074684143066 0.0 -0.08013096451759338
v 0.23158159852027893 0.0 -0.02064140886068344
v 0.3499999940395355 0.0 1.3877787807814457e-16
v 0.3499999940395355 0.4699999988079071 1.6653345369377348e-16
v 0.23158159852027893 0.4699999988079071 -0.02064140886068344
v 0.12713074684143066 0.4699999988079071 -0.08013096451759338
v 0.04896753281354904 0.4699999988079071 -0.17145182192325592
v 0.006311370525509119 0.4699999988079071 -0.2838325798511505
v 0.004193595144897699 0.4699999988079071 -0.4040178656578064
v 0.04286399856209755 0.4699999988079071 -0.5178316831588745
v 0.11776137351989746 0.4699999988079071 -0.6118496060371399
v 0.22005151212215424 0.4699999988079071 -0.6749821305274963
v 1.7200000286102295 0.0 -1.2999999523162842
v 0.22005151212215424 0.0 -0.6749821305274963
v 0.22005151212215424 0.4699999988079071 -0.6749821305274963
v 1.7200000286102295 0.4699999988079071 -1.2999999523162842
v 8.119999885559082 0.4699999988079071 -0.3499999940395355
v 8.141763687133789 0.4699999988079071 -0.4382973909378052
v 8.202067375183105 0.4699999988079071 -0.5063669085502625
v 8.287097930908203 0.4699999988079071 -0.5386146903038025
v 8.377374649047852 0.4699999988079071 -0.5276530981063843
v 8.452217102050781 0.4699999988079071 -0.4759933054447174
v 8.494479179382324 0.4699999988079071 -0.3954699635505676
v 8.494479179382324 0.4699999988079071 -0.3045300245285034
v 8.452217102050781 0.4699999988079071 -0.22400669753551483
v 8.377374649047852 0.4699999988079071 -0.17234691977500916
v 8.287097930908203 0.4699999988079071 -0.16138531267642975
v 8.202067375183105 0.4699999988079071 -0.1936330646276474
v 8.141763687133789 0.4699999988079071 -0.26170259714126587
v 11.510000228881836 0.4699999988079071 -0.3499999940395355
v 11.530096054077148 0.4699999988079071 -0.42500001192092896
v 11.585000038146973 0.4699999988079071 -0.47990381717681885
v 11.65999984741211 0.4699999988079071 -0.5
v 11.734999656677246 0.4699999988079071 -0.47990381717681885
v 11.78990364074707 0.4699999988079071 -0.42500001192092896
v 11.8100004196167 0.4699999988079071 -0.3499999940395355
v 11.78990364074707 0.4699999988079071 -0.2750000059604645
v 11.734999656677246 0.4699999988079071 -0.2200961858034134
v 11.65999984741211 0.4699999988079071 -0.20000000298023224
v 11.585000038146973 0.4699999988079071 -0.2200961858034134
v 11.530096054077148 0.4699999988079071 -0.2750000059604645
v 0.20000000298023224 0.4699999988079071 -0.3499999940395355
v 0.2200961858034134 0.4699999988079071 -0.42500001192092896
v 0.2750000059604645 0.4699999988079071 -0.47990381717681885
v 0.3499999940395355 0.4699999988079071 -0.5
v 0.42500001192092896 0.4699999988079071 -0.47990381717681885
v 0.47990381717681885 0.4699999988079071 -0.42500001192092896
v 0.5 0.4699999988079071 -0.3499999940395355
v 0.47990381717681885 0.4699999988079071 -0.2750000059604645
v 0.42500001192092896 0.4699999988079071 -0.2200961858034134
v 0.3499999940395355 0.4699999988079071 -0.20000000298023224
v 0.2750000059604645 0.4699999988079071 -0.2200961858034134
v 0.2200961858034134 0.4699999988079071 -0.2750000059604645
v 1.7200000286102295 0.4699999988079071 -1.2999999523162842
v 0.22005151212215424 0.4699999988079071 -0.6749821305274963
v 0.11776137351989746 0.4699999988079071 -0.6118496060371399
v 0.04286399856209755 0.4699999988079071 -0.5178316831588745
v 0.004193595144897699 0.4699999988079071 -0.4040178656578064
v 0.006311370525509119 0.4699999988079071 -0.2838325798511505
v 0.04896753281354904 0.4699999988079071 -0.17145182192325592
v 0.12713074684143066 0.4699999988079071 -0.08013096451759338
v 0.23158159852027893 0.4699999988079071 -0.02064140886068344
v 0.3499999940395355 0.4699999988079071 1.6653345369377348e-16
v 12.0600004196167 0.4699999988079071 0.0
v 12.0600004196167 0.4699999988079071 -0.7496970295906067
v 8.119999885559082 0.0 -0.3499999940395355
v 8.141763687133789 0.0 -0.26170259714126587
v 8.202067375183105 0.0 -0.1936330646276474
v 8.287097930908203 0.0 -0.16138531267642975
v 8.377374649047852 0.0 -0.17234691977500916
v 8.452217102050781 0.0 -0.22400669753551483
v 8.494479179382324 0.0 -0.3045300245285034
v 8.494479179382324 0.0 -0.3954699635505676
v 8.452217102050781 0.0 -0.4759933054447174
v 8.377374649047852 0.0 -0.5276530981063843
v 8.287097930908203 0.0 -0.5386146903038025
v 8.202067375183105 0.0 -0.5063669085502625
v 8.141763687133789 0.0 -0.4382973909378052
v 11.510000228881836 0.0 -0.3499999940395355
v 11.530096054077148 0.0 -0.2750000059604645
v 11.585000038146973 0.0 -0.2200961858034134
v 11.65999984741211 0.0 -0.20000000298023224
v 11.734999656677246 0.0 -0.2200961858034134
v 11.78990364074707 0.0 -0.2750000059604645
v 11.8100004196167 0.0 -0.3499999940395355
v 11.78990364074707 0.0 -0.42500001192092896
v 11.734999656677246 0.0 -0.47990381717681885
v 11.65999984741211 0.0 -0.5
v 11.585000038146973 0.0 -0.47990381717681885
v 11.530096054077148 0.0 -0.42500001192092896
v 0.20000000298023224 0.0 -0.3499999940395355
v 0.2200961858034134 0.0 -0.2750000059604645
v 0.2750000059604645 0.0 -0.2200961858034134
v 0.3499999940395355 0.0 -0.20000000298023224
v 0.42500001192092896 0.0 -0.2200961858034134
v 0.47990381717681885 0.0 -0.2750000059604645
v 0.5 0.0 -0.3499999940395355
v 0.47990381717681885 0.0 -0.42500001192092896
v 0.42500001192092896 0.0 -0.47990381717681885
v 0.3499999940395355 0.0 -0.5
v 0.2750000059604645 0.0 -0.47990381717681885
v 0.2200961858034134 0.0 -0.42500001192092896
v 0.22005151212215424 0.0 -0.6749821305274963
v 1.7200000286102295 0.0 -1.2999999523162842
v 12.0600004196167 0.0 -0.7496970295906067
v 12.0600004196167 0.0 0.0
v 0.3499999940395355 0.0 1.3877787807814457e-16
v 0.23158159852027893 0.0 -0.02064140886068344
v 0.12713074684143066 0.0 -0.08013096451759338
v 0.04896753281354904 0.0 -0.17145182192325592
v 0.006311370525509119 0.0 -0.2838325798511505
v 0.004193595144897699 0.0 -0.4040178656578064
v 0.04286399856209755 0.0 -0.5178316831588745
v 0.11776137351989746 0.0 -0.6118496060371399
vn 1.0 0.0 -1.2246468525851679e-16
vn 0.8660253882408142 0.0 -0.5
vn 0.5 0.0 -0.8660253882408142
vn -6.123234262925839e-17 0.0 -1.0
vn -0.5 0.0 -0.8660253882408142
vn -0.8660253882408142 0.0 -0.5
vn -1.0 0.0 0.0
vn -0.8660253882408142 0.0 0.5
vn -0.5 0.0 0.8660253882408142
vn -6.123234262925839e-17 0.0 1.0
vn 0.5 -0.0 0.8660253882408142
vn 0.8660253882408142 -0.0 0.5
vn 1.0 -0.0 1.2246468525851679e-16
vn 0.8660253882408142 -0.0 0.5
vn 0.5 -0.0 0.8660253882408142
vn -6.123234262925839e-17 0.0 1.0
vn -0.5 0.0 0.8660253882408142
vn -0.8660253882408142 0.0 0.5
vn -1.0 0.0 0.0
vn -0.8660253882408142 0.0 -0.5
vn -0.5 0.0 -0.8660253882408142
vn -6.123234262925839e-17 0.0 -1.0
vn 0.5 0.0 -0.8660253882408142
vn 0.8660253882408142 0.0 -0.5
vn 1.0 -0.0 1.2246468525851679e-16
vn 1.0 0.0 -1.2246468525851679e-16
vn 1.0 0.0 -1.2246468525851679e-16
vn 0.8660253882408142 0.0 -0.5
vn 0.5 0.0 -0.8660253882408142
vn -6.123234262925839e-17 0.0 -1.0
vn -0.5 0.0 -0.8660253882408142
vn -0.8660253882408142 0.0 -0.5
vn -1.0 0.0 0.0
vn -0.8660253882408142 0.0 0.5
vn -0.5 0.0 0.8660253882408142
vn -6.123234262925839e-17 0.0 1.0
vn 0.5 -0.0 0.8660253882408142
vn 0.8660253882408142 -0.0 0.5
vn 1.0 -0.0 1.2246468525851679e-16
vn 0.8660253882408142 -0.0 0.5
vn 0.5 -0.0 0.8660253882408142
vn -6.123234262925839e-17 0.0 1.0
vn -0.5 0.0 0.8660253882408142
vn -0.8660253882408142 0.0 0.5
vn -1.0 0.0 0.0
vn -0.8660253882408142 0.0 -0.5
vn -0.5 0.0 -0.8660253882408142
vn -6.123234262925839e-17 0.0 -1.0
vn 0.5 0.0 -0.8660253882408142
vn 0.8660253882408142 0.0 -0.5
vn 1.0 -0.0 1.2246468525851679e-16
vn 1.0 0.0 -1.2246468525851679e-16
vn 1.0 0.0 -1.2246468525851679e-16
vn 0.8854560256004333 0.0 -0.4647231698036194
vn 0.5680647492408752 0.0 -0.8229838609695435
vn 0.1205366775393486 0.0 -0.9927088618278503
vn -0.35460489988327026 0.0 -0.9350162148475647
vn -0.7485107779502869 0.0 -0.6631226539611816
vn -0.9709418416023254 0.0 -0.23931565880775452
vn -0.9709418416023254 0.0 0.23931565880775452
vn -0.7485107779502869 0.0 0.6631226539611816
vn -0.35460489988327026 0.0 0.9350162148475647
vn 0.1205366775393486 -0.0 0.9927088618278503
vn 0.5680647492408752 -0.0 0.8229838609695435
vn 0.8854560256004333 -0.0 0.4647231698036194
vn 1.0 -0.0 1.2246468525851679e-16
vn 0.8854560256004333 -0.0 0.4647231698036194
vn 0.5680647492408752 -0.0 0.8229838609695435
vn 0.1205366775393486 -0.0 0.9927088618278503
vn -0.35460489988327026 0.0 0.9350162148475647
vn -0.7485107779502869 0.0 0.6631226539611816
vn -0.9709418416023254 0.0 0.23931565880775452
vn -0.9709418416023254 0.0 -0.23931565880775452
vn -0.7485107779502869 0.0 -0.6631226539611816
vn -0.35460489988327026 0.0 -0.9350162148475647
vn 0.1205366775393486 0.0 -0.9927088618278503
vn 0.5680647492408752 0.0 -0.8229838609695435
vn 0.8854560256004333 0.0 -0.4647231698036194
vn 1.0 -0.0 1.2246468525851679e-16
vn 1.0 0.0 -1.2246468525851679e-16
vn 0.053145576268434525 0.0 -0.9985867738723755
vn 0.053145576268434525 0.0 -0.9985867738723755
vn 0.053145576268434525 0.0 -0.9985867738723755
vn 0.053145576268434525 0.0 -0.9985867738723755
vn 1.0 -0.0 0.0
vn 1.0 -0.0 0.0
vn 1.0 -0.0 0.0
vn 1.0 -0.0 0.0
vn 4.7404910268413714e-18 -0.0 1.0
vn 4.7404910268413714e-18 -0.0 1.0
vn 4.7404910268413714e-18 -0.0 1.0
vn 4.7404910268413714e-18 -0.0 1.0
vn -0.3712814152240753 0.0 -0.9285203814506531
vn -0.663538932800293 0.0 -0.7481417655944824
vn -0.8775314092636108 0.0 -0.4795191287994385
vn -0.988018274307251 0.0 -0.15433678030967712
vn -0.9819675087928772 -0.0 0.18904973566532135
vn -0.8600927591323853 -0.0 0.510137677192688
vn -0.6367692947387695 -0.0 0.7710543870925903
vn -0.33833831548690796 -0.0 0.9410245418548584
vn 2.3790492628545366e-16 -0.0 1.0
vn -1.1102230246251565e-15 -0.0 1.0
vn -0.33833831548690796 -0.0 0.9410245418548584
vn -0.6367692947387695 -0.0 0.7710543870925903
vn -0.8600927591323853 -0.0 0.510137677192688
vn -0.9819675087928772 -0.0 0.18904973566532135
vn -0.988018274307251 0.0 -0.15433678030967712
vn -0.8775314092636108 0.0 -0.4795191287994385
vn -0.663538932800293 0.0 -0.7481417655944824
vn -0.3712814152240753 0.0 -0.9285203814506531
vn -0.3846360146999359 0.0 -0.9230683445930481
vn -0.3846360146999359 0.0 -0.9230683445930481
vn -0.3846360146999359 0.0 -0.9230683445930481
vn -0.3846360146999359 0.0 -0.9230683445930481
vn 0.0 1.0 0.0
vn 0.0 1.0 0.0
vn 0.0 1.0 0.0
vn 0.0 1.0 0.0
vn 0.0 1.0 0.0
vn 0.0 1.0 0.0
vn 0.0 1.0 0.0
vn 0.0 1.0 0.0
vn 0.0 1.0 0.0
vn 0.0 1.0 0.0
vn 0.0 1.0 0.0
vn 0.0 1.0 0.0
vn 0.0 1.0 0.0
vn 0.0 1.0 0.0
vn 0.0 1.0 0.0
vn 0.0 1.0 0.0
vn 0.0 1.0 0.0
vn 0.0 1.0 0.0
vn 0.0 1.0 0.0
vn 0.0 1.0 0.0
vn 0.0 1.0 0.0
vn 0.0 1.0 0.0
vn 0.0 1.0 0.0
vn 0.0 1.0 0.0
vn 0.0 1.0 0.0
vn 0.0 1.0 0.0
vn 0.0 1.0 0.0
vn 0.0 1.0 0.0
vn 0.0 1.0 0.0
vn 0.0 1.0 0.0
vn 0.0 1.0 0.0
vn 0.0 1.0 0.0
vn 0.0 1.0 0.0
vn 0.0 1.0 0.0
vn 0.0 1.0 0.0
vn 0.0 1.0 0.0
vn 0.0 1.0 0.0
vn 0.0 1.0 0.0
vn 0.0 1.0 0.0
vn 0.0 1.0 0.0
vn 0.0 1.0 0.0
vn 0.0 1.0 0.0
vn 0.0 1.0 0.0
vn 0.0 1.0 0.0
vn 0.0 1.0 0.0
vn 0.0 1.0 0.0
vn 0.0 1.0 0.0
vn 0.0 1.0 0.0
vn 0.0 1.0 0.0
vn -0.0 -1.0 -0.0
vn -0.0 -1.0 -0.0
vn -0.0 -1.0 -0.0
vn -0.0 -1.0 -0.0
vn -0.0 -1.0 -0.0
vn -0.0 -1.0 -0.0
vn -0.0 -1.0 -0.0
vn -0.0 -1.0 -0.0
vn -0.0 -1.0 -0.0
vn -0.0 -1.0 -0.0
vn -0.0 -1.0 -0.0
vn -0.0 -1.0 -0.0
vn -0.0 -1.0 -0.0
vn -0.0 -1.0 -0.0
vn -0.0 -1.0 -0.0
vn -0.0 -1.0 -0.0
vn -0.0 -1.0 -0.0
vn -0.0 -1.0 -0.0
vn -0.0 -1.0 -0.0
vn -0.0 -1.0 -0.0
vn -0.0 -1.0 -0.0
vn -0.0 -1.0 -0.0
vn -0.0 -1.0 -0.0
vn -0.0 -1.0 -0.0
vn -0.0 -1.0 -0.0
vn -0.0 -1.0 -0.0
vn -0.0 -1.0 -0.0
vn -0.0 -1.0 -0.0
vn -0.0 -1.0 -0.0
vn -0.0 -1.0 -0.0
vn -0.0 -1.0 -0.0
vn -0.0 -1.0 -0.0
vn -0.0 -1.0 -0.0
vn -0.0 -1.0 -0.0
vn -0.0 -1.0 -0.0
vn -0.0 -1.0 -0.0
vn -0.0 -1.0 -0.0
vn -0.0 -1.0 -0.0
vn -0.0 -1.0 -0.0
vn -0.0 -1.0 -0.0
vn -0.0 -1.0 -0.0
vn -0.0 -1.0 -0.0
vn -0.0 -1.0 -0.0
vn -0.0 -1.0 -0.0
vn -0.0 -1.0 -0.0
vn -0.0 -1.0 -0.0
vn -0.0 -1.0 -0.0
vn -0.0 -1.0 -0.0
vn -0.0 -1.0 -0.0
g c8439e9a-e2a8-11ea-b483-54bf646e7e1f
f 2//2 24//24 1//1
f 1//1 24//24 26//26
f 25//25 13//13 12//12
f 12//12 13//13 14//14
f 12//12 14//14 11//11
f 11//11 14//14 15//15
f 11//11 15//15 10//10
f 10//10 15//15 16//16
f 10//10 16//16 9//9
f 9//9 16//16 17//17
f 9//9 17//17 8//8
f 8//8 17//17 18//18
f 8//8 18//18 7//7
f 7//7 18//18 19//19
f 7//7 19//19 6//6
f 6//6 19//19 20//20
f 6//6 20//20 5//5
f 5//5 20//20 21//21
f 5//5 21//21 4//4
f 4//4 21//21 22//22
f 4//4 22//22 3//3
f 3//3 22//22 23//23
f 3//3 23//23 2//2
f 2//2 23//23 24//24
g c84bb4cc-e2a8-11ea-8fc9-54bf646e7e1f
f 28//28 50//50 27//27
f 27//27 50//50 52//52
f 51//51 39//39 38//38
f 38//38 39//39 40//40
f 38//38 40//40 37//37
f 37//37 40//40 41//41
f 37//37 41//41 36//36
f 36//36 41//41 42//42
f 36//36 42//42 35//35
f 35//35 42//42 43//43
f 35//35 43//43 34//34
f 34//34 43//43 44//44
f 34//34 44//44 33//33
f 33//33 44//44 45//45
f 33//33 45//45 32//32
f 32//32 45//45 46//46
f 32//32 46//46 31//31
f 31//31 46//46 47//47
f 31//31 47//47 30//30
f 30//30 47//47 48//48
f 30//30 48//48 29//29
f 29//29 48//48 49//49
f 29//29 49//49 28//28
f 28//28 49//49 50//50
g c85307ee-e2a8-11ea-9217-54bf646e7e1f
f 54//54 78//78 53//53
f 53//53 78//78 80//80
f 79//79 66//66 65//65
f 65//65 66//66 67//67
f 65//65 67//67 64//64
f 64//64 67//67 68//68
f 64//64 68//68 63//63
f 63//63 68//68 69//69
f 63//63 69//69 62//62
f 62//62 69//69 70//70
f 62//62 70//70 61//61
f 61//61 70//70 71//71
f 61//61 71//71 60//60
f 60//60 71//71 72//72
f 60//60 72//72 59//59
f 59//59 72//72 73//73
f 59//59 73//73 58//58
f 58//58 73//73 74//74
f 58//58 74//74 57//57
f 57//57 74//74 75//75
f 57//57 75//75 56//56
f 56//56 75//75 76//76
f 56//56 76//76 55//55
f 55//55 76//76 77//77
f 55//55 77//77 54//54
f 54//54 77//77 78//78
g c85a5b1c-e2a8-11ea-b9ae-54bf646e7e1f
f 81//81 82//82 84//84
f 84//84 82//82 83//83
g c861ae46-e2a8-11ea-bfd6-54bf646e7e1f
f 85//85 86//86 88//88
f 88//88 86//86 87//87
g c869288c-e2a8-11ea-8e45-54bf646e7e1f
f 89//89 90//90 92//92
f 92//92 90//90 91//91
g c871180c-e2a8-11ea-856c-54bf646e7e1f
f 110//110 93//93 109//109
f 109//109 93//93 94//94
f 109//109 94//94 108//108
f 108//108 94//94 95//95
f 108//108 95//95 107//107
f 107//107 95//95 96//96
f 107//107 96//96 106//106
f 106//106 96//96 97//97
f 106//106 97//97 105//105
f 105//105 97//97 98//98
f 105//105 98//98 104//104
f 104//104 98//98 99//99
f 104//104 99//99 103//103
f 103//103 99//99 100//100
f 103//103 100//100 102//102
f 102//102 100//100 101//101
g c8789228-e2a8-11ea-b15c-54bf646e7e1f
f 111//111 112//112 114//114
f 114//114 112//112 113//113
g c8800c68-e2a8-11ea-9ffc-54bf646e7e1f
f 116//116 145//145 115//115
f 115//115 145//145 146//146
f 115//115 146//146 147//147
f 145//145 116//116 144//144
f 144//144 116//116 117//117
f 144//144 117//117 153//153
f 153//153 117//117 118//118
f 153//153 118//118 152//152
f 152//152 118//118 163//163
f 163//163 118//118 119//119
f 163//163 119//119 131//131
f 131//131 119//119 130//130
f 130//130 119//119 120//120
f 130//130 120//120 129//129
f 129//129 120//120 121//121
f 129//129 121//121 128//128
f 128//128 121//121 122//122
f 128//128 122//122 139//139
f 139//139 122//122 123//123
f 139//139 123//123 138//138
f 138//138 123//123 124//124
f 138//138 124//124 137//137
f 137//137 124//124 162//162
f 137//137 162//162 136//136
f 136//136 162//162 135//135
f 135//135 162//162 134//134
f 134//134 162//162 163//163
f 134//134 163//163 133//133
f 133//133 163//163 132//132
f 132//132 163//163 131//131
f 124//124 125//125 162//162
f 162//162 125//125 161//161
f 161//161 125//125 126//126
f 161//161 126//126 148//148
f 148//148 126//126 127//127
f 148//148 127//127 147//147
f 147//147 127//127 115//115
f 141//141 156//156 140//140
f 140//140 156//156 157//157
f 140//140 157//157 151//151
f 151//151 157//157 150//150
f 150//150 157//157 158//158
f 150//150 158//158 149//149
f 149//149 158//158 159//159
f 149//149 159//159 161//161
f 161//161 159//159 160//160
f 156//156 141//141 155//155
f 155//155 141//141 142//142
f 155//155 142//142 143//143
f 144//144 153//153 143//143
f 143//143 153//153 154//154
f 143//143 154//154 155//155
f 148//148 149//149 161//161
g c887adda-e2a8-11ea-822b-54bf646e7e1f
f 165//165 194//194 164//164
f 164//164 194//194 195//195
f 164//164 195//195 196//196
f 194//194 165//165 193//193
f 193//193 165//165 166//166
f 193//193 166//166 205//205
f 205//205 166//166 167//167
f 205//205 167//167 204//204
f 204//204 167//167 168//168
f 204//204 168//168 180//180
f 180//180 168//168 179//179
f 179//179 168//168 169//169
f 179//179 169//169 178//178
f 178//178 169//169 170//170
f 178//178 170//170 177//177
f 177//177 170//170 171//171
f 177//177 171//171 188//188
f 188//188 171//171 172//172
f 188//188 172//172 187//187
f 187//187 172//172 173//173
f 187//187 173//173 186//186
f 186//186 173//173 203//203
f 186//186 203//203 185//185
f 185//185 203//203 184//184
f 184//184 203//203 183//183
f 183//183 203//203 204//204
f 183//183 204//204 182//182
f 182//182 204//204 181//181
f 181//181 204//204 180//180
f 173//173 174//174 203//203
f 203//203 174//174 202//202
f 202//202 174//174 201//201
f 201//201 174//174 175//175
f 201//201 175//175 197//197
f 197//197 175//175 176//176
f 197//197 176//176 196//196
f 196//196 176//176 164//164
f 190//190 209//209 189//189
f 189//189 209//209 210//210
f 189//189 210//210 200//200
f 200//200 210//210 211//211
f 200//200 211//211 199//199
f 199//199 211//211 198//198
f 198//198 211//211 212//212
f 198//198 212//212 201//201
f 190//190 191//191 209//209
f 209//209 191//191 208//208
f 208//208 191//191 192//192
f 208//208 192//192 207//207
f 207//207 192//192 205//205
f 207//207 205//205 206//206
f 192//192 193//193 205//205
f 197//197 198//198 201//201

# End of file