# WaveFront *.obj file
# Vertices: 200
# Triangles : 192

v -1.5 -0.5 2.5
v -1.5 -0.3830222189426422 2.8213937282562256
v -1.5 -0.08682408928871155 2.992403984069824
v -1.5 0.25 2.9330127239227295
v -1.5 0.46984630823135376 2.6710100173950195
v -1.5 0.46984630823135376 2.3289899826049805
v -1.5 0.25 2.0669872760772705
v -1.5 -0.08682408928871155 2.007596015930176
v -1.5 -0.3830222189426422 2.1786062717437744
v -1.0 -0.5 2.5
v -1.0 -0.3830222189426422 2.1786062717437744
v -1.0 -0.08682408928871155 2.007596015930176
v -1.0 0.25 2.0669872760772705
v -1.0 0.46984630823135376 2.3289899826049805
v -1.0 0.46984630823135376 2.6710100173950195
v -1.0 0.25 2.9330127239227295
v -1.0 -0.08682408928871155 2.992403984069824
v -1.0 -0.3830222189426422 2.8213937282562256
v -1.5 -0.5 2.5
v -1.0 -0.5 2.5
v 1.0 -0.5 2.5
v 1.0 -0.3830222189426422 2.8213937282562256
v 1.0 -0.08682408928871155 2.992403984069824
v 1.0 0.25 2.9330127239227295
v 1.0 0.46984630823135376 2.6710100173950195
v 1.0 0.46984630823135376 2.3289899826049805
v 1.0 0.25 2.0669872760772705
v 1.0 -0.08682408928871155 2.007596015930176
v 1.0 -0.3830222189426422 2.1786062717437744
v 1.5 -0.5 2.5
v 1.5 -0.3830222189426422 2.1786062717437744
v 1.5 -0.08682408928871155 2.007596015930176
v 1.5 0.25 2.0669872760772705
v 1.5 0.46984630823135376 2.3289899826049805
v 1.5 0.46984630823135376 2.6710100173950195
v 1.5 0.25 2.9330127239227295
v 1.5 -0.08682408928871155 2.992403984069824
v 1.5 -0.3830222189426422 2.8213937282562256
v 1.0 -0.5 2.5
v 1.5 -0.5 2.5
v 1.0 -0.5 2.5
v 1.0 -0.3830222189426422 2.1786062717437744
v 1.0 -0.08682408928871155 2.007596015930176
v 1.0 0.25 2.0669872760772705
v 1.0 0.46984630823135376 2.3289899826049805
v 1.0 0.46984630823135376 2.6710100173950195
v 1.0 0.25 2.9330127239227295
v 1.0 -0.08682408928871155 2.992403984069824
v 1.0 -0.3830222189426422 2.8213937282562256
v 1.0 -0.5 72.5
v 1.0 -0.3830222189426422 72.17860412597656
v 1.0 -0.08682408928871155 72.00759887695312
v 1.0 0.25 72.06698608398438
v 1.0 0.46984630823135376 72.32898712158203
v 1.0 0.46984630823135376 72.67101287841797
v 1.0 0.25 72.93301391601562
v 1.0 -0.08682408928871155 72.99240112304688
v 1.0 -0.3830222189426422 72.82139587402344
v 1.0 2.0 0.0
v 1.0 -2.0 0.0
v 1.0 -2.0 75.0
v 1.0 2.0 75.0
v -1.0 -0.5 2.5
v -1.0 -0.3830222189426422 2.8213937282562256
v -1.0 -0.08682408928871155 2.992403984069824
v -1.0 0.25 2.9330127239227295
v -1.0 0.46984630823135376 2.6710100173950195
v -1.0 0.46984630823135376 2.3289899826049805
v -1.0 0.25 2.0669872760772705
v -1.0 -0.08682408928871155 2.007596015930176
v -1.0 -0.3830222189426422 2.1786062717437744
v -1.0 -0.5 72.5
v -1.0 -0.3830222189426422 72.82139587402344
v -1.0 -0.08682408928871155 72.99240112304688
v -1.0 0.25 72.93301391601562
v -1.0 0.46984630823135376 72.67101287841797
v -1.0 0.46984630823135376 72.32898712158203
v -1.0 0.25 72.06698608398438
v -1.0 -0.08682408928871155 72.00759887695312
v -1.0 -0.3830222189426422 72.17860412597656
v -1.0 -2.0 0.0
v -1.0 2.0 0.0
v -1.0 2.0 75.0
v -1.0 -2.0 75.0
v -1.5 -0.5 2.5
v -1.5 -0.3830222189426422 2.1786062717437744
v -1.5 -0.08682408928871155 2.007596015930176
v -1.5 0.25 2.0669872760772705
v -1.5 0.46984630823135376 2.3289899826049805
v -1.5 0.46984630823135376 2.6710100173950195
v -1.5 0.25 2.9330127239227295
v -1.5 -0.08682408928871155 2.992403984069824
v -1.5 -0.3830222189426422 2.8213937282562256
v -1.5 -0.5 72.5
v -1.5 -0.3830222189426422 72.17860412597656
v -1.5 -0.08682408928871155 72.00759887695312
v -1.5 0.25 72.06698608398438
v -1.5 0.46984630823135376 72.32898712158203
v -1.5 0.46984630823135376 72.67101287841797
v -1.5 0.25 72.93301391601562
v -1.5 -0.08682408928871155 72.99240112304688
v -1.5 -0.3830222189426422 72.82139587402344
v -1.5 2.5 0.0
v -1.5 -2.5 0.0
v -1.5 -2.5 75.0
v -1.5 2.5 75.0
v -1.5 -0.5 72.5
v -1.5 -0.3830222189426422 72.82139587402344
v -1.5 -0.08682408928871155 72.99240112304688
v -1.5 0.25 72.93301391601562
v -1.5 0.46984630823135376 72.67101287841797
v -1.5 0.46984630823135376 72.32898712158203
v -1.5 0.25 72.06698608398438
v -1.5 -0.08682408928871155 72.00759887695312
v -1.5 -0.3830222189426422 72.17860412597656
v -1.0 -0.5 72.5
v -1.0 -0.3830222189426422 72.17860412597656
v -1.0 -0.08682408928871155 72.00759887695312
v -1.0 0.25 72.06698608398438
v -1.0 0.46984630823135376 72.32898712158203
v -1.0 0.46984630823135376 72.67101287841797
v -1.0 0.25 72.93301391601562
v -1.0 -0.08682408928871155 72.99240112304688
v -1.0 -0.3830222189426422 72.82139587402344
v -1.5 -0.5 72.5
v -1.0 -0.5 72.5
v 1.5 2.5 0.0
v -1.5 2.5 0.0
v -1.5 2.5 75.0
v 1.5 2.5 75.0
v -1.0 -2.0 0.0
v 1.0 -2.0 0.0
v 1.0 2.0 0.0
v -1.0 2.0 0.0
v -1.5 -2.5 0.0
v -1.5 2.5 0.0
v 1.5 2.5 0.0
v 1.5 -2.5 0.0
v -1.0 2.0 0.0
v 1.0 2.0 0.0
v 1.0 2.0 75.0
v -1.0 2.0 75.0
v 1.5 -0.5 2.5
v 1.5 -0.3830222189426422 2.8213937282562256
v 1.5 -0.08682408928871155 2.992403984069824
v 1.5 0.25 2.9330127239227295
v 1.5 0.46984630823135376 2.6710100173950195
v 1.5 0.46984630823135376 2.3289899826049805
v 1.5 0.25 2.0669872760772705
v 1.5 -0.08682408928871155 2.007596015930176
v 1.5 -0.3830222189426422 2.1786062717437744
v 1.5 -0.5 72.5
v 1.5 -0.3830222189426422 72.82139587402344
v 1.5 -0.08682408928871155 72.99240112304688
v 1.5 0.25 72.93301391601562
v 1.5 0.46984630823135376 72.67101287841797
v 1.5 0.46984630823135376 72.32898712158203
v 1.5 0.25 72.06698608398438
v 1.5 -0.08682408928871155 72.00759887695312
v 1.5 -0.3830222189426422 72.17860412597656
v 1.5 -2.5 0.0
v 1.5 2.5 0.0
v 1.5 2.5 75.0
v 1.5 -2.5 75.0
v 1.0 -2.0 0.0
v -1.0 -2.0 0.0
v -1.0 -2.0 75.0
v 1.0 -2.0 75.0
v 1.0 -0.5 72.5
v 1.0 -0.3830222189426422 72.82139587402344
v 1.0 -0.08682408928871155 72.99240112304688
v 1.0 0.25 72.93301391601562
v 1.0 0.46984630823135376 72.67101287841797
v 1.0 0.46984630823135376 72.32898712158203
v 1.0 0.25 72.06698608398438
v 1.0 -0.08682408928871155 72.00759887695312
v 1.0 -0.3830222189426422 72.17860412597656
v 1.5 -0.5 72.5
v 1.5 -0.3830222189426422 72.17860412597656
v 1.5 -0.08682408928871155 72.00759887695312
v 1.5 0.25 72.06698608398438
v 1.5 0.46984630823135376 72.32898712158203
v 1.5 0.46984630823135376 72.67101287841797
v 1.5 0.25 72.93301391601562
v 1.5 -0.08682408928871155 72.99240112304688
v 1.5 -0.3830222189426422 72.82139587402344
v 1.0 -0.5 72.5
v 1.5 -0.5 72.5
v -1.5 -2.5 0.0
v 1.5 -2.5 0.0
v 1.5 -2.5 75.0
v -1.5 -2.5 75.0
v 1.0 -2.0 75.0
v -1.0 -2.0 75.0
v -1.0 2.0 75.0
v 1.0 2.0 75.0
v -1.5 2.5 75.0
v -1.5 -2.5 75.0
v 1.5 -2.5 75.0
v 1.5 2.5 75.0
vn 0.0 1.0 -1.2246468525851679e-16
vn 0.0 0.7660444378852844 -0.6427876353263855
vn 0.0 0.1736481785774231 -0.9848077297210693
vn -0.0 -0.5 -0.8660253882408142
vn -0.0 -0.9396926164627075 -0.3420201539993286
vn 0.0 -0.9396926164627075 0.3420201539993286
vn 0.0 -0.5 0.8660253882408142
vn 0.0 0.1736481785774231 0.9848077297210693
vn 0.0 0.7660444378852844 0.6427876353263855
vn 0.0 1.0 1.2246468525851679e-16
vn 0.0 0.7660444378852844 0.6427876353263855
vn 0.0 0.1736481785774231 0.9848077297210693
vn 0.0 -0.5 0.8660253882408142
vn 0.0 -0.9396926164627075 0.3420201539993286
vn -0.0 -0.9396926164627075 -0.3420201539993286
vn -0.0 -0.5 -0.8660253882408142
vn 0.0 0.1736481785774231 -0.9848077297210693
vn 0.0 0.7660444378852844 -0.6427876353263855
vn 0.0 1.0 1.2246468525851679e-16
vn 0.0 1.0 -1.2246468525851679e-16
vn 0.0 1.0 -1.2246468525851679e-16
vn 0.0 0.7660444378852844 -0.6427876353263855
vn 0.0 0.1736481785774231 -0.9848077297210693
vn -0.0 -0.5 -0.8660253882408142
vn -0.0 -0.9396926164627075 -0.3420201539993286
vn 0.0 -0.9396926164627075 0.3420201539993286
vn 0.0 -0.5 0.8660253882408142
vn 0.0 0.1736481785774231 0.9848077297210693
vn 0.0 0.7660444378852844 0.6427876353263855
vn 0.0 1.0 1.2246468525851679e-16
vn 0.0 0.7660444378852844 0.6427876353263855
vn 0.0 0.1736481785774231 0.9848077297210693
vn 0.0 -0.5 0.8660253882408142
vn 0.0 -0.9396926164627075 0.3420201539993286
vn -0.0 -0.9396926164627075 -0.3420201539993286
vn -0.0 -0.5 -0.8660253882408142
vn 0.0 0.1736481785774231 -0.9848077297210693
vn 0.0 0.7660444378852844 -0.6427876353263855
vn 0.0 1.0 1.2246468525851679e-16
vn 0.0 1.0 -1.2246468525851679e-16
vn -1.0 0.0 0.0
vn -1.0 0.0 0.0
vn -1.0 0.0 0.0
vn -1.0 0.0 0.0
vn -1.0 0.0 0.0
vn -1.0 0.0 0.0
vn -1.0 0.0 0.0
vn -1.0 0.0 0.0
vn -1.0 0.0 0.0
vn -1.0 0.0 0.0
vn -1.0 0.0 0.0
vn -1.0 0.0 0.0
vn -1.0 0.0 0.0
vn -1.0 0.0 0.0
vn -1.0 0.0 0.0
vn -1.0 0.0 0.0
vn -1.0 0.0 0.0
vn -1.0 0.0 0.0
vn -1.0 0.0 0.0
vn -1.0 0.0 0.0
vn -1.0 0.0 0.0
vn -1.0 0.0 0.0
vn 1.0 0.0 0.0
vn 1.0 0.0 0.0
vn 1.0 0.0 0.0
vn 1.0 0.0 0.0
vn 1.0 0.0 0.0
vn 1.0 0.0 0.0
vn 1.0 0.0 0.0
vn 1.0 0.0 0.0
vn 1.0 0.0 0.0
vn 1.0 0.0 0.0
vn 1.0 0.0 0.0
vn 1.0 0.0 0.0
vn 1.0 0.0 0.0
vn 1.0 0.0 0.0
vn 1.0 0.0 0.0
vn 1.0 0.0 0.0
vn 1.0 0.0 0.0
vn 1.0 0.0 0.0
vn 1.0 0.0 0.0
vn 1.0 0.0 0.0
vn 1.0 0.0 0.0
vn 1.0 0.0 0.0
vn -1.0 0.0 0.0
vn -1.0 0.0 0.0
vn -1.0 0.0 0.0
vn -1.0 0.0 0.0
vn -1.0 0.0 0.0
vn -1.0 0.0 0.0
vn -1.0 0.0 0.0
vn -1.0 0.0 0.0
vn -1.0 0.0 0.0
vn -1.0 0.0 0.0
vn -1.0 0.0 0.0
vn -1.0 0.0 0.0
vn -1.0 0.0 0.0
vn -1.0 0.0 0.0
vn -1.0 0.0 0.0
vn -1.0 0.0 0.0
vn -1.0 0.0 0.0
vn -1.0 0.0 0.0
vn -1.0 0.0 0.0
vn -1.0 0.0 0.0
vn -1.0 0.0 0.0
vn -1.0 0.0 0.0
vn 0.0 1.0 -1.2246468525851679e-16
vn 0.0 0.7660444378852844 -0.6427876353263855
vn 0.0 0.1736481785774231 -0.9848077297210693
vn -0.0 -0.5 -0.8660253882408142
vn -0.0 -0.9396926164627075 -0.3420201539993286
vn 0.0 -0.9396926164627075 0.3420201539993286
vn 0.0 -0.5 0.8660253882408142
vn 0.0 0.1736481785774231 0.9848077297210693
vn 0.0 0.7660444378852844 0.6427876353263855
vn 0.0 1.0 1.2246468525851679e-16
vn 0.0 0.7660444378852844 0.6427876353263855
vn 0.0 0.1736481785774231 0.9848077297210693
vn 0.0 -0.5 0.8660253882408142
vn 0.0 -0.9396926164627075 0.3420201539993286
vn -0.0 -0.9396926164627075 -0.3420201539993286
vn -0.0 -0.5 -0.8660253882408142
vn 0.0 0.1736481785774231 -0.9848077297210693
vn 0.0 0.7660444378852844 -0.6427876353263855
vn 0.0 1.0 1.2246468525851679e-16
vn 0.0 1.0 -1.2246468525851679e-16
vn 0.0 1.0 0.0
vn 0.0 1.0 0.0
vn 0.0 1.0 0.0
vn 0.0 1.0 0.0
vn -0.0 0.0 -1.0
vn -0.0 0.0 -1.0
vn -0.0 0.0 -1.0
vn -0.0 0.0 -1.0
vn -0.0 0.0 -1.0
vn -0.0 0.0 -1.0
vn -0.0 0.0 -1.0
vn -0.0 0.0 -1.0
vn 0.0 -1.0 0.0
vn 0.0 -1.0 0.0
vn 0.0 -1.0 0.0
vn 0.0 -1.0 0.0
vn 1.0 0.0 -0.0
vn 1.0 0.0 -0.0
vn 1.0 0.0 -0.0
vn 1.0 0.0 -0.0
vn 1.0 0.0 -0.0
vn 1.0 0.0 -0.0
vn 1.0 0.0 -0.0
vn 1.0 0.0 -0.0
vn 1.0 0.0 -0.0
vn 1.0 0.0 -0.0
vn 1.0 0.0 -0.0
vn 1.0 0.0 -0.0
vn 1.0 0.0 -0.0
vn 1.0 0.0 -0.0
vn 1.0 0.0 -0.0
vn 1.0 0.0 -0.0
vn 1.0 0.0 -0.0
vn 1.0 0.0 -0.0
vn 1.0 0.0 -0.0
vn 1.0 0.0 -0.0
vn 1.0 0.0 -0.0
vn 1.0 0.0 -0.0
vn 0.0 1.0 -0.0
vn 0.0 1.0 -0.0
vn 0.0 1.0 -0.0
vn 0.0 1.0 -0.0
vn 0.0 1.0 -1.2246468525851679e-16
vn 0.0 0.7660444378852844 -0.6427876353263855
vn 0.0 0.1736481785774231 -0.9848077297210693
vn -0.0 -0.5 -0.8660253882408142
vn -0.0 -0.9396926164627075 -0.3420201539993286
vn 0.0 -0.9396926164627075 0.3420201539993286
vn 0.0 -0.5 0.8660253882408142
vn 0.0 0.1736481785774231 0.9848077297210693
vn 0.0 0.7660444378852844 0.6427876353263855
vn 0.0 1.0 1.2246468525851679e-16
vn 0.0 0.7660444378852844 0.6427876353263855
vn 0.0 0.1736481785774231 0.9848077297210693
vn 0.0 -0.5 0.8660253882408142
vn 0.0 -0.9396926164627075 0.3420201539993286
vn -0.0 -0.9396926164627075 -0.3420201539993286
vn -0.0 -0.5 -0.8660253882408142
vn 0.0 0.1736481785774231 -0.9848077297210693
vn 0.0 0.7660444378852844 -0.6427876353263855
vn 0.0 1.0 1.2246468525851679e-16
vn 0.0 1.0 -1.2246468525851679e-16
vn 0.0 -1.0 0.0
vn 0.0 -1.0 0.0
vn 0.0 -1.0 0.0
vn 0.0 -1.0 0.0
vn 0.0 0.0 1.0
vn 0.0 0.0 1.0
vn 0.0 0.0 1.0
vn 0.0 0.0 1.0
vn 0.0 0.0 1.0
vn 0.0 0.0 1.0
vn 0.0 0.0 1.0
vn 0.0 0.0 1.0
f 2//2 18//18 1//1
f 1//1 18//18 20//20
f 19//19 10//10 9//9
f 9//9 10//10 11//11
f 9//9 11//11 8//8
f 8//8 11//11 12//12
f 8//8 12//12 7//7
f 7//7 12//12 13//13
f 7//7 13//13 6//6
f 6//6 13//13 14//14
f 6//6 14//14 5//5
f 5//5 14//14 15//15
f 5//5 15//15 4//4
f 4//4 15//15 16//16
f 4//4 16//16 3//3
f 3//3 16//16 17//17
f 3//3 17//17 2//2
f 2//2 17//17 18//18
f 22//22 38//38 21//21
f 21//21 38//38 40//40
f 39//39 30//30 29//29
f 29//29 30//30 31//31
f 29//29 31//31 28//28
f 28//28 31//31 32//32
f 28//28 32//32 27//27
f 27//27 32//32 33//33
f 27//27 33//33 26//26
f 26//26 33//33 34//34
f 26//26 34//34 25//25
f 25//25 34//34 35//35
f 25//25 35//35 24//24
f 24//24 35//35 36//36
f 24//24 36//36 23//23
f 23//23 36//36 37//37
f 23//23 37//37 22//22
f 22//22 37//37 38//38
f 42//42 60//60 41//41
f 41//41 60//60 50//50
f 41//41 50//50 49//49
f 49//49 50//50 51//51
f 49//49 51//51 52//52
f 42//42 43//43 60//60
f 60//60 43//43 59//59
f 59//59 43//43 44//44
f 59//59 44//44 45//45
f 45//45 46//46 59//59
f 59//59 46//46 54//54
f 59//59 54//54 62//62
f 62//62 54//54 55//55
f 62//62 55//55 56//56
f 54//54 46//46 53//53
f 53//53 46//46 47//47
f 53//53 47//47 52//52
f 52//52 47//47 48//48
f 52//52 48//48 49//49
f 56//56 57//57 62//62
f 62//62 57//57 61//61
f 61//61 57//57 58//58
f 61//61 58//58 50//50
f 60//60 61//61 50//50
f 64//64 72//72 63//63
f 63//63 72//72 81//81
f 63//63 81//81 71//71
f 71//71 81//81 70//70
f 70//70 81//81 82//82
f 70//70 82//82 69//69
f 69//69 82//82 68//68
f 68//68 82//82 67//67
f 67//67 82//82 77//77
f 67//67 77//77 78//78
f 65//65 79//79 64//64
f 64//64 79//79 80//80
f 64//64 80//80 72//72
f 65//65 66//66 79//79
f 79//79 66//66 78//78
f 78//78 66//66 67//67
f 81//81 72//72 84//84
f 84//84 72//72 73//73
f 84//84 73//73 74//74
f 84//84 74//74 83//83
f 83//83 74//74 75//75
f 83//83 75//75 76//76
f 76//76 77//77 83//83
f 83//83 77//77 82//82
f 86//86 104//104 85//85
f 85//85 104//104 94//94
f 85//85 94//94 93//93
f 93//93 94//94 95//95
f 93//93 95//95 96//96
f 86//86 87//87 104//104
f 104//104 87//87 103//103
f 103//103 87//87 88//88
f 103//103 88//88 89//89
f 89//89 90//90 103//103
f 103//103 90//90 98//98
f 103//103 98//98 106//106
f 106//106 98//98 99//99
f 106//106 99//99 100//100
f 98//98 90//90 97//97
f 97//97 90//90 91//91
f 97//97 91//91 96//96
f 96//96 91//91 92//92
f 96//96 92//92 93//93
f 100//100 101//101 106//106
f 106//106 101//101 105//105
f 105//105 101//101 102//102
f 105//105 102//102 94//94
f 104//104 105//105 94//94
f 108//108 124//124 107//107
f 107//107 124//124 126//126
f 125//125 116//116 115//115
f 115//115 116//116 117//117
f 115//115 117//117 114//114
f 114//114 117//117 118//118
f 114//114 118//118 113//113
f 113//113 118//118 119//119
f 113//113 119//119 112//112
f 112//112 119//119 120//120
f 112//112 120//120 111//111
f 111//111 120//120 121//121
f 111//111 121//121 110//110
f 110//110 121//121 122//122
f 110//110 122//122 109//109
f 109//109 122//122 123//123
f 109//109 123//123 108//108
f 108//108 123//123 124//124
f 127//127 128//128 130//130
f 130//130 128//128 129//129
f 134//134 131//131 135//135
f 135//135 131//131 132//132
f 135//135 132//132 138//138
f 138//138 132//132 133//133
f 138//138 133//133 137//137
f 137//137 133//133 134//134
f 137//137 134//134 136//136
f 136//136 134//134 135//135
f 139//139 140//140 142//142
f 142//142 140//140 141//141
f 144//144 152//152 143//143
f 143//143 152//152 161//161
f 143//143 161//161 151//151
f 151//151 161//161 150//150
f 150//150 161//161 162//162
f 150//150 162//162 149//149
f 149//149 162//162 148//148
f 148//148 162//162 147//147
f 147//147 162//162 157//157
f 147//147 157//157 158//158
f 145//145 159//159 144//144
f 144//144 159//159 160//160
f 144//144 160//160 152//152
f 145//145 146//146 159//159
f 159//159 146//146 158//158
f 158//158 146//146 147//147
f 161//161 152//152 164//164
f 164//164 152//152 153//153
f 164//164 153//153 154//154
f 164//164 154//154 163//163
f 163//163 154//154 155//155
f 163//163 155//155 156//156
f 156//156 157//157 163//163
f 163//163 157//157 162//162
f 165//165 166//166 168//168
f 168//168 166//166 167//167
f 170//170 186//186 169//169
f 169//169 186//186 188//188
f 187//187 178//178 177//177
f 177//177 178//178 179//179
f 177//177 179//179 176//176
f 176//176 179//179 180//180
f 176//176 180//180 175//175
f 175//175 180//180 181//181
f 175//175 181//181 174//174
f 174//174 181//181 182//182
f 174//174 182//182 173//173
f 173//173 182//182 183//183
f 173//173 183//183 172//172
f 172//172 183//183 184//184
f 172//172 184//184 171//171
f 171//171 184//184 185//185
f 171//171 185//185 170//170
f 170//170 185//185 186//186
f 189//189 190//190 192//192
f 192//192 190//190 191//191
f 196//196 193//193 199//199
f 199//199 193//193 194//194
f 199//199 194//194 198//198
f 198//198 194//194 195//195
f 198//198 195//195 197//197
f 197//197 195//195 196//196
f 197//197 196//196 200//200
f 200//200 196//196 199//199

# End of file