# WaveFront *.obj file
# Vertices: 168
# Triangles : 136

v -5.753052234649658 -0.1591641753911972 0.2275785207748413
v -5.72965669631958 -0.2234429270029068 0.2275785207748413
v -5.670417308807373 -0.2576449513435364 0.2275785207748413
v -5.603052616119385 -0.24576671421527863 0.2275785207748413
v -5.559082984924316 -0.1933661848306656 0.2275785207748413
v -5.559082984924316 -0.12496215850114822 0.2275785207748413
v -5.603052616119385 -0.07256162911653519 0.2275785207748413
v -5.670417308807373 -0.060683395713567734 0.2275785207748413
v -5.72965669631958 -0.09488540887832642 0.2275785207748413
v -5.753052234649658 -0.1591641753911972 0.7775785326957703
v -5.72965669631958 -0.09488540887832642 0.7775785326957703
v -5.670417308807373 -0.060683395713567734 0.7775785326957703
v -5.603052616119385 -0.07256162911653519 0.7775785326957703
v -5.559082984924316 -0.12496215850114822 0.7775785326957703
v -5.559082984924316 -0.1933661848306656 0.7775785326957703
v -5.603052616119385 -0.24576671421527863 0.7775785326957703
v -5.670417308807373 -0.2576449513435364 0.7775785326957703
v -5.72965669631958 -0.2234429270029068 0.7775785326957703
v -5.753052234649658 -0.1591641753911972 0.7775785326957703
v -5.753052234649658 -0.1591641753911972 0.2275785207748413
v -5.753052234649658 -0.1591641753911972 0.2275785207748413
v -5.72965669631958 -0.09488540887832642 0.2275785207748413
v -5.670417308807373 -0.060683395713567734 0.2275785207748413
v -5.603052616119385 -0.07256162911653519 0.2275785207748413
v -5.559082984924316 -0.12496215850114822 0.2275785207748413
v -5.559082984924316 -0.1933661848306656 0.2275785207748413
v -5.603052616119385 -0.24576671421527863 0.2275785207748413
v -5.670417308807373 -0.2576449513435364 0.2275785207748413
v -5.72965669631958 -0.2234429270029068 0.2275785207748413
v -5.753052234649658 -0.1591641753911972 0.7775785326957703
v -5.72965669631958 -0.2234429270029068 0.7775785326957703
v -5.670417308807373 -0.2576449513435364 0.7775785326957703
v -5.603052616119385 -0.24576671421527863 0.7775785326957703
v -5.559082984924316 -0.1933661848306656 0.7775785326957703
v -5.559082984924316 -0.12496215850114822 0.7775785326957703
v -5.603052616119385 -0.07256162911653519 0.7775785326957703
v -5.670417308807373 -0.060683395713567734 0.7775785326957703
v -5.72965669631958 -0.09488540887832642 0.7775785326957703
v -5.387387752532959 -0.3183283507823944 0.7775785326957703
v -5.918716907501221 -0.3183283507823944 0.7775785326957703
v -5.918716907501221 0.0 0.7775785326957703
v -5.387387752532959 0.0 0.7775785326957703
v -5.387387752532959 -0.3183283507823944 0.22242148220539093
v -5.387387752532959 -0.3183283507823944 0.7775785326957703
v -5.387387752532959 0.0 0.7775785326957703
v -5.387387752532959 0.0 0.22242148220539093
v -5.918716907501221 -0.3183283507823944 0.22242148220539093
v -5.387387752532959 -0.3183283507823944 0.22242148220539093
v -5.387387752532959 0.0 0.22242148220539093
v -5.918716907501221 0.0 0.22242148220539093
v -5.918716907501221 -0.3183283507823944 0.22242148220539093
v -5.918716907501221 0.0 0.22242148220539093
v -5.918716907501221 0.0 0.0
v -5.918716907501221 -0.3183283507823944 0.0
v -5.918716907501221 0.0 0.7775785326957703
v -5.918716907501221 -0.3183283507823944 0.7775785326957703
v -5.918716907501221 -0.3183283507823944 1.0
v -5.918716907501221 0.0 1.0
v -5.918716907501221 -0.3183283507823944 0.7775785326957703
v -5.387387752532959 -0.3183283507823944 0.7775785326957703
v -5.387387752532959 -0.3183283507823944 0.22242148220539093
v -5.918716907501221 -0.3183283507823944 0.22242148220539093
v -5.918716907501221 -0.3183283507823944 0.0
v -4.845016956329346 -0.3183283507823944 0.0
v -4.845016956329346 -0.3183283507823944 1.0
v -5.918716907501221 -0.3183283507823944 1.0
v 3.464054584503174 2.4704015254974365 0.0
v 2.451495885848999 2.0250349044799805 0.0
v 1.4230512380599976 1.6176921129226685 0.0
v 0.38014811277389526 1.248937964439392 0.0
v -0.6757662892341614 0.9192845225334167 0.0
v -1.7432265281677246 0.6291891932487488 0.0
v -2.820751190185547 0.37905454635620117 0.0
v -3.9068446159362793 0.16922776401042938 0.0
v -5.0 0.0 0.0
v -5.0 0.0 1.0
v -3.9068446159362793 0.16922776401042938 1.0
v -2.820751190185547 0.37905454635620117 1.0
v -1.7432265281677246 0.6291891932487488 1.0
v -0.6757662892341614 0.9192845225334167 1.0
v 0.38014811277389526 1.248937964439392 1.0
v 1.4230512380599976 1.6176921129226685 1.0
v 2.451495885848999 2.0250349044799805 1.0
v 3.464054584503174 2.4704015254974365 1.0
v 5.218006610870361 2.4704015254974365 0.0
v 3.464054584503174 2.4704015254974365 0.0
v 3.464054584503174 2.4704015254974365 1.0
v 5.218006610870361 2.4704015254974365 1.0
v 6.767330646514893 3.4348220825195312 0.0
v 5.218006610870361 2.4704015254974365 0.0
v 5.218006610870361 2.4704015254974365 1.0
v 6.767330646514893 3.4348220825195312 1.0
v 5.218006610870361 1.8270330429077148 0.0
v 6.767330646514893 3.4348220825195312 0.0
v 6.767330646514893 3.4348220825195312 1.0
v 5.218006610870361 1.8270330429077148 1.0
v 3.464054584503174 1.8270330429077148 0.0
v 5.218006610870361 1.8270330429077148 0.0
v 5.218006610870361 1.8270330429077148 1.0
v 3.464054584503174 1.8270330429077148 1.0
v -4.845016956329346 -0.3183283507823944 0.0
v -3.628876209259033 -0.14040878415107727 0.0
v -2.4198837280273438 0.08092881739139557 0.0
v -1.2195887565612793 0.34540078043937683 0.0
v -0.029529839754104614 0.6526681184768677 0.0
v 1.1487677097320557 1.002337098121643 0.0
v 2.313793659210205 1.3939592838287354 0.0
v 3.464054584503174 1.8270330429077148 0.0
v 3.464054584503174 1.8270330429077148 1.0
v 2.313793659210205 1.3939592838287354 1.0
v 1.1487677097320557 1.002337098121643 1.0
v -0.029529839754104614 0.6526681184768677 1.0
v -1.2195887565612793 0.34540078043937683 1.0
v -2.4198837280273438 0.08092881739139557 1.0
v -3.628876209259033 -0.14040878415107727 1.0
v -4.845016956329346 -0.3183283507823944 1.0
v -5.387387752532959 0.0 0.7775785326957703
v -5.918716907501221 0.0 0.7775785326957703
v -5.918716907501221 0.0 1.0
v -5.0 0.0 1.0
v -5.0 0.0 0.0
v -5.918716907501221 0.0 0.0
v -5.918716907501221 0.0 0.22242148220539093
v -5.387387752532959 0.0 0.22242148220539093
v -5.0 0.0 1.0
v -5.918716907501221 0.0 1.0
v -5.918716907501221 -0.3183283507823944 1.0
v -4.845016956329346 -0.3183283507823944 1.0
v -3.628876209259033 -0.14040878415107727 1.0
v -2.4198837280273438 0.08092881739139557 1.0
v -1.2195887565612793 0.34540078043937683 1.0
v -0.029529839754104614 0.6526681184768677 1.0
v 1.1487677097320557 1.002337098121643 1.0
v 2.313793659210205 1.3939592838287354 1.0
v 3.464054584503174 1.8270330429077148 1.0
v 5.218006610870361 1.8270330429077148 1.0
v 6.767330646514893 3.4348220825195312 1.0
v 5.218006610870361 2.4704015254974365 1.0
v 3.464054584503174 2.4704015254974365 1.0
v 2.451495885848999 2.0250349044799805 1.0
v 1.4230512380599976 1.6176921129226685 1.0
v 0.38014811277389526 1.248937964439392 1.0
v -0.6757662892341614 0.9192845225334167 1.0
v -1.7432265281677246 0.6291891932487488 1.0
v -2.820751190185547 0.37905454635620117 1.0
v -3.9068446159362793 0.16922776401042938 1.0
v -5.918716907501221 0.0 0.0
v -5.0 0.0 0.0
v -3.9068446159362793 0.16922776401042938 0.0
v -2.820751190185547 0.37905454635620117 0.0
v -1.7432265281677246 0.6291891932487488 0.0
v -0.6757662892341614 0.9192845225334167 0.0
v 0.38014811277389526 1.248937964439392 0.0
v 1.4230512380599976 1.6176921129226685 0.0
v 2.451495885848999 2.0250349044799805 0.0
v 3.464054584503174 2.4704015254974365 0.0
v 5.218006610870361 2.4704015254974365 0.0
v 6.767330646514893 3.4348220825195312 0.0
v 5.218006610870361 1.8270330429077148 0.0
v 3.464054584503174 1.8270330429077148 0.0
v 2.313793659210205 1.3939592838287354 0.0
v 1.1487677097320557 1.002337098121643 0.0
v -0.029529839754104614 0.6526681184768677 0.0
v -1.2195887565612793 0.34540078043937683 0.0
v -2.4198837280273438 0.08092881739139557 0.0
v -3.628876209259033 -0.14040878415107727 0.0
v -4.845016956329346 -0.3183283507823944 0.0
v -5.918716907501221 -0.3183283507823944 0.0
vn -1.0 -1.2246468525851679e-16 -0.0
vn -0.7660444378852844 -0.6427876353263855 -0.0
vn -0.1736481785774231 -0.9848077297210693 -0.0
vn 0.5 -0.8660253882408142 -0.0
vn 0.9396926164627075 -0.3420201539993286 -0.0
vn 0.9396926164627075 0.3420201539993286 0.0
vn 0.5 0.8660253882408142 0.0
vn -0.1736481785774231 0.9848077297210693 -0.0
vn -0.7660444378852844 0.6427876353263855 -0.0
vn -1.0 1.2246468525851679e-16 -0.0
vn -0.7660444378852844 0.6427876353263855 -0.0
vn -0.1736481785774231 0.9848077297210693 -0.0
vn 0.5 0.8660253882408142 0.0
vn 0.9396926164627075 0.3420201539993286 0.0
vn 0.9396926164627075 -0.3420201539993286 -0.0
vn 0.5 -0.8660253882408142 -0.0
vn -0.1736481785774231 -0.9848077297210693 -0.0
vn -0.7660444378852844 -0.6427876353263855 -0.0
vn -1.0 -1.2246468525851679e-16 -0.0
vn -1.0 1.2246468525851679e-16 -0.0
vn 0.0 0.0 -1.0
vn 0.0 0.0 -1.0
vn 0.0 0.0 -1.0
vn 0.0 0.0 -1.0
vn 0.0 0.0 -1.0
vn 0.0 0.0 -1.0
vn 0.0 0.0 -1.0
vn 0.0 0.0 -1.0
vn 0.0 0.0 -1.0
vn 0.0 -0.0 -1.0
vn 0.0 -0.0 -1.0
vn 0.0 -0.0 -1.0
vn 0.0 -0.0 -1.0
vn 0.0 -0.0 -1.0
vn 0.0 -0.0 -1.0
vn 0.0 -0.0 -1.0
vn 0.0 -0.0 -1.0
vn 0.0 -0.0 -1.0
vn 0.0 -0.0 -1.0
vn 0.0 -0.0 -1.0
vn 0.0 -0.0 -1.0
vn 0.0 -0.0 -1.0
vn -1.0 -0.0 -0.0
vn -1.0 -0.0 -0.0
vn -1.0 -0.0 -0.0
vn -1.0 -0.0 -0.0
vn 0.0 0.0 1.0
vn 0.0 0.0 1.0
vn 0.0 0.0 1.0
vn 0.0 0.0 1.0
vn -1.0 0.0 0.0
vn -1.0 0.0 0.0
vn -1.0 0.0 0.0
vn -1.0 0.0 0.0
vn -1.0 0.0 0.0
vn -1.0 0.0 0.0
vn -1.0 0.0 0.0
vn -1.0 0.0 0.0
vn 0.0 -1.0 0.0
vn 0.0 -1.0 0.0
vn 0.0 -1.0 0.0
vn 0.0 -1.0 0.0
vn 0.0 -1.0 0.0
vn 0.0 -1.0 0.0
vn 0.0 -1.0 0.0
vn 0.0 -1.0 0.0
vn -0.419598251581192 0.9077099561691284 0.0
vn -0.3854978382587433 0.9227087497711182 0.0
vn -0.3508624732494354 0.9364269971847534 0.0
vn -0.3157401382923126 0.9488456845283508 0.0
vn -0.2801796495914459 0.9599475860595703 0.0
vn -0.24423032999038696 0.969717264175415 0.0
vn -0.20794205367565155 0.9781411290168762 0.0
vn -0.17136520147323608 0.9852075576782227 0.0
vn -0.1345505267381668 0.9909067153930664 0.0
vn -0.1345505267381668 0.9909067153930664 0.0
vn -0.17136520147323608 0.9852075576782227 0.0
vn -0.20794205367565155 0.9781411290168762 0.0
vn -0.24423032999038696 0.969717264175415 0.0
vn -0.2801796495914459 0.9599475860595703 0.0
vn -0.3157401382923126 0.9488456845283508 0.0
vn -0.3508624732494354 0.9364269971847534 0.0
vn -0.3854978382587433 0.9227087497711182 0.0
vn -0.419598251581192 0.9077099561691284 0.0
vn 0.0 1.0 0.0
vn 0.0 1.0 0.0
vn 0.0 1.0 0.0
vn 0.0 1.0 0.0
vn -0.5284586548805237 0.8489590287208557 0.0
vn -0.5284586548805237 0.8489590287208557 0.0
vn -0.5284586548805237 0.8489590287208557 0.0
vn -0.5284586548805237 0.8489590287208557 0.0
vn 0.7200778722763062 -0.6938932538032532 0.0
vn 0.7200778722763062 -0.6938932538032532 0.0
vn 0.7200778722763062 -0.6938932538032532 0.0
vn 0.7200778722763062 -0.6938932538032532 0.0
vn 0.0 -1.0 0.0
vn 0.0 -1.0 0.0
vn 0.0 -1.0 0.0
vn 0.0 -1.0 0.0
vn 0.1270224153995514 -0.991899847984314 -0.0
vn 0.16244632005691528 -0.9867174029350281 -0.0
vn 0.19766202569007874 -0.9802702069282532 -0.0
vn 0.2326243817806244 -0.9725666642189026 -0.0
vn 0.26728859543800354 -0.9636165499687195 -0.0
vn 0.30161020159721375 -0.9534313082695007 -0.0
vn 0.33554524183273315 -0.9420241117477417 -0.0
vn 0.36905020475387573 -0.9294094443321228 -0.0
vn 0.36905020475387573 -0.9294094443321228 -0.0
vn 0.33554524183273315 -0.9420241117477417 -0.0
vn 0.30161020159721375 -0.9534313082695007 -0.0
vn 0.26728859543800354 -0.9636165499687195 -0.0
vn 0.2326243817806244 -0.9725666642189026 -0.0
vn 0.19766202569007874 -0.9802702069282532 -0.0
vn 0.16244632005691528 -0.9867174029350281 -0.0
vn 0.1270224153995514 -0.991899847984314 -0.0
vn 0.0 1.0 -0.0
vn 0.0 1.0 -0.0
vn 0.0 1.0 -0.0
vn 0.0 1.0 -0.0
vn 0.0 1.0 -0.0
vn 0.0 1.0 -0.0
vn 0.0 1.0 -0.0
vn 0.0 1.0 -0.0
vn 0.0 0.0 1.0
vn 0.0 0.0 1.0
vn 0.0 0.0 1.0
vn 0.0 0.0 1.0
vn 0.0 0.0 1.0
vn 0.0 0.0 1.0
vn 0.0 0.0 1.0
vn 0.0 0.0 1.0
vn 0.0 0.0 1.0
vn 0.0 0.0 1.0
vn 0.0 0.0 1.0
vn 0.0 0.0 1.0
vn 0.0 0.0 1.0
vn 0.0 0.0 1.0
vn 0.0 0.0 1.0
vn 0.0 0.0 1.0
vn 0.0 0.0 1.0
vn 0.0 0.0 1.0
vn 0.0 0.0 1.0
vn 0.0 0.0 1.0
vn 0.0 0.0 1.0
vn 0.0 0.0 1.0
vn 0.0 -0.0 -1.0
vn 0.0 -0.0 -1.0
vn 0.0 -0.0 -1.0
vn 0.0 -0.0 -1.0
vn 0.0 -0.0 -1.0
vn 0.0 -0.0 -1.0
vn 0.0 -0.0 -1.0
vn 0.0 -0.0 -1.0
vn 0.0 -0.0 -1.0
vn 0.0 -0.0 -1.0
vn 0.0 -0.0 -1.0
vn 0.0 -0.0 -1.0
vn 0.0 -0.0 -1.0
vn 0.0 -0.0 -1.0
vn 0.0 -0.0 -1.0
vn 0.0 -0.0 -1.0
vn 0.0 -0.0 -1.0
vn 0.0 -0.0 -1.0
vn 0.0 -0.0 -1.0
vn 0.0 -0.0 -1.0
vn 0.0 -0.0 -1.0
vn 0.0 -0.0 -1.0
g abd8e952-e2af-11ea-adf5-54bf646e7e1f
f 2//2 18//18 1//1
f 1//1 18//18 19//19
f 20//20 10//10 9//9
f 9//9 10//10 11//11
f 9//9 11//11 8//8
f 8//8 11//11 12//12
f 8//8 12//12 7//7
f 7//7 12//12 13//13
f 7//7 13//13 6//6
f 6//6 13//13 14//14
f 6//6 14//14 5//5
f 5//5 14//14 15//15
f 5//5 15//15 4//4
f 4//4 15//15 16//16
f 4//4 16//16 3//3
f 3//3 16//16 17//17
f 3//3 17//17 2//2
f 2//2 17//17 18//18
g abd98590-e2af-11ea-86a2-54bf646e7e1f
f 22//22 25//25 21//21
f 21//21 25//25 26//26
f 21//21 26//26 29//29
f 29//29 26//26 27//27
f 29//29 27//27 28//28
f 23//23 24//24 22//22
f 22//22 24//24 25//25
g abacd0e8-e2af-11ea-87d3-54bf646e7e1f
f 31//31 40//40 30//30
f 30//30 40//40 41//41
f 30//30 41//41 38//38
f 38//38 41//41 37//37
f 37//37 41//41 42//42
f 37//37 42//42 36//36
f 36//36 42//42 35//35
f 35//35 42//42 34//34
f 34//34 42//42 39//39
f 34//34 39//39 33//33
f 33//33 39//39 32//32
f 32//32 39//39 40//40
f 32//32 40//40 31//31
g abad4612-e2af-11ea-8f0d-54bf646e7e1f
f 43//43 44//44 46//46
f 46//46 44//44 45//45
g abadbb3e-e2af-11ea-afc5-54bf646e7e1f
f 47//47 48//48 50//50
f 50//50 48//48 49//49
g ab7ce7ac-e2af-11ea-a363-54bf646e7e1f
f 51//51 52//52 54//54
f 54//54 52//52 53//53
g 30b2e651-cb3c-3aa3-b358-9cf1b26e83aa
f 55//55 56//56 58//58
f 58//58 56//56 57//57
g ab7c9992-e2af-11ea-be06-54bf646e7e1f
f 59//59 60//60 66//66
f 66//66 60//60 65//65
f 65//65 60//60 64//64
f 64//64 60//60 61//61
f 64//64 61//61 63//63
f 63//63 61//61 62//62
g ab7b8862-e2af-11ea-b1da-54bf646e7e1f
f 84//84 67//67 83//83
f 83//83 67//67 68//68
f 83//83 68//68 82//82
f 82//82 68//68 69//69
f 82//82 69//69 81//81
f 81//81 69//69 70//70
f 81//81 70//70 80//80
f 80//80 70//70 71//71
f 80//80 71//71 79//79
f 79//79 71//71 72//72
f 79//79 72//72 78//78
f 78//78 72//72 73//73
f 78//78 73//73 77//77
f 77//77 73//73 74//74
f 77//77 74//74 76//76
f 76//76 74//74 75//75
g ab7baf4c-e2af-11ea-928e-54bf646e7e1f
f 85//85 86//86 88//88
f 88//88 86//86 87//87
g ab7bd666-e2af-11ea-bac6-54bf646e7e1f
f 89//89 90//90 92//92
f 92//92 90//90 91//91
g ab7bfd68-e2af-11ea-b340-54bf646e7e1f
f 93//93 94//94 96//96
f 96//96 94//94 95//95
g ab7c4b7e-e2af-11ea-9bca-54bf646e7e1f
f 97//97 98//98 100//100
f 100//100 98//98 99//99
g ab7c729a-e2af-11ea-91fa-54bf646e7e1f
f 116//116 101//101 115//115
f 115//115 101//101 102//102
f 115//115 102//102 114//114
f 114//114 102//102 103//103
f 114//114 103//103 113//113
f 113//113 103//103 104//104
f 113//113 104//104 112//112
f 112//112 104//104 105//105
f 112//112 105//105 111//111
f 111//111 105//105 106//106
f 111//111 106//106 110//110
f 110//110 106//106 107//107
f 110//110 107//107 109//109
f 109//109 107//107 108//108
g ab7d35d4-e2af-11ea-87f1-54bf646e7e1f
f 118//118 119//119 117//117
f 117//117 119//119 120//120
f 117//117 120//120 121//121
f 117//117 121//121 124//124
f 124//124 121//121 122//122
f 124//124 122//122 123//123
g ab7d5cdc-e2af-11ea-b15c-54bf646e7e1f
f 126//126 127//127 125//125
f 125//125 127//127 128//128
f 125//125 128//128 129//129
f 125//125 129//129 146//146
f 146//146 129//129 130//130
f 146//146 130//130 145//145
f 145//145 130//130 131//131
f 145//145 131//131 144//144
f 144//144 131//131 132//132
f 144//144 132//132 143//143
f 143//143 132//132 133//133
f 143//143 133//133 142//142
f 142//142 133//133 134//134
f 142//142 134//134 141//141
f 141//141 134//134 135//135
f 141//141 135//135 140//140
f 140//140 135//135 139//139
f 139//139 135//135 136//136
f 139//139 136//136 138//138
f 138//138 136//136 137//137
g ab7dd218-e2af-11ea-9d13-54bf646e7e1f
f 147//147 148//148 168//168
f 168//168 148//148 167//167
f 167//167 148//148 166//166
f 166//166 148//148 149//149
f 166//166 149//149 165//165
f 165//165 149//149 150//150
f 165//165 150//150 164//164
f 164//164 150//150 151//151
f 164//164 151//151 163//163
f 163//163 151//151 152//152
f 163//163 152//152 162//162
f 162//162 152//152 153//153
f 162//162 153//153 161//161
f 161//161 153//153 154//154
f 161//161 154//154 160//160
f 160//160 154//154 155//155
f 160//160 155//155 156//156
f 156//156 157//157 160//160
f 160//160 157//157 159//159
f 159//159 157//157 158//158

# End of file