# WaveFront *.obj file
# Vertices: 48
# Triangles : 28

v -7.554843902587891 1.6139179468154907 -0.34544000029563904
v -7.554843902587891 1.6139179468154907 0.34544000029563904
v -7.3948235511779785 1.6139179468154907 0.34544000029563904
v -7.3948235511779785 1.6139179468154907 -0.34544000029563904
v -7.3948235511779785 1.6139179468154907 -0.34544000029563904
v -7.3948235511779785 1.6139179468154907 0.34544000029563904
v -1.3716000318527222 -1.6797254943626874e-16 0.34544000029563904
v -1.3716000318527222 -1.6797254943626874e-16 -0.34544000029563904
v -1.3716000318527222 -1.6797254943626874e-16 -0.34544000029563904
v -1.3716000318527222 -1.6797254943626874e-16 0.34544000029563904
v 0.0 0.0 0.34544000029563904
v 0.0 0.0 -0.34544000029563904
v -1.3716000318527222 -1.6797254943626874e-16 -0.34544000029563904
v 0.0 0.0 -0.34544000029563904
v 0.0 -0.18795999884605408 -0.34544000029563904
v -1.3963453769683838 -0.18795999884605408 -0.34544000029563904
v -7.5143632888793945 1.4513579607009888 -0.34544000029563904
v -7.554843902587891 1.4513579607009888 -0.34544000029563904
v -7.554843902587891 1.6139179468154907 -0.34544000029563904
v -7.3948235511779785 1.6139179468154907 -0.34544000029563904
v 0.0 0.0 -0.34544000029563904
v 0.0 0.0 0.34544000029563904
v 0.0 -0.18795999884605408 0.34544000029563904
v 0.0 -0.18795999884605408 -0.34544000029563904
v 0.0 -0.18795999884605408 -0.34544000029563904
v 0.0 -0.18795999884605408 0.34544000029563904
v -1.3963453769683838 -0.18795999884605408 0.34544000029563904
v -1.3963453769683838 -0.18795999884605408 -0.34544000029563904
v -1.3963453769683838 -0.18795999884605408 -0.34544000029563904
v -1.3963453769683838 -0.18795999884605408 0.34544000029563904
v -7.5143632888793945 1.4513579607009888 0.34544000029563904
v -7.5143632888793945 1.4513579607009888 -0.34544000029563904
v -7.5143632888793945 1.4513579607009888 -0.34544000029563904
v -7.5143632888793945 1.4513579607009888 0.34544000029563904
v -7.554843902587891 1.4513579607009888 0.34544000029563904
v -7.554843902587891 1.4513579607009888 -0.34544000029563904
v 0.0 0.0 0.34544000029563904
v -1.3716000318527222 -1.6797254943626874e-16 0.34544000029563904
v -7.3948235511779785 1.6139179468154907 0.34544000029563904
v -7.554843902587891 1.6139179468154907 0.34544000029563904
v -7.554843902587891 1.4513579607009888 0.34544000029563904
v -7.5143632888793945 1.4513579607009888 0.34544000029563904
v -1.3963453769683838 -0.18795999884605408 0.34544000029563904
v 0.0 -0.18795999884605408 0.34544000029563904
v -7.554843902587891 1.4513579607009888 -0.34544000029563904
v -7.554843902587891 1.4513579607009888 0.34544000029563904
v -7.554843902587891 1.6139179468154907 0.34544000029563904
v -7.554843902587891 1.6139179468154907 -0.34544000029563904
vn 0.0 1.0 -0.0
vn 0.0 1.0 -0.0
vn 0.0 1.0 -0.0
vn 0.0 1.0 -0.0
vn 0.258819043636322 0.9659258127212524 -0.0
vn 0.258819043636322 0.9659258127212524 -0.0
vn 0.258819043636322 0.9659258127212524 -0.0
vn 0.258819043636322 0.9659258127212524 -0.0
vn -1.2246468525851679e-16 1.0 0.0
vn -1.2246468525851679e-16 1.0 0.0
vn -1.2246468525851679e-16 1.0 0.0
vn -1.2246468525851679e-16 1.0 0.0
vn 0.0 0.0 -1.0
vn 0.0 0.0 -1.0
vn 0.0 0.0 -1.0
vn 0.0 0.0 -1.0
vn 0.0 0.0 -1.0
vn 0.0 0.0 -1.0
vn 0.0 0.0 -1.0
vn 0.0 0.0 -1.0
vn 1.0 0.0 -0.0
vn 1.0 0.0 -0.0
vn 1.0 0.0 -0.0
vn 1.0 0.0 -0.0
vn 1.19263800690402e-16 -1.0 0.0
vn 1.19263800690402e-16 -1.0 0.0
vn 1.19263800690402e-16 -1.0 0.0
vn 1.19263800690402e-16 -1.0 0.0
vn -0.258819043636322 -0.9659258127212524 0.0
vn -0.258819043636322 -0.9659258127212524 0.0
vn -0.258819043636322 -0.9659258127212524 0.0
vn -0.258819043636322 -0.9659258127212524 0.0
vn 0.0 -1.0 0.0
vn 0.0 -1.0 0.0
vn 0.0 -1.0 0.0
vn 0.0 -1.0 0.0
vn 0.0 0.0 1.0
vn 0.0 0.0 1.0
vn 0.0 0.0 1.0
vn 0.0 0.0 1.0
vn 0.0 0.0 1.0
vn 0.0 0.0 1.0
vn 0.0 0.0 1.0
vn 0.0 0.0 1.0
vn -1.0 0.0 0.0
vn -1.0 0.0 0.0
vn -1.0 0.0 0.0
vn -1.0 0.0 0.0
f 2//2 3//3 1//1
f 1//1 3//3 4//4
f 6//6 7//7 5//5
f 5//5 7//7 8//8
f 10//10 11//11 9//9
f 9//9 11//11 12//12
f 14//14 15//15 13//13
f 13//13 15//15 16//16
f 13//13 16//16 17//17
f 18//18 19//19 17//17
f 17//17 19//19 20//20
f 17//17 20//20 13//13
f 22//22 23//23 21//21
f 21//21 23//23 24//24
f 26//26 27//27 25//25
f 25//25 27//27 28//28
f 30//30 31//31 29//29
f 29//29 31//31 32//32
f 34//34 35//35 33//33
f 33//33 35//35 36//36
f 37//37 38//38 44//44
f 44//44 38//38 43//43
f 43//43 38//38 42//42
f 42//42 38//38 39//39
f 42//42 39//39 40//40
f 40//40 41//41 42//42
f 46//46 47//47 45//45
f 45//45 47//47 48//48

# End of file