# WaveFront *.obj file
# Vertices: 198
# Triangles : 188

v -0.20000000298023224 -2.4492935397342132e-17 10.0
v -0.18270909786224365 0.08134733140468597 10.0
v -0.1338261216878891 0.14862896502017975 10.0
v -0.06180340051651001 0.19021129608154297 10.0
v 0.020905692130327225 0.1989043802022934 10.0
v 0.10000000149011612 0.17320507764816284 10.0
v 0.16180339455604553 0.11755704879760742 10.0
v 0.1956295222043991 0.04158233851194382 10.0
v 0.1956295222043991 -0.04158233851194382 10.0
v 0.16180339455604553 -0.11755704879760742 10.0
v 0.10000000149011612 -0.17320507764816284 10.0
v 0.020905692130327225 -0.1989043802022934 10.0
v -0.06180340051651001 -0.19021129608154297 10.0
v -0.1338261216878891 -0.14862896502017975 10.0
v -0.18270909786224365 -0.08134733140468597 10.0
v -0.20000000298023224 -2.4492935397342132e-17 9.5
v -0.18270909786224365 -0.08134733140468597 9.5
v -0.1338261216878891 -0.14862896502017975 9.5
v -0.06180340051651001 -0.19021129608154297 9.5
v 0.020905692130327225 -0.1989043802022934 9.5
v 0.10000000149011612 -0.17320507764816284 9.5
v 0.16180339455604553 -0.11755704879760742 9.5
v 0.1956295222043991 -0.04158233851194382 9.5
v 0.1956295222043991 0.04158233851194382 9.5
v 0.16180339455604553 0.11755704879760742 9.5
v 0.10000000149011612 0.17320507764816284 9.5
v 0.020905692130327225 0.1989043802022934 9.5
v -0.06180340051651001 0.19021129608154297 9.5
v -0.1338261216878891 0.14862896502017975 9.5
v -0.18270909786224365 0.08134733140468597 9.5
v -0.20000000298023224 -2.4492935397342132e-17 9.5
v -0.20000000298023224 -2.4492935397342132e-17 10.0
v -0.20000000298023224 -2.4492935397342132e-17 10.0
v -0.18270909786224365 -0.08134733140468597 10.0
v -0.1338261216878891 -0.14862896502017975 10.0
v -0.06180340051651001 -0.19021129608154297 10.0
v 0.020905692130327225 -0.1989043802022934 10.0
v 0.10000000149011612 -0.17320507764816284 10.0
v 0.16180339455604553 -0.11755704879760742 10.0
v 0.1956295222043991 -0.04158233851194382 10.0
v 0.1956295222043991 0.04158233851194382 10.0
v 0.16180339455604553 0.11755704879760742 10.0
v 0.10000000149011612 0.17320507764816284 10.0
v 0.020905692130327225 0.1989043802022934 10.0
v -0.06180340051651001 0.19021129608154297 10.0
v -0.1338261216878891 0.14862896502017975 10.0
v -0.18270909786224365 0.08134733140468597 10.0
v -0.30000001192092896 -3.6739405577555036e-17 0.5
v -0.2819077968597412 0.10260604321956635 0.5
v -0.2298133373260498 0.19283628463745117 0.5
v -0.15000000596046448 0.25980761647224426 0.5
v -0.05209445208311081 0.2954423129558563 0.5
v 0.05209445208311081 0.2954423129558563 0.5
v 0.15000000596046448 0.25980761647224426 0.5
v 0.2298133373260498 0.19283628463745117 0.5
v 0.2819077968597412 0.10260604321956635 0.5
v 0.30000001192092896 0.0 0.5
v 0.2819077968597412 -0.10260604321956635 0.5
v 0.2298133373260498 -0.19283628463745117 0.5
v 0.15000000596046448 -0.25980761647224426 0.5
v 0.05209445208311081 -0.2954423129558563 0.5
v -0.05209445208311081 -0.2954423129558563 0.5
v -0.15000000596046448 -0.25980761647224426 0.5
v -0.2298133373260498 -0.19283628463745117 0.5
v -0.2819077968597412 -0.10260604321956635 0.5
v -0.20000000298023224 -2.4492935397342132e-17 0.5
v -0.18270909786224365 -0.08134733140468597 0.5
v -0.1338261216878891 -0.14862896502017975 0.5
v -0.06180340051651001 -0.19021129608154297 0.5
v 0.020905692130327225 -0.1989043802022934 0.5
v 0.10000000149011612 -0.17320507764816284 0.5
v 0.16180339455604553 -0.11755704879760742 0.5
v 0.1956295222043991 -0.04158233851194382 0.5
v 0.1956295222043991 0.04158233851194382 0.5
v 0.16180339455604553 0.11755704879760742 0.5
v 0.10000000149011612 0.17320507764816284 0.5
v 0.020905692130327225 0.1989043802022934 0.5
v -0.06180340051651001 0.19021129608154297 0.5
v -0.1338261216878891 0.14862896502017975 0.5
v -0.18270909786224365 0.08134733140468597 0.5
v -0.30000001192092896 -3.6739405577555036e-17 9.5
v -0.2819077968597412 0.10260604321956635 9.5
v -0.2298133373260498 0.19283628463745117 9.5
v -0.15000000596046448 0.25980761647224426 9.5
v -0.05209445208311081 0.2954423129558563 9.5
v 0.05209445208311081 0.2954423129558563 9.5
v 0.15000000596046448 0.25980761647224426 9.5
v 0.2298133373260498 0.19283628463745117 9.5
v 0.2819077968597412 0.10260604321956635 9.5
v 0.30000001192092896 0.0 9.5
v 0.2819077968597412 -0.10260604321956635 9.5
v 0.2298133373260498 -0.19283628463745117 9.5
v 0.15000000596046448 -0.25980761647224426 9.5
v 0.05209445208311081 -0.2954423129558563 9.5
v -0.05209445208311081 -0.2954423129558563 9.5
v -0.15000000596046448 -0.25980761647224426 9.5
v -0.2298133373260498 -0.19283628463745117 9.5
v -0.2819077968597412 -0.10260604321956635 9.5
v -0.30000001192092896 -3.6739405577555036e-17 0.5
v -0.2819077968597412 -0.10260604321956635 0.5
v -0.2298133373260498 -0.19283628463745117 0.5
v -0.15000000596046448 -0.25980761647224426 0.5
v -0.05209445208311081 -0.2954423129558563 0.5
v 0.05209445208311081 -0.2954423129558563 0.5
v 0.15000000596046448 -0.25980761647224426 0.5
v 0.2298133373260498 -0.19283628463745117 0.5
v 0.2819077968597412 -0.10260604321956635 0.5
v 0.30000001192092896 0.0 0.5
v 0.2819077968597412 0.10260604321956635 0.5
v 0.2298133373260498 0.19283628463745117 0.5
v 0.15000000596046448 0.25980761647224426 0.5
v 0.05209445208311081 0.2954423129558563 0.5
v -0.05209445208311081 0.2954423129558563 0.5
v -0.15000000596046448 0.25980761647224426 0.5
v -0.2298133373260498 0.19283628463745117 0.5
v -0.2819077968597412 0.10260604321956635 0.5
v -0.30000001192092896 -3.6739405577555036e-17 0.5
v -0.30000001192092896 -3.6739405577555036e-17 9.5
v -0.20000000298023224 -2.4492935397342132e-17 9.5
v -0.18270909786224365 0.08134733140468597 9.5
v -0.1338261216878891 0.14862896502017975 9.5
v -0.06180340051651001 0.19021129608154297 9.5
v 0.020905692130327225 0.1989043802022934 9.5
v 0.10000000149011612 0.17320507764816284 9.5
v 0.16180339455604553 0.11755704879760742 9.5
v 0.1956295222043991 0.04158233851194382 9.5
v 0.1956295222043991 -0.04158233851194382 9.5
v 0.16180339455604553 -0.11755704879760742 9.5
v 0.10000000149011612 -0.17320507764816284 9.5
v 0.020905692130327225 -0.1989043802022934 9.5
v -0.06180340051651001 -0.19021129608154297 9.5
v -0.1338261216878891 -0.14862896502017975 9.5
v -0.18270909786224365 -0.08134733140468597 9.5
v -0.30000001192092896 -3.6739405577555036e-17 9.5
v -0.2819077968597412 -0.10260604321956635 9.5
v -0.2298133373260498 -0.19283628463745117 9.5
v -0.15000000596046448 -0.25980761647224426 9.5
v -0.05209445208311081 -0.2954423129558563 9.5
v 0.05209445208311081 -0.2954423129558563 9.5
v 0.15000000596046448 -0.25980761647224426 9.5
v 0.2298133373260498 -0.19283628463745117 9.5
v 0.2819077968597412 -0.10260604321956635 9.5
v 0.30000001192092896 0.0 9.5
v 0.2819077968597412 0.10260604321956635 9.5
v 0.2298133373260498 0.19283628463745117 9.5
v 0.15000000596046448 0.25980761647224426 9.5
v 0.05209445208311081 0.2954423129558563 9.5
v -0.05209445208311081 0.2954423129558563 9.5
v -0.15000000596046448 0.25980761647224426 9.5
v -0.2298133373260498 0.19283628463745117 9.5
v -0.2819077968597412 0.10260604321956635 9.5
v -0.20000000298023224 -2.4492935397342132e-17 0.5
v -0.18270909786224365 0.08134733140468597 0.5
v -0.1338261216878891 0.14862896502017975 0.5
v -0.06180340051651001 0.19021129608154297 0.5
v 0.020905692130327225 0.1989043802022934 0.5
v 0.10000000149011612 0.17320507764816284 0.5
v 0.16180339455604553 0.11755704879760742 0.5
v 0.1956295222043991 0.04158233851194382 0.5
v 0.1956295222043991 -0.04158233851194382 0.5
v 0.16180339455604553 -0.11755704879760742 0.5
v 0.10000000149011612 -0.17320507764816284 0.5
v 0.020905692130327225 -0.1989043802022934 0.5
v -0.06180340051651001 -0.19021129608154297 0.5
v -0.1338261216878891 -0.14862896502017975 0.5
v -0.18270909786224365 -0.08134733140468597 0.5
v -0.20000000298023224 -2.4492935397342132e-17 0.0
v -0.18270909786224365 -0.08134733140468597 0.0
v -0.1338261216878891 -0.14862896502017975 0.0
v -0.06180340051651001 -0.19021129608154297 0.0
v 0.020905692130327225 -0.1989043802022934 0.0
v 0.10000000149011612 -0.17320507764816284 0.0
v 0.16180339455604553 -0.11755704879760742 0.0
v 0.1956295222043991 -0.04158233851194382 0.0
v 0.1956295222043991 0.04158233851194382 0.0
v 0.16180339455604553 0.11755704879760742 0.0
v 0.10000000149011612 0.17320507764816284 0.0
v 0.020905692130327225 0.1989043802022934 0.0
v -0.06180340051651001 0.19021129608154297 0.0
v -0.1338261216878891 0.14862896502017975 0.0
v -0.18270909786224365 0.08134733140468597 0.0
v -0.20000000298023224 -2.4492935397342132e-17 0.0
v -0.20000000298023224 -2.4492935397342132e-17 0.5
v -0.20000000298023224 -2.4492935397342132e-17 0.0
v -0.18270909786224365 0.08134733140468597 0.0
v -0.1338261216878891 0.14862896502017975 0.0
v -0.06180340051651001 0.19021129608154297 0.0
v 0.020905692130327225 0.1989043802022934 0.0
v 0.10000000149011612 0.17320507764816284 0.0
v 0.16180339455604553 0.11755704879760742 0.0
v 0.1956295222043991 0.04158233851194382 0.0
v 0.1956295222043991 -0.04158233851194382 0.0
v 0.16180339455604553 -0.11755704879760742 0.0
v 0.10000000149011612 -0.17320507764816284 0.0
v 0.020905692130327225 -0.1989043802022934 0.0
v -0.06180340051651001 -0.19021129608154297 0.0
v -0.1338261216878891 -0.14862896502017975 0.0
v -0.18270909786224365 -0.08134733140468597 0.0
vn -1.0 1.2246468525851679e-16 -0.0
vn -0.9135454297065735 0.4067366421222687 -0.0
vn -0.6691306233406067 0.7431448101997375 -0.0
vn -0.30901700258255005 0.9510565400123596 -0.0
vn 0.10452846437692642 0.9945219159126282 -0.0
vn 0.5 0.8660253882408142 -0.0
vn 0.80901700258255 0.5877852439880371 -0.0
vn 0.9781476259231567 0.2079116851091385 -0.0
vn 0.9781476259231567 -0.2079116851091385 -0.0
vn 0.80901700258255 -0.5877852439880371 -0.0
vn 0.5 -0.8660253882408142 -0.0
vn 0.10452846437692642 -0.9945219159126282 -0.0
vn -0.30901700258255005 -0.9510565400123596 0.0
vn -0.6691306233406067 -0.7431448101997375 0.0
vn -0.9135454297065735 -0.4067366421222687 0.0
vn -1.0 -1.2246468525851679e-16 0.0
vn -0.9135454297065735 -0.4067366421222687 0.0
vn -0.6691306233406067 -0.7431448101997375 0.0
vn -0.30901700258255005 -0.9510565400123596 0.0
vn 0.10452846437692642 -0.9945219159126282 -0.0
vn 0.5 -0.8660253882408142 -0.0
vn 0.80901700258255 -0.5877852439880371 -0.0
vn 0.9781476259231567 -0.2079116851091385 -0.0
vn 0.9781476259231567 0.2079116851091385 -0.0
vn 0.80901700258255 0.5877852439880371 -0.0
vn 0.5 0.8660253882408142 -0.0
vn 0.10452846437692642 0.9945219159126282 -0.0
vn -0.30901700258255005 0.9510565400123596 -0.0
vn -0.6691306233406067 0.7431448101997375 -0.0
vn -0.9135454297065735 0.4067366421222687 -0.0
vn -1.0 1.2246468525851679e-16 -0.0
vn -1.0 -1.2246468525851679e-16 0.0
vn 0.0 0.0 1.0
vn 0.0 0.0 1.0
vn 0.0 0.0 1.0
vn 0.0 0.0 1.0
vn 0.0 0.0 1.0
vn 0.0 0.0 1.0
vn 0.0 0.0 1.0
vn 0.0 0.0 1.0
vn 0.0 0.0 1.0
vn 0.0 0.0 1.0
vn 0.0 0.0 1.0
vn 0.0 0.0 1.0
vn 0.0 0.0 1.0
vn 0.0 0.0 1.0
vn 0.0 0.0 1.0
vn -0.0 -0.0 -1.0
vn -0.0 -0.0 -1.0
vn -0.0 -0.0 -1.0
vn -0.0 -0.0 -1.0
vn -0.0 -0.0 -1.0
vn -0.0 -0.0 -1.0
vn -0.0 -0.0 -1.0
vn -0.0 -0.0 -1.0
vn -0.0 -0.0 -1.0
vn -0.0 -0.0 -1.0
vn -0.0 -0.0 -1.0
vn -0.0 -0.0 -1.0
vn -0.0 -0.0 -1.0
vn -0.0 -0.0 -1.0
vn -0.0 -0.0 -1.0
vn -0.0 -0.0 -1.0
vn -0.0 -0.0 -1.0
vn -0.0 -0.0 -1.0
vn -0.0 -0.0 -1.0
vn -0.0 -0.0 -1.0
vn -0.0 -0.0 -1.0
vn -0.0 -0.0 -1.0
vn -0.0 -0.0 -1.0
vn -0.0 -0.0 -1.0
vn -0.0 -0.0 -1.0
vn -0.0 -0.0 -1.0
vn -0.0 -0.0 -1.0
vn -0.0 -0.0 -1.0
vn -0.0 -0.0 -1.0
vn -0.0 -0.0 -1.0
vn -0.0 -0.0 -1.0
vn -0.0 -0.0 -1.0
vn -0.0 -0.0 -1.0
vn -1.0 1.2246468525851679e-16 -0.0
vn -0.9396926164627075 0.3420201539993286 -0.0
vn -0.7660444378852844 0.6427876353263855 -0.0
vn -0.5 0.8660253882408142 -0.0
vn -0.1736481785774231 0.9848077297210693 -0.0
vn 0.1736481785774231 0.9848077297210693 -0.0
vn 0.5 0.8660253882408142 -0.0
vn 0.7660444378852844 0.6427876353263855 -0.0
vn 0.9396926164627075 0.3420201539993286 -0.0
vn 1.0 -0.0 -0.0
vn 0.9396926164627075 -0.3420201539993286 -0.0
vn 0.7660444378852844 -0.6427876353263855 -0.0
vn 0.5 -0.8660253882408142 -0.0
vn 0.1736481785774231 -0.9848077297210693 -0.0
vn -0.1736481785774231 -0.9848077297210693 0.0
vn -0.5 -0.8660253882408142 0.0
vn -0.7660444378852844 -0.6427876353263855 0.0
vn -0.9396926164627075 -0.3420201539993286 0.0
vn -1.0 -1.2246468525851679e-16 0.0
vn -0.9396926164627075 -0.3420201539993286 0.0
vn -0.7660444378852844 -0.6427876353263855 0.0
vn -0.5 -0.8660253882408142 0.0
vn -0.1736481785774231 -0.9848077297210693 0.0
vn 0.1736481785774231 -0.9848077297210693 -0.0
vn 0.5 -0.8660253882408142 -0.0
vn 0.7660444378852844 -0.6427876353263855 -0.0
vn 0.9396926164627075 -0.3420201539993286 -0.0
vn 1.0 -0.0 -0.0
vn 0.9396926164627075 0.3420201539993286 -0.0
vn 0.7660444378852844 0.6427876353263855 -0.0
vn 0.5 0.8660253882408142 -0.0
vn 0.1736481785774231 0.9848077297210693 -0.0
vn -0.1736481785774231 0.9848077297210693 -0.0
vn -0.5 0.8660253882408142 -0.0
vn -0.7660444378852844 0.6427876353263855 -0.0
vn -0.9396926164627075 0.3420201539993286 -0.0
vn -1.0 1.2246468525851679e-16 -0.0
vn -1.0 -1.2246468525851679e-16 0.0
vn 0.0 0.0 1.0
vn 0.0 0.0 1.0
vn 0.0 0.0 1.0
vn 0.0 0.0 1.0
vn 0.0 0.0 1.0
vn 0.0 0.0 1.0
vn 0.0 0.0 1.0
vn 0.0 0.0 1.0
vn 0.0 0.0 1.0
vn 0.0 0.0 1.0
vn 0.0 0.0 1.0
vn 0.0 0.0 1.0
vn 0.0 0.0 1.0
vn 0.0 0.0 1.0
vn 0.0 0.0 1.0
vn 0.0 0.0 1.0
vn 0.0 0.0 1.0
vn 0.0 0.0 1.0
vn 0.0 0.0 1.0
vn 0.0 0.0 1.0
vn 0.0 0.0 1.0
vn 0.0 0.0 1.0
vn 0.0 0.0 1.0
vn 0.0 0.0 1.0
vn 0.0 0.0 1.0
vn 0.0 0.0 1.0
vn 0.0 0.0 1.0
vn 0.0 0.0 1.0
vn 0.0 0.0 1.0
vn 0.0 0.0 1.0
vn 0.0 0.0 1.0
vn 0.0 0.0 1.0
vn 0.0 0.0 1.0
vn -1.0 1.2246468525851679e-16 -0.0
vn -0.9135454297065735 0.4067366421222687 -0.0
vn -0.6691306233406067 0.7431448101997375 -0.0
vn -0.30901700258255005 0.9510565400123596 -0.0
vn 0.10452846437692642 0.9945219159126282 -0.0
vn 0.5 0.8660253882408142 -0.0
vn 0.80901700258255 0.5877852439880371 -0.0
vn 0.9781476259231567 0.2079116851091385 -0.0
vn 0.9781476259231567 -0.2079116851091385 -0.0
vn 0.80901700258255 -0.5877852439880371 -0.0
vn 0.5 -0.8660253882408142 -0.0
vn 0.10452846437692642 -0.9945219159126282 -0.0
vn -0.30901700258255005 -0.9510565400123596 0.0
vn -0.6691306233406067 -0.7431448101997375 0.0
vn -0.9135454297065735 -0.4067366421222687 0.0
vn -1.0 -1.2246468525851679e-16 0.0
vn -0.9135454297065735 -0.4067366421222687 0.0
vn -0.6691306233406067 -0.7431448101997375 0.0
vn -0.30901700258255005 -0.9510565400123596 0.0
vn 0.10452846437692642 -0.9945219159126282 -0.0
vn 0.5 -0.8660253882408142 -0.0
vn 0.80901700258255 -0.5877852439880371 -0.0
vn 0.9781476259231567 -0.2079116851091385 -0.0
vn 0.9781476259231567 0.2079116851091385 -0.0
vn 0.80901700258255 0.5877852439880371 -0.0
vn 0.5 0.8660253882408142 -0.0
vn 0.10452846437692642 0.9945219159126282 -0.0
vn -0.30901700258255005 0.9510565400123596 -0.0
vn -0.6691306233406067 0.7431448101997375 -0.0
vn -0.9135454297065735 0.4067366421222687 -0.0
vn -1.0 1.2246468525851679e-16 -0.0
vn -1.0 -1.2246468525851679e-16 0.0
vn -0.0 -0.0 -1.0
vn -0.0 -0.0 -1.0
vn -0.0 -0.0 -1.0
vn -0.0 -0.0 -1.0
vn -0.0 -0.0 -1.0
vn -0.0 -0.0 -1.0
vn -0.0 -0.0 -1.0
vn -0.0 -0.0 -1.0
vn -0.0 -0.0 -1.0
vn -0.0 -0.0 -1.0
vn -0.0 -0.0 -1.0
vn -0.0 -0.0 -1.0
vn -0.0 -0.0 -1.0
vn -0.0 -0.0 -1.0
vn -0.0 -0.0 -1.0
g 1aa56676-e2cd-11ea-aca0-54bf646e7e1f
f 2//2 30//30 1//1
f 1//1 30//30 31//31
f 32//32 16//16 15//15
f 15//15 16//16 17//17
f 15//15 17//17 14//14
f 14//14 17//17 18//18
f 14//14 18//18 13//13
f 13//13 18//18 19//19
f 13//13 19//19 12//12
f 12//12 19//19 20//20
f 12//12 20//20 11//11
f 11//11 20//20 21//21
f 11//11 21//21 10//10
f 10//10 21//21 22//22
f 10//10 22//22 9//9
f 9//9 22//22 23//23
f 9//9 23//23 8//8
f 8//8 23//23 24//24
f 8//8 24//24 7//7
f 7//7 24//24 25//25
f 7//7 25//25 6//6
f 6//6 25//25 26//26
f 6//6 26//26 5//5
f 5//5 26//26 27//27
f 5//5 27//27 4//4
f 4//4 27//27 28//28
f 4//4 28//28 3//3
f 3//3 28//28 29//29
f 3//3 29//29 2//2
f 2//2 29//29 30//30
g 1aa62986-e2cd-11ea-87bd-54bf646e7e1f
f 34//34 40//40 33//33
f 33//33 40//40 41//41
f 33//33 41//41 47//47
f 47//47 41//41 42//42
f 47//47 42//42 46//46
f 46//46 42//42 43//43
f 46//46 43//43 45//45
f 45//45 43//43 44//44
f 40//40 34//34 39//39
f 39//39 34//34 35//35
f 39//39 35//35 38//38
f 38//38 35//35 36//36
f 38//38 36//36 37//37
g 1a6955e4-e2cd-11ea-8fc5-54bf646e7e1f
f 65//65 48//48 66//66
f 66//66 48//48 49//49
f 66//66 49//49 80//80
f 80//80 49//49 50//50
f 80//80 50//50 79//79
f 79//79 50//50 51//51
f 79//79 51//51 78//78
f 78//78 51//51 52//52
f 78//78 52//52 77//77
f 77//77 52//52 53//53
f 77//77 53//53 76//76
f 76//76 53//53 54//54
f 76//76 54//54 55//55
f 76//76 55//55 75//75
f 75//75 55//55 56//56
f 75//75 56//56 74//74
f 74//74 56//56 57//57
f 74//74 57//57 73//73
f 73//73 57//57 58//58
f 73//73 58//58 72//72
f 72//72 58//58 59//59
f 72//72 59//59 71//71
f 71//71 59//59 60//60
f 71//71 60//60 61//61
f 71//71 61//61 70//70
f 70//70 61//61 62//62
f 70//70 62//62 69//69
f 69//69 62//62 63//63
f 69//69 63//63 68//68
f 68//68 63//63 64//64
f 68//68 64//64 67//67
f 67//67 64//64 65//65
f 67//67 65//65 66//66
g 1a6a18e6-e2cd-11ea-9e63-54bf646e7e1f
f 82//82 116//116 81//81
f 81//81 116//116 117//117
f 118//118 99//99 98//98
f 98//98 99//99 100//100
f 98//98 100//100 97//97
f 97//97 100//100 101//101
f 97//97 101//101 96//96
f 96//96 101//101 102//102
f 96//96 102//102 95//95
f 95//95 102//102 103//103
f 95//95 103//103 94//94
f 94//94 103//103 104//104
f 94//94 104//104 93//93
f 93//93 104//104 105//105
f 93//93 105//105 92//92
f 92//92 105//105 106//106
f 92//92 106//106 91//91
f 91//91 106//106 107//107
f 91//91 107//107 90//90
f 90//90 107//107 108//108
f 90//90 108//108 89//89
f 89//89 108//108 109//109
f 89//89 109//109 88//88
f 88//88 109//109 110//110
f 88//88 110//110 87//87
f 87//87 110//110 111//111
f 87//87 111//111 86//86
f 86//86 111//111 112//112
f 86//86 112//112 85//85
f 85//85 112//112 113//113
f 85//85 113//113 84//84
f 84//84 113//113 114//114
f 84//84 114//114 83//83
f 83//83 114//114 115//115
f 83//83 115//115 82//82
f 82//82 115//115 116//116
g 1a6a8e1a-e2cd-11ea-9982-54bf646e7e1f
f 120//120 151//151 119//119
f 119//119 151//151 134//134
f 119//119 134//134 135//135
f 151//151 120//120 150//150
f 150//150 120//120 121//121
f 150//150 121//121 149//149
f 149//149 121//121 122//122
f 149//149 122//122 148//148
f 148//148 122//122 123//123
f 148//148 123//123 147//147
f 147//147 123//123 124//124
f 147//147 124//124 146//146
f 146//146 124//124 145//145
f 145//145 124//124 125//125
f 145//145 125//125 144//144
f 144//144 125//125 126//126
f 144//144 126//126 143//143
f 143//143 126//126 127//127
f 143//143 127//127 142//142
f 142//142 127//127 128//128
f 142//142 128//128 141//141
f 141//141 128//128 129//129
f 141//141 129//129 140//140
f 140//140 129//129 139//139
f 139//139 129//129 130//130
f 139//139 130//130 138//138
f 138//138 130//130 131//131
f 138//138 131//131 137//137
f 137//137 131//131 132//132
f 137//137 132//132 136//136
f 136//136 132//132 133//133
f 136//136 133//133 135//135
f 135//135 133//133 119//119
g 1a309fe8-e2cd-11ea-af1f-54bf646e7e1f
f 153//153 181//181 152//152
f 152//152 181//181 182//182
f 183//183 167//167 166//166
f 166//166 167//167 168//168
f 166//166 168//168 165//165
f 165//165 168//168 169//169
f 165//165 169//169 164//164
f 164//164 169//169 170//170
f 164//164 170//170 163//163
f 163//163 170//170 171//171
f 163//163 171//171 162//162
f 162//162 171//171 172//172
f 162//162 172//172 161//161
f 161//161 172//172 173//173
f 161//161 173//173 160//160
f 160//160 173//173 174//174
f 160//160 174//174 159//159
f 159//159 174//174 175//175
f 159//159 175//175 158//158
f 158//158 175//175 176//176
f 158//158 176//176 157//157
f 157//157 176//176 177//177
f 157//157 177//177 156//156
f 156//156 177//177 178//178
f 156//156 178//178 155//155
f 155//155 178//178 179//179
f 155//155 179//179 154//154
f 154//154 179//179 180//180
f 154//154 180//180 153//153
f 153//153 180//180 181//181
g 1a31d7fa-e2cd-11ea-b65f-54bf646e7e1f
f 185//185 191//191 184//184
f 184//184 191//191 192//192
f 184//184 192//192 198//198
f 198//198 192//192 193//193
f 198//198 193//193 197//197
f 197//197 193//193 194//194
f 197//197 194//194 196//196
f 196//196 194//194 195//195
f 191//191 185//185 190//190
f 190//190 185//185 186//186
f 190//190 186//186 189//189
f 189//189 186//186 187//187
f 189//189 187//187 188//188

# End of file