# WaveFront *.obj file
# Vertices: 24
# Triangles : 12

v -3.5 0.0 16.5
v 0.0 0.0 16.5
v 0.0 3.0 16.5
v -3.5 3.0 16.5
v -3.5 0.0 0.0
v -3.5 0.0 16.5
v -3.5 3.0 16.5
v -3.5 3.0 0.0
v 0.0 0.0 0.0
v -3.5 0.0 0.0
v -3.5 3.0 0.0
v 0.0 3.0 0.0
v 0.0 0.0 16.5
v 0.0 0.0 0.0
v 0.0 3.0 0.0
v 0.0 3.0 16.5
v 0.0 3.0 16.5
v 0.0 3.0 0.0
v -3.5 3.0 0.0
v -3.5 3.0 16.5
v 0.0 0.0 0.0
v 0.0 0.0 16.5
v -3.5 0.0 16.5
v -3.5 0.0 0.0
vn 0.0 0.0 1.0
vn 0.0 0.0 1.0
vn 0.0 0.0 1.0
vn 0.0 0.0 1.0
vn -1.0 0.0 0.0
vn -1.0 0.0 0.0
vn -1.0 0.0 0.0
vn -1.0 0.0 0.0
vn 0.0 0.0 -1.0
vn 0.0 0.0 -1.0
vn 0.0 0.0 -1.0
vn 0.0 0.0 -1.0
vn 1.0 -0.0 0.0
vn 1.0 -0.0 0.0
vn 1.0 -0.0 0.0
vn 1.0 -0.0 0.0
vn 0.0 1.0 0.0
vn 0.0 1.0 0.0
vn 0.0 1.0 0.0
vn 0.0 1.0 0.0
vn -0.0 -1.0 -0.0
vn -0.0 -1.0 -0.0
vn -0.0 -1.0 -0.0
vn -0.0 -1.0 -0.0
g 9b7f12e4-e2d8-11ea-be2b-54bf646e7e1f
f 1//1 2//2 4//4
f 4//4 2//2 3//3
g 9b89c390-e2d8-11ea-a7f3-54bf646e7e1f
f 5//5 6//6 8//8
f 8//8 6//6 7//7
g 9b947390-e2d8-11ea-87ba-54bf646e7e1f
f 9//9 10//10 12//12
f 12//12 10//10 11//11
g 9b9f2386-e2d8-11ea-996e-54bf646e7e1f
f 13//13 14//14 16//16
f 16//16 14//14 15//15
g 9ba9fae6-e2d8-11ea-8ad7-54bf646e7e1f
f 17//17 18//18 20//20
f 20//20 18//18 19//19
g 9bb4ab22-e2d8-11ea-999d-54bf646e7e1f
f 22//22 23//23 21//21
f 21//21 23//23 24//24

# End of file