# WaveFront *.obj file
# Vertices: 74
# Triangles : 56

v 4.25 0.0 -4.247000217437744
v 4.25 0.0 0.0
v 4.25 4.0 0.0
v 4.25 4.0 -4.247000217437744
v 4.25 0.0 0.0
v 8.750298500061035 0.0 0.0
v 8.750298500061035 4.0 0.0
v 4.25 4.0 0.0
v 4.25 0.0 -6.0
v 4.25 0.0 -4.747000217437744
v 4.25 4.0 -4.747000217437744
v 4.25 4.0 -6.0
v 8.750298500061035 0.0 0.0
v 4.25 0.0 0.0
v 4.25 0.0 -4.247000217437744
v 4.33550500869751 0.0 -4.2620768547058105
v 4.410696983337402 0.0 -4.3054890632629395
v 4.466506481170654 0.0 -4.372000217437744
v 4.496201992034912 0.0 -4.453588008880615
v 4.496201992034912 0.0 -4.540411949157715
v 4.466506481170654 0.0 -4.622000217437744
v 4.410696983337402 0.0 -4.688510894775391
v 4.33550500869751 0.0 -4.7319231033325195
v 4.25 0.0 -4.747000217437744
v 4.25 0.0 -6.0
v 6.644750118255615 0.0 -6.0
v 8.750298500061035 0.0 -4.0
v 8.750298500061035 0.0 0.0
v 8.750298500061035 0.0 -4.0
v 8.750298500061035 4.0 -4.0
v 8.750298500061035 4.0 0.0
v 8.750298500061035 0.0 -4.0
v 6.644750118255615 0.0 -6.0
v 6.644750118255615 4.0 -6.0
v 8.750298500061035 4.0 -4.0
v 4.25 4.0 0.0
v 8.750298500061035 4.0 0.0
v 8.750298500061035 4.0 -4.0
v 6.644750118255615 4.0 -6.0
v 4.25 4.0 -6.0
v 4.25 4.0 -4.747000217437744
v 4.33550500869751 4.0 -4.7319231033325195
v 4.410696983337402 4.0 -4.688510894775391
v 4.466506481170654 4.0 -4.622000217437744
v 4.496201992034912 4.0 -4.540411949157715
v 4.496201992034912 4.0 -4.453588008880615
v 4.466506481170654 4.0 -4.372000217437744
v 4.410696983337402 4.0 -4.3054890632629395
v 4.33550500869751 4.0 -4.2620768547058105
v 4.25 4.0 -4.247000217437744
v 6.644750118255615 0.0 -6.0
v 4.25 0.0 -6.0
v 4.25 4.0 -6.0
v 6.644750118255615 4.0 -6.0
v 4.25 0.0 -4.747000217437744
v 4.33550500869751 0.0 -4.7319231033325195
v 4.410696983337402 0.0 -4.688510894775391
v 4.466506481170654 0.0 -4.622000217437744
v 4.496201992034912 0.0 -4.540411949157715
v 4.496201992034912 0.0 -4.453588008880615
v 4.466506481170654 0.0 -4.372000217437744
v 4.410696983337402 0.0 -4.3054890632629395
v 4.33550500869751 0.0 -4.2620768547058105
v 4.25 0.0 -4.247000217437744
v 4.25 4.0 -4.247000217437744
v 4.33550500869751 4.0 -4.2620768547058105
v 4.410696983337402 4.0 -4.3054890632629395
v 4.466506481170654 4.0 -4.372000217437744
v 4.496201992034912 4.0 -4.453588008880615
v 4.496201992034912 4.0 -4.540411949157715
v 4.466506481170654 4.0 -4.622000217437744
v 4.410696983337402 4.0 -4.688510894775391
v 4.33550500869751 4.0 -4.7319231033325195
v 4.25 4.0 -4.747000217437744
vn -1.0 0.0 0.0
vn -1.0 0.0 0.0
vn -1.0 0.0 0.0
vn -1.0 0.0 0.0
vn 0.0 0.0 1.0
vn 0.0 0.0 1.0
vn 0.0 0.0 1.0
vn 0.0 0.0 1.0
vn -1.0 0.0 0.0
vn -1.0 0.0 0.0
vn -1.0 0.0 0.0
vn -1.0 0.0 0.0
vn -0.0 -1.0 -0.0
vn -0.0 -1.0 -0.0
vn -0.0 -1.0 -0.0
vn -0.0 -1.0 -0.0
vn -0.0 -1.0 -0.0
vn -0.0 -1.0 -0.0
vn -0.0 -1.0 -0.0
vn -0.0 -1.0 -0.0
vn -0.0 -1.0 -0.0
vn -0.0 -1.0 -0.0
vn -0.0 -1.0 -0.0
vn -0.0 -1.0 -0.0
vn -0.0 -1.0 -0.0
vn -0.0 -1.0 -0.0
vn -0.0 -1.0 -0.0
vn 1.0 -0.0 0.0
vn 1.0 -0.0 0.0
vn 1.0 -0.0 0.0
vn 1.0 -0.0 0.0
vn 0.6887003183364868 0.0 -0.7250460982322693
vn 0.6887003183364868 0.0 -0.7250460982322693
vn 0.6887003183364868 0.0 -0.7250460982322693
vn 0.6887003183364868 0.0 -0.7250460982322693
vn 0.0 1.0 0.0
vn 0.0 1.0 0.0
vn 0.0 1.0 0.0
vn 0.0 1.0 0.0
vn 0.0 1.0 0.0
vn 0.0 1.0 0.0
vn 0.0 1.0 0.0
vn 0.0 1.0 0.0
vn 0.0 1.0 0.0
vn 0.0 1.0 0.0
vn 0.0 1.0 0.0
vn 0.0 1.0 0.0
vn 0.0 1.0 0.0
vn 0.0 1.0 0.0
vn 0.0 1.0 0.0
vn 0.0 0.0 -1.0
vn 0.0 0.0 -1.0
vn 0.0 0.0 -1.0
vn 0.0 0.0 -1.0
vn -6.123234262925839e-17 0.0 1.0
vn -0.3420201539993286 0.0 0.9396926164627075
vn -0.6427876353263855 0.0 0.7660444378852844
vn -0.8660253882408142 0.0 0.5
vn -0.9848077297210693 0.0 0.1736481785774231
vn -0.9848077297210693 0.0 -0.1736481785774231
vn -0.8660253882408142 0.0 -0.5
vn -0.6427876353263855 0.0 -0.7660444378852844
vn -0.3420201539993286 0.0 -0.9396926164627075
vn -6.123234262925839e-17 0.0 -1.0
vn -6.123234262925839e-17 0.0 -1.0
vn -0.3420201539993286 0.0 -0.9396926164627075
vn -0.6427876353263855 0.0 -0.7660444378852844
vn -0.8660253882408142 0.0 -0.5
vn -0.9848077297210693 0.0 -0.1736481785774231
vn -0.9848077297210693 0.0 0.1736481785774231
vn -0.8660253882408142 0.0 0.5
vn -0.6427876353263855 0.0 0.7660444378852844
vn -0.3420201539993286 0.0 0.9396926164627075
vn -6.123234262925839e-17 0.0 1.0
f 1//1 2//2 4//4
f 4//4 2//2 3//3
f 5//5 6//6 8//8
f 8//8 6//6 7//7
f 9//9 10//10 12//12
f 12//12 10//10 11//11
f 13//13 14//14 27//27
f 27//27 14//14 18//18
f 27//27 18//18 26//26
f 26//26 18//18 19//19
f 26//26 19//19 20//20
f 15//15 16//16 14//14
f 14//14 16//16 17//17
f 14//14 17//17 18//18
f 20//20 21//21 26//26
f 26//26 21//21 25//25
f 25//25 21//21 22//22
f 25//25 22//22 23//23
f 23//23 24//24 25//25
f 28//28 29//29 31//31
f 31//31 29//29 30//30
f 32//32 33//33 35//35
f 35//35 33//33 34//34
f 37//37 38//38 36//36
f 36//36 38//38 47//47
f 36//36 47//47 48//48
f 38//38 39//39 47//47
f 47//47 39//39 46//46
f 46//46 39//39 45//45
f 45//45 39//39 44//44
f 44//44 39//39 40//40
f 44//44 40//40 43//43
f 43//43 40//40 42//42
f 42//42 40//40 41//41
f 48//48 49//49 36//36
f 36//36 49//49 50//50
f 51//51 52//52 54//54
f 54//54 52//52 53//53
f 74//74 55//55 73//73
f 73//73 55//55 56//56
f 73//73 56//56 72//72
f 72//72 56//56 57//57
f 72//72 57//57 71//71
f 71//71 57//57 58//58
f 71//71 58//58 70//70
f 70//70 58//58 59//59
f 70//70 59//59 69//69
f 69//69 59//59 60//60
f 69//69 60//60 68//68
f 68//68 60//60 61//61
f 68//68 61//61 67//67
f 67//67 61//61 62//62
f 67//67 62//62 66//66
f 66//66 62//62 63//63
f 66//66 63//63 65//65
f 65//65 63//63 64//64

# End of file