# WaveFront *.obj file
# Vertices: 104
# Triangles : 92

v 7.0 0.0 6.0
v -2.5 0.0 6.0
v -2.5 -12.5 6.0
v 7.0 -12.5 6.0
v 7.0 0.0 -6.0
v 7.0 0.0 6.0
v 7.0 -12.5 6.0
v 7.0 -12.5 -6.0
v -2.5 0.0 -6.0
v 7.0 0.0 -6.0
v 7.0 -12.5 -6.0
v -2.5 -12.5 -6.0
v -2.5 0.0 6.0
v -3.154935121536255 0.0 5.682990550994873
v -3.7703359127044678 0.0 5.2947678565979
v -4.3384904861450195 0.0 4.84019660949707
v -4.852279186248779 0.0 4.324972152709961
v -5.305264472961426 0.0 3.755552053451538
v -5.691769123077393 0.0 3.139070749282837
v -6.0069499015808105 0.0 2.4832539558410645
v -6.2468581199646 0.0 1.7963194847106934
v -6.408486843109131 0.0 1.0868752002716064
v -6.489810466766357 0.0 0.3638113737106323
v -6.489810466766357 0.0 -0.3638113737106323
v -6.408486843109131 0.0 -1.0868752002716064
v -6.2468581199646 0.0 -1.7963194847106934
v -6.0069499015808105 0.0 -2.4832539558410645
v -5.691769123077393 0.0 -3.139070749282837
v -5.305264472961426 0.0 -3.755552053451538
v -4.852279186248779 0.0 -4.324972152709961
v -4.3384904861450195 0.0 -4.84019660949707
v -3.7703359127044678 0.0 -5.2947678565979
v -3.154935121536255 0.0 -5.682990550994873
v -2.5 0.0 -6.0
v -2.5 -12.5 -6.0
v -3.154935121536255 -12.5 -5.682990550994873
v -3.7703359127044678 -12.5 -5.2947678565979
v -4.3384904861450195 -12.5 -4.84019660949707
v -4.852279186248779 -12.5 -4.324972152709961
v -5.305264472961426 -12.5 -3.755552053451538
v -5.691769123077393 -12.5 -3.139070749282837
v -6.0069499015808105 -12.5 -2.4832539558410645
v -6.2468581199646 -12.5 -1.7963194847106934
v -6.408486843109131 -12.5 -1.0868752002716064
v -6.489810466766357 -12.5 -0.3638113737106323
v -6.489810466766357 -12.5 0.3638113737106323
v -6.408486843109131 -12.5 1.0868752002716064
v -6.2468581199646 -12.5 1.7963194847106934
v -6.0069499015808105 -12.5 2.4832539558410645
v -5.691769123077393 -12.5 3.139070749282837
v -5.305264472961426 -12.5 3.755552053451538
v -4.852279186248779 -12.5 4.324972152709961
v -4.3384904861450195 -12.5 4.84019660949707
v -3.7703359127044678 -12.5 5.2947678565979
v -3.154935121536255 -12.5 5.682990550994873
v -2.5 -12.5 6.0
v -2.5 0.0 -6.0
v -3.154935121536255 0.0 -5.682990550994873
v -3.7703359127044678 0.0 -5.2947678565979
v -4.3384904861450195 0.0 -4.84019660949707
v -4.852279186248779 0.0 -4.324972152709961
v -5.305264472961426 0.0 -3.755552053451538
v -5.691769123077393 0.0 -3.139070749282837
v -6.0069499015808105 0.0 -2.4832539558410645
v -6.2468581199646 0.0 -1.7963194847106934
v -6.408486843109131 0.0 -1.0868752002716064
v -6.489810466766357 0.0 -0.3638113737106323
v -6.489810466766357 0.0 0.3638113737106323
v -6.408486843109131 0.0 1.0868752002716064
v -6.2468581199646 0.0 1.7963194847106934
v -6.0069499015808105 0.0 2.4832539558410645
v -5.691769123077393 0.0 3.139070749282837
v -5.305264472961426 0.0 3.755552053451538
v -4.852279186248779 0.0 4.324972152709961
v -4.3384904861450195 0.0 4.84019660949707
v -3.7703359127044678 0.0 5.2947678565979
v -3.154935121536255 0.0 5.682990550994873
v -2.5 0.0 6.0
v 7.0 0.0 6.0
v 7.0 0.0 -6.0
v -2.5 -12.5 6.0
v -3.154935121536255 -12.5 5.682990550994873
v -3.7703359127044678 -12.5 5.2947678565979
v -4.3384904861450195 -12.5 4.84019660949707
v -4.852279186248779 -12.5 4.324972152709961
v -5.305264472961426 -12.5 3.755552053451538
v -5.691769123077393 -12.5 3.139070749282837
v -6.0069499015808105 -12.5 2.4832539558410645
v -6.2468581199646 -12.5 1.7963194847106934
v -6.408486843109131 -12.5 1.0868752002716064
v -6.489810466766357 -12.5 0.3638113737106323
v -6.489810466766357 -12.5 -0.3638113737106323
v -6.408486843109131 -12.5 -1.0868752002716064
v -6.2468581199646 -12.5 -1.7963194847106934
v -6.0069499015808105 -12.5 -2.4832539558410645
v -5.691769123077393 -12.5 -3.139070749282837
v -5.305264472961426 -12.5 -3.755552053451538
v -4.852279186248779 -12.5 -4.324972152709961
v -4.3384904861450195 -12.5 -4.84019660949707
v -3.7703359127044678 -12.5 -5.2947678565979
v -3.154935121536255 -12.5 -5.682990550994873
v -2.5 -12.5 -6.0
v 7.0 -12.5 -6.0
v 7.0 -12.5 6.0
vn 0.0 0.0 1.0
vn 0.0 0.0 1.0
vn 0.0 0.0 1.0
vn 0.0 0.0 1.0
vn 1.0 0.0 -0.0
vn 1.0 0.0 -0.0
vn 1.0 0.0 -0.0
vn 1.0 0.0 -0.0
vn -0.0 -0.0 -1.0
vn -0.0 -0.0 -1.0
vn -0.0 -0.0 -1.0
vn -0.0 -0.0 -1.0
vn -0.38461539149284363 -0.0 0.9230769276618958
vn -0.4853746294975281 -0.0 0.8743062615394592
vn -0.5800516605377197 -0.0 0.8145796656608582
vn -0.6674600839614868 -0.0 0.7446455955505371
vn -0.7465044856071472 -0.0 0.6653803586959839
vn -0.816194474697113 -0.0 0.5777772068977356
vn -0.87565678358078 -0.0 0.48293396830558777
vn -0.9241461753845215 -0.0 0.38203907012939453
vn -0.9610550999641418 -0.0 0.27635684609413147
vn -0.9859210252761841 -0.0 0.16721157729625702
vn -0.9984323978424072 -0.0 0.05597098171710968
vn -0.9984323978424072 -0.0 -0.05597098171710968
vn -0.9859210252761841 -0.0 -0.16721157729625702
vn -0.9610550999641418 -0.0 -0.27635684609413147
vn -0.9241461753845215 -0.0 -0.38203907012939453
vn -0.87565678358078 -0.0 -0.48293396830558777
vn -0.816194474697113 -0.0 -0.5777772068977356
vn -0.7465044856071472 -0.0 -0.6653803586959839
vn -0.6674600839614868 -0.0 -0.7446455955505371
vn -0.5800516605377197 -0.0 -0.8145796656608582
vn -0.4853746294975281 -0.0 -0.8743062615394592
vn -0.38461539149284363 -0.0 -0.9230769276618958
vn -0.38461539149284363 -0.0 -0.9230769276618958
vn -0.4853746294975281 -0.0 -0.8743062615394592
vn -0.5800516605377197 -0.0 -0.8145796656608582
vn -0.6674600839614868 -0.0 -0.7446455955505371
vn -0.7465044856071472 -0.0 -0.6653803586959839
vn -0.816194474697113 -0.0 -0.5777772068977356
vn -0.87565678358078 -0.0 -0.48293396830558777
vn -0.9241461753845215 -0.0 -0.38203907012939453
vn -0.9610550999641418 -0.0 -0.27635684609413147
vn -0.9859210252761841 -0.0 -0.16721157729625702
vn -0.9984323978424072 -0.0 -0.05597098171710968
vn -0.9984323978424072 -0.0 0.05597098171710968
vn -0.9859210252761841 -0.0 0.16721157729625702
vn -0.9610550999641418 -0.0 0.27635684609413147
vn -0.9241461753845215 -0.0 0.38203907012939453
vn -0.87565678358078 -0.0 0.48293396830558777
vn -0.816194474697113 -0.0 0.5777772068977356
vn -0.7465044856071472 -0.0 0.6653803586959839
vn -0.6674600839614868 -0.0 0.7446455955505371
vn -0.5800516605377197 -0.0 0.8145796656608582
vn -0.4853746294975281 -0.0 0.8743062615394592
vn -0.38461539149284363 -0.0 0.9230769276618958
vn 0.0 1.0 0.0
vn 0.0 1.0 0.0
vn 0.0 1.0 0.0
vn 0.0 1.0 0.0
vn 0.0 1.0 0.0
vn 0.0 1.0 0.0
vn 0.0 1.0 0.0
vn 0.0 1.0 0.0
vn 0.0 1.0 0.0
vn 0.0 1.0 0.0
vn 0.0 1.0 0.0
vn 0.0 1.0 0.0
vn 0.0 1.0 0.0
vn 0.0 1.0 0.0
vn 0.0 1.0 0.0
vn 0.0 1.0 0.0
vn 0.0 1.0 0.0
vn 0.0 1.0 0.0
vn 0.0 1.0 0.0
vn 0.0 1.0 0.0
vn 0.0 1.0 0.0
vn 0.0 1.0 0.0
vn 0.0 1.0 0.0
vn 0.0 1.0 0.0
vn -0.0 -1.0 -0.0
vn -0.0 -1.0 -0.0
vn -0.0 -1.0 -0.0
vn -0.0 -1.0 -0.0
vn -0.0 -1.0 -0.0
vn -0.0 -1.0 -0.0
vn -0.0 -1.0 -0.0
vn -0.0 -1.0 -0.0
vn -0.0 -1.0 -0.0
vn -0.0 -1.0 -0.0
vn -0.0 -1.0 -0.0
vn -0.0 -1.0 -0.0
vn -0.0 -1.0 -0.0
vn -0.0 -1.0 -0.0
vn -0.0 -1.0 -0.0
vn -0.0 -1.0 -0.0
vn -0.0 -1.0 -0.0
vn -0.0 -1.0 -0.0
vn -0.0 -1.0 -0.0
vn -0.0 -1.0 -0.0
vn -0.0 -1.0 -0.0
vn -0.0 -1.0 -0.0
vn -0.0 -1.0 -0.0
vn -0.0 -1.0 -0.0
g b62c270c-e2dc-11ea-ae6f-54bf646e7e1f
f 1//1 2//2 4//4
f 4//4 2//2 3//3
g b62c751c-e2dc-11ea-82ed-54bf646e7e1f
f 5//5 6//6 8//8
f 8//8 6//6 7//7
g b62c9c1c-e2dc-11ea-bf49-54bf646e7e1f
f 9//9 10//10 12//12
f 12//12 10//10 11//11
g b62cea40-e2dc-11ea-938a-54bf646e7e1f
f 56//56 13//13 55//55
f 55//55 13//13 14//14
f 55//55 14//14 54//54
f 54//54 14//14 15//15
f 54//54 15//15 53//53
f 53//53 15//15 16//16
f 53//53 16//16 52//52
f 52//52 16//16 17//17
f 52//52 17//17 51//51
f 51//51 17//17 18//18
f 51//51 18//18 50//50
f 50//50 18//18 19//19
f 50//50 19//19 49//49
f 49//49 19//19 20//20
f 49//49 20//20 48//48
f 48//48 20//20 21//21
f 48//48 21//21 47//47
f 47//47 21//21 22//22
f 47//47 22//22 46//46
f 46//46 22//22 23//23
f 46//46 23//23 45//45
f 45//45 23//23 24//24
f 45//45 24//24 44//44
f 44//44 24//24 25//25
f 44//44 25//25 43//43
f 43//43 25//25 26//26
f 43//43 26//26 42//42
f 42//42 26//26 27//27
f 42//42 27//27 41//41
f 41//41 27//27 28//28
f 41//41 28//28 40//40
f 40//40 28//28 29//29
f 40//40 29//29 39//39
f 39//39 29//29 30//30
f 39//39 30//30 38//38
f 38//38 30//30 31//31
f 38//38 31//31 37//37
f 37//37 31//31 32//32
f 37//37 32//32 36//36
f 36//36 32//32 33//33
f 36//36 33//33 35//35
f 35//35 33//33 34//34
g b62d385c-e2dc-11ea-ad5e-54bf646e7e1f
f 58//58 77//77 57//57
f 57//57 77//77 78//78
f 57//57 78//78 79//79
f 58//58 59//59 77//77
f 77//77 59//59 60//60
f 77//77 60//60 61//61
f 61//61 62//62 77//77
f 77//77 62//62 63//63
f 77//77 63//63 64//64
f 64//64 65//65 77//77
f 77//77 65//65 66//66
f 77//77 66//66 67//67
f 67//67 68//68 77//77
f 77//77 68//68 69//69
f 77//77 69//69 70//70
f 70//70 71//71 77//77
f 77//77 71//71 72//72
f 77//77 72//72 73//73
f 73//73 74//74 77//77
f 77//77 74//74 75//75
f 77//77 75//75 76//76
f 79//79 80//80 57//57
g b62d867a-e2dc-11ea-8197-54bf646e7e1f
f 104//104 81//81 102//102
f 102//102 81//81 82//82
f 102//102 82//82 101//101
f 101//101 82//82 100//100
f 100//100 82//82 99//99
f 99//99 82//82 98//98
f 98//98 82//82 97//97
f 97//97 82//82 96//96
f 96//96 82//82 95//95
f 95//95 82//82 94//94
f 94//94 82//82 93//93
f 93//93 82//82 92//92
f 92//92 82//82 91//91
f 91//91 82//82 90//90
f 90//90 82//82 89//89
f 89//89 82//82 88//88
f 88//88 82//82 87//87
f 87//87 82//82 86//86
f 86//86 82//82 85//85
f 85//85 82//82 84//84
f 84//84 82//82 83//83
f 102//102 103//103 104//104

# End of file