# WaveFront *.obj file
# Vertices: 96
# Triangles : 60

v 0.0 5.0 10.0
v 0.0 0.0 10.0
v 3.0 0.0 10.0
v 3.0 5.0 10.0
v 0.0 5.0 9.699999809265137
v 0.0 5.0 10.0
v 3.0 5.0 10.0
v 3.0 5.0 9.699999809265137
v 0.0 0.30000001192092896 9.699999809265137
v 0.0 5.0 9.699999809265137
v 3.0 5.0 9.699999809265137
v 3.0 0.30000001192092896 9.699999809265137
v 0.0 0.30000001192092896 6.150000095367432
v 0.0 0.30000001192092896 9.699999809265137
v 3.0 0.30000001192092896 9.699999809265137
v 3.0 0.30000001192092896 6.150000095367432
v 0.0 6.300000190734863 6.150000095367432
v 0.0 0.30000001192092896 6.150000095367432
v 3.0 0.30000001192092896 6.150000095367432
v 3.0 6.300000190734863 6.150000095367432
v 0.0 6.300000190734863 6.0
v 0.0 6.300000190734863 6.150000095367432
v 3.0 6.300000190734863 6.150000095367432
v 3.0 6.300000190734863 6.0
v 0.0 0.30000001192092896 6.0
v 0.0 6.300000190734863 6.0
v 3.0 6.300000190734863 6.0
v 3.0 0.30000001192092896 6.0
v 0.0 0.30000001192092896 1.899999976158142
v 0.0 0.30000001192092896 6.0
v 3.0 0.30000001192092896 6.0
v 3.0 0.30000001192092896 1.899999976158142
v 0.0 6.300000190734863 1.899999976158142
v 0.0 0.30000001192092896 1.899999976158142
v 3.0 0.30000001192092896 1.899999976158142
v 3.0 6.300000190734863 1.899999976158142
v 0.0 6.300000190734863 1.7000000476837158
v 0.0 6.300000190734863 1.899999976158142
v 3.0 6.300000190734863 1.899999976158142
v 3.0 6.300000190734863 1.7000000476837158
v 0.0 0.30000001192092896 1.7000000476837158
v 0.0 6.300000190734863 1.7000000476837158
v 3.0 6.300000190734863 1.7000000476837158
v 3.0 0.30000001192092896 1.7000000476837158
v 0.0 0.30000001192092896 0.30000001192092896
v 0.0 0.30000001192092896 1.7000000476837158
v 3.0 0.30000001192092896 1.7000000476837158
v 3.0 0.30000001192092896 0.30000001192092896
v 0.0 9.0 0.30000001192092896
v 0.0 0.30000001192092896 0.30000001192092896
v 3.0 0.30000001192092896 0.30000001192092896
v 3.0 9.0 0.30000001192092896
v 0.0 9.0 0.0
v 0.0 9.0 0.30000001192092896
v 3.0 9.0 0.30000001192092896
v 3.0 9.0 0.0
v 0.0 0.0 0.0
v 0.0 9.0 0.0
v 3.0 9.0 0.0
v 3.0 0.0 0.0
v 0.0 0.0 10.0
v 0.0 0.0 0.0
v 3.0 0.0 0.0
v 3.0 0.0 10.0
v 3.0 0.0 10.0
v 3.0 0.0 0.0
v 3.0 9.0 0.0
v 3.0 9.0 0.30000001192092896
v 3.0 0.30000001192092896 0.30000001192092896
v 3.0 0.30000001192092896 1.7000000476837158
v 3.0 6.300000190734863 1.7000000476837158
v 3.0 6.300000190734863 1.899999976158142
v 3.0 0.30000001192092896 1.899999976158142
v 3.0 0.30000001192092896 6.0
v 3.0 6.300000190734863 6.0
v 3.0 6.300000190734863 6.150000095367432
v 3.0 0.30000001192092896 6.150000095367432
v 3.0 0.30000001192092896 9.699999809265137
v 3.0 5.0 9.699999809265137
v 3.0 5.0 10.0
v 0.0 0.0 0.0
v 0.0 0.0 10.0
v 0.0 5.0 10.0
v 0.0 5.0 9.699999809265137
v 0.0 0.30000001192092896 9.699999809265137
v 0.0 0.30000001192092896 6.150000095367432
v 0.0 6.300000190734863 6.150000095367432
v 0.0 6.300000190734863 6.0
v 0.0 0.30000001192092896 6.0
v 0.0 0.30000001192092896 1.899999976158142
v 0.0 6.300000190734863 1.899999976158142
v 0.0 6.300000190734863 1.7000000476837158
v 0.0 0.30000001192092896 1.7000000476837158
v 0.0 0.30000001192092896 0.30000001192092896
v 0.0 9.0 0.30000001192092896
v 0.0 9.0 0.0
vn -0.0 0.0 1.0
vn -0.0 0.0 1.0
vn -0.0 0.0 1.0
vn -0.0 0.0 1.0
vn 0.0 1.0 0.0
vn 0.0 1.0 0.0
vn 0.0 1.0 0.0
vn 0.0 1.0 0.0
vn 0.0 0.0 -1.0
vn 0.0 0.0 -1.0
vn 0.0 0.0 -1.0
vn 0.0 0.0 -1.0
vn 0.0 1.0 -1.2509555635779884e-16
vn 0.0 1.0 -1.2509555635779884e-16
vn 0.0 1.0 -1.2509555635779884e-16
vn 0.0 1.0 -1.2509555635779884e-16
vn -0.0 0.0 1.0
vn -0.0 0.0 1.0
vn -0.0 0.0 1.0
vn -0.0 0.0 1.0
vn 0.0 1.0 0.0
vn 0.0 1.0 0.0
vn 0.0 1.0 0.0
vn 0.0 1.0 0.0
vn 0.0 0.0 -1.0
vn 0.0 0.0 -1.0
vn 0.0 0.0 -1.0
vn 0.0 0.0 -1.0
vn 0.0 1.0 -1.2185374951041982e-16
vn 0.0 1.0 -1.2185374951041982e-16
vn 0.0 1.0 -1.2185374951041982e-16
vn 0.0 1.0 -1.2185374951041982e-16
vn 0.0 -7.401487051415874e-17 1.0
vn 0.0 -7.401487051415874e-17 1.0
vn 0.0 -7.401487051415874e-17 1.0
vn 0.0 -7.401487051415874e-17 1.0
vn 0.0 1.0 0.0
vn 0.0 1.0 0.0
vn 0.0 1.0 0.0
vn 0.0 1.0 0.0
vn 0.0 -7.401487051415874e-17 -1.0
vn 0.0 -7.401487051415874e-17 -1.0
vn 0.0 -7.401487051415874e-17 -1.0
vn 0.0 -7.401487051415874e-17 -1.0
vn 0.0 1.0 -1.1895246314272683e-16
vn 0.0 1.0 -1.1895246314272683e-16
vn 0.0 1.0 -1.1895246314272683e-16
vn 0.0 1.0 -1.1895246314272683e-16
vn -0.0 0.0 1.0
vn -0.0 0.0 1.0
vn -0.0 0.0 1.0
vn -0.0 0.0 1.0
vn 0.0 1.0 0.0
vn 0.0 1.0 0.0
vn 0.0 1.0 0.0
vn 0.0 1.0 0.0
vn 0.0 0.0 -1.0
vn 0.0 0.0 -1.0
vn 0.0 0.0 -1.0
vn 0.0 0.0 -1.0
vn 0.0 -1.0 0.0
vn 0.0 -1.0 0.0
vn 0.0 -1.0 0.0
vn 0.0 -1.0 0.0
vn 1.0 0.0 0.0
vn 1.0 0.0 0.0
vn 1.0 0.0 0.0
vn 1.0 0.0 0.0
vn 1.0 0.0 0.0
vn 1.0 0.0 0.0
vn 1.0 0.0 0.0
vn 1.0 0.0 0.0
vn 1.0 0.0 0.0
vn 1.0 0.0 0.0
vn 1.0 0.0 0.0
vn 1.0 0.0 0.0
vn 1.0 0.0 0.0
vn 1.0 0.0 0.0
vn 1.0 0.0 0.0
vn 1.0 0.0 0.0
vn -1.0 -0.0 -0.0
vn -1.0 -0.0 -0.0
vn -1.0 -0.0 -0.0
vn -1.0 -0.0 -0.0
vn -1.0 -0.0 -0.0
vn -1.0 -0.0 -0.0
vn -1.0 -0.0 -0.0
vn -1.0 -0.0 -0.0
vn -1.0 -0.0 -0.0
vn -1.0 -0.0 -0.0
vn -1.0 -0.0 -0.0
vn -1.0 -0.0 -0.0
vn -1.0 -0.0 -0.0
vn -1.0 -0.0 -0.0
vn -1.0 -0.0 -0.0
vn -1.0 -0.0 -0.0
g 4b0b2da7-e2de-11ea-a7e1-54bf646e7e1f
f 1//1 2//2 4//4
f 4//4 2//2 3//3
g 4b0b54a8-e2de-11ea-b2f3-54bf646e7e1f
f 5//5 6//6 8//8
f 8//8 6//6 7//7
g 4b0b7b90-e2de-11ea-afe8-54bf646e7e1f
f 9//9 10//10 12//12
f 12//12 10//10 11//11
g 4b0ba2b8-e2de-11ea-845a-54bf646e7e1f
f 13//13 14//14 16//16
f 16//16 14//14 15//15
g 4b0bf0a8-e2de-11ea-b53b-54bf646e7e1f
f 17//17 18//18 20//20
f 20//20 18//18 19//19
g 4b0c17ee-e2de-11ea-9828-54bf646e7e1f
f 21//21 22//22 24//24
f 24//24 22//22 23//23
g 4b0c3eee-e2de-11ea-83dd-54bf646e7e1f
f 25//25 26//26 28//28
f 28//28 26//26 27//27
g 4b0c8cd8-e2de-11ea-9007-54bf646e7e1f
f 29//29 30//30 32//32
f 32//32 30//30 31//31
g 4b0cdb0c-e2de-11ea-9e8b-54bf646e7e1f
f 33//33 34//34 36//36
f 36//36 34//34 35//35
g 4b0d021c-e2de-11ea-bb84-54bf646e7e1f
f 37//37 38//38 40//40
f 40//40 38//38 39//39
g 4b0d500a-e2de-11ea-8c44-54bf646e7e1f
f 41//41 42//42 44//44
f 44//44 42//42 43//43
g 4b0d9e3e-e2de-11ea-b671-54bf646e7e1f
f 45//45 46//46 48//48
f 48//48 46//46 47//47
g 4b0dec30-e2de-11ea-8cf5-54bf646e7e1f
f 49//49 50//50 52//52
f 52//52 50//50 51//51
g 4b0e6170-e2de-11ea-be89-54bf646e7e1f
f 53//53 54//54 56//56
f 56//56 54//54 55//55
g 4b0eaf9c-e2de-11ea-9a98-54bf646e7e1f
f 57//57 58//58 60//60
f 60//60 58//58 59//59
g 4b0f2474-e2de-11ea-8ef3-54bf646e7e1f
f 61//61 62//62 64//64
f 64//64 62//62 63//63
g 4b0f72b8-e2de-11ea-91f6-54bf646e7e1f
f 66//66 74//74 65//65
f 65//65 74//74 77//77
f 65//65 77//77 78//78
f 67//67 69//69 66//66
f 66//66 69//69 70//70
f 66//66 70//70 73//73
f 73//73 70//70 72//72
f 72//72 70//70 71//71
f 67//67 68//68 69//69
f 73//73 74//74 66//66
f 75//75 76//76 74//74
f 74//74 76//76 77//77
f 79//79 80//80 78//78
f 78//78 80//80 65//65
g 4b100ed4-e2de-11ea-81a7-54bf646e7e1f
f 82//82 89//89 81//81
f 81//81 89//89 90//90
f 81//81 90//90 93//93
f 93//93 90//90 92//92
f 92//92 90//90 91//91
f 83//83 85//85 82//82
f 82//82 85//85 86//86
f 82//82 86//86 89//89
f 89//89 86//86 88//88
f 88//88 86//86 87//87
f 83//83 84//84 85//85
f 93//93 94//94 81//81
f 81//81 94//94 96//96
f 96//96 94//94 95//95

# End of file