# WaveFront *.obj file
# Vertices: 34
# Triangles : 18

v -7.0 0.0 -5.0
v -8.5 1.5 -5.0
v -8.5 1.5 -3.5
v -7.0 0.0 -3.5
v -7.0 0.0 -3.5
v -8.5 1.5 -3.5
v -7.0 1.5 -3.5
v -7.0 0.0 -3.5
v -7.0 1.5 -3.5
v -7.0 1.5 -1.0
v -7.0 0.0 -1.0
v -7.0 1.5 -3.5
v -8.5 1.5 -3.5
v -8.5 1.5 -5.0
v -15.0 1.5 -5.0
v -15.0 1.5 -1.0
v -7.0 1.5 -1.0
v -8.5 1.5 -5.0
v -7.0 0.0 -5.0
v -15.0 0.0 -5.0
v -15.0 1.5 -5.0
v -15.0 0.0 -1.0
v -7.0 0.0 -1.0
v -7.0 1.5 -1.0
v -15.0 1.5 -1.0
v -15.0 0.0 -5.0
v -15.0 0.0 -1.0
v -15.0 1.5 -1.0
v -15.0 1.5 -5.0
v -15.0 0.0 -1.0
v -15.0 0.0 -5.0
v -7.0 0.0 -5.0
v -7.0 0.0 -3.5
v -7.0 0.0 -1.0
vn 0.7071067690849304 0.7071067690849304 -0.0
vn 0.7071067690849304 0.7071067690849304 -0.0
vn 0.7071067690849304 0.7071067690849304 -0.0
vn 0.7071067690849304 0.7071067690849304 -0.0
vn -0.0 -0.0 -1.0
vn -0.0 -0.0 -1.0
vn -0.0 -0.0 -1.0
vn 1.0 -0.0 0.0
vn 1.0 -0.0 0.0
vn 1.0 -0.0 0.0
vn 1.0 -0.0 0.0
vn 0.0 1.0 0.0
vn 0.0 1.0 0.0
vn 0.0 1.0 0.0
vn 0.0 1.0 0.0
vn 0.0 1.0 0.0
vn 0.0 1.0 0.0
vn 0.0 0.0 -1.0
vn 0.0 0.0 -1.0
vn 0.0 0.0 -1.0
vn 0.0 0.0 -1.0
vn 0.0 0.0 1.0
vn 0.0 0.0 1.0
vn 0.0 0.0 1.0
vn 0.0 0.0 1.0
vn -1.0 0.0 0.0
vn -1.0 0.0 0.0
vn -1.0 0.0 0.0
vn -1.0 0.0 0.0
vn -0.0 -1.0 -0.0
vn -0.0 -1.0 -0.0
vn -0.0 -1.0 -0.0
vn -0.0 -1.0 -0.0
vn -0.0 -1.0 -0.0
g dba4282c-e2de-11ea-b43f-54bf646e7e1f
f 1//1 2//2 4//4
f 4//4 2//2 3//3
g dba49d36-e2de-11ea-b5d4-54bf646e7e1f
f 5//5 6//6 7//7
g db709bd2-e2de-11ea-bbb9-54bf646e7e1f
f 9//9 10//10 8//8
f 8//8 10//10 11//11
g db7110f4-e2de-11ea-bb1a-54bf646e7e1f
f 12//12 13//13 17//17
f 17//17 13//13 16//16
f 16//16 13//13 15//15
f 15//15 13//13 14//14
g db7074ca-e2de-11ea-a9c0-54bf646e7e1f
f 19//19 20//20 18//18
f 18//18 20//20 21//21
g db70c2ca-e2de-11ea-a9d7-54bf646e7e1f
f 22//22 23//23 25//25
f 25//25 23//23 24//24
g db70e9c6-e2de-11ea-adcc-54bf646e7e1f
f 26//26 27//27 29//29
f 29//29 27//27 28//28
g db7137e8-e2de-11ea-a0e6-54bf646e7e1f
f 34//34 30//30 33//33
f 33//33 30//30 31//31
f 33//33 31//31 32//32

# End of file