# WaveFront *.obj file
# Vertices: 140
# Triangles : 112

v 0.699999988079071 0.8242406845092773 0.1658218950033188
v 0.0 0.8242406845092773 0.1658218950033188
v 0.0 6.559801661385606e-16 0.1658218950033188
v 2.0 6.559801661385606e-16 0.1658218950033188
v 2.0 0.8242406845092773 0.1658218950033188
v 1.600502371788025 0.8242406845092773 0.1658218950033188
v 1.5788251161575317 0.847093403339386 0.1658218950033188
v 0.699999988079071 0.847093403339386 0.1658218950033188
v 0.699999988079071 0.8242406845092773 0.1658218950033188
v 0.699999988079071 0.847093403339386 0.1658218950033188
v 0.699999988079071 0.8764196038246155 0.17090947926044464
v 0.699999988079071 0.9047905802726746 0.17990928888320923
v 0.699999988079071 0.9316869974136353 0.19265656173229218
v 0.699999988079071 0.9316869974136353 0.015312910079956055
v 0.699999988079071 0.8964072465896606 0.006831066682934761
v 0.699999988079071 0.8604852557182312 0.0017115749651566148
v 0.699999988079071 0.8242406845092773 0.0
v 0.0 6.559801661385606e-16 0.1658218950033188
v 0.0 9.860761315262648e-32 0.0
v 2.0 9.860761315262648e-32 0.0
v 2.0 6.559801661385606e-16 0.1658218950033188
v 0.0 0.8242406845092773 0.1658218950033188
v 0.699999988079071 0.8242406845092773 0.1658218950033188
v 0.699999988079071 0.8242406845092773 0.0
v 0.0 0.8242406845092773 0.0
v 0.0 9.860761315262648e-32 0.0
v 0.0 0.8242406845092773 0.0
v 0.699999988079071 0.8242406845092773 0.0
v 1.600502371788025 0.8242406845092773 0.0
v 2.0 0.8242406845092773 0.0
v 2.0 9.860761315262648e-32 0.0
v 2.0 0.8242406845092773 0.1658218950033188
v 2.0 6.559801661385606e-16 0.1658218950033188
v 2.0 9.860761315262648e-32 0.0
v 2.0 0.8242406845092773 0.0
v 0.0 0.8242406845092773 0.0
v 0.0 9.860761315262648e-32 0.0
v 0.0 6.559801661385606e-16 0.1658218950033188
v 0.0 0.8242406845092773 0.1658218950033188
v 2.0 0.8242406845092773 0.0
v 1.600502371788025 0.8242406845092773 0.0
v 1.600502371788025 0.8242406845092773 0.1658218950033188
v 2.0 0.8242406845092773 0.1658218950033188
v 0.699999988079071 0.8242406845092773 0.0
v 0.699999988079071 0.8604852557182312 0.0017115749651566148
v 0.699999988079071 0.8964072465896606 0.006831066682934761
v 0.699999988079071 0.9316869974136353 0.015312910079956055
v 0.4180639386177063 0.9316869974136353 0.015312910079956055
v 0.4180639386177063 0.986797034740448 0.03604042902588844
v 0.4180639386177063 1.038097620010376 0.06493685394525528
v 0.4180639386177063 1.0843863487243652 0.10132500529289246
v 0.4180639386177063 1.124578595161438 0.14435210824012756
v 0.4180639386177063 1.157732367515564 0.19300983846187592
v 0.4180639386177063 1.1830707788467407 0.24615788459777832
v 0.4180639386177063 1.2000000476837158 0.30255070328712463
v 1.24406898021698 1.2000000476837158 0.30255070328712463
v 1.2519361972808838 1.1917061805725098 0.27104297280311584
v 1.2623047828674316 1.18077552318573 0.24035024642944336
v 1.2751001119613647 1.1672863960266113 0.21069273352622986
v 1.2902305126190186 1.151335597038269 0.18228328227996826
v 1.3075873851776123 1.1330376863479614 0.1553257405757904
v 1.3270461559295654 1.1125239133834839 0.13001355528831482
v 1.348467230796814 1.089941382408142 0.1065283715724945
v 1.3716968297958374 1.065452218055725 0.08503870666027069
v 1.3965682983398438 1.0392321348190308 0.0656987726688385
v 1.4229031801223755 1.0114693641662598 0.04864734411239624
v 1.4505125284194946 0.9823630452156067 0.03400678560137749
v 1.4791982173919678 0.9521220326423645 0.021882152184844017
v 1.5087542533874512 0.9209634065628052 0.012360449880361557
v 1.538968801498413 0.8891106843948364 0.005510006099939346
v 1.5696247816085815 0.8567924499511719 0.0013799770968034863
v 1.600502371788025 0.8242406845092773 0.0
v 1.600502371788025 0.8242406845092773 0.0
v 1.5696247816085815 0.8567924499511719 0.0013799770968034863
v 1.538968801498413 0.8891106843948364 0.005510006099939346
v 1.5087542533874512 0.9209634065628052 0.012360449880361557
v 1.4791982173919678 0.9521220326423645 0.021882152184844017
v 1.4505125284194946 0.9823630452156067 0.03400678560137749
v 1.4229031801223755 1.0114693641662598 0.04864734411239624
v 1.3965682983398438 1.0392321348190308 0.0656987726688385
v 1.3716968297958374 1.065452218055725 0.08503870666027069
v 1.348467230796814 1.089941382408142 0.1065283715724945
v 1.3270461559295654 1.1125239133834839 0.13001355528831482
v 1.3075873851776123 1.1330376863479614 0.1553257405757904
v 1.2902305126190186 1.151335597038269 0.18228328227996826
v 1.2751001119613647 1.1672863960266113 0.21069273352622986
v 1.2623047828674316 1.18077552318573 0.24035024642944336
v 1.2519361972808838 1.1917061805725098 0.27104297280311584
v 1.24406898021698 1.2000000476837158 0.30255070328712463
v 1.3945024013519287 1.0414100885391235 0.34953391551971436
v 1.4026545286178589 1.032815933227539 0.3146899938583374
v 1.4160723686218262 1.0186705589294434 0.28170716762542725
v 1.4343986511230469 0.9993507266044617 0.2514631748199463
v 1.4571455717086792 0.9753703474998474 0.22476297616958618
v 1.4837079048156738 0.947367787361145 0.20231717824935913
v 1.5133787393569946 0.9160882830619812 0.1847231537103653
v 1.5453681945800781 0.8823642730712891 0.17244917154312134
v 1.5788251161575317 0.847093403339386 0.1658218950033188
v 1.600502371788025 0.8242406845092773 0.1658218950033188
v 0.4180639386177063 1.2000000476837158 0.30255070328712463
v 0.4180639386177063 1.0414100885391235 0.34953391551971436
v 1.3945024013519287 1.0414100885391235 0.34953391551971436
v 1.24406898021698 1.2000000476837158 0.30255070328712463
v 0.699999988079071 0.9316869974136353 0.19265656173229218
v 0.699999988079071 0.9047905802726746 0.17990928888320923
v 0.699999988079071 0.8764196038246155 0.17090947926044464
v 0.699999988079071 0.847093403339386 0.1658218950033188
v 1.5788251161575317 0.847093403339386 0.1658218950033188
v 1.5453681945800781 0.8823642730712891 0.17244917154312134
v 1.5133787393569946 0.9160882830619812 0.1847231537103653
v 1.4837079048156738 0.947367787361145 0.20231717824935913
v 1.4571455717086792 0.9753703474998474 0.22476297616958618
v 1.4343986511230469 0.9993507266044617 0.2514631748199463
v 1.4160723686218262 1.0186705589294434 0.28170716762542725
v 1.4026545286178589 1.032815933227539 0.3146899938583374
v 1.3945024013519287 1.0414100885391235 0.34953391551971436
v 0.4180639386177063 1.0414100885391235 0.34953391551971436
v 0.4180639386177063 1.0316154956817627 0.3112064599990845
v 0.4180639386177063 1.0151147842407227 0.27525290846824646
v 0.4180639386177063 0.992441713809967 0.24283592402935028
v 0.4180639386177063 0.9643294215202332 0.21500380337238312
v 0.4180639386177063 0.9316869974136353 0.19265656173229218
v 0.699999988079071 0.9316869974136353 0.19265656173229218
v 0.4180639386177063 0.9316869974136353 0.19265656173229218
v 0.4180639386177063 0.9316869974136353 0.015312910079956055
v 0.699999988079071 0.9316869974136353 0.015312910079956055
v 0.4180639386177063 0.9316869974136353 0.19265656173229218
v 0.4180639386177063 0.9643294215202332 0.21500380337238312
v 0.4180639386177063 0.992441713809967 0.24283592402935028
v 0.4180639386177063 1.0151147842407227 0.27525290846824646
v 0.4180639386177063 1.0316154956817627 0.3112064599990845
v 0.4180639386177063 1.0414100885391235 0.34953391551971436
v 0.4180639386177063 1.2000000476837158 0.30255070328712463
v 0.4180639386177063 1.1830707788467407 0.24615788459777832
v 0.4180639386177063 1.157732367515564 0.19300983846187592
v 0.4180639386177063 1.124578595161438 0.14435210824012756
v 0.4180639386177063 1.0843863487243652 0.10132500529289246
v 0.4180639386177063 1.038097620010376 0.06493685394525528
v 0.4180639386177063 0.986797034740448 0.03604042902588844
v 0.4180639386177063 0.9316869974136353 0.015312910079956055
vn 0.0 -9.829698900622438e-17 1.0
vn 0.0 -9.829698900622438e-17 1.0
vn 0.0 -9.829698900622438e-17 1.0
vn 0.0 -9.829698900622438e-17 1.0
vn 0.0 -9.829698900622438e-17 1.0
vn 0.0 -9.829698900622438e-17 1.0
vn 0.0 -9.829698900622438e-17 1.0
vn 0.0 -9.829698900622438e-17 1.0
vn -1.0 -3.9636774417866976e-16 -0.0
vn -1.0 -3.9636774417866976e-16 -0.0
vn -1.0 -3.9636774417866976e-16 -0.0
vn -1.0 -3.9636774417866976e-16 -0.0
vn -1.0 -3.9636774417866976e-16 -0.0
vn -1.0 -3.9636774417866976e-16 -0.0
vn -1.0 -3.9636774417866976e-16 -0.0
vn -1.0 -3.9636774417866976e-16 -0.0
vn -1.0 -3.9636774417866976e-16 -0.0
vn 0.0 -1.0 3.955932278396123e-15
vn 0.0 -1.0 3.955932278396123e-15
vn 0.0 -1.0 3.955932278396123e-15
vn 0.0 -1.0 3.955932278396123e-15
vn -0.0 1.0 -0.0
vn -0.0 1.0 -0.0
vn -0.0 1.0 -0.0
vn -0.0 1.0 -0.0
vn 0.0 0.0 -1.0
vn 0.0 0.0 -1.0
vn 0.0 0.0 -1.0
vn 0.0 0.0 -1.0
vn 0.0 0.0 -1.0
vn 0.0 0.0 -1.0
vn 1.0 0.0 0.0
vn 1.0 0.0 0.0
vn 1.0 0.0 0.0
vn 1.0 0.0 0.0
vn -1.0 -0.0 -0.0
vn -1.0 -0.0 -0.0
vn -1.0 -0.0 -0.0
vn -1.0 -0.0 -0.0
vn -0.0 1.0 -0.0
vn -0.0 1.0 -0.0
vn -0.0 1.0 -0.0
vn -0.0 1.0 -0.0
vn -0.0 0.0 -1.0
vn -0.0 0.09423566609621048 -0.9955499172210693
vn -0.0 0.18763260543346405 -0.982239305973053
vn -0.0 0.2793596088886261 -0.9601865410804749
vn -0.0 0.2793596088886261 -0.9601865410804749
vn -0.0 0.42264533042907715 -0.9062951803207397
vn -0.0 0.5560263395309448 -0.8311646580696106
vn -0.0 0.6763768196105957 -0.7365557551383972
vn -0.0 0.7808763384819031 -0.6246856451034546
vn -0.0 0.8670759797096252 -0.4981759190559387
vn -0.0 0.9329556226730347 -0.3599914312362671
vn -0.0 0.9769713282585144 -0.21337048709392548
vn -0.0 0.9769713282585144 -0.21337048709392548
vn -0.0 0.9554075598716736 -0.29529035091400146
vn -0.0 0.926987886428833 -0.37509122490882874
vn -0.0 0.8919162750244141 -0.4522005319595337
vn -0.0 0.8504444360733032 -0.5260648727416992
vn -0.0 0.8028699159622192 -0.5961542725563049
vn -0.0 0.7495340704917908 -0.6619657874107361
vn -0.0 0.6908196806907654 -0.7230270504951477
vn -0.0 0.6271480917930603 -0.7789000272750854
vn -0.0 0.5589761734008789 -0.8291836977005005
vn -0.0 0.4867931306362152 -0.8735172748565674
vn -0.0 0.41111692786216736 -0.9115826487541199
vn -0.0 0.33249059319496155 -0.9431065917015076
vn -0.0 0.2514783442020416 -0.9678629040718079
vn -0.0 0.16866153478622437 -0.9856740236282349
vn -0.0 0.08463443070650101 -0.9964120984077454
vn -0.0 0.0 -1.0
vn 0.7255178689956665 0.6882032752037048 0.0
vn 0.7255178689956665 0.6882032752037048 0.0
vn 0.7255178689956665 0.6882032752037048 0.0
vn 0.7255178689956665 0.6882032752037048 0.0
vn 0.7255178689956665 0.6882032752037048 0.0
vn 0.7255178689956665 0.6882032752037048 0.0
vn 0.7255178689956665 0.6882032752037048 0.0
vn 0.7255178689956665 0.6882032752037048 0.0
vn 0.7255178689956665 0.6882032752037048 0.0
vn 0.7255178689956665 0.6882032752037048 0.0
vn 0.7255178689956665 0.6882032752037048 0.0
vn 0.7255178689956665 0.6882032752037048 0.0
vn 0.7255178689956665 0.6882032752037048 0.0
vn 0.7255178689956665 0.6882032752037048 0.0
vn 0.7255178689956665 0.6882032752037048 0.0
vn 0.7255178689956665 0.6882032752037048 0.0
vn 0.7255178689956665 0.6882032752037048 0.0
vn 0.7255178689956665 0.6882032752037048 0.0
vn 0.7255178689956665 0.6882032752037048 0.0
vn 0.7255178689956665 0.6882032752037048 0.0
vn 0.7255178689956665 0.6882032752037048 0.0
vn 0.7255178689956665 0.6882032752037048 0.0
vn 0.7255178689956665 0.6882032752037048 0.0
vn 0.7255178689956665 0.6882032752037048 0.0
vn 0.7255178689956665 0.6882032752037048 0.0
vn 0.7255178689956665 0.6882032752037048 0.0
vn 0.7255178689956665 0.6882032752037048 0.0
vn -0.0 0.28405269980430603 0.9588086605072021
vn -0.0 0.28405269980430603 0.9588086605072021
vn -0.0 0.28405269980430603 0.9588086605072021
vn -0.0 0.28405269980430603 0.9588086605072021
vn 0.0 -0.48842597007751465 0.8726053237915039
vn 0.0 -0.36616113781929016 0.9305514693260193
vn 0.0 -0.23719321191310883 0.9714624881744385
vn 0.0 -0.10388312488794327 0.9945895075798035
vn 0.0 -0.10388312488794327 0.9945895075798035
vn 0.0 -0.26421645283699036 0.9644634127616882
vn 0.0 -0.4175178110599518 0.9086687564849854
vn 0.0 -0.5597072243690491 0.8286904096603394
vn 0.0 -0.6870003938674927 0.7266570925712585
vn 0.0 -0.7960094809532166 0.6052842140197754
vn 0.0 -0.8838332295417786 0.4678020775318146
vn 0.0 -0.9481344223022461 0.3178696930408478
vn 0.0 -0.9872015714645386 0.15947742760181427
vn 0.0 -0.9872015714645386 0.15947742760181427
vn 0.0 -0.9426774978637695 0.3337051272392273
vn 0.0 -0.8676694631576538 0.497141569852829
vn 0.0 -0.7646029591560364 0.6445016264915466
vn 0.0 -0.6368109583854675 0.7710199952125549
vn 0.0 -0.48842597007751465 0.8726053237915039
vn 0.0 -1.0 -0.0
vn 0.0 -1.0 -0.0
vn 0.0 -1.0 -0.0
vn 0.0 -1.0 -0.0
vn -1.0 0.0 -0.0
vn -1.0 0.0 -0.0
vn -1.0 0.0 -0.0
vn -1.0 0.0 -0.0
vn -1.0 0.0 -0.0
vn -1.0 0.0 -0.0
vn -1.0 0.0 -0.0
vn -1.0 0.0 -0.0
vn -1.0 0.0 -0.0
vn -1.0 0.0 -0.0
vn -1.0 0.0 -0.0
vn -1.0 0.0 -0.0
vn -1.0 0.0 -0.0
vn -1.0 0.0 -0.0
f 2//2 3//3 1//1
f 1//1 3//3 4//4
f 1//1 4//4 6//6
f 6//6 4//4 5//5
f 6//6 7//7 1//1
f 1//1 7//7 8//8
f 9//9 10//10 17//17
f 17//17 10//10 16//16
f 16//16 10//10 15//15
f 15//15 10//10 11//11
f 15//15 11//11 14//14
f 14//14 11//11 12//12
f 14//14 12//12 13//13
f 18//18 19//19 21//21
f 21//21 19//19 20//20
f 22//22 23//23 25//25
f 25//25 23//23 24//24
f 27//27 28//28 26//26
f 26//26 28//28 31//31
f 31//31 28//28 29//29
f 31//31 29//29 30//30
f 33//33 34//34 32//32
f 32//32 34//34 35//35
f 37//37 38//38 36//36
f 36//36 38//38 39//39
f 40//40 41//41 43//43
f 43//43 41//41 42//42
f 72//72 44//44 71//71
f 71//71 44//44 45//45
f 71//71 45//45 70//70
f 70//70 45//45 46//46
f 70//70 46//46 69//69
f 69//69 46//46 47//47
f 69//69 47//47 68//68
f 68//68 47//47 49//49
f 68//68 49//49 67//67
f 67//67 49//49 66//66
f 66//66 49//49 50//50
f 66//66 50//50 65//65
f 65//65 50//50 64//64
f 64//64 50//50 51//51
f 64//64 51//51 63//63
f 63//63 51//51 62//62
f 62//62 51//51 52//52
f 62//62 52//52 61//61
f 61//61 52//52 53//53
f 61//61 53//53 60//60
f 60//60 53//53 59//59
f 59//59 53//53 54//54
f 59//59 54//54 58//58
f 58//58 54//54 57//57
f 57//57 54//54 55//55
f 57//57 55//55 56//56
f 47//47 48//48 49//49
f 99//99 73//73 98//98
f 98//98 73//73 74//74
f 98//98 74//74 97//97
f 97//97 74//74 75//75
f 97//97 75//75 76//76
f 97//97 76//76 96//96
f 96//96 76//76 77//77
f 96//96 77//77 95//95
f 95//95 77//77 78//78
f 95//95 78//78 94//94
f 94//94 78//78 79//79
f 94//94 79//79 80//80
f 94//94 80//80 93//93
f 93//93 80//80 81//81
f 93//93 81//81 92//92
f 92//92 81//81 82//82
f 92//92 82//82 83//83
f 92//92 83//83 91//91
f 91//91 83//83 84//84
f 91//91 84//84 85//85
f 91//91 85//85 90//90
f 90//90 85//85 86//86
f 90//90 86//86 87//87
f 87//87 88//88 90//90
f 90//90 88//88 89//89
f 100//100 101//101 103//103
f 103//103 101//101 102//102
f 105//105 110//110 104//104
f 104//104 110//110 111//111
f 104//104 111//111 122//122
f 122//122 111//111 121//121
f 121//121 111//111 112//112
f 121//121 112//112 120//120
f 120//120 112//112 113//113
f 120//120 113//113 119//119
f 119//119 113//113 114//114
f 119//119 114//114 118//118
f 118//118 114//114 115//115
f 118//118 115//115 117//117
f 117//117 115//115 116//116
f 110//110 105//105 109//109
f 109//109 105//105 106//106
f 109//109 106//106 108//108
f 108//108 106//106 107//107
f 123//123 124//124 126//126
f 126//126 124//124 125//125
f 140//140 127//127 139//139
f 139//139 127//127 128//128
f 139//139 128//128 138//138
f 138//138 128//128 137//137
f 137//137 128//128 129//129
f 137//137 129//129 136//136
f 136//136 129//129 130//130
f 136//136 130//130 135//135
f 135//135 130//130 131//131
f 135//135 131//131 134//134
f 134//134 131//131 132//132
f 134//134 132//132 133//133

# End of file