# WaveFront *.obj file
# Vertices: 48
# Triangles : 28

v 0.6000000238418579 0.20000000298023224 -0.6499999761581421
v 0.6000000238418579 9.71445146547012e-16 -0.6499999761581421
v 0.4749999940395355 6.494804694057166e-15 -0.6499999761581421
v 0.4749999940395355 0.10000000149011612 -0.6499999761581421
v -0.4749999940395355 0.10000000149011612 -0.6499999761581421
v -0.4749999940395355 5.6343818499726694e-15 -0.6499999761581421
v -0.6000000238418579 1.1934897514720433e-15 -0.6499999761581421
v -0.6000000238418579 0.20000000298023224 -0.6499999761581421
v 0.6000000238418579 9.71445146547012e-16 -0.6499999761581421
v 0.6000000238418579 9.71445146547012e-16 0.6499999761581421
v 0.4749999940395355 6.494804694057166e-15 0.6499999761581421
v 0.4749999940395355 6.494804694057166e-15 -0.6499999761581421
v 0.4749999940395355 6.494804694057166e-15 -0.6499999761581421
v 0.4749999940395355 6.494804694057166e-15 0.6499999761581421
v 0.4749999940395355 0.10000000149011612 0.6499999761581421
v 0.4749999940395355 0.10000000149011612 -0.6499999761581421
v 0.4749999940395355 0.10000000149011612 -0.6499999761581421
v 0.4749999940395355 0.10000000149011612 0.6499999761581421
v -0.4749999940395355 0.10000000149011612 0.6499999761581421
v -0.4749999940395355 0.10000000149011612 -0.6499999761581421
v -0.4749999940395355 0.10000000149011612 -0.6499999761581421
v -0.4749999940395355 0.10000000149011612 0.6499999761581421
v -0.4749999940395355 5.6343818499726694e-15 0.6499999761581421
v -0.4749999940395355 5.6343818499726694e-15 -0.6499999761581421
v -0.4749999940395355 5.6343818499726694e-15 -0.6499999761581421
v -0.4749999940395355 5.6343818499726694e-15 0.6499999761581421
v -0.6000000238418579 1.1934897514720433e-15 0.6499999761581421
v -0.6000000238418579 1.1934897514720433e-15 -0.6499999761581421
v -0.6000000238418579 1.1934897514720433e-15 -0.6499999761581421
v -0.6000000238418579 1.1934897514720433e-15 0.6499999761581421
v -0.6000000238418579 0.20000000298023224 0.6499999761581421
v -0.6000000238418579 0.20000000298023224 -0.6499999761581421
v -0.6000000238418579 0.20000000298023224 -0.6499999761581421
v -0.6000000238418579 0.20000000298023224 0.6499999761581421
v 0.6000000238418579 0.20000000298023224 0.6499999761581421
v 0.6000000238418579 0.20000000298023224 -0.6499999761581421
v 0.6000000238418579 0.20000000298023224 -0.6499999761581421
v 0.6000000238418579 0.20000000298023224 0.6499999761581421
v 0.6000000238418579 9.71445146547012e-16 0.6499999761581421
v 0.6000000238418579 9.71445146547012e-16 -0.6499999761581421
v 0.6000000238418579 9.71445146547012e-16 0.6499999761581421
v 0.6000000238418579 0.20000000298023224 0.6499999761581421
v -0.6000000238418579 0.20000000298023224 0.6499999761581421
v -0.6000000238418579 1.1934897514720433e-15 0.6499999761581421
v -0.4749999940395355 5.6343818499726694e-15 0.6499999761581421
v -0.4749999940395355 0.10000000149011612 0.6499999761581421
v 0.4749999940395355 0.10000000149011612 0.6499999761581421
v 0.4749999940395355 6.494804694057166e-15 0.6499999761581421
vn 0.0 0.0 -1.0
vn 0.0 0.0 -1.0
vn 0.0 0.0 -1.0
vn 0.0 0.0 -1.0
vn 0.0 0.0 -1.0
vn 0.0 0.0 -1.0
vn 0.0 0.0 -1.0
vn 0.0 0.0 -1.0
vn -4.430015856644702e-14 -1.0 0.0
vn -4.430015856644702e-14 -1.0 0.0
vn -4.430015856644702e-14 -1.0 0.0
vn -4.430015856644702e-14 -1.0 0.0
vn -1.0 0.0 0.0
vn -1.0 0.0 0.0
vn -1.0 0.0 0.0
vn -1.0 0.0 0.0
vn 2.6294756125014545e-16 -1.0 0.0
vn 2.6294756125014545e-16 -1.0 0.0
vn 2.6294756125014545e-16 -1.0 0.0
vn 2.6294756125014545e-16 -1.0 0.0
vn 1.0 0.0 -0.0
vn 1.0 0.0 -0.0
vn 1.0 0.0 -0.0
vn 1.0 0.0 -0.0
vn 3.544935544652454e-14 -1.0 0.0
vn 3.544935544652454e-14 -1.0 0.0
vn 3.544935544652454e-14 -1.0 0.0
vn 3.544935544652454e-14 -1.0 0.0
vn -1.0 0.0 0.0
vn -1.0 0.0 0.0
vn -1.0 0.0 0.0
vn -1.0 0.0 0.0
vn -7.864079934226723e-16 1.0 0.0
vn -7.864079934226723e-16 1.0 0.0
vn -7.864079934226723e-16 1.0 0.0
vn -7.864079934226723e-16 1.0 0.0
vn 1.0 0.0 -0.0
vn 1.0 0.0 -0.0
vn 1.0 0.0 -0.0
vn 1.0 0.0 -0.0
vn 0.0 0.0 1.0
vn 0.0 0.0 1.0
vn 0.0 0.0 1.0
vn 0.0 0.0 1.0
vn 0.0 0.0 1.0
vn 0.0 0.0 1.0
vn 0.0 0.0 1.0
vn 0.0 0.0 1.0
g 0891a89e-e2e1-11ea-9f88-54bf646e7e1f
f 2//2 4//4 1//1
f 1//1 4//4 5//5
f 1//1 5//5 8//8
f 8//8 5//5 7//7
f 7//7 5//5 6//6
f 2//2 3//3 4//4
g 0893f24a-e2e1-11ea-a888-54bf646e7e1f
f 10//10 11//11 9//9
f 9//9 11//11 12//12
g 08948ea4-e2e1-11ea-a60f-54bf646e7e1f
f 14//14 15//15 13//13
f 13//13 15//15 16//16
g 08952ada-e2e1-11ea-b4f3-54bf646e7e1f
f 18//18 19//19 17//17
f 17//17 19//19 20//20
g 0895c70a-e2e1-11ea-baf3-54bf646e7e1f
f 22//22 23//23 21//21
f 21//21 23//23 24//24
g 08966340-e2e1-11ea-b061-54bf646e7e1f
f 26//26 27//27 25//25
f 25//25 27//27 28//28
g 0896ff4c-e2e1-11ea-aa86-54bf646e7e1f
f 30//30 31//31 29//29
f 29//29 31//31 32//32
g 0897c2be-e2e1-11ea-b9f8-54bf646e7e1f
f 34//34 35//35 33//33
f 33//33 35//35 36//36
g 08985ee6-e2e1-11ea-bfdd-54bf646e7e1f
f 38//38 39//39 37//37
f 37//37 39//39 40//40
g 08992222-e2e1-11ea-a0f7-54bf646e7e1f
f 48//48 41//41 47//47
f 47//47 41//41 42//42
f 47//47 42//42 43//43
f 47//47 43//43 46//46
f 46//46 43//43 44//44
f 46//46 44//44 45//45

# End of file