# WaveFront *.obj file
# Vertices: 24
# Triangles : 12

v 1.05583918094635 0.0 -0.599025309085846
v 1.0 0.0 1.0
v 1.0 0.10000000149011612 1.0
v 1.05583918094635 0.10000000149011612 -0.599025309085846
v 1.5432761907577515 0.0 -0.5989941954612732
v 1.05583918094635 0.0 -0.599025309085846
v 1.05583918094635 0.10000000149011612 -0.599025309085846
v 1.5432761907577515 0.10000000149011612 -0.5989941954612732
v 1.600000023841858 0.0 1.0
v 1.5432761907577515 0.0 -0.5989941954612732
v 1.5432761907577515 0.10000000149011612 -0.5989941954612732
v 1.600000023841858 0.10000000149011612 1.0
v 1.0 0.0 1.0
v 1.600000023841858 0.0 1.0
v 1.600000023841858 0.10000000149011612 1.0
v 1.0 0.10000000149011612 1.0
v 1.0 0.10000000149011612 1.0
v 1.600000023841858 0.10000000149011612 1.0
v 1.5432761907577515 0.10000000149011612 -0.5989941954612732
v 1.05583918094635 0.10000000149011612 -0.599025309085846
v 1.600000023841858 0.0 1.0
v 1.0 0.0 1.0
v 1.05583918094635 0.0 -0.599025309085846
v 1.5432761907577515 0.0 -0.5989941954612732
vn -0.9993908405303955 0.0 -0.03489949554204941
vn -0.9993908405303955 0.0 -0.03489949554204941
vn -0.9993908405303955 0.0 -0.03489949554204941
vn -0.9993908405303955 0.0 -0.03489949554204941
vn 6.387667963281274e-05 0.0 -1.0
vn 6.387667963281274e-05 0.0 -1.0
vn 6.387667963281274e-05 0.0 -1.0
vn 6.387667963281274e-05 0.0 -1.0
vn 0.999371349811554 0.0 -0.03545236960053444
vn 0.999371349811554 0.0 -0.03545236960053444
vn 0.999371349811554 0.0 -0.03545236960053444
vn 0.999371349811554 0.0 -0.03545236960053444
vn 0.0 0.0 1.0
vn 0.0 0.0 1.0
vn 0.0 0.0 1.0
vn 0.0 0.0 1.0
vn 0.0 1.0 0.0
vn 0.0 1.0 0.0
vn 0.0 1.0 0.0
vn 0.0 1.0 0.0
vn -0.0 -1.0 -0.0
vn -0.0 -1.0 -0.0
vn -0.0 -1.0 -0.0
vn -0.0 -1.0 -0.0
g 652fc86e-e2e4-11ea-98bb-54bf646e7e1f
f 1//1 2//2 4//4
f 4//4 2//2 3//3
g 65303dbe-e2e4-11ea-9963-54bf646e7e1f
f 5//5 6//6 8//8
f 8//8 6//6 7//7
g 6530b2e6-e2e4-11ea-8e87-54bf646e7e1f
f 9//9 10//10 12//12
f 12//12 10//10 11//11
g 653127fe-e2e4-11ea-9cac-54bf646e7e1f
f 13//13 14//14 16//16
f 16//16 14//14 15//15
g 65319d08-e2e4-11ea-bc5e-54bf646e7e1f
f 18//18 19//19 17//17
f 17//17 19//19 20//20
g 6532124c-e2e4-11ea-862c-54bf646e7e1f
f 21//21 22//22 24//24
f 24//24 22//22 23//23

# End of file