# WaveFront *.obj file
# Vertices: 68
# Triangles : 48

v 5.599999904632568 0.0 0.0
v 6.059220314025879 0.0 -0.09134455770254135
v 6.448528289794922 0.0 -0.351471871137619
v 6.70865535736084 0.0 -0.7407798767089844
v 6.800000190734863 0.0 -1.2000000476837158
v 6.800000190734863 80.0 -1.2000000476837158
v 6.70865535736084 80.0 -0.7407798767089844
v 6.448528289794922 80.0 -0.351471871137619
v 6.059220314025879 80.0 -0.09134455770254135
v 5.599999904632568 80.0 0.0
v 5.599999904632568 80.0 0.0
v 6.059220314025879 80.0 -0.09134455770254135
v 6.448528289794922 80.0 -0.351471871137619
v 6.70865535736084 80.0 -0.7407798767089844
v 6.800000190734863 80.0 -1.2000000476837158
v 6.800000190734863 80.0 -4.0
v 6.199999809265137 80.0 -4.0
v 6.199999809265137 80.0 -1.2000000476837158
v 6.119615077972412 80.0 -0.8999999761581421
v 5.900000095367432 80.0 -0.6803847551345825
v 5.599999904632568 80.0 -0.6000000238418579
v 2.799999952316284 80.0 -0.6000000238418579
v 2.799999952316284 80.0 0.0
v 6.199999809265137 0.0 -4.0
v 6.199999809265137 0.0 -1.2000000476837158
v 6.199999809265137 80.0 -1.2000000476837158
v 6.199999809265137 80.0 -4.0
v 6.800000190734863 0.0 -1.2000000476837158
v 6.800000190734863 0.0 -4.0
v 6.800000190734863 80.0 -4.0
v 6.800000190734863 80.0 -1.2000000476837158
v 6.800000190734863 0.0 -1.2000000476837158
v 6.70865535736084 0.0 -0.7407798767089844
v 6.448528289794922 0.0 -0.351471871137619
v 6.059220314025879 0.0 -0.09134455770254135
v 5.599999904632568 0.0 0.0
v 2.799999952316284 0.0 0.0
v 2.799999952316284 0.0 -0.6000000238418579
v 5.599999904632568 0.0 -0.6000000238418579
v 5.900000095367432 0.0 -0.6803847551345825
v 6.119615077972412 0.0 -0.8999999761581421
v 6.199999809265137 0.0 -1.2000000476837158
v 6.199999809265137 0.0 -4.0
v 6.800000190734863 0.0 -4.0
v 6.800000190734863 0.0 -4.0
v 6.199999809265137 0.0 -4.0
v 6.199999809265137 80.0 -4.0
v 6.800000190734863 80.0 -4.0
v 6.199999809265137 0.0 -1.2000000476837158
v 6.119615077972412 0.0 -0.8999999761581421
v 5.900000095367432 0.0 -0.6803847551345825
v 5.599999904632568 0.0 -0.6000000238418579
v 5.599999904632568 80.0 -0.6000000238418579
v 5.900000095367432 80.0 -0.6803847551345825
v 6.119615077972412 80.0 -0.8999999761581421
v 6.199999809265137 80.0 -1.2000000476837158
v 5.599999904632568 0.0 -0.6000000238418579
v 2.799999952316284 0.0 -0.6000000238418579
v 2.799999952316284 80.0 -0.6000000238418579
v 5.599999904632568 80.0 -0.6000000238418579
v 2.799999952316284 0.0 -0.6000000238418579
v 2.799999952316284 0.0 0.0
v 2.799999952316284 80.0 0.0
v 2.799999952316284 80.0 -0.6000000238418579
v 2.799999952316284 0.0 0.0
v 5.599999904632568 0.0 0.0
v 5.599999904632568 80.0 0.0
v 2.799999952316284 80.0 0.0
vn -0.0 -0.0 1.0
vn 0.3826834261417389 -0.0 0.9238795042037964
vn 0.7071067690849304 -0.0 0.7071067690849304
vn 0.9238795042037964 -0.0 0.3826834261417389
vn 1.0 -0.0 6.123234262925839e-17
vn 1.0 -0.0 6.123234262925839e-17
vn 0.9238795042037964 -0.0 0.3826834261417389
vn 0.7071067690849304 -0.0 0.7071067690849304
vn 0.3826834261417389 -0.0 0.9238795042037964
vn -0.0 -0.0 1.0
vn 0.0 1.0 0.0
vn 0.0 1.0 0.0
vn 0.0 1.0 0.0
vn 0.0 1.0 0.0
vn 0.0 1.0 0.0
vn 0.0 1.0 0.0
vn 0.0 1.0 0.0
vn 0.0 1.0 0.0
vn 0.0 1.0 0.0
vn 0.0 1.0 0.0
vn 0.0 1.0 0.0
vn 0.0 1.0 0.0
vn 0.0 1.0 0.0
vn -1.0 0.0 0.0
vn -1.0 0.0 0.0
vn -1.0 0.0 0.0
vn -1.0 0.0 0.0
vn 1.0 -0.0 0.0
vn 1.0 -0.0 0.0
vn 1.0 -0.0 0.0
vn 1.0 -0.0 0.0
vn -0.0 -1.0 -0.0
vn -0.0 -1.0 -0.0
vn -0.0 -1.0 -0.0
vn -0.0 -1.0 -0.0
vn -0.0 -1.0 -0.0
vn -0.0 -1.0 -0.0
vn -0.0 -1.0 -0.0
vn -0.0 -1.0 -0.0
vn -0.0 -1.0 -0.0
vn -0.0 -1.0 -0.0
vn -0.0 -1.0 -0.0
vn -0.0 -1.0 -0.0
vn -0.0 -1.0 -0.0
vn 0.0 0.0 -1.0
vn 0.0 0.0 -1.0
vn 0.0 0.0 -1.0
vn 0.0 0.0 -1.0
vn -1.0 0.0 -6.123234262925839e-17
vn -0.8660253882408142 0.0 -0.5
vn -0.5 0.0 -0.8660253882408142
vn 0.0 0.0 -1.0
vn 0.0 0.0 -1.0
vn -0.5 0.0 -0.8660253882408142
vn -0.8660253882408142 0.0 -0.5
vn -1.0 0.0 -6.123234262925839e-17
vn 0.0 0.0 -1.0
vn 0.0 0.0 -1.0
vn 0.0 0.0 -1.0
vn 0.0 0.0 -1.0
vn -1.0 0.0 0.0
vn -1.0 0.0 0.0
vn -1.0 0.0 0.0
vn -1.0 0.0 0.0
vn 0.0 0.0 1.0
vn 0.0 0.0 1.0
vn 0.0 0.0 1.0
vn 0.0 0.0 1.0
f 10//10 1//1 9//9
f 9//9 1//1 2//2
f 9//9 2//2 3//3
f 9//9 3//3 8//8
f 8//8 3//3 4//4
f 8//8 4//4 7//7
f 7//7 4//4 6//6
f 6//6 4//4 5//5
f 23//23 11//11 21//21
f 21//21 11//11 12//12
f 21//21 12//12 20//20
f 20//20 12//12 13//13
f 20//20 13//13 19//19
f 19//19 13//13 14//14
f 19//19 14//14 18//18
f 18//18 14//14 15//15
f 18//18 15//15 17//17
f 17//17 15//15 16//16
f 21//21 22//22 23//23
f 24//24 25//25 27//27
f 27//27 25//25 26//26
f 28//28 29//29 31//31
f 31//31 29//29 30//30
f 44//44 32//32 42//42
f 42//42 32//32 33//33
f 42//42 33//33 41//41
f 41//41 33//33 34//34
f 41//41 34//34 40//40
f 40//40 34//34 35//35
f 40//40 35//35 39//39
f 39//39 35//35 36//36
f 39//39 36//36 37//37
f 37//37 38//38 39//39
f 42//42 43//43 44//44
f 45//45 46//46 48//48
f 48//48 46//46 47//47
f 56//56 49//49 55//55
f 55//55 49//49 50//50
f 55//55 50//50 54//54
f 54//54 50//50 51//51
f 54//54 51//51 53//53
f 53//53 51//51 52//52
f 57//57 58//58 60//60
f 60//60 58//58 59//59
f 61//61 62//62 64//64
f 64//64 62//62 63//63
f 65//65 66//66 68//68
f 68//68 66//66 67//67

# End of file