# WaveFront *.obj file
# Vertices: 160
# Triangles : 144

v 0.0 0.30729779601097107 -0.06923193484544754
v 0.0 0.3092842996120453 -0.0637771412730217
v 0.0 0.3125840127468109 -0.05900083854794502
v 0.0 0.3169829547405243 -0.055212683975696564
v 0.0 0.32219600677490234 -0.05265825614333153
v 0.0 0.3278852105140686 -0.05150315910577774
v 0.0 0.3336816728115082 -0.05182227864861488
v 0.5 0.3336816728115082 -0.05182227864861488
v 0.5 0.3278852105140686 -0.05150315910577774
v 0.5 0.32219600677490234 -0.05265825614333153
v 0.5 0.3169829547405243 -0.055212683975696564
v 0.5 0.3125840127468109 -0.05900083854794502
v 0.5 0.3092842996120453 -0.0637771412730217
v 0.5 0.30729779601097107 -0.06923193484544754
v 0.0 0.30729779601097107 0.06923193484544754
v 0.0 0.3115690052509308 0.04636544734239578
v 0.0 0.31414109468460083 0.02324610948562622
v 0.0 0.3149999976158142 2.7755575615628914e-17
v 0.0 0.31414109468460083 -0.02324610948562622
v 0.0 0.3115690052509308 -0.04636544734239578
v 0.0 0.30729779601097107 -0.06923193484544754
v 0.5 0.30729779601097107 -0.06923193484544754
v 0.5 0.3115690052509308 -0.04636544734239578
v 0.5 0.31414109468460083 -0.02324610948562622
v 0.5 0.3149999976158142 4.163336342344337e-17
v 0.5 0.31414109468460083 0.02324610948562622
v 0.5 0.3115690052509308 0.04636544734239578
v 0.5 0.30729779601097107 0.06923193484544754
v 0.0 0.3336816728115082 0.05182227864861488
v 0.0 0.3278852105140686 0.05150315910577774
v 0.0 0.32219600677490234 0.05265825614333153
v 0.0 0.3169829547405243 0.055212683975696564
v 0.0 0.3125840127468109 0.05900083854794502
v 0.0 0.3092842996120453 0.0637771412730217
v 0.0 0.30729779601097107 0.06923193484544754
v 0.5 0.30729779601097107 0.06923193484544754
v 0.5 0.3092842996120453 0.0637771412730217
v 0.5 0.3125840127468109 0.05900083854794502
v 0.5 0.3169829547405243 0.055212683975696564
v 0.5 0.32219600677490234 0.05265825614333153
v 0.5 0.3278852105140686 0.05150315910577774
v 0.5 0.3336816728115082 0.05182227864861488
v 0.0 0.44966062903404236 0.017473584040999413
v 0.0 0.4376620948314667 0.027573566883802414
v 0.0 0.4245610237121582 0.03619540482759476
v 0.0 0.4105384945869446 0.043219905346632004
v 0.0 0.39578840136528015 0.04854995012283325
v 0.0 0.3805146813392639 0.05211185663938522
v 0.0 0.3649284243583679 0.05385638400912285
v 0.0 0.3492451608181 0.053759410977363586
v 0.0 0.3336816728115082 0.05182227864861488
v 0.5 0.3336816728115082 0.05182227864861488
v 0.5 0.3492451608181 0.053759410977363586
v 0.5 0.3649284243583679 0.05385638400912285
v 0.5 0.3805146813392639 0.05211185663938522
v 0.5 0.39578840136528015 0.04854995012283325
v 0.5 0.4105384945869446 0.043219905346632004
v 0.5 0.4245610237121582 0.03619540482759476
v 0.5 0.4376620948314667 0.027573566883802414
v 0.5 0.44966062903404236 0.017473584040999413
v 0.0 0.44966062903404236 -0.017473584040999413
v 0.0 0.4499622881412506 -0.005825829692184925
v 0.0 0.4499622881412506 0.005825829692184925
v 0.0 0.44966062903404236 0.017473584040999413
v 0.5 0.44966062903404236 0.017473584040999413
v 0.5 0.4499622881412506 0.005825829692184925
v 0.5 0.4499622881412506 -0.005825829692184925
v 0.5 0.44966062903404236 -0.017473584040999413
v 0.0 0.3336816728115082 -0.05182227864861488
v 0.0 0.3492451608181 -0.053759410977363586
v 0.0 0.3649284243583679 -0.05385638400912285
v 0.0 0.3805146813392639 -0.05211185663938522
v 0.0 0.39578840136528015 -0.04854995012283325
v 0.0 0.4105384945869446 -0.043219905346632004
v 0.0 0.4245610237121582 -0.03619540482759476
v 0.0 0.4376620948314667 -0.027573566883802414
v 0.0 0.44966062903404236 -0.017473584040999413
v 0.5 0.44966062903404236 -0.017473584040999413
v 0.5 0.4376620948314667 -0.027573566883802414
v 0.5 0.4245610237121582 -0.03619540482759476
v 0.5 0.4105384945869446 -0.043219905346632004
v 0.5 0.39578840136528015 -0.04854995012283325
v 0.5 0.3805146813392639 -0.05211185663938522
v 0.5 0.3649284243583679 -0.05385638400912285
v 0.5 0.3492451608181 -0.053759410977363586
v 0.5 0.3336816728115082 -0.05182227864861488
v 0.5 0.3336816728115082 -0.05182227864861488
v 0.5 0.3492451608181 -0.053759410977363586
v 0.5 0.3649284243583679 -0.05385638400912285
v 0.5 0.3805146813392639 -0.05211185663938522
v 0.5 0.39578840136528015 -0.04854995012283325
v 0.5 0.4105384945869446 -0.043219905346632004
v 0.5 0.4245610237121582 -0.03619540482759476
v 0.5 0.4376620948314667 -0.027573566883802414
v 0.5 0.44966062903404236 -0.017473584040999413
v 0.5 0.4499622881412506 -0.005825829692184925
v 0.5 0.4499622881412506 0.005825829692184925
v 0.5 0.44966062903404236 0.017473584040999413
v 0.5 0.4376620948314667 0.027573566883802414
v 0.5 0.4245610237121582 0.03619540482759476
v 0.5 0.4105384945869446 0.043219905346632004
v 0.5 0.39578840136528015 0.04854995012283325
v 0.5 0.3805146813392639 0.05211185663938522
v 0.5 0.3649284243583679 0.05385638400912285
v 0.5 0.3492451608181 0.053759410977363586
v 0.5 0.3336816728115082 0.05182227864861488
v 0.5 0.3278852105140686 0.05150315910577774
v 0.5 0.32219600677490234 0.05265825614333153
v 0.5 0.3169829547405243 0.055212683975696564
v 0.5 0.3125840127468109 0.05900083854794502
v 0.5 0.3092842996120453 0.0637771412730217
v 0.5 0.30729779601097107 0.06923193484544754
v 0.5 0.3115690052509308 0.04636544734239578
v 0.5 0.31414109468460083 0.02324610948562622
v 0.5 0.3149999976158142 4.163336342344337e-17
v 0.5 0.31414109468460083 -0.02324610948562622
v 0.5 0.3115690052509308 -0.04636544734239578
v 0.5 0.30729779601097107 -0.06923193484544754
v 0.5 0.3092842996120453 -0.0637771412730217
v 0.5 0.3125840127468109 -0.05900083854794502
v 0.5 0.3169829547405243 -0.055212683975696564
v 0.5 0.32219600677490234 -0.05265825614333153
v 0.5 0.3278852105140686 -0.05150315910577774
v 0.0 0.44966062903404236 -0.017473584040999413
v 0.0 0.4376620948314667 -0.027573566883802414
v 0.0 0.4245610237121582 -0.03619540482759476
v 0.0 0.4105384945869446 -0.043219905346632004
v 0.0 0.39578840136528015 -0.04854995012283325
v 0.0 0.3805146813392639 -0.05211185663938522
v 0.0 0.3649284243583679 -0.05385638400912285
v 0.0 0.3492451608181 -0.053759410977363586
v 0.0 0.3336816728115082 -0.05182227864861488
v 0.0 0.3278852105140686 -0.05150315910577774
v 0.0 0.32219600677490234 -0.05265825614333153
v 0.0 0.3169829547405243 -0.055212683975696564
v 0.0 0.3125840127468109 -0.05900083854794502
v 0.0 0.3092842996120453 -0.0637771412730217
v 0.0 0.30729779601097107 -0.06923193484544754
v 0.0 0.3115690052509308 -0.04636544734239578
v 0.0 0.31414109468460083 -0.02324610948562622
v 0.0 0.3149999976158142 2.7755575615628914e-17
v 0.0 0.31414109468460083 0.02324610948562622
v 0.0 0.3115690052509308 0.04636544734239578
v 0.0 0.30729779601097107 0.06923193484544754
v 0.0 0.3092842996120453 0.0637771412730217
v 0.0 0.3125840127468109 0.05900083854794502
v 0.0 0.3169829547405243 0.055212683975696564
v 0.0 0.32219600677490234 0.05265825614333153
v 0.0 0.3278852105140686 0.05150315910577774
v 0.0 0.3336816728115082 0.05182227864861488
v 0.0 0.3492451608181 0.053759410977363586
v 0.0 0.3649284243583679 0.05385638400912285
v 0.0 0.3805146813392639 0.05211185663938522
v 0.0 0.39578840136528015 0.04854995012283325
v 0.0 0.4105384945869446 0.043219905346632004
v 0.0 0.4245610237121582 0.03619540482759476
v 0.0 0.4376620948314667 0.027573566883802414
v 0.0 0.44966062903404236 0.017473584040999413
v 0.0 0.4499622881412506 0.005825829692184925
v 0.0 0.4499622881412506 -0.005825829692184925
vn 0.0 0.9755485653877258 -0.21978391706943512
vn 0.0 0.8884211182594299 -0.45902934670448303
vn 0.0 0.7436976432800293 -0.6685160994529724
vn 0.0 0.5507606267929077 -0.8346632719039917
vn 0.0 0.32211798429489136 -0.9466995000839233
vn 0.0 0.0725926011800766 -0.9973616600036621
vn 0.0 -0.1816389411687851 -0.9833652973175049
vn 0.0 -0.1816389411687851 -0.9833652973175049
vn 0.0 0.0725926011800766 -0.9973616600036621
vn 0.0 0.32211798429489136 -0.9466995000839233
vn 0.0 0.5507606267929077 -0.8346632719039917
vn 0.0 0.7436976432800293 -0.6685160994529724
vn 0.0 0.8884211182594299 -0.45902934670448303
vn 0.0 0.9755485653877258 -0.21978391706943512
vn 0.0 -0.9755485653877258 -0.21978391706943512
vn 0.0 -0.9891079664230347 -0.14719189703464508
vn 0.0 -0.9972732663154602 -0.07379717379808426
vn 0.0 -1.0 -8.811293982781851e-17
vn 0.0 -0.9972732663154602 0.07379717379808426
vn 0.0 -0.9891079664230347 0.14719189703464508
vn 0.0 -0.9755485653877258 0.21978391706943512
vn 0.0 -0.9755485653877258 0.21978391706943512
vn 0.0 -0.9891079664230347 0.14719189703464508
vn 0.0 -0.9972732663154602 0.07379717379808426
vn 0.0 -1.0 -1.3216940643300532e-16
vn 0.0 -0.9972732663154602 -0.07379717379808426
vn 0.0 -0.9891079664230347 -0.14719189703464508
vn 0.0 -0.9755485653877258 -0.21978391706943512
vn 0.0 -0.1816389411687851 0.9833652973175049
vn -0.0 0.0725926011800766 0.9973616600036621
vn -0.0 0.32211798429489136 0.9466995000839233
vn -0.0 0.5507606267929077 0.8346632719039917
vn -0.0 0.7436976432800293 0.6685160994529724
vn -0.0 0.8884211182594299 0.45902934670448303
vn -0.0 0.9755485653877258 0.21978391706943512
vn -0.0 0.9755485653877258 0.21978391706943512
vn -0.0 0.8884211182594299 0.45902934670448303
vn -0.0 0.7436976432800293 0.6685160994529724
vn -0.0 0.5507606267929077 0.8346632719039917
vn -0.0 0.32211798429489136 0.9466995000839233
vn -0.0 0.0725926011800766 0.9973616600036621
vn 0.0 -0.1816389411687851 0.9833652973175049
vn -0.0 0.6878472566604614 0.7258554697036743
vn -0.0 0.597895085811615 0.8015743494033813
vn -0.0 0.4996771812438965 0.8662117123603821
vn -0.0 0.3945513963699341 0.9188739061355591
vn -0.0 0.28397101163864136 0.958832859992981
vn -0.0 0.1694648116827011 0.9855362176895142
vn -0.0 0.052615806460380554 0.9986148476600647
vn -0.0 -0.06496059894561768 0.9978878498077393
vn -0.0 -0.1816389411687851 0.9833652973175049
vn -0.0 -0.1816389411687851 0.9833652973175049
vn -0.0 -0.06496059894561768 0.9978878498077393
vn -0.0 0.052615806460380554 0.9986148476600647
vn -0.0 0.1694648116827011 0.9855362176895142
vn -0.0 0.28397101163864136 0.958832859992981
vn -0.0 0.3945513963699341 0.9188739061355591
vn -0.0 0.4996771812438965 0.8662117123603821
vn -0.0 0.597895085811615 0.8015743494033813
vn -0.0 0.6878472566604614 0.7258554697036743
vn -0.0 0.999245822429657 -0.03883018717169762
vn -0.0 0.9999161958694458 -0.012946288101375103
vn -0.0 0.9999161958694458 0.012946288101375103
vn -0.0 0.999245822429657 0.03883018717169762
vn -0.0 0.999245822429657 0.03883018717169762
vn -0.0 0.9999161958694458 0.012946288101375103
vn -0.0 0.9999161958694458 -0.012946288101375103
vn -0.0 0.999245822429657 -0.03883018717169762
vn 0.0 -0.1816389411687851 -0.9833652973175049
vn 0.0 -0.06496059894561768 -0.9978878498077393
vn -0.0 0.052615806460380554 -0.9986148476600647
vn -0.0 0.1694648116827011 -0.9855362176895142
vn -0.0 0.28397101163864136 -0.958832859992981
vn -0.0 0.3945513963699341 -0.9188739061355591
vn -0.0 0.4996771812438965 -0.8662117123603821
vn -0.0 0.597895085811615 -0.8015743494033813
vn -0.0 0.6878472566604614 -0.7258554697036743
vn -0.0 0.6878472566604614 -0.7258554697036743
vn -0.0 0.597895085811615 -0.8015743494033813
vn -0.0 0.4996771812438965 -0.8662117123603821
vn -0.0 0.3945513963699341 -0.9188739061355591
vn -0.0 0.28397101163864136 -0.958832859992981
vn -0.0 0.1694648116827011 -0.9855362176895142
vn -0.0 0.052615806460380554 -0.9986148476600647
vn 0.0 -0.06496059894561768 -0.9978878498077393
vn 0.0 -0.1816389411687851 -0.9833652973175049
vn 1.0 0.0 0.0
vn 1.0 0.0 0.0
vn 1.0 0.0 0.0
vn 1.0 0.0 0.0
vn 1.0 0.0 0.0
vn 1.0 0.0 0.0
vn 1.0 0.0 0.0
vn 1.0 0.0 0.0
vn 1.0 0.0 0.0
vn 1.0 0.0 0.0
vn 1.0 0.0 0.0
vn 1.0 0.0 0.0
vn 1.0 0.0 0.0
vn 1.0 0.0 0.0
vn 1.0 0.0 0.0
vn 1.0 0.0 0.0
vn 1.0 0.0 0.0
vn 1.0 0.0 0.0
vn 1.0 0.0 0.0
vn 1.0 0.0 0.0
vn 1.0 0.0 0.0
vn 1.0 0.0 0.0
vn 1.0 0.0 0.0
vn 1.0 0.0 0.0
vn 1.0 0.0 0.0
vn 1.0 0.0 0.0
vn 1.0 0.0 0.0
vn 1.0 0.0 0.0
vn 1.0 0.0 0.0
vn 1.0 0.0 0.0
vn 1.0 0.0 0.0
vn 1.0 0.0 0.0
vn 1.0 0.0 0.0
vn 1.0 0.0 0.0
vn 1.0 0.0 0.0
vn 1.0 0.0 0.0
vn 1.0 0.0 0.0
vn -1.0 -0.0 -0.0
vn -1.0 -0.0 -0.0
vn -1.0 -0.0 -0.0
vn -1.0 -0.0 -0.0
vn -1.0 -0.0 -0.0
vn -1.0 -0.0 -0.0
vn -1.0 -0.0 -0.0
vn -1.0 -0.0 -0.0
vn -1.0 -0.0 -0.0
vn -1.0 -0.0 -0.0
vn -1.0 -0.0 -0.0
vn -1.0 -0.0 -0.0
vn -1.0 -0.0 -0.0
vn -1.0 -0.0 -0.0
vn -1.0 -0.0 -0.0
vn -1.0 -0.0 -0.0
vn -1.0 -0.0 -0.0
vn -1.0 -0.0 -0.0
vn -1.0 -0.0 -0.0
vn -1.0 -0.0 -0.0
vn -1.0 -0.0 -0.0
vn -1.0 -0.0 -0.0
vn -1.0 -0.0 -0.0
vn -1.0 -0.0 -0.0
vn -1.0 -0.0 -0.0
vn -1.0 -0.0 -0.0
vn -1.0 -0.0 -0.0
vn -1.0 -0.0 -0.0
vn -1.0 -0.0 -0.0
vn -1.0 -0.0 -0.0
vn -1.0 -0.0 -0.0
vn -1.0 -0.0 -0.0
vn -1.0 -0.0 -0.0
vn -1.0 -0.0 -0.0
vn -1.0 -0.0 -0.0
vn -1.0 -0.0 -0.0
vn -1.0 -0.0 -0.0
g 53d9ca46-e2e8-11ea-82c7-54bf646e7e1f
f 14//14 1//1 13//13
f 13//13 1//1 2//2
f 13//13 2//2 3//3
f 13//13 3//3 12//12
f 12//12 3//3 4//4
f 12//12 4//4 11//11
f 11//11 4//4 5//5
f 11//11 5//5 10//10
f 10//10 5//5 6//6
f 10//10 6//6 9//9
f 9//9 6//6 8//8
f 8//8 6//6 7//7
g 53deac7a-e2e8-11ea-9d5f-54bf646e7e1f
f 28//28 15//15 27//27
f 27//27 15//15 16//16
f 27//27 16//16 26//26
f 26//26 16//16 17//17
f 26//26 17//17 25//25
f 25//25 17//17 18//18
f 25//25 18//18 24//24
f 24//24 18//18 19//19
f 24//24 19//19 23//23
f 23//23 19//19 20//20
f 23//23 20//20 22//22
f 22//22 20//20 21//21
g 53e3b5b0-e2e8-11ea-a13d-54bf646e7e1f
f 42//42 29//29 41//41
f 41//41 29//29 30//30
f 41//41 30//30 31//31
f 41//41 31//31 40//40
f 40//40 31//31 32//32
f 40//40 32//32 39//39
f 39//39 32//32 33//33
f 39//39 33//33 38//38
f 38//38 33//33 34//34
f 38//38 34//34 37//37
f 37//37 34//34 36//36
f 36//36 34//34 35//35
g 53e8bee4-e2e8-11ea-a97c-54bf646e7e1f
f 60//60 43//43 59//59
f 59//59 43//43 44//44
f 59//59 44//44 58//58
f 58//58 44//44 45//45
f 58//58 45//45 57//57
f 57//57 45//45 46//46
f 57//57 46//46 56//56
f 56//56 46//46 47//47
f 56//56 47//47 55//55
f 55//55 47//47 48//48
f 55//55 48//48 54//54
f 54//54 48//48 49//49
f 54//54 49//49 53//53
f 53//53 49//49 50//50
f 53//53 50//50 52//52
f 52//52 50//50 51//51
g 53edc7b8-e2e8-11ea-afd4-54bf646e7e1f
f 68//68 61//61 67//67
f 67//67 61//61 62//62
f 67//67 62//62 63//63
f 64//64 65//65 63//63
f 63//63 65//65 66//66
f 63//63 66//66 67//67
g 53f2d0b6-e2e8-11ea-bddf-54bf646e7e1f
f 86//86 69//69 85//85
f 85//85 69//69 70//70
f 85//85 70//70 84//84
f 84//84 70//70 71//71
f 84//84 71//71 83//83
f 83//83 71//71 72//72
f 83//83 72//72 82//82
f 82//82 72//72 73//73
f 82//82 73//73 81//81
f 81//81 73//73 74//74
f 81//81 74//74 80//80
f 80//80 74//74 75//75
f 80//80 75//75 79//79
f 79//79 75//75 76//76
f 79//79 76//76 78//78
f 78//78 76//76 77//77
g 53f800d4-e2e8-11ea-8af8-54bf646e7e1f
f 123//123 87//87 116//116
f 116//116 87//87 88//88
f 116//116 88//88 115//115
f 115//115 88//88 89//89
f 115//115 89//89 90//90
f 91//91 102//102 90//90
f 90//90 102//102 103//103
f 90//90 103//103 115//115
f 115//115 103//103 104//104
f 115//115 104//104 105//105
f 102//102 91//91 101//101
f 101//101 91//91 92//92
f 101//101 92//92 100//100
f 100//100 92//92 93//93
f 100//100 93//93 99//99
f 99//99 93//93 94//94
f 99//99 94//94 97//97
f 97//97 94//94 96//96
f 96//96 94//94 95//95
f 97//97 98//98 99//99
f 115//115 105//105 114//114
f 114//114 105//105 106//106
f 114//114 106//106 107//107
f 114//114 107//107 113//113
f 113//113 107//107 108//108
f 113//113 108//108 109//109
f 109//109 110//110 113//113
f 113//113 110//110 111//111
f 113//113 111//111 112//112
f 116//116 117//117 123//123
f 123//123 117//117 122//122
f 122//122 117//117 121//121
f 121//121 117//117 120//120
f 120//120 117//117 119//119
f 119//119 117//117 118//118
g 53fd0a06-e2e8-11ea-9fb8-54bf646e7e1f
f 124//124 125//125 160//160
f 160//160 125//125 157//157
f 160//160 157//157 159//159
f 159//159 157//157 158//158
f 157//157 125//125 156//156
f 156//156 125//125 126//126
f 156//156 126//126 155//155
f 155//155 126//126 127//127
f 155//155 127//127 154//154
f 154//154 127//127 128//128
f 154//154 128//128 153//153
f 153//153 128//128 129//129
f 153//153 129//129 141//141
f 141//141 129//129 130//130
f 141//141 130//130 131//131
f 141//141 131//131 140//140
f 140//140 131//131 132//132
f 140//140 132//132 133//133
f 140//140 133//133 139//139
f 139//139 133//133 134//134
f 139//139 134//134 135//135
f 135//135 136//136 139//139
f 139//139 136//136 137//137
f 139//139 137//137 138//138
f 142//142 151//151 141//141
f 141//141 151//151 152//152
f 141//141 152//152 153//153
f 143//143 149//149 142//142
f 142//142 149//149 150//150
f 142//142 150//150 151//151
f 144//144 145//145 143//143
f 143//143 145//145 146//146
f 143//143 146//146 147//147
f 147//147 148//148 143//143
f 143//143 148//148 149//149

# End of file