# WaveFront *.obj file
# Vertices: 168
# Triangles : 152

v 0.0 0.5006515383720398 -0.13602019846439362
v 0.0 0.505375862121582 -0.12468553334474564
v 0.0 0.5128479599952698 -0.11494073271751404
v 0.0 0.5225685238838196 -0.10743708163499832
v 0.0 0.5338878035545349 -0.10267607122659683
v 0.0 0.5460493564605713 -0.10097590833902359
v 0.0 0.5582403540611267 -0.10245021432638168
v 1.0 0.5582403540611267 -0.10245021432638168
v 1.0 0.5460493564605713 -0.10097590833902359
v 1.0 0.5338878035545349 -0.10267607122659683
v 1.0 0.5225685238838196 -0.10743708163499832
v 1.0 0.5128479599952698 -0.11494073271751404
v 1.0 0.505375862121582 -0.12468553334474564
v 1.0 0.5006515383720398 -0.13602019846439362
v 0.0 0.5006515383720398 0.13602019846439362
v 0.0 0.510707676410675 0.09127498418092728
v 0.0 0.516772985458374 0.04581650346517563
v 0.0 0.5188000202178955 -8.326672684688674e-17
v 0.0 0.516772985458374 -0.04581650346517563
v 0.0 0.510707676410675 -0.09127498418092728
v 0.0 0.5006515383720398 -0.13602019846439362
v 1.0 0.5006515383720398 -0.13602019846439362
v 1.0 0.510707676410675 -0.09127498418092728
v 1.0 0.516772985458374 -0.04581650346517563
v 1.0 0.5188000202178955 -8.326672684688674e-17
v 1.0 0.516772985458374 0.04581650346517563
v 1.0 0.510707676410675 0.09127498418092728
v 1.0 0.5006515383720398 0.13602019846439362
v 0.0 0.5582403540611267 0.10245021432638168
v 0.0 0.5460493564605713 0.10097590833902359
v 0.0 0.5338878035545349 0.10267607122659683
v 0.0 0.5225685238838196 0.10743708163499832
v 0.0 0.5128479599952698 0.11494073271751404
v 0.0 0.505375862121582 0.12468553334474564
v 0.0 0.5006515383720398 0.13602019846439362
v 1.0 0.5006515383720398 0.13602019846439362
v 1.0 0.505375862121582 0.12468553334474564
v 1.0 0.5128479599952698 0.11494073271751404
v 1.0 0.5225685238838196 0.10743708163499832
v 1.0 0.5338878035545349 0.10267607122659683
v 1.0 0.5460493564605713 0.10097590833902359
v 1.0 0.5582403540611267 0.10245021432638168
v 0.0 0.7993341088294983 0.0326339416205883
v 0.0 0.7780382633209229 0.05265774205327034
v 0.0 0.7545298933982849 0.07003080099821091
v 0.0 0.7291370630264282 0.08451072871685028
v 0.0 0.7022139430046082 0.09589550644159317
v 0.0 0.6741362810134888 0.10402628034353256
v 0.0 0.6452957391738892 0.10878961533308029
v 0.0 0.6160947680473328 0.1101190596818924
v 0.0 0.5869407057762146 0.10799604654312134
v 0.0 0.5582403540611267 0.10245021432638168
v 1.0 0.5582403540611267 0.10245021432638168
v 1.0 0.5869407057762146 0.10799604654312134
v 1.0 0.6160947680473328 0.1101190596818924
v 1.0 0.6452957391738892 0.10878961533308029
v 1.0 0.6741362810134888 0.10402628034353256
v 1.0 0.7022139430046082 0.09589550644159317
v 1.0 0.7291370630264282 0.08451072871685028
v 1.0 0.7545298933982849 0.07003080099821091
v 1.0 0.7780382633209229 0.05265774205327034
v 1.0 0.7993341088294983 0.0326339416205883
v 0.0 0.7993341088294983 -0.0326339416205883
v 0.0 0.7999259829521179 -0.010880663990974426
v 0.0 0.7999259829521179 0.010880663990974426
v 0.0 0.7993341088294983 0.0326339416205883
v 1.0 0.7993341088294983 0.0326339416205883
v 1.0 0.7999259829521179 0.010880663990974426
v 1.0 0.7999259829521179 -0.010880663990974426
v 1.0 0.7993341088294983 -0.0326339416205883
v 0.0 0.5582403540611267 -0.10245021432638168
v 0.0 0.5869407057762146 -0.10799604654312134
v 0.0 0.6160947680473328 -0.1101190596818924
v 0.0 0.6452957391738892 -0.10878961533308029
v 0.0 0.6741362810134888 -0.10402628034353256
v 0.0 0.7022139430046082 -0.09589550644159317
v 0.0 0.7291370630264282 -0.08451072871685028
v 0.0 0.7545298933982849 -0.07003080099821091
v 0.0 0.7780382633209229 -0.05265774205327034
v 0.0 0.7993341088294983 -0.0326339416205883
v 1.0 0.7993341088294983 -0.0326339416205883
v 1.0 0.7780382633209229 -0.05265774205327034
v 1.0 0.7545298933982849 -0.07003080099821091
v 1.0 0.7291370630264282 -0.08451072871685028
v 1.0 0.7022139430046082 -0.09589550644159317
v 1.0 0.6741362810134888 -0.10402628034353256
v 1.0 0.6452957391738892 -0.10878961533308029
v 1.0 0.6160947680473328 -0.1101190596818924
v 1.0 0.5869407057762146 -0.10799604654312134
v 1.0 0.5582403540611267 -0.10245021432638168
v 1.0 0.5582403540611267 -0.10245021432638168
v 1.0 0.5869407057762146 -0.10799604654312134
v 1.0 0.6160947680473328 -0.1101190596818924
v 1.0 0.6452957391738892 -0.10878961533308029
v 1.0 0.6741362810134888 -0.10402628034353256
v 1.0 0.7022139430046082 -0.09589550644159317
v 1.0 0.7291370630264282 -0.08451072871685028
v 1.0 0.7545298933982849 -0.07003080099821091
v 1.0 0.7780382633209229 -0.05265774205327034
v 1.0 0.7993341088294983 -0.0326339416205883
v 1.0 0.7999259829521179 -0.010880663990974426
v 1.0 0.7999259829521179 0.010880663990974426
v 1.0 0.7993341088294983 0.0326339416205883
v 1.0 0.7780382633209229 0.05265774205327034
v 1.0 0.7545298933982849 0.07003080099821091
v 1.0 0.7291370630264282 0.08451072871685028
v 1.0 0.7022139430046082 0.09589550644159317
v 1.0 0.6741362810134888 0.10402628034353256
v 1.0 0.6452957391738892 0.10878961533308029
v 1.0 0.6160947680473328 0.1101190596818924
v 1.0 0.5869407057762146 0.10799604654312134
v 1.0 0.5582403540611267 0.10245021432638168
v 1.0 0.5460493564605713 0.10097590833902359
v 1.0 0.5338878035545349 0.10267607122659683
v 1.0 0.5225685238838196 0.10743708163499832
v 1.0 0.5128479599952698 0.11494073271751404
v 1.0 0.505375862121582 0.12468553334474564
v 1.0 0.5006515383720398 0.13602019846439362
v 1.0 0.510707676410675 0.09127498418092728
v 1.0 0.516772985458374 0.04581650346517563
v 1.0 0.5188000202178955 -8.326672684688674e-17
v 1.0 0.516772985458374 -0.04581650346517563
v 1.0 0.510707676410675 -0.09127498418092728
v 1.0 0.5006515383720398 -0.13602019846439362
v 1.0 0.505375862121582 -0.12468553334474564
v 1.0 0.5128479599952698 -0.11494073271751404
v 1.0 0.5225685238838196 -0.10743708163499832
v 1.0 0.5338878035545349 -0.10267607122659683
v 1.0 0.5460493564605713 -0.10097590833902359
v 0.0 0.7993341088294983 -0.0326339416205883
v 0.0 0.7780382633209229 -0.05265774205327034
v 0.0 0.7545298933982849 -0.07003080099821091
v 0.0 0.7291370630264282 -0.08451072871685028
v 0.0 0.7022139430046082 -0.09589550644159317
v 0.0 0.6741362810134888 -0.10402628034353256
v 0.0 0.6452957391738892 -0.10878961533308029
v 0.0 0.6160947680473328 -0.1101190596818924
v 0.0 0.5869407057762146 -0.10799604654312134
v 0.0 0.5582403540611267 -0.10245021432638168
v 0.0 0.5460493564605713 -0.10097590833902359
v 0.0 0.5338878035545349 -0.10267607122659683
v 0.0 0.5225685238838196 -0.10743708163499832
v 0.0 0.5128479599952698 -0.11494073271751404
v 0.0 0.505375862121582 -0.12468553334474564
v 0.0 0.5006515383720398 -0.13602019846439362
v 0.0 0.510707676410675 -0.09127498418092728
v 0.0 0.516772985458374 -0.04581650346517563
v 0.0 0.5188000202178955 -8.326672684688674e-17
v 0.0 0.516772985458374 0.04581650346517563
v 0.0 0.510707676410675 0.09127498418092728
v 0.0 0.5006515383720398 0.13602019846439362
v 0.0 0.505375862121582 0.12468553334474564
v 0.0 0.5128479599952698 0.11494073271751404
v 0.0 0.5225685238838196 0.10743708163499832
v 0.0 0.5338878035545349 0.10267607122659683
v 0.0 0.5460493564605713 0.10097590833902359
v 0.0 0.5582403540611267 0.10245021432638168
v 0.0 0.5869407057762146 0.10799604654312134
v 0.0 0.6160947680473328 0.1101190596818924
v 0.0 0.6452957391738892 0.10878961533308029
v 0.0 0.6741362810134888 0.10402628034353256
v 0.0 0.7022139430046082 0.09589550644159317
v 0.0 0.7291370630264282 0.08451072871685028
v 0.0 0.7545298933982849 0.07003080099821091
v 0.0 0.7780382633209229 0.05265774205327034
v 0.0 0.7993341088294983 0.0326339416205883
v 0.0 0.7999259829521179 0.010880663990974426
v 0.0 0.7999259829521179 -0.010880663990974426
vn 0.0 0.9650183320045471 -0.262182354927063
vn 0.0 0.8655590415000916 -0.5008069276809692
vn 0.0 0.7082509994506836 -0.7059606909751892
vn 0.0 0.5036078691482544 -0.8639323115348816
vn 0.0 0.2653067111968994 -0.9641640782356262
vn 0.0 0.00927405059337616 -0.9999569654464722
vn 0.0 -0.2473784238100052 -0.9689189195632935
vn 0.0 -0.2473784238100052 -0.9689189195632935
vn 0.0 0.00927405059337616 -0.9999569654464722
vn 0.0 0.2653067111968994 -0.9641640782356262
vn 0.0 0.5036078691482544 -0.8639323115348816
vn 0.0 0.7082509994506836 -0.7059606909751892
vn 0.0 0.8655590415000916 -0.5008069276809692
vn 0.0 0.9650183320045471 -0.262182354927063
vn 0.0 -0.9650183320045471 -0.262182354927063
vn 0.0 -0.9844018220901489 -0.1759348213672638
vn 0.0 -0.9960927963256836 -0.08831246197223663
vn 0.0 -1.0 1.6049870128661121e-16
vn 0.0 -0.9960927963256836 0.08831246197223663
vn 0.0 -0.9844018220901489 0.1759348213672638
vn 0.0 -0.9650183320045471 0.262182354927063
vn 0.0 -0.9650183320045471 0.262182354927063
vn 0.0 -0.9844018220901489 0.1759348213672638
vn 0.0 -0.9960927963256836 0.08831246197223663
vn 0.0 -1.0 1.6049870128661121e-16
vn 0.0 -0.9960927963256836 -0.08831246197223663
vn 0.0 -0.9844018220901489 -0.1759348213672638
vn 0.0 -0.9650183320045471 -0.262182354927063
vn 0.0 -0.2473784238100052 0.9689189195632935
vn -0.0 0.00927405059337616 0.9999569654464722
vn -0.0 0.2653067111968994 0.9641640782356262
vn -0.0 0.5036078691482544 0.8639323115348816
vn -0.0 0.7082509994506836 0.7059606909751892
vn -0.0 0.8655590415000916 0.5008069276809692
vn -0.0 0.9650183320045471 0.262182354927063
vn -0.0 0.9650183320045471 0.262182354927063
vn -0.0 0.8655590415000916 0.5008069276809692
vn -0.0 0.7082509994506836 0.7059606909751892
vn -0.0 0.5036078691482544 0.8639323115348816
vn -0.0 0.2653067111968994 0.9641640782356262
vn -0.0 0.00927405059337616 0.9999569654464722
vn 0.0 -0.2473784238100052 0.9689189195632935
vn -0.0 0.7268444895744324 0.6868020296096802
vn -0.0 0.6407912373542786 0.7677151560783386
vn -0.0 0.54579758644104 0.8379170298576355
vn -0.0 0.44318893551826477 0.8964282274246216
vn -0.0 0.3343968689441681 0.9424323439598083
vn -0.0 0.2209392488002777 0.9752875566482544
vn -0.0 0.10439907014369965 0.994535505771637
vn -0.0 -0.01359769981354475 0.9999075531959534
vn -0.0 -0.13140475749969482 0.991328775882721
vn -0.0 -0.2473784238100052 0.9689189195632935
vn -0.0 -0.2473784238100052 0.9689189195632935
vn -0.0 -0.13140475749969482 0.991328775882721
vn -0.0 -0.01359769981354475 0.9999075531959534
vn -0.0 0.10439907014369965 0.994535505771637
vn -0.0 0.2209392488002777 0.9752875566482544
vn -0.0 0.3343968689441681 0.9424323439598083
vn -0.0 0.44318893551826477 0.8964282274246216
vn -0.0 0.54579758644104 0.8379170298576355
vn -0.0 0.6407912373542786 0.7677151560783386
vn -0.0 0.7268444895744324 0.6868020296096802
vn -0.0 0.9991676211357117 -0.040792424231767654
vn -0.0 0.9999074935913086 -0.013600829988718033
vn -0.0 0.9999074935913086 0.013600829988718033
vn -0.0 0.9991676211357117 0.040792424231767654
vn -0.0 0.9991676211357117 0.040792424231767654
vn -0.0 0.9999074935913086 0.013600829988718033
vn -0.0 0.9999074935913086 -0.013600829988718033
vn -0.0 0.9991676211357117 -0.040792424231767654
vn 0.0 -0.2473784238100052 -0.9689189195632935
vn 0.0 -0.13140475749969482 -0.991328775882721
vn 0.0 -0.01359769981354475 -0.9999075531959534
vn -0.0 0.10439907014369965 -0.994535505771637
vn -0.0 0.2209392488002777 -0.9752875566482544
vn -0.0 0.3343968689441681 -0.9424323439598083
vn -0.0 0.44318893551826477 -0.8964282274246216
vn -0.0 0.54579758644104 -0.8379170298576355
vn -0.0 0.6407912373542786 -0.7677151560783386
vn -0.0 0.7268444895744324 -0.6868020296096802
vn -0.0 0.7268444895744324 -0.6868020296096802
vn -0.0 0.6407912373542786 -0.7677151560783386
vn -0.0 0.54579758644104 -0.8379170298576355
vn -0.0 0.44318893551826477 -0.8964282274246216
vn -0.0 0.3343968689441681 -0.9424323439598083
vn -0.0 0.2209392488002777 -0.9752875566482544
vn -0.0 0.10439907014369965 -0.994535505771637
vn 0.0 -0.01359769981354475 -0.9999075531959534
vn 0.0 -0.13140475749969482 -0.991328775882721
vn 0.0 -0.2473784238100052 -0.9689189195632935
vn 1.0 0.0 0.0
vn 1.0 0.0 0.0
vn 1.0 0.0 0.0
vn 1.0 0.0 0.0
vn 1.0 0.0 0.0
vn 1.0 0.0 0.0
vn 1.0 0.0 0.0
vn 1.0 0.0 0.0
vn 1.0 0.0 0.0
vn 1.0 0.0 0.0
vn 1.0 0.0 0.0
vn 1.0 0.0 0.0
vn 1.0 0.0 0.0
vn 1.0 0.0 0.0
vn 1.0 0.0 0.0
vn 1.0 0.0 0.0
vn 1.0 0.0 0.0
vn 1.0 0.0 0.0
vn 1.0 0.0 0.0
vn 1.0 0.0 0.0
vn 1.0 0.0 0.0
vn 1.0 0.0 0.0
vn 1.0 0.0 0.0
vn 1.0 0.0 0.0
vn 1.0 0.0 0.0
vn 1.0 0.0 0.0
vn 1.0 0.0 0.0
vn 1.0 0.0 0.0
vn 1.0 0.0 0.0
vn 1.0 0.0 0.0
vn 1.0 0.0 0.0
vn 1.0 0.0 0.0
vn 1.0 0.0 0.0
vn 1.0 0.0 0.0
vn 1.0 0.0 0.0
vn 1.0 0.0 0.0
vn 1.0 0.0 0.0
vn 1.0 0.0 0.0
vn 1.0 0.0 0.0
vn -1.0 -0.0 -0.0
vn -1.0 -0.0 -0.0
vn -1.0 -0.0 -0.0
vn -1.0 -0.0 -0.0
vn -1.0 -0.0 -0.0
vn -1.0 -0.0 -0.0
vn -1.0 -0.0 -0.0
vn -1.0 -0.0 -0.0
vn -1.0 -0.0 -0.0
vn -1.0 -0.0 -0.0
vn -1.0 -0.0 -0.0
vn -1.0 -0.0 -0.0
vn -1.0 -0.0 -0.0
vn -1.0 -0.0 -0.0
vn -1.0 -0.0 -0.0
vn -1.0 -0.0 -0.0
vn -1.0 -0.0 -0.0
vn -1.0 -0.0 -0.0
vn -1.0 -0.0 -0.0
vn -1.0 -0.0 -0.0
vn -1.0 -0.0 -0.0
vn -1.0 -0.0 -0.0
vn -1.0 -0.0 -0.0
vn -1.0 -0.0 -0.0
vn -1.0 -0.0 -0.0
vn -1.0 -0.0 -0.0
vn -1.0 -0.0 -0.0
vn -1.0 -0.0 -0.0
vn -1.0 -0.0 -0.0
vn -1.0 -0.0 -0.0
vn -1.0 -0.0 -0.0
vn -1.0 -0.0 -0.0
vn -1.0 -0.0 -0.0
vn -1.0 -0.0 -0.0
vn -1.0 -0.0 -0.0
vn -1.0 -0.0 -0.0
vn -1.0 -0.0 -0.0
vn -1.0 -0.0 -0.0
vn -1.0 -0.0 -0.0
g 49783440-e2e8-11ea-98f1-54bf646e7e1f
f 14//14 1//1 13//13
f 13//13 1//1 2//2
f 13//13 2//2 12//12
f 12//12 2//2 3//3
f 12//12 3//3 11//11
f 11//11 3//3 4//4
f 11//11 4//4 10//10
f 10//10 4//4 5//5
f 10//10 5//5 9//9
f 9//9 5//5 6//6
f 9//9 6//6 8//8
f 8//8 6//6 7//7
g 497d6482-e2e8-11ea-995c-54bf646e7e1f
f 28//28 15//15 27//27
f 27//27 15//15 16//16
f 27//27 16//16 26//26
f 26//26 16//16 17//17
f 26//26 17//17 25//25
f 25//25 17//17 18//18
f 25//25 18//18 24//24
f 24//24 18//18 19//19
f 24//24 19//19 23//23
f 23//23 19//19 20//20
f 23//23 20//20 22//22
f 22//22 20//20 21//21
g 49844266-e2e8-11ea-9bb4-54bf646e7e1f
f 42//42 29//29 41//41
f 41//41 29//29 30//30
f 41//41 30//30 40//40
f 40//40 30//30 31//31
f 40//40 31//31 39//39
f 39//39 31//31 32//32
f 39//39 32//32 38//38
f 38//38 32//32 33//33
f 38//38 33//33 37//37
f 37//37 33//33 34//34
f 37//37 34//34 36//36
f 36//36 34//34 35//35
g 499643ac-e2e8-11ea-bb3e-54bf646e7e1f
f 62//62 43//43 61//61
f 61//61 43//43 44//44
f 61//61 44//44 60//60
f 60//60 44//44 45//45
f 60//60 45//45 59//59
f 59//59 45//45 46//46
f 59//59 46//46 58//58
f 58//58 46//46 47//47
f 58//58 47//47 57//57
f 57//57 47//47 48//48
f 57//57 48//48 56//56
f 56//56 48//48 49//49
f 56//56 49//49 55//55
f 55//55 49//49 50//50
f 55//55 50//50 54//54
f 54//54 50//50 51//51
f 54//54 51//51 53//53
f 53//53 51//51 52//52
g 499ecf28-e2e8-11ea-9026-54bf646e7e1f
f 70//70 63//63 69//69
f 69//69 63//63 64//64
f 69//69 64//64 65//65
f 66//66 67//67 65//65
f 65//65 67//67 68//68
f 65//65 68//68 69//69
g 49a3d87a-e2e8-11ea-b586-54bf646e7e1f
f 90//90 71//71 89//89
f 89//89 71//71 72//72
f 89//89 72//72 88//88
f 88//88 72//72 73//73
f 88//88 73//73 87//87
f 87//87 73//73 74//74
f 87//87 74//74 86//86
f 86//86 74//74 75//75
f 86//86 75//75 85//85
f 85//85 75//75 76//76
f 85//85 76//76 84//84
f 84//84 76//76 77//77
f 84//84 77//77 83//83
f 83//83 77//77 78//78
f 83//83 78//78 82//82
f 82//82 78//78 79//79
f 82//82 79//79 81//81
f 81//81 79//79 80//80
g 49a8bab8-e2e8-11ea-abc4-54bf646e7e1f
f 129//129 91//91 122//122
f 122//122 91//91 92//92
f 122//122 92//92 121//121
f 121//121 92//92 93//93
f 121//121 93//93 94//94
f 95//95 108//108 94//94
f 94//94 108//108 109//109
f 94//94 109//109 121//121
f 121//121 109//109 110//110
f 121//121 110//110 111//111
f 108//108 95//95 107//107
f 107//107 95//95 96//96
f 107//107 96//96 106//106
f 106//106 96//96 97//97
f 106//106 97//97 105//105
f 105//105 97//97 98//98
f 105//105 98//98 104//104
f 104//104 98//98 99//99
f 104//104 99//99 102//102
f 102//102 99//99 101//101
f 101//101 99//99 100//100
f 102//102 103//103 104//104
f 121//121 111//111 120//120
f 120//120 111//111 112//112
f 120//120 112//112 113//113
f 113//113 114//114 120//120
f 120//120 114//114 119//119
f 119//119 114//114 115//115
f 119//119 115//115 116//116
f 116//116 117//117 119//119
f 119//119 117//117 118//118
f 129//129 122//122 128//128
f 128//128 122//122 123//123
f 128//128 123//123 127//127
f 127//127 123//123 126//126
f 126//126 123//123 125//125
f 125//125 123//123 124//124
g 49ad9c78-e2e8-11ea-8f67-54bf646e7e1f
f 130//130 131//131 168//168
f 168//168 131//131 165//165
f 168//168 165//165 167//167
f 167//167 165//165 166//166
f 165//165 131//131 164//164
f 164//164 131//131 132//132
f 164//164 132//132 163//163
f 163//163 132//132 133//133
f 163//163 133//133 162//162
f 162//162 133//133 134//134
f 162//162 134//134 161//161
f 161//161 134//134 135//135
f 161//161 135//135 160//160
f 160//160 135//135 136//136
f 160//160 136//136 148//148
f 148//148 136//136 137//137
f 148//148 137//137 138//138
f 148//148 138//138 147//147
f 147//147 138//138 139//139
f 147//147 139//139 140//140
f 140//140 141//141 147//147
f 147//147 141//141 146//146
f 146//146 141//141 142//142
f 146//146 142//142 143//143
f 143//143 144//144 146//146
f 146//146 144//144 145//145
f 149//149 158//158 148//148
f 148//148 158//158 159//159
f 148//148 159//159 160//160
f 150//150 155//155 149//149
f 149//149 155//155 156//156
f 149//149 156//156 157//157
f 151//151 152//152 150//150
f 150//150 152//152 153//153
f 150//150 153//153 154//154
f 154//154 155//155 150//150
f 157//157 158//158 149//149

# End of file