# WaveFront *.obj file
# Vertices: 24
# Triangles : 12

v 34.0 0.0 -47.0
v 0.0 0.0 -47.0
v 0.0 5.0 -47.0
v 34.0 5.0 -47.0
v 34.0 0.0 -10.0
v 34.0 0.0 -47.0
v 34.0 5.0 -47.0
v 34.0 5.0 -10.0
v 0.0 0.0 -10.0
v 34.0 0.0 -10.0
v 34.0 5.0 -10.0
v 0.0 5.0 -10.0
v 0.0 0.0 -47.0
v 0.0 0.0 -10.0
v 0.0 5.0 -10.0
v 0.0 5.0 -47.0
v 0.0 5.0 -47.0
v 0.0 5.0 -10.0
v 34.0 5.0 -10.0
v 34.0 5.0 -47.0
v 0.0 0.0 -10.0
v 0.0 0.0 -47.0
v 34.0 0.0 -47.0
v 34.0 0.0 -10.0
vn 0.0 0.0 -1.0
vn 0.0 0.0 -1.0
vn 0.0 0.0 -1.0
vn 0.0 0.0 -1.0
vn 1.0 -0.0 0.0
vn 1.0 -0.0 0.0
vn 1.0 -0.0 0.0
vn 1.0 -0.0 0.0
vn 0.0 0.0 1.0
vn 0.0 0.0 1.0
vn 0.0 0.0 1.0
vn 0.0 0.0 1.0
vn -1.0 0.0 0.0
vn -1.0 0.0 0.0
vn -1.0 0.0 0.0
vn -1.0 0.0 0.0
vn 0.0 1.0 0.0
vn 0.0 1.0 0.0
vn 0.0 1.0 0.0
vn 0.0 1.0 0.0
vn -0.0 -1.0 -0.0
vn -0.0 -1.0 -0.0
vn -0.0 -1.0 -0.0
vn -0.0 -1.0 -0.0
g d2b76cdc-e2ee-11ea-80f1-54bf646e7e1f
f 1//1 2//2 4//4
f 4//4 2//2 3//3
g d2b7e1e2-e2ee-11ea-8ca3-54bf646e7e1f
f 5//5 6//6 8//8
f 8//8 6//6 7//7
g d2b83022-e2ee-11ea-825f-54bf646e7e1f
f 9//9 10//10 12//12
f 12//12 10//10 11//11
g d2b8a554-e2ee-11ea-bfc8-54bf646e7e1f
f 13//13 14//14 16//16
f 16//16 14//14 15//15
g d2b8f370-e2ee-11ea-90ec-54bf646e7e1f
f 17//17 18//18 20//20
f 20//20 18//18 19//19
g d2b968a4-e2ee-11ea-9f0a-54bf646e7e1f
f 22//22 23//23 21//21
f 21//21 23//23 24//24

# End of file