# WaveFront *.obj file
# Vertices: 170
# Triangles : 156

v 1.1180340051651 20.0 1.0
v 0.8133383989334106 20.0 1.2603493928909302
v 0.4505809247493744 20.0 1.4307259321212769
v 0.05565771460533142 20.0 1.4989670515060425
v -0.3432387411594391 20.0 1.4602010250091553
v -0.7176323533058167 20.0 1.3171954154968262
v -1.040796160697937 20.0 1.0801589488983154
v -1.2896605730056763 20.0 0.7660129070281982
v -1.4464596509933472 20.0 0.397183358669281
v -1.5 20.0 0.0
v -1.4464596509933472 20.0 -0.397183358669281
v -1.2896605730056763 20.0 -0.7660129070281982
v -1.040796160697937 20.0 -1.0801589488983154
v -0.7176323533058167 20.0 -1.3171954154968262
v -0.3432387411594391 20.0 -1.4602010250091553
v 0.05565771460533142 20.0 -1.4989670515060425
v 0.4505809247493744 20.0 -1.4307259321212769
v 0.8133383989334106 20.0 -1.2603493928909302
v 1.1180340051651 20.0 -1.0
v 2.0 20.0 -1.0
v 2.0 20.0 1.0
v -1.0 20.0 1.2246468525851679e-16
v -0.945817232131958 20.0 0.3246994614601135
v -0.789140522480011 20.0 0.614212691783905
v -0.5469481348991394 20.0 0.8371664881706238
v -0.24548548460006714 20.0 0.9694002866744995
v 0.0825793445110321 20.0 0.9965844750404358
v 0.4016954302787781 20.0 0.915773332118988
v 0.6772815585136414 20.0 0.7357239127159119
v 0.8794737458229065 20.0 0.47594738006591797
v 0.9863613247871399 20.0 0.1645945906639099
v 0.9863613247871399 20.0 -0.1645945906639099
v 0.8794737458229065 20.0 -0.47594738006591797
v 0.6772815585136414 20.0 -0.7357239127159119
v 0.4016954302787781 20.0 -0.915773332118988
v 0.0825793445110321 20.0 -0.9965844750404358
v -0.24548548460006714 20.0 -0.9694002866744995
v -0.5469481348991394 20.0 -0.8371664881706238
v -0.789140522480011 20.0 -0.614212691783905
v -0.945817232131958 20.0 -0.3246994614601135
v 1.1180340051651 28.0 -1.0
v 0.8133383989334106 28.0 -1.2603493928909302
v 0.4505809247493744 28.0 -1.4307259321212769
v 0.05565771460533142 28.0 -1.4989670515060425
v -0.3432387411594391 28.0 -1.4602010250091553
v -0.7176323533058167 28.0 -1.3171954154968262
v -1.040796160697937 28.0 -1.0801589488983154
v -1.2896605730056763 28.0 -0.7660129070281982
v -1.4464596509933472 28.0 -0.397183358669281
v -1.5 28.0 0.0
v -1.4464596509933472 28.0 0.397183358669281
v -1.2896605730056763 28.0 0.7660129070281982
v -1.040796160697937 28.0 1.0801589488983154
v -0.7176323533058167 28.0 1.3171954154968262
v -0.3432387411594391 28.0 1.4602010250091553
v 0.05565771460533142 28.0 1.4989670515060425
v 0.4505809247493744 28.0 1.4307259321212769
v 0.8133383989334106 28.0 1.2603493928909302
v 1.1180340051651 28.0 1.0
v 2.0 28.0 1.0
v 2.0 28.0 -1.0
v -1.0 0.0 1.2246468525851679e-16
v -0.945817232131958 0.0 -0.3246994614601135
v -0.789140522480011 0.0 -0.614212691783905
v -0.5469481348991394 0.0 -0.8371664881706238
v -0.24548548460006714 0.0 -0.9694002866744995
v 0.0825793445110321 0.0 -0.9965844750404358
v 0.4016954302787781 0.0 -0.915773332118988
v 0.6772815585136414 0.0 -0.7357239127159119
v 0.8794737458229065 0.0 -0.47594738006591797
v 0.9863613247871399 0.0 -0.1645945906639099
v 0.9863613247871399 0.0 0.1645945906639099
v 0.8794737458229065 0.0 0.47594738006591797
v 0.6772815585136414 0.0 0.7357239127159119
v 0.4016954302787781 0.0 0.915773332118988
v 0.0825793445110321 0.0 0.9965844750404358
v -0.24548548460006714 0.0 0.9694002866744995
v -0.5469481348991394 0.0 0.8371664881706238
v -0.789140522480011 0.0 0.614212691783905
v -0.945817232131958 0.0 0.3246994614601135
v -1.0 20.0 1.2246468525851679e-16
v -0.945817232131958 20.0 -0.3246994614601135
v -0.789140522480011 20.0 -0.614212691783905
v -0.5469481348991394 20.0 -0.8371664881706238
v -0.24548548460006714 20.0 -0.9694002866744995
v 0.0825793445110321 20.0 -0.9965844750404358
v 0.4016954302787781 20.0 -0.915773332118988
v 0.6772815585136414 20.0 -0.7357239127159119
v 0.8794737458229065 20.0 -0.47594738006591797
v 0.9863613247871399 20.0 -0.1645945906639099
v 0.9863613247871399 20.0 0.1645945906639099
v 0.8794737458229065 20.0 0.47594738006591797
v 0.6772815585136414 20.0 0.7357239127159119
v 0.4016954302787781 20.0 0.915773332118988
v 0.0825793445110321 20.0 0.9965844750404358
v -0.24548548460006714 20.0 0.9694002866744995
v -0.5469481348991394 20.0 0.8371664881706238
v -0.789140522480011 20.0 0.614212691783905
v -0.945817232131958 20.0 0.3246994614601135
v -1.0 0.0 1.2246468525851679e-16
v -0.945817232131958 0.0 0.3246994614601135
v -0.789140522480011 0.0 0.614212691783905
v -0.5469481348991394 0.0 0.8371664881706238
v -0.24548548460006714 0.0 0.9694002866744995
v 0.0825793445110321 0.0 0.9965844750404358
v 0.4016954302787781 0.0 0.915773332118988
v 0.6772815585136414 0.0 0.7357239127159119
v 0.8794737458229065 0.0 0.47594738006591797
v 0.9863613247871399 0.0 0.1645945906639099
v 0.9863613247871399 0.0 -0.1645945906639099
v 0.8794737458229065 0.0 -0.47594738006591797
v 0.6772815585136414 0.0 -0.7357239127159119
v 0.4016954302787781 0.0 -0.915773332118988
v 0.0825793445110321 0.0 -0.9965844750404358
v -0.24548548460006714 0.0 -0.9694002866744995
v -0.5469481348991394 0.0 -0.8371664881706238
v -0.789140522480011 0.0 -0.614212691783905
v -0.945817232131958 0.0 -0.3246994614601135
v -1.0 0.0 1.2246468525851679e-16
v -1.0 20.0 1.2246468525851679e-16
v 1.1180340051651 20.0 -1.0
v 0.8133383989334106 20.0 -1.2603493928909302
v 0.4505809247493744 20.0 -1.4307259321212769
v 0.05565771460533142 20.0 -1.4989670515060425
v -0.3432387411594391 20.0 -1.4602010250091553
v -0.7176323533058167 20.0 -1.3171954154968262
v -1.040796160697937 20.0 -1.0801589488983154
v -1.2896605730056763 20.0 -0.7660129070281982
v -1.4464596509933472 20.0 -0.397183358669281
v -1.5 20.0 0.0
v -1.4464596509933472 20.0 0.397183358669281
v -1.2896605730056763 20.0 0.7660129070281982
v -1.040796160697937 20.0 1.0801589488983154
v -0.7176323533058167 20.0 1.3171954154968262
v -0.3432387411594391 20.0 1.4602010250091553
v 0.05565771460533142 20.0 1.4989670515060425
v 0.4505809247493744 20.0 1.4307259321212769
v 0.8133383989334106 20.0 1.2603493928909302
v 1.1180340051651 20.0 1.0
v 1.1180340051651 28.0 1.0
v 0.8133383989334106 28.0 1.2603493928909302
v 0.4505809247493744 28.0 1.4307259321212769
v 0.05565771460533142 28.0 1.4989670515060425
v -0.3432387411594391 28.0 1.4602010250091553
v -0.7176323533058167 28.0 1.3171954154968262
v -1.040796160697937 28.0 1.0801589488983154
v -1.2896605730056763 28.0 0.7660129070281982
v -1.4464596509933472 28.0 0.397183358669281
v -1.5 28.0 0.0
v -1.4464596509933472 28.0 -0.397183358669281
v -1.2896605730056763 28.0 -0.7660129070281982
v -1.040796160697937 28.0 -1.0801589488983154
v -0.7176323533058167 28.0 -1.3171954154968262
v -0.3432387411594391 28.0 -1.4602010250091553
v 0.05565771460533142 28.0 -1.4989670515060425
v 0.4505809247493744 28.0 -1.4307259321212769
v 0.8133383989334106 28.0 -1.2603493928909302
v 1.1180340051651 28.0 -1.0
v 2.0 20.0 1.0
v 2.0 20.0 -1.0
v 2.0 28.0 -1.0
v 2.0 28.0 1.0
v 2.0 20.0 -1.0
v 1.1180340051651 20.0 -1.0
v 1.1180340051651 28.0 -1.0
v 2.0 28.0 -1.0
v 1.1180340051651 20.0 1.0
v 2.0 20.0 1.0
v 2.0 28.0 1.0
v 1.1180340051651 28.0 1.0
vn -0.0 -1.0 -0.0
vn -0.0 -1.0 -0.0
vn -0.0 -1.0 -0.0
vn -0.0 -1.0 -0.0
vn -0.0 -1.0 -0.0
vn -0.0 -1.0 -0.0
vn -0.0 -1.0 -0.0
vn -0.0 -1.0 -0.0
vn -0.0 -1.0 -0.0
vn -0.0 -1.0 -0.0
vn -0.0 -1.0 -0.0
vn -0.0 -1.0 -0.0
vn -0.0 -1.0 -0.0
vn -0.0 -1.0 -0.0
vn -0.0 -1.0 -0.0
vn -0.0 -1.0 -0.0
vn -0.0 -1.0 -0.0
vn -0.0 -1.0 -0.0
vn -0.0 -1.0 -0.0
vn -0.0 -1.0 -0.0
vn -0.0 -1.0 -0.0
vn -0.0 -1.0 -0.0
vn -0.0 -1.0 -0.0
vn -0.0 -1.0 -0.0
vn -0.0 -1.0 -0.0
vn -0.0 -1.0 -0.0
vn -0.0 -1.0 -0.0
vn -0.0 -1.0 -0.0
vn -0.0 -1.0 -0.0
vn -0.0 -1.0 -0.0
vn -0.0 -1.0 -0.0
vn -0.0 -1.0 -0.0
vn -0.0 -1.0 -0.0
vn -0.0 -1.0 -0.0
vn -0.0 -1.0 -0.0
vn -0.0 -1.0 -0.0
vn -0.0 -1.0 -0.0
vn -0.0 -1.0 -0.0
vn -0.0 -1.0 -0.0
vn -0.0 -1.0 -0.0
vn 0.0 1.0 0.0
vn 0.0 1.0 0.0
vn 0.0 1.0 0.0
vn 0.0 1.0 0.0
vn 0.0 1.0 0.0
vn 0.0 1.0 0.0
vn 0.0 1.0 0.0
vn 0.0 1.0 0.0
vn 0.0 1.0 0.0
vn 0.0 1.0 0.0
vn 0.0 1.0 0.0
vn 0.0 1.0 0.0
vn 0.0 1.0 0.0
vn 0.0 1.0 0.0
vn 0.0 1.0 0.0
vn 0.0 1.0 0.0
vn 0.0 1.0 0.0
vn 0.0 1.0 0.0
vn 0.0 1.0 0.0
vn 0.0 1.0 0.0
vn 0.0 1.0 0.0
vn -0.0 -1.0 -0.0
vn -0.0 -1.0 -0.0
vn -0.0 -1.0 -0.0
vn -0.0 -1.0 -0.0
vn -0.0 -1.0 -0.0
vn -0.0 -1.0 -0.0
vn -0.0 -1.0 -0.0
vn -0.0 -1.0 -0.0
vn -0.0 -1.0 -0.0
vn -0.0 -1.0 -0.0
vn -0.0 -1.0 -0.0
vn -0.0 -1.0 -0.0
vn -0.0 -1.0 -0.0
vn -0.0 -1.0 -0.0
vn -0.0 -1.0 -0.0
vn -0.0 -1.0 -0.0
vn -0.0 -1.0 -0.0
vn -0.0 -1.0 -0.0
vn -0.0 -1.0 -0.0
vn -1.0 0.0 -1.2246468525851679e-16
vn -0.945817232131958 0.0 -0.3246994614601135
vn -0.789140522480011 0.0 -0.614212691783905
vn -0.5469481348991394 0.0 -0.8371664881706238
vn -0.24548548460006714 0.0 -0.9694002866744995
vn 0.0825793445110321 -0.0 -0.9965844750404358
vn 0.4016954302787781 -0.0 -0.915773332118988
vn 0.6772815585136414 -0.0 -0.7357239127159119
vn 0.8794737458229065 -0.0 -0.47594738006591797
vn 0.9863613247871399 -0.0 -0.1645945906639099
vn 0.9863613247871399 -0.0 0.1645945906639099
vn 0.8794737458229065 -0.0 0.47594738006591797
vn 0.6772815585136414 -0.0 0.7357239127159119
vn 0.4016954302787781 -0.0 0.915773332118988
vn 0.0825793445110321 -0.0 0.9965844750404358
vn -0.24548548460006714 -0.0 0.9694002866744995
vn -0.5469481348991394 -0.0 0.8371664881706238
vn -0.789140522480011 -0.0 0.614212691783905
vn -0.945817232131958 -0.0 0.3246994614601135
vn -1.0 -0.0 1.2246468525851679e-16
vn -0.945817232131958 -0.0 0.3246994614601135
vn -0.789140522480011 -0.0 0.614212691783905
vn -0.5469481348991394 -0.0 0.8371664881706238
vn -0.24548548460006714 -0.0 0.9694002866744995
vn 0.0825793445110321 -0.0 0.9965844750404358
vn 0.4016954302787781 -0.0 0.915773332118988
vn 0.6772815585136414 -0.0 0.7357239127159119
vn 0.8794737458229065 -0.0 0.47594738006591797
vn 0.9863613247871399 -0.0 0.1645945906639099
vn 0.9863613247871399 -0.0 -0.1645945906639099
vn 0.8794737458229065 -0.0 -0.47594738006591797
vn 0.6772815585136414 -0.0 -0.7357239127159119
vn 0.4016954302787781 -0.0 -0.915773332118988
vn 0.0825793445110321 -0.0 -0.9965844750404358
vn -0.24548548460006714 0.0 -0.9694002866744995
vn -0.5469481348991394 0.0 -0.8371664881706238
vn -0.789140522480011 0.0 -0.614212691783905
vn -0.945817232131958 0.0 -0.3246994614601135
vn -1.0 0.0 -1.2246468525851679e-16
vn -1.0 -0.0 1.2246468525851679e-16
vn 0.7453559637069702 -0.0 -0.6666666865348816
vn 0.5422255992889404 -0.0 -0.8402329087257385
vn 0.30038729310035706 -0.0 -0.9538173079490662
vn 0.03710514307022095 -0.0 -0.9993113875389099
vn -0.22882582247257233 0.0 -0.9734674096107483
vn -0.47842156887054443 0.0 -0.878130316734314
vn -0.693864107131958 0.0 -0.7201059460639954
vn -0.8597736954689026 0.0 -0.5106752514839172
vn -0.9643064141273499 0.0 -0.2647888958454132
vn -1.0 -0.0 0.0
vn -0.9643064141273499 -0.0 0.2647888958454132
vn -0.8597736954689026 -0.0 0.5106752514839172
vn -0.693864107131958 -0.0 0.7201059460639954
vn -0.47842156887054443 -0.0 0.878130316734314
vn -0.22882582247257233 -0.0 0.9734674096107483
vn 0.03710514307022095 -0.0 0.9993113875389099
vn 0.30038729310035706 -0.0 0.9538173079490662
vn 0.5422255992889404 -0.0 0.8402329087257385
vn 0.7453559637069702 -0.0 0.6666666865348816
vn 0.7453559637069702 -0.0 0.6666666865348816
vn 0.5422255992889404 -0.0 0.8402329087257385
vn 0.30038729310035706 -0.0 0.9538173079490662
vn 0.03710514307022095 -0.0 0.9993113875389099
vn -0.22882582247257233 -0.0 0.9734674096107483
vn -0.47842156887054443 -0.0 0.878130316734314
vn -0.693864107131958 -0.0 0.7201059460639954
vn -0.8597736954689026 -0.0 0.5106752514839172
vn -0.9643064141273499 -0.0 0.2647888958454132
vn -1.0 -0.0 0.0
vn -0.9643064141273499 0.0 -0.2647888958454132
vn -0.8597736954689026 0.0 -0.5106752514839172
vn -0.693864107131958 0.0 -0.7201059460639954
vn -0.47842156887054443 0.0 -0.878130316734314
vn -0.22882582247257233 0.0 -0.9734674096107483
vn 0.03710514307022095 -0.0 -0.9993113875389099
vn 0.30038729310035706 -0.0 -0.9538173079490662
vn 0.5422255992889404 -0.0 -0.8402329087257385
vn 0.7453559637069702 -0.0 -0.6666666865348816
vn 1.0 0.0 0.0
vn 1.0 0.0 0.0
vn 1.0 0.0 0.0
vn 1.0 0.0 0.0
vn 0.0 0.0 -1.0
vn 0.0 0.0 -1.0
vn 0.0 0.0 -1.0
vn 0.0 0.0 -1.0
vn 0.0 -0.0 1.0
vn 0.0 -0.0 1.0
vn 0.0 -0.0 1.0
vn 0.0 -0.0 1.0
f 2//2 29//29 1//1
f 1//1 29//29 30//30
f 1//1 30//30 21//21
f 21//21 30//30 31//31
f 21//21 31//31 20//20
f 20//20 31//31 32//32
f 20//20 32//32 33//33
f 29//29 2//2 28//28
f 28//28 2//2 3//3
f 28//28 3//3 27//27
f 27//27 3//3 4//4
f 27//27 4//4 26//26
f 26//26 4//4 5//5
f 26//26 5//5 6//6
f 26//26 6//6 25//25
f 25//25 6//6 7//7
f 25//25 7//7 24//24
f 24//24 7//7 8//8
f 24//24 8//8 23//23
f 23//23 8//8 9//9
f 23//23 9//9 22//22
f 22//22 9//9 10//10
f 22//22 10//10 11//11
f 22//22 11//11 40//40
f 40//40 11//11 12//12
f 40//40 12//12 39//39
f 39//39 12//12 13//13
f 39//39 13//13 38//38
f 38//38 13//13 14//14
f 38//38 14//14 37//37
f 37//37 14//14 15//15
f 37//37 15//15 16//16
f 37//37 16//16 36//36
f 36//36 16//16 17//17
f 36//36 17//17 35//35
f 35//35 17//17 18//18
f 35//35 18//18 34//34
f 34//34 18//18 19//19
f 34//34 19//19 33//33
f 33//33 19//19 20//20
f 42//42 47//47 41//41
f 41//41 47//47 48//48
f 41//41 48//48 49//49
f 47//47 42//42 46//46
f 46//46 42//42 43//43
f 46//46 43//43 45//45
f 45//45 43//43 44//44
f 49//49 50//50 41//41
f 41//41 50//50 59//59
f 41//41 59//59 61//61
f 61//61 59//59 60//60
f 50//50 51//51 59//59
f 59//59 51//51 52//52
f 59//59 52//52 53//53
f 59//59 53//53 58//58
f 58//58 53//53 54//54
f 58//58 54//54 57//57
f 57//57 54//54 55//55
f 57//57 55//55 56//56
f 63//63 71//71 62//62
f 62//62 71//71 72//72
f 62//62 72//72 80//80
f 80//80 72//72 73//73
f 80//80 73//73 79//79
f 79//79 73//73 74//74
f 79//79 74//74 78//78
f 78//78 74//74 75//75
f 78//78 75//75 77//77
f 77//77 75//75 76//76
f 71//71 63//63 70//70
f 70//70 63//63 64//64
f 70//70 64//64 69//69
f 69//69 64//64 65//65
f 69//69 65//65 68//68
f 68//68 65//65 66//66
f 68//68 66//66 67//67
f 82//82 118//118 81//81
f 81//81 118//118 119//119
f 120//120 100//100 99//99
f 99//99 100//100 101//101
f 99//99 101//101 98//98
f 98//98 101//101 102//102
f 98//98 102//102 97//97
f 97//97 102//102 103//103
f 97//97 103//103 96//96
f 96//96 103//103 104//104
f 96//96 104//104 95//95
f 95//95 104//104 105//105
f 95//95 105//105 94//94
f 94//94 105//105 106//106
f 94//94 106//106 93//93
f 93//93 106//106 107//107
f 93//93 107//107 92//92
f 92//92 107//107 108//108
f 92//92 108//108 91//91
f 91//91 108//108 109//109
f 91//91 109//109 90//90
f 90//90 109//109 110//110
f 90//90 110//110 89//89
f 89//89 110//110 111//111
f 89//89 111//111 88//88
f 88//88 111//111 112//112
f 88//88 112//112 87//87
f 87//87 112//112 113//113
f 87//87 113//113 86//86
f 86//86 113//113 114//114
f 86//86 114//114 85//85
f 85//85 114//114 115//115
f 85//85 115//115 84//84
f 84//84 115//115 116//116
f 84//84 116//116 83//83
f 83//83 116//116 117//117
f 83//83 117//117 82//82
f 82//82 117//117 118//118
f 158//158 121//121 157//157
f 157//157 121//121 122//122
f 157//157 122//122 156//156
f 156//156 122//122 123//123
f 156//156 123//123 155//155
f 155//155 123//123 124//124
f 155//155 124//124 154//154
f 154//154 124//124 125//125
f 154//154 125//125 153//153
f 153//153 125//125 126//126
f 153//153 126//126 152//152
f 152//152 126//126 127//127
f 152//152 127//127 151//151
f 151//151 127//127 128//128
f 151//151 128//128 150//150
f 150//150 128//128 129//129
f 150//150 129//129 149//149
f 149//149 129//129 130//130
f 149//149 130//130 148//148
f 148//148 130//130 131//131
f 148//148 131//131 147//147
f 147//147 131//131 132//132
f 147//147 132//132 146//146
f 146//146 132//132 133//133
f 146//146 133//133 145//145
f 145//145 133//133 134//134
f 145//145 134//134 144//144
f 144//144 134//134 135//135
f 144//144 135//135 143//143
f 143//143 135//135 136//136
f 143//143 136//136 142//142
f 142//142 136//136 137//137
f 142//142 137//137 141//141
f 141//141 137//137 138//138
f 141//141 138//138 140//140
f 140//140 138//138 139//139
f 159//159 160//160 162//162
f 162//162 160//160 161//161
f 163//163 164//164 166//166
f 166//166 164//164 165//165
f 167//167 168//168 170//170
f 170//170 168//168 169//169

# End of file