# WaveFront *.obj file
# Vertices: 116
# Triangles : 104

v 17.403905868530273 42.0 -0.020130500197410583
v 17.483280181884766 42.0 -0.29045090079307556
v 17.696199417114258 42.0 -0.4749464988708496
v 17.97506332397461 42.0 -0.5150412321090698
v 18.23133659362793 42.0 -0.39800527691841125
v 18.38365364074707 42.0 -0.16099677979946136
v 18.38365364074707 42.0 0.1207357794046402
v 18.23133659362793 42.0 0.3577442765235901
v 17.97506332397461 42.0 0.47478023171424866
v 17.696199417114258 42.0 0.43468549847602844
v 17.483280181884766 42.0 0.2501899003982544
v 17.403905868530273 0.0 -0.020130500197410583
v 17.483280181884766 0.0 0.2501899003982544
v 17.696199417114258 0.0 0.43468549847602844
v 17.97506332397461 0.0 0.47478023171424866
v 18.23133659362793 0.0 0.3577442765235901
v 18.38365364074707 0.0 0.1207357794046402
v 18.38365364074707 0.0 -0.16099677979946136
v 18.23133659362793 0.0 -0.39800527691841125
v 17.97506332397461 0.0 -0.5150412321090698
v 17.696199417114258 0.0 -0.4749464988708496
v 17.483280181884766 0.0 -0.29045090079307556
v 17.403905868530273 0.0 -0.020130500197410583
v 17.403905868530273 42.0 -0.020130500197410583
v 17.807403564453125 0.0 -0.8416179418563843
v 17.074167251586914 0.0 0.07483695447444916
v 17.993818283081055 0.0 0.8106322288513184
v 18.7270565032959 0.0 -0.10582267493009567
v 17.403905868530273 0.0 -0.020130500197410583
v 17.483280181884766 0.0 -0.29045090079307556
v 17.696199417114258 0.0 -0.4749464988708496
v 17.97506332397461 0.0 -0.5150412321090698
v 18.23133659362793 0.0 -0.39800527691841125
v 18.38365364074707 0.0 -0.16099677979946136
v 18.38365364074707 0.0 0.1207357794046402
v 18.23133659362793 0.0 0.3577442765235901
v 17.97506332397461 0.0 0.47478023171424866
v 17.696199417114258 0.0 0.43468549847602844
v 17.483280181884766 0.0 0.2501899003982544
v 17.993818283081055 0.0 0.8106322288513184
v 17.074167251586914 0.0 0.07483695447444916
v 17.074167251586914 -0.4000000059604645 0.07483695447444916
v 17.993818283081055 -0.4000000059604645 0.8106322288513184
v 17.807403564453125 0.0 -0.8416179418563843
v 18.7270565032959 0.0 -0.10582267493009567
v 18.7270565032959 -0.4000000059604645 -0.10582267493009567
v 17.807403564453125 -0.4000000059604645 -0.8416179418563843
v 17.481260299682617 -0.4000000059604645 -0.020130500197410583
v 17.54835319519043 -0.4000000059604645 -0.24863001704216003
v 17.72833251953125 -0.4000000059604645 -0.40458256006240845
v 17.964054107666016 -0.4000000059604645 -0.43847429752349854
v 18.180681228637695 -0.4000000059604645 -0.33954480290412903
v 18.309431076049805 -0.4000000059604645 -0.13920354843139648
v 18.309431076049805 -0.4000000059604645 0.09894255548715591
v 18.180681228637695 -0.4000000059604645 0.29928380250930786
v 17.964054107666016 -0.4000000059604645 0.39821329712867737
v 17.72833251953125 -0.4000000059604645 0.3643215596675873
v 17.54835319519043 -0.4000000059604645 0.20836901664733887
v 17.481260299682617 42.0 -0.020130500197410583
v 17.54835319519043 42.0 0.20836901664733887
v 17.72833251953125 42.0 0.3643215596675873
v 17.964054107666016 42.0 0.39821329712867737
v 18.180681228637695 42.0 0.29928380250930786
v 18.309431076049805 42.0 0.09894255548715591
v 18.309431076049805 42.0 -0.13920354843139648
v 18.180681228637695 42.0 -0.33954480290412903
v 17.964054107666016 42.0 -0.43847429752349854
v 17.72833251953125 42.0 -0.40458256006240845
v 17.54835319519043 42.0 -0.24863001704216003
v 17.481260299682617 42.0 -0.020130500197410583
v 17.481260299682617 -0.4000000059604645 -0.020130500197410583
v 18.7270565032959 0.0 -0.10582267493009567
v 17.993818283081055 0.0 0.8106322288513184
v 17.993818283081055 -0.4000000059604645 0.8106322288513184
v 18.7270565032959 -0.4000000059604645 -0.10582267493009567
v 17.481260299682617 42.0 -0.020130500197410583
v 17.54835319519043 42.0 -0.24863001704216003
v 17.72833251953125 42.0 -0.40458256006240845
v 17.964054107666016 42.0 -0.43847429752349854
v 18.180681228637695 42.0 -0.33954480290412903
v 18.309431076049805 42.0 -0.13920354843139648
v 18.309431076049805 42.0 0.09894255548715591
v 18.180681228637695 42.0 0.29928380250930786
v 17.964054107666016 42.0 0.39821329712867737
v 17.72833251953125 42.0 0.3643215596675873
v 17.54835319519043 42.0 0.20836901664733887
v 17.403905868530273 42.0 -0.020130500197410583
v 17.483280181884766 42.0 0.2501899003982544
v 17.696199417114258 42.0 0.43468549847602844
v 17.97506332397461 42.0 0.47478023171424866
v 18.23133659362793 42.0 0.3577442765235901
v 18.38365364074707 42.0 0.1207357794046402
v 18.38365364074707 42.0 -0.16099677979946136
v 18.23133659362793 42.0 -0.39800527691841125
v 17.97506332397461 42.0 -0.5150412321090698
v 17.696199417114258 42.0 -0.4749464988708496
v 17.483280181884766 42.0 -0.29045090079307556
v 17.481260299682617 -0.4000000059604645 -0.020130500197410583
v 17.54835319519043 -0.4000000059604645 0.20836901664733887
v 17.72833251953125 -0.4000000059604645 0.3643215596675873
v 17.964054107666016 -0.4000000059604645 0.39821329712867737
v 18.180681228637695 -0.4000000059604645 0.29928380250930786
v 18.309431076049805 -0.4000000059604645 0.09894255548715591
v 18.309431076049805 -0.4000000059604645 -0.13920354843139648
v 18.180681228637695 -0.4000000059604645 -0.33954480290412903
v 17.964054107666016 -0.4000000059604645 -0.43847429752349854
v 17.72833251953125 -0.4000000059604645 -0.40458256006240845
v 17.54835319519043 -0.4000000059604645 -0.24863001704216003
v 17.074167251586914 -0.4000000059604645 0.07483695447444916
v 17.807403564453125 -0.4000000059604645 -0.8416179418563843
v 18.7270565032959 -0.4000000059604645 -0.10582267493009567
v 17.993818283081055 -0.4000000059604645 0.8106322288513184
v 17.074167251586914 0.0 0.07483695447444916
v 17.807403564453125 0.0 -0.8416179418563843
v 17.807403564453125 -0.4000000059604645 -0.8416179418563843
v 17.074167251586914 -0.4000000059604645 0.07483695447444916
vn -1.0 0.0 -1.2246468525851679e-16
vn -0.8412535190582275 0.0 -0.5406408309936523
vn -0.4154150187969208 0.0 -0.9096319675445557
vn 0.1423148363828659 -0.0 -0.9898214340209961
vn 0.6548607349395752 -0.0 -0.7557495832443237
vn 0.9594929814338684 -0.0 -0.28173255920410156
vn 0.9594929814338684 -0.0 0.28173255920410156
vn 0.6548607349395752 -0.0 0.7557495832443237
vn 0.1423148363828659 -0.0 0.9898214340209961
vn -0.4154150187969208 -0.0 0.9096319675445557
vn -0.8412535190582275 -0.0 0.5406408309936523
vn -1.0 -0.0 1.2246468525851679e-16
vn -0.8412535190582275 -0.0 0.5406408309936523
vn -0.4154150187969208 -0.0 0.9096319675445557
vn 0.1423148363828659 -0.0 0.9898214340209961
vn 0.6548607349395752 -0.0 0.7557495832443237
vn 0.9594929814338684 -0.0 0.28173255920410156
vn 0.9594929814338684 -0.0 -0.28173255920410156
vn 0.6548607349395752 -0.0 -0.7557495832443237
vn 0.1423148363828659 -0.0 -0.9898214340209961
vn -0.4154150187969208 0.0 -0.9096319675445557
vn -0.8412535190582275 0.0 -0.5406408309936523
vn -1.0 0.0 -1.2246468525851679e-16
vn -1.0 -0.0 1.2246468525851679e-16
vn -0.0 1.0 -0.0
vn -0.0 1.0 -0.0
vn -0.0 1.0 -0.0
vn -0.0 1.0 -0.0
vn -0.0 1.0 -0.0
vn -0.0 1.0 -0.0
vn -0.0 1.0 -0.0
vn -0.0 1.0 -0.0
vn -0.0 1.0 -0.0
vn -0.0 1.0 -0.0
vn -0.0 1.0 -0.0
vn -0.0 1.0 -0.0
vn -0.0 1.0 -0.0
vn -0.0 1.0 -0.0
vn -0.0 1.0 -0.0
vn -0.6247332096099854 0.0 0.7808382511138916
vn -0.6247332096099854 0.0 0.7808382511138916
vn -0.6247332096099854 0.0 0.7808382511138916
vn -0.6247332096099854 0.0 0.7808382511138916
vn 0.6247332096099854 0.0 -0.7808382511138916
vn 0.6247332096099854 0.0 -0.7808382511138916
vn 0.6247332096099854 0.0 -0.7808382511138916
vn 0.6247332096099854 0.0 -0.7808382511138916
vn 1.0 -0.0 1.2246468525851679e-16
vn 0.8412535190582275 -0.0 0.5406408309936523
vn 0.4154150187969208 -0.0 0.9096319675445557
vn -0.1423148363828659 0.0 0.9898214340209961
vn -0.6548607349395752 0.0 0.7557495832443237
vn -0.9594929814338684 0.0 0.28173255920410156
vn -0.9594929814338684 0.0 -0.28173255920410156
vn -0.6548607349395752 0.0 -0.7557495832443237
vn -0.1423148363828659 0.0 -0.9898214340209961
vn 0.4154150187969208 0.0 -0.9096319675445557
vn 0.8412535190582275 0.0 -0.5406408309936523
vn 1.0 0.0 -1.2246468525851679e-16
vn 0.8412535190582275 0.0 -0.5406408309936523
vn 0.4154150187969208 0.0 -0.9096319675445557
vn -0.1423148363828659 0.0 -0.9898214340209961
vn -0.6548607349395752 0.0 -0.7557495832443237
vn -0.9594929814338684 0.0 -0.28173255920410156
vn -0.9594929814338684 0.0 0.28173255920410156
vn -0.6548607349395752 0.0 0.7557495832443237
vn -0.1423148363828659 0.0 0.9898214340209961
vn 0.4154150187969208 -0.0 0.9096319675445557
vn 0.8412535190582275 -0.0 0.5406408309936523
vn 1.0 -0.0 1.2246468525851679e-16
vn 1.0 0.0 -1.2246468525851679e-16
vn 0.7808382511138916 0.0 0.6247332096099854
vn 0.7808382511138916 0.0 0.6247332096099854
vn 0.7808382511138916 0.0 0.6247332096099854
vn 0.7808382511138916 0.0 0.6247332096099854
vn 0.0 1.0 0.0
vn 0.0 1.0 0.0
vn 0.0 1.0 0.0
vn 0.0 1.0 0.0
vn 0.0 1.0 0.0
vn 0.0 1.0 0.0
vn 0.0 1.0 0.0
vn 0.0 1.0 0.0
vn 0.0 1.0 0.0
vn 0.0 1.0 0.0
vn 0.0 1.0 0.0
vn 0.0 1.0 0.0
vn 0.0 1.0 0.0
vn 0.0 1.0 0.0
vn 0.0 1.0 0.0
vn 0.0 1.0 0.0
vn 0.0 1.0 0.0
vn 0.0 1.0 0.0
vn 0.0 1.0 0.0
vn 0.0 1.0 0.0
vn 0.0 1.0 0.0
vn 0.0 1.0 0.0
vn 0.0 -1.0 0.0
vn 0.0 -1.0 0.0
vn 0.0 -1.0 0.0
vn 0.0 -1.0 0.0
vn 0.0 -1.0 0.0
vn 0.0 -1.0 0.0
vn 0.0 -1.0 0.0
vn 0.0 -1.0 0.0
vn 0.0 -1.0 0.0
vn 0.0 -1.0 0.0
vn 0.0 -1.0 0.0
vn 0.0 -1.0 0.0
vn 0.0 -1.0 0.0
vn 0.0 -1.0 0.0
vn 0.0 -1.0 0.0
vn -0.7808382511138916 -0.0 -0.6247332096099854
vn -0.7808382511138916 -0.0 -0.6247332096099854
vn -0.7808382511138916 -0.0 -0.6247332096099854
vn -0.7808382511138916 -0.0 -0.6247332096099854
f 2//2 22//22 1//1
f 1//1 22//22 23//23
f 24//24 12//12 11//11
f 11//11 12//12 13//13
f 11//11 13//13 10//10
f 10//10 13//13 14//14
f 10//10 14//14 9//9
f 9//9 14//14 15//15
f 9//9 15//15 8//8
f 8//8 15//15 16//16
f 8//8 16//16 7//7
f 7//7 16//16 17//17
f 7//7 17//17 6//6
f 6//6 17//17 18//18
f 6//6 18//18 5//5
f 5//5 18//18 19//19
f 5//5 19//19 4//4
f 4//4 19//19 20//20
f 4//4 20//20 3//3
f 3//3 20//20 21//21
f 3//3 21//21 2//2
f 2//2 21//21 22//22
f 26//26 30//30 25//25
f 25//25 30//30 31//31
f 25//25 31//31 32//32
f 27//27 38//38 26//26
f 26//26 38//38 39//39
f 26//26 39//39 29//29
f 28//28 36//36 27//27
f 27//27 36//36 37//37
f 27//27 37//37 38//38
f 25//25 33//33 28//28
f 28//28 33//33 34//34
f 28//28 34//34 35//35
f 29//29 30//30 26//26
f 32//32 33//33 25//25
f 35//35 36//36 28//28
f 40//40 41//41 43//43
f 43//43 41//41 42//42
f 44//44 45//45 47//47
f 47//47 45//45 46//46
f 49//49 69//69 48//48
f 48//48 69//69 70//70
f 71//71 59//59 58//58
f 58//58 59//59 60//60
f 58//58 60//60 61//61
f 49//49 50//50 69//69
f 69//69 50//50 68//68
f 68//68 50//50 51//51
f 68//68 51//51 67//67
f 67//67 51//51 52//52
f 67//67 52//52 66//66
f 66//66 52//52 53//53
f 66//66 53//53 65//65
f 65//65 53//53 54//54
f 65//65 54//54 64//64
f 64//64 54//54 55//55
f 64//64 55//55 63//63
f 63//63 55//55 56//56
f 63//63 56//56 62//62
f 62//62 56//56 57//57
f 62//62 57//57 61//61
f 61//61 57//57 58//58
f 72//72 73//73 75//75
f 75//75 73//73 74//74
f 86//86 76//76 87//87
f 87//87 76//76 77//77
f 87//87 77//77 97//97
f 97//97 77//77 78//78
f 97//97 78//78 96//96
f 96//96 78//78 79//79
f 96//96 79//79 95//95
f 95//95 79//79 94//94
f 94//94 79//79 80//80
f 94//94 80//80 93//93
f 93//93 80//80 81//81
f 93//93 81//81 92//92
f 92//92 81//81 82//82
f 92//92 82//82 83//83
f 92//92 83//83 91//91
f 91//91 83//83 84//84
f 91//91 84//84 90//90
f 90//90 84//84 89//89
f 89//89 84//84 85//85
f 89//89 85//85 88//88
f 88//88 85//85 86//86
f 88//88 86//86 87//87
f 108//108 98//98 109//109
f 109//109 98//98 99//99
f 109//109 99//99 100//100
f 109//109 100//100 112//112
f 112//112 100//100 101//101
f 112//112 101//101 102//102
f 112//112 102//102 111//111
f 111//111 102//102 103//103
f 111//111 103//103 104//104
f 104//104 105//105 111//111
f 111//111 105//105 110//110
f 110//110 105//105 106//106
f 110//110 106//106 107//107
f 107//107 108//108 110//110
f 110//110 108//108 109//109
f 113//113 114//114 116//116
f 116//116 114//114 115//115

# End of file