# WaveFront *.obj file
# Vertices: 40
# Triangles : 28

v 0.47761785984039307 0.0 4.776178359985352
v 0.15944050252437592 0.0 4.797351360321045
v -0.15944050252437592 0.0 4.797351360321045
v -0.47761785984039307 0.0 4.776178359985352
v -0.47761785984039307 8.0 4.776178359985352
v -0.15944050252437592 8.0 4.797351360321045
v 0.15944050252437592 8.0 4.797351360321045
v 0.47761785984039307 8.0 4.776178359985352
v 0.4875682294368744 0.0 4.875682353973389
v 0.47761785984039307 0.0 4.776178359985352
v 0.47761785984039307 8.0 4.776178359985352
v 0.4875682294368744 8.0 4.875682353973389
v -0.4875682294368744 0.0 4.875682353973389
v -0.16276217997074127 0.0 4.897295951843262
v 0.16276217997074127 0.0 4.897295951843262
v 0.4875682294368744 0.0 4.875682353973389
v 0.4875682294368744 8.0 4.875682353973389
v 0.16276217997074127 8.0 4.897295951843262
v -0.16276217997074127 8.0 4.897295951843262
v -0.4875682294368744 8.0 4.875682353973389
v -0.47761785984039307 0.0 4.776178359985352
v -0.4875682294368744 0.0 4.875682353973389
v -0.4875682294368744 8.0 4.875682353973389
v -0.47761785984039307 8.0 4.776178359985352
v -0.47761785984039307 8.0 4.776178359985352
v -0.4875682294368744 8.0 4.875682353973389
v -0.16276217997074127 8.0 4.897295951843262
v 0.16276217997074127 8.0 4.897295951843262
v 0.4875682294368744 8.0 4.875682353973389
v 0.47761785984039307 8.0 4.776178359985352
v 0.15944050252437592 8.0 4.797351360321045
v -0.15944050252437592 8.0 4.797351360321045
v -0.4875682294368744 0.0 4.875682353973389
v -0.47761785984039307 0.0 4.776178359985352
v -0.15944050252437592 0.0 4.797351360321045
v 0.15944050252437592 0.0 4.797351360321045
v 0.47761785984039307 0.0 4.776178359985352
v 0.4875682294368744 0.0 4.875682353973389
v 0.16276217997074127 0.0 4.897295951843262
v -0.16276217997074127 0.0 4.897295951843262
vn -0.09950371831655502 0.0 -0.9950371980667114
vn -0.033216774463653564 0.0 -0.9994481801986694
vn 0.033216774463653564 0.0 -0.9994481801986694
vn 0.09950371831655502 0.0 -0.9950371980667114
vn 0.09950371831655502 0.0 -0.9950371980667114
vn 0.033216774463653564 0.0 -0.9994481801986694
vn -0.033216774463653564 0.0 -0.9994481801986694
vn -0.09950371831655502 0.0 -0.9950371980667114
vn 0.9950371980667114 0.0 -0.09950371831655502
vn 0.9950371980667114 0.0 -0.09950371831655502
vn 0.9950371980667114 0.0 -0.09950371831655502
vn 0.9950371980667114 0.0 -0.09950371831655502
vn -0.09950371831655502 -0.0 0.9950371980667114
vn -0.033216774463653564 -0.0 0.9994481801986694
vn 0.033216774463653564 -0.0 0.9994481801986694
vn 0.09950371831655502 -0.0 0.9950371980667114
vn 0.09950371831655502 -0.0 0.9950371980667114
vn 0.033216774463653564 -0.0 0.9994481801986694
vn -0.033216774463653564 -0.0 0.9994481801986694
vn -0.09950371831655502 -0.0 0.9950371980667114
vn -0.9950371980667114 0.0 -0.09950371831655502
vn -0.9950371980667114 0.0 -0.09950371831655502
vn -0.9950371980667114 0.0 -0.09950371831655502
vn -0.9950371980667114 0.0 -0.09950371831655502
vn 0.0 1.0 0.0
vn 0.0 1.0 0.0
vn 0.0 1.0 0.0
vn 0.0 1.0 0.0
vn 0.0 1.0 0.0
vn 0.0 1.0 0.0
vn 0.0 1.0 0.0
vn 0.0 1.0 0.0
vn -0.0 -1.0 -0.0
vn -0.0 -1.0 -0.0
vn -0.0 -1.0 -0.0
vn -0.0 -1.0 -0.0
vn -0.0 -1.0 -0.0
vn -0.0 -1.0 -0.0
vn -0.0 -1.0 -0.0
vn -0.0 -1.0 -0.0
g bf29e758-e2a6-11ea-bb64-54bf646e7e1f
f 8//8 1//1 7//7
f 7//7 1//1 2//2
f 7//7 2//2 6//6
f 6//6 2//2 3//3
f 6//6 3//3 5//5
f 5//5 3//3 4//4
g bf2a358a-e2a6-11ea-a0eb-54bf646e7e1f
f 9//9 10//10 12//12
f 12//12 10//10 11//11
g bf2a83a4-e2a6-11ea-a213-54bf646e7e1f
f 20//20 13//13 19//19
f 19//19 13//13 14//14
f 19//19 14//14 18//18
f 18//18 14//14 15//15
f 18//18 15//15 17//17
f 17//17 15//15 16//16
g bf2ad1ca-e2a6-11ea-b2e4-54bf646e7e1f
f 21//21 22//22 24//24
f 24//24 22//22 23//23
g bf2b1fde-e2a6-11ea-9d9e-54bf646e7e1f
f 25//25 26//26 32//32
f 32//32 26//26 27//27
f 32//32 27//27 28//28
f 32//32 28//28 31//31
f 31//31 28//28 29//29
f 31//31 29//29 30//30
g bf2b9512-e2a6-11ea-ab5c-54bf646e7e1f
f 34//34 35//35 33//33
f 33//33 35//35 40//40
f 40//40 35//35 36//36
f 40//40 36//36 39//39
f 39//39 36//36 38//38
f 38//38 36//36 37//37

# End of file