# WaveFront *.obj file
# Vertices: 228
# Triangles : 204

v -2.0 3.200000047683716 -0.39396461844444275
v 2.0 3.200000047683716 -0.39396461844444275
v 2.0 3.200000047683716 -1.3000000715255737
v -2.0 3.200000047683716 -1.3000000715255737
v -2.0 3.200000047683716 -1.3000000715255737
v 2.0 3.200000047683716 -1.3000000715255737
v 2.0 1.0 -1.3071743249893188
v -2.0 1.0 -1.3071743249893188
v -2.0 1.0 -0.39396461844444275
v 2.0 1.0 -0.39396461844444275
v 2.0 3.200000047683716 -0.39396461844444275
v -2.0 3.200000047683716 -0.39396461844444275
v 2.0 1.0 -0.39396461844444275
v -2.0 1.0 -0.39396461844444275
v -2.0 1.0 0.4000000059604645
v 2.0 1.0 0.4000000059604645
v -1.7000000476837158 1.0 2.4492935397342132e-17
v -1.6891634464263916 1.0 -0.06493989378213882
v -1.6578280925750732 1.0 -0.12284254282712936
v -1.6093896627426147 1.0 -0.16743329167366028
v -1.5490970611572266 1.0 -0.19388005137443542
v -1.483484148979187 1.0 -0.19931690394878387
v -1.4196609258651733 1.0 -0.18315467238426208
v -1.3645436763763428 1.0 -0.14714477956295013
v -1.3241052627563477 1.0 -0.09518948197364807
v -1.3027278184890747 1.0 -0.03291891887784004
v -1.3027278184890747 1.0 0.03291891887784004
v -1.3241052627563477 1.0 0.09518948197364807
v -1.3645436763763428 1.0 0.14714477956295013
v -1.4196609258651733 1.0 0.18315467238426208
v -1.483484148979187 1.0 0.19931690394878387
v -1.5490970611572266 1.0 0.19388005137443542
v -1.6093896627426147 1.0 0.16743329167366028
v -1.6578280925750732 1.0 0.12284254282712936
v -1.6891634464263916 1.0 0.06493989378213882
v 1.3000000715255737 1.0 2.4492937051703357e-17
v 1.3108365535736084 1.0 -0.06493989378213882
v 1.3421719074249268 1.0 -0.12284254282712936
v 1.3906103372573853 1.0 -0.16743329167366028
v 1.4509029388427734 1.0 -0.19388005137443542
v 1.516515851020813 1.0 -0.19931690394878387
v 1.5803390741348267 1.0 -0.18315467238426208
v 1.6354563236236572 1.0 -0.14714477956295013
v 1.6758947372436523 1.0 -0.09518948197364807
v 1.6972723007202148 1.0 -0.03291891887784004
v 1.6972723007202148 1.0 0.03291891887784004
v 1.6758947372436523 1.0 0.09518948197364807
v 1.6354563236236572 1.0 0.14714477956295013
v 1.5803390741348267 1.0 0.18315467238426208
v 1.516515851020813 1.0 0.19931690394878387
v 1.4509029388427734 1.0 0.19388005137443542
v 1.3906103372573853 1.0 0.16743329167366028
v 1.3421719074249268 1.0 0.12284254282712936
v 1.3108365535736084 1.0 0.06493989378213882
v -2.0 1.7000000476837158 0.5937475562095642
v 2.0 1.7000000476837158 0.5937475562095642
v 2.0 1.7000000476837158 0.4000000059604645
v -2.0 1.7000000476837158 0.4000000059604645
v -2.0 1.7000000476837158 0.4000000059604645
v 2.0 1.7000000476837158 0.4000000059604645
v 2.0 1.0 0.4000000059604645
v -2.0 1.0 0.4000000059604645
v -2.0 1.0 0.5937475562095642
v 2.0 1.0 0.5937475562095642
v 2.0 1.7000000476837158 0.5937475562095642
v -2.0 1.7000000476837158 0.5937475562095642
v 2.0 1.0 0.5937475562095642
v -2.0 1.0 0.5937475562095642
v -2.0 1.0 1.5
v 2.0 1.0 1.5
v 1.3000000715255737 1.0 2.4492937051703357e-17
v 1.3108365535736084 1.0 0.06493989378213882
v 1.3421719074249268 1.0 0.12284254282712936
v 1.3906103372573853 1.0 0.16743329167366028
v 1.4509029388427734 1.0 0.19388005137443542
v 1.516515851020813 1.0 0.19931690394878387
v 1.5803390741348267 1.0 0.18315467238426208
v 1.6354563236236572 1.0 0.14714477956295013
v 1.6758947372436523 1.0 0.09518948197364807
v 1.6972723007202148 1.0 0.03291891887784004
v 1.6972723007202148 1.0 -0.03291891887784004
v 1.6758947372436523 1.0 -0.09518948197364807
v 1.6354563236236572 1.0 -0.14714477956295013
v 1.5803390741348267 1.0 -0.18315467238426208
v 1.516515851020813 1.0 -0.19931690394878387
v 1.4509029388427734 1.0 -0.19388005137443542
v 1.3906103372573853 1.0 -0.16743329167366028
v 1.3421719074249268 1.0 -0.12284254282712936
v 1.3108365535736084 1.0 -0.06493989378213882
v 1.3000000715255737 0.0 2.4492937051703357e-17
v 1.3108365535736084 0.0 -0.06493989378213882
v 1.3421719074249268 0.0 -0.12284254282712936
v 1.3906103372573853 0.0 -0.16743329167366028
v 1.4509029388427734 0.0 -0.19388005137443542
v 1.516515851020813 0.0 -0.19931690394878387
v 1.5803390741348267 0.0 -0.18315467238426208
v 1.6354563236236572 0.0 -0.14714477956295013
v 1.6758947372436523 0.0 -0.09518948197364807
v 1.6972723007202148 0.0 -0.03291891887784004
v 1.6972723007202148 0.0 0.03291891887784004
v 1.6758947372436523 0.0 0.09518948197364807
v 1.6354563236236572 0.0 0.14714477956295013
v 1.5803390741348267 0.0 0.18315467238426208
v 1.516515851020813 0.0 0.19931690394878387
v 1.4509029388427734 0.0 0.19388005137443542
v 1.3906103372573853 0.0 0.16743329167366028
v 1.3421719074249268 0.0 0.12284254282712936
v 1.3108365535736084 0.0 0.06493989378213882
v 1.3000000715255737 1.0 2.4492937051703357e-17
v 1.3000000715255737 0.0 2.4492937051703357e-17
v -1.7000000476837158 1.0 2.4492935397342132e-17
v -1.6891634464263916 1.0 0.06493989378213882
v -1.6578280925750732 1.0 0.12284254282712936
v -1.6093896627426147 1.0 0.16743329167366028
v -1.5490970611572266 1.0 0.19388005137443542
v -1.483484148979187 1.0 0.19931690394878387
v -1.4196609258651733 1.0 0.18315467238426208
v -1.3645436763763428 1.0 0.14714477956295013
v -1.3241052627563477 1.0 0.09518948197364807
v -1.3027278184890747 1.0 0.03291891887784004
v -1.3027278184890747 1.0 -0.03291891887784004
v -1.3241052627563477 1.0 -0.09518948197364807
v -1.3645436763763428 1.0 -0.14714477956295013
v -1.4196609258651733 1.0 -0.18315467238426208
v -1.483484148979187 1.0 -0.19931690394878387
v -1.5490970611572266 1.0 -0.19388005137443542
v -1.6093896627426147 1.0 -0.16743329167366028
v -1.6578280925750732 1.0 -0.12284254282712936
v -1.6891634464263916 1.0 -0.06493989378213882
v -1.7000000476837158 0.0 2.4492935397342132e-17
v -1.6891634464263916 0.0 -0.06493989378213882
v -1.6578280925750732 0.0 -0.12284254282712936
v -1.6093896627426147 0.0 -0.16743329167366028
v -1.5490970611572266 0.0 -0.19388005137443542
v -1.483484148979187 0.0 -0.19931690394878387
v -1.4196609258651733 0.0 -0.18315467238426208
v -1.3645436763763428 0.0 -0.14714477956295013
v -1.3241052627563477 0.0 -0.09518948197364807
v -1.3027278184890747 0.0 -0.03291891887784004
v -1.3027278184890747 0.0 0.03291891887784004
v -1.3241052627563477 0.0 0.09518948197364807
v -1.3645436763763428 0.0 0.14714477956295013
v -1.4196609258651733 0.0 0.18315467238426208
v -1.483484148979187 0.0 0.19931690394878387
v -1.5490970611572266 0.0 0.19388005137443542
v -1.6093896627426147 0.0 0.16743329167366028
v -1.6578280925750732 0.0 0.12284254282712936
v -1.6891634464263916 0.0 0.06493989378213882
v -1.7000000476837158 1.0 2.4492935397342132e-17
v -1.7000000476837158 0.0 2.4492935397342132e-17
v -2.0 0.0 1.5
v 2.0 0.0 1.5
v 2.0 1.0 1.5
v -2.0 1.0 1.5
v -2.0 0.0 -1.5
v -2.0 0.0 1.5
v -2.0 1.0 1.5
v -2.0 1.0 0.5937475562095642
v -2.0 1.7000000476837158 0.5937475562095642
v -2.0 1.7000000476837158 0.4000000059604645
v -2.0 1.0 0.4000000059604645
v -2.0 1.0 -0.39396461844444275
v -2.0 3.200000047683716 -0.39396461844444275
v -2.0 3.200000047683716 -1.3000000715255737
v -2.0 1.0 -1.3071743249893188
v -2.0 1.0 -1.5
v 2.0 0.0 -1.5
v -2.0 0.0 -1.5
v -2.0 1.0 -1.5
v 2.0 1.0 -1.5
v 2.0 0.0 1.5
v 2.0 0.0 -1.5
v 2.0 1.0 -1.5
v 2.0 1.0 -1.3071743249893188
v 2.0 3.200000047683716 -1.3000000715255737
v 2.0 3.200000047683716 -0.39396461844444275
v 2.0 1.0 -0.39396461844444275
v 2.0 1.0 0.4000000059604645
v 2.0 1.7000000476837158 0.4000000059604645
v 2.0 1.7000000476837158 0.5937475562095642
v 2.0 1.0 0.5937475562095642
v 2.0 1.0 1.5
v -2.0 1.0 -1.3071743249893188
v 2.0 1.0 -1.3071743249893188
v 2.0 1.0 -1.5
v -2.0 1.0 -1.5
v -1.7000000476837158 0.0 2.4492935397342132e-17
v -1.6891634464263916 0.0 0.06493989378213882
v -1.6578280925750732 0.0 0.12284254282712936
v -1.6093896627426147 0.0 0.16743329167366028
v -1.5490970611572266 0.0 0.19388005137443542
v -1.483484148979187 0.0 0.19931690394878387
v -1.4196609258651733 0.0 0.18315467238426208
v -1.3645436763763428 0.0 0.14714477956295013
v -1.3241052627563477 0.0 0.09518948197364807
v -1.3027278184890747 0.0 0.03291891887784004
v -1.3027278184890747 0.0 -0.03291891887784004
v -1.3241052627563477 0.0 -0.09518948197364807
v -1.3645436763763428 0.0 -0.14714477956295013
v -1.4196609258651733 0.0 -0.18315467238426208
v -1.483484148979187 0.0 -0.19931690394878387
v -1.5490970611572266 0.0 -0.19388005137443542
v -1.6093896627426147 0.0 -0.16743329167366028
v -1.6578280925750732 0.0 -0.12284254282712936
v -1.6891634464263916 0.0 -0.06493989378213882
v 1.3000000715255737 0.0 2.4492937051703357e-17
v 1.3108365535736084 0.0 0.06493989378213882
v 1.3421719074249268 0.0 0.12284254282712936
v 1.3906103372573853 0.0 0.16743329167366028
v 1.4509029388427734 0.0 0.19388005137443542
v 1.516515851020813 0.0 0.19931690394878387
v 1.5803390741348267 0.0 0.18315467238426208
v 1.6354563236236572 0.0 0.14714477956295013
v 1.6758947372436523 0.0 0.09518948197364807
v 1.6972723007202148 0.0 0.03291891887784004
v 1.6972723007202148 0.0 -0.03291891887784004
v 1.6758947372436523 0.0 -0.09518948197364807
v 1.6354563236236572 0.0 -0.14714477956295013
v 1.5803390741348267 0.0 -0.18315467238426208
v 1.516515851020813 0.0 -0.19931690394878387
v 1.4509029388427734 0.0 -0.19388005137443542
v 1.3906103372573853 0.0 -0.16743329167366028
v 1.3421719074249268 0.0 -0.12284254282712936
v 1.3108365535736084 0.0 -0.06493989378213882
v 2.0 0.0 -1.5
v 2.0 0.0 1.5
v -2.0 0.0 1.5
v -2.0 0.0 -1.5
vn -0.0 1.0 0.0
vn -0.0 1.0 0.0
vn -0.0 1.0 0.0
vn -0.0 1.0 0.0
vn 0.0 0.0032610513735562563 -0.999994695186615
vn 0.0 0.0032610513735562563 -0.999994695186615
vn 0.0 0.0032610513735562563 -0.999994695186615
vn 0.0 0.0032610513735562563 -0.999994695186615
vn 0.0 0.0 1.0
vn 0.0 0.0 1.0
vn 0.0 0.0 1.0
vn 0.0 0.0 1.0
vn 0.0 1.0 0.0
vn 0.0 1.0 0.0
vn 0.0 1.0 0.0
vn 0.0 1.0 0.0
vn 0.0 1.0 0.0
vn 0.0 1.0 0.0
vn 0.0 1.0 0.0
vn 0.0 1.0 0.0
vn 0.0 1.0 0.0
vn 0.0 1.0 0.0
vn 0.0 1.0 0.0
vn 0.0 1.0 0.0
vn 0.0 1.0 0.0
vn 0.0 1.0 0.0
vn 0.0 1.0 0.0
vn 0.0 1.0 0.0
vn 0.0 1.0 0.0
vn 0.0 1.0 0.0
vn 0.0 1.0 0.0
vn 0.0 1.0 0.0
vn 0.0 1.0 0.0
vn 0.0 1.0 0.0
vn 0.0 1.0 0.0
vn 0.0 1.0 0.0
vn 0.0 1.0 0.0
vn 0.0 1.0 0.0
vn 0.0 1.0 0.0
vn 0.0 1.0 0.0
vn 0.0 1.0 0.0
vn 0.0 1.0 0.0
vn 0.0 1.0 0.0
vn 0.0 1.0 0.0
vn 0.0 1.0 0.0
vn 0.0 1.0 0.0
vn 0.0 1.0 0.0
vn 0.0 1.0 0.0
vn 0.0 1.0 0.0
vn 0.0 1.0 0.0
vn 0.0 1.0 0.0
vn 0.0 1.0 0.0
vn 0.0 1.0 0.0
vn 0.0 1.0 0.0
vn 0.0 1.0 0.0
vn 0.0 1.0 0.0
vn 0.0 1.0 0.0
vn 0.0 1.0 0.0
vn 0.0 0.0 -1.0
vn 0.0 0.0 -1.0
vn 0.0 0.0 -1.0
vn 0.0 0.0 -1.0
vn -0.0 0.0 1.0
vn -0.0 0.0 1.0
vn -0.0 0.0 1.0
vn -0.0 0.0 1.0
vn 0.0 1.0 0.0
vn 0.0 1.0 0.0
vn 0.0 1.0 0.0
vn 0.0 1.0 0.0
vn 1.0 0.0 -1.2246468525851679e-16
vn 0.945817232131958 0.0 -0.3246994614601135
vn 0.789140522480011 0.0 -0.614212691783905
vn 0.5469481348991394 0.0 -0.8371664881706238
vn 0.24548548460006714 0.0 -0.9694002866744995
vn -0.0825793445110321 0.0 -0.9965844750404358
vn -0.4016954302787781 0.0 -0.915773332118988
vn -0.6772815585136414 0.0 -0.7357239127159119
vn -0.8794737458229065 0.0 -0.47594738006591797
vn -0.9863613247871399 0.0 -0.1645945906639099
vn -0.9863613247871399 0.0 0.1645945906639099
vn -0.8794737458229065 0.0 0.47594738006591797
vn -0.6772815585136414 0.0 0.7357239127159119
vn -0.4016954302787781 0.0 0.915773332118988
vn -0.0825793445110321 0.0 0.9965844750404358
vn 0.24548548460006714 -0.0 0.9694002866744995
vn 0.5469481348991394 -0.0 0.8371664881706238
vn 0.789140522480011 -0.0 0.614212691783905
vn 0.945817232131958 -0.0 0.3246994614601135
vn 1.0 -0.0 1.2246468525851679e-16
vn 0.945817232131958 -0.0 0.3246994614601135
vn 0.789140522480011 -0.0 0.614212691783905
vn 0.5469481348991394 -0.0 0.8371664881706238
vn 0.24548548460006714 -0.0 0.9694002866744995
vn -0.0825793445110321 0.0 0.9965844750404358
vn -0.4016954302787781 0.0 0.915773332118988
vn -0.6772815585136414 0.0 0.7357239127159119
vn -0.8794737458229065 0.0 0.47594738006591797
vn -0.9863613247871399 0.0 0.1645945906639099
vn -0.9863613247871399 0.0 -0.1645945906639099
vn -0.8794737458229065 0.0 -0.47594738006591797
vn -0.6772815585136414 0.0 -0.7357239127159119
vn -0.4016954302787781 0.0 -0.915773332118988
vn -0.0825793445110321 0.0 -0.9965844750404358
vn 0.24548548460006714 0.0 -0.9694002866744995
vn 0.5469481348991394 0.0 -0.8371664881706238
vn 0.789140522480011 0.0 -0.614212691783905
vn 0.945817232131958 0.0 -0.3246994614601135
vn 1.0 -0.0 1.2246468525851679e-16
vn 1.0 0.0 -1.2246468525851679e-16
vn 1.0 0.0 -1.2246468525851679e-16
vn 0.945817232131958 0.0 -0.3246994614601135
vn 0.789140522480011 0.0 -0.614212691783905
vn 0.5469481348991394 0.0 -0.8371664881706238
vn 0.24548548460006714 0.0 -0.9694002866744995
vn -0.0825793445110321 0.0 -0.9965844750404358
vn -0.4016954302787781 0.0 -0.915773332118988
vn -0.6772815585136414 0.0 -0.7357239127159119
vn -0.8794737458229065 0.0 -0.47594738006591797
vn -0.9863613247871399 0.0 -0.1645945906639099
vn -0.9863613247871399 0.0 0.1645945906639099
vn -0.8794737458229065 0.0 0.47594738006591797
vn -0.6772815585136414 0.0 0.7357239127159119
vn -0.4016954302787781 0.0 0.915773332118988
vn -0.0825793445110321 0.0 0.9965844750404358
vn 0.24548548460006714 -0.0 0.9694002866744995
vn 0.5469481348991394 -0.0 0.8371664881706238
vn 0.789140522480011 -0.0 0.614212691783905
vn 0.945817232131958 -0.0 0.3246994614601135
vn 1.0 -0.0 1.2246468525851679e-16
vn 0.945817232131958 -0.0 0.3246994614601135
vn 0.789140522480011 -0.0 0.614212691783905
vn 0.5469481348991394 -0.0 0.8371664881706238
vn 0.24548548460006714 -0.0 0.9694002866744995
vn -0.0825793445110321 0.0 0.9965844750404358
vn -0.4016954302787781 0.0 0.915773332118988
vn -0.6772815585136414 0.0 0.7357239127159119
vn -0.8794737458229065 0.0 0.47594738006591797
vn -0.9863613247871399 0.0 0.1645945906639099
vn -0.9863613247871399 0.0 -0.1645945906639099
vn -0.8794737458229065 0.0 -0.47594738006591797
vn -0.6772815585136414 0.0 -0.7357239127159119
vn -0.4016954302787781 0.0 -0.915773332118988
vn -0.0825793445110321 0.0 -0.9965844750404358
vn 0.24548548460006714 0.0 -0.9694002866744995
vn 0.5469481348991394 0.0 -0.8371664881706238
vn 0.789140522480011 0.0 -0.614212691783905
vn 0.945817232131958 0.0 -0.3246994614601135
vn 1.0 -0.0 1.2246468525851679e-16
vn 1.0 0.0 -1.2246468525851679e-16
vn 0.0 0.0 1.0
vn 0.0 0.0 1.0
vn 0.0 0.0 1.0
vn 0.0 0.0 1.0
vn -1.0 0.0 0.0
vn -1.0 0.0 0.0
vn -1.0 0.0 0.0
vn -1.0 0.0 0.0
vn -1.0 0.0 0.0
vn -1.0 0.0 0.0
vn -1.0 0.0 0.0
vn -1.0 0.0 0.0
vn -1.0 0.0 0.0
vn -1.0 0.0 0.0
vn -1.0 0.0 0.0
vn -1.0 0.0 0.0
vn 0.0 0.0 -1.0
vn 0.0 0.0 -1.0
vn 0.0 0.0 -1.0
vn 0.0 0.0 -1.0
vn 1.0 -0.0 0.0
vn 1.0 -0.0 0.0
vn 1.0 -0.0 0.0
vn 1.0 -0.0 0.0
vn 1.0 -0.0 0.0
vn 1.0 -0.0 0.0
vn 1.0 -0.0 0.0
vn 1.0 -0.0 0.0
vn 1.0 -0.0 0.0
vn 1.0 -0.0 0.0
vn 1.0 -0.0 0.0
vn 1.0 -0.0 0.0
vn 0.0 1.0 0.0
vn 0.0 1.0 0.0
vn 0.0 1.0 0.0
vn 0.0 1.0 0.0
vn -0.0 -1.0 -0.0
vn -0.0 -1.0 -0.0
vn -0.0 -1.0 -0.0
vn -0.0 -1.0 -0.0
vn -0.0 -1.0 -0.0
vn -0.0 -1.0 -0.0
vn -0.0 -1.0 -0.0
vn -0.0 -1.0 -0.0
vn -0.0 -1.0 -0.0
vn -0.0 -1.0 -0.0
vn -0.0 -1.0 -0.0
vn -0.0 -1.0 -0.0
vn -0.0 -1.0 -0.0
vn -0.0 -1.0 -0.0
vn -0.0 -1.0 -0.0
vn -0.0 -1.0 -0.0
vn -0.0 -1.0 -0.0
vn -0.0 -1.0 -0.0
vn -0.0 -1.0 -0.0
vn -0.0 -1.0 -0.0
vn -0.0 -1.0 -0.0
vn -0.0 -1.0 -0.0
vn -0.0 -1.0 -0.0
vn -0.0 -1.0 -0.0
vn -0.0 -1.0 -0.0
vn -0.0 -1.0 -0.0
vn -0.0 -1.0 -0.0
vn -0.0 -1.0 -0.0
vn -0.0 -1.0 -0.0
vn -0.0 -1.0 -0.0
vn -0.0 -1.0 -0.0
vn -0.0 -1.0 -0.0
vn -0.0 -1.0 -0.0
vn -0.0 -1.0 -0.0
vn -0.0 -1.0 -0.0
vn -0.0 -1.0 -0.0
vn -0.0 -1.0 -0.0
vn -0.0 -1.0 -0.0
vn -0.0 -1.0 -0.0
vn -0.0 -1.0 -0.0
vn -0.0 -1.0 -0.0
vn -0.0 -1.0 -0.0
g 067f9346-e2a7-11ea-92d3-54bf646e7e1f
f 2//2 3//3 1//1
f 1//1 3//3 4//4
g 06805692-e2a7-11ea-b2bf-54bf646e7e1f
f 6//6 7//7 5//5
f 5//5 7//7 8//8
g 068119e2-e2a7-11ea-84cf-54bf646e7e1f
f 10//10 11//11 9//9
f 9//9 11//11 12//12
g 06050b10-e2a7-11ea-8136-54bf646e7e1f
f 14//14 40//40 13//13
f 13//13 40//40 41//41
f 13//13 41//41 42//42
f 15//15 17//17 14//14
f 14//14 17//17 18//18
f 14//14 18//18 19//19
f 16//16 51//51 15//15
f 15//15 51//51 30//30
f 15//15 30//30 31//31
f 13//13 46//46 16//16
f 16//16 46//46 47//47
f 16//16 47//47 48//48
f 19//19 20//20 14//14
f 14//14 20//20 21//21
f 14//14 21//21 22//22
f 22//22 23//23 14//14
f 14//14 23//23 40//40
f 40//40 23//23 39//39
f 39//39 23//23 24//24
f 39//39 24//24 38//38
f 38//38 24//24 25//25
f 38//38 25//25 37//37
f 37//37 25//25 26//26
f 37//37 26//26 36//36
f 36//36 26//26 27//27
f 36//36 27//27 54//54
f 54//54 27//27 28//28
f 54//54 28//28 53//53
f 53//53 28//28 29//29
f 53//53 29//29 52//52
f 52//52 29//29 30//30
f 52//52 30//30 51//51
f 31//31 32//32 15//15
f 15//15 32//32 33//33
f 15//15 33//33 34//34
f 34//34 35//35 15//15
f 15//15 35//35 17//17
f 42//42 43//43 13//13
f 13//13 43//43 44//44
f 13//13 44//44 45//45
f 45//45 46//46 13//13
f 48//48 49//49 16//16
f 16//16 49//49 50//50
f 16//16 50//50 51//51
g 0682042e-e2a7-11ea-93d8-54bf646e7e1f
f 56//56 57//57 55//55
f 55//55 57//57 58//58
g 0682c780-e2a7-11ea-a092-54bf646e7e1f
f 60//60 61//61 59//59
f 59//59 61//61 62//62
g 068363ca-e2a7-11ea-a093-54bf646e7e1f
f 64//64 65//65 63//63
f 63//63 65//65 66//66
g 0684271e-e2a7-11ea-89ed-54bf646e7e1f
f 67//67 68//68 70//70
f 70//70 68//68 69//69
g 06033642-e2a7-11ea-a9df-54bf646e7e1f
f 72//72 108//108 71//71
f 71//71 108//108 110//110
f 109//109 90//90 89//89
f 89//89 90//90 91//91
f 89//89 91//91 88//88
f 88//88 91//91 92//92
f 88//88 92//92 87//87
f 87//87 92//92 93//93
f 87//87 93//93 86//86
f 86//86 93//93 94//94
f 86//86 94//94 85//85
f 85//85 94//94 95//95
f 85//85 95//95 84//84
f 84//84 95//95 96//96
f 84//84 96//96 83//83
f 83//83 96//96 97//97
f 83//83 97//97 82//82
f 82//82 97//97 98//98
f 82//82 98//98 81//81
f 81//81 98//98 99//99
f 81//81 99//99 80//80
f 80//80 99//99 100//100
f 80//80 100//100 79//79
f 79//79 100//100 101//101
f 79//79 101//101 78//78
f 78//78 101//101 102//102
f 78//78 102//102 77//77
f 77//77 102//102 103//103
f 77//77 103//103 76//76
f 76//76 103//103 104//104
f 76//76 104//104 75//75
f 75//75 104//104 105//105
f 75//75 105//105 74//74
f 74//74 105//105 106//106
f 74//74 106//106 73//73
f 73//73 106//106 107//107
f 73//73 107//107 72//72
f 72//72 107//107 108//108
g 0603ab80-e2a7-11ea-8796-54bf646e7e1f
f 112//112 148//148 111//111
f 111//111 148//148 150//150
f 149//149 130//130 129//129
f 129//129 130//130 131//131
f 129//129 131//131 128//128
f 128//128 131//131 132//132
f 128//128 132//132 127//127
f 127//127 132//132 133//133
f 127//127 133//133 126//126
f 126//126 133//133 134//134
f 126//126 134//134 125//125
f 125//125 134//134 135//135
f 125//125 135//135 124//124
f 124//124 135//135 136//136
f 124//124 136//136 123//123
f 123//123 136//136 137//137
f 123//123 137//137 122//122
f 122//122 137//137 138//138
f 122//122 138//138 121//121
f 121//121 138//138 139//139
f 121//121 139//139 120//120
f 120//120 139//139 140//140
f 120//120 140//140 119//119
f 119//119 140//140 141//141
f 119//119 141//141 118//118
f 118//118 141//141 142//142
f 118//118 142//142 117//117
f 117//117 142//142 143//143
f 117//117 143//143 116//116
f 116//116 143//143 144//144
f 116//116 144//144 115//115
f 115//115 144//144 145//145
f 115//115 145//145 114//114
f 114//114 145//145 146//146
f 114//114 146//146 113//113
f 113//113 146//146 147//147
f 113//113 147//147 112//112
f 112//112 147//147 148//148
g 0603f998-e2a7-11ea-8c59-54bf646e7e1f
f 151//151 152//152 154//154
f 154//154 152//152 153//153
g 060420b4-e2a7-11ea-aa8f-54bf646e7e1f
f 156//156 162//162 155//155
f 155//155 162//162 165//165
f 155//155 165//165 166//166
f 157//157 158//158 156//156
f 156//156 158//158 161//161
f 156//156 161//161 162//162
f 159//159 160//160 158//158
f 158//158 160//160 161//161
f 163//163 164//164 162//162
f 162//162 164//164 165//165
g 06046eba-e2a7-11ea-8806-54bf646e7e1f
f 167//167 168//168 170//170
f 170//170 168//168 169//169
g 0604bcf4-e2a7-11ea-a834-54bf646e7e1f
f 172//172 177//177 171//171
f 171//171 177//177 178//178
f 171//171 178//178 181//181
f 181//181 178//178 180//180
f 180//180 178//178 179//179
f 173//173 174//174 172//172
f 172//172 174//174 177//177
f 174//174 175//175 177//177
f 177//177 175//175 176//176
f 181//181 182//182 171//171
g 068586b0-e2a7-11ea-877f-54bf646e7e1f
f 183//183 184//184 186//186
f 186//186 184//184 185//185
g 06055930-e2a7-11ea-8f7d-54bf646e7e1f
f 188//188 227//227 187//187
f 187//187 227//227 228//228
f 187//187 228//228 205//205
f 205//205 228//228 204//204
f 204//204 228//228 203//203
f 203//203 228//228 202//202
f 202//202 228//228 201//201
f 201//201 228//228 200//200
f 200//200 228//228 199//199
f 199//199 228//228 222//222
f 199//199 222//222 223//223
f 188//188 189//189 227//227
f 227//227 189//189 190//190
f 227//227 190//190 191//191
f 191//191 192//192 227//227
f 227//227 192//192 193//193
f 227//227 193//193 194//194
f 195//195 208//208 194//194
f 194//194 208//208 209//209
f 194//194 209//209 227//227
f 227//227 209//209 226//226
f 226//226 209//209 210//210
f 226//226 210//210 211//211
f 208//208 195//195 207//207
f 207//207 195//195 196//196
f 207//207 196//196 206//206
f 206//206 196//196 197//197
f 206//206 197//197 224//224
f 224//224 197//197 198//198
f 224//224 198//198 223//223
f 223//223 198//198 199//199
f 211//211 212//212 226//226
f 226//226 212//212 213//213
f 226//226 213//213 214//214
f 214//214 215//215 226//226
f 226//226 215//215 216//216
f 226//226 216//216 225//225
f 225//225 216//216 217//217
f 225//225 217//217 218//218
f 218//218 219//219 225//225
f 225//225 219//219 220//220
f 225//225 220//220 221//221
f 221//221 222//222 225//225
f 225//225 222//222 228//228

# End of file