# WaveFront *.obj file
# Vertices: 60
# Triangles : 36

v -3.799999952316284 6.300000190734863 -1.0
v 3.799999952316284 6.300000190734863 -1.0
v 3.799999952316284 6.300000190734863 -0.10000000149011612
v -3.799999952316284 6.300000190734863 -0.10000000149011612
v 3.799999952316284 6.300000190734863 -1.0
v 3.799999952316284 -1.0 -1.0
v 3.799999952316284 -1.0 -0.10000000149011612
v 3.799999952316284 6.300000190734863 -0.10000000149011612
v -3.799999952316284 -1.0 -1.0
v -3.799999952316284 6.300000190734863 -1.0
v -3.799999952316284 6.300000190734863 -0.10000000149011612
v -3.799999952316284 -1.0 -0.10000000149011612
v -3.799999952316284 -1.0 -0.10000000149011612
v -3.799999952316284 6.300000190734863 -0.10000000149011612
v 3.799999952316284 6.300000190734863 -0.10000000149011612
v 3.799999952316284 -1.0 -0.10000000149011612
v -3.799999952316284 -1.0 -1.0
v -3.799999952316284 -1.0 -0.10000000149011612
v 3.799999952316284 -1.0 -0.10000000149011612
v 3.799999952316284 -1.0 -1.0
v 4.0 -1.0 -1.0
v 4.0 -1.0 3.0
v -4.0 -1.0 3.0
v -4.0 -1.0 -1.0
v -4.0 -1.0 -1.0
v -4.0 -1.0 3.0
v -4.0 0.0 3.0
v -4.0 0.0 0.0
v -4.0 6.5 0.0
v -4.0 6.5 -1.0
v -4.0 -1.0 3.0
v 4.0 -1.0 3.0
v 4.0 0.0 3.0
v -4.0 0.0 3.0
v -4.0 0.0 3.0
v 4.0 0.0 3.0
v 4.0 0.0 0.0
v -4.0 0.0 0.0
v -4.0 0.0 0.0
v 4.0 0.0 0.0
v 4.0 6.5 0.0
v -4.0 6.5 0.0
v -4.0 6.5 0.0
v 4.0 6.5 0.0
v 4.0 6.5 -1.0
v -4.0 6.5 -1.0
v -3.799999952316284 6.300000190734863 -1.0
v -3.799999952316284 -1.0 -1.0
v -4.0 -1.0 -1.0
v -4.0 6.5 -1.0
v 4.0 6.5 -1.0
v 4.0 -1.0 -1.0
v 3.799999952316284 -1.0 -1.0
v 3.799999952316284 6.300000190734863 -1.0
v 4.0 -1.0 3.0
v 4.0 -1.0 -1.0
v 4.0 6.5 -1.0
v 4.0 6.5 0.0
v 4.0 0.0 0.0
v 4.0 0.0 3.0
vn -0.0 -1.0 -0.0
vn -0.0 -1.0 -0.0
vn -0.0 -1.0 -0.0
vn -0.0 -1.0 -0.0
vn -1.0 -0.0 0.0
vn -1.0 -0.0 0.0
vn -1.0 -0.0 0.0
vn -1.0 -0.0 0.0
vn 1.0 -0.0 -0.0
vn 1.0 -0.0 -0.0
vn 1.0 -0.0 -0.0
vn 1.0 -0.0 -0.0
vn -0.0 -0.0 -1.0
vn -0.0 -0.0 -1.0
vn -0.0 -0.0 -1.0
vn -0.0 -0.0 -1.0
vn 0.0 -1.0 0.0
vn 0.0 -1.0 0.0
vn 0.0 -1.0 0.0
vn 0.0 -1.0 0.0
vn 0.0 -1.0 0.0
vn 0.0 -1.0 0.0
vn 0.0 -1.0 0.0
vn 0.0 -1.0 0.0
vn -1.0 0.0 0.0
vn -1.0 0.0 0.0
vn -1.0 0.0 0.0
vn -1.0 0.0 0.0
vn -1.0 0.0 0.0
vn -1.0 0.0 0.0
vn 0.0 0.0 1.0
vn 0.0 0.0 1.0
vn 0.0 0.0 1.0
vn 0.0 0.0 1.0
vn -0.0 1.0 0.0
vn -0.0 1.0 0.0
vn -0.0 1.0 0.0
vn -0.0 1.0 0.0
vn 0.0 0.0 1.0
vn 0.0 0.0 1.0
vn 0.0 0.0 1.0
vn 0.0 0.0 1.0
vn -0.0 1.0 0.0
vn -0.0 1.0 0.0
vn -0.0 1.0 0.0
vn -0.0 1.0 0.0
vn 0.0 0.0 -1.0
vn 0.0 0.0 -1.0
vn 0.0 0.0 -1.0
vn 0.0 0.0 -1.0
vn 0.0 0.0 -1.0
vn 0.0 0.0 -1.0
vn 0.0 0.0 -1.0
vn 0.0 0.0 -1.0
vn 1.0 0.0 0.0
vn 1.0 0.0 0.0
vn 1.0 0.0 0.0
vn 1.0 0.0 0.0
vn 1.0 0.0 0.0
vn 1.0 0.0 0.0
g 8b228664-e2a8-11ea-a3c7-54bf646e7e1f
f 1//1 2//2 4//4
f 4//4 2//2 3//3
g 8b24d088-e2a8-11ea-aa2b-54bf646e7e1f
f 5//5 6//6 8//8
f 8//8 6//6 7//7
g 8b26f38a-e2a8-11ea-bb0f-54bf646e7e1f
f 9//9 10//10 12//12
f 12//12 10//10 11//11
g 8b293dae-e2a8-11ea-b9b6-54bf646e7e1f
f 14//14 15//15 13//13
f 13//13 15//15 16//16
g 8adbdb86-e2a8-11ea-af09-54bf646e7e1f
f 17//17 18//18 24//24
f 24//24 18//18 23//23
f 23//23 18//18 19//19
f 23//23 19//19 22//22
f 22//22 19//19 21//21
f 21//21 19//19 20//20
g 8ad28c1e-e2a8-11ea-b438-54bf646e7e1f
f 30//30 25//25 28//28
f 28//28 25//25 26//26
f 28//28 26//26 27//27
f 28//28 29//29 30//30
g 8ad412e2-e2a8-11ea-b05c-54bf646e7e1f
f 32//32 33//33 31//31
f 31//31 33//33 34//34
g 8ad57276-e2a8-11ea-a83b-54bf646e7e1f
f 36//36 37//37 35//35
f 35//35 37//37 38//38
g 8ad6f940-e2a8-11ea-ab4b-54bf646e7e1f
f 40//40 41//41 39//39
f 39//39 41//41 42//42
g 8ad87fee-e2a8-11ea-aec9-54bf646e7e1f
f 44//44 45//45 43//43
f 43//43 45//45 46//46
g 8ada2db8-e2a8-11ea-afbf-54bf646e7e1f
f 48//48 49//49 47//47
f 47//47 49//49 50//50
f 47//47 50//50 54//54
f 54//54 50//50 51//51
f 54//54 51//51 52//52
f 52//52 53//53 54//54
g 8add894a-e2a8-11ea-a818-54bf646e7e1f
f 60//60 55//55 59//59
f 59//59 55//55 56//56
f 59//59 56//56 57//57
f 57//57 58//58 59//59

# End of file