# WaveFront *.obj file
# Vertices: 258
# Triangles : 224

v 8.847414016723633 0.7130799293518066 -1.6796432733535767
v 8.871308326721191 0.8562710881233215 -1.6796432733535767
v 8.94040298461914 0.9839452505111694 -1.6796432733535767
v 9.047208786010742 1.082266926765442 -1.6796432733535767
v 9.18015193939209 1.140581488609314 -1.6796432733535767
v 9.324827194213867 1.1525696516036987 -1.6796432733535767
v 9.465556144714355 1.1169322729110718 -1.6796432733535767
v 9.587088584899902 1.0375311374664307 -1.6796432733535767
v 9.676254272460938 0.9229707717895508 -1.6796432733535767
v 9.72339153289795 0.7856654524803162 -1.6796432733535767
v 9.72339153289795 0.6404943466186523 -1.6796432733535767
v 9.676254272460938 0.5031890273094177 -1.6796432733535767
v 9.587088584899902 0.38862866163253784 -1.6796432733535767
v 9.465556144714355 0.3092275857925415 -1.6796432733535767
v 9.324827194213867 0.27359020709991455 -1.6796432733535767
v 9.18015193939209 0.28557834029197693 -1.6796432733535767
v 9.047208786010742 0.343892902135849 -1.6796432733535767
v 8.94040298461914 0.44221460819244385 -1.6796432733535767
v 8.871308326721191 0.5698887705802917 -1.6796432733535767
v 8.847414016723633 0.7130799293518066 -1.0
v 8.871308326721191 0.5698887705802917 -1.0
v 8.94040298461914 0.44221460819244385 -1.0
v 9.047208786010742 0.343892902135849 -1.0
v 9.18015193939209 0.28557834029197693 -1.0
v 9.324827194213867 0.27359020709991455 -1.0
v 9.465556144714355 0.3092275857925415 -1.0
v 9.587088584899902 0.38862866163253784 -1.0
v 9.676254272460938 0.5031890273094177 -1.0
v 9.72339153289795 0.6404943466186523 -1.0
v 9.72339153289795 0.7856654524803162 -1.0
v 9.676254272460938 0.9229707717895508 -1.0
v 9.587088584899902 1.0375311374664307 -1.0
v 9.465556144714355 1.1169322729110718 -1.0
v 9.324827194213867 1.1525696516036987 -1.0
v 9.18015193939209 1.140581488609314 -1.0
v 9.047208786010742 1.082266926765442 -1.0
v 8.94040298461914 0.9839452505111694 -1.0
v 8.871308326721191 0.8562710881233215 -1.0
v 8.847414016723633 0.7130799293518066 -1.6796432733535767
v 8.847414016723633 0.7130799293518066 -1.0
v 8.8868989944458 2.7325398921966553 -1.6796432733535767
v 8.908653259277344 2.862910509109497 -1.6796432733535767
v 8.971561431884766 2.9791533946990967 -1.6796432733535767
v 9.068803787231445 3.068671941757202 -1.6796432733535767
v 9.189845085144043 3.121765375137329 -1.6796432733535767
v 9.321566581726074 3.1326801776885986 -1.6796432733535767
v 9.449695587158203 3.100233554840088 -1.6796432733535767
v 9.560346603393555 3.0279414653778076 -1.6796432733535767
v 9.641529083251953 2.923638105392456 -1.6796432733535767
v 9.684446334838867 2.79862642288208 -1.6796432733535767
v 9.684446334838867 2.6664531230926514 -1.6796432733535767
v 9.641529083251953 2.5414414405822754 -1.6796432733535767
v 9.560346603393555 2.437138080596924 -1.6796432733535767
v 9.449695587158203 2.3648459911346436 -1.6796432733535767
v 9.321566581726074 2.332399368286133 -1.6796432733535767
v 9.189845085144043 2.3433141708374023 -1.6796432733535767
v 9.068803787231445 2.3964076042175293 -1.6796432733535767
v 8.971561431884766 2.4859261512756348 -1.6796432733535767
v 8.908653259277344 2.6021690368652344 -1.6796432733535767
v 8.8868989944458 2.7325398921966553 -1.0
v 8.908653259277344 2.6021690368652344 -1.0
v 8.971561431884766 2.4859261512756348 -1.0
v 9.068803787231445 2.3964076042175293 -1.0
v 9.189845085144043 2.3433141708374023 -1.0
v 9.321566581726074 2.332399368286133 -1.0
v 9.449695587158203 2.3648459911346436 -1.0
v 9.560346603393555 2.437138080596924 -1.0
v 9.641529083251953 2.5414414405822754 -1.0
v 9.684446334838867 2.6664531230926514 -1.0
v 9.684446334838867 2.79862642288208 -1.0
v 9.641529083251953 2.923638105392456 -1.0
v 9.560346603393555 3.0279414653778076 -1.0
v 9.449695587158203 3.100233554840088 -1.0
v 9.321566581726074 3.1326801776885986 -1.0
v 9.189845085144043 3.121765375137329 -1.0
v 9.068803787231445 3.068671941757202 -1.0
v 8.971561431884766 2.9791533946990967 -1.0
v 8.908653259277344 2.862910509109497 -1.0
v 8.8868989944458 2.7325398921966553 -1.6796432733535767
v 8.8868989944458 2.7325398921966553 -1.0
v 10.0 0.0 -1.0
v 10.0 0.0 -1.6796432733535767
v 10.0 3.5 -1.6796432733535767
v 10.0 3.5 -1.0
v 8.847414016723633 0.7130799293518066 -1.0
v 8.871308326721191 0.8562710881233215 -1.0
v 8.94040298461914 0.9839452505111694 -1.0
v 9.047208786010742 1.082266926765442 -1.0
v 9.18015193939209 1.140581488609314 -1.0
v 9.324827194213867 1.1525696516036987 -1.0
v 9.465556144714355 1.1169322729110718 -1.0
v 9.587088584899902 1.0375311374664307 -1.0
v 9.676254272460938 0.9229707717895508 -1.0
v 9.72339153289795 0.7856654524803162 -1.0
v 9.72339153289795 0.6404943466186523 -1.0
v 9.676254272460938 0.5031890273094177 -1.0
v 9.587088584899902 0.38862866163253784 -1.0
v 9.465556144714355 0.3092275857925415 -1.0
v 9.324827194213867 0.27359020709991455 -1.0
v 9.18015193939209 0.28557834029197693 -1.0
v 9.047208786010742 0.343892902135849 -1.0
v 8.94040298461914 0.44221460819244385 -1.0
v 8.871308326721191 0.5698887705802917 -1.0
v 8.8868989944458 2.7325398921966553 -1.0
v 8.908653259277344 2.862910509109497 -1.0
v 8.971561431884766 2.9791533946990967 -1.0
v 9.068803787231445 3.068671941757202 -1.0
v 9.189845085144043 3.121765375137329 -1.0
v 9.321566581726074 3.1326801776885986 -1.0
v 9.449695587158203 3.100233554840088 -1.0
v 9.560346603393555 3.0279414653778076 -1.0
v 9.641529083251953 2.923638105392456 -1.0
v 9.684446334838867 2.79862642288208 -1.0
v 9.684446334838867 2.6664531230926514 -1.0
v 9.641529083251953 2.5414414405822754 -1.0
v 9.560346603393555 2.437138080596924 -1.0
v 9.449695587158203 2.3648459911346436 -1.0
v 9.321566581726074 2.332399368286133 -1.0
v 9.189845085144043 2.3433141708374023 -1.0
v 9.068803787231445 2.3964076042175293 -1.0
v 8.971561431884766 2.4859261512756348 -1.0
v 8.908653259277344 2.6021690368652344 -1.0
v 8.5 0.0 -1.0
v 10.0 0.0 -1.0
v 10.0 3.5 -1.0
v 8.5 3.5 -1.0
v 8.5 0.0 -0.5
v 8.5 0.0 -1.0
v 8.5 3.5 -1.0
v 8.5 3.5 -0.5
v 7.5 0.0 0.0
v 8.5 0.0 -0.5
v 8.5 3.5 -0.5
v 7.5 3.5 0.0
v 0.0 0.0 0.0
v 7.5 0.0 0.0
v 7.5 3.5 0.0
v 0.0 3.5 0.0
v 0.0 0.0 -0.8004425764083862
v 0.0 0.0 0.0
v 0.0 3.5 0.0
v 0.0 3.5 -0.8004425764083862
v -1.1709116697311401 0.0 -0.8004425764083862
v 0.0 0.0 -0.8004425764083862
v 0.0 3.5 -0.8004425764083862
v -1.1709116697311401 3.5 -0.8004425764083862
v -1.1709116697311401 0.0 -1.197477102279663
v -1.1709116697311401 0.0 -0.8004425764083862
v -1.1709116697311401 3.5 -0.8004425764083862
v -1.1709116697311401 3.5 -1.197477102279663
v -7.189938587605642e-17 0.0 -1.197477102279663
v -1.1709116697311401 0.0 -1.197477102279663
v -1.1709116697311401 3.5 -1.197477102279663
v 0.0 3.5 -1.197477102279663
v 0.0 0.0 -3.0808563232421875
v -7.189938587605642e-17 0.0 -1.197477102279663
v 0.0 3.5 -1.197477102279663
v 0.0 3.5 -3.0808563232421875
v -1.1709116697311401 0.0 -3.0808563232421875
v 0.0 0.0 -3.0808563232421875
v 0.0 3.5 -3.0808563232421875
v -1.1709116697311401 3.5 -3.0808563232421875
v -1.1709116697311401 0.0 -3.5
v -1.1709116697311401 0.0 -3.0808563232421875
v -1.1709116697311401 3.5 -3.0808563232421875
v -1.1709116697311401 3.5 -3.5
v 0.0 0.0 -3.5
v -1.1709116697311401 0.0 -3.5
v -1.1709116697311401 3.5 -3.5
v 0.0 3.5 -3.5
v 0.0 0.0 -4.0
v 0.0 0.0 -3.5
v 0.0 3.5 -3.5
v 0.0 3.5 -4.0
v 8.5 0.0 -4.0
v 0.0 0.0 -4.0
v 0.0 3.5 -4.0
v 8.5 3.5 -4.0
v 8.5 0.0 -1.6796432733535767
v 8.5 0.0 -4.0
v 8.5 3.5 -4.0
v 8.5 3.5 -1.6796432733535767
v 8.847414016723633 0.7130799293518066 -1.6796432733535767
v 8.871308326721191 0.5698887705802917 -1.6796432733535767
v 8.94040298461914 0.44221460819244385 -1.6796432733535767
v 9.047208786010742 0.343892902135849 -1.6796432733535767
v 9.18015193939209 0.28557834029197693 -1.6796432733535767
v 9.324827194213867 0.27359020709991455 -1.6796432733535767
v 9.465556144714355 0.3092275857925415 -1.6796432733535767
v 9.587088584899902 0.38862866163253784 -1.6796432733535767
v 9.676254272460938 0.5031890273094177 -1.6796432733535767
v 9.72339153289795 0.6404943466186523 -1.6796432733535767
v 9.72339153289795 0.7856654524803162 -1.6796432733535767
v 9.676254272460938 0.9229707717895508 -1.6796432733535767
v 9.587088584899902 1.0375311374664307 -1.6796432733535767
v 9.465556144714355 1.1169322729110718 -1.6796432733535767
v 9.324827194213867 1.1525696516036987 -1.6796432733535767
v 9.18015193939209 1.140581488609314 -1.6796432733535767
v 9.047208786010742 1.082266926765442 -1.6796432733535767
v 8.94040298461914 0.9839452505111694 -1.6796432733535767
v 8.871308326721191 0.8562710881233215 -1.6796432733535767
v 8.8868989944458 2.7325398921966553 -1.6796432733535767
v 8.908653259277344 2.6021690368652344 -1.6796432733535767
v 8.971561431884766 2.4859261512756348 -1.6796432733535767
v 9.068803787231445 2.3964076042175293 -1.6796432733535767
v 9.189845085144043 2.3433141708374023 -1.6796432733535767
v 9.321566581726074 2.332399368286133 -1.6796432733535767
v 9.449695587158203 2.3648459911346436 -1.6796432733535767
v 9.560346603393555 2.437138080596924 -1.6796432733535767
v 9.641529083251953 2.5414414405822754 -1.6796432733535767
v 9.684446334838867 2.6664531230926514 -1.6796432733535767
v 9.684446334838867 2.79862642288208 -1.6796432733535767
v 9.641529083251953 2.923638105392456 -1.6796432733535767
v 9.560346603393555 3.0279414653778076 -1.6796432733535767
v 9.449695587158203 3.100233554840088 -1.6796432733535767
v 9.321566581726074 3.1326801776885986 -1.6796432733535767
v 9.189845085144043 3.121765375137329 -1.6796432733535767
v 9.068803787231445 3.068671941757202 -1.6796432733535767
v 8.971561431884766 2.9791533946990967 -1.6796432733535767
v 8.908653259277344 2.862910509109497 -1.6796432733535767
v 10.0 0.0 -1.6796432733535767
v 8.5 0.0 -1.6796432733535767
v 8.5 3.5 -1.6796432733535767
v 10.0 3.5 -1.6796432733535767
v 10.0 3.5 -1.6796432733535767
v 8.5 3.5 -1.6796432733535767
v 8.5 3.5 -4.0
v 0.0 3.5 -4.0
v 0.0 3.5 -3.5
v -1.1709116697311401 3.5 -3.5
v -1.1709116697311401 3.5 -3.0808563232421875
v 0.0 3.5 -3.0808563232421875
v 0.0 3.5 -1.197477102279663
v -1.1709116697311401 3.5 -1.197477102279663
v -1.1709116697311401 3.5 -0.8004425764083862
v 0.0 3.5 -0.8004425764083862
v 0.0 3.5 0.0
v 7.5 3.5 0.0
v 8.5 3.5 -0.5
v 8.5 3.5 -1.0
v 10.0 3.5 -1.0
v 8.5 0.0 -1.6796432733535767
v 10.0 0.0 -1.6796432733535767
v 10.0 0.0 -1.0
v 8.5 0.0 -1.0
v 8.5 0.0 -0.5
v 7.5 0.0 0.0
v 0.0 0.0 0.0
v 0.0 0.0 -0.8004425764083862
v -1.1709116697311401 0.0 -0.8004425764083862
v -1.1709116697311401 0.0 -1.197477102279663
v -7.189938587605642e-17 0.0 -1.197477102279663
v 0.0 0.0 -3.0808563232421875
v -1.1709116697311401 0.0 -3.0808563232421875
v -1.1709116697311401 0.0 -3.5
v 0.0 0.0 -3.5
v 0.0 0.0 -4.0
v 8.5 0.0 -4.0
vn 1.0 -1.2246468525851679e-16 0.0
vn 0.945817232131958 -0.3246994614601135 0.0
vn 0.789140522480011 -0.614212691783905 0.0
vn 0.5469481348991394 -0.8371664881706238 0.0
vn 0.24548548460006714 -0.9694002866744995 0.0
vn -0.0825793445110321 -0.9965844750404358 -0.0
vn -0.4016954302787781 -0.915773332118988 -0.0
vn -0.6772815585136414 -0.7357239127159119 -0.0
vn -0.8794737458229065 -0.47594738006591797 -0.0
vn -0.9863613247871399 -0.1645945906639099 -0.0
vn -0.9863613247871399 0.1645945906639099 0.0
vn -0.8794737458229065 0.47594738006591797 0.0
vn -0.6772815585136414 0.7357239127159119 0.0
vn -0.4016954302787781 0.915773332118988 0.0
vn -0.0825793445110321 0.9965844750404358 0.0
vn 0.24548548460006714 0.9694002866744995 0.0
vn 0.5469481348991394 0.8371664881706238 0.0
vn 0.789140522480011 0.614212691783905 0.0
vn 0.945817232131958 0.3246994614601135 0.0
vn 1.0 1.2246468525851679e-16 0.0
vn 0.945817232131958 0.3246994614601135 0.0
vn 0.789140522480011 0.614212691783905 0.0
vn 0.5469481348991394 0.8371664881706238 0.0
vn 0.24548548460006714 0.9694002866744995 0.0
vn -0.0825793445110321 0.9965844750404358 0.0
vn -0.4016954302787781 0.915773332118988 0.0
vn -0.6772815585136414 0.7357239127159119 0.0
vn -0.8794737458229065 0.47594738006591797 0.0
vn -0.9863613247871399 0.1645945906639099 0.0
vn -0.9863613247871399 -0.1645945906639099 -0.0
vn -0.8794737458229065 -0.47594738006591797 -0.0
vn -0.6772815585136414 -0.7357239127159119 -0.0
vn -0.4016954302787781 -0.915773332118988 -0.0
vn -0.0825793445110321 -0.9965844750404358 -0.0
vn 0.24548548460006714 -0.9694002866744995 0.0
vn 0.5469481348991394 -0.8371664881706238 0.0
vn 0.789140522480011 -0.614212691783905 0.0
vn 0.945817232131958 -0.3246994614601135 0.0
vn 1.0 1.2246468525851679e-16 0.0
vn 1.0 -1.2246468525851679e-16 0.0
vn 1.0 -1.2246468525851679e-16 0.0
vn 0.945817232131958 -0.3246994614601135 0.0
vn 0.789140522480011 -0.614212691783905 0.0
vn 0.5469481348991394 -0.8371664881706238 0.0
vn 0.24548548460006714 -0.9694002866744995 0.0
vn -0.0825793445110321 -0.9965844750404358 -0.0
vn -0.4016954302787781 -0.915773332118988 -0.0
vn -0.6772815585136414 -0.7357239127159119 -0.0
vn -0.8794737458229065 -0.47594738006591797 -0.0
vn -0.9863613247871399 -0.1645945906639099 -0.0
vn -0.9863613247871399 0.1645945906639099 0.0
vn -0.8794737458229065 0.47594738006591797 0.0
vn -0.6772815585136414 0.7357239127159119 0.0
vn -0.4016954302787781 0.915773332118988 0.0
vn -0.0825793445110321 0.9965844750404358 0.0
vn 0.24548548460006714 0.9694002866744995 0.0
vn 0.5469481348991394 0.8371664881706238 0.0
vn 0.789140522480011 0.614212691783905 0.0
vn 0.945817232131958 0.3246994614601135 0.0
vn 1.0 1.2246468525851679e-16 0.0
vn 0.945817232131958 0.3246994614601135 0.0
vn 0.789140522480011 0.614212691783905 0.0
vn 0.5469481348991394 0.8371664881706238 0.0
vn 0.24548548460006714 0.9694002866744995 0.0
vn -0.0825793445110321 0.9965844750404358 0.0
vn -0.4016954302787781 0.915773332118988 0.0
vn -0.6772815585136414 0.7357239127159119 0.0
vn -0.8794737458229065 0.47594738006591797 0.0
vn -0.9863613247871399 0.1645945906639099 0.0
vn -0.9863613247871399 -0.1645945906639099 -0.0
vn -0.8794737458229065 -0.47594738006591797 -0.0
vn -0.6772815585136414 -0.7357239127159119 -0.0
vn -0.4016954302787781 -0.915773332118988 -0.0
vn -0.0825793445110321 -0.9965844750404358 -0.0
vn 0.24548548460006714 -0.9694002866744995 0.0
vn 0.5469481348991394 -0.8371664881706238 0.0
vn 0.789140522480011 -0.614212691783905 0.0
vn 0.945817232131958 -0.3246994614601135 0.0
vn 1.0 1.2246468525851679e-16 0.0
vn 1.0 -1.2246468525851679e-16 0.0
vn 1.0 0.0 0.0
vn 1.0 0.0 0.0
vn 1.0 0.0 0.0
vn 1.0 0.0 0.0
vn 0.0 0.0 1.0
vn 0.0 0.0 1.0
vn 0.0 0.0 1.0
vn 0.0 0.0 1.0
vn 0.0 0.0 1.0
vn 0.0 0.0 1.0
vn 0.0 0.0 1.0
vn 0.0 0.0 1.0
vn 0.0 0.0 1.0
vn 0.0 0.0 1.0
vn 0.0 0.0 1.0
vn 0.0 0.0 1.0
vn 0.0 0.0 1.0
vn 0.0 0.0 1.0
vn 0.0 0.0 1.0
vn 0.0 0.0 1.0
vn 0.0 0.0 1.0
vn 0.0 0.0 1.0
vn 0.0 0.0 1.0
vn 0.0 0.0 1.0
vn 0.0 0.0 1.0
vn 0.0 0.0 1.0
vn 0.0 0.0 1.0
vn 0.0 0.0 1.0
vn 0.0 0.0 1.0
vn 0.0 0.0 1.0
vn 0.0 0.0 1.0
vn 0.0 0.0 1.0
vn 0.0 0.0 1.0
vn 0.0 0.0 1.0
vn 0.0 0.0 1.0
vn 0.0 0.0 1.0
vn 0.0 0.0 1.0
vn 0.0 0.0 1.0
vn 0.0 0.0 1.0
vn 0.0 0.0 1.0
vn 0.0 0.0 1.0
vn 0.0 0.0 1.0
vn 0.0 0.0 1.0
vn 0.0 0.0 1.0
vn 0.0 0.0 1.0
vn 0.0 0.0 1.0
vn 1.0 -0.0 0.0
vn 1.0 -0.0 0.0
vn 1.0 -0.0 0.0
vn 1.0 -0.0 0.0
vn 0.4472135901451111 -0.0 0.8944271802902222
vn 0.4472135901451111 -0.0 0.8944271802902222
vn 0.4472135901451111 -0.0 0.8944271802902222
vn 0.4472135901451111 -0.0 0.8944271802902222
vn 0.0 0.0 1.0
vn 0.0 0.0 1.0
vn 0.0 0.0 1.0
vn 0.0 0.0 1.0
vn -1.0 0.0 0.0
vn -1.0 0.0 0.0
vn -1.0 0.0 0.0
vn -1.0 0.0 0.0
vn 0.0 -0.0 1.0
vn 0.0 -0.0 1.0
vn 0.0 -0.0 1.0
vn 0.0 -0.0 1.0
vn -1.0 0.0 0.0
vn -1.0 0.0 0.0
vn -1.0 0.0 0.0
vn -1.0 0.0 0.0
vn 0.0 0.0 -1.0
vn 0.0 0.0 -1.0
vn 0.0 0.0 -1.0
vn 0.0 0.0 -1.0
vn -1.0 0.0 -3.8175738536804364e-17
vn -1.0 0.0 -3.8175738536804364e-17
vn -1.0 0.0 -3.8175738536804364e-17
vn -1.0 0.0 -3.8175738536804364e-17
vn 0.0 -0.0 1.0
vn 0.0 -0.0 1.0
vn 0.0 -0.0 1.0
vn 0.0 -0.0 1.0
vn -1.0 0.0 0.0
vn -1.0 0.0 0.0
vn -1.0 0.0 0.0
vn -1.0 0.0 0.0
vn 0.0 0.0 -1.0
vn 0.0 0.0 -1.0
vn 0.0 0.0 -1.0
vn 0.0 0.0 -1.0
vn -1.0 0.0 0.0
vn -1.0 0.0 0.0
vn -1.0 0.0 0.0
vn -1.0 0.0 0.0
vn 0.0 0.0 -1.0
vn 0.0 0.0 -1.0
vn 0.0 0.0 -1.0
vn 0.0 0.0 -1.0
vn 1.0 -0.0 0.0
vn 1.0 -0.0 0.0
vn 1.0 -0.0 0.0
vn 1.0 -0.0 0.0
vn 0.0 0.0 -1.0
vn 0.0 0.0 -1.0
vn 0.0 0.0 -1.0
vn 0.0 0.0 -1.0
vn 0.0 0.0 -1.0
vn 0.0 0.0 -1.0
vn 0.0 0.0 -1.0
vn 0.0 0.0 -1.0
vn 0.0 0.0 -1.0
vn 0.0 0.0 -1.0
vn 0.0 0.0 -1.0
vn 0.0 0.0 -1.0
vn 0.0 0.0 -1.0
vn 0.0 0.0 -1.0
vn 0.0 0.0 -1.0
vn 0.0 0.0 -1.0
vn 0.0 0.0 -1.0
vn 0.0 0.0 -1.0
vn 0.0 0.0 -1.0
vn 0.0 0.0 -1.0
vn 0.0 0.0 -1.0
vn 0.0 0.0 -1.0
vn 0.0 0.0 -1.0
vn 0.0 0.0 -1.0
vn 0.0 0.0 -1.0
vn 0.0 0.0 -1.0
vn 0.0 0.0 -1.0
vn 0.0 0.0 -1.0
vn 0.0 0.0 -1.0
vn 0.0 0.0 -1.0
vn 0.0 0.0 -1.0
vn 0.0 0.0 -1.0
vn 0.0 0.0 -1.0
vn 0.0 0.0 -1.0
vn 0.0 0.0 -1.0
vn 0.0 0.0 -1.0
vn 0.0 0.0 -1.0
vn 0.0 0.0 -1.0
vn 0.0 0.0 -1.0
vn 0.0 0.0 -1.0
vn 0.0 0.0 -1.0
vn 0.0 0.0 -1.0
vn 0.0 1.0 0.0
vn 0.0 1.0 0.0
vn 0.0 1.0 0.0
vn 0.0 1.0 0.0
vn 0.0 1.0 0.0
vn 0.0 1.0 0.0
vn 0.0 1.0 0.0
vn 0.0 1.0 0.0
vn 0.0 1.0 0.0
vn 0.0 1.0 0.0
vn 0.0 1.0 0.0
vn 0.0 1.0 0.0
vn 0.0 1.0 0.0
vn 0.0 1.0 0.0
vn 0.0 1.0 0.0
vn 0.0 1.0 0.0
vn 0.0 1.0 0.0
vn -0.0 -1.0 -0.0
vn -0.0 -1.0 -0.0
vn -0.0 -1.0 -0.0
vn -0.0 -1.0 -0.0
vn -0.0 -1.0 -0.0
vn -0.0 -1.0 -0.0
vn -0.0 -1.0 -0.0
vn -0.0 -1.0 -0.0
vn -0.0 -1.0 -0.0
vn -0.0 -1.0 -0.0
vn -0.0 -1.0 -0.0
vn -0.0 -1.0 -0.0
vn -0.0 -1.0 -0.0
vn -0.0 -1.0 -0.0
vn -0.0 -1.0 -0.0
vn -0.0 -1.0 -0.0
vn -0.0 -1.0 -0.0
g 015706a2-e2aa-11ea-bfbb-54bf646e7e1f
f 2//2 38//38 1//1
f 1//1 38//38 40//40
f 39//39 20//20 19//19
f 19//19 20//20 21//21
f 19//19 21//21 18//18
f 18//18 21//21 22//22
f 18//18 22//22 17//17
f 17//17 22//22 23//23
f 17//17 23//23 16//16
f 16//16 23//23 24//24
f 16//16 24//24 15//15
f 15//15 24//24 25//25
f 15//15 25//25 14//14
f 14//14 25//25 26//26
f 14//14 26//26 13//13
f 13//13 26//26 27//27
f 13//13 27//27 12//12
f 12//12 27//27 28//28
f 12//12 28//28 11//11
f 11//11 28//28 29//29
f 11//11 29//29 10//10
f 10//10 29//29 30//30
f 10//10 30//30 9//9
f 9//9 30//30 31//31
f 9//9 31//31 8//8
f 8//8 31//31 32//32
f 8//8 32//32 7//7
f 7//7 32//32 33//33
f 7//7 33//33 6//6
f 6//6 33//33 34//34
f 6//6 34//34 5//5
f 5//5 34//34 35//35
f 5//5 35//35 4//4
f 4//4 35//35 36//36
f 4//4 36//36 3//3
f 3//3 36//36 37//37
f 3//3 37//37 2//2
f 2//2 37//37 38//38
g 015866da-e2aa-11ea-88c0-54bf646e7e1f
f 42//42 78//78 41//41
f 41//41 78//78 80//80
f 79//79 60//60 59//59
f 59//59 60//60 61//61
f 59//59 61//61 62//62
f 42//42 43//43 78//78
f 78//78 43//43 77//77
f 77//77 43//43 44//44
f 77//77 44//44 76//76
f 76//76 44//44 45//45
f 76//76 45//45 75//75
f 75//75 45//45 46//46
f 75//75 46//46 74//74
f 74//74 46//46 47//47
f 74//74 47//47 73//73
f 73//73 47//47 48//48
f 73//73 48//48 72//72
f 72//72 48//48 49//49
f 72//72 49//49 71//71
f 71//71 49//49 50//50
f 71//71 50//50 70//70
f 70//70 50//50 51//51
f 70//70 51//51 69//69
f 69//69 51//51 52//52
f 69//69 52//52 68//68
f 68//68 52//52 53//53
f 68//68 53//53 67//67
f 67//67 53//53 54//54
f 67//67 54//54 66//66
f 66//66 54//54 55//55
f 66//66 55//55 65//65
f 65//65 55//55 56//56
f 65//65 56//56 64//64
f 64//64 56//56 57//57
f 64//64 57//57 63//63
f 63//63 57//57 58//58
f 63//63 58//58 62//62
f 62//62 58//58 59//59
g 00f974fe-e2aa-11ea-93d7-54bf646e7e1f
f 81//81 82//82 84//84
f 84//84 82//82 83//83
g 00fa86f6-e2aa-11ea-85ed-54bf646e7e1f
f 103//103 85//85 123//123
f 123//123 85//85 86//86
f 123//123 86//86 126//126
f 126//126 86//86 122//122
f 126//126 122//122 104//104
f 86//86 87//87 122//122
f 122//122 87//87 121//121
f 121//121 87//87 88//88
f 121//121 88//88 120//120
f 120//120 88//88 89//89
f 120//120 89//89 119//119
f 119//119 89//89 90//90
f 119//119 90//90 118//118
f 118//118 90//90 117//117
f 117//117 90//90 91//91
f 117//117 91//91 116//116
f 116//116 91//91 92//92
f 116//116 92//92 115//115
f 115//115 92//92 93//93
f 115//115 93//93 114//114
f 114//114 93//93 94//94
f 114//114 94//94 125//125
f 125//125 94//94 124//124
f 124//124 94//94 95//95
f 124//124 95//95 96//96
f 96//96 97//97 124//124
f 124//124 97//97 98//98
f 124//124 98//98 99//99
f 124//124 99//99 123//123
f 123//123 99//99 100//100
f 123//123 100//100 101//101
f 101//101 102//102 123//123
f 123//123 102//102 103//103
f 104//104 105//105 126//126
f 126//126 105//105 106//106
f 126//126 106//106 107//107
f 107//107 108//108 126//126
f 126//126 108//108 109//109
f 126//126 109//109 125//125
f 125//125 109//109 110//110
f 125//125 110//110 111//111
f 111//111 112//112 125//125
f 125//125 112//112 113//113
f 125//125 113//113 114//114
g 00fb71de-e2aa-11ea-bb31-54bf646e7e1f
f 127//127 128//128 130//130
f 130//130 128//128 129//129
g 00fc5ca6-e2aa-11ea-860f-54bf646e7e1f
f 131//131 132//132 134//134
f 134//134 132//132 133//133
g 00fd2054-e2aa-11ea-8466-54bf646e7e1f
f 135//135 136//136 138//138
f 138//138 136//136 137//137
g 00fdbcd4-e2aa-11ea-9a29-54bf646e7e1f
f 139//139 140//140 142//142
f 142//142 140//140 141//141
g 00fe5974-e2aa-11ea-97f3-54bf646e7e1f
f 143//143 144//144 146//146
f 146//146 144//144 145//145
g 01005652-e2aa-11ea-840d-54bf646e7e1f
f 147//147 148//148 150//150
f 150//150 148//148 149//149
g 01018f6c-e2aa-11ea-bcb0-54bf646e7e1f
f 151//151 152//152 154//154
f 154//154 152//152 153//153
g 0102a15e-e2aa-11ea-a953-54bf646e7e1f
f 155//155 156//156 158//158
f 158//158 156//156 157//157
g 0103da88-e2aa-11ea-a1d7-54bf646e7e1f
f 159//159 160//160 162//162
f 162//162 160//160 161//161
g 010513a6-e2aa-11ea-94c7-54bf646e7e1f
f 163//163 164//164 166//166
f 166//166 164//164 165//165
g 010673da-e2aa-11ea-bb23-54bf646e7e1f
f 167//167 168//168 170//170
f 170//170 168//168 169//169
g 0107d422-e2aa-11ea-9db4-54bf646e7e1f
f 171//171 172//172 174//174
f 174//174 172//172 173//173
g 0109345e-e2aa-11ea-8322-54bf646e7e1f
f 175//175 176//176 178//178
f 178//178 176//176 177//177
g 010abbc0-e2aa-11ea-9a7e-54bf646e7e1f
f 179//179 180//180 182//182
f 182//182 180//180 181//181
g 010c1c14-e2aa-11ea-b872-54bf646e7e1f
f 201//201 183//183 222//222
f 222//222 183//183 184//184
f 222//222 184//184 185//185
f 185//185 186//186 222//222
f 222//222 186//186 187//187
f 222//222 187//187 188//188
f 222//222 188//188 221//221
f 221//221 188//188 189//189
f 221//221 189//189 190//190
f 190//190 191//191 221//221
f 221//221 191//191 192//192
f 221//221 192//192 193//193
f 194//194 211//211 193//193
f 193//193 211//211 224//224
f 193//193 224//224 221//221
f 211//211 194//194 210//210
f 210//210 194//194 195//195
f 210//210 195//195 209//209
f 209//209 195//195 196//196
f 209//209 196//196 208//208
f 208//208 196//196 197//197
f 208//208 197//197 207//207
f 207//207 197//197 206//206
f 206//206 197//197 198//198
f 206//206 198//198 205//205
f 205//205 198//198 199//199
f 205//205 199//199 204//204
f 204//204 199//199 200//200
f 204//204 200//200 203//203
f 203//203 200//200 201//201
f 203//203 201//201 223//223
f 223//223 201//201 222//222
f 220//220 202//202 223//223
f 223//223 202//202 203//203
f 211//211 212//212 224//224
f 224//224 212//212 213//213
f 224//224 213//213 214//214
f 214//214 215//215 224//224
f 224//224 215//215 216//216
f 224//224 216//216 223//223
f 223//223 216//216 217//217
f 223//223 217//217 218//218
f 218//218 219//219 223//223
f 223//223 219//219 220//220
g 010dca9e-e2aa-11ea-8cb5-54bf646e7e1f
f 241//241 225//225 240//240
f 240//240 225//225 226//226
f 240//240 226//226 233//233
f 233//233 226//226 232//232
f 232//232 226//226 227//227
f 232//232 227//227 229//229
f 229//229 227//227 228//228
f 230//230 231//231 229//229
f 229//229 231//231 232//232
f 234//234 235//235 233//233
f 233//233 235//235 236//236
f 233//233 236//236 240//240
f 240//240 236//236 238//238
f 240//240 238//238 239//239
f 236//236 237//237 238//238
g 010f520c-e2aa-11ea-a194-54bf646e7e1f
f 243//243 244//244 242//242
f 242//242 244//244 245//245
f 242//242 245//245 252//252
f 252//252 245//245 249//249
f 252//252 249//249 250//250
f 246//246 247//247 245//245
f 245//245 247//247 249//249
f 247//247 248//248 249//249
f 250//250 251//251 252//252
f 252//252 253//253 242//242
f 242//242 253//253 258//258
f 258//258 253//253 256//256
f 258//258 256//256 257//257
f 253//253 254//254 256//256
f 256//256 254//254 255//255

# End of file