# WaveFront *.obj file
# Vertices: 78
# Triangles : 72

v 7.300000190734863 1.9719542264938354 -5.377284049987793
v 7.300000190734863 2.053128957748413 -5.390829563140869
v 7.300000190734863 2.125507354736328 -5.429998874664307
v 7.300000190734863 2.181245803833008 -5.490546703338623
v 7.300000190734863 2.214304208755493 -5.56591272354126
v 7.300000190734863 2.221100330352783 -5.647928714752197
v 7.300000190734863 2.200897455215454 -5.727707862854004
v 7.300000190734863 2.1558852195739746 -5.796604156494141
v 7.300000190734863 2.0909409523010254 -5.847152233123779
v 7.300000190734863 2.0131027698516846 -5.873874187469482
v 7.300000190734863 1.9308055639266968 -5.873874187469482
v 7.300000190734863 1.852967381477356 -5.847152233123779
v 7.300000190734863 1.7880232334136963 -5.796604156494141
v 7.300000190734863 1.7430108785629272 -5.727707862854004
v 7.300000190734863 1.7228080034255981 -5.647928714752197
v 7.300000190734863 1.7296041250228882 -5.56591272354126
v 7.300000190734863 1.7626625299453735 -5.490546703338623
v 7.300000190734863 1.8184009790420532 -5.429998874664307
v 7.300000190734863 1.8907792568206787 -5.390829563140869
v 0.0 1.9719542264938354 -5.377284049987793
v 0.0 1.8907792568206787 -5.390829563140869
v 0.0 1.8184009790420532 -5.429998874664307
v 0.0 1.7626625299453735 -5.490546703338623
v 0.0 1.7296041250228882 -5.56591272354126
v 0.0 1.7228080034255981 -5.647928714752197
v 0.0 1.7430108785629272 -5.727707862854004
v 0.0 1.7880232334136963 -5.796604156494141
v 0.0 1.852967381477356 -5.847152233123779
v 0.0 1.9308055639266968 -5.873874187469482
v 0.0 2.0131027698516846 -5.873874187469482
v 0.0 2.0909409523010254 -5.847152233123779
v 0.0 2.1558852195739746 -5.796604156494141
v 0.0 2.200897455215454 -5.727707862854004
v 0.0 2.221100330352783 -5.647928714752197
v 0.0 2.214304208755493 -5.56591272354126
v 0.0 2.181245803833008 -5.490546703338623
v 0.0 2.125507354736328 -5.429998874664307
v 0.0 2.053128957748413 -5.390829563140869
v 0.0 1.9719542264938354 -5.377284049987793
v 7.300000190734863 1.9719542264938354 -5.377284049987793
v 7.300000190734863 1.9719542264938354 -5.377284049987793
v 7.300000190734863 1.8907792568206787 -5.390829563140869
v 7.300000190734863 1.8184009790420532 -5.429998874664307
v 7.300000190734863 1.7626625299453735 -5.490546703338623
v 7.300000190734863 1.7296041250228882 -5.56591272354126
v 7.300000190734863 1.7228080034255981 -5.647928714752197
v 7.300000190734863 1.7430108785629272 -5.727707862854004
v 7.300000190734863 1.7880232334136963 -5.796604156494141
v 7.300000190734863 1.852967381477356 -5.847152233123779
v 7.300000190734863 1.9308055639266968 -5.873874187469482
v 7.300000190734863 2.0131027698516846 -5.873874187469482
v 7.300000190734863 2.0909409523010254 -5.847152233123779
v 7.300000190734863 2.1558852195739746 -5.796604156494141
v 7.300000190734863 2.200897455215454 -5.727707862854004
v 7.300000190734863 2.221100330352783 -5.647928714752197
v 7.300000190734863 2.214304208755493 -5.56591272354126
v 7.300000190734863 2.181245803833008 -5.490546703338623
v 7.300000190734863 2.125507354736328 -5.429998874664307
v 7.300000190734863 2.053128957748413 -5.390829563140869
v 0.0 1.9719542264938354 -5.377284049987793
v 0.0 2.053128957748413 -5.390829563140869
v 0.0 2.125507354736328 -5.429998874664307
v 0.0 2.181245803833008 -5.490546703338623
v 0.0 2.214304208755493 -5.56591272354126
v 0.0 2.221100330352783 -5.647928714752197
v 0.0 2.200897455215454 -5.727707862854004
v 0.0 2.1558852195739746 -5.796604156494141
v 0.0 2.0909409523010254 -5.847152233123779
v 0.0 2.0131027698516846 -5.873874187469482
v 0.0 1.9308055639266968 -5.873874187469482
v 0.0 1.852967381477356 -5.847152233123779
v 0.0 1.7880232334136963 -5.796604156494141
v 0.0 1.7430108785629272 -5.727707862854004
v 0.0 1.7228080034255981 -5.647928714752197
v 0.0 1.7296041250228882 -5.56591272354126
v 0.0 1.7626625299453735 -5.490546703338623
v 0.0 1.8184009790420532 -5.429998874664307
v 0.0 1.8907792568206787 -5.390829563140869
vn -0.0 1.2246468525851679e-16 1.0
vn -0.0 0.3246994614601135 0.945817232131958
vn -0.0 0.614212691783905 0.789140522480011
vn -0.0 0.8371664881706238 0.5469481348991394
vn -0.0 0.9694002866744995 0.24548548460006714
vn -0.0 0.9965844750404358 -0.0825793445110321
vn -0.0 0.915773332118988 -0.4016954302787781
vn -0.0 0.7357239127159119 -0.6772815585136414
vn -0.0 0.47594738006591797 -0.8794737458229065
vn -0.0 0.1645945906639099 -0.9863613247871399
vn 0.0 -0.1645945906639099 -0.9863613247871399
vn 0.0 -0.47594738006591797 -0.8794737458229065
vn 0.0 -0.7357239127159119 -0.6772815585136414
vn 0.0 -0.915773332118988 -0.4016954302787781
vn 0.0 -0.9965844750404358 -0.0825793445110321
vn -0.0 -0.9694002866744995 0.24548548460006714
vn -0.0 -0.8371664881706238 0.5469481348991394
vn -0.0 -0.614212691783905 0.789140522480011
vn -0.0 -0.3246994614601135 0.945817232131958
vn -0.0 -1.2246468525851679e-16 1.0
vn -0.0 -0.3246994614601135 0.945817232131958
vn -0.0 -0.614212691783905 0.789140522480011
vn -0.0 -0.8371664881706238 0.5469481348991394
vn -0.0 -0.9694002866744995 0.24548548460006714
vn 0.0 -0.9965844750404358 -0.0825793445110321
vn 0.0 -0.915773332118988 -0.4016954302787781
vn 0.0 -0.7357239127159119 -0.6772815585136414
vn 0.0 -0.47594738006591797 -0.8794737458229065
vn 0.0 -0.1645945906639099 -0.9863613247871399
vn -0.0 0.1645945906639099 -0.9863613247871399
vn -0.0 0.47594738006591797 -0.8794737458229065
vn -0.0 0.7357239127159119 -0.6772815585136414
vn -0.0 0.915773332118988 -0.4016954302787781
vn -0.0 0.9965844750404358 -0.0825793445110321
vn -0.0 0.9694002866744995 0.24548548460006714
vn -0.0 0.8371664881706238 0.5469481348991394
vn -0.0 0.614212691783905 0.789140522480011
vn -0.0 0.3246994614601135 0.945817232131958
vn -0.0 1.2246468525851679e-16 1.0
vn -0.0 -1.2246468525851679e-16 1.0
vn 1.0 0.0 0.0
vn 1.0 0.0 0.0
vn 1.0 0.0 0.0
vn 1.0 0.0 0.0
vn 1.0 0.0 0.0
vn 1.0 0.0 0.0
vn 1.0 0.0 0.0
vn 1.0 0.0 0.0
vn 1.0 0.0 0.0
vn 1.0 0.0 0.0
vn 1.0 0.0 0.0
vn 1.0 0.0 0.0
vn 1.0 0.0 0.0
vn 1.0 0.0 0.0
vn 1.0 0.0 0.0
vn 1.0 0.0 0.0
vn 1.0 0.0 0.0
vn 1.0 0.0 0.0
vn 1.0 0.0 0.0
vn -1.0 -0.0 -0.0
vn -1.0 -0.0 -0.0
vn -1.0 -0.0 -0.0
vn -1.0 -0.0 -0.0
vn -1.0 -0.0 -0.0
vn -1.0 -0.0 -0.0
vn -1.0 -0.0 -0.0
vn -1.0 -0.0 -0.0
vn -1.0 -0.0 -0.0
vn -1.0 -0.0 -0.0
vn -1.0 -0.0 -0.0
vn -1.0 -0.0 -0.0
vn -1.0 -0.0 -0.0
vn -1.0 -0.0 -0.0
vn -1.0 -0.0 -0.0
vn -1.0 -0.0 -0.0
vn -1.0 -0.0 -0.0
vn -1.0 -0.0 -0.0
vn -1.0 -0.0 -0.0
f 2//2 38//38 1//1
f 1//1 38//38 39//39
f 40//40 20//20 19//19
f 19//19 20//20 21//21
f 19//19 21//21 18//18
f 18//18 21//21 22//22
f 18//18 22//22 17//17
f 17//17 22//22 23//23
f 17//17 23//23 16//16
f 16//16 23//23 24//24
f 16//16 24//24 15//15
f 15//15 24//24 25//25
f 15//15 25//25 14//14
f 14//14 25//25 26//26
f 14//14 26//26 13//13
f 13//13 26//26 27//27
f 13//13 27//27 12//12
f 12//12 27//27 28//28
f 12//12 28//28 11//11
f 11//11 28//28 29//29
f 11//11 29//29 10//10
f 10//10 29//29 30//30
f 10//10 30//30 9//9
f 9//9 30//30 31//31
f 9//9 31//31 8//8
f 8//8 31//31 32//32
f 8//8 32//32 7//7
f 7//7 32//32 33//33
f 7//7 33//33 6//6
f 6//6 33//33 34//34
f 6//6 34//34 5//5
f 5//5 34//34 35//35
f 5//5 35//35 4//4
f 4//4 35//35 36//36
f 4//4 36//36 3//3
f 3//3 36//36 37//37
f 3//3 37//37 2//2
f 2//2 37//37 38//38
f 42//42 50//50 41//41
f 41//41 50//50 51//51
f 41//41 51//51 59//59
f 59//59 51//51 52//52
f 59//59 52//52 58//58
f 58//58 52//52 53//53
f 58//58 53//53 57//57
f 57//57 53//53 54//54
f 57//57 54//54 56//56
f 56//56 54//54 55//55
f 50//50 42//42 49//49
f 49//49 42//42 43//43
f 49//49 43//43 48//48
f 48//48 43//43 44//44
f 48//48 44//44 47//47
f 47//47 44//44 45//45
f 47//47 45//45 46//46
f 61//61 69//69 60//60
f 60//60 69//69 70//70
f 60//60 70//70 78//78
f 78//78 70//70 71//71
f 78//78 71//71 77//77
f 77//77 71//71 72//72
f 77//77 72//72 76//76
f 76//76 72//72 73//73
f 76//76 73//73 75//75
f 75//75 73//73 74//74
f 69//69 61//61 68//68
f 68//68 61//61 62//62
f 68//68 62//62 67//67
f 67//67 62//62 63//63
f 67//67 63//63 66//66
f 66//66 63//63 64//64
f 66//66 64//64 65//65

# End of file