# WaveFront *.obj file
# Vertices: 206
# Triangles : 192

v 3.3306690738754696e-16 0.0 -1.2701705694198608
v -1.100000023841858 0.0 -0.6350852847099304
v -1.100000023841858 0.800000011920929 -0.6350852847099304
v 3.3306690738754696e-16 0.800000011920929 -1.2701705694198608
v -1.100000023841858 0.0 -0.6350852847099304
v -1.100000023841858 0.0 0.6350852847099304
v -1.100000023841858 0.800000011920929 0.6350852847099304
v -1.100000023841858 0.800000011920929 -0.6350852847099304
v 1.100000023841858 0.0 -0.6350852847099304
v 3.3306690738754696e-16 0.0 -1.2701705694198608
v 3.3306690738754696e-16 0.800000011920929 -1.2701705694198608
v 1.100000023841858 0.800000011920929 -0.6350852847099304
v -0.6000000238418579 0.800000011920929 7.347881115511007e-17
v -0.5932984948158264 0.800000011920929 -0.08942536264657974
v -0.5733436942100525 0.800000011920929 -0.17685310542583466
v -0.5405813455581665 0.800000011920929 -0.2603302299976349
v -0.4957432746887207 0.800000011920929 -0.3379920423030853
v -0.4398311376571655 0.800000011920929 -0.4081036448478699
v -0.3740938901901245 0.800000011920929 -0.46909889578819275
v -0.30000001192092896 0.800000011920929 -0.5196152329444885
v -0.2192046195268631 0.800000011920929 -0.5585242509841919
v -0.13351255655288696 0.800000011920929 -0.5849567651748657
v -0.04483805596828461 0.800000011920929 -0.5983222723007202
v 0.04483805596828461 0.800000011920929 -0.5983222723007202
v 0.13351255655288696 0.800000011920929 -0.5849567651748657
v 0.2192046195268631 0.800000011920929 -0.5585242509841919
v 0.30000001192092896 0.800000011920929 -0.5196152329444885
v 0.3740938901901245 0.800000011920929 -0.46909889578819275
v 0.4398311376571655 0.800000011920929 -0.4081036448478699
v 0.4957432746887207 0.800000011920929 -0.3379920423030853
v 0.5405813455581665 0.800000011920929 -0.2603302299976349
v 0.5733436942100525 0.800000011920929 -0.17685310542583466
v 0.5932984948158264 0.800000011920929 -0.08942536264657974
v 0.6000000238418579 0.800000011920929 0.0
v 0.5932984948158264 0.800000011920929 0.08942536264657974
v 0.5733436942100525 0.800000011920929 0.17685310542583466
v 0.5405813455581665 0.800000011920929 0.2603302299976349
v 0.4957432746887207 0.800000011920929 0.3379920423030853
v 0.4398311376571655 0.800000011920929 0.4081036448478699
v 0.3740938901901245 0.800000011920929 0.46909889578819275
v 0.30000001192092896 0.800000011920929 0.5196152329444885
v 0.2192046195268631 0.800000011920929 0.5585242509841919
v 0.13351255655288696 0.800000011920929 0.5849567651748657
v 0.04483805596828461 0.800000011920929 0.5983222723007202
v -0.04483805596828461 0.800000011920929 0.5983222723007202
v -0.13351255655288696 0.800000011920929 0.5849567651748657
v -0.2192046195268631 0.800000011920929 0.5585242509841919
v -0.30000001192092896 0.800000011920929 0.5196152329444885
v -0.3740938901901245 0.800000011920929 0.46909889578819275
v -0.4398311376571655 0.800000011920929 0.4081036448478699
v -0.4957432746887207 0.800000011920929 0.3379920423030853
v -0.5405813455581665 0.800000011920929 0.2603302299976349
v -0.5733436942100525 0.800000011920929 0.17685310542583466
v -0.5932984948158264 0.800000011920929 0.08942536264657974
v 1.100000023841858 0.800000011920929 0.6350852847099304
v 1.100000023841858 0.800000011920929 -0.6350852847099304
v 3.3306690738754696e-16 0.800000011920929 -1.2701705694198608
v -1.100000023841858 0.800000011920929 -0.6350852847099304
v -1.100000023841858 0.800000011920929 0.6350852847099304
v -8.881784197001252e-16 0.800000011920929 1.2701705694198608
v -0.6000000238418579 0.0 7.347881115511007e-17
v -0.5932984948158264 0.0 0.08942536264657974
v -0.5733436942100525 0.0 0.17685310542583466
v -0.5405813455581665 0.0 0.2603302299976349
v -0.4957432746887207 0.0 0.3379920423030853
v -0.4398311376571655 0.0 0.4081036448478699
v -0.3740938901901245 0.0 0.46909889578819275
v -0.30000001192092896 0.0 0.5196152329444885
v -0.2192046195268631 0.0 0.5585242509841919
v -0.13351255655288696 0.0 0.5849567651748657
v -0.04483805596828461 0.0 0.5983222723007202
v 0.04483805596828461 0.0 0.5983222723007202
v 0.13351255655288696 0.0 0.5849567651748657
v 0.2192046195268631 0.0 0.5585242509841919
v 0.30000001192092896 0.0 0.5196152329444885
v 0.3740938901901245 0.0 0.46909889578819275
v 0.4398311376571655 0.0 0.4081036448478699
v 0.4957432746887207 0.0 0.3379920423030853
v 0.5405813455581665 0.0 0.2603302299976349
v 0.5733436942100525 0.0 0.17685310542583466
v 0.5932984948158264 0.0 0.08942536264657974
v 0.6000000238418579 0.0 0.0
v 0.5932984948158264 0.0 -0.08942536264657974
v 0.5733436942100525 0.0 -0.17685310542583466
v 0.5405813455581665 0.0 -0.2603302299976349
v 0.4957432746887207 0.0 -0.3379920423030853
v 0.4398311376571655 0.0 -0.4081036448478699
v 0.3740938901901245 0.0 -0.46909889578819275
v 0.30000001192092896 0.0 -0.5196152329444885
v 0.2192046195268631 0.0 -0.5585242509841919
v 0.13351255655288696 0.0 -0.5849567651748657
v 0.04483805596828461 0.0 -0.5983222723007202
v -0.04483805596828461 0.0 -0.5983222723007202
v -0.13351255655288696 0.0 -0.5849567651748657
v -0.2192046195268631 0.0 -0.5585242509841919
v -0.30000001192092896 0.0 -0.5196152329444885
v -0.3740938901901245 0.0 -0.46909889578819275
v -0.4398311376571655 0.0 -0.4081036448478699
v -0.4957432746887207 0.0 -0.3379920423030853
v -0.5405813455581665 0.0 -0.2603302299976349
v -0.5733436942100525 0.0 -0.17685310542583466
v -0.5932984948158264 0.0 -0.08942536264657974
v 1.100000023841858 0.0 -0.6350852847099304
v 1.100000023841858 0.0 0.6350852847099304
v -8.881784197001252e-16 0.0 1.2701705694198608
v -1.100000023841858 0.0 0.6350852847099304
v -1.100000023841858 0.0 -0.6350852847099304
v 3.3306690738754696e-16 0.0 -1.2701705694198608
v -0.6000000238418579 0.800000011920929 7.347881115511007e-17
v -0.5932984948158264 0.800000011920929 0.08942536264657974
v -0.5733436942100525 0.800000011920929 0.17685310542583466
v -0.5405813455581665 0.800000011920929 0.2603302299976349
v -0.4957432746887207 0.800000011920929 0.3379920423030853
v -0.4398311376571655 0.800000011920929 0.4081036448478699
v -0.3740938901901245 0.800000011920929 0.46909889578819275
v -0.30000001192092896 0.800000011920929 0.5196152329444885
v -0.2192046195268631 0.800000011920929 0.5585242509841919
v -0.13351255655288696 0.800000011920929 0.5849567651748657
v -0.04483805596828461 0.800000011920929 0.5983222723007202
v 0.04483805596828461 0.800000011920929 0.5983222723007202
v 0.13351255655288696 0.800000011920929 0.5849567651748657
v 0.2192046195268631 0.800000011920929 0.5585242509841919
v 0.30000001192092896 0.800000011920929 0.5196152329444885
v 0.3740938901901245 0.800000011920929 0.46909889578819275
v 0.4398311376571655 0.800000011920929 0.4081036448478699
v 0.4957432746887207 0.800000011920929 0.3379920423030853
v 0.5405813455581665 0.800000011920929 0.2603302299976349
v 0.5733436942100525 0.800000011920929 0.17685310542583466
v 0.5932984948158264 0.800000011920929 0.08942536264657974
v 0.6000000238418579 0.800000011920929 0.0
v 0.5932984948158264 0.800000011920929 -0.08942536264657974
v 0.5733436942100525 0.800000011920929 -0.17685310542583466
v 0.5405813455581665 0.800000011920929 -0.2603302299976349
v 0.4957432746887207 0.800000011920929 -0.3379920423030853
v 0.4398311376571655 0.800000011920929 -0.4081036448478699
v 0.3740938901901245 0.800000011920929 -0.46909889578819275
v 0.30000001192092896 0.800000011920929 -0.5196152329444885
v 0.2192046195268631 0.800000011920929 -0.5585242509841919
v 0.13351255655288696 0.800000011920929 -0.5849567651748657
v 0.04483805596828461 0.800000011920929 -0.5983222723007202
v -0.04483805596828461 0.800000011920929 -0.5983222723007202
v -0.13351255655288696 0.800000011920929 -0.5849567651748657
v -0.2192046195268631 0.800000011920929 -0.5585242509841919
v -0.30000001192092896 0.800000011920929 -0.5196152329444885
v -0.3740938901901245 0.800000011920929 -0.46909889578819275
v -0.4398311376571655 0.800000011920929 -0.4081036448478699
v -0.4957432746887207 0.800000011920929 -0.3379920423030853
v -0.5405813455581665 0.800000011920929 -0.2603302299976349
v -0.5733436942100525 0.800000011920929 -0.17685310542583466
v -0.5932984948158264 0.800000011920929 -0.08942536264657974
v -0.6000000238418579 0.0 7.347881115511007e-17
v -0.5932984948158264 0.0 -0.08942536264657974
v -0.5733436942100525 0.0 -0.17685310542583466
v -0.5405813455581665 0.0 -0.2603302299976349
v -0.4957432746887207 0.0 -0.3379920423030853
v -0.4398311376571655 0.0 -0.4081036448478699
v -0.3740938901901245 0.0 -0.46909889578819275
v -0.30000001192092896 0.0 -0.5196152329444885
v -0.2192046195268631 0.0 -0.5585242509841919
v -0.13351255655288696 0.0 -0.5849567651748657
v -0.04483805596828461 0.0 -0.5983222723007202
v 0.04483805596828461 0.0 -0.5983222723007202
v 0.13351255655288696 0.0 -0.5849567651748657
v 0.2192046195268631 0.0 -0.5585242509841919
v 0.30000001192092896 0.0 -0.5196152329444885
v 0.3740938901901245 0.0 -0.46909889578819275
v 0.4398311376571655 0.0 -0.4081036448478699
v 0.4957432746887207 0.0 -0.3379920423030853
v 0.5405813455581665 0.0 -0.2603302299976349
v 0.5733436942100525 0.0 -0.17685310542583466
v 0.5932984948158264 0.0 -0.08942536264657974
v 0.6000000238418579 0.0 0.0
v 0.5932984948158264 0.0 0.08942536264657974
v 0.5733436942100525 0.0 0.17685310542583466
v 0.5405813455581665 0.0 0.2603302299976349
v 0.4957432746887207 0.0 0.3379920423030853
v 0.4398311376571655 0.0 0.4081036448478699
v 0.3740938901901245 0.0 0.46909889578819275
v 0.30000001192092896 0.0 0.5196152329444885
v 0.2192046195268631 0.0 0.5585242509841919
v 0.13351255655288696 0.0 0.5849567651748657
v 0.04483805596828461 0.0 0.5983222723007202
v -0.04483805596828461 0.0 0.5983222723007202
v -0.13351255655288696 0.0 0.5849567651748657
v -0.2192046195268631 0.0 0.5585242509841919
v -0.30000001192092896 0.0 0.5196152329444885
v -0.3740938901901245 0.0 0.46909889578819275
v -0.4398311376571655 0.0 0.4081036448478699
v -0.4957432746887207 0.0 0.3379920423030853
v -0.5405813455581665 0.0 0.2603302299976349
v -0.5733436942100525 0.0 0.17685310542583466
v -0.5932984948158264 0.0 0.08942536264657974
v -0.6000000238418579 0.800000011920929 7.347881115511007e-17
v -0.6000000238418579 0.0 7.347881115511007e-17
v 1.100000023841858 0.0 0.6350852847099304
v 1.100000023841858 0.0 -0.6350852847099304
v 1.100000023841858 0.800000011920929 -0.6350852847099304
v 1.100000023841858 0.800000011920929 0.6350852847099304
v -8.881784197001252e-16 0.0 1.2701705694198608
v 1.100000023841858 0.0 0.6350852847099304
v 1.100000023841858 0.800000011920929 0.6350852847099304
v -8.881784197001252e-16 0.800000011920929 1.2701705694198608
v -1.100000023841858 0.0 0.6350852847099304
v -8.881784197001252e-16 0.0 1.2701705694198608
v -8.881784197001252e-16 0.800000011920929 1.2701705694198608
v -1.100000023841858 0.800000011920929 0.6350852847099304
vn -0.5 0.0 -0.8660253882408142
vn -0.5 0.0 -0.8660253882408142
vn -0.5 0.0 -0.8660253882408142
vn -0.5 0.0 -0.8660253882408142
vn -1.0 0.0 -5.244443668198811e-16
vn -1.0 0.0 -5.244443668198811e-16
vn -1.0 0.0 -5.244443668198811e-16
vn -1.0 0.0 -5.244443668198811e-16
vn 0.5 0.0 -0.8660253882408142
vn 0.5 0.0 -0.8660253882408142
vn 0.5 0.0 -0.8660253882408142
vn 0.5 0.0 -0.8660253882408142
vn 0.0 1.0 0.0
vn 0.0 1.0 0.0
vn 0.0 1.0 0.0
vn 0.0 1.0 0.0
vn 0.0 1.0 0.0
vn 0.0 1.0 0.0
vn 0.0 1.0 0.0
vn 0.0 1.0 0.0
vn 0.0 1.0 0.0
vn 0.0 1.0 0.0
vn 0.0 1.0 0.0
vn 0.0 1.0 0.0
vn 0.0 1.0 0.0
vn 0.0 1.0 0.0
vn 0.0 1.0 0.0
vn 0.0 1.0 0.0
vn 0.0 1.0 0.0
vn 0.0 1.0 0.0
vn 0.0 1.0 0.0
vn 0.0 1.0 0.0
vn 0.0 1.0 0.0
vn 0.0 1.0 0.0
vn 0.0 1.0 0.0
vn 0.0 1.0 0.0
vn 0.0 1.0 0.0
vn 0.0 1.0 0.0
vn 0.0 1.0 0.0
vn 0.0 1.0 0.0
vn 0.0 1.0 0.0
vn 0.0 1.0 0.0
vn 0.0 1.0 0.0
vn 0.0 1.0 0.0
vn 0.0 1.0 0.0
vn 0.0 1.0 0.0
vn 0.0 1.0 0.0
vn 0.0 1.0 0.0
vn 0.0 1.0 0.0
vn 0.0 1.0 0.0
vn 0.0 1.0 0.0
vn 0.0 1.0 0.0
vn 0.0 1.0 0.0
vn 0.0 1.0 0.0
vn 0.0 1.0 0.0
vn 0.0 1.0 0.0
vn 0.0 1.0 0.0
vn 0.0 1.0 0.0
vn 0.0 1.0 0.0
vn 0.0 1.0 0.0
vn -0.0 -1.0 -0.0
vn -0.0 -1.0 -0.0
vn -0.0 -1.0 -0.0
vn -0.0 -1.0 -0.0
vn -0.0 -1.0 -0.0
vn -0.0 -1.0 -0.0
vn -0.0 -1.0 -0.0
vn -0.0 -1.0 -0.0
vn -0.0 -1.0 -0.0
vn -0.0 -1.0 -0.0
vn -0.0 -1.0 -0.0
vn -0.0 -1.0 -0.0
vn -0.0 -1.0 -0.0
vn -0.0 -1.0 -0.0
vn -0.0 -1.0 -0.0
vn -0.0 -1.0 -0.0
vn -0.0 -1.0 -0.0
vn -0.0 -1.0 -0.0
vn -0.0 -1.0 -0.0
vn -0.0 -1.0 -0.0
vn -0.0 -1.0 -0.0
vn -0.0 -1.0 -0.0
vn -0.0 -1.0 -0.0
vn -0.0 -1.0 -0.0
vn -0.0 -1.0 -0.0
vn -0.0 -1.0 -0.0
vn -0.0 -1.0 -0.0
vn -0.0 -1.0 -0.0
vn -0.0 -1.0 -0.0
vn -0.0 -1.0 -0.0
vn -0.0 -1.0 -0.0
vn -0.0 -1.0 -0.0
vn -0.0 -1.0 -0.0
vn -0.0 -1.0 -0.0
vn -0.0 -1.0 -0.0
vn -0.0 -1.0 -0.0
vn -0.0 -1.0 -0.0
vn -0.0 -1.0 -0.0
vn -0.0 -1.0 -0.0
vn -0.0 -1.0 -0.0
vn -0.0 -1.0 -0.0
vn -0.0 -1.0 -0.0
vn -0.0 -1.0 -0.0
vn -0.0 -1.0 -0.0
vn -0.0 -1.0 -0.0
vn -0.0 -1.0 -0.0
vn -0.0 -1.0 -0.0
vn -0.0 -1.0 -0.0
vn 1.0 0.0 -1.2246468525851679e-16
vn 0.9888308048248291 0.0 -0.1490422636270523
vn 0.955572783946991 0.0 -0.29475516080856323
vn 0.9009688496589661 0.0 -0.4338837265968323
vn 0.826238751411438 0.0 -0.5633200407028198
vn 0.7330518960952759 0.0 -0.6801727414131165
vn 0.6234897971153259 0.0 -0.7818315029144287
vn 0.5 0.0 -0.8660253882408142
vn 0.36534103751182556 0.0 -0.9308737516403198
vn 0.22252093255519867 0.0 -0.9749279022216797
vn 0.07473009079694748 0.0 -0.9972038269042969
vn -0.07473009079694748 0.0 -0.9972038269042969
vn -0.22252093255519867 0.0 -0.9749279022216797
vn -0.36534103751182556 0.0 -0.9308737516403198
vn -0.5 0.0 -0.8660253882408142
vn -0.6234897971153259 0.0 -0.7818315029144287
vn -0.7330518960952759 0.0 -0.6801727414131165
vn -0.826238751411438 0.0 -0.5633200407028198
vn -0.9009688496589661 0.0 -0.4338837265968323
vn -0.955572783946991 0.0 -0.29475516080856323
vn -0.9888308048248291 0.0 -0.1490422636270523
vn -1.0 0.0 0.0
vn -0.9888308048248291 0.0 0.1490422636270523
vn -0.955572783946991 0.0 0.29475516080856323
vn -0.9009688496589661 0.0 0.4338837265968323
vn -0.826238751411438 0.0 0.5633200407028198
vn -0.7330518960952759 0.0 0.6801727414131165
vn -0.6234897971153259 0.0 0.7818315029144287
vn -0.5 0.0 0.8660253882408142
vn -0.36534103751182556 0.0 0.9308737516403198
vn -0.22252093255519867 0.0 0.9749279022216797
vn -0.07473009079694748 0.0 0.9972038269042969
vn 0.07473009079694748 -0.0 0.9972038269042969
vn 0.22252093255519867 -0.0 0.9749279022216797
vn 0.36534103751182556 -0.0 0.9308737516403198
vn 0.5 -0.0 0.8660253882408142
vn 0.6234897971153259 -0.0 0.7818315029144287
vn 0.7330518960952759 -0.0 0.6801727414131165
vn 0.826238751411438 -0.0 0.5633200407028198
vn 0.9009688496589661 -0.0 0.4338837265968323
vn 0.955572783946991 -0.0 0.29475516080856323
vn 0.9888308048248291 -0.0 0.1490422636270523
vn 1.0 -0.0 1.2246468525851679e-16
vn 0.9888308048248291 -0.0 0.1490422636270523
vn 0.955572783946991 -0.0 0.29475516080856323
vn 0.9009688496589661 -0.0 0.4338837265968323
vn 0.826238751411438 -0.0 0.5633200407028198
vn 0.7330518960952759 -0.0 0.6801727414131165
vn 0.6234897971153259 -0.0 0.7818315029144287
vn 0.5 -0.0 0.8660253882408142
vn 0.36534103751182556 -0.0 0.9308737516403198
vn 0.22252093255519867 -0.0 0.9749279022216797
vn 0.07473009079694748 -0.0 0.9972038269042969
vn -0.07473009079694748 0.0 0.9972038269042969
vn -0.22252093255519867 0.0 0.9749279022216797
vn -0.36534103751182556 0.0 0.9308737516403198
vn -0.5 0.0 0.8660253882408142
vn -0.6234897971153259 0.0 0.7818315029144287
vn -0.7330518960952759 0.0 0.6801727414131165
vn -0.826238751411438 0.0 0.5633200407028198
vn -0.9009688496589661 0.0 0.4338837265968323
vn -0.955572783946991 0.0 0.29475516080856323
vn -0.9888308048248291 0.0 0.1490422636270523
vn -1.0 0.0 0.0
vn -0.9888308048248291 0.0 -0.1490422636270523
vn -0.955572783946991 0.0 -0.29475516080856323
vn -0.9009688496589661 0.0 -0.4338837265968323
vn -0.826238751411438 0.0 -0.5633200407028198
vn -0.7330518960952759 0.0 -0.6801727414131165
vn -0.6234897971153259 0.0 -0.7818315029144287
vn -0.5 0.0 -0.8660253882408142
vn -0.36534103751182556 0.0 -0.9308737516403198
vn -0.22252093255519867 0.0 -0.9749279022216797
vn -0.07473009079694748 0.0 -0.9972038269042969
vn 0.07473009079694748 0.0 -0.9972038269042969
vn 0.22252093255519867 0.0 -0.9749279022216797
vn 0.36534103751182556 0.0 -0.9308737516403198
vn 0.5 0.0 -0.8660253882408142
vn 0.6234897971153259 0.0 -0.7818315029144287
vn 0.7330518960952759 0.0 -0.6801727414131165
vn 0.826238751411438 0.0 -0.5633200407028198
vn 0.9009688496589661 0.0 -0.4338837265968323
vn 0.955572783946991 0.0 -0.29475516080856323
vn 0.9888308048248291 0.0 -0.1490422636270523
vn 1.0 -0.0 1.2246468525851679e-16
vn 1.0 0.0 -1.2246468525851679e-16
vn 1.0 -0.0 5.244443668198811e-16
vn 1.0 -0.0 5.244443668198811e-16
vn 1.0 -0.0 5.244443668198811e-16
vn 1.0 -0.0 5.244443668198811e-16
vn 0.5 -0.0 0.8660253882408142
vn 0.5 -0.0 0.8660253882408142
vn 0.5 -0.0 0.8660253882408142
vn 0.5 -0.0 0.8660253882408142
vn -0.5 0.0 0.8660253882408142
vn -0.5 0.0 0.8660253882408142
vn -0.5 0.0 0.8660253882408142
vn -0.5 0.0 0.8660253882408142
f 1//1 2//2 4//4
f 4//4 2//2 3//3
f 5//5 6//6 8//8
f 8//8 6//6 7//7
f 9//9 10//10 12//12
f 12//12 10//10 11//11
f 14//14 58//58 13//13
f 13//13 58//58 59//59
f 13//13 59//59 54//54
f 54//54 59//59 53//53
f 53//53 59//59 52//52
f 52//52 59//59 51//51
f 51//51 59//59 50//50
f 50//50 59//59 49//49
f 49//49 59//59 48//48
f 48//48 59//59 60//60
f 48//48 60//60 47//47
f 47//47 60//60 46//46
f 46//46 60//60 45//45
f 45//45 60//60 44//44
f 44//44 60//60 43//43
f 43//43 60//60 42//42
f 42//42 60//60 41//41
f 41//41 60//60 55//55
f 41//41 55//55 40//40
f 40//40 55//55 39//39
f 39//39 55//55 38//38
f 38//38 55//55 37//37
f 37//37 55//55 36//36
f 36//36 55//55 35//35
f 35//35 55//55 34//34
f 34//34 55//55 56//56
f 34//34 56//56 33//33
f 33//33 56//56 32//32
f 32//32 56//56 31//31
f 31//31 56//56 30//30
f 30//30 56//56 29//29
f 29//29 56//56 28//28
f 28//28 56//56 27//27
f 27//27 56//56 57//57
f 27//27 57//57 26//26
f 26//26 57//57 25//25
f 25//25 57//57 24//24
f 24//24 57//57 23//23
f 23//23 57//57 22//22
f 22//22 57//57 21//21
f 21//21 57//57 20//20
f 20//20 57//57 58//58
f 20//20 58//58 19//19
f 19//19 58//58 18//18
f 18//18 58//58 17//17
f 17//17 58//58 16//16
f 16//16 58//58 15//15
f 15//15 58//58 14//14
f 62//62 106//106 61//61
f 61//61 106//106 107//107
f 61//61 107//107 102//102
f 102//102 107//107 101//101
f 101//101 107//107 100//100
f 100//100 107//107 99//99
f 99//99 107//107 98//98
f 98//98 107//107 97//97
f 97//97 107//107 96//96
f 96//96 107//107 108//108
f 96//96 108//108 95//95
f 95//95 108//108 94//94
f 94//94 108//108 93//93
f 93//93 108//108 92//92
f 92//92 108//108 91//91
f 91//91 108//108 90//90
f 90//90 108//108 89//89
f 89//89 108//108 103//103
f 89//89 103//103 88//88
f 88//88 103//103 87//87
f 87//87 103//103 86//86
f 86//86 103//103 85//85
f 85//85 103//103 84//84
f 84//84 103//103 83//83
f 83//83 103//103 82//82
f 82//82 103//103 104//104
f 82//82 104//104 81//81
f 81//81 104//104 80//80
f 80//80 104//104 79//79
f 79//79 104//104 78//78
f 78//78 104//104 77//77
f 77//77 104//104 76//76
f 76//76 104//104 75//75
f 75//75 104//104 105//105
f 75//75 105//105 74//74
f 74//74 105//105 73//73
f 73//73 105//105 72//72
f 72//72 105//105 71//71
f 71//71 105//105 70//70
f 70//70 105//105 69//69
f 69//69 105//105 68//68
f 68//68 105//105 106//106
f 68//68 106//106 67//67
f 67//67 106//106 66//66
f 66//66 106//106 65//65
f 65//65 106//106 64//64
f 64//64 106//106 63//63
f 63//63 106//106 62//62
f 110//110 192//192 109//109
f 109//109 192//192 194//194
f 193//193 151//151 150//150
f 150//150 151//151 152//152
f 150//150 152//152 149//149
f 149//149 152//152 153//153
f 149//149 153//153 148//148
f 148//148 153//153 154//154
f 148//148 154//154 147//147
f 147//147 154//154 155//155
f 147//147 155//155 146//146
f 146//146 155//155 156//156
f 146//146 156//156 145//145
f 145//145 156//156 157//157
f 145//145 157//157 144//144
f 144//144 157//157 158//158
f 144//144 158//158 143//143
f 143//143 158//158 159//159
f 143//143 159//159 142//142
f 142//142 159//159 160//160
f 142//142 160//160 141//141
f 141//141 160//160 161//161
f 141//141 161//161 140//140
f 140//140 161//161 162//162
f 140//140 162//162 139//139
f 139//139 162//162 163//163
f 139//139 163//163 138//138
f 138//138 163//163 164//164
f 138//138 164//164 137//137
f 137//137 164//164 165//165
f 137//137 165//165 136//136
f 136//136 165//165 166//166
f 136//136 166//166 135//135
f 135//135 166//166 167//167
f 135//135 167//167 134//134
f 134//134 167//167 168//168
f 134//134 168//168 133//133
f 133//133 168//168 169//169
f 133//133 169//169 132//132
f 132//132 169//169 170//170
f 132//132 170//170 131//131
f 131//131 170//170 171//171
f 131//131 171//171 130//130
f 130//130 171//171 172//172
f 130//130 172//172 129//129
f 129//129 172//172 173//173
f 129//129 173//173 128//128
f 128//128 173//173 174//174
f 128//128 174//174 127//127
f 127//127 174//174 175//175
f 127//127 175//175 126//126
f 126//126 175//175 176//176
f 126//126 176//176 125//125
f 125//125 176//176 177//177
f 125//125 177//177 124//124
f 124//124 177//177 178//178
f 124//124 178//178 123//123
f 123//123 178//178 179//179
f 123//123 179//179 122//122
f 122//122 179//179 180//180
f 122//122 180//180 121//121
f 121//121 180//180 181//181
f 121//121 181//181 120//120
f 120//120 181//181 182//182
f 120//120 182//182 119//119
f 119//119 182//182 183//183
f 119//119 183//183 118//118
f 118//118 183//183 184//184
f 118//118 184//184 117//117
f 117//117 184//184 185//185
f 117//117 185//185 116//116
f 116//116 185//185 186//186
f 116//116 186//186 115//115
f 115//115 186//186 187//187
f 115//115 187//187 114//114
f 114//114 187//187 188//188
f 114//114 188//188 113//113
f 113//113 188//188 189//189
f 113//113 189//189 112//112
f 112//112 189//189 190//190
f 112//112 190//190 111//111
f 111//111 190//190 191//191
f 111//111 191//191 110//110
f 110//110 191//191 192//192
f 195//195 196//196 198//198
f 198//198 196//196 197//197
f 199//199 200//200 202//202
f 202//202 200//200 201//201
f 203//203 204//204 206//206
f 206//206 204//204 205//205

# End of file