# WaveFront *.obj file
# Vertices: 162
# Triangles : 144

v 0.25980761647224426 0.0 0.15000000596046448
v 0.25980761647224426 0.0 -0.15000000596046448
v 0.25980761647224426 0.30000001192092896 -0.15000000596046448
v 0.25980761647224426 0.30000001192092896 0.15000000596046448
v 1.1102230246251565e-16 0.0 -0.30000001192092896
v -0.25980761647224426 0.0 -0.15000000596046448
v -0.25980761647224426 0.30000001192092896 -0.15000000596046448
v 1.1102230246251565e-16 0.30000001192092896 -0.30000001192092896
v 0.25980761647224426 0.0 -0.15000000596046448
v 1.1102230246251565e-16 0.0 -0.30000001192092896
v 1.1102230246251565e-16 0.30000001192092896 -0.30000001192092896
v 0.25980761647224426 0.30000001192092896 -0.15000000596046448
v -0.25980761647224426 0.0 -0.15000000596046448
v -0.25980761647224426 0.0 0.15000000596046448
v -0.25980761647224426 0.30000001192092896 0.15000000596046448
v -0.25980761647224426 0.30000001192092896 -0.15000000596046448
v 0.0 0.0 0.30000001192092896
v 0.25980761647224426 0.0 0.15000000596046448
v 0.25980761647224426 0.30000001192092896 0.15000000596046448
v 0.0 0.30000001192092896 0.30000001192092896
v -0.25980761647224426 0.0 0.15000000596046448
v 0.0 0.0 0.30000001192092896
v 0.0 0.30000001192092896 0.30000001192092896
v -0.25980761647224426 0.30000001192092896 0.15000000596046448
v -0.16210000216960907 0.0 -1.9851524064272362e-17
v -0.15878179669380188 0.0 0.03263048827648163
v -0.148963063955307 0.0 0.06392508745193481
v -0.1330457478761673 0.0 0.09260258078575134
v -0.11168153584003448 0.0 0.11748891323804855
v -0.08574506640434265 0.0 0.1375652402639389
v -0.05629818141460419 0.0 0.15200962126255035
v -0.024546442553400993 0.0 0.16023071110248566
v 0.008210230618715286 0.0 0.16189195215702057
v 0.040630776435136795 0.0 0.15692530572414398
v 0.0713878944516182 0.0 0.14553411304950714
v 0.09922237694263458 0.0 0.1281847506761551
v 0.12299469113349915 0.0 0.10558748245239258
v 0.14173159003257751 0.0 0.07866744697093964
v 0.1546659767627716 0.0 0.048526763916015625
v 0.16126832365989685 0.0 0.016399385407567024
v 0.16126832365989685 0.0 -0.016399385407567024
v 0.1546659767627716 0.0 -0.048526763916015625
v 0.14173159003257751 0.0 -0.07866744697093964
v 0.12299469113349915 0.0 -0.10558748245239258
v 0.09922237694263458 0.0 -0.1281847506761551
v 0.0713878944516182 0.0 -0.14553411304950714
v 0.040630776435136795 0.0 -0.15692530572414398
v 0.008210230618715286 0.0 -0.16189195215702057
v -0.024546442553400993 0.0 -0.16023071110248566
v -0.05629818141460419 0.0 -0.15200962126255035
v -0.08574506640434265 0.0 -0.1375652402639389
v -0.11168153584003448 0.0 -0.11748891323804855
v -0.1330457478761673 0.0 -0.09260258078575134
v -0.148963063955307 0.0 -0.06392508745193481
v -0.15878179669380188 0.0 -0.03263048827648163
v 0.0 0.0 0.30000001192092896
v -0.25980761647224426 0.0 0.15000000596046448
v -0.25980761647224426 0.0 -0.15000000596046448
v 1.1102230246251565e-16 0.0 -0.30000001192092896
v 0.25980761647224426 0.0 -0.15000000596046448
v 0.25980761647224426 0.0 0.15000000596046448
v -0.25980761647224426 0.30000001192092896 0.15000000596046448
v 0.0 0.30000001192092896 0.30000001192092896
v 0.25980761647224426 0.30000001192092896 0.15000000596046448
v 0.25980761647224426 0.30000001192092896 -0.15000000596046448
v 1.1102230246251565e-16 0.30000001192092896 -0.30000001192092896
v -0.25980761647224426 0.30000001192092896 -0.15000000596046448
v -0.16210000216960907 -1.2999999523162842 -1.9851524064272362e-17
v -0.15878179669380188 -1.2999999523162842 -0.03263048827648163
v -0.148963063955307 -1.2999999523162842 -0.06392508745193481
v -0.1330457478761673 -1.2999999523162842 -0.09260258078575134
v -0.11168153584003448 -1.2999999523162842 -0.11748891323804855
v -0.08574506640434265 -1.2999999523162842 -0.1375652402639389
v -0.05629818141460419 -1.2999999523162842 -0.15200962126255035
v -0.024546442553400993 -1.2999999523162842 -0.16023071110248566
v 0.008210230618715286 -1.2999999523162842 -0.16189195215702057
v 0.040630776435136795 -1.2999999523162842 -0.15692530572414398
v 0.0713878944516182 -1.2999999523162842 -0.14553411304950714
v 0.09922237694263458 -1.2999999523162842 -0.1281847506761551
v 0.12299469113349915 -1.2999999523162842 -0.10558748245239258
v 0.14173159003257751 -1.2999999523162842 -0.07866744697093964
v 0.1546659767627716 -1.2999999523162842 -0.048526763916015625
v 0.16126832365989685 -1.2999999523162842 -0.016399385407567024
v 0.16126832365989685 -1.2999999523162842 0.016399385407567024
v 0.1546659767627716 -1.2999999523162842 0.048526763916015625
v 0.14173159003257751 -1.2999999523162842 0.07866744697093964
v 0.12299469113349915 -1.2999999523162842 0.10558748245239258
v 0.09922237694263458 -1.2999999523162842 0.1281847506761551
v 0.0713878944516182 -1.2999999523162842 0.14553411304950714
v 0.040630776435136795 -1.2999999523162842 0.15692530572414398
v 0.008210230618715286 -1.2999999523162842 0.16189195215702057
v -0.024546442553400993 -1.2999999523162842 0.16023071110248566
v -0.05629818141460419 -1.2999999523162842 0.15200962126255035
v -0.08574506640434265 -1.2999999523162842 0.1375652402639389
v -0.11168153584003448 -1.2999999523162842 0.11748891323804855
v -0.1330457478761673 -1.2999999523162842 0.09260258078575134
v -0.148963063955307 -1.2999999523162842 0.06392508745193481
v -0.15878179669380188 -1.2999999523162842 0.03263048827648163
v -0.16210000216960907 -1.2999999523162842 -1.9851524064272362e-17
v -0.15878179669380188 -1.2999999523162842 0.03263048827648163
v -0.148963063955307 -1.2999999523162842 0.06392508745193481
v -0.1330457478761673 -1.2999999523162842 0.09260258078575134
v -0.11168153584003448 -1.2999999523162842 0.11748891323804855
v -0.08574506640434265 -1.2999999523162842 0.1375652402639389
v -0.05629818141460419 -1.2999999523162842 0.15200962126255035
v -0.024546442553400993 -1.2999999523162842 0.16023071110248566
v 0.008210230618715286 -1.2999999523162842 0.16189195215702057
v 0.040630776435136795 -1.2999999523162842 0.15692530572414398
v 0.0713878944516182 -1.2999999523162842 0.14553411304950714
v 0.09922237694263458 -1.2999999523162842 0.1281847506761551
v 0.12299469113349915 -1.2999999523162842 0.10558748245239258
v 0.14173159003257751 -1.2999999523162842 0.07866744697093964
v 0.1546659767627716 -1.2999999523162842 0.048526763916015625
v 0.16126832365989685 -1.2999999523162842 0.016399385407567024
v 0.16126832365989685 -1.2999999523162842 -0.016399385407567024
v 0.1546659767627716 -1.2999999523162842 -0.048526763916015625
v 0.14173159003257751 -1.2999999523162842 -0.07866744697093964
v 0.12299469113349915 -1.2999999523162842 -0.10558748245239258
v 0.09922237694263458 -1.2999999523162842 -0.1281847506761551
v 0.0713878944516182 -1.2999999523162842 -0.14553411304950714
v 0.040630776435136795 -1.2999999523162842 -0.15692530572414398
v 0.008210230618715286 -1.2999999523162842 -0.16189195215702057
v -0.024546442553400993 -1.2999999523162842 -0.16023071110248566
v -0.05629818141460419 -1.2999999523162842 -0.15200962126255035
v -0.08574506640434265 -1.2999999523162842 -0.1375652402639389
v -0.11168153584003448 -1.2999999523162842 -0.11748891323804855
v -0.1330457478761673 -1.2999999523162842 -0.09260258078575134
v -0.148963063955307 -1.2999999523162842 -0.06392508745193481
v -0.15878179669380188 -1.2999999523162842 -0.03263048827648163
v -0.16210000216960907 0.0 -1.9851524064272362e-17
v -0.15878179669380188 0.0 -0.03263048827648163
v -0.148963063955307 0.0 -0.06392508745193481
v -0.1330457478761673 0.0 -0.09260258078575134
v -0.11168153584003448 0.0 -0.11748891323804855
v -0.08574506640434265 0.0 -0.1375652402639389
v -0.05629818141460419 0.0 -0.15200962126255035
v -0.024546442553400993 0.0 -0.16023071110248566
v 0.008210230618715286 0.0 -0.16189195215702057
v 0.040630776435136795 0.0 -0.15692530572414398
v 0.0713878944516182 0.0 -0.14553411304950714
v 0.09922237694263458 0.0 -0.1281847506761551
v 0.12299469113349915 0.0 -0.10558748245239258
v 0.14173159003257751 0.0 -0.07866744697093964
v 0.1546659767627716 0.0 -0.048526763916015625
v 0.16126832365989685 0.0 -0.016399385407567024
v 0.16126832365989685 0.0 0.016399385407567024
v 0.1546659767627716 0.0 0.048526763916015625
v 0.14173159003257751 0.0 0.07866744697093964
v 0.12299469113349915 0.0 0.10558748245239258
v 0.09922237694263458 0.0 0.1281847506761551
v 0.0713878944516182 0.0 0.14553411304950714
v 0.040630776435136795 0.0 0.15692530572414398
v 0.008210230618715286 0.0 0.16189195215702057
v -0.024546442553400993 0.0 0.16023071110248566
v -0.05629818141460419 0.0 0.15200962126255035
v -0.08574506640434265 0.0 0.1375652402639389
v -0.11168153584003448 0.0 0.11748891323804855
v -0.1330457478761673 0.0 0.09260258078575134
v -0.148963063955307 0.0 0.06392508745193481
v -0.15878179669380188 0.0 0.03263048827648163
v -0.16210000216960907 0.0 -1.9851524064272362e-17
v -0.16210000216960907 -1.2999999523162842 -1.9851524064272362e-17
vn 1.0 -0.0 1.850371663592295e-16
vn 1.0 -0.0 1.850371663592295e-16
vn 1.0 -0.0 1.850371663592295e-16
vn 1.0 -0.0 1.850371663592295e-16
vn -0.5 0.0 -0.8660253882408142
vn -0.5 0.0 -0.8660253882408142
vn -0.5 0.0 -0.8660253882408142
vn -0.5 0.0 -0.8660253882408142
vn 0.5 0.0 -0.8660253882408142
vn 0.5 0.0 -0.8660253882408142
vn 0.5 0.0 -0.8660253882408142
vn 0.5 0.0 -0.8660253882408142
vn -1.0 0.0 -5.551115123125783e-16
vn -1.0 0.0 -5.551115123125783e-16
vn -1.0 0.0 -5.551115123125783e-16
vn -1.0 0.0 -5.551115123125783e-16
vn 0.5 -0.0 0.8660253882408142
vn 0.5 -0.0 0.8660253882408142
vn 0.5 -0.0 0.8660253882408142
vn 0.5 -0.0 0.8660253882408142
vn -0.5 0.0 0.8660253882408142
vn -0.5 0.0 0.8660253882408142
vn -0.5 0.0 0.8660253882408142
vn -0.5 0.0 0.8660253882408142
vn -0.0 -1.0 -0.0
vn -0.0 -1.0 -0.0
vn -0.0 -1.0 -0.0
vn -0.0 -1.0 -0.0
vn -0.0 -1.0 -0.0
vn -0.0 -1.0 -0.0
vn -0.0 -1.0 -0.0
vn -0.0 -1.0 -0.0
vn -0.0 -1.0 -0.0
vn -0.0 -1.0 -0.0
vn -0.0 -1.0 -0.0
vn -0.0 -1.0 -0.0
vn -0.0 -1.0 -0.0
vn -0.0 -1.0 -0.0
vn -0.0 -1.0 -0.0
vn -0.0 -1.0 -0.0
vn -0.0 -1.0 -0.0
vn -0.0 -1.0 -0.0
vn -0.0 -1.0 -0.0
vn -0.0 -1.0 -0.0
vn -0.0 -1.0 -0.0
vn -0.0 -1.0 -0.0
vn -0.0 -1.0 -0.0
vn -0.0 -1.0 -0.0
vn -0.0 -1.0 -0.0
vn -0.0 -1.0 -0.0
vn -0.0 -1.0 -0.0
vn -0.0 -1.0 -0.0
vn -0.0 -1.0 -0.0
vn -0.0 -1.0 -0.0
vn -0.0 -1.0 -0.0
vn -0.0 -1.0 -0.0
vn -0.0 -1.0 -0.0
vn -0.0 -1.0 -0.0
vn -0.0 -1.0 -0.0
vn -0.0 -1.0 -0.0
vn -0.0 -1.0 -0.0
vn 0.0 1.0 0.0
vn 0.0 1.0 0.0
vn 0.0 1.0 0.0
vn 0.0 1.0 0.0
vn 0.0 1.0 0.0
vn 0.0 1.0 0.0
vn 0.0 -1.0 0.0
vn 0.0 -1.0 0.0
vn 0.0 -1.0 0.0
vn 0.0 -1.0 0.0
vn 0.0 -1.0 0.0
vn 0.0 -1.0 0.0
vn 0.0 -1.0 0.0
vn 0.0 -1.0 0.0
vn 0.0 -1.0 0.0
vn 0.0 -1.0 0.0
vn 0.0 -1.0 0.0
vn 0.0 -1.0 0.0
vn 0.0 -1.0 0.0
vn 0.0 -1.0 0.0
vn 0.0 -1.0 0.0
vn 0.0 -1.0 0.0
vn 0.0 -1.0 0.0
vn 0.0 -1.0 0.0
vn 0.0 -1.0 0.0
vn 0.0 -1.0 0.0
vn 0.0 -1.0 0.0
vn 0.0 -1.0 0.0
vn 0.0 -1.0 0.0
vn 0.0 -1.0 0.0
vn 0.0 -1.0 0.0
vn 0.0 -1.0 0.0
vn 0.0 -1.0 0.0
vn 0.0 -1.0 0.0
vn 0.0 -1.0 0.0
vn 0.0 -1.0 0.0
vn 0.0 -1.0 0.0
vn -1.0 -0.0 1.2246468525851679e-16
vn -0.9795299172401428 -0.0 0.2012985199689865
vn -0.9189578294754028 -0.0 0.3943558633327484
vn -0.8207634687423706 -0.0 0.5712682008743286
vn -0.6889669299125671 -0.0 0.7247927784919739
vn -0.5289639830589294 -0.0 0.8486442565917969
vn -0.3473052382469177 -0.0 0.9377521276473999
vn -0.15142777562141418 -0.0 0.98846834897995
vn 0.05064916983246803 0.0 0.9987165331840515
vn 0.2506525218486786 0.0 0.9680771231651306
vn 0.44039416313171387 0.0 0.8978045582771301
vn 0.6121059656143188 0.0 0.790775716304779
vn 0.7587581276893616 0.0 0.651372492313385
vn 0.8743466138839722 0.0 0.4853019714355469
vn 0.954139232635498 0.0 0.2993631362915039
vn 0.9948693513870239 0.0 0.10116831958293915
vn 0.9948693513870239 -0.0 -0.10116831958293915
vn 0.954139232635498 -0.0 -0.2993631362915039
vn 0.8743466138839722 -0.0 -0.4853019714355469
vn 0.7587581276893616 -0.0 -0.651372492313385
vn 0.6121059656143188 -0.0 -0.790775716304779
vn 0.44039416313171387 -0.0 -0.8978045582771301
vn 0.2506525218486786 -0.0 -0.9680771231651306
vn 0.05064916983246803 -0.0 -0.9987165331840515
vn -0.15142777562141418 -0.0 -0.98846834897995
vn -0.3473052382469177 -0.0 -0.9377521276473999
vn -0.5289639830589294 -0.0 -0.8486442565917969
vn -0.6889669299125671 -0.0 -0.7247927784919739
vn -0.8207634687423706 -0.0 -0.5712682008743286
vn -0.9189578294754028 -0.0 -0.3943558633327484
vn -0.9795299172401428 -0.0 -0.2012985199689865
vn -1.0 -0.0 -1.2246468525851679e-16
vn -0.9795299172401428 -0.0 -0.2012985199689865
vn -0.9189578294754028 -0.0 -0.3943558633327484
vn -0.8207634687423706 -0.0 -0.5712682008743286
vn -0.6889669299125671 -0.0 -0.7247927784919739
vn -0.5289639830589294 -0.0 -0.8486442565917969
vn -0.3473052382469177 -0.0 -0.9377521276473999
vn -0.15142777562141418 -0.0 -0.98846834897995
vn 0.05064916983246803 -0.0 -0.9987165331840515
vn 0.2506525218486786 -0.0 -0.9680771231651306
vn 0.44039416313171387 -0.0 -0.8978045582771301
vn 0.6121059656143188 -0.0 -0.790775716304779
vn 0.7587581276893616 -0.0 -0.651372492313385
vn 0.8743466138839722 -0.0 -0.4853019714355469
vn 0.954139232635498 -0.0 -0.2993631362915039
vn 0.9948693513870239 -0.0 -0.10116831958293915
vn 0.9948693513870239 0.0 0.10116831958293915
vn 0.954139232635498 0.0 0.2993631362915039
vn 0.8743466138839722 0.0 0.4853019714355469
vn 0.7587581276893616 0.0 0.651372492313385
vn 0.6121059656143188 0.0 0.790775716304779
vn 0.44039416313171387 0.0 0.8978045582771301
vn 0.2506525218486786 0.0 0.9680771231651306
vn 0.05064916983246803 0.0 0.9987165331840515
vn -0.15142777562141418 -0.0 0.98846834897995
vn -0.3473052382469177 -0.0 0.9377521276473999
vn -0.5289639830589294 -0.0 0.8486442565917969
vn -0.6889669299125671 -0.0 0.7247927784919739
vn -0.8207634687423706 -0.0 0.5712682008743286
vn -0.9189578294754028 -0.0 0.3943558633327484
vn -0.9795299172401428 -0.0 0.2012985199689865
vn -1.0 -0.0 1.2246468525851679e-16
vn -1.0 -0.0 -1.2246468525851679e-16
f 1//1 2//2 4//4
f 4//4 2//2 3//3
f 5//5 6//6 8//8
f 8//8 6//6 7//7
f 9//9 10//10 12//12
f 12//12 10//10 11//11
f 13//13 14//14 16//16
f 16//16 14//14 15//15
f 17//17 18//18 20//20
f 20//20 18//18 19//19
f 21//21 22//22 24//24
f 24//24 22//22 23//23
f 26//26 57//57 25//25
f 25//25 57//57 58//58
f 25//25 58//58 55//55
f 55//55 58//58 54//54
f 54//54 58//58 53//53
f 53//53 58//58 52//52
f 52//52 58//58 51//51
f 51//51 58//58 59//59
f 51//51 59//59 50//50
f 50//50 59//59 49//49
f 49//49 59//59 48//48
f 48//48 59//59 47//47
f 47//47 59//59 46//46
f 46//46 59//59 60//60
f 46//46 60//60 45//45
f 45//45 60//60 44//44
f 44//44 60//60 43//43
f 43//43 60//60 42//42
f 42//42 60//60 41//41
f 41//41 60//60 61//61
f 41//41 61//61 40//40
f 40//40 61//61 39//39
f 39//39 61//61 38//38
f 38//38 61//61 37//37
f 37//37 61//61 36//36
f 36//36 61//61 35//35
f 35//35 61//61 56//56
f 35//35 56//56 34//34
f 34//34 56//56 33//33
f 33//33 56//56 32//32
f 32//32 56//56 31//31
f 31//31 56//56 30//30
f 30//30 56//56 57//57
f 30//30 57//57 29//29
f 29//29 57//57 28//28
f 28//28 57//57 27//27
f 27//27 57//57 26//26
f 67//67 62//62 66//66
f 66//66 62//62 63//63
f 66//66 63//63 65//65
f 65//65 63//63 64//64
f 69//69 83//83 68//68
f 68//68 83//83 84//84
f 68//68 84//84 98//98
f 98//98 84//84 85//85
f 98//98 85//85 97//97
f 97//97 85//85 86//86
f 97//97 86//86 96//96
f 96//96 86//86 87//87
f 96//96 87//87 95//95
f 95//95 87//87 88//88
f 95//95 88//88 94//94
f 94//94 88//88 89//89
f 94//94 89//89 93//93
f 93//93 89//89 90//90
f 93//93 90//90 92//92
f 92//92 90//90 91//91
f 83//83 69//69 82//82
f 82//82 69//69 70//70
f 82//82 70//70 81//81
f 81//81 70//70 71//71
f 81//81 71//71 80//80
f 80//80 71//71 72//72
f 80//80 72//72 79//79
f 79//79 72//72 73//73
f 79//79 73//73 78//78
f 78//78 73//73 74//74
f 78//78 74//74 77//77
f 77//77 74//74 75//75
f 77//77 75//75 76//76
f 100//100 160//160 99//99
f 99//99 160//160 161//161
f 162//162 130//130 129//129
f 129//129 130//130 131//131
f 129//129 131//131 128//128
f 128//128 131//131 132//132
f 128//128 132//132 127//127
f 127//127 132//132 133//133
f 127//127 133//133 126//126
f 126//126 133//133 134//134
f 126//126 134//134 125//125
f 125//125 134//134 135//135
f 125//125 135//135 124//124
f 124//124 135//135 136//136
f 124//124 136//136 123//123
f 123//123 136//136 137//137
f 123//123 137//137 122//122
f 122//122 137//137 138//138
f 122//122 138//138 121//121
f 121//121 138//138 139//139
f 121//121 139//139 120//120
f 120//120 139//139 140//140
f 120//120 140//140 119//119
f 119//119 140//140 141//141
f 119//119 141//141 118//118
f 118//118 141//141 142//142
f 118//118 142//142 117//117
f 117//117 142//142 143//143
f 117//117 143//143 116//116
f 116//116 143//143 144//144
f 116//116 144//144 115//115
f 115//115 144//144 145//145
f 115//115 145//145 114//114
f 114//114 145//145 146//146
f 114//114 146//146 113//113
f 113//113 146//146 147//147
f 113//113 147//147 112//112
f 112//112 147//147 148//148
f 112//112 148//148 111//111
f 111//111 148//148 149//149
f 111//111 149//149 110//110
f 110//110 149//149 150//150
f 110//110 150//150 109//109
f 109//109 150//150 151//151
f 109//109 151//151 108//108
f 108//108 151//151 152//152
f 108//108 152//152 107//107
f 107//107 152//152 153//153
f 107//107 153//153 106//106
f 106//106 153//153 154//154
f 106//106 154//154 105//105
f 105//105 154//154 155//155
f 105//105 155//155 104//104
f 104//104 155//155 156//156
f 104//104 156//156 103//103
f 103//103 156//156 157//157
f 103//103 157//157 102//102
f 102//102 157//157 158//158
f 102//102 158//158 101//101
f 101//101 158//158 159//159
f 101//101 159//159 100//100
f 100//100 159//159 160//160

# End of file