# WaveFront *.obj file
# Vertices: 166
# Triangles : 148

v -0.17294999957084656 -1.2999999523162842 -2.1180265641246918e-17
v -0.16962681710720062 -1.2999999523162842 0.03374087065458298
v -0.1597849577665329 -1.2999999523162842 0.0661851018667221
v -0.143802672624588 -1.2999999523162842 0.09608586877584457
v -0.122294120490551 -1.2999999523162842 0.122294120490551
v -0.09608586877584457 -1.2999999523162842 0.143802672624588
v -0.0661851018667221 -1.2999999523162842 0.1597849577665329
v -0.03374087065458298 -1.2999999523162842 0.16962681710720062
v 1.0590132820623459e-17 -1.2999999523162842 0.17294999957084656
v 0.03374087065458298 -1.2999999523162842 0.16962681710720062
v 0.0661851018667221 -1.2999999523162842 0.1597849577665329
v 0.09608586877584457 -1.2999999523162842 0.143802672624588
v 0.122294120490551 -1.2999999523162842 0.122294120490551
v 0.143802672624588 -1.2999999523162842 0.09608586877584457
v 0.1597849577665329 -1.2999999523162842 0.0661851018667221
v 0.16962681710720062 -1.2999999523162842 0.03374087065458298
v 0.17294999957084656 -1.2999999523162842 0.0
v 0.16962681710720062 -1.2999999523162842 -0.03374087065458298
v 0.1597849577665329 -1.2999999523162842 -0.0661851018667221
v 0.143802672624588 -1.2999999523162842 -0.09608586877584457
v 0.122294120490551 -1.2999999523162842 -0.122294120490551
v 0.09608586877584457 -1.2999999523162842 -0.143802672624588
v 0.0661851018667221 -1.2999999523162842 -0.1597849577665329
v 0.03374087065458298 -1.2999999523162842 -0.16962681710720062
v 1.0590132820623459e-17 -1.2999999523162842 -0.17294999957084656
v -0.03374087065458298 -1.2999999523162842 -0.16962681710720062
v -0.0661851018667221 -1.2999999523162842 -0.1597849577665329
v -0.09608586877584457 -1.2999999523162842 -0.143802672624588
v -0.122294120490551 -1.2999999523162842 -0.122294120490551
v -0.143802672624588 -1.2999999523162842 -0.09608586877584457
v -0.1597849577665329 -1.2999999523162842 -0.0661851018667221
v -0.16962681710720062 -1.2999999523162842 -0.03374087065458298
v -0.17294999957084656 0.0 -2.1180265641246918e-17
v -0.16962681710720062 0.0 -0.03374087065458298
v -0.1597849577665329 0.0 -0.0661851018667221
v -0.143802672624588 0.0 -0.09608586877584457
v -0.122294120490551 0.0 -0.122294120490551
v -0.09608586877584457 0.0 -0.143802672624588
v -0.0661851018667221 0.0 -0.1597849577665329
v -0.03374087065458298 0.0 -0.16962681710720062
v 1.0590132820623459e-17 0.0 -0.17294999957084656
v 0.03374087065458298 0.0 -0.16962681710720062
v 0.0661851018667221 0.0 -0.1597849577665329
v 0.09608586877584457 0.0 -0.143802672624588
v 0.122294120490551 0.0 -0.122294120490551
v 0.143802672624588 0.0 -0.09608586877584457
v 0.1597849577665329 0.0 -0.0661851018667221
v 0.16962681710720062 0.0 -0.03374087065458298
v 0.17294999957084656 0.0 0.0
v 0.16962681710720062 0.0 0.03374087065458298
v 0.1597849577665329 0.0 0.0661851018667221
v 0.143802672624588 0.0 0.09608586877584457
v 0.122294120490551 0.0 0.122294120490551
v 0.09608586877584457 0.0 0.143802672624588
v 0.0661851018667221 0.0 0.1597849577665329
v 0.03374087065458298 0.0 0.16962681710720062
v 1.0590132820623459e-17 0.0 0.17294999957084656
v -0.03374087065458298 0.0 0.16962681710720062
v -0.0661851018667221 0.0 0.1597849577665329
v -0.09608586877584457 0.0 0.143802672624588
v -0.122294120490551 0.0 0.122294120490551
v -0.143802672624588 0.0 0.09608586877584457
v -0.1597849577665329 0.0 0.0661851018667221
v -0.16962681710720062 0.0 0.03374087065458298
v -0.17294999957084656 0.0 -2.1180265641246918e-17
v -0.17294999957084656 -1.2999999523162842 -2.1180265641246918e-17
v -0.17294999957084656 -1.2999999523162842 -2.1180265641246918e-17
v -0.16962681710720062 -1.2999999523162842 -0.03374087065458298
v -0.1597849577665329 -1.2999999523162842 -0.0661851018667221
v -0.143802672624588 -1.2999999523162842 -0.09608586877584457
v -0.122294120490551 -1.2999999523162842 -0.122294120490551
v -0.09608586877584457 -1.2999999523162842 -0.143802672624588
v -0.0661851018667221 -1.2999999523162842 -0.1597849577665329
v -0.03374087065458298 -1.2999999523162842 -0.16962681710720062
v 1.0590132820623459e-17 -1.2999999523162842 -0.17294999957084656
v 0.03374087065458298 -1.2999999523162842 -0.16962681710720062
v 0.0661851018667221 -1.2999999523162842 -0.1597849577665329
v 0.09608586877584457 -1.2999999523162842 -0.143802672624588
v 0.122294120490551 -1.2999999523162842 -0.122294120490551
v 0.143802672624588 -1.2999999523162842 -0.09608586877584457
v 0.1597849577665329 -1.2999999523162842 -0.0661851018667221
v 0.16962681710720062 -1.2999999523162842 -0.03374087065458298
v 0.17294999957084656 -1.2999999523162842 0.0
v 0.16962681710720062 -1.2999999523162842 0.03374087065458298
v 0.1597849577665329 -1.2999999523162842 0.0661851018667221
v 0.143802672624588 -1.2999999523162842 0.09608586877584457
v 0.122294120490551 -1.2999999523162842 0.122294120490551
v 0.09608586877584457 -1.2999999523162842 0.143802672624588
v 0.0661851018667221 -1.2999999523162842 0.1597849577665329
v 0.03374087065458298 -1.2999999523162842 0.16962681710720062
v 1.0590132820623459e-17 -1.2999999523162842 0.17294999957084656
v -0.03374087065458298 -1.2999999523162842 0.16962681710720062
v -0.0661851018667221 -1.2999999523162842 0.1597849577665329
v -0.09608586877584457 -1.2999999523162842 0.143802672624588
v -0.122294120490551 -1.2999999523162842 0.122294120490551
v -0.143802672624588 -1.2999999523162842 0.09608586877584457
v -0.1597849577665329 -1.2999999523162842 0.0661851018667221
v -0.16962681710720062 -1.2999999523162842 0.03374087065458298
v -0.25980761647224426 0.0 -0.15000000596046448
v -0.25980761647224426 0.0 0.15000000596046448
v -0.25980761647224426 0.30000001192092896 0.15000000596046448
v -0.25980761647224426 0.30000001192092896 -0.15000000596046448
v 1.1102230246251565e-16 0.0 -0.30000001192092896
v -0.25980761647224426 0.0 -0.15000000596046448
v -0.25980761647224426 0.30000001192092896 -0.15000000596046448
v 1.1102230246251565e-16 0.30000001192092896 -0.30000001192092896
v 0.25980761647224426 0.0 -0.15000000596046448
v 1.1102230246251565e-16 0.0 -0.30000001192092896
v 1.1102230246251565e-16 0.30000001192092896 -0.30000001192092896
v 0.25980761647224426 0.30000001192092896 -0.15000000596046448
v 0.25980761647224426 0.0 0.15000000596046448
v 0.25980761647224426 0.0 -0.15000000596046448
v 0.25980761647224426 0.30000001192092896 -0.15000000596046448
v 0.25980761647224426 0.30000001192092896 0.15000000596046448
v 0.0 0.0 0.30000001192092896
v 0.25980761647224426 0.0 0.15000000596046448
v 0.25980761647224426 0.30000001192092896 0.15000000596046448
v 0.0 0.30000001192092896 0.30000001192092896
v -0.25980761647224426 0.0 0.15000000596046448
v 0.0 0.0 0.30000001192092896
v 0.0 0.30000001192092896 0.30000001192092896
v -0.25980761647224426 0.30000001192092896 0.15000000596046448
v -0.25980761647224426 0.30000001192092896 0.15000000596046448
v 0.0 0.30000001192092896 0.30000001192092896
v 0.25980761647224426 0.30000001192092896 0.15000000596046448
v 0.25980761647224426 0.30000001192092896 -0.15000000596046448
v 1.1102230246251565e-16 0.30000001192092896 -0.30000001192092896
v -0.25980761647224426 0.30000001192092896 -0.15000000596046448
v -0.17294999957084656 0.0 -2.1180265641246918e-17
v -0.16962681710720062 0.0 0.03374087065458298
v -0.1597849577665329 0.0 0.0661851018667221
v -0.143802672624588 0.0 0.09608586877584457
v -0.122294120490551 0.0 0.122294120490551
v -0.09608586877584457 0.0 0.143802672624588
v -0.0661851018667221 0.0 0.1597849577665329
v -0.03374087065458298 0.0 0.16962681710720062
v 1.0590132820623459e-17 0.0 0.17294999957084656
v 0.03374087065458298 0.0 0.16962681710720062
v 0.0661851018667221 0.0 0.1597849577665329
v 0.09608586877584457 0.0 0.143802672624588
v 0.122294120490551 0.0 0.122294120490551
v 0.143802672624588 0.0 0.09608586877584457
v 0.1597849577665329 0.0 0.0661851018667221
v 0.16962681710720062 0.0 0.03374087065458298
v 0.17294999957084656 0.0 0.0
v 0.16962681710720062 0.0 -0.03374087065458298
v 0.1597849577665329 0.0 -0.0661851018667221
v 0.143802672624588 0.0 -0.09608586877584457
v 0.122294120490551 0.0 -0.122294120490551
v 0.09608586877584457 0.0 -0.143802672624588
v 0.0661851018667221 0.0 -0.1597849577665329
v 0.03374087065458298 0.0 -0.16962681710720062
v 1.0590132820623459e-17 0.0 -0.17294999957084656
v -0.03374087065458298 0.0 -0.16962681710720062
v -0.0661851018667221 0.0 -0.1597849577665329
v -0.09608586877584457 0.0 -0.143802672624588
v -0.122294120490551 0.0 -0.122294120490551
v -0.143802672624588 0.0 -0.09608586877584457
v -0.1597849577665329 0.0 -0.0661851018667221
v -0.16962681710720062 0.0 -0.03374087065458298
v 0.0 0.0 0.30000001192092896
v -0.25980761647224426 0.0 0.15000000596046448
v -0.25980761647224426 0.0 -0.15000000596046448
v 1.1102230246251565e-16 0.0 -0.30000001192092896
v 0.25980761647224426 0.0 -0.15000000596046448
v 0.25980761647224426 0.0 0.15000000596046448
vn -1.0 -0.0 1.2246468525851679e-16
vn -0.9807852506637573 -0.0 0.19509032368659973
vn -0.9238795042037964 -0.0 0.3826834261417389
vn -0.8314695954322815 -0.0 0.5555702447891235
vn -0.7071067690849304 -0.0 0.7071067690849304
vn -0.5555702447891235 -0.0 0.8314695954322815
vn -0.3826834261417389 -0.0 0.9238795042037964
vn -0.19509032368659973 -0.0 0.9807852506637573
vn 6.123234262925839e-17 0.0 1.0
vn 0.19509032368659973 0.0 0.9807852506637573
vn 0.3826834261417389 0.0 0.9238795042037964
vn 0.5555702447891235 0.0 0.8314695954322815
vn 0.7071067690849304 0.0 0.7071067690849304
vn 0.8314695954322815 0.0 0.5555702447891235
vn 0.9238795042037964 0.0 0.3826834261417389
vn 0.9807852506637573 0.0 0.19509032368659973
vn 1.0 0.0 -0.0
vn 0.9807852506637573 -0.0 -0.19509032368659973
vn 0.9238795042037964 -0.0 -0.3826834261417389
vn 0.8314695954322815 -0.0 -0.5555702447891235
vn 0.7071067690849304 -0.0 -0.7071067690849304
vn 0.5555702447891235 -0.0 -0.8314695954322815
vn 0.3826834261417389 -0.0 -0.9238795042037964
vn 0.19509032368659973 -0.0 -0.9807852506637573
vn 6.123234262925839e-17 -0.0 -1.0
vn -0.19509032368659973 -0.0 -0.9807852506637573
vn -0.3826834261417389 -0.0 -0.9238795042037964
vn -0.5555702447891235 -0.0 -0.8314695954322815
vn -0.7071067690849304 -0.0 -0.7071067690849304
vn -0.8314695954322815 -0.0 -0.5555702447891235
vn -0.9238795042037964 -0.0 -0.3826834261417389
vn -0.9807852506637573 -0.0 -0.19509032368659973
vn -1.0 -0.0 -1.2246468525851679e-16
vn -0.9807852506637573 -0.0 -0.19509032368659973
vn -0.9238795042037964 -0.0 -0.3826834261417389
vn -0.8314695954322815 -0.0 -0.5555702447891235
vn -0.7071067690849304 -0.0 -0.7071067690849304
vn -0.5555702447891235 -0.0 -0.8314695954322815
vn -0.3826834261417389 -0.0 -0.9238795042037964
vn -0.19509032368659973 -0.0 -0.9807852506637573
vn 6.123234262925839e-17 -0.0 -1.0
vn 0.19509032368659973 -0.0 -0.9807852506637573
vn 0.3826834261417389 -0.0 -0.9238795042037964
vn 0.5555702447891235 -0.0 -0.8314695954322815
vn 0.7071067690849304 -0.0 -0.7071067690849304
vn 0.8314695954322815 -0.0 -0.5555702447891235
vn 0.9238795042037964 -0.0 -0.3826834261417389
vn 0.9807852506637573 -0.0 -0.19509032368659973
vn 1.0 0.0 -0.0
vn 0.9807852506637573 0.0 0.19509032368659973
vn 0.9238795042037964 0.0 0.3826834261417389
vn 0.8314695954322815 0.0 0.5555702447891235
vn 0.7071067690849304 0.0 0.7071067690849304
vn 0.5555702447891235 0.0 0.8314695954322815
vn 0.3826834261417389 0.0 0.9238795042037964
vn 0.19509032368659973 0.0 0.9807852506637573
vn 6.123234262925839e-17 0.0 1.0
vn -0.19509032368659973 -0.0 0.9807852506637573
vn -0.3826834261417389 -0.0 0.9238795042037964
vn -0.5555702447891235 -0.0 0.8314695954322815
vn -0.7071067690849304 -0.0 0.7071067690849304
vn -0.8314695954322815 -0.0 0.5555702447891235
vn -0.9238795042037964 -0.0 0.3826834261417389
vn -0.9807852506637573 -0.0 0.19509032368659973
vn -1.0 -0.0 1.2246468525851679e-16
vn -1.0 -0.0 -1.2246468525851679e-16
vn 0.0 -1.0 0.0
vn 0.0 -1.0 0.0
vn 0.0 -1.0 0.0
vn 0.0 -1.0 0.0
vn 0.0 -1.0 0.0
vn 0.0 -1.0 0.0
vn 0.0 -1.0 0.0
vn 0.0 -1.0 0.0
vn 0.0 -1.0 0.0
vn 0.0 -1.0 0.0
vn 0.0 -1.0 0.0
vn 0.0 -1.0 0.0
vn 0.0 -1.0 0.0
vn 0.0 -1.0 0.0
vn 0.0 -1.0 0.0
vn 0.0 -1.0 0.0
vn 0.0 -1.0 0.0
vn 0.0 -1.0 0.0
vn 0.0 -1.0 0.0
vn 0.0 -1.0 0.0
vn 0.0 -1.0 0.0
vn 0.0 -1.0 0.0
vn 0.0 -1.0 0.0
vn 0.0 -1.0 0.0
vn 0.0 -1.0 0.0
vn 0.0 -1.0 0.0
vn 0.0 -1.0 0.0
vn 0.0 -1.0 0.0
vn 0.0 -1.0 0.0
vn 0.0 -1.0 0.0
vn 0.0 -1.0 0.0
vn 0.0 -1.0 0.0
vn -1.0 0.0 -5.551115123125783e-16
vn -1.0 0.0 -5.551115123125783e-16
vn -1.0 0.0 -5.551115123125783e-16
vn -1.0 0.0 -5.551115123125783e-16
vn -0.5 0.0 -0.8660253882408142
vn -0.5 0.0 -0.8660253882408142
vn -0.5 0.0 -0.8660253882408142
vn -0.5 0.0 -0.8660253882408142
vn 0.5 0.0 -0.8660253882408142
vn 0.5 0.0 -0.8660253882408142
vn 0.5 0.0 -0.8660253882408142
vn 0.5 0.0 -0.8660253882408142
vn 1.0 -0.0 1.850371663592295e-16
vn 1.0 -0.0 1.850371663592295e-16
vn 1.0 -0.0 1.850371663592295e-16
vn 1.0 -0.0 1.850371663592295e-16
vn 0.5 -0.0 0.8660253882408142
vn 0.5 -0.0 0.8660253882408142
vn 0.5 -0.0 0.8660253882408142
vn 0.5 -0.0 0.8660253882408142
vn -0.5 0.0 0.8660253882408142
vn -0.5 0.0 0.8660253882408142
vn -0.5 0.0 0.8660253882408142
vn -0.5 0.0 0.8660253882408142
vn 0.0 1.0 0.0
vn 0.0 1.0 0.0
vn 0.0 1.0 0.0
vn 0.0 1.0 0.0
vn 0.0 1.0 0.0
vn 0.0 1.0 0.0
vn -0.0 -1.0 -0.0
vn -0.0 -1.0 -0.0
vn -0.0 -1.0 -0.0
vn -0.0 -1.0 -0.0
vn -0.0 -1.0 -0.0
vn -0.0 -1.0 -0.0
vn -0.0 -1.0 -0.0
vn -0.0 -1.0 -0.0
vn -0.0 -1.0 -0.0
vn -0.0 -1.0 -0.0
vn -0.0 -1.0 -0.0
vn -0.0 -1.0 -0.0
vn -0.0 -1.0 -0.0
vn -0.0 -1.0 -0.0
vn -0.0 -1.0 -0.0
vn -0.0 -1.0 -0.0
vn -0.0 -1.0 -0.0
vn -0.0 -1.0 -0.0
vn -0.0 -1.0 -0.0
vn -0.0 -1.0 -0.0
vn -0.0 -1.0 -0.0
vn -0.0 -1.0 -0.0
vn -0.0 -1.0 -0.0
vn -0.0 -1.0 -0.0
vn -0.0 -1.0 -0.0
vn -0.0 -1.0 -0.0
vn -0.0 -1.0 -0.0
vn -0.0 -1.0 -0.0
vn -0.0 -1.0 -0.0
vn -0.0 -1.0 -0.0
vn -0.0 -1.0 -0.0
vn -0.0 -1.0 -0.0
vn -0.0 -1.0 -0.0
vn -0.0 -1.0 -0.0
vn -0.0 -1.0 -0.0
vn -0.0 -1.0 -0.0
vn -0.0 -1.0 -0.0
vn -0.0 -1.0 -0.0
g 14d7dc30-e2b9-11ea-987a-54bf646e7e1f
f 2//2 64//64 1//1
f 1//1 64//64 65//65
f 66//66 33//33 32//32
f 32//32 33//33 34//34
f 32//32 34//34 31//31
f 31//31 34//34 35//35
f 31//31 35//35 30//30
f 30//30 35//35 36//36
f 30//30 36//36 29//29
f 29//29 36//36 37//37
f 29//29 37//37 28//28
f 28//28 37//37 38//38
f 28//28 38//38 27//27
f 27//27 38//38 39//39
f 27//27 39//39 26//26
f 26//26 39//39 40//40
f 26//26 40//40 25//25
f 25//25 40//40 41//41
f 25//25 41//41 24//24
f 24//24 41//41 42//42
f 24//24 42//42 23//23
f 23//23 42//42 43//43
f 23//23 43//43 22//22
f 22//22 43//43 44//44
f 22//22 44//44 21//21
f 21//21 44//44 45//45
f 21//21 45//45 20//20
f 20//20 45//45 46//46
f 20//20 46//46 19//19
f 19//19 46//46 47//47
f 19//19 47//47 18//18
f 18//18 47//47 48//48
f 18//18 48//48 17//17
f 17//17 48//48 49//49
f 17//17 49//49 16//16
f 16//16 49//49 50//50
f 16//16 50//50 15//15
f 15//15 50//50 51//51
f 15//15 51//51 14//14
f 14//14 51//51 52//52
f 14//14 52//52 13//13
f 13//13 52//52 53//53
f 13//13 53//53 12//12
f 12//12 53//53 54//54
f 12//12 54//54 11//11
f 11//11 54//54 55//55
f 11//11 55//55 10//10
f 10//10 55//55 56//56
f 10//10 56//56 9//9
f 9//9 56//56 57//57
f 9//9 57//57 8//8
f 8//8 57//57 58//58
f 8//8 58//58 7//7
f 7//7 58//58 59//59
f 7//7 59//59 6//6
f 6//6 59//59 60//60
f 6//6 60//60 5//5
f 5//5 60//60 61//61
f 5//5 61//61 4//4
f 4//4 61//61 62//62
f 4//4 62//62 3//3
f 3//3 62//62 63//63
f 3//3 63//63 2//2
f 2//2 63//63 64//64
g 14d8782c-e2b9-11ea-ba63-54bf646e7e1f
f 68//68 82//82 67//67
f 67//67 82//82 83//83
f 67//67 83//83 98//98
f 98//98 83//83 84//84
f 98//98 84//84 97//97
f 97//97 84//84 85//85
f 97//97 85//85 96//96
f 96//96 85//85 86//86
f 96//96 86//86 95//95
f 95//95 86//86 87//87
f 95//95 87//87 94//94
f 94//94 87//87 88//88
f 94//94 88//88 93//93
f 93//93 88//88 89//89
f 93//93 89//89 92//92
f 92//92 89//89 90//90
f 92//92 90//90 91//91
f 82//82 68//68 81//81
f 81//81 68//68 69//69
f 81//81 69//69 80//80
f 80//80 69//69 70//70
f 80//80 70//70 79//79
f 79//79 70//70 71//71
f 79//79 71//71 78//78
f 78//78 71//71 72//72
f 78//78 72//72 77//77
f 77//77 72//72 73//73
f 77//77 73//73 76//76
f 76//76 73//73 74//74
f 76//76 74//74 75//75
g 14829428-e2b9-11ea-896e-54bf646e7e1f
f 99//99 100//100 102//102
f 102//102 100//100 101//101
g 1482e206-e2b9-11ea-827d-54bf646e7e1f
f 103//103 104//104 106//106
f 106//106 104//104 105//105
g 148356f0-e2b9-11ea-adff-54bf646e7e1f
f 107//107 108//108 110//110
f 110//110 108//108 109//109
g 1483a502-e2b9-11ea-8f72-54bf646e7e1f
f 111//111 112//112 114//114
f 114//114 112//112 113//113
g 1483f2e2-e2b9-11ea-add8-54bf646e7e1f
f 115//115 116//116 118//118
f 118//118 116//116 117//117
g 148467d4-e2b9-11ea-8f5a-54bf646e7e1f
f 119//119 120//120 122//122
f 122//122 120//120 121//121
g 1484b5d0-e2b9-11ea-945d-54bf646e7e1f
f 128//128 123//123 127//127
f 127//127 123//123 124//124
f 127//127 124//124 126//126
f 126//126 124//124 125//125
g 14852ab6-e2b9-11ea-867a-54bf646e7e1f
f 130//130 162//162 129//129
f 129//129 162//162 163//163
f 129//129 163//163 160//160
f 160//160 163//163 159//159
f 159//159 163//163 158//158
f 158//158 163//163 157//157
f 157//157 163//163 156//156
f 156//156 163//163 164//164
f 156//156 164//164 155//155
f 155//155 164//164 154//154
f 154//154 164//164 153//153
f 153//153 164//164 152//152
f 152//152 164//164 151//151
f 151//151 164//164 150//150
f 150//150 164//164 165//165
f 150//150 165//165 149//149
f 149//149 165//165 148//148
f 148//148 165//165 147//147
f 147//147 165//165 146//146
f 146//146 165//165 145//145
f 145//145 165//165 166//166
f 145//145 166//166 144//144
f 144//144 166//166 143//143
f 143//143 166//166 142//142
f 142//142 166//166 141//141
f 141//141 166//166 140//140
f 140//140 166//166 161//161
f 140//140 161//161 139//139
f 139//139 161//161 138//138
f 138//138 161//161 137//137
f 137//137 161//161 136//136
f 136//136 161//161 135//135
f 135//135 161//161 134//134
f 134//134 161//161 162//162
f 134//134 162//162 133//133
f 133//133 162//162 132//132
f 132//132 162//162 131//131
f 131//131 162//162 130//130

# End of file