# WaveFront *.obj file
# Vertices: 36
# Triangles : 20

v 6.900513172149658 0.4749417304992676 -0.20000000298023224
v 6.778555393218994 0.31382161378860474 -0.20000000298023224
v 6.778555393218994 0.31382161378860474 -0.4000000059604645
v 6.900513172149658 0.4749417304992676 -0.4000000059604645
v 6.821957588195801 0.6611201167106628 -0.20000000298023224
v 6.900513172149658 0.4749417304992676 -0.20000000298023224
v 6.900513172149658 0.4749417304992676 -0.4000000059604645
v 6.821957588195801 0.6611201167106628 -0.4000000059604645
v 6.6214447021484375 0.6861783862113953 -0.20000000298023224
v 6.821957588195801 0.6611201167106628 -0.20000000298023224
v 6.821957588195801 0.6611201167106628 -0.4000000059604645
v 6.6214447021484375 0.6861783862113953 -0.4000000059604645
v 6.499487400054932 0.5250582695007324 -0.20000000298023224
v 6.6214447021484375 0.6861783862113953 -0.20000000298023224
v 6.6214447021484375 0.6861783862113953 -0.4000000059604645
v 6.499487400054932 0.5250582695007324 -0.4000000059604645
v 6.578042507171631 0.33887988328933716 -0.20000000298023224
v 6.499487400054932 0.5250582695007324 -0.20000000298023224
v 6.499487400054932 0.5250582695007324 -0.4000000059604645
v 6.578042507171631 0.33887988328933716 -0.4000000059604645
v 6.778555393218994 0.31382161378860474 -0.20000000298023224
v 6.578042507171631 0.33887988328933716 -0.20000000298023224
v 6.578042507171631 0.33887988328933716 -0.4000000059604645
v 6.778555393218994 0.31382161378860474 -0.4000000059604645
v 6.778555393218994 0.31382161378860474 -0.4000000059604645
v 6.578042507171631 0.33887988328933716 -0.4000000059604645
v 6.499487400054932 0.5250582695007324 -0.4000000059604645
v 6.6214447021484375 0.6861783862113953 -0.4000000059604645
v 6.821957588195801 0.6611201167106628 -0.4000000059604645
v 6.900513172149658 0.4749417304992676 -0.4000000059604645
v 6.578042507171631 0.33887988328933716 -0.20000000298023224
v 6.778555393218994 0.31382161378860474 -0.20000000298023224
v 6.900513172149658 0.4749417304992676 -0.20000000298023224
v 6.821957588195801 0.6611201167106628 -0.20000000298023224
v 6.6214447021484375 0.6861783862113953 -0.20000000298023224
v 6.499487400054932 0.5250582695007324 -0.20000000298023224
vn 0.7973377704620361 -0.6035333275794983 0.0
vn 0.7973377704620361 -0.6035333275794983 0.0
vn 0.7973377704620361 -0.6035333275794983 0.0
vn 0.7973377704620361 -0.6035333275794983 0.0
vn 0.9213440418243408 0.3887481391429901 0.0
vn 0.9213440418243408 0.3887481391429901 0.0
vn 0.9213440418243408 0.3887481391429901 0.0
vn 0.9213440418243408 0.3887481391429901 0.0
vn 0.12400627881288528 0.992281436920166 0.0
vn 0.12400627881288528 0.992281436920166 0.0
vn 0.12400627881288528 0.992281436920166 0.0
vn 0.12400627881288528 0.992281436920166 0.0
vn -0.7973377704620361 0.6035333275794983 0.0
vn -0.7973377704620361 0.6035333275794983 0.0
vn -0.7973377704620361 0.6035333275794983 0.0
vn -0.7973377704620361 0.6035333275794983 0.0
vn -0.9213440418243408 -0.3887481391429901 -0.0
vn -0.9213440418243408 -0.3887481391429901 -0.0
vn -0.9213440418243408 -0.3887481391429901 -0.0
vn -0.9213440418243408 -0.3887481391429901 -0.0
vn -0.12400627881288528 -0.992281436920166 -0.0
vn -0.12400627881288528 -0.992281436920166 -0.0
vn -0.12400627881288528 -0.992281436920166 -0.0
vn -0.12400627881288528 -0.992281436920166 -0.0
vn 0.0 0.0 -1.0
vn 0.0 0.0 -1.0
vn 0.0 0.0 -1.0
vn 0.0 0.0 -1.0
vn 0.0 0.0 -1.0
vn 0.0 0.0 -1.0
vn -0.0 -0.0 1.0
vn -0.0 -0.0 1.0
vn -0.0 -0.0 1.0
vn -0.0 -0.0 1.0
vn -0.0 -0.0 1.0
vn -0.0 -0.0 1.0
g 36cab3ca-e2b9-11ea-ac8e-54bf646e7e1f
f 1//1 2//2 4//4
f 4//4 2//2 3//3
g 36cc87a2-e2b9-11ea-b459-54bf646e7e1f
f 5//5 6//6 8//8
f 8//8 6//6 7//7
g 36cea976-e2b9-11ea-bf48-54bf646e7e1f
f 9//9 10//10 12//12
f 12//12 10//10 11//11
g 36d02f42-e2b9-11ea-9ca8-54bf646e7e1f
f 13//13 14//14 16//16
f 16//16 14//14 15//15
g 36d16728-e2b9-11ea-979d-54bf646e7e1f
f 17//17 18//18 20//20
f 20//20 18//18 19//19
g 36d2c612-e2b9-11ea-81bb-54bf646e7e1f
f 21//21 22//22 24//24
f 24//24 22//22 23//23
g 36d499e2-e2b9-11ea-b000-54bf646e7e1f
f 25//25 26//26 30//30
f 30//30 26//26 27//27
f 30//30 27//27 29//29
f 29//29 27//27 28//28
g 36d61fb4-e2b9-11ea-809b-54bf646e7e1f
f 32//32 33//33 31//31
f 31//31 33//33 36//36
f 36//36 33//33 34//34
f 36//36 34//34 35//35

# End of file