# WaveFront *.obj file
# Vertices: 24
# Triangles : 12

v 0.0 3.2128846645355225 5.674492359161377
v 0.0 -2.7871153354644775 5.674492359161377
v 6.5 -2.7871153354644775 5.674492359161377
v 6.5 3.2128846645355225 5.674492359161377
v 0.0 3.2128846645355225 -0.32550767064094543
v 0.0 3.2128846645355225 5.674492359161377
v 6.5 3.2128846645355225 5.674492359161377
v 6.5 3.2128846645355225 -0.32550767064094543
v 0.0 -2.7871153354644775 -0.32550767064094543
v 0.0 3.2128846645355225 -0.32550767064094543
v 6.5 3.2128846645355225 -0.32550767064094543
v 6.5 -2.7871153354644775 -0.32550767064094543
v 0.0 -2.7871153354644775 5.674492359161377
v 0.0 -2.7871153354644775 -0.32550767064094543
v 6.5 -2.7871153354644775 -0.32550767064094543
v 6.5 -2.7871153354644775 5.674492359161377
v 6.5 -2.7871153354644775 5.674492359161377
v 6.5 -2.7871153354644775 -0.32550767064094543
v 6.5 3.2128846645355225 -0.32550767064094543
v 6.5 3.2128846645355225 5.674492359161377
v 0.0 -2.7871153354644775 -0.32550767064094543
v 0.0 -2.7871153354644775 5.674492359161377
v 0.0 3.2128846645355225 5.674492359161377
v 0.0 3.2128846645355225 -0.32550767064094543
vn 0.0 0.0 1.0
vn 0.0 0.0 1.0
vn 0.0 0.0 1.0
vn 0.0 0.0 1.0
vn -0.0 1.0 0.0
vn -0.0 1.0 0.0
vn -0.0 1.0 0.0
vn -0.0 1.0 0.0
vn 0.0 0.0 -1.0
vn 0.0 0.0 -1.0
vn 0.0 0.0 -1.0
vn 0.0 0.0 -1.0
vn 0.0 -1.0 0.0
vn 0.0 -1.0 0.0
vn 0.0 -1.0 0.0
vn 0.0 -1.0 0.0
vn 1.0 0.0 0.0
vn 1.0 0.0 0.0
vn 1.0 0.0 0.0
vn 1.0 0.0 0.0
vn -1.0 -0.0 -0.0
vn -1.0 -0.0 -0.0
vn -1.0 -0.0 -0.0
vn -1.0 -0.0 -0.0
g 9565310c-e2bd-11ea-b1f9-54bf646e7e1f
f 1//1 2//2 4//4
f 4//4 2//2 3//3
g 9569eca6-e2bd-11ea-a58b-54bf646e7e1f
f 5//5 6//6 8//8
f 8//8 6//6 7//7
g 956de4f8-e2bd-11ea-82ce-54bf646e7e1f
f 9//9 10//10 12//12
f 12//12 10//10 11//11
g 9572045c-e2bd-11ea-86c4-54bf646e7e1f
f 13//13 14//14 16//16
f 16//16 14//14 15//15
g 9575d594-e2bd-11ea-845a-54bf646e7e1f
f 17//17 18//18 20//20
f 20//20 18//18 19//19
g 9579ce00-e2bd-11ea-aa79-54bf646e7e1f
f 21//21 22//22 24//24
f 24//24 22//22 23//23

# End of file