# WaveFront *.obj file
# Vertices: 24
# Triangles : 12

v -1.5 0.0 -1.0
v -1.5 0.0 1.0
v -1.5 4.5 1.0
v -1.5 4.5 -1.0
v 1.5 0.0 -1.0
v -1.5 0.0 -1.0
v -1.5 4.5 -1.0
v 1.5 4.5 -1.0
v 1.5 0.0 1.0
v 1.5 0.0 -1.0
v 1.5 4.5 -1.0
v 1.5 4.5 1.0
v -1.5 0.0 1.0
v 1.5 0.0 1.0
v 1.5 4.5 1.0
v -1.5 4.5 1.0
v -1.5 4.5 1.0
v 1.5 4.5 1.0
v 1.5 4.5 -1.0
v -1.5 4.5 -1.0
v 1.5 0.0 1.0
v -1.5 0.0 1.0
v -1.5 0.0 -1.0
v 1.5 0.0 -1.0
vn -1.0 0.0 0.0
vn -1.0 0.0 0.0
vn -1.0 0.0 0.0
vn -1.0 0.0 0.0
vn 0.0 0.0 -1.0
vn 0.0 0.0 -1.0
vn 0.0 0.0 -1.0
vn 0.0 0.0 -1.0
vn 1.0 0.0 0.0
vn 1.0 0.0 0.0
vn 1.0 0.0 0.0
vn 1.0 0.0 0.0
vn 0.0 -0.0 1.0
vn 0.0 -0.0 1.0
vn 0.0 -0.0 1.0
vn 0.0 -0.0 1.0
vn 0.0 1.0 0.0
vn 0.0 1.0 0.0
vn 0.0 1.0 0.0
vn 0.0 1.0 0.0
vn -0.0 -1.0 -0.0
vn -0.0 -1.0 -0.0
vn -0.0 -1.0 -0.0
vn -0.0 -1.0 -0.0
g dde4ce06-e2bd-11ea-8567-54bf646e7e1f
f 1//1 2//2 4//4
f 4//4 2//2 3//3
g dde54358-e2bd-11ea-81bb-54bf646e7e1f
f 5//5 6//6 8//8
f 8//8 6//6 7//7
g dde5b89a-e2bd-11ea-8f91-54bf646e7e1f
f 9//9 10//10 12//12
f 12//12 10//10 11//11
g dde62dc0-e2bd-11ea-81a9-54bf646e7e1f
f 13//13 14//14 16//16
f 16//16 14//14 15//15
g dde6a30a-e2bd-11ea-a27a-54bf646e7e1f
f 18//18 19//19 17//17
f 17//17 19//19 20//20
g dde73f5c-e2bd-11ea-93a0-54bf646e7e1f
f 21//21 22//22 24//24
f 24//24 22//22 23//23

# End of file