# WaveFront *.obj file
# Vertices: 68
# Triangles : 56

v -8.890000343322754 0.0 0.0
v -1.9049999713897705 0.0 0.0
v -1.9049999713897705 3.809999942779541 0.0
v -8.890000343322754 3.809999942779541 0.0
v -1.9049999713897705 0.0 0.0
v -2.4849963188171387 0.0 -2.4997897148132324
v -2.9609034061431885 0.0 -5.0214667320251465
v -3.3319039344787598 0.0 -7.560699462890625
v -3.597360610961914 0.0 -10.11312484741211
v -3.75681734085083 0.0 -12.674358367919922
v -3.809999942779541 0.0 -15.239999771118164
v -3.75681734085083 0.0 -17.805641174316406
v -3.597360610961914 0.0 -20.36687469482422
v -3.3319039344787598 0.0 -22.919300079345703
v -2.9609034061431885 0.0 -25.458532333374023
v -2.4849963188171387 0.0 -27.98021125793457
v -1.9049999713897705 0.0 -30.479999542236328
v -1.9049999713897705 3.809999942779541 -30.479999542236328
v -2.4849963188171387 3.809999942779541 -27.98021125793457
v -2.9609034061431885 3.809999942779541 -25.458532333374023
v -3.3319039344787598 3.809999942779541 -22.919300079345703
v -3.597360610961914 3.809999942779541 -20.36687469482422
v -3.75681734085083 3.809999942779541 -17.805641174316406
v -3.809999942779541 3.809999942779541 -15.239999771118164
v -3.75681734085083 3.809999942779541 -12.674358367919922
v -3.597360610961914 3.809999942779541 -10.11312484741211
v -3.3319039344787598 3.809999942779541 -7.560699462890625
v -2.9609034061431885 3.809999942779541 -5.0214667320251465
v -2.4849963188171387 3.809999942779541 -2.4997897148132324
v -1.9049999713897705 3.809999942779541 0.0
v -8.890000343322754 0.0 -30.479999542236328
v -1.9049999713897705 0.0 -30.479999542236328
v -2.4849963188171387 0.0 -27.98021125793457
v -2.9609034061431885 0.0 -25.458532333374023
v -3.3319039344787598 0.0 -22.919300079345703
v -3.597360610961914 0.0 -20.36687469482422
v -3.75681734085083 0.0 -17.805641174316406
v -3.809999942779541 0.0 -15.239999771118164
v -3.75681734085083 0.0 -12.674358367919922
v -3.597360610961914 0.0 -10.11312484741211
v -3.3319039344787598 0.0 -7.560699462890625
v -2.9609034061431885 0.0 -5.0214667320251465
v -2.4849963188171387 0.0 -2.4997897148132324
v -1.9049999713897705 0.0 0.0
v -8.890000343322754 0.0 0.0
v -1.9049999713897705 0.0 -30.479999542236328
v -8.890000343322754 0.0 -30.479999542236328
v -8.890000343322754 3.809999942779541 -30.479999542236328
v -1.9049999713897705 3.809999942779541 -30.479999542236328
v -1.9049999713897705 3.809999942779541 -30.479999542236328
v -8.890000343322754 3.809999942779541 -30.479999542236328
v -8.890000343322754 3.809999942779541 0.0
v -1.9049999713897705 3.809999942779541 0.0
v -2.4849963188171387 3.809999942779541 -2.4997897148132324
v -2.9609034061431885 3.809999942779541 -5.0214667320251465
v -3.3319039344787598 3.809999942779541 -7.560699462890625
v -3.597360610961914 3.809999942779541 -10.11312484741211
v -3.75681734085083 3.809999942779541 -12.674358367919922
v -3.809999942779541 3.809999942779541 -15.239999771118164
v -3.75681734085083 3.809999942779541 -17.805641174316406
v -3.597360610961914 3.809999942779541 -20.36687469482422
v -3.3319039344787598 3.809999942779541 -22.919300079345703
v -2.9609034061431885 3.809999942779541 -25.458532333374023
v -2.4849963188171387 3.809999942779541 -27.98021125793457
v -8.890000343322754 0.0 -30.479999542236328
v -8.890000343322754 0.0 0.0
v -8.890000343322754 3.809999942779541 0.0
v -8.890000343322754 3.809999942779541 -30.479999542236328
vn 0.0 -0.0 1.0
vn 0.0 -0.0 1.0
vn 0.0 -0.0 1.0
vn 0.0 -0.0 1.0
vn 0.9692307710647583 0.0 -0.2461538463830948
vn 0.9785987734794617 0.0 -0.20577767491340637
vn 0.9862855672836304 0.0 -0.16504798829555511
vn 0.9922778606414795 0.0 -0.12403473258018494
vn 0.9965654611587524 0.0 -0.08280839771032333
vn 0.9991409778594971 0.0 -0.04143979400396347
vn 1.0 0.0 -6.02519575793487e-16
vn 0.9991409778594971 -0.0 0.04143979400396347
vn 0.9965654611587524 -0.0 0.08280839771032333
vn 0.9922778606414795 -0.0 0.12403473258018494
vn 0.9862855672836304 -0.0 0.16504798829555511
vn 0.9785987734794617 -0.0 0.20577767491340637
vn 0.9692307710647583 -0.0 0.2461538463830948
vn 0.9692307710647583 -0.0 0.2461538463830948
vn 0.9785987734794617 -0.0 0.20577767491340637
vn 0.9862855672836304 -0.0 0.16504798829555511
vn 0.9922778606414795 -0.0 0.12403473258018494
vn 0.9965654611587524 -0.0 0.08280839771032333
vn 0.9991409778594971 -0.0 0.04143979400396347
vn 1.0 0.0 -5.451367464465932e-16
vn 0.9991409778594971 0.0 -0.04143979400396347
vn 0.9965654611587524 0.0 -0.08280839771032333
vn 0.9922778606414795 0.0 -0.12403473258018494
vn 0.9862855672836304 0.0 -0.16504798829555511
vn 0.9785987734794617 0.0 -0.20577767491340637
vn 0.9692307710647583 0.0 -0.2461538463830948
vn -0.0 -1.0 -0.0
vn -0.0 -1.0 -0.0
vn -0.0 -1.0 -0.0
vn -0.0 -1.0 -0.0
vn -0.0 -1.0 -0.0
vn -0.0 -1.0 -0.0
vn -0.0 -1.0 -0.0
vn -0.0 -1.0 -0.0
vn -0.0 -1.0 -0.0
vn -0.0 -1.0 -0.0
vn -0.0 -1.0 -0.0
vn -0.0 -1.0 -0.0
vn -0.0 -1.0 -0.0
vn -0.0 -1.0 -0.0
vn -0.0 -1.0 -0.0
vn 0.0 0.0 -1.0
vn 0.0 0.0 -1.0
vn 0.0 0.0 -1.0
vn 0.0 0.0 -1.0
vn 0.0 1.0 0.0
vn 0.0 1.0 0.0
vn 0.0 1.0 0.0
vn 0.0 1.0 0.0
vn 0.0 1.0 0.0
vn 0.0 1.0 0.0
vn 0.0 1.0 0.0
vn 0.0 1.0 0.0
vn 0.0 1.0 0.0
vn 0.0 1.0 0.0
vn 0.0 1.0 0.0
vn 0.0 1.0 0.0
vn 0.0 1.0 0.0
vn 0.0 1.0 0.0
vn 0.0 1.0 0.0
vn -1.0 0.0 0.0
vn -1.0 0.0 0.0
vn -1.0 0.0 0.0
vn -1.0 0.0 0.0
f 1//1 2//2 4//4
f 4//4 2//2 3//3
f 30//30 5//5 29//29
f 29//29 5//5 6//6
f 29//29 6//6 28//28
f 28//28 6//6 7//7
f 28//28 7//7 27//27
f 27//27 7//7 8//8
f 27//27 8//8 26//26
f 26//26 8//8 9//9
f 26//26 9//9 25//25
f 25//25 9//9 10//10
f 25//25 10//10 24//24
f 24//24 10//10 11//11
f 24//24 11//11 23//23
f 23//23 11//11 12//12
f 23//23 12//12 22//22
f 22//22 12//12 13//13
f 22//22 13//13 21//21
f 21//21 13//13 14//14
f 21//21 14//14 20//20
f 20//20 14//14 15//15
f 20//20 15//15 19//19
f 19//19 15//15 16//16
f 19//19 16//16 18//18
f 18//18 16//16 17//17
f 32//32 33//33 31//31
f 31//31 33//33 34//34
f 31//31 34//34 35//35
f 35//35 36//36 31//31
f 31//31 36//36 37//37
f 31//31 37//37 38//38
f 31//31 38//38 45//45
f 45//45 38//38 39//39
f 45//45 39//39 40//40
f 40//40 41//41 45//45
f 45//45 41//41 42//42
f 45//45 42//42 43//43
f 43//43 44//44 45//45
f 46//46 47//47 49//49
f 49//49 47//47 48//48
f 50//50 51//51 64//64
f 64//64 51//51 63//63
f 63//63 51//51 62//62
f 62//62 51//51 61//61
f 61//61 51//51 60//60
f 60//60 51//51 59//59
f 59//59 51//51 52//52
f 59//59 52//52 58//58
f 58//58 52//52 57//57
f 57//57 52//52 56//56
f 56//56 52//52 55//55
f 55//55 52//52 54//54
f 54//54 52//52 53//53
f 65//65 66//66 68//68
f 68//68 66//66 67//67

# End of file