# WaveFront *.obj file
# Vertices: 68
# Triangles : 56

v -2.4130001068115234 0.0 -30.479999542236328
v -8.890000343322754 0.0 -30.479999542236328
v -8.890000343322754 3.809999942779541 -30.479999542236328
v -2.4130001068115234 3.809999942779541 -30.479999542236328
v -2.4130001068115234 0.0 0.0
v -2.992199182510376 0.0 -2.4999003410339355
v -3.4674489498138428 0.0 -5.021627902984619
v -3.8379344940185547 0.0 -7.560863018035889
v -4.103021144866943 0.0 -10.11325454711914
v -4.2622551918029785 0.0 -12.674428939819336
v -4.315363883972168 0.0 -15.239999771118164
v -4.2622551918029785 0.0 -17.805570602416992
v -4.103021144866943 0.0 -20.366744995117188
v -3.8379344940185547 0.0 -22.919137954711914
v -3.4674489498138428 0.0 -25.458372116088867
v -2.992199182510376 0.0 -27.980100631713867
v -2.4130001068115234 0.0 -30.479999542236328
v -2.4130001068115234 3.809999942779541 -30.479999542236328
v -2.992199182510376 3.809999942779541 -27.980100631713867
v -3.4674489498138428 3.809999942779541 -25.458372116088867
v -3.8379344940185547 3.809999942779541 -22.919137954711914
v -4.103021144866943 3.809999942779541 -20.366744995117188
v -4.2622551918029785 3.809999942779541 -17.805570602416992
v -4.315363883972168 3.809999942779541 -15.239999771118164
v -4.2622551918029785 3.809999942779541 -12.674428939819336
v -4.103021144866943 3.809999942779541 -10.11325454711914
v -3.8379344940185547 3.809999942779541 -7.560863018035889
v -3.4674489498138428 3.809999942779541 -5.021627902984619
v -2.992199182510376 3.809999942779541 -2.4999003410339355
v -2.4130001068115234 3.809999942779541 0.0
v -8.890000343322754 0.0 0.0
v -2.4130001068115234 0.0 0.0
v -2.4130001068115234 3.809999942779541 0.0
v -8.890000343322754 3.809999942779541 0.0
v -2.4130001068115234 3.809999942779541 -30.479999542236328
v -8.890000343322754 3.809999942779541 -30.479999542236328
v -8.890000343322754 3.809999942779541 0.0
v -2.4130001068115234 3.809999942779541 0.0
v -2.992199182510376 3.809999942779541 -2.4999003410339355
v -3.4674489498138428 3.809999942779541 -5.021627902984619
v -3.8379344940185547 3.809999942779541 -7.560863018035889
v -4.103021144866943 3.809999942779541 -10.11325454711914
v -4.2622551918029785 3.809999942779541 -12.674428939819336
v -4.315363883972168 3.809999942779541 -15.239999771118164
v -4.2622551918029785 3.809999942779541 -17.805570602416992
v -4.103021144866943 3.809999942779541 -20.366744995117188
v -3.8379344940185547 3.809999942779541 -22.919137954711914
v -3.4674489498138428 3.809999942779541 -25.458372116088867
v -2.992199182510376 3.809999942779541 -27.980100631713867
v -8.890000343322754 0.0 -30.479999542236328
v -2.4130001068115234 0.0 -30.479999542236328
v -2.992199182510376 0.0 -27.980100631713867
v -3.4674489498138428 0.0 -25.458372116088867
v -3.8379344940185547 0.0 -22.919137954711914
v -4.103021144866943 0.0 -20.366744995117188
v -4.2622551918029785 0.0 -17.805570602416992
v -4.315363883972168 0.0 -15.239999771118164
v -4.2622551918029785 0.0 -12.674428939819336
v -4.103021144866943 0.0 -10.11325454711914
v -3.8379344940185547 0.0 -7.560863018035889
v -3.4674489498138428 0.0 -5.021627902984619
v -2.992199182510376 0.0 -2.4999003410339355
v -2.4130001068115234 0.0 0.0
v -8.890000343322754 0.0 0.0
v -8.890000343322754 0.0 -30.479999542236328
v -8.890000343322754 0.0 0.0
v -8.890000343322754 3.809999942779541 0.0
v -8.890000343322754 3.809999942779541 -30.479999542236328
vn 0.0 0.0 -1.0
vn 0.0 0.0 -1.0
vn 0.0 0.0 -1.0
vn 0.0 0.0 -1.0
vn 0.9693145751953125 0.0 -0.2458236664533615
vn 0.9786571264266968 0.0 -0.20549987256526947
vn 0.9863229990005493 0.0 -0.1648239940404892
vn 0.99229896068573 0.0 -0.12386572360992432
vn 0.996574878692627 0.0 -0.08269523829221725
vn 0.9991433620452881 0.0 -0.04138306900858879
vn 1.0 0.0 -1.432646115997506e-16
vn 0.9991433620452881 -0.0 0.04138306900858879
vn 0.996574878692627 -0.0 0.08269523829221725
vn 0.99229896068573 -0.0 0.12386572360992432
vn 0.9863229990005493 -0.0 0.1648239940404892
vn 0.9786571264266968 -0.0 0.20549987256526947
vn 0.9693145751953125 -0.0 0.2458236664533615
vn 0.9693145751953125 -0.0 0.2458236664533615
vn 0.9786571264266968 -0.0 0.20549987256526947
vn 0.9863229990005493 -0.0 0.1648239940404892
vn 0.99229896068573 -0.0 0.12386572360992432
vn 0.996574878692627 -0.0 0.08269523829221725
vn 0.9991433620452881 -0.0 0.04138306900858879
vn 1.0 0.0 -8.595876960682832e-17
vn 0.9991433620452881 0.0 -0.04138306900858879
vn 0.996574878692627 0.0 -0.08269523829221725
vn 0.99229896068573 0.0 -0.12386572360992432
vn 0.9863229990005493 0.0 -0.1648239940404892
vn 0.9786571264266968 0.0 -0.20549987256526947
vn 0.9693145751953125 0.0 -0.2458236664533615
vn 0.0 -0.0 1.0
vn 0.0 -0.0 1.0
vn 0.0 -0.0 1.0
vn 0.0 -0.0 1.0
vn 0.0 1.0 0.0
vn 0.0 1.0 0.0
vn 0.0 1.0 0.0
vn 0.0 1.0 0.0
vn 0.0 1.0 0.0
vn 0.0 1.0 0.0
vn 0.0 1.0 0.0
vn 0.0 1.0 0.0
vn 0.0 1.0 0.0
vn 0.0 1.0 0.0
vn 0.0 1.0 0.0
vn 0.0 1.0 0.0
vn 0.0 1.0 0.0
vn 0.0 1.0 0.0
vn 0.0 1.0 0.0
vn -0.0 -1.0 -0.0
vn -0.0 -1.0 -0.0
vn -0.0 -1.0 -0.0
vn -0.0 -1.0 -0.0
vn -0.0 -1.0 -0.0
vn -0.0 -1.0 -0.0
vn -0.0 -1.0 -0.0
vn -0.0 -1.0 -0.0
vn -0.0 -1.0 -0.0
vn -0.0 -1.0 -0.0
vn -0.0 -1.0 -0.0
vn -0.0 -1.0 -0.0
vn -0.0 -1.0 -0.0
vn -0.0 -1.0 -0.0
vn -0.0 -1.0 -0.0
vn -1.0 0.0 0.0
vn -1.0 0.0 0.0
vn -1.0 0.0 0.0
vn -1.0 0.0 0.0
f 1//1 2//2 4//4
f 4//4 2//2 3//3
f 30//30 5//5 29//29
f 29//29 5//5 6//6
f 29//29 6//6 28//28
f 28//28 6//6 7//7
f 28//28 7//7 27//27
f 27//27 7//7 8//8
f 27//27 8//8 26//26
f 26//26 8//8 9//9
f 26//26 9//9 25//25
f 25//25 9//9 10//10
f 25//25 10//10 24//24
f 24//24 10//10 11//11
f 24//24 11//11 23//23
f 23//23 11//11 12//12
f 23//23 12//12 22//22
f 22//22 12//12 13//13
f 22//22 13//13 21//21
f 21//21 13//13 14//14
f 21//21 14//14 20//20
f 20//20 14//14 15//15
f 20//20 15//15 19//19
f 19//19 15//15 16//16
f 19//19 16//16 18//18
f 18//18 16//16 17//17
f 31//31 32//32 34//34
f 34//34 32//32 33//33
f 35//35 36//36 49//49
f 49//49 36//36 48//48
f 48//48 36//36 47//47
f 47//47 36//36 46//46
f 46//46 36//36 45//45
f 45//45 36//36 44//44
f 44//44 36//36 37//37
f 44//44 37//37 43//43
f 43//43 37//37 42//42
f 42//42 37//37 41//41
f 41//41 37//37 40//40
f 40//40 37//37 39//39
f 39//39 37//37 38//38
f 51//51 52//52 50//50
f 50//50 52//52 53//53
f 50//50 53//53 54//54
f 54//54 55//55 50//50
f 50//50 55//55 56//56
f 50//50 56//56 57//57
f 50//50 57//57 64//64
f 64//64 57//57 58//58
f 64//64 58//58 59//59
f 59//59 60//60 64//64
f 64//64 60//60 61//61
f 64//64 61//61 62//62
f 62//62 63//63 64//64
f 65//65 66//66 68//68
f 68//68 66//66 67//67

# End of file