# WaveFront *.obj file
# Vertices: 68
# Triangles : 56

v -8.890000343322754 0.0 -30.479999542236328
v -2.1589999198913574 0.0 -30.479999542236328
v -2.7389962673187256 0.0 -27.98021125793457
v -3.2149033546447754 0.0 -25.458532333374023
v -3.585904121398926 0.0 -22.919300079345703
v -3.85136079788208 0.0 -20.36687469482422
v -4.010817527770996 0.0 -17.805641174316406
v -4.064000129699707 0.0 -15.239999771118164
v -4.010817527770996 0.0 -12.674358367919922
v -3.85136079788208 0.0 -10.11312484741211
v -3.585904121398926 0.0 -7.560699462890625
v -3.2149033546447754 0.0 -5.0214667320251465
v -2.7389962673187256 0.0 -2.4997897148132324
v -2.1589999198913574 0.0 0.0
v -8.890000343322754 0.0 0.0
v -2.1589999198913574 3.809999942779541 -30.479999542236328
v -8.890000343322754 3.809999942779541 -30.479999542236328
v -8.890000343322754 3.809999942779541 0.0
v -2.1589999198913574 3.809999942779541 0.0
v -2.7389962673187256 3.809999942779541 -2.4997897148132324
v -3.2149033546447754 3.809999942779541 -5.0214667320251465
v -3.585904121398926 3.809999942779541 -7.560699462890625
v -3.85136079788208 3.809999942779541 -10.11312484741211
v -4.010817527770996 3.809999942779541 -12.674358367919922
v -4.064000129699707 3.809999942779541 -15.239999771118164
v -4.010817527770996 3.809999942779541 -17.805641174316406
v -3.85136079788208 3.809999942779541 -20.36687469482422
v -3.585904121398926 3.809999942779541 -22.919300079345703
v -3.2149033546447754 3.809999942779541 -25.458532333374023
v -2.7389962673187256 3.809999942779541 -27.98021125793457
v -2.1589999198913574 0.0 -30.479999542236328
v -8.890000343322754 0.0 -30.479999542236328
v -8.890000343322754 3.809999942779541 -30.479999542236328
v -2.1589999198913574 3.809999942779541 -30.479999542236328
v -8.890000343322754 0.0 -30.479999542236328
v -8.890000343322754 0.0 0.0
v -8.890000343322754 3.809999942779541 0.0
v -8.890000343322754 3.809999942779541 -30.479999542236328
v -8.890000343322754 0.0 0.0
v -2.1589999198913574 0.0 0.0
v -2.1589999198913574 3.809999942779541 0.0
v -8.890000343322754 3.809999942779541 0.0
v -2.1589999198913574 0.0 0.0
v -2.7389962673187256 0.0 -2.4997897148132324
v -3.2149033546447754 0.0 -5.0214667320251465
v -3.585904121398926 0.0 -7.560699462890625
v -3.85136079788208 0.0 -10.11312484741211
v -4.010817527770996 0.0 -12.674358367919922
v -4.064000129699707 0.0 -15.239999771118164
v -4.010817527770996 0.0 -17.805641174316406
v -3.85136079788208 0.0 -20.36687469482422
v -3.585904121398926 0.0 -22.919300079345703
v -3.2149033546447754 0.0 -25.458532333374023
v -2.7389962673187256 0.0 -27.98021125793457
v -2.1589999198913574 0.0 -30.479999542236328
v -2.1589999198913574 3.809999942779541 -30.479999542236328
v -2.7389962673187256 3.809999942779541 -27.98021125793457
v -3.2149033546447754 3.809999942779541 -25.458532333374023
v -3.585904121398926 3.809999942779541 -22.919300079345703
v -3.85136079788208 3.809999942779541 -20.36687469482422
v -4.010817527770996 3.809999942779541 -17.805641174316406
v -4.064000129699707 3.809999942779541 -15.239999771118164
v -4.010817527770996 3.809999942779541 -12.674358367919922
v -3.85136079788208 3.809999942779541 -10.11312484741211
v -3.585904121398926 3.809999942779541 -7.560699462890625
v -3.2149033546447754 3.809999942779541 -5.0214667320251465
v -2.7389962673187256 3.809999942779541 -2.4997897148132324
v -2.1589999198913574 3.809999942779541 0.0
vn -0.0 -1.0 -0.0
vn -0.0 -1.0 -0.0
vn -0.0 -1.0 -0.0
vn -0.0 -1.0 -0.0
vn -0.0 -1.0 -0.0
vn -0.0 -1.0 -0.0
vn -0.0 -1.0 -0.0
vn -0.0 -1.0 -0.0
vn -0.0 -1.0 -0.0
vn -0.0 -1.0 -0.0
vn -0.0 -1.0 -0.0
vn -0.0 -1.0 -0.0
vn -0.0 -1.0 -0.0
vn -0.0 -1.0 -0.0
vn -0.0 -1.0 -0.0
vn 0.0 1.0 0.0
vn 0.0 1.0 0.0
vn 0.0 1.0 0.0
vn 0.0 1.0 0.0
vn 0.0 1.0 0.0
vn 0.0 1.0 0.0
vn 0.0 1.0 0.0
vn 0.0 1.0 0.0
vn 0.0 1.0 0.0
vn 0.0 1.0 0.0
vn 0.0 1.0 0.0
vn 0.0 1.0 0.0
vn 0.0 1.0 0.0
vn 0.0 1.0 0.0
vn 0.0 1.0 0.0
vn 0.0 0.0 -1.0
vn 0.0 0.0 -1.0
vn 0.0 0.0 -1.0
vn 0.0 0.0 -1.0
vn -1.0 0.0 0.0
vn -1.0 0.0 0.0
vn -1.0 0.0 0.0
vn -1.0 0.0 0.0
vn 0.0 -0.0 1.0
vn 0.0 -0.0 1.0
vn 0.0 -0.0 1.0
vn 0.0 -0.0 1.0
vn 0.9692307710647583 0.0 -0.2461538463830948
vn 0.9785987734794617 0.0 -0.20577767491340637
vn 0.9862855672836304 0.0 -0.16504798829555511
vn 0.9922778606414795 0.0 -0.12403473258018494
vn 0.9965654611587524 0.0 -0.08280839771032333
vn 0.9991409778594971 0.0 -0.04143979400396347
vn 1.0 0.0 -5.738281611200401e-17
vn 0.9991409778594971 -0.0 0.04143979400396347
vn 0.9965654611587524 -0.0 0.08280839771032333
vn 0.9922778606414795 -0.0 0.12403473258018494
vn 0.9862855672836304 -0.0 0.16504798829555511
vn 0.9785987734794617 -0.0 0.20577767491340637
vn 0.9692307710647583 -0.0 0.2461538463830948
vn 0.9692307710647583 -0.0 0.2461538463830948
vn 0.9785987734794617 -0.0 0.20577767491340637
vn 0.9862855672836304 -0.0 0.16504798829555511
vn 0.9922778606414795 -0.0 0.12403473258018494
vn 0.9965654611587524 -0.0 0.08280839771032333
vn 0.9991409778594971 -0.0 0.04143979400396347
vn 1.0 0.0 -8.607422416800602e-17
vn 0.9991409778594971 0.0 -0.04143979400396347
vn 0.9965654611587524 0.0 -0.08280839771032333
vn 0.9922778606414795 0.0 -0.12403473258018494
vn 0.9862855672836304 0.0 -0.16504798829555511
vn 0.9785987734794617 0.0 -0.20577767491340637
vn 0.9692307710647583 0.0 -0.2461538463830948
f 2//2 3//3 1//1
f 1//1 3//3 4//4
f 1//1 4//4 5//5
f 5//5 6//6 1//1
f 1//1 6//6 7//7
f 1//1 7//7 8//8
f 1//1 8//8 15//15
f 15//15 8//8 9//9
f 15//15 9//9 10//10
f 10//10 11//11 15//15
f 15//15 11//11 12//12
f 15//15 12//12 13//13
f 13//13 14//14 15//15
f 16//16 17//17 30//30
f 30//30 17//17 29//29
f 29//29 17//17 28//28
f 28//28 17//17 27//27
f 27//27 17//17 26//26
f 26//26 17//17 25//25
f 25//25 17//17 18//18
f 25//25 18//18 24//24
f 24//24 18//18 23//23
f 23//23 18//18 22//22
f 22//22 18//18 21//21
f 21//21 18//18 20//20
f 20//20 18//18 19//19
f 31//31 32//32 34//34
f 34//34 32//32 33//33
f 35//35 36//36 38//38
f 38//38 36//36 37//37
f 39//39 40//40 42//42
f 42//42 40//40 41//41
f 68//68 43//43 67//67
f 67//67 43//43 44//44
f 67//67 44//44 66//66
f 66//66 44//44 45//45
f 66//66 45//45 65//65
f 65//65 45//45 46//46
f 65//65 46//46 64//64
f 64//64 46//46 47//47
f 64//64 47//47 63//63
f 63//63 47//47 48//48
f 63//63 48//48 62//62
f 62//62 48//48 49//49
f 62//62 49//49 61//61
f 61//61 49//49 50//50
f 61//61 50//50 60//60
f 60//60 50//50 51//51
f 60//60 51//51 59//59
f 59//59 51//51 52//52
f 59//59 52//52 58//58
f 58//58 52//52 53//53
f 58//58 53//53 57//57
f 57//57 53//53 54//54
f 57//57 54//54 56//56
f 56//56 54//54 55//55

# End of file