# WaveFront *.obj file
# Vertices: 192
# Triangles : 152

v 0.0 5.800000190734863 1.600000023841858
v 0.0 1.5 1.600000023841858
v 0.10000000149011612 1.5 1.600000023841858
v 0.10000000149011612 5.800000190734863 1.600000023841858
v 0.0 5.800000190734863 -2.299999952316284
v 0.0 5.800000190734863 1.600000023841858
v 0.10000000149011612 5.800000190734863 1.600000023841858
v 0.10000000149011612 5.800000190734863 -2.299999952316284
v 0.0 1.5 -2.299999952316284
v 0.0 5.800000190734863 -2.299999952316284
v 0.10000000149011612 5.800000190734863 -2.299999952316284
v 0.10000000149011612 1.5 -2.299999952316284
v 0.0 1.5 1.600000023841858
v 0.0 1.5 -2.299999952316284
v 0.10000000149011612 1.5 -2.299999952316284
v 0.10000000149011612 1.5 1.600000023841858
v 0.10000000149011612 1.5 1.600000023841858
v 0.10000000149011612 1.5 -2.299999952316284
v 0.10000000149011612 5.800000190734863 -2.299999952316284
v 0.10000000149011612 5.800000190734863 1.600000023841858
v 0.0 1.5 -2.299999952316284
v 0.0 1.5 1.600000023841858
v 0.0 5.800000190734863 1.600000023841858
v 0.0 5.800000190734863 -2.299999952316284
v 0.0 4.991393089294434 0.6237480044364929
v 0.0 4.991393089294434 1.0332823991775513
v 0.10000000149011612 4.991393089294434 1.0332823991775513
v 0.10000000149011612 4.991393089294434 0.6237480044364929
v 0.0 4.991393089294434 -0.12188638746738434
v 0.0 4.946294784545898 -0.02068302221596241
v 0.0 4.915731906890869 0.08581524342298508
v 0.0 4.900300025939941 0.19553230702877045
v 0.0 4.900300025939941 0.3063293397426605
v 0.0 4.915731906890869 0.4160463809967041
v 0.0 4.946294784545898 0.5225446820259094
v 0.0 4.991393089294434 0.6237480044364929
v 0.10000000149011612 4.991393089294434 0.6237480044364929
v 0.10000000149011612 4.946294784545898 0.5225446820259094
v 0.10000000149011612 4.915731906890869 0.4160463809967041
v 0.10000000149011612 4.900300025939941 0.3063293397426605
v 0.10000000149011612 4.900300025939941 0.19553230702877045
v 0.10000000149011612 4.915731906890869 0.08581524342298508
v 0.10000000149011612 4.946294784545898 -0.02068302221596241
v 0.10000000149011612 4.991393089294434 -0.12188638746738434
v 0.0 4.991393089294434 -0.7576378583908081
v 0.0 4.991393089294434 -0.12188638746738434
v 0.10000000149011612 4.991393089294434 -0.12188638746738434
v 0.10000000149011612 4.991393089294434 -0.7576378583908081
v 0.0 4.991393089294434 -1.4326331615447998
v 0.0 4.946372032165527 -1.3420602083206177
v 0.0 4.9157538414001465 -1.2456603050231934
v 0.0 4.900262355804443 -1.1457082033157349
v 0.0 4.900262355804443 -1.044562816619873
v 0.0 4.9157538414001465 -0.9446107745170593
v 0.0 4.946372032165527 -0.8482108116149902
v 0.0 4.991393089294434 -0.7576378583908081
v 0.10000000149011612 4.991393089294434 -0.7576378583908081
v 0.10000000149011612 4.946372032165527 -0.8482108116149902
v 0.10000000149011612 4.9157538414001465 -0.9446107745170593
v 0.10000000149011612 4.900262355804443 -1.044562816619873
v 0.10000000149011612 4.900262355804443 -1.1457082033157349
v 0.10000000149011612 4.9157538414001465 -1.2456603050231934
v 0.10000000149011612 4.946372032165527 -1.3420602083206177
v 0.10000000149011612 4.991393089294434 -1.4326331615447998
v 0.0 4.991393089294434 -1.676185131072998
v 0.0 4.991393089294434 -1.4326331615447998
v 0.10000000149011612 4.991393089294434 -1.4326331615447998
v 0.10000000149011612 4.991393089294434 -1.676185131072998
v 0.0 4.891393184661865 -1.776185154914856
v 0.0 4.929661750793457 -1.7685730457305908
v 0.0 4.962103843688965 -1.7468957901000977
v 0.0 4.983781337738037 -1.7144534587860107
v 0.0 4.991393089294434 -1.676185131072998
v 0.10000000149011612 4.991393089294434 -1.676185131072998
v 0.10000000149011612 4.983781337738037 -1.7144534587860107
v 0.10000000149011612 4.962103843688965 -1.7468957901000977
v 0.10000000149011612 4.929661750793457 -1.7685730457305908
v 0.10000000149011612 4.891393184661865 -1.776185154914856
v 0.0 1.8422417640686035 -1.776185154914856
v 0.0 4.891393184661865 -1.776185154914856
v 0.10000000149011612 4.891393184661865 -1.776185154914856
v 0.10000000149011612 1.8422417640686035 -1.776185154914856
v 0.0 1.7422418594360352 -1.676185131072998
v 0.0 1.7498538494110107 -1.7144534587860107
v 0.0 1.771531105041504 -1.7468957901000977
v 0.0 1.8039734363555908 -1.7685730457305908
v 0.0 1.8422417640686035 -1.776185154914856
v 0.10000000149011612 1.8422417640686035 -1.776185154914856
v 0.10000000149011612 1.8039734363555908 -1.7685730457305908
v 0.10000000149011612 1.771531105041504 -1.7468957901000977
v 0.10000000149011612 1.7498538494110107 -1.7144534587860107
v 0.10000000149011612 1.7422418594360352 -1.676185131072998
v 0.0 1.7422418594360352 1.0332823991775513
v 0.0 1.7422418594360352 -1.676185131072998
v 0.10000000149011612 1.7422418594360352 -1.676185131072998
v 0.10000000149011612 1.7422418594360352 1.0332823991775513
v 0.0 1.8422417640686035 1.1332824230194092
v 0.0 1.8039734363555908 1.125670313835144
v 0.0 1.771531105041504 1.1039930582046509
v 0.0 1.7498538494110107 1.071550726890564
v 0.0 1.7422418594360352 1.0332823991775513
v 0.10000000149011612 1.7422418594360352 1.0332823991775513
v 0.10000000149011612 1.7498538494110107 1.071550726890564
v 0.10000000149011612 1.771531105041504 1.1039930582046509
v 0.10000000149011612 1.8039734363555908 1.125670313835144
v 0.10000000149011612 1.8422417640686035 1.1332824230194092
v 0.0 4.891393184661865 1.1332824230194092
v 0.0 1.8422417640686035 1.1332824230194092
v 0.10000000149011612 1.8422417640686035 1.1332824230194092
v 0.10000000149011612 4.891393184661865 1.1332824230194092
v 0.0 4.991393089294434 1.0332823991775513
v 0.0 4.983781337738037 1.071550726890564
v 0.0 4.962103843688965 1.1039930582046509
v 0.0 4.929661750793457 1.125670313835144
v 0.0 4.891393184661865 1.1332824230194092
v 0.10000000149011612 4.891393184661865 1.1332824230194092
v 0.10000000149011612 4.929661750793457 1.125670313835144
v 0.10000000149011612 4.962103843688965 1.1039930582046509
v 0.10000000149011612 4.983781337738037 1.071550726890564
v 0.10000000149011612 4.991393089294434 1.0332823991775513
v 0.10000000149011612 4.991393089294434 1.0332823991775513
v 0.10000000149011612 4.983781337738037 1.071550726890564
v 0.10000000149011612 4.962103843688965 1.1039930582046509
v 0.10000000149011612 4.929661750793457 1.125670313835144
v 0.10000000149011612 4.891393184661865 1.1332824230194092
v 0.10000000149011612 1.8422417640686035 1.1332824230194092
v 0.10000000149011612 1.8039734363555908 1.125670313835144
v 0.10000000149011612 1.771531105041504 1.1039930582046509
v 0.10000000149011612 1.7498538494110107 1.071550726890564
v 0.10000000149011612 1.7422418594360352 1.0332823991775513
v 0.10000000149011612 1.7422418594360352 -1.676185131072998
v 0.10000000149011612 1.7498538494110107 -1.7144534587860107
v 0.10000000149011612 1.771531105041504 -1.7468957901000977
v 0.10000000149011612 1.8039734363555908 -1.7685730457305908
v 0.10000000149011612 1.8422417640686035 -1.776185154914856
v 0.10000000149011612 4.891393184661865 -1.776185154914856
v 0.10000000149011612 4.929661750793457 -1.7685730457305908
v 0.10000000149011612 4.962103843688965 -1.7468957901000977
v 0.10000000149011612 4.983781337738037 -1.7144534587860107
v 0.10000000149011612 4.991393089294434 -1.676185131072998
v 0.10000000149011612 4.991393089294434 -1.4326331615447998
v 0.10000000149011612 4.946372032165527 -1.3420602083206177
v 0.10000000149011612 4.9157538414001465 -1.2456603050231934
v 0.10000000149011612 4.900262355804443 -1.1457082033157349
v 0.10000000149011612 4.900262355804443 -1.044562816619873
v 0.10000000149011612 4.9157538414001465 -0.9446107745170593
v 0.10000000149011612 4.946372032165527 -0.8482108116149902
v 0.10000000149011612 4.991393089294434 -0.7576378583908081
v 0.10000000149011612 4.991393089294434 -0.12188638746738434
v 0.10000000149011612 4.946294784545898 -0.02068302221596241
v 0.10000000149011612 4.915731906890869 0.08581524342298508
v 0.10000000149011612 4.900300025939941 0.19553230702877045
v 0.10000000149011612 4.900300025939941 0.3063293397426605
v 0.10000000149011612 4.915731906890869 0.4160463809967041
v 0.10000000149011612 4.946294784545898 0.5225446820259094
v 0.10000000149011612 4.991393089294434 0.6237480044364929
v 0.0 4.891393184661865 1.1332824230194092
v 0.0 4.929661750793457 1.125670313835144
v 0.0 4.962103843688965 1.1039930582046509
v 0.0 4.983781337738037 1.071550726890564
v 0.0 4.991393089294434 1.0332823991775513
v 0.0 4.991393089294434 0.6237480044364929
v 0.0 4.946294784545898 0.5225446820259094
v 0.0 4.915731906890869 0.4160463809967041
v 0.0 4.900300025939941 0.3063293397426605
v 0.0 4.900300025939941 0.19553230702877045
v 0.0 4.915731906890869 0.08581524342298508
v 0.0 4.946294784545898 -0.02068302221596241
v 0.0 4.991393089294434 -0.12188638746738434
v 0.0 4.991393089294434 -0.7576378583908081
v 0.0 4.946372032165527 -0.8482108116149902
v 0.0 4.9157538414001465 -0.9446107745170593
v 0.0 4.900262355804443 -1.044562816619873
v 0.0 4.900262355804443 -1.1457082033157349
v 0.0 4.9157538414001465 -1.2456603050231934
v 0.0 4.946372032165527 -1.3420602083206177
v 0.0 4.991393089294434 -1.4326331615447998
v 0.0 4.991393089294434 -1.676185131072998
v 0.0 4.983781337738037 -1.7144534587860107
v 0.0 4.962103843688965 -1.7468957901000977
v 0.0 4.929661750793457 -1.7685730457305908
v 0.0 4.891393184661865 -1.776185154914856
v 0.0 1.8422417640686035 -1.776185154914856
v 0.0 1.8039734363555908 -1.7685730457305908
v 0.0 1.771531105041504 -1.7468957901000977
v 0.0 1.7498538494110107 -1.7144534587860107
v 0.0 1.7422418594360352 -1.676185131072998
v 0.0 1.7422418594360352 1.0332823991775513
v 0.0 1.7498538494110107 1.071550726890564
v 0.0 1.771531105041504 1.1039930582046509
v 0.0 1.8039734363555908 1.125670313835144
v 0.0 1.8422417640686035 1.1332824230194092
vn 0.0 0.0 1.0
vn 0.0 0.0 1.0
vn 0.0 0.0 1.0
vn 0.0 0.0 1.0
vn -0.0 1.0 0.0
vn -0.0 1.0 0.0
vn -0.0 1.0 0.0
vn -0.0 1.0 0.0
vn 0.0 0.0 -1.0
vn 0.0 0.0 -1.0
vn 0.0 0.0 -1.0
vn 0.0 0.0 -1.0
vn 0.0 -1.0 0.0
vn 0.0 -1.0 0.0
vn 0.0 -1.0 0.0
vn 0.0 -1.0 0.0
vn 1.0 0.0 0.0
vn 1.0 0.0 0.0
vn 1.0 0.0 0.0
vn 1.0 0.0 0.0
vn -1.0 -0.0 -0.0
vn -1.0 -0.0 -0.0
vn -1.0 -0.0 -0.0
vn -1.0 -0.0 -0.0
vn -0.0 1.0 0.0
vn -0.0 1.0 0.0
vn -0.0 1.0 0.0
vn -0.0 1.0 0.0
vn -0.0 0.8827683925628662 0.4698084592819214
vn -0.0 0.939599335193634 0.34227627515792847
vn -0.0 0.97811359167099 0.20807166397571564
vn -0.0 0.9975602626800537 0.06981085240840912
vn 0.0 0.9975602626800537 -0.06981085240840912
vn 0.0 0.97811359167099 -0.20807166397571564
vn 0.0 0.939599335193634 -0.34227627515792847
vn 0.0 0.8827683925628662 -0.4698084592819214
vn 0.0 0.8827683925628662 -0.4698084592819214
vn 0.0 0.939599335193634 -0.34227627515792847
vn 0.0 0.97811359167099 -0.20807166397571564
vn 0.0 0.9975602626800537 -0.06981085240840912
vn -0.0 0.9975602626800537 0.06981085240840912
vn -0.0 0.97811359167099 0.20807166397571564
vn -0.0 0.939599335193634 0.34227627515792847
vn -0.0 0.8827683925628662 0.4698084592819214
vn -0.0 1.0 0.0
vn -0.0 1.0 0.0
vn -0.0 1.0 0.0
vn -0.0 1.0 0.0
vn -0.0 0.8586388826370239 0.512580931186676
vn -0.0 0.9270161390304565 0.3750215172767639
vn -0.0 0.9735175371170044 0.2286122888326645
vn -0.0 0.9970458745956421 0.07680827379226685
vn 0.0 0.9970458745956421 -0.07680827379226685
vn 0.0 0.9735175371170044 -0.2286122888326645
vn 0.0 0.9270161390304565 -0.3750215172767639
vn 0.0 0.8586388826370239 -0.512580931186676
vn 0.0 0.8586388826370239 -0.512580931186676
vn 0.0 0.9270161390304565 -0.3750215172767639
vn 0.0 0.9735175371170044 -0.2286122888326645
vn 0.0 0.9970458745956421 -0.07680827379226685
vn -0.0 0.9970458745956421 0.07680827379226685
vn -0.0 0.9735175371170044 0.2286122888326645
vn -0.0 0.9270161390304565 0.3750215172767639
vn -0.0 0.8586388826370239 0.512580931186676
vn -0.0 1.0 0.0
vn -0.0 1.0 0.0
vn -0.0 1.0 0.0
vn -0.0 1.0 0.0
vn -0.0 0.0 -1.0
vn -0.0 0.3826834261417389 -0.9238795042037964
vn -0.0 0.7071067690849304 -0.7071067690849304
vn -0.0 0.9238795042037964 -0.3826834261417389
vn -0.0 1.0 2.159213613976826e-15
vn -0.0 1.0 2.159213613976826e-15
vn -0.0 0.9238795042037964 -0.3826834261417389
vn -0.0 0.7071067690849304 -0.7071067690849304
vn -0.0 0.3826834261417389 -0.9238795042037964
vn -0.0 0.0 -1.0
vn 0.0 0.0 -1.0
vn 0.0 0.0 -1.0
vn 0.0 0.0 -1.0
vn 0.0 0.0 -1.0
vn 0.0 -1.0 -2.220446049250313e-15
vn 0.0 -0.9238795042037964 -0.3826834261417389
vn 0.0 -0.7071067690849304 -0.7071067690849304
vn 0.0 -0.3826834261417389 -0.9238795042037964
vn 0.0 -2.2816784845238e-15 -1.0
vn 0.0 -2.2816784845238e-15 -1.0
vn 0.0 -0.3826834261417389 -0.9238795042037964
vn 0.0 -0.7071067690849304 -0.7071067690849304
vn 0.0 -0.9238795042037964 -0.3826834261417389
vn 0.0 -1.0 -2.220446049250313e-15
vn 0.0 -1.0 0.0
vn 0.0 -1.0 0.0
vn 0.0 -1.0 0.0
vn 0.0 -1.0 0.0
vn -0.0 -2.220446049250313e-15 1.0
vn -0.0 -0.3826834261417389 0.9238795042037964
vn -0.0 -0.7071067690849304 0.7071067690849304
vn -0.0 -0.9238795042037964 0.3826834261417389
vn -0.0 -1.0 2.2816784845238e-15
vn -0.0 -1.0 2.2816784845238e-15
vn -0.0 -0.9238795042037964 0.3826834261417389
vn -0.0 -0.7071067690849304 0.7071067690849304
vn -0.0 -0.3826834261417389 0.9238795042037964
vn -0.0 -2.220446049250313e-15 1.0
vn -0.0 0.0 1.0
vn -0.0 0.0 1.0
vn -0.0 0.0 1.0
vn -0.0 0.0 1.0
vn -0.0 1.0 -2.220446049250313e-15
vn -0.0 0.9238795042037964 0.3826834261417389
vn -0.0 0.7071067690849304 0.7071067690849304
vn -0.0 0.3826834261417389 0.9238795042037964
vn -0.0 6.123234262925839e-17 1.0
vn -0.0 6.123234262925839e-17 1.0
vn -0.0 0.3826834261417389 0.9238795042037964
vn -0.0 0.7071067690849304 0.7071067690849304
vn -0.0 0.9238795042037964 0.3826834261417389
vn -0.0 1.0 -2.220446049250313e-15
vn 1.0 0.0 0.0
vn 1.0 0.0 0.0
vn 1.0 0.0 0.0
vn 1.0 0.0 0.0
vn 1.0 0.0 0.0
vn 1.0 0.0 0.0
vn 1.0 0.0 0.0
vn 1.0 0.0 0.0
vn 1.0 0.0 0.0
vn 1.0 0.0 0.0
vn 1.0 0.0 0.0
vn 1.0 0.0 0.0
vn 1.0 0.0 0.0
vn 1.0 0.0 0.0
vn 1.0 0.0 0.0
vn 1.0 0.0 0.0
vn 1.0 0.0 0.0
vn 1.0 0.0 0.0
vn 1.0 0.0 0.0
vn 1.0 0.0 0.0
vn 1.0 0.0 0.0
vn 1.0 0.0 0.0
vn 1.0 0.0 0.0
vn 1.0 0.0 0.0
vn 1.0 0.0 0.0
vn 1.0 0.0 0.0
vn 1.0 0.0 0.0
vn 1.0 0.0 0.0
vn 1.0 0.0 0.0
vn 1.0 0.0 0.0
vn 1.0 0.0 0.0
vn 1.0 0.0 0.0
vn 1.0 0.0 0.0
vn 1.0 0.0 0.0
vn 1.0 0.0 0.0
vn 1.0 0.0 0.0
vn -1.0 -0.0 -0.0
vn -1.0 -0.0 -0.0
vn -1.0 -0.0 -0.0
vn -1.0 -0.0 -0.0
vn -1.0 -0.0 -0.0
vn -1.0 -0.0 -0.0
vn -1.0 -0.0 -0.0
vn -1.0 -0.0 -0.0
vn -1.0 -0.0 -0.0
vn -1.0 -0.0 -0.0
vn -1.0 -0.0 -0.0
vn -1.0 -0.0 -0.0
vn -1.0 -0.0 -0.0
vn -1.0 -0.0 -0.0
vn -1.0 -0.0 -0.0
vn -1.0 -0.0 -0.0
vn -1.0 -0.0 -0.0
vn -1.0 -0.0 -0.0
vn -1.0 -0.0 -0.0
vn -1.0 -0.0 -0.0
vn -1.0 -0.0 -0.0
vn -1.0 -0.0 -0.0
vn -1.0 -0.0 -0.0
vn -1.0 -0.0 -0.0
vn -1.0 -0.0 -0.0
vn -1.0 -0.0 -0.0
vn -1.0 -0.0 -0.0
vn -1.0 -0.0 -0.0
vn -1.0 -0.0 -0.0
vn -1.0 -0.0 -0.0
vn -1.0 -0.0 -0.0
vn -1.0 -0.0 -0.0
vn -1.0 -0.0 -0.0
vn -1.0 -0.0 -0.0
vn -1.0 -0.0 -0.0
vn -1.0 -0.0 -0.0
g 6921daa4-e2c1-11ea-b113-54bf646e7e1f
f 1//1 2//2 4//4
f 4//4 2//2 3//3
g 6922c5ae-e2c1-11ea-8409-54bf646e7e1f
f 5//5 6//6 8//8
f 8//8 6//6 7//7
g 69238970-e2c1-11ea-bfda-54bf646e7e1f
f 9//9 10//10 12//12
f 12//12 10//10 11//11
g 69247436-e2c1-11ea-9e51-54bf646e7e1f
f 13//13 14//14 16//16
f 16//16 14//14 15//15
g 69255f24-e2c1-11ea-aa45-54bf646e7e1f
f 17//17 18//18 20//20
f 20//20 18//18 19//19
g 69264a0c-e2c1-11ea-8830-54bf646e7e1f
f 21//21 22//22 24//24
f 24//24 22//22 23//23
g 69733834-e2c1-11ea-a072-54bf646e7e1f
f 25//25 26//26 28//28
f 28//28 26//26 27//27
g 6974232e-e2c1-11ea-b40b-54bf646e7e1f
f 44//44 29//29 43//43
f 43//43 29//29 30//30
f 43//43 30//30 42//42
f 42//42 30//30 31//31
f 42//42 31//31 41//41
f 41//41 31//31 32//32
f 41//41 32//32 40//40
f 40//40 32//32 33//33
f 40//40 33//33 39//39
f 39//39 33//33 34//34
f 39//39 34//34 38//38
f 38//38 34//34 35//35
f 38//38 35//35 37//37
f 37//37 35//35 36//36
g 69750e14-e2c1-11ea-8ca2-54bf646e7e1f
f 45//45 46//46 48//48
f 48//48 46//46 47//47
g 6975f8f8-e2c1-11ea-a745-54bf646e7e1f
f 64//64 49//49 63//63
f 63//63 49//49 50//50
f 63//63 50//50 62//62
f 62//62 50//50 51//51
f 62//62 51//51 61//61
f 61//61 51//51 52//52
f 61//61 52//52 60//60
f 60//60 52//52 53//53
f 60//60 53//53 59//59
f 59//59 53//53 54//54
f 59//59 54//54 58//58
f 58//58 54//54 55//55
f 58//58 55//55 57//57
f 57//57 55//55 56//56
g 6976e3e4-e2c1-11ea-9988-54bf646e7e1f
f 65//65 66//66 68//68
f 68//68 66//66 67//67
g 6977f61e-e2c1-11ea-afa1-54bf646e7e1f
f 78//78 69//69 77//77
f 77//77 69//69 70//70
f 77//77 70//70 76//76
f 76//76 70//70 71//71
f 76//76 71//71 75//75
f 75//75 71//71 72//72
f 75//75 72//72 74//74
f 74//74 72//72 73//73
g 6978e0e8-e2c1-11ea-a8bb-54bf646e7e1f
f 79//79 80//80 82//82
f 82//82 80//80 81//81
g 6979cbd8-e2c1-11ea-ae65-54bf646e7e1f
f 92//92 83//83 91//91
f 91//91 83//83 84//84
f 91//91 84//84 90//90
f 90//90 84//84 85//85
f 90//90 85//85 89//89
f 89//89 85//85 86//86
f 89//89 86//86 88//88
f 88//88 86//86 87//87
g 697addf4-e2c1-11ea-b5b5-54bf646e7e1f
f 93//93 94//94 96//96
f 96//96 94//94 95//95
g 697bc8ec-e2c1-11ea-8f79-54bf646e7e1f
f 106//106 97//97 105//105
f 105//105 97//97 98//98
f 105//105 98//98 104//104
f 104//104 98//98 99//99
f 104//104 99//99 103//103
f 103//103 99//99 100//100
f 103//103 100//100 102//102
f 102//102 100//100 101//101
g 697cb3c2-e2c1-11ea-b991-54bf646e7e1f
f 107//107 108//108 110//110
f 110//110 108//108 109//109
g 697dc5d8-e2c1-11ea-a3a8-54bf646e7e1f
f 120//120 111//111 119//119
f 119//119 111//111 112//112
f 119//119 112//112 118//118
f 118//118 112//112 113//113
f 118//118 113//113 117//117
f 117//117 113//113 114//114
f 117//117 114//114 116//116
f 116//116 114//114 115//115
g 697ed7f4-e2c1-11ea-9973-54bf646e7e1f
f 156//156 121//121 125//125
f 125//125 121//121 122//122
f 125//125 122//122 123//123
f 123//123 124//124 125//125
f 126//126 154//154 125//125
f 125//125 154//154 155//155
f 125//125 155//155 156//156
f 127//127 128//128 126//126
f 126//126 128//128 129//129
f 126//126 129//129 130//130
f 131//131 151//151 130//130
f 130//130 151//151 152//152
f 130//130 152//152 126//126
f 126//126 152//152 153//153
f 126//126 153//153 154//154
f 132//132 135//135 131//131
f 131//131 135//135 146//146
f 131//131 146//146 150//150
f 150//150 146//146 147//147
f 150//150 147//147 149//149
f 149//149 147//147 148//148
f 132//132 133//133 135//135
f 135//135 133//133 134//134
f 136//136 143//143 135//135
f 135//135 143//143 144//144
f 135//135 144//144 145//145
f 137//137 138//138 136//136
f 136//136 138//138 139//139
f 136//136 139//139 140//140
f 140//140 141//141 136//136
f 136//136 141//141 142//142
f 136//136 142//142 143//143
f 145//145 146//146 135//135
f 150//150 151//151 131//131
g 69803846-e2c1-11ea-ac6e-54bf646e7e1f
f 158//158 159//159 157//157
f 157//157 159//159 160//160
f 157//157 160//160 161//161
f 161//161 162//162 157//157
f 157//157 162//162 163//163
f 157//157 163//163 164//164
f 157//157 164//164 192//192
f 192//192 164//164 165//165
f 192//192 165//165 166//166
f 192//192 166//166 188//188
f 188//188 166//166 167//167
f 188//188 167//167 187//187
f 187//187 167//167 168//168
f 187//187 168//168 172//172
f 172//172 168//168 171//171
f 171//171 168//168 169//169
f 171//171 169//169 170//170
f 187//187 172//172 183//183
f 183//183 172//172 173//173
f 183//183 173//173 174//174
f 174//174 175//175 183//183
f 183//183 175//175 182//182
f 182//182 175//175 176//176
f 182//182 176//176 177//177
f 177//177 178//178 182//182
f 182//182 178//178 179//179
f 182//182 179//179 180//180
f 180//180 181//181 182//182
f 184//184 185//185 183//183
f 183//183 185//185 186//186
f 183//183 186//186 187//187
f 188//188 189//189 192//192
f 192//192 189//189 190//190
f 192//192 190//190 191//191

# End of file