# WaveFront *.obj file
# Vertices: 24
# Triangles : 12

v 0.0 0.2540000081062317 -3.81000018119812
v 0.0 2.7939999103546143 -3.81000018119812
v 0.6349999904632568 2.7939999103546143 -3.81000018119812
v 0.6349999904632568 0.2540000081062317 -3.81000018119812
v 0.0 0.2540000081062317 -3.1750001907348633
v 0.0 0.2540000081062317 -3.81000018119812
v 0.6349999904632568 0.2540000081062317 -3.81000018119812
v 0.6349999904632568 0.2540000081062317 -3.1750001907348633
v 0.0 2.7939999103546143 -3.1750001907348633
v 0.0 0.2540000081062317 -3.1750001907348633
v 0.6349999904632568 0.2540000081062317 -3.1750001907348633
v 0.6349999904632568 2.7939999103546143 -3.1750001907348633
v 0.0 2.7939999103546143 -3.81000018119812
v 0.0 2.7939999103546143 -3.1750001907348633
v 0.6349999904632568 2.7939999103546143 -3.1750001907348633
v 0.6349999904632568 2.7939999103546143 -3.81000018119812
v 0.6349999904632568 2.7939999103546143 -3.81000018119812
v 0.6349999904632568 2.7939999103546143 -3.1750001907348633
v 0.6349999904632568 0.2540000081062317 -3.1750001907348633
v 0.6349999904632568 0.2540000081062317 -3.81000018119812
v 0.0 2.7939999103546143 -3.1750001907348633
v 0.0 2.7939999103546143 -3.81000018119812
v 0.0 0.2540000081062317 -3.81000018119812
v 0.0 0.2540000081062317 -3.1750001907348633
vn 0.0 0.0 -1.0
vn 0.0 0.0 -1.0
vn 0.0 0.0 -1.0
vn 0.0 0.0 -1.0
vn 0.0 -1.0 0.0
vn 0.0 -1.0 0.0
vn 0.0 -1.0 0.0
vn 0.0 -1.0 0.0
vn 0.0 0.0 1.0
vn 0.0 0.0 1.0
vn 0.0 0.0 1.0
vn 0.0 0.0 1.0
vn -0.0 1.0 0.0
vn -0.0 1.0 0.0
vn -0.0 1.0 0.0
vn -0.0 1.0 0.0
vn 1.0 0.0 0.0
vn 1.0 0.0 0.0
vn 1.0 0.0 0.0
vn 1.0 0.0 0.0
vn -1.0 -0.0 -0.0
vn -1.0 -0.0 -0.0
vn -1.0 -0.0 -0.0
vn -1.0 -0.0 -0.0
g 99bcda08-e2c2-11ea-ab05-54bf646e7e1f
f 1//1 2//2 4//4
f 4//4 2//2 3//3
g 99bd2846-e2c2-11ea-884c-54bf646e7e1f
f 5//5 6//6 8//8
f 8//8 6//6 7//7
g 99bd4f46-e2c2-11ea-8186-54bf646e7e1f
f 9//9 10//10 12//12
f 12//12 10//10 11//11
g 99bd9dac-e2c2-11ea-9023-54bf646e7e1f
f 13//13 14//14 16//16
f 16//16 14//14 15//15
g 99be12e4-e2c2-11ea-8fe4-54bf646e7e1f
f 17//17 18//18 20//20
f 20//20 18//18 19//19
g 99be6128-e2c2-11ea-9f90-54bf646e7e1f
f 21//21 22//22 24//24
f 24//24 22//22 23//23

# End of file