# WaveFront *.obj file
# Vertices: 110
# Triangles : 100

v -17.25 7.514744281768799 0.0
v -17.150039672851562 8.177943229675293 0.0
v -16.859037399291992 8.782214164733887 0.0
v -16.402851104736328 9.273865699768066 0.0
v -15.822017669677734 9.609210014343262 0.0
v -15.168142318725586 9.758453369140625 0.0
v -14.499327659606934 9.708332061767578 0.0
v -13.875 9.463301658630371 0.0
v -13.35063362121582 9.045132637023926 0.0
v -12.972820281982422 8.490983009338379 0.0
v -12.775130271911621 7.8500895500183105 0.0
v -12.775130271911621 7.179399490356445 0.0
v -12.972820281982422 6.538506031036377 0.0
v -13.35063362121582 5.984355926513672 0.0
v -13.875 5.566187381744385 0.0
v -14.499327659606934 5.3211565017700195 0.0
v -15.168142318725586 5.271035671234131 0.0
v -15.822017669677734 5.420278549194336 0.0
v -16.402851104736328 5.755623817443848 0.0
v -16.859037399291992 6.247274398803711 0.0
v -17.150039672851562 6.851545333862305 0.0
v -17.25 7.514744281768799 2.0
v -17.150039672851562 6.851545333862305 2.0
v -16.859037399291992 6.247274398803711 2.0
v -16.402851104736328 5.755623817443848 2.0
v -15.822017669677734 5.420278549194336 2.0
v -15.168142318725586 5.271035671234131 2.0
v -14.499327659606934 5.3211565017700195 2.0
v -13.875 5.566187381744385 2.0
v -13.35063362121582 5.984355926513672 2.0
v -12.972820281982422 6.538506031036377 2.0
v -12.775130271911621 7.179399490356445 2.0
v -12.775130271911621 7.8500895500183105 2.0
v -12.972820281982422 8.490983009338379 2.0
v -13.35063362121582 9.045132637023926 2.0
v -13.875 9.463301658630371 2.0
v -14.499327659606934 9.708332061767578 2.0
v -15.168142318725586 9.758453369140625 2.0
v -15.822017669677734 9.609210014343262 2.0
v -16.402851104736328 9.273865699768066 2.0
v -16.859037399291992 8.782214164733887 2.0
v -17.150039672851562 8.177943229675293 2.0
v -17.25 7.514744281768799 0.0
v -17.25 7.514744281768799 2.0
v 20.0 17.0 0.0
v -30.0 17.0 0.0
v -30.0 17.0 2.0
v 20.0 17.0 2.0
v 20.0 0.0 0.0
v 20.0 17.0 0.0
v 20.0 17.0 2.0
v 20.0 0.0 2.0
v -30.0 7.105427357601002e-15 0.0
v 20.0 0.0 0.0
v 20.0 0.0 2.0
v -30.0 7.105427357601002e-15 2.0
v -30.0 17.0 0.0
v -30.0 7.105427357601002e-15 0.0
v -30.0 7.105427357601002e-15 2.0
v -30.0 17.0 2.0
v -17.25 7.514744281768799 2.0
v -17.150039672851562 8.177943229675293 2.0
v -16.859037399291992 8.782214164733887 2.0
v -16.402851104736328 9.273865699768066 2.0
v -15.822017669677734 9.609210014343262 2.0
v -15.168142318725586 9.758453369140625 2.0
v -14.499327659606934 9.708332061767578 2.0
v -13.875 9.463301658630371 2.0
v -13.35063362121582 9.045132637023926 2.0
v -12.972820281982422 8.490983009338379 2.0
v -12.775130271911621 7.8500895500183105 2.0
v -12.775130271911621 7.179399490356445 2.0
v -12.972820281982422 6.538506031036377 2.0
v -13.35063362121582 5.984355926513672 2.0
v -13.875 5.566187381744385 2.0
v -14.499327659606934 5.3211565017700195 2.0
v -15.168142318725586 5.271035671234131 2.0
v -15.822017669677734 5.420278549194336 2.0
v -16.402851104736328 5.755623817443848 2.0
v -16.859037399291992 6.247274398803711 2.0
v -17.150039672851562 6.851545333862305 2.0
v -30.0 17.0 2.0
v -30.0 7.105427357601002e-15 2.0
v 20.0 0.0 2.0
v 20.0 17.0 2.0
v -17.25 7.514744281768799 0.0
v -17.150039672851562 6.851545333862305 0.0
v -16.859037399291992 6.247274398803711 0.0
v -16.402851104736328 5.755623817443848 0.0
v -15.822017669677734 5.420278549194336 0.0
v -15.168142318725586 5.271035671234131 0.0
v -14.499327659606934 5.3211565017700195 0.0
v -13.875 5.566187381744385 0.0
v -13.35063362121582 5.984355926513672 0.0
v -12.972820281982422 6.538506031036377 0.0
v -12.775130271911621 7.179399490356445 0.0
v -12.775130271911621 7.8500895500183105 0.0
v -12.972820281982422 8.490983009338379 0.0
v -13.35063362121582 9.045132637023926 0.0
v -13.875 9.463301658630371 0.0
v -14.499327659606934 9.708332061767578 0.0
v -15.168142318725586 9.758453369140625 0.0
v -15.822017669677734 9.609210014343262 0.0
v -16.402851104736328 9.273865699768066 0.0
v -16.859037399291992 8.782214164733887 0.0
v -17.150039672851562 8.177943229675293 0.0
v -30.0 7.105427357601002e-15 0.0
v -30.0 17.0 0.0
v 20.0 17.0 0.0
v 20.0 0.0 0.0
vn 1.0 -1.2246468525851679e-16 0.0
vn 0.955572783946991 -0.29475516080856323 0.0
vn 0.826238751411438 -0.5633200407028198 0.0
vn 0.6234897971153259 -0.7818315029144287 0.0
vn 0.36534103751182556 -0.9308737516403198 0.0
vn 0.07473009079694748 -0.9972038269042969 0.0
vn -0.22252093255519867 -0.9749279022216797 -0.0
vn -0.5 -0.8660253882408142 -0.0
vn -0.7330518960952759 -0.6801727414131165 -0.0
vn -0.9009688496589661 -0.4338837265968323 -0.0
vn -0.9888308048248291 -0.1490422636270523 -0.0
vn -0.9888308048248291 0.1490422636270523 0.0
vn -0.9009688496589661 0.4338837265968323 0.0
vn -0.7330518960952759 0.6801727414131165 0.0
vn -0.5 0.8660253882408142 0.0
vn -0.22252093255519867 0.9749279022216797 0.0
vn 0.07473009079694748 0.9972038269042969 0.0
vn 0.36534103751182556 0.9308737516403198 0.0
vn 0.6234897971153259 0.7818315029144287 0.0
vn 0.826238751411438 0.5633200407028198 0.0
vn 0.955572783946991 0.29475516080856323 0.0
vn 1.0 1.2246468525851679e-16 0.0
vn 0.955572783946991 0.29475516080856323 0.0
vn 0.826238751411438 0.5633200407028198 0.0
vn 0.6234897971153259 0.7818315029144287 0.0
vn 0.36534103751182556 0.9308737516403198 0.0
vn 0.07473009079694748 0.9972038269042969 0.0
vn -0.22252093255519867 0.9749279022216797 0.0
vn -0.5 0.8660253882408142 0.0
vn -0.7330518960952759 0.6801727414131165 0.0
vn -0.9009688496589661 0.4338837265968323 0.0
vn -0.9888308048248291 0.1490422636270523 0.0
vn -0.9888308048248291 -0.1490422636270523 -0.0
vn -0.9009688496589661 -0.4338837265968323 -0.0
vn -0.7330518960952759 -0.6801727414131165 -0.0
vn -0.5 -0.8660253882408142 -0.0
vn -0.22252093255519867 -0.9749279022216797 -0.0
vn 0.07473009079694748 -0.9972038269042969 0.0
vn 0.36534103751182556 -0.9308737516403198 0.0
vn 0.6234897971153259 -0.7818315029144287 0.0
vn 0.826238751411438 -0.5633200407028198 0.0
vn 0.955572783946991 -0.29475516080856323 0.0
vn 1.0 1.2246468525851679e-16 0.0
vn 1.0 -1.2246468525851679e-16 0.0
vn 2.1316281596346973e-16 1.0 -0.0
vn 2.1316281596346973e-16 1.0 -0.0
vn 2.1316281596346973e-16 1.0 -0.0
vn 2.1316281596346973e-16 1.0 -0.0
vn 1.0 0.0 0.0
vn 1.0 0.0 0.0
vn 1.0 0.0 0.0
vn 1.0 0.0 0.0
vn -1.3968401804324946e-16 -1.0 0.0
vn -1.3968401804324946e-16 -1.0 0.0
vn -1.3968401804324946e-16 -1.0 0.0
vn -1.3968401804324946e-16 -1.0 0.0
vn -1.0 0.0 0.0
vn -1.0 0.0 0.0
vn -1.0 0.0 0.0
vn -1.0 0.0 0.0
vn 0.0 0.0 1.0
vn 0.0 0.0 1.0
vn 0.0 0.0 1.0
vn 0.0 0.0 1.0
vn 0.0 0.0 1.0
vn 0.0 0.0 1.0
vn 0.0 0.0 1.0
vn 0.0 0.0 1.0
vn 0.0 0.0 1.0
vn 0.0 0.0 1.0
vn 0.0 0.0 1.0
vn 0.0 0.0 1.0
vn 0.0 0.0 1.0
vn 0.0 0.0 1.0
vn 0.0 0.0 1.0
vn 0.0 0.0 1.0
vn 0.0 0.0 1.0
vn 0.0 0.0 1.0
vn 0.0 0.0 1.0
vn 0.0 0.0 1.0
vn 0.0 0.0 1.0
vn 0.0 0.0 1.0
vn 0.0 0.0 1.0
vn 0.0 0.0 1.0
vn 0.0 0.0 1.0
vn 0.0 -0.0 -1.0
vn 0.0 -0.0 -1.0
vn 0.0 -0.0 -1.0
vn 0.0 -0.0 -1.0
vn 0.0 -0.0 -1.0
vn 0.0 -0.0 -1.0
vn 0.0 -0.0 -1.0
vn 0.0 -0.0 -1.0
vn 0.0 -0.0 -1.0
vn 0.0 -0.0 -1.0
vn 0.0 -0.0 -1.0
vn 0.0 -0.0 -1.0
vn 0.0 -0.0 -1.0
vn 0.0 -0.0 -1.0
vn 0.0 -0.0 -1.0
vn 0.0 -0.0 -1.0
vn 0.0 -0.0 -1.0
vn 0.0 -0.0 -1.0
vn 0.0 -0.0 -1.0
vn 0.0 -0.0 -1.0
vn 0.0 -0.0 -1.0
vn 0.0 -0.0 -1.0
vn 0.0 -0.0 -1.0
vn 0.0 -0.0 -1.0
vn 0.0 -0.0 -1.0
g f245f692-e2c2-11ea-ab25-54bf646e7e1f
f 2//2 42//42 1//1
f 1//1 42//42 44//44
f 43//43 22//22 21//21
f 21//21 22//22 23//23
f 21//21 23//23 20//20
f 20//20 23//23 24//24
f 20//20 24//24 19//19
f 19//19 24//24 25//25
f 19//19 25//25 18//18
f 18//18 25//25 26//26
f 18//18 26//26 17//17
f 17//17 26//26 27//27
f 17//17 27//27 16//16
f 16//16 27//27 28//28
f 16//16 28//28 15//15
f 15//15 28//28 29//29
f 15//15 29//29 14//14
f 14//14 29//29 30//30
f 14//14 30//30 13//13
f 13//13 30//30 31//31
f 13//13 31//31 12//12
f 12//12 31//31 32//32
f 12//12 32//32 11//11
f 11//11 32//32 33//33
f 11//11 33//33 10//10
f 10//10 33//33 34//34
f 10//10 34//34 9//9
f 9//9 34//34 35//35
f 9//9 35//35 8//8
f 8//8 35//35 36//36
f 8//8 36//36 7//7
f 7//7 36//36 37//37
f 7//7 37//37 6//6
f 6//6 37//37 38//38
f 6//6 38//38 5//5
f 5//5 38//38 39//39
f 5//5 39//39 4//4
f 4//4 39//39 40//40
f 4//4 40//40 3//3
f 3//3 40//40 41//41
f 3//3 41//41 2//2
f 2//2 41//41 42//42
g f1f4d87a-e2c2-11ea-8c2b-54bf646e7e1f
f 45//45 46//46 48//48
f 48//48 46//46 47//47
g f1f5ea48-e2c2-11ea-b832-54bf646e7e1f
f 49//49 50//50 52//52
f 52//52 50//50 51//51
g f1f6fc00-e2c2-11ea-a93f-54bf646e7e1f
f 53//53 54//54 56//56
f 56//56 54//54 55//55
g f1f7e694-e2c2-11ea-aa3a-54bf646e7e1f
f 57//57 58//58 60//60
f 60//60 58//58 59//59
g f1f8aa24-e2c2-11ea-8e2e-54bf646e7e1f
f 81//81 61//61 83//83
f 83//83 61//61 62//62
f 83//83 62//62 82//82
f 82//82 62//62 63//63
f 82//82 63//63 64//64
f 64//64 65//65 82//82
f 82//82 65//65 66//66
f 82//82 66//66 67//67
f 82//82 67//67 85//85
f 85//85 67//67 68//68
f 85//85 68//68 69//69
f 69//69 70//70 85//85
f 85//85 70//70 71//71
f 85//85 71//71 84//84
f 84//84 71//71 72//72
f 84//84 72//72 73//73
f 73//73 74//74 84//84
f 84//84 74//74 75//75
f 84//84 75//75 76//76
f 84//84 76//76 83//83
f 83//83 76//76 77//77
f 83//83 77//77 78//78
f 78//78 79//79 83//83
f 83//83 79//79 80//80
f 83//83 80//80 81//81
g f1f96da4-e2c2-11ea-8522-54bf646e7e1f
f 106//106 86//86 107//107
f 107//107 86//86 87//87
f 107//107 87//87 88//88
f 88//88 89//89 107//107
f 107//107 89//89 90//90
f 107//107 90//90 91//91
f 91//91 92//92 107//107
f 107//107 92//92 110//110
f 110//110 92//92 93//93
f 110//110 93//93 94//94
f 94//94 95//95 110//110
f 110//110 95//95 96//96
f 110//110 96//96 97//97
f 110//110 97//97 109//109
f 109//109 97//97 98//98
f 109//109 98//98 99//99
f 99//99 100//100 109//109
f 109//109 100//100 101//101
f 109//109 101//101 108//108
f 108//108 101//101 102//102
f 108//108 102//102 103//103
f 103//103 104//104 108//108
f 108//108 104//104 105//105
f 108//108 105//105 106//106
f 108//108 106//106 107//107

# End of file