# WaveFront *.obj file
# Vertices: 136
# Triangles : 112

v 0.0 -0.30000001192092896 -0.30000001192092896
v 0.0 0.44999998807907104 -0.30000001192092896
v 0.20000000298023224 0.44999998807907104 -0.30000001192092896
v 0.20000000298023224 -0.30000001192092896 -0.30000001192092896
v 0.0 1.7999999523162842 0.15000000596046448
v 0.0 0.44999998807907104 0.15000000596046448
v 0.20000000298023224 0.44999998807907104 0.15000000596046448
v 0.20000000298023224 1.7999999523162842 0.15000000596046448
v 0.0 -0.13228756189346313 0.15000000596046448
v 0.0 0.13228756189346313 0.15000000596046448
v 0.20000000298023224 0.13228756189346313 0.15000000596046448
v 0.20000000298023224 -0.13228756189346313 0.15000000596046448
v 0.0 -0.13228756189346313 -0.15000000596046448
v 0.0 -0.15804700553417206 -0.1225607693195343
v 0.0 -0.17820978164672852 -0.09078147262334824
v 0.0 -0.19206185638904572 -0.05578747019171715
v 0.0 -0.19911274313926697 -0.018817948177456856
v 0.0 -0.19911274313926697 0.018817948177456856
v 0.0 -0.19206185638904572 0.05578747019171715
v 0.0 -0.17820978164672852 0.09078147262334824
v 0.0 -0.15804700553417206 0.1225607693195343
v 0.0 -0.13228756189346313 0.15000000596046448
v 0.20000000298023224 -0.13228756189346313 0.15000000596046448
v 0.20000000298023224 -0.15804700553417206 0.1225607693195343
v 0.20000000298023224 -0.17820978164672852 0.09078147262334824
v 0.20000000298023224 -0.19206185638904572 0.05578747019171715
v 0.20000000298023224 -0.19911274313926697 0.018817948177456856
v 0.20000000298023224 -0.19911274313926697 -0.018817948177456856
v 0.20000000298023224 -0.19206185638904572 -0.05578747019171715
v 0.20000000298023224 -0.17820978164672852 -0.09078147262334824
v 0.20000000298023224 -0.15804700553417206 -0.1225607693195343
v 0.20000000298023224 -0.13228756189346313 -0.15000000596046448
v 0.20000000298023224 0.13228756189346313 0.15000000596046448
v 0.20000000298023224 0.15804700553417206 0.1225607693195343
v 0.20000000298023224 0.17820978164672852 0.09078147262334824
v 0.20000000298023224 0.19206185638904572 0.05578747019171715
v 0.20000000298023224 0.19911274313926697 0.018817948177456856
v 0.20000000298023224 0.19911274313926697 -0.018817948177456856
v 0.20000000298023224 0.19206185638904572 -0.05578747019171715
v 0.20000000298023224 0.17820978164672852 -0.09078147262334824
v 0.20000000298023224 0.15804700553417206 -0.1225607693195343
v 0.20000000298023224 0.13228756189346313 -0.15000000596046448
v 0.20000000298023224 -0.13228756189346313 -0.15000000596046448
v 0.20000000298023224 -0.15804700553417206 -0.1225607693195343
v 0.20000000298023224 -0.17820978164672852 -0.09078147262334824
v 0.20000000298023224 -0.19206185638904572 -0.05578747019171715
v 0.20000000298023224 -0.19911274313926697 -0.018817948177456856
v 0.20000000298023224 -0.19911274313926697 0.018817948177456856
v 0.20000000298023224 -0.19206185638904572 0.05578747019171715
v 0.20000000298023224 -0.17820978164672852 0.09078147262334824
v 0.20000000298023224 -0.15804700553417206 0.1225607693195343
v 0.20000000298023224 -0.13228756189346313 0.15000000596046448
v 0.20000000298023224 -0.30000001192092896 0.30000001192092896
v 0.20000000298023224 -0.30000001192092896 -0.30000001192092896
v 0.20000000298023224 0.44999998807907104 -0.30000001192092896
v 0.20000000298023224 0.44999998807907104 -0.15000000596046448
v 0.20000000298023224 1.7999999523162842 -0.15000000596046448
v 0.20000000298023224 1.7999999523162842 0.15000000596046448
v 0.20000000298023224 0.44999998807907104 0.15000000596046448
v 0.20000000298023224 0.44999998807907104 0.30000001192092896
v 0.0 0.44999998807907104 0.30000001192092896
v 0.0 -0.30000001192092896 0.30000001192092896
v 0.20000000298023224 -0.30000001192092896 0.30000001192092896
v 0.20000000298023224 0.44999998807907104 0.30000001192092896
v 0.0 0.13228756189346313 -0.15000000596046448
v 0.0 0.15804700553417206 -0.1225607693195343
v 0.0 0.17820978164672852 -0.09078147262334824
v 0.0 0.19206185638904572 -0.05578747019171715
v 0.0 0.19911274313926697 -0.018817948177456856
v 0.0 0.19911274313926697 0.018817948177456856
v 0.0 0.19206185638904572 0.05578747019171715
v 0.0 0.17820978164672852 0.09078147262334824
v 0.0 0.15804700553417206 0.1225607693195343
v 0.0 0.13228756189346313 0.15000000596046448
v 0.0 -0.13228756189346313 0.15000000596046448
v 0.0 -0.15804700553417206 0.1225607693195343
v 0.0 -0.17820978164672852 0.09078147262334824
v 0.0 -0.19206185638904572 0.05578747019171715
v 0.0 -0.19911274313926697 0.018817948177456856
v 0.0 -0.19911274313926697 -0.018817948177456856
v 0.0 -0.19206185638904572 -0.05578747019171715
v 0.0 -0.17820978164672852 -0.09078147262334824
v 0.0 -0.15804700553417206 -0.1225607693195343
v 0.0 -0.13228756189346313 -0.15000000596046448
v 0.0 -0.30000001192092896 -0.30000001192092896
v 0.0 -0.30000001192092896 0.30000001192092896
v 0.0 0.44999998807907104 0.30000001192092896
v 0.0 0.44999998807907104 0.15000000596046448
v 0.0 1.7999999523162842 0.15000000596046448
v 0.0 1.7999999523162842 -0.15000000596046448
v 0.0 0.44999998807907104 -0.15000000596046448
v 0.0 0.44999998807907104 -0.30000001192092896
v 0.0 0.44999998807907104 -0.30000001192092896
v 0.0 0.44999998807907104 -0.15000000596046448
v 0.20000000298023224 0.44999998807907104 -0.15000000596046448
v 0.20000000298023224 0.44999998807907104 -0.30000001192092896
v 0.0 0.44999998807907104 0.15000000596046448
v 0.0 0.44999998807907104 0.30000001192092896
v 0.20000000298023224 0.44999998807907104 0.30000001192092896
v 0.20000000298023224 0.44999998807907104 0.15000000596046448
v 0.0 0.44999998807907104 -0.15000000596046448
v 0.0 1.7999999523162842 -0.15000000596046448
v 0.20000000298023224 1.7999999523162842 -0.15000000596046448
v 0.20000000298023224 0.44999998807907104 -0.15000000596046448
v 0.0 0.13228756189346313 -0.15000000596046448
v 0.0 -0.13228756189346313 -0.15000000596046448
v 0.20000000298023224 -0.13228756189346313 -0.15000000596046448
v 0.20000000298023224 0.13228756189346313 -0.15000000596046448
v 0.0 0.13228756189346313 0.15000000596046448
v 0.0 0.15804700553417206 0.1225607693195343
v 0.0 0.17820978164672852 0.09078147262334824
v 0.0 0.19206185638904572 0.05578747019171715
v 0.0 0.19911274313926697 0.018817948177456856
v 0.0 0.19911274313926697 -0.018817948177456856
v 0.0 0.19206185638904572 -0.05578747019171715
v 0.0 0.17820978164672852 -0.09078147262334824
v 0.0 0.15804700553417206 -0.1225607693195343
v 0.0 0.13228756189346313 -0.15000000596046448
v 0.20000000298023224 0.13228756189346313 -0.15000000596046448
v 0.20000000298023224 0.15804700553417206 -0.1225607693195343
v 0.20000000298023224 0.17820978164672852 -0.09078147262334824
v 0.20000000298023224 0.19206185638904572 -0.05578747019171715
v 0.20000000298023224 0.19911274313926697 -0.018817948177456856
v 0.20000000298023224 0.19911274313926697 0.018817948177456856
v 0.20000000298023224 0.19206185638904572 0.05578747019171715
v 0.20000000298023224 0.17820978164672852 0.09078147262334824
v 0.20000000298023224 0.15804700553417206 0.1225607693195343
v 0.20000000298023224 0.13228756189346313 0.15000000596046448
v 0.0 -0.30000001192092896 0.30000001192092896
v 0.0 -0.30000001192092896 -0.30000001192092896
v 0.20000000298023224 -0.30000001192092896 -0.30000001192092896
v 0.20000000298023224 -0.30000001192092896 0.30000001192092896
v 0.0 1.7999999523162842 -0.15000000596046448
v 0.0 1.7999999523162842 0.15000000596046448
v 0.20000000298023224 1.7999999523162842 0.15000000596046448
v 0.20000000298023224 1.7999999523162842 -0.15000000596046448
vn 0.0 1.4802974102831747e-16 -1.0
vn 0.0 1.4802974102831747e-16 -1.0
vn 0.0 1.4802974102831747e-16 -1.0
vn 0.0 1.4802974102831747e-16 -1.0
vn 0.0 -1.2335811972941286e-16 1.0
vn 0.0 -1.2335811972941286e-16 1.0
vn 0.0 -1.2335811972941286e-16 1.0
vn 0.0 -1.2335811972941286e-16 1.0
vn 0.0 -1.0490621504008227e-16 -1.0
vn 0.0 -1.0490621504008227e-16 -1.0
vn 0.0 -1.0490621504008227e-16 -1.0
vn 0.0 -1.0490621504008227e-16 -1.0
vn -0.0 0.6614378094673157 0.75
vn -0.0 0.7902350425720215 0.6128038167953491
vn -0.0 0.8910488486289978 0.4539073705673218
vn -0.0 0.9603093266487122 0.27893733978271484
vn -0.0 0.9955637454986572 0.09408973902463913
vn 0.0 0.9955637454986572 -0.09408973902463913
vn 0.0 0.9603093266487122 -0.27893733978271484
vn 0.0 0.8910488486289978 -0.4539073705673218
vn 0.0 0.7902350425720215 -0.6128038167953491
vn 0.0 0.6614378094673157 -0.75
vn 0.0 0.6614378094673157 -0.75
vn 0.0 0.7902350425720215 -0.6128038167953491
vn 0.0 0.8910488486289978 -0.4539073705673218
vn 0.0 0.9603093266487122 -0.27893733978271484
vn 0.0 0.9955637454986572 -0.09408973902463913
vn -0.0 0.9955637454986572 0.09408973902463913
vn -0.0 0.9603093266487122 0.27893733978271484
vn -0.0 0.8910488486289978 0.4539073705673218
vn -0.0 0.7902350425720215 0.6128038167953491
vn -0.0 0.6614378094673157 0.75
vn 1.0 0.0 0.0
vn 1.0 0.0 0.0
vn 1.0 0.0 0.0
vn 1.0 0.0 0.0
vn 1.0 0.0 0.0
vn 1.0 0.0 0.0
vn 1.0 0.0 0.0
vn 1.0 0.0 0.0
vn 1.0 0.0 0.0
vn 1.0 0.0 0.0
vn 1.0 0.0 0.0
vn 1.0 0.0 0.0
vn 1.0 0.0 0.0
vn 1.0 0.0 0.0
vn 1.0 0.0 0.0
vn 1.0 0.0 0.0
vn 1.0 0.0 0.0
vn 1.0 0.0 0.0
vn 1.0 0.0 0.0
vn 1.0 0.0 0.0
vn 1.0 0.0 0.0
vn 1.0 0.0 0.0
vn 1.0 0.0 0.0
vn 1.0 0.0 0.0
vn 1.0 0.0 0.0
vn 1.0 0.0 0.0
vn 1.0 0.0 0.0
vn 1.0 0.0 0.0
vn 0.0 -1.4802974102831747e-16 1.0
vn 0.0 -1.4802974102831747e-16 1.0
vn 0.0 -1.4802974102831747e-16 1.0
vn 0.0 -1.4802974102831747e-16 1.0
vn -1.0 -0.0 -0.0
vn -1.0 -0.0 -0.0
vn -1.0 -0.0 -0.0
vn -1.0 -0.0 -0.0
vn -1.0 -0.0 -0.0
vn -1.0 -0.0 -0.0
vn -1.0 -0.0 -0.0
vn -1.0 -0.0 -0.0
vn -1.0 -0.0 -0.0
vn -1.0 -0.0 -0.0
vn -1.0 -0.0 -0.0
vn -1.0 -0.0 -0.0
vn -1.0 -0.0 -0.0
vn -1.0 -0.0 -0.0
vn -1.0 -0.0 -0.0
vn -1.0 -0.0 -0.0
vn -1.0 -0.0 -0.0
vn -1.0 -0.0 -0.0
vn -1.0 -0.0 -0.0
vn -1.0 -0.0 -0.0
vn -1.0 -0.0 -0.0
vn -1.0 -0.0 -0.0
vn -1.0 -0.0 -0.0
vn -1.0 -0.0 -0.0
vn -1.0 -0.0 -0.0
vn -1.0 -0.0 -0.0
vn -1.0 -0.0 -0.0
vn -1.0 -0.0 -0.0
vn 0.0 1.0 0.0
vn 0.0 1.0 0.0
vn 0.0 1.0 0.0
vn 0.0 1.0 0.0
vn -0.0 1.0 0.0
vn -0.0 1.0 0.0
vn -0.0 1.0 0.0
vn -0.0 1.0 0.0
vn 0.0 1.4391779311609187e-16 -1.0
vn 0.0 1.4391779311609187e-16 -1.0
vn 0.0 1.4391779311609187e-16 -1.0
vn 0.0 1.4391779311609187e-16 -1.0
vn 0.0 -1.0490621504008227e-16 1.0
vn 0.0 -1.0490621504008227e-16 1.0
vn 0.0 -1.0490621504008227e-16 1.0
vn 0.0 -1.0490621504008227e-16 1.0
vn 0.0 -0.6614378094673157 -0.75
vn 0.0 -0.7902350425720215 -0.6128038167953491
vn 0.0 -0.8910488486289978 -0.4539073705673218
vn 0.0 -0.9603093266487122 -0.27893733978271484
vn 0.0 -0.9955637454986572 -0.09408973902463913
vn 0.0 -0.9955637454986572 0.09408973902463913
vn 0.0 -0.9603093266487122 0.27893733978271484
vn 0.0 -0.8910488486289978 0.4539073705673218
vn 0.0 -0.7902350425720215 0.6128038167953491
vn 0.0 -0.6614378094673157 0.75
vn 0.0 -0.6614378094673157 0.75
vn 0.0 -0.7902350425720215 0.6128038167953491
vn 0.0 -0.8910488486289978 0.4539073705673218
vn 0.0 -0.9603093266487122 0.27893733978271484
vn 0.0 -0.9955637454986572 0.09408973902463913
vn 0.0 -0.9955637454986572 -0.09408973902463913
vn 0.0 -0.9603093266487122 -0.27893733978271484
vn 0.0 -0.8910488486289978 -0.4539073705673218
vn 0.0 -0.7902350425720215 -0.6128038167953491
vn 0.0 -0.6614378094673157 -0.75
vn 0.0 -1.0 0.0
vn 0.0 -1.0 0.0
vn 0.0 -1.0 0.0
vn 0.0 -1.0 0.0
vn -0.0 1.0 0.0
vn -0.0 1.0 0.0
vn -0.0 1.0 0.0
vn -0.0 1.0 0.0
f 1//1 2//2 4//4
f 4//4 2//2 3//3
f 5//5 6//6 8//8
f 8//8 6//6 7//7
f 9//9 10//10 12//12
f 12//12 10//10 11//11
f 32//32 13//13 31//31
f 31//31 13//13 14//14
f 31//31 14//14 30//30
f 30//30 14//14 15//15
f 30//30 15//15 29//29
f 29//29 15//15 16//16
f 29//29 16//16 28//28
f 28//28 16//16 17//17
f 28//28 17//17 27//27
f 27//27 17//17 18//18
f 27//27 18//18 26//26
f 26//26 18//18 19//19
f 26//26 19//19 25//25
f 25//25 19//19 20//20
f 25//25 20//20 24//24
f 24//24 20//20 21//21
f 24//24 21//21 23//23
f 23//23 21//21 22//22
f 34//34 59//59 33//33
f 33//33 59//59 60//60
f 33//33 60//60 53//53
f 34//34 35//35 59//59
f 59//59 35//35 36//36
f 59//59 36//36 37//37
f 37//37 38//38 59//59
f 59//59 38//38 56//56
f 59//59 56//56 58//58
f 58//58 56//56 57//57
f 38//38 39//39 56//56
f 56//56 39//39 40//40
f 56//56 40//40 41//41
f 41//41 42//42 56//56
f 56//56 42//42 55//55
f 55//55 42//42 54//54
f 54//54 42//42 43//43
f 54//54 43//43 44//44
f 44//44 45//45 54//54
f 54//54 45//45 46//46
f 54//54 46//46 47//47
f 47//47 48//48 54//54
f 54//54 48//48 53//53
f 53//53 48//48 49//49
f 53//53 49//49 50//50
f 50//50 51//51 53//53
f 53//53 51//51 52//52
f 53//53 52//52 33//33
f 61//61 62//62 64//64
f 64//64 62//62 63//63
f 66//66 91//91 65//65
f 65//65 91//91 92//92
f 65//65 92//92 85//85
f 66//66 67//67 91//91
f 91//91 67//67 68//68
f 91//91 68//68 69//69
f 69//69 70//70 91//91
f 91//91 70//70 88//88
f 91//91 88//88 90//90
f 90//90 88//88 89//89
f 70//70 71//71 88//88
f 88//88 71//71 72//72
f 88//88 72//72 73//73
f 73//73 74//74 88//88
f 88//88 74//74 87//87
f 87//87 74//74 86//86
f 86//86 74//74 75//75
f 86//86 75//75 76//76
f 76//76 77//77 86//86
f 86//86 77//77 78//78
f 86//86 78//78 79//79
f 79//79 80//80 86//86
f 86//86 80//80 85//85
f 85//85 80//80 81//81
f 85//85 81//81 82//82
f 82//82 83//83 85//85
f 85//85 83//83 84//84
f 85//85 84//84 65//65
f 93//93 94//94 96//96
f 96//96 94//94 95//95
f 97//97 98//98 100//100
f 100//100 98//98 99//99
f 101//101 102//102 104//104
f 104//104 102//102 103//103
f 105//105 106//106 108//108
f 108//108 106//106 107//107
f 128//128 109//109 127//127
f 127//127 109//109 110//110
f 127//127 110//110 126//126
f 126//126 110//110 111//111
f 126//126 111//111 125//125
f 125//125 111//111 112//112
f 125//125 112//112 124//124
f 124//124 112//112 113//113
f 124//124 113//113 123//123
f 123//123 113//113 114//114
f 123//123 114//114 122//122
f 122//122 114//114 115//115
f 122//122 115//115 121//121
f 121//121 115//115 116//116
f 121//121 116//116 120//120
f 120//120 116//116 117//117
f 120//120 117//117 119//119
f 119//119 117//117 118//118
f 129//129 130//130 132//132
f 132//132 130//130 131//131
f 133//133 134//134 136//136
f 136//136 134//134 135//135

# End of file