# WaveFront *.obj file
# Vertices: 162
# Triangles : 140

v -258.41729736328125 4.0 101.57688903808594
v -259.1678771972656 4.0 101.57688903808594
v -259.1678771972656 4.400000095367432 101.57688903808594
v -258.41729736328125 4.400000095367432 101.57688903808594
v -258.0420227050781 4.0 102.22689056396484
v -258.41729736328125 4.0 101.57688903808594
v -258.41729736328125 4.400000095367432 101.57688903808594
v -258.0420227050781 4.400000095367432 102.22689056396484
v -258.41729736328125 4.0 102.87689208984375
v -258.0420227050781 4.0 102.22689056396484
v -258.0420227050781 4.400000095367432 102.22689056396484
v -258.41729736328125 4.400000095367432 102.87689208984375
v -259.54315185546875 4.0 102.22689056396484
v -259.1678771972656 4.0 102.87689208984375
v -259.1678771972656 4.400000095367432 102.87689208984375
v -259.54315185546875 4.400000095367432 102.22689056396484
v -259.1678771972656 4.0 102.87689208984375
v -258.41729736328125 4.0 102.87689208984375
v -258.41729736328125 4.400000095367432 102.87689208984375
v -259.1678771972656 4.400000095367432 102.87689208984375
v -259.1678771972656 4.0 101.57688903808594
v -259.54315185546875 4.0 102.22689056396484
v -259.54315185546875 4.400000095367432 102.22689056396484
v -259.1678771972656 4.400000095367432 101.57688903808594
v -258.41729736328125 4.0 102.87689208984375
v -259.1678771972656 4.0 102.87689208984375
v -259.54315185546875 4.0 102.22689056396484
v -259.1678771972656 4.0 101.57688903808594
v -258.41729736328125 4.0 101.57688903808594
v -258.0420227050781 4.0 102.22689056396484
v -259.1678771972656 4.400000095367432 102.87689208984375
v -258.41729736328125 4.400000095367432 102.87689208984375
v -258.0420227050781 4.400000095367432 102.22689056396484
v -258.41729736328125 4.400000095367432 101.57688903808594
v -259.1678771972656 4.400000095367432 101.57688903808594
v -259.54315185546875 4.400000095367432 102.22689056396484
v -264.5 4.400000095367432 95.0
v -264.5102233886719 4.400000095367432 95.10064697265625
v -264.54052734375 4.400000095367432 95.19718170166016
v -264.5896301269531 4.400000095367432 95.28563690185547
v -264.655517578125 4.400000095367432 95.36239624023438
v -264.7355041503906 4.400000095367432 95.42432403564453
v -264.82635498046875 4.400000095367432 95.46887969970703
v -264.9242858886719 4.400000095367432 95.49423217773438
v -265.02532958984375 4.400000095367432 95.49935913085938
v -265.1253356933594 4.400000095367432 95.48403930664062
v -265.2201843261719 4.400000095367432 95.44890594482422
v -265.3060607910156 4.400000095367432 95.3953857421875
v -265.3793640136719 4.400000095367432 95.32568359375
v -265.4371643066406 4.400000095367432 95.2426528930664
v -265.4770812988281 4.400000095367432 95.1496810913086
v -265.4974365234375 4.400000095367432 95.05058288574219
v -265.4974365234375 4.400000095367432 94.94941711425781
v -265.4770812988281 4.400000095367432 94.8503189086914
v -265.4371643066406 4.400000095367432 94.7573471069336
v -265.3793640136719 4.400000095367432 94.67431640625
v -265.3060607910156 4.400000095367432 94.6046142578125
v -265.2201843261719 4.400000095367432 94.55109405517578
v -265.1253356933594 4.400000095367432 94.51596069335938
v -265.02532958984375 4.400000095367432 94.50064086914062
v -264.9242858886719 4.400000095367432 94.50576782226562
v -264.82635498046875 4.400000095367432 94.53112030029297
v -264.7355041503906 4.400000095367432 94.57567596435547
v -264.655517578125 4.400000095367432 94.63760375976562
v -264.5896301269531 4.400000095367432 94.71436309814453
v -264.54052734375 4.400000095367432 94.80281829833984
v -264.5102233886719 4.400000095367432 94.89935302734375
v -264.5 9.600000381469727 95.0
v -264.5102233886719 9.600000381469727 94.89935302734375
v -264.54052734375 9.600000381469727 94.80281829833984
v -264.5896301269531 9.600000381469727 94.71436309814453
v -264.655517578125 9.600000381469727 94.63760375976562
v -264.7355041503906 9.600000381469727 94.57567596435547
v -264.82635498046875 9.600000381469727 94.53112030029297
v -264.9242858886719 9.600000381469727 94.50576782226562
v -265.02532958984375 9.600000381469727 94.50064086914062
v -265.1253356933594 9.600000381469727 94.51596069335938
v -265.2201843261719 9.600000381469727 94.55109405517578
v -265.3060607910156 9.600000381469727 94.6046142578125
v -265.3793640136719 9.600000381469727 94.67431640625
v -265.4371643066406 9.600000381469727 94.7573471069336
v -265.4770812988281 9.600000381469727 94.8503189086914
v -265.4974365234375 9.600000381469727 94.94941711425781
v -265.4974365234375 9.600000381469727 95.05058288574219
v -265.4770812988281 9.600000381469727 95.1496810913086
v -265.4371643066406 9.600000381469727 95.2426528930664
v -265.3793640136719 9.600000381469727 95.32568359375
v -265.3060607910156 9.600000381469727 95.3953857421875
v -265.2201843261719 9.600000381469727 95.44890594482422
v -265.1253356933594 9.600000381469727 95.48403930664062
v -265.02532958984375 9.600000381469727 95.49935913085938
v -264.9242858886719 9.600000381469727 95.49423217773438
v -264.82635498046875 9.600000381469727 95.46887969970703
v -264.7355041503906 9.600000381469727 95.42432403564453
v -264.655517578125 9.600000381469727 95.36239624023438
v -264.5896301269531 9.600000381469727 95.28563690185547
v -264.54052734375 9.600000381469727 95.19718170166016
v -264.5102233886719 9.600000381469727 95.10064697265625
v -264.5 9.600000381469727 95.0
v -264.5102233886719 9.600000381469727 95.10064697265625
v -264.54052734375 9.600000381469727 95.19718170166016
v -264.5896301269531 9.600000381469727 95.28563690185547
v -264.655517578125 9.600000381469727 95.36239624023438
v -264.7355041503906 9.600000381469727 95.42432403564453
v -264.82635498046875 9.600000381469727 95.46887969970703
v -264.9242858886719 9.600000381469727 95.49423217773438
v -265.02532958984375 9.600000381469727 95.49935913085938
v -265.1253356933594 9.600000381469727 95.48403930664062
v -265.2201843261719 9.600000381469727 95.44890594482422
v -265.3060607910156 9.600000381469727 95.3953857421875
v -265.3793640136719 9.600000381469727 95.32568359375
v -265.4371643066406 9.600000381469727 95.2426528930664
v -265.4770812988281 9.600000381469727 95.1496810913086
v -265.4974365234375 9.600000381469727 95.05058288574219
v -265.4974365234375 9.600000381469727 94.94941711425781
v -265.4770812988281 9.600000381469727 94.8503189086914
v -265.4371643066406 9.600000381469727 94.7573471069336
v -265.3793640136719 9.600000381469727 94.67431640625
v -265.3060607910156 9.600000381469727 94.6046142578125
v -265.2201843261719 9.600000381469727 94.55109405517578
v -265.1253356933594 9.600000381469727 94.51596069335938
v -265.02532958984375 9.600000381469727 94.50064086914062
v -264.9242858886719 9.600000381469727 94.50576782226562
v -264.82635498046875 9.600000381469727 94.53112030029297
v -264.7355041503906 9.600000381469727 94.57567596435547
v -264.655517578125 9.600000381469727 94.63760375976562
v -264.5896301269531 9.600000381469727 94.71436309814453
v -264.54052734375 9.600000381469727 94.80281829833984
v -264.5102233886719 9.600000381469727 94.89935302734375
v -264.5 4.400000095367432 95.0
v -264.5102233886719 4.400000095367432 94.89935302734375
v -264.54052734375 4.400000095367432 94.80281829833984
v -264.5896301269531 4.400000095367432 94.71436309814453
v -264.655517578125 4.400000095367432 94.63760375976562
v -264.7355041503906 4.400000095367432 94.57567596435547
v -264.82635498046875 4.400000095367432 94.53112030029297
v -264.9242858886719 4.400000095367432 94.50576782226562
v -265.02532958984375 4.400000095367432 94.50064086914062
v -265.1253356933594 4.400000095367432 94.51596069335938
v -265.2201843261719 4.400000095367432 94.55109405517578
v -265.3060607910156 4.400000095367432 94.6046142578125
v -265.3793640136719 4.400000095367432 94.67431640625
v -265.4371643066406 4.400000095367432 94.7573471069336
v -265.4770812988281 4.400000095367432 94.8503189086914
v -265.4974365234375 4.400000095367432 94.94941711425781
v -265.4974365234375 4.400000095367432 95.05058288574219
v -265.4770812988281 4.400000095367432 95.1496810913086
v -265.4371643066406 4.400000095367432 95.2426528930664
v -265.3793640136719 4.400000095367432 95.32568359375
v -265.3060607910156 4.400000095367432 95.3953857421875
v -265.2201843261719 4.400000095367432 95.44890594482422
v -265.1253356933594 4.400000095367432 95.48403930664062
v -265.02532958984375 4.400000095367432 95.49935913085938
v -264.9242858886719 4.400000095367432 95.49423217773438
v -264.82635498046875 4.400000095367432 95.46887969970703
v -264.7355041503906 4.400000095367432 95.42432403564453
v -264.655517578125 4.400000095367432 95.36239624023438
v -264.5896301269531 4.400000095367432 95.28563690185547
v -264.54052734375 4.400000095367432 95.19718170166016
v -264.5102233886719 4.400000095367432 95.10064697265625
v -264.5 4.400000095367432 95.0
v -264.5 9.600000381469727 95.0
vn 3.5043443705673125e-14 0.0 -1.0
vn 3.5043443705673125e-14 0.0 -1.0
vn 3.5043443705673125e-14 0.0 -1.0
vn 3.5043443705673125e-14 0.0 -1.0
vn 0.8660253882408142 0.0 -0.5
vn 0.8660253882408142 0.0 -0.5
vn 0.8660253882408142 0.0 -0.5
vn 0.8660253882408142 0.0 -0.5
vn 0.8660253882408142 -0.0 0.5
vn 0.8660253882408142 -0.0 0.5
vn 0.8660253882408142 -0.0 0.5
vn 0.8660253882408142 -0.0 0.5
vn -0.8660253882408142 0.0 0.5
vn -0.8660253882408142 0.0 0.5
vn -0.8660253882408142 0.0 0.5
vn -0.8660253882408142 0.0 0.5
vn -1.610965694339144e-14 0.0 1.0
vn -1.610965694339144e-14 0.0 1.0
vn -1.610965694339144e-14 0.0 1.0
vn -1.610965694339144e-14 0.0 1.0
vn -0.8660253882408142 0.0 -0.5
vn -0.8660253882408142 0.0 -0.5
vn -0.8660253882408142 0.0 -0.5
vn -0.8660253882408142 0.0 -0.5
vn -9.298117831235686e-16 -1.0 -9.090625596451618e-17
vn -9.298117831235686e-16 -1.0 -9.090625596451618e-17
vn -9.298117831235686e-16 -1.0 -9.090625596451618e-17
vn -9.298117831235686e-16 -1.0 -9.090625596451618e-17
vn -9.298117831235686e-16 -1.0 -9.090625596451618e-17
vn -9.298117831235686e-16 -1.0 -9.090625596451618e-17
vn 0.0 1.0 0.0
vn 0.0 1.0 0.0
vn 0.0 1.0 0.0
vn 0.0 1.0 0.0
vn 0.0 1.0 0.0
vn 0.0 1.0 0.0
vn -0.0 -1.0 -0.0
vn -0.0 -1.0 -0.0
vn -0.0 -1.0 -0.0
vn -0.0 -1.0 -0.0
vn -0.0 -1.0 -0.0
vn -0.0 -1.0 -0.0
vn -0.0 -1.0 -0.0
vn -0.0 -1.0 -0.0
vn -0.0 -1.0 -0.0
vn -0.0 -1.0 -0.0
vn -0.0 -1.0 -0.0
vn -0.0 -1.0 -0.0
vn -0.0 -1.0 -0.0
vn -0.0 -1.0 -0.0
vn -0.0 -1.0 -0.0
vn -0.0 -1.0 -0.0
vn -0.0 -1.0 -0.0
vn -0.0 -1.0 -0.0
vn -0.0 -1.0 -0.0
vn -0.0 -1.0 -0.0
vn -0.0 -1.0 -0.0
vn -0.0 -1.0 -0.0
vn -0.0 -1.0 -0.0
vn -0.0 -1.0 -0.0
vn -0.0 -1.0 -0.0
vn -0.0 -1.0 -0.0
vn -0.0 -1.0 -0.0
vn -0.0 -1.0 -0.0
vn -0.0 -1.0 -0.0
vn -0.0 -1.0 -0.0
vn -0.0 -1.0 -0.0
vn 0.0 1.0 0.0
vn 0.0 1.0 0.0
vn 0.0 1.0 0.0
vn 0.0 1.0 0.0
vn 0.0 1.0 0.0
vn 0.0 1.0 0.0
vn 0.0 1.0 0.0
vn 0.0 1.0 0.0
vn 0.0 1.0 0.0
vn 0.0 1.0 0.0
vn 0.0 1.0 0.0
vn 0.0 1.0 0.0
vn 0.0 1.0 0.0
vn 0.0 1.0 0.0
vn 0.0 1.0 0.0
vn 0.0 1.0 0.0
vn 0.0 1.0 0.0
vn 0.0 1.0 0.0
vn 0.0 1.0 0.0
vn 0.0 1.0 0.0
vn 0.0 1.0 0.0
vn 0.0 1.0 0.0
vn 0.0 1.0 0.0
vn 0.0 1.0 0.0
vn 0.0 1.0 0.0
vn 0.0 1.0 0.0
vn 0.0 1.0 0.0
vn 0.0 1.0 0.0
vn 0.0 1.0 0.0
vn 0.0 1.0 0.0
vn 0.0 1.0 0.0
vn 1.0 -0.0 1.2246468525851679e-16
vn 0.9795299172401428 -0.0 0.2012985199689865
vn 0.9189578294754028 -0.0 0.3943558633327484
vn 0.8207634687423706 -0.0 0.5712682008743286
vn 0.6889669299125671 -0.0 0.7247927784919739
vn 0.5289639830589294 -0.0 0.8486442565917969
vn 0.3473052382469177 -0.0 0.9377521276473999
vn 0.15142777562141418 -0.0 0.98846834897995
vn -0.05064916983246803 -0.0 0.9987165331840515
vn -0.2506525218486786 -0.0 0.9680771231651306
vn -0.44039416313171387 -0.0 0.8978045582771301
vn -0.6121059656143188 -0.0 0.790775716304779
vn -0.7587581276893616 -0.0 0.651372492313385
vn -0.8743466138839722 -0.0 0.4853019714355469
vn -0.954139232635498 -0.0 0.2993631362915039
vn -0.9948693513870239 -0.0 0.10116831958293915
vn -0.9948693513870239 0.0 -0.10116831958293915
vn -0.954139232635498 0.0 -0.2993631362915039
vn -0.8743466138839722 0.0 -0.4853019714355469
vn -0.7587581276893616 0.0 -0.651372492313385
vn -0.6121059656143188 0.0 -0.790775716304779
vn -0.44039416313171387 0.0 -0.8978045582771301
vn -0.2506525218486786 0.0 -0.9680771231651306
vn -0.05064916983246803 0.0 -0.9987165331840515
vn 0.15142777562141418 -0.0 -0.98846834897995
vn 0.3473052382469177 -0.0 -0.9377521276473999
vn 0.5289639830589294 -0.0 -0.8486442565917969
vn 0.6889669299125671 -0.0 -0.7247927784919739
vn 0.8207634687423706 -0.0 -0.5712682008743286
vn 0.9189578294754028 -0.0 -0.3943558633327484
vn 0.9795299172401428 -0.0 -0.2012985199689865
vn 1.0 -0.0 -1.2246468525851679e-16
vn 0.9795299172401428 -0.0 -0.2012985199689865
vn 0.9189578294754028 -0.0 -0.3943558633327484
vn 0.8207634687423706 -0.0 -0.5712682008743286
vn 0.6889669299125671 -0.0 -0.7247927784919739
vn 0.5289639830589294 -0.0 -0.8486442565917969
vn 0.3473052382469177 -0.0 -0.9377521276473999
vn 0.15142777562141418 -0.0 -0.98846834897995
vn -0.05064916983246803 0.0 -0.9987165331840515
vn -0.2506525218486786 0.0 -0.9680771231651306
vn -0.44039416313171387 0.0 -0.8978045582771301
vn -0.6121059656143188 0.0 -0.790775716304779
vn -0.7587581276893616 0.0 -0.651372492313385
vn -0.8743466138839722 0.0 -0.4853019714355469
vn -0.954139232635498 0.0 -0.2993631362915039
vn -0.9948693513870239 0.0 -0.10116831958293915
vn -0.9948693513870239 -0.0 0.10116831958293915
vn -0.954139232635498 -0.0 0.2993631362915039
vn -0.8743466138839722 -0.0 0.4853019714355469
vn -0.7587581276893616 -0.0 0.651372492313385
vn -0.6121059656143188 -0.0 0.790775716304779
vn -0.44039416313171387 -0.0 0.8978045582771301
vn -0.2506525218486786 -0.0 0.9680771231651306
vn -0.05064916983246803 -0.0 0.9987165331840515
vn 0.15142777562141418 -0.0 0.98846834897995
vn 0.3473052382469177 -0.0 0.9377521276473999
vn 0.5289639830589294 -0.0 0.8486442565917969
vn 0.6889669299125671 -0.0 0.7247927784919739
vn 0.8207634687423706 -0.0 0.5712682008743286
vn 0.9189578294754028 -0.0 0.3943558633327484
vn 0.9795299172401428 -0.0 0.2012985199689865
vn 1.0 -0.0 1.2246468525851679e-16
vn 1.0 -0.0 -1.2246468525851679e-16
f 1//1 2//2 4//4
f 4//4 2//2 3//3
f 5//5 6//6 8//8
f 8//8 6//6 7//7
f 9//9 10//10 12//12
f 12//12 10//10 11//11
f 13//13 14//14 16//16
f 16//16 14//14 15//15
f 17//17 18//18 20//20
f 20//20 18//18 19//19
f 21//21 22//22 24//24
f 24//24 22//22 23//23
f 25//25 26//26 30//30
f 30//30 26//26 27//27
f 30//30 27//27 29//29
f 29//29 27//27 28//28
f 32//32 33//33 31//31
f 31//31 33//33 36//36
f 36//36 33//33 34//34
f 36//36 34//34 35//35
f 38//38 52//52 37//37
f 37//37 52//52 53//53
f 37//37 53//53 67//67
f 67//67 53//53 54//54
f 67//67 54//54 66//66
f 66//66 54//54 55//55
f 66//66 55//55 65//65
f 65//65 55//55 56//56
f 65//65 56//56 64//64
f 64//64 56//56 57//57
f 64//64 57//57 63//63
f 63//63 57//57 58//58
f 63//63 58//58 62//62
f 62//62 58//58 59//59
f 62//62 59//59 61//61
f 61//61 59//59 60//60
f 52//52 38//38 51//51
f 51//51 38//38 39//39
f 51//51 39//39 50//50
f 50//50 39//39 40//40
f 50//50 40//40 49//49
f 49//49 40//40 41//41
f 49//49 41//41 48//48
f 48//48 41//41 42//42
f 48//48 42//42 47//47
f 47//47 42//42 43//43
f 47//47 43//43 46//46
f 46//46 43//43 44//44
f 46//46 44//44 45//45
f 69//69 83//83 68//68
f 68//68 83//83 84//84
f 68//68 84//84 98//98
f 98//98 84//84 85//85
f 98//98 85//85 97//97
f 97//97 85//85 86//86
f 97//97 86//86 96//96
f 96//96 86//86 87//87
f 96//96 87//87 95//95
f 95//95 87//87 88//88
f 95//95 88//88 94//94
f 94//94 88//88 89//89
f 94//94 89//89 93//93
f 93//93 89//89 90//90
f 93//93 90//90 92//92
f 92//92 90//90 91//91
f 83//83 69//69 82//82
f 82//82 69//69 70//70
f 82//82 70//70 81//81
f 81//81 70//70 71//71
f 81//81 71//71 80//80
f 80//80 71//71 72//72
f 80//80 72//72 79//79
f 79//79 72//72 73//73
f 79//79 73//73 78//78
f 78//78 73//73 74//74
f 78//78 74//74 77//77
f 77//77 74//74 75//75
f 77//77 75//75 76//76
f 100//100 160//160 99//99
f 99//99 160//160 161//161
f 162//162 130//130 129//129
f 129//129 130//130 131//131
f 129//129 131//131 128//128
f 128//128 131//131 132//132
f 128//128 132//132 127//127
f 127//127 132//132 133//133
f 127//127 133//133 126//126
f 126//126 133//133 134//134
f 126//126 134//134 125//125
f 125//125 134//134 135//135
f 125//125 135//135 124//124
f 124//124 135//135 136//136
f 124//124 136//136 123//123
f 123//123 136//136 137//137
f 123//123 137//137 122//122
f 122//122 137//137 138//138
f 122//122 138//138 121//121
f 121//121 138//138 139//139
f 121//121 139//139 120//120
f 120//120 139//139 140//140
f 120//120 140//140 119//119
f 119//119 140//140 141//141
f 119//119 141//141 118//118
f 118//118 141//141 142//142
f 118//118 142//142 117//117
f 117//117 142//142 143//143
f 117//117 143//143 116//116
f 116//116 143//143 144//144
f 116//116 144//144 115//115
f 115//115 144//144 145//145
f 115//115 145//145 114//114
f 114//114 145//145 146//146
f 114//114 146//146 113//113
f 113//113 146//146 147//147
f 113//113 147//147 112//112
f 112//112 147//147 148//148
f 112//112 148//148 111//111
f 111//111 148//148 149//149
f 111//111 149//149 110//110
f 110//110 149//149 150//150
f 110//110 150//150 109//109
f 109//109 150//150 151//151
f 109//109 151//151 108//108
f 108//108 151//151 152//152
f 108//108 152//152 107//107
f 107//107 152//152 153//153
f 107//107 153//153 106//106
f 106//106 153//153 154//154
f 106//106 154//154 105//105
f 105//105 154//154 155//155
f 105//105 155//155 104//104
f 104//104 155//155 156//156
f 104//104 156//156 103//103
f 103//103 156//156 157//157
f 103//103 157//157 102//102
f 102//102 157//157 158//158
f 102//102 158//158 101//101
f 101//101 158//158 159//159
f 101//101 159//159 100//100
f 100//100 159//159 160//160

# End of file