# WaveFront *.obj file
# Vertices: 136
# Triangles : 120

v -0.8973097801208496 0.0 0.15000000596046448
v -0.8750137686729431 0.0 0.20257697999477386
v -0.8418166041374207 0.0 0.24904626607894897
v -0.7993074655532837 0.0 0.2871831953525543
v -0.7495215535163879 0.0 0.31516194343566895
v -0.6948422789573669 0.0 0.33164307475090027
v -0.6378874182701111 0.0 0.33583754301071167
v -0.5813836455345154 0.0 0.32754454016685486
v -0.5280360579490662 0.0 0.3071611225605011
v -0.48039865493774414 0.0 0.2756630778312683
v -0.4407519996166229 0.0 0.23455841839313507
v -0.4109942317008972 0.0 0.1858149617910385
v -0.39254990220069885 0.0 0.13176631927490234
v -0.38630211353302 0.0 0.07500000298023224
v -0.39254990220069885 0.0 0.018233686685562134
v -0.4109942317008972 0.0 -0.03581497073173523
v -0.4407519996166229 0.0 -0.0845584124326706
v -0.48039865493774414 0.0 -0.12566308677196503
v -0.5280360579490662 0.0 -0.15716111660003662
v -0.5813836455345154 0.0 -0.17754454910755157
v -0.6378874182701111 0.0 -0.1858375370502472
v -0.6948422789573669 0.0 -0.1816430687904358
v -0.7495215535163879 0.0 -0.16516193747520447
v -0.7993074655532837 0.0 -0.13718318939208984
v -0.8418166041374207 0.0 -0.0990462675690651
v -0.8750137686729431 0.0 -0.05257697403430939
v -0.8973097801208496 0.0 0.0
v -0.8973097801208496 1.5 0.0
v -0.8750137686729431 1.5 -0.05257697403430939
v -0.8418166041374207 1.5 -0.0990462675690651
v -0.7993074655532837 1.5 -0.13718318939208984
v -0.7495215535163879 1.5 -0.16516193747520447
v -0.6948422789573669 1.5 -0.1816430687904358
v -0.6378874182701111 1.5 -0.1858375370502472
v -0.5813836455345154 1.5 -0.17754454910755157
v -0.5280360579490662 1.5 -0.15716111660003662
v -0.48039865493774414 1.5 -0.12566308677196503
v -0.4407519996166229 1.5 -0.0845584124326706
v -0.4109942317008972 1.5 -0.03581497073173523
v -0.39254990220069885 1.5 0.018233686685562134
v -0.38630211353302 1.5 0.07500000298023224
v -0.39254990220069885 1.5 0.13176631927490234
v -0.4109942317008972 1.5 0.1858149617910385
v -0.4407519996166229 1.5 0.23455841839313507
v -0.48039865493774414 1.5 0.2756630778312683
v -0.5280360579490662 1.5 0.3071611225605011
v -0.5813836455345154 1.5 0.32754454016685486
v -0.6378874182701111 1.5 0.33583754301071167
v -0.6948422789573669 1.5 0.33164307475090027
v -0.7495215535163879 1.5 0.31516194343566895
v -0.7993074655532837 1.5 0.2871831953525543
v -0.8418166041374207 1.5 0.24904626607894897
v -0.8750137686729431 1.5 0.20257697999477386
v -0.8973097801208496 1.5 0.15000000596046448
v -0.8973097801208496 0.0 0.15000000596046448
v -0.8973097801208496 1.5 0.15000000596046448
v -0.9000000357627869 1.5 0.15000000596046448
v -0.9000000357627869 3.0 0.15000000596046448
v -1.898777723312378 3.0 0.15000000596046448
v -1.898777723312378 0.0 0.15000000596046448
v -0.8973097801208496 1.5 0.0
v -0.9000000357627869 1.5 0.0
v -0.9000000357627869 1.5 0.15000000596046448
v -0.8973097801208496 1.5 0.15000000596046448
v -0.8750137686729431 1.5 0.20257697999477386
v -0.8418166041374207 1.5 0.24904626607894897
v -0.7993074655532837 1.5 0.2871831953525543
v -0.7495215535163879 1.5 0.31516194343566895
v -0.6948422789573669 1.5 0.33164307475090027
v -0.6378874182701111 1.5 0.33583754301071167
v -0.5813836455345154 1.5 0.32754454016685486
v -0.5280360579490662 1.5 0.3071611225605011
v -0.48039865493774414 1.5 0.2756630778312683
v -0.4407519996166229 1.5 0.23455841839313507
v -0.4109942317008972 1.5 0.1858149617910385
v -0.39254990220069885 1.5 0.13176631927490234
v -0.38630211353302 1.5 0.07500000298023224
v -0.39254990220069885 1.5 0.018233686685562134
v -0.4109942317008972 1.5 -0.03581497073173523
v -0.4407519996166229 1.5 -0.0845584124326706
v -0.48039865493774414 1.5 -0.12566308677196503
v -0.5280360579490662 1.5 -0.15716111660003662
v -0.5813836455345154 1.5 -0.17754454910755157
v -0.6378874182701111 1.5 -0.1858375370502472
v -0.6948422789573669 1.5 -0.1816430687904358
v -0.7495215535163879 1.5 -0.16516193747520447
v -0.7993074655532837 1.5 -0.13718318939208984
v -0.8418166041374207 1.5 -0.0990462675690651
v -0.8750137686729431 1.5 -0.05257697403430939
v -0.9000000357627869 1.5 0.0
v -0.9000000357627869 3.0 0.0
v -0.9000000357627869 3.0 0.15000000596046448
v -0.9000000357627869 1.5 0.15000000596046448
v -1.898777723312378 0.0 0.0
v -1.898777723312378 0.0 0.15000000596046448
v -1.898777723312378 3.0 0.15000000596046448
v -1.898777723312378 3.0 0.0
v -0.8973097801208496 1.5 0.0
v -0.8973097801208496 0.0 0.0
v -1.898777723312378 0.0 0.0
v -1.898777723312378 3.0 0.0
v -0.9000000357627869 3.0 0.0
v -0.9000000357627869 1.5 0.0
v -0.9000000357627869 3.0 0.15000000596046448
v -0.9000000357627869 3.0 0.0
v -1.898777723312378 3.0 0.0
v -1.898777723312378 3.0 0.15000000596046448
v -0.8973097801208496 0.0 0.15000000596046448
v -1.898777723312378 0.0 0.15000000596046448
v -1.898777723312378 0.0 0.0
v -0.8973097801208496 0.0 0.0
v -0.8750137686729431 0.0 -0.05257697403430939
v -0.8418166041374207 0.0 -0.0990462675690651
v -0.7993074655532837 0.0 -0.13718318939208984
v -0.7495215535163879 0.0 -0.16516193747520447
v -0.6948422789573669 0.0 -0.1816430687904358
v -0.6378874182701111 0.0 -0.1858375370502472
v -0.5813836455345154 0.0 -0.17754454910755157
v -0.5280360579490662 0.0 -0.15716111660003662
v -0.48039865493774414 0.0 -0.12566308677196503
v -0.4407519996166229 0.0 -0.0845584124326706
v -0.4109942317008972 0.0 -0.03581497073173523
v -0.39254990220069885 0.0 0.018233686685562134
v -0.38630211353302 0.0 0.07500000298023224
v -0.39254990220069885 0.0 0.13176631927490234
v -0.4109942317008972 0.0 0.1858149617910385
v -0.4407519996166229 0.0 0.23455841839313507
v -0.48039865493774414 0.0 0.2756630778312683
v -0.5280360579490662 0.0 0.3071611225605011
v -0.5813836455345154 0.0 0.32754454016685486
v -0.6378874182701111 0.0 0.33583754301071167
v -0.6948422789573669 0.0 0.33164307475090027
v -0.7495215535163879 0.0 0.31516194343566895
v -0.7993074655532837 0.0 0.2871831953525543
v -0.8418166041374207 0.0 0.24904626607894897
v -0.8750137686729431 0.0 0.20257697999477386
vn -0.9578262567520142 -0.0 0.2873478829860687
vn -0.8724035620689392 -0.0 0.4887863099575043
vn -0.7452149391174316 -0.0 0.6668243408203125
vn -0.5823495388031006 -0.0 0.8129385113716125
vn -0.3916044533252716 -0.0 0.920133650302887
vn -0.18211150169372559 -0.0 0.9832778573036194
vn 0.03609994053840637 -0.0 0.9993481636047363
vn 0.2525831162929535 -0.0 0.967575192451477
vn 0.45697399973869324 -0.0 0.8894800543785095
vn 0.6394875049591064 -0.0 0.7688015103340149
vn 0.7913858294487 -0.0 0.611316978931427
vn 0.9053969979286194 -0.0 0.42456597089767456
vn 0.9760627746582031 -0.0 0.2174890637397766
vn 1.0 -0.0 -0.0
vn 0.9760627746582031 -0.0 -0.2174890637397766
vn 0.9053969979286194 -0.0 -0.42456597089767456
vn 0.7913858294487 -0.0 -0.611316978931427
vn 0.6394875049591064 -0.0 -0.7688015103340149
vn 0.45697399973869324 -0.0 -0.8894800543785095
vn 0.2525831162929535 -0.0 -0.967575192451477
vn 0.03609994053840637 -0.0 -0.9993481636047363
vn -0.18211150169372559 0.0 -0.9832778573036194
vn -0.3916044533252716 0.0 -0.920133650302887
vn -0.5823495388031006 0.0 -0.8129385113716125
vn -0.7452149391174316 0.0 -0.6668243408203125
vn -0.8724035620689392 0.0 -0.4887863099575043
vn -0.9578262567520142 0.0 -0.2873478829860687
vn -0.9578262567520142 0.0 -0.2873478829860687
vn -0.8724035620689392 0.0 -0.4887863099575043
vn -0.7452149391174316 0.0 -0.6668243408203125
vn -0.5823495388031006 0.0 -0.8129385113716125
vn -0.3916044533252716 0.0 -0.920133650302887
vn -0.18211150169372559 0.0 -0.9832778573036194
vn 0.03609994053840637 -0.0 -0.9993481636047363
vn 0.2525831162929535 -0.0 -0.967575192451477
vn 0.45697399973869324 -0.0 -0.8894800543785095
vn 0.6394875049591064 -0.0 -0.7688015103340149
vn 0.7913858294487 -0.0 -0.611316978931427
vn 0.9053969979286194 -0.0 -0.42456597089767456
vn 0.9760627746582031 -0.0 -0.2174890637397766
vn 1.0 -0.0 -0.0
vn 0.9760627746582031 -0.0 0.2174890637397766
vn 0.9053969979286194 -0.0 0.42456597089767456
vn 0.7913858294487 -0.0 0.611316978931427
vn 0.6394875049591064 -0.0 0.7688015103340149
vn 0.45697399973869324 -0.0 0.8894800543785095
vn 0.2525831162929535 -0.0 0.967575192451477
vn 0.03609994053840637 -0.0 0.9993481636047363
vn -0.18211150169372559 -0.0 0.9832778573036194
vn -0.3916044533252716 -0.0 0.920133650302887
vn -0.5823495388031006 -0.0 0.8129385113716125
vn -0.7452149391174316 -0.0 0.6668243408203125
vn -0.8724035620689392 -0.0 0.4887863099575043
vn -0.9578262567520142 -0.0 0.2873478829860687
vn 0.0 -0.0 1.0
vn 0.0 -0.0 1.0
vn 0.0 -0.0 1.0
vn 0.0 -0.0 1.0
vn 0.0 -0.0 1.0
vn 0.0 -0.0 1.0
vn -0.0 1.0 -0.0
vn -0.0 1.0 -0.0
vn -0.0 1.0 -0.0
vn -0.0 1.0 -0.0
vn -0.0 1.0 -0.0
vn -0.0 1.0 -0.0
vn -0.0 1.0 -0.0
vn -0.0 1.0 -0.0
vn -0.0 1.0 -0.0
vn -0.0 1.0 -0.0
vn -0.0 1.0 -0.0
vn -0.0 1.0 -0.0
vn -0.0 1.0 -0.0
vn -0.0 1.0 -0.0
vn -0.0 1.0 -0.0
vn -0.0 1.0 -0.0
vn -0.0 1.0 -0.0
vn -0.0 1.0 -0.0
vn -0.0 1.0 -0.0
vn -0.0 1.0 -0.0
vn -0.0 1.0 -0.0
vn -0.0 1.0 -0.0
vn -0.0 1.0 -0.0
vn -0.0 1.0 -0.0
vn -0.0 1.0 -0.0
vn -0.0 1.0 -0.0
vn -0.0 1.0 -0.0
vn -0.0 1.0 -0.0
vn -0.0 1.0 -0.0
vn 1.0 -0.0 -0.0
vn 1.0 -0.0 -0.0
vn 1.0 -0.0 -0.0
vn 1.0 -0.0 -0.0
vn -1.0 0.0 0.0
vn -1.0 0.0 0.0
vn -1.0 0.0 0.0
vn -1.0 0.0 0.0
vn 0.0 0.0 -1.0
vn 0.0 0.0 -1.0
vn 0.0 0.0 -1.0
vn 0.0 0.0 -1.0
vn 0.0 0.0 -1.0
vn 0.0 0.0 -1.0
vn 0.0 1.0 0.0
vn 0.0 1.0 0.0
vn 0.0 1.0 0.0
vn 0.0 1.0 0.0
vn -0.0 -1.0 -0.0
vn -0.0 -1.0 -0.0
vn -0.0 -1.0 -0.0
vn -0.0 -1.0 -0.0
vn -0.0 -1.0 -0.0
vn -0.0 -1.0 -0.0
vn -0.0 -1.0 -0.0
vn -0.0 -1.0 -0.0
vn -0.0 -1.0 -0.0
vn -0.0 -1.0 -0.0
vn -0.0 -1.0 -0.0
vn -0.0 -1.0 -0.0
vn -0.0 -1.0 -0.0
vn -0.0 -1.0 -0.0
vn -0.0 -1.0 -0.0
vn -0.0 -1.0 -0.0
vn -0.0 -1.0 -0.0
vn -0.0 -1.0 -0.0
vn -0.0 -1.0 -0.0
vn -0.0 -1.0 -0.0
vn -0.0 -1.0 -0.0
vn -0.0 -1.0 -0.0
vn -0.0 -1.0 -0.0
vn -0.0 -1.0 -0.0
vn -0.0 -1.0 -0.0
vn -0.0 -1.0 -0.0
vn -0.0 -1.0 -0.0
vn -0.0 -1.0 -0.0
vn -0.0 -1.0 -0.0
g 036c75a8-e2a4-11ea-b927-54bf646e7e1f
f 54//54 1//1 53//53
f 53//53 1//1 2//2
f 53//53 2//2 52//52
f 52//52 2//2 3//3
f 52//52 3//3 51//51
f 51//51 3//3 4//4
f 51//51 4//4 50//50
f 50//50 4//4 5//5
f 50//50 5//5 49//49
f 49//49 5//5 6//6
f 49//49 6//6 48//48
f 48//48 6//6 7//7
f 48//48 7//7 47//47
f 47//47 7//7 8//8
f 47//47 8//8 46//46
f 46//46 8//8 9//9
f 46//46 9//9 45//45
f 45//45 9//9 10//10
f 45//45 10//10 44//44
f 44//44 10//10 11//11
f 44//44 11//11 43//43
f 43//43 11//11 12//12
f 43//43 12//12 42//42
f 42//42 12//12 13//13
f 42//42 13//13 41//41
f 41//41 13//13 14//14
f 41//41 14//14 40//40
f 40//40 14//14 15//15
f 40//40 15//15 39//39
f 39//39 15//15 16//16
f 39//39 16//16 38//38
f 38//38 16//16 17//17
f 38//38 17//17 37//37
f 37//37 17//17 18//18
f 37//37 18//18 36//36
f 36//36 18//18 19//19
f 36//36 19//19 35//35
f 35//35 19//19 20//20
f 35//35 20//20 34//34
f 34//34 20//20 21//21
f 34//34 21//21 33//33
f 33//33 21//21 22//22
f 33//33 22//22 32//32
f 32//32 22//22 23//23
f 32//32 23//23 31//31
f 31//31 23//23 24//24
f 31//31 24//24 30//30
f 30//30 24//24 25//25
f 30//30 25//25 29//29
f 29//29 25//25 26//26
f 29//29 26//26 28//28
f 28//28 26//26 27//27
g ff9bc18a-e2a3-11ea-9a02-54bf646e7e1f
f 56//56 57//57 55//55
f 55//55 57//57 60//60
f 60//60 57//57 59//59
f 59//59 57//57 58//58
g 007d2946-e2a4-11ea-83b4-54bf646e7e1f
f 62//62 63//63 61//61
f 61//61 63//63 64//64
f 61//61 64//64 89//89
f 89//89 64//64 65//65
f 89//89 65//65 88//88
f 88//88 65//65 66//66
f 88//88 66//66 87//87
f 87//87 66//66 67//67
f 87//87 67//67 86//86
f 86//86 67//67 68//68
f 86//86 68//68 85//85
f 85//85 68//68 69//69
f 85//85 69//69 84//84
f 84//84 69//69 70//70
f 84//84 70//70 83//83
f 83//83 70//70 71//71
f 83//83 71//71 82//82
f 82//82 71//71 72//72
f 82//82 72//72 81//81
f 81//81 72//72 73//73
f 81//81 73//73 80//80
f 80//80 73//73 74//74
f 80//80 74//74 79//79
f 79//79 74//74 75//75
f 79//79 75//75 78//78
f 78//78 75//75 76//76
f 78//78 76//76 77//77
g 009ff4d4-e2a4-11ea-a781-54bf646e7e1f
f 91//91 92//92 90//90
f 90//90 92//92 93//93
g ff680576-e2a3-11ea-b6d6-54bf646e7e1f
f 94//94 95//95 97//97
f 97//97 95//95 96//96
g ff6fce06-e2a3-11ea-9611-54bf646e7e1f
f 98//98 99//99 103//103
f 103//103 99//99 100//100
f 103//103 100//100 101//101
f 101//101 102//102 103//103
g ffa18e42-e2a3-11ea-a0a9-54bf646e7e1f
f 105//105 106//106 104//104
f 104//104 106//106 107//107
g ffa70cd0-e2a3-11ea-a6f7-54bf646e7e1f
f 109//109 111//111 108//108
f 108//108 111//111 124//124
f 108//108 124//124 125//125
f 109//109 110//110 111//111
f 112//112 122//122 111//111
f 111//111 122//122 123//123
f 111//111 123//123 124//124
f 122//122 112//112 121//121
f 121//121 112//112 113//113
f 121//121 113//113 120//120
f 120//120 113//113 114//114
f 120//120 114//114 119//119
f 119//119 114//114 115//115
f 119//119 115//115 118//118
f 118//118 115//115 116//116
f 118//118 116//116 117//117
f 125//125 126//126 108//108
f 108//108 126//126 136//136
f 136//136 126//126 127//127
f 136//136 127//127 135//135
f 135//135 127//127 128//128
f 135//135 128//128 134//134
f 134//134 128//128 129//129
f 134//134 129//129 133//133
f 133//133 129//129 130//130
f 133//133 130//130 132//132
f 132//132 130//130 131//131

# End of file