# WaveFront *.obj file
# Vertices: 190
# Triangles : 176

v 6.0 0.0 -0.5
v 1.14183509349823 0.0 -0.9727346301078796
v 1.14183509349823 0.10000000149011612 -0.9727346301078796
v 6.0 0.10000000149011612 -0.5
v 6.0 0.0 0.5
v 6.1039557456970215 0.0 0.48907381296157837
v 6.203368186950684 0.0 0.45677271485328674
v 6.293892860412598 0.0 0.404508501291275
v 6.371572494506836 0.0 0.33456531167030334
v 6.43301248550415 0.0 0.25
v 6.475528240203857 0.0 0.15450850129127502
v 6.497261047363281 0.0 0.05226423218846321
v 6.497261047363281 0.0 -0.05226423218846321
v 6.475528240203857 0.0 -0.15450850129127502
v 6.43301248550415 0.0 -0.25
v 6.371572494506836 0.0 -0.33456531167030334
v 6.293892860412598 0.0 -0.404508501291275
v 6.203368186950684 0.0 -0.45677271485328674
v 6.1039557456970215 0.0 -0.48907381296157837
v 6.0 0.0 -0.5
v 6.0 0.10000000149011612 -0.5
v 6.1039557456970215 0.10000000149011612 -0.48907381296157837
v 6.203368186950684 0.10000000149011612 -0.45677271485328674
v 6.293892860412598 0.10000000149011612 -0.404508501291275
v 6.371572494506836 0.10000000149011612 -0.33456531167030334
v 6.43301248550415 0.10000000149011612 -0.25
v 6.475528240203857 0.10000000149011612 -0.15450850129127502
v 6.497261047363281 0.10000000149011612 -0.05226423218846321
v 6.497261047363281 0.10000000149011612 0.05226423218846321
v 6.475528240203857 0.10000000149011612 0.15450850129127502
v 6.43301248550415 0.10000000149011612 0.25
v 6.371572494506836 0.10000000149011612 0.33456531167030334
v 6.293892860412598 0.10000000149011612 0.404508501291275
v 6.203368186950684 0.10000000149011612 0.45677271485328674
v 6.1039557456970215 0.10000000149011612 0.48907381296157837
v 6.0 0.10000000149011612 0.5
v 6.150000095367432 1.899999976158142 -1.8369702788777518e-17
v 6.1385817527771 1.899999976158142 -0.057402513921260834
v 6.1060662269592285 1.899999976158142 -0.1060660183429718
v 6.057402610778809 1.899999976158142 -0.13858193159103394
v 6.0 1.899999976158142 -0.15000000596046448
v 5.942597389221191 1.899999976158142 -0.13858193159103394
v 5.8939337730407715 1.899999976158142 -0.1060660183429718
v 5.8614182472229 1.899999976158142 -0.057402513921260834
v 5.849999904632568 1.899999976158142 0.0
v 5.8614182472229 1.899999976158142 0.057402513921260834
v 5.8939337730407715 1.899999976158142 0.1060660183429718
v 5.942597389221191 1.899999976158142 0.13858193159103394
v 6.0 1.899999976158142 0.15000000596046448
v 6.057402610778809 1.899999976158142 0.13858193159103394
v 6.1060662269592285 1.899999976158142 0.1060660183429718
v 6.1385817527771 1.899999976158142 0.057402513921260834
v 1.14183509349823 0.0 0.9727346301078796
v 6.0 0.0 0.5
v 6.0 0.10000000149011612 0.5
v 1.14183509349823 0.10000000149011612 0.9727346301078796
v 6.150000095367432 0.10000000149011612 -1.8369702788777518e-17
v 6.1385817527771 0.10000000149011612 0.057402513921260834
v 6.1060662269592285 0.10000000149011612 0.1060660183429718
v 6.057402610778809 0.10000000149011612 0.13858193159103394
v 6.0 0.10000000149011612 0.15000000596046448
v 5.942597389221191 0.10000000149011612 0.13858193159103394
v 5.8939337730407715 0.10000000149011612 0.1060660183429718
v 5.8614182472229 0.10000000149011612 0.057402513921260834
v 5.849999904632568 0.10000000149011612 0.0
v 5.8614182472229 0.10000000149011612 -0.057402513921260834
v 5.8939337730407715 0.10000000149011612 -0.1060660183429718
v 5.942597389221191 0.10000000149011612 -0.13858193159103394
v 6.0 0.10000000149011612 -0.15000000596046448
v 6.057402610778809 0.10000000149011612 -0.13858193159103394
v 6.1060662269592285 0.10000000149011612 -0.1060660183429718
v 6.1385817527771 0.10000000149011612 -0.057402513921260834
v 1.14183509349823 0.10000000149011612 0.9727346301078796
v 6.0 0.10000000149011612 0.5
v 6.1039557456970215 0.10000000149011612 0.48907381296157837
v 6.203368186950684 0.10000000149011612 0.45677271485328674
v 6.293892860412598 0.10000000149011612 0.404508501291275
v 6.371572494506836 0.10000000149011612 0.33456531167030334
v 6.43301248550415 0.10000000149011612 0.25
v 6.475528240203857 0.10000000149011612 0.15450850129127502
v 6.497261047363281 0.10000000149011612 0.05226423218846321
v 6.497261047363281 0.10000000149011612 -0.05226423218846321
v 6.475528240203857 0.10000000149011612 -0.15450850129127502
v 6.43301248550415 0.10000000149011612 -0.25
v 6.371572494506836 0.10000000149011612 -0.33456531167030334
v 6.293892860412598 0.10000000149011612 -0.404508501291275
v 6.203368186950684 0.10000000149011612 -0.45677271485328674
v 6.1039557456970215 0.10000000149011612 -0.48907381296157837
v 6.0 0.10000000149011612 -0.5
v 1.14183509349823 0.10000000149011612 -0.9727346301078796
v 1.248078465461731 0.10000000149011612 -0.8320457935333252
v 1.3370811939239502 0.10000000149011612 -0.6798632144927979
v 1.4076136350631714 0.10000000149011612 -0.5182892084121704
v 1.458701729774475 0.10000000149011612 -0.349555641412735
v 1.4896396398544312 0.10000000149011612 -0.17599338293075562
v 1.5 0.10000000149011612 -3.3306690738754696e-16
v 1.4896396398544312 0.10000000149011612 0.17599338293075562
v 1.458701729774475 0.10000000149011612 0.349555641412735
v 1.4076136350631714 0.10000000149011612 0.5182892084121704
v 1.3370811939239502 0.10000000149011612 0.6798632144927979
v 1.248078465461731 0.10000000149011612 0.8320457935333252
v 6.0 0.0 0.5
v 1.14183509349823 0.0 0.9727346301078796
v 1.248078465461731 0.0 0.8320457935333252
v 1.3370811939239502 0.0 0.6798632144927979
v 1.4076136350631714 0.0 0.5182892084121704
v 1.458701729774475 0.0 0.349555641412735
v 1.4896396398544312 0.0 0.17599338293075562
v 1.5 0.0 -1.6653345369377348e-16
v 1.4896396398544312 0.0 -0.17599338293075562
v 1.458701729774475 0.0 -0.349555641412735
v 1.4076136350631714 0.0 -0.5182892084121704
v 1.3370811939239502 0.0 -0.6798632144927979
v 1.248078465461731 0.0 -0.8320457935333252
v 1.14183509349823 0.0 -0.9727346301078796
v 6.0 0.0 -0.5
v 6.1039557456970215 0.0 -0.48907381296157837
v 6.203368186950684 0.0 -0.45677271485328674
v 6.293892860412598 0.0 -0.404508501291275
v 6.371572494506836 0.0 -0.33456531167030334
v 6.43301248550415 0.0 -0.25
v 6.475528240203857 0.0 -0.15450850129127502
v 6.497261047363281 0.0 -0.05226423218846321
v 6.497261047363281 0.0 0.05226423218846321
v 6.475528240203857 0.0 0.15450850129127502
v 6.43301248550415 0.0 0.25
v 6.371572494506836 0.0 0.33456531167030334
v 6.293892860412598 0.0 0.404508501291275
v 6.203368186950684 0.0 0.45677271485328674
v 6.1039557456970215 0.0 0.48907381296157837
v 6.150000095367432 1.899999976158142 -1.8369702788777518e-17
v 6.1385817527771 1.899999976158142 0.057402513921260834
v 6.1060662269592285 1.899999976158142 0.1060660183429718
v 6.057402610778809 1.899999976158142 0.13858193159103394
v 6.0 1.899999976158142 0.15000000596046448
v 5.942597389221191 1.899999976158142 0.13858193159103394
v 5.8939337730407715 1.899999976158142 0.1060660183429718
v 5.8614182472229 1.899999976158142 0.057402513921260834
v 5.849999904632568 1.899999976158142 0.0
v 5.8614182472229 1.899999976158142 -0.057402513921260834
v 5.8939337730407715 1.899999976158142 -0.1060660183429718
v 5.942597389221191 1.899999976158142 -0.13858193159103394
v 6.0 1.899999976158142 -0.15000000596046448
v 6.057402610778809 1.899999976158142 -0.13858193159103394
v 6.1060662269592285 1.899999976158142 -0.1060660183429718
v 6.1385817527771 1.899999976158142 -0.057402513921260834
v 6.150000095367432 0.10000000149011612 -1.8369702788777518e-17
v 6.1385817527771 0.10000000149011612 -0.057402513921260834
v 6.1060662269592285 0.10000000149011612 -0.1060660183429718
v 6.057402610778809 0.10000000149011612 -0.13858193159103394
v 6.0 0.10000000149011612 -0.15000000596046448
v 5.942597389221191 0.10000000149011612 -0.13858193159103394
v 5.8939337730407715 0.10000000149011612 -0.1060660183429718
v 5.8614182472229 0.10000000149011612 -0.057402513921260834
v 5.849999904632568 0.10000000149011612 0.0
v 5.8614182472229 0.10000000149011612 0.057402513921260834
v 5.8939337730407715 0.10000000149011612 0.1060660183429718
v 5.942597389221191 0.10000000149011612 0.13858193159103394
v 6.0 0.10000000149011612 0.15000000596046448
v 6.057402610778809 0.10000000149011612 0.13858193159103394
v 6.1060662269592285 0.10000000149011612 0.1060660183429718
v 6.1385817527771 0.10000000149011612 0.057402513921260834
v 6.150000095367432 0.10000000149011612 -1.8369702788777518e-17
v 6.150000095367432 1.899999976158142 -1.8369702788777518e-17
v 1.14183509349823 0.0 -0.9727346301078796
v 1.248078465461731 0.0 -0.8320457935333252
v 1.3370811939239502 0.0 -0.6798632144927979
v 1.4076136350631714 0.0 -0.5182892084121704
v 1.458701729774475 0.0 -0.349555641412735
v 1.4896396398544312 0.0 -0.17599338293075562
v 1.5 0.0 -1.6653345369377348e-16
v 1.4896396398544312 0.0 0.17599338293075562
v 1.458701729774475 0.0 0.349555641412735
v 1.4076136350631714 0.0 0.5182892084121704
v 1.3370811939239502 0.0 0.6798632144927979
v 1.248078465461731 0.0 0.8320457935333252
v 1.14183509349823 0.0 0.9727346301078796
v 1.14183509349823 0.10000000149011612 0.9727346301078796
v 1.248078465461731 0.10000000149011612 0.8320457935333252
v 1.3370811939239502 0.10000000149011612 0.6798632144927979
v 1.4076136350631714 0.10000000149011612 0.5182892084121704
v 1.458701729774475 0.10000000149011612 0.349555641412735
v 1.4896396398544312 0.10000000149011612 0.17599338293075562
v 1.5 0.10000000149011612 -3.3306690738754696e-16
v 1.4896396398544312 0.10000000149011612 -0.17599338293075562
v 1.458701729774475 0.10000000149011612 -0.349555641412735
v 1.4076136350631714 0.10000000149011612 -0.5182892084121704
v 1.3370811939239502 0.10000000149011612 -0.6798632144927979
v 1.248078465461731 0.10000000149011612 -0.8320457935333252
v 1.14183509349823 0.10000000149011612 -0.9727346301078796
vn 0.09684979915618896 0.0 -0.9952989816665649
vn 0.09684979915618896 0.0 -0.9952989816665649
vn 0.09684979915618896 0.0 -0.9952989816665649
vn 0.09684979915618896 0.0 -0.9952989816665649
vn -0.0 -0.0 1.0
vn 0.2079116851091385 -0.0 0.9781476259231567
vn 0.4067366421222687 -0.0 0.9135454297065735
vn 0.5877852439880371 -0.0 0.80901700258255
vn 0.7431448101997375 -0.0 0.6691306233406067
vn 0.8660253882408142 -0.0 0.5
vn 0.9510565400123596 -0.0 0.30901700258255005
vn 0.9945219159126282 -0.0 0.10452846437692642
vn 0.9945219159126282 -0.0 -0.10452846437692642
vn 0.9510565400123596 -0.0 -0.30901700258255005
vn 0.8660253882408142 -0.0 -0.5
vn 0.7431448101997375 -0.0 -0.6691306233406067
vn 0.5877852439880371 -0.0 -0.80901700258255
vn 0.4067366421222687 -0.0 -0.9135454297065735
vn 0.2079116851091385 -0.0 -0.9781476259231567
vn 1.2246468525851679e-16 -0.0 -1.0
vn 1.2246468525851679e-16 -0.0 -1.0
vn 0.2079116851091385 -0.0 -0.9781476259231567
vn 0.4067366421222687 -0.0 -0.9135454297065735
vn 0.5877852439880371 -0.0 -0.80901700258255
vn 0.7431448101997375 -0.0 -0.6691306233406067
vn 0.8660253882408142 -0.0 -0.5
vn 0.9510565400123596 -0.0 -0.30901700258255005
vn 0.9945219159126282 -0.0 -0.10452846437692642
vn 0.9945219159126282 -0.0 0.10452846437692642
vn 0.9510565400123596 -0.0 0.30901700258255005
vn 0.8660253882408142 -0.0 0.5
vn 0.7431448101997375 -0.0 0.6691306233406067
vn 0.5877852439880371 -0.0 0.80901700258255
vn 0.4067366421222687 -0.0 0.9135454297065735
vn 0.2079116851091385 -0.0 0.9781476259231567
vn -0.0 -0.0 1.0
vn 0.0 1.0 0.0
vn 0.0 1.0 0.0
vn 0.0 1.0 0.0
vn 0.0 1.0 0.0
vn 0.0 1.0 0.0
vn 0.0 1.0 0.0
vn 0.0 1.0 0.0
vn 0.0 1.0 0.0
vn 0.0 1.0 0.0
vn 0.0 1.0 0.0
vn 0.0 1.0 0.0
vn 0.0 1.0 0.0
vn 0.0 1.0 0.0
vn 0.0 1.0 0.0
vn 0.0 1.0 0.0
vn 0.0 1.0 0.0
vn 0.09684979915618896 -0.0 0.9952989816665649
vn 0.09684979915618896 -0.0 0.9952989816665649
vn 0.09684979915618896 -0.0 0.9952989816665649
vn 0.09684979915618896 -0.0 0.9952989816665649
vn 0.0 1.0 0.0
vn 0.0 1.0 0.0
vn 0.0 1.0 0.0
vn 0.0 1.0 0.0
vn 0.0 1.0 0.0
vn 0.0 1.0 0.0
vn 0.0 1.0 0.0
vn 0.0 1.0 0.0
vn 0.0 1.0 0.0
vn 0.0 1.0 0.0
vn 0.0 1.0 0.0
vn 0.0 1.0 0.0
vn 0.0 1.0 0.0
vn 0.0 1.0 0.0
vn 0.0 1.0 0.0
vn 0.0 1.0 0.0
vn 0.0 1.0 0.0
vn 0.0 1.0 0.0
vn 0.0 1.0 0.0
vn 0.0 1.0 0.0
vn 0.0 1.0 0.0
vn 0.0 1.0 0.0
vn 0.0 1.0 0.0
vn 0.0 1.0 0.0
vn 0.0 1.0 0.0
vn 0.0 1.0 0.0
vn 0.0 1.0 0.0
vn 0.0 1.0 0.0
vn 0.0 1.0 0.0
vn 0.0 1.0 0.0
vn 0.0 1.0 0.0
vn 0.0 1.0 0.0
vn 0.0 1.0 0.0
vn 0.0 1.0 0.0
vn 0.0 1.0 0.0
vn 0.0 1.0 0.0
vn 0.0 1.0 0.0
vn 0.0 1.0 0.0
vn 0.0 1.0 0.0
vn 0.0 1.0 0.0
vn 0.0 1.0 0.0
vn 0.0 1.0 0.0
vn 0.0 1.0 0.0
vn 0.0 1.0 0.0
vn 0.0 1.0 0.0
vn -0.0 -1.0 -0.0
vn -0.0 -1.0 -0.0
vn -0.0 -1.0 -0.0
vn -0.0 -1.0 -0.0
vn -0.0 -1.0 -0.0
vn -0.0 -1.0 -0.0
vn -0.0 -1.0 -0.0
vn -0.0 -1.0 -0.0
vn -0.0 -1.0 -0.0
vn -0.0 -1.0 -0.0
vn -0.0 -1.0 -0.0
vn -0.0 -1.0 -0.0
vn -0.0 -1.0 -0.0
vn -0.0 -1.0 -0.0
vn -0.0 -1.0 -0.0
vn -0.0 -1.0 -0.0
vn -0.0 -1.0 -0.0
vn -0.0 -1.0 -0.0
vn -0.0 -1.0 -0.0
vn -0.0 -1.0 -0.0
vn -0.0 -1.0 -0.0
vn -0.0 -1.0 -0.0
vn -0.0 -1.0 -0.0
vn -0.0 -1.0 -0.0
vn -0.0 -1.0 -0.0
vn -0.0 -1.0 -0.0
vn -0.0 -1.0 -0.0
vn -0.0 -1.0 -0.0
vn -0.0 -1.0 -0.0
vn 1.0 -0.0 1.2246468525851679e-16
vn 0.9238795042037964 -0.0 0.3826834261417389
vn 0.7071067690849304 -0.0 0.7071067690849304
vn 0.3826834261417389 -0.0 0.9238795042037964
vn -6.123234262925839e-17 -0.0 1.0
vn -0.3826834261417389 -0.0 0.9238795042037964
vn -0.7071067690849304 -0.0 0.7071067690849304
vn -0.9238795042037964 -0.0 0.3826834261417389
vn -1.0 -0.0 0.0
vn -0.9238795042037964 0.0 -0.3826834261417389
vn -0.7071067690849304 0.0 -0.7071067690849304
vn -0.3826834261417389 0.0 -0.9238795042037964
vn -6.123234262925839e-17 0.0 -1.0
vn 0.3826834261417389 -0.0 -0.9238795042037964
vn 0.7071067690849304 -0.0 -0.7071067690849304
vn 0.9238795042037964 -0.0 -0.3826834261417389
vn 1.0 -0.0 -1.2246468525851679e-16
vn 0.9238795042037964 -0.0 -0.3826834261417389
vn 0.7071067690849304 -0.0 -0.7071067690849304
vn 0.3826834261417389 -0.0 -0.9238795042037964
vn -6.123234262925839e-17 0.0 -1.0
vn -0.3826834261417389 0.0 -0.9238795042037964
vn -0.7071067690849304 0.0 -0.7071067690849304
vn -0.9238795042037964 0.0 -0.3826834261417389
vn -1.0 -0.0 0.0
vn -0.9238795042037964 -0.0 0.3826834261417389
vn -0.7071067690849304 -0.0 0.7071067690849304
vn -0.3826834261417389 -0.0 0.9238795042037964
vn -6.123234262925839e-17 -0.0 1.0
vn 0.3826834261417389 -0.0 0.9238795042037964
vn 0.7071067690849304 -0.0 0.7071067690849304
vn 0.9238795042037964 -0.0 0.3826834261417389
vn 1.0 -0.0 1.2246468525851679e-16
vn 1.0 -0.0 -1.2246468525851679e-16
vn -0.7612233757972717 0.0 0.648489773273468
vn -0.8320522904396057 0.0 0.5546972155570984
vn -0.891387403011322 0.0 0.45324215292930603
vn -0.938409149646759 0.0 0.3455261290073395
vn -0.972467839717865 0.0 0.2330370843410492
vn -0.9930931329727173 0.0 0.11732891947031021
vn -1.0 0.0 1.1102230246251565e-16
vn -0.9930931329727173 0.0 -0.11732891947031021
vn -0.972467839717865 0.0 -0.2330370843410492
vn -0.938409149646759 0.0 -0.3455261290073395
vn -0.891387403011322 0.0 -0.45324215292930603
vn -0.8320522904396057 0.0 -0.5546972155570984
vn -0.7612233757972717 0.0 -0.648489773273468
vn -0.7612233757972717 0.0 -0.648489773273468
vn -0.8320522904396057 0.0 -0.5546972155570984
vn -0.891387403011322 0.0 -0.45324215292930603
vn -0.938409149646759 0.0 -0.3455261290073395
vn -0.972467839717865 0.0 -0.2330370843410492
vn -0.9930931329727173 0.0 -0.11732891947031021
vn -1.0 0.0 2.220446049250313e-16
vn -0.9930931329727173 0.0 0.11732891947031021
vn -0.972467839717865 0.0 0.2330370843410492
vn -0.938409149646759 0.0 0.3455261290073395
vn -0.891387403011322 0.0 0.45324215292930603
vn -0.8320522904396057 0.0 0.5546972155570984
vn -0.7612233757972717 0.0 0.648489773273468
f 1//1 2//2 4//4
f 4//4 2//2 3//3
f 36//36 5//5 35//35
f 35//35 5//5 6//6
f 35//35 6//6 34//34
f 34//34 6//6 7//7
f 34//34 7//7 33//33
f 33//33 7//7 8//8
f 33//33 8//8 32//32
f 32//32 8//8 9//9
f 32//32 9//9 31//31
f 31//31 9//9 10//10
f 31//31 10//10 30//30
f 30//30 10//10 11//11
f 30//30 11//11 29//29
f 29//29 11//11 12//12
f 29//29 12//12 28//28
f 28//28 12//12 13//13
f 28//28 13//13 27//27
f 27//27 13//13 14//14
f 27//27 14//14 26//26
f 26//26 14//14 15//15
f 26//26 15//15 25//25
f 25//25 15//15 16//16
f 25//25 16//16 24//24
f 24//24 16//16 17//17
f 24//24 17//17 23//23
f 23//23 17//17 18//18
f 23//23 18//18 22//22
f 22//22 18//18 19//19
f 22//22 19//19 21//21
f 21//21 19//19 20//20
f 38//38 44//44 37//37
f 37//37 44//44 45//45
f 37//37 45//45 52//52
f 52//52 45//45 46//46
f 52//52 46//46 51//51
f 51//51 46//46 47//47
f 51//51 47//47 50//50
f 50//50 47//47 48//48
f 50//50 48//48 49//49
f 44//44 38//38 43//43
f 43//43 38//38 39//39
f 43//43 39//39 42//42
f 42//42 39//39 40//40
f 42//42 40//40 41//41
f 53//53 54//54 56//56
f 56//56 54//54 55//55
f 58//58 81//81 57//57
f 57//57 81//81 82//82
f 57//57 82//82 72//72
f 72//72 82//82 83//83
f 72//72 83//83 71//71
f 71//71 83//83 70//70
f 70//70 83//83 84//84
f 70//70 84//84 69//69
f 69//69 84//84 85//85
f 69//69 85//85 86//86
f 81//81 58//58 80//80
f 80//80 58//58 59//59
f 80//80 59//59 60//60
f 80//80 60//60 79//79
f 79//79 60//60 61//61
f 79//79 61//61 78//78
f 78//78 61//61 77//77
f 77//77 61//61 76//76
f 76//76 61//61 74//74
f 76//76 74//74 75//75
f 61//61 62//62 74//74
f 74//74 62//62 63//63
f 74//74 63//63 98//98
f 98//98 63//63 97//97
f 97//97 63//63 64//64
f 97//97 64//64 96//96
f 96//96 64//64 65//65
f 96//96 65//65 66//66
f 96//96 66//66 95//95
f 95//95 66//66 67//67
f 95//95 67//67 94//94
f 94//94 67//67 89//89
f 94//94 89//89 93//93
f 93//93 89//89 92//92
f 92//92 89//89 91//91
f 91//91 89//89 90//90
f 67//67 68//68 89//89
f 89//89 68//68 69//69
f 89//89 69//69 87//87
f 87//87 69//69 86//86
f 73//73 74//74 101//101
f 101//101 74//74 100//100
f 100//100 74//74 99//99
f 99//99 74//74 98//98
f 87//87 88//88 89//89
f 103//103 104//104 102//102
f 102//102 104//104 105//105
f 102//102 105//105 106//106
f 106//106 107//107 102//102
f 102//102 107//107 108//108
f 102//102 108//108 109//109
f 110//110 116//116 109//109
f 109//109 116//116 124//124
f 109//109 124//124 102//102
f 102//102 124//124 125//125
f 102//102 125//125 126//126
f 110//110 111//111 116//116
f 116//116 111//111 112//112
f 116//116 112//112 113//113
f 113//113 114//114 116//116
f 116//116 114//114 115//115
f 117//117 118//118 116//116
f 116//116 118//118 119//119
f 116//116 119//119 120//120
f 120//120 121//121 116//116
f 116//116 121//121 122//122
f 116//116 122//122 123//123
f 123//123 124//124 116//116
f 126//126 127//127 102//102
f 102//102 127//127 128//128
f 102//102 128//128 129//129
f 129//129 130//130 102//102
f 132//132 162//162 131//131
f 131//131 162//162 163//163
f 164//164 147//147 146//146
f 146//146 147//147 148//148
f 146//146 148//148 145//145
f 145//145 148//148 149//149
f 145//145 149//149 144//144
f 144//144 149//149 150//150
f 144//144 150//150 143//143
f 143//143 150//150 151//151
f 143//143 151//151 142//142
f 142//142 151//151 152//152
f 142//142 152//152 141//141
f 141//141 152//152 153//153
f 141//141 153//153 140//140
f 140//140 153//153 154//154
f 140//140 154//154 139//139
f 139//139 154//154 155//155
f 139//139 155//155 138//138
f 138//138 155//155 156//156
f 138//138 156//156 137//137
f 137//137 156//156 157//157
f 137//137 157//157 136//136
f 136//136 157//157 158//158
f 136//136 158//158 135//135
f 135//135 158//158 159//159
f 135//135 159//159 134//134
f 134//134 159//159 160//160
f 134//134 160//160 133//133
f 133//133 160//160 161//161
f 133//133 161//161 132//132
f 132//132 161//161 162//162
f 190//190 165//165 189//189
f 189//189 165//165 166//166
f 189//189 166//166 188//188
f 188//188 166//166 167//167
f 188//188 167//167 187//187
f 187//187 167//167 168//168
f 187//187 168//168 186//186
f 186//186 168//168 169//169
f 186//186 169//169 185//185
f 185//185 169//169 170//170
f 185//185 170//170 184//184
f 184//184 170//170 171//171
f 184//184 171//171 183//183
f 183//183 171//171 172//172
f 183//183 172//172 182//182
f 182//182 172//172 173//173
f 182//182 173//173 181//181
f 181//181 173//173 174//174
f 181//181 174//174 180//180
f 180//180 174//174 175//175
f 180//180 175//175 179//179
f 179//179 175//175 176//176
f 179//179 176//176 178//178
f 178//178 176//176 177//177

# End of file