# WaveFront *.obj file
# Vertices: 132
# Triangles : 108

v -0.6000000238418579 3.6649980545043945 -15.550000190734863
v -0.6000000238418579 3.694387435913086 -15.540451049804688
v -0.6000000238418579 3.7125508785247803 -15.515450477600098
v -0.6000000238418579 3.7125508785247803 -15.484549522399902
v -0.6000000238418579 3.694387435913086 -15.459548950195312
v -0.6000000238418579 3.6649980545043945 -15.449999809265137
v -0.6000000238418579 3.6356089115142822 -15.459548950195312
v -0.6000000238418579 3.617445230484009 -15.484549522399902
v -0.6000000238418579 3.617445230484009 -15.515450477600098
v -0.6000000238418579 3.6356089115142822 -15.540451049804688
v 0.0 3.6649980545043945 -15.550000190734863
v 0.0 3.6356089115142822 -15.540451049804688
v 0.0 3.617445230484009 -15.515450477600098
v 0.0 3.617445230484009 -15.484549522399902
v 0.0 3.6356089115142822 -15.459548950195312
v 0.0 3.6649980545043945 -15.449999809265137
v 0.0 3.694387435913086 -15.459548950195312
v 0.0 3.7125508785247803 -15.484549522399902
v 0.0 3.7125508785247803 -15.515450477600098
v 0.0 3.694387435913086 -15.540451049804688
v 0.0 3.6649980545043945 -15.550000190734863
v -0.6000000238418579 3.6649980545043945 -15.550000190734863
v -0.6000000238418579 3.6649980545043945 -15.550000190734863
v -0.6000000238418579 3.6356089115142822 -15.540451049804688
v -0.6000000238418579 3.617445230484009 -15.515450477600098
v -0.6000000238418579 3.617445230484009 -15.484549522399902
v -0.6000000238418579 3.6356089115142822 -15.459548950195312
v -0.6000000238418579 3.6649980545043945 -15.449999809265137
v -0.6000000238418579 3.694387435913086 -15.459548950195312
v -0.6000000238418579 3.7125508785247803 -15.484549522399902
v -0.6000000238418579 3.7125508785247803 -15.515450477600098
v -0.6000000238418579 3.694387435913086 -15.540451049804688
v -0.6000000238418579 3.6649980545043945 -12.550000190734863
v -0.6000000238418579 3.694387435913086 -12.540451049804688
v -0.6000000238418579 3.7125508785247803 -12.515450477600098
v -0.6000000238418579 3.7125508785247803 -12.484549522399902
v -0.6000000238418579 3.694387435913086 -12.459548950195312
v -0.6000000238418579 3.6649980545043945 -12.449999809265137
v -0.6000000238418579 3.6356089115142822 -12.459548950195312
v -0.6000000238418579 3.617445230484009 -12.484549522399902
v -0.6000000238418579 3.617445230484009 -12.515450477600098
v -0.6000000238418579 3.6356089115142822 -12.540451049804688
v 0.0 3.6649980545043945 -12.550000190734863
v 0.0 3.6356089115142822 -12.540451049804688
v 0.0 3.617445230484009 -12.515450477600098
v 0.0 3.617445230484009 -12.484549522399902
v 0.0 3.6356089115142822 -12.459548950195312
v 0.0 3.6649980545043945 -12.449999809265137
v 0.0 3.694387435913086 -12.459548950195312
v 0.0 3.7125508785247803 -12.484549522399902
v 0.0 3.7125508785247803 -12.515450477600098
v 0.0 3.694387435913086 -12.540451049804688
v 0.0 3.6649980545043945 -12.550000190734863
v -0.6000000238418579 3.6649980545043945 -12.550000190734863
v -0.6000000238418579 3.6649980545043945 -12.550000190734863
v -0.6000000238418579 3.6356089115142822 -12.540451049804688
v -0.6000000238418579 3.617445230484009 -12.515450477600098
v -0.6000000238418579 3.617445230484009 -12.484549522399902
v -0.6000000238418579 3.6356089115142822 -12.459548950195312
v -0.6000000238418579 3.6649980545043945 -12.449999809265137
v -0.6000000238418579 3.694387435913086 -12.459548950195312
v -0.6000000238418579 3.7125508785247803 -12.484549522399902
v -0.6000000238418579 3.7125508785247803 -12.515450477600098
v -0.6000000238418579 3.694387435913086 -12.540451049804688
v 0.0 4.300000190734863 -16.700000762939453
v 0.0 3.799999952316284 -16.700000762939453
v 0.30000001192092896 3.799999952316284 -16.700000762939453
v 0.30000001192092896 4.300000190734863 -16.700000762939453
v 0.0 4.300000190734863 -17.0
v 0.0 4.300000190734863 -16.700000762939453
v 0.30000001192092896 4.300000190734863 -16.700000762939453
v 0.30000001192092896 4.300000190734863 -17.0
v 0.0 3.5 -17.0
v 0.0 4.300000190734863 -17.0
v 0.30000001192092896 4.300000190734863 -17.0
v 0.30000001192092896 3.5 -17.0
v 0.0 3.5 -11.0
v 0.0 3.5 -17.0
v 0.30000001192092896 3.5 -17.0
v 0.30000001192092896 3.5 -11.0
v 0.0 4.300000190734863 -11.0
v 0.0 3.5 -11.0
v 0.30000001192092896 3.5 -11.0
v 0.30000001192092896 4.300000190734863 -11.0
v 0.0 4.300000190734863 -11.300000190734863
v 0.0 4.300000190734863 -11.0
v 0.30000001192092896 4.300000190734863 -11.0
v 0.30000001192092896 4.300000190734863 -11.300000190734863
v 0.0 3.799999952316284 -11.300000190734863
v 0.0 4.300000190734863 -11.300000190734863
v 0.30000001192092896 4.300000190734863 -11.300000190734863
v 0.30000001192092896 3.799999952316284 -11.300000190734863
v 0.0 3.799999952316284 -16.700000762939453
v 0.0 3.799999952316284 -11.300000190734863
v 0.30000001192092896 3.799999952316284 -11.300000190734863
v 0.30000001192092896 3.799999952316284 -16.700000762939453
v 0.30000001192092896 3.799999952316284 -16.700000762939453
v 0.30000001192092896 3.799999952316284 -11.300000190734863
v 0.30000001192092896 4.300000190734863 -11.300000190734863
v 0.30000001192092896 4.300000190734863 -11.0
v 0.30000001192092896 3.5 -11.0
v 0.30000001192092896 3.5 -17.0
v 0.30000001192092896 4.300000190734863 -17.0
v 0.30000001192092896 4.300000190734863 -16.700000762939453
v 0.0 3.6649980545043945 -15.550000190734863
v 0.0 3.694387435913086 -15.540451049804688
v 0.0 3.7125508785247803 -15.515450477600098
v 0.0 3.7125508785247803 -15.484549522399902
v 0.0 3.694387435913086 -15.459548950195312
v 0.0 3.6649980545043945 -15.449999809265137
v 0.0 3.6356089115142822 -15.459548950195312
v 0.0 3.617445230484009 -15.484549522399902
v 0.0 3.617445230484009 -15.515450477600098
v 0.0 3.6356089115142822 -15.540451049804688
v 0.0 3.6649980545043945 -12.550000190734863
v 0.0 3.694387435913086 -12.540451049804688
v 0.0 3.7125508785247803 -12.515450477600098
v 0.0 3.7125508785247803 -12.484549522399902
v 0.0 3.694387435913086 -12.459548950195312
v 0.0 3.6649980545043945 -12.449999809265137
v 0.0 3.6356089115142822 -12.459548950195312
v 0.0 3.617445230484009 -12.484549522399902
v 0.0 3.617445230484009 -12.515450477600098
v 0.0 3.6356089115142822 -12.540451049804688
v 0.0 3.799999952316284 -11.300000190734863
v 0.0 3.799999952316284 -16.700000762939453
v 0.0 4.300000190734863 -16.700000762939453
v 0.0 4.300000190734863 -17.0
v 0.0 3.5 -17.0
v 0.0 3.5 -11.0
v 0.0 4.300000190734863 -11.0
v 0.0 4.300000190734863 -11.300000190734863
vn -0.0 1.2246468525851679e-16 -1.0
vn -0.0 0.5877852439880371 -0.80901700258255
vn -0.0 0.9510565400123596 -0.30901700258255005
vn 0.0 0.9510565400123596 0.30901700258255005
vn 0.0 0.5877852439880371 0.80901700258255
vn 0.0 -0.0 1.0
vn -0.0 -0.5877852439880371 0.80901700258255
vn -0.0 -0.9510565400123596 0.30901700258255005
vn -0.0 -0.9510565400123596 -0.30901700258255005
vn -0.0 -0.5877852439880371 -0.80901700258255
vn -0.0 -1.2246468525851679e-16 -1.0
vn -0.0 -0.5877852439880371 -0.80901700258255
vn -0.0 -0.9510565400123596 -0.30901700258255005
vn -0.0 -0.9510565400123596 0.30901700258255005
vn -0.0 -0.5877852439880371 0.80901700258255
vn 0.0 -0.0 1.0
vn 0.0 0.5877852439880371 0.80901700258255
vn 0.0 0.9510565400123596 0.30901700258255005
vn -0.0 0.9510565400123596 -0.30901700258255005
vn -0.0 0.5877852439880371 -0.80901700258255
vn -0.0 1.2246468525851679e-16 -1.0
vn -0.0 -1.2246468525851679e-16 -1.0
vn -1.0 0.0 0.0
vn -1.0 0.0 0.0
vn -1.0 0.0 0.0
vn -1.0 0.0 0.0
vn -1.0 0.0 0.0
vn -1.0 0.0 0.0
vn -1.0 0.0 0.0
vn -1.0 0.0 0.0
vn -1.0 0.0 0.0
vn -1.0 0.0 0.0
vn -0.0 1.2246468525851679e-16 -1.0
vn -0.0 0.5877852439880371 -0.80901700258255
vn -0.0 0.9510565400123596 -0.30901700258255005
vn 0.0 0.9510565400123596 0.30901700258255005
vn 0.0 0.5877852439880371 0.80901700258255
vn 0.0 -0.0 1.0
vn -0.0 -0.5877852439880371 0.80901700258255
vn -0.0 -0.9510565400123596 0.30901700258255005
vn -0.0 -0.9510565400123596 -0.30901700258255005
vn -0.0 -0.5877852439880371 -0.80901700258255
vn -0.0 -1.2246468525851679e-16 -1.0
vn -0.0 -0.5877852439880371 -0.80901700258255
vn -0.0 -0.9510565400123596 -0.30901700258255005
vn -0.0 -0.9510565400123596 0.30901700258255005
vn -0.0 -0.5877852439880371 0.80901700258255
vn 0.0 -0.0 1.0
vn 0.0 0.5877852439880371 0.80901700258255
vn 0.0 0.9510565400123596 0.30901700258255005
vn -0.0 0.9510565400123596 -0.30901700258255005
vn -0.0 0.5877852439880371 -0.80901700258255
vn -0.0 1.2246468525851679e-16 -1.0
vn -0.0 -1.2246468525851679e-16 -1.0
vn -1.0 0.0 0.0
vn -1.0 0.0 0.0
vn -1.0 0.0 0.0
vn -1.0 0.0 0.0
vn -1.0 0.0 0.0
vn -1.0 0.0 0.0
vn -1.0 0.0 0.0
vn -1.0 0.0 0.0
vn -1.0 0.0 0.0
vn -1.0 0.0 0.0
vn 0.0 0.0 1.0
vn 0.0 0.0 1.0
vn 0.0 0.0 1.0
vn 0.0 0.0 1.0
vn -0.0 1.0 0.0
vn -0.0 1.0 0.0
vn -0.0 1.0 0.0
vn -0.0 1.0 0.0
vn 0.0 0.0 -1.0
vn 0.0 0.0 -1.0
vn 0.0 0.0 -1.0
vn 0.0 0.0 -1.0
vn 0.0 -1.0 0.0
vn 0.0 -1.0 0.0
vn 0.0 -1.0 0.0
vn 0.0 -1.0 0.0
vn -0.0 0.0 1.0
vn -0.0 0.0 1.0
vn -0.0 0.0 1.0
vn -0.0 0.0 1.0
vn 0.0 1.0 0.0
vn 0.0 1.0 0.0
vn 0.0 1.0 0.0
vn 0.0 1.0 0.0
vn 0.0 0.0 -1.0
vn 0.0 0.0 -1.0
vn 0.0 0.0 -1.0
vn 0.0 0.0 -1.0
vn 0.0 1.0 0.0
vn 0.0 1.0 0.0
vn 0.0 1.0 0.0
vn 0.0 1.0 0.0
vn 1.0 0.0 0.0
vn 1.0 0.0 0.0
vn 1.0 0.0 0.0
vn 1.0 0.0 0.0
vn 1.0 0.0 0.0
vn 1.0 0.0 0.0
vn 1.0 0.0 0.0
vn 1.0 0.0 0.0
vn -1.0 -0.0 -0.0
vn -1.0 -0.0 -0.0
vn -1.0 -0.0 -0.0
vn -1.0 -0.0 -0.0
vn -1.0 -0.0 -0.0
vn -1.0 -0.0 -0.0
vn -1.0 -0.0 -0.0
vn -1.0 -0.0 -0.0
vn -1.0 -0.0 -0.0
vn -1.0 -0.0 -0.0
vn -1.0 -0.0 -0.0
vn -1.0 -0.0 -0.0
vn -1.0 -0.0 -0.0
vn -1.0 -0.0 -0.0
vn -1.0 -0.0 -0.0
vn -1.0 -0.0 -0.0
vn -1.0 -0.0 -0.0
vn -1.0 -0.0 -0.0
vn -1.0 -0.0 -0.0
vn -1.0 -0.0 -0.0
vn -1.0 -0.0 -0.0
vn -1.0 -0.0 -0.0
vn -1.0 -0.0 -0.0
vn -1.0 -0.0 -0.0
vn -1.0 -0.0 -0.0
vn -1.0 -0.0 -0.0
vn -1.0 -0.0 -0.0
vn -1.0 -0.0 -0.0
g 53e7faa4-e2aa-11ea-8553-54bf646e7e1f
f 2//2 20//20 1//1
f 1//1 20//20 21//21
f 22//22 11//11 10//10
f 10//10 11//11 12//12
f 10//10 12//12 13//13
f 2//2 3//3 20//20
f 20//20 3//3 19//19
f 19//19 3//3 4//4
f 19//19 4//4 18//18
f 18//18 4//4 5//5
f 18//18 5//5 17//17
f 17//17 5//5 6//6
f 17//17 6//6 16//16
f 16//16 6//6 7//7
f 16//16 7//7 15//15
f 15//15 7//7 8//8
f 15//15 8//8 14//14
f 14//14 8//8 9//9
f 14//14 9//9 13//13
f 13//13 9//9 10//10
g 53eb56ba-e2aa-11ea-8f4f-54bf646e7e1f
f 24//24 27//27 23//23
f 23//23 27//27 28//28
f 23//23 28//28 32//32
f 32//32 28//28 29//29
f 32//32 29//29 31//31
f 31//31 29//29 30//30
f 25//25 26//26 24//24
f 24//24 26//26 27//27
g 53f8c706-e2aa-11ea-9d13-54bf646e7e1f
f 34//34 52//52 33//33
f 33//33 52//52 53//53
f 54//54 43//43 42//42
f 42//42 43//43 44//44
f 42//42 44//44 45//45
f 34//34 35//35 52//52
f 52//52 35//35 51//51
f 51//51 35//35 36//36
f 51//51 36//36 50//50
f 50//50 36//36 37//37
f 50//50 37//37 49//49
f 49//49 37//37 38//38
f 49//49 38//38 48//48
f 48//48 38//38 39//39
f 48//48 39//39 47//47
f 47//47 39//39 40//40
f 47//47 40//40 46//46
f 46//46 40//40 41//41
f 46//46 41//41 45//45
f 45//45 41//41 42//42
g 53fc715c-e2aa-11ea-944a-54bf646e7e1f
f 56//56 59//59 55//55
f 55//55 59//59 60//60
f 55//55 60//60 64//64
f 64//64 60//60 61//61
f 64//64 61//61 63//63
f 63//63 61//61 62//62
f 57//57 58//58 56//56
f 56//56 58//58 59//59
g 533bdfdc-e2aa-11ea-900d-54bf646e7e1f
f 65//65 66//66 68//68
f 68//68 66//66 67//67
g 53461b1e-e2aa-11ea-a940-54bf646e7e1f
f 69//69 70//70 72//72
f 72//72 70//70 71//71
g 5349ec94-e2aa-11ea-9058-54bf646e7e1f
f 73//73 74//74 76//76
f 76//76 74//74 75//75
g 534d218a-e2aa-11ea-8e5d-54bf646e7e1f
f 77//77 78//78 80//80
f 80//80 78//78 79//79
g 53505670-e2aa-11ea-9eec-54bf646e7e1f
f 81//81 82//82 84//84
f 84//84 82//82 83//83
g 5353b280-e2aa-11ea-8887-54bf646e7e1f
f 85//85 86//86 88//88
f 88//88 86//86 87//87
g 5356e77e-e2aa-11ea-86a0-54bf646e7e1f
f 89//89 90//90 92//92
f 92//92 90//90 91//91
g 535a4386-e2aa-11ea-93a9-54bf646e7e1f
f 93//93 94//94 96//96
f 96//96 94//94 95//95
g 535d9fac-e2aa-11ea-b02b-54bf646e7e1f
f 98//98 102//102 97//97
f 97//97 102//102 103//103
f 97//97 103//103 104//104
f 99//99 100//100 98//98
f 98//98 100//100 101//101
f 98//98 101//101 102//102
g 536122c2-e2aa-11ea-9673-54bf646e7e1f
f 114//114 105//105 126//126
f 126//126 105//105 106//106
f 126//126 106//106 107//107
f 107//107 108//108 126//126
f 126//126 108//108 125//125
f 125//125 108//108 117//117
f 125//125 117//117 118//118
f 117//117 108//108 116//116
f 116//116 108//108 109//109
f 116//116 109//109 115//115
f 115//115 109//109 110//110
f 115//115 110//110 124//124
f 124//124 110//110 111//111
f 124//124 111//111 123//123
f 123//123 111//111 112//112
f 123//123 112//112 130//130
f 130//130 112//112 129//129
f 129//129 112//112 113//113
f 129//129 113//113 114//114
f 129//129 114//114 126//126
f 118//118 119//119 125//125
f 125//125 119//119 120//120
f 125//125 120//120 121//121
f 125//125 121//121 130//130
f 130//130 121//121 122//122
f 130//130 122//122 123//123
f 127//127 128//128 126//126
f 126//126 128//128 129//129
f 130//130 131//131 125//125
f 125//125 131//131 132//132

# End of file