# WaveFront *.obj file
# Vertices: 24
# Triangles : 12

v 0.0 3.552713678800501e-15 1.7763568394002505e-15
v -1.0681881675847146e-15 3.552713678800501e-15 -35.560001373291016
v -8.881784197001252e-16 5.079999923706055 -35.560001373291016
v 0.0 5.079999923706055 0.0
v -5.079999923706055 3.552713678800501e-15 1.7763568394002505e-15
v 0.0 3.552713678800501e-15 1.7763568394002505e-15
v 0.0 5.079999923706055 0.0
v -5.079999923706055 5.079999923706055 0.0
v -5.079999923706055 3.552713678800501e-15 -35.560001373291016
v -5.079999923706055 3.552713678800501e-15 1.7763568394002505e-15
v -5.079999923706055 5.079999923706055 0.0
v -5.079999923706055 5.079999923706055 -35.560001373291016
v -1.0681881675847146e-15 3.552713678800501e-15 -35.560001373291016
v -5.079999923706055 3.552713678800501e-15 -35.560001373291016
v -5.079999923706055 5.079999923706055 -35.560001373291016
v -8.881784197001252e-16 5.079999923706055 -35.560001373291016
v -8.881784197001252e-16 5.079999923706055 -35.560001373291016
v -5.079999923706055 5.079999923706055 -35.560001373291016
v -5.079999923706055 5.079999923706055 0.0
v 0.0 5.079999923706055 0.0
v -5.079999923706055 3.552713678800501e-15 -35.560001373291016
v -1.0681881675847146e-15 3.552713678800501e-15 -35.560001373291016
v 0.0 3.552713678800501e-15 1.7763568394002505e-15
v -5.079999923706055 3.552713678800501e-15 1.7763568394002505e-15
vn 1.0 0.0 -3.00390374750836e-17
vn 1.0 0.0 -3.00390374750836e-17
vn 1.0 0.0 -3.00390374750836e-17
vn 1.0 0.0 -3.00390374750836e-17
vn 2.465190328815662e-32 -0.0 1.0
vn 2.465190328815662e-32 -0.0 1.0
vn 2.465190328815662e-32 -0.0 1.0
vn 2.465190328815662e-32 -0.0 1.0
vn -1.0 0.0 4.9953791225379514e-17
vn -1.0 0.0 4.9953791225379514e-17
vn -1.0 0.0 4.9953791225379514e-17
vn -1.0 0.0 4.9953791225379514e-17
vn -2.465190328815662e-32 0.0 -1.0
vn -2.465190328815662e-32 0.0 -1.0
vn -2.465190328815662e-32 0.0 -1.0
vn -2.465190328815662e-32 0.0 -1.0
vn 0.0 1.0 0.0
vn 0.0 1.0 0.0
vn 0.0 1.0 0.0
vn 0.0 1.0 0.0
vn 1.512145096309244e-33 -1.0 -0.0
vn 1.512145096309244e-33 -1.0 -0.0
vn 1.512145096309244e-33 -1.0 -0.0
vn 1.512145096309244e-33 -1.0 -0.0
g 7ca8315c-e2ae-11ea-8c2b-54bf646e7e1f
f 1//1 2//2 4//4
f 4//4 2//2 3//3
g 7ca8cd94-e2ae-11ea-bf87-54bf646e7e1f
f 5//5 6//6 8//8
f 8//8 6//6 7//7
g 7ca942c6-e2ae-11ea-ad98-54bf646e7e1f
f 9//9 10//10 12//12
f 12//12 10//10 11//11
g 7ca9df02-e2ae-11ea-af1c-54bf646e7e1f
f 13//13 14//14 16//16
f 16//16 14//14 15//15
g 7caa7b62-e2ae-11ea-862a-54bf646e7e1f
f 18//18 19//19 17//17
f 17//17 19//19 20//20
g 7cab1782-e2ae-11ea-9070-54bf646e7e1f
f 21//21 22//22 24//24
f 24//24 22//22 23//23

# End of file