# WaveFront *.obj file
# Vertices: 202
# Triangles : 188

v -0.5011390447616577 6.199999809265137 0.5
v -0.495265930891037 6.123501300811768 0.5
v -0.4777841866016388 6.0487961769104 0.5
v -0.44910356402397156 5.977634429931641 0.5
v -0.4098963439464569 5.911685466766357 0.5
v -0.3610815107822418 5.852493762969971 0.5
v -0.3038032352924347 5.801447868347168 0.5
v -0.23940406739711761 5.7597432136535645 0.5
v -0.16939346492290497 5.728357791900635 0.5
v -0.09541242569684982 5.7080278396606445 0.5
v -0.01919499598443508 5.699228763580322 0.5
v 0.0574723444879055 5.702167510986328 0.5
v 0.13279257714748383 5.716774940490723 0.5
v 0.20500028133392334 5.742708683013916 0.5
v 0.27240294218063354 5.779361248016357 0.5
v 0.33342069387435913 5.825872898101807 0.5
v 0.386623352766037 5.8811540603637695 0.5
v 0.4307639002799988 5.94390869140625 0.5
v 0.4648077189922333 6.012665748596191 0.5
v 0.48795682191848755 6.085813522338867 0.5
v 0.4996686279773712 6.161638259887695 0.5
v 0.4996686279773712 6.238361835479736 0.5
v 0.48795682191848755 6.314186096191406 0.5
v 0.4648077189922333 6.38733434677124 0.5
v 0.4307639002799988 6.456091403961182 0.5
v 0.386623352766037 6.518846035003662 0.5
v 0.33342069387435913 6.574127197265625 0.5
v 0.27240294218063354 6.620638847351074 0.5
v 0.20500028133392334 6.657291412353516 0.5
v 0.13279257714748383 6.683225154876709 0.5
v 0.0574723444879055 6.6978325843811035 0.5
v -0.01919499598443508 6.700771331787109 0.5
v -0.09541242569684982 6.691972255706787 0.5
v -0.16939346492290497 6.671641826629639 0.5
v -0.23940406739711761 6.640256881713867 0.5
v -0.3038032352924347 6.598552227020264 0.5
v -0.3610815107822418 6.547506332397461 0.5
v -0.4098963439464569 6.488314628601074 0.5
v -0.44910356402397156 6.422365188598633 0.5
v -0.4777841866016388 6.351203918457031 0.5
v -0.495265930891037 6.276498317718506 0.5
v -0.5011390447616577 6.199999809265137 0.0
v -0.495265930891037 6.276498317718506 0.0
v -0.4777841866016388 6.351203918457031 0.0
v -0.44910356402397156 6.422365188598633 0.0
v -0.4098963439464569 6.488314628601074 0.0
v -0.3610815107822418 6.547506332397461 0.0
v -0.3038032352924347 6.598552227020264 0.0
v -0.23940406739711761 6.640256881713867 0.0
v -0.16939346492290497 6.671641826629639 0.0
v -0.09541242569684982 6.691972255706787 0.0
v -0.01919499598443508 6.700771331787109 0.0
v 0.0574723444879055 6.6978325843811035 0.0
v 0.13279257714748383 6.683225154876709 0.0
v 0.20500028133392334 6.657291412353516 0.0
v 0.27240294218063354 6.620638847351074 0.0
v 0.33342069387435913 6.574127197265625 0.0
v 0.386623352766037 6.518846035003662 0.0
v 0.4307639002799988 6.456091403961182 0.0
v 0.4648077189922333 6.38733434677124 0.0
v 0.48795682191848755 6.314186096191406 0.0
v 0.4996686279773712 6.238361835479736 0.0
v 0.4996686279773712 6.161638259887695 0.0
v 0.48795682191848755 6.085813522338867 0.0
v 0.4648077189922333 6.012665748596191 0.0
v 0.4307639002799988 5.94390869140625 0.0
v 0.386623352766037 5.8811540603637695 0.0
v 0.33342069387435913 5.825872898101807 0.0
v 0.27240294218063354 5.779361248016357 0.0
v 0.20500028133392334 5.742708683013916 0.0
v 0.13279257714748383 5.716774940490723 0.0
v 0.0574723444879055 5.702167510986328 0.0
v -0.01919499598443508 5.699228763580322 0.0
v -0.09541242569684982 5.7080278396606445 0.0
v -0.16939346492290497 5.728357791900635 0.0
v -0.23940406739711761 5.7597432136535645 0.0
v -0.3038032352924347 5.801447868347168 0.0
v -0.3610815107822418 5.852493762969971 0.0
v -0.4098963439464569 5.911685466766357 0.0
v -0.44910356402397156 5.977634429931641 0.0
v -0.4777841866016388 6.0487961769104 0.0
v -0.495265930891037 6.123501300811768 0.0
v -0.5011390447616577 6.199999809265137 0.5
v -0.5011390447616577 6.199999809265137 0.0
v 0.5773503184318542 5.199999809265137 0.0
v 1.1547006368637085 6.199999809265137 0.0
v 1.1547006368637085 6.199999809265137 0.5
v 0.5773503184318542 5.199999809265137 0.5
v -1.1547006368637085 6.199999809265137 0.0
v -0.5773503184318542 5.199999809265137 0.0
v -0.5773503184318542 5.199999809265137 0.5
v -1.1547006368637085 6.199999809265137 0.5
v -0.5773503184318542 5.199999809265137 0.0
v 0.5773503184318542 5.199999809265137 0.0
v 0.5773503184318542 5.199999809265137 0.5
v -0.5773503184318542 5.199999809265137 0.5
v -0.5011390447616577 6.199999809265137 0.5
v -0.495265930891037 6.276498317718506 0.5
v -0.4777841866016388 6.351203918457031 0.5
v -0.44910356402397156 6.422365188598633 0.5
v -0.4098963439464569 6.488314628601074 0.5
v -0.3610815107822418 6.547506332397461 0.5
v -0.3038032352924347 6.598552227020264 0.5
v -0.23940406739711761 6.640256881713867 0.5
v -0.16939346492290497 6.671641826629639 0.5
v -0.09541242569684982 6.691972255706787 0.5
v -0.01919499598443508 6.700771331787109 0.5
v 0.0574723444879055 6.6978325843811035 0.5
v 0.13279257714748383 6.683225154876709 0.5
v 0.20500028133392334 6.657291412353516 0.5
v 0.27240294218063354 6.620638847351074 0.5
v 0.33342069387435913 6.574127197265625 0.5
v 0.386623352766037 6.518846035003662 0.5
v 0.4307639002799988 6.456091403961182 0.5
v 0.4648077189922333 6.38733434677124 0.5
v 0.48795682191848755 6.314186096191406 0.5
v 0.4996686279773712 6.238361835479736 0.5
v 0.4996686279773712 6.161638259887695 0.5
v 0.48795682191848755 6.085813522338867 0.5
v 0.4648077189922333 6.012665748596191 0.5
v 0.4307639002799988 5.94390869140625 0.5
v 0.386623352766037 5.8811540603637695 0.5
v 0.33342069387435913 5.825872898101807 0.5
v 0.27240294218063354 5.779361248016357 0.5
v 0.20500028133392334 5.742708683013916 0.5
v 0.13279257714748383 5.716774940490723 0.5
v 0.0574723444879055 5.702167510986328 0.5
v -0.01919499598443508 5.699228763580322 0.5
v -0.09541242569684982 5.7080278396606445 0.5
v -0.16939346492290497 5.728357791900635 0.5
v -0.23940406739711761 5.7597432136535645 0.5
v -0.3038032352924347 5.801447868347168 0.5
v -0.3610815107822418 5.852493762969971 0.5
v -0.4098963439464569 5.911685466766357 0.5
v -0.44910356402397156 5.977634429931641 0.5
v -0.4777841866016388 6.0487961769104 0.5
v -0.495265930891037 6.123501300811768 0.5
v 0.5773503184318542 7.200000286102295 0.5
v -0.5773503184318542 7.200000286102295 0.5
v -1.1547006368637085 6.199999809265137 0.5
v -0.5773503184318542 5.199999809265137 0.5
v 0.5773503184318542 5.199999809265137 0.5
v 1.1547006368637085 6.199999809265137 0.5
v -0.5773503184318542 7.200000286102295 0.0
v -1.1547006368637085 6.199999809265137 0.0
v -1.1547006368637085 6.199999809265137 0.5
v -0.5773503184318542 7.200000286102295 0.5
v -0.5011390447616577 6.199999809265137 0.0
v -0.495265930891037 6.123501300811768 0.0
v -0.4777841866016388 6.0487961769104 0.0
v -0.44910356402397156 5.977634429931641 0.0
v -0.4098963439464569 5.911685466766357 0.0
v -0.3610815107822418 5.852493762969971 0.0
v -0.3038032352924347 5.801447868347168 0.0
v -0.23940406739711761 5.7597432136535645 0.0
v -0.16939346492290497 5.728357791900635 0.0
v -0.09541242569684982 5.7080278396606445 0.0
v -0.01919499598443508 5.699228763580322 0.0
v 0.0574723444879055 5.702167510986328 0.0
v 0.13279257714748383 5.716774940490723 0.0
v 0.20500028133392334 5.742708683013916 0.0
v 0.27240294218063354 5.779361248016357 0.0
v 0.33342069387435913 5.825872898101807 0.0
v 0.386623352766037 5.8811540603637695 0.0
v 0.4307639002799988 5.94390869140625 0.0
v 0.4648077189922333 6.012665748596191 0.0
v 0.48795682191848755 6.085813522338867 0.0
v 0.4996686279773712 6.161638259887695 0.0
v 0.4996686279773712 6.238361835479736 0.0
v 0.48795682191848755 6.314186096191406 0.0
v 0.4648077189922333 6.38733434677124 0.0
v 0.4307639002799988 6.456091403961182 0.0
v 0.386623352766037 6.518846035003662 0.0
v 0.33342069387435913 6.574127197265625 0.0
v 0.27240294218063354 6.620638847351074 0.0
v 0.20500028133392334 6.657291412353516 0.0
v 0.13279257714748383 6.683225154876709 0.0
v 0.0574723444879055 6.6978325843811035 0.0
v -0.01919499598443508 6.700771331787109 0.0
v -0.09541242569684982 6.691972255706787 0.0
v -0.16939346492290497 6.671641826629639 0.0
v -0.23940406739711761 6.640256881713867 0.0
v -0.3038032352924347 6.598552227020264 0.0
v -0.3610815107822418 6.547506332397461 0.0
v -0.4098963439464569 6.488314628601074 0.0
v -0.44910356402397156 6.422365188598633 0.0
v -0.4777841866016388 6.351203918457031 0.0
v -0.495265930891037 6.276498317718506 0.0
v -0.5773503184318542 7.200000286102295 0.0
v 0.5773503184318542 7.200000286102295 0.0
v 1.1547006368637085 6.199999809265137 0.0
v 0.5773503184318542 5.199999809265137 0.0
v -0.5773503184318542 5.199999809265137 0.0
v -1.1547006368637085 6.199999809265137 0.0
v 0.5773503184318542 7.200000286102295 0.0
v -0.5773503184318542 7.200000286102295 0.0
v -0.5773503184318542 7.200000286102295 0.5
v 0.5773503184318542 7.200000286102295 0.5
v 1.1547006368637085 6.199999809265137 0.0
v 0.5773503184318542 7.200000286102295 0.0
v 0.5773503184318542 7.200000286102295 0.5
v 1.1547006368637085 6.199999809265137 0.5
vn 1.0 1.2246468525851679e-16 -0.0
vn 0.9882804155349731 0.15264928340911865 -0.0
vn 0.9533963799476624 0.30172058939933777 -0.0
vn 0.8961655497550964 0.4437198340892792 -0.0
vn 0.8179293870925903 0.5753186345100403 -0.0
vn 0.7205215692520142 0.6934325098991394 -0.0
vn 0.6062254309654236 0.795292854309082 -0.0
vn 0.47771981358528137 0.8785122632980347 -0.0
vn 0.3380168676376343 0.9411400556564331 -0.0
vn 0.19039110839366913 0.9817083477973938 -0.0
vn 0.03830273449420929 0.9992662072181702 -0.0
vn -0.11468342691659927 0.9934020638465881 0.0
vn -0.2649815082550049 0.9642534852027893 0.0
vn -0.40906864404678345 0.9125036001205444 0.0
vn -0.5435675382614136 0.8393654227256775 0.0
vn -0.6653257012367249 0.7465532422065735 0.0
vn -0.7714892029762268 0.6362424492835999 0.0
vn -0.8595696091651917 0.511018693447113 0.0
vn -0.927502453327179 0.3738170862197876 0.0
vn -0.9736953973770142 0.22785350680351257 0.0
vn -0.9970657825469971 0.07654925435781479 0.0
vn -0.9970657825469971 -0.07654925435781479 0.0
vn -0.9736953973770142 -0.22785350680351257 0.0
vn -0.927502453327179 -0.3738170862197876 0.0
vn -0.8595696091651917 -0.511018693447113 0.0
vn -0.7714892029762268 -0.6362424492835999 0.0
vn -0.6653257012367249 -0.7465532422065735 0.0
vn -0.5435675382614136 -0.8393654227256775 0.0
vn -0.40906864404678345 -0.9125036001205444 0.0
vn -0.2649815082550049 -0.9642534852027893 0.0
vn -0.11468342691659927 -0.9934020638465881 0.0
vn 0.03830273449420929 -0.9992662072181702 0.0
vn 0.19039110839366913 -0.9817083477973938 0.0
vn 0.3380168676376343 -0.9411400556564331 0.0
vn 0.47771981358528137 -0.8785122632980347 0.0
vn 0.6062254309654236 -0.795292854309082 0.0
vn 0.7205215692520142 -0.6934325098991394 0.0
vn 0.8179293870925903 -0.5753186345100403 0.0
vn 0.8961655497550964 -0.4437198340892792 0.0
vn 0.9533963799476624 -0.30172058939933777 0.0
vn 0.9882804155349731 -0.15264928340911865 0.0
vn 1.0 -1.2246468525851679e-16 0.0
vn 0.9882804155349731 -0.15264928340911865 0.0
vn 0.9533963799476624 -0.30172058939933777 0.0
vn 0.8961655497550964 -0.4437198340892792 0.0
vn 0.8179293870925903 -0.5753186345100403 0.0
vn 0.7205215692520142 -0.6934325098991394 0.0
vn 0.6062254309654236 -0.795292854309082 0.0
vn 0.47771981358528137 -0.8785122632980347 0.0
vn 0.3380168676376343 -0.9411400556564331 0.0
vn 0.19039110839366913 -0.9817083477973938 0.0
vn 0.03830273449420929 -0.9992662072181702 0.0
vn -0.11468342691659927 -0.9934020638465881 0.0
vn -0.2649815082550049 -0.9642534852027893 0.0
vn -0.40906864404678345 -0.9125036001205444 0.0
vn -0.5435675382614136 -0.8393654227256775 0.0
vn -0.6653257012367249 -0.7465532422065735 0.0
vn -0.7714892029762268 -0.6362424492835999 0.0
vn -0.8595696091651917 -0.511018693447113 0.0
vn -0.927502453327179 -0.3738170862197876 0.0
vn -0.9736953973770142 -0.22785350680351257 0.0
vn -0.9970657825469971 -0.07654925435781479 0.0
vn -0.9970657825469971 0.07654925435781479 0.0
vn -0.9736953973770142 0.22785350680351257 0.0
vn -0.927502453327179 0.3738170862197876 0.0
vn -0.8595696091651917 0.511018693447113 0.0
vn -0.7714892029762268 0.6362424492835999 0.0
vn -0.6653257012367249 0.7465532422065735 0.0
vn -0.5435675382614136 0.8393654227256775 0.0
vn -0.40906864404678345 0.9125036001205444 0.0
vn -0.2649815082550049 0.9642534852027893 0.0
vn -0.11468342691659927 0.9934020638465881 0.0
vn 0.03830273449420929 0.9992662072181702 -0.0
vn 0.19039110839366913 0.9817083477973938 -0.0
vn 0.3380168676376343 0.9411400556564331 -0.0
vn 0.47771981358528137 0.8785122632980347 -0.0
vn 0.6062254309654236 0.795292854309082 -0.0
vn 0.7205215692520142 0.6934325098991394 -0.0
vn 0.8179293870925903 0.5753186345100403 -0.0
vn 0.8961655497550964 0.4437198340892792 -0.0
vn 0.9533963799476624 0.30172058939933777 -0.0
vn 0.9882804155349731 0.15264928340911865 -0.0
vn 1.0 -1.2246468525851679e-16 0.0
vn 1.0 1.2246468525851679e-16 -0.0
vn 0.8660253882408142 -0.5 0.0
vn 0.8660253882408142 -0.5 0.0
vn 0.8660253882408142 -0.5 0.0
vn 0.8660253882408142 -0.5 0.0
vn -0.8660253882408142 -0.5 0.0
vn -0.8660253882408142 -0.5 0.0
vn -0.8660253882408142 -0.5 0.0
vn -0.8660253882408142 -0.5 0.0
vn -1.5383700156167092e-15 -1.0 0.0
vn -1.5383700156167092e-15 -1.0 0.0
vn -1.5383700156167092e-15 -1.0 0.0
vn -1.5383700156167092e-15 -1.0 0.0
vn 0.0 0.0 1.0
vn 0.0 0.0 1.0
vn 0.0 0.0 1.0
vn 0.0 0.0 1.0
vn 0.0 0.0 1.0
vn 0.0 0.0 1.0
vn 0.0 0.0 1.0
vn 0.0 0.0 1.0
vn 0.0 0.0 1.0
vn 0.0 0.0 1.0
vn 0.0 0.0 1.0
vn 0.0 0.0 1.0
vn 0.0 0.0 1.0
vn 0.0 0.0 1.0
vn 0.0 0.0 1.0
vn 0.0 0.0 1.0
vn 0.0 0.0 1.0
vn 0.0 0.0 1.0
vn 0.0 0.0 1.0
vn 0.0 0.0 1.0
vn 0.0 0.0 1.0
vn 0.0 0.0 1.0
vn 0.0 0.0 1.0
vn 0.0 0.0 1.0
vn 0.0 0.0 1.0
vn 0.0 0.0 1.0
vn 0.0 0.0 1.0
vn 0.0 0.0 1.0
vn 0.0 0.0 1.0
vn 0.0 0.0 1.0
vn 0.0 0.0 1.0
vn 0.0 0.0 1.0
vn 0.0 0.0 1.0
vn 0.0 0.0 1.0
vn 0.0 0.0 1.0
vn 0.0 0.0 1.0
vn 0.0 0.0 1.0
vn 0.0 0.0 1.0
vn 0.0 0.0 1.0
vn 0.0 0.0 1.0
vn 0.0 0.0 1.0
vn 0.0 0.0 1.0
vn 0.0 0.0 1.0
vn 0.0 0.0 1.0
vn 0.0 0.0 1.0
vn 0.0 0.0 1.0
vn 0.0 0.0 1.0
vn -0.8660253882408142 0.5 0.0
vn -0.8660253882408142 0.5 0.0
vn -0.8660253882408142 0.5 0.0
vn -0.8660253882408142 0.5 0.0
vn -0.0 -0.0 -1.0
vn -0.0 -0.0 -1.0
vn -0.0 -0.0 -1.0
vn -0.0 -0.0 -1.0
vn -0.0 -0.0 -1.0
vn -0.0 -0.0 -1.0
vn -0.0 -0.0 -1.0
vn -0.0 -0.0 -1.0
vn -0.0 -0.0 -1.0
vn -0.0 -0.0 -1.0
vn -0.0 -0.0 -1.0
vn -0.0 -0.0 -1.0
vn -0.0 -0.0 -1.0
vn -0.0 -0.0 -1.0
vn -0.0 -0.0 -1.0
vn -0.0 -0.0 -1.0
vn -0.0 -0.0 -1.0
vn -0.0 -0.0 -1.0
vn -0.0 -0.0 -1.0
vn -0.0 -0.0 -1.0
vn -0.0 -0.0 -1.0
vn -0.0 -0.0 -1.0
vn -0.0 -0.0 -1.0
vn -0.0 -0.0 -1.0
vn -0.0 -0.0 -1.0
vn -0.0 -0.0 -1.0
vn -0.0 -0.0 -1.0
vn -0.0 -0.0 -1.0
vn -0.0 -0.0 -1.0
vn -0.0 -0.0 -1.0
vn -0.0 -0.0 -1.0
vn -0.0 -0.0 -1.0
vn -0.0 -0.0 -1.0
vn -0.0 -0.0 -1.0
vn -0.0 -0.0 -1.0
vn -0.0 -0.0 -1.0
vn -0.0 -0.0 -1.0
vn -0.0 -0.0 -1.0
vn -0.0 -0.0 -1.0
vn -0.0 -0.0 -1.0
vn -0.0 -0.0 -1.0
vn -0.0 -0.0 -1.0
vn -0.0 -0.0 -1.0
vn -0.0 -0.0 -1.0
vn -0.0 -0.0 -1.0
vn -0.0 -0.0 -1.0
vn -0.0 -0.0 -1.0
vn 1.5383700156167092e-15 1.0 -0.0
vn 1.5383700156167092e-15 1.0 -0.0
vn 1.5383700156167092e-15 1.0 -0.0
vn 1.5383700156167092e-15 1.0 -0.0
vn 0.8660253882408142 0.5 -0.0
vn 0.8660253882408142 0.5 -0.0
vn 0.8660253882408142 0.5 -0.0
vn 0.8660253882408142 0.5 -0.0
f 2//2 82//82 1//1
f 1//1 82//82 84//84
f 83//83 42//42 41//41
f 41//41 42//42 43//43
f 41//41 43//43 40//40
f 40//40 43//43 44//44
f 40//40 44//44 39//39
f 39//39 44//44 45//45
f 39//39 45//45 38//38
f 38//38 45//45 46//46
f 38//38 46//46 37//37
f 37//37 46//46 47//47
f 37//37 47//47 36//36
f 36//36 47//47 48//48
f 36//36 48//48 35//35
f 35//35 48//48 49//49
f 35//35 49//49 34//34
f 34//34 49//49 50//50
f 34//34 50//50 33//33
f 33//33 50//50 51//51
f 33//33 51//51 32//32
f 32//32 51//51 52//52
f 32//32 52//52 31//31
f 31//31 52//52 53//53
f 31//31 53//53 30//30
f 30//30 53//53 54//54
f 30//30 54//54 29//29
f 29//29 54//54 55//55
f 29//29 55//55 28//28
f 28//28 55//55 56//56
f 28//28 56//56 27//27
f 27//27 56//56 57//57
f 27//27 57//57 26//26
f 26//26 57//57 58//58
f 26//26 58//58 25//25
f 25//25 58//58 59//59
f 25//25 59//59 24//24
f 24//24 59//59 60//60
f 24//24 60//60 23//23
f 23//23 60//60 61//61
f 23//23 61//61 22//22
f 22//22 61//61 62//62
f 22//22 62//62 21//21
f 21//21 62//62 63//63
f 21//21 63//63 20//20
f 20//20 63//63 64//64
f 20//20 64//64 19//19
f 19//19 64//64 65//65
f 19//19 65//65 18//18
f 18//18 65//65 66//66
f 18//18 66//66 17//17
f 17//17 66//66 67//67
f 17//17 67//67 16//16
f 16//16 67//67 68//68
f 16//16 68//68 15//15
f 15//15 68//68 69//69
f 15//15 69//69 14//14
f 14//14 69//69 70//70
f 14//14 70//70 13//13
f 13//13 70//70 71//71
f 13//13 71//71 12//12
f 12//12 71//71 72//72
f 12//12 72//72 11//11
f 11//11 72//72 73//73
f 11//11 73//73 10//10
f 10//10 73//73 74//74
f 10//10 74//74 9//9
f 9//9 74//74 75//75
f 9//9 75//75 8//8
f 8//8 75//75 76//76
f 8//8 76//76 7//7
f 7//7 76//76 77//77
f 7//7 77//77 6//6
f 6//6 77//77 78//78
f 6//6 78//78 5//5
f 5//5 78//78 79//79
f 5//5 79//79 4//4
f 4//4 79//79 80//80
f 4//4 80//80 3//3
f 3//3 80//80 81//81
f 3//3 81//81 2//2
f 2//2 81//81 82//82
f 85//85 86//86 88//88
f 88//88 86//86 87//87
f 89//89 90//90 92//92
f 92//92 90//90 91//91
f 93//93 94//94 96//96
f 96//96 94//94 95//95
f 137//137 97//97 140//140
f 140//140 97//97 98//98
f 140//140 98//98 99//99
f 99//99 100//100 140//140
f 140//140 100//100 101//101
f 140//140 101//101 139//139
f 139//139 101//101 102//102
f 139//139 102//102 103//103
f 103//103 104//104 139//139
f 139//139 104//104 105//105
f 139//139 105//105 106//106
f 106//106 107//107 139//139
f 139//139 107//107 138//138
f 138//138 107//107 108//108
f 138//138 108//108 109//109
f 109//109 110//110 138//138
f 138//138 110//110 111//111
f 138//138 111//111 112//112
f 112//112 113//113 138//138
f 138//138 113//113 114//114
f 138//138 114//114 143//143
f 143//143 114//114 115//115
f 143//143 115//115 116//116
f 116//116 117//117 143//143
f 143//143 117//117 118//118
f 143//143 118//118 119//119
f 119//119 120//120 143//143
f 143//143 120//120 121//121
f 143//143 121//121 142//142
f 142//142 121//121 122//122
f 142//142 122//122 123//123
f 123//123 124//124 142//142
f 142//142 124//124 125//125
f 142//142 125//125 126//126
f 126//126 127//127 142//142
f 142//142 127//127 128//128
f 142//142 128//128 141//141
f 141//141 128//128 129//129
f 141//141 129//129 130//130
f 130//130 131//131 141//141
f 141//141 131//131 132//132
f 141//141 132//132 133//133
f 133//133 134//134 141//141
f 141//141 134//134 140//140
f 140//140 134//134 135//135
f 140//140 135//135 136//136
f 136//136 137//137 140//140
f 144//144 145//145 147//147
f 147//147 145//145 146//146
f 188//188 148//148 194//194
f 194//194 148//148 149//149
f 194//194 149//149 150//150
f 150//150 151//151 194//194
f 194//194 151//151 152//152
f 194//194 152//152 193//193
f 193//193 152//152 153//153
f 193//193 153//153 154//154
f 154//154 155//155 193//193
f 193//193 155//155 156//156
f 193//193 156//156 157//157
f 157//157 158//158 193//193
f 193//193 158//158 192//192
f 192//192 158//158 159//159
f 192//192 159//159 160//160
f 160//160 161//161 192//192
f 192//192 161//161 162//162
f 192//192 162//162 163//163
f 163//163 164//164 192//192
f 192//192 164//164 165//165
f 192//192 165//165 191//191
f 191//191 165//165 166//166
f 191//191 166//166 167//167
f 167//167 168//168 191//191
f 191//191 168//168 169//169
f 191//191 169//169 170//170
f 170//170 171//171 191//191
f 191//191 171//171 172//172
f 191//191 172//172 190//190
f 190//190 172//172 173//173
f 190//190 173//173 174//174
f 174//174 175//175 190//190
f 190//190 175//175 176//176
f 190//190 176//176 177//177
f 177//177 178//178 190//190
f 190//190 178//178 179//179
f 190//190 179//179 189//189
f 189//189 179//179 180//180
f 189//189 180//180 181//181
f 181//181 182//182 189//189
f 189//189 182//182 183//183
f 189//189 183//183 184//184
f 184//184 185//185 189//189
f 189//189 185//185 194//194
f 194//194 185//185 186//186
f 194//194 186//186 187//187
f 187//187 188//188 194//194
f 195//195 196//196 198//198
f 198//198 196//196 197//197
f 199//199 200//200 202//202
f 202//202 200//200 201//201

# End of file