# WaveFront *.obj file
# Vertices: 54
# Triangles : 32

v 17.5 2.5 0.0
v 19.0 2.5 0.0
v 19.0 2.5 0.5
v 17.5 2.5 0.5
v 18.5 3.0 0.0
v 18.5 4.0 0.0
v 18.5 4.0 0.5
v 18.5 3.0 0.5
v 17.5 4.0 0.0
v 17.5 2.5 0.0
v 17.5 2.5 0.5
v 17.5 4.0 0.5
v 18.200000762939453 3.700000047683716 0.5
v 18.200000762939453 3.299999952316284 0.5
v 17.80000114440918 3.299999952316284 0.5
v 17.80000114440918 3.700000047683716 0.5
v 17.5 2.5 0.5
v 19.0 2.5 0.5
v 18.5 3.0 0.5
v 18.5 4.0 0.5
v 17.5 4.0 0.5
v 19.0 2.5 0.0
v 18.5 3.0 0.0
v 18.5 3.0 0.5
v 19.0 2.5 0.5
v 19.0 2.5 0.0
v 17.5 2.5 0.0
v 17.5 4.0 0.0
v 18.5 4.0 0.0
v 18.5 3.0 0.0
v 18.5 4.0 0.0
v 17.5 4.0 0.0
v 17.5 4.0 0.5
v 18.5 4.0 0.5
v 18.200000762939453 3.299999952316284 0.5
v 18.200000762939453 3.700000047683716 0.5
v 18.200000762939453 3.700000047683716 1.0
v 18.200000762939453 3.299999952316284 1.0
v 18.200000762939453 3.299999952316284 1.0
v 18.200000762939453 3.700000047683716 1.0
v 17.80000114440918 3.700000047683716 1.0
v 17.80000114440918 3.299999952316284 1.0
v 17.80000114440918 3.299999952316284 0.5
v 18.200000762939453 3.299999952316284 0.5
v 18.200000762939453 3.299999952316284 1.0
v 17.80000114440918 3.299999952316284 1.0
v 18.200000762939453 3.700000047683716 0.5
v 17.80000114440918 3.700000047683716 0.5
v 17.80000114440918 3.700000047683716 1.0
v 18.200000762939453 3.700000047683716 1.0
v 17.80000114440918 3.700000047683716 0.5
v 17.80000114440918 3.299999952316284 0.5
v 17.80000114440918 3.299999952316284 1.0
v 17.80000114440918 3.700000047683716 1.0
vn 0.0 -1.0 0.0
vn 0.0 -1.0 0.0
vn 0.0 -1.0 0.0
vn 0.0 -1.0 0.0
vn 1.0 0.0 -0.0
vn 1.0 0.0 -0.0
vn 1.0 0.0 -0.0
vn 1.0 0.0 -0.0
vn -1.0 0.0 0.0
vn -1.0 0.0 0.0
vn -1.0 0.0 0.0
vn -1.0 0.0 0.0
vn 0.0 0.0 1.0
vn 0.0 0.0 1.0
vn 0.0 0.0 1.0
vn 0.0 0.0 1.0
vn 0.0 0.0 1.0
vn 0.0 0.0 1.0
vn 0.0 0.0 1.0
vn 0.0 0.0 1.0
vn 0.0 0.0 1.0
vn 0.7071067690849304 0.7071067690849304 -0.0
vn 0.7071067690849304 0.7071067690849304 -0.0
vn 0.7071067690849304 0.7071067690849304 -0.0
vn 0.7071067690849304 0.7071067690849304 -0.0
vn -0.0 -0.0 -1.0
vn -0.0 -0.0 -1.0
vn -0.0 -0.0 -1.0
vn -0.0 -0.0 -1.0
vn -0.0 -0.0 -1.0
vn 0.0 1.0 0.0
vn 0.0 1.0 0.0
vn 0.0 1.0 0.0
vn 0.0 1.0 0.0
vn 1.0 0.0 0.0
vn 1.0 0.0 0.0
vn 1.0 0.0 0.0
vn 1.0 0.0 0.0
vn 0.0 0.0 1.0
vn 0.0 0.0 1.0
vn 0.0 0.0 1.0
vn 0.0 0.0 1.0
vn 0.0 -1.0 0.0
vn 0.0 -1.0 0.0
vn 0.0 -1.0 0.0
vn 0.0 -1.0 0.0
vn 0.0 1.0 -0.0
vn 0.0 1.0 -0.0
vn 0.0 1.0 -0.0
vn 0.0 1.0 -0.0
vn -1.0 0.0 0.0
vn -1.0 0.0 0.0
vn -1.0 0.0 0.0
vn -1.0 0.0 0.0
f 1//1 2//2 4//4
f 4//4 2//2 3//3
f 5//5 6//6 8//8
f 8//8 6//6 7//7
f 9//9 10//10 12//12
f 12//12 10//10 11//11
f 14//14 19//19 13//13
f 13//13 19//19 20//20
f 13//13 20//20 21//21
f 19//19 14//14 17//17
f 17//17 14//14 15//15
f 17//17 15//15 21//21
f 21//21 15//15 16//16
f 21//21 16//16 13//13
f 17//17 18//18 19//19
f 22//22 23//23 25//25
f 25//25 23//23 24//24
f 26//26 27//27 30//30
f 30//30 27//27 28//28
f 30//30 28//28 29//29
f 31//31 32//32 34//34
f 34//34 32//32 33//33
f 35//35 36//36 38//38
f 38//38 36//36 37//37
f 40//40 41//41 39//39
f 39//39 41//41 42//42
f 43//43 44//44 46//46
f 46//46 44//44 45//45
f 47//47 48//48 50//50
f 50//50 48//48 49//49
f 51//51 52//52 54//54
f 54//54 52//52 53//53

# End of file