# WaveFront *.obj file
# Vertices: 120
# Triangles : 96

v -0.20000000298023224 -0.09747707843780518 2.1718099117279053
v -0.20000000298023224 -0.03230079635977745 2.138622760772705
v -0.20000000298023224 0.022907933220267296 2.0906505584716797
v -0.20000000298023224 0.06486766785383224 2.0307445526123047
v -0.20000000298023224 0.09108443558216095 1.9624656438827515
v -0.20000000298023224 0.10000000149011612 1.8898718357086182
v -0.20000000298023224 0.10000000149011612 -1.7394448518753052
v -0.20000000298023224 0.10900969803333282 -1.8124150037765503
v -0.20000000298023224 0.13549761474132538 -1.8810023069381714
v -0.20000000298023224 0.17787279188632965 -1.9410868883132935
v -0.20000000298023224 0.23358994722366333 -1.9890600442886353
v -0.20000000298023224 1.0 -2.5
v -0.20000000298023224 0.1658359169960022 -2.0829179286956787
v -0.20000000298023224 0.11018012464046478 -2.046900749206543
v -0.20000000298023224 0.06379345059394836 -1.9995397329330444
v -0.20000000298023224 0.028940999880433083 -1.9431473016738892
v -0.20000000298023224 0.007324668113142252 -1.8804771900177002
v -0.20000000298023224 0.0 -1.8145898580551147
v -0.20000000298023224 -5.551115123125783e-17 1.8145898580551147
v -0.20000000298023224 -0.007324668113142252 1.8804771900177002
v -0.20000000298023224 -0.028940999880433083 1.9431473016738892
v -0.20000000298023224 -0.06379345059394836 1.9995397329330444
v -0.20000000298023224 -0.11018012464046478 2.046900749206543
v -0.20000000298023224 -0.1658359169960022 2.0829179286956787
v -0.20000000298023224 -1.0 2.5
v -0.20000000298023224 0.10000000149011612 1.8898718357086182
v 0.20000000298023224 0.10000000149011612 1.8898718357086182
v 0.20000000298023224 0.10000000149011612 -1.7394448518753052
v -0.20000000298023224 0.10000000149011612 -1.7394448518753052
v -0.20000000298023224 0.10000000149011612 -1.7394448518753052
v 0.20000000298023224 0.10000000149011612 -1.7394448518753052
v 0.20000000298023224 0.10900969803333282 -1.8124150037765503
v 0.20000000298023224 0.13549761474132538 -1.8810023069381714
v 0.20000000298023224 0.17787279188632965 -1.9410868883132935
v 0.20000000298023224 0.23358994722366333 -1.9890600442886353
v -0.20000000298023224 0.23358994722366333 -1.9890600442886353
v -0.20000000298023224 0.17787279188632965 -1.9410868883132935
v -0.20000000298023224 0.13549761474132538 -1.8810023069381714
v -0.20000000298023224 0.10900969803333282 -1.8124150037765503
v -0.20000000298023224 0.23358994722366333 -1.9890600442886353
v 0.20000000298023224 0.23358994722366333 -1.9890600442886353
v 0.20000000298023224 1.0 -2.5
v -0.20000000298023224 1.0 -2.5
v -0.20000000298023224 1.0 -2.5
v 0.20000000298023224 1.0 -2.5
v 0.20000000298023224 0.1658359169960022 -2.0829179286956787
v -0.20000000298023224 0.1658359169960022 -2.0829179286956787
v -0.20000000298023224 0.1658359169960022 -2.0829179286956787
v 0.20000000298023224 0.1658359169960022 -2.0829179286956787
v 0.20000000298023224 0.11018012464046478 -2.046900749206543
v 0.20000000298023224 0.06379345059394836 -1.9995397329330444
v 0.20000000298023224 0.028940999880433083 -1.9431473016738892
v 0.20000000298023224 0.007324668113142252 -1.8804771900177002
v 0.20000000298023224 0.0 -1.8145898580551147
v -0.20000000298023224 0.0 -1.8145898580551147
v -0.20000000298023224 0.007324668113142252 -1.8804771900177002
v -0.20000000298023224 0.028940999880433083 -1.9431473016738892
v -0.20000000298023224 0.06379345059394836 -1.9995397329330444
v -0.20000000298023224 0.11018012464046478 -2.046900749206543
v -0.20000000298023224 0.0 -1.8145898580551147
v 0.20000000298023224 0.0 -1.8145898580551147
v 0.20000000298023224 -5.551115123125783e-17 1.8145898580551147
v -0.20000000298023224 -5.551115123125783e-17 1.8145898580551147
v -0.20000000298023224 -5.551115123125783e-17 1.8145898580551147
v 0.20000000298023224 -5.551115123125783e-17 1.8145898580551147
v 0.20000000298023224 -0.007324668113142252 1.8804771900177002
v 0.20000000298023224 -0.028940999880433083 1.9431473016738892
v 0.20000000298023224 -0.06379345059394836 1.9995397329330444
v 0.20000000298023224 -0.11018012464046478 2.046900749206543
v 0.20000000298023224 -0.1658359169960022 2.0829179286956787
v -0.20000000298023224 -0.1658359169960022 2.0829179286956787
v -0.20000000298023224 -0.11018012464046478 2.046900749206543
v -0.20000000298023224 -0.06379345059394836 1.9995397329330444
v -0.20000000298023224 -0.028940999880433083 1.9431473016738892
v -0.20000000298023224 -0.007324668113142252 1.8804771900177002
v -0.20000000298023224 -0.1658359169960022 2.0829179286956787
v 0.20000000298023224 -0.1658359169960022 2.0829179286956787
v 0.20000000298023224 -1.0 2.5
v -0.20000000298023224 -1.0 2.5
v -0.20000000298023224 -1.0 2.5
v 0.20000000298023224 -1.0 2.5
v 0.20000000298023224 -0.09747707843780518 2.1718099117279053
v -0.20000000298023224 -0.09747707843780518 2.1718099117279053
v -0.20000000298023224 -0.09747707843780518 2.1718099117279053
v 0.20000000298023224 -0.09747707843780518 2.1718099117279053
v 0.20000000298023224 -0.03230079635977745 2.138622760772705
v 0.20000000298023224 0.022907933220267296 2.0906505584716797
v 0.20000000298023224 0.06486766785383224 2.0307445526123047
v 0.20000000298023224 0.09108443558216095 1.9624656438827515
v 0.20000000298023224 0.10000000149011612 1.8898718357086182
v -0.20000000298023224 0.10000000149011612 1.8898718357086182
v -0.20000000298023224 0.09108443558216095 1.9624656438827515
v -0.20000000298023224 0.06486766785383224 2.0307445526123047
v -0.20000000298023224 0.022907933220267296 2.0906505584716797
v -0.20000000298023224 -0.03230079635977745 2.138622760772705
v 0.20000000298023224 0.10000000149011612 1.8898718357086182
v 0.20000000298023224 0.09108443558216095 1.9624656438827515
v 0.20000000298023224 0.06486766785383224 2.0307445526123047
v 0.20000000298023224 0.022907933220267296 2.0906505584716797
v 0.20000000298023224 -0.03230079635977745 2.138622760772705
v 0.20000000298023224 -0.09747707843780518 2.1718099117279053
v 0.20000000298023224 -1.0 2.5
v 0.20000000298023224 -0.1658359169960022 2.0829179286956787
v 0.20000000298023224 -0.11018012464046478 2.046900749206543
v 0.20000000298023224 -0.06379345059394836 1.9995397329330444
v 0.20000000298023224 -0.028940999880433083 1.9431473016738892
v 0.20000000298023224 -0.007324668113142252 1.8804771900177002
v 0.20000000298023224 -5.551115123125783e-17 1.8145898580551147
v 0.20000000298023224 0.0 -1.8145898580551147
v 0.20000000298023224 0.007324668113142252 -1.8804771900177002
v 0.20000000298023224 0.028940999880433083 -1.9431473016738892
v 0.20000000298023224 0.06379345059394836 -1.9995397329330444
v 0.20000000298023224 0.11018012464046478 -2.046900749206543
v 0.20000000298023224 0.1658359169960022 -2.0829179286956787
v 0.20000000298023224 1.0 -2.5
v 0.20000000298023224 0.23358994722366333 -1.9890600442886353
v 0.20000000298023224 0.17787279188632965 -1.9410868883132935
v 0.20000000298023224 0.13549761474132538 -1.8810023069381714
v 0.20000000298023224 0.10900969803333282 -1.8124150037765503
v 0.20000000298023224 0.10000000149011612 -1.7394448518753052
vn -1.0 -0.0 -0.0
vn -1.0 -0.0 -0.0
vn -1.0 -0.0 -0.0
vn -1.0 -0.0 -0.0
vn -1.0 -0.0 -0.0
vn -1.0 -0.0 -0.0
vn -1.0 -0.0 -0.0
vn -1.0 -0.0 -0.0
vn -1.0 -0.0 -0.0
vn -1.0 -0.0 -0.0
vn -1.0 -0.0 -0.0
vn -1.0 -0.0 -0.0
vn -1.0 -0.0 -0.0
vn -1.0 -0.0 -0.0
vn -1.0 -0.0 -0.0
vn -1.0 -0.0 -0.0
vn -1.0 -0.0 -0.0
vn -1.0 -0.0 -0.0
vn -1.0 -0.0 -0.0
vn -1.0 -0.0 -0.0
vn -1.0 -0.0 -0.0
vn -1.0 -0.0 -0.0
vn -1.0 -0.0 -0.0
vn -1.0 -0.0 -0.0
vn -1.0 -0.0 -0.0
vn 0.0 1.0 -1.5463268048951996e-17
vn 0.0 1.0 -1.5463268048951996e-17
vn 0.0 1.0 -1.5463268048951996e-17
vn 0.0 1.0 -1.5463268048951996e-17
vn 0.0 1.0 -1.480297330873836e-15
vn 0.0 1.0 -1.480297330873836e-15
vn -0.0 0.9699676632881165 0.2432338446378708
vn -0.0 0.881674587726593 0.4718579351902008
vn -0.0 0.7404240369796753 0.6721400618553162
vn -0.0 0.5547001957893372 0.8320503234863281
vn -0.0 0.5547001957893372 0.8320503234863281
vn -0.0 0.7404240369796753 0.6721400618553162
vn -0.0 0.881674587726593 0.4718579351902008
vn -0.0 0.9699676632881165 0.2432338446378708
vn -0.0 0.5547001957893372 0.8320503234863281
vn -0.0 0.5547001957893372 0.8320503234863281
vn -0.0 0.5547001957893372 0.8320503234863281
vn -0.0 0.5547001957893372 0.8320503234863281
vn 0.0 -0.4472135901451111 -0.8944271802902222
vn 0.0 -0.4472135901451111 -0.8944271802902222
vn 0.0 -0.4472135901451111 -0.8944271802902222
vn 0.0 -0.4472135901451111 -0.8944271802902222
vn 0.0 -0.4472135901451111 -0.8944271802902222
vn 0.0 -0.4472135901451111 -0.8944271802902222
vn 0.0 -0.6327329277992249 -0.7743701338768005
vn 0.0 -0.7873551845550537 -0.616499662399292
vn 0.0 -0.9035300016403198 -0.42852485179901123
vn 0.0 -0.9755844473838806 -0.21962468326091766
vn 0.0 -1.0 -1.480297330873836e-15
vn 0.0 -1.0 -1.480297330873836e-15
vn 0.0 -0.9755844473838806 -0.21962468326091766
vn 0.0 -0.9035300016403198 -0.42852485179901123
vn 0.0 -0.7873551845550537 -0.616499662399292
vn 0.0 -0.6327329277992249 -0.7743701338768005
vn 0.0 -1.0 -1.5295785481605935e-17
vn 0.0 -1.0 -1.5295785481605935e-17
vn 0.0 -1.0 -1.5295785481605935e-17
vn 0.0 -1.0 -1.5295785481605935e-17
vn 0.0 -1.0 7.40148665436918e-16
vn 0.0 -1.0 7.40148665436918e-16
vn 0.0 -0.9755844473838806 -0.21962468326091766
vn 0.0 -0.9035300016403198 -0.42852485179901123
vn 0.0 -0.7873551845550537 -0.616499662399292
vn 0.0 -0.6327329277992249 -0.7743701338768005
vn 0.0 -0.4472135901451111 -0.8944271802902222
vn 0.0 -0.4472135901451111 -0.8944271802902222
vn 0.0 -0.6327329277992249 -0.7743701338768005
vn 0.0 -0.7873551845550537 -0.616499662399292
vn 0.0 -0.9035300016403198 -0.42852485179901123
vn 0.0 -0.9755844473838806 -0.21962468326091766
vn 0.0 -0.4472135901451111 -0.8944271802902222
vn 0.0 -0.4472135901451111 -0.8944271802902222
vn 0.0 -0.4472135901451111 -0.8944271802902222
vn 0.0 -0.4472135901451111 -0.8944271802902222
vn -0.0 0.3417430520057678 0.9397934079170227
vn -0.0 0.3417430520057678 0.9397934079170227
vn -0.0 0.3417430520057678 0.9397934079170227
vn -0.0 0.3417430520057678 0.9397934079170227
vn -0.0 0.3417430520057678 0.9397934079170227
vn -0.0 0.3417430520057678 0.9397934079170227
vn -0.0 0.5589973330497742 0.8291694521903992
vn -0.0 0.7430264353752136 0.6692620515823364
vn -0.0 0.8828921914100647 0.4695757031440735
vn -0.0 0.9702814817428589 0.24197910726070404
vn -0.0 1.0 -0.0
vn -0.0 1.0 -0.0
vn -0.0 0.9702814817428589 0.24197910726070404
vn -0.0 0.8828921914100647 0.4695757031440735
vn -0.0 0.7430264353752136 0.6692620515823364
vn -0.0 0.5589973330497742 0.8291694521903992
vn 1.0 0.0 0.0
vn 1.0 0.0 0.0
vn 1.0 0.0 0.0
vn 1.0 0.0 0.0
vn 1.0 0.0 0.0
vn 1.0 0.0 0.0
vn 1.0 0.0 0.0
vn 1.0 0.0 0.0
vn 1.0 0.0 0.0
vn 1.0 0.0 0.0
vn 1.0 0.0 0.0
vn 1.0 0.0 0.0
vn 1.0 0.0 0.0
vn 1.0 0.0 0.0
vn 1.0 0.0 0.0
vn 1.0 0.0 0.0
vn 1.0 0.0 0.0
vn 1.0 0.0 0.0
vn 1.0 0.0 0.0
vn 1.0 0.0 0.0
vn 1.0 0.0 0.0
vn 1.0 0.0 0.0
vn 1.0 0.0 0.0
vn 1.0 0.0 0.0
vn 1.0 0.0 0.0
g 829e438a-e2b5-11ea-962d-54bf646e7e1f
f 2//2 22//22 1//1
f 1//1 22//22 23//23
f 1//1 23//23 24//24
f 22//22 2//2 21//21
f 21//21 2//2 3//3
f 21//21 3//3 20//20
f 20//20 3//3 4//4
f 20//20 4//4 5//5
f 5//5 6//6 20//20
f 20//20 6//6 19//19
f 19//19 6//6 7//7
f 19//19 7//7 18//18
f 18//18 7//7 17//17
f 17//17 7//7 8//8
f 17//17 8//8 16//16
f 16//16 8//8 15//15
f 15//15 8//8 9//9
f 15//15 9//9 14//14
f 14//14 9//9 10//10
f 14//14 10//10 13//13
f 13//13 10//10 11//11
f 13//13 11//11 12//12
f 24//24 25//25 1//1
g 829f2dde-e2b5-11ea-a2e3-54bf646e7e1f
f 27//27 28//28 26//26
f 26//26 28//28 29//29
g 829ff136-e2b5-11ea-b181-54bf646e7e1f
f 30//30 31//31 39//39
f 39//39 31//31 32//32
f 39//39 32//32 38//38
f 38//38 32//32 33//33
f 38//38 33//33 37//37
f 37//37 33//33 34//34
f 37//37 34//34 36//36
f 36//36 34//34 35//35
g 82a08d5e-e2b5-11ea-963f-54bf646e7e1f
f 41//41 42//42 40//40
f 40//40 42//42 43//43
g 82a150ba-e2b5-11ea-9238-54bf646e7e1f
f 45//45 46//46 44//44
f 44//44 46//46 47//47
g 82a213fe-e2b5-11ea-8081-54bf646e7e1f
f 48//48 49//49 59//59
f 59//59 49//49 50//50
f 59//59 50//50 58//58
f 58//58 50//50 51//51
f 58//58 51//51 57//57
f 57//57 51//51 52//52
f 57//57 52//52 56//56
f 56//56 52//52 53//53
f 56//56 53//53 55//55
f 55//55 53//53 54//54
g 82a2b040-e2b5-11ea-9a79-54bf646e7e1f
f 61//61 62//62 60//60
f 60//60 62//62 63//63
g 82a37394-e2b5-11ea-8131-54bf646e7e1f
f 64//64 65//65 75//75
f 75//75 65//65 66//66
f 75//75 66//66 74//74
f 74//74 66//66 67//67
f 74//74 67//67 73//73
f 73//73 67//67 68//68
f 73//73 68//68 72//72
f 72//72 68//68 69//69
f 72//72 69//69 71//71
f 71//71 69//69 70//70
g 82a436da-e2b5-11ea-9998-54bf646e7e1f
f 77//77 78//78 76//76
f 76//76 78//78 79//79
g 82a4d30c-e2b5-11ea-aa8a-54bf646e7e1f
f 81//81 82//82 80//80
f 80//80 82//82 83//83
g 82a5966c-e2b5-11ea-bd21-54bf646e7e1f
f 84//84 85//85 95//95
f 95//95 85//85 86//86
f 95//95 86//86 94//94
f 94//94 86//86 87//87
f 94//94 87//87 93//93
f 93//93 87//87 88//88
f 93//93 88//88 92//92
f 92//92 88//88 89//89
f 92//92 89//89 91//91
f 91//91 89//89 90//90
g 82a7b936-e2b5-11ea-a309-54bf646e7e1f
f 97//97 107//107 96//96
f 96//96 107//107 108//108
f 96//96 108//108 120//120
f 120//120 108//108 109//109
f 120//120 109//109 110//110
f 97//97 98//98 107//107
f 107//107 98//98 99//99
f 107//107 99//99 106//106
f 106//106 99//99 100//100
f 106//106 100//100 105//105
f 105//105 100//100 101//101
f 105//105 101//101 104//104
f 104//104 101//101 103//103
f 103//103 101//101 102//102
f 120//120 110//110 119//119
f 119//119 110//110 111//111
f 119//119 111//111 112//112
f 119//119 112//112 118//118
f 118//118 112//112 113//113
f 118//118 113//113 117//117
f 117//117 113//113 114//114
f 117//117 114//114 116//116
f 116//116 114//114 115//115

# End of file