# WaveFront *.obj file
# Vertices: 48
# Triangles : 28

v 1.5 0.0 0.4000000059604645
v 2.5 0.0 0.4000000059604645
v 2.5 0.30000001192092896 0.4000000059604645
v 1.5 0.30000001192092896 0.4000000059604645
v 1.5 0.0 -2.0
v 1.5 0.0 0.4000000059604645
v 1.5 0.30000001192092896 0.4000000059604645
v 1.5 0.30000001192092896 -2.0
v -1.5 0.0 -2.0
v 1.5 0.0 -2.0
v 1.5 0.30000001192092896 -2.0
v -1.5 0.30000001192092896 -2.0
v -1.5 0.0 0.4000000059604645
v -1.5 0.0 -2.0
v -1.5 0.30000001192092896 -2.0
v -1.5 0.30000001192092896 0.4000000059604645
v -2.5 0.0 0.4000000059604645
v -1.5 0.0 0.4000000059604645
v -1.5 0.30000001192092896 0.4000000059604645
v -2.5 0.30000001192092896 0.4000000059604645
v -2.5 0.0 -3.0
v -2.5 0.0 0.4000000059604645
v -2.5 0.30000001192092896 0.4000000059604645
v -2.5 0.30000001192092896 -3.0
v 2.5 0.0 -3.0
v -2.5 0.0 -3.0
v -2.5 0.30000001192092896 -3.0
v 2.5 0.30000001192092896 -3.0
v 2.5 0.0 0.4000000059604645
v 2.5 0.0 -3.0
v 2.5 0.30000001192092896 -3.0
v 2.5 0.30000001192092896 0.4000000059604645
v 2.5 0.30000001192092896 0.4000000059604645
v 2.5 0.30000001192092896 -3.0
v -2.5 0.30000001192092896 -3.0
v -2.5 0.30000001192092896 0.4000000059604645
v -1.5 0.30000001192092896 0.4000000059604645
v -1.5 0.30000001192092896 -2.0
v 1.5 0.30000001192092896 -2.0
v 1.5 0.30000001192092896 0.4000000059604645
v 2.5 0.0 -3.0
v 2.5 0.0 0.4000000059604645
v 1.5 0.0 0.4000000059604645
v 1.5 0.0 -2.0
v -1.5 0.0 -2.0
v -1.5 0.0 0.4000000059604645
v -2.5 0.0 0.4000000059604645
v -2.5 0.0 -3.0
vn 5.551115784870273e-17 -0.0 1.0
vn 5.551115784870273e-17 -0.0 1.0
vn 5.551115784870273e-17 -0.0 1.0
vn 5.551115784870273e-17 -0.0 1.0
vn -1.0 0.0 0.0
vn -1.0 0.0 0.0
vn -1.0 0.0 0.0
vn -1.0 0.0 0.0
vn 0.0 0.0 1.0
vn 0.0 0.0 1.0
vn 0.0 0.0 1.0
vn 0.0 0.0 1.0
vn 1.0 -0.0 9.251858317961474e-17
vn 1.0 -0.0 9.251858317961474e-17
vn 1.0 -0.0 9.251858317961474e-17
vn 1.0 -0.0 9.251858317961474e-17
vn 5.551115123125783e-17 -0.0 1.0
vn 5.551115123125783e-17 -0.0 1.0
vn 5.551115123125783e-17 -0.0 1.0
vn 5.551115123125783e-17 -0.0 1.0
vn -1.0 0.0 0.0
vn -1.0 0.0 0.0
vn -1.0 0.0 0.0
vn -1.0 0.0 0.0
vn 0.0 0.0 -1.0
vn 0.0 0.0 -1.0
vn 0.0 0.0 -1.0
vn 0.0 0.0 -1.0
vn 1.0 0.0 -1.3061446570008324e-16
vn 1.0 0.0 -1.3061446570008324e-16
vn 1.0 0.0 -1.3061446570008324e-16
vn 1.0 0.0 -1.3061446570008324e-16
vn 0.0 1.0 0.0
vn 0.0 1.0 0.0
vn 0.0 1.0 0.0
vn 0.0 1.0 0.0
vn 0.0 1.0 0.0
vn 0.0 1.0 0.0
vn 0.0 1.0 0.0
vn 0.0 1.0 0.0
vn -0.0 -1.0 -0.0
vn -0.0 -1.0 -0.0
vn -0.0 -1.0 -0.0
vn -0.0 -1.0 -0.0
vn -0.0 -1.0 -0.0
vn -0.0 -1.0 -0.0
vn -0.0 -1.0 -0.0
vn -0.0 -1.0 -0.0
g 3c644dde-e2b9-11ea-8a2b-54bf646e7e1f
f 1//1 2//2 4//4
f 4//4 2//2 3//3
g 3c658600-e2b9-11ea-91ef-54bf646e7e1f
f 5//5 6//6 8//8
f 8//8 6//6 7//7
g 3c66be0a-e2b9-11ea-955b-54bf646e7e1f
f 9//9 10//10 12//12
f 12//12 10//10 11//11
g 3c67f61e-e2b9-11ea-bca8-54bf646e7e1f
f 13//13 14//14 16//16
f 16//16 14//14 15//15
g 3c695524-e2b9-11ea-bf40-54bf646e7e1f
f 17//17 18//18 20//20
f 20//20 18//18 19//19
g 3c6ab436-e2b9-11ea-9c3b-54bf646e7e1f
f 21//21 22//22 24//24
f 24//24 22//22 23//23
g 3c6c134c-e2b9-11ea-96d8-54bf646e7e1f
f 25//25 26//26 28//28
f 28//28 26//26 27//27
g 3c6d7264-e2b9-11ea-a5d2-54bf646e7e1f
f 29//29 30//30 32//32
f 32//32 30//30 31//31
g 3c6eaa76-e2b9-11ea-ab34-54bf646e7e1f
f 40//40 33//33 39//39
f 39//39 33//33 34//34
f 39//39 34//34 38//38
f 38//38 34//34 35//35
f 38//38 35//35 36//36
f 36//36 37//37 38//38
g 3c700988-e2b9-11ea-95bf-54bf646e7e1f
f 42//42 44//44 41//41
f 41//41 44//44 45//45
f 41//41 45//45 48//48
f 48//48 45//45 47//47
f 47//47 45//45 46//46
f 42//42 43//43 44//44

# End of file