# WaveFront *.obj file
# Vertices: 72
# Triangles : 40

v 0.6349999904632568 -0.1587499976158142 3.174999952316284
v 0.6349999904632568 -0.3174999952316284 3.174999952316284
v 0.6349999904632568 -0.3174999952316284 3.492500066757202
v 0.6349999904632568 -0.1587499976158142 3.492500066757202
v 1.587499976158142 -0.1587499976158142 3.174999952316284
v 0.6349999904632568 -0.1587499976158142 3.174999952316284
v 0.6349999904632568 -0.1587499976158142 3.492500066757202
v 1.587499976158142 -0.1587499976158142 3.492500066757202
v 1.587499976158142 -0.3174999952316284 3.174999952316284
v 1.587499976158142 -0.1587499976158142 3.174999952316284
v 1.587499976158142 -0.1587499976158142 3.492500066757202
v 1.587499976158142 -0.3174999952316284 3.492500066757202
v 0.6349999904632568 -0.3174999952316284 3.174999952316284
v 1.587499976158142 -0.3174999952316284 3.174999952316284
v 1.587499976158142 -0.3174999952316284 3.492500066757202
v 0.6349999904632568 -0.3174999952316284 3.492500066757202
v 0.6349999904632568 -0.3174999952316284 3.492500066757202
v 1.587499976158142 -0.3174999952316284 3.492500066757202
v 1.587499976158142 -0.1587499976158142 3.492500066757202
v 0.6349999904632568 -0.1587499976158142 3.492500066757202
v 0.0 0.0 0.0
v 0.0 -0.4762499928474426 0.0
v 0.0 -0.4762499928474426 3.174999952316284
v 0.0 0.0 3.174999952316284
v 2.2225000858306885 0.0 0.0
v 0.0 0.0 0.0
v 0.0 0.0 3.174999952316284
v 2.2225000858306885 0.0 3.174999952316284
v 2.2225000858306885 -0.4762499928474426 0.0
v 2.2225000858306885 0.0 0.0
v 2.2225000858306885 0.0 3.174999952316284
v 2.2225000858306885 -0.4762499928474426 3.174999952316284
v 0.0 -0.4762499928474426 0.0
v 2.2225000858306885 -0.4762499928474426 0.0
v 2.2225000858306885 -0.4762499928474426 3.174999952316284
v 0.0 -0.4762499928474426 3.174999952316284
v 0.6349999904632568 -0.3174999952316284 3.174999952316284
v 0.6349999904632568 -0.1587499976158142 3.174999952316284
v 1.587499976158142 -0.1587499976158142 3.174999952316284
v 1.587499976158142 -0.3174999952316284 3.174999952316284
v 0.0 -0.4762499928474426 3.174999952316284
v 2.2225000858306885 -0.4762499928474426 3.174999952316284
v 2.2225000858306885 0.0 3.174999952316284
v 0.0 0.0 3.174999952316284
v 2.2225000858306885 -0.4762499928474426 0.0
v 0.0 -0.4762499928474426 0.0
v 0.0 0.0 0.0
v 2.2225000858306885 0.0 0.0
v 0.3174999952316284 -0.06350000202655792 3.492500066757202
v 0.3174999952316284 -0.4127500057220459 3.492500066757202
v 0.3174999952316284 -0.4127500057220459 4.445000171661377
v 0.3174999952316284 -0.06350000202655792 4.445000171661377
v 1.9049999713897705 -0.06350000202655792 3.492500066757202
v 0.3174999952316284 -0.06350000202655792 3.492500066757202
v 0.3174999952316284 -0.06350000202655792 4.445000171661377
v 1.9049999713897705 -0.06350000202655792 4.445000171661377
v 1.9049999713897705 -0.4127500057220459 3.492500066757202
v 1.9049999713897705 -0.06350000202655792 3.492500066757202
v 1.9049999713897705 -0.06350000202655792 4.445000171661377
v 1.9049999713897705 -0.4127500057220459 4.445000171661377
v 0.3174999952316284 -0.4127500057220459 3.492500066757202
v 1.9049999713897705 -0.4127500057220459 3.492500066757202
v 1.9049999713897705 -0.4127500057220459 4.445000171661377
v 0.3174999952316284 -0.4127500057220459 4.445000171661377
v 0.3174999952316284 -0.4127500057220459 4.445000171661377
v 1.9049999713897705 -0.4127500057220459 4.445000171661377
v 1.9049999713897705 -0.06350000202655792 4.445000171661377
v 0.3174999952316284 -0.06350000202655792 4.445000171661377
v 1.9049999713897705 -0.4127500057220459 3.492500066757202
v 0.3174999952316284 -0.4127500057220459 3.492500066757202
v 0.3174999952316284 -0.06350000202655792 3.492500066757202
v 1.9049999713897705 -0.06350000202655792 3.492500066757202
vn -1.0 0.0 0.0
vn -1.0 0.0 0.0
vn -1.0 0.0 0.0
vn -1.0 0.0 0.0
vn 0.0 1.0 0.0
vn 0.0 1.0 0.0
vn 0.0 1.0 0.0
vn 0.0 1.0 0.0
vn 1.0 0.0 -0.0
vn 1.0 0.0 -0.0
vn 1.0 0.0 -0.0
vn 1.0 0.0 -0.0
vn 0.0 -1.0 0.0
vn 0.0 -1.0 0.0
vn 0.0 -1.0 0.0
vn 0.0 -1.0 0.0
vn 0.0 0.0 1.0
vn 0.0 0.0 1.0
vn 0.0 0.0 1.0
vn 0.0 0.0 1.0
vn -1.0 0.0 0.0
vn -1.0 0.0 0.0
vn -1.0 0.0 0.0
vn -1.0 0.0 0.0
vn 0.0 1.0 0.0
vn 0.0 1.0 0.0
vn 0.0 1.0 0.0
vn 0.0 1.0 0.0
vn 1.0 0.0 -0.0
vn 1.0 0.0 -0.0
vn 1.0 0.0 -0.0
vn 1.0 0.0 -0.0
vn 0.0 -1.0 0.0
vn 0.0 -1.0 0.0
vn 0.0 -1.0 0.0
vn 0.0 -1.0 0.0
vn 0.0 0.0 1.0
vn 0.0 0.0 1.0
vn 0.0 0.0 1.0
vn 0.0 0.0 1.0
vn 0.0 0.0 1.0
vn 0.0 0.0 1.0
vn 0.0 0.0 1.0
vn 0.0 0.0 1.0
vn -0.0 0.0 -1.0
vn -0.0 0.0 -1.0
vn -0.0 0.0 -1.0
vn -0.0 0.0 -1.0
vn -1.0 0.0 0.0
vn -1.0 0.0 0.0
vn -1.0 0.0 0.0
vn -1.0 0.0 0.0
vn 0.0 1.0 0.0
vn 0.0 1.0 0.0
vn 0.0 1.0 0.0
vn 0.0 1.0 0.0
vn 1.0 0.0 -0.0
vn 1.0 0.0 -0.0
vn 1.0 0.0 -0.0
vn 1.0 0.0 -0.0
vn 0.0 -1.0 0.0
vn 0.0 -1.0 0.0
vn 0.0 -1.0 0.0
vn 0.0 -1.0 0.0
vn 0.0 0.0 1.0
vn 0.0 0.0 1.0
vn 0.0 0.0 1.0
vn 0.0 0.0 1.0
vn -0.0 -0.0 -1.0
vn -0.0 -0.0 -1.0
vn -0.0 -0.0 -1.0
vn -0.0 -0.0 -1.0
g fc86e0e8-e2bd-11ea-a1d4-54bf646e7e1f
f 1//1 2//2 4//4
f 4//4 2//2 3//3
g fc884090-e2bd-11ea-9ae8-54bf646e7e1f
f 5//5 6//6 8//8
f 8//8 6//6 7//7
g fc897962-e2bd-11ea-8f56-54bf646e7e1f
f 9//9 10//10 12//12
f 12//12 10//10 11//11
g fc8ab1f8-e2bd-11ea-89cc-54bf646e7e1f
f 13//13 14//14 16//16
f 16//16 14//14 15//15
g fc8bc3ae-e2bd-11ea-b0c9-54bf646e7e1f
f 17//17 18//18 20//20
f 20//20 18//18 19//19
g fc2ea088-e2bd-11ea-90a8-54bf646e7e1f
f 21//21 22//22 24//24
f 24//24 22//22 23//23
g fc2fd94a-e2bd-11ea-b3b5-54bf646e7e1f
f 25//25 26//26 28//28
f 28//28 26//26 27//27
g fc3111ee-e2bd-11ea-8970-54bf646e7e1f
f 29//29 30//30 32//32
f 32//32 30//30 31//31
g fc324a9c-e2bd-11ea-890f-54bf646e7e1f
f 33//33 34//34 36//36
f 36//36 34//34 35//35
g fc335c34-e2bd-11ea-a81f-54bf646e7e1f
f 38//38 41//41 37//37
f 37//37 41//41 42//42
f 37//37 42//42 40//40
f 40//40 42//42 39//39
f 39//39 42//42 43//43
f 39//39 43//43 44//44
f 41//41 38//38 44//44
f 44//44 38//38 39//39
g fc346dcc-e2bd-11ea-a697-54bf646e7e1f
f 45//45 46//46 48//48
f 48//48 46//46 47//47
g fcf4cef8-e2bd-11ea-9e25-54bf646e7e1f
f 49//49 50//50 52//52
f 52//52 50//50 51//51
g fcf7dcdc-e2bd-11ea-a13f-54bf646e7e1f
f 53//53 54//54 56//56
f 56//56 54//54 55//55
g fcfac36c-e2bd-11ea-896b-54bf646e7e1f
f 57//57 58//58 60//60
f 60//60 58//58 59//59
g fcfd5bfe-e2bd-11ea-b941-54bf646e7e1f
f 61//61 62//62 64//64
f 64//64 62//62 63//63
g fcfff482-e2bd-11ea-ac1b-54bf646e7e1f
f 65//65 66//66 68//68
f 68//68 66//66 67//67
g fd01f09e-e2bd-11ea-adb3-54bf646e7e1f
f 69//69 70//70 72//72
f 72//72 70//70 71//71

# End of file