# WaveFront *.obj file
# Vertices: 24
# Triangles : 12

v -61.0 7.199999809265137 5.599999904632568
v -61.0 7.199999809265137 0.0
v -61.0 0.0 0.0
v -61.0 0.0 5.599999904632568
v -61.0 7.199999809265137 0.0
v 61.0 7.199999809265137 0.0
v 61.0 0.0 0.0
v -61.0 0.0 0.0
v -61.0 0.0 0.0
v 61.0 0.0 0.0
v 61.0 0.0 5.599999904632568
v -61.0 0.0 5.599999904632568
v -61.0 0.0 5.599999904632568
v 61.0 0.0 5.599999904632568
v 61.0 7.199999809265137 5.599999904632568
v -61.0 7.199999809265137 5.599999904632568
v -61.0 7.199999809265137 5.599999904632568
v 61.0 7.199999809265137 5.599999904632568
v 61.0 7.199999809265137 0.0
v -61.0 7.199999809265137 0.0
v 61.0 7.199999809265137 0.0
v 61.0 7.199999809265137 5.599999904632568
v 61.0 0.0 5.599999904632568
v 61.0 0.0 0.0
vn -1.0 0.0 0.0
vn -1.0 0.0 0.0
vn -1.0 0.0 0.0
vn -1.0 0.0 0.0
vn 0.0 -0.0 -1.0
vn 0.0 -0.0 -1.0
vn 0.0 -0.0 -1.0
vn 0.0 -0.0 -1.0
vn 0.0 -1.0 0.0
vn 0.0 -1.0 0.0
vn 0.0 -1.0 0.0
vn 0.0 -1.0 0.0
vn 0.0 0.0 1.0
vn 0.0 0.0 1.0
vn 0.0 0.0 1.0
vn 0.0 0.0 1.0
vn -0.0 1.0 0.0
vn -0.0 1.0 0.0
vn -0.0 1.0 0.0
vn -0.0 1.0 0.0
vn 1.0 0.0 0.0
vn 1.0 0.0 0.0
vn 1.0 0.0 0.0
vn 1.0 0.0 0.0
g 45658038-e29d-11ea-895e-54bf646e7e1f
f 1//1 2//2 4//4
f 4//4 2//2 3//3
g 456706ae-e29d-11ea-b9ef-54bf646e7e1f
f 6//6 7//7 5//5
f 5//5 7//7 8//8
g 45686638-e29d-11ea-9ddb-54bf646e7e1f
f 10//10 11//11 9//9
f 9//9 11//11 12//12
g 4569ecda-e29d-11ea-ba51-54bf646e7e1f
f 14//14 15//15 13//13
f 13//13 15//15 16//16
g 456b2558-e29d-11ea-a825-54bf646e7e1f
f 18//18 19//19 17//17
f 17//17 19//19 20//20
g 456cd310-e29d-11ea-b309-54bf646e7e1f
f 21//21 22//22 24//24
f 24//24 22//22 23//23

# End of file