# WaveFront *.obj file
# Vertices: 96
# Triangles : 84

v 1.3856406211853027 0.0 -1.3000000715255737
v 1.4732766151428223 0.0 -1.1997733116149902
v 1.5536787509918213 0.0 -1.0936554670333862
v 1.626452088356018 0.0 -0.9821677803993225
v 1.691239356994629 0.0 -0.8658575415611267
v 1.7477225065231323 0.0 -0.7452958226203918
v 1.7956242561340332 0.0 -0.6210746169090271
v 1.8347091674804688 0.0 -0.4938039183616638
v 1.8647855520248413 0.0 -0.3641085624694824
v 1.885705590248108 0.0 -0.23262538015842438
v 1.8973666429519653 0.0 -0.10000000149011612
v 1.8973666429519653 2.299999952316284 -0.10000000149011612
v 1.885705590248108 2.299999952316284 -0.23262538015842438
v 1.8647855520248413 2.299999952316284 -0.3641085624694824
v 1.8347091674804688 2.299999952316284 -0.4938039183616638
v 1.7956242561340332 2.299999952316284 -0.6210746169090271
v 1.7477225065231323 2.299999952316284 -0.7452958226203918
v 1.691239356994629 2.299999952316284 -0.8658575415611267
v 1.626452088356018 2.299999952316284 -0.9821677803993225
v 1.5536787509918213 2.299999952316284 -1.0936554670333862
v 1.4732766151428223 2.299999952316284 -1.1997733116149902
v 1.3856406211853027 2.299999952316284 -1.3000000715255737
v 1.4534441232681274 0.0 -1.3000000715255737
v 1.3856406211853027 0.0 -1.3000000715255737
v 1.3856406211853027 2.299999952316284 -1.3000000715255737
v 1.4534441232681274 2.299999952316284 -1.3000000715255737
v 1.9474341869354248 0.0 -0.10000000149011612
v 1.9361753463745117 0.0 -0.2317870706319809
v 1.9160083532333374 0.0 -0.36250773072242737
v 1.887026309967041 0.0 -0.49156057834625244
v 1.8493623733520508 0.0 -0.6183518171310425
v 1.803189754486084 0.0 -0.7422981858253479
v 1.7487211227416992 0.0 -0.862829327583313
v 1.6862069368362427 0.0 -0.9793907403945923
v 1.6159347295761108 0.0 -1.0914461612701416
v 1.5382280349731445 0.0 -1.1984801292419434
v 1.4534441232681274 0.0 -1.3000000715255737
v 1.4534441232681274 2.299999952316284 -1.3000000715255737
v 1.5382280349731445 2.299999952316284 -1.1984801292419434
v 1.6159347295761108 2.299999952316284 -1.0914461612701416
v 1.6862069368362427 2.299999952316284 -0.9793907403945923
v 1.7487211227416992 2.299999952316284 -0.862829327583313
v 1.803189754486084 2.299999952316284 -0.7422981858253479
v 1.8493623733520508 2.299999952316284 -0.6183518171310425
v 1.887026309967041 2.299999952316284 -0.49156057834625244
v 1.9160083532333374 2.299999952316284 -0.36250773072242737
v 1.9361753463745117 2.299999952316284 -0.2317870706319809
v 1.9474341869354248 2.299999952316284 -0.10000000149011612
v 1.8973666429519653 0.0 -0.10000000149011612
v 1.9474341869354248 0.0 -0.10000000149011612
v 1.9474341869354248 2.299999952316284 -0.10000000149011612
v 1.8973666429519653 2.299999952316284 -0.10000000149011612
v 1.8973666429519653 2.299999952316284 -0.10000000149011612
v 1.9474341869354248 2.299999952316284 -0.10000000149011612
v 1.9361753463745117 2.299999952316284 -0.2317870706319809
v 1.9160083532333374 2.299999952316284 -0.36250773072242737
v 1.887026309967041 2.299999952316284 -0.49156057834625244
v 1.8493623733520508 2.299999952316284 -0.6183518171310425
v 1.803189754486084 2.299999952316284 -0.7422981858253479
v 1.7487211227416992 2.299999952316284 -0.862829327583313
v 1.6862069368362427 2.299999952316284 -0.9793907403945923
v 1.6159347295761108 2.299999952316284 -1.0914461612701416
v 1.5382280349731445 2.299999952316284 -1.1984801292419434
v 1.4534441232681274 2.299999952316284 -1.3000000715255737
v 1.3856406211853027 2.299999952316284 -1.3000000715255737
v 1.4732766151428223 2.299999952316284 -1.1997733116149902
v 1.5536787509918213 2.299999952316284 -1.0936554670333862
v 1.626452088356018 2.299999952316284 -0.9821677803993225
v 1.691239356994629 2.299999952316284 -0.8658575415611267
v 1.7477225065231323 2.299999952316284 -0.7452958226203918
v 1.7956242561340332 2.299999952316284 -0.6210746169090271
v 1.8347091674804688 2.299999952316284 -0.4938039183616638
v 1.8647855520248413 2.299999952316284 -0.3641085624694824
v 1.885705590248108 2.299999952316284 -0.23262538015842438
v 1.9474341869354248 0.0 -0.10000000149011612
v 1.8973666429519653 0.0 -0.10000000149011612
v 1.885705590248108 0.0 -0.23262538015842438
v 1.8647855520248413 0.0 -0.3641085624694824
v 1.8347091674804688 0.0 -0.4938039183616638
v 1.7956242561340332 0.0 -0.6210746169090271
v 1.7477225065231323 0.0 -0.7452958226203918
v 1.691239356994629 0.0 -0.8658575415611267
v 1.626452088356018 0.0 -0.9821677803993225
v 1.5536787509918213 0.0 -1.0936554670333862
v 1.4732766151428223 0.0 -1.1997733116149902
v 1.3856406211853027 0.0 -1.3000000715255737
v 1.4534441232681274 0.0 -1.3000000715255737
v 1.5382280349731445 0.0 -1.1984801292419434
v 1.6159347295761108 0.0 -1.0914461612701416
v 1.6862069368362427 0.0 -0.9793907403945923
v 1.7487211227416992 0.0 -0.862829327583313
v 1.803189754486084 0.0 -0.7422981858253479
v 1.8493623733520508 0.0 -0.6183518171310425
v 1.887026309967041 0.0 -0.49156057834625244
v 1.9160083532333374 0.0 -0.36250773072242737
v 1.9361753463745117 0.0 -0.2317870706319809
vn -0.7292845249176025 0.0 0.6842105388641357
vn -0.7754087448120117 0.0 0.6314595937728882
vn -0.817725658416748 0.0 0.5756081938743591
vn -0.8560274243354797 0.0 0.5169304013252258
vn -0.8901259899139404 0.0 0.45571449398994446
vn -0.9198539853096008 0.0 0.39226096868515015
vn -0.9450653791427612 0.0 0.32688137888908386
vn -0.9656363725662231 0.0 0.25989678502082825
vn -0.9814660549163818 0.0 0.1916360855102539
vn -0.9924765825271606 0.0 0.12243441492319107
vn -0.9986140131950378 0.0 0.05263157933950424
vn -0.9986140131950378 0.0 0.05263157933950424
vn -0.9924765825271606 0.0 0.12243441492319107
vn -0.9814660549163818 0.0 0.1916360855102539
vn -0.9656363725662231 0.0 0.25989678502082825
vn -0.9450653791427612 0.0 0.32688137888908386
vn -0.9198539853096008 0.0 0.39226096868515015
vn -0.8901259899139404 0.0 0.45571449398994446
vn -0.8560274243354797 0.0 0.5169304013252258
vn -0.817725658416748 0.0 0.5756081938743591
vn -0.7754087448120117 0.0 0.6314595937728882
vn -0.7292845249176025 0.0 0.6842105388641357
vn 0.0 0.0 -1.0
vn 0.0 0.0 -1.0
vn 0.0 0.0 -1.0
vn 0.0 0.0 -1.0
vn 0.9986842274665833 -0.0 -0.05128205195069313
vn 0.9929103851318359 -0.0 -0.11886516958475113
vn 0.9825683832168579 -0.0 -0.18590140342712402
vn 0.9677057862281799 -0.0 -0.25208234786987305
vn 0.9483909606933594 -0.0 -0.3171035051345825
vn 0.9247127175331116 -0.0 -0.38066571950912476
vn 0.8967800736427307 -0.0 -0.4424765706062317
vn 0.8647214770317078 -0.0 -0.5022516846656799
vn 0.8286845088005066 -0.0 -0.559715986251831
vn 0.7888348698616028 -0.0 -0.614605188369751
vn 0.7453559637069702 -0.0 -0.6666666865348816
vn 0.7453559637069702 -0.0 -0.6666666865348816
vn 0.7888348698616028 -0.0 -0.614605188369751
vn 0.8286845088005066 -0.0 -0.559715986251831
vn 0.8647214770317078 -0.0 -0.5022516846656799
vn 0.8967800736427307 -0.0 -0.4424765706062317
vn 0.9247127175331116 -0.0 -0.38066571950912476
vn 0.9483909606933594 -0.0 -0.3171035051345825
vn 0.9677057862281799 -0.0 -0.25208234786987305
vn 0.9825683832168579 -0.0 -0.18590140342712402
vn 0.9929103851318359 -0.0 -0.11886516958475113
vn 0.9986842274665833 -0.0 -0.05128205195069313
vn 0.0 -0.0 1.0
vn 0.0 -0.0 1.0
vn 0.0 -0.0 1.0
vn 0.0 -0.0 1.0
vn 0.0 1.0 0.0
vn 0.0 1.0 0.0
vn 0.0 1.0 0.0
vn 0.0 1.0 0.0
vn 0.0 1.0 0.0
vn 0.0 1.0 0.0
vn 0.0 1.0 0.0
vn 0.0 1.0 0.0
vn 0.0 1.0 0.0
vn 0.0 1.0 0.0
vn 0.0 1.0 0.0
vn 0.0 1.0 0.0
vn 0.0 1.0 0.0
vn 0.0 1.0 0.0
vn 0.0 1.0 0.0
vn 0.0 1.0 0.0
vn 0.0 1.0 0.0
vn 0.0 1.0 0.0
vn 0.0 1.0 0.0
vn 0.0 1.0 0.0
vn 0.0 1.0 0.0
vn 0.0 1.0 0.0
vn -0.0 -1.0 -0.0
vn -0.0 -1.0 -0.0
vn -0.0 -1.0 -0.0
vn -0.0 -1.0 -0.0
vn -0.0 -1.0 -0.0
vn -0.0 -1.0 -0.0
vn -0.0 -1.0 -0.0
vn -0.0 -1.0 -0.0
vn -0.0 -1.0 -0.0
vn -0.0 -1.0 -0.0
vn -0.0 -1.0 -0.0
vn -0.0 -1.0 -0.0
vn -0.0 -1.0 -0.0
vn -0.0 -1.0 -0.0
vn -0.0 -1.0 -0.0
vn -0.0 -1.0 -0.0
vn -0.0 -1.0 -0.0
vn -0.0 -1.0 -0.0
vn -0.0 -1.0 -0.0
vn -0.0 -1.0 -0.0
vn -0.0 -1.0 -0.0
vn -0.0 -1.0 -0.0
g a27c651c-e29f-11ea-8e0d-54bf646e7e1f
f 22//22 1//1 21//21
f 21//21 1//1 2//2
f 21//21 2//2 20//20
f 20//20 2//2 3//3
f 20//20 3//3 19//19
f 19//19 3//3 4//4
f 19//19 4//4 18//18
f 18//18 4//4 5//5
f 18//18 5//5 17//17
f 17//17 5//5 6//6
f 17//17 6//6 16//16
f 16//16 6//6 7//7
f 16//16 7//7 15//15
f 15//15 7//7 8//8
f 15//15 8//8 14//14
f 14//14 8//8 9//9
f 14//14 9//9 13//13
f 13//13 9//9 10//10
f 13//13 10//10 12//12
f 12//12 10//10 11//11
g a2867712-e29f-11ea-81cb-54bf646e7e1f
f 23//23 24//24 26//26
f 26//26 24//24 25//25
g a2914c8c-e29f-11ea-8dfb-54bf646e7e1f
f 48//48 27//27 47//47
f 47//47 27//27 28//28
f 47//47 28//28 46//46
f 46//46 28//28 29//29
f 46//46 29//29 45//45
f 45//45 29//29 30//30
f 45//45 30//30 44//44
f 44//44 30//30 31//31
f 44//44 31//31 43//43
f 43//43 31//31 32//32
f 43//43 32//32 42//42
f 42//42 32//32 33//33
f 42//42 33//33 41//41
f 41//41 33//33 34//34
f 41//41 34//34 40//40
f 40//40 34//34 35//35
f 40//40 35//35 39//39
f 39//39 35//35 36//36
f 39//39 36//36 38//38
f 38//38 36//36 37//37
g a29e930c-e29f-11ea-aa2d-54bf646e7e1f
f 49//49 50//50 52//52
f 52//52 50//50 51//51
g a2dc865c-e29f-11ea-a22e-54bf646e7e1f
f 54//54 55//55 53//53
f 53//53 55//55 74//74
f 74//74 55//55 56//56
f 74//74 56//56 73//73
f 73//73 56//56 57//57
f 73//73 57//57 72//72
f 72//72 57//57 58//58
f 72//72 58//58 71//71
f 71//71 58//58 59//59
f 71//71 59//59 70//70
f 70//70 59//59 60//60
f 70//70 60//60 69//69
f 69//69 60//60 61//61
f 69//69 61//61 68//68
f 68//68 61//61 62//62
f 68//68 62//62 67//67
f 67//67 62//62 63//63
f 67//67 63//63 66//66
f 66//66 63//63 64//64
f 66//66 64//64 65//65
g a2e7a9d8-e29f-11ea-b332-54bf646e7e1f
f 75//75 76//76 96//96
f 96//96 76//76 77//77
f 96//96 77//77 95//95
f 95//95 77//77 78//78
f 95//95 78//78 94//94
f 94//94 78//78 79//79
f 94//94 79//79 93//93
f 93//93 79//79 80//80
f 93//93 80//80 92//92
f 92//92 80//80 81//81
f 92//92 81//81 91//91
f 91//91 81//81 82//82
f 91//91 82//82 90//90
f 90//90 82//82 83//83
f 90//90 83//83 89//89
f 89//89 83//83 84//84
f 89//89 84//84 88//88
f 88//88 84//84 85//85
f 88//88 85//85 87//87
f 87//87 85//85 86//86

# End of file