# WaveFront *.obj file
# Vertices: 188
# Triangles : 164

v 0.3125 0.06400000303983688 -1.0390937328338623
v 0.32003840804100037 0.06400000303983688 -1.0818462371826172
v 0.34174445271492004 0.06400000303983688 -1.119442105293274
v 0.375 0.06400000303983688 -1.1473468542099
v 0.4157939851284027 0.06400000303983688 -1.1621946096420288
v 0.4592060148715973 0.06400000303983688 -1.1621946096420288
v 0.5 0.06400000303983688 -1.1473468542099
v 0.5332555770874023 0.06400000303983688 -1.119442105293274
v 0.5549615621566772 0.06400000303983688 -1.0818462371826172
v 0.5625 0.06400000303983688 -1.0390937328338623
v 0.5625 0.06400000303983688 -0.674906313419342
v 0.5549615621566772 0.06400000303983688 -0.6321538090705872
v 0.5332555770874023 0.06400000303983688 -0.5945578217506409
v 0.5 0.06400000303983688 -0.5666531324386597
v 0.4592060148715973 0.06400000303983688 -0.551805317401886
v 0.4157939851284027 0.06400000303983688 -0.551805317401886
v 0.375 0.06400000303983688 -0.5666531324386597
v 0.34174445271492004 0.06400000303983688 -0.5945578217506409
v 0.32003840804100037 0.06400000303983688 -0.6321538090705872
v 0.3125 0.06400000303983688 -0.674906313419342
v 0.9313449859619141 0.06400000303983688 -1.8460890054702759
v 1.055422067642212 0.06400000303983688 -1.9701660871505737
v 1.0579999685287476 0.06400000303983688 -3.0409369468688965
v 1.0579999685287476 0.06400000303983688 -3.2579894065856934
v 1.045988917350769 0.06400000303983688 -3.4076623916625977
v 1.0176619291305542 0.06400000303983688 -3.5551204681396484
v 0.9733595848083496 0.06400000303983688 -3.6985902786254883
v 0.9136145710945129 0.06400000303983688 -3.8363468647003174
v 0.8391454219818115 0.06400000303983688 -3.96673321723938
v 0.750847578048706 0.06400000303983688 -4.088181972503662
v 0.6497827768325806 0.06400000303983688 -4.199232578277588
v 0.5371663570404053 0.06400000303983688 -4.298549175262451
v 0.41435250639915466 0.06400000303983688 -4.3849382400512695
v 0.282818078994751 0.06400000303983688 -4.457360744476318
v 0.1441447138786316 0.06400000303983688 -4.5149455070495605
v 1.6653345369377348e-16 0.06400000303983688 -4.557000160217285
v 0.0 0.06400000303983688 0.0
v 0.875 0.06400000303983688 0.0
v 0.875 0.06400000303983688 -1.7139999866485596
v 0.8815714120864868 0.06400000303983688 -1.7625999450683594
v 0.9008137583732605 0.06400000303983688 -1.8077095746994019
v 1.8171228410857054e-16 0.0 -4.557000160217285
v 0.0 0.0 0.0
v 0.0 0.06400000303983688 0.0
v 1.6653345369377348e-16 0.06400000303983688 -4.557000160217285
v 1.0579999685287476 0.0 -3.0409369468688965
v 1.0579999685287476 0.0 -3.2579894065856934
v 1.0579999685287476 0.06400000303983688 -3.2579894065856934
v 1.0579999685287476 0.06400000303983688 -3.0409369468688965
v 1.0579999685287476 0.0 -3.2579894065856934
v 1.045988917350769 0.0 -3.4076623916625977
v 1.0176619291305542 0.0 -3.5551204681396484
v 0.9733595848083496 0.0 -3.6985902786254883
v 0.9136145710945129 0.0 -3.8363468647003174
v 0.8391454219818115 0.0 -3.96673321723938
v 0.750847578048706 0.0 -4.088181972503662
v 0.6497827768325806 0.0 -4.199232578277588
v 0.5371663570404053 0.0 -4.298549175262451
v 0.41435250639915466 0.0 -4.3849382400512695
v 0.282818078994751 0.0 -4.457360744476318
v 0.1441447138786316 0.0 -4.5149455070495605
v 1.8171228410857054e-16 0.0 -4.557000160217285
v 1.6653345369377348e-16 0.06400000303983688 -4.557000160217285
v 0.1441447138786316 0.06400000303983688 -4.5149455070495605
v 0.282818078994751 0.06400000303983688 -4.457360744476318
v 0.41435250639915466 0.06400000303983688 -4.3849382400512695
v 0.5371663570404053 0.06400000303983688 -4.298549175262451
v 0.6497827768325806 0.06400000303983688 -4.199232578277588
v 0.750847578048706 0.06400000303983688 -4.088181972503662
v 0.8391454219818115 0.06400000303983688 -3.96673321723938
v 0.9136145710945129 0.06400000303983688 -3.8363468647003174
v 0.9733595848083496 0.06400000303983688 -3.6985902786254883
v 1.0176619291305542 0.06400000303983688 -3.5551204681396484
v 1.045988917350769 0.06400000303983688 -3.4076623916625977
v 1.0579999685287476 0.06400000303983688 -3.2579894065856934
v 0.5625 0.0 -1.0390937328338623
v 0.5549615621566772 0.0 -1.0818462371826172
v 0.5332555770874023 0.0 -1.119442105293274
v 0.5 0.0 -1.1473468542099
v 0.4592060148715973 0.0 -1.1621946096420288
v 0.4157939851284027 0.0 -1.1621946096420288
v 0.375 0.0 -1.1473468542099
v 0.34174445271492004 0.0 -1.119442105293274
v 0.32003840804100037 0.0 -1.0818462371826172
v 0.3125 0.0 -1.0390937328338623
v 0.3125 0.0 -0.674906313419342
v 0.32003840804100037 0.0 -0.6321538090705872
v 0.34174445271492004 0.0 -0.5945578217506409
v 0.375 0.0 -0.5666531324386597
v 0.4157939851284027 0.0 -0.551805317401886
v 0.4592060148715973 0.0 -0.551805317401886
v 0.5 0.0 -0.5666531324386597
v 0.5332555770874023 0.0 -0.5945578217506409
v 0.5549615621566772 0.0 -0.6321538090705872
v 0.5625 0.0 -0.674906313419342
v 1.055422067642212 0.0 -1.9701660871505737
v 0.9313449859619141 0.0 -1.8460890054702759
v 0.9008137583732605 0.0 -1.8077095746994019
v 0.8815714120864868 0.0 -1.7625999450683594
v 0.875 0.0 -1.7139999866485596
v 0.875 0.0 0.0
v 0.0 0.0 0.0
v 1.8171228410857054e-16 0.0 -4.557000160217285
v 0.1441447138786316 0.0 -4.5149455070495605
v 0.282818078994751 0.0 -4.457360744476318
v 0.41435250639915466 0.0 -4.3849382400512695
v 0.5371663570404053 0.0 -4.298549175262451
v 0.6497827768325806 0.0 -4.199232578277588
v 0.750847578048706 0.0 -4.088181972503662
v 0.8391454219818115 0.0 -3.96673321723938
v 0.9136145710945129 0.0 -3.8363468647003174
v 0.9733595848083496 0.0 -3.6985902786254883
v 1.0176619291305542 0.0 -3.5551204681396484
v 1.045988917350769 0.0 -3.4076623916625977
v 1.0579999685287476 0.0 -3.2579894065856934
v 1.0579999685287476 0.0 -3.0409369468688965
v 1.055422067642212 0.0 -1.9701660871505737
v 1.0579999685287476 0.0 -3.0409369468688965
v 1.0579999685287476 0.06400000303983688 -3.0409369468688965
v 1.055422067642212 0.06400000303983688 -1.9701660871505737
v 0.875 0.0 0.0
v 0.875 0.0 -1.7139999866485596
v 0.875 0.06400000303983688 -1.7139999866485596
v 0.875 0.06400000303983688 0.0
v 0.875 0.0 -1.7139999866485596
v 0.8815714120864868 0.0 -1.7625999450683594
v 0.9008137583732605 0.0 -1.8077095746994019
v 0.9313449859619141 0.0 -1.8460890054702759
v 0.9313449859619141 0.06400000303983688 -1.8460890054702759
v 0.9008137583732605 0.06400000303983688 -1.8077095746994019
v 0.8815714120864868 0.06400000303983688 -1.7625999450683594
v 0.875 0.06400000303983688 -1.7139999866485596
v 0.0 0.0 0.0
v 0.875 0.0 0.0
v 0.875 0.06400000303983688 0.0
v 0.0 0.06400000303983688 0.0
v 0.3125 0.0 -1.0390937328338623
v 0.32003840804100037 0.0 -1.0818462371826172
v 0.34174445271492004 0.0 -1.119442105293274
v 0.375 0.0 -1.1473468542099
v 0.4157939851284027 0.0 -1.1621946096420288
v 0.4592060148715973 0.0 -1.1621946096420288
v 0.5 0.0 -1.1473468542099
v 0.5332555770874023 0.0 -1.119442105293274
v 0.5549615621566772 0.0 -1.0818462371826172
v 0.5625 0.0 -1.0390937328338623
v 0.5625 0.06400000303983688 -1.0390937328338623
v 0.5549615621566772 0.06400000303983688 -1.0818462371826172
v 0.5332555770874023 0.06400000303983688 -1.119442105293274
v 0.5 0.06400000303983688 -1.1473468542099
v 0.4592060148715973 0.06400000303983688 -1.1621946096420288
v 0.4157939851284027 0.06400000303983688 -1.1621946096420288
v 0.375 0.06400000303983688 -1.1473468542099
v 0.34174445271492004 0.06400000303983688 -1.119442105293274
v 0.32003840804100037 0.06400000303983688 -1.0818462371826172
v 0.3125 0.06400000303983688 -1.0390937328338623
v 0.5625 0.0 -1.0390937328338623
v 0.5625 0.0 -0.674906313419342
v 0.5625 0.06400000303983688 -0.674906313419342
v 0.5625 0.06400000303983688 -1.0390937328338623
v 0.5625 0.0 -0.674906313419342
v 0.5549615621566772 0.0 -0.6321538090705872
v 0.5332555770874023 0.0 -0.5945578217506409
v 0.5 0.0 -0.5666531324386597
v 0.4592060148715973 0.0 -0.551805317401886
v 0.4157939851284027 0.0 -0.551805317401886
v 0.375 0.0 -0.5666531324386597
v 0.34174445271492004 0.0 -0.5945578217506409
v 0.32003840804100037 0.0 -0.6321538090705872
v 0.3125 0.0 -0.674906313419342
v 0.3125 0.06400000303983688 -0.674906313419342
v 0.32003840804100037 0.06400000303983688 -0.6321538090705872
v 0.34174445271492004 0.06400000303983688 -0.5945578217506409
v 0.375 0.06400000303983688 -0.5666531324386597
v 0.4157939851284027 0.06400000303983688 -0.551805317401886
v 0.4592060148715973 0.06400000303983688 -0.551805317401886
v 0.5 0.06400000303983688 -0.5666531324386597
v 0.5332555770874023 0.06400000303983688 -0.5945578217506409
v 0.5549615621566772 0.06400000303983688 -0.6321538090705872
v 0.5625 0.06400000303983688 -0.674906313419342
v 0.9313449859619141 0.0 -1.8460890054702759
v 1.055422067642212 0.0 -1.9701660871505737
v 1.055422067642212 0.06400000303983688 -1.9701660871505737
v 0.9313449859619141 0.06400000303983688 -1.8460890054702759
v 0.3125 0.0 -0.674906313419342
v 0.3125 0.0 -1.0390937328338623
v 0.3125 0.06400000303983688 -1.0390937328338623
v 0.3125 0.06400000303983688 -0.674906313419342
vn 0.0 1.0 0.0
vn 0.0 1.0 0.0
vn 0.0 1.0 0.0
vn 0.0 1.0 0.0
vn 0.0 1.0 0.0
vn 0.0 1.0 0.0
vn 0.0 1.0 0.0
vn 0.0 1.0 0.0
vn 0.0 1.0 0.0
vn 0.0 1.0 0.0
vn 0.0 1.0 0.0
vn 0.0 1.0 0.0
vn 0.0 1.0 0.0
vn 0.0 1.0 0.0
vn 0.0 1.0 0.0
vn 0.0 1.0 0.0
vn 0.0 1.0 0.0
vn 0.0 1.0 0.0
vn 0.0 1.0 0.0
vn 0.0 1.0 0.0
vn 0.0 1.0 0.0
vn 0.0 1.0 0.0
vn 0.0 1.0 0.0
vn 0.0 1.0 0.0
vn 0.0 1.0 0.0
vn 0.0 1.0 0.0
vn 0.0 1.0 0.0
vn 0.0 1.0 0.0
vn 0.0 1.0 0.0
vn 0.0 1.0 0.0
vn 0.0 1.0 0.0
vn 0.0 1.0 0.0
vn 0.0 1.0 0.0
vn 0.0 1.0 0.0
vn 0.0 1.0 0.0
vn 0.0 1.0 0.0
vn 0.0 1.0 0.0
vn 0.0 1.0 0.0
vn 0.0 1.0 0.0
vn 0.0 1.0 0.0
vn 0.0 1.0 0.0
vn -1.0 0.0 0.0
vn -1.0 0.0 0.0
vn -1.0 0.0 0.0
vn -1.0 0.0 0.0
vn 1.0 -0.0 0.0
vn 1.0 -0.0 0.0
vn 1.0 -0.0 0.0
vn 1.0 -0.0 0.0
vn 0.9996820092201233 -0.0 -0.02521761693060398
vn 0.9909102916717529 -0.0 -0.13452443480491638
vn 0.9702229499816895 -0.0 -0.24221360683441162
vn 0.9378687739372253 -0.0 -0.346990168094635
vn 0.8942368030548096 -0.0 -0.44759422540664673
vn 0.8398516774177551 -0.0 -0.5428159832954407
vn 0.7753673791885376 -0.0 -0.6315103769302368
vn 0.7015594244003296 -0.0 -0.7126109600067139
vn 0.6193152070045471 -0.0 -0.7851424813270569
vn 0.529623806476593 -0.0 -0.848232626914978
vn 0.4335637092590332 -0.0 -0.9011229276657104
vn 0.33229002356529236 -0.0 -0.9431772828102112
vn 0.22702059149742126 -0.0 -0.973889946937561
vn 0.22702059149742126 -0.0 -0.973889946937561
vn 0.33229002356529236 -0.0 -0.9431772828102112
vn 0.4335637092590332 -0.0 -0.9011229276657104
vn 0.529623806476593 -0.0 -0.848232626914978
vn 0.6193152070045471 -0.0 -0.7851424813270569
vn 0.7015594244003296 -0.0 -0.7126109600067139
vn 0.7753673791885376 -0.0 -0.6315103769302368
vn 0.8398516774177551 -0.0 -0.5428159832954407
vn 0.8942368030548096 -0.0 -0.44759422540664673
vn 0.9378687739372253 -0.0 -0.346990168094635
vn 0.9702229499816895 -0.0 -0.24221360683441162
vn 0.9909102916717529 -0.0 -0.13452443480491638
vn 0.9996820092201233 -0.0 -0.02521761693060398
vn -0.0 -1.0 -0.0
vn -0.0 -1.0 -0.0
vn -0.0 -1.0 -0.0
vn -0.0 -1.0 -0.0
vn -0.0 -1.0 -0.0
vn -0.0 -1.0 -0.0
vn -0.0 -1.0 -0.0
vn -0.0 -1.0 -0.0
vn -0.0 -1.0 -0.0
vn -0.0 -1.0 -0.0
vn -0.0 -1.0 -0.0
vn -0.0 -1.0 -0.0
vn -0.0 -1.0 -0.0
vn -0.0 -1.0 -0.0
vn -0.0 -1.0 -0.0
vn -0.0 -1.0 -0.0
vn -0.0 -1.0 -0.0
vn -0.0 -1.0 -0.0
vn -0.0 -1.0 -0.0
vn -0.0 -1.0 -0.0
vn -0.0 -1.0 -0.0
vn -0.0 -1.0 -0.0
vn -0.0 -1.0 -0.0
vn -0.0 -1.0 -0.0
vn -0.0 -1.0 -0.0
vn -0.0 -1.0 -0.0
vn -0.0 -1.0 -0.0
vn -0.0 -1.0 -0.0
vn -0.0 -1.0 -0.0
vn -0.0 -1.0 -0.0
vn -0.0 -1.0 -0.0
vn -0.0 -1.0 -0.0
vn -0.0 -1.0 -0.0
vn -0.0 -1.0 -0.0
vn -0.0 -1.0 -0.0
vn -0.0 -1.0 -0.0
vn -0.0 -1.0 -0.0
vn -0.0 -1.0 -0.0
vn -0.0 -1.0 -0.0
vn -0.0 -1.0 -0.0
vn -0.0 -1.0 -0.0
vn 0.999997079372406 -0.0 0.0024075002875179052
vn 0.999997079372406 -0.0 0.0024075002875179052
vn 0.999997079372406 -0.0 0.0024075002875179052
vn 0.999997079372406 -0.0 0.0024075002875179052
vn 1.0 -0.0 0.0
vn 1.0 -0.0 0.0
vn 1.0 -0.0 0.0
vn 1.0 -0.0 0.0
vn 1.0 -0.0 1.2246468525851679e-16
vn 0.9640905857086182 -0.0 0.265573650598526
vn 0.8589412569999695 -0.0 0.5120741128921509
vn 0.6921038031578064 -0.0 0.7217980027198792
vn 0.6921038031578064 -0.0 0.7217980027198792
vn 0.8589412569999695 -0.0 0.5120741128921509
vn 0.9640905857086182 -0.0 0.265573650598526
vn 1.0 -0.0 1.2246468525851679e-16
vn 0.0 0.0 1.0
vn 0.0 0.0 1.0
vn 0.0 0.0 1.0
vn 0.0 0.0 1.0
vn 1.0 -0.0 1.2246468525851679e-16
vn 0.9396926164627075 -0.0 0.3420201539993286
vn 0.7660444378852844 -0.0 0.6427876353263855
vn 0.5 -0.0 0.8660253882408142
vn 0.1736481785774231 -0.0 0.9848077297210693
vn -0.1736481785774231 0.0 0.9848077297210693
vn -0.5 0.0 0.8660253882408142
vn -0.7660444378852844 0.0 0.6427876353263855
vn -0.9396926164627075 0.0 0.3420201539993286
vn -1.0 0.0 0.0
vn -1.0 0.0 0.0
vn -0.9396926164627075 0.0 0.3420201539993286
vn -0.7660444378852844 0.0 0.6427876353263855
vn -0.5 0.0 0.8660253882408142
vn -0.1736481785774231 0.0 0.9848077297210693
vn 0.1736481785774231 -0.0 0.9848077297210693
vn 0.5 -0.0 0.8660253882408142
vn 0.7660444378852844 -0.0 0.6427876353263855
vn 0.9396926164627075 -0.0 0.3420201539993286
vn 1.0 -0.0 1.2246468525851679e-16
vn -1.0 0.0 -3.0484938117830923e-16
vn -1.0 0.0 -3.0484938117830923e-16
vn -1.0 0.0 -3.0484938117830923e-16
vn -1.0 0.0 -3.0484938117830923e-16
vn -1.0 0.0 -1.2246468525851679e-16
vn -0.9396926164627075 0.0 -0.3420201539993286
vn -0.7660444378852844 0.0 -0.6427876353263855
vn -0.5 0.0 -0.8660253882408142
vn -0.1736481785774231 0.0 -0.9848077297210693
vn 0.1736481785774231 0.0 -0.9848077297210693
vn 0.5 0.0 -0.8660253882408142
vn 0.7660444378852844 0.0 -0.6427876353263855
vn 0.9396926164627075 0.0 -0.3420201539993286
vn 1.0 0.0 -0.0
vn 1.0 0.0 -0.0
vn 0.9396926164627075 0.0 -0.3420201539993286
vn 0.7660444378852844 0.0 -0.6427876353263855
vn 0.5 0.0 -0.8660253882408142
vn 0.1736481785774231 0.0 -0.9848077297210693
vn -0.1736481785774231 0.0 -0.9848077297210693
vn -0.5 0.0 -0.8660253882408142
vn -0.7660444378852844 0.0 -0.6427876353263855
vn -0.9396926164627075 0.0 -0.3420201539993286
vn -1.0 0.0 -1.2246468525851679e-16
vn 0.7071067690849304 -0.0 0.7071067690849304
vn 0.7071067690849304 -0.0 0.7071067690849304
vn 0.7071067690849304 -0.0 0.7071067690849304
vn 0.7071067690849304 -0.0 0.7071067690849304
vn 1.0 0.0 -3.0484938117830923e-16
vn 1.0 0.0 -3.0484938117830923e-16
vn 1.0 0.0 -3.0484938117830923e-16
vn 1.0 0.0 -3.0484938117830923e-16
f 2//2 36//36 1//1
f 1//1 36//36 37//37
f 1//1 37//37 20//20
f 20//20 37//37 19//19
f 19//19 37//37 18//18
f 18//18 37//37 17//17
f 17//17 37//37 16//16
f 16//16 37//37 38//38
f 16//16 38//38 15//15
f 15//15 38//38 14//14
f 14//14 38//38 13//13
f 13//13 38//38 12//12
f 12//12 38//38 11//11
f 11//11 38//38 10//10
f 10//10 38//38 39//39
f 10//10 39//39 9//9
f 9//9 39//39 8//8
f 8//8 39//39 7//7
f 7//7 39//39 40//40
f 7//7 40//40 6//6
f 6//6 40//40 31//31
f 6//6 31//31 32//32
f 36//36 2//2 35//35
f 35//35 2//2 3//3
f 35//35 3//3 34//34
f 34//34 3//3 4//4
f 34//34 4//4 33//33
f 33//33 4//4 5//5
f 33//33 5//5 32//32
f 32//32 5//5 6//6
f 22//22 23//23 21//21
f 21//21 23//23 41//41
f 41//41 23//23 29//29
f 41//41 29//29 40//40
f 40//40 29//29 30//30
f 40//40 30//30 31//31
f 24//24 26//26 23//23
f 23//23 26//26 27//27
f 23//23 27//27 28//28
f 24//24 25//25 26//26
f 28//28 29//29 23//23
f 42//42 43//43 45//45
f 45//45 43//43 44//44
f 46//46 47//47 49//49
f 49//49 47//47 48//48
f 75//75 50//50 74//74
f 74//74 50//50 51//51
f 74//74 51//51 73//73
f 73//73 51//51 52//52
f 73//73 52//52 72//72
f 72//72 52//52 53//53
f 72//72 53//53 71//71
f 71//71 53//53 54//54
f 71//71 54//54 70//70
f 70//70 54//54 55//55
f 70//70 55//55 69//69
f 69//69 55//55 56//56
f 69//69 56//56 68//68
f 68//68 56//56 57//57
f 68//68 57//57 67//67
f 67//67 57//57 58//58
f 67//67 58//58 66//66
f 66//66 58//58 59//59
f 66//66 59//59 65//65
f 65//65 59//59 60//60
f 65//65 60//60 64//64
f 64//64 60//60 61//61
f 64//64 61//61 63//63
f 63//63 61//61 62//62
f 77//77 100//100 76//76
f 76//76 100//100 101//101
f 76//76 101//101 95//95
f 95//95 101//101 94//94
f 94//94 101//101 93//93
f 93//93 101//101 92//92
f 92//92 101//101 91//91
f 91//91 101//101 102//102
f 91//91 102//102 90//90
f 90//90 102//102 89//89
f 89//89 102//102 88//88
f 88//88 102//102 87//87
f 87//87 102//102 86//86
f 86//86 102//102 85//85
f 85//85 102//102 103//103
f 85//85 103//103 84//84
f 84//84 103//103 104//104
f 84//84 104//104 83//83
f 83//83 104//104 105//105
f 83//83 105//105 82//82
f 82//82 105//105 106//106
f 82//82 106//106 81//81
f 81//81 106//106 107//107
f 81//81 107//107 80//80
f 80//80 107//107 108//108
f 80//80 108//108 99//99
f 99//99 108//108 109//109
f 99//99 109//109 110//110
f 77//77 78//78 100//100
f 100//100 78//78 79//79
f 100//100 79//79 99//99
f 99//99 79//79 80//80
f 96//96 97//97 116//116
f 116//116 97//97 98//98
f 116//116 98//98 110//110
f 110//110 98//98 99//99
f 110//110 111//111 116//116
f 116//116 111//111 112//112
f 116//116 112//112 113//113
f 114//114 115//115 113//113
f 113//113 115//115 116//116
f 117//117 118//118 120//120
f 120//120 118//118 119//119
f 121//121 122//122 124//124
f 124//124 122//122 123//123
f 132//132 125//125 131//131
f 131//131 125//125 126//126
f 131//131 126//126 130//130
f 130//130 126//126 127//127
f 130//130 127//127 129//129
f 129//129 127//127 128//128
f 133//133 134//134 136//136
f 136//136 134//134 135//135
f 156//156 137//137 155//155
f 155//155 137//137 138//138
f 155//155 138//138 154//154
f 154//154 138//138 139//139
f 154//154 139//139 153//153
f 153//153 139//139 140//140
f 153//153 140//140 152//152
f 152//152 140//140 141//141
f 152//152 141//141 151//151
f 151//151 141//141 142//142
f 151//151 142//142 150//150
f 150//150 142//142 143//143
f 150//150 143//143 149//149
f 149//149 143//143 144//144
f 149//149 144//144 148//148
f 148//148 144//144 145//145
f 148//148 145//145 147//147
f 147//147 145//145 146//146
f 157//157 158//158 160//160
f 160//160 158//158 159//159
f 180//180 161//161 179//179
f 179//179 161//161 162//162
f 179//179 162//162 178//178
f 178//178 162//162 163//163
f 178//178 163//163 177//177
f 177//177 163//163 164//164
f 177//177 164//164 176//176
f 176//176 164//164 165//165
f 176//176 165//165 175//175
f 175//175 165//165 166//166
f 175//175 166//166 174//174
f 174//174 166//166 167//167
f 174//174 167//167 173//173
f 173//173 167//167 168//168
f 173//173 168//168 172//172
f 172//172 168//168 169//169
f 172//172 169//169 171//171
f 171//171 169//169 170//170
f 181//181 182//182 184//184
f 184//184 182//182 183//183
f 185//185 186//186 188//188
f 188//188 186//186 187//187

# End of file