# WaveFront *.obj file
# Vertices: 172
# Triangles : 148

v 3.9000000953674316 0.0 -0.824999988079071
v 0.8999999761581421 0.0 -0.824999988079071
v 0.8999999761581421 0.06400000303983688 -0.824999988079071
v 3.9000000953674316 0.06400000303983688 -0.824999988079071
v 0.8999999761581421 0.0 -0.824999988079071
v 0.8999999761581421 0.0 -0.7440000176429749
v 0.8999999761581421 0.06400000303983688 -0.7440000176429749
v 0.8999999761581421 0.06400000303983688 -0.824999988079071
v 0.0 0.0 -0.1589999943971634
v 0.8999999761581421 0.0 -0.1589999943971634
v 0.8999999761581421 0.06400000303983688 -0.1589999943971634
v 0.0 0.06400000303983688 -0.1589999943971634
v 0.0 0.0 -0.7440000176429749
v 0.0 0.0 -0.1589999943971634
v 0.0 0.06400000303983688 -0.1589999943971634
v 0.0 0.06400000303983688 -0.7440000176429749
v 0.8999999761581421 0.0 -0.1589999943971634
v 1.5 0.0 -2.7755575615628914e-17
v 1.5 0.06400000303983688 0.0
v 0.8999999761581421 0.06400000303983688 -0.1589999943971634
v 1.5 0.0 -2.7755575615628914e-17
v 2.8383235931396484 0.0 0.0
v 2.8383235931396484 0.06400000303983688 0.0
v 1.5 0.06400000303983688 0.0
v 0.23942460119724274 0.0 -0.5515000224113464
v 0.20115625858306885 0.0 -0.5438879728317261
v 0.16871392726898193 0.0 -0.5222106575965881
v 0.14703664183616638 0.0 -0.4897683560848236
v 0.13942460715770721 0.0 -0.4514999985694885
v 0.14703664183616638 0.0 -0.41323167085647583
v 0.16871392726898193 0.0 -0.38078930974006653
v 0.20115625858306885 0.0 -0.35911205410957336
v 0.23942460119724274 0.0 -0.351500004529953
v 0.6000000238418579 0.0 -0.351500004529953
v 0.6382683515548706 0.0 -0.35911205410957336
v 0.6707106828689575 0.0 -0.38078930974006653
v 0.6923879384994507 0.0 -0.41323167085647583
v 0.699999988079071 0.0 -0.4514999985694885
v 0.6923879384994507 0.0 -0.4897683560848236
v 0.6707106828689575 0.0 -0.5222106575965881
v 0.6382683515548706 0.0 -0.5438879728317261
v 0.6000000238418579 0.0 -0.5515000224113464
v 0.0 0.0 -0.1589999943971634
v 0.0 0.0 -0.7440000176429749
v 0.8999999761581421 0.0 -0.7440000176429749
v 0.8999999761581421 0.0 -0.824999988079071
v 3.9000000953674316 0.0 -0.824999988079071
v 3.8638358116149902 0.0 -0.7099834084510803
v 3.8152525424957275 0.0 -0.5996368527412415
v 3.7548389434814453 0.0 -0.4952967166900635
v 3.683326482772827 0.0 -0.3982264995574951
v 3.601580858230591 0.0 -0.30960172414779663
v 3.510592460632324 0.0 -0.2304956167936325
v 3.4114627838134766 0.0 -0.16186615824699402
v 3.3053927421569824 0.0 -0.10454443097114563
v 3.1936662197113037 0.0 -0.05922461301088333
v 3.07763671875 0.0 -0.026455512270331383
v 2.9587090015411377 0.0 -0.006633962504565716
v 2.8383235931396484 0.0 0.0
v 1.5 0.0 -2.7755575615628914e-17
v 0.8999999761581421 0.0 -0.1589999943971634
v 2.8383235931396484 0.0 0.0
v 2.9587090015411377 0.0 -0.006633962504565716
v 3.07763671875 0.0 -0.026455512270331383
v 3.1936662197113037 0.0 -0.05922461301088333
v 3.3053927421569824 0.0 -0.10454443097114563
v 3.4114627838134766 0.0 -0.16186615824699402
v 3.510592460632324 0.0 -0.2304956167936325
v 3.601580858230591 0.0 -0.30960172414779663
v 3.683326482772827 0.0 -0.3982264995574951
v 3.7548389434814453 0.0 -0.4952967166900635
v 3.8152525424957275 0.0 -0.5996368527412415
v 3.8638358116149902 0.0 -0.7099834084510803
v 3.9000000953674316 0.0 -0.824999988079071
v 3.9000000953674316 0.06400000303983688 -0.824999988079071
v 3.8638358116149902 0.06400000303983688 -0.7099834084510803
v 3.8152525424957275 0.06400000303983688 -0.5996368527412415
v 3.7548389434814453 0.06400000303983688 -0.4952967166900635
v 3.683326482772827 0.06400000303983688 -0.3982264995574951
v 3.601580858230591 0.06400000303983688 -0.30960172414779663
v 3.510592460632324 0.06400000303983688 -0.2304956167936325
v 3.4114627838134766 0.06400000303983688 -0.16186615824699402
v 3.3053927421569824 0.06400000303983688 -0.10454443097114563
v 3.1936662197113037 0.06400000303983688 -0.05922461301088333
v 3.07763671875 0.06400000303983688 -0.026455512270331383
v 2.9587090015411377 0.06400000303983688 -0.006633962504565716
v 2.8383235931396484 0.06400000303983688 0.0
v 0.8999999761581421 0.0 -0.7440000176429749
v 0.0 0.0 -0.7440000176429749
v 0.0 0.06400000303983688 -0.7440000176429749
v 0.8999999761581421 0.06400000303983688 -0.7440000176429749
v 0.23942460119724274 0.06400000303983688 -0.351500004529953
v 0.20115625858306885 0.06400000303983688 -0.35911205410957336
v 0.16871392726898193 0.06400000303983688 -0.38078930974006653
v 0.14703664183616638 0.06400000303983688 -0.41323167085647583
v 0.13942460715770721 0.06400000303983688 -0.4514999985694885
v 0.14703664183616638 0.06400000303983688 -0.4897683560848236
v 0.16871392726898193 0.06400000303983688 -0.5222106575965881
v 0.20115625858306885 0.06400000303983688 -0.5438879728317261
v 0.23942460119724274 0.06400000303983688 -0.5515000224113464
v 0.6000000238418579 0.06400000303983688 -0.5515000224113464
v 0.6382683515548706 0.06400000303983688 -0.5438879728317261
v 0.6707106828689575 0.06400000303983688 -0.5222106575965881
v 0.6923879384994507 0.06400000303983688 -0.4897683560848236
v 0.699999988079071 0.06400000303983688 -0.4514999985694885
v 0.6923879384994507 0.06400000303983688 -0.41323167085647583
v 0.6707106828689575 0.06400000303983688 -0.38078930974006653
v 0.6382683515548706 0.06400000303983688 -0.35911205410957336
v 0.6000000238418579 0.06400000303983688 -0.351500004529953
v 0.0 0.06400000303983688 -0.7440000176429749
v 0.0 0.06400000303983688 -0.1589999943971634
v 0.8999999761581421 0.06400000303983688 -0.1589999943971634
v 1.5 0.06400000303983688 0.0
v 2.8383235931396484 0.06400000303983688 0.0
v 2.9587090015411377 0.06400000303983688 -0.006633962504565716
v 3.07763671875 0.06400000303983688 -0.026455512270331383
v 3.1936662197113037 0.06400000303983688 -0.05922461301088333
v 3.3053927421569824 0.06400000303983688 -0.10454443097114563
v 3.4114627838134766 0.06400000303983688 -0.16186615824699402
v 3.510592460632324 0.06400000303983688 -0.2304956167936325
v 3.601580858230591 0.06400000303983688 -0.30960172414779663
v 3.683326482772827 0.06400000303983688 -0.3982264995574951
v 3.7548389434814453 0.06400000303983688 -0.4952967166900635
v 3.8152525424957275 0.06400000303983688 -0.5996368527412415
v 3.8638358116149902 0.06400000303983688 -0.7099834084510803
v 3.9000000953674316 0.06400000303983688 -0.824999988079071
v 0.8999999761581421 0.06400000303983688 -0.824999988079071
v 0.8999999761581421 0.06400000303983688 -0.7440000176429749
v 0.23942460119724274 0.0 -0.351500004529953
v 0.20115625858306885 0.0 -0.35911205410957336
v 0.16871392726898193 0.0 -0.38078930974006653
v 0.14703664183616638 0.0 -0.41323167085647583
v 0.13942460715770721 0.0 -0.4514999985694885
v 0.14703664183616638 0.0 -0.4897683560848236
v 0.16871392726898193 0.0 -0.5222106575965881
v 0.20115625858306885 0.0 -0.5438879728317261
v 0.23942460119724274 0.0 -0.5515000224113464
v 0.23942460119724274 0.06400000303983688 -0.5515000224113464
v 0.20115625858306885 0.06400000303983688 -0.5438879728317261
v 0.16871392726898193 0.06400000303983688 -0.5222106575965881
v 0.14703664183616638 0.06400000303983688 -0.4897683560848236
v 0.13942460715770721 0.06400000303983688 -0.4514999985694885
v 0.14703664183616638 0.06400000303983688 -0.41323167085647583
v 0.16871392726898193 0.06400000303983688 -0.38078930974006653
v 0.20115625858306885 0.06400000303983688 -0.35911205410957336
v 0.23942460119724274 0.06400000303983688 -0.351500004529953
v 0.23942460119724274 0.0 -0.5515000224113464
v 0.6000000238418579 0.0 -0.5515000224113464
v 0.6000000238418579 0.06400000303983688 -0.5515000224113464
v 0.23942460119724274 0.06400000303983688 -0.5515000224113464
v 0.6000000238418579 0.0 -0.5515000224113464
v 0.6382683515548706 0.0 -0.5438879728317261
v 0.6707106828689575 0.0 -0.5222106575965881
v 0.6923879384994507 0.0 -0.4897683560848236
v 0.699999988079071 0.0 -0.4514999985694885
v 0.6923879384994507 0.0 -0.41323167085647583
v 0.6707106828689575 0.0 -0.38078930974006653
v 0.6382683515548706 0.0 -0.35911205410957336
v 0.6000000238418579 0.0 -0.351500004529953
v 0.6000000238418579 0.06400000303983688 -0.351500004529953
v 0.6382683515548706 0.06400000303983688 -0.35911205410957336
v 0.6707106828689575 0.06400000303983688 -0.38078930974006653
v 0.6923879384994507 0.06400000303983688 -0.41323167085647583
v 0.699999988079071 0.06400000303983688 -0.4514999985694885
v 0.6923879384994507 0.06400000303983688 -0.4897683560848236
v 0.6707106828689575 0.06400000303983688 -0.5222106575965881
v 0.6382683515548706 0.06400000303983688 -0.5438879728317261
v 0.6000000238418579 0.06400000303983688 -0.5515000224113464
v 0.6000000238418579 0.0 -0.351500004529953
v 0.23942460119724274 0.0 -0.351500004529953
v 0.23942460119724274 0.06400000303983688 -0.351500004529953
v 0.6000000238418579 0.06400000303983688 -0.351500004529953
vn 0.0 0.0 -1.0
vn 0.0 0.0 -1.0
vn 0.0 0.0 -1.0
vn 0.0 0.0 -1.0
vn -1.0 0.0 0.0
vn -1.0 0.0 0.0
vn -1.0 0.0 0.0
vn -1.0 0.0 0.0
vn 0.0 0.0 1.0
vn 0.0 0.0 1.0
vn 0.0 0.0 1.0
vn 0.0 0.0 1.0
vn -1.0 0.0 0.0
vn -1.0 0.0 0.0
vn -1.0 0.0 0.0
vn -1.0 0.0 0.0
vn -0.2561582326889038 0.0 0.9666348695755005
vn -0.2561582326889038 0.0 0.9666348695755005
vn -0.2561582326889038 0.0 0.9666348695755005
vn -0.2561582326889038 0.0 0.9666348695755005
vn 0.0 0.0 1.0
vn 0.0 0.0 1.0
vn 0.0 0.0 1.0
vn 0.0 0.0 1.0
vn -0.0 -1.0 -0.0
vn -0.0 -1.0 -0.0
vn -0.0 -1.0 -0.0
vn -0.0 -1.0 -0.0
vn -0.0 -1.0 -0.0
vn -0.0 -1.0 -0.0
vn -0.0 -1.0 -0.0
vn -0.0 -1.0 -0.0
vn -0.0 -1.0 -0.0
vn -0.0 -1.0 -0.0
vn -0.0 -1.0 -0.0
vn -0.0 -1.0 -0.0
vn -0.0 -1.0 -0.0
vn -0.0 -1.0 -0.0
vn -0.0 -1.0 -0.0
vn -0.0 -1.0 -0.0
vn -0.0 -1.0 -0.0
vn -0.0 -1.0 -0.0
vn -0.0 -1.0 -0.0
vn -0.0 -1.0 -0.0
vn -0.0 -1.0 -0.0
vn -0.0 -1.0 -0.0
vn -0.0 -1.0 -0.0
vn -0.0 -1.0 -0.0
vn -0.0 -1.0 -0.0
vn -0.0 -1.0 -0.0
vn -0.0 -1.0 -0.0
vn -0.0 -1.0 -0.0
vn -0.0 -1.0 -0.0
vn -0.0 -1.0 -0.0
vn -0.0 -1.0 -0.0
vn -0.0 -1.0 -0.0
vn -0.0 -1.0 -0.0
vn -0.0 -1.0 -0.0
vn -0.0 -1.0 -0.0
vn -0.0 -1.0 -0.0
vn -0.0 -1.0 -0.0
vn -0.0 -0.0 1.0
vn 0.10987833142280579 -0.0 0.9939450621604919
vn 0.21842603385448456 -0.0 0.9758535027503967
vn 0.32432863116264343 -0.0 0.9459444880485535
vn 0.4263036251068115 -0.0 0.9045801162719727
vn 0.5231161117553711 -0.0 0.8522614240646362
vn 0.6135937571525574 -0.0 0.789621889591217
vn 0.6966407895088196 -0.0 0.7174201011657715
vn 0.7712516188621521 -0.0 0.6365303993225098
vn 0.8365225791931152 -0.0 0.5479324460029602
vn 0.8916633725166321 -0.0 0.4526990056037903
vn 0.9360062479972839 -0.0 0.3519834578037262
vn 0.9690141081809998 -0.0 0.2470054179430008
vn 0.9690141081809998 -0.0 0.2470054179430008
vn 0.9360062479972839 -0.0 0.3519834578037262
vn 0.8916633725166321 -0.0 0.4526990056037903
vn 0.8365225791931152 -0.0 0.5479324460029602
vn 0.7712516188621521 -0.0 0.6365303993225098
vn 0.6966407895088196 -0.0 0.7174201011657715
vn 0.6135937571525574 -0.0 0.789621889591217
vn 0.5231161117553711 -0.0 0.8522614240646362
vn 0.4263036251068115 -0.0 0.9045801162719727
vn 0.32432863116264343 -0.0 0.9459444880485535
vn 0.21842603385448456 -0.0 0.9758535027503967
vn 0.10987833142280579 -0.0 0.9939450621604919
vn -0.0 -0.0 1.0
vn 0.0 0.0 -1.0
vn 0.0 0.0 -1.0
vn 0.0 0.0 -1.0
vn 0.0 0.0 -1.0
vn 0.0 1.0 0.0
vn 0.0 1.0 0.0
vn 0.0 1.0 0.0
vn 0.0 1.0 0.0
vn 0.0 1.0 0.0
vn 0.0 1.0 0.0
vn 0.0 1.0 0.0
vn 0.0 1.0 0.0
vn 0.0 1.0 0.0
vn 0.0 1.0 0.0
vn 0.0 1.0 0.0
vn 0.0 1.0 0.0
vn 0.0 1.0 0.0
vn 0.0 1.0 0.0
vn 0.0 1.0 0.0
vn 0.0 1.0 0.0
vn 0.0 1.0 0.0
vn 0.0 1.0 0.0
vn 0.0 1.0 0.0
vn 0.0 1.0 0.0
vn 0.0 1.0 0.0
vn 0.0 1.0 0.0
vn 0.0 1.0 0.0
vn 0.0 1.0 0.0
vn 0.0 1.0 0.0
vn 0.0 1.0 0.0
vn 0.0 1.0 0.0
vn 0.0 1.0 0.0
vn 0.0 1.0 0.0
vn 0.0 1.0 0.0
vn 0.0 1.0 0.0
vn 0.0 1.0 0.0
vn 0.0 1.0 0.0
vn 0.0 1.0 0.0
vn 0.0 1.0 0.0
vn 0.0 1.0 0.0
vn 0.0 1.0 0.0
vn 1.2246468525851679e-16 0.0 -1.0
vn 0.3826834261417389 0.0 -0.9238795042037964
vn 0.7071067690849304 0.0 -0.7071067690849304
vn 0.9238795042037964 0.0 -0.3826834261417389
vn 1.0 -0.0 6.123234262925839e-17
vn 0.9238795042037964 -0.0 0.3826834261417389
vn 0.7071067690849304 -0.0 0.7071067690849304
vn 0.3826834261417389 -0.0 0.9238795042037964
vn 0.0 -0.0 1.0
vn 0.0 -0.0 1.0
vn 0.3826834261417389 -0.0 0.9238795042037964
vn 0.7071067690849304 -0.0 0.7071067690849304
vn 0.9238795042037964 -0.0 0.3826834261417389
vn 1.0 -0.0 6.123234262925839e-17
vn 0.9238795042037964 0.0 -0.3826834261417389
vn 0.7071067690849304 0.0 -0.7071067690849304
vn 0.3826834261417389 0.0 -0.9238795042037964
vn 1.2246468525851679e-16 0.0 -1.0
vn 0.0 0.0 1.0
vn 0.0 0.0 1.0
vn 0.0 0.0 1.0
vn 0.0 0.0 1.0
vn -1.2246468525851679e-16 0.0 1.0
vn -0.3826834261417389 0.0 0.9238795042037964
vn -0.7071067690849304 0.0 0.7071067690849304
vn -0.9238795042037964 0.0 0.3826834261417389
vn -1.0 0.0 -6.123234262925839e-17
vn -0.9238795042037964 0.0 -0.3826834261417389
vn -0.7071067690849304 0.0 -0.7071067690849304
vn -0.3826834261417389 0.0 -0.9238795042037964
vn 0.0 0.0 -1.0
vn 0.0 0.0 -1.0
vn -0.3826834261417389 0.0 -0.9238795042037964
vn -0.7071067690849304 0.0 -0.7071067690849304
vn -0.9238795042037964 0.0 -0.3826834261417389
vn -1.0 0.0 -6.123234262925839e-17
vn -0.9238795042037964 0.0 0.3826834261417389
vn -0.7071067690849304 0.0 0.7071067690849304
vn -0.3826834261417389 0.0 0.9238795042037964
vn -1.2246468525851679e-16 0.0 1.0
vn -0.0 0.0 -1.0
vn -0.0 0.0 -1.0
vn -0.0 0.0 -1.0
vn -0.0 0.0 -1.0
f 1//1 2//2 4//4
f 4//4 2//2 3//3
f 5//5 6//6 8//8
f 8//8 6//6 7//7
f 9//9 10//10 12//12
f 12//12 10//10 11//11
f 13//13 14//14 16//16
f 16//16 14//14 15//15
f 17//17 18//18 20//20
f 20//20 18//18 19//19
f 21//21 22//22 24//24
f 24//24 22//22 23//23
f 42//42 25//25 44//44
f 44//44 25//25 26//26
f 44//44 26//26 27//27
f 27//27 28//28 44//44
f 44//44 28//28 29//29
f 44//44 29//29 43//43
f 43//43 29//29 30//30
f 43//43 30//30 31//31
f 31//31 32//32 43//43
f 43//43 32//32 33//33
f 43//43 33//33 34//34
f 43//43 34//34 61//61
f 61//61 34//34 35//35
f 61//61 35//35 36//36
f 36//36 37//37 61//61
f 61//61 37//37 60//60
f 60//60 37//37 38//38
f 60//60 38//38 59//59
f 59//59 38//38 52//52
f 59//59 52//52 53//53
f 52//52 38//38 45//45
f 45//45 38//38 39//39
f 45//45 39//39 40//40
f 40//40 41//41 45//45
f 45//45 41//41 42//42
f 45//45 42//42 44//44
f 46//46 48//48 45//45
f 45//45 48//48 49//49
f 45//45 49//49 50//50
f 46//46 47//47 48//48
f 50//50 51//51 45//45
f 45//45 51//51 52//52
f 53//53 54//54 59//59
f 59//59 54//54 55//55
f 59//59 55//55 56//56
f 56//56 57//57 59//59
f 59//59 57//57 58//58
f 87//87 62//62 86//86
f 86//86 62//62 63//63
f 86//86 63//63 64//64
f 86//86 64//64 85//85
f 85//85 64//64 65//65
f 85//85 65//65 84//84
f 84//84 65//65 66//66
f 84//84 66//66 83//83
f 83//83 66//66 67//67
f 83//83 67//67 82//82
f 82//82 67//67 68//68
f 82//82 68//68 81//81
f 81//81 68//68 69//69
f 81//81 69//69 80//80
f 80//80 69//69 70//70
f 80//80 70//70 79//79
f 79//79 70//70 71//71
f 79//79 71//71 78//78
f 78//78 71//71 72//72
f 78//78 72//72 77//77
f 77//77 72//72 73//73
f 77//77 73//73 76//76
f 76//76 73//73 75//75
f 75//75 73//73 74//74
f 88//88 89//89 91//91
f 91//91 89//89 90//90
f 109//109 92//92 111//111
f 111//111 92//92 93//93
f 111//111 93//93 94//94
f 94//94 95//95 111//111
f 111//111 95//95 96//96
f 111//111 96//96 110//110
f 110//110 96//96 97//97
f 110//110 97//97 98//98
f 98//98 99//99 110//110
f 110//110 99//99 100//100
f 110//110 100//100 101//101
f 110//110 101//101 128//128
f 128//128 101//101 102//102
f 128//128 102//102 103//103
f 103//103 104//104 128//128
f 128//128 104//104 105//105
f 128//128 105//105 121//121
f 121//121 105//105 114//114
f 121//121 114//114 120//120
f 120//120 114//114 119//119
f 119//119 114//114 118//118
f 118//118 114//114 117//117
f 117//117 114//114 116//116
f 116//116 114//114 115//115
f 114//114 105//105 113//113
f 113//113 105//105 106//106
f 113//113 106//106 112//112
f 112//112 106//106 107//107
f 112//112 107//107 108//108
f 108//108 109//109 112//112
f 112//112 109//109 111//111
f 121//121 122//122 128//128
f 128//128 122//122 123//123
f 128//128 123//123 124//124
f 124//124 125//125 128//128
f 128//128 125//125 127//127
f 127//127 125//125 126//126
f 146//146 129//129 145//145
f 145//145 129//129 130//130
f 145//145 130//130 144//144
f 144//144 130//130 131//131
f 144//144 131//131 143//143
f 143//143 131//131 132//132
f 143//143 132//132 142//142
f 142//142 132//132 133//133
f 142//142 133//133 141//141
f 141//141 133//133 134//134
f 141//141 134//134 140//140
f 140//140 134//134 135//135
f 140//140 135//135 139//139
f 139//139 135//135 136//136
f 139//139 136//136 138//138
f 138//138 136//136 137//137
f 147//147 148//148 150//150
f 150//150 148//148 149//149
f 168//168 151//151 167//167
f 167//167 151//151 152//152
f 167//167 152//152 166//166
f 166//166 152//152 153//153
f 166//166 153//153 165//165
f 165//165 153//153 154//154
f 165//165 154//154 164//164
f 164//164 154//154 155//155
f 164//164 155//155 163//163
f 163//163 155//155 156//156
f 163//163 156//156 162//162
f 162//162 156//156 157//157
f 162//162 157//157 161//161
f 161//161 157//157 158//158
f 161//161 158//158 160//160
f 160//160 158//158 159//159
f 169//169 170//170 172//172
f 172//172 170//170 171//171

# End of file