# WaveFront *.obj file
# Vertices: 204
# Triangles : 200

v -0.8731250166893005 15.519399642944336 1.0692697095443502e-16
v -0.8433740139007568 15.519399642944336 0.22598138451576233
v -0.7561484575271606 15.519399642944336 0.43656250834465027
v -0.6173925995826721 15.519399642944336 0.6173925995826721
v -0.43656250834465027 15.519399642944336 0.7561484575271606
v -0.22598138451576233 15.519399642944336 0.8433740139007568
v 5.346348547721751e-17 15.519399642944336 0.8731250166893005
v 0.22598138451576233 15.519399642944336 0.8433740139007568
v 0.43656250834465027 15.519399642944336 0.7561484575271606
v 0.6173925995826721 15.519399642944336 0.6173925995826721
v 0.7561484575271606 15.519399642944336 0.43656250834465027
v 0.8433740139007568 15.519399642944336 0.22598138451576233
v 0.8731250166893005 15.519399642944336 0.0
v 0.8433740139007568 15.519399642944336 -0.22598138451576233
v 0.7561484575271606 15.519399642944336 -0.43656250834465027
v 0.6173925995826721 15.519399642944336 -0.6173925995826721
v 0.43656250834465027 15.519399642944336 -0.7561484575271606
v 0.22598138451576233 15.519399642944336 -0.8433740139007568
v 5.346348547721751e-17 15.519399642944336 -0.8731250166893005
v -0.22598138451576233 15.519399642944336 -0.8433740139007568
v -0.43656250834465027 15.519399642944336 -0.7561484575271606
v -0.6173925995826721 15.519399642944336 -0.6173925995826721
v -0.7561484575271606 15.519399642944336 -0.43656250834465027
v -0.8433740139007568 15.519399642944336 -0.22598138451576233
v -0.8731250166893005 0.0 1.0692697095443502e-16
v -0.8433740139007568 0.0 -0.22598138451576233
v -0.7561484575271606 0.0 -0.43656250834465027
v -0.6173925995826721 0.0 -0.6173925995826721
v -0.43656250834465027 0.0 -0.7561484575271606
v -0.22598138451576233 0.0 -0.8433740139007568
v 5.346348547721751e-17 0.0 -0.8731250166893005
v 0.22598138451576233 0.0 -0.8433740139007568
v 0.43656250834465027 0.0 -0.7561484575271606
v 0.6173925995826721 0.0 -0.6173925995826721
v 0.7561484575271606 0.0 -0.43656250834465027
v 0.8433740139007568 0.0 -0.22598138451576233
v 0.8731250166893005 0.0 0.0
v 0.8433740139007568 0.0 0.22598138451576233
v 0.7561484575271606 0.0 0.43656250834465027
v 0.6173925995826721 0.0 0.6173925995826721
v 0.43656250834465027 0.0 0.7561484575271606
v 0.22598138451576233 0.0 0.8433740139007568
v 5.346348547721751e-17 0.0 0.8731250166893005
v -0.22598138451576233 0.0 0.8433740139007568
v -0.43656250834465027 0.0 0.7561484575271606
v -0.6173925995826721 0.0 0.6173925995826721
v -0.7561484575271606 0.0 0.43656250834465027
v -0.8433740139007568 0.0 0.22598138451576233
v -0.8731250166893005 15.519399642944336 1.0692697095443502e-16
v -0.8731250166893005 0.0 1.0692697095443502e-16
v -0.8731250166893005 0.0 1.0692697095443502e-16
v -0.8433740139007568 0.0 0.22598138451576233
v -0.7561484575271606 0.0 0.43656250834465027
v -0.6173925995826721 0.0 0.6173925995826721
v -0.43656250834465027 0.0 0.7561484575271606
v -0.22598138451576233 0.0 0.8433740139007568
v 5.346348547721751e-17 0.0 0.8731250166893005
v 0.22598138451576233 0.0 0.8433740139007568
v 0.43656250834465027 0.0 0.7561484575271606
v 0.6173925995826721 0.0 0.6173925995826721
v 0.7561484575271606 0.0 0.43656250834465027
v 0.8433740139007568 0.0 0.22598138451576233
v 0.8731250166893005 0.0 0.0
v 0.8433740139007568 0.0 -0.22598138451576233
v 0.7561484575271606 0.0 -0.43656250834465027
v 0.6173925995826721 0.0 -0.6173925995826721
v 0.43656250834465027 0.0 -0.7561484575271606
v 0.22598138451576233 0.0 -0.8433740139007568
v 5.346348547721751e-17 0.0 -0.8731250166893005
v -0.22598138451576233 0.0 -0.8433740139007568
v -0.43656250834465027 0.0 -0.7561484575271606
v -0.6173925995826721 0.0 -0.6173925995826721
v -0.7561484575271606 0.0 -0.43656250834465027
v -0.8433740139007568 0.0 -0.22598138451576233
v -1.0318750143051147 0.0 1.2636823659593823e-16
v -1.0018905401229858 0.0 -0.24694384634494781
v -0.9136799573898315 0.0 -0.479536235332489
v -0.7723695039749146 0.0 -0.6842597126960754
v -0.5861718058586121 0.0 -0.8492164611816406
v -0.3659079074859619 0.0 -0.9648199081420898
v -0.12437878549098969 0.0 -1.0243514776229858
v 0.12437878549098969 0.0 -1.0243514776229858
v 0.3659079074859619 0.0 -0.9648199081420898
v 0.5861718058586121 0.0 -0.8492164611816406
v 0.7723695039749146 0.0 -0.6842597126960754
v 0.9136799573898315 0.0 -0.479536235332489
v 1.0018905401229858 0.0 -0.24694384634494781
v 1.0318750143051147 0.0 0.0
v 1.0018905401229858 0.0 0.24694384634494781
v 0.9136799573898315 0.0 0.479536235332489
v 0.7723695039749146 0.0 0.6842597126960754
v 0.5861718058586121 0.0 0.8492164611816406
v 0.3659079074859619 0.0 0.9648199081420898
v 0.12437878549098969 0.0 1.0243514776229858
v -0.12437878549098969 0.0 1.0243514776229858
v -0.3659079074859619 0.0 0.9648199081420898
v -0.5861718058586121 0.0 0.8492164611816406
v -0.7723695039749146 0.0 0.6842597126960754
v -0.9136799573898315 0.0 0.479536235332489
v -1.0018905401229858 0.0 0.24694384634494781
v -0.8731250166893005 15.519399642944336 1.0692697095443502e-16
v -0.8433740139007568 15.519399642944336 -0.22598138451576233
v -0.7561484575271606 15.519399642944336 -0.43656250834465027
v -0.6173925995826721 15.519399642944336 -0.6173925995826721
v -0.43656250834465027 15.519399642944336 -0.7561484575271606
v -0.22598138451576233 15.519399642944336 -0.8433740139007568
v 5.346348547721751e-17 15.519399642944336 -0.8731250166893005
v 0.22598138451576233 15.519399642944336 -0.8433740139007568
v 0.43656250834465027 15.519399642944336 -0.7561484575271606
v 0.6173925995826721 15.519399642944336 -0.6173925995826721
v 0.7561484575271606 15.519399642944336 -0.43656250834465027
v 0.8433740139007568 15.519399642944336 -0.22598138451576233
v 0.8731250166893005 15.519399642944336 0.0
v 0.8433740139007568 15.519399642944336 0.22598138451576233
v 0.7561484575271606 15.519399642944336 0.43656250834465027
v 0.6173925995826721 15.519399642944336 0.6173925995826721
v 0.43656250834465027 15.519399642944336 0.7561484575271606
v 0.22598138451576233 15.519399642944336 0.8433740139007568
v 5.346348547721751e-17 15.519399642944336 0.8731250166893005
v -0.22598138451576233 15.519399642944336 0.8433740139007568
v -0.43656250834465027 15.519399642944336 0.7561484575271606
v -0.6173925995826721 15.519399642944336 0.6173925995826721
v -0.7561484575271606 15.519399642944336 0.43656250834465027
v -0.8433740139007568 15.519399642944336 0.22598138451576233
v -1.0318750143051147 15.519399642944336 1.2636823659593823e-16
v -1.0018905401229858 15.519399642944336 0.24694384634494781
v -0.9136799573898315 15.519399642944336 0.479536235332489
v -0.7723695039749146 15.519399642944336 0.6842597126960754
v -0.5861718058586121 15.519399642944336 0.8492164611816406
v -0.3659079074859619 15.519399642944336 0.9648199081420898
v -0.12437878549098969 15.519399642944336 1.0243514776229858
v 0.12437878549098969 15.519399642944336 1.0243514776229858
v 0.3659079074859619 15.519399642944336 0.9648199081420898
v 0.5861718058586121 15.519399642944336 0.8492164611816406
v 0.7723695039749146 15.519399642944336 0.6842597126960754
v 0.9136799573898315 15.519399642944336 0.479536235332489
v 1.0018905401229858 15.519399642944336 0.24694384634494781
v 1.0318750143051147 15.519399642944336 0.0
v 1.0018905401229858 15.519399642944336 -0.24694384634494781
v 0.9136799573898315 15.519399642944336 -0.479536235332489
v 0.7723695039749146 15.519399642944336 -0.6842597126960754
v 0.5861718058586121 15.519399642944336 -0.8492164611816406
v 0.3659079074859619 15.519399642944336 -0.9648199081420898
v 0.12437878549098969 15.519399642944336 -1.0243514776229858
v -0.12437878549098969 15.519399642944336 -1.0243514776229858
v -0.3659079074859619 15.519399642944336 -0.9648199081420898
v -0.5861718058586121 15.519399642944336 -0.8492164611816406
v -0.7723695039749146 15.519399642944336 -0.6842597126960754
v -0.9136799573898315 15.519399642944336 -0.479536235332489
v -1.0018905401229858 15.519399642944336 -0.24694384634494781
v -1.0318750143051147 15.519399642944336 1.2636823659593823e-16
v -1.0018905401229858 15.519399642944336 -0.24694384634494781
v -0.9136799573898315 15.519399642944336 -0.479536235332489
v -0.7723695039749146 15.519399642944336 -0.6842597126960754
v -0.5861718058586121 15.519399642944336 -0.8492164611816406
v -0.3659079074859619 15.519399642944336 -0.9648199081420898
v -0.12437878549098969 15.519399642944336 -1.0243514776229858
v 0.12437878549098969 15.519399642944336 -1.0243514776229858
v 0.3659079074859619 15.519399642944336 -0.9648199081420898
v 0.5861718058586121 15.519399642944336 -0.8492164611816406
v 0.7723695039749146 15.519399642944336 -0.6842597126960754
v 0.9136799573898315 15.519399642944336 -0.479536235332489
v 1.0018905401229858 15.519399642944336 -0.24694384634494781
v 1.0318750143051147 15.519399642944336 0.0
v 1.0018905401229858 15.519399642944336 0.24694384634494781
v 0.9136799573898315 15.519399642944336 0.479536235332489
v 0.7723695039749146 15.519399642944336 0.6842597126960754
v 0.5861718058586121 15.519399642944336 0.8492164611816406
v 0.3659079074859619 15.519399642944336 0.9648199081420898
v 0.12437878549098969 15.519399642944336 1.0243514776229858
v -0.12437878549098969 15.519399642944336 1.0243514776229858
v -0.3659079074859619 15.519399642944336 0.9648199081420898
v -0.5861718058586121 15.519399642944336 0.8492164611816406
v -0.7723695039749146 15.519399642944336 0.6842597126960754
v -0.9136799573898315 15.519399642944336 0.479536235332489
v -1.0018905401229858 15.519399642944336 0.24694384634494781
v -1.0318750143051147 0.0 1.2636823659593823e-16
v -1.0018905401229858 0.0 0.24694384634494781
v -0.9136799573898315 0.0 0.479536235332489
v -0.7723695039749146 0.0 0.6842597126960754
v -0.5861718058586121 0.0 0.8492164611816406
v -0.3659079074859619 0.0 0.9648199081420898
v -0.12437878549098969 0.0 1.0243514776229858
v 0.12437878549098969 0.0 1.0243514776229858
v 0.3659079074859619 0.0 0.9648199081420898
v 0.5861718058586121 0.0 0.8492164611816406
v 0.7723695039749146 0.0 0.6842597126960754
v 0.9136799573898315 0.0 0.479536235332489
v 1.0018905401229858 0.0 0.24694384634494781
v 1.0318750143051147 0.0 0.0
v 1.0018905401229858 0.0 -0.24694384634494781
v 0.9136799573898315 0.0 -0.479536235332489
v 0.7723695039749146 0.0 -0.6842597126960754
v 0.5861718058586121 0.0 -0.8492164611816406
v 0.3659079074859619 0.0 -0.9648199081420898
v 0.12437878549098969 0.0 -1.0243514776229858
v -0.12437878549098969 0.0 -1.0243514776229858
v -0.3659079074859619 0.0 -0.9648199081420898
v -0.5861718058586121 0.0 -0.8492164611816406
v -0.7723695039749146 0.0 -0.6842597126960754
v -0.9136799573898315 0.0 -0.479536235332489
v -1.0018905401229858 0.0 -0.24694384634494781
v -1.0318750143051147 0.0 1.2636823659593823e-16
v -1.0318750143051147 15.519399642944336 1.2636823659593823e-16
vn 1.0 0.0 -1.2246468525851679e-16
vn 0.9659258127212524 0.0 -0.258819043636322
vn 0.8660253882408142 0.0 -0.5
vn 0.7071067690849304 0.0 -0.7071067690849304
vn 0.5 0.0 -0.8660253882408142
vn 0.258819043636322 0.0 -0.9659258127212524
vn -6.123234262925839e-17 0.0 -1.0
vn -0.258819043636322 0.0 -0.9659258127212524
vn -0.5 0.0 -0.8660253882408142
vn -0.7071067690849304 0.0 -0.7071067690849304
vn -0.8660253882408142 0.0 -0.5
vn -0.9659258127212524 0.0 -0.258819043636322
vn -1.0 0.0 0.0
vn -0.9659258127212524 0.0 0.258819043636322
vn -0.8660253882408142 0.0 0.5
vn -0.7071067690849304 0.0 0.7071067690849304
vn -0.5 0.0 0.8660253882408142
vn -0.258819043636322 0.0 0.9659258127212524
vn -6.123234262925839e-17 0.0 1.0
vn 0.258819043636322 -0.0 0.9659258127212524
vn 0.5 -0.0 0.8660253882408142
vn 0.7071067690849304 -0.0 0.7071067690849304
vn 0.8660253882408142 -0.0 0.5
vn 0.9659258127212524 -0.0 0.258819043636322
vn 1.0 -0.0 1.2246468525851679e-16
vn 0.9659258127212524 -0.0 0.258819043636322
vn 0.8660253882408142 -0.0 0.5
vn 0.7071067690849304 -0.0 0.7071067690849304
vn 0.5 -0.0 0.8660253882408142
vn 0.258819043636322 -0.0 0.9659258127212524
vn -6.123234262925839e-17 0.0 1.0
vn -0.258819043636322 0.0 0.9659258127212524
vn -0.5 0.0 0.8660253882408142
vn -0.7071067690849304 0.0 0.7071067690849304
vn -0.8660253882408142 0.0 0.5
vn -0.9659258127212524 0.0 0.258819043636322
vn -1.0 0.0 0.0
vn -0.9659258127212524 0.0 -0.258819043636322
vn -0.8660253882408142 0.0 -0.5
vn -0.7071067690849304 0.0 -0.7071067690849304
vn -0.5 0.0 -0.8660253882408142
vn -0.258819043636322 0.0 -0.9659258127212524
vn -6.123234262925839e-17 0.0 -1.0
vn 0.258819043636322 0.0 -0.9659258127212524
vn 0.5 0.0 -0.8660253882408142
vn 0.7071067690849304 0.0 -0.7071067690849304
vn 0.8660253882408142 0.0 -0.5
vn 0.9659258127212524 0.0 -0.258819043636322
vn 1.0 -0.0 1.2246468525851679e-16
vn 1.0 0.0 -1.2246468525851679e-16
vn -0.0 -1.0 -0.0
vn -0.0 -1.0 -0.0
vn -0.0 -1.0 -0.0
vn -0.0 -1.0 -0.0
vn -0.0 -1.0 -0.0
vn -0.0 -1.0 -0.0
vn -0.0 -1.0 -0.0
vn -0.0 -1.0 -0.0
vn -0.0 -1.0 -0.0
vn -0.0 -1.0 -0.0
vn -0.0 -1.0 -0.0
vn -0.0 -1.0 -0.0
vn -0.0 -1.0 -0.0
vn -0.0 -1.0 -0.0
vn -0.0 -1.0 -0.0
vn -0.0 -1.0 -0.0
vn -0.0 -1.0 -0.0
vn -0.0 -1.0 -0.0
vn -0.0 -1.0 -0.0
vn -0.0 -1.0 -0.0
vn -0.0 -1.0 -0.0
vn -0.0 -1.0 -0.0
vn -0.0 -1.0 -0.0
vn -0.0 -1.0 -0.0
vn -0.0 -1.0 -0.0
vn -0.0 -1.0 -0.0
vn -0.0 -1.0 -0.0
vn -0.0 -1.0 -0.0
vn -0.0 -1.0 -0.0
vn -0.0 -1.0 -0.0
vn -0.0 -1.0 -0.0
vn -0.0 -1.0 -0.0
vn -0.0 -1.0 -0.0
vn -0.0 -1.0 -0.0
vn -0.0 -1.0 -0.0
vn -0.0 -1.0 -0.0
vn -0.0 -1.0 -0.0
vn -0.0 -1.0 -0.0
vn -0.0 -1.0 -0.0
vn -0.0 -1.0 -0.0
vn -0.0 -1.0 -0.0
vn -0.0 -1.0 -0.0
vn -0.0 -1.0 -0.0
vn -0.0 -1.0 -0.0
vn -0.0 -1.0 -0.0
vn -0.0 -1.0 -0.0
vn -0.0 -1.0 -0.0
vn -0.0 -1.0 -0.0
vn -0.0 -1.0 -0.0
vn -0.0 -1.0 -0.0
vn 0.0 1.0 0.0
vn 0.0 1.0 0.0
vn 0.0 1.0 0.0
vn 0.0 1.0 0.0
vn 0.0 1.0 0.0
vn 0.0 1.0 0.0
vn 0.0 1.0 0.0
vn 0.0 1.0 0.0
vn 0.0 1.0 0.0
vn 0.0 1.0 0.0
vn 0.0 1.0 0.0
vn 0.0 1.0 0.0
vn 0.0 1.0 0.0
vn 0.0 1.0 0.0
vn 0.0 1.0 0.0
vn 0.0 1.0 0.0
vn 0.0 1.0 0.0
vn 0.0 1.0 0.0
vn 0.0 1.0 0.0
vn 0.0 1.0 0.0
vn 0.0 1.0 0.0
vn 0.0 1.0 0.0
vn 0.0 1.0 0.0
vn 0.0 1.0 0.0
vn 0.0 1.0 0.0
vn 0.0 1.0 0.0
vn 0.0 1.0 0.0
vn 0.0 1.0 0.0
vn 0.0 1.0 0.0
vn 0.0 1.0 0.0
vn 0.0 1.0 0.0
vn 0.0 1.0 0.0
vn 0.0 1.0 0.0
vn 0.0 1.0 0.0
vn 0.0 1.0 0.0
vn 0.0 1.0 0.0
vn 0.0 1.0 0.0
vn 0.0 1.0 0.0
vn 0.0 1.0 0.0
vn 0.0 1.0 0.0
vn 0.0 1.0 0.0
vn 0.0 1.0 0.0
vn 0.0 1.0 0.0
vn 0.0 1.0 0.0
vn 0.0 1.0 0.0
vn 0.0 1.0 0.0
vn 0.0 1.0 0.0
vn 0.0 1.0 0.0
vn 0.0 1.0 0.0
vn 0.0 1.0 0.0
vn -1.0 0.0 -1.2246468525851679e-16
vn -0.9709418416023254 0.0 -0.23931565880775452
vn -0.8854560256004333 0.0 -0.4647231698036194
vn -0.7485107779502869 0.0 -0.6631226539611816
vn -0.5680647492408752 0.0 -0.8229838609695435
vn -0.35460489988327026 0.0 -0.9350162148475647
vn -0.1205366775393486 0.0 -0.9927088618278503
vn 0.1205366775393486 -0.0 -0.9927088618278503
vn 0.35460489988327026 -0.0 -0.9350162148475647
vn 0.5680647492408752 -0.0 -0.8229838609695435
vn 0.7485107779502869 -0.0 -0.6631226539611816
vn 0.8854560256004333 -0.0 -0.4647231698036194
vn 0.9709418416023254 -0.0 -0.23931565880775452
vn 1.0 -0.0 -0.0
vn 0.9709418416023254 -0.0 0.23931565880775452
vn 0.8854560256004333 -0.0 0.4647231698036194
vn 0.7485107779502869 -0.0 0.6631226539611816
vn 0.5680647492408752 -0.0 0.8229838609695435
vn 0.35460489988327026 -0.0 0.9350162148475647
vn 0.1205366775393486 -0.0 0.9927088618278503
vn -0.1205366775393486 -0.0 0.9927088618278503
vn -0.35460489988327026 -0.0 0.9350162148475647
vn -0.5680647492408752 -0.0 0.8229838609695435
vn -0.7485107779502869 -0.0 0.6631226539611816
vn -0.8854560256004333 -0.0 0.4647231698036194
vn -0.9709418416023254 -0.0 0.23931565880775452
vn -1.0 -0.0 1.2246468525851679e-16
vn -0.9709418416023254 -0.0 0.23931565880775452
vn -0.8854560256004333 -0.0 0.4647231698036194
vn -0.7485107779502869 -0.0 0.6631226539611816
vn -0.5680647492408752 -0.0 0.8229838609695435
vn -0.35460489988327026 -0.0 0.9350162148475647
vn -0.1205366775393486 -0.0 0.9927088618278503
vn 0.1205366775393486 -0.0 0.9927088618278503
vn 0.35460489988327026 -0.0 0.9350162148475647
vn 0.5680647492408752 -0.0 0.8229838609695435
vn 0.7485107779502869 -0.0 0.6631226539611816
vn 0.8854560256004333 -0.0 0.4647231698036194
vn 0.9709418416023254 -0.0 0.23931565880775452
vn 1.0 -0.0 -0.0
vn 0.9709418416023254 -0.0 -0.23931565880775452
vn 0.8854560256004333 -0.0 -0.4647231698036194
vn 0.7485107779502869 -0.0 -0.6631226539611816
vn 0.5680647492408752 -0.0 -0.8229838609695435
vn 0.35460489988327026 -0.0 -0.9350162148475647
vn 0.1205366775393486 -0.0 -0.9927088618278503
vn -0.1205366775393486 0.0 -0.9927088618278503
vn -0.35460489988327026 0.0 -0.9350162148475647
vn -0.5680647492408752 0.0 -0.8229838609695435
vn -0.7485107779502869 0.0 -0.6631226539611816
vn -0.8854560256004333 0.0 -0.4647231698036194
vn -0.9709418416023254 0.0 -0.23931565880775452
vn -1.0 0.0 -1.2246468525851679e-16
vn -1.0 -0.0 1.2246468525851679e-16
f 2//2 48//48 1//1
f 1//1 48//48 50//50
f 49//49 25//25 24//24
f 24//24 25//25 26//26
f 24//24 26//26 23//23
f 23//23 26//26 27//27
f 23//23 27//27 22//22
f 22//22 27//27 28//28
f 22//22 28//28 21//21
f 21//21 28//28 29//29
f 21//21 29//29 20//20
f 20//20 29//29 30//30
f 20//20 30//30 19//19
f 19//19 30//30 31//31
f 19//19 31//31 18//18
f 18//18 31//31 32//32
f 18//18 32//32 17//17
f 17//17 32//32 33//33
f 17//17 33//33 16//16
f 16//16 33//33 34//34
f 16//16 34//34 15//15
f 15//15 34//34 35//35
f 15//15 35//35 14//14
f 14//14 35//35 36//36
f 14//14 36//36 13//13
f 13//13 36//36 37//37
f 13//13 37//37 12//12
f 12//12 37//37 38//38
f 12//12 38//38 11//11
f 11//11 38//38 39//39
f 11//11 39//39 10//10
f 10//10 39//39 40//40
f 10//10 40//40 9//9
f 9//9 40//40 41//41
f 9//9 41//41 8//8
f 8//8 41//41 42//42
f 8//8 42//42 7//7
f 7//7 42//42 43//43
f 7//7 43//43 6//6
f 6//6 43//43 44//44
f 6//6 44//44 5//5
f 5//5 44//44 45//45
f 5//5 45//45 4//4
f 4//4 45//45 46//46
f 4//4 46//46 3//3
f 3//3 46//46 47//47
f 3//3 47//47 2//2
f 2//2 47//47 48//48
f 52//52 100//100 51//51
f 51//51 100//100 75//75
f 51//51 75//75 76//76
f 100//100 52//52 99//99
f 99//99 52//52 53//53
f 99//99 53//53 98//98
f 98//98 53//53 54//54
f 98//98 54//54 97//97
f 97//97 54//54 55//55
f 97//97 55//55 96//96
f 96//96 55//55 56//56
f 96//96 56//56 95//95
f 95//95 56//56 57//57
f 95//95 57//57 94//94
f 94//94 57//57 58//58
f 94//94 58//58 93//93
f 93//93 58//58 59//59
f 93//93 59//59 92//92
f 92//92 59//59 60//60
f 92//92 60//60 91//91
f 91//91 60//60 61//61
f 91//91 61//61 90//90
f 90//90 61//61 62//62
f 90//90 62//62 89//89
f 89//89 62//62 63//63
f 89//89 63//63 88//88
f 88//88 63//63 87//87
f 87//87 63//63 64//64
f 87//87 64//64 86//86
f 86//86 64//64 65//65
f 86//86 65//65 85//85
f 85//85 65//65 66//66
f 85//85 66//66 84//84
f 84//84 66//66 67//67
f 84//84 67//67 83//83
f 83//83 67//67 68//68
f 83//83 68//68 82//82
f 82//82 68//68 69//69
f 82//82 69//69 81//81
f 81//81 69//69 70//70
f 81//81 70//70 80//80
f 80//80 70//70 71//71
f 80//80 71//71 79//79
f 79//79 71//71 72//72
f 79//79 72//72 78//78
f 78//78 72//72 73//73
f 78//78 73//73 77//77
f 77//77 73//73 74//74
f 77//77 74//74 76//76
f 76//76 74//74 51//51
f 102//102 150//150 101//101
f 101//101 150//150 125//125
f 101//101 125//125 126//126
f 150//150 102//102 149//149
f 149//149 102//102 103//103
f 149//149 103//103 148//148
f 148//148 103//103 104//104
f 148//148 104//104 147//147
f 147//147 104//104 105//105
f 147//147 105//105 146//146
f 146//146 105//105 106//106
f 146//146 106//106 145//145
f 145//145 106//106 107//107
f 145//145 107//107 144//144
f 144//144 107//107 108//108
f 144//144 108//108 143//143
f 143//143 108//108 109//109
f 143//143 109//109 142//142
f 142//142 109//109 110//110
f 142//142 110//110 141//141
f 141//141 110//110 111//111
f 141//141 111//111 140//140
f 140//140 111//111 112//112
f 140//140 112//112 139//139
f 139//139 112//112 113//113
f 139//139 113//113 138//138
f 138//138 113//113 137//137
f 137//137 113//113 114//114
f 137//137 114//114 136//136
f 136//136 114//114 115//115
f 136//136 115//115 135//135
f 135//135 115//115 116//116
f 135//135 116//116 134//134
f 134//134 116//116 117//117
f 134//134 117//117 133//133
f 133//133 117//117 118//118
f 133//133 118//118 132//132
f 132//132 118//118 119//119
f 132//132 119//119 131//131
f 131//131 119//119 120//120
f 131//131 120//120 130//130
f 130//130 120//120 121//121
f 130//130 121//121 129//129
f 129//129 121//121 122//122
f 129//129 122//122 128//128
f 128//128 122//122 123//123
f 128//128 123//123 127//127
f 127//127 123//123 124//124
f 127//127 124//124 126//126
f 126//126 124//124 101//101
f 152//152 202//202 151//151
f 151//151 202//202 203//203
f 204//204 177//177 176//176
f 176//176 177//177 178//178
f 176//176 178//178 175//175
f 175//175 178//178 179//179
f 175//175 179//179 174//174
f 174//174 179//179 180//180
f 174//174 180//180 173//173
f 173//173 180//180 181//181
f 173//173 181//181 172//172
f 172//172 181//181 182//182
f 172//172 182//182 171//171
f 171//171 182//182 183//183
f 171//171 183//183 170//170
f 170//170 183//183 184//184
f 170//170 184//184 169//169
f 169//169 184//184 185//185
f 169//169 185//185 168//168
f 168//168 185//185 186//186
f 168//168 186//186 167//167
f 167//167 186//186 187//187
f 167//167 187//187 166//166
f 166//166 187//187 188//188
f 166//166 188//188 165//165
f 165//165 188//188 189//189
f 165//165 189//189 164//164
f 164//164 189//189 190//190
f 164//164 190//190 163//163
f 163//163 190//190 191//191
f 163//163 191//191 162//162
f 162//162 191//191 192//192
f 162//162 192//192 161//161
f 161//161 192//192 193//193
f 161//161 193//193 160//160
f 160//160 193//193 194//194
f 160//160 194//194 159//159
f 159//159 194//194 195//195
f 159//159 195//195 158//158
f 158//158 195//195 196//196
f 158//158 196//196 157//157
f 157//157 196//196 197//197
f 157//157 197//197 156//156
f 156//156 197//197 198//198
f 156//156 198//198 155//155
f 155//155 198//198 199//199
f 155//155 199//199 154//154
f 154//154 199//199 200//200
f 154//154 200//200 153//153
f 153//153 200//200 201//201
f 153//153 201//201 152//152
f 152//152 201//201 202//202

# End of file