# WaveFront *.obj file
# Vertices: 216
# Triangles : 208

v 0.25 5.0 -3.0616171314629196e-17
v 0.24072931706905365 5.0 0.067449189722538
v 0.2136048525571823 5.0 0.12989598512649536
v 0.1706382930278778 5.0 0.1827089935541153
v 0.11501625925302505 5.0 0.2219713032245636
v 0.05086400359869003 5.0 0.24477101862430573
v -0.017060603946447372 5.0 0.24941718578338623
v -0.083719901740551 5.0 0.23556523025035858
v -0.14417007565498352 5.0 0.20424246788024902
v -0.1939278244972229 5.0 0.1577719897031784
v -0.22930282354354858 5.0 0.09960027039051056
v -0.2476714849472046 5.0 0.03404166176915169
v -0.2476714849472046 5.0 -0.03404166176915169
v -0.22930282354354858 5.0 -0.09960027039051056
v -0.1939278244972229 5.0 -0.1577719897031784
v -0.14417007565498352 5.0 -0.20424246788024902
v -0.083719901740551 5.0 -0.23556523025035858
v -0.017060603946447372 5.0 -0.24941718578338623
v 0.05086400359869003 5.0 -0.24477101862430573
v 0.11501625925302505 5.0 -0.2219713032245636
v 0.1706382930278778 5.0 -0.1827089935541153
v 0.2136048525571823 5.0 -0.12989598512649536
v 0.24072931706905365 5.0 -0.067449189722538
v 0.25 2.5 -3.0616171314629196e-17
v 0.24072931706905365 2.5 -0.067449189722538
v 0.2136048525571823 2.5 -0.12989598512649536
v 0.1706382930278778 2.5 -0.1827089935541153
v 0.11501625925302505 2.5 -0.2219713032245636
v 0.05086400359869003 2.5 -0.24477101862430573
v -0.017060603946447372 2.5 -0.24941718578338623
v -0.083719901740551 2.5 -0.23556523025035858
v -0.14417007565498352 2.5 -0.20424246788024902
v -0.1939278244972229 2.5 -0.1577719897031784
v -0.22930282354354858 2.5 -0.09960027039051056
v -0.2476714849472046 2.5 -0.03404166176915169
v -0.2476714849472046 2.5 0.03404166176915169
v -0.22930282354354858 2.5 0.09960027039051056
v -0.1939278244972229 2.5 0.1577719897031784
v -0.14417007565498352 2.5 0.20424246788024902
v -0.083719901740551 2.5 0.23556523025035858
v -0.017060603946447372 2.5 0.24941718578338623
v 0.05086400359869003 2.5 0.24477101862430573
v 0.11501625925302505 2.5 0.2219713032245636
v 0.1706382930278778 2.5 0.1827089935541153
v 0.2136048525571823 2.5 0.12989598512649536
v 0.24072931706905365 2.5 0.067449189722538
v 0.25 2.5 -3.0616171314629196e-17
v 0.25 5.0 -3.0616171314629196e-17
v 0.25 5.0 -3.0616171314629196e-17
v 0.24072931706905365 5.0 -0.067449189722538
v 0.2136048525571823 5.0 -0.12989598512649536
v 0.1706382930278778 5.0 -0.1827089935541153
v 0.11501625925302505 5.0 -0.2219713032245636
v 0.05086400359869003 5.0 -0.24477101862430573
v -0.017060603946447372 5.0 -0.24941718578338623
v -0.083719901740551 5.0 -0.23556523025035858
v -0.14417007565498352 5.0 -0.20424246788024902
v -0.1939278244972229 5.0 -0.1577719897031784
v -0.22930282354354858 5.0 -0.09960027039051056
v -0.2476714849472046 5.0 -0.03404166176915169
v -0.2476714849472046 5.0 0.03404166176915169
v -0.22930282354354858 5.0 0.09960027039051056
v -0.1939278244972229 5.0 0.1577719897031784
v -0.14417007565498352 5.0 0.20424246788024902
v -0.083719901740551 5.0 0.23556523025035858
v -0.017060603946447372 5.0 0.24941718578338623
v 0.05086400359869003 5.0 0.24477101862430573
v 0.11501625925302505 5.0 0.2219713032245636
v 0.1706382930278778 5.0 0.1827089935541153
v 0.2136048525571823 5.0 0.12989598512649536
v 0.24072931706905365 5.0 0.067449189722538
v -0.44999998807907104 2.5 5.5109105057610103e-17
v -0.4401664137840271 2.5 -0.09356026351451874
v -0.4110954701900482 2.5 -0.18303148448467255
v -0.36405766010284424 2.5 -0.2645033597946167
v -0.30110877752304077 2.5 -0.33441516757011414
v -0.22499999403953552 2.5 -0.3897114396095276
v -0.13905765116214752 2.5 -0.42797544598579407
v -0.04703781008720398 2.5 -0.44753485918045044
v 0.04703781008720398 2.5 -0.44753485918045044
v 0.13905765116214752 2.5 -0.42797544598579407
v 0.22499999403953552 2.5 -0.3897114396095276
v 0.30110877752304077 2.5 -0.33441516757011414
v 0.36405766010284424 2.5 -0.2645033597946167
v 0.4110954701900482 2.5 -0.18303148448467255
v 0.4401664137840271 2.5 -0.09356026351451874
v 0.44999998807907104 2.5 0.0
v 0.4401664137840271 2.5 0.09356026351451874
v 0.4110954701900482 2.5 0.18303148448467255
v 0.36405766010284424 2.5 0.2645033597946167
v 0.30110877752304077 2.5 0.33441516757011414
v 0.22499999403953552 2.5 0.3897114396095276
v 0.13905765116214752 2.5 0.42797544598579407
v 0.04703781008720398 2.5 0.44753485918045044
v -0.04703781008720398 2.5 0.44753485918045044
v -0.13905765116214752 2.5 0.42797544598579407
v -0.22499999403953552 2.5 0.3897114396095276
v -0.30110877752304077 2.5 0.33441516757011414
v -0.36405766010284424 2.5 0.2645033597946167
v -0.4110954701900482 2.5 0.18303148448467255
v -0.4401664137840271 2.5 0.09356026351451874
v -0.44999998807907104 0.0 5.5109105057610103e-17
v -0.4401664137840271 0.0 0.09356026351451874
v -0.4110954701900482 0.0 0.18303148448467255
v -0.36405766010284424 0.0 0.2645033597946167
v -0.30110877752304077 0.0 0.33441516757011414
v -0.22499999403953552 0.0 0.3897114396095276
v -0.13905765116214752 0.0 0.42797544598579407
v -0.04703781008720398 0.0 0.44753485918045044
v 0.04703781008720398 0.0 0.44753485918045044
v 0.13905765116214752 0.0 0.42797544598579407
v 0.22499999403953552 0.0 0.3897114396095276
v 0.30110877752304077 0.0 0.33441516757011414
v 0.36405766010284424 0.0 0.2645033597946167
v 0.4110954701900482 0.0 0.18303148448467255
v 0.4401664137840271 0.0 0.09356026351451874
v 0.44999998807907104 0.0 0.0
v 0.4401664137840271 0.0 -0.09356026351451874
v 0.4110954701900482 0.0 -0.18303148448467255
v 0.36405766010284424 0.0 -0.2645033597946167
v 0.30110877752304077 0.0 -0.33441516757011414
v 0.22499999403953552 0.0 -0.3897114396095276
v 0.13905765116214752 0.0 -0.42797544598579407
v 0.04703781008720398 0.0 -0.44753485918045044
v -0.04703781008720398 0.0 -0.44753485918045044
v -0.13905765116214752 0.0 -0.42797544598579407
v -0.22499999403953552 0.0 -0.3897114396095276
v -0.30110877752304077 0.0 -0.33441516757011414
v -0.36405766010284424 0.0 -0.2645033597946167
v -0.4110954701900482 0.0 -0.18303148448467255
v -0.4401664137840271 0.0 -0.09356026351451874
v -0.44999998807907104 0.0 5.5109105057610103e-17
v -0.44999998807907104 2.5 5.5109105057610103e-17
v 0.25 2.5 -3.0616171314629196e-17
v 0.24072931706905365 2.5 0.067449189722538
v 0.2136048525571823 2.5 0.12989598512649536
v 0.1706382930278778 2.5 0.1827089935541153
v 0.11501625925302505 2.5 0.2219713032245636
v 0.05086400359869003 2.5 0.24477101862430573
v -0.017060603946447372 2.5 0.24941718578338623
v -0.083719901740551 2.5 0.23556523025035858
v -0.14417007565498352 2.5 0.20424246788024902
v -0.1939278244972229 2.5 0.1577719897031784
v -0.22930282354354858 2.5 0.09960027039051056
v -0.2476714849472046 2.5 0.03404166176915169
v -0.2476714849472046 2.5 -0.03404166176915169
v -0.22930282354354858 2.5 -0.09960027039051056
v -0.1939278244972229 2.5 -0.1577719897031784
v -0.14417007565498352 2.5 -0.20424246788024902
v -0.083719901740551 2.5 -0.23556523025035858
v -0.017060603946447372 2.5 -0.24941718578338623
v 0.05086400359869003 2.5 -0.24477101862430573
v 0.11501625925302505 2.5 -0.2219713032245636
v 0.1706382930278778 2.5 -0.1827089935541153
v 0.2136048525571823 2.5 -0.12989598512649536
v 0.24072931706905365 2.5 -0.067449189722538
v -0.44999998807907104 2.5 5.5109105057610103e-17
v -0.4401664137840271 2.5 0.09356026351451874
v -0.4110954701900482 2.5 0.18303148448467255
v -0.36405766010284424 2.5 0.2645033597946167
v -0.30110877752304077 2.5 0.33441516757011414
v -0.22499999403953552 2.5 0.3897114396095276
v -0.13905765116214752 2.5 0.42797544598579407
v -0.04703781008720398 2.5 0.44753485918045044
v 0.04703781008720398 2.5 0.44753485918045044
v 0.13905765116214752 2.5 0.42797544598579407
v 0.22499999403953552 2.5 0.3897114396095276
v 0.30110877752304077 2.5 0.33441516757011414
v 0.36405766010284424 2.5 0.2645033597946167
v 0.4110954701900482 2.5 0.18303148448467255
v 0.4401664137840271 2.5 0.09356026351451874
v 0.44999998807907104 2.5 0.0
v 0.4401664137840271 2.5 -0.09356026351451874
v 0.4110954701900482 2.5 -0.18303148448467255
v 0.36405766010284424 2.5 -0.2645033597946167
v 0.30110877752304077 2.5 -0.33441516757011414
v 0.22499999403953552 2.5 -0.3897114396095276
v 0.13905765116214752 2.5 -0.42797544598579407
v 0.04703781008720398 2.5 -0.44753485918045044
v -0.04703781008720398 2.5 -0.44753485918045044
v -0.13905765116214752 2.5 -0.42797544598579407
v -0.22499999403953552 2.5 -0.3897114396095276
v -0.30110877752304077 2.5 -0.33441516757011414
v -0.36405766010284424 2.5 -0.2645033597946167
v -0.4110954701900482 2.5 -0.18303148448467255
v -0.4401664137840271 2.5 -0.09356026351451874
v -0.44999998807907104 0.0 5.5109105057610103e-17
v -0.4401664137840271 0.0 -0.09356026351451874
v -0.4110954701900482 0.0 -0.18303148448467255
v -0.36405766010284424 0.0 -0.2645033597946167
v -0.30110877752304077 0.0 -0.33441516757011414
v -0.22499999403953552 0.0 -0.3897114396095276
v -0.13905765116214752 0.0 -0.42797544598579407
v -0.04703781008720398 0.0 -0.44753485918045044
v 0.04703781008720398 0.0 -0.44753485918045044
v 0.13905765116214752 0.0 -0.42797544598579407
v 0.22499999403953552 0.0 -0.3897114396095276
v 0.30110877752304077 0.0 -0.33441516757011414
v 0.36405766010284424 0.0 -0.2645033597946167
v 0.4110954701900482 0.0 -0.18303148448467255
v 0.4401664137840271 0.0 -0.09356026351451874
v 0.44999998807907104 0.0 0.0
v 0.4401664137840271 0.0 0.09356026351451874
v 0.4110954701900482 0.0 0.18303148448467255
v 0.36405766010284424 0.0 0.2645033597946167
v 0.30110877752304077 0.0 0.33441516757011414
v 0.22499999403953552 0.0 0.3897114396095276
v 0.13905765116214752 0.0 0.42797544598579407
v 0.04703781008720398 0.0 0.44753485918045044
v -0.04703781008720398 0.0 0.44753485918045044
v -0.13905765116214752 0.0 0.42797544598579407
v -0.22499999403953552 0.0 0.3897114396095276
v -0.30110877752304077 0.0 0.33441516757011414
v -0.36405766010284424 0.0 0.2645033597946167
v -0.4110954701900482 0.0 0.18303148448467255
v -0.4401664137840271 0.0 0.09356026351451874
vn 1.0 -0.0 1.2246468525851679e-16
vn 0.9629172682762146 -0.0 0.269796758890152
vn 0.8544194102287292 -0.0 0.5195839405059814
vn 0.6825531721115112 -0.0 0.7308359742164612
vn 0.4600650370121002 -0.0 0.8878852128982544
vn 0.20345601439476013 -0.0 0.9790840744972229
vn -0.06824241578578949 -0.0 0.9976687431335449
vn -0.334879606962204 -0.0 0.9422609210014343
vn -0.5766803026199341 -0.0 0.8169698715209961
vn -0.7757112979888916 -0.0 0.6310879588127136
vn -0.9172112941741943 -0.0 0.39840108156204224
vn -0.9906859397888184 -0.0 0.13616664707660675
vn -0.9906859397888184 0.0 -0.13616664707660675
vn -0.9172112941741943 0.0 -0.39840108156204224
vn -0.7757112979888916 0.0 -0.6310879588127136
vn -0.5766803026199341 0.0 -0.8169698715209961
vn -0.334879606962204 0.0 -0.9422609210014343
vn -0.06824241578578949 0.0 -0.9976687431335449
vn 0.20345601439476013 -0.0 -0.9790840744972229
vn 0.4600650370121002 -0.0 -0.8878852128982544
vn 0.6825531721115112 -0.0 -0.7308359742164612
vn 0.8544194102287292 -0.0 -0.5195839405059814
vn 0.9629172682762146 -0.0 -0.269796758890152
vn 1.0 -0.0 -1.2246468525851679e-16
vn 0.9629172682762146 -0.0 -0.269796758890152
vn 0.8544194102287292 -0.0 -0.5195839405059814
vn 0.6825531721115112 -0.0 -0.7308359742164612
vn 0.4600650370121002 -0.0 -0.8878852128982544
vn 0.20345601439476013 -0.0 -0.9790840744972229
vn -0.06824241578578949 0.0 -0.9976687431335449
vn -0.334879606962204 0.0 -0.9422609210014343
vn -0.5766803026199341 0.0 -0.8169698715209961
vn -0.7757112979888916 0.0 -0.6310879588127136
vn -0.9172112941741943 0.0 -0.39840108156204224
vn -0.9906859397888184 0.0 -0.13616664707660675
vn -0.9906859397888184 -0.0 0.13616664707660675
vn -0.9172112941741943 -0.0 0.39840108156204224
vn -0.7757112979888916 -0.0 0.6310879588127136
vn -0.5766803026199341 -0.0 0.8169698715209961
vn -0.334879606962204 -0.0 0.9422609210014343
vn -0.06824241578578949 -0.0 0.9976687431335449
vn 0.20345601439476013 -0.0 0.9790840744972229
vn 0.4600650370121002 -0.0 0.8878852128982544
vn 0.6825531721115112 -0.0 0.7308359742164612
vn 0.8544194102287292 -0.0 0.5195839405059814
vn 0.9629172682762146 -0.0 0.269796758890152
vn 1.0 -0.0 1.2246468525851679e-16
vn 1.0 -0.0 -1.2246468525851679e-16
vn 0.0 1.0 0.0
vn 0.0 1.0 0.0
vn 0.0 1.0 0.0
vn 0.0 1.0 0.0
vn 0.0 1.0 0.0
vn 0.0 1.0 0.0
vn 0.0 1.0 0.0
vn 0.0 1.0 0.0
vn 0.0 1.0 0.0
vn 0.0 1.0 0.0
vn 0.0 1.0 0.0
vn 0.0 1.0 0.0
vn 0.0 1.0 0.0
vn 0.0 1.0 0.0
vn 0.0 1.0 0.0
vn 0.0 1.0 0.0
vn 0.0 1.0 0.0
vn 0.0 1.0 0.0
vn 0.0 1.0 0.0
vn 0.0 1.0 0.0
vn 0.0 1.0 0.0
vn 0.0 1.0 0.0
vn 0.0 1.0 0.0
vn -1.0 0.0 -1.2246468525851679e-16
vn -0.9781476259231567 0.0 -0.2079116851091385
vn -0.9135454297065735 0.0 -0.4067366421222687
vn -0.80901700258255 0.0 -0.5877852439880371
vn -0.6691306233406067 0.0 -0.7431448101997375
vn -0.5 0.0 -0.8660253882408142
vn -0.30901700258255005 0.0 -0.9510565400123596
vn -0.10452846437692642 0.0 -0.9945219159126282
vn 0.10452846437692642 -0.0 -0.9945219159126282
vn 0.30901700258255005 -0.0 -0.9510565400123596
vn 0.5 -0.0 -0.8660253882408142
vn 0.6691306233406067 -0.0 -0.7431448101997375
vn 0.80901700258255 -0.0 -0.5877852439880371
vn 0.9135454297065735 -0.0 -0.4067366421222687
vn 0.9781476259231567 -0.0 -0.2079116851091385
vn 1.0 -0.0 -0.0
vn 0.9781476259231567 -0.0 0.2079116851091385
vn 0.9135454297065735 -0.0 0.4067366421222687
vn 0.80901700258255 -0.0 0.5877852439880371
vn 0.6691306233406067 -0.0 0.7431448101997375
vn 0.5 -0.0 0.8660253882408142
vn 0.30901700258255005 -0.0 0.9510565400123596
vn 0.10452846437692642 -0.0 0.9945219159126282
vn -0.10452846437692642 -0.0 0.9945219159126282
vn -0.30901700258255005 -0.0 0.9510565400123596
vn -0.5 -0.0 0.8660253882408142
vn -0.6691306233406067 -0.0 0.7431448101997375
vn -0.80901700258255 -0.0 0.5877852439880371
vn -0.9135454297065735 -0.0 0.4067366421222687
vn -0.9781476259231567 -0.0 0.2079116851091385
vn -1.0 -0.0 1.2246468525851679e-16
vn -0.9781476259231567 -0.0 0.2079116851091385
vn -0.9135454297065735 -0.0 0.4067366421222687
vn -0.80901700258255 -0.0 0.5877852439880371
vn -0.6691306233406067 -0.0 0.7431448101997375
vn -0.5 -0.0 0.8660253882408142
vn -0.30901700258255005 -0.0 0.9510565400123596
vn -0.10452846437692642 -0.0 0.9945219159126282
vn 0.10452846437692642 -0.0 0.9945219159126282
vn 0.30901700258255005 -0.0 0.9510565400123596
vn 0.5 -0.0 0.8660253882408142
vn 0.6691306233406067 -0.0 0.7431448101997375
vn 0.80901700258255 -0.0 0.5877852439880371
vn 0.9135454297065735 -0.0 0.4067366421222687
vn 0.9781476259231567 -0.0 0.2079116851091385
vn 1.0 -0.0 -0.0
vn 0.9781476259231567 -0.0 -0.2079116851091385
vn 0.9135454297065735 -0.0 -0.4067366421222687
vn 0.80901700258255 -0.0 -0.5877852439880371
vn 0.6691306233406067 -0.0 -0.7431448101997375
vn 0.5 -0.0 -0.8660253882408142
vn 0.30901700258255005 -0.0 -0.9510565400123596
vn 0.10452846437692642 -0.0 -0.9945219159126282
vn -0.10452846437692642 0.0 -0.9945219159126282
vn -0.30901700258255005 0.0 -0.9510565400123596
vn -0.5 0.0 -0.8660253882408142
vn -0.6691306233406067 0.0 -0.7431448101997375
vn -0.80901700258255 0.0 -0.5877852439880371
vn -0.9135454297065735 0.0 -0.4067366421222687
vn -0.9781476259231567 0.0 -0.2079116851091385
vn -1.0 0.0 -1.2246468525851679e-16
vn -1.0 -0.0 1.2246468525851679e-16
vn 0.0 1.0 0.0
vn 0.0 1.0 0.0
vn 0.0 1.0 0.0
vn 0.0 1.0 0.0
vn 0.0 1.0 0.0
vn 0.0 1.0 0.0
vn 0.0 1.0 0.0
vn 0.0 1.0 0.0
vn 0.0 1.0 0.0
vn 0.0 1.0 0.0
vn 0.0 1.0 0.0
vn 0.0 1.0 0.0
vn 0.0 1.0 0.0
vn 0.0 1.0 0.0
vn 0.0 1.0 0.0
vn 0.0 1.0 0.0
vn 0.0 1.0 0.0
vn 0.0 1.0 0.0
vn 0.0 1.0 0.0
vn 0.0 1.0 0.0
vn 0.0 1.0 0.0
vn 0.0 1.0 0.0
vn 0.0 1.0 0.0
vn 0.0 1.0 0.0
vn 0.0 1.0 0.0
vn 0.0 1.0 0.0
vn 0.0 1.0 0.0
vn 0.0 1.0 0.0
vn 0.0 1.0 0.0
vn 0.0 1.0 0.0
vn 0.0 1.0 0.0
vn 0.0 1.0 0.0
vn 0.0 1.0 0.0
vn 0.0 1.0 0.0
vn 0.0 1.0 0.0
vn 0.0 1.0 0.0
vn 0.0 1.0 0.0
vn 0.0 1.0 0.0
vn 0.0 1.0 0.0
vn 0.0 1.0 0.0
vn 0.0 1.0 0.0
vn 0.0 1.0 0.0
vn 0.0 1.0 0.0
vn 0.0 1.0 0.0
vn 0.0 1.0 0.0
vn 0.0 1.0 0.0
vn 0.0 1.0 0.0
vn 0.0 1.0 0.0
vn 0.0 1.0 0.0
vn 0.0 1.0 0.0
vn 0.0 1.0 0.0
vn 0.0 1.0 0.0
vn 0.0 1.0 0.0
vn -0.0 -1.0 -0.0
vn -0.0 -1.0 -0.0
vn -0.0 -1.0 -0.0
vn -0.0 -1.0 -0.0
vn -0.0 -1.0 -0.0
vn -0.0 -1.0 -0.0
vn -0.0 -1.0 -0.0
vn -0.0 -1.0 -0.0
vn -0.0 -1.0 -0.0
vn -0.0 -1.0 -0.0
vn -0.0 -1.0 -0.0
vn -0.0 -1.0 -0.0
vn -0.0 -1.0 -0.0
vn -0.0 -1.0 -0.0
vn -0.0 -1.0 -0.0
vn -0.0 -1.0 -0.0
vn -0.0 -1.0 -0.0
vn -0.0 -1.0 -0.0
vn -0.0 -1.0 -0.0
vn -0.0 -1.0 -0.0
vn -0.0 -1.0 -0.0
vn -0.0 -1.0 -0.0
vn -0.0 -1.0 -0.0
vn -0.0 -1.0 -0.0
vn -0.0 -1.0 -0.0
vn -0.0 -1.0 -0.0
vn -0.0 -1.0 -0.0
vn -0.0 -1.0 -0.0
vn -0.0 -1.0 -0.0
vn -0.0 -1.0 -0.0
g 0597fd5a-e2a8-11ea-9424-54bf646e7e1f
f 2//2 46//46 1//1
f 1//1 46//46 47//47
f 48//48 24//24 23//23
f 23//23 24//24 25//25
f 23//23 25//25 22//22
f 22//22 25//25 26//26
f 22//22 26//26 21//21
f 21//21 26//26 27//27
f 21//21 27//27 20//20
f 20//20 27//27 28//28
f 20//20 28//28 19//19
f 19//19 28//28 29//29
f 19//19 29//29 18//18
f 18//18 29//29 30//30
f 18//18 30//30 17//17
f 17//17 30//30 31//31
f 17//17 31//31 16//16
f 16//16 31//31 32//32
f 16//16 32//32 15//15
f 15//15 32//32 33//33
f 15//15 33//33 14//14
f 14//14 33//33 34//34
f 14//14 34//34 13//13
f 13//13 34//34 35//35
f 13//13 35//35 12//12
f 12//12 35//35 36//36
f 12//12 36//36 11//11
f 11//11 36//36 37//37
f 11//11 37//37 10//10
f 10//10 37//37 38//38
f 10//10 38//38 9//9
f 9//9 38//38 39//39
f 9//9 39//39 8//8
f 8//8 39//39 40//40
f 8//8 40//40 7//7
f 7//7 40//40 41//41
f 7//7 41//41 6//6
f 6//6 41//41 42//42
f 6//6 42//42 5//5
f 5//5 42//42 43//43
f 5//5 43//43 4//4
f 4//4 43//43 44//44
f 4//4 44//44 3//3
f 3//3 44//44 45//45
f 3//3 45//45 2//2
f 2//2 45//45 46//46
g 059a9592-e2a8-11ea-8df3-54bf646e7e1f
f 50//50 60//60 49//49
f 49//49 60//60 61//61
f 49//49 61//61 71//71
f 71//71 61//61 62//62
f 71//71 62//62 70//70
f 70//70 62//62 63//63
f 70//70 63//63 69//69
f 69//69 63//63 64//64
f 69//69 64//64 68//68
f 68//68 64//64 65//65
f 68//68 65//65 67//67
f 67//67 65//65 66//66
f 60//60 50//50 59//59
f 59//59 50//50 51//51
f 59//59 51//51 58//58
f 58//58 51//51 52//52
f 58//58 52//52 57//57
f 57//57 52//52 53//53
f 57//57 53//53 56//56
f 56//56 53//53 54//54
f 56//56 54//54 55//55
g 0549d7d2-e2a8-11ea-9c8d-54bf646e7e1f
f 73//73 131//131 72//72
f 72//72 131//131 132//132
f 133//133 102//102 101//101
f 101//101 102//102 103//103
f 101//101 103//103 100//100
f 100//100 103//103 104//104
f 100//100 104//104 99//99
f 99//99 104//104 105//105
f 99//99 105//105 98//98
f 98//98 105//105 106//106
f 98//98 106//106 97//97
f 97//97 106//106 107//107
f 97//97 107//107 96//96
f 96//96 107//107 108//108
f 96//96 108//108 95//95
f 95//95 108//108 109//109
f 95//95 109//109 94//94
f 94//94 109//109 110//110
f 94//94 110//110 93//93
f 93//93 110//110 111//111
f 93//93 111//111 92//92
f 92//92 111//111 112//112
f 92//92 112//112 91//91
f 91//91 112//112 113//113
f 91//91 113//113 90//90
f 90//90 113//113 114//114
f 90//90 114//114 89//89
f 89//89 114//114 115//115
f 89//89 115//115 88//88
f 88//88 115//115 116//116
f 88//88 116//116 87//87
f 87//87 116//116 117//117
f 87//87 117//117 86//86
f 86//86 117//117 118//118
f 86//86 118//118 85//85
f 85//85 118//118 119//119
f 85//85 119//119 84//84
f 84//84 119//119 120//120
f 84//84 120//120 83//83
f 83//83 120//120 121//121
f 83//83 121//121 82//82
f 82//82 121//121 122//122
f 82//82 122//122 81//81
f 81//81 122//122 123//123
f 81//81 123//123 80//80
f 80//80 123//123 124//124
f 80//80 124//124 79//79
f 79//79 124//124 125//125
f 79//79 125//125 78//78
f 78//78 125//125 126//126
f 78//78 126//126 77//77
f 77//77 126//126 127//127
f 77//77 127//127 76//76
f 76//76 127//127 128//128
f 76//76 128//128 75//75
f 75//75 128//128 129//129
f 75//75 129//129 74//74
f 74//74 129//129 130//130
f 74//74 130//130 73//73
f 73//73 130//130 131//131
g 054d0c68-e2a8-11ea-b368-54bf646e7e1f
f 135//135 171//171 134//134
f 134//134 171//171 172//172
f 134//134 172//172 173//173
f 171//171 135//135 170//170
f 170//170 135//135 136//136
f 170//170 136//136 169//169
f 169//169 136//136 137//137
f 169//169 137//137 168//168
f 168//168 137//137 167//167
f 167//167 137//137 138//138
f 167//167 138//138 166//166
f 166//166 138//138 139//139
f 166//166 139//139 165//165
f 165//165 139//139 140//140
f 165//165 140//140 164//164
f 164//164 140//140 141//141
f 164//164 141//141 163//163
f 163//163 141//141 162//162
f 162//162 141//141 142//142
f 162//162 142//142 161//161
f 161//161 142//142 143//143
f 161//161 143//143 160//160
f 160//160 143//143 144//144
f 160//160 144//144 159//159
f 159//159 144//144 158//158
f 158//158 144//144 145//145
f 158//158 145//145 157//157
f 157//157 145//145 146//146
f 157//157 146//146 186//186
f 186//186 146//146 147//147
f 186//186 147//147 185//185
f 185//185 147//147 184//184
f 184//184 147//147 148//148
f 184//184 148//148 183//183
f 183//183 148//148 149//149
f 183//183 149//149 182//182
f 182//182 149//149 150//150
f 182//182 150//150 181//181
f 181//181 150//150 180//180
f 180//180 150//150 151//151
f 180//180 151//151 179//179
f 179//179 151//151 152//152
f 179//179 152//152 178//178
f 178//178 152//152 153//153
f 178//178 153//153 177//177
f 177//177 153//153 154//154
f 177//177 154//154 176//176
f 176//176 154//154 175//175
f 175//175 154//154 155//155
f 175//175 155//155 174//174
f 174//174 155//155 156//156
f 174//174 156//156 173//173
f 173//173 156//156 134//134
g 0555e68c-e2a8-11ea-8ef1-54bf646e7e1f
f 188//188 201//201 187//187
f 187//187 201//201 202//202
f 187//187 202//202 216//216
f 216//216 202//202 203//203
f 216//216 203//203 215//215
f 215//215 203//203 204//204
f 215//215 204//204 214//214
f 214//214 204//204 205//205
f 214//214 205//205 213//213
f 213//213 205//205 206//206
f 213//213 206//206 212//212
f 212//212 206//206 207//207
f 212//212 207//207 211//211
f 211//211 207//207 208//208
f 211//211 208//208 210//210
f 210//210 208//208 209//209
f 201//201 188//188 200//200
f 200//200 188//188 189//189
f 200//200 189//189 199//199
f 199//199 189//189 190//190
f 199//199 190//190 198//198
f 198//198 190//190 191//191
f 198//198 191//191 197//197
f 197//197 191//191 192//192
f 197//197 192//192 196//196
f 196//196 192//192 193//193
f 196//196 193//193 195//195
f 195//195 193//193 194//194

# End of file