# WaveFront *.obj file
# Vertices: 102
# Triangles : 96

v 3.799999952316284 5.5 0.0
v 3.806283473968506 5.549737930297852 0.0
v 3.8247387409210205 5.59635066986084 0.0
v 3.8542063236236572 5.636909484863281 0.0
v 3.8928346633911133 5.66886568069458 0.0
v 3.9381966590881348 5.690211296081543 0.0
v 3.9874420166015625 5.699605464935303 0.0
v 4.037476539611816 5.696457386016846 0.0
v 4.085155963897705 5.680965423583984 0.0
v 4.1274847984313965 5.654102802276611 0.0
v 4.161803245544434 5.617557048797607 0.0
v 4.18595552444458 5.573625087738037 0.0
v 4.198422908782959 5.52506685256958 0.0
v 4.198422908782959 5.474933624267578 0.0
v 4.18595552444458 5.426375389099121 0.0
v 4.161803245544434 5.382442951202393 0.0
v 4.1274847984313965 5.345897197723389 0.0
v 4.085155963897705 5.319034576416016 0.0
v 4.037476539611816 5.303542613983154 0.0
v 3.9874420166015625 5.300394535064697 0.0
v 3.9381966590881348 5.309788703918457 0.0
v 3.8928346633911133 5.33113431930542 0.0
v 3.8542063236236572 5.363090515136719 0.0
v 3.8247387409210205 5.40364933013916 0.0
v 3.806283473968506 5.450262069702148 0.0
v 3.799999952316284 5.5 3.4000000953674316
v 3.806283473968506 5.549737930297852 3.4000000953674316
v 3.8247387409210205 5.59635066986084 3.4000000953674316
v 3.8542063236236572 5.636909484863281 3.4000000953674316
v 3.8928346633911133 5.66886568069458 3.4000000953674316
v 3.9381966590881348 5.690211296081543 3.4000000953674316
v 3.9874420166015625 5.699605464935303 3.4000000953674316
v 4.037476539611816 5.696457386016846 3.4000000953674316
v 4.085155963897705 5.680965423583984 3.4000000953674316
v 4.1274847984313965 5.654102802276611 3.4000000953674316
v 4.161803245544434 5.617557048797607 3.4000000953674316
v 4.18595552444458 5.573625087738037 3.4000000953674316
v 4.198422908782959 5.52506685256958 3.4000000953674316
v 4.198422908782959 5.474933624267578 3.4000000953674316
v 4.18595552444458 5.426375389099121 3.4000000953674316
v 4.161803245544434 5.382442951202393 3.4000000953674316
v 4.1274847984313965 5.345897197723389 3.4000000953674316
v 4.085155963897705 5.319034576416016 3.4000000953674316
v 4.037476539611816 5.303542613983154 3.4000000953674316
v 3.9874420166015625 5.300394535064697 3.4000000953674316
v 3.9381966590881348 5.309788703918457 3.4000000953674316
v 3.8928346633911133 5.33113431930542 3.4000000953674316
v 3.8542063236236572 5.363090515136719 3.4000000953674316
v 3.8247387409210205 5.40364933013916 3.4000000953674316
v 3.806283473968506 5.450262069702148 3.4000000953674316
v 3.799999952316284 5.5 0.0
v 3.806283473968506 5.450262069702148 0.0
v 3.8247387409210205 5.40364933013916 0.0
v 3.8542063236236572 5.363090515136719 0.0
v 3.8928346633911133 5.33113431930542 0.0
v 3.9381966590881348 5.309788703918457 0.0
v 3.9874420166015625 5.300394535064697 0.0
v 4.037476539611816 5.303542613983154 0.0
v 4.085155963897705 5.319034576416016 0.0
v 4.1274847984313965 5.345897197723389 0.0
v 4.161803245544434 5.382442951202393 0.0
v 4.18595552444458 5.426375389099121 0.0
v 4.198422908782959 5.474933624267578 0.0
v 4.198422908782959 5.52506685256958 0.0
v 4.18595552444458 5.573625087738037 0.0
v 4.161803245544434 5.617557048797607 0.0
v 4.1274847984313965 5.654102802276611 0.0
v 4.085155963897705 5.680965423583984 0.0
v 4.037476539611816 5.696457386016846 0.0
v 3.9874420166015625 5.699605464935303 0.0
v 3.9381966590881348 5.690211296081543 0.0
v 3.8928346633911133 5.66886568069458 0.0
v 3.8542063236236572 5.636909484863281 0.0
v 3.8247387409210205 5.59635066986084 0.0
v 3.806283473968506 5.549737930297852 0.0
v 3.799999952316284 5.5 0.0
v 3.799999952316284 5.5 3.4000000953674316
v 3.799999952316284 5.5 3.4000000953674316
v 3.806283473968506 5.450262069702148 3.4000000953674316
v 3.8247387409210205 5.40364933013916 3.4000000953674316
v 3.8542063236236572 5.363090515136719 3.4000000953674316
v 3.8928346633911133 5.33113431930542 3.4000000953674316
v 3.9381966590881348 5.309788703918457 3.4000000953674316
v 3.9874420166015625 5.300394535064697 3.4000000953674316
v 4.037476539611816 5.303542613983154 3.4000000953674316
v 4.085155963897705 5.319034576416016 3.4000000953674316
v 4.1274847984313965 5.345897197723389 3.4000000953674316
v 4.161803245544434 5.382442951202393 3.4000000953674316
v 4.18595552444458 5.426375389099121 3.4000000953674316
v 4.198422908782959 5.474933624267578 3.4000000953674316
v 4.198422908782959 5.52506685256958 3.4000000953674316
v 4.18595552444458 5.573625087738037 3.4000000953674316
v 4.161803245544434 5.617557048797607 3.4000000953674316
v 4.1274847984313965 5.654102802276611 3.4000000953674316
v 4.085155963897705 5.680965423583984 3.4000000953674316
v 4.037476539611816 5.696457386016846 3.4000000953674316
v 3.9874420166015625 5.699605464935303 3.4000000953674316
v 3.9381966590881348 5.690211296081543 3.4000000953674316
v 3.8928346633911133 5.66886568069458 3.4000000953674316
v 3.8542063236236572 5.636909484863281 3.4000000953674316
v 3.8247387409210205 5.59635066986084 3.4000000953674316
v 3.806283473968506 5.549737930297852 3.4000000953674316
vn -0.0 -0.0 -1.0
vn -0.0 -0.0 -1.0
vn -0.0 -0.0 -1.0
vn -0.0 -0.0 -1.0
vn -0.0 -0.0 -1.0
vn -0.0 -0.0 -1.0
vn -0.0 -0.0 -1.0
vn -0.0 -0.0 -1.0
vn -0.0 -0.0 -1.0
vn -0.0 -0.0 -1.0
vn -0.0 -0.0 -1.0
vn -0.0 -0.0 -1.0
vn -0.0 -0.0 -1.0
vn -0.0 -0.0 -1.0
vn -0.0 -0.0 -1.0
vn -0.0 -0.0 -1.0
vn -0.0 -0.0 -1.0
vn -0.0 -0.0 -1.0
vn -0.0 -0.0 -1.0
vn -0.0 -0.0 -1.0
vn -0.0 -0.0 -1.0
vn -0.0 -0.0 -1.0
vn -0.0 -0.0 -1.0
vn -0.0 -0.0 -1.0
vn -0.0 -0.0 -1.0
vn -1.0 1.2246468525851679e-16 -0.0
vn -0.9685831665992737 0.24868988990783691 -0.0
vn -0.8763066530227661 0.4817536771297455 -0.0
vn -0.728968620300293 0.6845471262931824 -0.0
vn -0.5358268022537231 0.8443279266357422 -0.0
vn -0.30901700258255005 0.9510565400123596 -0.0
vn -0.06279052048921585 0.9980267286300659 -0.0
vn 0.187381312251091 0.9822872281074524 -0.0
vn 0.4257792830467224 0.9048270583152771 -0.0
vn 0.6374239921569824 0.7705132365226746 -0.0
vn 0.80901700258255 0.5877852439880371 -0.0
vn 0.9297764897346497 0.3681245446205139 -0.0
vn 0.9921147227287292 0.12533323466777802 -0.0
vn 0.9921147227287292 -0.12533323466777802 -0.0
vn 0.9297764897346497 -0.3681245446205139 -0.0
vn 0.80901700258255 -0.5877852439880371 -0.0
vn 0.6374239921569824 -0.7705132365226746 -0.0
vn 0.4257792830467224 -0.9048270583152771 -0.0
vn 0.187381312251091 -0.9822872281074524 -0.0
vn -0.06279052048921585 -0.9980267286300659 0.0
vn -0.30901700258255005 -0.9510565400123596 0.0
vn -0.5358268022537231 -0.8443279266357422 0.0
vn -0.728968620300293 -0.6845471262931824 0.0
vn -0.8763066530227661 -0.4817536771297455 0.0
vn -0.9685831665992737 -0.24868988990783691 0.0
vn -1.0 -1.2246468525851679e-16 0.0
vn -0.9685831665992737 -0.24868988990783691 0.0
vn -0.8763066530227661 -0.4817536771297455 0.0
vn -0.728968620300293 -0.6845471262931824 0.0
vn -0.5358268022537231 -0.8443279266357422 0.0
vn -0.30901700258255005 -0.9510565400123596 0.0
vn -0.06279052048921585 -0.9980267286300659 0.0
vn 0.187381312251091 -0.9822872281074524 -0.0
vn 0.4257792830467224 -0.9048270583152771 -0.0
vn 0.6374239921569824 -0.7705132365226746 -0.0
vn 0.80901700258255 -0.5877852439880371 -0.0
vn 0.9297764897346497 -0.3681245446205139 -0.0
vn 0.9921147227287292 -0.12533323466777802 -0.0
vn 0.9921147227287292 0.12533323466777802 -0.0
vn 0.9297764897346497 0.3681245446205139 -0.0
vn 0.80901700258255 0.5877852439880371 -0.0
vn 0.6374239921569824 0.7705132365226746 -0.0
vn 0.4257792830467224 0.9048270583152771 -0.0
vn 0.187381312251091 0.9822872281074524 -0.0
vn -0.06279052048921585 0.9980267286300659 -0.0
vn -0.30901700258255005 0.9510565400123596 -0.0
vn -0.5358268022537231 0.8443279266357422 -0.0
vn -0.728968620300293 0.6845471262931824 -0.0
vn -0.8763066530227661 0.4817536771297455 -0.0
vn -0.9685831665992737 0.24868988990783691 -0.0
vn -1.0 1.2246468525851679e-16 -0.0
vn -1.0 -1.2246468525851679e-16 0.0
vn 0.0 0.0 1.0
vn 0.0 0.0 1.0
vn 0.0 0.0 1.0
vn 0.0 0.0 1.0
vn 0.0 0.0 1.0
vn 0.0 0.0 1.0
vn 0.0 0.0 1.0
vn 0.0 0.0 1.0
vn 0.0 0.0 1.0
vn 0.0 0.0 1.0
vn 0.0 0.0 1.0
vn 0.0 0.0 1.0
vn 0.0 0.0 1.0
vn 0.0 0.0 1.0
vn 0.0 0.0 1.0
vn 0.0 0.0 1.0
vn 0.0 0.0 1.0
vn 0.0 0.0 1.0
vn 0.0 0.0 1.0
vn 0.0 0.0 1.0
vn 0.0 0.0 1.0
vn 0.0 0.0 1.0
vn 0.0 0.0 1.0
vn 0.0 0.0 1.0
vn 0.0 0.0 1.0
f 2//2 13//13 1//1
f 1//1 13//13 14//14
f 1//1 14//14 25//25
f 25//25 14//14 15//15
f 25//25 15//15 24//24
f 24//24 15//15 16//16
f 24//24 16//16 23//23
f 23//23 16//16 17//17
f 23//23 17//17 22//22
f 22//22 17//17 18//18
f 22//22 18//18 21//21
f 21//21 18//18 19//19
f 21//21 19//19 20//20
f 13//13 2//2 12//12
f 12//12 2//2 3//3
f 12//12 3//3 11//11
f 11//11 3//3 4//4
f 11//11 4//4 10//10
f 10//10 4//4 5//5
f 10//10 5//5 9//9
f 9//9 5//5 6//6
f 9//9 6//6 8//8
f 8//8 6//6 7//7
f 27//27 75//75 26//26
f 26//26 75//75 76//76
f 77//77 51//51 50//50
f 50//50 51//51 52//52
f 50//50 52//52 49//49
f 49//49 52//52 53//53
f 49//49 53//53 48//48
f 48//48 53//53 54//54
f 48//48 54//54 47//47
f 47//47 54//54 55//55
f 47//47 55//55 46//46
f 46//46 55//55 56//56
f 46//46 56//56 45//45
f 45//45 56//56 57//57
f 45//45 57//57 44//44
f 44//44 57//57 58//58
f 44//44 58//58 43//43
f 43//43 58//58 59//59
f 43//43 59//59 42//42
f 42//42 59//59 60//60
f 42//42 60//60 41//41
f 41//41 60//60 61//61
f 41//41 61//61 40//40
f 40//40 61//61 62//62
f 40//40 62//62 39//39
f 39//39 62//62 63//63
f 39//39 63//63 38//38
f 38//38 63//63 64//64
f 38//38 64//64 37//37
f 37//37 64//64 65//65
f 37//37 65//65 36//36
f 36//36 65//65 66//66
f 36//36 66//66 35//35
f 35//35 66//66 67//67
f 35//35 67//67 34//34
f 34//34 67//67 68//68
f 34//34 68//68 33//33
f 33//33 68//68 69//69
f 33//33 69//69 32//32
f 32//32 69//69 70//70
f 32//32 70//70 31//31
f 31//31 70//70 71//71
f 31//31 71//71 30//30
f 30//30 71//71 72//72
f 30//30 72//72 29//29
f 29//29 72//72 73//73
f 29//29 73//73 28//28
f 28//28 73//73 74//74
f 28//28 74//74 27//27
f 27//27 74//74 75//75
f 79//79 90//90 78//78
f 78//78 90//90 91//91
f 78//78 91//91 102//102
f 102//102 91//91 92//92
f 102//102 92//92 101//101
f 101//101 92//92 93//93
f 101//101 93//93 100//100
f 100//100 93//93 94//94
f 100//100 94//94 99//99
f 99//99 94//94 95//95
f 99//99 95//95 98//98
f 98//98 95//95 96//96
f 98//98 96//96 97//97
f 90//90 79//79 89//89
f 89//89 79//79 80//80
f 89//89 80//80 88//88
f 88//88 80//80 81//81
f 88//88 81//81 87//87
f 87//87 81//81 82//82
f 87//87 82//82 86//86
f 86//86 82//82 83//83
f 86//86 83//83 85//85
f 85//85 83//83 84//84

# End of file