# WaveFront *.obj file
# Vertices: 24
# Triangles : 12

v 0.0 51.34382629394531 -91.44000244140625
v 7.619999885559082 51.34382629394531 -91.44000244140625
v 7.619999885559082 56.423824310302734 -91.44000244140625
v 1.7763568394002505e-15 56.423824310302734 -91.44000244140625
v 7.619999885559082 51.34382629394531 -193.0399932861328
v 0.0 51.34382629394531 -193.0399932861328
v 1.7763568394002505e-15 56.423824310302734 -193.0399932861328
v 7.619999885559082 56.423824310302734 -193.0399932861328
v 7.619999885559082 56.423824310302734 -91.44000244140625
v 7.619999885559082 51.34382629394531 -91.44000244140625
v 7.619999885559082 51.34382629394531 -193.0399932861328
v 7.619999885559082 56.423824310302734 -193.0399932861328
v 7.619999885559082 51.34382629394531 -91.44000244140625
v 0.0 51.34382629394531 -91.44000244140625
v 0.0 51.34382629394531 -193.0399932861328
v 7.619999885559082 51.34382629394531 -193.0399932861328
v 1.7763568394002505e-15 56.423824310302734 -91.44000244140625
v 7.619999885559082 56.423824310302734 -91.44000244140625
v 7.619999885559082 56.423824310302734 -193.0399932861328
v 1.7763568394002505e-15 56.423824310302734 -193.0399932861328
v 0.0 51.34382629394531 -91.44000244140625
v 1.7763568394002505e-15 56.423824310302734 -91.44000244140625
v 1.7763568394002505e-15 56.423824310302734 -193.0399932861328
v 0.0 51.34382629394531 -193.0399932861328
vn -0.0 -0.0 1.0
vn -0.0 -0.0 1.0
vn -0.0 -0.0 1.0
vn -0.0 -0.0 1.0
vn 0.0 0.0 -1.0
vn 0.0 0.0 -1.0
vn 0.0 0.0 -1.0
vn 0.0 0.0 -1.0
vn 1.0 0.0 0.0
vn 1.0 0.0 0.0
vn 1.0 0.0 0.0
vn 1.0 0.0 0.0
vn -0.0 -1.0 -0.0
vn -0.0 -1.0 -0.0
vn -0.0 -1.0 -0.0
vn -0.0 -1.0 -0.0
vn 0.0 1.0 0.0
vn 0.0 1.0 0.0
vn 0.0 1.0 0.0
vn 0.0 1.0 0.0
vn -1.0 3.6739402930577075e-16 0.0
vn -1.0 3.6739402930577075e-16 0.0
vn -1.0 3.6739402930577075e-16 0.0
vn -1.0 3.6739402930577075e-16 0.0
f 2//2 3//3 1//1
f 1//1 3//3 4//4
f 5//5 6//6 8//8
f 8//8 6//6 7//7
f 9//9 10//10 12//12
f 12//12 10//10 11//11
f 13//13 14//14 16//16
f 16//16 14//14 15//15
f 17//17 18//18 20//20
f 20//20 18//18 19//19
f 21//21 22//22 24//24
f 24//24 22//22 23//23

# End of file