# WaveFront *.obj file
# Vertices: 122
# Triangles : 104

v -0.3174999952316284 -3.8882534591728874e-17 7.619999885559082
v -0.3033943772315979 0.09358476847410202 7.619999885559082
v -0.2623308002948761 0.17885412275791168 7.619999885559082
v -0.19795800745487213 0.24823150038719177 7.619999885559082
v -0.11599577218294144 0.29555240273475647 7.619999885559082
v -0.023726804181933403 0.31661221385002136 7.619999885559082
v 0.07065039873123169 0.3095396161079407 7.619999885559082
v 0.1587499976158142 0.27496305108070374 7.619999885559082
v 0.23274396359920502 0.21595484018325806 7.619999885559082
v 0.28605762124061584 0.13775809109210968 7.619999885559082
v 0.31395378708839417 0.04732092097401619 7.619999885559082
v 0.31395378708839417 -0.04732092097401619 7.619999885559082
v 0.28605762124061584 -0.13775809109210968 7.619999885559082
v 0.23274396359920502 -0.21595484018325806 7.619999885559082
v 0.1587499976158142 -0.27496305108070374 7.619999885559082
v 0.07065039873123169 -0.3095396161079407 7.619999885559082
v -0.023726804181933403 -0.31661221385002136 7.619999885559082
v -0.11599577218294144 -0.29555240273475647 7.619999885559082
v -0.19795800745487213 -0.24823150038719177 7.619999885559082
v -0.2623308002948761 -0.17885412275791168 7.619999885559082
v -0.3033943772315979 -0.09358476847410202 7.619999885559082
v -0.3174999952316284 3.8882534591728874e-17 0.25
v -0.3033943772315979 -0.09358476847410202 0.25
v -0.2623308002948761 -0.17885412275791168 0.25
v -0.19795800745487213 -0.24823150038719177 0.25
v -0.11599577218294144 -0.29555240273475647 0.25
v -0.023726804181933403 -0.31661221385002136 0.25
v 0.07065039873123169 -0.3095396161079407 0.25
v 0.1587499976158142 -0.27496305108070374 0.25
v 0.23274396359920502 -0.21595484018325806 0.25
v 0.28605762124061584 -0.13775809109210968 0.25
v 0.31395378708839417 -0.04732092097401619 0.25
v 0.31395378708839417 0.04732092097401619 0.25
v 0.28605762124061584 0.13775809109210968 0.25
v 0.23274396359920502 0.21595484018325806 0.25
v 0.1587499976158142 0.27496305108070374 0.25
v 0.07065039873123169 0.3095396161079407 0.25
v -0.023726804181933403 0.31661221385002136 0.25
v -0.11599577218294144 0.29555240273475647 0.25
v -0.19795800745487213 0.24823150038719177 0.25
v -0.2623308002948761 0.17885412275791168 0.25
v -0.3033943772315979 0.09358476847410202 0.25
v -0.3174999952316284 3.8882534591728874e-17 0.25
v -0.3174999952316284 -3.8882534591728874e-17 7.619999885559082
v -0.3174999952316284 -3.8882534591728874e-17 7.619999885559082
v -0.3033943772315979 -0.09358476847410202 7.619999885559082
v -0.2623308002948761 -0.17885412275791168 7.619999885559082
v -0.19795800745487213 -0.24823150038719177 7.619999885559082
v -0.11599577218294144 -0.29555240273475647 7.619999885559082
v -0.023726804181933403 -0.31661221385002136 7.619999885559082
v 0.07065039873123169 -0.3095396161079407 7.619999885559082
v 0.1587499976158142 -0.27496305108070374 7.619999885559082
v 0.23274396359920502 -0.21595484018325806 7.619999885559082
v 0.28605762124061584 -0.13775809109210968 7.619999885559082
v 0.31395378708839417 -0.04732092097401619 7.619999885559082
v 0.31395378708839417 0.04732092097401619 7.619999885559082
v 0.28605762124061584 0.13775809109210968 7.619999885559082
v 0.23274396359920502 0.21595484018325806 7.619999885559082
v 0.1587499976158142 0.27496305108070374 7.619999885559082
v 0.07065039873123169 0.3095396161079407 7.619999885559082
v -0.023726804181933403 0.31661221385002136 7.619999885559082
v -0.11599577218294144 0.29555240273475647 7.619999885559082
v -0.19795800745487213 0.24823150038719177 7.619999885559082
v -0.2623308002948761 0.17885412275791168 7.619999885559082
v -0.3033943772315979 0.09358476847410202 7.619999885559082
v 0.22224999964237213 -0.3849482834339142 0.0
v 0.44449999928474426 0.0 0.0
v 0.44449999928474426 0.0 0.25
v 0.22224999964237213 -0.3849482834339142 0.25
v -0.22224999964237213 -0.3849482834339142 0.0
v 0.22224999964237213 -0.3849482834339142 0.0
v 0.22224999964237213 -0.3849482834339142 0.25
v -0.22224999964237213 -0.3849482834339142 0.25
v -0.44449999928474426 5.551115123125783e-17 0.0
v -0.22224999964237213 -0.3849482834339142 0.0
v -0.22224999964237213 -0.3849482834339142 0.25
v -0.44449999928474426 5.551115123125783e-17 0.25
v -0.22224999964237213 0.3849482834339142 0.0
v -0.44449999928474426 5.551115123125783e-17 0.0
v -0.44449999928474426 5.551115123125783e-17 0.25
v -0.22224999964237213 0.3849482834339142 0.25
v 0.22224999964237213 0.3849482834339142 0.0
v -0.22224999964237213 0.3849482834339142 0.0
v -0.22224999964237213 0.3849482834339142 0.25
v 0.22224999964237213 0.3849482834339142 0.25
v 0.44449999928474426 0.0 0.0
v 0.22224999964237213 0.3849482834339142 0.0
v 0.22224999964237213 0.3849482834339142 0.25
v 0.44449999928474426 0.0 0.25
v -0.3174999952316284 3.8882534591728874e-17 0.25
v -0.3033943772315979 0.09358476847410202 0.25
v -0.2623308002948761 0.17885412275791168 0.25
v -0.19795800745487213 0.24823150038719177 0.25
v -0.11599577218294144 0.29555240273475647 0.25
v -0.023726804181933403 0.31661221385002136 0.25
v 0.07065039873123169 0.3095396161079407 0.25
v 0.1587499976158142 0.27496305108070374 0.25
v 0.23274396359920502 0.21595484018325806 0.25
v 0.28605762124061584 0.13775809109210968 0.25
v 0.31395378708839417 0.04732092097401619 0.25
v 0.31395378708839417 -0.04732092097401619 0.25
v 0.28605762124061584 -0.13775809109210968 0.25
v 0.23274396359920502 -0.21595484018325806 0.25
v 0.1587499976158142 -0.27496305108070374 0.25
v 0.07065039873123169 -0.3095396161079407 0.25
v -0.023726804181933403 -0.31661221385002136 0.25
v -0.11599577218294144 -0.29555240273475647 0.25
v -0.19795800745487213 -0.24823150038719177 0.25
v -0.2623308002948761 -0.17885412275791168 0.25
v -0.3033943772315979 -0.09358476847410202 0.25
v 0.44449999928474426 0.0 0.25
v 0.22224999964237213 0.3849482834339142 0.25
v -0.22224999964237213 0.3849482834339142 0.25
v -0.44449999928474426 5.551115123125783e-17 0.25
v -0.22224999964237213 -0.3849482834339142 0.25
v 0.22224999964237213 -0.3849482834339142 0.25
v 0.22224999964237213 0.3849482834339142 0.0
v 0.44449999928474426 0.0 0.0
v 0.22224999964237213 -0.3849482834339142 0.0
v -0.22224999964237213 -0.3849482834339142 0.0
v -0.44449999928474426 5.551115123125783e-17 0.0
v -0.22224999964237213 0.3849482834339142 0.0
vn -1.0 1.2246468525851679e-16 -0.0
vn -0.955572783946991 0.29475516080856323 -0.0
vn -0.826238751411438 0.5633200407028198 -0.0
vn -0.6234897971153259 0.7818315029144287 -0.0
vn -0.36534103751182556 0.9308737516403198 -0.0
vn -0.07473009079694748 0.9972038269042969 -0.0
vn 0.22252093255519867 0.9749279022216797 -0.0
vn 0.5 0.8660253882408142 -0.0
vn 0.7330518960952759 0.6801727414131165 -0.0
vn 0.9009688496589661 0.4338837265968323 -0.0
vn 0.9888308048248291 0.1490422636270523 -0.0
vn 0.9888308048248291 -0.1490422636270523 -0.0
vn 0.9009688496589661 -0.4338837265968323 -0.0
vn 0.7330518960952759 -0.6801727414131165 -0.0
vn 0.5 -0.8660253882408142 -0.0
vn 0.22252093255519867 -0.9749279022216797 -0.0
vn -0.07473009079694748 -0.9972038269042969 0.0
vn -0.36534103751182556 -0.9308737516403198 0.0
vn -0.6234897971153259 -0.7818315029144287 0.0
vn -0.826238751411438 -0.5633200407028198 0.0
vn -0.955572783946991 -0.29475516080856323 0.0
vn -1.0 -1.2246468525851679e-16 0.0
vn -0.955572783946991 -0.29475516080856323 0.0
vn -0.826238751411438 -0.5633200407028198 0.0
vn -0.6234897971153259 -0.7818315029144287 0.0
vn -0.36534103751182556 -0.9308737516403198 0.0
vn -0.07473009079694748 -0.9972038269042969 0.0
vn 0.22252093255519867 -0.9749279022216797 -0.0
vn 0.5 -0.8660253882408142 -0.0
vn 0.7330518960952759 -0.6801727414131165 -0.0
vn 0.9009688496589661 -0.4338837265968323 -0.0
vn 0.9888308048248291 -0.1490422636270523 -0.0
vn 0.9888308048248291 0.1490422636270523 -0.0
vn 0.9009688496589661 0.4338837265968323 -0.0
vn 0.7330518960952759 0.6801727414131165 -0.0
vn 0.5 0.8660253882408142 -0.0
vn 0.22252093255519867 0.9749279022216797 -0.0
vn -0.07473009079694748 0.9972038269042969 -0.0
vn -0.36534103751182556 0.9308737516403198 -0.0
vn -0.6234897971153259 0.7818315029144287 -0.0
vn -0.826238751411438 0.5633200407028198 -0.0
vn -0.955572783946991 0.29475516080856323 -0.0
vn -1.0 1.2246468525851679e-16 -0.0
vn -1.0 -1.2246468525851679e-16 0.0
vn 0.0 0.0 1.0
vn 0.0 0.0 1.0
vn 0.0 0.0 1.0
vn 0.0 0.0 1.0
vn 0.0 0.0 1.0
vn 0.0 0.0 1.0
vn 0.0 0.0 1.0
vn 0.0 0.0 1.0
vn 0.0 0.0 1.0
vn 0.0 0.0 1.0
vn 0.0 0.0 1.0
vn 0.0 0.0 1.0
vn 0.0 0.0 1.0
vn 0.0 0.0 1.0
vn 0.0 0.0 1.0
vn 0.0 0.0 1.0
vn 0.0 0.0 1.0
vn 0.0 0.0 1.0
vn 0.0 0.0 1.0
vn 0.0 0.0 1.0
vn 0.0 0.0 1.0
vn 0.8660253882408142 -0.5 0.0
vn 0.8660253882408142 -0.5 0.0
vn 0.8660253882408142 -0.5 0.0
vn 0.8660253882408142 -0.5 0.0
vn 0.0 -1.0 0.0
vn 0.0 -1.0 0.0
vn 0.0 -1.0 0.0
vn 0.0 -1.0 0.0
vn -0.8660253882408142 -0.5 0.0
vn -0.8660253882408142 -0.5 0.0
vn -0.8660253882408142 -0.5 0.0
vn -0.8660253882408142 -0.5 0.0
vn -0.8660253882408142 0.5 0.0
vn -0.8660253882408142 0.5 0.0
vn -0.8660253882408142 0.5 0.0
vn -0.8660253882408142 0.5 0.0
vn 3.7465344577087493e-16 1.0 -0.0
vn 3.7465344577087493e-16 1.0 -0.0
vn 3.7465344577087493e-16 1.0 -0.0
vn 3.7465344577087493e-16 1.0 -0.0
vn 0.8660253882408142 0.5 -0.0
vn 0.8660253882408142 0.5 -0.0
vn 0.8660253882408142 0.5 -0.0
vn 0.8660253882408142 0.5 -0.0
vn 0.0 0.0 1.0
vn 0.0 0.0 1.0
vn 0.0 0.0 1.0
vn 0.0 0.0 1.0
vn 0.0 0.0 1.0
vn 0.0 0.0 1.0
vn 0.0 0.0 1.0
vn 0.0 0.0 1.0
vn 0.0 0.0 1.0
vn 0.0 0.0 1.0
vn 0.0 0.0 1.0
vn 0.0 0.0 1.0
vn 0.0 0.0 1.0
vn 0.0 0.0 1.0
vn 0.0 0.0 1.0
vn 0.0 0.0 1.0
vn 0.0 0.0 1.0
vn 0.0 0.0 1.0
vn 0.0 0.0 1.0
vn 0.0 0.0 1.0
vn 0.0 0.0 1.0
vn 0.0 0.0 1.0
vn 0.0 0.0 1.0
vn 0.0 0.0 1.0
vn 0.0 0.0 1.0
vn 0.0 0.0 1.0
vn 0.0 0.0 1.0
vn -0.0 -0.0 -1.0
vn -0.0 -0.0 -1.0
vn -0.0 -0.0 -1.0
vn -0.0 -0.0 -1.0
vn -0.0 -0.0 -1.0
vn -0.0 -0.0 -1.0
g c9e61d22-e2aa-11ea-9939-54bf646e7e1f
f 2//2 42//42 1//1
f 1//1 42//42 43//43
f 44//44 22//22 21//21
f 21//21 22//22 23//23
f 21//21 23//23 20//20
f 20//20 23//23 24//24
f 20//20 24//24 19//19
f 19//19 24//24 25//25
f 19//19 25//25 18//18
f 18//18 25//25 26//26
f 18//18 26//26 17//17
f 17//17 26//26 27//27
f 17//17 27//27 16//16
f 16//16 27//27 28//28
f 16//16 28//28 15//15
f 15//15 28//28 29//29
f 15//15 29//29 14//14
f 14//14 29//29 30//30
f 14//14 30//30 13//13
f 13//13 30//30 31//31
f 13//13 31//31 12//12
f 12//12 31//31 32//32
f 12//12 32//32 11//11
f 11//11 32//32 33//33
f 11//11 33//33 10//10
f 10//10 33//33 34//34
f 10//10 34//34 9//9
f 9//9 34//34 35//35
f 9//9 35//35 8//8
f 8//8 35//35 36//36
f 8//8 36//36 7//7
f 7//7 36//36 37//37
f 7//7 37//37 6//6
f 6//6 37//37 38//38
f 6//6 38//38 5//5
f 5//5 38//38 39//39
f 5//5 39//39 4//4
f 4//4 39//39 40//40
f 4//4 40//40 3//3
f 3//3 40//40 41//41
f 3//3 41//41 2//2
f 2//2 41//41 42//42
g c9e6b97a-e2aa-11ea-b5df-54bf646e7e1f
f 46//46 55//55 45//45
f 45//45 55//55 56//56
f 45//45 56//56 65//65
f 65//65 56//56 57//57
f 65//65 57//57 64//64
f 64//64 57//57 58//58
f 64//64 58//58 63//63
f 63//63 58//58 59//59
f 63//63 59//59 62//62
f 62//62 59//59 60//60
f 62//62 60//60 61//61
f 55//55 46//46 54//54
f 54//54 46//46 47//47
f 54//54 47//47 53//53
f 53//53 47//47 48//48
f 53//53 48//48 52//52
f 52//52 48//48 49//49
f 52//52 49//49 51//51
f 51//51 49//49 50//50
g c99c3398-e2aa-11ea-9eac-54bf646e7e1f
f 66//66 67//67 69//69
f 69//69 67//67 68//68
g c99ca8e2-e2aa-11ea-8575-54bf646e7e1f
f 70//70 71//71 73//73
f 73//73 71//71 72//72
g c99cf70c-e2aa-11ea-ab01-54bf646e7e1f
f 74//74 75//75 77//77
f 77//77 75//75 76//76
g c99d6c64-e2aa-11ea-8f67-54bf646e7e1f
f 78//78 79//79 81//81
f 81//81 79//79 80//80
g c99de1ae-e2aa-11ea-903a-54bf646e7e1f
f 82//82 83//83 85//85
f 85//85 83//83 84//84
g c99e56e2-e2aa-11ea-a874-54bf646e7e1f
f 86//86 87//87 89//89
f 89//89 87//87 88//88
g c99ecc40-e2aa-11ea-bd4f-54bf646e7e1f
f 110//110 90//90 114//114
f 114//114 90//90 91//91
f 114//114 91//91 92//92
f 114//114 92//92 113//113
f 113//113 92//92 93//93
f 113//113 93//93 94//94
f 94//94 95//95 113//113
f 113//113 95//95 112//112
f 112//112 95//95 96//96
f 112//112 96//96 97//97
f 97//97 98//98 112//112
f 112//112 98//98 99//99
f 112//112 99//99 111//111
f 111//111 99//99 100//100
f 111//111 100//100 101//101
f 101//101 102//102 111//111
f 111//111 102//102 116//116
f 116//116 102//102 103//103
f 116//116 103//103 104//104
f 104//104 105//105 116//116
f 116//116 105//105 106//106
f 116//116 106//106 115//115
f 115//115 106//106 107//107
f 115//115 107//107 108//108
f 108//108 109//109 115//115
f 115//115 109//109 114//114
f 114//114 109//109 110//110
g c99f418a-e2aa-11ea-9f28-54bf646e7e1f
f 122//122 117//117 121//121
f 121//121 117//117 118//118
f 121//121 118//118 120//120
f 120//120 118//118 119//119

# End of file