# WaveFront *.obj file
# Vertices: 170
# Triangles : 160

v 21.87194061279297 0.26232245564460754 -21.422222137451172
v 21.87194061279297 0.42107245326042175 -21.464759826660156
v 21.87194061279297 0.5372855067253113 -21.58097267150879
v 21.87194061279297 0.5798224210739136 -21.739723205566406
v 21.87194061279297 0.5372855067253113 -21.89847183227539
v 21.87194061279297 0.42107245326042175 -22.014686584472656
v 21.87194061279297 0.26232245564460754 -22.057222366333008
v 21.87194061279297 0.10357244312763214 -22.014686584472656
v 21.87194061279297 -0.012640624307096004 -21.89847183227539
v 21.87194061279297 -0.055177558213472366 -21.739723205566406
v 21.87194061279297 -0.012640624307096004 -21.58097267150879
v 21.87194061279297 0.10357244312763214 -21.464759826660156
v 21.236940383911133 0.26232245564460754 -21.422222137451172
v 21.236940383911133 0.10357244312763214 -21.464759826660156
v 21.236940383911133 -0.012640624307096004 -21.58097267150879
v 21.236940383911133 -0.055177558213472366 -21.739723205566406
v 21.236940383911133 -0.012640624307096004 -21.89847183227539
v 21.236940383911133 0.10357244312763214 -22.014686584472656
v 21.236940383911133 0.26232245564460754 -22.057222366333008
v 21.236940383911133 0.42107245326042175 -22.014686584472656
v 21.236940383911133 0.5372855067253113 -21.89847183227539
v 21.236940383911133 0.5798224210739136 -21.739723205566406
v 21.236940383911133 0.5372855067253113 -21.58097267150879
v 21.236940383911133 0.42107245326042175 -21.464759826660156
v 21.236940383911133 0.26232245564460754 -21.422222137451172
v 21.87194061279297 0.26232245564460754 -21.422222137451172
v 21.87194061279297 0.26232245564460754 -21.422222137451172
v 21.87194061279297 0.10357244312763214 -21.464759826660156
v 21.87194061279297 -0.012640624307096004 -21.58097267150879
v 21.87194061279297 -0.055177558213472366 -21.739723205566406
v 21.87194061279297 -0.012640624307096004 -21.89847183227539
v 21.87194061279297 0.10357244312763214 -22.014686584472656
v 21.87194061279297 0.26232245564460754 -22.057222366333008
v 21.87194061279297 0.42107245326042175 -22.014686584472656
v 21.87194061279297 0.5372855067253113 -21.89847183227539
v 21.87194061279297 0.5798224210739136 -21.739723205566406
v 21.87194061279297 0.5372855067253113 -21.58097267150879
v 21.87194061279297 0.42107245326042175 -21.464759826660156
v -0.6349999904632568 0.26232245564460754 -22.057222366333008
v -0.6349999904632568 0.42107245326042175 -22.014686584472656
v -0.6349999904632568 0.5372855067253113 -21.89847183227539
v -0.6349999904632568 0.5798224210739136 -21.739723205566406
v -0.6349999904632568 0.5372855067253113 -21.58097267150879
v -0.6349999904632568 0.42107245326042175 -21.464759826660156
v -0.6349999904632568 0.26232245564460754 -21.422222137451172
v -0.6349999904632568 0.10357244312763214 -21.464759826660156
v -0.6349999904632568 -0.012640624307096004 -21.58097267150879
v -0.6349999904632568 -0.055177558213472366 -21.739723205566406
v -0.6349999904632568 -0.012640624307096004 -21.89847183227539
v -0.6349999904632568 0.10357244312763214 -22.014686584472656
v 0.0 0.26232245564460754 -22.057222366333008
v 0.0 0.10357244312763214 -22.014686584472656
v 0.0 -0.012640624307096004 -21.89847183227539
v 0.0 -0.055177558213472366 -21.739723205566406
v 0.0 -0.012640624307096004 -21.58097267150879
v 0.0 0.10357244312763214 -21.464759826660156
v 0.0 0.26232245564460754 -21.422222137451172
v 0.0 0.42107245326042175 -21.464759826660156
v 0.0 0.5372855067253113 -21.58097267150879
v 0.0 0.5798224210739136 -21.739723205566406
v 0.0 0.5372855067253113 -21.89847183227539
v 0.0 0.42107245326042175 -22.014686584472656
v 0.0 0.26232245564460754 -22.057222366333008
v -0.6349999904632568 0.26232245564460754 -22.057222366333008
v 21.236940383911133 0.26232245564460754 -21.422222137451172
v 21.236940383911133 0.42107245326042175 -21.464759826660156
v 21.236940383911133 0.5372855067253113 -21.58097267150879
v 21.236940383911133 0.5798224210739136 -21.739723205566406
v 21.236940383911133 0.5372855067253113 -21.89847183227539
v 21.236940383911133 0.42107245326042175 -22.014686584472656
v 21.236940383911133 0.26232245564460754 -22.057222366333008
v 21.236940383911133 0.10357244312763214 -22.014686584472656
v 21.236940383911133 -0.012640624307096004 -21.89847183227539
v 21.236940383911133 -0.055177558213472366 -21.739723205566406
v 21.236940383911133 -0.012640624307096004 -21.58097267150879
v 21.236940383911133 0.10357244312763214 -21.464759826660156
v 21.236940383911133 0.26232245564460754 -21.10472297668457
v 21.236940383911133 0.03293398395180702 -21.147602081298828
v 21.236940383911133 -0.1654742956161499 -21.27045249938965
v 21.236940383911133 -0.30610623955726624 -21.45667839050293
v 21.236940383911133 -0.3699687719345093 -21.681133270263672
v 21.236940383911133 -0.3484368324279785 -21.913497924804688
v 21.236940383911133 -0.24441850185394287 -22.12239646911621
v 21.236940383911133 -0.07196198403835297 -22.279611587524414
v 21.236940383911133 0.14564149081707 -22.363910675048828
v 21.236940383911133 0.3790033757686615 -22.363910675048828
v 21.236940383911133 0.5966068506240845 -22.279611587524414
v 21.236940383911133 0.7690633535385132 -22.12239646911621
v 21.236940383911133 0.8730817437171936 -21.913497924804688
v 21.236940383911133 0.8946136236190796 -21.681133270263672
v 21.236940383911133 0.8307511210441589 -21.45667839050293
v 21.236940383911133 0.6901191473007202 -21.27045249938965
v 21.236940383911133 0.491710901260376 -21.147602081298828
v 0.0 0.26232245564460754 -22.057222366333008
v 0.0 0.42107245326042175 -22.014686584472656
v 0.0 0.5372855067253113 -21.89847183227539
v 0.0 0.5798224210739136 -21.739723205566406
v 0.0 0.5372855067253113 -21.58097267150879
v 0.0 0.42107245326042175 -21.464759826660156
v 0.0 0.26232245564460754 -21.422222137451172
v 0.0 0.10357244312763214 -21.464759826660156
v 0.0 -0.012640624307096004 -21.58097267150879
v 0.0 -0.055177558213472366 -21.739723205566406
v 0.0 -0.012640624307096004 -21.89847183227539
v 0.0 0.10357244312763214 -22.014686584472656
v 0.0 0.26232245564460754 -21.10472297668457
v 0.0 0.491710901260376 -21.147602081298828
v 0.0 0.6901191473007202 -21.27045249938965
v 0.0 0.8307511210441589 -21.45667839050293
v 0.0 0.8946136236190796 -21.681133270263672
v 0.0 0.8730817437171936 -21.913497924804688
v 0.0 0.7690633535385132 -22.12239646911621
v 0.0 0.5966068506240845 -22.279611587524414
v 0.0 0.3790033757686615 -22.363910675048828
v 0.0 0.14564149081707 -22.363910675048828
v 0.0 -0.07196198403835297 -22.279611587524414
v 0.0 -0.24441850185394287 -22.12239646911621
v 0.0 -0.3484368324279785 -21.913497924804688
v 0.0 -0.3699687719345093 -21.681133270263672
v 0.0 -0.30610623955726624 -21.45667839050293
v 0.0 -0.1654742956161499 -21.27045249938965
v 0.0 0.03293398395180702 -21.147602081298828
v -0.6349999904632568 0.26232245564460754 -22.057222366333008
v -0.6349999904632568 0.10357244312763214 -22.014686584472656
v -0.6349999904632568 -0.012640624307096004 -21.89847183227539
v -0.6349999904632568 -0.055177558213472366 -21.739723205566406
v -0.6349999904632568 -0.012640624307096004 -21.58097267150879
v -0.6349999904632568 0.10357244312763214 -21.464759826660156
v -0.6349999904632568 0.26232245564460754 -21.422222137451172
v -0.6349999904632568 0.42107245326042175 -21.464759826660156
v -0.6349999904632568 0.5372855067253113 -21.58097267150879
v -0.6349999904632568 0.5798224210739136 -21.739723205566406
v -0.6349999904632568 0.5372855067253113 -21.89847183227539
v -0.6349999904632568 0.42107245326042175 -22.014686584472656
v 21.236940383911133 0.26232245564460754 -21.10472297668457
v 21.236940383911133 0.491710901260376 -21.147602081298828
v 21.236940383911133 0.6901191473007202 -21.27045249938965
v 21.236940383911133 0.8307511210441589 -21.45667839050293
v 21.236940383911133 0.8946136236190796 -21.681133270263672
v 21.236940383911133 0.8730817437171936 -21.913497924804688
v 21.236940383911133 0.7690633535385132 -22.12239646911621
v 21.236940383911133 0.5966068506240845 -22.279611587524414
v 21.236940383911133 0.3790033757686615 -22.363910675048828
v 21.236940383911133 0.14564149081707 -22.363910675048828
v 21.236940383911133 -0.07196198403835297 -22.279611587524414
v 21.236940383911133 -0.24441850185394287 -22.12239646911621
v 21.236940383911133 -0.3484368324279785 -21.913497924804688
v 21.236940383911133 -0.3699687719345093 -21.681133270263672
v 21.236940383911133 -0.30610623955726624 -21.45667839050293
v 21.236940383911133 -0.1654742956161499 -21.27045249938965
v 21.236940383911133 0.03293398395180702 -21.147602081298828
v 0.0 0.26232245564460754 -21.10472297668457
v 0.0 0.03293398395180702 -21.147602081298828
v 0.0 -0.1654742956161499 -21.27045249938965
v 0.0 -0.30610623955726624 -21.45667839050293
v 0.0 -0.3699687719345093 -21.681133270263672
v 0.0 -0.3484368324279785 -21.913497924804688
v 0.0 -0.24441850185394287 -22.12239646911621
v 0.0 -0.07196198403835297 -22.279611587524414
v 0.0 0.14564149081707 -22.363910675048828
v 0.0 0.3790033757686615 -22.363910675048828
v 0.0 0.5966068506240845 -22.279611587524414
v 0.0 0.7690633535385132 -22.12239646911621
v 0.0 0.8730817437171936 -21.913497924804688
v 0.0 0.8946136236190796 -21.681133270263672
v 0.0 0.8307511210441589 -21.45667839050293
v 0.0 0.6901191473007202 -21.27045249938965
v 0.0 0.491710901260376 -21.147602081298828
v 0.0 0.26232245564460754 -21.10472297668457
v 21.236940383911133 0.26232245564460754 -21.10472297668457
vn -0.0 1.2246468525851679e-16 1.0
vn -0.0 0.5 0.8660253882408142
vn -0.0 0.8660253882408142 0.5
vn -0.0 1.0 -6.123234262925839e-17
vn -0.0 0.8660253882408142 -0.5
vn -0.0 0.5 -0.8660253882408142
vn -0.0 0.0 -1.0
vn 0.0 -0.5 -0.8660253882408142
vn 0.0 -0.8660253882408142 -0.5
vn 0.0 -1.0 -6.123234262925839e-17
vn -0.0 -0.8660253882408142 0.5
vn -0.0 -0.5 0.8660253882408142
vn -0.0 -1.2246468525851679e-16 1.0
vn -0.0 -0.5 0.8660253882408142
vn -0.0 -0.8660253882408142 0.5
vn 0.0 -1.0 -6.123234262925839e-17
vn 0.0 -0.8660253882408142 -0.5
vn 0.0 -0.5 -0.8660253882408142
vn -0.0 0.0 -1.0
vn -0.0 0.5 -0.8660253882408142
vn -0.0 0.8660253882408142 -0.5
vn -0.0 1.0 -6.123234262925839e-17
vn -0.0 0.8660253882408142 0.5
vn -0.0 0.5 0.8660253882408142
vn -0.0 1.2246468525851679e-16 1.0
vn -0.0 -1.2246468525851679e-16 1.0
vn 1.0 0.0 0.0
vn 1.0 0.0 0.0
vn 1.0 0.0 0.0
vn 1.0 0.0 0.0
vn 1.0 0.0 0.0
vn 1.0 0.0 0.0
vn 1.0 0.0 0.0
vn 1.0 0.0 0.0
vn 1.0 0.0 0.0
vn 1.0 0.0 0.0
vn 1.0 0.0 0.0
vn 1.0 0.0 0.0
vn -0.0 1.2246468525851679e-16 -1.0
vn -0.0 0.5 -0.8660253882408142
vn -0.0 0.8660253882408142 -0.5
vn 0.0 1.0 6.123234262925839e-17
vn 0.0 0.8660253882408142 0.5
vn 0.0 0.5 0.8660253882408142
vn 0.0 -0.0 1.0
vn -0.0 -0.5 0.8660253882408142
vn -0.0 -0.8660253882408142 0.5
vn -0.0 -1.0 6.123234262925839e-17
vn -0.0 -0.8660253882408142 -0.5
vn -0.0 -0.5 -0.8660253882408142
vn -0.0 -1.2246468525851679e-16 -1.0
vn -0.0 -0.5 -0.8660253882408142
vn -0.0 -0.8660253882408142 -0.5
vn -0.0 -1.0 6.123234262925839e-17
vn -0.0 -0.8660253882408142 0.5
vn -0.0 -0.5 0.8660253882408142
vn 0.0 -0.0 1.0
vn 0.0 0.5 0.8660253882408142
vn 0.0 0.8660253882408142 0.5
vn 0.0 1.0 6.123234262925839e-17
vn -0.0 0.8660253882408142 -0.5
vn -0.0 0.5 -0.8660253882408142
vn -0.0 1.2246468525851679e-16 -1.0
vn -0.0 -1.2246468525851679e-16 -1.0
vn 1.0 0.0 0.0
vn 1.0 0.0 0.0
vn 1.0 0.0 0.0
vn 1.0 0.0 0.0
vn 1.0 0.0 0.0
vn 1.0 0.0 0.0
vn 1.0 0.0 0.0
vn 1.0 0.0 0.0
vn 1.0 0.0 0.0
vn 1.0 0.0 0.0
vn 1.0 0.0 0.0
vn 1.0 0.0 0.0
vn 1.0 0.0 0.0
vn 1.0 0.0 0.0
vn 1.0 0.0 0.0
vn 1.0 0.0 0.0
vn 1.0 0.0 0.0
vn 1.0 0.0 0.0
vn 1.0 0.0 0.0
vn 1.0 0.0 0.0
vn 1.0 0.0 0.0
vn 1.0 0.0 0.0
vn 1.0 0.0 0.0
vn 1.0 0.0 0.0
vn 1.0 0.0 0.0
vn 1.0 0.0 0.0
vn 1.0 0.0 0.0
vn 1.0 0.0 0.0
vn 1.0 0.0 0.0
vn -1.0 -0.0 -0.0
vn -1.0 -0.0 -0.0
vn -1.0 -0.0 -0.0
vn -1.0 -0.0 -0.0
vn -1.0 -0.0 -0.0
vn -1.0 -0.0 -0.0
vn -1.0 -0.0 -0.0
vn -1.0 -0.0 -0.0
vn -1.0 -0.0 -0.0
vn -1.0 -0.0 -0.0
vn -1.0 -0.0 -0.0
vn -1.0 -0.0 -0.0
vn -1.0 -0.0 -0.0
vn -1.0 -0.0 -0.0
vn -1.0 -0.0 -0.0
vn -1.0 -0.0 -0.0
vn -1.0 -0.0 -0.0
vn -1.0 -0.0 -0.0
vn -1.0 -0.0 -0.0
vn -1.0 -0.0 -0.0
vn -1.0 -0.0 -0.0
vn -1.0 -0.0 -0.0
vn -1.0 -0.0 -0.0
vn -1.0 -0.0 -0.0
vn -1.0 -0.0 -0.0
vn -1.0 -0.0 -0.0
vn -1.0 -0.0 -0.0
vn -1.0 -0.0 -0.0
vn -1.0 -0.0 -0.0
vn -1.0 0.0 0.0
vn -1.0 0.0 0.0
vn -1.0 0.0 0.0
vn -1.0 0.0 0.0
vn -1.0 0.0 0.0
vn -1.0 0.0 0.0
vn -1.0 0.0 0.0
vn -1.0 0.0 0.0
vn -1.0 0.0 0.0
vn -1.0 0.0 0.0
vn -1.0 0.0 0.0
vn -1.0 0.0 0.0
vn -0.0 1.2246468525851679e-16 1.0
vn -0.0 0.3612416684627533 0.9324722290039062
vn -0.0 0.6736956238746643 0.739008903503418
vn -0.0 0.8951632976531982 0.4457383453845978
vn -0.0 0.9957341551780701 0.09226836264133453
vn -0.0 0.9618256688117981 -0.2736629843711853
vn -0.0 0.7980172038078308 -0.602634608745575
vn -0.0 0.5264321565628052 -0.8502171635627747
vn -0.0 0.1837495118379593 -0.9829730987548828
vn 0.0 -0.1837495118379593 -0.9829730987548828
vn 0.0 -0.5264321565628052 -0.8502171635627747
vn 0.0 -0.7980172038078308 -0.602634608745575
vn 0.0 -0.9618256688117981 -0.2736629843711853
vn -0.0 -0.9957341551780701 0.09226836264133453
vn -0.0 -0.8951632976531982 0.4457383453845978
vn -0.0 -0.6736956238746643 0.739008903503418
vn -0.0 -0.3612416684627533 0.9324722290039062
vn -0.0 -1.2246468525851679e-16 1.0
vn -0.0 -0.3612416684627533 0.9324722290039062
vn -0.0 -0.6736956238746643 0.739008903503418
vn -0.0 -0.8951632976531982 0.4457383453845978
vn -0.0 -0.9957341551780701 0.09226836264133453
vn 0.0 -0.9618256688117981 -0.2736629843711853
vn 0.0 -0.7980172038078308 -0.602634608745575
vn 0.0 -0.5264321565628052 -0.8502171635627747
vn 0.0 -0.1837495118379593 -0.9829730987548828
vn -0.0 0.1837495118379593 -0.9829730987548828
vn -0.0 0.5264321565628052 -0.8502171635627747
vn -0.0 0.7980172038078308 -0.602634608745575
vn -0.0 0.9618256688117981 -0.2736629843711853
vn -0.0 0.9957341551780701 0.09226836264133453
vn -0.0 0.8951632976531982 0.4457383453845978
vn -0.0 0.6736956238746643 0.739008903503418
vn -0.0 0.3612416684627533 0.9324722290039062
vn -0.0 1.2246468525851679e-16 1.0
vn -0.0 -1.2246468525851679e-16 1.0
f 2//2 24//24 1//1
f 1//1 24//24 25//25
f 26//26 13//13 12//12
f 12//12 13//13 14//14
f 12//12 14//14 11//11
f 11//11 14//14 15//15
f 11//11 15//15 10//10
f 10//10 15//15 16//16
f 10//10 16//16 9//9
f 9//9 16//16 17//17
f 9//9 17//17 8//8
f 8//8 17//17 18//18
f 8//8 18//18 7//7
f 7//7 18//18 19//19
f 7//7 19//19 6//6
f 6//6 19//19 20//20
f 6//6 20//20 5//5
f 5//5 20//20 21//21
f 5//5 21//21 4//4
f 4//4 21//21 22//22
f 4//4 22//22 3//3
f 3//3 22//22 23//23
f 3//3 23//23 2//2
f 2//2 23//23 24//24
f 28//28 32//32 27//27
f 27//27 32//32 33//33
f 27//27 33//33 38//38
f 38//38 33//33 34//34
f 38//38 34//34 37//37
f 37//37 34//34 35//35
f 37//37 35//35 36//36
f 32//32 28//28 31//31
f 31//31 28//28 29//29
f 31//31 29//29 30//30
f 40//40 62//62 39//39
f 39//39 62//62 63//63
f 64//64 51//51 50//50
f 50//50 51//51 52//52
f 50//50 52//52 49//49
f 49//49 52//52 53//53
f 49//49 53//53 48//48
f 48//48 53//53 54//54
f 48//48 54//54 47//47
f 47//47 54//54 55//55
f 47//47 55//55 46//46
f 46//46 55//55 56//56
f 46//46 56//56 45//45
f 45//45 56//56 57//57
f 45//45 57//57 44//44
f 44//44 57//57 58//58
f 44//44 58//58 43//43
f 43//43 58//58 59//59
f 43//43 59//59 42//42
f 42//42 59//59 60//60
f 42//42 60//60 41//41
f 41//41 60//60 61//61
f 41//41 61//61 40//40
f 40//40 61//61 62//62
f 66//66 93//93 65//65
f 65//65 93//93 77//77
f 65//65 77//77 78//78
f 93//93 66//66 92//92
f 92//92 66//66 67//67
f 92//92 67//67 91//91
f 91//91 67//67 90//90
f 90//90 67//67 68//68
f 90//90 68//68 89//89
f 89//89 68//68 69//69
f 89//89 69//69 88//88
f 88//88 69//69 70//70
f 88//88 70//70 87//87
f 87//87 70//70 86//86
f 86//86 70//70 71//71
f 86//86 71//71 85//85
f 85//85 71//71 72//72
f 85//85 72//72 84//84
f 84//84 72//72 83//83
f 83//83 72//72 73//73
f 83//83 73//73 82//82
f 82//82 73//73 74//74
f 82//82 74//74 81//81
f 81//81 74//74 75//75
f 81//81 75//75 80//80
f 80//80 75//75 79//79
f 79//79 75//75 76//76
f 79//79 76//76 78//78
f 78//78 76//76 65//65
f 95//95 114//114 94//94
f 94//94 114//114 115//115
f 94//94 115//115 105//105
f 105//105 115//115 116//116
f 105//105 116//116 117//117
f 96//96 112//112 95//95
f 95//95 112//112 113//113
f 95//95 113//113 114//114
f 112//112 96//96 111//111
f 111//111 96//96 97//97
f 111//111 97//97 110//110
f 110//110 97//97 98//98
f 110//110 98//98 109//109
f 109//109 98//98 108//108
f 108//108 98//98 99//99
f 108//108 99//99 107//107
f 107//107 99//99 100//100
f 107//107 100//100 106//106
f 106//106 100//100 122//122
f 122//122 100//100 101//101
f 122//122 101//101 121//121
f 121//121 101//101 102//102
f 121//121 102//102 120//120
f 120//120 102//102 119//119
f 119//119 102//102 103//103
f 119//119 103//103 118//118
f 118//118 103//103 104//104
f 118//118 104//104 117//117
f 117//117 104//104 105//105
f 124//124 128//128 123//123
f 123//123 128//128 129//129
f 123//123 129//129 134//134
f 134//134 129//129 130//130
f 134//134 130//130 133//133
f 133//133 130//130 131//131
f 133//133 131//131 132//132
f 128//128 124//124 127//127
f 127//127 124//124 125//125
f 127//127 125//125 126//126
f 136//136 168//168 135//135
f 135//135 168//168 169//169
f 170//170 152//152 151//151
f 151//151 152//152 153//153
f 151//151 153//153 150//150
f 150//150 153//153 154//154
f 150//150 154//154 149//149
f 149//149 154//154 155//155
f 149//149 155//155 148//148
f 148//148 155//155 156//156
f 148//148 156//156 147//147
f 147//147 156//156 157//157
f 147//147 157//157 146//146
f 146//146 157//157 158//158
f 146//146 158//158 145//145
f 145//145 158//158 159//159
f 145//145 159//159 144//144
f 144//144 159//159 160//160
f 144//144 160//160 143//143
f 143//143 160//160 161//161
f 143//143 161//161 142//142
f 142//142 161//161 162//162
f 142//142 162//162 141//141
f 141//141 162//162 163//163
f 141//141 163//163 140//140
f 140//140 163//163 164//164
f 140//140 164//164 139//139
f 139//139 164//164 165//165
f 139//139 165//165 138//138
f 138//138 165//165 166//166
f 138//138 166//166 137//137
f 137//137 166//166 167//167
f 137//137 167//167 136//136
f 136//136 167//167 168//168

# End of file