# WaveFront *.obj file
# Vertices: 236
# Triangles : 192

v 15.239999771118164 -15.875 0.0
v 15.239999771118164 -14.604999542236328 0.0
v 15.239999771118164 -14.604999542236328 29.209999084472656
v 15.239999771118164 -15.875 29.209999084472656
v -12.699999809265137 -14.604999542236328 0.0
v -15.239999771118164 -14.604999542236328 0.0
v -15.239999771118164 -14.604999542236328 29.209999084472656
v -12.699999809265137 -14.604999542236328 29.209999084472656
v -12.0649995803833 -15.239999771118164 0.6349999904632568
v -12.0649995803833 -15.239999771118164 56.51499938964844
v 12.0649995803833 -15.239999771118164 56.51499938964844
v 12.0649995803833 -15.239999771118164 0.6349999904632568
v -17.145000457763672 16.510000228881836 57.150001525878906
v 17.145000457763672 16.510000228881836 57.150001525878906
v 17.145000457763672 -16.510000228881836 57.150001525878906
v -17.145000457763672 -16.510000228881836 57.150001525878906
v 12.699999809265137 -15.875 57.150001525878906
v 12.699999809265137 15.875 57.150001525878906
v -12.699999809265137 15.875 57.150001525878906
v -12.699999809265137 -15.875 57.150001525878906
v 17.145000457763672 16.510000228881836 57.150001525878906
v -17.145000457763672 16.510000228881836 57.150001525878906
v -17.145000457763672 16.510000228881836 59.05500030517578
v 17.145000457763672 16.510000228881836 59.05500030517578
v -12.0649995803833 15.875 0.6349999904632568
v -12.0649995803833 15.875 56.51499938964844
v -12.0649995803833 -15.239999771118164 56.51499938964844
v -12.0649995803833 -15.239999771118164 0.6349999904632568
v -0.9524999856948853 -1.1664760708390907e-16 59.05500030517578
v -0.8248891830444336 0.4762499928474426 59.05500030517578
v -0.4762499928474426 0.8248891830444336 59.05500030517578
v 5.832380354195454e-17 0.9524999856948853 59.05500030517578
v 0.4762499928474426 0.8248891830444336 59.05500030517578
v 0.8248891830444336 0.4762499928474426 59.05500030517578
v 0.9524999856948853 0.0 59.05500030517578
v 0.8248891830444336 -0.4762499928474426 59.05500030517578
v 0.4762499928474426 -0.8248891830444336 59.05500030517578
v 5.832380354195454e-17 -0.9524999856948853 59.05500030517578
v -0.4762499928474426 -0.8248891830444336 59.05500030517578
v -0.8248891830444336 -0.4762499928474426 59.05500030517578
v 17.145000457763672 16.510000228881836 59.05500030517578
v -17.145000457763672 16.510000228881836 59.05500030517578
v -17.145000457763672 -16.510000228881836 59.05500030517578
v 17.145000457763672 -16.510000228881836 59.05500030517578
v -12.699999809265137 15.875 0.0
v 12.699999809265137 15.875 0.0
v 12.699999809265137 -14.604999542236328 0.0
v 15.239999771118164 -14.604999542236328 0.0
v 15.239999771118164 -15.875 0.0
v -15.239999771118164 -15.875 0.0
v -15.239999771118164 -14.604999542236328 0.0
v -12.699999809265137 -14.604999542236328 0.0
v -15.239999771118164 -15.875 0.0
v 15.239999771118164 -15.875 0.0
v 15.239999771118164 -15.875 29.209999084472656
v 12.699999809265137 -15.875 29.209999084472656
v 12.699999809265137 -15.875 57.150001525878906
v -12.699999809265137 -15.875 57.150001525878906
v -12.699999809265137 -15.875 29.209999084472656
v -15.239999771118164 -15.875 29.209999084472656
v -2.5399999618530273 -3.11060276733831e-16 62.22999954223633
v -2.4023756980895996 -0.8247366547584534 62.22999954223633
v -2.0044169425964355 -1.5601003170013428 62.22999954223633
v -1.3892483711242676 -2.1264028549194336 62.22999954223633
v -0.6235331296920776 -2.4622766971588135 62.22999954223633
v 0.20975153148174286 -2.531324625015259 62.22999954223633
v 1.0203063488006592 -2.326064348220825 62.22999954223633
v 1.7202951908111572 -1.8687387704849243 62.22999954223633
v 2.233863353729248 -1.2089064121246338 62.22999954223633
v 2.5053577423095703 -0.4180702567100525 62.22999954223633
v 2.5053577423095703 0.4180702567100525 62.22999954223633
v 2.233863353729248 1.2089064121246338 62.22999954223633
v 1.7202951908111572 1.8687387704849243 62.22999954223633
v 1.0203063488006592 2.326064348220825 62.22999954223633
v 0.20975153148174286 2.531324625015259 62.22999954223633
v -0.6235331296920776 2.4622766971588135 62.22999954223633
v -1.3892483711242676 2.1264028549194336 62.22999954223633
v -2.0044169425964355 1.5601003170013428 62.22999954223633
v -2.4023756980895996 0.8247366547584534 62.22999954223633
v 12.0649995803833 15.875 56.51499938964844
v -12.0649995803833 15.875 56.51499938964844
v -12.0649995803833 15.875 0.6349999904632568
v 12.0649995803833 15.875 0.6349999904632568
v 12.699999809265137 15.875 0.0
v -12.699999809265137 15.875 0.0
v -12.699999809265137 15.875 57.150001525878906
v 12.699999809265137 15.875 57.150001525878906
v -0.9524999856948853 -1.1664760708390907e-16 60.959999084472656
v -0.8248891830444336 0.4762499928474426 60.959999084472656
v -0.4762499928474426 0.8248891830444336 60.959999084472656
v 5.832380354195454e-17 0.9524999856948853 60.959999084472656
v 0.4762499928474426 0.8248891830444336 60.959999084472656
v 0.8248891830444336 0.4762499928474426 60.959999084472656
v 0.9524999856948853 0.0 60.959999084472656
v 0.8248891830444336 -0.4762499928474426 60.959999084472656
v 0.4762499928474426 -0.8248891830444336 60.959999084472656
v 5.832380354195454e-17 -0.9524999856948853 60.959999084472656
v -0.4762499928474426 -0.8248891830444336 60.959999084472656
v -0.8248891830444336 -0.4762499928474426 60.959999084472656
v -0.9524999856948853 -1.1664760708390907e-16 59.05500030517578
v -0.8248891830444336 -0.4762499928474426 59.05500030517578
v -0.4762499928474426 -0.8248891830444336 59.05500030517578
v 5.832380354195454e-17 -0.9524999856948853 59.05500030517578
v 0.4762499928474426 -0.8248891830444336 59.05500030517578
v 0.8248891830444336 -0.4762499928474426 59.05500030517578
v 0.9524999856948853 0.0 59.05500030517578
v 0.8248891830444336 0.4762499928474426 59.05500030517578
v 0.4762499928474426 0.8248891830444336 59.05500030517578
v 5.832380354195454e-17 0.9524999856948853 59.05500030517578
v -0.4762499928474426 0.8248891830444336 59.05500030517578
v -0.8248891830444336 0.4762499928474426 59.05500030517578
v -0.9524999856948853 -1.1664760708390907e-16 59.05500030517578
v -0.9524999856948853 -1.1664760708390907e-16 60.959999084472656
v -12.699999809265137 -15.875 29.209999084472656
v -12.699999809265137 -14.604999542236328 29.209999084472656
v -15.239999771118164 -14.604999542236328 29.209999084472656
v -15.239999771118164 -15.875 29.209999084472656
v 15.239999771118164 -14.604999542236328 0.0
v 12.699999809265137 -14.604999542236328 0.0
v 12.699999809265137 -14.604999542236328 29.209999084472656
v 15.239999771118164 -14.604999542236328 29.209999084472656
v 15.239999771118164 -14.604999542236328 29.209999084472656
v 12.699999809265137 -14.604999542236328 29.209999084472656
v 12.699999809265137 -15.875 29.209999084472656
v 15.239999771118164 -15.875 29.209999084472656
v -15.239999771118164 -14.604999542236328 0.0
v -15.239999771118164 -15.875 0.0
v -15.239999771118164 -15.875 29.209999084472656
v -15.239999771118164 -14.604999542236328 29.209999084472656
v 12.0649995803833 15.875 56.51499938964844
v 12.0649995803833 15.875 0.6349999904632568
v 12.0649995803833 -15.239999771118164 0.6349999904632568
v 12.0649995803833 -15.239999771118164 56.51499938964844
v -17.145000457763672 -16.510000228881836 57.150001525878906
v 17.145000457763672 -16.510000228881836 57.150001525878906
v 17.145000457763672 -16.510000228881836 59.05500030517578
v -17.145000457763672 -16.510000228881836 59.05500030517578
v 12.699999809265137 -14.604999542236328 29.209999084472656
v 12.699999809265137 -14.604999542236328 0.0
v 12.699999809265137 15.875 0.0
v 12.699999809265137 15.875 57.150001525878906
v 12.699999809265137 -15.875 57.150001525878906
v 12.699999809265137 -15.875 29.209999084472656
v -12.699999809265137 -14.604999542236328 29.209999084472656
v -12.699999809265137 -15.875 29.209999084472656
v -12.699999809265137 -15.875 57.150001525878906
v -12.699999809265137 15.875 57.150001525878906
v -12.699999809265137 15.875 0.0
v -12.699999809265137 -14.604999542236328 0.0
v -12.0649995803833 15.875 56.51499938964844
v 12.0649995803833 15.875 56.51499938964844
v 12.0649995803833 -15.239999771118164 56.51499938964844
v -12.0649995803833 -15.239999771118164 56.51499938964844
v 17.145000457763672 -16.510000228881836 57.150001525878906
v 17.145000457763672 16.510000228881836 57.150001525878906
v 17.145000457763672 16.510000228881836 59.05500030517578
v 17.145000457763672 -16.510000228881836 59.05500030517578
v -2.5399999618530273 -3.11060276733831e-16 62.22999954223633
v -2.4023756980895996 0.8247366547584534 62.22999954223633
v -2.0044169425964355 1.5601003170013428 62.22999954223633
v -1.3892483711242676 2.1264028549194336 62.22999954223633
v -0.6235331296920776 2.4622766971588135 62.22999954223633
v 0.20975153148174286 2.531324625015259 62.22999954223633
v 1.0203063488006592 2.326064348220825 62.22999954223633
v 1.7202951908111572 1.8687387704849243 62.22999954223633
v 2.233863353729248 1.2089064121246338 62.22999954223633
v 2.5053577423095703 0.4180702567100525 62.22999954223633
v 2.5053577423095703 -0.4180702567100525 62.22999954223633
v 2.233863353729248 -1.2089064121246338 62.22999954223633
v 1.7202951908111572 -1.8687387704849243 62.22999954223633
v 1.0203063488006592 -2.326064348220825 62.22999954223633
v 0.20975153148174286 -2.531324625015259 62.22999954223633
v -0.6235331296920776 -2.4622766971588135 62.22999954223633
v -1.3892483711242676 -2.1264028549194336 62.22999954223633
v -2.0044169425964355 -1.5601003170013428 62.22999954223633
v -2.4023756980895996 -0.8247366547584534 62.22999954223633
v -2.5399999618530273 -3.11060276733831e-16 60.959999084472656
v -2.4023756980895996 -0.8247366547584534 60.959999084472656
v -2.0044169425964355 -1.5601003170013428 60.959999084472656
v -1.3892483711242676 -2.1264028549194336 60.959999084472656
v -0.6235331296920776 -2.4622766971588135 60.959999084472656
v 0.20975153148174286 -2.531324625015259 60.959999084472656
v 1.0203063488006592 -2.326064348220825 60.959999084472656
v 1.7202951908111572 -1.8687387704849243 60.959999084472656
v 2.233863353729248 -1.2089064121246338 60.959999084472656
v 2.5053577423095703 -0.4180702567100525 60.959999084472656
v 2.5053577423095703 0.4180702567100525 60.959999084472656
v 2.233863353729248 1.2089064121246338 60.959999084472656
v 1.7202951908111572 1.8687387704849243 60.959999084472656
v 1.0203063488006592 2.326064348220825 60.959999084472656
v 0.20975153148174286 2.531324625015259 60.959999084472656
v -0.6235331296920776 2.4622766971588135 60.959999084472656
v -1.3892483711242676 2.1264028549194336 60.959999084472656
v -2.0044169425964355 1.5601003170013428 60.959999084472656
v -2.4023756980895996 0.8247366547584534 60.959999084472656
v -2.5399999618530273 -3.11060276733831e-16 60.959999084472656
v -2.5399999618530273 -3.11060276733831e-16 62.22999954223633
v -2.5399999618530273 -3.11060276733831e-16 60.959999084472656
v -2.4023756980895996 0.8247366547584534 60.959999084472656
v -2.0044169425964355 1.5601003170013428 60.959999084472656
v -1.3892483711242676 2.1264028549194336 60.959999084472656
v -0.6235331296920776 2.4622766971588135 60.959999084472656
v 0.20975153148174286 2.531324625015259 60.959999084472656
v 1.0203063488006592 2.326064348220825 60.959999084472656
v 1.7202951908111572 1.8687387704849243 60.959999084472656
v 2.233863353729248 1.2089064121246338 60.959999084472656
v 2.5053577423095703 0.4180702567100525 60.959999084472656
v 2.5053577423095703 -0.4180702567100525 60.959999084472656
v 2.233863353729248 -1.2089064121246338 60.959999084472656
v 1.7202951908111572 -1.8687387704849243 60.959999084472656
v 1.0203063488006592 -2.326064348220825 60.959999084472656
v 0.20975153148174286 -2.531324625015259 60.959999084472656
v -0.6235331296920776 -2.4622766971588135 60.959999084472656
v -1.3892483711242676 -2.1264028549194336 60.959999084472656
v -2.0044169425964355 -1.5601003170013428 60.959999084472656
v -2.4023756980895996 -0.8247366547584534 60.959999084472656
v -0.9524999856948853 -1.1664760708390907e-16 60.959999084472656
v -0.8248891830444336 -0.4762499928474426 60.959999084472656
v -0.4762499928474426 -0.8248891830444336 60.959999084472656
v 5.832380354195454e-17 -0.9524999856948853 60.959999084472656
v 0.4762499928474426 -0.8248891830444336 60.959999084472656
v 0.8248891830444336 -0.4762499928474426 60.959999084472656
v 0.9524999856948853 0.0 60.959999084472656
v 0.8248891830444336 0.4762499928474426 60.959999084472656
v 0.4762499928474426 0.8248891830444336 60.959999084472656
v 5.832380354195454e-17 0.9524999856948853 60.959999084472656
v -0.4762499928474426 0.8248891830444336 60.959999084472656
v -0.8248891830444336 0.4762499928474426 60.959999084472656
v 12.0649995803833 15.875 0.6349999904632568
v -12.0649995803833 15.875 0.6349999904632568
v -12.0649995803833 -15.239999771118164 0.6349999904632568
v 12.0649995803833 -15.239999771118164 0.6349999904632568
v -17.145000457763672 16.510000228881836 57.150001525878906
v -17.145000457763672 -16.510000228881836 57.150001525878906
v -17.145000457763672 -16.510000228881836 59.05500030517578
v -17.145000457763672 16.510000228881836 59.05500030517578
vn 1.0 0.0 0.0
vn 1.0 0.0 0.0
vn 1.0 0.0 0.0
vn 1.0 0.0 0.0
vn 0.0 1.0 0.0
vn 0.0 1.0 0.0
vn 0.0 1.0 0.0
vn 0.0 1.0 0.0
vn -0.0 1.0 -0.0
vn -0.0 1.0 -0.0
vn -0.0 1.0 -0.0
vn -0.0 1.0 -0.0
vn -0.0 -0.0 -1.0
vn -0.0 -0.0 -1.0
vn -0.0 -0.0 -1.0
vn -0.0 -0.0 -1.0
vn -0.0 -0.0 -1.0
vn -0.0 -0.0 -1.0
vn -0.0 -0.0 -1.0
vn -0.0 -0.0 -1.0
vn 0.0 1.0 0.0
vn 0.0 1.0 0.0
vn 0.0 1.0 0.0
vn 0.0 1.0 0.0
vn 1.0 -0.0 -6.357755186707894e-17
vn 1.0 -0.0 -6.357755186707894e-17
vn 1.0 -0.0 -6.357755186707894e-17
vn 1.0 -0.0 -6.357755186707894e-17
vn 0.0 0.0 1.0
vn 0.0 0.0 1.0
vn 0.0 0.0 1.0
vn 0.0 0.0 1.0
vn 0.0 0.0 1.0
vn 0.0 0.0 1.0
vn 0.0 0.0 1.0
vn 0.0 0.0 1.0
vn 0.0 0.0 1.0
vn 0.0 0.0 1.0
vn 0.0 0.0 1.0
vn 0.0 0.0 1.0
vn 0.0 0.0 1.0
vn 0.0 0.0 1.0
vn 0.0 0.0 1.0
vn 0.0 0.0 1.0
vn -0.0 0.0 -1.0
vn -0.0 0.0 -1.0
vn -0.0 0.0 -1.0
vn -0.0 0.0 -1.0
vn -0.0 0.0 -1.0
vn -0.0 0.0 -1.0
vn -0.0 0.0 -1.0
vn -0.0 0.0 -1.0
vn 0.0 -1.0 0.0
vn 0.0 -1.0 0.0
vn 0.0 -1.0 0.0
vn 0.0 -1.0 0.0
vn 0.0 -1.0 0.0
vn 0.0 -1.0 0.0
vn 0.0 -1.0 0.0
vn 0.0 -1.0 0.0
vn 0.0 0.0 1.0
vn 0.0 0.0 1.0
vn 0.0 0.0 1.0
vn 0.0 0.0 1.0
vn 0.0 0.0 1.0
vn 0.0 0.0 1.0
vn 0.0 0.0 1.0
vn 0.0 0.0 1.0
vn 0.0 0.0 1.0
vn 0.0 0.0 1.0
vn 0.0 0.0 1.0
vn 0.0 0.0 1.0
vn 0.0 0.0 1.0
vn 0.0 0.0 1.0
vn 0.0 0.0 1.0
vn 0.0 0.0 1.0
vn 0.0 0.0 1.0
vn 0.0 0.0 1.0
vn 0.0 0.0 1.0
vn 0.0 1.0 0.0
vn 0.0 1.0 0.0
vn 0.0 1.0 0.0
vn 0.0 1.0 0.0
vn 0.0 1.0 0.0
vn 0.0 1.0 0.0
vn 0.0 1.0 0.0
vn 0.0 1.0 0.0
vn -1.0 1.2246468525851679e-16 -0.0
vn -0.8660253882408142 0.5 -0.0
vn -0.5 0.8660253882408142 -0.0
vn 6.123234262925839e-17 1.0 -0.0
vn 0.5 0.8660253882408142 -0.0
vn 0.8660253882408142 0.5 -0.0
vn 1.0 -0.0 -0.0
vn 0.8660253882408142 -0.5 -0.0
vn 0.5 -0.8660253882408142 -0.0
vn 6.123234262925839e-17 -1.0 -0.0
vn -0.5 -0.8660253882408142 0.0
vn -0.8660253882408142 -0.5 0.0
vn -1.0 -1.2246468525851679e-16 0.0
vn -0.8660253882408142 -0.5 0.0
vn -0.5 -0.8660253882408142 0.0
vn 6.123234262925839e-17 -1.0 -0.0
vn 0.5 -0.8660253882408142 -0.0
vn 0.8660253882408142 -0.5 -0.0
vn 1.0 -0.0 -0.0
vn 0.8660253882408142 0.5 -0.0
vn 0.5 0.8660253882408142 -0.0
vn 6.123234262925839e-17 1.0 -0.0
vn -0.5 0.8660253882408142 -0.0
vn -0.8660253882408142 0.5 -0.0
vn -1.0 1.2246468525851679e-16 -0.0
vn -1.0 -1.2246468525851679e-16 0.0
vn 0.0 0.0 1.0
vn 0.0 0.0 1.0
vn 0.0 0.0 1.0
vn 0.0 0.0 1.0
vn 0.0 1.0 -0.0
vn 0.0 1.0 -0.0
vn 0.0 1.0 -0.0
vn 0.0 1.0 -0.0
vn 0.0 0.0 1.0
vn 0.0 0.0 1.0
vn 0.0 0.0 1.0
vn 0.0 0.0 1.0
vn -1.0 0.0 0.0
vn -1.0 0.0 0.0
vn -1.0 0.0 0.0
vn -1.0 0.0 0.0
vn -1.0 -0.0 6.357755186707894e-17
vn -1.0 -0.0 6.357755186707894e-17
vn -1.0 -0.0 6.357755186707894e-17
vn -1.0 -0.0 6.357755186707894e-17
vn 0.0 -1.0 0.0
vn 0.0 -1.0 0.0
vn 0.0 -1.0 0.0
vn 0.0 -1.0 0.0
vn 1.0 0.0 -0.0
vn 1.0 0.0 -0.0
vn 1.0 0.0 -0.0
vn 1.0 0.0 -0.0
vn 1.0 0.0 -0.0
vn 1.0 0.0 -0.0
vn -1.0 0.0 0.0
vn -1.0 0.0 0.0
vn -1.0 0.0 0.0
vn -1.0 0.0 0.0
vn -1.0 0.0 0.0
vn -1.0 0.0 0.0
vn 0.0 -0.0 -1.0
vn 0.0 -0.0 -1.0
vn 0.0 -0.0 -1.0
vn 0.0 -0.0 -1.0
vn 1.0 -2.151855703461824e-16 0.0
vn 1.0 -2.151855703461824e-16 0.0
vn 1.0 -2.151855703461824e-16 0.0
vn 1.0 -2.151855703461824e-16 0.0
vn -1.0 1.2246468525851679e-16 -0.0
vn -0.945817232131958 0.3246994614601135 -0.0
vn -0.789140522480011 0.614212691783905 -0.0
vn -0.5469481348991394 0.8371664881706238 -0.0
vn -0.24548548460006714 0.9694002866744995 -0.0
vn 0.0825793445110321 0.9965844750404358 -0.0
vn 0.4016954302787781 0.915773332118988 -0.0
vn 0.6772815585136414 0.7357239127159119 -0.0
vn 0.8794737458229065 0.47594738006591797 -0.0
vn 0.9863613247871399 0.1645945906639099 -0.0
vn 0.9863613247871399 -0.1645945906639099 -0.0
vn 0.8794737458229065 -0.47594738006591797 -0.0
vn 0.6772815585136414 -0.7357239127159119 -0.0
vn 0.4016954302787781 -0.915773332118988 -0.0
vn 0.0825793445110321 -0.9965844750404358 -0.0
vn -0.24548548460006714 -0.9694002866744995 0.0
vn -0.5469481348991394 -0.8371664881706238 0.0
vn -0.789140522480011 -0.614212691783905 0.0
vn -0.945817232131958 -0.3246994614601135 0.0
vn -1.0 -1.2246468525851679e-16 0.0
vn -0.945817232131958 -0.3246994614601135 0.0
vn -0.789140522480011 -0.614212691783905 0.0
vn -0.5469481348991394 -0.8371664881706238 0.0
vn -0.24548548460006714 -0.9694002866744995 0.0
vn 0.0825793445110321 -0.9965844750404358 -0.0
vn 0.4016954302787781 -0.915773332118988 -0.0
vn 0.6772815585136414 -0.7357239127159119 -0.0
vn 0.8794737458229065 -0.47594738006591797 -0.0
vn 0.9863613247871399 -0.1645945906639099 -0.0
vn 0.9863613247871399 0.1645945906639099 -0.0
vn 0.8794737458229065 0.47594738006591797 -0.0
vn 0.6772815585136414 0.7357239127159119 -0.0
vn 0.4016954302787781 0.915773332118988 -0.0
vn 0.0825793445110321 0.9965844750404358 -0.0
vn -0.24548548460006714 0.9694002866744995 -0.0
vn -0.5469481348991394 0.8371664881706238 -0.0
vn -0.789140522480011 0.614212691783905 -0.0
vn -0.945817232131958 0.3246994614601135 -0.0
vn -1.0 1.2246468525851679e-16 -0.0
vn -1.0 -1.2246468525851679e-16 0.0
vn -0.0 -0.0 -1.0
vn -0.0 -0.0 -1.0
vn -0.0 -0.0 -1.0
vn -0.0 -0.0 -1.0
vn -0.0 -0.0 -1.0
vn -0.0 -0.0 -1.0
vn -0.0 -0.0 -1.0
vn -0.0 -0.0 -1.0
vn -0.0 -0.0 -1.0
vn -0.0 -0.0 -1.0
vn -0.0 -0.0 -1.0
vn -0.0 -0.0 -1.0
vn -0.0 -0.0 -1.0
vn -0.0 -0.0 -1.0
vn -0.0 -0.0 -1.0
vn -0.0 -0.0 -1.0
vn -0.0 -0.0 -1.0
vn -0.0 -0.0 -1.0
vn -0.0 -0.0 -1.0
vn -0.0 -0.0 -1.0
vn -0.0 -0.0 -1.0
vn -0.0 -0.0 -1.0
vn -0.0 -0.0 -1.0
vn -0.0 -0.0 -1.0
vn -0.0 -0.0 -1.0
vn -0.0 -0.0 -1.0
vn -0.0 -0.0 -1.0
vn -0.0 -0.0 -1.0
vn -0.0 -0.0 -1.0
vn -0.0 -0.0 -1.0
vn -0.0 -0.0 -1.0
vn 8.281813025708698e-17 0.0 1.0
vn 8.281813025708698e-17 0.0 1.0
vn 8.281813025708698e-17 0.0 1.0
vn 8.281813025708698e-17 0.0 1.0
vn -1.0 2.151855703461824e-16 0.0
vn -1.0 2.151855703461824e-16 0.0
vn -1.0 2.151855703461824e-16 0.0
vn -1.0 2.151855703461824e-16 0.0
f 1//1 2//2 4//4
f 4//4 2//2 3//3
f 5//5 6//6 8//8
f 8//8 6//6 7//7
f 9//9 10//10 12//12
f 12//12 10//10 11//11
f 16//16 13//13 19//19
f 19//19 13//13 14//14
f 19//19 14//14 18//18
f 18//18 14//14 15//15
f 18//18 15//15 17//17
f 17//17 15//15 16//16
f 17//17 16//16 20//20
f 20//20 16//16 19//19
f 21//21 22//22 24//24
f 24//24 22//22 23//23
f 25//25 26//26 28//28
f 28//28 26//26 27//27
f 30//30 42//42 29//29
f 29//29 42//42 43//43
f 29//29 43//43 40//40
f 40//40 43//43 39//39
f 39//39 43//43 38//38
f 38//38 43//43 44//44
f 38//38 44//44 37//37
f 37//37 44//44 36//36
f 36//36 44//44 35//35
f 35//35 44//44 41//41
f 35//35 41//41 34//34
f 34//34 41//41 33//33
f 33//33 41//41 32//32
f 32//32 41//41 42//42
f 32//32 42//42 31//31
f 31//31 42//42 30//30
f 45//45 46//46 52//52
f 52//52 46//46 47//47
f 52//52 47//47 50//50
f 50//50 47//47 49//49
f 49//49 47//47 48//48
f 50//50 51//51 52//52
f 60//60 53//53 59//59
f 59//59 53//53 54//54
f 59//59 54//54 56//56
f 56//56 54//54 55//55
f 57//57 58//58 56//56
f 56//56 58//58 59//59
f 61//61 62//62 79//79
f 79//79 62//62 78//78
f 78//78 62//62 63//63
f 78//78 63//63 77//77
f 77//77 63//63 64//64
f 77//77 64//64 76//76
f 76//76 64//64 65//65
f 76//76 65//65 75//75
f 75//75 65//65 66//66
f 75//75 66//66 74//74
f 74//74 66//66 73//73
f 73//73 66//66 72//72
f 72//72 66//66 71//71
f 71//71 66//66 70//70
f 70//70 66//66 69//69
f 69//69 66//66 68//68
f 68//68 66//66 67//67
f 81//81 87//87 80//80
f 80//80 87//87 84//84
f 80//80 84//84 83//83
f 83//83 84//84 85//85
f 83//83 85//85 82//82
f 82//82 85//85 81//81
f 81//81 85//85 86//86
f 81//81 86//86 87//87
f 89//89 111//111 88//88
f 88//88 111//111 112//112
f 113//113 100//100 99//99
f 99//99 100//100 101//101
f 99//99 101//101 102//102
f 89//89 90//90 111//111
f 111//111 90//90 110//110
f 110//110 90//90 91//91
f 110//110 91//91 109//109
f 109//109 91//91 92//92
f 109//109 92//92 108//108
f 108//108 92//92 93//93
f 108//108 93//93 107//107
f 107//107 93//93 94//94
f 107//107 94//94 106//106
f 106//106 94//94 95//95
f 106//106 95//95 105//105
f 105//105 95//95 96//96
f 105//105 96//96 104//104
f 104//104 96//96 97//97
f 104//104 97//97 103//103
f 103//103 97//97 98//98
f 103//103 98//98 102//102
f 102//102 98//98 99//99
f 115//115 116//116 114//114
f 114//114 116//116 117//117
f 118//118 119//119 121//121
f 121//121 119//119 120//120
f 122//122 123//123 125//125
f 125//125 123//123 124//124
f 126//126 127//127 129//129
f 129//129 127//127 128//128
f 130//130 131//131 133//133
f 133//133 131//131 132//132
f 134//134 135//135 137//137
f 137//137 135//135 136//136
f 139//139 140//140 138//138
f 138//138 140//140 141//141
f 138//138 141//141 142//142
f 142//142 143//143 138//138
f 145//145 146//146 144//144
f 144//144 146//146 147//147
f 144//144 147//147 148//148
f 148//148 149//149 144//144
f 150//150 151//151 153//153
f 153//153 151//151 152//152
f 154//154 155//155 157//157
f 157//157 155//155 156//156
f 159//159 195//195 158//158
f 158//158 195//195 196//196
f 197//197 177//177 176//176
f 176//176 177//177 178//178
f 176//176 178//178 179//179
f 159//159 160//160 195//195
f 195//195 160//160 194//194
f 194//194 160//160 161//161
f 194//194 161//161 193//193
f 193//193 161//161 162//162
f 193//193 162//162 192//192
f 192//192 162//162 163//163
f 192//192 163//163 191//191
f 191//191 163//163 164//164
f 191//191 164//164 190//190
f 190//190 164//164 165//165
f 190//190 165//165 189//189
f 189//189 165//165 166//166
f 189//189 166//166 188//188
f 188//188 166//166 167//167
f 188//188 167//167 187//187
f 187//187 167//167 168//168
f 187//187 168//168 186//186
f 186//186 168//168 169//169
f 186//186 169//169 185//185
f 185//185 169//169 170//170
f 185//185 170//170 184//184
f 184//184 170//170 171//171
f 184//184 171//171 183//183
f 183//183 171//171 172//172
f 183//183 172//172 182//182
f 182//182 172//172 173//173
f 182//182 173//173 181//181
f 181//181 173//173 174//174
f 181//181 174//174 180//180
f 180//180 174//174 175//175
f 180//180 175//175 179//179
f 179//179 175//175 176//176
f 216//216 198//198 217//217
f 217//217 198//198 199//199
f 217//217 199//199 228//228
f 228//228 199//199 200//200
f 228//228 200//200 227//227
f 227//227 200//200 201//201
f 227//227 201//201 202//202
f 227//227 202//202 226//226
f 226//226 202//202 203//203
f 226//226 203//203 204//204
f 226//226 204//204 225//225
f 225//225 204//204 205//205
f 225//225 205//205 224//224
f 224//224 205//205 206//206
f 224//224 206//206 207//207
f 224//224 207//207 223//223
f 223//223 207//207 208//208
f 223//223 208//208 222//222
f 222//222 208//208 209//209
f 222//222 209//209 210//210
f 222//222 210//210 221//221
f 221//221 210//210 211//211
f 221//221 211//211 220//220
f 220//220 211//211 212//212
f 220//220 212//212 213//213
f 220//220 213//213 219//219
f 219//219 213//213 214//214
f 219//219 214//214 215//215
f 219//219 215//215 218//218
f 218//218 215//215 216//216
f 218//218 216//216 217//217
f 229//229 230//230 232//232
f 232//232 230//230 231//231
f 233//233 234//234 236//236
f 236//236 234//234 235//235

# End of file