# WaveFront *.obj file
# Vertices: 156
# Triangles : 152

v 3.998663902282715 2.4460198879241943 5.107439041137695
v 4.0029520988464355 2.4460198879241943 5.130378246307373
v 4.015236854553223 2.4460198879241943 5.150218963623047
v 4.033859729766846 2.4460198879241943 5.164282321929932
v 4.056304931640625 2.4460198879241943 5.170668125152588
v 4.0795416831970215 2.4460198879241943 5.168515205383301
v 4.100431442260742 2.4460198879241943 5.158113479614258
v 4.116152763366699 2.4460198879241943 5.140867710113525
v 4.124582767486572 2.4460198879241943 5.119107246398926
v 4.124582767486572 2.4460198879241943 5.095771312713623
v 4.116152763366699 2.4460198879241943 5.074010848999023
v 4.100431442260742 2.4460198879241943 5.056765079498291
v 4.0795416831970215 2.4460198879241943 5.046363353729248
v 4.056304931640625 2.4460198879241943 5.044209957122803
v 4.033859729766846 2.4460198879241943 5.050596237182617
v 4.015236854553223 2.4460198879241943 5.064659595489502
v 4.0029520988464355 2.4460198879241943 5.084500312805176
v 3.998663902282715 0.0 5.107439041137695
v 4.0029520988464355 0.0 5.084500312805176
v 4.015236854553223 0.0 5.064659595489502
v 4.033859729766846 0.0 5.050596237182617
v 4.056304931640625 0.0 5.044209957122803
v 4.0795416831970215 0.0 5.046363353729248
v 4.100431442260742 0.0 5.056765079498291
v 4.116152763366699 0.0 5.074010848999023
v 4.124582767486572 0.0 5.095771312713623
v 4.124582767486572 0.0 5.119107246398926
v 4.116152763366699 0.0 5.140867710113525
v 4.100431442260742 0.0 5.158113479614258
v 4.0795416831970215 0.0 5.168515205383301
v 4.056304931640625 0.0 5.170668125152588
v 4.033859729766846 0.0 5.164282321929932
v 4.015236854553223 0.0 5.150218963623047
v 4.0029520988464355 0.0 5.130378246307373
v 3.998663902282715 2.4460198879241943 5.107439041137695
v 3.998663902282715 0.0 5.107439041137695
v 3.960563898086548 2.4460198879241943 5.107439041137695
v 3.9650778770446777 2.4460198879241943 5.0774922370910645
v 3.9782180786132812 2.4460198879241943 5.050205707550049
v 3.9988174438476562 2.4460198879241943 5.028005123138428
v 4.025045394897461 2.4460198879241943 5.012862205505371
v 4.054571628570557 2.4460198879241943 5.0061235427856445
v 4.084772109985352 2.4460198879241943 5.008386611938477
v 4.112964153289795 2.4460198879241943 5.019451141357422
v 4.136641979217529 2.4460198879241943 5.038333892822266
v 4.153702259063721 2.4460198879241943 5.063356399536133
v 4.162629127502441 2.4460198879241943 5.092296600341797
v 4.162629127502441 2.4460198879241943 5.122581958770752
v 4.153702259063721 2.4460198879241943 5.151521682739258
v 4.136641979217529 2.4460198879241943 5.176544666290283
v 4.112964153289795 2.4460198879241943 5.195427417755127
v 4.084772109985352 2.4460198879241943 5.206491947174072
v 4.054571628570557 2.4460198879241943 5.208755016326904
v 4.025045394897461 2.4460198879241943 5.2020158767700195
v 3.9988174438476562 2.4460198879241943 5.186873435974121
v 3.9782180786132812 2.4460198879241943 5.164672374725342
v 3.9650778770446777 2.4460198879241943 5.137386322021484
v 3.960563898086548 0.0 5.107439041137695
v 3.9650778770446777 0.0 5.137386322021484
v 3.9782180786132812 0.0 5.164672374725342
v 3.9988174438476562 0.0 5.186873435974121
v 4.025045394897461 0.0 5.2020158767700195
v 4.054571628570557 0.0 5.208755016326904
v 4.084772109985352 0.0 5.206491947174072
v 4.112964153289795 0.0 5.195427417755127
v 4.136641979217529 0.0 5.176544666290283
v 4.153702259063721 0.0 5.151521682739258
v 4.162629127502441 0.0 5.122581958770752
v 4.162629127502441 0.0 5.092296600341797
v 4.153702259063721 0.0 5.063356399536133
v 4.136641979217529 0.0 5.038333892822266
v 4.112964153289795 0.0 5.019451141357422
v 4.084772109985352 0.0 5.008386611938477
v 4.054571628570557 0.0 5.0061235427856445
v 4.025045394897461 0.0 5.012862205505371
v 3.9988174438476562 0.0 5.028005123138428
v 3.9782180786132812 0.0 5.050205707550049
v 3.9650778770446777 0.0 5.0774922370910645
v 3.960563898086548 0.0 5.107439041137695
v 3.960563898086548 2.4460198879241943 5.107439041137695
v 3.998663902282715 2.4460198879241943 5.107439041137695
v 4.0029520988464355 2.4460198879241943 5.084500312805176
v 4.015236854553223 2.4460198879241943 5.064659595489502
v 4.033859729766846 2.4460198879241943 5.050596237182617
v 4.056304931640625 2.4460198879241943 5.044209957122803
v 4.0795416831970215 2.4460198879241943 5.046363353729248
v 4.100431442260742 2.4460198879241943 5.056765079498291
v 4.116152763366699 2.4460198879241943 5.074010848999023
v 4.124582767486572 2.4460198879241943 5.095771312713623
v 4.124582767486572 2.4460198879241943 5.119107246398926
v 4.116152763366699 2.4460198879241943 5.140867710113525
v 4.100431442260742 2.4460198879241943 5.158113479614258
v 4.0795416831970215 2.4460198879241943 5.168515205383301
v 4.056304931640625 2.4460198879241943 5.170668125152588
v 4.033859729766846 2.4460198879241943 5.164282321929932
v 4.015236854553223 2.4460198879241943 5.150218963623047
v 4.0029520988464355 2.4460198879241943 5.130378246307373
v 3.960563898086548 2.4460198879241943 5.107439041137695
v 3.9650778770446777 2.4460198879241943 5.137386322021484
v 3.9782180786132812 2.4460198879241943 5.164672374725342
v 3.9988174438476562 2.4460198879241943 5.186873435974121
v 4.025045394897461 2.4460198879241943 5.2020158767700195
v 4.054571628570557 2.4460198879241943 5.208755016326904
v 4.084772109985352 2.4460198879241943 5.206491947174072
v 4.112964153289795 2.4460198879241943 5.195427417755127
v 4.136641979217529 2.4460198879241943 5.176544666290283
v 4.153702259063721 2.4460198879241943 5.151521682739258
v 4.162629127502441 2.4460198879241943 5.122581958770752
v 4.162629127502441 2.4460198879241943 5.092296600341797
v 4.153702259063721 2.4460198879241943 5.063356399536133
v 4.136641979217529 2.4460198879241943 5.038333892822266
v 4.112964153289795 2.4460198879241943 5.019451141357422
v 4.084772109985352 2.4460198879241943 5.008386611938477
v 4.054571628570557 2.4460198879241943 5.0061235427856445
v 4.025045394897461 2.4460198879241943 5.012862205505371
v 3.9988174438476562 2.4460198879241943 5.028005123138428
v 3.9782180786132812 2.4460198879241943 5.050205707550049
v 3.9650778770446777 2.4460198879241943 5.0774922370910645
v 3.998663902282715 0.0 5.107439041137695
v 4.0029520988464355 0.0 5.130378246307373
v 4.015236854553223 0.0 5.150218963623047
v 4.033859729766846 0.0 5.164282321929932
v 4.056304931640625 0.0 5.170668125152588
v 4.0795416831970215 0.0 5.168515205383301
v 4.100431442260742 0.0 5.158113479614258
v 4.116152763366699 0.0 5.140867710113525
v 4.124582767486572 0.0 5.119107246398926
v 4.124582767486572 0.0 5.095771312713623
v 4.116152763366699 0.0 5.074010848999023
v 4.100431442260742 0.0 5.056765079498291
v 4.0795416831970215 0.0 5.046363353729248
v 4.056304931640625 0.0 5.044209957122803
v 4.033859729766846 0.0 5.050596237182617
v 4.015236854553223 0.0 5.064659595489502
v 4.0029520988464355 0.0 5.084500312805176
v 3.960563898086548 0.0 5.107439041137695
v 3.9650778770446777 0.0 5.0774922370910645
v 3.9782180786132812 0.0 5.050205707550049
v 3.9988174438476562 0.0 5.028005123138428
v 4.025045394897461 0.0 5.012862205505371
v 4.054571628570557 0.0 5.0061235427856445
v 4.084772109985352 0.0 5.008386611938477
v 4.112964153289795 0.0 5.019451141357422
v 4.136641979217529 0.0 5.038333892822266
v 4.153702259063721 0.0 5.063356399536133
v 4.162629127502441 0.0 5.092296600341797
v 4.162629127502441 0.0 5.122581958770752
v 4.153702259063721 0.0 5.151521682739258
v 4.136641979217529 0.0 5.176544666290283
v 4.112964153289795 0.0 5.195427417755127
v 4.084772109985352 0.0 5.206491947174072
v 4.054571628570557 0.0 5.208755016326904
v 4.025045394897461 0.0 5.2020158767700195
v 3.9988174438476562 0.0 5.186873435974121
v 3.9782180786132812 0.0 5.164672374725342
v 3.9650778770446777 0.0 5.137386322021484
vn 1.0 0.0 -1.2246468525851679e-16
vn 0.9324722290039062 0.0 -0.3612416684627533
vn 0.739008903503418 0.0 -0.6736956238746643
vn 0.4457383453845978 0.0 -0.8951632976531982
vn 0.09226836264133453 0.0 -0.9957341551780701
vn -0.2736629843711853 0.0 -0.9618256688117981
vn -0.602634608745575 0.0 -0.7980172038078308
vn -0.8502171635627747 0.0 -0.5264321565628052
vn -0.9829730987548828 0.0 -0.1837495118379593
vn -0.9829730987548828 0.0 0.1837495118379593
vn -0.8502171635627747 0.0 0.5264321565628052
vn -0.602634608745575 0.0 0.7980172038078308
vn -0.2736629843711853 0.0 0.9618256688117981
vn 0.09226836264133453 -0.0 0.9957341551780701
vn 0.4457383453845978 -0.0 0.8951632976531982
vn 0.739008903503418 -0.0 0.6736956238746643
vn 0.9324722290039062 -0.0 0.3612416684627533
vn 1.0 -0.0 1.2246468525851679e-16
vn 0.9324722290039062 -0.0 0.3612416684627533
vn 0.739008903503418 -0.0 0.6736956238746643
vn 0.4457383453845978 -0.0 0.8951632976531982
vn 0.09226836264133453 -0.0 0.9957341551780701
vn -0.2736629843711853 0.0 0.9618256688117981
vn -0.602634608745575 0.0 0.7980172038078308
vn -0.8502171635627747 0.0 0.5264321565628052
vn -0.9829730987548828 0.0 0.1837495118379593
vn -0.9829730987548828 0.0 -0.1837495118379593
vn -0.8502171635627747 0.0 -0.5264321565628052
vn -0.602634608745575 0.0 -0.7980172038078308
vn -0.2736629843711853 0.0 -0.9618256688117981
vn 0.09226836264133453 0.0 -0.9957341551780701
vn 0.4457383453845978 0.0 -0.8951632976531982
vn 0.739008903503418 0.0 -0.6736956238746643
vn 0.9324722290039062 0.0 -0.3612416684627533
vn 1.0 -0.0 1.2246468525851679e-16
vn 1.0 0.0 -1.2246468525851679e-16
vn -1.0 0.0 -1.2246468525851679e-16
vn -0.955572783946991 0.0 -0.29475516080856323
vn -0.826238751411438 0.0 -0.5633200407028198
vn -0.6234897971153259 0.0 -0.7818315029144287
vn -0.36534103751182556 0.0 -0.9308737516403198
vn -0.07473009079694748 0.0 -0.9972038269042969
vn 0.22252093255519867 -0.0 -0.9749279022216797
vn 0.5 -0.0 -0.8660253882408142
vn 0.7330518960952759 -0.0 -0.6801727414131165
vn 0.9009688496589661 -0.0 -0.4338837265968323
vn 0.9888308048248291 -0.0 -0.1490422636270523
vn 0.9888308048248291 -0.0 0.1490422636270523
vn 0.9009688496589661 -0.0 0.4338837265968323
vn 0.7330518960952759 -0.0 0.6801727414131165
vn 0.5 -0.0 0.8660253882408142
vn 0.22252093255519867 -0.0 0.9749279022216797
vn -0.07473009079694748 -0.0 0.9972038269042969
vn -0.36534103751182556 -0.0 0.9308737516403198
vn -0.6234897971153259 -0.0 0.7818315029144287
vn -0.826238751411438 -0.0 0.5633200407028198
vn -0.955572783946991 -0.0 0.29475516080856323
vn -1.0 -0.0 1.2246468525851679e-16
vn -0.955572783946991 -0.0 0.29475516080856323
vn -0.826238751411438 -0.0 0.5633200407028198
vn -0.6234897971153259 -0.0 0.7818315029144287
vn -0.36534103751182556 -0.0 0.9308737516403198
vn -0.07473009079694748 -0.0 0.9972038269042969
vn 0.22252093255519867 -0.0 0.9749279022216797
vn 0.5 -0.0 0.8660253882408142
vn 0.7330518960952759 -0.0 0.6801727414131165
vn 0.9009688496589661 -0.0 0.4338837265968323
vn 0.9888308048248291 -0.0 0.1490422636270523
vn 0.9888308048248291 -0.0 -0.1490422636270523
vn 0.9009688496589661 -0.0 -0.4338837265968323
vn 0.7330518960952759 -0.0 -0.6801727414131165
vn 0.5 -0.0 -0.8660253882408142
vn 0.22252093255519867 -0.0 -0.9749279022216797
vn -0.07473009079694748 0.0 -0.9972038269042969
vn -0.36534103751182556 0.0 -0.9308737516403198
vn -0.6234897971153259 0.0 -0.7818315029144287
vn -0.826238751411438 0.0 -0.5633200407028198
vn -0.955572783946991 0.0 -0.29475516080856323
vn -1.0 0.0 -1.2246468525851679e-16
vn -1.0 -0.0 1.2246468525851679e-16
vn 0.0 1.0 0.0
vn 0.0 1.0 0.0
vn 0.0 1.0 0.0
vn 0.0 1.0 0.0
vn 0.0 1.0 0.0
vn 0.0 1.0 0.0
vn 0.0 1.0 0.0
vn 0.0 1.0 0.0
vn 0.0 1.0 0.0
vn 0.0 1.0 0.0
vn 0.0 1.0 0.0
vn 0.0 1.0 0.0
vn 0.0 1.0 0.0
vn 0.0 1.0 0.0
vn 0.0 1.0 0.0
vn 0.0 1.0 0.0
vn 0.0 1.0 0.0
vn 0.0 1.0 0.0
vn 0.0 1.0 0.0
vn 0.0 1.0 0.0
vn 0.0 1.0 0.0
vn 0.0 1.0 0.0
vn 0.0 1.0 0.0
vn 0.0 1.0 0.0
vn 0.0 1.0 0.0
vn 0.0 1.0 0.0
vn 0.0 1.0 0.0
vn 0.0 1.0 0.0
vn 0.0 1.0 0.0
vn 0.0 1.0 0.0
vn 0.0 1.0 0.0
vn 0.0 1.0 0.0
vn 0.0 1.0 0.0
vn 0.0 1.0 0.0
vn 0.0 1.0 0.0
vn 0.0 1.0 0.0
vn 0.0 1.0 0.0
vn 0.0 1.0 0.0
vn -0.0 -1.0 -0.0
vn -0.0 -1.0 -0.0
vn -0.0 -1.0 -0.0
vn -0.0 -1.0 -0.0
vn -0.0 -1.0 -0.0
vn -0.0 -1.0 -0.0
vn -0.0 -1.0 -0.0
vn -0.0 -1.0 -0.0
vn -0.0 -1.0 -0.0
vn -0.0 -1.0 -0.0
vn -0.0 -1.0 -0.0
vn -0.0 -1.0 -0.0
vn -0.0 -1.0 -0.0
vn -0.0 -1.0 -0.0
vn -0.0 -1.0 -0.0
vn -0.0 -1.0 -0.0
vn -0.0 -1.0 -0.0
vn -0.0 -1.0 -0.0
vn -0.0 -1.0 -0.0
vn -0.0 -1.0 -0.0
vn -0.0 -1.0 -0.0
vn -0.0 -1.0 -0.0
vn -0.0 -1.0 -0.0
vn -0.0 -1.0 -0.0
vn -0.0 -1.0 -0.0
vn -0.0 -1.0 -0.0
vn -0.0 -1.0 -0.0
vn -0.0 -1.0 -0.0
vn -0.0 -1.0 -0.0
vn -0.0 -1.0 -0.0
vn -0.0 -1.0 -0.0
vn -0.0 -1.0 -0.0
vn -0.0 -1.0 -0.0
vn -0.0 -1.0 -0.0
vn -0.0 -1.0 -0.0
vn -0.0 -1.0 -0.0
vn -0.0 -1.0 -0.0
vn -0.0 -1.0 -0.0
g c414c838-e2b0-11ea-b962-54bf646e7e1f
f 2//2 34//34 1//1
f 1//1 34//34 36//36
f 35//35 18//18 17//17
f 17//17 18//18 19//19
f 17//17 19//19 16//16
f 16//16 19//19 20//20
f 16//16 20//20 15//15
f 15//15 20//20 21//21
f 15//15 21//21 14//14
f 14//14 21//21 22//22
f 14//14 22//22 13//13
f 13//13 22//22 23//23
f 13//13 23//23 12//12
f 12//12 23//23 24//24
f 12//12 24//24 11//11
f 11//11 24//24 25//25
f 11//11 25//25 10//10
f 10//10 25//25 26//26
f 10//10 26//26 9//9
f 9//9 26//26 27//27
f 9//9 27//27 8//8
f 8//8 27//27 28//28
f 8//8 28//28 7//7
f 7//7 28//28 29//29
f 7//7 29//29 6//6
f 6//6 29//29 30//30
f 6//6 30//30 5//5
f 5//5 30//30 31//31
f 5//5 31//31 4//4
f 4//4 31//31 32//32
f 4//4 32//32 3//3
f 3//3 32//32 33//33
f 3//3 33//33 2//2
f 2//2 33//33 34//34
g c4151652-e2b0-11ea-b1c7-54bf646e7e1f
f 38//38 78//78 37//37
f 37//37 78//78 79//79
f 80//80 58//58 57//57
f 57//57 58//58 59//59
f 57//57 59//59 56//56
f 56//56 59//59 60//60
f 56//56 60//60 55//55
f 55//55 60//60 61//61
f 55//55 61//61 54//54
f 54//54 61//61 62//62
f 54//54 62//62 53//53
f 53//53 62//62 63//63
f 53//53 63//63 52//52
f 52//52 63//63 64//64
f 52//52 64//64 51//51
f 51//51 64//64 65//65
f 51//51 65//65 50//50
f 50//50 65//65 66//66
f 50//50 66//66 49//49
f 49//49 66//66 67//67
f 49//49 67//67 48//48
f 48//48 67//67 68//68
f 48//48 68//68 47//47
f 47//47 68//68 69//69
f 47//47 69//69 46//46
f 46//46 69//69 70//70
f 46//46 70//70 45//45
f 45//45 70//70 71//71
f 45//45 71//71 44//44
f 44//44 71//71 72//72
f 44//44 72//72 43//43
f 43//43 72//72 73//73
f 43//43 73//73 42//42
f 42//42 73//73 74//74
f 42//42 74//74 41//41
f 41//41 74//74 75//75
f 41//41 75//75 40//40
f 40//40 75//75 76//76
f 40//40 76//76 39//39
f 39//39 76//76 77//77
f 39//39 77//77 38//38
f 38//38 77//77 78//78
g c415646c-e2b0-11ea-9484-54bf646e7e1f
f 82//82 118//118 81//81
f 81//81 118//118 98//98
f 81//81 98//98 99//99
f 118//118 82//82 117//117
f 117//117 82//82 83//83
f 117//117 83//83 116//116
f 116//116 83//83 84//84
f 116//116 84//84 115//115
f 115//115 84//84 85//85
f 115//115 85//85 114//114
f 114//114 85//85 113//113
f 113//113 85//85 86//86
f 113//113 86//86 112//112
f 112//112 86//86 87//87
f 112//112 87//87 111//111
f 111//111 87//87 88//88
f 111//111 88//88 110//110
f 110//110 88//88 89//89
f 110//110 89//89 109//109
f 109//109 89//89 108//108
f 108//108 89//89 90//90
f 108//108 90//90 107//107
f 107//107 90//90 91//91
f 107//107 91//91 106//106
f 106//106 91//91 92//92
f 106//106 92//92 105//105
f 105//105 92//92 93//93
f 105//105 93//93 104//104
f 104//104 93//93 94//94
f 104//104 94//94 103//103
f 103//103 94//94 102//102
f 102//102 94//94 95//95
f 102//102 95//95 101//101
f 101//101 95//95 96//96
f 101//101 96//96 100//100
f 100//100 96//96 97//97
f 100//100 97//97 99//99
f 99//99 97//97 81//81
g c415d998-e2b0-11ea-841f-54bf646e7e1f
f 120//120 156//156 119//119
f 119//119 156//156 136//136
f 119//119 136//136 137//137
f 156//156 120//120 155//155
f 155//155 120//120 121//121
f 155//155 121//121 154//154
f 154//154 121//121 122//122
f 154//154 122//122 153//153
f 153//153 122//122 123//123
f 153//153 123//123 152//152
f 152//152 123//123 151//151
f 151//151 123//123 124//124
f 151//151 124//124 150//150
f 150//150 124//124 125//125
f 150//150 125//125 149//149
f 149//149 125//125 126//126
f 149//149 126//126 148//148
f 148//148 126//126 127//127
f 148//148 127//127 147//147
f 147//147 127//127 128//128
f 147//147 128//128 146//146
f 146//146 128//128 145//145
f 145//145 128//128 129//129
f 145//145 129//129 144//144
f 144//144 129//129 130//130
f 144//144 130//130 143//143
f 143//143 130//130 131//131
f 143//143 131//131 142//142
f 142//142 131//131 132//132
f 142//142 132//132 141//141
f 141//141 132//132 140//140
f 140//140 132//132 133//133
f 140//140 133//133 139//139
f 139//139 133//133 134//134
f 139//139 134//134 138//138
f 138//138 134//134 135//135
f 138//138 135//135 137//137
f 137//137 135//135 119//119

# End of file