# WaveFront *.obj file
# Vertices: 114
# Triangles : 104

v 3.492500066757202 4.572000026702881 1.2699999809265137
v 3.5053610801696777 4.482550144195557 1.2699999809265137
v 3.5429019927978516 4.400346755981445 1.2699999809265137
v 3.602081775665283 4.332049369812012 1.2699999809265137
v 3.6781058311462402 4.283191680908203 1.2699999809265137
v 3.764815092086792 4.257731914520264 1.2699999809265137
v 3.855185031890869 4.257731914520264 1.2699999809265137
v 3.941894292831421 4.283191680908203 1.2699999809265137
v 4.017918109893799 4.332049369812012 1.2699999809265137
v 4.0770978927612305 4.400346755981445 1.2699999809265137
v 4.114638805389404 4.482550144195557 1.2699999809265137
v 4.127500057220459 4.572000026702881 1.2699999809265137
v 4.114638805389404 4.661449909210205 1.2699999809265137
v 4.0770978927612305 4.743653297424316 1.2699999809265137
v 4.017918109893799 4.81195068359375 1.2699999809265137
v 3.941894292831421 4.860808372497559 1.2699999809265137
v 3.855185031890869 4.886268138885498 1.2699999809265137
v 3.764815092086792 4.886268138885498 1.2699999809265137
v 3.6781058311462402 4.860808372497559 1.2699999809265137
v 3.602081775665283 4.81195068359375 1.2699999809265137
v 3.5429019927978516 4.743653297424316 1.2699999809265137
v 3.5053610801696777 4.661449909210205 1.2699999809265137
v 3.492500066757202 4.572000026702881 0.0
v 3.5053610801696777 4.661449909210205 0.0
v 3.5429019927978516 4.743653297424316 0.0
v 3.602081775665283 4.81195068359375 0.0
v 3.6781058311462402 4.860808372497559 0.0
v 3.764815092086792 4.886268138885498 0.0
v 3.855185031890869 4.886268138885498 0.0
v 3.941894292831421 4.860808372497559 0.0
v 4.017918109893799 4.81195068359375 0.0
v 4.0770978927612305 4.743653297424316 0.0
v 4.114638805389404 4.661449909210205 0.0
v 4.127500057220459 4.572000026702881 0.0
v 4.114638805389404 4.482550144195557 0.0
v 4.0770978927612305 4.400346755981445 0.0
v 4.017918109893799 4.332049369812012 0.0
v 3.941894292831421 4.283191680908203 0.0
v 3.855185031890869 4.257731914520264 0.0
v 3.764815092086792 4.257731914520264 0.0
v 3.6781058311462402 4.283191680908203 0.0
v 3.602081775665283 4.332049369812012 0.0
v 3.5429019927978516 4.400346755981445 0.0
v 3.5053610801696777 4.482550144195557 0.0
v 3.492500066757202 4.572000026702881 1.2699999809265137
v 3.492500066757202 4.572000026702881 0.0
v 0.0 0.0 0.0
v 4.445000171661377 4.445000171661377 0.0
v 4.445000171661377 4.445000171661377 1.2699999809265137
v 0.0 0.0 1.2699999809265137
v 0.0 5.079999923706055 0.0
v 0.0 0.0 0.0
v 0.0 0.0 1.2699999809265137
v 0.0 5.079999923706055 1.2699999809265137
v 4.445000171661377 5.079999923706055 0.0
v 0.0 5.079999923706055 0.0
v 0.0 5.079999923706055 1.2699999809265137
v 4.445000171661377 5.079999923706055 1.2699999809265137
v 4.445000171661377 4.445000171661377 0.0
v 4.445000171661377 5.079999923706055 0.0
v 4.445000171661377 5.079999923706055 1.2699999809265137
v 4.445000171661377 4.445000171661377 1.2699999809265137
v 3.492500066757202 4.572000026702881 1.2699999809265137
v 3.5053610801696777 4.661449909210205 1.2699999809265137
v 3.5429019927978516 4.743653297424316 1.2699999809265137
v 3.602081775665283 4.81195068359375 1.2699999809265137
v 3.6781058311462402 4.860808372497559 1.2699999809265137
v 3.764815092086792 4.886268138885498 1.2699999809265137
v 3.855185031890869 4.886268138885498 1.2699999809265137
v 3.941894292831421 4.860808372497559 1.2699999809265137
v 4.017918109893799 4.81195068359375 1.2699999809265137
v 4.0770978927612305 4.743653297424316 1.2699999809265137
v 4.114638805389404 4.661449909210205 1.2699999809265137
v 4.127500057220459 4.572000026702881 1.2699999809265137
v 4.114638805389404 4.482550144195557 1.2699999809265137
v 4.0770978927612305 4.400346755981445 1.2699999809265137
v 4.017918109893799 4.332049369812012 1.2699999809265137
v 3.941894292831421 4.283191680908203 1.2699999809265137
v 3.855185031890869 4.257731914520264 1.2699999809265137
v 3.764815092086792 4.257731914520264 1.2699999809265137
v 3.6781058311462402 4.283191680908203 1.2699999809265137
v 3.602081775665283 4.332049369812012 1.2699999809265137
v 3.5429019927978516 4.400346755981445 1.2699999809265137
v 3.5053610801696777 4.482550144195557 1.2699999809265137
v 4.445000171661377 4.445000171661377 1.2699999809265137
v 4.445000171661377 5.079999923706055 1.2699999809265137
v 0.0 5.079999923706055 1.2699999809265137
v 0.0 0.0 1.2699999809265137
v 3.492500066757202 4.572000026702881 0.0
v 3.5053610801696777 4.482550144195557 0.0
v 3.5429019927978516 4.400346755981445 0.0
v 3.602081775665283 4.332049369812012 0.0
v 3.6781058311462402 4.283191680908203 0.0
v 3.764815092086792 4.257731914520264 0.0
v 3.855185031890869 4.257731914520264 0.0
v 3.941894292831421 4.283191680908203 0.0
v 4.017918109893799 4.332049369812012 0.0
v 4.0770978927612305 4.400346755981445 0.0
v 4.114638805389404 4.482550144195557 0.0
v 4.127500057220459 4.572000026702881 0.0
v 4.114638805389404 4.661449909210205 0.0
v 4.0770978927612305 4.743653297424316 0.0
v 4.017918109893799 4.81195068359375 0.0
v 3.941894292831421 4.860808372497559 0.0
v 3.855185031890869 4.886268138885498 0.0
v 3.764815092086792 4.886268138885498 0.0
v 3.6781058311462402 4.860808372497559 0.0
v 3.602081775665283 4.81195068359375 0.0
v 3.5429019927978516 4.743653297424316 0.0
v 3.5053610801696777 4.661449909210205 0.0
v 4.445000171661377 5.079999923706055 0.0
v 4.445000171661377 4.445000171661377 0.0
v 0.0 0.0 0.0
v 0.0 5.079999923706055 0.0
vn 1.0 1.2246468525851679e-16 -0.0
vn 0.9594929814338684 0.28173255920410156 -0.0
vn 0.8412535190582275 0.5406408309936523 -0.0
vn 0.6548607349395752 0.7557495832443237 -0.0
vn 0.4154150187969208 0.9096319675445557 -0.0
vn 0.1423148363828659 0.9898214340209961 -0.0
vn -0.1423148363828659 0.9898214340209961 0.0
vn -0.4154150187969208 0.9096319675445557 0.0
vn -0.6548607349395752 0.7557495832443237 0.0
vn -0.8412535190582275 0.5406408309936523 0.0
vn -0.9594929814338684 0.28173255920410156 0.0
vn -1.0 0.0 0.0
vn -0.9594929814338684 -0.28173255920410156 0.0
vn -0.8412535190582275 -0.5406408309936523 0.0
vn -0.6548607349395752 -0.7557495832443237 0.0
vn -0.4154150187969208 -0.9096319675445557 0.0
vn -0.1423148363828659 -0.9898214340209961 0.0
vn 0.1423148363828659 -0.9898214340209961 0.0
vn 0.4154150187969208 -0.9096319675445557 0.0
vn 0.6548607349395752 -0.7557495832443237 0.0
vn 0.8412535190582275 -0.5406408309936523 0.0
vn 0.9594929814338684 -0.28173255920410156 0.0
vn 1.0 -1.2246468525851679e-16 0.0
vn 0.9594929814338684 -0.28173255920410156 0.0
vn 0.8412535190582275 -0.5406408309936523 0.0
vn 0.6548607349395752 -0.7557495832443237 0.0
vn 0.4154150187969208 -0.9096319675445557 0.0
vn 0.1423148363828659 -0.9898214340209961 0.0
vn -0.1423148363828659 -0.9898214340209961 0.0
vn -0.4154150187969208 -0.9096319675445557 0.0
vn -0.6548607349395752 -0.7557495832443237 0.0
vn -0.8412535190582275 -0.5406408309936523 0.0
vn -0.9594929814338684 -0.28173255920410156 0.0
vn -1.0 0.0 0.0
vn -0.9594929814338684 0.28173255920410156 0.0
vn -0.8412535190582275 0.5406408309936523 0.0
vn -0.6548607349395752 0.7557495832443237 0.0
vn -0.4154150187969208 0.9096319675445557 0.0
vn -0.1423148363828659 0.9898214340209961 0.0
vn 0.1423148363828659 0.9898214340209961 -0.0
vn 0.4154150187969208 0.9096319675445557 -0.0
vn 0.6548607349395752 0.7557495832443237 -0.0
vn 0.8412535190582275 0.5406408309936523 -0.0
vn 0.9594929814338684 0.28173255920410156 -0.0
vn 1.0 -1.2246468525851679e-16 0.0
vn 1.0 1.2246468525851679e-16 -0.0
vn 0.7071067690849304 -0.7071067690849304 0.0
vn 0.7071067690849304 -0.7071067690849304 0.0
vn 0.7071067690849304 -0.7071067690849304 0.0
vn 0.7071067690849304 -0.7071067690849304 0.0
vn -1.0 0.0 0.0
vn -1.0 0.0 0.0
vn -1.0 0.0 0.0
vn -1.0 0.0 0.0
vn 0.0 1.0 0.0
vn 0.0 1.0 0.0
vn 0.0 1.0 0.0
vn 0.0 1.0 0.0
vn 1.0 0.0 -0.0
vn 1.0 0.0 -0.0
vn 1.0 0.0 -0.0
vn 1.0 0.0 -0.0
vn 0.0 0.0 1.0
vn 0.0 0.0 1.0
vn 0.0 0.0 1.0
vn 0.0 0.0 1.0
vn 0.0 0.0 1.0
vn 0.0 0.0 1.0
vn 0.0 0.0 1.0
vn 0.0 0.0 1.0
vn 0.0 0.0 1.0
vn 0.0 0.0 1.0
vn 0.0 0.0 1.0
vn 0.0 0.0 1.0
vn 0.0 0.0 1.0
vn 0.0 0.0 1.0
vn 0.0 0.0 1.0
vn 0.0 0.0 1.0
vn 0.0 0.0 1.0
vn 0.0 0.0 1.0
vn 0.0 0.0 1.0
vn 0.0 0.0 1.0
vn 0.0 0.0 1.0
vn 0.0 0.0 1.0
vn 0.0 0.0 1.0
vn 0.0 0.0 1.0
vn 0.0 0.0 1.0
vn 0.0 0.0 1.0
vn -0.0 0.0 -1.0
vn -0.0 0.0 -1.0
vn -0.0 0.0 -1.0
vn -0.0 0.0 -1.0
vn -0.0 0.0 -1.0
vn -0.0 0.0 -1.0
vn -0.0 0.0 -1.0
vn -0.0 0.0 -1.0
vn -0.0 0.0 -1.0
vn -0.0 0.0 -1.0
vn -0.0 0.0 -1.0
vn -0.0 0.0 -1.0
vn -0.0 0.0 -1.0
vn -0.0 0.0 -1.0
vn -0.0 0.0 -1.0
vn -0.0 0.0 -1.0
vn -0.0 0.0 -1.0
vn -0.0 0.0 -1.0
vn -0.0 0.0 -1.0
vn -0.0 0.0 -1.0
vn -0.0 0.0 -1.0
vn -0.0 0.0 -1.0
vn -0.0 0.0 -1.0
vn -0.0 0.0 -1.0
vn -0.0 0.0 -1.0
vn -0.0 0.0 -1.0
g 66e17ca8-e2b1-11ea-ae1c-54bf646e7e1f
f 2//2 44//44 1//1
f 1//1 44//44 46//46
f 45//45 23//23 22//22
f 22//22 23//23 24//24
f 22//22 24//24 21//21
f 21//21 24//24 25//25
f 21//21 25//25 20//20
f 20//20 25//25 26//26
f 20//20 26//26 19//19
f 19//19 26//26 27//27
f 19//19 27//27 18//18
f 18//18 27//27 28//28
f 18//18 28//28 17//17
f 17//17 28//28 29//29
f 17//17 29//29 16//16
f 16//16 29//29 30//30
f 16//16 30//30 15//15
f 15//15 30//30 31//31
f 15//15 31//31 14//14
f 14//14 31//31 32//32
f 14//14 32//32 13//13
f 13//13 32//32 33//33
f 13//13 33//33 12//12
f 12//12 33//33 34//34
f 12//12 34//34 11//11
f 11//11 34//34 35//35
f 11//11 35//35 10//10
f 10//10 35//35 36//36
f 10//10 36//36 9//9
f 9//9 36//36 37//37
f 9//9 37//37 8//8
f 8//8 37//37 38//38
f 8//8 38//38 7//7
f 7//7 38//38 39//39
f 7//7 39//39 6//6
f 6//6 39//39 40//40
f 6//6 40//40 5//5
f 5//5 40//40 41//41
f 5//5 41//41 4//4
f 4//4 41//41 42//42
f 4//4 42//42 3//3
f 3//3 42//42 43//43
f 3//3 43//43 2//2
f 2//2 43//43 44//44
g 66e1a3b4-e2b1-11ea-8973-54bf646e7e1f
f 47//47 48//48 50//50
f 50//50 48//48 49//49
g 66e1cac2-e2b1-11ea-a754-54bf646e7e1f
f 51//51 52//52 54//54
f 54//54 52//52 53//53
g 66e1f1d0-e2b1-11ea-b8f1-54bf646e7e1f
f 55//55 56//56 58//58
f 58//58 56//56 57//57
g 66e218de-e2b1-11ea-a50d-54bf646e7e1f
f 59//59 60//60 62//62
f 62//62 60//60 61//61
g 66e266fa-e2b1-11ea-920e-54bf646e7e1f
f 84//84 63//63 87//87
f 87//87 63//63 64//64
f 87//87 64//64 65//65
f 65//65 66//66 87//87
f 87//87 66//66 67//67
f 87//87 67//67 68//68
f 87//87 68//68 86//86
f 86//86 68//68 69//69
f 86//86 69//69 70//70
f 70//70 71//71 86//86
f 86//86 71//71 72//72
f 86//86 72//72 73//73
f 86//86 73//73 85//85
f 85//85 73//73 74//74
f 85//85 74//74 75//75
f 75//75 76//76 85//85
f 85//85 76//76 77//77
f 85//85 77//77 78//78
f 85//85 78//78 88//88
f 88//88 78//78 79//79
f 88//88 79//79 80//80
f 80//80 81//81 88//88
f 88//88 81//81 82//82
f 88//88 82//82 83//83
f 88//88 83//83 87//87
f 87//87 83//83 84//84
g 66e28e0a-e2b1-11ea-8f55-54bf646e7e1f
f 110//110 89//89 114//114
f 114//114 89//89 90//90
f 114//114 90//90 91//91
f 114//114 91//91 113//113
f 113//113 91//91 92//92
f 113//113 92//92 93//93
f 93//93 94//94 113//113
f 113//113 94//94 95//95
f 113//113 95//95 96//96
f 113//113 96//96 112//112
f 112//112 96//96 97//97
f 112//112 97//97 98//98
f 98//98 99//99 112//112
f 112//112 99//99 100//100
f 112//112 100//100 101//101
f 112//112 101//101 111//111
f 111//111 101//101 102//102
f 111//111 102//102 103//103
f 103//103 104//104 111//111
f 111//111 104//104 105//105
f 111//111 105//105 106//106
f 111//111 106//106 114//114
f 114//114 106//106 107//107
f 114//114 107//107 108//108
f 108//108 109//109 114//114
f 114//114 109//109 110//110

# End of file