# WaveFront *.obj file
# Vertices: 26
# Triangles : 16

v -0.08096618950366974 0.0 -1.7137885093688965
v -0.02699764259159565 0.0 -1.7154875993728638
v 0.02699764259159565 0.0 -1.7154875993728638
v 0.08096618950366974 0.0 -1.7137885093688965
v 0.08096618950366974 0.800000011920929 -1.7137885093688965
v 0.02699764259159565 0.800000011920929 -1.7154875993728638
v -0.02699764259159565 0.800000011920929 -1.7154875993728638
v -0.08096618950366974 0.800000011920929 -1.7137885093688965
v 0.0 0.0 -1.93149995803833
v -0.08096618950366974 0.0 -1.7137885093688965
v -0.08096618950366974 0.800000011920929 -1.7137885093688965
v 0.0 0.800000011920929 -1.93149995803833
v 0.08096618950366974 0.0 -1.7137885093688965
v 0.0 0.0 -1.93149995803833
v 0.0 0.800000011920929 -1.93149995803833
v 0.08096618950366974 0.800000011920929 -1.7137885093688965
v 0.08096618950366974 0.800000011920929 -1.7137885093688965
v 0.0 0.800000011920929 -1.93149995803833
v -0.08096618950366974 0.800000011920929 -1.7137885093688965
v -0.02699764259159565 0.800000011920929 -1.7154875993728638
v 0.02699764259159565 0.800000011920929 -1.7154875993728638
v 0.0 0.0 -1.93149995803833
v 0.08096618950366974 0.0 -1.7137885093688965
v 0.02699764259159565 0.0 -1.7154875993728638
v -0.02699764259159565 0.0 -1.7154875993728638
v -0.08096618950366974 0.0 -1.7137885093688965
vn 0.04719134420156479 -0.0 0.9988858699798584
vn 0.015735642984509468 -0.0 0.9998762011528015
vn -0.015735642984509468 0.0 0.9998762011528015
vn -0.04719134420156479 0.0 0.9988858699798584
vn -0.04719134420156479 0.0 0.9988858699798584
vn -0.015735642984509468 0.0 0.9998762011528015
vn 0.015735642984509468 -0.0 0.9998762011528015
vn 0.04719134420156479 -0.0 0.9988858699798584
vn -0.9372819662094116 0.0 -0.3485720455646515
vn -0.9372819662094116 0.0 -0.3485720455646515
vn -0.9372819662094116 0.0 -0.3485720455646515
vn -0.9372819662094116 0.0 -0.3485720455646515
vn 0.9372819662094116 0.0 -0.3485720455646515
vn 0.9372819662094116 0.0 -0.3485720455646515
vn 0.9372819662094116 0.0 -0.3485720455646515
vn 0.9372819662094116 0.0 -0.3485720455646515
vn 0.0 1.0 0.0
vn 0.0 1.0 0.0
vn 0.0 1.0 0.0
vn 0.0 1.0 0.0
vn 0.0 1.0 0.0
vn -0.0 -1.0 -0.0
vn -0.0 -1.0 -0.0
vn -0.0 -1.0 -0.0
vn -0.0 -1.0 -0.0
vn -0.0 -1.0 -0.0
g 207d92f4-e2b2-11ea-b62b-54bf646e7e1f
f 8//8 1//1 7//7
f 7//7 1//1 2//2
f 7//7 2//2 6//6
f 6//6 2//2 3//3
f 6//6 3//3 5//5
f 5//5 3//3 4//4
g 207ea45e-e2b2-11ea-8284-54bf646e7e1f
f 9//9 10//10 12//12
f 12//12 10//10 11//11
g 207fdcf6-e2b2-11ea-9f20-54bf646e7e1f
f 13//13 14//14 16//16
f 16//16 14//14 15//15
g 20811574-e2b2-11ea-a7b6-54bf646e7e1f
f 17//17 18//18 21//21
f 21//21 18//18 20//20
f 20//20 18//18 19//19
g 208226d4-e2b2-11ea-aaa1-54bf646e7e1f
f 23//23 24//24 22//22
f 22//22 24//24 25//25
f 22//22 25//25 26//26

# End of file