# WaveFront *.obj file
# Vertices: 24
# Triangles : 12

v 15.24000072479248 0.0 0.0
v 30.48000144958496 0.0 0.0
v 30.48000144958496 0.0 304.79998779296875
v 15.24000072479248 0.0 304.79998779296875
v 15.24000072479248 15.24000072479248 0.0
v 15.24000072479248 0.0 0.0
v 15.24000072479248 0.0 304.79998779296875
v 15.24000072479248 15.24000072479248 304.79998779296875
v 30.48000144958496 15.24000072479248 0.0
v 15.24000072479248 15.24000072479248 0.0
v 15.24000072479248 15.24000072479248 304.79998779296875
v 30.48000144958496 15.24000072479248 304.79998779296875
v 30.48000144958496 0.0 0.0
v 30.48000144958496 15.24000072479248 0.0
v 30.48000144958496 15.24000072479248 304.79998779296875
v 30.48000144958496 0.0 304.79998779296875
v 30.48000144958496 0.0 304.79998779296875
v 30.48000144958496 15.24000072479248 304.79998779296875
v 15.24000072479248 15.24000072479248 304.79998779296875
v 15.24000072479248 0.0 304.79998779296875
v 30.48000144958496 15.24000072479248 0.0
v 30.48000144958496 0.0 0.0
v 15.24000072479248 0.0 0.0
v 15.24000072479248 15.24000072479248 0.0
vn 0.0 -1.0 0.0
vn 0.0 -1.0 0.0
vn 0.0 -1.0 0.0
vn 0.0 -1.0 0.0
vn -1.0 0.0 0.0
vn -1.0 0.0 0.0
vn -1.0 0.0 0.0
vn -1.0 0.0 0.0
vn 0.0 1.0 0.0
vn 0.0 1.0 0.0
vn 0.0 1.0 0.0
vn 0.0 1.0 0.0
vn 1.0 0.0 -0.0
vn 1.0 0.0 -0.0
vn 1.0 0.0 -0.0
vn 1.0 0.0 -0.0
vn 0.0 0.0 1.0
vn 0.0 0.0 1.0
vn 0.0 0.0 1.0
vn 0.0 0.0 1.0
vn -0.0 0.0 -1.0
vn -0.0 0.0 -1.0
vn -0.0 0.0 -1.0
vn -0.0 0.0 -1.0
g dfbef412-e2b3-11ea-9880-54bf646e7e1f
f 1//1 2//2 4//4
f 4//4 2//2 3//3
g dfbf6926-e2b3-11ea-adcf-54bf646e7e1f
f 5//5 6//6 8//8
f 8//8 6//6 7//7
g dfbfde58-e2b3-11ea-bece-54bf646e7e1f
f 9//9 10//10 12//12
f 12//12 10//10 11//11
g dfc05386-e2b3-11ea-b867-54bf646e7e1f
f 13//13 14//14 16//16
f 16//16 14//14 15//15
g dfc0a19e-e2b3-11ea-a921-54bf646e7e1f
f 18//18 19//19 17//17
f 17//17 19//19 20//20
g dfc116c2-e2b3-11ea-ac96-54bf646e7e1f
f 22//22 23//23 21//21
f 21//21 23//23 24//24

# End of file