# WaveFront *.obj file
# Vertices: 86
# Triangles : 52

v 109.44107055664062 1.9049999713897705 76.54139709472656
v 109.255859375 1.9049999713897705 77.17639923095703
v 109.255859375 1.9049999713897705 80.98639678955078
v 118.14585876464844 1.9049999713897705 80.98639678955078
v 118.14585876464844 1.9049999713897705 61.936397552490234
v 114.33586120605469 1.9049999713897705 61.936397552490234
v 114.33586120605469 1.9049999713897705 61.30139923095703
v 118.7808609008789 1.9049999713897705 61.30139923095703
v 118.7808609008789 1.9049999713897705 81.62139892578125
v 108.62086486816406 1.9049999713897705 81.62139892578125
v 108.62086486816406 1.9049999713897705 76.54139709472656
v 109.44107055664062 1.9049999713897705 76.54139709472656
v 108.62086486816406 1.9049999713897705 76.54139709472656
v 108.62086486816406 73.0250015258789 76.54139709472656
v 116.87586212158203 73.0250015258789 76.54139709472656
v 116.87586212158203 1.9049999713897705 76.54139709472656
v 116.87586212158203 1.9049999713897705 63.206398010253906
v 116.87586212158203 1.9049999713897705 76.54139709472656
v 116.87586212158203 73.0250015258789 76.54139709472656
v 116.87586212158203 73.0250015258789 63.206398010253906
v 114.33586120605469 1.9049999713897705 63.206398010253906
v 116.87586212158203 1.9049999713897705 63.206398010253906
v 116.87586212158203 73.0250015258789 63.206398010253906
v 114.33586120605469 73.0250015258789 63.206398010253906
v 114.33586120605469 1.9049999713897705 61.936397552490234
v 114.33586120605469 1.9049999713897705 63.206398010253906
v 114.33586120605469 73.0250015258789 63.206398010253906
v 114.33586120605469 73.0250015258789 61.30139923095703
v 114.33586120605469 1.9049999713897705 61.30139923095703
v 118.7808609008789 1.9049999713897705 61.30139923095703
v 114.33586120605469 1.9049999713897705 61.30139923095703
v 114.33586120605469 73.0250015258789 61.30139923095703
v 118.7808609008789 73.0250015258789 61.30139923095703
v 118.7808609008789 1.9049999713897705 81.62139892578125
v 118.7808609008789 1.9049999713897705 61.30139923095703
v 118.7808609008789 73.0250015258789 61.30139923095703
v 118.7808609008789 73.0250015258789 81.62139892578125
v 108.62086486816406 1.9049999713897705 81.62139892578125
v 118.7808609008789 1.9049999713897705 81.62139892578125
v 118.7808609008789 73.0250015258789 81.62139892578125
v 108.62086486816406 73.0250015258789 81.62139892578125
v 108.62086486816406 1.9049999713897705 76.54139709472656
v 108.62086486816406 1.9049999713897705 81.62139892578125
v 108.62086486816406 73.0250015258789 81.62139892578125
v 108.62086486816406 73.0250015258789 76.54139709472656
v 108.62086486816406 73.0250015258789 76.54139709472656
v 108.62086486816406 73.0250015258789 81.62139892578125
v 118.7808609008789 73.0250015258789 81.62139892578125
v 118.7808609008789 73.0250015258789 61.30139923095703
v 114.33586120605469 73.0250015258789 61.30139923095703
v 114.33586120605469 73.0250015258789 63.206398010253906
v 116.87586212158203 73.0250015258789 63.206398010253906
v 116.87586212158203 73.0250015258789 76.54139709472656
v 109.44107055664062 1.9049999713897705 76.54139709472656
v 116.87586212158203 1.9049999713897705 76.54139709472656
v 116.87586212158203 1.9049999713897705 63.206398010253906
v 114.33586120605469 1.9049999713897705 63.206398010253906
v 114.33586120605469 1.9049999713897705 61.936397552490234
v 113.70085906982422 1.9049999713897705 61.936397552490234
v 109.255859375 1.2699999809265137 80.98639678955078
v 118.14585876464844 1.2699999809265137 80.98639678955078
v 118.14585876464844 1.9049999713897705 80.98639678955078
v 109.255859375 1.9049999713897705 80.98639678955078
v 109.255859375 1.2699999809265137 77.17639923095703
v 109.255859375 1.2699999809265137 80.98639678955078
v 109.255859375 1.9049999713897705 80.98639678955078
v 109.255859375 1.9049999713897705 77.17639923095703
v 113.70085906982422 1.2699999809265137 61.936397552490234
v 109.255859375 1.2699999809265137 77.17639923095703
v 109.255859375 1.9049999713897705 77.17639923095703
v 109.44107055664062 1.9049999713897705 76.54139709472656
v 113.70085906982422 1.9049999713897705 61.936397552490234
v 118.14585876464844 1.2699999809265137 61.936397552490234
v 113.70085906982422 1.2699999809265137 61.936397552490234
v 113.70085906982422 1.9049999713897705 61.936397552490234
v 114.33586120605469 1.9049999713897705 61.936397552490234
v 118.14585876464844 1.9049999713897705 61.936397552490234
v 118.14585876464844 1.2699999809265137 80.98639678955078
v 118.14585876464844 1.2699999809265137 61.936397552490234
v 118.14585876464844 1.9049999713897705 61.936397552490234
v 118.14585876464844 1.9049999713897705 80.98639678955078
v 118.14585876464844 1.2699999809265137 61.936397552490234
v 118.14585876464844 1.2699999809265137 80.98639678955078
v 109.255859375 1.2699999809265137 80.98639678955078
v 109.255859375 1.2699999809265137 77.17639923095703
v 113.70085906982422 1.2699999809265137 61.936397552490234
vn -0.0 -1.0 -0.0
vn -0.0 -1.0 -0.0
vn -0.0 -1.0 -0.0
vn -0.0 -1.0 -0.0
vn -0.0 -1.0 -0.0
vn -0.0 -1.0 -0.0
vn -0.0 -1.0 -0.0
vn -0.0 -1.0 -0.0
vn -0.0 -1.0 -0.0
vn -0.0 -1.0 -0.0
vn -0.0 -1.0 -0.0
vn 0.0 0.0 -1.0
vn 0.0 0.0 -1.0
vn 0.0 0.0 -1.0
vn 0.0 0.0 -1.0
vn 0.0 0.0 -1.0
vn -1.0 0.0 0.0
vn -1.0 0.0 0.0
vn -1.0 0.0 0.0
vn -1.0 0.0 0.0
vn 0.0 -0.0 1.0
vn 0.0 -0.0 1.0
vn 0.0 -0.0 1.0
vn 0.0 -0.0 1.0
vn -1.0 0.0 0.0
vn -1.0 0.0 0.0
vn -1.0 0.0 0.0
vn -1.0 0.0 0.0
vn -1.0 0.0 0.0
vn 0.0 0.0 -1.0
vn 0.0 0.0 -1.0
vn 0.0 0.0 -1.0
vn 0.0 0.0 -1.0
vn 1.0 -0.0 0.0
vn 1.0 -0.0 0.0
vn 1.0 -0.0 0.0
vn 1.0 -0.0 0.0
vn 0.0 0.0 1.0
vn 0.0 0.0 1.0
vn 0.0 0.0 1.0
vn 0.0 0.0 1.0
vn -1.0 0.0 0.0
vn -1.0 0.0 0.0
vn -1.0 0.0 0.0
vn -1.0 0.0 0.0
vn 0.0 1.0 0.0
vn 0.0 1.0 0.0
vn 0.0 1.0 0.0
vn 0.0 1.0 0.0
vn 0.0 1.0 0.0
vn 0.0 1.0 0.0
vn 0.0 1.0 0.0
vn 0.0 1.0 0.0
vn 0.0 1.0 0.0
vn 0.0 1.0 0.0
vn 0.0 1.0 0.0
vn 0.0 1.0 0.0
vn 0.0 1.0 0.0
vn 0.0 1.0 0.0
vn 0.0 -0.0 1.0
vn 0.0 -0.0 1.0
vn 0.0 -0.0 1.0
vn 0.0 -0.0 1.0
vn -1.0 0.0 0.0
vn -1.0 0.0 0.0
vn -1.0 0.0 0.0
vn -1.0 0.0 0.0
vn -0.9599999785423279 0.0 -0.2800000011920929
vn -0.9599999785423279 0.0 -0.2800000011920929
vn -0.9599999785423279 0.0 -0.2800000011920929
vn -0.9599999785423279 0.0 -0.2800000011920929
vn -0.9599999785423279 0.0 -0.2800000011920929
vn 0.0 0.0 -1.0
vn 0.0 0.0 -1.0
vn 0.0 0.0 -1.0
vn 0.0 0.0 -1.0
vn 0.0 0.0 -1.0
vn 1.0 -0.0 0.0
vn 1.0 -0.0 0.0
vn 1.0 -0.0 0.0
vn 1.0 -0.0 0.0
vn -0.0 -1.0 -0.0
vn -0.0 -1.0 -0.0
vn -0.0 -1.0 -0.0
vn -0.0 -1.0 -0.0
vn -0.0 -1.0 -0.0
g 25ecfee8-e2b4-11ea-bbdc-54bf646e7e1f
f 1//1 2//2 11//11
f 11//11 2//2 3//3
f 11//11 3//3 10//10
f 10//10 3//3 4//4
f 10//10 4//4 9//9
f 9//9 4//4 8//8
f 8//8 4//4 5//5
f 8//8 5//5 7//7
f 7//7 5//5 6//6
g 25ee1048-e2b4-11ea-89d9-54bf646e7e1f
f 13//13 14//14 12//12
f 12//12 14//14 15//15
f 12//12 15//15 16//16
g 25eefaa2-e2b4-11ea-9de5-54bf646e7e1f
f 17//17 18//18 20//20
f 20//20 18//18 19//19
g 25efbdd4-e2b4-11ea-a748-54bf646e7e1f
f 21//21 22//22 24//24
f 24//24 22//22 23//23
g 25f0a83a-e2b4-11ea-9823-54bf646e7e1f
f 26//26 27//27 25//25
f 25//25 27//27 28//28
f 25//25 28//28 29//29
g 25f16b64-e2b4-11ea-beb1-54bf646e7e1f
f 30//30 31//31 33//33
f 33//33 31//31 32//32
g 25f255dc-e2b4-11ea-a392-54bf646e7e1f
f 34//34 35//35 37//37
f 37//37 35//35 36//36
g 25f3402e-e2b4-11ea-90ff-54bf646e7e1f
f 38//38 39//39 41//41
f 41//41 39//39 40//40
g 25f40370-e2b4-11ea-9553-54bf646e7e1f
f 42//42 43//43 45//45
f 45//45 43//43 44//44
g 25f4edc6-e2b4-11ea-a42f-54bf646e7e1f
f 46//46 47//47 53//53
f 53//53 47//47 48//48
f 53//53 48//48 49//49
f 53//53 49//49 52//52
f 52//52 49//49 50//50
f 52//52 50//50 51//51
g 258abf52-e2b4-11ea-9ef4-54bf646e7e1f
f 59//59 54//54 57//57
f 57//57 54//54 55//55
f 57//57 55//55 56//56
f 57//57 58//58 59//59
g 2584cc3a-e2b4-11ea-8e78-54bf646e7e1f
f 60//60 61//61 63//63
f 63//63 61//61 62//62
g 2585dd78-e2b4-11ea-afb0-54bf646e7e1f
f 64//64 65//65 67//67
f 67//67 65//65 66//66
g 2586a0b6-e2b4-11ea-9a5f-54bf646e7e1f
f 72//72 68//68 71//71
f 71//71 68//68 69//69
f 71//71 69//69 70//70
g 2587d934-e2b4-11ea-aa1a-54bf646e7e1f
f 77//77 73//73 76//76
f 76//76 73//73 74//74
f 76//76 74//74 75//75
g 258938ca-e2b4-11ea-9558-54bf646e7e1f
f 78//78 79//79 81//81
f 81//81 79//79 80//80
g 258c6cee-e2b4-11ea-8724-54bf646e7e1f
f 82//82 83//83 86//86
f 86//86 83//83 85//85
f 85//85 83//83 84//84

# End of file