# WaveFront *.obj file
# Vertices: 154
# Triangles : 144

v 1.9049999713897705 0.9524999856948853 1.2699999809265137
v 1.9049999713897705 0.8905588388442993 1.263899326324463
v 1.9049999713897705 0.8309980034828186 1.2458317279815674
v 1.9049999713897705 0.7761064767837524 1.2164915800094604
v 1.9049999713897705 0.7279936075210571 1.1770063638687134
v 1.9049999713897705 0.6885083913803101 1.128893494606018
v 1.9049999713897705 0.6591682434082031 1.0740020275115967
v 1.9049999713897705 0.6411006450653076 1.0144411325454712
v 1.9049999713897705 0.6349999904632568 0.9524999856948853
v 1.9049999713897705 0.6411006450653076 0.8905588388442993
v 1.9049999713897705 0.6591682434082031 0.8309980034828186
v 1.9049999713897705 0.6885083913803101 0.7761064767837524
v 1.9049999713897705 0.7279936075210571 0.7279936075210571
v 1.9049999713897705 0.7761064767837524 0.6885083913803101
v 1.9049999713897705 0.8309980034828186 0.6591682434082031
v 1.9049999713897705 0.8905588388442993 0.6411006450653076
v 1.9049999713897705 0.9524999856948853 0.6349999904632568
v 1.9049999713897705 1.0144411325454712 0.6411006450653076
v 1.9049999713897705 1.0740020275115967 0.6591682434082031
v 1.9049999713897705 1.128893494606018 0.6885083913803101
v 1.9049999713897705 1.1770063638687134 0.7279936075210571
v 1.9049999713897705 1.2164915800094604 0.7761064767837524
v 1.9049999713897705 1.2458317279815674 0.8309980034828186
v 1.9049999713897705 1.263899326324463 0.8905588388442993
v 1.9049999713897705 1.2699999809265137 0.9524999856948853
v 1.9049999713897705 1.263899326324463 1.0144411325454712
v 1.9049999713897705 1.2458317279815674 1.0740020275115967
v 1.9049999713897705 1.2164915800094604 1.128893494606018
v 1.9049999713897705 1.1770063638687134 1.1770063638687134
v 1.9049999713897705 1.128893494606018 1.2164915800094604
v 1.9049999713897705 1.0740020275115967 1.2458317279815674
v 1.9049999713897705 1.0144411325454712 1.263899326324463
v 0.0 0.9524999856948853 1.2699999809265137
v 0.0 1.0144411325454712 1.263899326324463
v 0.0 1.0740020275115967 1.2458317279815674
v 0.0 1.128893494606018 1.2164915800094604
v 0.0 1.1770063638687134 1.1770063638687134
v 0.0 1.2164915800094604 1.128893494606018
v 0.0 1.2458317279815674 1.0740020275115967
v 0.0 1.263899326324463 1.0144411325454712
v 0.0 1.2699999809265137 0.9524999856948853
v 0.0 1.263899326324463 0.8905588388442993
v 0.0 1.2458317279815674 0.8309980034828186
v 0.0 1.2164915800094604 0.7761064767837524
v 0.0 1.1770063638687134 0.7279936075210571
v 0.0 1.128893494606018 0.6885083913803101
v 0.0 1.0740020275115967 0.6591682434082031
v 0.0 1.0144411325454712 0.6411006450653076
v 0.0 0.9524999856948853 0.6349999904632568
v 0.0 0.8905588388442993 0.6411006450653076
v 0.0 0.8309980034828186 0.6591682434082031
v 0.0 0.7761064767837524 0.6885083913803101
v 0.0 0.7279936075210571 0.7279936075210571
v 0.0 0.6885083913803101 0.7761064767837524
v 0.0 0.6591682434082031 0.8309980034828186
v 0.0 0.6411006450653076 0.8905588388442993
v 0.0 0.6349999904632568 0.9524999856948853
v 0.0 0.6411006450653076 1.0144411325454712
v 0.0 0.6591682434082031 1.0740020275115967
v 0.0 0.6885083913803101 1.128893494606018
v 0.0 0.7279936075210571 1.1770063638687134
v 0.0 0.7761064767837524 1.2164915800094604
v 0.0 0.8309980034828186 1.2458317279815674
v 0.0 0.8905588388442993 1.263899326324463
v 1.9049999713897705 0.9524999856948853 1.2699999809265137
v 0.0 0.9524999856948853 1.2699999809265137
v 0.0 0.0 0.0
v 0.0 1.9049999713897705 -1.6330665521142862e-16
v 1.9049999713897705 1.9049999713897705 -2.220446049250313e-16
v 1.9049999713897705 0.0 0.0
v 0.0 0.0 1.9049999713897705
v 0.0 0.0 0.0
v 1.9049999713897705 0.0 0.0
v 1.9049999713897705 0.0 1.9049999713897705
v 0.0 1.9049999713897705 1.9049999713897705
v 0.0 0.0 1.9049999713897705
v 1.9049999713897705 0.0 1.9049999713897705
v 1.9049999713897705 1.9049999713897705 1.9049999713897705
v 0.0 1.9049999713897705 -1.6330665521142862e-16
v 0.0 1.9049999713897705 1.9049999713897705
v 1.9049999713897705 1.9049999713897705 1.9049999713897705
v 1.9049999713897705 1.9049999713897705 -2.220446049250313e-16
v 1.9049999713897705 0.9524999856948853 1.2699999809265137
v 1.9049999713897705 1.0144411325454712 1.263899326324463
v 1.9049999713897705 1.0740020275115967 1.2458317279815674
v 1.9049999713897705 1.128893494606018 1.2164915800094604
v 1.9049999713897705 1.1770063638687134 1.1770063638687134
v 1.9049999713897705 1.2164915800094604 1.128893494606018
v 1.9049999713897705 1.2458317279815674 1.0740020275115967
v 1.9049999713897705 1.263899326324463 1.0144411325454712
v 1.9049999713897705 1.2699999809265137 0.9524999856948853
v 1.9049999713897705 1.263899326324463 0.8905588388442993
v 1.9049999713897705 1.2458317279815674 0.8309980034828186
v 1.9049999713897705 1.2164915800094604 0.7761064767837524
v 1.9049999713897705 1.1770063638687134 0.7279936075210571
v 1.9049999713897705 1.128893494606018 0.6885083913803101
v 1.9049999713897705 1.0740020275115967 0.6591682434082031
v 1.9049999713897705 1.0144411325454712 0.6411006450653076
v 1.9049999713897705 0.9524999856948853 0.6349999904632568
v 1.9049999713897705 0.8905588388442993 0.6411006450653076
v 1.9049999713897705 0.8309980034828186 0.6591682434082031
v 1.9049999713897705 0.7761064767837524 0.6885083913803101
v 1.9049999713897705 0.7279936075210571 0.7279936075210571
v 1.9049999713897705 0.6885083913803101 0.7761064767837524
v 1.9049999713897705 0.6591682434082031 0.8309980034828186
v 1.9049999713897705 0.6411006450653076 0.8905588388442993
v 1.9049999713897705 0.6349999904632568 0.9524999856948853
v 1.9049999713897705 0.6411006450653076 1.0144411325454712
v 1.9049999713897705 0.6591682434082031 1.0740020275115967
v 1.9049999713897705 0.6885083913803101 1.128893494606018
v 1.9049999713897705 0.7279936075210571 1.1770063638687134
v 1.9049999713897705 0.7761064767837524 1.2164915800094604
v 1.9049999713897705 0.8309980034828186 1.2458317279815674
v 1.9049999713897705 0.8905588388442993 1.263899326324463
v 1.9049999713897705 1.9049999713897705 -2.220446049250313e-16
v 1.9049999713897705 1.9049999713897705 1.9049999713897705
v 1.9049999713897705 0.0 1.9049999713897705
v 1.9049999713897705 0.0 0.0
v 0.0 0.9524999856948853 1.2699999809265137
v 0.0 0.8905588388442993 1.263899326324463
v 0.0 0.8309980034828186 1.2458317279815674
v 0.0 0.7761064767837524 1.2164915800094604
v 0.0 0.7279936075210571 1.1770063638687134
v 0.0 0.6885083913803101 1.128893494606018
v 0.0 0.6591682434082031 1.0740020275115967
v 0.0 0.6411006450653076 1.0144411325454712
v 0.0 0.6349999904632568 0.9524999856948853
v 0.0 0.6411006450653076 0.8905588388442993
v 0.0 0.6591682434082031 0.8309980034828186
v 0.0 0.6885083913803101 0.7761064767837524
v 0.0 0.7279936075210571 0.7279936075210571
v 0.0 0.7761064767837524 0.6885083913803101
v 0.0 0.8309980034828186 0.6591682434082031
v 0.0 0.8905588388442993 0.6411006450653076
v 0.0 0.9524999856948853 0.6349999904632568
v 0.0 1.0144411325454712 0.6411006450653076
v 0.0 1.0740020275115967 0.6591682434082031
v 0.0 1.128893494606018 0.6885083913803101
v 0.0 1.1770063638687134 0.7279936075210571
v 0.0 1.2164915800094604 0.7761064767837524
v 0.0 1.2458317279815674 0.8309980034828186
v 0.0 1.263899326324463 0.8905588388442993
v 0.0 1.2699999809265137 0.9524999856948853
v 0.0 1.263899326324463 1.0144411325454712
v 0.0 1.2458317279815674 1.0740020275115967
v 0.0 1.2164915800094604 1.128893494606018
v 0.0 1.1770063638687134 1.1770063638687134
v 0.0 1.128893494606018 1.2164915800094604
v 0.0 1.0740020275115967 1.2458317279815674
v 0.0 1.0144411325454712 1.263899326324463
v 0.0 1.9049999713897705 1.9049999713897705
v 0.0 1.9049999713897705 -1.6330665521142862e-16
v 0.0 0.0 0.0
v 0.0 0.0 1.9049999713897705
vn 0.0 1.2246468525851679e-16 -1.0
vn 0.0 0.19509032368659973 -0.9807852506637573
vn 0.0 0.3826834261417389 -0.9238795042037964
vn 0.0 0.5555702447891235 -0.8314695954322815
vn 0.0 0.7071067690849304 -0.7071067690849304
vn 0.0 0.8314695954322815 -0.5555702447891235
vn 0.0 0.9238795042037964 -0.3826834261417389
vn 0.0 0.9807852506637573 -0.19509032368659973
vn -0.0 1.0 6.123234262925839e-17
vn -0.0 0.9807852506637573 0.19509032368659973
vn -0.0 0.9238795042037964 0.3826834261417389
vn -0.0 0.8314695954322815 0.5555702447891235
vn -0.0 0.7071067690849304 0.7071067690849304
vn -0.0 0.5555702447891235 0.8314695954322815
vn -0.0 0.3826834261417389 0.9238795042037964
vn -0.0 0.19509032368659973 0.9807852506637573
vn 0.0 -0.0 1.0
vn 0.0 -0.19509032368659973 0.9807852506637573
vn 0.0 -0.3826834261417389 0.9238795042037964
vn 0.0 -0.5555702447891235 0.8314695954322815
vn 0.0 -0.7071067690849304 0.7071067690849304
vn 0.0 -0.8314695954322815 0.5555702447891235
vn 0.0 -0.9238795042037964 0.3826834261417389
vn 0.0 -0.9807852506637573 0.19509032368659973
vn 0.0 -1.0 6.123234262925839e-17
vn 0.0 -0.9807852506637573 -0.19509032368659973
vn 0.0 -0.9238795042037964 -0.3826834261417389
vn 0.0 -0.8314695954322815 -0.5555702447891235
vn 0.0 -0.7071067690849304 -0.7071067690849304
vn 0.0 -0.5555702447891235 -0.8314695954322815
vn 0.0 -0.3826834261417389 -0.9238795042037964
vn 0.0 -0.19509032368659973 -0.9807852506637573
vn 0.0 -1.2246468525851679e-16 -1.0
vn 0.0 -0.19509032368659973 -0.9807852506637573
vn 0.0 -0.3826834261417389 -0.9238795042037964
vn 0.0 -0.5555702447891235 -0.8314695954322815
vn 0.0 -0.7071067690849304 -0.7071067690849304
vn 0.0 -0.8314695954322815 -0.5555702447891235
vn 0.0 -0.9238795042037964 -0.3826834261417389
vn 0.0 -0.9807852506637573 -0.19509032368659973
vn 0.0 -1.0 6.123234262925839e-17
vn 0.0 -0.9807852506637573 0.19509032368659973
vn 0.0 -0.9238795042037964 0.3826834261417389
vn 0.0 -0.8314695954322815 0.5555702447891235
vn 0.0 -0.7071067690849304 0.7071067690849304
vn 0.0 -0.5555702447891235 0.8314695954322815
vn 0.0 -0.3826834261417389 0.9238795042037964
vn 0.0 -0.19509032368659973 0.9807852506637573
vn 0.0 -0.0 1.0
vn -0.0 0.19509032368659973 0.9807852506637573
vn -0.0 0.3826834261417389 0.9238795042037964
vn -0.0 0.5555702447891235 0.8314695954322815
vn -0.0 0.7071067690849304 0.7071067690849304
vn -0.0 0.8314695954322815 0.5555702447891235
vn -0.0 0.9238795042037964 0.3826834261417389
vn -0.0 0.9807852506637573 0.19509032368659973
vn -0.0 1.0 6.123234262925839e-17
vn 0.0 0.9807852506637573 -0.19509032368659973
vn 0.0 0.9238795042037964 -0.3826834261417389
vn 0.0 0.8314695954322815 -0.5555702447891235
vn 0.0 0.7071067690849304 -0.7071067690849304
vn 0.0 0.5555702447891235 -0.8314695954322815
vn 0.0 0.3826834261417389 -0.9238795042037964
vn 0.0 0.19509032368659973 -0.9807852506637573
vn 0.0 -1.2246468525851679e-16 -1.0
vn 0.0 1.2246468525851679e-16 -1.0
vn 0.0 -8.572527968096175e-17 -1.0
vn 0.0 -8.572527968096175e-17 -1.0
vn 0.0 -8.572527968096175e-17 -1.0
vn 0.0 -8.572527968096175e-17 -1.0
vn 0.0 -1.0 0.0
vn 0.0 -1.0 0.0
vn 0.0 -1.0 0.0
vn 0.0 -1.0 0.0
vn -0.0 1.1655885391290458e-16 1.0
vn -0.0 1.1655885391290458e-16 1.0
vn -0.0 1.1655885391290458e-16 1.0
vn -0.0 1.1655885391290458e-16 1.0
vn -0.0 1.0 0.0
vn -0.0 1.0 0.0
vn -0.0 1.0 0.0
vn -0.0 1.0 0.0
vn 1.0 0.0 0.0
vn 1.0 0.0 0.0
vn 1.0 0.0 0.0
vn 1.0 0.0 0.0
vn 1.0 0.0 0.0
vn 1.0 0.0 0.0
vn 1.0 0.0 0.0
vn 1.0 0.0 0.0
vn 1.0 0.0 0.0
vn 1.0 0.0 0.0
vn 1.0 0.0 0.0
vn 1.0 0.0 0.0
vn 1.0 0.0 0.0
vn 1.0 0.0 0.0
vn 1.0 0.0 0.0
vn 1.0 0.0 0.0
vn 1.0 0.0 0.0
vn 1.0 0.0 0.0
vn 1.0 0.0 0.0
vn 1.0 0.0 0.0
vn 1.0 0.0 0.0
vn 1.0 0.0 0.0
vn 1.0 0.0 0.0
vn 1.0 0.0 0.0
vn 1.0 0.0 0.0
vn 1.0 0.0 0.0
vn 1.0 0.0 0.0
vn 1.0 0.0 0.0
vn 1.0 0.0 0.0
vn 1.0 0.0 0.0
vn 1.0 0.0 0.0
vn 1.0 0.0 0.0
vn 1.0 0.0 0.0
vn 1.0 0.0 0.0
vn 1.0 0.0 0.0
vn 1.0 0.0 0.0
vn -1.0 -0.0 -0.0
vn -1.0 -0.0 -0.0
vn -1.0 -0.0 -0.0
vn -1.0 -0.0 -0.0
vn -1.0 -0.0 -0.0
vn -1.0 -0.0 -0.0
vn -1.0 -0.0 -0.0
vn -1.0 -0.0 -0.0
vn -1.0 -0.0 -0.0
vn -1.0 -0.0 -0.0
vn -1.0 -0.0 -0.0
vn -1.0 -0.0 -0.0
vn -1.0 -0.0 -0.0
vn -1.0 -0.0 -0.0
vn -1.0 -0.0 -0.0
vn -1.0 -0.0 -0.0
vn -1.0 -0.0 -0.0
vn -1.0 -0.0 -0.0
vn -1.0 -0.0 -0.0
vn -1.0 -0.0 -0.0
vn -1.0 -0.0 -0.0
vn -1.0 -0.0 -0.0
vn -1.0 -0.0 -0.0
vn -1.0 -0.0 -0.0
vn -1.0 -0.0 -0.0
vn -1.0 -0.0 -0.0
vn -1.0 -0.0 -0.0
vn -1.0 -0.0 -0.0
vn -1.0 -0.0 -0.0
vn -1.0 -0.0 -0.0
vn -1.0 -0.0 -0.0
vn -1.0 -0.0 -0.0
vn -1.0 -0.0 -0.0
vn -1.0 -0.0 -0.0
vn -1.0 -0.0 -0.0
vn -1.0 -0.0 -0.0
g afc09818-e2bb-11ea-afab-54bf646e7e1f
f 2//2 64//64 1//1
f 1//1 64//64 66//66
f 65//65 33//33 32//32
f 32//32 33//33 34//34
f 32//32 34//34 31//31
f 31//31 34//34 35//35
f 31//31 35//35 30//30
f 30//30 35//35 36//36
f 30//30 36//36 29//29
f 29//29 36//36 37//37
f 29//29 37//37 28//28
f 28//28 37//37 38//38
f 28//28 38//38 27//27
f 27//27 38//38 39//39
f 27//27 39//39 26//26
f 26//26 39//39 40//40
f 26//26 40//40 25//25
f 25//25 40//40 41//41
f 25//25 41//41 24//24
f 24//24 41//41 42//42
f 24//24 42//42 23//23
f 23//23 42//42 43//43
f 23//23 43//43 22//22
f 22//22 43//43 44//44
f 22//22 44//44 21//21
f 21//21 44//44 45//45
f 21//21 45//45 20//20
f 20//20 45//45 46//46
f 20//20 46//46 19//19
f 19//19 46//46 47//47
f 19//19 47//47 18//18
f 18//18 47//47 48//48
f 18//18 48//48 17//17
f 17//17 48//48 49//49
f 17//17 49//49 16//16
f 16//16 49//49 50//50
f 16//16 50//50 15//15
f 15//15 50//50 51//51
f 15//15 51//51 14//14
f 14//14 51//51 52//52
f 14//14 52//52 13//13
f 13//13 52//52 53//53
f 13//13 53//53 12//12
f 12//12 53//53 54//54
f 12//12 54//54 11//11
f 11//11 54//54 55//55
f 11//11 55//55 10//10
f 10//10 55//55 56//56
f 10//10 56//56 9//9
f 9//9 56//56 57//57
f 9//9 57//57 8//8
f 8//8 57//57 58//58
f 8//8 58//58 7//7
f 7//7 58//58 59//59
f 7//7 59//59 6//6
f 6//6 59//59 60//60
f 6//6 60//60 5//5
f 5//5 60//60 61//61
f 5//5 61//61 4//4
f 4//4 61//61 62//62
f 4//4 62//62 3//3
f 3//3 62//62 63//63
f 3//3 63//63 2//2
f 2//2 63//63 64//64
g afc0e61e-e2bb-11ea-b4f9-54bf646e7e1f
f 67//67 68//68 70//70
f 70//70 68//68 69//69
g afc15b4c-e2bb-11ea-bc84-54bf646e7e1f
f 71//71 72//72 74//74
f 74//74 72//72 73//73
g afc1a958-e2bb-11ea-b02b-54bf646e7e1f
f 75//75 76//76 78//78
f 78//78 76//76 77//77
g afc21e80-e2bb-11ea-aec8-54bf646e7e1f
f 79//79 80//80 82//82
f 82//82 80//80 81//81
g afc2939e-e2bb-11ea-89dd-54bf646e7e1f
f 84//84 116//116 83//83
f 83//83 116//116 117//117
f 83//83 117//117 114//114
f 114//114 117//117 113//113
f 113//113 117//117 112//112
f 112//112 117//117 111//111
f 111//111 117//117 110//110
f 110//110 117//117 109//109
f 109//109 117//117 108//108
f 108//108 117//117 107//107
f 107//107 117//117 118//118
f 107//107 118//118 106//106
f 106//106 118//118 105//105
f 105//105 118//118 104//104
f 104//104 118//118 103//103
f 103//103 118//118 102//102
f 102//102 118//118 101//101
f 101//101 118//118 100//100
f 100//100 118//118 99//99
f 99//99 118//118 115//115
f 99//99 115//115 98//98
f 98//98 115//115 97//97
f 97//97 115//115 96//96
f 96//96 115//115 95//95
f 95//95 115//115 94//94
f 94//94 115//115 93//93
f 93//93 115//115 92//92
f 92//92 115//115 91//91
f 91//91 115//115 116//116
f 91//91 116//116 90//90
f 90//90 116//116 89//89
f 89//89 116//116 88//88
f 88//88 116//116 87//87
f 87//87 116//116 86//86
f 86//86 116//116 85//85
f 85//85 116//116 84//84
g afc308b6-e2bb-11ea-b865-54bf646e7e1f
f 120//120 154//154 119//119
f 119//119 154//154 151//151
f 119//119 151//151 150//150
f 150//150 151//151 149//149
f 149//149 151//151 148//148
f 148//148 151//151 147//147
f 147//147 151//151 146//146
f 146//146 151//151 145//145
f 145//145 151//151 144//144
f 144//144 151//151 143//143
f 143//143 151//151 152//152
f 143//143 152//152 142//142
f 142//142 152//152 141//141
f 141//141 152//152 140//140
f 140//140 152//152 139//139
f 139//139 152//152 138//138
f 138//138 152//152 137//137
f 137//137 152//152 136//136
f 136//136 152//152 135//135
f 135//135 152//152 153//153
f 135//135 153//153 134//134
f 134//134 153//153 133//133
f 133//133 153//153 132//132
f 132//132 153//153 131//131
f 131//131 153//153 130//130
f 130//130 153//153 129//129
f 129//129 153//153 128//128
f 128//128 153//153 127//127
f 127//127 153//153 154//154
f 127//127 154//154 126//126
f 126//126 154//154 125//125
f 125//125 154//154 124//124
f 124//124 154//154 123//123
f 123//123 154//154 122//122
f 122//122 154//154 121//121
f 121//121 154//154 120//120

# End of file