# WaveFront *.obj file
# Vertices: 24
# Triangles : 12

v 0.0 0.0 0.0
v 0.0 1.2699999809265137 0.0
v 0.0 1.2699999809265137 10.15999984741211
v 0.0 0.0 10.15999984741211
v -1.2699999809265137 0.0 0.0
v 0.0 0.0 0.0
v 0.0 0.0 10.15999984741211
v -1.2699999809265137 0.0 10.15999984741211
v -1.2699999809265137 1.2699999809265137 0.0
v -1.2699999809265137 0.0 0.0
v -1.2699999809265137 0.0 10.15999984741211
v -1.2699999809265137 1.2699999809265137 10.15999984741211
v 0.0 1.2699999809265137 0.0
v -1.2699999809265137 1.2699999809265137 0.0
v -1.2699999809265137 1.2699999809265137 10.15999984741211
v 0.0 1.2699999809265137 10.15999984741211
v 0.0 1.2699999809265137 10.15999984741211
v -1.2699999809265137 1.2699999809265137 10.15999984741211
v -1.2699999809265137 0.0 10.15999984741211
v 0.0 0.0 10.15999984741211
v -1.2699999809265137 1.2699999809265137 0.0
v 0.0 1.2699999809265137 0.0
v 0.0 0.0 0.0
v -1.2699999809265137 0.0 0.0
vn 1.0 0.0 -0.0
vn 1.0 0.0 -0.0
vn 1.0 0.0 -0.0
vn 1.0 0.0 -0.0
vn 0.0 -1.0 0.0
vn 0.0 -1.0 0.0
vn 0.0 -1.0 0.0
vn 0.0 -1.0 0.0
vn -1.0 0.0 0.0
vn -1.0 0.0 0.0
vn -1.0 0.0 0.0
vn -1.0 0.0 0.0
vn 0.0 1.0 0.0
vn 0.0 1.0 0.0
vn 0.0 1.0 0.0
vn 0.0 1.0 0.0
vn 0.0 0.0 1.0
vn 0.0 0.0 1.0
vn 0.0 0.0 1.0
vn 0.0 0.0 1.0
vn -0.0 0.0 -1.0
vn -0.0 0.0 -1.0
vn -0.0 0.0 -1.0
vn -0.0 0.0 -1.0
g a5b0f492-e2be-11ea-b04d-54bf646e7e1f
f 1//1 2//2 4//4
f 4//4 2//2 3//3
g a5b142b8-e2be-11ea-85fc-54bf646e7e1f
f 5//5 6//6 8//8
f 8//8 6//6 7//7
g a5b1b7fa-e2be-11ea-9859-54bf646e7e1f
f 9//9 10//10 12//12
f 12//12 10//10 11//11
g a5b2061e-e2be-11ea-8e21-54bf646e7e1f
f 13//13 14//14 16//16
f 16//16 14//14 15//15
g a5b27b62-e2be-11ea-9da9-54bf646e7e1f
f 17//17 18//18 20//20
f 20//20 18//18 19//19
g a5b2f09a-e2be-11ea-b1db-54bf646e7e1f
f 21//21 22//22 24//24
f 24//24 22//22 23//23

# End of file