# WaveFront *.obj file
# Vertices: 224
# Triangles : 132

v -46.400001525878906 7.0 17.0
v -46.400001525878906 7.0 22.5
v -46.400001525878906 9.5 22.5
v -46.400001525878906 9.5 17.0
v -45.70000076293945 7.0 17.0
v -46.400001525878906 7.0 17.0
v -46.400001525878906 9.5 17.0
v -45.70000076293945 9.5 17.0
v -45.70000076293945 7.0 8.5
v -45.70000076293945 7.0 17.0
v -45.70000076293945 9.5 17.0
v -45.70000076293945 9.5 8.5
v -44.400001525878906 7.0 22.5
v -44.400001525878906 7.0 8.5
v -44.400001525878906 9.5 8.5
v -44.400001525878906 9.5 22.5
v -46.400001525878906 9.5 22.5
v -44.400001525878906 9.5 22.5
v -44.400001525878906 9.5 8.5
v -45.70000076293945 9.5 8.5
v -45.70000076293945 9.5 17.0
v -46.400001525878906 9.5 17.0
v -45.70000076293945 7.0 8.5
v -45.70000076293945 9.5 8.5
v -44.400001525878906 9.5 8.5
v -44.400001525878906 7.0 8.5
v 51.0 7.0 8.5
v 51.0 10.0 8.5
v -45.900001525878906 10.0 8.5
v -45.900001525878906 7.0 8.5
v -44.400001525878906 7.0 8.5
v -44.400001525878906 7.0 22.5
v 51.0 7.0 22.5
v 51.0 7.0 8.5
v -45.900001525878906 10.0 8.5
v -46.900001525878906 10.0 8.5
v -46.900001525878906 10.5 8.5
v -45.900001525878906 10.5 8.5
v -46.900001525878906 7.0 8.5
v -46.900001525878906 7.0 16.79941749572754
v -46.900001525878906 10.5 16.79941749572754
v -46.900001525878906 10.5 8.5
v -46.900001525878906 10.0 8.5
v -45.900001525878906 7.0 16.79941749572754
v -45.900001525878906 7.0 8.5
v -45.900001525878906 10.0 8.5
v -45.900001525878906 10.5 8.5
v -45.900001525878906 10.5 16.79941749572754
v -46.900001525878906 7.0 16.79941749572754
v -45.900001525878906 7.0 16.79941749572754
v -45.900001525878906 10.5 16.79941749572754
v -46.900001525878906 10.5 16.79941749572754
v -46.900001525878906 10.5 16.79941749572754
v -45.900001525878906 10.5 16.79941749572754
v -45.900001525878906 10.5 8.5
v -46.900001525878906 10.5 8.5
v -45.70000076293945 7.0 17.0
v -45.70000076293945 7.0 8.5
v -45.900001525878906 7.0 8.5
v -45.900001525878906 7.0 16.79941749572754
v -46.900001525878906 7.0 16.79941749572754
v -46.900001525878906 7.0 8.5
v -51.0 7.0 8.5
v -51.0 7.0 22.5
v -46.400001525878906 7.0 22.5
v -46.400001525878906 7.0 17.0
v -46.900001525878906 7.0 8.5
v -46.900001525878906 10.0 8.5
v -51.0 10.0 8.5
v -51.0 7.0 8.5
v 51.0 10.0 22.5
v 51.0 10.0 8.5
v 51.0 7.0 8.5
v 51.0 7.0 22.5
v -51.0 10.0 8.5
v -51.0 10.0 22.5
v -51.0 7.0 22.5
v -51.0 7.0 8.5
v -51.0 10.0 22.5
v -51.0 10.0 8.5
v -46.900001525878906 10.0 8.5
v -45.900001525878906 10.0 8.5
v 51.0 10.0 8.5
v 51.0 10.0 22.5
v 57.5 10.0 22.5
v 57.5 10.0 -22.5
v -57.5 10.0 -22.5
v -57.5 10.0 22.5
v -51.0 7.0 22.5
v -51.0 10.0 22.5
v -57.5 10.0 22.5
v -57.5 0.0 22.5
v 57.5 0.0 22.5
v 57.5 10.0 22.5
v 51.0 10.0 22.5
v 51.0 7.0 22.5
v -44.400001525878906 7.0 22.5
v -44.400001525878906 9.5 22.5
v -46.400001525878906 9.5 22.5
v -46.400001525878906 7.0 22.5
v -57.5 0.0 -22.5
v -57.5 0.0 22.5
v -57.5 10.0 22.5
v -57.5 10.0 -22.5
v 57.5 0.0 -22.5
v -57.5 0.0 -22.5
v -57.5 10.0 -22.5
v 57.5 10.0 -22.5
v 57.5 0.0 22.5
v 57.5 0.0 -22.5
v 57.5 10.0 -22.5
v 57.5 10.0 22.5
v 57.5 0.0 -22.5
v 57.5 0.0 22.5
v -57.5 0.0 22.5
v -57.5 0.0 -22.5
v -50.79999923706055 7.0 8.5
v -50.79999923706055 7.0 22.5
v -50.79999923706055 9.5 22.5
v -50.79999923706055 9.5 8.5
v -49.54999923706055 7.0 8.5
v -50.79999923706055 7.0 8.5
v -50.79999923706055 9.5 8.5
v -49.54999923706055 9.5 8.5
v -49.54999923706055 7.0 17.0
v -49.54999923706055 7.0 8.5
v -49.54999923706055 9.5 8.5
v -49.54999923706055 9.5 17.0
v -48.79999923706055 7.0 17.0
v -49.54999923706055 7.0 17.0
v -49.54999923706055 9.5 17.0
v -48.79999923706055 9.5 17.0
v -48.79999923706055 7.0 22.5
v -48.79999923706055 7.0 17.0
v -48.79999923706055 9.5 17.0
v -48.79999923706055 9.5 22.5
v -50.79999923706055 7.0 22.5
v -48.79999923706055 7.0 22.5
v -48.79999923706055 9.5 22.5
v -50.79999923706055 9.5 22.5
v -50.79999923706055 9.5 22.5
v -48.79999923706055 9.5 22.5
v -48.79999923706055 9.5 17.0
v -49.54999923706055 9.5 17.0
v -49.54999923706055 9.5 8.5
v -50.79999923706055 9.5 8.5
v -48.79999923706055 7.0 22.5
v -50.79999923706055 7.0 22.5
v -50.79999923706055 7.0 8.5
v -49.54999923706055 7.0 8.5
v -49.54999923706055 7.0 17.0
v -48.79999923706055 7.0 17.0
v -48.349998474121094 7.0 8.5
v -49.349998474121094 7.0 8.5
v -49.349998474121094 10.5 8.5
v -48.349998474121094 10.5 8.5
v -48.349998474121094 7.0 16.79941749572754
v -48.349998474121094 7.0 8.5
v -48.349998474121094 10.5 8.5
v -48.349998474121094 10.5 16.79941749572754
v -49.349998474121094 7.0 16.79941749572754
v -48.349998474121094 7.0 16.79941749572754
v -48.349998474121094 10.5 16.79941749572754
v -49.349998474121094 10.5 16.79941749572754
v -49.349998474121094 7.0 8.5
v -49.349998474121094 7.0 16.79941749572754
v -49.349998474121094 10.5 16.79941749572754
v -49.349998474121094 10.5 8.5
v -49.349998474121094 10.5 8.5
v -49.349998474121094 10.5 16.79941749572754
v -48.349998474121094 10.5 16.79941749572754
v -48.349998474121094 10.5 8.5
v -49.349998474121094 7.0 16.79941749572754
v -49.349998474121094 7.0 8.5
v -48.349998474121094 7.0 8.5
v -48.349998474121094 7.0 16.79941749572754
v -48.599998474121094 7.0 17.0
v -48.599998474121094 7.0 22.5
v -48.599998474121094 9.5 22.5
v -48.599998474121094 9.5 17.0
v -48.150001525878906 7.0 17.0
v -48.599998474121094 7.0 17.0
v -48.599998474121094 9.5 17.0
v -48.150001525878906 9.5 17.0
v -48.150001525878906 7.0 8.5
v -48.150001525878906 7.0 17.0
v -48.150001525878906 9.5 17.0
v -48.150001525878906 9.5 8.5
v -47.099998474121094 7.0 8.5
v -48.150001525878906 7.0 8.5
v -48.150001525878906 9.5 8.5
v -47.099998474121094 9.5 8.5
v -47.099998474121094 7.0 17.0
v -47.099998474121094 7.0 8.5
v -47.099998474121094 9.5 8.5
v -47.099998474121094 9.5 17.0
v -46.599998474121094 7.0 17.0
v -47.099998474121094 7.0 17.0
v -47.099998474121094 9.5 17.0
v -46.599998474121094 9.5 17.0
v -46.599998474121094 7.0 22.5
v -46.599998474121094 7.0 17.0
v -46.599998474121094 9.5 17.0
v -46.599998474121094 9.5 22.5
v -48.599998474121094 7.0 22.5
v -46.599998474121094 7.0 22.5
v -46.599998474121094 9.5 22.5
v -48.599998474121094 9.5 22.5
v -48.599998474121094 9.5 22.5
v -46.599998474121094 9.5 22.5
v -46.599998474121094 9.5 17.0
v -47.099998474121094 9.5 17.0
v -47.099998474121094 9.5 8.5
v -48.150001525878906 9.5 8.5
v -48.150001525878906 9.5 17.0
v -48.599998474121094 9.5 17.0
v -46.599998474121094 7.0 22.5
v -48.599998474121094 7.0 22.5
v -48.599998474121094 7.0 17.0
v -48.150001525878906 7.0 17.0
v -48.150001525878906 7.0 8.5
v -47.099998474121094 7.0 8.5
v -47.099998474121094 7.0 17.0
v -46.599998474121094 7.0 17.0
vn -1.0 0.0 0.0
vn -1.0 0.0 0.0
vn -1.0 0.0 0.0
vn -1.0 0.0 0.0
vn 0.0 0.0 -1.0
vn 0.0 0.0 -1.0
vn 0.0 0.0 -1.0
vn 0.0 0.0 -1.0
vn -1.0 0.0 0.0
vn -1.0 0.0 0.0
vn -1.0 0.0 0.0
vn -1.0 0.0 0.0
vn 1.0 -0.0 0.0
vn 1.0 -0.0 0.0
vn 1.0 -0.0 0.0
vn 1.0 -0.0 0.0
vn 0.0 1.0 0.0
vn 0.0 1.0 0.0
vn 0.0 1.0 0.0
vn 0.0 1.0 0.0
vn 0.0 1.0 0.0
vn 0.0 1.0 0.0
vn -0.0 -0.0 1.0
vn -0.0 -0.0 1.0
vn -0.0 -0.0 1.0
vn -0.0 -0.0 1.0
vn -0.0 -0.0 1.0
vn -0.0 -0.0 1.0
vn -0.0 -0.0 1.0
vn -0.0 -0.0 1.0
vn -0.0 1.0 -0.0
vn -0.0 1.0 -0.0
vn -0.0 1.0 -0.0
vn -0.0 1.0 -0.0
vn 0.0 0.0 -1.0
vn 0.0 0.0 -1.0
vn 0.0 0.0 -1.0
vn 0.0 0.0 -1.0
vn -1.0 0.0 0.0
vn -1.0 0.0 0.0
vn -1.0 0.0 0.0
vn -1.0 0.0 0.0
vn -1.0 0.0 0.0
vn 1.0 -0.0 0.0
vn 1.0 -0.0 0.0
vn 1.0 -0.0 0.0
vn 1.0 -0.0 0.0
vn 1.0 -0.0 0.0
vn 0.0 0.0 1.0
vn 0.0 0.0 1.0
vn 0.0 0.0 1.0
vn 0.0 0.0 1.0
vn 0.0 1.0 0.0
vn 0.0 1.0 0.0
vn 0.0 1.0 0.0
vn 0.0 1.0 0.0
vn -0.0 1.0 -0.0
vn -0.0 1.0 -0.0
vn -0.0 1.0 -0.0
vn -0.0 1.0 -0.0
vn -0.0 1.0 -0.0
vn -0.0 1.0 -0.0
vn -0.0 1.0 -0.0
vn -0.0 1.0 -0.0
vn -0.0 1.0 -0.0
vn -0.0 1.0 -0.0
vn -0.0 -0.0 1.0
vn -0.0 -0.0 1.0
vn -0.0 -0.0 1.0
vn -0.0 -0.0 1.0
vn -1.0 -0.0 0.0
vn -1.0 -0.0 0.0
vn -1.0 -0.0 0.0
vn -1.0 -0.0 0.0
vn 1.0 -0.0 -0.0
vn 1.0 -0.0 -0.0
vn 1.0 -0.0 -0.0
vn 1.0 -0.0 -0.0
vn 0.0 1.0 0.0
vn 0.0 1.0 0.0
vn 0.0 1.0 0.0
vn 0.0 1.0 0.0
vn 0.0 1.0 0.0
vn 0.0 1.0 0.0
vn 0.0 1.0 0.0
vn 0.0 1.0 0.0
vn 0.0 1.0 0.0
vn 0.0 1.0 0.0
vn 6.178632202909741e-17 -0.0 1.0
vn 6.178632202909741e-17 -0.0 1.0
vn 6.178632202909741e-17 -0.0 1.0
vn 6.178632202909741e-17 -0.0 1.0
vn 6.178632202909741e-17 -0.0 1.0
vn 6.178632202909741e-17 -0.0 1.0
vn 6.178632202909741e-17 -0.0 1.0
vn 6.178632202909741e-17 -0.0 1.0
vn 6.178632202909741e-17 -0.0 1.0
vn 6.178632202909741e-17 -0.0 1.0
vn 6.178632202909741e-17 -0.0 1.0
vn 6.178632202909741e-17 -0.0 1.0
vn -1.0 0.0 0.0
vn -1.0 0.0 0.0
vn -1.0 0.0 0.0
vn -1.0 0.0 0.0
vn 3.0893161014548703e-17 0.0 -1.0
vn 3.0893161014548703e-17 0.0 -1.0
vn 3.0893161014548703e-17 0.0 -1.0
vn 3.0893161014548703e-17 0.0 -1.0
vn 1.0 0.0 -1.5789838954787932e-16
vn 1.0 0.0 -1.5789838954787932e-16
vn 1.0 0.0 -1.5789838954787932e-16
vn 1.0 0.0 -1.5789838954787932e-16
vn -0.0 -1.0 -0.0
vn -0.0 -1.0 -0.0
vn -0.0 -1.0 -0.0
vn -0.0 -1.0 -0.0
vn -1.0 0.0 0.0
vn -1.0 0.0 0.0
vn -1.0 0.0 0.0
vn -1.0 0.0 0.0
vn 0.0 0.0 -1.0
vn 0.0 0.0 -1.0
vn 0.0 0.0 -1.0
vn 0.0 0.0 -1.0
vn 1.0 -0.0 0.0
vn 1.0 -0.0 0.0
vn 1.0 -0.0 0.0
vn 1.0 -0.0 0.0
vn 0.0 0.0 -1.0
vn 0.0 0.0 -1.0
vn 0.0 0.0 -1.0
vn 0.0 0.0 -1.0
vn 1.0 -0.0 0.0
vn 1.0 -0.0 0.0
vn 1.0 -0.0 0.0
vn 1.0 -0.0 0.0
vn 0.0 0.0 1.0
vn 0.0 0.0 1.0
vn 0.0 0.0 1.0
vn 0.0 0.0 1.0
vn 0.0 1.0 0.0
vn 0.0 1.0 0.0
vn 0.0 1.0 0.0
vn 0.0 1.0 0.0
vn 0.0 1.0 0.0
vn 0.0 1.0 0.0
vn -0.0 -1.0 -0.0
vn -0.0 -1.0 -0.0
vn -0.0 -1.0 -0.0
vn -0.0 -1.0 -0.0
vn -0.0 -1.0 -0.0
vn -0.0 -1.0 -0.0
vn 0.0 0.0 -1.0
vn 0.0 0.0 -1.0
vn 0.0 0.0 -1.0
vn 0.0 0.0 -1.0
vn 1.0 -0.0 0.0
vn 1.0 -0.0 0.0
vn 1.0 -0.0 0.0
vn 1.0 -0.0 0.0
vn 0.0 0.0 1.0
vn 0.0 0.0 1.0
vn 0.0 0.0 1.0
vn 0.0 0.0 1.0
vn -1.0 0.0 0.0
vn -1.0 0.0 0.0
vn -1.0 0.0 0.0
vn -1.0 0.0 0.0
vn 0.0 1.0 0.0
vn 0.0 1.0 0.0
vn 0.0 1.0 0.0
vn 0.0 1.0 0.0
vn -0.0 -1.0 -0.0
vn -0.0 -1.0 -0.0
vn -0.0 -1.0 -0.0
vn -0.0 -1.0 -0.0
vn -1.0 0.0 0.0
vn -1.0 0.0 0.0
vn -1.0 0.0 0.0
vn -1.0 0.0 0.0
vn 0.0 0.0 -1.0
vn 0.0 0.0 -1.0
vn 0.0 0.0 -1.0
vn 0.0 0.0 -1.0
vn -1.0 0.0 0.0
vn -1.0 0.0 0.0
vn -1.0 0.0 0.0
vn -1.0 0.0 0.0
vn 0.0 0.0 -1.0
vn 0.0 0.0 -1.0
vn 0.0 0.0 -1.0
vn 0.0 0.0 -1.0
vn 1.0 -0.0 0.0
vn 1.0 -0.0 0.0
vn 1.0 -0.0 0.0
vn 1.0 -0.0 0.0
vn 0.0 0.0 -1.0
vn 0.0 0.0 -1.0
vn 0.0 0.0 -1.0
vn 0.0 0.0 -1.0
vn 1.0 -0.0 0.0
vn 1.0 -0.0 0.0
vn 1.0 -0.0 0.0
vn 1.0 -0.0 0.0
vn 0.0 0.0 1.0
vn 0.0 0.0 1.0
vn 0.0 0.0 1.0
vn 0.0 0.0 1.0
vn 0.0 1.0 0.0
vn 0.0 1.0 0.0
vn 0.0 1.0 0.0
vn 0.0 1.0 0.0
vn 0.0 1.0 0.0
vn 0.0 1.0 0.0
vn 0.0 1.0 0.0
vn 0.0 1.0 0.0
vn -0.0 -1.0 -0.0
vn -0.0 -1.0 -0.0
vn -0.0 -1.0 -0.0
vn -0.0 -1.0 -0.0
vn -0.0 -1.0 -0.0
vn -0.0 -1.0 -0.0
vn -0.0 -1.0 -0.0
vn -0.0 -1.0 -0.0
g 1ddf1924-e2bf-11ea-b725-54bf646e7e1f
f 1//1 2//2 4//4
f 4//4 2//2 3//3
g 1de0edfe-e2bf-11ea-96f5-54bf646e7e1f
f 5//5 6//6 8//8
f 8//8 6//6 7//7
g 1de29bf0-e2bf-11ea-9629-54bf646e7e1f
f 9//9 10//10 12//12
f 12//12 10//10 11//11
g 1de42286-e2bf-11ea-b5f4-54bf646e7e1f
f 13//13 14//14 16//16
f 16//16 14//14 15//15
g 1de5d052-e2bf-11ea-b1f5-54bf646e7e1f
f 22//22 17//17 21//21
f 21//21 17//17 18//18
f 21//21 18//18 19//19
f 19//19 20//20 21//21
g 1de7f376-e2bf-11ea-bb0b-54bf646e7e1f
f 23//23 24//24 30//30
f 30//30 24//24 29//29
f 29//29 24//24 25//25
f 29//29 25//25 28//28
f 28//28 25//25 27//27
f 27//27 25//25 26//26
g f40cc10c-e2be-11ea-b664-54bf646e7e1f
f 31//31 32//32 34//34
f 34//34 32//32 33//33
g 1d895246-e2bf-11ea-8d98-54bf646e7e1f
f 35//35 36//36 38//38
f 38//38 36//36 37//37
g 1d8bea86-e2bf-11ea-820e-54bf646e7e1f
f 39//39 40//40 43//43
f 43//43 40//40 41//41
f 43//43 41//41 42//42
g 1d8e0d8c-e2bf-11ea-9431-54bf646e7e1f
f 45//45 46//46 44//44
f 44//44 46//46 48//48
f 48//48 46//46 47//47
g 1d8fbb68-e2bf-11ea-89a1-54bf646e7e1f
f 49//49 50//50 52//52
f 52//52 50//50 51//51
g 1d919036-e2bf-11ea-8d0b-54bf646e7e1f
f 54//54 55//55 53//53
f 53//53 55//55 56//56
g 1dec1242-e2bf-11ea-8c37-54bf646e7e1f
f 66//66 57//57 60//60
f 60//60 57//57 58//58
f 60//60 58//58 59//59
f 60//60 61//61 66//66
f 66//66 61//61 65//65
f 65//65 61//61 64//64
f 64//64 61//61 63//63
f 63//63 61//61 62//62
g f40b8864-e2be-11ea-ba74-54bf646e7e1f
f 68//68 69//69 67//67
f 67//67 69//69 70//70
g f40ac50c-e2be-11ea-b6f6-54bf646e7e1f
f 71//71 72//72 74//74
f 74//74 72//72 73//73
g f40c24a6-e2be-11ea-bcd5-54bf646e7e1f
f 75//75 76//76 78//78
f 78//78 76//76 77//77
g f3d0c518-e2be-11ea-a730-54bf646e7e1f
f 79//79 80//80 88//88
f 88//88 80//80 87//87
f 87//87 80//80 81//81
f 87//87 81//81 82//82
f 87//87 82//82 86//86
f 86//86 82//82 83//83
f 86//86 83//83 85//85
f 85//85 83//83 84//84
g f3ce05d2-e2be-11ea-9a40-54bf646e7e1f
f 90//90 91//91 89//89
f 89//89 91//91 92//92
f 89//89 92//92 100//100
f 100//100 92//92 97//97
f 100//100 97//97 99//99
f 99//99 97//97 98//98
f 92//92 93//93 97//97
f 97//97 93//93 96//96
f 96//96 93//93 94//94
f 96//96 94//94 95//95
g f3cea214-e2be-11ea-8b3c-54bf646e7e1f
f 101//101 102//102 104//104
f 104//104 102//102 103//103
g f3cf1740-e2be-11ea-858e-54bf646e7e1f
f 105//105 106//106 108//108
f 108//108 106//106 107//107
g f3cfdaac-e2be-11ea-939d-54bf646e7e1f
f 109//109 110//110 112//112
f 112//112 110//110 111//111
g f3d1af8a-e2be-11ea-8dbb-54bf646e7e1f
f 114//114 115//115 113//113
f 113//113 115//115 116//116
g 1cc55914-e2bf-11ea-9384-54bf646e7e1f
f 117//117 118//118 120//120
f 120//120 118//118 119//119
g 1cc5f558-e2bf-11ea-883a-54bf646e7e1f
f 121//121 122//122 124//124
f 124//124 122//122 123//123
g 1cc66a90-e2bf-11ea-a4c4-54bf646e7e1f
f 125//125 126//126 128//128
f 128//128 126//126 127//127
g 1cc706e8-e2bf-11ea-b4f8-54bf646e7e1f
f 129//129 130//130 132//132
f 132//132 130//130 131//131
g 1cc7a326-e2bf-11ea-b226-54bf646e7e1f
f 133//133 134//134 136//136
f 136//136 134//134 135//135
g 1cc83f70-e2bf-11ea-94e4-54bf646e7e1f
f 137//137 138//138 140//140
f 140//140 138//138 139//139
g 1cc8dbbe-e2bf-11ea-80f2-54bf646e7e1f
f 146//146 141//141 144//144
f 144//144 141//141 142//142
f 144//144 142//142 143//143
f 144//144 145//145 146//146
g 1cc97814-e2bf-11ea-b6b4-54bf646e7e1f
f 152//152 147//147 151//151
f 151//151 147//147 148//148
f 151//151 148//148 149//149
f 149//149 150//150 151//151
g 1cfd83c0-e2bf-11ea-9667-54bf646e7e1f
f 153//153 154//154 156//156
f 156//156 154//154 155//155
g 1cfee362-e2bf-11ea-9faf-54bf646e7e1f
f 157//157 158//158 160//160
f 160//160 158//158 159//159
g 1cfff4ec-e2bf-11ea-88ac-54bf646e7e1f
f 161//161 162//162 164//164
f 164//164 162//162 163//163
g 1d012d80-e2bf-11ea-857d-54bf646e7e1f
f 165//165 166//166 168//168
f 168//168 166//166 167//167
g 1d026614-e2bf-11ea-8474-54bf646e7e1f
f 169//169 170//170 172//172
f 172//172 170//170 171//171
g 1d039ea8-e2bf-11ea-a4e0-54bf646e7e1f
f 174//174 175//175 173//173
f 173//173 175//175 176//176
g 1d414828-e2bf-11ea-b1bf-54bf646e7e1f
f 177//177 178//178 180//180
f 180//180 178//178 179//179
g 1d431cfa-e2bf-11ea-904a-54bf646e7e1f
f 181//181 182//182 184//184
f 184//184 182//182 183//183
g 1d44a3ae-e2bf-11ea-a3eb-54bf646e7e1f
f 185//185 186//186 188//188
f 188//188 186//186 187//187
g 1d45dc34-e2bf-11ea-8188-54bf646e7e1f
f 189//189 190//190 192//192
f 192//192 190//190 191//191
g 1d46eda6-e2bf-11ea-b4a5-54bf646e7e1f
f 193//193 194//194 196//196
f 196//196 194//194 195//195
g 1d47ff4a-e2bf-11ea-88aa-54bf646e7e1f
f 197//197 198//198 200//200
f 200//200 198//198 199//199
g 1d4910cc-e2bf-11ea-a257-54bf646e7e1f
f 201//201 202//202 204//204
f 204//204 202//202 203//203
g 1d4a2252-e2bf-11ea-8854-54bf646e7e1f
f 205//205 206//206 208//208
f 208//208 206//206 207//207
g 1d4b81e4-e2bf-11ea-87c0-54bf646e7e1f
f 210//210 212//212 209//209
f 209//209 212//212 215//215
f 209//209 215//215 216//216
f 210//210 211//211 212//212
f 212//212 213//213 215//215
f 215//215 213//213 214//214
g 1d4d7dcc-e2bf-11ea-a726-54bf646e7e1f
f 224//224 217//217 223//223
f 223//223 217//217 218//218
f 223//223 218//218 220//220
f 220//220 218//218 219//219
f 221//221 222//222 220//220
f 220//220 222//222 223//223

# End of file