# WaveFront *.obj file
# Vertices: 204
# Triangles : 116

v 14.536504745483398 1.3100272417068481 4.177558422088623
v 14.536504745483398 1.3100272417068481 -81.99598693847656
v 12.298290252685547 1.382346749305725 -81.65780639648438
v 10.09150505065918 1.4882577657699585 -81.16205596923828
v 10.09150505065918 1.4882577657699585 4.177558422088623
v 14.536504745483398 1.3100272417068481 -81.99598693847656
v 14.536504745483398 1.3100272417068481 4.177558422088623
v 14.536504745483398 0.0 4.177558422088623
v 14.536504745483398 0.0 -81.99598693847656
v 14.536504745483398 1.3100272417068481 4.177558422088623
v 10.09150505065918 1.4882577657699585 4.177558422088623
v 10.09150505065918 0.0 4.177558422088623
v 14.536504745483398 0.0 4.177558422088623
v 10.09150505065918 1.4882577657699585 4.177558422088623
v 10.09150505065918 1.4882577657699585 -81.16205596923828
v 10.09150505065918 0.0 -81.16205596923828
v 10.09150505065918 0.0 4.177558422088623
v 10.09150505065918 1.4882577657699585 -81.16205596923828
v 12.298290252685547 1.382346749305725 -81.65780639648438
v 14.536504745483398 1.3100272417068481 -81.99598693847656
v 14.536504745483398 0.0 -81.99598693847656
v 12.311637878417969 0.0 -81.66033172607422
v 10.09150505065918 0.0 -81.16205596923828
v 14.536504745483398 0.0 4.177558422088623
v 10.09150505065918 0.0 4.177558422088623
v 10.09150505065918 0.0 -81.16205596923828
v 12.311637878417969 0.0 -81.66033172607422
v 14.536504745483398 0.0 -81.99598693847656
v 37.39650344848633 2.5399999618530273 -76.23226165771484
v 34.89039993286133 2.250758171081543 -77.58617401123047
v 32.316505432128906 1.9890438318252563 -78.81155395507812
v 32.316505432128906 1.9890438318252563 4.177558422088623
v 37.39650344848633 2.5399999618530273 4.177558422088623
v 37.39650344848633 2.5399999618530273 4.177558422088623
v 32.316505432128906 1.9890438318252563 4.177558422088623
v 32.316505432128906 0.0 4.177558422088623
v 37.39650344848633 0.0 4.177558422088623
v 32.316505432128906 1.9890438318252563 4.177558422088623
v 32.316505432128906 1.9890438318252563 -78.81155395507812
v 32.316505432128906 0.0 -78.81155395507812
v 32.316505432128906 0.0 4.177558422088623
v 32.316505432128906 1.9890438318252563 -78.81155395507812
v 34.89039993286133 2.250758171081543 -77.58617401123047
v 37.39650344848633 2.5399999618530273 -76.23226165771484
v 37.39650344848633 0.0 -76.23226165771484
v 34.854095458984375 0.0 -77.60462951660156
v 32.316505432128906 0.0 -78.81155395507812
v 37.39650344848633 0.0 4.177558422088623
v 37.39650344848633 0.0 -76.23226165771484
v 37.39650344848633 2.5399999618530273 -76.23226165771484
v 37.39650344848633 2.5399999618530273 4.177558422088623
v 37.39650344848633 0.0 4.177558422088623
v 32.316505432128906 0.0 4.177558422088623
v 32.316505432128906 0.0 -78.81155395507812
v 34.854095458984375 0.0 -77.60462951660156
v 37.39650344848633 0.0 -76.23226165771484
v 20.25150489807129 1.2913291454315186 4.177558422088623
v 20.25150489807129 1.2913291454315186 -82.08163452148438
v 17.939863204956055 1.2699828147888184 -82.18244171142578
v 17.711502075195312 1.2699999809265137 -82.18244171142578
v 15.171504974365234 1.2961019277572632 -82.06102752685547
v 15.171504974365234 1.2961019277572632 4.177558422088623
v 17.939863204956055 1.2699828147888184 -82.18244171142578
v 20.25150489807129 1.2913291454315186 -82.08163452148438
v 20.25150489807129 0.0 -82.08163452148438
v 17.939863204956055 0.0 -82.18244171142578
v 20.25150489807129 1.2913291454315186 -82.08163452148438
v 20.25150489807129 1.2913291454315186 4.177558422088623
v 20.25150489807129 0.0 4.177558422088623
v 20.25150489807129 0.0 -82.08163452148438
v 20.25150489807129 1.2913291454315186 4.177558422088623
v 15.171504974365234 1.2961019277572632 4.177558422088623
v 15.171504974365234 0.0 4.177558422088623
v 20.25150489807129 0.0 4.177558422088623
v 15.171504974365234 1.2961019277572632 4.177558422088623
v 15.171504974365234 1.2961019277572632 -82.06102752685547
v 15.171504974365234 0.0 -82.06102752685547
v 15.171504974365234 0.0 4.177558422088623
v 15.171504974365234 1.2961019277572632 -82.06102752685547
v 17.711502075195312 1.2699999809265137 -82.18244171142578
v 17.711502075195312 0.0 -82.18244171142578
v 15.171504974365234 0.0 -82.06102752685547
v 17.711502075195312 1.2699999809265137 -82.18244171142578
v 17.939863204956055 1.2699828147888184 -82.18244171142578
v 17.939863204956055 0.0 -82.18244171142578
v 17.711502075195312 0.0 -82.18244171142578
v 20.25150489807129 0.0 4.177558422088623
v 15.171504974365234 0.0 4.177558422088623
v 15.171504974365234 0.0 -82.06102752685547
v 17.711502075195312 0.0 -82.18244171142578
v 17.939863204956055 0.0 -82.18244171142578
v 20.25150489807129 0.0 -82.08163452148438
v 9.456504821777344 1.5249240398406982 4.177558422088623
v 9.456504821777344 1.5249240398406982 -80.99036407470703
v 6.884259223937988 1.7008271217346191 -80.1663818359375
v 4.376504421234131 1.9131460189819336 -79.17140197753906
v 4.376504421234131 1.9131460189819336 4.177558422088623
v 9.456504821777344 1.5249240398406982 -80.99036407470703
v 9.456504821777344 1.5249240398406982 4.177558422088623
v 9.456504821777344 0.0 4.177558422088623
v 9.456504821777344 0.0 -80.99036407470703
v 9.456504821777344 1.5249240398406982 4.177558422088623
v 4.376504421234131 1.9131460189819336 4.177558422088623
v 4.376504421234131 0.0 4.177558422088623
v 9.456504821777344 0.0 4.177558422088623
v 4.376504421234131 1.9131460189819336 4.177558422088623
v 4.376504421234131 1.9131460189819336 -79.17140197753906
v 4.376504421234131 0.0 -79.17140197753906
v 4.376504421234131 0.0 4.177558422088623
v 4.376504421234131 1.9131460189819336 -79.17140197753906
v 6.884259223937988 1.7008271217346191 -80.1663818359375
v 9.456504821777344 1.5249240398406982 -80.99036407470703
v 9.456504821777344 0.0 -80.99036407470703
v 6.913707256317139 0.0 -80.17697143554688
v 4.376504421234131 0.0 -79.17140197753906
v 9.456504821777344 0.0 4.177558422088623
v 4.376504421234131 0.0 4.177558422088623
v 4.376504421234131 0.0 -79.17140197753906
v 6.913707256317139 0.0 -80.17697143554688
v 9.456504821777344 0.0 -80.99036407470703
v 31.68150520324707 1.9301139116287231 4.177558422088623
v 31.68150520324707 1.9301139116287231 -79.0875244140625
v 29.17125701904297 1.7197320461273193 -80.07292938232422
v 26.601505279541016 1.5432246923446655 -80.89998626708984
v 26.601505279541016 1.5432246923446655 4.177558422088623
v 31.68150520324707 1.9301139116287231 -79.0875244140625
v 31.68150520324707 1.9301139116287231 4.177558422088623
v 31.68150520324707 0.0 4.177558422088623
v 31.68150520324707 0.0 -79.0875244140625
v 31.68150520324707 1.9301139116287231 4.177558422088623
v 26.601505279541016 1.5432246923446655 4.177558422088623
v 26.601505279541016 0.0 4.177558422088623
v 31.68150520324707 0.0 4.177558422088623
v 26.601505279541016 1.5432246923446655 4.177558422088623
v 26.601505279541016 1.5432246923446655 -80.89998626708984
v 26.601505279541016 0.0 -80.89998626708984
v 26.601505279541016 0.0 4.177558422088623
v 26.601505279541016 1.5432246923446655 -80.89998626708984
v 29.17125701904297 1.7197320461273193 -80.07292938232422
v 31.68150520324707 1.9301139116287231 -79.0875244140625
v 31.68150520324707 0.0 -79.0875244140625
v 29.13886260986328 0.0 -80.08453369140625
v 26.601505279541016 0.0 -80.89998626708984
v 31.68150520324707 0.0 4.177558422088623
v 26.601505279541016 0.0 4.177558422088623
v 26.601505279541016 0.0 -80.89998626708984
v 29.13886260986328 0.0 -80.08453369140625
v 31.68150520324707 0.0 -79.0875244140625
v 25.96650505065918 1.5059382915496826 4.177558422088623
v 25.96650505065918 1.5059382915496826 -81.07476043701172
v 23.446170806884766 1.3838306665420532 -81.64733123779297
v 20.886505126953125 1.3039796352386475 -82.02216339111328
v 20.886505126953125 1.3039796352386475 4.177558422088623
v 25.96650505065918 1.5059382915496826 -81.07476043701172
v 25.96650505065918 1.5059382915496826 4.177558422088623
v 25.96650505065918 0.0 4.177558422088623
v 25.96650505065918 0.0 -81.07476043701172
v 25.96650505065918 1.5059382915496826 4.177558422088623
v 20.886505126953125 1.3039796352386475 4.177558422088623
v 20.886505126953125 0.0 4.177558422088623
v 25.96650505065918 0.0 4.177558422088623
v 20.886505126953125 1.3039796352386475 4.177558422088623
v 20.886505126953125 1.3039796352386475 -82.02216339111328
v 20.886505126953125 0.0 -82.02216339111328
v 20.886505126953125 0.0 4.177558422088623
v 20.886505126953125 1.3039796352386475 -82.02216339111328
v 23.446170806884766 1.3838306665420532 -81.64733123779297
v 25.96650505065918 1.5059382915496826 -81.07476043701172
v 25.96650505065918 0.0 -81.07476043701172
v 23.42350196838379 0.0 -81.65159606933594
v 20.886505126953125 0.0 -82.02216339111328
v 25.96650505065918 0.0 4.177558422088623
v 20.886505126953125 0.0 4.177558422088623
v 20.886505126953125 0.0 -82.02216339111328
v 23.42350196838379 0.0 -81.65159606933594
v 25.96650505065918 0.0 -81.07476043701172
v 3.741504669189453 1.9731025695800781 4.177558422088623
v 3.741504669189453 1.9731025695800781 -78.89037322998047
v 1.1632936000823975 2.2416014671325684 -77.63160705566406
v -1.3384953737258911 2.5399999618530273 -76.23226165771484
v -1.3384953737258911 2.5399999618530273 4.177558422088623
v 3.741504669189453 1.9731025695800781 4.177558422088623
v -1.3384953737258911 2.5399999618530273 4.177558422088623
v -1.3384953737258911 0.0 4.177558422088623
v 3.741504669189453 0.0 4.177558422088623
v -1.3384953737258911 0.0 -76.23226165771484
v -1.3384953737258911 0.0 4.177558422088623
v -1.3384953737258911 2.5399999618530273 4.177558422088623
v -1.3384953737258911 2.5399999618530273 -76.23226165771484
v -1.3384953737258911 2.5399999618530273 -76.23226165771484
v 1.1632936000823975 2.2416014671325684 -77.63160705566406
v 3.741504669189453 1.9731025695800781 -78.89037322998047
v 3.741504669189453 0.0 -78.89037322998047
v 1.1989151239395142 0.0 -77.6502685546875
v -1.3384953737258911 0.0 -76.23226165771484
v 3.741504669189453 1.9731025695800781 -78.89037322998047
v 3.741504669189453 1.9731025695800781 4.177558422088623
v 3.741504669189453 0.0 4.177558422088623
v 3.741504669189453 0.0 -78.89037322998047
v 3.741504669189453 0.0 4.177558422088623
v -1.3384953737258911 0.0 4.177558422088623
v -1.3384953737258911 0.0 -76.23226165771484
v 1.1989151239395142 0.0 -77.6502685546875
v 3.741504669189453 0.0 -78.89037322998047
vn 0.02423623763024807 0.9997062683105469 4.4589869887288564e-18
vn 0.02423623763024807 0.9997062683105469 4.4589869887288564e-18
vn 0.04026540368795395 0.999189019203186 8.761138878956434e-18
vn 0.0555071085691452 0.9984582662582397 1.0215560623841072e-17
vn 0.0555071085691452 0.9984582662582397 1.0215560623841072e-17
vn 1.0 -0.0 1.7466436630364512e-10
vn 1.0 -0.0 1.7466436630364512e-10
vn 1.0 -0.0 1.7466436630364512e-10
vn 1.0 -0.0 1.7466436630364512e-10
vn -3.996303298030361e-16 0.0 1.0
vn -3.996303298030361e-16 0.0 1.0
vn -3.996303298030361e-16 0.0 1.0
vn -3.996303298030361e-16 0.0 1.0
vn -1.0 0.0 0.0
vn -1.0 0.0 0.0
vn -1.0 0.0 0.0
vn -1.0 0.0 0.0
vn -0.25190630555152893 0.0 -0.9677516222000122
vn -0.18528561294078827 0.0 -0.9826847314834595
vn -0.1125468909740448 0.0 -0.9936464428901672
vn -0.1125468909740448 0.0 -0.9936464428901672
vn -0.1848660260438919 0.0 -0.9827637076377869
vn -0.25190630555152893 0.0 -0.9677516222000122
vn -0.0 -1.0 -0.0
vn -0.0 -1.0 -0.0
vn -0.0 -1.0 -0.0
vn -0.0 -1.0 -0.0
vn -0.0 -1.0 -0.0
vn -0.1211995854973793 0.9926281571388245 -1.7844484458836973e-17
vn -0.10805979371070862 0.9941443800926208 -1.5909884368365302e-17
vn -0.09416300058364868 0.9955567717552185 -1.535421752007668e-17
vn -0.09416300058364868 0.9955567717552185 -1.535421752007668e-17
vn -0.1211995854973793 0.9926281571388245 -1.7844484458836973e-17
vn 1.7483826763446707e-16 -0.0 1.0
vn 1.7483826763446707e-16 -0.0 1.0
vn 1.7483826763446707e-16 -0.0 1.0
vn 1.7483826763446707e-16 -0.0 1.0
vn -1.0 0.0 -8.561878514017922e-17
vn -1.0 0.0 -8.561878514017922e-17
vn -1.0 0.0 -8.561878514017922e-17
vn -1.0 0.0 -8.561878514017922e-17
vn 0.40497004985809326 0.0 -0.9143299460411072
vn 0.45352092385292053 0.0 -0.8912456035614014
vn 0.49616628885269165 0.0 -0.868227481842041
vn 0.49616628885269165 0.0 -0.868227481842041
vn 0.4528724253177643 0.0 -0.8915753364562988
vn 0.40497004985809326 0.0 -0.9143299460411072
vn 1.0 0.0 -1.7673034071528617e-16
vn 1.0 0.0 -1.7673034071528617e-16
vn 1.0 0.0 -1.7673034071528617e-16
vn 1.0 0.0 -1.7673034071528617e-16
vn -0.0 -1.0 -0.0
vn -0.0 -1.0 -0.0
vn -0.0 -1.0 -0.0
vn -0.0 -1.0 -0.0
vn -0.0 -1.0 -0.0
vn -0.017638204619288445 0.9998444318771362 -3.788900795799143e-18
vn -0.017638204619288445 0.9998444318771362 -3.788900795799143e-18
vn -0.000765966484323144 0.9999997019767761 -1.4106042817776907e-19
vn 0.0009167186799459159 0.9999995827674866 1.354824778886855e-19
vn 0.019607722759246826 0.9998077750205994 3.585614542819336e-18
vn 0.019607722759246826 0.9998077750205994 3.585614542819336e-18
vn 0.003941086120903492 0.0 -0.9999922513961792
vn 0.08269473910331726 0.0 -0.9965749382972717
vn 0.08269473910331726 0.0 -0.9965749382972717
vn 0.003941086120903492 0.0 -0.9999922513961792
vn 1.0 -0.0 4.118649067804017e-17
vn 1.0 -0.0 4.118649067804017e-17
vn 1.0 -0.0 4.118649067804017e-17
vn 1.0 -0.0 4.118649067804017e-17
vn -1.7483826763446707e-16 0.0 1.0
vn -1.7483826763446707e-16 0.0 1.0
vn -1.7483826763446707e-16 0.0 1.0
vn -1.7483826763446707e-16 0.0 1.0
vn -1.0 0.0 -7.531903573054777e-11
vn -1.0 0.0 -7.531903573054777e-11
vn -1.0 0.0 -7.531903573054777e-11
vn -1.0 0.0 -7.531903573054777e-11
vn -0.09117157012224197 0.0 -0.9958351850509644
vn -0.003942220006138086 0.0 -0.9999922513961792
vn -0.003942220006138086 0.0 -0.9999922513961792
vn -0.09117157012224197 0.0 -0.9958351850509644
vn -1.7354716774775625e-08 0.0 -1.0
vn -1.7354716774775625e-08 0.0 -1.0
vn -1.7354716774775625e-08 0.0 -1.0
vn -1.7354716774775625e-08 0.0 -1.0
vn -0.0 -1.0 -0.0
vn -0.0 -1.0 -0.0
vn -0.0 -1.0 -0.0
vn -0.0 -1.0 -0.0
vn -0.0 -1.0 -0.0
vn -0.0 -1.0 -0.0
vn 0.0597759410738945 0.9982118010520935 1.1025131388333458e-17
vn 0.0597759410738945 0.9982118010520935 1.1025131388333458e-17
vn 0.07652577012777328 0.9970676302909851 1.4457075625675143e-17
vn 0.09208077192306519 0.9957515597343445 1.609866849084583e-17
vn 0.09208077192306519 0.9957515597343445 1.609866849084583e-17
vn 1.0 -0.0 2.0857112645702052e-17
vn 1.0 -0.0 2.0857112645702052e-17
vn 1.0 -0.0 2.0857112645702052e-17
vn 1.0 -0.0 2.0857112645702052e-17
vn -1.7483826763446707e-16 0.0 1.0
vn -1.7483826763446707e-16 0.0 1.0
vn -1.7483826763446707e-16 0.0 1.0
vn -1.7483826763446707e-16 0.0 1.0
vn -1.0 0.0 -4.2624570642743213e-17
vn -1.0 0.0 -4.2624570642743213e-17
vn -1.0 0.0 -4.2624570642743213e-17
vn -1.0 0.0 -4.2624570642743213e-17
vn -0.3976806402206421 0.0 -0.9175239205360413
vn -0.3383883237838745 0.0 -0.9410065412521362
vn -0.2700154185295105 0.0 -0.9628559947013855
vn -0.2700154185295105 0.0 -0.9628559947013855
vn -0.3376500904560089 0.0 -0.9412717223167419
vn -0.3976806402206421 0.0 -0.9175239205360413
vn -0.0 -1.0 -0.0
vn -0.0 -1.0 -0.0
vn -0.0 -1.0 -0.0
vn -0.0 -1.0 -0.0
vn -0.0 -1.0 -0.0
vn -0.09064164757728577 0.995883584022522 -1.539773383774187e-17
vn -0.09064164757728577 0.995883584022522 -1.539773383774187e-17
vn -0.07625631988048553 0.9970882534980774 -1.550651636009872e-17
vn -0.060622438788414 0.9981607794761658 -9.505432685409198e-18
vn -0.060622438788414 0.9981607794761658 -9.505432685409198e-18
vn 1.0 -0.0 4.2667507933979616e-17
vn 1.0 -0.0 4.2667507933979616e-17
vn 1.0 -0.0 4.2667507933979616e-17
vn 1.0 -0.0 4.2667507933979616e-17
vn 0.0 0.0 1.0
vn 0.0 0.0 1.0
vn 0.0 0.0 1.0
vn 0.0 0.0 1.0
vn -1.0 0.0 4.1758532393734894e-17
vn -1.0 0.0 4.1758532393734894e-17
vn -1.0 0.0 4.1758532393734894e-17
vn -1.0 0.0 4.1758532393734894e-17
vn 0.2737772762775421 0.0 -0.9617931246757507
vn 0.33728882670402527 0.0 -0.9414012432098389
vn 0.39210912585258484 0.0 -0.9199187159538269
vn 0.39210912585258484 0.0 -0.9199187159538269
vn 0.3365367352962494 0.0 -0.9416703581809998
vn 0.2737772762775421 0.0 -0.9617931246757507
vn -0.0 -1.0 -0.0
vn -0.0 -1.0 -0.0
vn -0.0 -1.0 -0.0
vn -0.0 -1.0 -0.0
vn -0.0 -1.0 -0.0
vn -0.056602366268634796 0.9983968138694763 -9.685959063834608e-18
vn -0.056602366268634796 0.9983968138694763 -9.685959063834608e-18
vn -0.04001414030790329 0.9991990923881531 -8.428572568040714e-18
vn -0.022190462797880173 0.9997537732124329 -4.659777637800591e-18
vn -0.022190462797880173 0.9997537732124329 -4.659777637800591e-18
vn 1.0 -0.0 0.0
vn 1.0 -0.0 0.0
vn 1.0 -0.0 0.0
vn 1.0 -0.0 0.0
vn -1.7483826763446707e-16 0.0 1.0
vn -1.7483826763446707e-16 0.0 1.0
vn -1.7483826763446707e-16 0.0 1.0
vn -1.7483826763446707e-16 0.0 1.0
vn -1.0 0.0 -1.1948037004216872e-10
vn -1.0 0.0 -1.1948037004216872e-10
vn -1.0 0.0 -1.1948037004216872e-10
vn -1.0 0.0 -1.1948037004216872e-10
vn 0.1037440225481987 0.0 -0.9946040511131287
vn 0.1846330761909485 0.0 -0.9828075170516968
vn 0.2568366527557373 0.0 -0.966454803943634
vn 0.2568366527557373 0.0 -0.966454803943634
vn 0.1839483082294464 0.0 -0.982935905456543
vn 0.1037440225481987 0.0 -0.9946040511131287
vn -0.0 -1.0 -0.0
vn -0.0 -1.0 -0.0
vn -0.0 -1.0 -0.0
vn -0.0 -1.0 -0.0
vn -0.0 -1.0 -0.0
vn 0.0959160327911377 0.9953894019126892 1.7231131688990128e-17
vn 0.0959160327911377 0.9953894019126892 1.7231131688990128e-17
vn 0.11116603016853333 0.9938018321990967 1.9436075910340054e-17
vn 0.1256721317768097 0.992071807384491 2.1972299349572568e-17
vn 0.1256721317768097 0.992071807384491 2.1972299349572568e-17
vn -1.7483826763446707e-16 0.0 1.0
vn -1.7483826763446707e-16 0.0 1.0
vn -1.7483826763446707e-16 0.0 1.0
vn -1.7483826763446707e-16 0.0 1.0
vn -1.0 0.0 0.0
vn -1.0 0.0 0.0
vn -1.0 0.0 0.0
vn -1.0 0.0 0.0
vn -0.5107793211936951 0.0 -0.8597118258476257
vn -0.4644816219806671 0.0 -0.8855827450752258
vn -0.41163912415504456 0.0 -0.9113469123840332
vn -0.41163912415504456 0.0 -0.9113469123840332
vn -0.46378985047340393 0.0 -0.8859452605247498
vn -0.5107793211936951 0.0 -0.8597118258476257
vn 1.0 -0.0 2.2453607293004103e-16
vn 1.0 -0.0 2.2453607293004103e-16
vn 1.0 -0.0 2.2453607293004103e-16
vn 1.0 -0.0 2.2453607293004103e-16
vn -0.0 -1.0 -0.0
vn -0.0 -1.0 -0.0
vn -0.0 -1.0 -0.0
vn -0.0 -1.0 -0.0
vn -0.0 -1.0 -0.0
g dae7c80a-e2c1-11ea-855f-54bf646e7e1f
f 2//2 3//3 1//1
f 1//1 3//3 5//5
f 5//5 3//3 4//4
g d96fff38-e2c1-11ea-bb58-54bf646e7e1f
f 7//7 8//8 6//6
f 6//6 8//8 9//9
g d970c2da-e2c1-11ea-b8d6-54bf646e7e1f
f 11//11 12//12 10//10
f 10//10 12//12 13//13
g d96e7766-e2c1-11ea-9743-54bf646e7e1f
f 14//14 15//15 17//17
f 17//17 15//15 16//16
g d96f3b2e-e2c1-11ea-ac86-54bf646e7e1f
f 18//18 19//19 23//23
f 23//23 19//19 22//22
f 22//22 19//19 20//20
f 22//22 20//20 21//21
g d972c040-e2c1-11ea-bc2f-54bf646e7e1f
f 28//28 24//24 27//27
f 27//27 24//24 25//25
f 27//27 25//25 26//26
g daebc218-e2c1-11ea-ac58-54bf646e7e1f
f 29//29 30//30 33//33
f 33//33 30//30 32//32
f 32//32 30//30 31//31
g d978ddfa-e2c1-11ea-82a5-54bf646e7e1f
f 34//34 35//35 37//37
f 37//37 35//35 36//36
g d9742076-e2c1-11ea-bda9-54bf646e7e1f
f 38//38 39//39 41//41
f 41//41 39//39 40//40
g d97559f4-e2c1-11ea-9599-54bf646e7e1f
f 47//47 42//42 46//46
f 46//46 42//42 43//43
f 46//46 43//43 45//45
f 45//45 43//43 44//44
g d9770852-e2c1-11ea-a0a2-54bf646e7e1f
f 48//48 49//49 51//51
f 51//51 49//49 50//50
g d97ed53a-e2c1-11ea-9e25-54bf646e7e1f
f 56//56 52//52 55//55
f 55//55 52//52 53//53
f 55//55 53//53 54//54
g daf0f55e-e2c1-11ea-9ed8-54bf646e7e1f
f 58//58 59//59 57//57
f 57//57 59//59 60//60
f 57//57 60//60 62//62
f 62//62 60//60 61//61
g d986f022-e2c1-11ea-bd93-54bf646e7e1f
f 64//64 65//65 63//63
f 63//63 65//65 66//66
g d988ed5a-e2c1-11ea-8cf1-54bf646e7e1f
f 67//67 68//68 70//70
f 70//70 68//68 69//69
g d98a9be4-e2c1-11ea-bd17-54bf646e7e1f
f 72//72 73//73 71//71
f 71//71 73//73 74//74
g d9814768-e2c1-11ea-a7e3-54bf646e7e1f
f 75//75 76//76 78//78
f 78//78 76//76 77//77
g d9831d40-e2c1-11ea-84ff-54bf646e7e1f
f 79//79 80//80 82//82
f 82//82 80//80 81//81
g d9851a4c-e2c1-11ea-b086-54bf646e7e1f
f 83//83 84//84 86//86
f 86//86 84//84 85//85
g d98ebd06-e2c1-11ea-9a21-54bf646e7e1f
f 88//88 90//90 87//87
f 87//87 90//90 91//91
f 87//87 91//91 92//92
f 88//88 89//89 90//90
g dafa49a4-e2c1-11ea-985e-54bf646e7e1f
f 94//94 95//95 93//93
f 93//93 95//95 97//97
f 97//97 95//95 96//96
g d99550d0-e2c1-11ea-89b2-54bf646e7e1f
f 98//98 99//99 101//101
f 101//101 99//99 100//100
g d997c31c-e2c1-11ea-b551-54bf646e7e1f
f 103//103 104//104 102//102
f 102//102 104//104 105//105
g d990e136-e2c1-11ea-bc65-54bf646e7e1f
f 106//106 107//107 109//109
f 109//109 107//107 108//108
g d9930580-e2c1-11ea-adba-54bf646e7e1f
f 110//110 111//111 115//115
f 115//115 111//111 114//114
f 114//114 111//111 112//112
f 114//114 112//112 113//113
g d99ccf14-e2c1-11ea-9cf7-54bf646e7e1f
f 120//120 116//116 119//119
f 119//119 116//116 117//117
f 119//119 117//117 118//118
g db021680-e2c1-11ea-b46f-54bf646e7e1f
f 122//122 123//123 121//121
f 121//121 123//123 125//125
f 125//125 123//123 124//124
g d9a5d500-e2c1-11ea-aebb-54bf646e7e1f
f 126//126 127//127 129//129
f 129//129 127//127 128//128
g d9a90b58-e2c1-11ea-b2e0-54bf646e7e1f
f 130//130 131//131 133//133
f 133//133 131//131 132//132
g d99fb6f4-e2c1-11ea-96b6-54bf646e7e1f
f 134//134 135//135 137//137
f 137//137 135//135 136//136
g d9a2c614-e2c1-11ea-84d7-54bf646e7e1f
f 143//143 138//138 142//142
f 142//142 138//138 139//139
f 142//142 139//139 141//141
f 141//141 139//139 140//140
g d9b39914-e2c1-11ea-b49d-54bf646e7e1f
f 148//148 144//144 147//147
f 147//147 144//144 145//145
f 147//147 145//145 146//146
g db0e5306-e2c1-11ea-8fa9-54bf646e7e1f
f 150//150 151//151 149//149
f 149//149 151//151 153//153
f 153//153 151//151 152//152
g d9bf86e2-e2c1-11ea-a3f1-54bf646e7e1f
f 155//155 156//156 154//154
f 154//154 156//156 157//157
g d9c30b8c-e2c1-11ea-aef3-54bf646e7e1f
f 158//158 159//159 161//161
f 161//161 159//159 160//160
g d9b744b6-e2c1-11ea-bd05-54bf646e7e1f
f 162//162 163//163 165//165
f 165//165 163//163 164//164
g d9bc0264-e2c1-11ea-8f5e-54bf646e7e1f
f 171//171 166//166 170//170
f 170//170 166//166 167//167
f 170//170 167//167 169//169
f 169//169 167//167 168//168
g d9ca3bba-e2c1-11ea-8095-54bf646e7e1f
f 176//176 172//172 175//175
f 175//175 172//172 173//173
f 175//175 173//173 174//174
g db17591e-e2c1-11ea-971a-54bf646e7e1f
f 178//178 179//179 177//177
f 177//177 179//179 181//181
f 181//181 179//179 180//180
g d9e0b748-e2c1-11ea-8bc3-54bf646e7e1f
f 183//183 184//184 182//182
f 182//182 184//184 185//185
g d9ced24a-e2c1-11ea-994c-54bf646e7e1f
f 186//186 187//187 189//189
f 189//189 187//187 188//188
g d9d4c946-e2c1-11ea-ad51-54bf646e7e1f
f 190//190 191//191 195//195
f 195//195 191//191 194//194
f 194//194 191//191 192//192
f 194//194 192//192 193//193
g d9db0e90-e2c1-11ea-9357-54bf646e7e1f
f 196//196 197//197 199//199
f 199//199 197//197 198//198
g d9ea0bba-e2c1-11ea-b189-54bf646e7e1f
f 204//204 200//200 203//203
f 203//203 200//200 201//201
f 203//203 201//201 202//202

# End of file