# WaveFront *.obj file
# Vertices: 230
# Triangles : 220

v -0.25 -0.25 3.0616171314629196e-17
v -0.2414814531803131 -0.25 0.0647047609090805
v -0.21650634706020355 -0.25 0.125
v -0.1767766922712326 -0.25 0.1767766922712326
v -0.125 -0.25 0.21650634706020355
v -0.0647047609090805 -0.25 0.2414814531803131
v 1.5308085657314598e-17 -0.25 0.25
v 0.0647047609090805 -0.25 0.2414814531803131
v 0.125 -0.25 0.21650634706020355
v 0.1767766922712326 -0.25 0.1767766922712326
v 0.21650634706020355 -0.25 0.125
v 0.2414814531803131 -0.25 0.0647047609090805
v 0.25 -0.25 0.0
v 0.2414814531803131 -0.25 -0.0647047609090805
v 0.21650634706020355 -0.25 -0.125
v 0.1767766922712326 -0.25 -0.1767766922712326
v 0.125 -0.25 -0.21650634706020355
v 0.0647047609090805 -0.25 -0.2414814531803131
v 1.5308085657314598e-17 -0.25 -0.25
v -0.0647047609090805 -0.25 -0.2414814531803131
v -0.125 -0.25 -0.21650634706020355
v -0.1767766922712326 -0.25 -0.1767766922712326
v -0.21650634706020355 -0.25 -0.125
v -0.2414814531803131 -0.25 -0.0647047609090805
v -0.25 -0.25 -4.0
v 0.25 -0.25 -4.0
v 0.25 -0.25 -0.4330126941204071
v 0.32614371180534363 -0.25 -0.37898585200309753
v 0.39091575145721436 -0.25 -0.31174489855766296
v 0.44205769896507263 -0.25 -0.23363430798053741
v 0.4777863919734955 -0.25 -0.14737758040428162
v 0.49685609340667725 -0.25 -0.05598223954439163
v 0.49860191345214844 -0.25 0.03736504539847374
v 0.4829629063606262 -0.25 0.129409521818161
v 0.45048442482948303 -0.25 0.21694186329841614
v 0.4022988975048065 -0.25 0.2969101071357727
v 0.3400863707065582 -0.25 0.36652594804763794
v 0.26601603627204895 -0.25 0.4233621060848236
v 0.18267051875591278 -0.25 0.4654368758201599
v 0.0929558053612709 -0.25 0.49128323793411255
v -1.3877787807814457e-16 -0.25 0.5
v -0.0929558053612709 -0.25 0.49128323793411255
v -0.18267051875591278 -0.25 0.4654368758201599
v -0.26601603627204895 -0.25 0.4233621060848236
v -0.3400863707065582 -0.25 0.36652594804763794
v -0.4022988975048065 -0.25 0.2969101071357727
v -0.45048442482948303 -0.25 0.21694186329841614
v -0.4829629063606262 -0.25 0.129409521818161
v -0.49860191345214844 -0.25 0.03736504539847374
v -0.49685609340667725 -0.25 -0.05598223954439163
v -0.4777863919734955 -0.25 -0.14737758040428162
v -0.44205769896507263 -0.25 -0.23363430798053741
v -0.39091575145721436 -0.25 -0.31174489855766296
v -0.32614371180534363 -0.25 -0.37898585200309753
v -0.25 -0.25 -0.4330126941204071
v -0.25 -0.25 3.0616171314629196e-17
v -0.2414814531803131 -0.25 -0.0647047609090805
v -0.21650634706020355 -0.25 -0.125
v -0.1767766922712326 -0.25 -0.1767766922712326
v -0.125 -0.25 -0.21650634706020355
v -0.0647047609090805 -0.25 -0.2414814531803131
v 1.5308085657314598e-17 -0.25 -0.25
v 0.0647047609090805 -0.25 -0.2414814531803131
v 0.125 -0.25 -0.21650634706020355
v 0.1767766922712326 -0.25 -0.1767766922712326
v 0.21650634706020355 -0.25 -0.125
v 0.2414814531803131 -0.25 -0.0647047609090805
v 0.25 -0.25 0.0
v 0.2414814531803131 -0.25 0.0647047609090805
v 0.21650634706020355 -0.25 0.125
v 0.1767766922712326 -0.25 0.1767766922712326
v 0.125 -0.25 0.21650634706020355
v 0.0647047609090805 -0.25 0.2414814531803131
v 1.5308085657314598e-17 -0.25 0.25
v -0.0647047609090805 -0.25 0.2414814531803131
v -0.125 -0.25 0.21650634706020355
v -0.1767766922712326 -0.25 0.1767766922712326
v -0.21650634706020355 -0.25 0.125
v -0.2414814531803131 -0.25 0.0647047609090805
v -0.25 0.25 3.0616171314629196e-17
v -0.2414814531803131 0.25 0.0647047609090805
v -0.21650634706020355 0.25 0.125
v -0.1767766922712326 0.25 0.1767766922712326
v -0.125 0.25 0.21650634706020355
v -0.0647047609090805 0.25 0.2414814531803131
v 1.5308085657314598e-17 0.25 0.25
v 0.0647047609090805 0.25 0.2414814531803131
v 0.125 0.25 0.21650634706020355
v 0.1767766922712326 0.25 0.1767766922712326
v 0.21650634706020355 0.25 0.125
v 0.2414814531803131 0.25 0.0647047609090805
v 0.25 0.25 0.0
v 0.2414814531803131 0.25 -0.0647047609090805
v 0.21650634706020355 0.25 -0.125
v 0.1767766922712326 0.25 -0.1767766922712326
v 0.125 0.25 -0.21650634706020355
v 0.0647047609090805 0.25 -0.2414814531803131
v 1.5308085657314598e-17 0.25 -0.25
v -0.0647047609090805 0.25 -0.2414814531803131
v -0.125 0.25 -0.21650634706020355
v -0.1767766922712326 0.25 -0.1767766922712326
v -0.21650634706020355 0.25 -0.125
v -0.2414814531803131 0.25 -0.0647047609090805
v -0.25 0.25 3.0616171314629196e-17
v -0.25 -0.25 3.0616171314629196e-17
v 0.25 -0.25 -4.0
v 0.25 0.25 -4.0
v 0.25 0.25 -0.4330126941204071
v 0.25 -0.25 -0.4330126941204071
v 0.25 -0.25 -0.4330126941204071
v 0.25 0.25 -0.4330126941204071
v 0.32614371180534363 0.25 -0.37898585200309753
v 0.39091575145721436 0.25 -0.31174489855766296
v 0.44205769896507263 0.25 -0.23363430798053741
v 0.4777863919734955 0.25 -0.14737758040428162
v 0.49685609340667725 0.25 -0.05598223954439163
v 0.49860191345214844 0.25 0.03736504539847374
v 0.4829629063606262 0.25 0.129409521818161
v 0.45048442482948303 0.25 0.21694186329841614
v 0.4022988975048065 0.25 0.2969101071357727
v 0.3400863707065582 0.25 0.36652594804763794
v 0.26601603627204895 0.25 0.4233621060848236
v 0.18267051875591278 0.25 0.4654368758201599
v 0.0929558053612709 0.25 0.49128323793411255
v -1.3877787807814457e-16 0.25 0.5
v -0.0929558053612709 0.25 0.49128323793411255
v -0.18267051875591278 0.25 0.4654368758201599
v -0.26601603627204895 0.25 0.4233621060848236
v -0.3400863707065582 0.25 0.36652594804763794
v -0.4022988975048065 0.25 0.2969101071357727
v -0.45048442482948303 0.25 0.21694186329841614
v -0.4829629063606262 0.25 0.129409521818161
v -0.49860191345214844 0.25 0.03736504539847374
v -0.49685609340667725 0.25 -0.05598223954439163
v -0.4777863919734955 0.25 -0.14737758040428162
v -0.44205769896507263 0.25 -0.23363430798053741
v -0.39091575145721436 0.25 -0.31174489855766296
v -0.32614371180534363 0.25 -0.37898585200309753
v -0.25 0.25 -0.4330126941204071
v -0.25 -0.25 -0.4330126941204071
v -0.32614371180534363 -0.25 -0.37898585200309753
v -0.39091575145721436 -0.25 -0.31174489855766296
v -0.44205769896507263 -0.25 -0.23363430798053741
v -0.4777863919734955 -0.25 -0.14737758040428162
v -0.49685609340667725 -0.25 -0.05598223954439163
v -0.49860191345214844 -0.25 0.03736504539847374
v -0.4829629063606262 -0.25 0.129409521818161
v -0.45048442482948303 -0.25 0.21694186329841614
v -0.4022988975048065 -0.25 0.2969101071357727
v -0.3400863707065582 -0.25 0.36652594804763794
v -0.26601603627204895 -0.25 0.4233621060848236
v -0.18267051875591278 -0.25 0.4654368758201599
v -0.0929558053612709 -0.25 0.49128323793411255
v -1.3877787807814457e-16 -0.25 0.5
v 0.0929558053612709 -0.25 0.49128323793411255
v 0.18267051875591278 -0.25 0.4654368758201599
v 0.26601603627204895 -0.25 0.4233621060848236
v 0.3400863707065582 -0.25 0.36652594804763794
v 0.4022988975048065 -0.25 0.2969101071357727
v 0.45048442482948303 -0.25 0.21694186329841614
v 0.4829629063606262 -0.25 0.129409521818161
v 0.49860191345214844 -0.25 0.03736504539847374
v 0.49685609340667725 -0.25 -0.05598223954439163
v 0.4777863919734955 -0.25 -0.14737758040428162
v 0.44205769896507263 -0.25 -0.23363430798053741
v 0.39091575145721436 -0.25 -0.31174489855766296
v 0.32614371180534363 -0.25 -0.37898585200309753
v -0.25 -0.25 -0.4330126941204071
v -0.25 0.25 -0.4330126941204071
v -0.25 0.25 -4.0
v -0.25 -0.25 -4.0
v -0.25 -0.25 -4.0
v -0.25 0.25 -4.0
v 0.25 0.25 -4.0
v 0.25 -0.25 -4.0
v -0.25 0.25 3.0616171314629196e-17
v -0.2414814531803131 0.25 -0.0647047609090805
v -0.21650634706020355 0.25 -0.125
v -0.1767766922712326 0.25 -0.1767766922712326
v -0.125 0.25 -0.21650634706020355
v -0.0647047609090805 0.25 -0.2414814531803131
v 1.5308085657314598e-17 0.25 -0.25
v 0.0647047609090805 0.25 -0.2414814531803131
v 0.125 0.25 -0.21650634706020355
v 0.1767766922712326 0.25 -0.1767766922712326
v 0.21650634706020355 0.25 -0.125
v 0.2414814531803131 0.25 -0.0647047609090805
v 0.25 0.25 0.0
v 0.2414814531803131 0.25 0.0647047609090805
v 0.21650634706020355 0.25 0.125
v 0.1767766922712326 0.25 0.1767766922712326
v 0.125 0.25 0.21650634706020355
v 0.0647047609090805 0.25 0.2414814531803131
v 1.5308085657314598e-17 0.25 0.25
v -0.0647047609090805 0.25 0.2414814531803131
v -0.125 0.25 0.21650634706020355
v -0.1767766922712326 0.25 0.1767766922712326
v -0.21650634706020355 0.25 0.125
v -0.2414814531803131 0.25 0.0647047609090805
v 0.25 0.25 -4.0
v -0.25 0.25 -4.0
v -0.25 0.25 -0.4330126941204071
v -0.32614371180534363 0.25 -0.37898585200309753
v -0.39091575145721436 0.25 -0.31174489855766296
v -0.44205769896507263 0.25 -0.23363430798053741
v -0.4777863919734955 0.25 -0.14737758040428162
v -0.49685609340667725 0.25 -0.05598223954439163
v -0.49860191345214844 0.25 0.03736504539847374
v -0.4829629063606262 0.25 0.129409521818161
v -0.45048442482948303 0.25 0.21694186329841614
v -0.4022988975048065 0.25 0.2969101071357727
v -0.3400863707065582 0.25 0.36652594804763794
v -0.26601603627204895 0.25 0.4233621060848236
v -0.18267051875591278 0.25 0.4654368758201599
v -0.0929558053612709 0.25 0.49128323793411255
v -1.3877787807814457e-16 0.25 0.5
v 0.0929558053612709 0.25 0.49128323793411255
v 0.18267051875591278 0.25 0.4654368758201599
v 0.26601603627204895 0.25 0.4233621060848236
v 0.3400863707065582 0.25 0.36652594804763794
v 0.4022988975048065 0.25 0.2969101071357727
v 0.45048442482948303 0.25 0.21694186329841614
v 0.4829629063606262 0.25 0.129409521818161
v 0.49860191345214844 0.25 0.03736504539847374
v 0.49685609340667725 0.25 -0.05598223954439163
v 0.4777863919734955 0.25 -0.14737758040428162
v 0.44205769896507263 0.25 -0.23363430798053741
v 0.39091575145721436 0.25 -0.31174489855766296
v 0.32614371180534363 0.25 -0.37898585200309753
v 0.25 0.25 -0.4330126941204071
vn -0.0 -1.0 -0.0
vn -0.0 -1.0 -0.0
vn -0.0 -1.0 -0.0
vn -0.0 -1.0 -0.0
vn -0.0 -1.0 -0.0
vn -0.0 -1.0 -0.0
vn -0.0 -1.0 -0.0
vn -0.0 -1.0 -0.0
vn -0.0 -1.0 -0.0
vn -0.0 -1.0 -0.0
vn -0.0 -1.0 -0.0
vn -0.0 -1.0 -0.0
vn -0.0 -1.0 -0.0
vn -0.0 -1.0 -0.0
vn -0.0 -1.0 -0.0
vn -0.0 -1.0 -0.0
vn -0.0 -1.0 -0.0
vn -0.0 -1.0 -0.0
vn -0.0 -1.0 -0.0
vn -0.0 -1.0 -0.0
vn -0.0 -1.0 -0.0
vn -0.0 -1.0 -0.0
vn -0.0 -1.0 -0.0
vn -0.0 -1.0 -0.0
vn -0.0 -1.0 -0.0
vn -0.0 -1.0 -0.0
vn -0.0 -1.0 -0.0
vn -0.0 -1.0 -0.0
vn -0.0 -1.0 -0.0
vn -0.0 -1.0 -0.0
vn -0.0 -1.0 -0.0
vn -0.0 -1.0 -0.0
vn -0.0 -1.0 -0.0
vn -0.0 -1.0 -0.0
vn -0.0 -1.0 -0.0
vn -0.0 -1.0 -0.0
vn -0.0 -1.0 -0.0
vn -0.0 -1.0 -0.0
vn -0.0 -1.0 -0.0
vn -0.0 -1.0 -0.0
vn -0.0 -1.0 -0.0
vn -0.0 -1.0 -0.0
vn -0.0 -1.0 -0.0
vn -0.0 -1.0 -0.0
vn -0.0 -1.0 -0.0
vn -0.0 -1.0 -0.0
vn -0.0 -1.0 -0.0
vn -0.0 -1.0 -0.0
vn -0.0 -1.0 -0.0
vn -0.0 -1.0 -0.0
vn -0.0 -1.0 -0.0
vn -0.0 -1.0 -0.0
vn -0.0 -1.0 -0.0
vn -0.0 -1.0 -0.0
vn -0.0 -1.0 -0.0
vn 1.0 -0.0 1.2246468525851679e-16
vn 0.9659258127212524 -0.0 0.258819043636322
vn 0.8660253882408142 -0.0 0.5
vn 0.7071067690849304 -0.0 0.7071067690849304
vn 0.5 -0.0 0.8660253882408142
vn 0.258819043636322 -0.0 0.9659258127212524
vn -6.123234262925839e-17 0.0 1.0
vn -0.258819043636322 0.0 0.9659258127212524
vn -0.5 0.0 0.8660253882408142
vn -0.7071067690849304 0.0 0.7071067690849304
vn -0.8660253882408142 0.0 0.5
vn -0.9659258127212524 0.0 0.258819043636322
vn -1.0 0.0 0.0
vn -0.9659258127212524 0.0 -0.258819043636322
vn -0.8660253882408142 0.0 -0.5
vn -0.7071067690849304 0.0 -0.7071067690849304
vn -0.5 0.0 -0.8660253882408142
vn -0.258819043636322 0.0 -0.9659258127212524
vn -6.123234262925839e-17 0.0 -1.0
vn 0.258819043636322 0.0 -0.9659258127212524
vn 0.5 0.0 -0.8660253882408142
vn 0.7071067690849304 0.0 -0.7071067690849304
vn 0.8660253882408142 0.0 -0.5
vn 0.9659258127212524 0.0 -0.258819043636322
vn 1.0 0.0 -1.2246468525851679e-16
vn 0.9659258127212524 0.0 -0.258819043636322
vn 0.8660253882408142 0.0 -0.5
vn 0.7071067690849304 0.0 -0.7071067690849304
vn 0.5 0.0 -0.8660253882408142
vn 0.258819043636322 0.0 -0.9659258127212524
vn -6.123234262925839e-17 0.0 -1.0
vn -0.258819043636322 0.0 -0.9659258127212524
vn -0.5 0.0 -0.8660253882408142
vn -0.7071067690849304 0.0 -0.7071067690849304
vn -0.8660253882408142 0.0 -0.5
vn -0.9659258127212524 0.0 -0.258819043636322
vn -1.0 0.0 0.0
vn -0.9659258127212524 0.0 0.258819043636322
vn -0.8660253882408142 0.0 0.5
vn -0.7071067690849304 0.0 0.7071067690849304
vn -0.5 0.0 0.8660253882408142
vn -0.258819043636322 0.0 0.9659258127212524
vn -6.123234262925839e-17 0.0 1.0
vn 0.258819043636322 -0.0 0.9659258127212524
vn 0.5 -0.0 0.8660253882408142
vn 0.7071067690849304 -0.0 0.7071067690849304
vn 0.8660253882408142 -0.0 0.5
vn 0.9659258127212524 -0.0 0.258819043636322
vn 1.0 -0.0 1.2246468525851679e-16
vn 1.0 0.0 -1.2246468525851679e-16
vn 1.0 0.0 0.0
vn 1.0 0.0 0.0
vn 1.0 0.0 0.0
vn 1.0 0.0 0.0
vn 0.5 -0.0 -0.8660253882408142
vn 0.5 -0.0 -0.8660253882408142
vn 0.6522874236106873 -0.0 -0.7579717040061951
vn 0.7818315029144287 -0.0 -0.6234897971153259
vn 0.8841153979301453 -0.0 -0.46726861596107483
vn 0.955572783946991 -0.0 -0.29475516080856323
vn 0.9937121868133545 -0.0 -0.11196447908878326
vn 0.9972038269042969 -0.0 0.07473009079694748
vn 0.9659258127212524 -0.0 0.258819043636322
vn 0.9009688496589661 -0.0 0.4338837265968323
vn 0.804597795009613 -0.0 0.5938202142715454
vn 0.6801727414131165 -0.0 0.7330518960952759
vn 0.5320320725440979 -0.0 0.8467242121696472
vn 0.36534103751182556 -0.0 0.9308737516403198
vn 0.1859116107225418 -0.0 0.9825664758682251
vn -5.551115123125783e-17 -0.0 1.0
vn -0.1859116107225418 -0.0 0.9825664758682251
vn -0.36534103751182556 -0.0 0.9308737516403198
vn -0.5320320725440979 -0.0 0.8467242121696472
vn -0.6801727414131165 -0.0 0.7330518960952759
vn -0.804597795009613 -0.0 0.5938202142715454
vn -0.9009688496589661 -0.0 0.4338837265968323
vn -0.9659258127212524 -0.0 0.258819043636322
vn -0.9972038269042969 -0.0 0.07473009079694748
vn -0.9937121868133545 0.0 -0.11196447908878326
vn -0.955572783946991 0.0 -0.29475516080856323
vn -0.8841153979301453 0.0 -0.46726861596107483
vn -0.7818315029144287 0.0 -0.6234897971153259
vn -0.6522874236106873 0.0 -0.7579717040061951
vn -0.5 0.0 -0.8660253882408142
vn -0.5 0.0 -0.8660253882408142
vn -0.6522874236106873 0.0 -0.7579717040061951
vn -0.7818315029144287 0.0 -0.6234897971153259
vn -0.8841153979301453 0.0 -0.46726861596107483
vn -0.955572783946991 0.0 -0.29475516080856323
vn -0.9937121868133545 0.0 -0.11196447908878326
vn -0.9972038269042969 -0.0 0.07473009079694748
vn -0.9659258127212524 -0.0 0.258819043636322
vn -0.9009688496589661 -0.0 0.4338837265968323
vn -0.804597795009613 -0.0 0.5938202142715454
vn -0.6801727414131165 -0.0 0.7330518960952759
vn -0.5320320725440979 -0.0 0.8467242121696472
vn -0.36534103751182556 -0.0 0.9308737516403198
vn -0.1859116107225418 -0.0 0.9825664758682251
vn -5.551115123125783e-17 -0.0 1.0
vn 0.1859116107225418 -0.0 0.9825664758682251
vn 0.36534103751182556 -0.0 0.9308737516403198
vn 0.5320320725440979 -0.0 0.8467242121696472
vn 0.6801727414131165 -0.0 0.7330518960952759
vn 0.804597795009613 -0.0 0.5938202142715454
vn 0.9009688496589661 -0.0 0.4338837265968323
vn 0.9659258127212524 -0.0 0.258819043636322
vn 0.9972038269042969 -0.0 0.07473009079694748
vn 0.9937121868133545 -0.0 -0.11196447908878326
vn 0.955572783946991 -0.0 -0.29475516080856323
vn 0.8841153979301453 -0.0 -0.46726861596107483
vn 0.7818315029144287 -0.0 -0.6234897971153259
vn 0.6522874236106873 -0.0 -0.7579717040061951
vn -1.0 0.0 0.0
vn -1.0 0.0 0.0
vn -1.0 0.0 0.0
vn -1.0 0.0 0.0
vn 0.0 0.0 -1.0
vn 0.0 0.0 -1.0
vn 0.0 0.0 -1.0
vn 0.0 0.0 -1.0
vn 0.0 1.0 0.0
vn 0.0 1.0 0.0
vn 0.0 1.0 0.0
vn 0.0 1.0 0.0
vn 0.0 1.0 0.0
vn 0.0 1.0 0.0
vn 0.0 1.0 0.0
vn 0.0 1.0 0.0
vn 0.0 1.0 0.0
vn 0.0 1.0 0.0
vn 0.0 1.0 0.0
vn 0.0 1.0 0.0
vn 0.0 1.0 0.0
vn 0.0 1.0 0.0
vn 0.0 1.0 0.0
vn 0.0 1.0 0.0
vn 0.0 1.0 0.0
vn 0.0 1.0 0.0
vn 0.0 1.0 0.0
vn 0.0 1.0 0.0
vn 0.0 1.0 0.0
vn 0.0 1.0 0.0
vn 0.0 1.0 0.0
vn 0.0 1.0 0.0
vn 0.0 1.0 0.0
vn 0.0 1.0 0.0
vn 0.0 1.0 0.0
vn 0.0 1.0 0.0
vn 0.0 1.0 0.0
vn 0.0 1.0 0.0
vn 0.0 1.0 0.0
vn 0.0 1.0 0.0
vn 0.0 1.0 0.0
vn 0.0 1.0 0.0
vn 0.0 1.0 0.0
vn 0.0 1.0 0.0
vn 0.0 1.0 0.0
vn 0.0 1.0 0.0
vn 0.0 1.0 0.0
vn 0.0 1.0 0.0
vn 0.0 1.0 0.0
vn 0.0 1.0 0.0
vn 0.0 1.0 0.0
vn 0.0 1.0 0.0
vn 0.0 1.0 0.0
vn 0.0 1.0 0.0
vn 0.0 1.0 0.0
vn 0.0 1.0 0.0
vn 0.0 1.0 0.0
vn 0.0 1.0 0.0
vn 0.0 1.0 0.0
vn 0.0 1.0 0.0
vn 0.0 1.0 0.0
vn 0.0 1.0 0.0
vn 0.0 1.0 0.0
g ce3a1918-e2c2-11ea-b21f-54bf646e7e1f
f 2//2 45//45 1//1
f 1//1 45//45 46//46
f 1//1 46//46 53//53
f 53//53 46//46 52//52
f 52//52 46//46 47//47
f 52//52 47//47 51//51
f 51//51 47//47 48//48
f 51//51 48//48 50//50
f 50//50 48//48 49//49
f 45//45 2//2 44//44
f 44//44 2//2 3//3
f 44//44 3//3 4//4
f 44//44 4//4 43//43
f 43//43 4//4 5//5
f 43//43 5//5 42//42
f 42//42 5//5 6//6
f 42//42 6//6 41//41
f 41//41 6//6 7//7
f 41//41 7//7 8//8
f 41//41 8//8 40//40
f 40//40 8//8 9//9
f 40//40 9//9 39//39
f 39//39 9//9 10//10
f 39//39 10//10 38//38
f 38//38 10//10 11//11
f 38//38 11//11 12//12
f 38//38 12//12 37//37
f 37//37 12//12 13//13
f 37//37 13//13 36//36
f 36//36 13//13 29//29
f 36//36 29//29 30//30
f 29//29 13//13 28//28
f 28//28 13//13 14//14
f 28//28 14//14 27//27
f 27//27 14//14 15//15
f 27//27 15//15 16//16
f 16//16 17//17 27//27
f 27//27 17//17 18//18
f 27//27 18//18 19//19
f 20//20 55//55 19//19
f 19//19 55//55 26//26
f 19//19 26//26 27//27
f 20//20 21//21 55//55
f 55//55 21//21 22//22
f 55//55 22//22 23//23
f 23//23 24//24 55//55
f 55//55 24//24 54//54
f 54//54 24//24 1//1
f 54//54 1//1 53//53
f 25//25 26//26 55//55
f 36//36 30//30 35//35
f 35//35 30//30 31//31
f 35//35 31//31 34//34
f 34//34 31//31 32//32
f 34//34 32//32 33//33
g ce3adc9c-e2c2-11ea-a019-54bf646e7e1f
f 57//57 103//103 56//56
f 56//56 103//103 104//104
f 105//105 80//80 79//79
f 79//79 80//80 81//81
f 79//79 81//81 78//78
f 78//78 81//81 82//82
f 78//78 82//82 77//77
f 77//77 82//82 83//83
f 77//77 83//83 76//76
f 76//76 83//83 84//84
f 76//76 84//84 75//75
f 75//75 84//84 85//85
f 75//75 85//85 74//74
f 74//74 85//85 86//86
f 74//74 86//86 73//73
f 73//73 86//86 87//87
f 73//73 87//87 72//72
f 72//72 87//87 88//88
f 72//72 88//88 71//71
f 71//71 88//88 89//89
f 71//71 89//89 70//70
f 70//70 89//89 90//90
f 70//70 90//90 69//69
f 69//69 90//90 91//91
f 69//69 91//91 68//68
f 68//68 91//91 92//92
f 68//68 92//92 67//67
f 67//67 92//92 93//93
f 67//67 93//93 66//66
f 66//66 93//93 94//94
f 66//66 94//94 65//65
f 65//65 94//94 95//95
f 65//65 95//95 64//64
f 64//64 95//95 96//96
f 64//64 96//96 63//63
f 63//63 96//96 97//97
f 63//63 97//97 62//62
f 62//62 97//97 98//98
f 62//62 98//98 61//61
f 61//61 98//98 99//99
f 61//61 99//99 60//60
f 60//60 99//99 100//100
f 60//60 100//100 59//59
f 59//59 100//100 101//101
f 59//59 101//101 58//58
f 58//58 101//101 102//102
f 58//58 102//102 57//57
f 57//57 102//102 103//103
g ce3bc73e-e2c2-11ea-9d5e-54bf646e7e1f
f 107//107 108//108 106//106
f 106//106 108//108 109//109
g ce3cb1e2-e2c2-11ea-9f51-54bf646e7e1f
f 110//110 111//111 167//167
f 167//167 111//111 112//112
f 167//167 112//112 166//166
f 166//166 112//112 113//113
f 166//166 113//113 165//165
f 165//165 113//113 114//114
f 165//165 114//114 164//164
f 164//164 114//114 115//115
f 164//164 115//115 163//163
f 163//163 115//115 116//116
f 163//163 116//116 162//162
f 162//162 116//116 117//117
f 162//162 117//117 161//161
f 161//161 117//117 118//118
f 161//161 118//118 160//160
f 160//160 118//118 119//119
f 160//160 119//119 159//159
f 159//159 119//119 120//120
f 159//159 120//120 158//158
f 158//158 120//120 121//121
f 158//158 121//121 157//157
f 157//157 121//121 122//122
f 157//157 122//122 156//156
f 156//156 122//122 123//123
f 156//156 123//123 155//155
f 155//155 123//123 124//124
f 155//155 124//124 154//154
f 154//154 124//124 125//125
f 154//154 125//125 153//153
f 153//153 125//125 126//126
f 153//153 126//126 152//152
f 152//152 126//126 127//127
f 152//152 127//127 151//151
f 151//151 127//127 128//128
f 151//151 128//128 150//150
f 150//150 128//128 129//129
f 150//150 129//129 149//149
f 149//149 129//129 130//130
f 149//149 130//130 148//148
f 148//148 130//130 131//131
f 148//148 131//131 147//147
f 147//147 131//131 132//132
f 147//147 132//132 146//146
f 146//146 132//132 133//133
f 146//146 133//133 145//145
f 145//145 133//133 134//134
f 145//145 134//134 144//144
f 144//144 134//134 135//135
f 144//144 135//135 143//143
f 143//143 135//135 136//136
f 143//143 136//136 142//142
f 142//142 136//136 137//137
f 142//142 137//137 141//141
f 141//141 137//137 138//138
f 141//141 138//138 140//140
f 140//140 138//138 139//139
g ce3d9c74-e2c2-11ea-ac19-54bf646e7e1f
f 169//169 170//170 168//168
f 168//168 170//170 171//171
g ce3e8724-e2c2-11ea-9ad2-54bf646e7e1f
f 173//173 174//174 172//172
f 172//172 174//174 175//175
g ce3f71ec-e2c2-11ea-a8c3-54bf646e7e1f
f 177//177 203//203 176//176
f 176//176 203//203 204//204
f 176//176 204//204 211//211
f 211//211 204//204 205//205
f 211//211 205//205 210//210
f 210//210 205//205 206//206
f 210//210 206//206 209//209
f 209//209 206//206 207//207
f 209//209 207//207 208//208
f 203//203 177//177 202//202
f 202//202 177//177 178//178
f 202//202 178//178 179//179
f 179//179 180//180 202//202
f 202//202 180//180 181//181
f 202//202 181//181 182//182
f 183//183 230//230 182//182
f 182//182 230//230 201//201
f 182//182 201//201 202//202
f 183//183 184//184 230//230
f 230//230 184//184 185//185
f 230//230 185//185 186//186
f 186//186 187//187 230//230
f 230//230 187//187 229//229
f 229//229 187//187 188//188
f 229//229 188//188 228//228
f 228//228 188//188 221//221
f 228//228 221//221 227//227
f 227//227 221//221 222//222
f 227//227 222//222 226//226
f 226//226 222//222 223//223
f 226//226 223//223 225//225
f 225//225 223//223 224//224
f 221//221 188//188 220//220
f 220//220 188//188 189//189
f 220//220 189//189 219//219
f 219//219 189//189 190//190
f 219//219 190//190 191//191
f 219//219 191//191 218//218
f 218//218 191//191 192//192
f 218//218 192//192 217//217
f 217//217 192//192 193//193
f 217//217 193//193 216//216
f 216//216 193//193 194//194
f 216//216 194//194 195//195
f 216//216 195//195 215//215
f 215//215 195//195 196//196
f 215//215 196//196 214//214
f 214//214 196//196 197//197
f 214//214 197//197 213//213
f 213//213 197//197 198//198
f 213//213 198//198 199//199
f 213//213 199//199 212//212
f 212//212 199//199 176//176
f 212//212 176//176 211//211
f 200//200 201//201 230//230

# End of file