# WaveFront *.obj file
# Vertices: 204
# Triangles : 184

v 8.692158699035645 0.0 0.5
v 8.692158699035645 0.20000000298023224 0.5
v -5.551115123125783e-17 0.20000000298023224 0.5
v -6.123234262925839e-17 0.0 0.5
v 8.90000057220459 0.0 0.5
v 8.839381217956543 0.0 0.39500436186790466
v 8.813180923461914 0.0 0.3730197548866272
v 8.77897834777832 0.0 0.3730197548866272
v 8.752778053283691 0.0 0.39500436186790466
v 8.692158699035645 0.0 0.5
v -6.123234262925839e-17 0.0 0.5
v -0.129409521818161 0.0 0.4829629063606262
v -0.25 0.0 0.4330126941204071
v -0.3535533845424652 0.0 0.3535533845424652
v -0.4330126941204071 0.0 0.25
v -0.4829629063606262 0.0 0.129409521818161
v -0.5 0.0 -3.0616171314629196e-17
v -0.4829629063606262 0.0 -0.129409521818161
v -0.4330126941204071 0.0 -0.25
v -0.3535533845424652 0.0 -0.3535533845424652
v -0.25 0.0 -0.4330126941204071
v -0.129409521818161 0.0 -0.4829629063606262
v 0.0 0.0 -0.5
v 8.6900053024292 0.0 -0.7896668910980225
v 8.785067558288574 0.0 -0.7775198817253113
v 8.871448516845703 0.0 -0.7360151410102844
v 8.940333366394043 0.0 -0.6693880558013916
v 8.984692573547363 0.0 -0.5844378471374512
v 9.0 0.0 -0.48983338475227356
v 9.0 0.0 0.5
v -0.375 0.0 4.5924253663221344e-17
v -0.35664618015289307 0.0 0.11588137596845627
v -0.30338138341903687 0.0 0.22041946649551392
v -0.22041946649551392 0.0 0.30338138341903687
v -0.11588137596845627 0.0 0.35664618015289307
v 2.2962126831610672e-17 0.0 0.375
v 0.11588137596845627 0.0 0.35664618015289307
v 0.22041946649551392 0.0 0.30338138341903687
v 0.30338138341903687 0.0 0.22041946649551392
v 0.35664618015289307 0.0 0.11588137596845627
v 0.375 0.0 0.0
v 0.35664618015289307 0.0 -0.11588137596845627
v 0.30338138341903687 0.0 -0.22041946649551392
v 0.22041946649551392 0.0 -0.30338138341903687
v 0.11588137596845627 0.0 -0.35664618015289307
v 2.2962126831610672e-17 0.0 -0.375
v -0.11588137596845627 0.0 -0.35664618015289307
v -0.22041946649551392 0.0 -0.30338138341903687
v -0.30338138341903687 0.0 -0.22041946649551392
v -0.35664618015289307 0.0 -0.11588137596845627
v 8.752778053283691 0.20000000298023224 0.39500436186790466
v 8.692158699035645 0.20000000298023224 0.5
v 8.692158699035645 0.0 0.5
v 8.752778053283691 0.0 0.39500436186790466
v 8.6900053024292 0.0 -0.7896668910980225
v 0.0 0.0 -0.5
v 0.0 0.20000000298023224 -0.5
v 8.6900053024292 0.20000000298023224 -0.7896668910980225
v 0.0 0.0 -0.5
v -0.129409521818161 0.0 -0.4829629063606262
v -0.25 0.0 -0.4330126941204071
v -0.3535533845424652 0.0 -0.3535533845424652
v -0.4330126941204071 0.0 -0.25
v -0.4829629063606262 0.0 -0.129409521818161
v -0.5 0.0 -3.0616171314629196e-17
v -0.4829629063606262 0.0 0.129409521818161
v -0.4330126941204071 0.0 0.25
v -0.3535533845424652 0.0 0.3535533845424652
v -0.25 0.0 0.4330126941204071
v -0.129409521818161 0.0 0.4829629063606262
v -6.123234262925839e-17 0.0 0.5
v -5.551115123125783e-17 0.20000000298023224 0.5
v -0.129409521818161 0.20000000298023224 0.4829629063606262
v -0.25 0.20000000298023224 0.4330126941204071
v -0.3535533845424652 0.20000000298023224 0.3535533845424652
v -0.4330126941204071 0.20000000298023224 0.25
v -0.4829629063606262 0.20000000298023224 0.129409521818161
v -0.5 0.20000000298023224 -3.0616171314629196e-17
v -0.4829629063606262 0.20000000298023224 -0.129409521818161
v -0.4330126941204071 0.20000000298023224 -0.25
v -0.3535533845424652 0.20000000298023224 -0.3535533845424652
v -0.25 0.20000000298023224 -0.4330126941204071
v -0.129409521818161 0.20000000298023224 -0.4829629063606262
v 0.0 0.20000000298023224 -0.5
v 8.90000057220459 0.20000000298023224 0.5
v 8.839381217956543 0.20000000298023224 0.39500436186790466
v 8.839381217956543 0.0 0.39500436186790466
v 8.90000057220459 0.0 0.5
v 8.839381217956543 0.20000000298023224 0.39500436186790466
v 8.813180923461914 0.20000000298023224 0.3730197548866272
v 8.77897834777832 0.20000000298023224 0.3730197548866272
v 8.752778053283691 0.20000000298023224 0.39500436186790466
v 8.752778053283691 0.0 0.39500436186790466
v 8.77897834777832 0.0 0.3730197548866272
v 8.813180923461914 0.0 0.3730197548866272
v 8.839381217956543 0.0 0.39500436186790466
v -0.375 0.20000000298023224 4.5924253663221344e-17
v -0.35664618015289307 0.20000000298023224 0.11588137596845627
v -0.30338138341903687 0.20000000298023224 0.22041946649551392
v -0.22041946649551392 0.20000000298023224 0.30338138341903687
v -0.11588137596845627 0.20000000298023224 0.35664618015289307
v 2.2962126831610672e-17 0.20000000298023224 0.375
v 0.11588137596845627 0.20000000298023224 0.35664618015289307
v 0.22041946649551392 0.20000000298023224 0.30338138341903687
v 0.30338138341903687 0.20000000298023224 0.22041946649551392
v 0.35664618015289307 0.20000000298023224 0.11588137596845627
v 0.375 0.20000000298023224 0.0
v 0.35664618015289307 0.20000000298023224 -0.11588137596845627
v 0.30338138341903687 0.20000000298023224 -0.22041946649551392
v 0.22041946649551392 0.20000000298023224 -0.30338138341903687
v 0.11588137596845627 0.20000000298023224 -0.35664618015289307
v 2.2962126831610672e-17 0.20000000298023224 -0.375
v -0.11588137596845627 0.20000000298023224 -0.35664618015289307
v -0.22041946649551392 0.20000000298023224 -0.30338138341903687
v -0.30338138341903687 0.20000000298023224 -0.22041946649551392
v -0.35664618015289307 0.20000000298023224 -0.11588137596845627
v -0.375 0.0 4.5924253663221344e-17
v -0.35664618015289307 0.0 -0.11588137596845627
v -0.30338138341903687 0.0 -0.22041946649551392
v -0.22041946649551392 0.0 -0.30338138341903687
v -0.11588137596845627 0.0 -0.35664618015289307
v 2.2962126831610672e-17 0.0 -0.375
v 0.11588137596845627 0.0 -0.35664618015289307
v 0.22041946649551392 0.0 -0.30338138341903687
v 0.30338138341903687 0.0 -0.22041946649551392
v 0.35664618015289307 0.0 -0.11588137596845627
v 0.375 0.0 0.0
v 0.35664618015289307 0.0 0.11588137596845627
v 0.30338138341903687 0.0 0.22041946649551392
v 0.22041946649551392 0.0 0.30338138341903687
v 0.11588137596845627 0.0 0.35664618015289307
v 2.2962126831610672e-17 0.0 0.375
v -0.11588137596845627 0.0 0.35664618015289307
v -0.22041946649551392 0.0 0.30338138341903687
v -0.30338138341903687 0.0 0.22041946649551392
v -0.35664618015289307 0.0 0.11588137596845627
v -0.375 0.20000000298023224 4.5924253663221344e-17
v -0.375 0.0 4.5924253663221344e-17
v 9.0 0.0 0.5
v 9.0 0.0 -0.48983338475227356
v 9.0 0.20000000298023224 -0.48983338475227356
v 9.0 0.20000000298023224 0.5
v 8.90000057220459 0.20000000298023224 0.5
v 8.90000057220459 0.0 0.5
v 9.0 0.0 0.5
v 9.0 0.20000000298023224 0.5
v 9.0 0.0 -0.48983338475227356
v 8.984692573547363 0.0 -0.5844378471374512
v 8.940333366394043 0.0 -0.6693880558013916
v 8.871448516845703 0.0 -0.7360151410102844
v 8.785067558288574 0.0 -0.7775198817253113
v 8.6900053024292 0.0 -0.7896668910980225
v 8.6900053024292 0.20000000298023224 -0.7896668910980225
v 8.785067558288574 0.20000000298023224 -0.7775198817253113
v 8.871448516845703 0.20000000298023224 -0.7360151410102844
v 8.940333366394043 0.20000000298023224 -0.6693880558013916
v 8.984692573547363 0.20000000298023224 -0.5844378471374512
v 9.0 0.20000000298023224 -0.48983338475227356
v 8.839381217956543 0.20000000298023224 0.39500436186790466
v 8.90000057220459 0.20000000298023224 0.5
v 9.0 0.20000000298023224 0.5
v 9.0 0.20000000298023224 -0.48983338475227356
v 8.984692573547363 0.20000000298023224 -0.5844378471374512
v 8.940333366394043 0.20000000298023224 -0.6693880558013916
v 8.871448516845703 0.20000000298023224 -0.7360151410102844
v 8.785067558288574 0.20000000298023224 -0.7775198817253113
v 8.6900053024292 0.20000000298023224 -0.7896668910980225
v 0.0 0.20000000298023224 -0.5
v -0.129409521818161 0.20000000298023224 -0.4829629063606262
v -0.25 0.20000000298023224 -0.4330126941204071
v -0.3535533845424652 0.20000000298023224 -0.3535533845424652
v -0.4330126941204071 0.20000000298023224 -0.25
v -0.4829629063606262 0.20000000298023224 -0.129409521818161
v -0.5 0.20000000298023224 -3.0616171314629196e-17
v -0.4829629063606262 0.20000000298023224 0.129409521818161
v -0.4330126941204071 0.20000000298023224 0.25
v -0.3535533845424652 0.20000000298023224 0.3535533845424652
v -0.25 0.20000000298023224 0.4330126941204071
v -0.129409521818161 0.20000000298023224 0.4829629063606262
v -5.551115123125783e-17 0.20000000298023224 0.5
v 8.692158699035645 0.20000000298023224 0.5
v 8.752778053283691 0.20000000298023224 0.39500436186790466
v 8.77897834777832 0.20000000298023224 0.3730197548866272
v 8.813180923461914 0.20000000298023224 0.3730197548866272
v -0.375 0.20000000298023224 4.5924253663221344e-17
v -0.35664618015289307 0.20000000298023224 -0.11588137596845627
v -0.30338138341903687 0.20000000298023224 -0.22041946649551392
v -0.22041946649551392 0.20000000298023224 -0.30338138341903687
v -0.11588137596845627 0.20000000298023224 -0.35664618015289307
v 2.2962126831610672e-17 0.20000000298023224 -0.375
v 0.11588137596845627 0.20000000298023224 -0.35664618015289307
v 0.22041946649551392 0.20000000298023224 -0.30338138341903687
v 0.30338138341903687 0.20000000298023224 -0.22041946649551392
v 0.35664618015289307 0.20000000298023224 -0.11588137596845627
v 0.375 0.20000000298023224 0.0
v 0.35664618015289307 0.20000000298023224 0.11588137596845627
v 0.30338138341903687 0.20000000298023224 0.22041946649551392
v 0.22041946649551392 0.20000000298023224 0.30338138341903687
v 0.11588137596845627 0.20000000298023224 0.35664618015289307
v 2.2962126831610672e-17 0.20000000298023224 0.375
v -0.11588137596845627 0.20000000298023224 0.35664618015289307
v -0.22041946649551392 0.20000000298023224 0.30338138341903687
v -0.30338138341903687 0.20000000298023224 0.22041946649551392
v -0.35664618015289307 0.20000000298023224 0.11588137596845627
vn -8.278422947149977e-10 0.0 1.0
vn -8.278422947149977e-10 0.0 1.0
vn -8.278422947149977e-10 0.0 1.0
vn -8.278422947149977e-10 0.0 1.0
vn -0.0 -1.0 -0.0
vn -0.0 -1.0 -0.0
vn -0.0 -1.0 -0.0
vn -0.0 -1.0 -0.0
vn -0.0 -1.0 -0.0
vn -0.0 -1.0 -0.0
vn -0.0 -1.0 -0.0
vn -0.0 -1.0 -0.0
vn -0.0 -1.0 -0.0
vn -0.0 -1.0 -0.0
vn -0.0 -1.0 -0.0
vn -0.0 -1.0 -0.0
vn -0.0 -1.0 -0.0
vn -0.0 -1.0 -0.0
vn -0.0 -1.0 -0.0
vn -0.0 -1.0 -0.0
vn -0.0 -1.0 -0.0
vn -0.0 -1.0 -0.0
vn -0.0 -1.0 -0.0
vn -0.0 -1.0 -0.0
vn -0.0 -1.0 -0.0
vn -0.0 -1.0 -0.0
vn -0.0 -1.0 -0.0
vn -0.0 -1.0 -0.0
vn -0.0 -1.0 -0.0
vn -0.0 -1.0 -0.0
vn -0.0 -1.0 -0.0
vn -0.0 -1.0 -0.0
vn -0.0 -1.0 -0.0
vn -0.0 -1.0 -0.0
vn -0.0 -1.0 -0.0
vn -0.0 -1.0 -0.0
vn -0.0 -1.0 -0.0
vn -0.0 -1.0 -0.0
vn -0.0 -1.0 -0.0
vn -0.0 -1.0 -0.0
vn -0.0 -1.0 -0.0
vn -0.0 -1.0 -0.0
vn -0.0 -1.0 -0.0
vn -0.0 -1.0 -0.0
vn -0.0 -1.0 -0.0
vn -0.0 -1.0 -0.0
vn -0.0 -1.0 -0.0
vn -0.0 -1.0 -0.0
vn -0.0 -1.0 -0.0
vn -0.0 -1.0 -0.0
vn 0.8660253882408142 0.0 0.5
vn 0.8660253882408142 0.0 0.5
vn 0.8660253882408142 0.0 0.5
vn 0.8660253882408142 0.0 0.5
vn -0.03331483155488968 0.0 -0.9994449019432068
vn -0.03331483155488968 0.0 -0.9994449019432068
vn -0.03331483155488968 0.0 -0.9994449019432068
vn -0.03331483155488968 0.0 -0.9994449019432068
vn -0.0 0.0 -1.0
vn -0.258819043636322 0.0 -0.9659258127212524
vn -0.5 0.0 -0.8660253882408142
vn -0.7071067690849304 0.0 -0.7071067690849304
vn -0.8660253882408142 0.0 -0.5
vn -0.9659258127212524 0.0 -0.258819043636322
vn -1.0 0.0 -6.123234262925839e-17
vn -0.9659258127212524 -0.0 0.258819043636322
vn -0.8660253882408142 -0.0 0.5
vn -0.7071067690849304 -0.0 0.7071067690849304
vn -0.5 -0.0 0.8660253882408142
vn -0.258819043636322 -0.0 0.9659258127212524
vn -1.2246468525851679e-16 -0.0 1.0
vn -1.2246468525851679e-16 -0.0 1.0
vn -0.258819043636322 -0.0 0.9659258127212524
vn -0.5 -0.0 0.8660253882408142
vn -0.7071067690849304 -0.0 0.7071067690849304
vn -0.8660253882408142 -0.0 0.5
vn -0.9659258127212524 -0.0 0.258819043636322
vn -1.0 0.0 -6.123234262925839e-17
vn -0.9659258127212524 0.0 -0.258819043636322
vn -0.8660253882408142 0.0 -0.5
vn -0.7071067690849304 0.0 -0.7071067690849304
vn -0.5 0.0 -0.8660253882408142
vn -0.258819043636322 0.0 -0.9659258127212524
vn -0.0 0.0 -1.0
vn -0.8660253882408142 -0.0 0.5
vn -0.8660253882408142 -0.0 0.5
vn -0.8660253882408142 -0.0 0.5
vn -0.8660253882408142 -0.0 0.5
vn -0.8660253882408142 0.0 0.5
vn -0.3420201539993286 0.0 0.9396926164627075
vn 0.3420201539993286 0.0 0.9396926164627075
vn 0.8660253882408142 0.0 0.5
vn 0.8660253882408142 0.0 0.5
vn 0.3420201539993286 0.0 0.9396926164627075
vn -0.3420201539993286 0.0 0.9396926164627075
vn -0.8660253882408142 0.0 0.5
vn 1.0 0.0 -1.2246468525851679e-16
vn 0.9510565400123596 0.0 -0.30901700258255005
vn 0.80901700258255 0.0 -0.5877852439880371
vn 0.5877852439880371 0.0 -0.80901700258255
vn 0.30901700258255005 0.0 -0.9510565400123596
vn -6.123234262925839e-17 0.0 -1.0
vn -0.30901700258255005 0.0 -0.9510565400123596
vn -0.5877852439880371 0.0 -0.80901700258255
vn -0.80901700258255 0.0 -0.5877852439880371
vn -0.9510565400123596 0.0 -0.30901700258255005
vn -1.0 0.0 0.0
vn -0.9510565400123596 0.0 0.30901700258255005
vn -0.80901700258255 0.0 0.5877852439880371
vn -0.5877852439880371 0.0 0.80901700258255
vn -0.30901700258255005 0.0 0.9510565400123596
vn -6.123234262925839e-17 0.0 1.0
vn 0.30901700258255005 -0.0 0.9510565400123596
vn 0.5877852439880371 -0.0 0.80901700258255
vn 0.80901700258255 -0.0 0.5877852439880371
vn 0.9510565400123596 -0.0 0.30901700258255005
vn 1.0 -0.0 1.2246468525851679e-16
vn 0.9510565400123596 -0.0 0.30901700258255005
vn 0.80901700258255 -0.0 0.5877852439880371
vn 0.5877852439880371 -0.0 0.80901700258255
vn 0.30901700258255005 -0.0 0.9510565400123596
vn -6.123234262925839e-17 0.0 1.0
vn -0.30901700258255005 0.0 0.9510565400123596
vn -0.5877852439880371 0.0 0.80901700258255
vn -0.80901700258255 0.0 0.5877852439880371
vn -0.9510565400123596 0.0 0.30901700258255005
vn -1.0 0.0 0.0
vn -0.9510565400123596 0.0 -0.30901700258255005
vn -0.80901700258255 0.0 -0.5877852439880371
vn -0.5877852439880371 0.0 -0.80901700258255
vn -0.30901700258255005 0.0 -0.9510565400123596
vn -6.123234262925839e-17 0.0 -1.0
vn 0.30901700258255005 0.0 -0.9510565400123596
vn 0.5877852439880371 0.0 -0.80901700258255
vn 0.80901700258255 0.0 -0.5877852439880371
vn 0.9510565400123596 0.0 -0.30901700258255005
vn 1.0 -0.0 1.2246468525851679e-16
vn 1.0 0.0 -1.2246468525851679e-16
vn 1.0 0.0 0.0
vn 1.0 0.0 0.0
vn 1.0 0.0 0.0
vn 1.0 0.0 0.0
vn -8.278422947149977e-10 0.0 1.0
vn -8.278422947149977e-10 0.0 1.0
vn -8.278422947149977e-10 0.0 1.0
vn -8.278422947149977e-10 0.0 1.0
vn 1.0 -0.0 -5.921189323495344e-15
vn 0.9489760398864746 -0.0 -0.3153481185436249
vn 0.801111102104187 -0.0 -0.5985156297683716
vn 0.5714945197105408 -0.0 -0.8206058740615845
vn 0.28355810046195984 -0.0 -0.9589550495147705
vn -0.03331483155488968 0.0 -0.9994449019432068
vn -0.03331483155488968 0.0 -0.9994449019432068
vn 0.28355810046195984 -0.0 -0.9589550495147705
vn 0.5714945197105408 -0.0 -0.8206058740615845
vn 0.801111102104187 -0.0 -0.5985156297683716
vn 0.9489760398864746 -0.0 -0.3153481185436249
vn 1.0 -0.0 -5.921189323495344e-15
vn 0.0 1.0 0.0
vn 0.0 1.0 0.0
vn 0.0 1.0 0.0
vn 0.0 1.0 0.0
vn 0.0 1.0 0.0
vn 0.0 1.0 0.0
vn 0.0 1.0 0.0
vn 0.0 1.0 0.0
vn 0.0 1.0 0.0
vn 0.0 1.0 0.0
vn 0.0 1.0 0.0
vn 0.0 1.0 0.0
vn 0.0 1.0 0.0
vn 0.0 1.0 0.0
vn 0.0 1.0 0.0
vn 0.0 1.0 0.0
vn 0.0 1.0 0.0
vn 0.0 1.0 0.0
vn 0.0 1.0 0.0
vn 0.0 1.0 0.0
vn 0.0 1.0 0.0
vn 0.0 1.0 0.0
vn 0.0 1.0 0.0
vn 0.0 1.0 0.0
vn 0.0 1.0 0.0
vn 0.0 1.0 0.0
vn 0.0 1.0 0.0
vn 0.0 1.0 0.0
vn 0.0 1.0 0.0
vn 0.0 1.0 0.0
vn 0.0 1.0 0.0
vn 0.0 1.0 0.0
vn 0.0 1.0 0.0
vn 0.0 1.0 0.0
vn 0.0 1.0 0.0
vn 0.0 1.0 0.0
vn 0.0 1.0 0.0
vn 0.0 1.0 0.0
vn 0.0 1.0 0.0
vn 0.0 1.0 0.0
vn 0.0 1.0 0.0
vn 0.0 1.0 0.0
vn 0.0 1.0 0.0
vn 0.0 1.0 0.0
vn 0.0 1.0 0.0
vn 0.0 1.0 0.0
f 2//2 3//3 1//1
f 1//1 3//3 4//4
f 5//5 6//6 30//30
f 30//30 6//6 7//7
f 30//30 7//7 29//29
f 29//29 7//7 8//8
f 29//29 8//8 42//42
f 42//42 8//8 41//41
f 41//41 8//8 40//40
f 40//40 8//8 39//39
f 39//39 8//8 9//9
f 39//39 9//9 10//10
f 39//39 10//10 38//38
f 38//38 10//10 11//11
f 38//38 11//11 37//37
f 37//37 11//11 36//36
f 36//36 11//11 12//12
f 36//36 12//12 13//13
f 36//36 13//13 35//35
f 35//35 13//13 14//14
f 35//35 14//14 34//34
f 34//34 14//14 15//15
f 34//34 15//15 33//33
f 33//33 15//15 16//16
f 33//33 16//16 32//32
f 32//32 16//16 17//17
f 32//32 17//17 31//31
f 31//31 17//17 50//50
f 50//50 17//17 18//18
f 50//50 18//18 49//49
f 49//49 18//18 19//19
f 49//49 19//19 48//48
f 48//48 19//19 20//20
f 48//48 20//20 47//47
f 47//47 20//20 21//21
f 47//47 21//21 46//46
f 46//46 21//21 22//22
f 46//46 22//22 23//23
f 24//24 44//44 23//23
f 23//23 44//44 45//45
f 23//23 45//45 46//46
f 25//25 26//26 24//24
f 24//24 26//26 27//27
f 24//24 27//27 28//28
f 24//24 28//28 44//44
f 44//44 28//28 29//29
f 44//44 29//29 43//43
f 43//43 29//29 42//42
f 51//51 52//52 54//54
f 54//54 52//52 53//53
f 55//55 56//56 58//58
f 58//58 56//56 57//57
f 84//84 59//59 83//83
f 83//83 59//59 60//60
f 83//83 60//60 82//82
f 82//82 60//60 61//61
f 82//82 61//61 81//81
f 81//81 61//61 62//62
f 81//81 62//62 80//80
f 80//80 62//62 63//63
f 80//80 63//63 79//79
f 79//79 63//63 64//64
f 79//79 64//64 78//78
f 78//78 64//64 65//65
f 78//78 65//65 77//77
f 77//77 65//65 66//66
f 77//77 66//66 76//76
f 76//76 66//66 67//67
f 76//76 67//67 75//75
f 75//75 67//67 68//68
f 75//75 68//68 74//74
f 74//74 68//68 69//69
f 74//74 69//69 73//73
f 73//73 69//69 70//70
f 73//73 70//70 72//72
f 72//72 70//70 71//71
f 85//85 86//86 88//88
f 88//88 86//86 87//87
f 96//96 89//89 95//95
f 95//95 89//89 90//90
f 95//95 90//90 94//94
f 94//94 90//90 91//91
f 94//94 91//91 93//93
f 93//93 91//91 92//92
f 98//98 136//136 97//97
f 97//97 136//136 138//138
f 137//137 117//117 116//116
f 116//116 117//117 118//118
f 116//116 118//118 115//115
f 115//115 118//118 119//119
f 115//115 119//119 114//114
f 114//114 119//119 120//120
f 114//114 120//120 113//113
f 113//113 120//120 121//121
f 113//113 121//121 112//112
f 112//112 121//121 122//122
f 112//112 122//122 111//111
f 111//111 122//122 123//123
f 111//111 123//123 110//110
f 110//110 123//123 124//124
f 110//110 124//124 109//109
f 109//109 124//124 125//125
f 109//109 125//125 108//108
f 108//108 125//125 126//126
f 108//108 126//126 107//107
f 107//107 126//126 127//127
f 107//107 127//127 106//106
f 106//106 127//127 128//128
f 106//106 128//128 105//105
f 105//105 128//128 129//129
f 105//105 129//129 104//104
f 104//104 129//129 130//130
f 104//104 130//130 103//103
f 103//103 130//130 131//131
f 103//103 131//131 102//102
f 102//102 131//131 132//132
f 102//102 132//132 101//101
f 101//101 132//132 133//133
f 101//101 133//133 100//100
f 100//100 133//133 134//134
f 100//100 134//134 99//99
f 99//99 134//134 135//135
f 99//99 135//135 98//98
f 98//98 135//135 136//136
f 139//139 140//140 142//142
f 142//142 140//140 141//141
f 144//144 145//145 143//143
f 143//143 145//145 146//146
f 158//158 147//147 157//157
f 157//157 147//147 148//148
f 157//157 148//148 156//156
f 156//156 148//148 149//149
f 156//156 149//149 155//155
f 155//155 149//149 150//150
f 155//155 150//150 154//154
f 154//154 150//150 151//151
f 154//154 151//151 153//153
f 153//153 151//151 152//152
f 160//160 161//161 159//159
f 159//159 161//161 184//184
f 184//184 161//161 162//162
f 184//184 162//162 183//183
f 183//183 162//162 194//194
f 183//183 194//194 195//195
f 163//163 192//192 162//162
f 162//162 192//192 193//193
f 162//162 193//193 194//194
f 192//192 163//163 167//167
f 167//167 163//163 164//164
f 167//167 164//164 165//165
f 165//165 166//166 167//167
f 167//167 168//168 192//192
f 192//192 168//168 191//191
f 191//191 168//168 190//190
f 190//190 168//168 169//169
f 190//190 169//169 170//170
f 190//190 170//170 189//189
f 189//189 170//170 171//171
f 189//189 171//171 188//188
f 188//188 171//171 172//172
f 188//188 172//172 187//187
f 187//187 172//172 173//173
f 187//187 173//173 186//186
f 186//186 173//173 174//174
f 186//186 174//174 185//185
f 185//185 174//174 204//204
f 204//204 174//174 175//175
f 204//204 175//175 203//203
f 203//203 175//175 176//176
f 203//203 176//176 202//202
f 202//202 176//176 177//177
f 202//202 177//177 201//201
f 201//201 177//177 178//178
f 201//201 178//178 200//200
f 200//200 178//178 179//179
f 200//200 179//179 180//180
f 181//181 198//198 180//180
f 180//180 198//198 199//199
f 180//180 199//199 200//200
f 198//198 181//181 197//197
f 197//197 181//181 182//182
f 197//197 182//182 183//183
f 195//195 196//196 183//183
f 183//183 196//196 197//197

# End of file