# WaveFront *.obj file
# Vertices: 154
# Triangles : 136

v 6.0 0.0 -2.0
v 6.0 0.0 -3.0
v 6.0 0.20000000298023224 -3.0
v 6.0 0.20000000298023224 -2.0
v 10.0 0.0 -2.0
v 6.0 0.0 -2.0
v 6.0 0.20000000298023224 -2.0
v 10.0 0.20000000298023224 -2.0
v 10.0 0.0 -1.5
v 10.0 0.0 -2.0
v 10.0 0.20000000298023224 -2.0
v 10.0 0.20000000298023224 -1.5
v 8.5 0.0 0.0
v 8.734651565551758 0.0 -0.018467489629983902
v 8.963525772094727 0.0 -0.07341522723436356
v 9.180985450744629 0.0 -0.16349022090435028
v 9.381677627563477 0.0 -0.2864744961261749
v 9.560660362243652 0.0 -0.439339816570282
v 9.713525772094727 0.0 -0.6183221340179443
v 9.836509704589844 0.0 -0.8190142512321472
v 9.92658519744873 0.0 -1.0364744663238525
v 9.98153305053711 0.0 -1.2653483152389526
v 10.0 0.0 -1.5
v 10.0 0.20000000298023224 -1.5
v 9.98153305053711 0.20000000298023224 -1.2653483152389526
v 9.92658519744873 0.20000000298023224 -1.0364744663238525
v 9.836509704589844 0.20000000298023224 -0.8190142512321472
v 9.713525772094727 0.20000000298023224 -0.6183221340179443
v 9.560660362243652 0.20000000298023224 -0.439339816570282
v 9.381677627563477 0.20000000298023224 -0.2864744961261749
v 9.180985450744629 0.20000000298023224 -0.16349022090435028
v 8.963525772094727 0.20000000298023224 -0.07341522723436356
v 8.734651565551758 0.20000000298023224 -0.018467489629983902
v 8.5 0.20000000298023224 0.0
v 1.5 0.0 2.220446049250313e-16
v 8.5 0.0 0.0
v 8.5 0.20000000298023224 0.0
v 1.5 0.20000000298023224 0.0
v 1.5 0.0 -3.0
v 1.2653483152389526 0.0 -2.981532573699951
v 1.0364744663238525 0.0 -2.9265847206115723
v 0.8190142512321472 0.0 -2.836509943008423
v 0.6183221340179443 0.0 -2.7135255336761475
v 0.439339816570282 0.0 -2.5606601238250732
v 0.2864744961261749 0.0 -2.3816778659820557
v 0.16349022090435028 0.0 -2.180985689163208
v 0.07341522723436356 0.0 -1.9635255336761475
v 0.018467489629983902 0.0 -1.7346516847610474
v 0.0 0.0 -1.5
v 0.018467489629983902 0.0 -1.2653483152389526
v 0.07341522723436356 0.0 -1.036474585533142
v 0.16349022090435028 0.0 -0.819014310836792
v 0.2864744961261749 0.0 -0.6183221936225891
v 0.439339816570282 0.0 -0.43933987617492676
v 0.6183221340179443 0.0 -0.2864745557308197
v 0.8190142512321472 0.0 -0.16349026560783386
v 1.0364744663238525 0.0 -0.07341527193784714
v 1.2653483152389526 0.0 -0.018467534333467484
v 1.5 0.0 2.220446049250313e-16
v 1.5 0.20000000298023224 0.0
v 1.2653483152389526 0.20000000298023224 -0.018467534333467484
v 1.0364744663238525 0.20000000298023224 -0.07341527193784714
v 0.8190142512321472 0.20000000298023224 -0.16349026560783386
v 0.6183221340179443 0.20000000298023224 -0.2864745557308197
v 0.439339816570282 0.20000000298023224 -0.43933987617492676
v 0.2864744961261749 0.20000000298023224 -0.6183221936225891
v 0.16349022090435028 0.20000000298023224 -0.819014310836792
v 0.07341522723436356 0.20000000298023224 -1.036474585533142
v 0.018467489629983902 0.20000000298023224 -1.2653483152389526
v 0.0 0.20000000298023224 -1.5
v 0.018467489629983902 0.20000000298023224 -1.7346516847610474
v 0.07341522723436356 0.20000000298023224 -1.9635255336761475
v 0.16349022090435028 0.20000000298023224 -2.180985689163208
v 0.2864744961261749 0.20000000298023224 -2.3816778659820557
v 0.439339816570282 0.20000000298023224 -2.5606601238250732
v 0.6183221340179443 0.20000000298023224 -2.7135255336761475
v 0.8190142512321472 0.20000000298023224 -2.836509943008423
v 1.0364744663238525 0.20000000298023224 -2.9265847206115723
v 1.2653483152389526 0.20000000298023224 -2.981532573699951
v 1.5 0.20000000298023224 -3.0
v 6.0 0.0 -3.0
v 1.5 0.0 -3.0
v 1.5 0.20000000298023224 -3.0
v 6.0 0.20000000298023224 -3.0
v 6.0 0.20000000298023224 -3.0
v 1.5 0.20000000298023224 -3.0
v 1.2653483152389526 0.20000000298023224 -2.981532573699951
v 1.0364744663238525 0.20000000298023224 -2.9265847206115723
v 0.8190142512321472 0.20000000298023224 -2.836509943008423
v 0.6183221340179443 0.20000000298023224 -2.7135255336761475
v 0.439339816570282 0.20000000298023224 -2.5606601238250732
v 0.2864744961261749 0.20000000298023224 -2.3816778659820557
v 0.16349022090435028 0.20000000298023224 -2.180985689163208
v 0.07341522723436356 0.20000000298023224 -1.9635255336761475
v 0.018467489629983902 0.20000000298023224 -1.7346516847610474
v 0.0 0.20000000298023224 -1.5
v 0.018467489629983902 0.20000000298023224 -1.2653483152389526
v 0.07341522723436356 0.20000000298023224 -1.036474585533142
v 0.16349022090435028 0.20000000298023224 -0.819014310836792
v 0.2864744961261749 0.20000000298023224 -0.6183221936225891
v 0.439339816570282 0.20000000298023224 -0.43933987617492676
v 0.6183221340179443 0.20000000298023224 -0.2864745557308197
v 0.8190142512321472 0.20000000298023224 -0.16349026560783386
v 1.0364744663238525 0.20000000298023224 -0.07341527193784714
v 1.2653483152389526 0.20000000298023224 -0.018467534333467484
v 1.5 0.20000000298023224 0.0
v 8.5 0.20000000298023224 0.0
v 8.734651565551758 0.20000000298023224 -0.018467489629983902
v 8.963525772094727 0.20000000298023224 -0.07341522723436356
v 9.180985450744629 0.20000000298023224 -0.16349022090435028
v 9.381677627563477 0.20000000298023224 -0.2864744961261749
v 9.560660362243652 0.20000000298023224 -0.439339816570282
v 9.713525772094727 0.20000000298023224 -0.6183221340179443
v 9.836509704589844 0.20000000298023224 -0.8190142512321472
v 9.92658519744873 0.20000000298023224 -1.0364744663238525
v 9.98153305053711 0.20000000298023224 -1.2653483152389526
v 10.0 0.20000000298023224 -1.5
v 10.0 0.20000000298023224 -2.0
v 6.0 0.20000000298023224 -2.0
v 1.5 0.0 -3.0
v 6.0 0.0 -3.0
v 6.0 0.0 -2.0
v 10.0 0.0 -2.0
v 10.0 0.0 -1.5
v 9.98153305053711 0.0 -1.2653483152389526
v 9.92658519744873 0.0 -1.0364744663238525
v 9.836509704589844 0.0 -0.8190142512321472
v 9.713525772094727 0.0 -0.6183221340179443
v 9.560660362243652 0.0 -0.439339816570282
v 9.381677627563477 0.0 -0.2864744961261749
v 9.180985450744629 0.0 -0.16349022090435028
v 8.963525772094727 0.0 -0.07341522723436356
v 8.734651565551758 0.0 -0.018467489629983902
v 8.5 0.0 0.0
v 1.5 0.0 2.220446049250313e-16
v 1.2653483152389526 0.0 -0.018467534333467484
v 1.0364744663238525 0.0 -0.07341527193784714
v 0.8190142512321472 0.0 -0.16349026560783386
v 0.6183221340179443 0.0 -0.2864745557308197
v 0.439339816570282 0.0 -0.43933987617492676
v 0.2864744961261749 0.0 -0.6183221936225891
v 0.16349022090435028 0.0 -0.819014310836792
v 0.07341522723436356 0.0 -1.036474585533142
v 0.018467489629983902 0.0 -1.2653483152389526
v 0.0 0.0 -1.5
v 0.018467489629983902 0.0 -1.7346516847610474
v 0.07341522723436356 0.0 -1.9635255336761475
v 0.16349022090435028 0.0 -2.180985689163208
v 0.2864744961261749 0.0 -2.3816778659820557
v 0.439339816570282 0.0 -2.5606601238250732
v 0.6183221340179443 0.0 -2.7135255336761475
v 0.8190142512321472 0.0 -2.836509943008423
v 1.0364744663238525 0.0 -2.9265847206115723
v 1.2653483152389526 0.0 -2.981532573699951
vn 1.0 0.0 0.0
vn 1.0 0.0 0.0
vn 1.0 0.0 0.0
vn 1.0 0.0 0.0
vn 0.0 0.0 -1.0
vn 0.0 0.0 -1.0
vn 0.0 0.0 -1.0
vn 0.0 0.0 -1.0
vn 1.0 -0.0 0.0
vn 1.0 -0.0 0.0
vn 1.0 -0.0 0.0
vn 1.0 -0.0 0.0
vn -1.1842379282265398e-15 -0.0 1.0
vn 0.15643446147441864 -0.0 0.9876883625984192
vn 0.30901700258255005 -0.0 0.9510565400123596
vn 0.45399048924446106 -0.0 0.8910065293312073
vn 0.5877852439880371 -0.0 0.80901700258255
vn 0.7071067690849304 -0.0 0.7071067690849304
vn 0.80901700258255 -0.0 0.5877852439880371
vn 0.8910065293312073 -0.0 0.45399048924446106
vn 0.9510565400123596 -0.0 0.30901700258255005
vn 0.9876883625984192 -0.0 0.15643446147441864
vn 1.0 -0.0 3.5729181145100354e-16
vn 1.0 -0.0 3.5729181145100354e-16
vn 0.9876883625984192 -0.0 0.15643446147441864
vn 0.9510565400123596 -0.0 0.30901700258255005
vn 0.8910065293312073 -0.0 0.45399048924446106
vn 0.80901700258255 -0.0 0.5877852439880371
vn 0.7071067690849304 -0.0 0.7071067690849304
vn 0.5877852439880371 -0.0 0.80901700258255
vn 0.45399048924446106 -0.0 0.8910065293312073
vn 0.30901700258255005 -0.0 0.9510565400123596
vn 0.15643446147441864 -0.0 0.9876883625984192
vn -1.1842379282265398e-15 -0.0 1.0
vn 3.17206559557345e-17 -0.0 1.0
vn 3.17206559557345e-17 -0.0 1.0
vn 3.17206559557345e-17 -0.0 1.0
vn 3.17206559557345e-17 -0.0 1.0
vn 2.9605948205663494e-16 -0.0 -1.0
vn -0.15643446147441864 0.0 -0.9876883625984192
vn -0.30901700258255005 0.0 -0.9510565400123596
vn -0.45399048924446106 0.0 -0.8910065293312073
vn -0.5877852439880371 0.0 -0.80901700258255
vn -0.7071067690849304 0.0 -0.7071067690849304
vn -0.80901700258255 0.0 -0.5877852439880371
vn -0.8910065293312073 0.0 -0.45399048924446106
vn -0.9510565400123596 0.0 -0.30901700258255005
vn -0.9876883625984192 0.0 -0.15643446147441864
vn -1.0 -0.0 8.679739839905908e-17
vn -0.9876883625984192 -0.0 0.15643446147441864
vn -0.9510565400123596 -0.0 0.30901700258255005
vn -0.8910065293312073 -0.0 0.45399048924446106
vn -0.80901700258255 -0.0 0.5877852439880371
vn -0.7071067690849304 -0.0 0.7071067690849304
vn -0.5877852439880371 -0.0 0.80901700258255
vn -0.45399048924446106 -0.0 0.8910065293312073
vn -0.30901700258255005 -0.0 0.9510565400123596
vn -0.15643446147441864 -0.0 0.9876883625984192
vn 2.5565057424161912e-17 -0.0 1.0
vn 2.5565057424161912e-17 -0.0 1.0
vn -0.15643446147441864 -0.0 0.9876883625984192
vn -0.30901700258255005 -0.0 0.9510565400123596
vn -0.45399048924446106 -0.0 0.8910065293312073
vn -0.5877852439880371 -0.0 0.80901700258255
vn -0.7071067690849304 -0.0 0.7071067690849304
vn -0.80901700258255 -0.0 0.5877852439880371
vn -0.8910065293312073 -0.0 0.45399048924446106
vn -0.9510565400123596 -0.0 0.30901700258255005
vn -0.9876883625984192 -0.0 0.15643446147441864
vn -1.0 -0.0 8.679739839905908e-17
vn -0.9876883625984192 0.0 -0.15643446147441864
vn -0.9510565400123596 0.0 -0.30901700258255005
vn -0.8910065293312073 0.0 -0.45399048924446106
vn -0.80901700258255 0.0 -0.5877852439880371
vn -0.7071067690849304 0.0 -0.7071067690849304
vn -0.5877852439880371 0.0 -0.80901700258255
vn -0.45399048924446106 0.0 -0.8910065293312073
vn -0.30901700258255005 0.0 -0.9510565400123596
vn -0.15643446147441864 0.0 -0.9876883625984192
vn 2.9605948205663494e-16 -0.0 -1.0
vn 0.0 0.0 -1.0
vn 0.0 0.0 -1.0
vn 0.0 0.0 -1.0
vn 0.0 0.0 -1.0
vn 0.0 1.0 0.0
vn 0.0 1.0 0.0
vn 0.0 1.0 0.0
vn 0.0 1.0 0.0
vn 0.0 1.0 0.0
vn 0.0 1.0 0.0
vn 0.0 1.0 0.0
vn 0.0 1.0 0.0
vn 0.0 1.0 0.0
vn 0.0 1.0 0.0
vn 0.0 1.0 0.0
vn 0.0 1.0 0.0
vn 0.0 1.0 0.0
vn 0.0 1.0 0.0
vn 0.0 1.0 0.0
vn 0.0 1.0 0.0
vn 0.0 1.0 0.0
vn 0.0 1.0 0.0
vn 0.0 1.0 0.0
vn 0.0 1.0 0.0
vn 0.0 1.0 0.0
vn 0.0 1.0 0.0
vn 0.0 1.0 0.0
vn 0.0 1.0 0.0
vn 0.0 1.0 0.0
vn 0.0 1.0 0.0
vn 0.0 1.0 0.0
vn 0.0 1.0 0.0
vn 0.0 1.0 0.0
vn 0.0 1.0 0.0
vn 0.0 1.0 0.0
vn 0.0 1.0 0.0
vn 0.0 1.0 0.0
vn 0.0 1.0 0.0
vn 0.0 1.0 0.0
vn -0.0 -1.0 -0.0
vn -0.0 -1.0 -0.0
vn -0.0 -1.0 -0.0
vn -0.0 -1.0 -0.0
vn -0.0 -1.0 -0.0
vn -0.0 -1.0 -0.0
vn -0.0 -1.0 -0.0
vn -0.0 -1.0 -0.0
vn -0.0 -1.0 -0.0
vn -0.0 -1.0 -0.0
vn -0.0 -1.0 -0.0
vn -0.0 -1.0 -0.0
vn -0.0 -1.0 -0.0
vn -0.0 -1.0 -0.0
vn -0.0 -1.0 -0.0
vn -0.0 -1.0 -0.0
vn -0.0 -1.0 -0.0
vn -0.0 -1.0 -0.0
vn -0.0 -1.0 -0.0
vn -0.0 -1.0 -0.0
vn -0.0 -1.0 -0.0
vn -0.0 -1.0 -0.0
vn -0.0 -1.0 -0.0
vn -0.0 -1.0 -0.0
vn -0.0 -1.0 -0.0
vn -0.0 -1.0 -0.0
vn -0.0 -1.0 -0.0
vn -0.0 -1.0 -0.0
vn -0.0 -1.0 -0.0
vn -0.0 -1.0 -0.0
vn -0.0 -1.0 -0.0
vn -0.0 -1.0 -0.0
vn -0.0 -1.0 -0.0
vn -0.0 -1.0 -0.0
vn -0.0 -1.0 -0.0
g 50d582b0-e2c8-11ea-8eea-54bf646e7e1f
f 1//1 2//2 4//4
f 4//4 2//2 3//3
g 50d5f7be-e2c8-11ea-aee7-54bf646e7e1f
f 5//5 6//6 8//8
f 8//8 6//6 7//7
g 50d645d4-e2c8-11ea-8fa4-54bf646e7e1f
f 9//9 10//10 12//12
f 12//12 10//10 11//11
g 50d6bb12-e2c8-11ea-8a62-54bf646e7e1f
f 34//34 13//13 33//33
f 33//33 13//13 14//14
f 33//33 14//14 32//32
f 32//32 14//14 15//15
f 32//32 15//15 31//31
f 31//31 15//15 16//16
f 31//31 16//16 30//30
f 30//30 16//16 17//17
f 30//30 17//17 29//29
f 29//29 17//17 18//18
f 29//29 18//18 28//28
f 28//28 18//18 19//19
f 28//28 19//19 27//27
f 27//27 19//19 20//20
f 27//27 20//20 26//26
f 26//26 20//20 21//21
f 26//26 21//21 25//25
f 25//25 21//21 22//22
f 25//25 22//22 24//24
f 24//24 22//22 23//23
g 50d7306e-e2c8-11ea-8610-54bf646e7e1f
f 35//35 36//36 38//38
f 38//38 36//36 37//37
g 50d7cc94-e2c8-11ea-9f9c-54bf646e7e1f
f 80//80 39//39 79//79
f 79//79 39//39 40//40
f 79//79 40//40 41//41
f 79//79 41//41 78//78
f 78//78 41//41 42//42
f 78//78 42//42 77//77
f 77//77 42//42 43//43
f 77//77 43//43 76//76
f 76//76 43//43 44//44
f 76//76 44//44 75//75
f 75//75 44//44 45//45
f 75//75 45//45 74//74
f 74//74 45//45 46//46
f 74//74 46//46 73//73
f 73//73 46//46 47//47
f 73//73 47//47 72//72
f 72//72 47//47 48//48
f 72//72 48//48 71//71
f 71//71 48//48 49//49
f 71//71 49//49 70//70
f 70//70 49//49 50//50
f 70//70 50//50 69//69
f 69//69 50//50 51//51
f 69//69 51//51 68//68
f 68//68 51//51 52//52
f 68//68 52//52 67//67
f 67//67 52//52 53//53
f 67//67 53//53 66//66
f 66//66 53//53 54//54
f 66//66 54//54 65//65
f 65//65 54//54 55//55
f 65//65 55//55 64//64
f 64//64 55//55 56//56
f 64//64 56//56 63//63
f 63//63 56//56 57//57
f 63//63 57//57 62//62
f 62//62 57//57 58//58
f 62//62 58//58 61//61
f 61//61 58//58 60//60
f 60//60 58//58 59//59
g 50d841e4-e2c8-11ea-b911-54bf646e7e1f
f 81//81 82//82 84//84
f 84//84 82//82 83//83
g 50d8de0a-e2c8-11ea-9660-54bf646e7e1f
f 85//85 86//86 119//119
f 119//119 86//86 91//91
f 119//119 91//91 92//92
f 87//87 88//88 86//86
f 86//86 88//88 89//89
f 86//86 89//89 90//90
f 90//90 91//91 86//86
f 92//92 93//93 119//119
f 119//119 93//93 94//94
f 119//119 94//94 95//95
f 95//95 96//96 119//119
f 119//119 96//96 97//97
f 119//119 97//97 98//98
f 98//98 99//99 119//119
f 119//119 99//99 100//100
f 119//119 100//100 106//106
f 106//106 100//100 101//101
f 106//106 101//101 102//102
f 102//102 103//103 106//106
f 106//106 103//103 104//104
f 106//106 104//104 105//105
f 106//106 107//107 119//119
f 119//119 107//107 113//113
f 119//119 113//113 114//114
f 108//108 109//109 107//107
f 107//107 109//109 110//110
f 107//107 110//110 111//111
f 111//111 112//112 107//107
f 107//107 112//112 113//113
f 114//114 115//115 119//119
f 119//119 115//115 116//116
f 119//119 116//116 117//117
f 117//117 118//118 119//119
g 50d97a68-e2c8-11ea-92e8-54bf646e7e1f
f 121//121 122//122 120//120
f 120//120 122//122 150//150
f 120//120 150//150 151//151
f 123//123 124//124 122//122
f 122//122 124//124 125//125
f 122//122 125//125 126//126
f 126//126 127//127 122//122
f 122//122 127//127 128//128
f 122//122 128//128 134//134
f 134//134 128//128 129//129
f 134//134 129//129 130//130
f 130//130 131//131 134//134
f 134//134 131//131 132//132
f 134//134 132//132 133//133
f 134//134 135//135 122//122
f 122//122 135//135 141//141
f 122//122 141//141 142//142
f 136//136 137//137 135//135
f 135//135 137//137 138//138
f 135//135 138//138 139//139
f 139//139 140//140 135//135
f 135//135 140//140 141//141
f 142//142 143//143 122//122
f 122//122 143//143 144//144
f 122//122 144//144 145//145
f 145//145 146//146 122//122
f 122//122 146//146 147//147
f 122//122 147//147 148//148
f 148//148 149//149 122//122
f 122//122 149//149 150//150
f 151//151 152//152 120//120
f 120//120 152//152 153//153
f 120//120 153//153 154//154

# End of file