# WaveFront *.obj file
# Vertices: 72
# Triangles : 52

v -3.4000000953674316 0.550000011920929 0.0
v -3.4000000953674316 0.550000011920929 4.0
v -3.299999952316284 0.550000011920929 4.0
v -3.299999952316284 0.550000011920929 0.0
v -3.4000000953674316 0.5 0.0
v -3.4000000953674316 0.5 4.0
v -3.4000000953674316 0.550000011920929 4.0
v -3.4000000953674316 0.550000011920929 0.0
v -3.299999952316284 0.5 4.0
v -3.299999952316284 0.5 0.0
v -3.299999952316284 0.550000011920929 0.0
v -3.299999952316284 0.550000011920929 4.0
v -3.299999952316284 0.5 0.0
v -3.299999952316284 0.5 4.0
v 39.95199966430664 0.5 4.0
v 39.50178527832031 0.5 3.5278239250183105
v 39.1845817565918 0.5 2.9577112197875977
v 39.02073287963867 0.5 2.326207399368286
v 39.02073287963867 0.5 1.6737927198410034
v 39.1845817565918 0.5 1.0422886610031128
v 39.50178527832031 0.5 0.4721759557723999
v 39.95199966430664 0.5 0.0
v -7.0 0.0 4.0
v 39.95199966430664 0.0 4.0
v 39.95199966430664 0.5 4.0
v -3.299999952316284 0.5 4.0
v -3.299999952316284 0.550000011920929 4.0
v -3.4000000953674316 0.550000011920929 4.0
v -3.4000000953674316 0.5 4.0
v -7.0 0.5 4.0
v 39.95199966430664 0.0 4.0
v 39.50178527832031 0.0 3.5278239250183105
v 39.1845817565918 0.0 2.9577112197875977
v 39.02073287963867 0.0 2.326207399368286
v 39.02073287963867 0.0 1.6737927198410034
v 39.1845817565918 0.0 1.0422886610031128
v 39.50178527832031 0.0 0.4721759557723999
v 39.95199966430664 0.0 0.0
v 39.95199966430664 0.5 0.0
v 39.50178527832031 0.5 0.4721759557723999
v 39.1845817565918 0.5 1.0422886610031128
v 39.02073287963867 0.5 1.6737927198410034
v 39.02073287963867 0.5 2.326207399368286
v 39.1845817565918 0.5 2.9577112197875977
v 39.50178527832031 0.5 3.5278239250183105
v 39.95199966430664 0.5 4.0
v 39.95199966430664 0.0 0.0
v -7.0 0.0 0.0
v -7.0 0.5 0.0
v -3.4000000953674316 0.5 0.0
v -3.4000000953674316 0.550000011920929 0.0
v -3.299999952316284 0.550000011920929 0.0
v -3.299999952316284 0.5 0.0
v 39.95199966430664 0.5 0.0
v -3.4000000953674316 0.5 4.0
v -3.4000000953674316 0.5 0.0
v -7.0 0.5 0.0
v -7.0 0.5 4.0
v -7.0 0.0 0.0
v -7.0 0.0 4.0
v -7.0 0.5 4.0
v -7.0 0.5 0.0
v -7.0 0.0 4.0
v -7.0 0.0 0.0
v 39.95199966430664 0.0 0.0
v 39.50178527832031 0.0 0.4721759557723999
v 39.1845817565918 0.0 1.0422886610031128
v 39.02073287963867 0.0 1.6737927198410034
v 39.02073287963867 0.0 2.326207399368286
v 39.1845817565918 0.0 2.9577112197875977
v 39.50178527832031 0.0 3.5278239250183105
v 39.95199966430664 0.0 4.0
vn 0.0 1.0 0.0
vn 0.0 1.0 0.0
vn 0.0 1.0 0.0
vn 0.0 1.0 0.0
vn -1.0 0.0 0.0
vn -1.0 0.0 0.0
vn -1.0 0.0 0.0
vn -1.0 0.0 0.0
vn 1.0 0.0 0.0
vn 1.0 0.0 0.0
vn 1.0 0.0 0.0
vn 1.0 0.0 0.0
vn 0.0 1.0 0.0
vn 0.0 1.0 0.0
vn 0.0 1.0 0.0
vn 0.0 1.0 0.0
vn 0.0 1.0 0.0
vn 0.0 1.0 0.0
vn 0.0 1.0 0.0
vn 0.0 1.0 0.0
vn 0.0 1.0 0.0
vn 0.0 1.0 0.0
vn 0.0 0.0 1.0
vn 0.0 0.0 1.0
vn 0.0 0.0 1.0
vn 0.0 0.0 1.0
vn 0.0 0.0 1.0
vn 0.0 0.0 1.0
vn 0.0 0.0 1.0
vn 0.0 0.0 1.0
vn 0.6305553317070007 0.0 -0.7761443257331848
vn 0.8052716851234436 0.0 -0.5929059982299805
vn 0.9283684492111206 0.0 -0.37166109681129456
vn 0.9919548630714417 0.0 -0.12659196555614471
vn 0.9919548630714417 -0.0 0.12659196555614471
vn 0.9283684492111206 -0.0 0.37166109681129456
vn 0.8052716851234436 -0.0 0.5929059982299805
vn 0.6305553317070007 -0.0 0.7761443257331848
vn 0.6305553317070007 -0.0 0.7761443257331848
vn 0.8052716851234436 -0.0 0.5929059982299805
vn 0.9283684492111206 -0.0 0.37166109681129456
vn 0.9919548630714417 -0.0 0.12659196555614471
vn 0.9919548630714417 0.0 -0.12659196555614471
vn 0.9283684492111206 0.0 -0.37166109681129456
vn 0.8052716851234436 0.0 -0.5929059982299805
vn 0.6305553317070007 0.0 -0.7761443257331848
vn 0.0 0.0 -1.0
vn 0.0 0.0 -1.0
vn 0.0 0.0 -1.0
vn 0.0 0.0 -1.0
vn 0.0 0.0 -1.0
vn 0.0 0.0 -1.0
vn 0.0 0.0 -1.0
vn 0.0 0.0 -1.0
vn 0.0 1.0 0.0
vn 0.0 1.0 0.0
vn 0.0 1.0 0.0
vn 0.0 1.0 0.0
vn -1.0 0.0 0.0
vn -1.0 0.0 0.0
vn -1.0 0.0 0.0
vn -1.0 0.0 0.0
vn -0.0 -1.0 -0.0
vn -0.0 -1.0 -0.0
vn -0.0 -1.0 -0.0
vn -0.0 -1.0 -0.0
vn -0.0 -1.0 -0.0
vn -0.0 -1.0 -0.0
vn -0.0 -1.0 -0.0
vn -0.0 -1.0 -0.0
vn -0.0 -1.0 -0.0
vn -0.0 -1.0 -0.0
f 1//1 2//2 4//4
f 4//4 2//2 3//3
f 5//5 6//6 8//8
f 8//8 6//6 7//7
f 9//9 10//10 12//12
f 12//12 10//10 11//11
f 14//14 19//19 13//13
f 13//13 19//19 20//20
f 13//13 20//20 21//21
f 15//15 16//16 14//14
f 14//14 16//16 17//17
f 14//14 17//17 18//18
f 18//18 19//19 14//14
f 21//21 22//22 13//13
f 24//24 26//26 23//23
f 23//23 26//26 29//29
f 23//23 29//29 30//30
f 24//24 25//25 26//26
f 27//27 28//28 26//26
f 26//26 28//28 29//29
f 46//46 31//31 45//45
f 45//45 31//31 32//32
f 45//45 32//32 44//44
f 44//44 32//32 33//33
f 44//44 33//33 43//43
f 43//43 33//33 34//34
f 43//43 34//34 42//42
f 42//42 34//34 35//35
f 42//42 35//35 41//41
f 41//41 35//35 36//36
f 41//41 36//36 40//40
f 40//40 36//36 37//37
f 40//40 37//37 39//39
f 39//39 37//37 38//38
f 54//54 47//47 53//53
f 53//53 47//47 48//48
f 53//53 48//48 50//50
f 50//50 48//48 49//49
f 51//51 52//52 50//50
f 50//50 52//52 53//53
f 56//56 57//57 55//55
f 55//55 57//57 58//58
f 59//59 60//60 62//62
f 62//62 60//60 61//61
f 64//64 68//68 63//63
f 63//63 68//68 69//69
f 63//63 69//69 70//70
f 65//65 66//66 64//64
f 64//64 66//66 67//67
f 64//64 67//67 68//68
f 70//70 71//71 63//63
f 63//63 71//71 72//72

# End of file