# WaveFront *.obj file
# Vertices: 24
# Triangles : 12

v 10.0 0.0 0.0
v 10.0 0.0 12.0
v 10.0 -1.0 12.0
v 10.0 -1.0 0.0
v 0.0 0.0 0.0
v 10.0 0.0 0.0
v 10.0 -1.0 0.0
v 0.0 -1.0 0.0
v 0.0 0.0 12.0
v 0.0 0.0 0.0
v 0.0 -1.0 0.0
v 0.0 -1.0 12.0
v 10.0 0.0 12.0
v 0.0 0.0 12.0
v 0.0 -1.0 12.0
v 10.0 -1.0 12.0
v 0.0 0.0 12.0
v 10.0 0.0 12.0
v 10.0 0.0 0.0
v 0.0 0.0 0.0
v 10.0 -1.0 12.0
v 0.0 -1.0 12.0
v 0.0 -1.0 0.0
v 10.0 -1.0 0.0
vn 1.0 0.0 -0.0
vn 1.0 0.0 -0.0
vn 1.0 0.0 -0.0
vn 1.0 0.0 -0.0
vn 0.0 0.0 -1.0
vn 0.0 0.0 -1.0
vn 0.0 0.0 -1.0
vn 0.0 0.0 -1.0
vn -1.0 -0.0 -0.0
vn -1.0 -0.0 -0.0
vn -1.0 -0.0 -0.0
vn -1.0 -0.0 -0.0
vn 0.0 0.0 1.0
vn 0.0 0.0 1.0
vn 0.0 0.0 1.0
vn 0.0 0.0 1.0
vn 0.0 1.0 0.0
vn 0.0 1.0 0.0
vn 0.0 1.0 0.0
vn 0.0 1.0 0.0
vn 0.0 -1.0 0.0
vn 0.0 -1.0 0.0
vn 0.0 -1.0 0.0
vn 0.0 -1.0 0.0
g 6f8d19b4-e2c8-11ea-935e-54bf646e7e1f
f 1//1 2//2 4//4
f 4//4 2//2 3//3
g 6f8db5f6-e2c8-11ea-a405-54bf646e7e1f
f 5//5 6//6 8//8
f 8//8 6//6 7//7
g 6f8e2b1e-e2c8-11ea-82cc-54bf646e7e1f
f 9//9 10//10 12//12
f 12//12 10//10 11//11
g 6f8e793a-e2c8-11ea-aef1-54bf646e7e1f
f 13//13 14//14 16//16
f 16//16 14//14 15//15
g 6f8eee74-e2c8-11ea-ad66-54bf646e7e1f
f 17//17 18//18 20//20
f 20//20 18//18 19//19
g 6f8f63ae-e2c8-11ea-8ebc-54bf646e7e1f
f 22//22 23//23 21//21
f 21//21 23//23 24//24

# End of file