# WaveFront *.obj file
# Vertices: 24
# Triangles : 12

v 0.0 0.0 0.0
v 0.0 0.0 4.0
v 0.0 0.699999988079071 4.0
v 0.0 0.699999988079071 0.0
v 0.5 0.0 0.0
v 0.0 0.0 0.0
v 0.0 0.699999988079071 0.0
v 0.5 0.699999988079071 0.0
v 0.5 0.0 4.0
v 0.5 0.0 0.0
v 0.5 0.699999988079071 0.0
v 0.5 0.699999988079071 4.0
v 0.0 0.0 4.0
v 0.5 0.0 4.0
v 0.5 0.699999988079071 4.0
v 0.0 0.699999988079071 4.0
v 0.0 0.699999988079071 4.0
v 0.5 0.699999988079071 4.0
v 0.5 0.699999988079071 0.0
v 0.0 0.699999988079071 0.0
v 0.5 0.0 4.0
v 0.0 0.0 4.0
v 0.0 0.0 0.0
v 0.5 0.0 0.0
vn -1.0 0.0 0.0
vn -1.0 0.0 0.0
vn -1.0 0.0 0.0
vn -1.0 0.0 0.0
vn 0.0 0.0 -1.0
vn 0.0 0.0 -1.0
vn 0.0 0.0 -1.0
vn 0.0 0.0 -1.0
vn 1.0 0.0 0.0
vn 1.0 0.0 0.0
vn 1.0 0.0 0.0
vn 1.0 0.0 0.0
vn 0.0 -0.0 1.0
vn 0.0 -0.0 1.0
vn 0.0 -0.0 1.0
vn 0.0 -0.0 1.0
vn 0.0 1.0 0.0
vn 0.0 1.0 0.0
vn 0.0 1.0 0.0
vn 0.0 1.0 0.0
vn -0.0 -1.0 -0.0
vn -0.0 -1.0 -0.0
vn -0.0 -1.0 -0.0
vn -0.0 -1.0 -0.0
g 7d0d8dee-e2c8-11ea-91fb-54bf646e7e1f
f 1//1 2//2 4//4
f 4//4 2//2 3//3
g 7d0db4fe-e2c8-11ea-aee6-54bf646e7e1f
f 5//5 6//6 8//8
f 8//8 6//6 7//7
g 7d0db4ff-e2c8-11ea-b9e6-54bf646e7e1f
f 9//9 10//10 12//12
f 12//12 10//10 11//11
g 7d0ddc0a-e2c8-11ea-a91d-54bf646e7e1f
f 13//13 14//14 16//16
f 16//16 14//14 15//15
g 7d0e031e-e2c8-11ea-837b-54bf646e7e1f
f 18//18 19//19 17//17
f 17//17 19//19 20//20
g 7d0e2a2c-e2c8-11ea-9db2-54bf646e7e1f
f 21//21 22//22 24//24
f 24//24 22//22 23//23

# End of file