# WaveFront *.obj file
# Vertices: 192
# Triangles : 168

v 0.05000000074505806 0.0 0.08660253882408142
v 0.025881905108690262 0.0 0.09659258276224136
v 6.123233849335533e-18 0.0 0.10000000149011612
v -0.025881905108690262 0.0 0.09659258276224136
v -0.05000000074505806 0.0 0.08660253882408142
v -0.05000000074505806 0.0 0.15000000596046448
v 0.05000000074505806 0.0 0.15000000596046448
v -0.05000000074505806 0.0 -0.08660253882408142
v -0.025881905108690262 0.0 -0.09659258276224136
v 6.123233849335533e-18 0.0 -0.10000000149011612
v 0.025881905108690262 0.0 -0.09659258276224136
v 0.05000000074505806 0.0 -0.08660253882408142
v 0.05000000074505806 0.0 -0.15000000596046448
v -0.05000000074505806 0.0 -0.15000000596046448
v -0.05000000074505806 0.0 -0.15000000596046448
v 0.05000000074505806 0.0 -0.15000000596046448
v 0.05000000074505806 -0.10000000149011612 -0.15000000596046448
v -0.05000000074505806 -0.10000000149011612 -0.15000000596046448
v -0.05000000074505806 0.0 0.15000000596046448
v -0.05000000074505806 0.0 0.08660253882408142
v -0.05000000074505806 0.0 -0.08660253882408142
v -0.05000000074505806 0.0 -0.15000000596046448
v -0.05000000074505806 -0.10000000149011612 -0.15000000596046448
v -0.05000000074505806 -0.10000000149011612 0.15000000596046448
v 0.05000000074505806 0.0 0.15000000596046448
v -0.05000000074505806 0.0 0.15000000596046448
v -0.05000000074505806 -0.10000000149011612 0.15000000596046448
v 0.05000000074505806 -0.10000000149011612 0.15000000596046448
v 0.05000000074505806 0.0 -0.15000000596046448
v 0.05000000074505806 0.0 -0.08660253882408142
v 0.05000000074505806 0.0 0.08660253882408142
v 0.05000000074505806 0.0 0.15000000596046448
v 0.05000000074505806 -0.10000000149011612 0.15000000596046448
v 0.05000000074505806 -0.10000000149011612 -0.15000000596046448
v 0.05000000074505806 -0.10000000149011612 -0.15000000596046448
v 0.05000000074505806 -0.10000000149011612 0.15000000596046448
v -0.05000000074505806 -0.10000000149011612 0.15000000596046448
v -0.05000000074505806 -0.10000000149011612 -0.15000000596046448
v 0.05000000074505806 0.0 0.08660253882408142
v 0.05000000074505806 0.0 -0.08660253882408142
v 0.07330518960952759 0.0 -0.06801727414131165
v 0.09009688347578049 0.0 -0.04338837414979935
v 0.09888308495283127 0.0 -0.014904226176440716
v 0.09888308495283127 0.0 0.014904226176440716
v 0.09009688347578049 0.0 0.04338837414979935
v 0.07330518960952759 0.0 0.06801727414131165
v -0.05000000074505806 0.0 -0.08660253882408142
v -0.05000000074505806 0.0 0.08660253882408142
v -0.07330518960952759 0.0 0.06801727414131165
v -0.09009688347578049 0.0 0.04338837414979935
v -0.09888308495283127 0.0 0.014904226176440716
v -0.09888308495283127 0.0 -0.014904226176440716
v -0.09009688347578049 0.0 -0.04338837414979935
v -0.07330518960952759 0.0 -0.06801727414131165
v 0.07999999821186066 2.5987000465393066 -9.797174324372975e-18
v 0.07517541199922562 2.5987000465393066 0.027361610904335976
v 0.06128355488181114 2.5987000465393066 0.05142300948500633
v 0.03999999910593033 2.5987000465393066 0.06928203254938126
v 0.01389185432344675 2.5987000465393066 0.07878462225198746
v -0.01389185432344675 2.5987000465393066 0.07878462225198746
v -0.03999999910593033 2.5987000465393066 0.06928203254938126
v -0.06128355488181114 2.5987000465393066 0.05142300948500633
v -0.07517541199922562 2.5987000465393066 0.027361610904335976
v -0.07999999821186066 2.5987000465393066 0.0
v -0.07517541199922562 2.5987000465393066 -0.027361610904335976
v -0.06128355488181114 2.5987000465393066 -0.05142300948500633
v -0.03999999910593033 2.5987000465393066 -0.06928203254938126
v -0.01389185432344675 2.5987000465393066 -0.07878462225198746
v 0.01389185432344675 2.5987000465393066 -0.07878462225198746
v 0.03999999910593033 2.5987000465393066 -0.06928203254938126
v 0.06128355488181114 2.5987000465393066 -0.05142300948500633
v 0.07517541199922562 2.5987000465393066 -0.027361610904335976
v 0.07999999821186066 2.0999999046325684 -9.797174324372975e-18
v 0.07517541199922562 2.0999999046325684 -0.027361610904335976
v 0.06128355488181114 2.0999999046325684 -0.05142300948500633
v 0.03999999910593033 2.0999999046325684 -0.06928203254938126
v 0.01389185432344675 2.0999999046325684 -0.07878462225198746
v -0.01389185432344675 2.0999999046325684 -0.07878462225198746
v -0.03999999910593033 2.0999999046325684 -0.06928203254938126
v -0.06128355488181114 2.0999999046325684 -0.05142300948500633
v -0.07517541199922562 2.0999999046325684 -0.027361610904335976
v -0.07999999821186066 2.0999999046325684 0.0
v -0.07517541199922562 2.0999999046325684 0.027361610904335976
v -0.06128355488181114 2.0999999046325684 0.05142300948500633
v -0.03999999910593033 2.0999999046325684 0.06928203254938126
v -0.01389185432344675 2.0999999046325684 0.07878462225198746
v 0.01389185432344675 2.0999999046325684 0.07878462225198746
v 0.03999999910593033 2.0999999046325684 0.06928203254938126
v 0.06128355488181114 2.0999999046325684 0.05142300948500633
v 0.07517541199922562 2.0999999046325684 0.027361610904335976
v 0.07999999821186066 2.0999999046325684 -9.797174324372975e-18
v 0.07999999821186066 2.5987000465393066 -9.797174324372975e-18
v 0.07999999821186066 2.5987000465393066 -9.797174324372975e-18
v 0.07517541199922562 2.5987000465393066 -0.027361610904335976
v 0.06128355488181114 2.5987000465393066 -0.05142300948500633
v 0.03999999910593033 2.5987000465393066 -0.06928203254938126
v 0.01389185432344675 2.5987000465393066 -0.07878462225198746
v -0.01389185432344675 2.5987000465393066 -0.07878462225198746
v -0.03999999910593033 2.5987000465393066 -0.06928203254938126
v -0.06128355488181114 2.5987000465393066 -0.05142300948500633
v -0.07517541199922562 2.5987000465393066 -0.027361610904335976
v -0.07999999821186066 2.5987000465393066 0.0
v -0.07517541199922562 2.5987000465393066 0.027361610904335976
v -0.06128355488181114 2.5987000465393066 0.05142300948500633
v -0.03999999910593033 2.5987000465393066 0.06928203254938126
v -0.01389185432344675 2.5987000465393066 0.07878462225198746
v 0.01389185432344675 2.5987000465393066 0.07878462225198746
v 0.03999999910593033 2.5987000465393066 0.06928203254938126
v 0.06128355488181114 2.5987000465393066 0.05142300948500633
v 0.07517541199922562 2.5987000465393066 0.027361610904335976
v -0.10000000149011612 2.0999999046325684 1.2246467698671066e-17
v -0.09510564804077148 2.0999999046325684 -0.030901700258255005
v -0.08090169727802277 2.0999999046325684 -0.05877852439880371
v -0.05877852439880371 2.0999999046325684 -0.08090169727802277
v -0.030901700258255005 2.0999999046325684 -0.09510564804077148
v 6.123233849335533e-18 2.0999999046325684 -0.10000000149011612
v 0.030901700258255005 2.0999999046325684 -0.09510564804077148
v 0.05877852439880371 2.0999999046325684 -0.08090169727802277
v 0.08090169727802277 2.0999999046325684 -0.05877852439880371
v 0.09510564804077148 2.0999999046325684 -0.030901700258255005
v 0.10000000149011612 2.0999999046325684 0.0
v 0.09510564804077148 2.0999999046325684 0.030901700258255005
v 0.08090169727802277 2.0999999046325684 0.05877852439880371
v 0.05877852439880371 2.0999999046325684 0.08090169727802277
v 0.030901700258255005 2.0999999046325684 0.09510564804077148
v 6.123233849335533e-18 2.0999999046325684 0.10000000149011612
v -0.030901700258255005 2.0999999046325684 0.09510564804077148
v -0.05877852439880371 2.0999999046325684 0.08090169727802277
v -0.08090169727802277 2.0999999046325684 0.05877852439880371
v -0.09510564804077148 2.0999999046325684 0.030901700258255005
v -0.05000000074505806 0.0 -0.08660253882408142
v -0.07330518960952759 0.0 -0.06801727414131165
v -0.09009688347578049 0.0 -0.04338837414979935
v -0.09888308495283127 0.0 -0.014904226176440716
v -0.09888308495283127 0.0 0.014904226176440716
v -0.09009688347578049 0.0 0.04338837414979935
v -0.07330518960952759 0.0 0.06801727414131165
v -0.05000000074505806 0.0 0.08660253882408142
v -0.025881905108690262 0.0 0.09659258276224136
v 6.123233849335533e-18 0.0 0.10000000149011612
v 0.025881905108690262 0.0 0.09659258276224136
v 0.05000000074505806 0.0 0.08660253882408142
v 0.07330518960952759 0.0 0.06801727414131165
v 0.09009688347578049 0.0 0.04338837414979935
v 0.09888308495283127 0.0 0.014904226176440716
v 0.09888308495283127 0.0 -0.014904226176440716
v 0.09009688347578049 0.0 -0.04338837414979935
v 0.07330518960952759 0.0 -0.06801727414131165
v 0.05000000074505806 0.0 -0.08660253882408142
v 0.025881905108690262 0.0 -0.09659258276224136
v 6.123233849335533e-18 0.0 -0.10000000149011612
v -0.025881905108690262 0.0 -0.09659258276224136
v -0.09888308495283127 0.0 -0.014904226176440716
v -0.10000000149011612 2.0999999046325684 1.2246467698671066e-17
v 0.07999999821186066 2.0999999046325684 -9.797174324372975e-18
v 0.07517541199922562 2.0999999046325684 0.027361610904335976
v 0.06128355488181114 2.0999999046325684 0.05142300948500633
v 0.03999999910593033 2.0999999046325684 0.06928203254938126
v 0.01389185432344675 2.0999999046325684 0.07878462225198746
v -0.01389185432344675 2.0999999046325684 0.07878462225198746
v -0.03999999910593033 2.0999999046325684 0.06928203254938126
v -0.06128355488181114 2.0999999046325684 0.05142300948500633
v -0.07517541199922562 2.0999999046325684 0.027361610904335976
v -0.07999999821186066 2.0999999046325684 0.0
v -0.07517541199922562 2.0999999046325684 -0.027361610904335976
v -0.06128355488181114 2.0999999046325684 -0.05142300948500633
v -0.03999999910593033 2.0999999046325684 -0.06928203254938126
v -0.01389185432344675 2.0999999046325684 -0.07878462225198746
v 0.01389185432344675 2.0999999046325684 -0.07878462225198746
v 0.03999999910593033 2.0999999046325684 -0.06928203254938126
v 0.06128355488181114 2.0999999046325684 -0.05142300948500633
v 0.07517541199922562 2.0999999046325684 -0.027361610904335976
v -0.10000000149011612 2.0999999046325684 1.2246467698671066e-17
v -0.09510564804077148 2.0999999046325684 0.030901700258255005
v -0.08090169727802277 2.0999999046325684 0.05877852439880371
v -0.05877852439880371 2.0999999046325684 0.08090169727802277
v -0.030901700258255005 2.0999999046325684 0.09510564804077148
v 6.123233849335533e-18 2.0999999046325684 0.10000000149011612
v 0.030901700258255005 2.0999999046325684 0.09510564804077148
v 0.05877852439880371 2.0999999046325684 0.08090169727802277
v 0.08090169727802277 2.0999999046325684 0.05877852439880371
v 0.09510564804077148 2.0999999046325684 0.030901700258255005
v 0.10000000149011612 2.0999999046325684 0.0
v 0.09510564804077148 2.0999999046325684 -0.030901700258255005
v 0.08090169727802277 2.0999999046325684 -0.05877852439880371
v 0.05877852439880371 2.0999999046325684 -0.08090169727802277
v 0.030901700258255005 2.0999999046325684 -0.09510564804077148
v 6.123233849335533e-18 2.0999999046325684 -0.10000000149011612
v -0.030901700258255005 2.0999999046325684 -0.09510564804077148
v -0.05877852439880371 2.0999999046325684 -0.08090169727802277
v -0.08090169727802277 2.0999999046325684 -0.05877852439880371
v -0.09510564804077148 2.0999999046325684 -0.030901700258255005
vn -0.0 1.0 -0.0
vn -0.0 1.0 -0.0
vn -0.0 1.0 -0.0
vn -0.0 1.0 -0.0
vn -0.0 1.0 -0.0
vn -0.0 1.0 -0.0
vn -0.0 1.0 -0.0
vn -0.0 1.0 -0.0
vn -0.0 1.0 -0.0
vn -0.0 1.0 -0.0
vn -0.0 1.0 -0.0
vn -0.0 1.0 -0.0
vn -0.0 1.0 -0.0
vn -0.0 1.0 -0.0
vn 0.0 0.0 -1.0
vn 0.0 0.0 -1.0
vn 0.0 0.0 -1.0
vn 0.0 0.0 -1.0
vn -1.0 -0.0 -0.0
vn -1.0 -0.0 -0.0
vn -1.0 -0.0 -0.0
vn -1.0 -0.0 -0.0
vn -1.0 -0.0 -0.0
vn -1.0 -0.0 -0.0
vn 0.0 0.0 1.0
vn 0.0 0.0 1.0
vn 0.0 0.0 1.0
vn 0.0 0.0 1.0
vn 1.0 0.0 -0.0
vn 1.0 0.0 -0.0
vn 1.0 0.0 -0.0
vn 1.0 0.0 -0.0
vn 1.0 0.0 -0.0
vn 1.0 0.0 -0.0
vn 0.0 -1.0 0.0
vn 0.0 -1.0 0.0
vn 0.0 -1.0 0.0
vn 0.0 -1.0 0.0
vn -0.0 -1.0 -0.0
vn -0.0 -1.0 -0.0
vn -0.0 -1.0 -0.0
vn -0.0 -1.0 -0.0
vn -0.0 -1.0 -0.0
vn -0.0 -1.0 -0.0
vn -0.0 -1.0 -0.0
vn -0.0 -1.0 -0.0
vn -0.0 -1.0 -0.0
vn -0.0 -1.0 -0.0
vn -0.0 -1.0 -0.0
vn -0.0 -1.0 -0.0
vn -0.0 -1.0 -0.0
vn -0.0 -1.0 -0.0
vn -0.0 -1.0 -0.0
vn -0.0 -1.0 -0.0
vn 1.0 -0.0 1.2246468525851679e-16
vn 0.9396926164627075 -0.0 0.3420201539993286
vn 0.7660444378852844 -0.0 0.6427876353263855
vn 0.5 -0.0 0.8660253882408142
vn 0.1736481785774231 -0.0 0.9848077297210693
vn -0.1736481785774231 -0.0 0.9848077297210693
vn -0.5 -0.0 0.8660253882408142
vn -0.7660444378852844 -0.0 0.6427876353263855
vn -0.9396926164627075 -0.0 0.3420201539993286
vn -1.0 -0.0 0.0
vn -0.9396926164627075 0.0 -0.3420201539993286
vn -0.7660444378852844 0.0 -0.6427876353263855
vn -0.5 0.0 -0.8660253882408142
vn -0.1736481785774231 0.0 -0.9848077297210693
vn 0.1736481785774231 -0.0 -0.9848077297210693
vn 0.5 -0.0 -0.8660253882408142
vn 0.7660444378852844 -0.0 -0.6427876353263855
vn 0.9396926164627075 -0.0 -0.3420201539993286
vn 1.0 -0.0 -1.2246468525851679e-16
vn 0.9396926164627075 -0.0 -0.3420201539993286
vn 0.7660444378852844 -0.0 -0.6427876353263855
vn 0.5 -0.0 -0.8660253882408142
vn 0.1736481785774231 -0.0 -0.9848077297210693
vn -0.1736481785774231 0.0 -0.9848077297210693
vn -0.5 0.0 -0.8660253882408142
vn -0.7660444378852844 0.0 -0.6427876353263855
vn -0.9396926164627075 0.0 -0.3420201539993286
vn -1.0 -0.0 0.0
vn -0.9396926164627075 -0.0 0.3420201539993286
vn -0.7660444378852844 -0.0 0.6427876353263855
vn -0.5 -0.0 0.8660253882408142
vn -0.1736481785774231 -0.0 0.9848077297210693
vn 0.1736481785774231 -0.0 0.9848077297210693
vn 0.5 -0.0 0.8660253882408142
vn 0.7660444378852844 -0.0 0.6427876353263855
vn 0.9396926164627075 -0.0 0.3420201539993286
vn 1.0 -0.0 1.2246468525851679e-16
vn 1.0 -0.0 -1.2246468525851679e-16
vn 0.0 1.0 0.0
vn 0.0 1.0 0.0
vn 0.0 1.0 0.0
vn 0.0 1.0 0.0
vn 0.0 1.0 0.0
vn 0.0 1.0 0.0
vn 0.0 1.0 0.0
vn 0.0 1.0 0.0
vn 0.0 1.0 0.0
vn 0.0 1.0 0.0
vn 0.0 1.0 0.0
vn 0.0 1.0 0.0
vn 0.0 1.0 0.0
vn 0.0 1.0 0.0
vn 0.0 1.0 0.0
vn 0.0 1.0 0.0
vn 0.0 1.0 0.0
vn 0.0 1.0 0.0
vn -1.0 0.0 -1.2246468525851679e-16
vn -0.9510565400123596 0.0 -0.30901700258255005
vn -0.80901700258255 0.0 -0.5877852439880371
vn -0.5877852439880371 0.0 -0.80901700258255
vn -0.30901700258255005 0.0 -0.9510565400123596
vn 6.123234262925839e-17 -0.0 -1.0
vn 0.30901700258255005 -0.0 -0.9510565400123596
vn 0.5877852439880371 -0.0 -0.80901700258255
vn 0.80901700258255 -0.0 -0.5877852439880371
vn 0.9510565400123596 -0.0 -0.30901700258255005
vn 1.0 -0.0 -0.0
vn 0.9510565400123596 -0.0 0.30901700258255005
vn 0.80901700258255 -0.0 0.5877852439880371
vn 0.5877852439880371 -0.0 0.80901700258255
vn 0.30901700258255005 -0.0 0.9510565400123596
vn 6.123234262925839e-17 -0.0 1.0
vn -0.30901700258255005 -0.0 0.9510565400123596
vn -0.5877852439880371 -0.0 0.80901700258255
vn -0.80901700258255 -0.0 0.5877852439880371
vn -0.9510565400123596 -0.0 0.30901700258255005
vn -0.5 0.0 -0.8660253882408142
vn -0.7330518960952759 0.0 -0.6801727414131165
vn -0.9009688496589661 0.0 -0.4338837265968323
vn -0.9888308048248291 0.0 -0.1490422636270523
vn -0.9888308048248291 -0.0 0.1490422636270523
vn -0.9009688496589661 -0.0 0.4338837265968323
vn -0.7330518960952759 -0.0 0.6801727414131165
vn -0.5 -0.0 0.8660253882408142
vn -0.258819043636322 -0.0 0.9659258127212524
vn 6.123234262925839e-17 -0.0 1.0
vn 0.258819043636322 -0.0 0.9659258127212524
vn 0.5 -0.0 0.8660253882408142
vn 0.7330518960952759 -0.0 0.6801727414131165
vn 0.9009688496589661 -0.0 0.4338837265968323
vn 0.9888308048248291 -0.0 0.1490422636270523
vn 0.9888308048248291 -0.0 -0.1490422636270523
vn 0.9009688496589661 -0.0 -0.4338837265968323
vn 0.7330518960952759 -0.0 -0.6801727414131165
vn 0.5 -0.0 -0.8660253882408142
vn 0.258819043636322 -0.0 -0.9659258127212524
vn 6.123234262925839e-17 -0.0 -1.0
vn -0.258819043636322 0.0 -0.9659258127212524
vn -0.9888308048248291 0.0 -0.1490422636270523
vn -1.0 -0.0 1.2246468525851679e-16
vn 0.0 1.0 0.0
vn 0.0 1.0 0.0
vn 0.0 1.0 0.0
vn 0.0 1.0 0.0
vn 0.0 1.0 0.0
vn 0.0 1.0 0.0
vn 0.0 1.0 0.0
vn 0.0 1.0 0.0
vn 0.0 1.0 0.0
vn 0.0 1.0 0.0
vn 0.0 1.0 0.0
vn 0.0 1.0 0.0
vn 0.0 1.0 0.0
vn 0.0 1.0 0.0
vn 0.0 1.0 0.0
vn 0.0 1.0 0.0
vn 0.0 1.0 0.0
vn 0.0 1.0 0.0
vn 0.0 1.0 0.0
vn 0.0 1.0 0.0
vn 0.0 1.0 0.0
vn 0.0 1.0 0.0
vn 0.0 1.0 0.0
vn 0.0 1.0 0.0
vn 0.0 1.0 0.0
vn 0.0 1.0 0.0
vn 0.0 1.0 0.0
vn 0.0 1.0 0.0
vn 0.0 1.0 0.0
vn 0.0 1.0 0.0
vn 0.0 1.0 0.0
vn 0.0 1.0 0.0
vn 0.0 1.0 0.0
vn 0.0 1.0 0.0
vn 0.0 1.0 0.0
vn 0.0 1.0 0.0
vn 0.0 1.0 0.0
vn 0.0 1.0 0.0
g 7493254c-e2cc-11ea-974e-54bf646e7e1f
f 1//1 2//2 7//7
f 7//7 2//2 3//3
f 7//7 3//3 6//6
f 6//6 3//3 4//4
f 6//6 4//4 5//5
g 749a7618-e2cc-11ea-8ed9-54bf646e7e1f
f 8//8 9//9 14//14
f 14//14 9//9 10//10
f 14//14 10//10 13//13
f 13//13 10//10 11//11
f 13//13 11//11 12//12
g 74a289c0-e2cc-11ea-bfd6-54bf646e7e1f
f 15//15 16//16 18//18
f 18//18 16//16 17//17
g 74a98c5e-e2cc-11ea-af56-54bf646e7e1f
f 19//19 20//20 24//24
f 24//24 20//20 21//21
f 24//24 21//21 23//23
f 23//23 21//21 22//22
g 74b0680a-e2cc-11ea-b8b0-54bf646e7e1f
f 25//25 26//26 28//28
f 28//28 26//26 27//27
g 74dd5d40-e2cc-11ea-9fb3-54bf646e7e1f
f 29//29 30//30 34//34
f 34//34 30//30 31//31
f 34//34 31//31 33//33
f 33//33 31//31 32//32
g 74e4d486-e2cc-11ea-b328-54bf646e7e1f
f 35//35 36//36 38//38
f 38//38 36//36 37//37
g 737c6968-e2cc-11ea-8732-54bf646e7e1f
f 40//40 41//41 39//39
f 39//39 41//41 46//46
f 46//46 41//41 42//42
f 46//46 42//42 45//45
f 45//45 42//42 43//43
f 45//45 43//43 44//44
g 7d6bfc94-3acd-30e1-8009-a3c29a53cffa
f 47//47 48//48 54//54
f 54//54 48//48 49//49
f 54//54 49//49 50//50
f 54//54 50//50 53//53
f 53//53 50//50 51//51
f 53//53 51//51 52//52
g 73e91222-e2cc-11ea-bd42-54bf646e7e1f
f 56//56 90//90 55//55
f 55//55 90//90 91//91
f 92//92 73//73 72//72
f 72//72 73//73 74//74
f 72//72 74//74 71//71
f 71//71 74//74 75//75
f 71//71 75//75 70//70
f 70//70 75//75 76//76
f 70//70 76//76 69//69
f 69//69 76//76 77//77
f 69//69 77//77 68//68
f 68//68 77//77 78//78
f 68//68 78//78 67//67
f 67//67 78//78 79//79
f 67//67 79//79 66//66
f 66//66 79//79 80//80
f 66//66 80//80 65//65
f 65//65 80//80 81//81
f 65//65 81//81 64//64
f 64//64 81//81 82//82
f 64//64 82//82 63//63
f 63//63 82//82 83//83
f 63//63 83//83 62//62
f 62//62 83//83 84//84
f 62//62 84//84 61//61
f 61//61 84//84 85//85
f 61//61 85//85 60//60
f 60//60 85//85 86//86
f 60//60 86//86 59//59
f 59//59 86//86 87//87
f 59//59 87//87 58//58
f 58//58 87//87 88//88
f 58//58 88//88 57//57
f 57//57 88//88 89//89
f 57//57 89//89 56//56
f 56//56 89//89 90//90
g 73efc6de-e2cc-11ea-bad8-54bf646e7e1f
f 94//94 101//101 93//93
f 93//93 101//101 102//102
f 93//93 102//102 110//110
f 110//110 102//102 103//103
f 110//110 103//103 109//109
f 109//109 103//103 104//104
f 109//109 104//104 108//108
f 108//108 104//104 105//105
f 108//108 105//105 107//107
f 107//107 105//105 106//106
f 101//101 94//94 100//100
f 100//100 94//94 95//95
f 100//100 95//95 99//99
f 99//99 95//95 96//96
f 99//99 96//96 98//98
f 98//98 96//96 97//97
g 736c41e4-e2cc-11ea-bdae-54bf646e7e1f
f 112//112 153//153 111//111
f 154//154 134//134 135//135
f 154//154 135//135 130//130
f 130//130 135//135 136//136
f 130//130 136//136 129//129
f 129//129 136//136 137//137
f 129//129 137//137 128//128
f 128//128 137//137 138//138
f 128//128 138//138 127//127
f 127//127 138//138 139//139
f 127//127 139//139 126//126
f 126//126 139//139 140//140
f 126//126 140//140 141//141
f 153//153 112//112 133//133
f 133//133 112//112 113//113
f 133//133 113//113 132//132
f 132//132 113//113 114//114
f 132//132 114//114 131//131
f 131//131 114//114 115//115
f 131//131 115//115 152//152
f 152//152 115//115 116//116
f 152//152 116//116 151//151
f 151//151 116//116 150//150
f 150//150 116//116 117//117
f 150//150 117//117 149//149
f 149//149 117//117 118//118
f 149//149 118//118 148//148
f 148//148 118//118 119//119
f 148//148 119//119 147//147
f 147//147 119//119 120//120
f 147//147 120//120 146//146
f 146//146 120//120 121//121
f 146//146 121//121 145//145
f 145//145 121//121 122//122
f 145//145 122//122 144//144
f 144//144 122//122 123//123
f 144//144 123//123 143//143
f 143//143 123//123 124//124
f 143//143 124//124 142//142
f 142//142 124//124 125//125
f 142//142 125//125 141//141
f 141//141 125//125 126//126
g 7374f1ca-e2cc-11ea-aebc-54bf646e7e1f
f 156//156 182//182 155//155
f 155//155 182//182 183//183
f 155//155 183//183 184//184
f 182//182 156//156 181//181
f 181//181 156//156 157//157
f 181//181 157//157 180//180
f 180//180 157//157 158//158
f 180//180 158//158 179//179
f 179//179 158//158 159//159
f 179//179 159//159 178//178
f 178//178 159//159 160//160
f 178//178 160//160 177//177
f 177//177 160//160 161//161
f 177//177 161//161 176//176
f 176//176 161//161 162//162
f 176//176 162//162 175//175
f 175//175 162//162 163//163
f 175//175 163//163 174//174
f 174//174 163//163 164//164
f 174//174 164//164 173//173
f 173//173 164//164 192//192
f 192//192 164//164 165//165
f 192//192 165//165 191//191
f 191//191 165//165 166//166
f 191//191 166//166 190//190
f 190//190 166//166 167//167
f 190//190 167//167 189//189
f 189//189 167//167 168//168
f 189//189 168//168 188//188
f 188//188 168//168 169//169
f 188//188 169//169 187//187
f 187//187 169//169 170//170
f 187//187 170//170 186//186
f 186//186 170//170 171//171
f 186//186 171//171 185//185
f 185//185 171//171 172//172
f 185//185 172//172 184//184
f 184//184 172//172 155//155

# End of file