# WaveFront *.obj file
# Vertices: 56
# Triangles : 44

v -0.0076703159138560295 0.0 -0.06515002995729446
v -0.0051200552843511105 0.0 -0.0653998851776123
v -0.0025619822554290295 0.0 -0.06554995477199554
v 0.0 0.0 -0.06560000032186508
v 0.0 0.019999999552965164 -0.06560000032186508
v -0.0025619822554290295 0.019999999552965164 -0.06554995477199554
v -0.0051200552843511105 0.019999999552965164 -0.0653998851776123
v -0.0076703159138560295 0.019999999552965164 -0.06515002995729446
v -0.0031999999191612005 0.0 -0.08240000158548355
v -0.004140061791986227 0.0 -0.08002496510744095
v -0.00498172827064991 0.0 -0.07761330902576447
v -0.00572357838973403 0.0 -0.07516910135746002
v -0.006364358123391867 0.0 -0.07269646972417831
v -0.0069029852747917175 0.0 -0.07019960135221481
v -0.007338549941778183 0.0 -0.06768269836902618
v -0.0076703159138560295 0.0 -0.06515002995729446
v -0.0076703159138560295 0.019999999552965164 -0.06515002995729446
v -0.007338549941778183 0.019999999552965164 -0.06768269836902618
v -0.0069029852747917175 0.019999999552965164 -0.07019960135221481
v -0.006364358123391867 0.019999999552965164 -0.07269646972417831
v -0.00572357838973403 0.019999999552965164 -0.07516910135746002
v -0.00498172827064991 0.019999999552965164 -0.07761330902576447
v -0.004140061791986227 0.019999999552965164 -0.08002496510744095
v -0.0031999999191612005 0.019999999552965164 -0.08240000158548355
v 0.0 0.0 -0.08240000158548355
v -0.0031999999191612005 0.0 -0.08240000158548355
v -0.0031999999191612005 0.019999999552965164 -0.08240000158548355
v 0.0 0.019999999552965164 -0.08240000158548355
v 0.0 0.0 -0.06560000032186508
v 0.0 0.0 -0.08240000158548355
v 0.0 0.019999999552965164 -0.08240000158548355
v 0.0 0.019999999552965164 -0.06560000032186508
v 0.0 0.019999999552965164 -0.06560000032186508
v 0.0 0.019999999552965164 -0.08240000158548355
v -0.0031999999191612005 0.019999999552965164 -0.08240000158548355
v -0.004140061791986227 0.019999999552965164 -0.08002496510744095
v -0.00498172827064991 0.019999999552965164 -0.07761330902576447
v -0.00572357838973403 0.019999999552965164 -0.07516910135746002
v -0.006364358123391867 0.019999999552965164 -0.07269646972417831
v -0.0069029852747917175 0.019999999552965164 -0.07019960135221481
v -0.007338549941778183 0.019999999552965164 -0.06768269836902618
v -0.0076703159138560295 0.019999999552965164 -0.06515002995729446
v -0.0051200552843511105 0.019999999552965164 -0.0653998851776123
v -0.0025619822554290295 0.019999999552965164 -0.06554995477199554
v 0.0 0.0 -0.08240000158548355
v 0.0 0.0 -0.06560000032186508
v -0.0025619822554290295 0.0 -0.06554995477199554
v -0.0051200552843511105 0.0 -0.0653998851776123
v -0.0076703159138560295 0.0 -0.06515002995729446
v -0.007338549941778183 0.0 -0.06768269836902618
v -0.0069029852747917175 0.0 -0.07019960135221481
v -0.006364358123391867 0.0 -0.07269646972417831
v -0.00572357838973403 0.0 -0.07516910135746002
v -0.00498172827064991 0.0 -0.07761330902576447
v -0.004140061791986227 0.0 -0.08002496510744095
v -0.0031999999191612005 0.0 -0.08240000158548355
vn 0.11692554503679276 -0.0 0.993140697479248
vn 0.07804962247610092 -0.0 0.9969494938850403
vn 0.03905460610985756 -0.0 0.999237060546875
vn 0.0 -0.0 1.0
vn 0.0 -0.0 1.0
vn 0.03905460610985756 -0.0 0.999237060546875
vn 0.07804962247610092 -0.0 0.9969494938850403
vn 0.11692554503679276 -0.0 0.993140697479248
vn -0.9220540523529053 0.0 -0.38706111907958984
vn -0.9371812343597412 0.0 -0.3488428294658661
vn -0.9507250785827637 0.0 -0.31003516912460327
vn -0.9626626968383789 0.0 -0.2707037329673767
vn -0.9729739427566528 0.0 -0.2309149205684662
vn -0.9816413521766663 0.0 -0.19073601067066193
vn -0.9886503219604492 0.0 -0.15023484826087952
vn -0.9939889907836914 0.0 -0.1094798669219017
vn -0.9939889907836914 0.0 -0.1094798669219017
vn -0.9886503219604492 0.0 -0.15023484826087952
vn -0.9816413521766663 0.0 -0.19073601067066193
vn -0.9729739427566528 0.0 -0.2309149205684662
vn -0.9626626968383789 0.0 -0.2707037329673767
vn -0.9507250785827637 0.0 -0.31003516912460327
vn -0.9371812343597412 0.0 -0.3488428294658661
vn -0.9220540523529053 0.0 -0.38706111907958984
vn 0.0 0.0 -1.0
vn 0.0 0.0 -1.0
vn 0.0 0.0 -1.0
vn 0.0 0.0 -1.0
vn 1.0 -0.0 0.0
vn 1.0 -0.0 0.0
vn 1.0 -0.0 0.0
vn 1.0 -0.0 0.0
vn 0.0 1.0 0.0
vn 0.0 1.0 0.0
vn 0.0 1.0 0.0
vn 0.0 1.0 0.0
vn 0.0 1.0 0.0
vn 0.0 1.0 0.0
vn 0.0 1.0 0.0
vn 0.0 1.0 0.0
vn 0.0 1.0 0.0
vn 0.0 1.0 0.0
vn 0.0 1.0 0.0
vn 0.0 1.0 0.0
vn -0.0 -1.0 -0.0
vn -0.0 -1.0 -0.0
vn -0.0 -1.0 -0.0
vn -0.0 -1.0 -0.0
vn -0.0 -1.0 -0.0
vn -0.0 -1.0 -0.0
vn -0.0 -1.0 -0.0
vn -0.0 -1.0 -0.0
vn -0.0 -1.0 -0.0
vn -0.0 -1.0 -0.0
vn -0.0 -1.0 -0.0
vn -0.0 -1.0 -0.0
g 9162be08-e2cd-11ea-84a6-54bf646e7e1f
f 8//8 1//1 7//7
f 7//7 1//1 2//2
f 7//7 2//2 6//6
f 6//6 2//2 3//3
f 6//6 3//3 5//5
f 5//5 3//3 4//4
g 9169252e-e2cd-11ea-a033-54bf646e7e1f
f 24//24 9//9 23//23
f 23//23 9//9 10//10
f 23//23 10//10 22//22
f 22//22 10//10 11//11
f 22//22 11//11 21//21
f 21//21 11//11 12//12
f 21//21 12//12 20//20
f 20//20 12//12 13//13
f 20//20 13//13 19//19
f 19//19 13//13 14//14
f 19//19 14//14 18//18
f 18//18 14//14 15//15
f 18//18 15//15 17//17
f 17//17 15//15 16//16
g 91700158-e2cd-11ea-9a1c-54bf646e7e1f
f 25//25 26//26 28//28
f 28//28 26//26 27//27
g 9176dd92-e2cd-11ea-b5a4-54bf646e7e1f
f 29//29 30//30 32//32
f 32//32 30//30 31//31
g 917e2f00-e2cd-11ea-b366-54bf646e7e1f
f 34//34 37//37 33//33
f 33//33 37//37 38//38
f 33//33 38//38 39//39
f 35//35 36//36 34//34
f 34//34 36//36 37//37
f 33//33 39//39 44//44
f 44//44 39//39 40//40
f 44//44 40//40 43//43
f 43//43 40//40 41//41
f 43//43 41//41 42//42
g 9184e41c-e2cd-11ea-8e6d-54bf646e7e1f
f 46//46 54//54 45//45
f 45//45 54//54 55//55
f 45//45 55//55 56//56
f 47//47 52//52 46//46
f 46//46 52//52 53//53
f 46//46 53//53 54//54
f 52//52 47//47 51//51
f 51//51 47//47 48//48
f 51//51 48//48 50//50
f 50//50 48//48 49//49

# End of file