# WaveFront *.obj file
# Vertices: 24
# Triangles : 12

v 37.33598327636719 0.0 30.57853889465332
v 55.0 0.0 30.57853889465332
v 55.0 10.0 30.57853889465332
v 37.33598327636719 10.0 30.57853889465332
v 37.33598327636719 0.0 -30.0
v 37.33598327636719 0.0 30.57853889465332
v 37.33598327636719 10.0 30.57853889465332
v 37.33598327636719 10.0 -30.0
v 55.0 0.0 -30.0
v 37.33598327636719 0.0 -30.0
v 37.33598327636719 10.0 -30.0
v 55.0 10.0 -30.0
v 55.0 0.0 30.57853889465332
v 55.0 0.0 -30.0
v 55.0 10.0 -30.0
v 55.0 10.0 30.57853889465332
v 55.0 10.0 30.57853889465332
v 55.0 10.0 -30.0
v 37.33598327636719 10.0 -30.0
v 37.33598327636719 10.0 30.57853889465332
v 55.0 0.0 -30.0
v 55.0 0.0 30.57853889465332
v 37.33598327636719 0.0 30.57853889465332
v 37.33598327636719 0.0 -30.0
vn 0.0 0.0 1.0
vn 0.0 0.0 1.0
vn 0.0 0.0 1.0
vn 0.0 0.0 1.0
vn -1.0 0.0 0.0
vn -1.0 0.0 0.0
vn -1.0 0.0 0.0
vn -1.0 0.0 0.0
vn 0.0 0.0 -1.0
vn 0.0 0.0 -1.0
vn 0.0 0.0 -1.0
vn 0.0 0.0 -1.0
vn 1.0 -0.0 0.0
vn 1.0 -0.0 0.0
vn 1.0 -0.0 0.0
vn 1.0 -0.0 0.0
vn 0.0 1.0 0.0
vn 0.0 1.0 0.0
vn 0.0 1.0 0.0
vn 0.0 1.0 0.0
vn -0.0 -1.0 -0.0
vn -0.0 -1.0 -0.0
vn -0.0 -1.0 -0.0
vn -0.0 -1.0 -0.0
g 691111cc-e2d0-11ea-bd5d-54bf646e7e1f
f 1//1 2//2 4//4
f 4//4 2//2 3//3
g 691186e2-e2d0-11ea-91f1-54bf646e7e1f
f 5//5 6//6 8//8
f 8//8 6//6 7//7
g 6911d4fa-e2d0-11ea-8685-54bf646e7e1f
f 9//9 10//10 12//12
f 12//12 10//10 11//11
g 69122310-e2d0-11ea-ad7e-54bf646e7e1f
f 13//13 14//14 16//16
f 16//16 14//14 15//15
g 69127126-e2d0-11ea-a242-54bf646e7e1f
f 17//17 18//18 20//20
f 20//20 18//18 19//19
g 6912e652-e2d0-11ea-bfbe-54bf646e7e1f
f 22//22 23//23 21//21
f 21//21 23//23 24//24

# End of file