# WaveFront *.obj file
# Vertices: 208
# Triangles : 188

v 2.088554620742798 2.5399999618530273 -0.744140625
v 2.1747729778289795 2.2746469974517822 -0.744140625
v 2.400495767593384 2.110650062561035 -0.744140625
v 2.679504156112671 2.110650062561035 -0.744140625
v 2.905226945877075 2.2746469974517822 -0.744140625
v 2.991445302963257 2.5399999618530273 -0.744140625
v 2.905226945877075 2.8053529262542725 -0.744140625
v 2.679504156112671 2.9693500995635986 -0.744140625
v 2.400495767593384 2.9693500995635986 -0.744140625
v 2.1747729778289795 2.8053529262542725 -0.744140625
v 2.088554620742798 2.5399999618530273 0.0
v 2.1747729778289795 2.8053529262542725 0.0
v 2.400495767593384 2.9693500995635986 0.0
v 2.679504156112671 2.9693500995635986 0.0
v 2.905226945877075 2.8053529262542725 0.0
v 2.991445302963257 2.5399999618530273 0.0
v 2.905226945877075 2.2746469974517822 0.0
v 2.679504156112671 2.110650062561035 0.0
v 2.400495767593384 2.110650062561035 0.0
v 2.1747729778289795 2.2746469974517822 0.0
v 2.088554620742798 2.5399999618530273 0.0
v 2.088554620742798 2.5399999618530273 -0.744140625
v 2.033984422683716 2.5399999618530273 -0.6895703077316284
v 2.1143126487731934 2.2664272785186768 -0.6895703077316284
v 2.3297934532165527 2.0797119140625 -0.6895703077316284
v 2.612013578414917 2.039134979248047 -0.6895703077316284
v 2.8713698387145996 2.157578945159912 -0.6895703077316284
v 3.0255184173583984 2.3974390029907227 -0.6895703077316284
v 3.0255184173583984 2.682561159133911 -0.6895703077316284
v 2.8713698387145996 2.9224209785461426 -0.6895703077316284
v 2.612013578414917 3.040865182876587 -0.6895703077316284
v 2.3297934532165527 3.0002880096435547 -0.6895703077316284
v 2.1143126487731934 2.813572645187378 -0.6895703077316284
v 2.033984422683716 2.5399999618530273 -0.744140625
v 2.1143126487731934 2.813572645187378 -0.744140625
v 2.3297934532165527 3.0002880096435547 -0.744140625
v 2.612013578414917 3.040865182876587 -0.744140625
v 2.8713698387145996 2.9224209785461426 -0.744140625
v 3.0255184173583984 2.682561159133911 -0.744140625
v 3.0255184173583984 2.3974390029907227 -0.744140625
v 2.8713698387145996 2.157578945159912 -0.744140625
v 2.612013578414917 2.039134979248047 -0.744140625
v 2.3297934532165527 2.0797119140625 -0.744140625
v 2.1143126487731934 2.2664272785186768 -0.744140625
v 2.033984422683716 2.5399999618530273 -0.744140625
v 2.033984422683716 2.5399999618530273 -0.6895703077316284
v 2.088554620742798 2.5399999618530273 -0.744140625
v 2.1747729778289795 2.8053529262542725 -0.744140625
v 2.400495767593384 2.9693500995635986 -0.744140625
v 2.679504156112671 2.9693500995635986 -0.744140625
v 2.905226945877075 2.8053529262542725 -0.744140625
v 2.991445302963257 2.5399999618530273 -0.744140625
v 2.905226945877075 2.2746469974517822 -0.744140625
v 2.679504156112671 2.110650062561035 -0.744140625
v 2.400495767593384 2.110650062561035 -0.744140625
v 2.1747729778289795 2.2746469974517822 -0.744140625
v 2.033984422683716 2.5399999618530273 -0.744140625
v 2.1143126487731934 2.2664272785186768 -0.744140625
v 2.3297934532165527 2.0797119140625 -0.744140625
v 2.612013578414917 2.039134979248047 -0.744140625
v 2.8713698387145996 2.157578945159912 -0.744140625
v 3.0255184173583984 2.3974390029907227 -0.744140625
v 3.0255184173583984 2.682561159133911 -0.744140625
v 2.8713698387145996 2.9224209785461426 -0.744140625
v 2.612013578414917 3.040865182876587 -0.744140625
v 2.3297934532165527 3.0002880096435547 -0.744140625
v 2.1143126487731934 2.813572645187378 -0.744140625
v 1.9794141054153442 2.5399999618530273 -0.6349999904632568
v 2.0684051513671875 2.236924409866333 -0.6349999904632568
v 2.307124137878418 2.0300731658935547 -0.6349999904632568
v 2.619779586791992 1.9851200580596924 -0.6349999904632568
v 2.9071056842803955 2.116337299346924 -0.6349999904632568
v 3.07787823677063 2.3820645809173584 -0.6349999904632568
v 3.07787823677063 2.6979353427886963 -0.6349999904632568
v 2.9071056842803955 2.963662624359131 -0.6349999904632568
v 2.619779586791992 3.0948798656463623 -0.6349999904632568
v 2.307124137878418 3.049926996231079 -0.6349999904632568
v 2.0684051513671875 2.843075752258301 -0.6349999904632568
v 1.9794141054153442 2.5399999618530273 -0.6895703077316284
v 2.0684051513671875 2.843075752258301 -0.6895703077316284
v 2.307124137878418 3.049926996231079 -0.6895703077316284
v 2.619779586791992 3.0948798656463623 -0.6895703077316284
v 2.9071056842803955 2.963662624359131 -0.6895703077316284
v 3.07787823677063 2.6979353427886963 -0.6895703077316284
v 3.07787823677063 2.3820645809173584 -0.6895703077316284
v 2.9071056842803955 2.116337299346924 -0.6895703077316284
v 2.619779586791992 1.9851200580596924 -0.6895703077316284
v 2.307124137878418 2.0300731658935547 -0.6895703077316284
v 2.0684051513671875 2.236924409866333 -0.6895703077316284
v 1.9794141054153442 2.5399999618530273 -0.6895703077316284
v 1.9794141054153442 2.5399999618530273 -0.6349999904632568
v 2.033984422683716 2.5399999618530273 -0.6895703077316284
v 2.1143126487731934 2.813572645187378 -0.6895703077316284
v 2.3297934532165527 3.0002880096435547 -0.6895703077316284
v 2.612013578414917 3.040865182876587 -0.6895703077316284
v 2.8713698387145996 2.9224209785461426 -0.6895703077316284
v 3.0255184173583984 2.682561159133911 -0.6895703077316284
v 3.0255184173583984 2.3974390029907227 -0.6895703077316284
v 2.8713698387145996 2.157578945159912 -0.6895703077316284
v 2.612013578414917 2.039134979248047 -0.6895703077316284
v 2.3297934532165527 2.0797119140625 -0.6895703077316284
v 2.1143126487731934 2.2664272785186768 -0.6895703077316284
v 1.9794141054153442 2.5399999618530273 -0.6895703077316284
v 2.0684051513671875 2.236924409866333 -0.6895703077316284
v 2.307124137878418 2.0300731658935547 -0.6895703077316284
v 2.619779586791992 1.9851200580596924 -0.6895703077316284
v 2.9071056842803955 2.116337299346924 -0.6895703077316284
v 3.07787823677063 2.3820645809173584 -0.6895703077316284
v 3.07787823677063 2.6979353427886963 -0.6895703077316284
v 2.9071056842803955 2.963662624359131 -0.6895703077316284
v 2.619779586791992 3.0948798656463623 -0.6895703077316284
v 2.307124137878418 3.049926996231079 -0.6895703077316284
v 2.0684051513671875 2.843075752258301 -0.6895703077316284
v 1.9248437881469727 2.5399999618530273 -0.6349999904632568
v 2.0072591304779053 2.8475780487060547 -0.6349999904632568
v 2.232421875 3.0727410316467285 -0.6349999904632568
v 2.5399999618530273 3.155156135559082 -0.6349999904632568
v 2.8475780487060547 3.0727410316467285 -0.6349999904632568
v 3.0727410316467285 2.8475780487060547 -0.6349999904632568
v 3.155156135559082 2.5399999618530273 -0.6349999904632568
v 3.0727410316467285 2.232421875 -0.6349999904632568
v 2.8475780487060547 2.0072591304779053 -0.6349999904632568
v 2.5399999618530273 1.9248437881469727 -0.6349999904632568
v 2.232421875 2.0072591304779053 -0.6349999904632568
v 2.0072591304779053 2.232421875 -0.6349999904632568
v 1.9248437881469727 2.5399999618530273 0.0
v 2.0072591304779053 2.232421875 0.0
v 2.232421875 2.0072591304779053 0.0
v 2.5399999618530273 1.9248437881469727 0.0
v 2.8475780487060547 2.0072591304779053 0.0
v 3.0727410316467285 2.232421875 0.0
v 3.155156135559082 2.5399999618530273 0.0
v 3.0727410316467285 2.8475780487060547 0.0
v 2.8475780487060547 3.0727410316467285 0.0
v 2.5399999618530273 3.155156135559082 0.0
v 2.232421875 3.0727410316467285 0.0
v 2.0072591304779053 2.8475780487060547 0.0
v 1.9248437881469727 2.5399999618530273 -0.6349999904632568
v 1.9248437881469727 2.5399999618530273 0.0
v 1.9794141054153442 2.5399999618530273 -0.6349999904632568
v 2.0684051513671875 2.843075752258301 -0.6349999904632568
v 2.307124137878418 3.049926996231079 -0.6349999904632568
v 2.619779586791992 3.0948798656463623 -0.6349999904632568
v 2.9071056842803955 2.963662624359131 -0.6349999904632568
v 3.07787823677063 2.6979353427886963 -0.6349999904632568
v 3.07787823677063 2.3820645809173584 -0.6349999904632568
v 2.9071056842803955 2.116337299346924 -0.6349999904632568
v 2.619779586791992 1.9851200580596924 -0.6349999904632568
v 2.307124137878418 2.0300731658935547 -0.6349999904632568
v 2.0684051513671875 2.236924409866333 -0.6349999904632568
v 1.9248437881469727 2.5399999618530273 -0.6349999904632568
v 2.0072591304779053 2.232421875 -0.6349999904632568
v 2.232421875 2.0072591304779053 -0.6349999904632568
v 2.5399999618530273 1.9248437881469727 -0.6349999904632568
v 2.8475780487060547 2.0072591304779053 -0.6349999904632568
v 3.0727410316467285 2.232421875 -0.6349999904632568
v 3.155156135559082 2.5399999618530273 -0.6349999904632568
v 3.0727410316467285 2.8475780487060547 -0.6349999904632568
v 2.8475780487060547 3.0727410316467285 -0.6349999904632568
v 2.5399999618530273 3.155156135559082 -0.6349999904632568
v 2.232421875 3.0727410316467285 -0.6349999904632568
v 2.0072591304779053 2.8475780487060547 -0.6349999904632568
v 0.0 28.0987491607666 0.0
v 0.0 0.0 0.0
v 38.099998474121094 -4.930380657631324e-31 0.0
v 38.099998474121094 28.0987491607666 0.0
v 1.9248437881469727 2.5399999618530273 0.0
v 2.0072591304779053 2.8475780487060547 0.0
v 2.232421875 3.0727410316467285 0.0
v 2.5399999618530273 3.155156135559082 0.0
v 2.8475780487060547 3.0727410316467285 0.0
v 3.0727410316467285 2.8475780487060547 0.0
v 3.155156135559082 2.5399999618530273 0.0
v 3.0727410316467285 2.232421875 0.0
v 2.8475780487060547 2.0072591304779053 0.0
v 2.5399999618530273 1.9248437881469727 0.0
v 2.232421875 2.0072591304779053 0.0
v 2.0072591304779053 2.232421875 0.0
v 38.099998474121094 -4.930380657631324e-31 0.0
v 0.0 0.0 0.0
v 0.0 0.0 -1.9049999713897705
v 38.099998474121094 0.0 -1.9049999713897705
v 38.099998474121094 28.0987491607666 0.0
v 38.099998474121094 -4.930380657631324e-31 0.0
v 38.099998474121094 0.0 -1.9049999713897705
v 38.099998474121094 28.0987491607666 -1.9049999713897705
v 0.0 28.0987491607666 0.0
v 38.099998474121094 28.0987491607666 0.0
v 38.099998474121094 28.0987491607666 -1.9049999713897705
v 0.0 28.0987491607666 -1.9049999713897705
v 0.0 0.0 0.0
v 0.0 28.0987491607666 0.0
v 0.0 28.0987491607666 -1.9049999713897705
v 0.0 0.0 -1.9049999713897705
v 2.088554620742798 2.5399999618530273 0.0
v 2.1747729778289795 2.2746469974517822 0.0
v 2.400495767593384 2.110650062561035 0.0
v 2.679504156112671 2.110650062561035 0.0
v 2.905226945877075 2.2746469974517822 0.0
v 2.991445302963257 2.5399999618530273 0.0
v 2.905226945877075 2.8053529262542725 0.0
v 2.679504156112671 2.9693500995635986 0.0
v 2.400495767593384 2.9693500995635986 0.0
v 2.1747729778289795 2.8053529262542725 0.0
v 0.0 0.0 -1.9049999713897705
v 0.0 28.0987491607666 -1.9049999713897705
v 38.099998474121094 28.0987491607666 -1.9049999713897705
v 38.099998474121094 0.0 -1.9049999713897705
vn -1.0 -1.2246468525851679e-16 -0.0
vn -0.80901700258255 -0.5877852439880371 -0.0
vn -0.30901700258255005 -0.9510565400123596 -0.0
vn 0.30901700258255005 -0.9510565400123596 -0.0
vn 0.80901700258255 -0.5877852439880371 -0.0
vn 1.0 0.0 0.0
vn 0.80901700258255 0.5877852439880371 0.0
vn 0.30901700258255005 0.9510565400123596 0.0
vn -0.30901700258255005 0.9510565400123596 -0.0
vn -0.80901700258255 0.5877852439880371 -0.0
vn -1.0 1.2246468525851679e-16 -0.0
vn -0.80901700258255 0.5877852439880371 -0.0
vn -0.30901700258255005 0.9510565400123596 -0.0
vn 0.30901700258255005 0.9510565400123596 0.0
vn 0.80901700258255 0.5877852439880371 0.0
vn 1.0 0.0 0.0
vn 0.80901700258255 -0.5877852439880371 -0.0
vn 0.30901700258255005 -0.9510565400123596 -0.0
vn -0.30901700258255005 -0.9510565400123596 -0.0
vn -0.80901700258255 -0.5877852439880371 -0.0
vn -1.0 -1.2246468525851679e-16 -0.0
vn -1.0 1.2246468525851679e-16 -0.0
vn 1.0 1.2246468525851679e-16 0.0
vn 0.8412535190582275 0.5406408309936523 0.0
vn 0.4154150187969208 0.9096319675445557 0.0
vn -0.1423148363828659 0.9898214340209961 0.0
vn -0.6548607349395752 0.7557495832443237 0.0
vn -0.9594929814338684 0.28173255920410156 0.0
vn -0.9594929814338684 -0.28173255920410156 -0.0
vn -0.6548607349395752 -0.7557495832443237 -0.0
vn -0.1423148363828659 -0.9898214340209961 -0.0
vn 0.4154150187969208 -0.9096319675445557 0.0
vn 0.8412535190582275 -0.5406408309936523 0.0
vn 1.0 -1.2246468525851679e-16 0.0
vn 0.8412535190582275 -0.5406408309936523 0.0
vn 0.4154150187969208 -0.9096319675445557 0.0
vn -0.1423148363828659 -0.9898214340209961 -0.0
vn -0.6548607349395752 -0.7557495832443237 -0.0
vn -0.9594929814338684 -0.28173255920410156 -0.0
vn -0.9594929814338684 0.28173255920410156 0.0
vn -0.6548607349395752 0.7557495832443237 0.0
vn -0.1423148363828659 0.9898214340209961 0.0
vn 0.4154150187969208 0.9096319675445557 0.0
vn 0.8412535190582275 0.5406408309936523 0.0
vn 1.0 1.2246468525851679e-16 0.0
vn 1.0 -1.2246468525851679e-16 0.0
vn 0.0 0.0 1.0
vn 0.0 0.0 1.0
vn 0.0 0.0 1.0
vn 0.0 0.0 1.0
vn 0.0 0.0 1.0
vn 0.0 0.0 1.0
vn 0.0 0.0 1.0
vn 0.0 0.0 1.0
vn 0.0 0.0 1.0
vn 0.0 0.0 1.0
vn 0.0 0.0 1.0
vn 0.0 0.0 1.0
vn 0.0 0.0 1.0
vn 0.0 0.0 1.0
vn 0.0 0.0 1.0
vn 0.0 0.0 1.0
vn 0.0 0.0 1.0
vn 0.0 0.0 1.0
vn 0.0 0.0 1.0
vn 0.0 0.0 1.0
vn 0.0 0.0 1.0
vn 1.0 1.2246468525851679e-16 0.0
vn 0.8412535190582275 0.5406408309936523 0.0
vn 0.4154150187969208 0.9096319675445557 0.0
vn -0.1423148363828659 0.9898214340209961 0.0
vn -0.6548607349395752 0.7557495832443237 0.0
vn -0.9594929814338684 0.28173255920410156 0.0
vn -0.9594929814338684 -0.28173255920410156 -0.0
vn -0.6548607349395752 -0.7557495832443237 -0.0
vn -0.1423148363828659 -0.9898214340209961 -0.0
vn 0.4154150187969208 -0.9096319675445557 0.0
vn 0.8412535190582275 -0.5406408309936523 0.0
vn 1.0 -1.2246468525851679e-16 0.0
vn 0.8412535190582275 -0.5406408309936523 0.0
vn 0.4154150187969208 -0.9096319675445557 0.0
vn -0.1423148363828659 -0.9898214340209961 -0.0
vn -0.6548607349395752 -0.7557495832443237 -0.0
vn -0.9594929814338684 -0.28173255920410156 -0.0
vn -0.9594929814338684 0.28173255920410156 0.0
vn -0.6548607349395752 0.7557495832443237 0.0
vn -0.1423148363828659 0.9898214340209961 0.0
vn 0.4154150187969208 0.9096319675445557 0.0
vn 0.8412535190582275 0.5406408309936523 0.0
vn 1.0 1.2246468525851679e-16 0.0
vn 1.0 -1.2246468525851679e-16 0.0
vn 0.0 0.0 1.0
vn 0.0 0.0 1.0
vn 0.0 0.0 1.0
vn 0.0 0.0 1.0
vn 0.0 0.0 1.0
vn 0.0 0.0 1.0
vn 0.0 0.0 1.0
vn 0.0 0.0 1.0
vn 0.0 0.0 1.0
vn 0.0 0.0 1.0
vn 0.0 0.0 1.0
vn 0.0 0.0 1.0
vn 0.0 0.0 1.0
vn 0.0 0.0 1.0
vn 0.0 0.0 1.0
vn 0.0 0.0 1.0
vn 0.0 0.0 1.0
vn 0.0 0.0 1.0
vn 0.0 0.0 1.0
vn 0.0 0.0 1.0
vn 0.0 0.0 1.0
vn 0.0 0.0 1.0
vn 1.0 -1.2246468525851679e-16 0.0
vn 0.8660253882408142 -0.5 0.0
vn 0.5 -0.8660253882408142 0.0
vn -6.123234262925839e-17 -1.0 -0.0
vn -0.5 -0.8660253882408142 -0.0
vn -0.8660253882408142 -0.5 -0.0
vn -1.0 -0.0 -0.0
vn -0.8660253882408142 0.5 0.0
vn -0.5 0.8660253882408142 0.0
vn -6.123234262925839e-17 1.0 0.0
vn 0.5 0.8660253882408142 0.0
vn 0.8660253882408142 0.5 0.0
vn 1.0 1.2246468525851679e-16 0.0
vn 0.8660253882408142 0.5 0.0
vn 0.5 0.8660253882408142 0.0
vn -6.123234262925839e-17 1.0 0.0
vn -0.5 0.8660253882408142 0.0
vn -0.8660253882408142 0.5 0.0
vn -1.0 -0.0 -0.0
vn -0.8660253882408142 -0.5 -0.0
vn -0.5 -0.8660253882408142 -0.0
vn -6.123234262925839e-17 -1.0 -0.0
vn 0.5 -0.8660253882408142 0.0
vn 0.8660253882408142 -0.5 0.0
vn 1.0 1.2246468525851679e-16 0.0
vn 1.0 -1.2246468525851679e-16 0.0
vn 0.0 0.0 1.0
vn 0.0 0.0 1.0
vn 0.0 0.0 1.0
vn 0.0 0.0 1.0
vn 0.0 0.0 1.0
vn 0.0 0.0 1.0
vn 0.0 0.0 1.0
vn 0.0 0.0 1.0
vn 0.0 0.0 1.0
vn 0.0 0.0 1.0
vn 0.0 0.0 1.0
vn 0.0 0.0 1.0
vn 0.0 0.0 1.0
vn 0.0 0.0 1.0
vn 0.0 0.0 1.0
vn 0.0 0.0 1.0
vn 0.0 0.0 1.0
vn 0.0 0.0 1.0
vn 0.0 0.0 1.0
vn 0.0 0.0 1.0
vn 0.0 0.0 1.0
vn 0.0 0.0 1.0
vn 0.0 0.0 1.0
vn -0.0 0.0 1.0
vn -0.0 0.0 1.0
vn -0.0 0.0 1.0
vn -0.0 0.0 1.0
vn -0.0 0.0 1.0
vn -0.0 0.0 1.0
vn -0.0 0.0 1.0
vn -0.0 0.0 1.0
vn -0.0 0.0 1.0
vn -0.0 0.0 1.0
vn -0.0 0.0 1.0
vn -0.0 0.0 1.0
vn -0.0 0.0 1.0
vn -0.0 0.0 1.0
vn -0.0 0.0 1.0
vn -0.0 0.0 1.0
vn -1.294063233380267e-32 -1.0 -0.0
vn -1.294063233380267e-32 -1.0 -0.0
vn -1.294063233380267e-32 -1.0 -0.0
vn -1.294063233380267e-32 -1.0 -0.0
vn 1.0 -0.0 0.0
vn 1.0 -0.0 0.0
vn 1.0 -0.0 0.0
vn 1.0 -0.0 0.0
vn 0.0 1.0 0.0
vn 0.0 1.0 0.0
vn 0.0 1.0 0.0
vn 0.0 1.0 0.0
vn -1.0 -0.0 -0.0
vn -1.0 -0.0 -0.0
vn -1.0 -0.0 -0.0
vn -1.0 -0.0 -0.0
vn -0.0 0.0 1.0
vn -0.0 0.0 1.0
vn -0.0 0.0 1.0
vn -0.0 0.0 1.0
vn -0.0 0.0 1.0
vn -0.0 0.0 1.0
vn -0.0 0.0 1.0
vn -0.0 0.0 1.0
vn -0.0 0.0 1.0
vn -0.0 0.0 1.0
vn 0.0 0.0 -1.0
vn 0.0 0.0 -1.0
vn 0.0 0.0 -1.0
vn 0.0 0.0 -1.0
g ef8f2f0c-e2d5-11ea-8e41-54bf646e7e1f
f 2//2 20//20 1//1
f 1//1 20//20 21//21
f 22//22 11//11 10//10
f 10//10 11//11 12//12
f 10//10 12//12 9//9
f 9//9 12//12 13//13
f 9//9 13//13 8//8
f 8//8 13//13 14//14
f 8//8 14//14 7//7
f 7//7 14//14 15//15
f 7//7 15//15 6//6
f 6//6 15//15 16//16
f 6//6 16//16 5//5
f 5//5 16//16 17//17
f 5//5 17//17 4//4
f 4//4 17//17 18//18
f 4//4 18//18 3//3
f 3//3 18//18 19//19
f 3//3 19//19 2//2
f 2//2 19//19 20//20
g ef8fa4be-e2d5-11ea-85d8-54bf646e7e1f
f 24//24 44//44 23//23
f 23//23 44//44 45//45
f 46//46 34//34 33//33
f 33//33 34//34 35//35
f 33//33 35//35 32//32
f 32//32 35//35 36//36
f 32//32 36//36 31//31
f 31//31 36//36 37//37
f 31//31 37//37 30//30
f 30//30 37//37 38//38
f 30//30 38//38 29//29
f 29//29 38//38 39//39
f 29//29 39//39 28//28
f 28//28 39//39 40//40
f 28//28 40//40 27//27
f 27//27 40//40 41//41
f 27//27 41//41 26//26
f 26//26 41//41 42//42
f 26//26 42//42 25//25
f 25//25 42//42 43//43
f 25//25 43//43 24//24
f 24//24 43//43 44//44
g ef901a24-e2d5-11ea-89d6-54bf646e7e1f
f 48//48 67//67 47//47
f 47//47 67//67 57//57
f 47//47 57//57 58//58
f 67//67 48//48 66//66
f 66//66 48//48 49//49
f 66//66 49//49 65//65
f 65//65 49//49 50//50
f 65//65 50//50 64//64
f 64//64 50//50 51//51
f 64//64 51//51 63//63
f 63//63 51//51 52//52
f 63//63 52//52 62//62
f 62//62 52//52 53//53
f 62//62 53//53 61//61
f 61//61 53//53 54//54
f 61//61 54//54 60//60
f 60//60 54//54 55//55
f 60//60 55//55 59//59
f 59//59 55//55 56//56
f 59//59 56//56 58//58
f 58//58 56//56 47//47
g ef610334-e2d5-11ea-aa98-54bf646e7e1f
f 69//69 89//89 68//68
f 68//68 89//89 90//90
f 91//91 79//79 78//78
f 78//78 79//79 80//80
f 78//78 80//80 77//77
f 77//77 80//80 81//81
f 77//77 81//81 76//76
f 76//76 81//81 82//82
f 76//76 82//82 75//75
f 75//75 82//82 83//83
f 75//75 83//83 74//74
f 74//74 83//83 84//84
f 74//74 84//84 73//73
f 73//73 84//84 85//85
f 73//73 85//85 72//72
f 72//72 85//85 86//86
f 72//72 86//86 71//71
f 71//71 86//86 87//87
f 71//71 87//87 70//70
f 70//70 87//87 88//88
f 70//70 88//88 69//69
f 69//69 88//88 89//89
g ef61789c-e2d5-11ea-941c-54bf646e7e1f
f 102//102 92//92 103//103
f 103//103 92//92 93//93
f 103//103 93//93 113//113
f 113//113 93//93 94//94
f 113//113 94//94 112//112
f 112//112 94//94 95//95
f 112//112 95//95 111//111
f 111//111 95//95 110//110
f 110//110 95//95 96//96
f 110//110 96//96 109//109
f 109//109 96//96 97//97
f 109//109 97//97 108//108
f 108//108 97//97 98//98
f 108//108 98//98 99//99
f 108//108 99//99 107//107
f 107//107 99//99 100//100
f 107//107 100//100 106//106
f 106//106 100//100 105//105
f 105//105 100//100 101//101
f 105//105 101//101 104//104
f 104//104 101//101 102//102
f 104//104 102//102 103//103
g ef3a06e6-e2d5-11ea-ad77-54bf646e7e1f
f 115//115 137//137 114//114
f 114//114 137//137 139//139
f 138//138 126//126 125//125
f 125//125 126//126 127//127
f 125//125 127//127 124//124
f 124//124 127//127 128//128
f 124//124 128//128 123//123
f 123//123 128//128 129//129
f 123//123 129//129 122//122
f 122//122 129//129 130//130
f 122//122 130//130 121//121
f 121//121 130//130 131//131
f 121//121 131//131 120//120
f 120//120 131//131 132//132
f 120//120 132//132 119//119
f 119//119 132//132 133//133
f 119//119 133//133 118//118
f 118//118 133//133 134//134
f 118//118 134//134 117//117
f 117//117 134//134 135//135
f 117//117 135//135 116//116
f 116//116 135//135 136//136
f 116//116 136//136 115//115
f 115//115 136//136 137//137
g ef3a7c6c-e2d5-11ea-b696-54bf646e7e1f
f 141//141 162//162 140//140
f 140//140 162//162 151//151
f 140//140 151//151 152//152
f 162//162 141//141 161//161
f 161//161 141//141 142//142
f 161//161 142//142 160//160
f 160//160 142//142 143//143
f 160//160 143//143 159//159
f 159//159 143//143 144//144
f 159//159 144//144 158//158
f 158//158 144//144 145//145
f 158//158 145//145 157//157
f 157//157 145//145 146//146
f 157//157 146//146 156//156
f 156//156 146//146 147//147
f 156//156 147//147 155//155
f 155//155 147//147 148//148
f 155//155 148//148 154//154
f 154//154 148//148 149//149
f 154//154 149//149 153//153
f 153//153 149//149 150//150
f 153//153 150//150 152//152
f 152//152 150//150 140//140
g ef177928-e2d5-11ea-93ae-54bf646e7e1f
f 164//164 168//168 163//163
f 163//163 168//168 169//169
f 163//163 169//169 170//170
f 165//165 175//175 164//164
f 164//164 175//175 176//176
f 164//164 176//176 177//177
f 166//166 171//171 165//165
f 165//165 171//171 172//172
f 165//165 172//172 173//173
f 166//166 163//163 171//171
f 171//171 163//163 170//170
f 178//178 167//167 164//164
f 164//164 167//167 168//168
f 173//173 174//174 165//165
f 165//165 174//174 175//175
f 177//177 178//178 164//164
g ef16b57e-e2d5-11ea-80f3-54bf646e7e1f
f 179//179 180//180 182//182
f 182//182 180//180 181//181
g ef16dca4-e2d5-11ea-8a96-54bf646e7e1f
f 183//183 184//184 186//186
f 186//186 184//184 185//185
g ef1703be-e2d5-11ea-a5c3-54bf646e7e1f
f 187//187 188//188 190//190
f 190//190 188//188 189//189
g ef172ae2-e2d5-11ea-9198-54bf646e7e1f
f 191//191 192//192 194//194
f 194//194 192//192 193//193
g ef3b8e64-e2d5-11ea-8ca8-54bf646e7e1f
f 196//196 199//199 195//195
f 195//195 199//199 200//200
f 195//195 200//200 204//204
f 204//204 200//200 201//201
f 204//204 201//201 203//203
f 203//203 201//201 202//202
f 197//197 198//198 196//196
f 196//196 198//198 199//199
g ef17a04c-e2d5-11ea-b66d-54bf646e7e1f
f 206//206 207//207 205//205
f 205//205 207//207 208//208

# End of file