# WaveFront *.obj file
# Vertices: 166
# Triangles : 148

v 0.4000000059604645 3.5299999713897705 -4.8985870794684264e-17
v 0.3923141062259674 3.5299999713897705 -0.07803612947463989
v 0.36955180764198303 3.5299999713897705 -0.15307337045669556
v 0.3325878381729126 3.5299999713897705 -0.22222809493541718
v 0.2828427255153656 3.5299999713897705 -0.2828427255153656
v 0.22222809493541718 3.5299999713897705 -0.3325878381729126
v 0.15307337045669556 3.5299999713897705 -0.36955180764198303
v 0.07803612947463989 3.5299999713897705 -0.3923141062259674
v -2.4492935397342132e-17 3.5299999713897705 -0.4000000059604645
v -0.07803612947463989 3.5299999713897705 -0.3923141062259674
v -0.15307337045669556 3.5299999713897705 -0.36955180764198303
v -0.22222809493541718 3.5299999713897705 -0.3325878381729126
v -0.2828427255153656 3.5299999713897705 -0.2828427255153656
v -0.3325878381729126 3.5299999713897705 -0.22222809493541718
v -0.36955180764198303 3.5299999713897705 -0.15307337045669556
v -0.3923141062259674 3.5299999713897705 -0.07803612947463989
v -0.4000000059604645 3.5299999713897705 0.0
v -0.3923141062259674 3.5299999713897705 0.07803612947463989
v -0.36955180764198303 3.5299999713897705 0.15307337045669556
v -0.3325878381729126 3.5299999713897705 0.22222809493541718
v -0.2828427255153656 3.5299999713897705 0.2828427255153656
v -0.22222809493541718 3.5299999713897705 0.3325878381729126
v -0.15307337045669556 3.5299999713897705 0.36955180764198303
v -0.07803612947463989 3.5299999713897705 0.3923141062259674
v -2.4492935397342132e-17 3.5299999713897705 0.4000000059604645
v 0.07803612947463989 3.5299999713897705 0.3923141062259674
v 0.15307337045669556 3.5299999713897705 0.36955180764198303
v 0.22222809493541718 3.5299999713897705 0.3325878381729126
v 0.2828427255153656 3.5299999713897705 0.2828427255153656
v 0.3325878381729126 3.5299999713897705 0.22222809493541718
v 0.36955180764198303 3.5299999713897705 0.15307337045669556
v 0.3923141062259674 3.5299999713897705 0.07803612947463989
v 0.4000000059604645 3.5299999713897705 -4.8985870794684264e-17
v 0.3923141062259674 3.5299999713897705 0.07803612947463989
v 0.36955180764198303 3.5299999713897705 0.15307337045669556
v 0.3325878381729126 3.5299999713897705 0.22222809493541718
v 0.2828427255153656 3.5299999713897705 0.2828427255153656
v 0.22222809493541718 3.5299999713897705 0.3325878381729126
v 0.15307337045669556 3.5299999713897705 0.36955180764198303
v 0.07803612947463989 3.5299999713897705 0.3923141062259674
v -2.4492935397342132e-17 3.5299999713897705 0.4000000059604645
v -0.07803612947463989 3.5299999713897705 0.3923141062259674
v -0.15307337045669556 3.5299999713897705 0.36955180764198303
v -0.22222809493541718 3.5299999713897705 0.3325878381729126
v -0.2828427255153656 3.5299999713897705 0.2828427255153656
v -0.3325878381729126 3.5299999713897705 0.22222809493541718
v -0.36955180764198303 3.5299999713897705 0.15307337045669556
v -0.3923141062259674 3.5299999713897705 0.07803612947463989
v -0.4000000059604645 3.5299999713897705 0.0
v -0.3923141062259674 3.5299999713897705 -0.07803612947463989
v -0.36955180764198303 3.5299999713897705 -0.15307337045669556
v -0.3325878381729126 3.5299999713897705 -0.22222809493541718
v -0.2828427255153656 3.5299999713897705 -0.2828427255153656
v -0.22222809493541718 3.5299999713897705 -0.3325878381729126
v -0.15307337045669556 3.5299999713897705 -0.36955180764198303
v -0.07803612947463989 3.5299999713897705 -0.3923141062259674
v -2.4492935397342132e-17 3.5299999713897705 -0.4000000059604645
v 0.07803612947463989 3.5299999713897705 -0.3923141062259674
v 0.15307337045669556 3.5299999713897705 -0.36955180764198303
v 0.22222809493541718 3.5299999713897705 -0.3325878381729126
v 0.2828427255153656 3.5299999713897705 -0.2828427255153656
v 0.3325878381729126 3.5299999713897705 -0.22222809493541718
v 0.36955180764198303 3.5299999713897705 -0.15307337045669556
v 0.3923141062259674 3.5299999713897705 -0.07803612947463989
v 0.4000000059604645 0.5299999713897705 -4.8985870794684264e-17
v 0.3923141062259674 0.5299999713897705 -0.07803612947463989
v 0.36955180764198303 0.5299999713897705 -0.15307337045669556
v 0.3325878381729126 0.5299999713897705 -0.22222809493541718
v 0.2828427255153656 0.5299999713897705 -0.2828427255153656
v 0.22222809493541718 0.5299999713897705 -0.3325878381729126
v 0.15307337045669556 0.5299999713897705 -0.36955180764198303
v 0.07803612947463989 0.5299999713897705 -0.3923141062259674
v -2.4492935397342132e-17 0.5299999713897705 -0.4000000059604645
v -0.07803612947463989 0.5299999713897705 -0.3923141062259674
v -0.15307337045669556 0.5299999713897705 -0.36955180764198303
v -0.22222809493541718 0.5299999713897705 -0.3325878381729126
v -0.2828427255153656 0.5299999713897705 -0.2828427255153656
v -0.3325878381729126 0.5299999713897705 -0.22222809493541718
v -0.36955180764198303 0.5299999713897705 -0.15307337045669556
v -0.3923141062259674 0.5299999713897705 -0.07803612947463989
v -0.4000000059604645 0.5299999713897705 0.0
v -0.3923141062259674 0.5299999713897705 0.07803612947463989
v -0.36955180764198303 0.5299999713897705 0.15307337045669556
v -0.3325878381729126 0.5299999713897705 0.22222809493541718
v -0.2828427255153656 0.5299999713897705 0.2828427255153656
v -0.22222809493541718 0.5299999713897705 0.3325878381729126
v -0.15307337045669556 0.5299999713897705 0.36955180764198303
v -0.07803612947463989 0.5299999713897705 0.3923141062259674
v -2.4492935397342132e-17 0.5299999713897705 0.4000000059604645
v 0.07803612947463989 0.5299999713897705 0.3923141062259674
v 0.15307337045669556 0.5299999713897705 0.36955180764198303
v 0.22222809493541718 0.5299999713897705 0.3325878381729126
v 0.2828427255153656 0.5299999713897705 0.2828427255153656
v 0.3325878381729126 0.5299999713897705 0.22222809493541718
v 0.36955180764198303 0.5299999713897705 0.15307337045669556
v 0.3923141062259674 0.5299999713897705 0.07803612947463989
v 0.4000000059604645 0.5299999713897705 -4.8985870794684264e-17
v 0.4000000059604645 3.5299999713897705 -4.8985870794684264e-17
v -4.440892098500626e-16 0.0 0.7505553364753723
v 0.6499999761581421 0.0 0.37527766823768616
v 0.6499999761581421 0.5299999713897705 0.37527766823768616
v -4.440892098500626e-16 0.5299999713897705 0.7505553364753723
v -0.6499999761581421 0.0 0.37527766823768616
v -4.440892098500626e-16 0.0 0.7505553364753723
v -4.440892098500626e-16 0.5299999713897705 0.7505553364753723
v -0.6499999761581421 0.5299999713897705 0.37527766823768616
v -0.6499999761581421 0.0 -0.37527766823768616
v -0.6499999761581421 0.0 0.37527766823768616
v -0.6499999761581421 0.5299999713897705 0.37527766823768616
v -0.6499999761581421 0.5299999713897705 -0.37527766823768616
v 1.1102230246251565e-16 0.0 -0.7505553364753723
v -0.6499999761581421 0.0 -0.37527766823768616
v -0.6499999761581421 0.5299999713897705 -0.37527766823768616
v 1.1102230246251565e-16 0.5299999713897705 -0.7505553364753723
v 0.6499999761581421 0.0 -0.37527766823768616
v 1.1102230246251565e-16 0.0 -0.7505553364753723
v 1.1102230246251565e-16 0.5299999713897705 -0.7505553364753723
v 0.6499999761581421 0.5299999713897705 -0.37527766823768616
v 0.6499999761581421 0.0 0.37527766823768616
v 0.6499999761581421 0.0 -0.37527766823768616
v 0.6499999761581421 0.5299999713897705 -0.37527766823768616
v 0.6499999761581421 0.5299999713897705 0.37527766823768616
v 0.4000000059604645 0.5299999713897705 -4.8985870794684264e-17
v 0.3923141062259674 0.5299999713897705 0.07803612947463989
v 0.36955180764198303 0.5299999713897705 0.15307337045669556
v 0.3325878381729126 0.5299999713897705 0.22222809493541718
v 0.2828427255153656 0.5299999713897705 0.2828427255153656
v 0.22222809493541718 0.5299999713897705 0.3325878381729126
v 0.15307337045669556 0.5299999713897705 0.36955180764198303
v 0.07803612947463989 0.5299999713897705 0.3923141062259674
v -2.4492935397342132e-17 0.5299999713897705 0.4000000059604645
v -0.07803612947463989 0.5299999713897705 0.3923141062259674
v -0.15307337045669556 0.5299999713897705 0.36955180764198303
v -0.22222809493541718 0.5299999713897705 0.3325878381729126
v -0.2828427255153656 0.5299999713897705 0.2828427255153656
v -0.3325878381729126 0.5299999713897705 0.22222809493541718
v -0.36955180764198303 0.5299999713897705 0.15307337045669556
v -0.3923141062259674 0.5299999713897705 0.07803612947463989
v -0.4000000059604645 0.5299999713897705 0.0
v -0.3923141062259674 0.5299999713897705 -0.07803612947463989
v -0.36955180764198303 0.5299999713897705 -0.15307337045669556
v -0.3325878381729126 0.5299999713897705 -0.22222809493541718
v -0.2828427255153656 0.5299999713897705 -0.2828427255153656
v -0.22222809493541718 0.5299999713897705 -0.3325878381729126
v -0.15307337045669556 0.5299999713897705 -0.36955180764198303
v -0.07803612947463989 0.5299999713897705 -0.3923141062259674
v -2.4492935397342132e-17 0.5299999713897705 -0.4000000059604645
v 0.07803612947463989 0.5299999713897705 -0.3923141062259674
v 0.15307337045669556 0.5299999713897705 -0.36955180764198303
v 0.22222809493541718 0.5299999713897705 -0.3325878381729126
v 0.2828427255153656 0.5299999713897705 -0.2828427255153656
v 0.3325878381729126 0.5299999713897705 -0.22222809493541718
v 0.36955180764198303 0.5299999713897705 -0.15307337045669556
v 0.3923141062259674 0.5299999713897705 -0.07803612947463989
v 0.6499999761581421 0.5299999713897705 0.37527766823768616
v 0.6499999761581421 0.5299999713897705 -0.37527766823768616
v 1.1102230246251565e-16 0.5299999713897705 -0.7505553364753723
v -0.6499999761581421 0.5299999713897705 -0.37527766823768616
v -0.6499999761581421 0.5299999713897705 0.37527766823768616
v -4.440892098500626e-16 0.5299999713897705 0.7505553364753723
v 0.6499999761581421 0.0 -0.37527766823768616
v 0.6499999761581421 0.0 0.37527766823768616
v -4.440892098500626e-16 0.0 0.7505553364753723
v -0.6499999761581421 0.0 0.37527766823768616
v -0.6499999761581421 0.0 -0.37527766823768616
v 1.1102230246251565e-16 0.0 -0.7505553364753723
vn 0.0 1.0 0.0
vn 0.0 1.0 0.0
vn 0.0 1.0 0.0
vn 0.0 1.0 0.0
vn 0.0 1.0 0.0
vn 0.0 1.0 0.0
vn 0.0 1.0 0.0
vn 0.0 1.0 0.0
vn 0.0 1.0 0.0
vn 0.0 1.0 0.0
vn 0.0 1.0 0.0
vn 0.0 1.0 0.0
vn 0.0 1.0 0.0
vn 0.0 1.0 0.0
vn 0.0 1.0 0.0
vn 0.0 1.0 0.0
vn 0.0 1.0 0.0
vn 0.0 1.0 0.0
vn 0.0 1.0 0.0
vn 0.0 1.0 0.0
vn 0.0 1.0 0.0
vn 0.0 1.0 0.0
vn 0.0 1.0 0.0
vn 0.0 1.0 0.0
vn 0.0 1.0 0.0
vn 0.0 1.0 0.0
vn 0.0 1.0 0.0
vn 0.0 1.0 0.0
vn 0.0 1.0 0.0
vn 0.0 1.0 0.0
vn 0.0 1.0 0.0
vn 0.0 1.0 0.0
vn 1.0 -0.0 1.2246468525851679e-16
vn 0.9807852506637573 -0.0 0.19509032368659973
vn 0.9238795042037964 -0.0 0.3826834261417389
vn 0.8314695954322815 -0.0 0.5555702447891235
vn 0.7071067690849304 -0.0 0.7071067690849304
vn 0.5555702447891235 -0.0 0.8314695954322815
vn 0.3826834261417389 -0.0 0.9238795042037964
vn 0.19509032368659973 -0.0 0.9807852506637573
vn -6.123234262925839e-17 -0.0 1.0
vn -0.19509032368659973 -0.0 0.9807852506637573
vn -0.3826834261417389 -0.0 0.9238795042037964
vn -0.5555702447891235 -0.0 0.8314695954322815
vn -0.7071067690849304 -0.0 0.7071067690849304
vn -0.8314695954322815 -0.0 0.5555702447891235
vn -0.9238795042037964 -0.0 0.3826834261417389
vn -0.9807852506637573 -0.0 0.19509032368659973
vn -1.0 -0.0 0.0
vn -0.9807852506637573 0.0 -0.19509032368659973
vn -0.9238795042037964 0.0 -0.3826834261417389
vn -0.8314695954322815 0.0 -0.5555702447891235
vn -0.7071067690849304 0.0 -0.7071067690849304
vn -0.5555702447891235 0.0 -0.8314695954322815
vn -0.3826834261417389 0.0 -0.9238795042037964
vn -0.19509032368659973 0.0 -0.9807852506637573
vn -6.123234262925839e-17 0.0 -1.0
vn 0.19509032368659973 -0.0 -0.9807852506637573
vn 0.3826834261417389 -0.0 -0.9238795042037964
vn 0.5555702447891235 -0.0 -0.8314695954322815
vn 0.7071067690849304 -0.0 -0.7071067690849304
vn 0.8314695954322815 -0.0 -0.5555702447891235
vn 0.9238795042037964 -0.0 -0.3826834261417389
vn 0.9807852506637573 -0.0 -0.19509032368659973
vn 1.0 -0.0 -1.2246468525851679e-16
vn 0.9807852506637573 -0.0 -0.19509032368659973
vn 0.9238795042037964 -0.0 -0.3826834261417389
vn 0.8314695954322815 -0.0 -0.5555702447891235
vn 0.7071067690849304 -0.0 -0.7071067690849304
vn 0.5555702447891235 -0.0 -0.8314695954322815
vn 0.3826834261417389 -0.0 -0.9238795042037964
vn 0.19509032368659973 -0.0 -0.9807852506637573
vn -6.123234262925839e-17 0.0 -1.0
vn -0.19509032368659973 0.0 -0.9807852506637573
vn -0.3826834261417389 0.0 -0.9238795042037964
vn -0.5555702447891235 0.0 -0.8314695954322815
vn -0.7071067690849304 0.0 -0.7071067690849304
vn -0.8314695954322815 0.0 -0.5555702447891235
vn -0.9238795042037964 0.0 -0.3826834261417389
vn -0.9807852506637573 0.0 -0.19509032368659973
vn -1.0 -0.0 0.0
vn -0.9807852506637573 -0.0 0.19509032368659973
vn -0.9238795042037964 -0.0 0.3826834261417389
vn -0.8314695954322815 -0.0 0.5555702447891235
vn -0.7071067690849304 -0.0 0.7071067690849304
vn -0.5555702447891235 -0.0 0.8314695954322815
vn -0.3826834261417389 -0.0 0.9238795042037964
vn -0.19509032368659973 -0.0 0.9807852506637573
vn -6.123234262925839e-17 -0.0 1.0
vn 0.19509032368659973 -0.0 0.9807852506637573
vn 0.3826834261417389 -0.0 0.9238795042037964
vn 0.5555702447891235 -0.0 0.8314695954322815
vn 0.7071067690849304 -0.0 0.7071067690849304
vn 0.8314695954322815 -0.0 0.5555702447891235
vn 0.9238795042037964 -0.0 0.3826834261417389
vn 0.9807852506637573 -0.0 0.19509032368659973
vn 1.0 -0.0 1.2246468525851679e-16
vn 1.0 -0.0 -1.2246468525851679e-16
vn 0.5 -0.0 0.8660253882408142
vn 0.5 -0.0 0.8660253882408142
vn 0.5 -0.0 0.8660253882408142
vn 0.5 -0.0 0.8660253882408142
vn -0.5 0.0 0.8660253882408142
vn -0.5 0.0 0.8660253882408142
vn -0.5 0.0 0.8660253882408142
vn -0.5 0.0 0.8660253882408142
vn -1.0 0.0 -4.4376061400608715e-16
vn -1.0 0.0 -4.4376061400608715e-16
vn -1.0 0.0 -4.4376061400608715e-16
vn -1.0 0.0 -4.4376061400608715e-16
vn -0.5 0.0 -0.8660253882408142
vn -0.5 0.0 -0.8660253882408142
vn -0.5 0.0 -0.8660253882408142
vn -0.5 0.0 -0.8660253882408142
vn 0.5 0.0 -0.8660253882408142
vn 0.5 0.0 -0.8660253882408142
vn 0.5 0.0 -0.8660253882408142
vn 0.5 0.0 -0.8660253882408142
vn 1.0 -0.0 4.4376061400608715e-16
vn 1.0 -0.0 4.4376061400608715e-16
vn 1.0 -0.0 4.4376061400608715e-16
vn 1.0 -0.0 4.4376061400608715e-16
vn 0.0 1.0 0.0
vn 0.0 1.0 0.0
vn 0.0 1.0 0.0
vn 0.0 1.0 0.0
vn 0.0 1.0 0.0
vn 0.0 1.0 0.0
vn 0.0 1.0 0.0
vn 0.0 1.0 0.0
vn 0.0 1.0 0.0
vn 0.0 1.0 0.0
vn 0.0 1.0 0.0
vn 0.0 1.0 0.0
vn 0.0 1.0 0.0
vn 0.0 1.0 0.0
vn 0.0 1.0 0.0
vn 0.0 1.0 0.0
vn 0.0 1.0 0.0
vn 0.0 1.0 0.0
vn 0.0 1.0 0.0
vn 0.0 1.0 0.0
vn 0.0 1.0 0.0
vn 0.0 1.0 0.0
vn 0.0 1.0 0.0
vn 0.0 1.0 0.0
vn 0.0 1.0 0.0
vn 0.0 1.0 0.0
vn 0.0 1.0 0.0
vn 0.0 1.0 0.0
vn 0.0 1.0 0.0
vn 0.0 1.0 0.0
vn 0.0 1.0 0.0
vn 0.0 1.0 0.0
vn 0.0 1.0 0.0
vn 0.0 1.0 0.0
vn 0.0 1.0 0.0
vn 0.0 1.0 0.0
vn 0.0 1.0 0.0
vn 0.0 1.0 0.0
vn -0.0 -1.0 -0.0
vn -0.0 -1.0 -0.0
vn -0.0 -1.0 -0.0
vn -0.0 -1.0 -0.0
vn -0.0 -1.0 -0.0
vn -0.0 -1.0 -0.0
g adb08fa6-e2d7-11ea-b565-54bf646e7e1f
f 2//2 16//16 1//1
f 1//1 16//16 17//17
f 1//1 17//17 32//32
f 32//32 17//17 18//18
f 32//32 18//18 31//31
f 31//31 18//18 19//19
f 31//31 19//19 30//30
f 30//30 19//19 20//20
f 30//30 20//20 29//29
f 29//29 20//20 21//21
f 29//29 21//21 28//28
f 28//28 21//21 22//22
f 28//28 22//22 27//27
f 27//27 22//22 23//23
f 27//27 23//23 26//26
f 26//26 23//23 24//24
f 26//26 24//24 25//25
f 16//16 2//2 15//15
f 15//15 2//2 3//3
f 15//15 3//3 14//14
f 14//14 3//3 4//4
f 14//14 4//4 13//13
f 13//13 4//4 5//5
f 13//13 5//5 12//12
f 12//12 5//5 6//6
f 12//12 6//6 11//11
f 11//11 6//6 7//7
f 11//11 7//7 10//10
f 10//10 7//7 8//8
f 10//10 8//8 9//9
g aa5173f6-e2d7-11ea-8b33-54bf646e7e1f
f 34//34 96//96 33//33
f 33//33 96//96 97//97
f 98//98 65//65 64//64
f 64//64 65//65 66//66
f 64//64 66//66 63//63
f 63//63 66//66 67//67
f 63//63 67//67 62//62
f 62//62 67//67 68//68
f 62//62 68//68 61//61
f 61//61 68//68 69//69
f 61//61 69//69 60//60
f 60//60 69//69 70//70
f 60//60 70//70 59//59
f 59//59 70//70 71//71
f 59//59 71//71 58//58
f 58//58 71//71 72//72
f 58//58 72//72 57//57
f 57//57 72//72 73//73
f 57//57 73//73 56//56
f 56//56 73//73 74//74
f 56//56 74//74 55//55
f 55//55 74//74 75//75
f 55//55 75//75 54//54
f 54//54 75//75 76//76
f 54//54 76//76 53//53
f 53//53 76//76 77//77
f 53//53 77//77 52//52
f 52//52 77//77 78//78
f 52//52 78//78 51//51
f 51//51 78//78 79//79
f 51//51 79//79 50//50
f 50//50 79//79 80//80
f 50//50 80//80 49//49
f 49//49 80//80 81//81
f 49//49 81//81 48//48
f 48//48 81//81 82//82
f 48//48 82//82 47//47
f 47//47 82//82 83//83
f 47//47 83//83 46//46
f 46//46 83//83 84//84
f 46//46 84//84 45//45
f 45//45 84//84 85//85
f 45//45 85//85 44//44
f 44//44 85//85 86//86
f 44//44 86//86 43//43
f 43//43 86//86 87//87
f 43//43 87//87 42//42
f 42//42 87//87 88//88
f 42//42 88//88 41//41
f 41//41 88//88 89//89
f 41//41 89//89 40//40
f 40//40 89//89 90//90
f 40//40 90//90 39//39
f 39//39 90//90 91//91
f 39//39 91//91 38//38
f 38//38 91//91 92//92
f 38//38 92//92 37//37
f 37//37 92//92 93//93
f 37//37 93//93 36//36
f 36//36 93//93 94//94
f 36//36 94//94 35//35
f 35//35 94//94 95//95
f 35//35 95//95 34//34
f 34//34 95//95 96//96
g a91018ee-e2d7-11ea-861a-54bf646e7e1f
f 99//99 100//100 102//102
f 102//102 100//100 101//101
g a941479e-e2d7-11ea-a270-54bf646e7e1f
f 103//103 104//104 106//106
f 106//106 104//104 105//105
g a9495fe6-e2d7-11ea-ac64-54bf646e7e1f
f 107//107 108//108 110//110
f 110//110 108//108 109//109
g a95129ae-e2d7-11ea-b817-54bf646e7e1f
f 111//111 112//112 114//114
f 114//114 112//112 113//113
g a9591af8-e2d7-11ea-b8d1-54bf646e7e1f
f 115//115 116//116 118//118
f 118//118 116//116 117//117
g a961f70c-e2d7-11ea-ba9c-54bf646e7e1f
f 119//119 120//120 122//122
f 122//122 120//120 121//121
g a98ff006-e2d7-11ea-aa3f-54bf646e7e1f
f 124//124 155//155 123//123
f 123//123 155//155 156//156
f 123//123 156//156 154//154
f 154//154 156//156 153//153
f 153//153 156//156 152//152
f 152//152 156//156 151//151
f 151//151 156//156 150//150
f 150//150 156//156 157//157
f 150//150 157//157 149//149
f 149//149 157//157 148//148
f 148//148 157//157 147//147
f 147//147 157//157 146//146
f 146//146 157//157 145//145
f 145//145 157//157 144//144
f 144//144 157//157 158//158
f 144//144 158//158 143//143
f 143//143 158//158 142//142
f 142//142 158//158 141//141
f 141//141 158//158 140//140
f 140//140 158//158 139//139
f 139//139 158//158 159//159
f 139//139 159//159 138//138
f 138//138 159//159 137//137
f 137//137 159//159 136//136
f 136//136 159//159 135//135
f 135//135 159//159 134//134
f 134//134 159//159 160//160
f 134//134 160//160 133//133
f 133//133 160//160 132//132
f 132//132 160//160 131//131
f 131//131 160//160 130//130
f 130//130 160//160 129//129
f 129//129 160//160 128//128
f 128//128 160//160 155//155
f 128//128 155//155 127//127
f 127//127 155//155 126//126
f 126//126 155//155 125//125
f 125//125 155//155 124//124
g a998a4e6-e2d7-11ea-9b90-54bf646e7e1f
f 162//162 163//163 161//161
f 161//161 163//163 166//166
f 166//166 163//163 164//164
f 166//166 164//164 165//165

# End of file