# WaveFront *.obj file
# Vertices: 112
# Triangles : 108

v -1.2999999523162842 -1.5920407760118202e-16 80.0
v -1.1510928869247437 -0.6041401028633118 80.0
v -0.7384841442108154 -1.0698790550231934 80.0
v -0.15669769048690796 -1.290521502494812 80.0
v 0.46098634600639343 -1.2155210971832275 80.0
v 0.9730639457702637 -0.862059473991394 80.0
v 1.2622243165969849 -0.31111037731170654 80.0
v 1.2622243165969849 0.31111037731170654 80.0
v 0.9730639457702637 0.862059473991394 80.0
v 0.46098634600639343 1.2155210971832275 80.0
v -0.15669769048690796 1.290521502494812 80.0
v -0.7384841442108154 1.0698790550231934 80.0
v -1.1510928869247437 0.6041401028633118 80.0
v -1.2999999523162842 -1.5920407760118202e-16 0.0
v -1.1510928869247437 0.6041401028633118 0.0
v -0.7384841442108154 1.0698790550231934 0.0
v -0.15669769048690796 1.290521502494812 0.0
v 0.46098634600639343 1.2155210971832275 0.0
v 0.9730639457702637 0.862059473991394 0.0
v 1.2622243165969849 0.31111037731170654 0.0
v 1.2622243165969849 -0.31111037731170654 0.0
v 0.9730639457702637 -0.862059473991394 0.0
v 0.46098634600639343 -1.2155210971832275 0.0
v -0.15669769048690796 -1.290521502494812 0.0
v -0.7384841442108154 -1.0698790550231934 0.0
v -1.1510928869247437 -0.6041401028633118 0.0
v -1.2999999523162842 -1.5920407760118202e-16 80.0
v -1.2999999523162842 -1.5920407760118202e-16 0.0
v -1.5 -1.8369701465288538e-16 80.0
v -1.3514533042907715 0.6508256196975708 80.0
v -0.9352347254753113 1.172747254371643 80.0
v -0.3337813913822174 1.4623918533325195 80.0
v 0.3337813913822174 1.4623918533325195 80.0
v 0.9352347254753113 1.172747254371643 80.0
v 1.3514533042907715 0.6508256196975708 80.0
v 1.5 0.0 80.0
v 1.3514533042907715 -0.6508256196975708 80.0
v 0.9352347254753113 -1.172747254371643 80.0
v 0.3337813913822174 -1.4623918533325195 80.0
v -0.3337813913822174 -1.4623918533325195 80.0
v -0.9352347254753113 -1.172747254371643 80.0
v -1.3514533042907715 -0.6508256196975708 80.0
v -1.5 -1.8369701465288538e-16 0.0
v -1.3514533042907715 -0.6508256196975708 0.0
v -0.9352347254753113 -1.172747254371643 0.0
v -0.3337813913822174 -1.4623918533325195 0.0
v 0.3337813913822174 -1.4623918533325195 0.0
v 0.9352347254753113 -1.172747254371643 0.0
v 1.3514533042907715 -0.6508256196975708 0.0
v 1.5 0.0 0.0
v 1.3514533042907715 0.6508256196975708 0.0
v 0.9352347254753113 1.172747254371643 0.0
v 0.3337813913822174 1.4623918533325195 0.0
v -0.3337813913822174 1.4623918533325195 0.0
v -0.9352347254753113 1.172747254371643 0.0
v -1.3514533042907715 0.6508256196975708 0.0
v -1.5 -1.8369701465288538e-16 0.0
v -1.5 -1.8369701465288538e-16 80.0
v -1.2999999523162842 -1.5920407760118202e-16 80.0
v -1.1510928869247437 0.6041401028633118 80.0
v -0.7384841442108154 1.0698790550231934 80.0
v -0.15669769048690796 1.290521502494812 80.0
v 0.46098634600639343 1.2155210971832275 80.0
v 0.9730639457702637 0.862059473991394 80.0
v 1.2622243165969849 0.31111037731170654 80.0
v 1.2622243165969849 -0.31111037731170654 80.0
v 0.9730639457702637 -0.862059473991394 80.0
v 0.46098634600639343 -1.2155210971832275 80.0
v -0.15669769048690796 -1.290521502494812 80.0
v -0.7384841442108154 -1.0698790550231934 80.0
v -1.1510928869247437 -0.6041401028633118 80.0
v -1.5 -1.8369701465288538e-16 80.0
v -1.3514533042907715 -0.6508256196975708 80.0
v -0.9352347254753113 -1.172747254371643 80.0
v -0.3337813913822174 -1.4623918533325195 80.0
v 0.3337813913822174 -1.4623918533325195 80.0
v 0.9352347254753113 -1.172747254371643 80.0
v 1.3514533042907715 -0.6508256196975708 80.0
v 1.5 0.0 80.0
v 1.3514533042907715 0.6508256196975708 80.0
v 0.9352347254753113 1.172747254371643 80.0
v 0.3337813913822174 1.4623918533325195 80.0
v -0.3337813913822174 1.4623918533325195 80.0
v -0.9352347254753113 1.172747254371643 80.0
v -1.3514533042907715 0.6508256196975708 80.0
v -1.2999999523162842 -1.5920407760118202e-16 0.0
v -1.1510928869247437 -0.6041401028633118 0.0
v -0.7384841442108154 -1.0698790550231934 0.0
v -0.15669769048690796 -1.290521502494812 0.0
v 0.46098634600639343 -1.2155210971832275 0.0
v 0.9730639457702637 -0.862059473991394 0.0
v 1.2622243165969849 -0.31111037731170654 0.0
v 1.2622243165969849 0.31111037731170654 0.0
v 0.9730639457702637 0.862059473991394 0.0
v 0.46098634600639343 1.2155210971832275 0.0
v -0.15669769048690796 1.290521502494812 0.0
v -0.7384841442108154 1.0698790550231934 0.0
v -1.1510928869247437 0.6041401028633118 0.0
v -1.5 -1.8369701465288538e-16 0.0
v -1.3514533042907715 0.6508256196975708 0.0
v -0.9352347254753113 1.172747254371643 0.0
v -0.3337813913822174 1.4623918533325195 0.0
v 0.3337813913822174 1.4623918533325195 0.0
v 0.9352347254753113 1.172747254371643 0.0
v 1.3514533042907715 0.6508256196975708 0.0
v 1.5 0.0 0.0
v 1.3514533042907715 -0.6508256196975708 0.0
v 0.9352347254753113 -1.172747254371643 0.0
v 0.3337813913822174 -1.4623918533325195 0.0
v -0.3337813913822174 -1.4623918533325195 0.0
v -0.9352347254753113 -1.172747254371643 0.0
v -1.3514533042907715 -0.6508256196975708 0.0
vn 1.0 1.2246468525851679e-16 -0.0
vn 0.8854560256004333 0.4647231698036194 -0.0
vn 0.5680647492408752 0.8229838609695435 -0.0
vn 0.1205366775393486 0.9927088618278503 -0.0
vn -0.35460489988327026 0.9350162148475647 0.0
vn -0.7485107779502869 0.6631226539611816 0.0
vn -0.9709418416023254 0.23931565880775452 0.0
vn -0.9709418416023254 -0.23931565880775452 0.0
vn -0.7485107779502869 -0.6631226539611816 0.0
vn -0.35460489988327026 -0.9350162148475647 0.0
vn 0.1205366775393486 -0.9927088618278503 0.0
vn 0.5680647492408752 -0.8229838609695435 0.0
vn 0.8854560256004333 -0.4647231698036194 0.0
vn 1.0 -1.2246468525851679e-16 0.0
vn 0.8854560256004333 -0.4647231698036194 0.0
vn 0.5680647492408752 -0.8229838609695435 0.0
vn 0.1205366775393486 -0.9927088618278503 0.0
vn -0.35460489988327026 -0.9350162148475647 0.0
vn -0.7485107779502869 -0.6631226539611816 0.0
vn -0.9709418416023254 -0.23931565880775452 0.0
vn -0.9709418416023254 0.23931565880775452 0.0
vn -0.7485107779502869 0.6631226539611816 0.0
vn -0.35460489988327026 0.9350162148475647 0.0
vn 0.1205366775393486 0.9927088618278503 -0.0
vn 0.5680647492408752 0.8229838609695435 -0.0
vn 0.8854560256004333 0.4647231698036194 -0.0
vn 1.0 -1.2246468525851679e-16 0.0
vn 1.0 1.2246468525851679e-16 -0.0
vn -1.0 1.2246468525851679e-16 -0.0
vn -0.9009688496589661 0.4338837265968323 -0.0
vn -0.6234897971153259 0.7818315029144287 -0.0
vn -0.22252093255519867 0.9749279022216797 -0.0
vn 0.22252093255519867 0.9749279022216797 -0.0
vn 0.6234897971153259 0.7818315029144287 -0.0
vn 0.9009688496589661 0.4338837265968323 -0.0
vn 1.0 -0.0 -0.0
vn 0.9009688496589661 -0.4338837265968323 -0.0
vn 0.6234897971153259 -0.7818315029144287 -0.0
vn 0.22252093255519867 -0.9749279022216797 -0.0
vn -0.22252093255519867 -0.9749279022216797 0.0
vn -0.6234897971153259 -0.7818315029144287 0.0
vn -0.9009688496589661 -0.4338837265968323 0.0
vn -1.0 -1.2246468525851679e-16 0.0
vn -0.9009688496589661 -0.4338837265968323 0.0
vn -0.6234897971153259 -0.7818315029144287 0.0
vn -0.22252093255519867 -0.9749279022216797 0.0
vn 0.22252093255519867 -0.9749279022216797 -0.0
vn 0.6234897971153259 -0.7818315029144287 -0.0
vn 0.9009688496589661 -0.4338837265968323 -0.0
vn 1.0 -0.0 -0.0
vn 0.9009688496589661 0.4338837265968323 -0.0
vn 0.6234897971153259 0.7818315029144287 -0.0
vn 0.22252093255519867 0.9749279022216797 -0.0
vn -0.22252093255519867 0.9749279022216797 -0.0
vn -0.6234897971153259 0.7818315029144287 -0.0
vn -0.9009688496589661 0.4338837265968323 -0.0
vn -1.0 1.2246468525851679e-16 -0.0
vn -1.0 -1.2246468525851679e-16 0.0
vn 0.0 0.0 1.0
vn 0.0 0.0 1.0
vn 0.0 0.0 1.0
vn 0.0 0.0 1.0
vn 0.0 0.0 1.0
vn 0.0 0.0 1.0
vn 0.0 0.0 1.0
vn 0.0 0.0 1.0
vn 0.0 0.0 1.0
vn 0.0 0.0 1.0
vn 0.0 0.0 1.0
vn 0.0 0.0 1.0
vn 0.0 0.0 1.0
vn 0.0 0.0 1.0
vn 0.0 0.0 1.0
vn 0.0 0.0 1.0
vn 0.0 0.0 1.0
vn 0.0 0.0 1.0
vn 0.0 0.0 1.0
vn 0.0 0.0 1.0
vn 0.0 0.0 1.0
vn 0.0 0.0 1.0
vn 0.0 0.0 1.0
vn 0.0 0.0 1.0
vn 0.0 0.0 1.0
vn 0.0 0.0 1.0
vn 0.0 0.0 1.0
vn -0.0 -0.0 -1.0
vn -0.0 -0.0 -1.0
vn -0.0 -0.0 -1.0
vn -0.0 -0.0 -1.0
vn -0.0 -0.0 -1.0
vn -0.0 -0.0 -1.0
vn -0.0 -0.0 -1.0
vn -0.0 -0.0 -1.0
vn -0.0 -0.0 -1.0
vn -0.0 -0.0 -1.0
vn -0.0 -0.0 -1.0
vn -0.0 -0.0 -1.0
vn -0.0 -0.0 -1.0
vn -0.0 -0.0 -1.0
vn -0.0 -0.0 -1.0
vn -0.0 -0.0 -1.0
vn -0.0 -0.0 -1.0
vn -0.0 -0.0 -1.0
vn -0.0 -0.0 -1.0
vn -0.0 -0.0 -1.0
vn -0.0 -0.0 -1.0
vn -0.0 -0.0 -1.0
vn -0.0 -0.0 -1.0
vn -0.0 -0.0 -1.0
vn -0.0 -0.0 -1.0
vn -0.0 -0.0 -1.0
vn -0.0 -0.0 -1.0
g 8c24442e-e2da-11ea-a8b8-54bf646e7e1f
f 2//2 26//26 1//1
f 1//1 26//26 28//28
f 27//27 14//14 13//13
f 13//13 14//14 15//15
f 13//13 15//15 12//12
f 12//12 15//15 16//16
f 12//12 16//16 11//11
f 11//11 16//16 17//17
f 11//11 17//17 10//10
f 10//10 17//17 18//18
f 10//10 18//18 9//9
f 9//9 18//18 19//19
f 9//9 19//19 8//8
f 8//8 19//19 20//20
f 8//8 20//20 7//7
f 7//7 20//20 21//21
f 7//7 21//21 6//6
f 6//6 21//21 22//22
f 6//6 22//22 5//5
f 5//5 22//22 23//23
f 5//5 23//23 4//4
f 4//4 23//23 24//24
f 4//4 24//24 3//3
f 3//3 24//24 25//25
f 3//3 25//25 2//2
f 2//2 25//25 26//26
g 8c28152c-e2da-11ea-8571-54bf646e7e1f
f 30//30 56//56 29//29
f 29//29 56//56 57//57
f 58//58 43//43 42//42
f 42//42 43//43 44//44
f 42//42 44//44 41//41
f 41//41 44//44 45//45
f 41//41 45//45 40//40
f 40//40 45//45 46//46
f 40//40 46//46 39//39
f 39//39 46//46 47//47
f 39//39 47//47 38//38
f 38//38 47//47 48//48
f 38//38 48//48 37//37
f 37//37 48//48 49//49
f 37//37 49//49 36//36
f 36//36 49//49 50//50
f 36//36 50//50 35//35
f 35//35 50//50 51//51
f 35//35 51//51 34//34
f 34//34 51//51 52//52
f 34//34 52//52 33//33
f 33//33 52//52 53//53
f 33//33 53//53 32//32
f 32//32 53//53 54//54
f 32//32 54//54 31//31
f 31//31 54//54 55//55
f 31//31 55//55 30//30
f 30//30 55//55 56//56
g 8c2be622-e2da-11ea-968b-54bf646e7e1f
f 60//60 85//85 59//59
f 59//59 85//85 72//72
f 59//59 72//72 73//73
f 85//85 60//60 84//84
f 84//84 60//60 61//61
f 84//84 61//61 83//83
f 83//83 61//61 62//62
f 83//83 62//62 82//82
f 82//82 62//62 63//63
f 82//82 63//63 81//81
f 81//81 63//63 64//64
f 81//81 64//64 80//80
f 80//80 64//64 65//65
f 80//80 65//65 79//79
f 79//79 65//65 66//66
f 79//79 66//66 78//78
f 78//78 66//66 67//67
f 78//78 67//67 77//77
f 77//77 67//67 68//68
f 77//77 68//68 76//76
f 76//76 68//68 69//69
f 76//76 69//69 75//75
f 75//75 69//69 70//70
f 75//75 70//70 74//74
f 74//74 70//70 71//71
f 74//74 71//71 73//73
f 73//73 71//71 59//59
g 8c307a18-e2da-11ea-ae4a-54bf646e7e1f
f 87//87 112//112 86//86
f 86//86 112//112 99//99
f 86//86 99//99 100//100
f 112//112 87//87 111//111
f 111//111 87//87 88//88
f 111//111 88//88 110//110
f 110//110 88//88 89//89
f 110//110 89//89 109//109
f 109//109 89//89 90//90
f 109//109 90//90 108//108
f 108//108 90//90 91//91
f 108//108 91//91 107//107
f 107//107 91//91 92//92
f 107//107 92//92 106//106
f 106//106 92//92 93//93
f 106//106 93//93 105//105
f 105//105 93//93 94//94
f 105//105 94//94 104//104
f 104//104 94//94 95//95
f 104//104 95//95 103//103
f 103//103 95//95 96//96
f 103//103 96//96 102//102
f 102//102 96//96 97//97
f 102//102 97//97 101//101
f 101//101 97//97 98//98
f 101//101 98//98 100//100
f 100//100 98//98 86//86

# End of file