# WaveFront *.obj file
# Vertices: 24
# Triangles : 12

v -1.0 0.0 0.6000000238418579
v 1.0 0.0 0.6000000238418579
v 1.0 0.30000001192092896 0.6000000238418579
v -1.0 0.30000001192092896 0.6000000238418579
v -1.0 0.0 -0.6000000238418579
v -1.0 0.0 0.6000000238418579
v -1.0 0.30000001192092896 0.6000000238418579
v -1.0 0.30000001192092896 -0.6000000238418579
v 1.0 0.0 -0.6000000238418579
v -1.0 0.0 -0.6000000238418579
v -1.0 0.30000001192092896 -0.6000000238418579
v 1.0 0.30000001192092896 -0.6000000238418579
v 1.0 0.0 0.6000000238418579
v 1.0 0.0 -0.6000000238418579
v 1.0 0.30000001192092896 -0.6000000238418579
v 1.0 0.30000001192092896 0.6000000238418579
v 1.0 0.30000001192092896 0.6000000238418579
v 1.0 0.30000001192092896 -0.6000000238418579
v -1.0 0.30000001192092896 -0.6000000238418579
v -1.0 0.30000001192092896 0.6000000238418579
v 1.0 0.0 -0.6000000238418579
v 1.0 0.0 0.6000000238418579
v -1.0 0.0 0.6000000238418579
v -1.0 0.0 -0.6000000238418579
vn 5.551115123125783e-17 -0.0 1.0
vn 5.551115123125783e-17 -0.0 1.0
vn 5.551115123125783e-17 -0.0 1.0
vn 5.551115123125783e-17 -0.0 1.0
vn -1.0 0.0 0.0
vn -1.0 0.0 0.0
vn -1.0 0.0 0.0
vn -1.0 0.0 0.0
vn 1.1102230246251565e-16 0.0 -1.0
vn 1.1102230246251565e-16 0.0 -1.0
vn 1.1102230246251565e-16 0.0 -1.0
vn 1.1102230246251565e-16 0.0 -1.0
vn 1.0 -0.0 1.850371663592295e-16
vn 1.0 -0.0 1.850371663592295e-16
vn 1.0 -0.0 1.850371663592295e-16
vn 1.0 -0.0 1.850371663592295e-16
vn 0.0 1.0 0.0
vn 0.0 1.0 0.0
vn 0.0 1.0 0.0
vn 0.0 1.0 0.0
vn -0.0 -1.0 -0.0
vn -0.0 -1.0 -0.0
vn -0.0 -1.0 -0.0
vn -0.0 -1.0 -0.0
g 6df7affe-e2e6-11ea-bbae-54bf646e7e1f
f 1//1 2//2 4//4
f 4//4 2//2 3//3
g 6e00d7ca-e2e6-11ea-971e-54bf646e7e1f
f 5//5 6//6 8//8
f 8//8 6//6 7//7
g 6e0b37c6-e2e6-11ea-83ef-54bf646e7e1f
f 9//9 10//10 12//12
f 12//12 10//10 11//11
g 6e148646-e2e6-11ea-bc72-54bf646e7e1f
f 13//13 14//14 16//16
f 16//16 14//14 15//15
g 6e1e4a30-e2e6-11ea-817a-54bf646e7e1f
f 17//17 18//18 20//20
f 20//20 18//18 19//19
g 6e4ea75a-e2e6-11ea-a0cc-54bf646e7e1f
f 22//22 23//23 21//21
f 21//21 23//23 24//24

# End of file