# WaveFront *.obj file
# Vertices: 42
# Triangles : 24

v -1.5407439555097887e-33 0.0 -0.5994399785995483
v -1.228688126185857e-17 0.20066000521183014 -0.5994399785995483
v 5.9994797706604 0.3301999866962433 -0.5994399785995483
v 5.9994797706604 0.7289800047874451 -0.5994399785995483
v 6.319519996643066 0.7289800047874451 -0.5994399785995483
v 6.449059963226318 0.5994399785995483 -0.5994399785995483
v 6.449059963226318 0.0 -0.5994399785995483
v -1.228688126185857e-17 0.20066000521183014 -0.5994399785995483
v -1.228688126185857e-17 0.20066000521183014 0.5994399785995483
v 5.9994797706604 0.3301999866962433 0.5994399785995483
v 5.9994797706604 0.3301999866962433 -0.5994399785995483
v 5.9994797706604 0.3301999866962433 -0.5994399785995483
v 5.9994797706604 0.3301999866962433 0.5994399785995483
v 5.9994797706604 0.7289800047874451 0.5994399785995483
v 5.9994797706604 0.7289800047874451 -0.5994399785995483
v 5.9994797706604 0.7289800047874451 -0.5994399785995483
v 5.9994797706604 0.7289800047874451 0.5994399785995483
v 6.319519996643066 0.7289800047874451 0.5994399785995483
v 6.319519996643066 0.7289800047874451 -0.5994399785995483
v 6.319519996643066 0.7289800047874451 -0.5994399785995483
v 6.319519996643066 0.7289800047874451 0.5994399785995483
v 6.449059963226318 0.5994399785995483 0.5994399785995483
v 6.449059963226318 0.5994399785995483 -0.5994399785995483
v 6.449059963226318 0.5994399785995483 -0.5994399785995483
v 6.449059963226318 0.5994399785995483 0.5994399785995483
v 6.449059963226318 0.0 0.5994399785995483
v 6.449059963226318 0.0 -0.5994399785995483
v 6.449059963226318 0.0 -0.5994399785995483
v 6.449059963226318 0.0 0.5994399785995483
v -1.5407439555097887e-33 0.0 0.5994399785995483
v -1.5407439555097887e-33 0.0 -0.5994399785995483
v -1.5407439555097887e-33 0.0 -0.5994399785995483
v -1.5407439555097887e-33 0.0 0.5994399785995483
v -1.228688126185857e-17 0.20066000521183014 0.5994399785995483
v -1.228688126185857e-17 0.20066000521183014 -0.5994399785995483
v -1.228688126185857e-17 0.20066000521183014 0.5994399785995483
v -1.5407439555097887e-33 0.0 0.5994399785995483
v 6.449059963226318 0.0 0.5994399785995483
v 6.449059963226318 0.5994399785995483 0.5994399785995483
v 6.319519996643066 0.7289800047874451 0.5994399785995483
v 5.9994797706604 0.7289800047874451 0.5994399785995483
v 5.9994797706604 0.3301999866962433 0.5994399785995483
vn 0.0 0.0 -1.0
vn 0.0 0.0 -1.0
vn 0.0 0.0 -1.0
vn 0.0 0.0 -1.0
vn 0.0 0.0 -1.0
vn 0.0 0.0 -1.0
vn 0.0 0.0 -1.0
vn -0.021586839109659195 0.999767005443573 0.0
vn -0.021586839109659195 0.999767005443573 0.0
vn -0.021586839109659195 0.999767005443573 0.0
vn -0.021586839109659195 0.999767005443573 0.0
vn -1.0 0.0 0.0
vn -1.0 0.0 0.0
vn -1.0 0.0 0.0
vn -1.0 0.0 0.0
vn 4.162815840598249e-15 1.0 -0.0
vn 4.162815840598249e-15 1.0 -0.0
vn 4.162815840598249e-15 1.0 -0.0
vn 4.162815840598249e-15 1.0 -0.0
vn 0.7071067690849304 0.7071067690849304 -0.0
vn 0.7071067690849304 0.7071067690849304 -0.0
vn 0.7071067690849304 0.7071067690849304 -0.0
vn 0.7071067690849304 0.7071067690849304 -0.0
vn 1.0 0.0 0.0
vn 1.0 0.0 0.0
vn 1.0 0.0 0.0
vn 1.0 0.0 0.0
vn 0.0 -1.0 0.0
vn 0.0 -1.0 0.0
vn 0.0 -1.0 0.0
vn 0.0 -1.0 0.0
vn -1.0 -6.123234262925839e-17 0.0
vn -1.0 -6.123234262925839e-17 0.0
vn -1.0 -6.123234262925839e-17 0.0
vn -1.0 -6.123234262925839e-17 0.0
vn 0.0 0.0 1.0
vn 0.0 0.0 1.0
vn 0.0 0.0 1.0
vn 0.0 0.0 1.0
vn 0.0 0.0 1.0
vn 0.0 0.0 1.0
vn 0.0 0.0 1.0
g 5fabe41c-e2eb-11ea-88b6-54bf646e7e1f
f 2//2 3//3 1//1
f 1//1 3//3 7//7
f 7//7 3//3 6//6
f 6//6 3//3 4//4
f 6//6 4//4 5//5
g 5fb3ac66-e2eb-11ea-8071-54bf646e7e1f
f 9//9 10//10 8//8
f 8//8 10//10 11//11
g 5fbbe9ba-e2eb-11ea-b3a7-54bf646e7e1f
f 13//13 14//14 12//12
f 12//12 14//14 15//15
g 5fc40000-e2eb-11ea-b60a-54bf646e7e1f
f 17//17 18//18 16//16
f 16//16 18//18 19//19
g 5fe8edb6-e2eb-11ea-927f-54bf646e7e1f
f 21//21 22//22 20//20
f 20//20 22//22 23//23
g 5ff0b61c-e2eb-11ea-9bce-54bf646e7e1f
f 25//25 26//26 24//24
f 24//24 26//26 27//27
g 5ff80902-e2eb-11ea-9b54-54bf646e7e1f
f 29//29 30//30 28//28
f 28//28 30//30 31//31
g 5fff82ec-e2eb-11ea-a2ae-54bf646e7e1f
f 33//33 34//34 32//32
f 32//32 34//34 35//35
g 6006d61c-e2eb-11ea-8076-54bf646e7e1f
f 36//36 37//37 42//42
f 42//42 37//37 38//38
f 42//42 38//38 39//39
f 40//40 41//41 39//39
f 39//39 41//41 42//42

# End of file