# WaveFront *.obj file
# Vertices: 144
# Triangles : 124

v 11.0 -7.0 -1.0
v 10.94985580444336 -7.445041656494141 -1.0
v 10.8019380569458 -7.867767333984375 -1.0
v 10.5636625289917 -8.246979713439941 -1.0
v 10.246979713439941 -8.5636625289917 -1.0
v 9.867767333984375 -8.8019380569458 -1.0
v 9.44504165649414 -8.94985580444336 -1.0
v 9.0 -9.0 -1.0
v -8.999999046325684 -9.0 -1.0
v -9.44504165649414 -8.94985580444336 -1.0
v -9.867767333984375 -8.8019380569458 -1.0
v -10.246979713439941 -8.563663482666016 -1.0
v -10.563663482666016 -8.246979713439941 -1.0
v -10.8019380569458 -7.867767333984375 -1.0
v -10.94985580444336 -7.445041179656982 -1.0
v -11.0 -6.999999046325684 -1.0
v -11.0 6.999999046325684 -1.0
v -10.94985580444336 7.445041179656982 -1.0
v -10.8019380569458 7.867767333984375 -1.0
v -10.563663482666016 8.246979713439941 -1.0
v -10.246979713439941 8.563663482666016 -1.0
v -9.867767333984375 8.8019380569458 -1.0
v -9.44504165649414 8.94985580444336 -1.0
v -8.999999046325684 9.0 -1.0
v 8.999999046325684 9.0 -1.0
v 9.44504165649414 8.94985580444336 -1.0
v 9.867767333984375 8.8019380569458 -1.0
v 10.246979713439941 8.563663482666016 -1.0
v 10.563663482666016 8.246979713439941 -1.0
v 10.8019380569458 7.867767333984375 -1.0
v 10.94985580444336 7.445041179656982 -1.0
v 11.0 6.999999046325684 -1.0
v 9.0 -9.0 -1.0
v 9.0 -9.0 1.0
v -8.999999046325684 -9.0 1.0
v -8.999999046325684 -9.0 -1.0
v -8.999999046325684 -9.0 -1.0
v -8.999999046325684 -9.0 1.0
v -9.44504165649414 -8.94985580444336 1.0
v -9.867767333984375 -8.8019380569458 1.0
v -10.246979713439941 -8.563663482666016 1.0
v -10.563663482666016 -8.246979713439941 1.0
v -10.8019380569458 -7.867767333984375 1.0
v -10.94985580444336 -7.445041179656982 1.0
v -11.0 -6.999999046325684 1.0
v -11.0 -6.999999046325684 -1.0
v -10.94985580444336 -7.445041179656982 -1.0
v -10.8019380569458 -7.867767333984375 -1.0
v -10.563663482666016 -8.246979713439941 -1.0
v -10.246979713439941 -8.563663482666016 -1.0
v -9.867767333984375 -8.8019380569458 -1.0
v -9.44504165649414 -8.94985580444336 -1.0
v -11.0 -6.999999046325684 -1.0
v -11.0 -6.999999046325684 1.0
v -11.0 6.999999046325684 1.0
v -11.0 6.999999046325684 -1.0
v -11.0 6.999999046325684 -1.0
v -11.0 6.999999046325684 1.0
v -10.94985580444336 7.445041179656982 1.0
v -10.8019380569458 7.867767333984375 1.0
v -10.563663482666016 8.246979713439941 1.0
v -10.246979713439941 8.563663482666016 1.0
v -9.867767333984375 8.8019380569458 1.0
v -9.44504165649414 8.94985580444336 1.0
v -8.999999046325684 9.0 1.0
v -8.999999046325684 9.0 -1.0
v -9.44504165649414 8.94985580444336 -1.0
v -9.867767333984375 8.8019380569458 -1.0
v -10.246979713439941 8.563663482666016 -1.0
v -10.563663482666016 8.246979713439941 -1.0
v -10.8019380569458 7.867767333984375 -1.0
v -10.94985580444336 7.445041179656982 -1.0
v -8.999999046325684 9.0 -1.0
v -8.999999046325684 9.0 1.0
v 8.999999046325684 9.0 1.0
v 8.999999046325684 9.0 -1.0
v 8.999999046325684 9.0 -1.0
v 8.999999046325684 9.0 1.0
v 9.44504165649414 8.94985580444336 1.0
v 9.867767333984375 8.8019380569458 1.0
v 10.246979713439941 8.563663482666016 1.0
v 10.563663482666016 8.246979713439941 1.0
v 10.8019380569458 7.867767333984375 1.0
v 10.94985580444336 7.445041179656982 1.0
v 11.0 6.999999046325684 1.0
v 11.0 6.999999046325684 -1.0
v 10.94985580444336 7.445041179656982 -1.0
v 10.8019380569458 7.867767333984375 -1.0
v 10.563663482666016 8.246979713439941 -1.0
v 10.246979713439941 8.563663482666016 -1.0
v 9.867767333984375 8.8019380569458 -1.0
v 9.44504165649414 8.94985580444336 -1.0
v 11.0 6.999999046325684 -1.0
v 11.0 6.999999046325684 1.0
v 11.0 -7.0 1.0
v 11.0 -7.0 -1.0
v 11.0 -7.0 -1.0
v 11.0 -7.0 1.0
v 10.94985580444336 -7.445041656494141 1.0
v 10.8019380569458 -7.867767333984375 1.0
v 10.5636625289917 -8.246979713439941 1.0
v 10.246979713439941 -8.5636625289917 1.0
v 9.867767333984375 -8.8019380569458 1.0
v 9.44504165649414 -8.94985580444336 1.0
v 9.0 -9.0 1.0
v 9.0 -9.0 -1.0
v 9.44504165649414 -8.94985580444336 -1.0
v 9.867767333984375 -8.8019380569458 -1.0
v 10.246979713439941 -8.5636625289917 -1.0
v 10.5636625289917 -8.246979713439941 -1.0
v 10.8019380569458 -7.867767333984375 -1.0
v 10.94985580444336 -7.445041656494141 -1.0
v 9.0 -9.0 1.0
v 9.44504165649414 -8.94985580444336 1.0
v 9.867767333984375 -8.8019380569458 1.0
v 10.246979713439941 -8.5636625289917 1.0
v 10.5636625289917 -8.246979713439941 1.0
v 10.8019380569458 -7.867767333984375 1.0
v 10.94985580444336 -7.445041656494141 1.0
v 11.0 -7.0 1.0
v 11.0 6.999999046325684 1.0
v 10.94985580444336 7.445041179656982 1.0
v 10.8019380569458 7.867767333984375 1.0
v 10.563663482666016 8.246979713439941 1.0
v 10.246979713439941 8.563663482666016 1.0
v 9.867767333984375 8.8019380569458 1.0
v 9.44504165649414 8.94985580444336 1.0
v 8.999999046325684 9.0 1.0
v -8.999999046325684 9.0 1.0
v -9.44504165649414 8.94985580444336 1.0
v -9.867767333984375 8.8019380569458 1.0
v -10.246979713439941 8.563663482666016 1.0
v -10.563663482666016 8.246979713439941 1.0
v -10.8019380569458 7.867767333984375 1.0
v -10.94985580444336 7.445041179656982 1.0
v -11.0 6.999999046325684 1.0
v -11.0 -6.999999046325684 1.0
v -10.94985580444336 -7.445041179656982 1.0
v -10.8019380569458 -7.867767333984375 1.0
v -10.563663482666016 -8.246979713439941 1.0
v -10.246979713439941 -8.563663482666016 1.0
v -9.867767333984375 -8.8019380569458 1.0
v -9.44504165649414 -8.94985580444336 1.0
v -8.999999046325684 -9.0 1.0
vn -0.0 -0.0 -1.0
vn -0.0 -0.0 -1.0
vn -0.0 -0.0 -1.0
vn -0.0 -0.0 -1.0
vn -0.0 -0.0 -1.0
vn -0.0 -0.0 -1.0
vn -0.0 -0.0 -1.0
vn -0.0 -0.0 -1.0
vn -0.0 -0.0 -1.0
vn -0.0 -0.0 -1.0
vn -0.0 -0.0 -1.0
vn -0.0 -0.0 -1.0
vn -0.0 -0.0 -1.0
vn -0.0 -0.0 -1.0
vn -0.0 -0.0 -1.0
vn -0.0 -0.0 -1.0
vn -0.0 -0.0 -1.0
vn -0.0 -0.0 -1.0
vn -0.0 -0.0 -1.0
vn -0.0 -0.0 -1.0
vn -0.0 -0.0 -1.0
vn -0.0 -0.0 -1.0
vn -0.0 -0.0 -1.0
vn -0.0 -0.0 -1.0
vn -0.0 -0.0 -1.0
vn -0.0 -0.0 -1.0
vn -0.0 -0.0 -1.0
vn -0.0 -0.0 -1.0
vn -0.0 -0.0 -1.0
vn -0.0 -0.0 -1.0
vn -0.0 -0.0 -1.0
vn -0.0 -0.0 -1.0
vn 0.0 -1.0 0.0
vn 0.0 -1.0 0.0
vn 0.0 -1.0 0.0
vn 0.0 -1.0 0.0
vn 3.7464826618816005e-07 -1.0 -0.0
vn 3.7464826618816005e-07 -1.0 -0.0
vn -0.22252067923545837 -0.9749279618263245 0.0
vn -0.4338836073875427 -0.9009689092636108 0.0
vn -0.6234897375106812 -0.7818315029144287 0.0
vn -0.7818315029144287 -0.6234897375106812 0.0
vn -0.9009689092636108 -0.4338836073875427 0.0
vn -0.9749279618263245 -0.22252067923545837 0.0
vn -1.0 3.7464070601345156e-07 -0.0
vn -1.0 3.7464070601345156e-07 -0.0
vn -0.9749279618263245 -0.22252067923545837 0.0
vn -0.9009689092636108 -0.4338836073875427 0.0
vn -0.7818315029144287 -0.6234897375106812 0.0
vn -0.6234897375106812 -0.7818315029144287 0.0
vn -0.4338836073875427 -0.9009689092636108 0.0
vn -0.22252067923545837 -0.9749279618263245 0.0
vn -1.0 2.537653005854352e-16 0.0
vn -1.0 2.537653005854352e-16 0.0
vn -1.0 2.537653005854352e-16 0.0
vn -1.0 2.537653005854352e-16 0.0
vn -1.0 -3.760830225019163e-07 0.0
vn -1.0 -3.760830225019163e-07 0.0
vn -0.9749279618263245 0.22252067923545837 -0.0
vn -0.9009689092636108 0.4338836073875427 -0.0
vn -0.7818315029144287 0.6234897375106812 -0.0
vn -0.6234897375106812 0.7818315029144287 -0.0
vn -0.4338836073875427 0.9009689092636108 -0.0
vn -0.22252067923545837 0.9749279618263245 -0.0
vn 3.746480103927752e-07 1.0 -0.0
vn 3.746480103927752e-07 1.0 -0.0
vn -0.22252067923545837 0.9749279618263245 -0.0
vn -0.4338836073875427 0.9009689092636108 -0.0
vn -0.6234897375106812 0.7818315029144287 -0.0
vn -0.7818315029144287 0.6234897375106812 -0.0
vn -0.9009689092636108 0.4338836073875427 -0.0
vn -0.9749279618263245 0.22252067923545837 -0.0
vn 1.973729968610165e-16 1.0 -0.0
vn 1.973729968610165e-16 1.0 -0.0
vn 1.973729968610165e-16 1.0 -0.0
vn 1.973729968610165e-16 1.0 -0.0
vn -3.7608410252687463e-07 1.0 -0.0
vn -3.7608410252687463e-07 1.0 -0.0
vn 0.22252067923545837 0.9749279618263245 -0.0
vn 0.4338836073875427 0.9009689092636108 -0.0
vn 0.6234897375106812 0.7818315029144287 -0.0
vn 0.7818315029144287 0.6234897375106812 -0.0
vn 0.9009689092636108 0.4338836073875427 -0.0
vn 0.9749279618263245 0.22252067923545837 -0.0
vn 1.0 -3.746434629192663e-07 -0.0
vn 1.0 -3.746434629192663e-07 -0.0
vn 0.9749279618263245 0.22252067923545837 -0.0
vn 0.9009689092636108 0.4338836073875427 -0.0
vn 0.7818315029144287 0.6234897375106812 -0.0
vn 0.6234897375106812 0.7818315029144287 -0.0
vn 0.4338836073875427 0.9009689092636108 -0.0
vn 0.22252067923545837 0.9749279618263245 -0.0
vn 1.0 -2.537652741156556e-16 0.0
vn 1.0 -2.537652741156556e-16 0.0
vn 1.0 -2.537652741156556e-16 0.0
vn 1.0 -2.537652741156556e-16 0.0
vn 1.0 1.2710353001558193e-15 -0.0
vn 1.0 1.2710353001558193e-15 -0.0
vn 0.9749279022216797 -0.22252093255519867 -0.0
vn 0.9009688496589661 -0.4338837265968323 -0.0
vn 0.7818315029144287 -0.6234897971153259 -0.0
vn 0.6234897971153259 -0.7818315029144287 -0.0
vn 0.4338837265968323 -0.9009688496589661 -0.0
vn 0.22252093255519867 -0.9749279022216797 -0.0
vn 0.0 -1.0 -0.0
vn 0.0 -1.0 -0.0
vn 0.22252093255519867 -0.9749279022216797 -0.0
vn 0.4338837265968323 -0.9009688496589661 -0.0
vn 0.6234897971153259 -0.7818315029144287 -0.0
vn 0.7818315029144287 -0.6234897971153259 -0.0
vn 0.9009688496589661 -0.4338837265968323 -0.0
vn 0.9749279022216797 -0.22252093255519867 -0.0
vn 0.0 0.0 1.0
vn 0.0 0.0 1.0
vn 0.0 0.0 1.0
vn 0.0 0.0 1.0
vn 0.0 0.0 1.0
vn 0.0 0.0 1.0
vn 0.0 0.0 1.0
vn 0.0 0.0 1.0
vn 0.0 0.0 1.0
vn 0.0 0.0 1.0
vn 0.0 0.0 1.0
vn 0.0 0.0 1.0
vn 0.0 0.0 1.0
vn 0.0 0.0 1.0
vn 0.0 0.0 1.0
vn 0.0 0.0 1.0
vn 0.0 0.0 1.0
vn 0.0 0.0 1.0
vn 0.0 0.0 1.0
vn 0.0 0.0 1.0
vn 0.0 0.0 1.0
vn 0.0 0.0 1.0
vn 0.0 0.0 1.0
vn 0.0 0.0 1.0
vn 0.0 0.0 1.0
vn 0.0 0.0 1.0
vn 0.0 0.0 1.0
vn 0.0 0.0 1.0
vn 0.0 0.0 1.0
vn 0.0 0.0 1.0
vn 0.0 0.0 1.0
vn 0.0 0.0 1.0
g a6b5e1ac-e2e5-11ea-88a0-54bf646e7e1f
f 2//2 8//8 1//1
f 1//1 8//8 16//16
f 1//1 16//16 32//32
f 32//32 16//16 17//17
f 32//32 17//17 25//25
f 25//25 17//17 24//24
f 24//24 17//17 18//18
f 24//24 18//18 19//19
f 2//2 3//3 8//8
f 8//8 3//3 4//4
f 8//8 4//4 5//5
f 5//5 6//6 8//8
f 8//8 6//6 7//7
f 8//8 9//9 16//16
f 16//16 9//9 15//15
f 15//15 9//9 14//14
f 14//14 9//9 13//13
f 13//13 9//9 12//12
f 12//12 9//9 11//11
f 11//11 9//9 10//10
f 19//19 20//20 24//24
f 24//24 20//20 21//21
f 24//24 21//21 22//22
f 22//22 23//23 24//24
f 26//26 27//27 25//25
f 25//25 27//27 28//28
f 25//25 28//28 29//29
f 29//29 30//30 25//25
f 25//25 30//30 31//31
f 25//25 31//31 32//32
g a6ba7538-e2e5-11ea-8ada-54bf646e7e1f
f 34//34 35//35 33//33
f 33//33 35//35 36//36
g a6bee20a-e2e5-11ea-9b3a-54bf646e7e1f
f 37//37 38//38 52//52
f 52//52 38//38 39//39
f 52//52 39//39 51//51
f 51//51 39//39 40//40
f 51//51 40//40 50//50
f 50//50 40//40 41//41
f 50//50 41//41 49//49
f 49//49 41//41 42//42
f 49//49 42//42 48//48
f 48//48 42//42 43//43
f 48//48 43//43 47//47
f 47//47 43//43 44//44
f 47//47 44//44 46//46
f 46//46 44//44 45//45
g a6c327b4-e2e5-11ea-852c-54bf646e7e1f
f 54//54 55//55 53//53
f 53//53 55//55 56//56
g a6c76d58-e2e5-11ea-b765-54bf646e7e1f
f 57//57 58//58 72//72
f 72//72 58//58 59//59
f 72//72 59//59 71//71
f 71//71 59//59 60//60
f 71//71 60//60 70//70
f 70//70 60//60 61//61
f 70//70 61//61 69//69
f 69//69 61//61 62//62
f 69//69 62//62 68//68
f 68//68 62//62 63//63
f 68//68 63//63 67//67
f 67//67 63//63 64//64
f 67//67 64//64 66//66
f 66//66 64//64 65//65
g a6cbd9d4-e2e5-11ea-b663-54bf646e7e1f
f 74//74 75//75 73//73
f 73//73 75//75 76//76
g a6d0469c-e2e5-11ea-82f5-54bf646e7e1f
f 77//77 78//78 92//92
f 92//92 78//78 79//79
f 92//92 79//79 91//91
f 91//91 79//79 80//80
f 91//91 80//80 90//90
f 90//90 80//80 81//81
f 90//90 81//81 89//89
f 89//89 81//81 82//82
f 89//89 82//82 88//88
f 88//88 82//82 83//83
f 88//88 83//83 87//87
f 87//87 83//83 84//84
f 87//87 84//84 86//86
f 86//86 84//84 85//85
g a6d48c38-e2e5-11ea-91be-54bf646e7e1f
f 94//94 95//95 93//93
f 93//93 95//95 96//96
g a6d8d1be-e2e5-11ea-bdfa-54bf646e7e1f
f 97//97 98//98 112//112
f 112//112 98//98 99//99
f 112//112 99//99 111//111
f 111//111 99//99 100//100
f 111//111 100//100 110//110
f 110//110 100//100 101//101
f 110//110 101//101 109//109
f 109//109 101//101 102//102
f 109//109 102//102 108//108
f 108//108 102//102 103//103
f 108//108 103//103 107//107
f 107//107 103//103 104//104
f 107//107 104//104 106//106
f 106//106 104//104 105//105
g a6ea5d68-e2e5-11ea-8bf3-54bf646e7e1f
f 114//114 115//115 113//113
f 113//113 115//115 116//116
f 113//113 116//116 117//117
f 117//117 118//118 113//113
f 113//113 118//118 119//119
f 113//113 119//119 120//120
f 113//113 120//120 137//137
f 137//137 120//120 121//121
f 137//137 121//121 136//136
f 136//136 121//121 128//128
f 136//136 128//128 129//129
f 121//121 122//122 128//128
f 128//128 122//122 123//123
f 128//128 123//123 124//124
f 124//124 125//125 128//128
f 128//128 125//125 126//126
f 128//128 126//126 127//127
f 130//130 131//131 129//129
f 129//129 131//131 132//132
f 129//129 132//132 133//133
f 133//133 134//134 129//129
f 129//129 134//134 135//135
f 129//129 135//135 136//136
f 113//113 137//137 144//144
f 144//144 137//137 138//138
f 144//144 138//138 139//139
f 139//139 140//140 144//144
f 144//144 140//140 141//141
f 144//144 141//141 142//142
f 142//142 143//143 144//144

# End of file