# WaveFront *.obj file
# Vertices: 228
# Triangles : 212

v -0.3929058313369751 -0.07500000298023224 3.299999952316284
v -0.3929058313369751 -0.07500000298023224 3.700000047683716
v 0.3929058313369751 -0.07500000298023224 3.700000047683716
v 0.3929058313369751 -0.07500000298023224 3.299999952316284
v -0.3929058313369751 0.07500000298023224 3.299999952316284
v -0.3992096781730652 0.025132285431027412 3.299999952316284
v -0.3992096781730652 -0.025132285431027412 3.299999952316284
v -0.3929058313369751 -0.07500000298023224 3.299999952316284
v 0.3929058313369751 -0.07500000298023224 3.299999952316284
v 0.3992096781730652 -0.025132285431027412 3.299999952316284
v 0.3992096781730652 0.025132285431027412 3.299999952316284
v 0.3929058313369751 0.07500000298023224 3.299999952316284
v -0.25 -3.0616171314629196e-17 -1.5
v -0.2398732453584671 0.07043313980102539 -1.5
v -0.21031337976455688 0.13516020774841309 -1.5
v -0.1637151837348938 0.18893739581108093 -1.5
v -0.1038537546992302 0.22740799188613892 -1.5
v -0.035578709095716476 0.24745535850524902 -1.5
v 0.035578709095716476 0.24745535850524902 -1.5
v 0.1038537546992302 0.22740799188613892 -1.5
v 0.1637151837348938 0.18893739581108093 -1.5
v 0.21031337976455688 0.13516020774841309 -1.5
v 0.2398732453584671 0.07043313980102539 -1.5
v 0.25 0.0 -1.5
v 0.2398732453584671 -0.07043313980102539 -1.5
v 0.21031337976455688 -0.13516020774841309 -1.5
v 0.1637151837348938 -0.18893739581108093 -1.5
v 0.1038537546992302 -0.22740799188613892 -1.5
v 0.035578709095716476 -0.24745535850524902 -1.5
v -0.035578709095716476 -0.24745535850524902 -1.5
v -0.1038537546992302 -0.22740799188613892 -1.5
v -0.1637151837348938 -0.18893739581108093 -1.5
v -0.21031337976455688 -0.13516020774841309 -1.5
v -0.2398732453584671 -0.07043313980102539 -1.5
v -0.25 -3.0616171314629196e-17 -1.5
v -0.2398732453584671 -0.07043313980102539 -1.5
v -0.21031337976455688 -0.13516020774841309 -1.5
v -0.1637151837348938 -0.18893739581108093 -1.5
v -0.1038537546992302 -0.22740799188613892 -1.5
v -0.035578709095716476 -0.24745535850524902 -1.5
v 0.035578709095716476 -0.24745535850524902 -1.5
v 0.1038537546992302 -0.22740799188613892 -1.5
v 0.1637151837348938 -0.18893739581108093 -1.5
v 0.21031337976455688 -0.13516020774841309 -1.5
v 0.2398732453584671 -0.07043313980102539 -1.5
v 0.25 0.0 -1.5
v 0.2398732453584671 0.07043313980102539 -1.5
v 0.21031337976455688 0.13516020774841309 -1.5
v 0.1637151837348938 0.18893739581108093 -1.5
v 0.1038537546992302 0.22740799188613892 -1.5
v 0.035578709095716476 0.24745535850524902 -1.5
v -0.035578709095716476 0.24745535850524902 -1.5
v -0.1038537546992302 0.22740799188613892 -1.5
v -0.1637151837348938 0.18893739581108093 -1.5
v -0.21031337976455688 0.13516020774841309 -1.5
v -0.2398732453584671 0.07043313980102539 -1.5
v -0.25 -3.0616171314629196e-17 1.5
v -0.2398732453584671 0.07043313980102539 1.5
v -0.21031337976455688 0.13516020774841309 1.5
v -0.1637151837348938 0.18893739581108093 1.5
v -0.1038537546992302 0.22740799188613892 1.5
v -0.035578709095716476 0.24745535850524902 1.5
v 0.035578709095716476 0.24745535850524902 1.5
v 0.1038537546992302 0.22740799188613892 1.5
v 0.1637151837348938 0.18893739581108093 1.5
v 0.21031337976455688 0.13516020774841309 1.5
v 0.2398732453584671 0.07043313980102539 1.5
v 0.25 0.0 1.5
v 0.2398732453584671 -0.07043313980102539 1.5
v 0.21031337976455688 -0.13516020774841309 1.5
v 0.1637151837348938 -0.18893739581108093 1.5
v 0.1038537546992302 -0.22740799188613892 1.5
v 0.035578709095716476 -0.24745535850524902 1.5
v -0.035578709095716476 -0.24745535850524902 1.5
v -0.1038537546992302 -0.22740799188613892 1.5
v -0.1637151837348938 -0.18893739581108093 1.5
v -0.21031337976455688 -0.13516020774841309 1.5
v -0.2398732453584671 -0.07043313980102539 1.5
v -0.25 -3.0616171314629196e-17 -1.5
v -0.25 -3.0616171314629196e-17 1.5
v 0.3929058313369751 -0.07500000298023224 3.700000047683716
v -0.3929058313369751 -0.07500000298023224 3.700000047683716
v -0.36822792887687683 -0.15623122453689575 3.700000047683716
v -0.3269624710083008 -0.23042471706867218 3.700000047683716
v -0.27096834778785706 -0.29423826932907104 3.700000047683716
v -0.20276792347431183 -0.344797283411026 3.700000047683716
v -0.12543341517448425 -0.3798242509365082 3.700000047683716
v -0.042448531836271286 -0.39774128794670105 3.700000047683716
v 0.042448531836271286 -0.39774128794670105 3.700000047683716
v 0.12543341517448425 -0.3798242509365082 3.700000047683716
v 0.20276792347431183 -0.344797283411026 3.700000047683716
v 0.27096834778785706 -0.29423826932907104 3.700000047683716
v 0.3269624710083008 -0.23042471706867218 3.700000047683716
v 0.36822792887687683 -0.15623122453689575 3.700000047683716
v -0.3929058313369751 0.07500000298023224 3.700000047683716
v -0.3929058313369751 0.07500000298023224 3.299999952316284
v 0.3929058313369751 0.07500000298023224 3.299999952316284
v 0.3929058313369751 0.07500000298023224 3.700000047683716
v -0.4000000059604645 -4.8985870794684264e-17 1.5
v -0.38997116684913635 0.0890083760023117 1.5
v -0.36038753390312195 0.1735534965991974 1.5
v -0.31273260712623596 0.2493959218263626 1.5
v -0.2493959218263626 0.31273260712623596 1.5
v -0.1735534965991974 0.36038753390312195 1.5
v -0.0890083760023117 0.38997116684913635 1.5
v 2.4492935397342132e-17 0.4000000059604645 1.5
v 0.0890083760023117 0.38997116684913635 1.5
v 0.1735534965991974 0.36038753390312195 1.5
v 0.2493959218263626 0.31273260712623596 1.5
v 0.31273260712623596 0.2493959218263626 1.5
v 0.36038753390312195 0.1735534965991974 1.5
v 0.38997116684913635 0.0890083760023117 1.5
v 0.4000000059604645 0.0 1.5
v 0.38997116684913635 -0.0890083760023117 1.5
v 0.36038753390312195 -0.1735534965991974 1.5
v 0.31273260712623596 -0.2493959218263626 1.5
v 0.2493959218263626 -0.31273260712623596 1.5
v 0.1735534965991974 -0.36038753390312195 1.5
v 0.0890083760023117 -0.38997116684913635 1.5
v 2.4492935397342132e-17 -0.4000000059604645 1.5
v -0.0890083760023117 -0.38997116684913635 1.5
v -0.1735534965991974 -0.36038753390312195 1.5
v -0.2493959218263626 -0.31273260712623596 1.5
v -0.31273260712623596 -0.2493959218263626 1.5
v -0.36038753390312195 -0.1735534965991974 1.5
v -0.38997116684913635 -0.0890083760023117 1.5
v -0.25 -3.0616171314629196e-17 1.5
v -0.2398732453584671 -0.07043313980102539 1.5
v -0.21031337976455688 -0.13516020774841309 1.5
v -0.1637151837348938 -0.18893739581108093 1.5
v -0.1038537546992302 -0.22740799188613892 1.5
v -0.035578709095716476 -0.24745535850524902 1.5
v 0.035578709095716476 -0.24745535850524902 1.5
v 0.1038537546992302 -0.22740799188613892 1.5
v 0.1637151837348938 -0.18893739581108093 1.5
v 0.21031337976455688 -0.13516020774841309 1.5
v 0.2398732453584671 -0.07043313980102539 1.5
v 0.25 0.0 1.5
v 0.2398732453584671 0.07043313980102539 1.5
v 0.21031337976455688 0.13516020774841309 1.5
v 0.1637151837348938 0.18893739581108093 1.5
v 0.1038537546992302 0.22740799188613892 1.5
v 0.035578709095716476 0.24745535850524902 1.5
v -0.035578709095716476 0.24745535850524902 1.5
v -0.1038537546992302 0.22740799188613892 1.5
v -0.1637151837348938 0.18893739581108093 1.5
v -0.21031337976455688 0.13516020774841309 1.5
v -0.2398732453584671 0.07043313980102539 1.5
v -0.4000000059604645 -4.8985870794684264e-17 1.5
v -0.38997116684913635 -0.0890083760023117 1.5
v -0.36038753390312195 -0.1735534965991974 1.5
v -0.31273260712623596 -0.2493959218263626 1.5
v -0.2493959218263626 -0.31273260712623596 1.5
v -0.1735534965991974 -0.36038753390312195 1.5
v -0.0890083760023117 -0.38997116684913635 1.5
v 2.4492935397342132e-17 -0.4000000059604645 1.5
v 0.0890083760023117 -0.38997116684913635 1.5
v 0.1735534965991974 -0.36038753390312195 1.5
v 0.2493959218263626 -0.31273260712623596 1.5
v 0.31273260712623596 -0.2493959218263626 1.5
v 0.36038753390312195 -0.1735534965991974 1.5
v 0.38997116684913635 -0.0890083760023117 1.5
v 0.4000000059604645 0.0 1.5
v 0.38997116684913635 0.0890083760023117 1.5
v 0.36038753390312195 0.1735534965991974 1.5
v 0.31273260712623596 0.2493959218263626 1.5
v 0.2493959218263626 0.31273260712623596 1.5
v 0.1735534965991974 0.36038753390312195 1.5
v 0.0890083760023117 0.38997116684913635 1.5
v 2.4492935397342132e-17 0.4000000059604645 1.5
v -0.0890083760023117 0.38997116684913635 1.5
v -0.1735534965991974 0.36038753390312195 1.5
v -0.2493959218263626 0.31273260712623596 1.5
v -0.31273260712623596 0.2493959218263626 1.5
v -0.36038753390312195 0.1735534965991974 1.5
v -0.38997116684913635 0.0890083760023117 1.5
v -0.3929058313369751 -0.07500000298023224 3.700000047683716
v -0.3929058313369751 -0.07500000298023224 3.299999952316284
v -0.3992096781730652 -0.025132285431027412 3.299999952316284
v -0.3992096781730652 0.025132285431027412 3.299999952316284
v -0.3929058313369751 0.07500000298023224 3.299999952316284
v -0.3929058313369751 0.07500000298023224 3.700000047683716
v -0.36822792887687683 0.15623122453689575 3.700000047683716
v -0.3269624710083008 0.23042471706867218 3.700000047683716
v -0.27096834778785706 0.29423826932907104 3.700000047683716
v -0.20276792347431183 0.344797283411026 3.700000047683716
v -0.12543341517448425 0.3798242509365082 3.700000047683716
v -0.042448531836271286 0.39774128794670105 3.700000047683716
v 0.042448531836271286 0.39774128794670105 3.700000047683716
v 0.12543341517448425 0.3798242509365082 3.700000047683716
v 0.20276792347431183 0.344797283411026 3.700000047683716
v 0.27096834778785706 0.29423826932907104 3.700000047683716
v 0.3269624710083008 0.23042471706867218 3.700000047683716
v 0.36822792887687683 0.15623122453689575 3.700000047683716
v 0.3929058313369751 0.07500000298023224 3.700000047683716
v 0.3929058313369751 0.07500000298023224 3.299999952316284
v 0.3992096781730652 0.025132285431027412 3.299999952316284
v 0.3992096781730652 -0.025132285431027412 3.299999952316284
v 0.3929058313369751 -0.07500000298023224 3.299999952316284
v 0.3929058313369751 -0.07500000298023224 3.700000047683716
v 0.36822792887687683 -0.15623122453689575 3.700000047683716
v 0.3269624710083008 -0.23042471706867218 3.700000047683716
v 0.27096834778785706 -0.29423826932907104 3.700000047683716
v 0.20276792347431183 -0.344797283411026 3.700000047683716
v 0.12543341517448425 -0.3798242509365082 3.700000047683716
v 0.042448531836271286 -0.39774128794670105 3.700000047683716
v -0.042448531836271286 -0.39774128794670105 3.700000047683716
v -0.12543341517448425 -0.3798242509365082 3.700000047683716
v -0.20276792347431183 -0.344797283411026 3.700000047683716
v -0.27096834778785706 -0.29423826932907104 3.700000047683716
v -0.3269624710083008 -0.23042471706867218 3.700000047683716
v -0.36822792887687683 -0.15623122453689575 3.700000047683716
v -0.3992096781730652 -0.025132285431027412 3.299999952316284
v -0.4000000059604645 -4.8985870794684264e-17 1.5
v -0.3929058313369751 0.07500000298023224 3.700000047683716
v 0.3929058313369751 0.07500000298023224 3.700000047683716
v 0.36822792887687683 0.15623122453689575 3.700000047683716
v 0.3269624710083008 0.23042471706867218 3.700000047683716
v 0.27096834778785706 0.29423826932907104 3.700000047683716
v 0.20276792347431183 0.344797283411026 3.700000047683716
v 0.12543341517448425 0.3798242509365082 3.700000047683716
v 0.042448531836271286 0.39774128794670105 3.700000047683716
v -0.042448531836271286 0.39774128794670105 3.700000047683716
v -0.12543341517448425 0.3798242509365082 3.700000047683716
v -0.20276792347431183 0.344797283411026 3.700000047683716
v -0.27096834778785706 0.29423826932907104 3.700000047683716
v -0.3269624710083008 0.23042471706867218 3.700000047683716
v -0.36822792887687683 0.15623122453689575 3.700000047683716
vn -0.0 1.0 2.3534312476731978e-17
vn -0.0 1.0 2.3534312476731978e-17
vn -0.0 1.0 2.3534312476731978e-17
vn -0.0 1.0 2.3534312476731978e-17
vn -0.0 -0.0 1.0
vn -0.0 -0.0 1.0
vn -0.0 -0.0 1.0
vn -0.0 -0.0 1.0
vn -0.0 -0.0 1.0
vn -0.0 -0.0 1.0
vn -0.0 -0.0 1.0
vn -0.0 -0.0 1.0
vn -0.0 -0.0 -1.0
vn -0.0 -0.0 -1.0
vn -0.0 -0.0 -1.0
vn -0.0 -0.0 -1.0
vn -0.0 -0.0 -1.0
vn -0.0 -0.0 -1.0
vn -0.0 -0.0 -1.0
vn -0.0 -0.0 -1.0
vn -0.0 -0.0 -1.0
vn -0.0 -0.0 -1.0
vn -0.0 -0.0 -1.0
vn -0.0 -0.0 -1.0
vn -0.0 -0.0 -1.0
vn -0.0 -0.0 -1.0
vn -0.0 -0.0 -1.0
vn -0.0 -0.0 -1.0
vn -0.0 -0.0 -1.0
vn -0.0 -0.0 -1.0
vn -0.0 -0.0 -1.0
vn -0.0 -0.0 -1.0
vn -0.0 -0.0 -1.0
vn -0.0 -0.0 -1.0
vn -1.0 -1.2246468525851679e-16 0.0
vn -0.9594929814338684 -0.28173255920410156 0.0
vn -0.8412535190582275 -0.5406408309936523 0.0
vn -0.6548607349395752 -0.7557495832443237 0.0
vn -0.4154150187969208 -0.9096319675445557 0.0
vn -0.1423148363828659 -0.9898214340209961 0.0
vn 0.1423148363828659 -0.9898214340209961 -0.0
vn 0.4154150187969208 -0.9096319675445557 -0.0
vn 0.6548607349395752 -0.7557495832443237 -0.0
vn 0.8412535190582275 -0.5406408309936523 -0.0
vn 0.9594929814338684 -0.28173255920410156 -0.0
vn 1.0 -0.0 -0.0
vn 0.9594929814338684 0.28173255920410156 -0.0
vn 0.8412535190582275 0.5406408309936523 -0.0
vn 0.6548607349395752 0.7557495832443237 -0.0
vn 0.4154150187969208 0.9096319675445557 -0.0
vn 0.1423148363828659 0.9898214340209961 -0.0
vn -0.1423148363828659 0.9898214340209961 -0.0
vn -0.4154150187969208 0.9096319675445557 -0.0
vn -0.6548607349395752 0.7557495832443237 -0.0
vn -0.8412535190582275 0.5406408309936523 -0.0
vn -0.9594929814338684 0.28173255920410156 -0.0
vn -1.0 1.2246468525851679e-16 -0.0
vn -0.9594929814338684 0.28173255920410156 -0.0
vn -0.8412535190582275 0.5406408309936523 -0.0
vn -0.6548607349395752 0.7557495832443237 -0.0
vn -0.4154150187969208 0.9096319675445557 -0.0
vn -0.1423148363828659 0.9898214340209961 -0.0
vn 0.1423148363828659 0.9898214340209961 -0.0
vn 0.4154150187969208 0.9096319675445557 -0.0
vn 0.6548607349395752 0.7557495832443237 -0.0
vn 0.8412535190582275 0.5406408309936523 -0.0
vn 0.9594929814338684 0.28173255920410156 -0.0
vn 1.0 -0.0 -0.0
vn 0.9594929814338684 -0.28173255920410156 -0.0
vn 0.8412535190582275 -0.5406408309936523 -0.0
vn 0.6548607349395752 -0.7557495832443237 -0.0
vn 0.4154150187969208 -0.9096319675445557 -0.0
vn 0.1423148363828659 -0.9898214340209961 -0.0
vn -0.1423148363828659 -0.9898214340209961 0.0
vn -0.4154150187969208 -0.9096319675445557 0.0
vn -0.6548607349395752 -0.7557495832443237 0.0
vn -0.8412535190582275 -0.5406408309936523 0.0
vn -0.9594929814338684 -0.28173255920410156 0.0
vn -1.0 1.2246468525851679e-16 -0.0
vn -1.0 -1.2246468525851679e-16 0.0
vn 0.0 0.0 1.0
vn 0.0 0.0 1.0
vn 0.0 0.0 1.0
vn 0.0 0.0 1.0
vn 0.0 0.0 1.0
vn 0.0 0.0 1.0
vn 0.0 0.0 1.0
vn 0.0 0.0 1.0
vn 0.0 0.0 1.0
vn 0.0 0.0 1.0
vn 0.0 0.0 1.0
vn 0.0 0.0 1.0
vn 0.0 0.0 1.0
vn 0.0 0.0 1.0
vn -0.0 -1.0 5.883578201901056e-17
vn -0.0 -1.0 5.883578201901056e-17
vn -0.0 -1.0 5.883578201901056e-17
vn -0.0 -1.0 5.883578201901056e-17
vn -0.0 -0.0 -1.0
vn -0.0 -0.0 -1.0
vn -0.0 -0.0 -1.0
vn -0.0 -0.0 -1.0
vn -0.0 -0.0 -1.0
vn -0.0 -0.0 -1.0
vn -0.0 -0.0 -1.0
vn -0.0 -0.0 -1.0
vn -0.0 -0.0 -1.0
vn -0.0 -0.0 -1.0
vn -0.0 -0.0 -1.0
vn -0.0 -0.0 -1.0
vn -0.0 -0.0 -1.0
vn -0.0 -0.0 -1.0
vn -0.0 -0.0 -1.0
vn -0.0 -0.0 -1.0
vn -0.0 -0.0 -1.0
vn -0.0 -0.0 -1.0
vn -0.0 -0.0 -1.0
vn -0.0 -0.0 -1.0
vn -0.0 -0.0 -1.0
vn -0.0 -0.0 -1.0
vn -0.0 -0.0 -1.0
vn -0.0 -0.0 -1.0
vn -0.0 -0.0 -1.0
vn -0.0 -0.0 -1.0
vn -0.0 -0.0 -1.0
vn -0.0 -0.0 -1.0
vn -0.0 -0.0 -1.0
vn -0.0 -0.0 -1.0
vn -0.0 -0.0 -1.0
vn -0.0 -0.0 -1.0
vn -0.0 -0.0 -1.0
vn -0.0 -0.0 -1.0
vn -0.0 -0.0 -1.0
vn -0.0 -0.0 -1.0
vn -0.0 -0.0 -1.0
vn -0.0 -0.0 -1.0
vn -0.0 -0.0 -1.0
vn -0.0 -0.0 -1.0
vn -0.0 -0.0 -1.0
vn -0.0 -0.0 -1.0
vn -0.0 -0.0 -1.0
vn -0.0 -0.0 -1.0
vn -0.0 -0.0 -1.0
vn -0.0 -0.0 -1.0
vn -0.0 -0.0 -1.0
vn -0.0 -0.0 -1.0
vn -0.0 -0.0 -1.0
vn -0.0 -0.0 -1.0
vn -1.0 -1.2246468525851679e-16 0.0
vn -0.9749279022216797 -0.22252093255519867 0.0
vn -0.9009688496589661 -0.4338837265968323 0.0
vn -0.7818315029144287 -0.6234897971153259 0.0
vn -0.6234897971153259 -0.7818315029144287 0.0
vn -0.4338837265968323 -0.9009688496589661 0.0
vn -0.22252093255519867 -0.9749279022216797 0.0
vn 6.123234262925839e-17 -1.0 -0.0
vn 0.22252093255519867 -0.9749279022216797 -0.0
vn 0.4338837265968323 -0.9009688496589661 -0.0
vn 0.6234897971153259 -0.7818315029144287 -0.0
vn 0.7818315029144287 -0.6234897971153259 -0.0
vn 0.9009688496589661 -0.4338837265968323 -0.0
vn 0.9749279022216797 -0.22252093255519867 -0.0
vn 1.0 -0.0 -0.0
vn 0.9749279022216797 0.22252093255519867 -0.0
vn 0.9009688496589661 0.4338837265968323 -0.0
vn 0.7818315029144287 0.6234897971153259 -0.0
vn 0.6234897971153259 0.7818315029144287 -0.0
vn 0.4338837265968323 0.9009688496589661 -0.0
vn 0.22252093255519867 0.9749279022216797 -0.0
vn 6.123234262925839e-17 1.0 -0.0
vn -0.22252093255519867 0.9749279022216797 -0.0
vn -0.4338837265968323 0.9009688496589661 -0.0
vn -0.6234897971153259 0.7818315029144287 -0.0
vn -0.7818315029144287 0.6234897971153259 -0.0
vn -0.9009688496589661 0.4338837265968323 -0.0
vn -0.9749279022216797 0.22252093255519867 -0.0
vn -0.9822645783424377 -0.1875 0.0
vn -0.9822645783424377 -0.1875 0.0
vn -0.9980242252349854 -0.06283071637153625 0.0
vn -0.9980242252349854 0.06283071637153625 -0.0
vn -0.9822645783424377 0.1875 -0.0
vn -0.9822645783424377 0.1875 -0.0
vn -0.9205698370933533 0.3905780613422394 -0.0
vn -0.817406177520752 0.5760617852210999 -0.0
vn -0.6774208545684814 0.735595703125 -0.0
vn -0.506919801235199 0.8619932532310486 -0.0
vn -0.3135835528373718 0.9495605826377869 -0.0
vn -0.10612133145332336 0.994353175163269 -0.0
vn 0.10612133145332336 0.994353175163269 -0.0
vn 0.3135835528373718 0.9495605826377869 -0.0
vn 0.506919801235199 0.8619932532310486 -0.0
vn 0.6774208545684814 0.735595703125 -0.0
vn 0.817406177520752 0.5760617852210999 -0.0
vn 0.9205698370933533 0.3905780613422394 -0.0
vn 0.9822645783424377 0.1875 -0.0
vn 0.9822645783424377 0.1875 -0.0
vn 0.9980242252349854 0.06283071637153625 -0.0
vn 0.9980242252349854 -0.06283071637153625 -0.0
vn 0.9822645783424377 -0.1875 -0.0
vn 0.9822645783424377 -0.1875 -0.0
vn 0.9205698370933533 -0.3905780613422394 -0.0
vn 0.817406177520752 -0.5760617852210999 -0.0
vn 0.6774208545684814 -0.735595703125 -0.0
vn 0.506919801235199 -0.8619932532310486 -0.0
vn 0.3135835528373718 -0.9495605826377869 -0.0
vn 0.10612133145332336 -0.994353175163269 -0.0
vn -0.10612133145332336 -0.994353175163269 0.0
vn -0.3135835528373718 -0.9495605826377869 0.0
vn -0.506919801235199 -0.8619932532310486 0.0
vn -0.6774208545684814 -0.735595703125 0.0
vn -0.817406177520752 -0.5760617852210999 0.0
vn -0.9205698370933533 -0.3905780613422394 0.0
vn -0.9980242252349854 -0.06283071637153625 0.0
vn -1.0 1.2246468525851679e-16 -0.0
vn 0.0 0.0 1.0
vn 0.0 0.0 1.0
vn 0.0 0.0 1.0
vn 0.0 0.0 1.0
vn 0.0 0.0 1.0
vn 0.0 0.0 1.0
vn 0.0 0.0 1.0
vn 0.0 0.0 1.0
vn 0.0 0.0 1.0
vn 0.0 0.0 1.0
vn 0.0 0.0 1.0
vn 0.0 0.0 1.0
vn 0.0 0.0 1.0
vn 0.0 0.0 1.0
f 1//1 2//2 4//4
f 4//4 2//2 3//3
f 12//12 5//5 11//11
f 11//11 5//5 6//6
f 11//11 6//6 7//7
f 11//11 7//7 10//10
f 10//10 7//7 8//8
f 10//10 8//8 9//9
f 14//14 23//23 13//13
f 13//13 23//23 24//24
f 13//13 24//24 34//34
f 34//34 24//24 25//25
f 34//34 25//25 33//33
f 33//33 25//25 26//26
f 33//33 26//26 32//32
f 32//32 26//26 27//27
f 32//32 27//27 31//31
f 31//31 27//27 28//28
f 31//31 28//28 30//30
f 30//30 28//28 29//29
f 23//23 14//14 22//22
f 22//22 14//14 15//15
f 22//22 15//15 21//21
f 21//21 15//15 16//16
f 21//21 16//16 20//20
f 20//20 16//16 17//17
f 20//20 17//17 19//19
f 19//19 17//17 18//18
f 36//36 78//78 35//35
f 35//35 78//78 80//80
f 79//79 57//57 56//56
f 56//56 57//57 58//58
f 56//56 58//58 55//55
f 55//55 58//58 59//59
f 55//55 59//59 54//54
f 54//54 59//59 60//60
f 54//54 60//60 53//53
f 53//53 60//60 61//61
f 53//53 61//61 52//52
f 52//52 61//61 62//62
f 52//52 62//62 51//51
f 51//51 62//62 63//63
f 51//51 63//63 50//50
f 50//50 63//63 64//64
f 50//50 64//64 49//49
f 49//49 64//64 65//65
f 49//49 65//65 48//48
f 48//48 65//65 66//66
f 48//48 66//66 47//47
f 47//47 66//66 67//67
f 47//47 67//67 46//46
f 46//46 67//67 68//68
f 46//46 68//68 45//45
f 45//45 68//68 69//69
f 45//45 69//69 44//44
f 44//44 69//69 70//70
f 44//44 70//70 43//43
f 43//43 70//70 71//71
f 43//43 71//71 42//42
f 42//42 71//71 72//72
f 42//42 72//72 41//41
f 41//41 72//72 73//73
f 41//41 73//73 40//40
f 40//40 73//73 74//74
f 40//40 74//74 39//39
f 39//39 74//74 75//75
f 39//39 75//75 38//38
f 38//38 75//75 76//76
f 38//38 76//76 37//37
f 37//37 76//76 77//77
f 37//37 77//77 36//36
f 36//36 77//77 78//78
f 81//81 82//82 94//94
f 94//94 82//82 83//83
f 94//94 83//83 93//93
f 93//93 83//83 84//84
f 93//93 84//84 92//92
f 92//92 84//84 85//85
f 92//92 85//85 91//91
f 91//91 85//85 86//86
f 91//91 86//86 90//90
f 90//90 86//86 87//87
f 90//90 87//87 89//89
f 89//89 87//87 88//88
f 95//95 96//96 98//98
f 98//98 96//96 97//97
f 126//126 99//99 127//127
f 127//127 99//99 100//100
f 127//127 100//100 148//148
f 148//148 100//100 101//101
f 148//148 101//101 147//147
f 147//147 101//101 102//102
f 147//147 102//102 146//146
f 146//146 102//102 103//103
f 146//146 103//103 145//145
f 145//145 103//103 104//104
f 145//145 104//104 105//105
f 145//145 105//105 144//144
f 144//144 105//105 106//106
f 144//144 106//106 143//143
f 143//143 106//106 107//107
f 143//143 107//107 142//142
f 142//142 107//107 108//108
f 142//142 108//108 109//109
f 142//142 109//109 141//141
f 141//141 109//109 110//110
f 141//141 110//110 140//140
f 140//140 110//110 111//111
f 140//140 111//111 139//139
f 139//139 111//111 112//112
f 139//139 112//112 138//138
f 138//138 112//112 113//113
f 138//138 113//113 114//114
f 138//138 114//114 137//137
f 137//137 114//114 115//115
f 137//137 115//115 136//136
f 136//136 115//115 116//116
f 136//136 116//116 135//135
f 135//135 116//116 117//117
f 135//135 117//117 134//134
f 134//134 117//117 118//118
f 134//134 118//118 119//119
f 134//134 119//119 133//133
f 133//133 119//119 120//120
f 133//133 120//120 132//132
f 132//132 120//120 121//121
f 132//132 121//121 131//131
f 131//131 121//121 122//122
f 131//131 122//122 123//123
f 131//131 123//123 130//130
f 130//130 123//123 124//124
f 130//130 124//124 129//129
f 129//129 124//124 125//125
f 129//129 125//125 128//128
f 128//128 125//125 126//126
f 128//128 126//126 127//127
f 150//150 213//213 149//149
f 214//214 179//179 180//180
f 214//214 180//180 176//176
f 176//176 180//180 181//181
f 176//176 181//181 182//182
f 151//151 212//212 150//150
f 150//150 212//212 177//177
f 150//150 177//177 178//178
f 212//212 151//151 211//211
f 211//211 151//151 152//152
f 211//211 152//152 210//210
f 210//210 152//152 153//153
f 210//210 153//153 209//209
f 209//209 153//153 154//154
f 209//209 154//154 208//208
f 208//208 154//154 155//155
f 208//208 155//155 207//207
f 207//207 155//155 156//156
f 207//207 156//156 206//206
f 206//206 156//156 157//157
f 206//206 157//157 205//205
f 205//205 157//157 158//158
f 205//205 158//158 204//204
f 204//204 158//158 159//159
f 204//204 159//159 203//203
f 203//203 159//159 160//160
f 203//203 160//160 202//202
f 202//202 160//160 161//161
f 202//202 161//161 201//201
f 201//201 161//161 162//162
f 201//201 162//162 200//200
f 200//200 162//162 199//199
f 199//199 162//162 198//198
f 198//198 162//162 163//163
f 198//198 163//163 197//197
f 197//197 163//163 164//164
f 197//197 164//164 196//196
f 196//196 164//164 195//195
f 195//195 164//164 194//194
f 194//194 164//164 165//165
f 194//194 165//165 193//193
f 193//193 165//165 166//166
f 193//193 166//166 192//192
f 192//192 166//166 167//167
f 192//192 167//167 191//191
f 191//191 167//167 168//168
f 191//191 168//168 190//190
f 190//190 168//168 169//169
f 190//190 169//169 189//189
f 189//189 169//169 170//170
f 189//189 170//170 188//188
f 188//188 170//170 171//171
f 188//188 171//171 187//187
f 187//187 171//171 172//172
f 187//187 172//172 186//186
f 186//186 172//172 173//173
f 186//186 173//173 185//185
f 185//185 173//173 174//174
f 185//185 174//174 184//184
f 184//184 174//174 175//175
f 184//184 175//175 183//183
f 183//183 175//175 176//176
f 183//183 176//176 182//182
f 178//178 213//213 150//150
f 215//215 216//216 228//228
f 228//228 216//216 217//217
f 228//228 217//217 227//227
f 227//227 217//217 218//218
f 227//227 218//218 226//226
f 226//226 218//218 219//219
f 226//226 219//219 225//225
f 225//225 219//219 220//220
f 225//225 220//220 224//224
f 224//224 220//220 221//221
f 224//224 221//221 223//223
f 223//223 221//221 222//222

# End of file