# WaveFront *.obj file
# Vertices: 120
# Triangles : 76

v 0.0 2.5 8.0
v 0.0 4.5 8.0
v -16.0 4.5 8.0
v -16.0 2.5 8.0
v 0.0 2.5 6.0
v 0.0 2.5 8.0
v -16.0 2.5 8.0
v -16.0 2.5 6.0
v 0.0 4.5 6.0
v 0.0 2.5 6.0
v -16.0 2.5 6.0
v -16.0 4.5 6.0
v 0.0 4.5 8.0
v 0.0 4.5 6.0
v -16.0 4.5 6.0
v -16.0 4.5 8.0
v -16.0 4.5 8.0
v -16.0 4.5 6.0
v -16.0 2.5 6.0
v -16.0 2.5 8.0
v 0.0 -4.5 8.0
v 0.0 -2.5 8.0
v -16.0 -2.5 8.0
v -16.0 -4.5 8.0
v 0.0 -4.5 6.0
v 0.0 -4.5 8.0
v -16.0 -4.5 8.0
v -16.0 -4.5 6.0
v 0.0 -2.5 6.0
v 0.0 -4.5 6.0
v -16.0 -4.5 6.0
v -16.0 -2.5 6.0
v 0.0 -2.5 8.0
v 0.0 -2.5 6.0
v -16.0 -2.5 6.0
v -16.0 -2.5 8.0
v -16.0 -2.5 8.0
v -16.0 -2.5 6.0
v -16.0 -4.5 6.0
v -16.0 -4.5 8.0
v 0.0 -4.631434440612793 -6.194660663604736
v 0.0 -2.631434440612793 -6.194660663604736
v -16.0 -2.631434440612793 -6.194660663604736
v -16.0 -4.631434440612793 -6.194660663604736
v 0.0 -4.631434440612793 -8.194660186767578
v 0.0 -4.631434440612793 -6.194660663604736
v -16.0 -4.631434440612793 -6.194660663604736
v -16.0 -4.631434440612793 -8.194660186767578
v 0.0 -2.631434440612793 -8.194660186767578
v 0.0 -4.631434440612793 -8.194660186767578
v -16.0 -4.631434440612793 -8.194660186767578
v -16.0 -2.631434440612793 -8.194660186767578
v 0.0 -2.631434440612793 -6.194660663604736
v 0.0 -2.631434440612793 -8.194660186767578
v -16.0 -2.631434440612793 -8.194660186767578
v -16.0 -2.631434440612793 -6.194660663604736
v -16.0 -2.631434440612793 -6.194660663604736
v -16.0 -2.631434440612793 -8.194660186767578
v -16.0 -4.631434440612793 -8.194660186767578
v -16.0 -4.631434440612793 -6.194660663604736
v 0.0 2.5 -6.0
v 0.0 4.5 -6.0
v -16.0 4.5 -6.0
v -16.0 2.5 -6.0
v 0.0 2.5 -8.0
v 0.0 2.5 -6.0
v -16.0 2.5 -6.0
v -16.0 2.5 -8.0
v 0.0 4.5 -8.0
v 0.0 2.5 -8.0
v -16.0 2.5 -8.0
v -16.0 4.5 -8.0
v 0.0 4.5 -6.0
v 0.0 4.5 -8.0
v -16.0 4.5 -8.0
v -16.0 4.5 -6.0
v -16.0 4.5 -6.0
v -16.0 4.5 -8.0
v -16.0 2.5 -8.0
v -16.0 2.5 -6.0
v 0.0 -5.131434440612793 9.079339027404785
v 0.0 -5.131434440612793 -9.079339027404785
v 3.0 -5.131434440612793 -9.079339027404785
v 3.0 -5.131434440612793 9.079339027404785
v 0.0 5.131434440612793 9.079339027404785
v 0.0 -5.131434440612793 9.079339027404785
v 3.0 -5.131434440612793 9.079339027404785
v 3.0 5.131434440612793 9.079339027404785
v 0.0 5.131434440612793 -9.079339027404785
v 0.0 5.131434440612793 9.079339027404785
v 3.0 5.131434440612793 9.079339027404785
v 3.0 5.131434440612793 -9.079339027404785
v 0.0 -5.131434440612793 -9.079339027404785
v 0.0 5.131434440612793 -9.079339027404785
v 3.0 5.131434440612793 -9.079339027404785
v 3.0 -5.131434440612793 -9.079339027404785
v 3.0 -5.131434440612793 -9.079339027404785
v 3.0 5.131434440612793 -9.079339027404785
v 3.0 5.131434440612793 9.079339027404785
v 3.0 -5.131434440612793 9.079339027404785
v 0.0 4.5 8.0
v 0.0 2.5 8.0
v 0.0 2.5 6.0
v 0.0 4.5 6.0
v 0.0 -2.5 8.0
v 0.0 -4.5 8.0
v 0.0 -4.5 6.0
v 0.0 -2.5 6.0
v 0.0 -2.631434440612793 -6.194660663604736
v 0.0 -4.631434440612793 -6.194660663604736
v 0.0 -4.631434440612793 -8.194660186767578
v 0.0 -2.631434440612793 -8.194660186767578
v 0.0 4.5 -6.0
v 0.0 2.5 -6.0
v 0.0 2.5 -8.0
v 0.0 4.5 -8.0
v 0.0 5.131434440612793 -9.079339027404785
v 0.0 -5.131434440612793 -9.079339027404785
v 0.0 -5.131434440612793 9.079339027404785
v 0.0 5.131434440612793 9.079339027404785
vn 0.0 -0.0 1.0
vn 0.0 -0.0 1.0
vn 0.0 -0.0 1.0
vn 0.0 -0.0 1.0
vn 0.0 -1.0 0.0
vn 0.0 -1.0 0.0
vn 0.0 -1.0 0.0
vn 0.0 -1.0 0.0
vn -0.0 -0.0 -1.0
vn -0.0 -0.0 -1.0
vn -0.0 -0.0 -1.0
vn -0.0 -0.0 -1.0
vn 0.0 1.0 -8.881784197001252e-16
vn 0.0 1.0 -8.881784197001252e-16
vn 0.0 1.0 -8.881784197001252e-16
vn 0.0 1.0 -8.881784197001252e-16
vn -1.0 0.0 0.0
vn -1.0 0.0 0.0
vn -1.0 0.0 0.0
vn -1.0 0.0 0.0
vn 0.0 -0.0 1.0
vn 0.0 -0.0 1.0
vn 0.0 -0.0 1.0
vn 0.0 -0.0 1.0
vn 0.0 -1.0 0.0
vn 0.0 -1.0 0.0
vn 0.0 -1.0 0.0
vn 0.0 -1.0 0.0
vn -0.0 -0.0 -1.0
vn -0.0 -0.0 -1.0
vn -0.0 -0.0 -1.0
vn -0.0 -0.0 -1.0
vn 0.0 1.0 0.0
vn 0.0 1.0 0.0
vn 0.0 1.0 0.0
vn 0.0 1.0 0.0
vn -1.0 0.0 0.0
vn -1.0 0.0 0.0
vn -1.0 0.0 0.0
vn -1.0 0.0 0.0
vn 0.0 4.440892098500626e-16 1.0
vn 0.0 4.440892098500626e-16 1.0
vn 0.0 4.440892098500626e-16 1.0
vn 0.0 4.440892098500626e-16 1.0
vn 0.0 -1.0 8.881784197001252e-16
vn 0.0 -1.0 8.881784197001252e-16
vn 0.0 -1.0 8.881784197001252e-16
vn 0.0 -1.0 8.881784197001252e-16
vn 0.0 8.881784197001252e-16 -1.0
vn 0.0 8.881784197001252e-16 -1.0
vn 0.0 8.881784197001252e-16 -1.0
vn 0.0 8.881784197001252e-16 -1.0
vn 0.0 1.0 4.440892098500626e-16
vn 0.0 1.0 4.440892098500626e-16
vn 0.0 1.0 4.440892098500626e-16
vn 0.0 1.0 4.440892098500626e-16
vn -1.0 0.0 0.0
vn -1.0 0.0 0.0
vn -1.0 0.0 0.0
vn -1.0 0.0 0.0
vn 0.0 -0.0 1.0
vn 0.0 -0.0 1.0
vn 0.0 -0.0 1.0
vn 0.0 -0.0 1.0
vn 0.0 -1.0 0.0
vn 0.0 -1.0 0.0
vn 0.0 -1.0 0.0
vn 0.0 -1.0 0.0
vn -0.0 -0.0 -1.0
vn -0.0 -0.0 -1.0
vn -0.0 -0.0 -1.0
vn -0.0 -0.0 -1.0
vn 0.0 1.0 0.0
vn 0.0 1.0 0.0
vn 0.0 1.0 0.0
vn 0.0 1.0 0.0
vn -1.0 0.0 0.0
vn -1.0 0.0 0.0
vn -1.0 0.0 0.0
vn -1.0 0.0 0.0
vn 0.0 -1.0 9.782412624597476e-17
vn 0.0 -1.0 9.782412624597476e-17
vn 0.0 -1.0 9.782412624597476e-17
vn 0.0 -1.0 9.782412624597476e-17
vn -0.0 3.4617159234253466e-16 1.0
vn -0.0 3.4617159234253466e-16 1.0
vn -0.0 3.4617159234253466e-16 1.0
vn -0.0 3.4617159234253466e-16 1.0
vn -0.0 1.0 0.0
vn -0.0 1.0 0.0
vn -0.0 1.0 0.0
vn -0.0 1.0 0.0
vn 0.0 -6.923431846850693e-16 -1.0
vn 0.0 -6.923431846850693e-16 -1.0
vn 0.0 -6.923431846850693e-16 -1.0
vn 0.0 -6.923431846850693e-16 -1.0
vn 1.0 0.0 0.0
vn 1.0 0.0 0.0
vn 1.0 0.0 0.0
vn 1.0 0.0 0.0
vn -1.0 -0.0 -0.0
vn -1.0 -0.0 -0.0
vn -1.0 -0.0 -0.0
vn -1.0 -0.0 -0.0
vn -1.0 -0.0 -0.0
vn -1.0 -0.0 -0.0
vn -1.0 -0.0 -0.0
vn -1.0 -0.0 -0.0
vn -1.0 -0.0 -0.0
vn -1.0 -0.0 -0.0
vn -1.0 -0.0 -0.0
vn -1.0 -0.0 -0.0
vn -1.0 -0.0 -0.0
vn -1.0 -0.0 -0.0
vn -1.0 -0.0 -0.0
vn -1.0 -0.0 -0.0
vn -1.0 -0.0 -0.0
vn -1.0 -0.0 -0.0
vn -1.0 -0.0 -0.0
vn -1.0 -0.0 -0.0
g d881d57e-e2ec-11ea-8a5a-54bf646e7e1f
f 1//1 2//2 4//4
f 4//4 2//2 3//3
g d882bfdc-e2ec-11ea-9302-54bf646e7e1f
f 5//5 6//6 8//8
f 8//8 6//6 7//7
g d883830c-e2ec-11ea-bd6c-54bf646e7e1f
f 9//9 10//10 12//12
f 12//12 10//10 11//11
g d8846d8a-e2ec-11ea-a1b6-54bf646e7e1f
f 13//13 14//14 16//16
f 16//16 14//14 15//15
g d8861b48-e2ec-11ea-a733-54bf646e7e1f
f 17//17 18//18 20//20
f 20//20 18//18 19//19
g d918490c-e2ec-11ea-9535-54bf646e7e1f
f 21//21 22//22 24//24
f 24//24 22//22 23//23
g d919818a-e2ec-11ea-b4f2-54bf646e7e1f
f 25//25 26//26 28//28
f 28//28 26//26 27//27
g d91aba0a-e2ec-11ea-8797-54bf646e7e1f
f 29//29 30//30 32//32
f 32//32 30//30 31//31
g d91bcb86-e2ec-11ea-8225-54bf646e7e1f
f 33//33 34//34 36//36
f 36//36 34//34 35//35
g d91effca-e2ec-11ea-8e2b-54bf646e7e1f
f 37//37 38//38 40//40
f 40//40 38//38 39//39
g d8c3726c-e2ec-11ea-90c5-54bf646e7e1f
f 41//41 42//42 44//44
f 44//44 42//42 43//43
g d8c483dc-e2ec-11ea-be7b-54bf646e7e1f
f 45//45 46//46 48//48
f 48//48 46//46 47//47
g d8c56e30-e2ec-11ea-be32-54bf646e7e1f
f 49//49 50//50 52//52
f 52//52 50//50 51//51
g d8c67fc0-e2ec-11ea-9a21-54bf646e7e1f
f 53//53 54//54 56//56
f 56//56 54//54 55//55
g d8c8c98a-e2ec-11ea-8901-54bf646e7e1f
f 57//57 58//58 60//60
f 60//60 58//58 59//59
g d838e5e4-e2ec-11ea-be53-54bf646e7e1f
f 61//61 62//62 64//64
f 64//64 62//62 63//63
g d8398210-e2ec-11ea-b599-54bf646e7e1f
f 65//65 66//66 68//68
f 68//68 66//66 67//67
g d83a457a-e2ec-11ea-b6d1-54bf646e7e1f
f 69//69 70//70 72//72
f 72//72 70//70 71//71
g d83b08a4-e2ec-11ea-a679-54bf646e7e1f
f 73//73 74//74 76//76
f 76//76 74//74 75//75
g d83c681e-e2ec-11ea-9954-54bf646e7e1f
f 77//77 78//78 80//80
f 80//80 78//78 79//79
g d7fb1976-e2ec-11ea-b2ee-54bf646e7e1f
f 81//81 82//82 84//84
f 84//84 82//82 83//83
g d7fb8ef0-e2ec-11ea-aed2-54bf646e7e1f
f 85//85 86//86 88//88
f 88//88 86//86 87//87
g d7fc2ae2-e2ec-11ea-a8aa-54bf646e7e1f
f 89//89 90//90 92//92
f 92//92 90//90 91//91
g d7fc9ff4-e2ec-11ea-bd05-54bf646e7e1f
f 93//93 94//94 96//96
f 96//96 94//94 95//95
g d7fd1546-e2ec-11ea-adc4-54bf646e7e1f
f 98//98 99//99 97//97
f 97//97 99//99 100//100
g d7fdb186-e2ec-11ea-bb2d-54bf646e7e1f
f 104//104 101//101 120//120
f 120//120 101//101 102//102
f 120//120 102//102 119//119
f 119//119 102//102 105//105
f 119//119 105//105 106//106
f 102//102 103//103 105//105
f 105//105 103//103 108//108
f 108//108 103//103 114//114
f 108//108 114//114 109//109
f 109//109 114//114 115//115
f 109//109 115//115 112//112
f 112//112 115//115 117//117
f 112//112 117//117 118//118
f 114//114 103//103 113//113
f 113//113 103//103 104//104
f 113//113 104//104 117//117
f 117//117 104//104 120//120
f 106//106 107//107 119//119
f 119//119 107//107 110//110
f 119//119 110//110 118//118
f 118//118 110//110 111//111
f 118//118 111//111 112//112
f 110//110 107//107 109//109
f 109//109 107//107 108//108
f 115//115 116//116 117//117
f 117//117 116//116 113//113

# End of file