# WaveFront *.obj file
# Vertices: 112
# Triangles : 92

v 9.75 0.0 -11.5
v 5.25 0.0 -11.5
v 5.25 0.5 -11.5
v 9.75 0.5 -11.5
v 10.0 0.0 -11.25
v 9.987764358520508 0.0 -11.327254295349121
v 9.952254295349121 0.0 -11.39694595336914
v 9.89694595336914 0.0 -11.452254295349121
v 9.827254295349121 0.0 -11.487764358520508
v 9.75 0.0 -11.5
v 9.75 0.5 -11.5
v 9.827254295349121 0.5 -11.487764358520508
v 9.89694595336914 0.5 -11.452254295349121
v 9.952254295349121 0.5 -11.39694595336914
v 9.987764358520508 0.5 -11.327254295349121
v 10.0 0.5 -11.25
v 10.0 0.0 -4.25
v 10.0 0.0 -11.25
v 10.0 0.5 -11.25
v 10.0 0.5 -4.25
v 9.75 0.0 -4.0
v 9.827254295349121 0.0 -4.012235641479492
v 9.89694595336914 0.0 -4.047745704650879
v 9.952254295349121 0.0 -4.103053569793701
v 9.987764358520508 0.0 -4.172745704650879
v 10.0 0.0 -4.25
v 10.0 0.5 -4.25
v 9.987764358520508 0.5 -4.172745704650879
v 9.952254295349121 0.5 -4.103053569793701
v 9.89694595336914 0.5 -4.047745704650879
v 9.827254295349121 0.5 -4.012235641479492
v 9.75 0.5 -4.0
v 5.25 0.0 -4.0
v 9.75 0.0 -4.0
v 9.75 0.5 -4.0
v 5.25 0.5 -4.0
v 5.0 0.0 -4.25
v 5.012235641479492 0.0 -4.172745704650879
v 5.047745704650879 0.0 -4.103053569793701
v 5.103053569793701 0.0 -4.047745704650879
v 5.172745704650879 0.0 -4.012235641479492
v 5.25 0.0 -4.0
v 5.25 0.5 -4.0
v 5.172745704650879 0.5 -4.012235641479492
v 5.103053569793701 0.5 -4.047745704650879
v 5.047745704650879 0.5 -4.103053569793701
v 5.012235641479492 0.5 -4.172745704650879
v 5.0 0.5 -4.25
v 5.0 0.0 -11.25
v 5.0 0.0 -4.25
v 5.0 0.5 -4.25
v 5.0 0.5 -11.25
v 5.25 0.0 -11.5
v 5.172745704650879 0.0 -11.487764358520508
v 5.103053569793701 0.0 -11.452254295349121
v 5.047745704650879 0.0 -11.39694595336914
v 5.012235641479492 0.0 -11.327254295349121
v 5.0 0.0 -11.25
v 5.0 0.5 -11.25
v 5.012235641479492 0.5 -11.327254295349121
v 5.047745704650879 0.5 -11.39694595336914
v 5.103053569793701 0.5 -11.452254295349121
v 5.172745704650879 0.5 -11.487764358520508
v 5.25 0.5 -11.5
v 5.25 0.5 -11.5
v 5.172745704650879 0.5 -11.487764358520508
v 5.103053569793701 0.5 -11.452254295349121
v 5.047745704650879 0.5 -11.39694595336914
v 5.012235641479492 0.5 -11.327254295349121
v 5.0 0.5 -11.25
v 5.0 0.5 -4.25
v 5.012235641479492 0.5 -4.172745704650879
v 5.047745704650879 0.5 -4.103053569793701
v 5.103053569793701 0.5 -4.047745704650879
v 5.172745704650879 0.5 -4.012235641479492
v 5.25 0.5 -4.0
v 9.75 0.5 -4.0
v 9.827254295349121 0.5 -4.012235641479492
v 9.89694595336914 0.5 -4.047745704650879
v 9.952254295349121 0.5 -4.103053569793701
v 9.987764358520508 0.5 -4.172745704650879
v 10.0 0.5 -4.25
v 10.0 0.5 -11.25
v 9.987764358520508 0.5 -11.327254295349121
v 9.952254295349121 0.5 -11.39694595336914
v 9.89694595336914 0.5 -11.452254295349121
v 9.827254295349121 0.5 -11.487764358520508
v 9.75 0.5 -11.5
v 5.0 0.0 -11.25
v 5.012235641479492 0.0 -11.327254295349121
v 5.047745704650879 0.0 -11.39694595336914
v 5.103053569793701 0.0 -11.452254295349121
v 5.172745704650879 0.0 -11.487764358520508
v 5.25 0.0 -11.5
v 9.75 0.0 -11.5
v 9.827254295349121 0.0 -11.487764358520508
v 9.89694595336914 0.0 -11.452254295349121
v 9.952254295349121 0.0 -11.39694595336914
v 9.987764358520508 0.0 -11.327254295349121
v 10.0 0.0 -11.25
v 10.0 0.0 -4.25
v 9.987764358520508 0.0 -4.172745704650879
v 9.952254295349121 0.0 -4.103053569793701
v 9.89694595336914 0.0 -4.047745704650879
v 9.827254295349121 0.0 -4.012235641479492
v 9.75 0.0 -4.0
v 5.25 0.0 -4.0
v 5.172745704650879 0.0 -4.012235641479492
v 5.103053569793701 0.0 -4.047745704650879
v 5.047745704650879 0.0 -4.103053569793701
v 5.012235641479492 0.0 -4.172745704650879
v 5.0 0.0 -4.25
vn 0.0 0.0 -1.0
vn 0.0 0.0 -1.0
vn 0.0 0.0 -1.0
vn 0.0 0.0 -1.0
vn 1.0 -0.0 -0.0
vn 0.9510565400123596 -0.0 -0.30901700258255005
vn 0.80901700258255 -0.0 -0.5877852439880371
vn 0.5877852439880371 -0.0 -0.80901700258255
vn 0.30901700258255005 -0.0 -0.9510565400123596
vn 6.123234262925839e-17 -0.0 -1.0
vn 6.123234262925839e-17 -0.0 -1.0
vn 0.30901700258255005 -0.0 -0.9510565400123596
vn 0.5877852439880371 -0.0 -0.80901700258255
vn 0.80901700258255 -0.0 -0.5877852439880371
vn 0.9510565400123596 -0.0 -0.30901700258255005
vn 1.0 -0.0 -0.0
vn 1.0 0.0 0.0
vn 1.0 0.0 0.0
vn 1.0 0.0 0.0
vn 1.0 0.0 0.0
vn -7.105427357601002e-15 -0.0 1.0
vn 0.30901700258255005 -0.0 0.9510565400123596
vn 0.5877852439880371 -0.0 0.80901700258255
vn 0.80901700258255 -0.0 0.5877852439880371
vn 0.9510565400123596 -0.0 0.30901700258255005
vn 1.0 -0.0 -3.491481243527014e-15
vn 1.0 -0.0 -3.491481243527014e-15
vn 0.9510565400123596 -0.0 0.30901700258255005
vn 0.80901700258255 -0.0 0.5877852439880371
vn 0.5877852439880371 -0.0 0.80901700258255
vn 0.30901700258255005 -0.0 0.9510565400123596
vn -7.105427357601002e-15 -0.0 1.0
vn 0.0 -0.0 1.0
vn 0.0 -0.0 1.0
vn 0.0 -0.0 1.0
vn 0.0 -0.0 1.0
vn -1.0 0.0 -1.0658141036401503e-14
vn -0.9510565400123596 -0.0 0.30901700258255005
vn -0.80901700258255 -0.0 0.5877852439880371
vn -0.5877852439880371 -0.0 0.80901700258255
vn -0.30901700258255005 -0.0 0.9510565400123596
vn 1.059690902464449e-14 -0.0 1.0
vn 1.059690902464449e-14 -0.0 1.0
vn -0.30901700258255005 -0.0 0.9510565400123596
vn -0.5877852439880371 -0.0 0.80901700258255
vn -0.80901700258255 -0.0 0.5877852439880371
vn -0.9510565400123596 -0.0 0.30901700258255005
vn -1.0 0.0 -1.0658141036401503e-14
vn -1.0 0.0 0.0
vn -1.0 0.0 0.0
vn -1.0 0.0 0.0
vn -1.0 0.0 0.0
vn 3.552713678800501e-15 -0.0 -1.0
vn -0.30901700258255005 0.0 -0.9510565400123596
vn -0.5877852439880371 0.0 -0.80901700258255
vn -0.80901700258255 0.0 -0.5877852439880371
vn -0.9510565400123596 0.0 -0.30901700258255005
vn -1.0 -0.0 7.044194922327515e-15
vn -1.0 -0.0 7.044194922327515e-15
vn -0.9510565400123596 0.0 -0.30901700258255005
vn -0.80901700258255 0.0 -0.5877852439880371
vn -0.5877852439880371 0.0 -0.80901700258255
vn -0.30901700258255005 0.0 -0.9510565400123596
vn 3.552713678800501e-15 -0.0 -1.0
vn 0.0 1.0 0.0
vn 0.0 1.0 0.0
vn 0.0 1.0 0.0
vn 0.0 1.0 0.0
vn 0.0 1.0 0.0
vn 0.0 1.0 0.0
vn 0.0 1.0 0.0
vn 0.0 1.0 0.0
vn 0.0 1.0 0.0
vn 0.0 1.0 0.0
vn 0.0 1.0 0.0
vn 0.0 1.0 0.0
vn 0.0 1.0 0.0
vn 0.0 1.0 0.0
vn 0.0 1.0 0.0
vn 0.0 1.0 0.0
vn 0.0 1.0 0.0
vn 0.0 1.0 0.0
vn 0.0 1.0 0.0
vn 0.0 1.0 0.0
vn 0.0 1.0 0.0
vn 0.0 1.0 0.0
vn 0.0 1.0 0.0
vn 0.0 1.0 0.0
vn -0.0 -1.0 -0.0
vn -0.0 -1.0 -0.0
vn -0.0 -1.0 -0.0
vn -0.0 -1.0 -0.0
vn -0.0 -1.0 -0.0
vn -0.0 -1.0 -0.0
vn -0.0 -1.0 -0.0
vn -0.0 -1.0 -0.0
vn -0.0 -1.0 -0.0
vn -0.0 -1.0 -0.0
vn -0.0 -1.0 -0.0
vn -0.0 -1.0 -0.0
vn -0.0 -1.0 -0.0
vn -0.0 -1.0 -0.0
vn -0.0 -1.0 -0.0
vn -0.0 -1.0 -0.0
vn -0.0 -1.0 -0.0
vn -0.0 -1.0 -0.0
vn -0.0 -1.0 -0.0
vn -0.0 -1.0 -0.0
vn -0.0 -1.0 -0.0
vn -0.0 -1.0 -0.0
vn -0.0 -1.0 -0.0
vn -0.0 -1.0 -0.0
g 91413e82-e2f0-11ea-ac81-54bf646e7e1f
f 1//1 2//2 4//4
f 4//4 2//2 3//3
g 914165b8-e2f0-11ea-a430-54bf646e7e1f
f 16//16 5//5 15//15
f 15//15 5//5 6//6
f 15//15 6//6 14//14
f 14//14 6//6 7//7
f 14//14 7//7 13//13
f 13//13 7//7 8//8
f 13//13 8//8 12//12
f 12//12 8//8 9//9
f 12//12 9//9 11//11
f 11//11 9//9 10//10
g 9141b3ae-e2f0-11ea-878c-54bf646e7e1f
f 17//17 18//18 20//20
f 20//20 18//18 19//19
g 9141db00-e2f0-11ea-82f7-54bf646e7e1f
f 32//32 21//21 31//31
f 31//31 21//21 22//22
f 31//31 22//22 30//30
f 30//30 22//22 23//23
f 30//30 23//23 29//29
f 29//29 23//23 24//24
f 29//29 24//24 28//28
f 28//28 24//24 25//25
f 28//28 25//25 27//27
f 27//27 25//25 26//26
g 914201c2-e2f0-11ea-9a13-54bf646e7e1f
f 33//33 34//34 36//36
f 36//36 34//34 35//35
g 91422906-e2f0-11ea-b727-54bf646e7e1f
f 48//48 37//37 47//47
f 47//47 37//37 38//38
f 47//47 38//38 46//46
f 46//46 38//38 39//39
f 46//46 39//39 45//45
f 45//45 39//39 40//40
f 45//45 40//40 44//44
f 44//44 40//40 41//41
f 44//44 41//41 43//43
f 43//43 41//41 42//42
g 9142776e-e2f0-11ea-8574-54bf646e7e1f
f 49//49 50//50 52//52
f 52//52 50//50 51//51
g 9142c35e-e2f0-11ea-a4a1-54bf646e7e1f
f 64//64 53//53 63//63
f 63//63 53//53 54//54
f 63//63 54//54 62//62
f 62//62 54//54 55//55
f 62//62 55//55 61//61
f 61//61 55//55 56//56
f 61//61 56//56 60//60
f 60//60 56//56 57//57
f 60//60 57//57 59//59
f 59//59 57//57 58//58
g 91431170-e2f0-11ea-b8f3-54bf646e7e1f
f 66//66 70//70 65//65
f 65//65 70//70 71//71
f 65//65 71//71 76//76
f 76//76 71//71 75//75
f 75//75 71//71 74//74
f 74//74 71//71 73//73
f 73//73 71//71 72//72
f 66//66 67//67 70//70
f 70//70 67//67 68//68
f 70//70 68//68 69//69
f 76//76 77//77 65//65
f 65//65 77//77 88//88
f 88//88 77//77 82//82
f 88//88 82//82 83//83
f 77//77 78//78 82//82
f 82//82 78//78 79//79
f 82//82 79//79 80//80
f 80//80 81//81 82//82
f 84//84 85//85 83//83
f 83//83 85//85 86//86
f 83//83 86//86 87//87
f 87//87 88//88 83//83
g 91435f86-e2f0-11ea-8203-54bf646e7e1f
f 90//90 91//91 89//89
f 89//89 91//91 92//92
f 89//89 92//92 93//93
f 93//93 94//94 89//89
f 89//89 94//94 112//112
f 112//112 94//94 107//107
f 112//112 107//107 108//108
f 94//94 95//95 107//107
f 107//107 95//95 106//106
f 106//106 95//95 101//101
f 106//106 101//101 105//105
f 105//105 101//101 104//104
f 104//104 101//101 103//103
f 103//103 101//101 102//102
f 101//101 95//95 100//100
f 100//100 95//95 96//96
f 100//100 96//96 97//97
f 97//97 98//98 100//100
f 100//100 98//98 99//99
f 108//108 109//109 112//112
f 112//112 109//109 110//110
f 112//112 110//110 111//111

# End of file