# WaveFront *.obj file
# Vertices: 24
# Triangles : 12

v 2.5 -5.0 0.0
v 2.5 5.0 0.0
v 2.5 5.0 4.5
v 2.5 -5.0 4.5
v -2.5 -5.0 0.0
v 2.5 -5.0 0.0
v 2.5 -5.0 4.5
v -2.5 -5.0 4.5
v -2.5 5.0 0.0
v -2.5 -5.0 0.0
v -2.5 -5.0 4.5
v -2.5 5.0 4.5
v 2.5 5.0 0.0
v -2.5 5.0 0.0
v -2.5 5.0 4.5
v 2.5 5.0 4.5
v 2.5 5.0 4.5
v -2.5 5.0 4.5
v -2.5 -5.0 4.5
v 2.5 -5.0 4.5
v -2.5 5.0 0.0
v 2.5 5.0 0.0
v 2.5 -5.0 0.0
v -2.5 -5.0 0.0
vn 1.0 0.0 -0.0
vn 1.0 0.0 -0.0
vn 1.0 0.0 -0.0
vn 1.0 0.0 -0.0
vn 0.0 -1.0 0.0
vn 0.0 -1.0 0.0
vn 0.0 -1.0 0.0
vn 0.0 -1.0 0.0
vn -1.0 0.0 0.0
vn -1.0 0.0 0.0
vn -1.0 0.0 0.0
vn -1.0 0.0 0.0
vn 0.0 1.0 0.0
vn 0.0 1.0 0.0
vn 0.0 1.0 0.0
vn 0.0 1.0 0.0
vn 0.0 0.0 1.0
vn 0.0 0.0 1.0
vn 0.0 0.0 1.0
vn 0.0 0.0 1.0
vn -0.0 0.0 -1.0
vn -0.0 0.0 -1.0
vn -0.0 0.0 -1.0
vn -0.0 0.0 -1.0
g 9d1aa5cc-e2f0-11ea-905e-54bf646e7e1f
f 1//1 2//2 4//4
f 4//4 2//2 3//3
g 9d1af3ee-e2f0-11ea-a6c3-54bf646e7e1f
f 5//5 6//6 8//8
f 8//8 6//6 7//7
g 9d1b421c-e2f0-11ea-9578-54bf646e7e1f
f 9//9 10//10 12//12
f 12//12 10//10 11//11
g 9d1bb76c-e2f0-11ea-a657-54bf646e7e1f
f 13//13 14//14 16//16
f 16//16 14//14 15//15
g 9d1c0582-e2f0-11ea-90ff-54bf646e7e1f
f 17//17 18//18 20//20
f 20//20 18//18 19//19
g 9d1c539a-e2f0-11ea-9a10-54bf646e7e1f
f 21//21 22//22 24//24
f 24//24 22//22 23//23

# End of file