# WaveFront *.obj file
# Vertices: 238
# Triangles : 202

v 5.016260147094727 6.252582550048828 0.0
v 5.016260147094727 9.0 0.0
v 5.016260147094727 9.0 5.0
v 5.016260147094727 6.252582550048828 5.0
v 5.016260147094727 6.252582550048828 1.0
v 0.0 6.252582550048828 1.0
v 5.016260147094727 6.252582550048828 1.0
v 5.016260147094727 6.252582550048828 5.0
v 0.0 6.252582550048828 5.0
v 5.016260147094727 9.0 0.0
v 0.0 9.0 0.0
v 0.0 9.0 5.0
v 5.016260147094727 9.0 5.0
v 5.016260147094727 9.0 5.0
v 0.0 9.0 5.0
v 0.0 6.252582550048828 5.0
v 5.016260147094727 6.252582550048828 5.0
v 7.0 1.2750352621078491 0.0
v 7.0 5.0 0.0
v 7.0 5.0 1.0
v 7.0 1.2750352621078491 1.0
v 7.854605674743652 1.2750352621078491 0.0
v 7.0 1.2750352621078491 0.0
v 7.0 1.2750352621078491 1.0
v 7.854605674743652 1.2750352621078491 1.0
v 7.854605674743652 5.0 0.0
v 7.854605674743652 1.2750352621078491 0.0
v 7.854605674743652 1.2750352621078491 1.0
v 7.854605674743652 5.0 1.0
v 7.0 5.0 0.0
v 7.854605674743652 5.0 0.0
v 7.854605674743652 5.0 1.0
v 7.0 5.0 1.0
v 2.844285488128662 6.13161039352417 1.0
v 2.844285488128662 6.13161039352417 9.0
v 2.844285488128662 0.09747999906539917 9.0
v 2.844285488128662 0.09747999906539917 1.0
v -4.440892098500626e-16 5.487621307373047 1.0
v -4.440892098500626e-16 5.487621307373047 9.0
v 0.34755122661590576 5.746131896972656 9.0
v 0.7275582551956177 5.954012393951416 9.0
v 1.1326956748962402 6.107254981994629 9.0
v 1.555153250694275 6.202905654907227 9.0
v 1.9867874383926392 6.2391204833984375 9.0
v 2.4192771911621094 6.2152018547058105 9.0
v 2.844285488128662 6.13161039352417 9.0
v 2.844285488128662 6.13161039352417 1.0
v 2.4192771911621094 6.2152018547058105 1.0
v 1.9867874383926392 6.2391204833984375 1.0
v 1.555153250694275 6.202905654907227 1.0
v 1.1326956748962402 6.107254981994629 1.0
v 0.7275582551956177 5.954012393951416 1.0
v 0.34755122661590576 5.746131896972656 1.0
v -4.440892098500626e-16 5.487621307373047 1.0
v 0.0 6.252582550048828 1.0
v 0.0 6.252582550048828 5.0
v 0.0 9.0 5.0
v 0.0 9.0 0.0
v 0.0 0.0 0.0
v 0.0 0.0 1.0
v 0.0 0.7386690974235535 1.0
v 0.0 0.7386690974235535 9.0
v -4.440892098500626e-16 5.487621307373047 9.0
v 2.844285488128662 0.09747999906539917 1.0
v 2.844285488128662 0.09747999906539917 9.0
v 2.4194397926330566 0.014187327586114407 9.0
v 1.9871646165847778 -0.009680105373263359 9.0
v 1.5557315349578857 0.026334412395954132 9.0
v 1.1333961486816406 0.12154173105955124 9.0
v 0.7282401919364929 0.274120032787323 9.0
v 0.3480162024497986 0.48114967346191406 9.0
v 0.0 0.7386690974235535 9.0
v 0.0 0.7386690974235535 1.0
v 0.31340986490249634 0.5035473108291626 1.0
v 0.6537404656410217 0.3094260096549988 1.0
v 1.0156582593917847 0.1593475490808487 1.0
v 1.3934911489486694 0.05566389858722687 1.0
v 1.7813178300857544 2.1255744217781157e-17 1.0
v 1.9478111267089844 -0.008879097178578377 1.0
v 2.1145410537719727 -0.008879097178578377 1.0
v 2.281034231185913 -2.1255744217781157e-17 1.0
v 2.4706504344940186 0.021019604057073593 1.0
v 2.6586337089538574 0.05355323478579521 1.0
v 2.844285488128662 6.13161039352417 9.0
v 2.4192771911621094 6.2152018547058105 9.0
v 1.9867874383926392 6.2391204833984375 9.0
v 1.555153250694275 6.202905654907227 9.0
v 1.1326956748962402 6.107254981994629 9.0
v 0.7275582551956177 5.954012393951416 9.0
v 0.34755122661590576 5.746131896972656 9.0
v -4.440892098500626e-16 5.487621307373047 9.0
v 0.0 0.7386690974235535 9.0
v 0.3480162024497986 0.48114967346191406 9.0
v 0.7282401919364929 0.274120032787323 9.0
v 1.1333961486816406 0.12154173105955124 9.0
v 1.5557315349578857 0.026334412395954132 9.0
v 1.9871646165847778 -0.009680105373263359 9.0
v 2.4194397926330566 0.014187327586114407 9.0
v 2.844285488128662 0.09747999906539917 9.0
v 1.7813178300857544 2.1255744217781157e-17 1.0
v 2.281034231185913 -2.1255744217781157e-17 1.0
v 2.1145410537719727 -0.008879097178578377 1.0
v 1.9478111267089844 -0.008879097178578377 1.0
v 1.7813178300857544 2.1255744217781157e-17 1.0
v 1.3934911489486694 0.05566389858722687 1.0
v 1.0156582593917847 0.1593475490808487 1.0
v 0.6537404656410217 0.3094260096549988 1.0
v 0.31340986490249634 0.5035473108291626 1.0
v 0.0 0.7386690974235535 1.0
v 0.0 0.0 1.0
v 7.854605674743652 5.0 1.0
v 7.854605674743652 1.2750352621078491 1.0
v 7.0 1.2750352621078491 1.0
v 7.0 5.0 1.0
v -4.440892098500626e-16 5.487621307373047 1.0
v 0.34755122661590576 5.746131896972656 1.0
v 0.7275582551956177 5.954012393951416 1.0
v 1.1326956748962402 6.107254981994629 1.0
v 1.555153250694275 6.202905654907227 1.0
v 1.9867874383926392 6.2391204833984375 1.0
v 2.4192771911621094 6.2152018547058105 1.0
v 2.844285488128662 6.13161039352417 1.0
v 2.844285488128662 0.09747999906539917 1.0
v 2.6586337089538574 0.05355323478579521 1.0
v 2.4706504344940186 0.021019604057073593 1.0
v 2.281034231185913 -2.1255744217781157e-17 1.0
v 7.259346961975098 -6.175615574477433e-16 1.0
v 7.704264163970947 0.03182113543152809 1.0
v 8.140124320983887 0.12663675844669342 1.0
v 8.55805492401123 0.2825166881084442 1.0
v 8.94954776763916 0.49628767371177673 1.0
v 9.306632041931152 0.7635979652404785 1.0
v 9.622039794921875 1.0790058374404907 1.0
v 9.889349937438965 1.4360905885696411 1.0
v 10.103120803833008 1.827582836151123 1.0
v 10.259000778198242 2.2455132007598877 1.0
v 10.353816986083984 2.6813735961914062 1.0
v 10.385638236999512 3.126291275024414 1.0
v 10.353816986083984 3.5712087154388428 1.0
v 10.259000778198242 4.007069110870361 1.0
v 10.103120803833008 4.424999713897705 1.0
v 9.889349937438965 4.816491603851318 1.0
v 9.622039794921875 5.173576354980469 1.0
v 9.306632041931152 5.48898458480835 1.0
v 8.94954776763916 5.7562947273254395 1.0
v 8.55805492401123 5.970065593719482 1.0
v 8.140124320983887 6.125945568084717 1.0
v 7.704264163970947 6.220761299133301 1.0
v 7.259346961975098 6.252582550048828 1.0
v 5.016260147094727 6.252582550048828 1.0
v 0.0 6.252582550048828 1.0
v 0.0 0.0 0.0
v 7.259346961975098 -6.175615574477433e-16 0.0
v 7.259346961975098 -6.175615574477433e-16 1.0
v 2.281034231185913 -2.1255744217781157e-17 1.0
v 1.7813178300857544 2.1255744217781157e-17 1.0
v 0.0 0.0 1.0
v 5.016260147094727 6.252582550048828 0.0
v 5.016260147094727 6.252582550048828 1.0
v 7.259346961975098 6.252582550048828 1.0
v 7.259346961975098 6.252582550048828 0.0
v 7.259346961975098 -6.175615574477433e-16 0.0
v 7.704264163970947 0.03182113543152809 0.0
v 8.140124320983887 0.12663675844669342 0.0
v 8.55805492401123 0.2825166881084442 0.0
v 8.94954776763916 0.49628767371177673 0.0
v 9.306632041931152 0.7635979652404785 0.0
v 9.622039794921875 1.0790058374404907 0.0
v 9.889349937438965 1.4360905885696411 0.0
v 10.103120803833008 1.827582836151123 0.0
v 10.259000778198242 2.2455132007598877 0.0
v 10.353816986083984 2.6813735961914062 0.0
v 10.385638236999512 3.126291275024414 0.0
v 10.353816986083984 3.5712087154388428 0.0
v 10.259000778198242 4.007069110870361 0.0
v 10.103120803833008 4.424999713897705 0.0
v 9.889349937438965 4.816491603851318 0.0
v 9.622039794921875 5.173576354980469 0.0
v 9.306632041931152 5.48898458480835 0.0
v 8.94954776763916 5.7562947273254395 0.0
v 8.55805492401123 5.970065593719482 0.0
v 8.140124320983887 6.125945568084717 0.0
v 7.704264163970947 6.220761299133301 0.0
v 7.259346961975098 6.252582550048828 0.0
v 7.259346961975098 6.252582550048828 1.0
v 7.704264163970947 6.220761299133301 1.0
v 8.140124320983887 6.125945568084717 1.0
v 8.55805492401123 5.970065593719482 1.0
v 8.94954776763916 5.7562947273254395 1.0
v 9.306632041931152 5.48898458480835 1.0
v 9.622039794921875 5.173576354980469 1.0
v 9.889349937438965 4.816491603851318 1.0
v 10.103120803833008 4.424999713897705 1.0
v 10.259000778198242 4.007069110870361 1.0
v 10.353816986083984 3.5712087154388428 1.0
v 10.385638236999512 3.126291275024414 1.0
v 10.353816986083984 2.6813735961914062 1.0
v 10.259000778198242 2.2455132007598877 1.0
v 10.103120803833008 1.827582836151123 1.0
v 9.889349937438965 1.4360905885696411 1.0
v 9.622039794921875 1.0790058374404907 1.0
v 9.306632041931152 0.7635979652404785 1.0
v 8.94954776763916 0.49628767371177673 1.0
v 8.55805492401123 0.2825166881084442 1.0
v 8.140124320983887 0.12663675844669342 1.0
v 7.704264163970947 0.03182113543152809 1.0
v 7.259346961975098 -6.175615574477433e-16 1.0
v 7.854605674743652 1.2750352621078491 0.0
v 7.854605674743652 5.0 0.0
v 7.0 5.0 0.0
v 7.0 1.2750352621078491 0.0
v 7.259346961975098 6.252582550048828 0.0
v 7.704264163970947 6.220761299133301 0.0
v 8.140124320983887 6.125945568084717 0.0
v 8.55805492401123 5.970065593719482 0.0
v 8.94954776763916 5.7562947273254395 0.0
v 9.306632041931152 5.48898458480835 0.0
v 9.622039794921875 5.173576354980469 0.0
v 9.889349937438965 4.816491603851318 0.0
v 10.103120803833008 4.424999713897705 0.0
v 10.259000778198242 4.007069110870361 0.0
v 10.353816986083984 3.5712087154388428 0.0
v 10.385638236999512 3.126291275024414 0.0
v 10.353816986083984 2.6813735961914062 0.0
v 10.259000778198242 2.2455132007598877 0.0
v 10.103120803833008 1.827582836151123 0.0
v 9.889349937438965 1.4360905885696411 0.0
v 9.622039794921875 1.0790058374404907 0.0
v 9.306632041931152 0.7635979652404785 0.0
v 8.94954776763916 0.49628767371177673 0.0
v 8.55805492401123 0.2825166881084442 0.0
v 8.140124320983887 0.12663675844669342 0.0
v 7.704264163970947 0.03182113543152809 0.0
v 7.259346961975098 -6.175615574477433e-16 0.0
v 0.0 0.0 0.0
v 0.0 9.0 0.0
v 5.016260147094727 9.0 0.0
v 5.016260147094727 6.252582550048828 0.0
vn 1.0 0.0 -0.0
vn 1.0 0.0 -0.0
vn 1.0 0.0 -0.0
vn 1.0 0.0 -0.0
vn 1.0 0.0 -0.0
vn 0.0 -1.0 0.0
vn 0.0 -1.0 0.0
vn 0.0 -1.0 0.0
vn 0.0 -1.0 0.0
vn 0.0 1.0 0.0
vn 0.0 1.0 0.0
vn 0.0 1.0 0.0
vn 0.0 1.0 0.0
vn 0.0 0.0 1.0
vn 0.0 0.0 1.0
vn 0.0 0.0 1.0
vn 0.0 0.0 1.0
vn 1.0 -0.0 -0.0
vn 1.0 -0.0 -0.0
vn 1.0 -0.0 -0.0
vn 1.0 -0.0 -0.0
vn 0.0 1.0 0.0
vn 0.0 1.0 0.0
vn 0.0 1.0 0.0
vn 0.0 1.0 0.0
vn -1.0 -0.0 -0.0
vn -1.0 -0.0 -0.0
vn -1.0 -0.0 -0.0
vn -1.0 -0.0 -0.0
vn 0.0 -1.0 -0.0
vn 0.0 -1.0 -0.0
vn 0.0 -1.0 -0.0
vn 0.0 -1.0 -0.0
vn 1.0 -7.35962244799783e-17 0.0
vn 1.0 -7.35962244799783e-17 0.0
vn 1.0 -7.35962244799783e-17 0.0
vn 1.0 -7.35962244799783e-17 0.0
vn -0.6510767340660095 0.7590119242668152 -0.0
vn -0.6510767340660095 0.7590119242668152 -0.0
vn -0.5396720767021179 0.8418753147125244 -0.0
vn -0.4178639352321625 0.9085096120834351 -0.0
vn -0.2880004942417145 0.9576302766799927 -0.0
vn -0.15258516371250153 0.9882903099060059 -0.0
vn -0.014228400774300098 0.9998987913131714 -0.0
vn 0.12440264970064163 0.9922318458557129 -0.0
vn 0.2606355547904968 0.9654372930526733 -0.0
vn 0.2606355547904968 0.9654372930526733 -0.0
vn 0.12440264970064163 0.9922318458557129 -0.0
vn -0.014228400774300098 0.9998987913131714 -0.0
vn -0.15258516371250153 0.9882903099060059 -0.0
vn -0.2880004942417145 0.9576302766799927 -0.0
vn -0.4178639352321625 0.9085096120834351 -0.0
vn -0.5396720767021179 0.8418753147125244 -0.0
vn -1.0 0.0 0.0
vn -1.0 0.0 0.0
vn -1.0 0.0 0.0
vn -1.0 0.0 0.0
vn -1.0 0.0 0.0
vn -1.0 0.0 0.0
vn -1.0 0.0 0.0
vn -1.0 0.0 0.0
vn -1.0 0.0 0.0
vn -1.0 0.0 0.0
vn 0.2598036527633667 -0.9656614661216736 -0.0
vn 0.2598036527633667 -0.9656614661216736 -0.0
vn 0.12405751645565033 -0.9922749996185303 -0.0
vn -0.014062482863664627 -0.9999011158943176 0.0
vn -0.15191338956356049 -0.9883937835693359 0.0
vn -0.28685739636421204 -0.957973301410675 0.0
vn -0.4163123071193695 -0.9092217087745667 0.0
vn -0.5378009676933289 -0.8430718779563904 0.0
vn -0.6489986181259155 -0.7607895731925964 0.0
vn -0.6489986181259155 -0.7607895731925964 0.0
vn -0.5488583445549011 -0.8359153866767883 0.0
vn -0.44011634588241577 -0.8979407548904419 0.0
vn -0.32447686791419983 -0.9458936452865601 0.0
vn -0.20375220477581024 -0.9790225028991699 0.0
vn -0.07983434945344925 -0.9968081712722778 0.0
vn -0.026636648923158646 -0.9996451735496521 0.0
vn 0.026636648923158646 -0.9996451735496521 -0.0
vn 0.07983434945344925 -0.9968081712722778 -0.0
vn 0.14042027294635773 -0.9900919795036316 -0.0
vn 0.20048443973064423 -0.9796968698501587 -0.0
vn 0.0 0.0 1.0
vn 0.0 0.0 1.0
vn 0.0 0.0 1.0
vn 0.0 0.0 1.0
vn 0.0 0.0 1.0
vn 0.0 0.0 1.0
vn 0.0 0.0 1.0
vn 0.0 0.0 1.0
vn 0.0 0.0 1.0
vn 0.0 0.0 1.0
vn 0.0 0.0 1.0
vn 0.0 0.0 1.0
vn 0.0 0.0 1.0
vn 0.0 0.0 1.0
vn 0.0 0.0 1.0
vn 0.0 0.0 1.0
vn -0.0 -0.0 -1.0
vn -0.0 -0.0 -1.0
vn -0.0 -0.0 -1.0
vn -0.0 -0.0 -1.0
vn 0.0 0.0 1.0
vn 0.0 0.0 1.0
vn 0.0 0.0 1.0
vn 0.0 0.0 1.0
vn 0.0 0.0 1.0
vn 0.0 0.0 1.0
vn 0.0 0.0 1.0
vn 0.0 0.0 1.0
vn 0.0 0.0 1.0
vn 0.0 0.0 1.0
vn 0.0 0.0 1.0
vn 0.0 0.0 1.0
vn 0.0 0.0 1.0
vn 0.0 0.0 1.0
vn 0.0 0.0 1.0
vn 0.0 0.0 1.0
vn 0.0 0.0 1.0
vn 0.0 0.0 1.0
vn 0.0 0.0 1.0
vn 0.0 0.0 1.0
vn 0.0 0.0 1.0
vn 0.0 0.0 1.0
vn 0.0 0.0 1.0
vn 0.0 0.0 1.0
vn 0.0 0.0 1.0
vn 0.0 0.0 1.0
vn 0.0 0.0 1.0
vn 0.0 0.0 1.0
vn 0.0 0.0 1.0
vn 0.0 0.0 1.0
vn 0.0 0.0 1.0
vn 0.0 0.0 1.0
vn 0.0 0.0 1.0
vn 0.0 0.0 1.0
vn 0.0 0.0 1.0
vn 0.0 0.0 1.0
vn 0.0 0.0 1.0
vn 0.0 0.0 1.0
vn 0.0 0.0 1.0
vn 0.0 0.0 1.0
vn 0.0 0.0 1.0
vn 0.0 0.0 1.0
vn 0.0 0.0 1.0
vn 0.0 0.0 1.0
vn 0.0 0.0 1.0
vn 0.0 0.0 1.0
vn 0.0 0.0 1.0
vn 0.0 0.0 1.0
vn -8.507123127933852e-17 -1.0 0.0
vn -8.507123127933852e-17 -1.0 0.0
vn -8.507123127933852e-17 -1.0 0.0
vn -8.507123127933852e-17 -1.0 0.0
vn -8.507123127933852e-17 -1.0 0.0
vn -8.507123127933852e-17 -1.0 0.0
vn 0.0 1.0 0.0
vn 0.0 1.0 0.0
vn 0.0 1.0 0.0
vn 0.0 1.0 0.0
vn 0.0 -1.0 -0.0
vn 0.1423148363828659 -0.9898214340209961 -0.0
vn 0.28173255920410156 -0.9594929814338684 -0.0
vn 0.4154150187969208 -0.9096319675445557 -0.0
vn 0.5406408309936523 -0.8412535190582275 -0.0
vn 0.6548607349395752 -0.7557495832443237 -0.0
vn 0.7557495832443237 -0.6548607349395752 -0.0
vn 0.8412535190582275 -0.5406408309936523 -0.0
vn 0.9096319675445557 -0.4154150187969208 -0.0
vn 0.9594929814338684 -0.28173255920410156 -0.0
vn 0.9898214340209961 -0.1423148363828659 -0.0
vn 1.0 -6.123234262925839e-17 -0.0
vn 0.9898214340209961 0.1423148363828659 -0.0
vn 0.9594929814338684 0.28173255920410156 -0.0
vn 0.9096319675445557 0.4154150187969208 -0.0
vn 0.8412535190582275 0.5406408309936523 -0.0
vn 0.7557495832443237 0.6548607349395752 -0.0
vn 0.6548607349395752 0.7557495832443237 -0.0
vn 0.5406408309936523 0.8412535190582275 -0.0
vn 0.4154150187969208 0.9096319675445557 -0.0
vn 0.28173255920410156 0.9594929814338684 -0.0
vn 0.1423148363828659 0.9898214340209961 -0.0
vn 1.2246468525851679e-16 1.0 -0.0
vn 1.2246468525851679e-16 1.0 -0.0
vn 0.1423148363828659 0.9898214340209961 -0.0
vn 0.28173255920410156 0.9594929814338684 -0.0
vn 0.4154150187969208 0.9096319675445557 -0.0
vn 0.5406408309936523 0.8412535190582275 -0.0
vn 0.6548607349395752 0.7557495832443237 -0.0
vn 0.7557495832443237 0.6548607349395752 -0.0
vn 0.8412535190582275 0.5406408309936523 -0.0
vn 0.9096319675445557 0.4154150187969208 -0.0
vn 0.9594929814338684 0.28173255920410156 -0.0
vn 0.9898214340209961 0.1423148363828659 -0.0
vn 1.0 -6.123234262925839e-17 -0.0
vn 0.9898214340209961 -0.1423148363828659 -0.0
vn 0.9594929814338684 -0.28173255920410156 -0.0
vn 0.9096319675445557 -0.4154150187969208 -0.0
vn 0.8412535190582275 -0.5406408309936523 -0.0
vn 0.7557495832443237 -0.6548607349395752 -0.0
vn 0.6548607349395752 -0.7557495832443237 -0.0
vn 0.5406408309936523 -0.8412535190582275 -0.0
vn 0.4154150187969208 -0.9096319675445557 -0.0
vn 0.28173255920410156 -0.9594929814338684 -0.0
vn 0.1423148363828659 -0.9898214340209961 -0.0
vn 0.0 -1.0 -0.0
vn 0.0 -0.0 -1.0
vn 0.0 -0.0 -1.0
vn 0.0 -0.0 -1.0
vn 0.0 -0.0 -1.0
vn 0.0 -0.0 -1.0
vn 0.0 -0.0 -1.0
vn 0.0 -0.0 -1.0
vn 0.0 -0.0 -1.0
vn 0.0 -0.0 -1.0
vn 0.0 -0.0 -1.0
vn 0.0 -0.0 -1.0
vn 0.0 -0.0 -1.0
vn 0.0 -0.0 -1.0
vn 0.0 -0.0 -1.0
vn 0.0 -0.0 -1.0
vn 0.0 -0.0 -1.0
vn 0.0 -0.0 -1.0
vn 0.0 -0.0 -1.0
vn 0.0 -0.0 -1.0
vn 0.0 -0.0 -1.0
vn 0.0 -0.0 -1.0
vn 0.0 -0.0 -1.0
vn 0.0 -0.0 -1.0
vn 0.0 -0.0 -1.0
vn 0.0 -0.0 -1.0
vn 0.0 -0.0 -1.0
vn 0.0 -0.0 -1.0
vn 0.0 -0.0 -1.0
vn 0.0 -0.0 -1.0
vn 0.0 -0.0 -1.0
vn 0.0 -0.0 -1.0
g 95e5bad8-e2f0-11ea-85ec-54bf646e7e1f
f 1//1 2//2 5//5
f 5//5 2//2 3//3
f 5//5 3//3 4//4
g 95e6a550-e2f0-11ea-93df-54bf646e7e1f
f 6//6 7//7 9//9
f 9//9 7//7 8//8
g 95e78f7e-e2f0-11ea-a2f8-54bf646e7e1f
f 10//10 11//11 13//13
f 13//13 11//11 12//12
g 95e879e2-e2f0-11ea-986c-54bf646e7e1f
f 14//14 15//15 17//17
f 17//17 15//15 16//16
g 95b2eb0c-e2f0-11ea-b551-54bf646e7e1f
f 18//18 19//19 21//21
f 21//21 19//19 20//20
g 95b3ae62-e2f0-11ea-a58d-54bf646e7e1f
f 22//22 23//23 25//25
f 25//25 23//23 24//24
g 95b471b6-e2f0-11ea-a5ee-54bf646e7e1f
f 26//26 27//27 29//29
f 29//29 27//27 28//28
g 95b58334-e2f0-11ea-b521-54bf646e7e1f
f 30//30 31//31 33//33
f 33//33 31//31 32//32
g 954360c8-e2f0-11ea-b434-54bf646e7e1f
f 35//35 36//36 34//34
f 34//34 36//36 37//37
g 95450e68-e2f0-11ea-9905-54bf646e7e1f
f 38//38 39//39 53//53
f 53//53 39//39 40//40
f 53//53 40//40 52//52
f 52//52 40//40 41//41
f 52//52 41//41 51//51
f 51//51 41//41 42//42
f 51//51 42//42 50//50
f 50//50 42//42 43//43
f 50//50 43//43 49//49
f 49//49 43//43 44//44
f 49//49 44//44 48//48
f 48//48 44//44 45//45
f 48//48 45//45 47//47
f 47//47 45//45 46//46
g 95110658-e2f0-11ea-8e45-54bf646e7e1f
f 55//55 58//58 54//54
f 54//54 58//58 59//59
f 54//54 59//59 61//61
f 61//61 59//59 60//60
f 56//56 57//57 55//55
f 55//55 57//57 58//58
f 62//62 63//63 61//61
f 61//61 63//63 54//54
g 9544727e-e2f0-11ea-9ad4-54bf646e7e1f
f 64//64 65//65 83//83
f 83//83 65//65 66//66
f 83//83 66//66 82//82
f 82//82 66//66 81//81
f 81//81 66//66 67//67
f 81//81 67//67 80//80
f 80//80 67//67 79//79
f 79//79 67//67 78//78
f 78//78 67//67 68//68
f 78//78 68//68 77//77
f 77//77 68//68 69//69
f 77//77 69//69 76//76
f 76//76 69//69 70//70
f 76//76 70//70 75//75
f 75//75 70//70 71//71
f 75//75 71//71 74//74
f 74//74 71//71 72//72
f 74//74 72//72 73//73
g 9545aaa8-e2f0-11ea-99dc-54bf646e7e1f
f 84//84 85//85 99//99
f 99//99 85//85 98//98
f 98//98 85//85 86//86
f 98//98 86//86 97//97
f 97//97 86//86 96//96
f 96//96 86//86 87//87
f 96//96 87//87 95//95
f 95//95 87//87 88//88
f 95//95 88//88 94//94
f 94//94 88//88 89//89
f 94//94 89//89 90//90
f 94//94 90//90 93//93
f 93//93 90//90 91//91
f 93//93 91//91 92//92
g 95461fca-e2f0-11ea-b91f-54bf646e7e1f
f 100//100 101//101 103//103
f 103//103 101//101 102//102
g 954694f6-e2f0-11ea-99b9-54bf646e7e1f
f 104//104 105//105 110//110
f 110//110 105//105 106//106
f 110//110 106//106 107//107
f 107//107 108//108 110//110
f 110//110 108//108 109//109
g 9511c98c-e2f0-11ea-a3dd-54bf646e7e1f
f 112//112 138//138 111//111
f 111//111 138//138 139//139
f 111//111 139//139 140//140
f 113//113 128//128 112//112
f 112//112 128//128 129//129
f 112//112 129//129 130//130
f 114//114 122//122 113//113
f 113//113 122//122 123//123
f 113//113 123//123 127//127
f 127//127 123//123 124//124
f 127//127 124//124 125//125
f 111//111 148//148 114//114
f 114//114 148//148 149//149
f 114//114 149//149 150//150
f 115//115 116//116 151//151
f 151//151 116//116 117//117
f 151//151 117//117 118//118
f 118//118 119//119 151//151
f 151//151 119//119 120//120
f 151//151 120//120 150//150
f 150//150 120//120 121//121
f 150//150 121//121 122//122
f 125//125 126//126 127//127
f 127//127 128//128 113//113
f 130//130 131//131 112//112
f 112//112 131//131 132//132
f 112//112 132//132 133//133
f 133//133 134//134 112//112
f 112//112 134//134 135//135
f 112//112 135//135 136//136
f 136//136 137//137 112//112
f 112//112 137//137 138//138
f 140//140 141//141 111//111
f 111//111 141//141 142//142
f 111//111 142//142 143//143
f 143//143 144//144 111//111
f 111//111 144//144 145//145
f 111//111 145//145 146//146
f 146//146 147//147 111//111
f 111//111 147//147 148//148
f 122//122 114//114 150//150
g 9510df28-e2f0-11ea-92d3-54bf646e7e1f
f 153//153 155//155 152//152
f 152//152 155//155 156//156
f 152//152 156//156 157//157
f 153//153 154//154 155//155
g 9511545c-e2f0-11ea-a3d3-54bf646e7e1f
f 159//159 160//160 158//158
f 158//158 160//160 161//161
g 95117bc2-e2f0-11ea-a012-54bf646e7e1f
f 207//207 162//162 206//206
f 206//206 162//162 163//163
f 206//206 163//163 205//205
f 205//205 163//163 164//164
f 205//205 164//164 204//204
f 204//204 164//164 165//165
f 204//204 165//165 203//203
f 203//203 165//165 166//166
f 203//203 166//166 202//202
f 202//202 166//166 167//167
f 202//202 167//167 201//201
f 201//201 167//167 168//168
f 201//201 168//168 200//200
f 200//200 168//168 169//169
f 200//200 169//169 199//199
f 199//199 169//169 170//170
f 199//199 170//170 198//198
f 198//198 170//170 171//171
f 198//198 171//171 197//197
f 197//197 171//171 172//172
f 197//197 172//172 196//196
f 196//196 172//172 173//173
f 196//196 173//173 195//195
f 195//195 173//173 174//174
f 195//195 174//174 194//194
f 194//194 174//174 175//175
f 194//194 175//175 193//193
f 193//193 175//175 176//176
f 193//193 176//176 192//192
f 192//192 176//176 177//177
f 192//192 177//177 191//191
f 191//191 177//177 178//178
f 191//191 178//178 190//190
f 190//190 178//178 179//179
f 190//190 179//179 189//189
f 189//189 179//179 180//180
f 189//189 180//180 188//188
f 188//188 180//180 181//181
f 188//188 181//181 187//187
f 187//187 181//181 182//182
f 187//187 182//182 186//186
f 186//186 182//182 183//183
f 186//186 183//183 185//185
f 185//185 183//183 184//184
g 9511f098-e2f0-11ea-a60e-54bf646e7e1f
f 209//209 223//223 208//208
f 208//208 223//223 224//224
f 208//208 224//224 225//225
f 210//210 213//213 209//209
f 209//209 213//213 214//214
f 209//209 214//214 215//215
f 211//211 238//238 210//210
f 210//210 238//238 212//212
f 210//210 212//212 213//213
f 208//208 233//233 211//211
f 211//211 233//233 234//234
f 211//211 234//234 235//235
f 215//215 216//216 209//209
f 209//209 216//216 217//217
f 209//209 217//217 218//218
f 218//218 219//219 209//209
f 209//209 219//219 220//220
f 209//209 220//220 221//221
f 221//221 222//222 209//209
f 209//209 222//222 223//223
f 225//225 226//226 208//208
f 208//208 226//226 227//227
f 208//208 227//227 228//228
f 228//228 229//229 208//208
f 208//208 229//229 230//230
f 208//208 230//230 231//231
f 231//231 232//232 208//208
f 208//208 232//232 233//233
f 211//211 235//235 238//238
f 238//238 235//235 236//236
f 238//238 236//236 237//237

# End of file