# WaveFront *.obj file
# Vertices: 124
# Triangles : 112

v 0.0 3.0 -8.0
v 0.0 0.0 -8.0
v -9.0 0.0 -8.0
v -9.0 3.0 -8.0
v 0.0 1.5 10.0
v 0.0 1.7543617486953735 9.573636054992676
v 0.0 1.9646174907684326 9.126456260681152
v 0.0 2.135122776031494 8.659317970275879
v 0.0 2.2723639011383057 8.173519134521484
v 0.0 2.384291887283325 7.670689582824707
v 0.0 2.479663133621216 7.152686595916748
v 0.0 2.6561286449432373 6.07913875579834
v 0.0 2.8643500804901123 4.96857213973999
v 0.0 3.139752149581909 3.8341574668884277
v 0.0 3.4812183380126953 2.6848905086517334
v 0.0 3.8579654693603516 1.525967001914978
v 0.0 4.221583366394043 0.3598176836967468
v 0.0 4.381208419799805 -0.2257358729839325
v 0.0 4.517011642456055 -0.8129632472991943
v 0.0 4.622969150543213 -1.4019180536270142
v 0.0 4.693994998931885 -1.992654800415039
v 0.0 4.726114749908447 -2.5852110385894775
v 0.0 4.716413497924805 -3.1796038150787354
v 0.0 4.662833213806152 -3.7758376598358154
v 0.0 4.564004421234131 -4.37390661239624
v 0.0 4.419126510620117 -4.973799228668213
v 0.0 4.227842330932617 -5.575498104095459
v 0.0 3.990110158920288 -6.178983688354492
v 0.0 3.706076145172119 -6.784238815307617
v 0.0 3.3759701251983643 -7.391247749328613
v 0.0 3.0 -8.0
v -9.0 3.0 -8.0
v -9.0 3.3759701251983643 -7.391247749328613
v -9.0 3.706076145172119 -6.784238815307617
v -9.0 3.990110158920288 -6.178983688354492
v -9.0 4.227842330932617 -5.575498104095459
v -9.0 4.419126510620117 -4.973799228668213
v -9.0 4.564004421234131 -4.37390661239624
v -9.0 4.662833213806152 -3.7758376598358154
v -9.0 4.716413497924805 -3.1796038150787354
v -9.0 4.726114749908447 -2.5852110385894775
v -9.0 4.693994998931885 -1.992654800415039
v -9.0 4.622969150543213 -1.4019180536270142
v -9.0 4.517011642456055 -0.8129632472991943
v -9.0 4.381208419799805 -0.2257358729839325
v -9.0 4.221583366394043 0.3598176836967468
v -9.0 3.8579654693603516 1.525967001914978
v -9.0 3.4812183380126953 2.6848905086517334
v -9.0 3.139752149581909 3.8341574668884277
v -9.0 2.8643500804901123 4.96857213973999
v -9.0 2.6561286449432373 6.07913875579834
v -9.0 2.479663133621216 7.152686595916748
v -9.0 2.384291887283325 7.670689582824707
v -9.0 2.2723639011383057 8.173519134521484
v -9.0 2.135122776031494 8.659317970275879
v -9.0 1.9646174907684326 9.126456260681152
v -9.0 1.7543617486953735 9.573636054992676
v -9.0 1.5 10.0
v 0.0 0.0 10.0
v 0.0 1.5 10.0
v -9.0 1.5 10.0
v -9.0 0.0 10.0
v 0.0 0.0 -8.0
v 0.0 0.0 10.0
v -9.0 0.0 10.0
v -9.0 0.0 -8.0
v 0.0 0.0 10.0
v 0.0 0.0 -8.0
v 0.0 3.0 -8.0
v 0.0 3.3759701251983643 -7.391247749328613
v 0.0 3.706076145172119 -6.784238815307617
v 0.0 3.990110158920288 -6.178983688354492
v 0.0 4.227842330932617 -5.575498104095459
v 0.0 4.419126510620117 -4.973799228668213
v 0.0 4.564004421234131 -4.37390661239624
v 0.0 4.662833213806152 -3.7758376598358154
v 0.0 4.716413497924805 -3.1796038150787354
v 0.0 4.726114749908447 -2.5852110385894775
v 0.0 4.693994998931885 -1.992654800415039
v 0.0 4.622969150543213 -1.4019180536270142
v 0.0 4.517011642456055 -0.8129632472991943
v 0.0 4.381208419799805 -0.2257358729839325
v 0.0 4.221583366394043 0.3598176836967468
v 0.0 3.8579654693603516 1.525967001914978
v 0.0 3.4812183380126953 2.6848905086517334
v 0.0 3.139752149581909 3.8341574668884277
v 0.0 2.8643500804901123 4.96857213973999
v 0.0 2.6561286449432373 6.07913875579834
v 0.0 2.479663133621216 7.152686595916748
v 0.0 2.384291887283325 7.670689582824707
v 0.0 2.2723639011383057 8.173519134521484
v 0.0 2.135122776031494 8.659317970275879
v 0.0 1.9646174907684326 9.126456260681152
v 0.0 1.7543617486953735 9.573636054992676
v 0.0 1.5 10.0
v -9.0 0.0 -8.0
v -9.0 0.0 10.0
v -9.0 1.5 10.0
v -9.0 1.7543617486953735 9.573636054992676
v -9.0 1.9646174907684326 9.126456260681152
v -9.0 2.135122776031494 8.659317970275879
v -9.0 2.2723639011383057 8.173519134521484
v -9.0 2.384291887283325 7.670689582824707
v -9.0 2.479663133621216 7.152686595916748
v -9.0 2.6561286449432373 6.07913875579834
v -9.0 2.8643500804901123 4.96857213973999
v -9.0 3.139752149581909 3.8341574668884277
v -9.0 3.4812183380126953 2.6848905086517334
v -9.0 3.8579654693603516 1.525967001914978
v -9.0 4.221583366394043 0.3598176836967468
v -9.0 4.381208419799805 -0.2257358729839325
v -9.0 4.517011642456055 -0.8129632472991943
v -9.0 4.622969150543213 -1.4019180536270142
v -9.0 4.693994998931885 -1.992654800415039
v -9.0 4.726114749908447 -2.5852110385894775
v -9.0 4.716413497924805 -3.1796038150787354
v -9.0 4.662833213806152 -3.7758376598358154
v -9.0 4.564004421234131 -4.37390661239624
v -9.0 4.419126510620117 -4.973799228668213
v -9.0 4.227842330932617 -5.575498104095459
v -9.0 3.990110158920288 -6.178983688354492
v -9.0 3.706076145172119 -6.784238815307617
v -9.0 3.3759701251983643 -7.391247749328613
v -9.0 3.0 -8.0
vn 0.0 0.0 -1.0
vn 0.0 0.0 -1.0
vn 0.0 0.0 -1.0
vn 0.0 0.0 -1.0
vn 0.0 0.8320503234863281 0.5547001957893372
vn 0.0 0.883362889289856 0.4686897099018097
vn 0.0 0.923866868019104 0.38271406292915344
vn 0.0 0.9523668885231018 0.30495452880859375
vn 0.0 0.9703642725944519 0.24164681136608124
vn 0.0 0.9805782437324524 0.19612838327884674
vn 0.0 0.9855908155441284 0.16914722323417664
vn 0.0 0.9862266778945923 0.1653994470834732
vn 0.0 0.9781574606895447 0.20786543190479279
vn 0.0 0.9648059606552124 0.2629629075527191
vn 0.0 0.9532438516616821 0.30220213532447815
vn 0.0 0.9507251977920532 0.3100348114967346
vn 0.0 0.9605299234390259 0.27817678451538086
vn 0.0 0.9692848920822144 0.2459406703710556
vn 0.0 0.9792135953903198 0.20283180475234985
vn 0.0 0.9887450933456421 0.14960993826389313
vn 0.0 0.9961391687393188 0.08778834342956543
vn 0.0 0.9998084902763367 0.019570359960198402
vn 0.0 0.9986154437065125 -0.05260419100522995
vn 0.0 0.9919924736022949 -0.1262970268726349
vn 0.0 0.979957640171051 -0.1992058902978897
vn 0.0 0.9630352854728699 -0.2693752348423004
vn 0.0 0.9420841336250305 -0.3353765904903412
vn 0.0 0.9180963039398193 -0.39635732769966125
vn 0.0 0.892034649848938 -0.4519670605659485
vn 0.0 0.8647257089614868 -0.5022443532943726
vn 0.0 0.8368066549301147 -0.5474985241889954
vn 0.0 0.8368066549301147 -0.5474985241889954
vn 0.0 0.8647257089614868 -0.5022443532943726
vn 0.0 0.892034649848938 -0.4519670605659485
vn 0.0 0.9180963039398193 -0.39635732769966125
vn 0.0 0.9420841336250305 -0.3353765904903412
vn 0.0 0.9630352854728699 -0.2693752348423004
vn 0.0 0.979957640171051 -0.1992058902978897
vn 0.0 0.9919924736022949 -0.1262970268726349
vn 0.0 0.9986154437065125 -0.05260419100522995
vn 0.0 0.9998084902763367 0.019570359960198402
vn 0.0 0.9961391687393188 0.08778834342956543
vn 0.0 0.9887450933456421 0.14960993826389313
vn 0.0 0.9792135953903198 0.20283180475234985
vn 0.0 0.9692848920822144 0.2459406703710556
vn 0.0 0.9605299234390259 0.27817678451538086
vn 0.0 0.9507251977920532 0.3100348114967346
vn 0.0 0.9532438516616821 0.30220213532447815
vn 0.0 0.9648059606552124 0.2629629075527191
vn 0.0 0.9781574606895447 0.20786543190479279
vn 0.0 0.9862266778945923 0.1653994470834732
vn 0.0 0.9855908155441284 0.16914722323417664
vn 0.0 0.9805782437324524 0.19612838327884674
vn 0.0 0.9703642725944519 0.24164681136608124
vn 0.0 0.9523668885231018 0.30495452880859375
vn 0.0 0.923866868019104 0.38271406292915344
vn 0.0 0.883362889289856 0.4686897099018097
vn 0.0 0.8320503234863281 0.5547001957893372
vn 0.0 -0.0 1.0
vn 0.0 -0.0 1.0
vn 0.0 -0.0 1.0
vn 0.0 -0.0 1.0
vn -0.0 -1.0 -0.0
vn -0.0 -1.0 -0.0
vn -0.0 -1.0 -0.0
vn -0.0 -1.0 -0.0
vn 1.0 0.0 0.0
vn 1.0 0.0 0.0
vn 1.0 0.0 0.0
vn 1.0 0.0 0.0
vn 1.0 0.0 0.0
vn 1.0 0.0 0.0
vn 1.0 0.0 0.0
vn 1.0 0.0 0.0
vn 1.0 0.0 0.0
vn 1.0 0.0 0.0
vn 1.0 0.0 0.0
vn 1.0 0.0 0.0
vn 1.0 0.0 0.0
vn 1.0 0.0 0.0
vn 1.0 0.0 0.0
vn 1.0 0.0 0.0
vn 1.0 0.0 0.0
vn 1.0 0.0 0.0
vn 1.0 0.0 0.0
vn 1.0 0.0 0.0
vn 1.0 0.0 0.0
vn 1.0 0.0 0.0
vn 1.0 0.0 0.0
vn 1.0 0.0 0.0
vn 1.0 0.0 0.0
vn 1.0 0.0 0.0
vn 1.0 0.0 0.0
vn 1.0 0.0 0.0
vn 1.0 0.0 0.0
vn -1.0 -0.0 -0.0
vn -1.0 -0.0 -0.0
vn -1.0 -0.0 -0.0
vn -1.0 -0.0 -0.0
vn -1.0 -0.0 -0.0
vn -1.0 -0.0 -0.0
vn -1.0 -0.0 -0.0
vn -1.0 -0.0 -0.0
vn -1.0 -0.0 -0.0
vn -1.0 -0.0 -0.0
vn -1.0 -0.0 -0.0
vn -1.0 -0.0 -0.0
vn -1.0 -0.0 -0.0
vn -1.0 -0.0 -0.0
vn -1.0 -0.0 -0.0
vn -1.0 -0.0 -0.0
vn -1.0 -0.0 -0.0
vn -1.0 -0.0 -0.0
vn -1.0 -0.0 -0.0
vn -1.0 -0.0 -0.0
vn -1.0 -0.0 -0.0
vn -1.0 -0.0 -0.0
vn -1.0 -0.0 -0.0
vn -1.0 -0.0 -0.0
vn -1.0 -0.0 -0.0
vn -1.0 -0.0 -0.0
vn -1.0 -0.0 -0.0
vn -1.0 -0.0 -0.0
vn -1.0 -0.0 -0.0
g 779e4d4c-e2a0-11ea-a5f3-54bf646e7e1f
f 1//1 2//2 4//4
f 4//4 2//2 3//3
g 779e9aba-e2a0-11ea-bf46-54bf646e7e1f
f 5//5 6//6 58//58
f 58//58 6//6 57//57
f 57//57 6//6 7//7
f 57//57 7//7 56//56
f 56//56 7//7 8//8
f 56//56 8//8 55//55
f 55//55 8//8 9//9
f 55//55 9//9 54//54
f 54//54 9//9 10//10
f 54//54 10//10 53//53
f 53//53 10//10 11//11
f 53//53 11//11 52//52
f 52//52 11//11 12//12
f 52//52 12//12 51//51
f 51//51 12//12 13//13
f 51//51 13//13 50//50
f 50//50 13//13 14//14
f 50//50 14//14 49//49
f 49//49 14//14 15//15
f 49//49 15//15 48//48
f 48//48 15//15 16//16
f 48//48 16//16 47//47
f 47//47 16//16 17//17
f 47//47 17//17 46//46
f 46//46 17//17 18//18
f 46//46 18//18 45//45
f 45//45 18//18 19//19
f 45//45 19//19 44//44
f 44//44 19//19 20//20
f 44//44 20//20 43//43
f 43//43 20//20 21//21
f 43//43 21//21 42//42
f 42//42 21//21 22//22
f 42//42 22//22 41//41
f 41//41 22//22 23//23
f 41//41 23//23 40//40
f 40//40 23//23 24//24
f 40//40 24//24 39//39
f 39//39 24//24 25//25
f 39//39 25//25 38//38
f 38//38 25//25 26//26
f 38//38 26//26 37//37
f 37//37 26//26 27//27
f 37//37 27//27 36//36
f 36//36 27//27 28//28
f 36//36 28//28 35//35
f 35//35 28//28 29//29
f 35//35 29//29 34//34
f 34//34 29//29 30//30
f 34//34 30//30 33//33
f 33//33 30//30 31//31
f 33//33 31//31 32//32
g 779ec17a-e2a0-11ea-9d67-54bf646e7e1f
f 59//59 60//60 62//62
f 62//62 60//60 61//61
g 779f0f00-e2a0-11ea-a601-54bf646e7e1f
f 63//63 64//64 66//66
f 66//66 64//64 65//65
g 779f35c8-e2a0-11ea-97b7-54bf646e7e1f
f 67//67 68//68 95//95
f 95//95 68//68 88//88
f 95//95 88//88 94//94
f 94//94 88//88 89//89
f 94//94 89//89 90//90
f 69//69 86//86 68//68
f 68//68 86//86 87//87
f 68//68 87//87 88//88
f 86//86 69//69 85//85
f 85//85 69//69 70//70
f 85//85 70//70 84//84
f 84//84 70//70 71//71
f 84//84 71//71 72//72
f 84//84 72//72 83//83
f 83//83 72//72 73//73
f 83//83 73//73 82//82
f 82//82 73//73 74//74
f 82//82 74//74 81//81
f 81//81 74//74 80//80
f 80//80 74//74 75//75
f 80//80 75//75 79//79
f 79//79 75//75 76//76
f 79//79 76//76 78//78
f 78//78 76//76 77//77
f 90//90 91//91 94//94
f 94//94 91//91 93//93
f 93//93 91//91 92//92
g 779f834a-e2a0-11ea-b9d9-54bf646e7e1f
f 97//97 98//98 96//96
f 96//96 98//98 105//105
f 96//96 105//105 106//106
f 98//98 99//99 105//105
f 105//105 99//99 104//104
f 104//104 99//99 103//103
f 103//103 99//99 102//102
f 102//102 99//99 100//100
f 102//102 100//100 101//101
f 106//106 107//107 96//96
f 96//96 107//107 124//124
f 124//124 107//107 108//108
f 124//124 108//108 123//123
f 123//123 108//108 109//109
f 123//123 109//109 122//122
f 122//122 109//109 121//121
f 121//121 109//109 110//110
f 121//121 110//110 120//120
f 120//120 110//110 111//111
f 120//120 111//111 119//119
f 119//119 111//111 112//112
f 119//119 112//112 113//113
f 119//119 113//113 118//118
f 118//118 113//113 114//114
f 118//118 114//114 117//117
f 117//117 114//114 115//115
f 117//117 115//115 116//116

# End of file