# WaveFront *.obj file
# Vertices: 90
# Triangles : 84

v -0.30000001192092896 6.5 3.6739405577555036e-17
v -0.2878479063510895 6.5 -0.08451976627111435
v -0.2523760497570038 6.5 -0.162192240357399
v -0.19645822048187256 6.5 -0.22672487795352936
v -0.12462450563907623 6.5 -0.2728895843029022
v -0.04269445315003395 6.5 -0.2969464361667633
v 0.04269445315003395 6.5 -0.2969464361667633
v 0.12462450563907623 6.5 -0.2728895843029022
v 0.19645822048187256 6.5 -0.22672487795352936
v 0.2523760497570038 6.5 -0.162192240357399
v 0.2878479063510895 6.5 -0.08451976627111435
v 0.30000001192092896 6.5 0.0
v 0.2878479063510895 6.5 0.08451976627111435
v 0.2523760497570038 6.5 0.162192240357399
v 0.19645822048187256 6.5 0.22672487795352936
v 0.12462450563907623 6.5 0.2728895843029022
v 0.04269445315003395 6.5 0.2969464361667633
v -0.04269445315003395 6.5 0.2969464361667633
v -0.12462450563907623 6.5 0.2728895843029022
v -0.19645822048187256 6.5 0.22672487795352936
v -0.2523760497570038 6.5 0.162192240357399
v -0.2878479063510895 6.5 0.08451976627111435
v -0.30000001192092896 0.0 3.6739405577555036e-17
v -0.2878479063510895 0.0 0.08451976627111435
v -0.2523760497570038 0.0 0.162192240357399
v -0.19645822048187256 0.0 0.22672487795352936
v -0.12462450563907623 0.0 0.2728895843029022
v -0.04269445315003395 0.0 0.2969464361667633
v 0.04269445315003395 0.0 0.2969464361667633
v 0.12462450563907623 0.0 0.2728895843029022
v 0.19645822048187256 0.0 0.22672487795352936
v 0.2523760497570038 0.0 0.162192240357399
v 0.2878479063510895 0.0 0.08451976627111435
v 0.30000001192092896 0.0 0.0
v 0.2878479063510895 0.0 -0.08451976627111435
v 0.2523760497570038 0.0 -0.162192240357399
v 0.19645822048187256 0.0 -0.22672487795352936
v 0.12462450563907623 0.0 -0.2728895843029022
v 0.04269445315003395 0.0 -0.2969464361667633
v -0.04269445315003395 0.0 -0.2969464361667633
v -0.12462450563907623 0.0 -0.2728895843029022
v -0.19645822048187256 0.0 -0.22672487795352936
v -0.2523760497570038 0.0 -0.162192240357399
v -0.2878479063510895 0.0 -0.08451976627111435
v -0.30000001192092896 0.0 3.6739405577555036e-17
v -0.30000001192092896 6.5 3.6739405577555036e-17
v -0.30000001192092896 6.5 3.6739405577555036e-17
v -0.2878479063510895 6.5 0.08451976627111435
v -0.2523760497570038 6.5 0.162192240357399
v -0.19645822048187256 6.5 0.22672487795352936
v -0.12462450563907623 6.5 0.2728895843029022
v -0.04269445315003395 6.5 0.2969464361667633
v 0.04269445315003395 6.5 0.2969464361667633
v 0.12462450563907623 6.5 0.2728895843029022
v 0.19645822048187256 6.5 0.22672487795352936
v 0.2523760497570038 6.5 0.162192240357399
v 0.2878479063510895 6.5 0.08451976627111435
v 0.30000001192092896 6.5 0.0
v 0.2878479063510895 6.5 -0.08451976627111435
v 0.2523760497570038 6.5 -0.162192240357399
v 0.19645822048187256 6.5 -0.22672487795352936
v 0.12462450563907623 6.5 -0.2728895843029022
v 0.04269445315003395 6.5 -0.2969464361667633
v -0.04269445315003395 6.5 -0.2969464361667633
v -0.12462450563907623 6.5 -0.2728895843029022
v -0.19645822048187256 6.5 -0.22672487795352936
v -0.2523760497570038 6.5 -0.162192240357399
v -0.2878479063510895 6.5 -0.08451976627111435
v -0.30000001192092896 0.0 3.6739405577555036e-17
v -0.2878479063510895 0.0 -0.08451976627111435
v -0.2523760497570038 0.0 -0.162192240357399
v -0.19645822048187256 0.0 -0.22672487795352936
v -0.12462450563907623 0.0 -0.2728895843029022
v -0.04269445315003395 0.0 -0.2969464361667633
v 0.04269445315003395 0.0 -0.2969464361667633
v 0.12462450563907623 0.0 -0.2728895843029022
v 0.19645822048187256 0.0 -0.22672487795352936
v 0.2523760497570038 0.0 -0.162192240357399
v 0.2878479063510895 0.0 -0.08451976627111435
v 0.30000001192092896 0.0 0.0
v 0.2878479063510895 0.0 0.08451976627111435
v 0.2523760497570038 0.0 0.162192240357399
v 0.19645822048187256 0.0 0.22672487795352936
v 0.12462450563907623 0.0 0.2728895843029022
v 0.04269445315003395 0.0 0.2969464361667633
v -0.04269445315003395 0.0 0.2969464361667633
v -0.12462450563907623 0.0 0.2728895843029022
v -0.19645822048187256 0.0 0.22672487795352936
v -0.2523760497570038 0.0 0.162192240357399
v -0.2878479063510895 0.0 0.08451976627111435
vn -1.0 0.0 -1.2246468525851679e-16
vn -0.9594929814338684 0.0 -0.28173255920410156
vn -0.8412535190582275 0.0 -0.5406408309936523
vn -0.6548607349395752 0.0 -0.7557495832443237
vn -0.4154150187969208 0.0 -0.9096319675445557
vn -0.1423148363828659 0.0 -0.9898214340209961
vn 0.1423148363828659 -0.0 -0.9898214340209961
vn 0.4154150187969208 -0.0 -0.9096319675445557
vn 0.6548607349395752 -0.0 -0.7557495832443237
vn 0.8412535190582275 -0.0 -0.5406408309936523
vn 0.9594929814338684 -0.0 -0.28173255920410156
vn 1.0 -0.0 -0.0
vn 0.9594929814338684 -0.0 0.28173255920410156
vn 0.8412535190582275 -0.0 0.5406408309936523
vn 0.6548607349395752 -0.0 0.7557495832443237
vn 0.4154150187969208 -0.0 0.9096319675445557
vn 0.1423148363828659 -0.0 0.9898214340209961
vn -0.1423148363828659 -0.0 0.9898214340209961
vn -0.4154150187969208 -0.0 0.9096319675445557
vn -0.6548607349395752 -0.0 0.7557495832443237
vn -0.8412535190582275 -0.0 0.5406408309936523
vn -0.9594929814338684 -0.0 0.28173255920410156
vn -1.0 -0.0 1.2246468525851679e-16
vn -0.9594929814338684 -0.0 0.28173255920410156
vn -0.8412535190582275 -0.0 0.5406408309936523
vn -0.6548607349395752 -0.0 0.7557495832443237
vn -0.4154150187969208 -0.0 0.9096319675445557
vn -0.1423148363828659 -0.0 0.9898214340209961
vn 0.1423148363828659 -0.0 0.9898214340209961
vn 0.4154150187969208 -0.0 0.9096319675445557
vn 0.6548607349395752 -0.0 0.7557495832443237
vn 0.8412535190582275 -0.0 0.5406408309936523
vn 0.9594929814338684 -0.0 0.28173255920410156
vn 1.0 -0.0 -0.0
vn 0.9594929814338684 -0.0 -0.28173255920410156
vn 0.8412535190582275 -0.0 -0.5406408309936523
vn 0.6548607349395752 -0.0 -0.7557495832443237
vn 0.4154150187969208 -0.0 -0.9096319675445557
vn 0.1423148363828659 -0.0 -0.9898214340209961
vn -0.1423148363828659 0.0 -0.9898214340209961
vn -0.4154150187969208 0.0 -0.9096319675445557
vn -0.6548607349395752 0.0 -0.7557495832443237
vn -0.8412535190582275 0.0 -0.5406408309936523
vn -0.9594929814338684 0.0 -0.28173255920410156
vn -1.0 0.0 -1.2246468525851679e-16
vn -1.0 -0.0 1.2246468525851679e-16
vn 0.0 1.0 0.0
vn 0.0 1.0 0.0
vn 0.0 1.0 0.0
vn 0.0 1.0 0.0
vn 0.0 1.0 0.0
vn 0.0 1.0 0.0
vn 0.0 1.0 0.0
vn 0.0 1.0 0.0
vn 0.0 1.0 0.0
vn 0.0 1.0 0.0
vn 0.0 1.0 0.0
vn 0.0 1.0 0.0
vn 0.0 1.0 0.0
vn 0.0 1.0 0.0
vn 0.0 1.0 0.0
vn 0.0 1.0 0.0
vn 0.0 1.0 0.0
vn 0.0 1.0 0.0
vn 0.0 1.0 0.0
vn 0.0 1.0 0.0
vn 0.0 1.0 0.0
vn 0.0 1.0 0.0
vn -0.0 -1.0 -0.0
vn -0.0 -1.0 -0.0
vn -0.0 -1.0 -0.0
vn -0.0 -1.0 -0.0
vn -0.0 -1.0 -0.0
vn -0.0 -1.0 -0.0
vn -0.0 -1.0 -0.0
vn -0.0 -1.0 -0.0
vn -0.0 -1.0 -0.0
vn -0.0 -1.0 -0.0
vn -0.0 -1.0 -0.0
vn -0.0 -1.0 -0.0
vn -0.0 -1.0 -0.0
vn -0.0 -1.0 -0.0
vn -0.0 -1.0 -0.0
vn -0.0 -1.0 -0.0
vn -0.0 -1.0 -0.0
vn -0.0 -1.0 -0.0
vn -0.0 -1.0 -0.0
vn -0.0 -1.0 -0.0
vn -0.0 -1.0 -0.0
vn -0.0 -1.0 -0.0
g 43407214-e2a2-11ea-ac8f-54bf646e7e1f
f 2//2 44//44 1//1
f 1//1 44//44 45//45
f 46//46 23//23 22//22
f 22//22 23//23 24//24
f 22//22 24//24 21//21
f 21//21 24//24 25//25
f 21//21 25//25 20//20
f 20//20 25//25 26//26
f 20//20 26//26 19//19
f 19//19 26//26 27//27
f 19//19 27//27 18//18
f 18//18 27//27 28//28
f 18//18 28//28 17//17
f 17//17 28//28 29//29
f 17//17 29//29 16//16
f 16//16 29//29 30//30
f 16//16 30//30 15//15
f 15//15 30//30 31//31
f 15//15 31//31 14//14
f 14//14 31//31 32//32
f 14//14 32//32 13//13
f 13//13 32//32 33//33
f 13//13 33//33 12//12
f 12//12 33//33 34//34
f 12//12 34//34 11//11
f 11//11 34//34 35//35
f 11//11 35//35 10//10
f 10//10 35//35 36//36
f 10//10 36//36 9//9
f 9//9 36//36 37//37
f 9//9 37//37 8//8
f 8//8 37//37 38//38
f 8//8 38//38 7//7
f 7//7 38//38 39//39
f 7//7 39//39 6//6
f 6//6 39//39 40//40
f 6//6 40//40 5//5
f 5//5 40//40 41//41
f 5//5 41//41 4//4
f 4//4 41//41 42//42
f 4//4 42//42 3//3
f 3//3 42//42 43//43
f 3//3 43//43 2//2
f 2//2 43//43 44//44
g 434972dc-e2a2-11ea-a83a-54bf646e7e1f
f 48//48 57//57 47//47
f 47//47 57//57 58//58
f 47//47 58//58 68//68
f 68//68 58//58 59//59
f 68//68 59//59 67//67
f 67//67 59//59 60//60
f 67//67 60//60 66//66
f 66//66 60//60 61//61
f 66//66 61//61 65//65
f 65//65 61//61 62//62
f 65//65 62//62 64//64
f 64//64 62//62 63//63
f 57//57 48//48 56//56
f 56//56 48//48 49//49
f 56//56 49//49 55//55
f 55//55 49//49 50//50
f 55//55 50//50 54//54
f 54//54 50//50 51//51
f 54//54 51//51 53//53
f 53//53 51//51 52//52
g 4352c17e-e2a2-11ea-aa0d-54bf646e7e1f
f 70//70 79//79 69//69
f 69//69 79//79 80//80
f 69//69 80//80 90//90
f 90//90 80//80 81//81
f 90//90 81//81 89//89
f 89//89 81//81 82//82
f 89//89 82//82 88//88
f 88//88 82//82 83//83
f 88//88 83//83 87//87
f 87//87 83//83 84//84
f 87//87 84//84 86//86
f 86//86 84//84 85//85
f 79//79 70//70 78//78
f 78//78 70//70 71//71
f 78//78 71//71 77//77
f 77//77 71//71 72//72
f 77//77 72//72 76//76
f 76//76 72//72 73//73
f 76//76 73//73 75//75
f 75//75 73//73 74//74

# End of file