# WaveFront *.obj file
# Vertices: 166
# Triangles : 156

v 0.0 0.0 0.4000000059604645
v 0.0 0.0 -0.4000000059604645
v 0.0 0.30000001192092896 -0.4000000059604645
v 0.0 0.30000001192092896 0.4000000059604645
v -4.400000095367432 0.0 0.4000000059604645
v 0.0 0.0 0.4000000059604645
v 0.0 0.30000001192092896 0.4000000059604645
v -4.400000095367432 0.30000001192092896 0.4000000059604645
v -4.599999904632568 0.30000001192092896 2.4492935397342132e-17
v -4.591114521026611 0.30000001192092896 -0.058951035141944885
v -4.565247535705566 0.30000001192092896 -0.11266401410102844
v -4.524697780609131 0.30000001192092896 -0.15636630356311798
v -4.4730682373046875 0.30000001192092896 -0.18617475032806396
v -4.41494607925415 0.30000001192092896 -0.19944076240062714
v -4.355495929718018 0.30000001192092896 -0.19498558342456818
v -4.300000190734863 0.30000001192092896 -0.17320507764816284
v -4.253389835357666 0.30000001192092896 -0.1360345482826233
v -4.21980619430542 0.30000001192092896 -0.0867767482995987
v -4.202233791351318 0.30000001192092896 -0.02980845235288143
v -4.202233791351318 0.30000001192092896 0.02980845235288143
v -4.21980619430542 0.30000001192092896 0.0867767482995987
v -4.253389835357666 0.30000001192092896 0.1360345482826233
v -4.300000190734863 0.30000001192092896 0.17320507764816284
v -4.355495929718018 0.30000001192092896 0.19498558342456818
v -4.41494607925415 0.30000001192092896 0.19944076240062714
v -4.4730682373046875 0.30000001192092896 0.18617475032806396
v -4.524697780609131 0.30000001192092896 0.15636630356311798
v -4.565247535705566 0.30000001192092896 0.11266401410102844
v -4.591114521026611 0.30000001192092896 0.058951035141944885
v 0.0 0.30000001192092896 -0.4000000059604645
v -4.400000095367432 0.30000001192092896 -0.4000000059604645
v -4.4831647872924805 0.30000001192092896 -0.3912590444087982
v -4.562694549560547 0.30000001192092896 -0.3654181957244873
v -4.6351141929626465 0.30000001192092896 -0.32360678911209106
v -4.697257995605469 0.30000001192092896 -0.2676522433757782
v -4.746410369873047 0.30000001192092896 -0.20000000298023224
v -4.780422687530518 0.30000001192092896 -0.12360680103302002
v -4.797808647155762 0.30000001192092896 -0.04181138426065445
v -4.797808647155762 0.30000001192092896 0.04181138426065445
v -4.780422687530518 0.30000001192092896 0.12360680103302002
v -4.746410369873047 0.30000001192092896 0.20000000298023224
v -4.697257995605469 0.30000001192092896 0.2676522433757782
v -4.6351141929626465 0.30000001192092896 0.32360678911209106
v -4.562694549560547 0.30000001192092896 0.3654181957244873
v -4.4831647872924805 0.30000001192092896 0.3912590444087982
v -4.400000095367432 0.30000001192092896 0.4000000059604645
v 0.0 0.30000001192092896 0.4000000059604645
v 0.0 0.0 -0.4000000059604645
v -4.400000095367432 0.0 -0.4000000059604645
v -4.400000095367432 0.30000001192092896 -0.4000000059604645
v 0.0 0.30000001192092896 -0.4000000059604645
v -4.400000095367432 0.0 -0.4000000059604645
v -4.4831647872924805 0.0 -0.3912590444087982
v -4.562694549560547 0.0 -0.3654181957244873
v -4.6351141929626465 0.0 -0.32360678911209106
v -4.697257995605469 0.0 -0.2676522433757782
v -4.746410369873047 0.0 -0.20000000298023224
v -4.780422687530518 0.0 -0.12360680103302002
v -4.797808647155762 0.0 -0.04181138426065445
v -4.797808647155762 0.0 0.04181138426065445
v -4.780422687530518 0.0 0.12360680103302002
v -4.746410369873047 0.0 0.20000000298023224
v -4.697257995605469 0.0 0.2676522433757782
v -4.6351141929626465 0.0 0.32360678911209106
v -4.562694549560547 0.0 0.3654181957244873
v -4.4831647872924805 0.0 0.3912590444087982
v -4.400000095367432 0.0 0.4000000059604645
v -4.400000095367432 0.30000001192092896 0.4000000059604645
v -4.4831647872924805 0.30000001192092896 0.3912590444087982
v -4.562694549560547 0.30000001192092896 0.3654181957244873
v -4.6351141929626465 0.30000001192092896 0.32360678911209106
v -4.697257995605469 0.30000001192092896 0.2676522433757782
v -4.746410369873047 0.30000001192092896 0.20000000298023224
v -4.780422687530518 0.30000001192092896 0.12360680103302002
v -4.797808647155762 0.30000001192092896 0.04181138426065445
v -4.797808647155762 0.30000001192092896 -0.04181138426065445
v -4.780422687530518 0.30000001192092896 -0.12360680103302002
v -4.746410369873047 0.30000001192092896 -0.20000000298023224
v -4.697257995605469 0.30000001192092896 -0.2676522433757782
v -4.6351141929626465 0.30000001192092896 -0.32360678911209106
v -4.562694549560547 0.30000001192092896 -0.3654181957244873
v -4.4831647872924805 0.30000001192092896 -0.3912590444087982
v -4.400000095367432 0.30000001192092896 -0.4000000059604645
v -4.599999904632568 0.30000001192092896 2.4492935397342132e-17
v -4.591114521026611 0.30000001192092896 0.058951035141944885
v -4.565247535705566 0.30000001192092896 0.11266401410102844
v -4.524697780609131 0.30000001192092896 0.15636630356311798
v -4.4730682373046875 0.30000001192092896 0.18617475032806396
v -4.41494607925415 0.30000001192092896 0.19944076240062714
v -4.355495929718018 0.30000001192092896 0.19498558342456818
v -4.300000190734863 0.30000001192092896 0.17320507764816284
v -4.253389835357666 0.30000001192092896 0.1360345482826233
v -4.21980619430542 0.30000001192092896 0.0867767482995987
v -4.202233791351318 0.30000001192092896 0.02980845235288143
v -4.202233791351318 0.30000001192092896 -0.02980845235288143
v -4.21980619430542 0.30000001192092896 -0.0867767482995987
v -4.253389835357666 0.30000001192092896 -0.1360345482826233
v -4.300000190734863 0.30000001192092896 -0.17320507764816284
v -4.355495929718018 0.30000001192092896 -0.19498558342456818
v -4.41494607925415 0.30000001192092896 -0.19944076240062714
v -4.4730682373046875 0.30000001192092896 -0.18617475032806396
v -4.524697780609131 0.30000001192092896 -0.15636630356311798
v -4.565247535705566 0.30000001192092896 -0.11266401410102844
v -4.591114521026611 0.30000001192092896 -0.058951035141944885
v -4.599999904632568 0.0 2.4492935397342132e-17
v -4.591114521026611 0.0 -0.058951035141944885
v -4.565247535705566 0.0 -0.11266401410102844
v -4.524697780609131 0.0 -0.15636630356311798
v -4.4730682373046875 0.0 -0.18617475032806396
v -4.41494607925415 0.0 -0.19944076240062714
v -4.355495929718018 0.0 -0.19498558342456818
v -4.300000190734863 0.0 -0.17320507764816284
v -4.253389835357666 0.0 -0.1360345482826233
v -4.21980619430542 0.0 -0.0867767482995987
v -4.202233791351318 0.0 -0.02980845235288143
v -4.202233791351318 0.0 0.02980845235288143
v -4.21980619430542 0.0 0.0867767482995987
v -4.253389835357666 0.0 0.1360345482826233
v -4.300000190734863 0.0 0.17320507764816284
v -4.355495929718018 0.0 0.19498558342456818
v -4.41494607925415 0.0 0.19944076240062714
v -4.4730682373046875 0.0 0.18617475032806396
v -4.524697780609131 0.0 0.15636630356311798
v -4.565247535705566 0.0 0.11266401410102844
v -4.591114521026611 0.0 0.058951035141944885
v -4.599999904632568 0.30000001192092896 2.4492935397342132e-17
v -4.599999904632568 0.0 2.4492935397342132e-17
v -4.599999904632568 0.0 2.4492935397342132e-17
v -4.591114521026611 0.0 0.058951035141944885
v -4.565247535705566 0.0 0.11266401410102844
v -4.524697780609131 0.0 0.15636630356311798
v -4.4730682373046875 0.0 0.18617475032806396
v -4.41494607925415 0.0 0.19944076240062714
v -4.355495929718018 0.0 0.19498558342456818
v -4.300000190734863 0.0 0.17320507764816284
v -4.253389835357666 0.0 0.1360345482826233
v -4.21980619430542 0.0 0.0867767482995987
v -4.202233791351318 0.0 0.02980845235288143
v -4.202233791351318 0.0 -0.02980845235288143
v -4.21980619430542 0.0 -0.0867767482995987
v -4.253389835357666 0.0 -0.1360345482826233
v -4.300000190734863 0.0 -0.17320507764816284
v -4.355495929718018 0.0 -0.19498558342456818
v -4.41494607925415 0.0 -0.19944076240062714
v -4.4730682373046875 0.0 -0.18617475032806396
v -4.524697780609131 0.0 -0.15636630356311798
v -4.565247535705566 0.0 -0.11266401410102844
v -4.591114521026611 0.0 -0.058951035141944885
v -4.400000095367432 0.0 -0.4000000059604645
v 0.0 0.0 -0.4000000059604645
v 0.0 0.0 0.4000000059604645
v -4.400000095367432 0.0 0.4000000059604645
v -4.4831647872924805 0.0 0.3912590444087982
v -4.562694549560547 0.0 0.3654181957244873
v -4.6351141929626465 0.0 0.32360678911209106
v -4.697257995605469 0.0 0.2676522433757782
v -4.746410369873047 0.0 0.20000000298023224
v -4.780422687530518 0.0 0.12360680103302002
v -4.797808647155762 0.0 0.04181138426065445
v -4.797808647155762 0.0 -0.04181138426065445
v -4.780422687530518 0.0 -0.12360680103302002
v -4.746410369873047 0.0 -0.20000000298023224
v -4.697257995605469 0.0 -0.2676522433757782
v -4.6351141929626465 0.0 -0.32360678911209106
v -4.562694549560547 0.0 -0.3654181957244873
v -4.4831647872924805 0.0 -0.3912590444087982
vn 1.0 0.0 0.0
vn 1.0 0.0 0.0
vn 1.0 0.0 0.0
vn 1.0 0.0 0.0
vn 0.0 -0.0 1.0
vn 0.0 -0.0 1.0
vn 0.0 -0.0 1.0
vn 0.0 -0.0 1.0
vn 0.0 1.0 0.0
vn 0.0 1.0 0.0
vn 0.0 1.0 0.0
vn 0.0 1.0 0.0
vn 0.0 1.0 0.0
vn 0.0 1.0 0.0
vn 0.0 1.0 0.0
vn 0.0 1.0 0.0
vn 0.0 1.0 0.0
vn 0.0 1.0 0.0
vn 0.0 1.0 0.0
vn 0.0 1.0 0.0
vn 0.0 1.0 0.0
vn 0.0 1.0 0.0
vn 0.0 1.0 0.0
vn 0.0 1.0 0.0
vn 0.0 1.0 0.0
vn 0.0 1.0 0.0
vn 0.0 1.0 0.0
vn 0.0 1.0 0.0
vn 0.0 1.0 0.0
vn 0.0 1.0 0.0
vn 0.0 1.0 0.0
vn 0.0 1.0 0.0
vn 0.0 1.0 0.0
vn 0.0 1.0 0.0
vn 0.0 1.0 0.0
vn 0.0 1.0 0.0
vn 0.0 1.0 0.0
vn 0.0 1.0 0.0
vn 0.0 1.0 0.0
vn 0.0 1.0 0.0
vn 0.0 1.0 0.0
vn 0.0 1.0 0.0
vn 0.0 1.0 0.0
vn 0.0 1.0 0.0
vn 0.0 1.0 0.0
vn 0.0 1.0 0.0
vn 0.0 1.0 0.0
vn 0.0 0.0 -1.0
vn 0.0 0.0 -1.0
vn 0.0 0.0 -1.0
vn 0.0 0.0 -1.0
vn -0.0 0.0 -1.0
vn -0.2079116851091385 0.0 -0.9781476259231567
vn -0.4067366421222687 0.0 -0.9135454297065735
vn -0.5877852439880371 0.0 -0.80901700258255
vn -0.7431448101997375 0.0 -0.6691306233406067
vn -0.8660253882408142 0.0 -0.5
vn -0.9510565400123596 0.0 -0.30901700258255005
vn -0.9945219159126282 0.0 -0.10452846437692642
vn -0.9945219159126282 -0.0 0.10452846437692642
vn -0.9510565400123596 -0.0 0.30901700258255005
vn -0.8660253882408142 -0.0 0.5
vn -0.7431448101997375 -0.0 0.6691306233406067
vn -0.5877852439880371 -0.0 0.80901700258255
vn -0.4067366421222687 -0.0 0.9135454297065735
vn -0.2079116851091385 -0.0 0.9781476259231567
vn -1.2246468525851679e-16 -0.0 1.0
vn -1.2246468525851679e-16 -0.0 1.0
vn -0.2079116851091385 -0.0 0.9781476259231567
vn -0.4067366421222687 -0.0 0.9135454297065735
vn -0.5877852439880371 -0.0 0.80901700258255
vn -0.7431448101997375 -0.0 0.6691306233406067
vn -0.8660253882408142 -0.0 0.5
vn -0.9510565400123596 -0.0 0.30901700258255005
vn -0.9945219159126282 -0.0 0.10452846437692642
vn -0.9945219159126282 0.0 -0.10452846437692642
vn -0.9510565400123596 0.0 -0.30901700258255005
vn -0.8660253882408142 0.0 -0.5
vn -0.7431448101997375 0.0 -0.6691306233406067
vn -0.5877852439880371 0.0 -0.80901700258255
vn -0.4067366421222687 0.0 -0.9135454297065735
vn -0.2079116851091385 0.0 -0.9781476259231567
vn -0.0 0.0 -1.0
vn 1.0 0.0 -1.2246468525851679e-16
vn 0.955572783946991 0.0 -0.29475516080856323
vn 0.826238751411438 0.0 -0.5633200407028198
vn 0.6234897971153259 0.0 -0.7818315029144287
vn 0.36534103751182556 0.0 -0.9308737516403198
vn 0.07473009079694748 0.0 -0.9972038269042969
vn -0.22252093255519867 0.0 -0.9749279022216797
vn -0.5 0.0 -0.8660253882408142
vn -0.7330518960952759 0.0 -0.6801727414131165
vn -0.9009688496589661 0.0 -0.4338837265968323
vn -0.9888308048248291 0.0 -0.1490422636270523
vn -0.9888308048248291 0.0 0.1490422636270523
vn -0.9009688496589661 0.0 0.4338837265968323
vn -0.7330518960952759 0.0 0.6801727414131165
vn -0.5 0.0 0.8660253882408142
vn -0.22252093255519867 0.0 0.9749279022216797
vn 0.07473009079694748 -0.0 0.9972038269042969
vn 0.36534103751182556 -0.0 0.9308737516403198
vn 0.6234897971153259 -0.0 0.7818315029144287
vn 0.826238751411438 -0.0 0.5633200407028198
vn 0.955572783946991 -0.0 0.29475516080856323
vn 1.0 -0.0 1.2246468525851679e-16
vn 0.955572783946991 -0.0 0.29475516080856323
vn 0.826238751411438 -0.0 0.5633200407028198
vn 0.6234897971153259 -0.0 0.7818315029144287
vn 0.36534103751182556 -0.0 0.9308737516403198
vn 0.07473009079694748 -0.0 0.9972038269042969
vn -0.22252093255519867 0.0 0.9749279022216797
vn -0.5 0.0 0.8660253882408142
vn -0.7330518960952759 0.0 0.6801727414131165
vn -0.9009688496589661 0.0 0.4338837265968323
vn -0.9888308048248291 0.0 0.1490422636270523
vn -0.9888308048248291 0.0 -0.1490422636270523
vn -0.9009688496589661 0.0 -0.4338837265968323
vn -0.7330518960952759 0.0 -0.6801727414131165
vn -0.5 0.0 -0.8660253882408142
vn -0.22252093255519867 0.0 -0.9749279022216797
vn 0.07473009079694748 0.0 -0.9972038269042969
vn 0.36534103751182556 0.0 -0.9308737516403198
vn 0.6234897971153259 0.0 -0.7818315029144287
vn 0.826238751411438 0.0 -0.5633200407028198
vn 0.955572783946991 0.0 -0.29475516080856323
vn 1.0 -0.0 1.2246468525851679e-16
vn 1.0 0.0 -1.2246468525851679e-16
vn -0.0 -1.0 -0.0
vn -0.0 -1.0 -0.0
vn -0.0 -1.0 -0.0
vn -0.0 -1.0 -0.0
vn -0.0 -1.0 -0.0
vn -0.0 -1.0 -0.0
vn -0.0 -1.0 -0.0
vn -0.0 -1.0 -0.0
vn -0.0 -1.0 -0.0
vn -0.0 -1.0 -0.0
vn -0.0 -1.0 -0.0
vn -0.0 -1.0 -0.0
vn -0.0 -1.0 -0.0
vn -0.0 -1.0 -0.0
vn -0.0 -1.0 -0.0
vn -0.0 -1.0 -0.0
vn -0.0 -1.0 -0.0
vn -0.0 -1.0 -0.0
vn -0.0 -1.0 -0.0
vn -0.0 -1.0 -0.0
vn -0.0 -1.0 -0.0
vn -0.0 -1.0 -0.0
vn -0.0 -1.0 -0.0
vn -0.0 -1.0 -0.0
vn -0.0 -1.0 -0.0
vn -0.0 -1.0 -0.0
vn -0.0 -1.0 -0.0
vn -0.0 -1.0 -0.0
vn -0.0 -1.0 -0.0
vn -0.0 -1.0 -0.0
vn -0.0 -1.0 -0.0
vn -0.0 -1.0 -0.0
vn -0.0 -1.0 -0.0
vn -0.0 -1.0 -0.0
vn -0.0 -1.0 -0.0
vn -0.0 -1.0 -0.0
vn -0.0 -1.0 -0.0
vn -0.0 -1.0 -0.0
vn -0.0 -1.0 -0.0
f 1//1 2//2 4//4
f 4//4 2//2 3//3
f 5//5 6//6 8//8
f 8//8 6//6 7//7
f 10//10 38//38 9//9
f 9//9 38//38 39//39
f 9//9 39//39 29//29
f 29//29 39//39 40//40
f 29//29 40//40 28//28
f 28//28 40//40 27//27
f 27//27 40//40 41//41
f 27//27 41//41 26//26
f 26//26 41//41 42//42
f 26//26 42//42 25//25
f 25//25 42//42 43//43
f 25//25 43//43 24//24
f 24//24 43//43 44//44
f 24//24 44//44 46//46
f 46//46 44//44 45//45
f 38//38 10//10 37//37
f 37//37 10//10 11//11
f 37//37 11//11 12//12
f 37//37 12//12 36//36
f 36//36 12//12 13//13
f 36//36 13//13 35//35
f 35//35 13//13 14//14
f 35//35 14//14 34//34
f 34//34 14//14 15//15
f 34//34 15//15 33//33
f 33//33 15//15 31//31
f 33//33 31//31 32//32
f 15//15 16//16 31//31
f 31//31 16//16 17//17
f 31//31 17//17 30//30
f 30//30 17//17 18//18
f 30//30 18//18 19//19
f 30//30 19//19 47//47
f 47//47 19//19 20//20
f 47//47 20//20 21//21
f 21//21 22//22 47//47
f 47//47 22//22 46//46
f 46//46 22//22 23//23
f 46//46 23//23 24//24
f 48//48 49//49 51//51
f 51//51 49//49 50//50
f 83//83 52//52 82//82
f 82//82 52//52 53//53
f 82//82 53//53 81//81
f 81//81 53//53 54//54
f 81//81 54//54 80//80
f 80//80 54//54 55//55
f 80//80 55//55 79//79
f 79//79 55//55 56//56
f 79//79 56//56 78//78
f 78//78 56//56 57//57
f 78//78 57//57 77//77
f 77//77 57//57 58//58
f 77//77 58//58 76//76
f 76//76 58//58 59//59
f 76//76 59//59 75//75
f 75//75 59//59 60//60
f 75//75 60//60 74//74
f 74//74 60//60 61//61
f 74//74 61//61 73//73
f 73//73 61//61 62//62
f 73//73 62//62 72//72
f 72//72 62//62 63//63
f 72//72 63//63 71//71
f 71//71 63//63 64//64
f 71//71 64//64 70//70
f 70//70 64//64 65//65
f 70//70 65//65 69//69
f 69//69 65//65 66//66
f 69//69 66//66 68//68
f 68//68 66//66 67//67
f 85//85 125//125 84//84
f 84//84 125//125 127//127
f 126//126 105//105 104//104
f 104//104 105//105 106//106
f 104//104 106//106 103//103
f 103//103 106//106 107//107
f 103//103 107//107 102//102
f 102//102 107//107 108//108
f 102//102 108//108 101//101
f 101//101 108//108 109//109
f 101//101 109//109 100//100
f 100//100 109//109 110//110
f 100//100 110//110 99//99
f 99//99 110//110 111//111
f 99//99 111//111 98//98
f 98//98 111//111 112//112
f 98//98 112//112 97//97
f 97//97 112//112 113//113
f 97//97 113//113 96//96
f 96//96 113//113 114//114
f 96//96 114//114 95//95
f 95//95 114//114 115//115
f 95//95 115//115 94//94
f 94//94 115//115 116//116
f 94//94 116//116 93//93
f 93//93 116//116 117//117
f 93//93 117//117 92//92
f 92//92 117//117 118//118
f 92//92 118//118 91//91
f 91//91 118//118 119//119
f 91//91 119//119 90//90
f 90//90 119//119 120//120
f 90//90 120//120 89//89
f 89//89 120//120 121//121
f 89//89 121//121 88//88
f 88//88 121//121 122//122
f 88//88 122//122 87//87
f 87//87 122//122 123//123
f 87//87 123//123 86//86
f 86//86 123//123 124//124
f 86//86 124//124 85//85
f 85//85 124//124 125//125
f 129//129 159//159 128//128
f 128//128 159//159 160//160
f 128//128 160//160 148//148
f 148//148 160//160 161//161
f 148//148 161//161 147//147
f 147//147 161//161 146//146
f 146//146 161//161 162//162
f 146//146 162//162 145//145
f 145//145 162//162 163//163
f 145//145 163//163 144//144
f 144//144 163//163 164//164
f 144//144 164//164 143//143
f 143//143 164//164 165//165
f 143//143 165//165 149//149
f 149//149 165//165 166//166
f 159//159 129//129 158//158
f 158//158 129//129 130//130
f 158//158 130//130 131//131
f 158//158 131//131 157//157
f 157//157 131//131 132//132
f 157//157 132//132 156//156
f 156//156 132//132 133//133
f 156//156 133//133 155//155
f 155//155 133//133 134//134
f 155//155 134//134 154//154
f 154//154 134//134 152//152
f 154//154 152//152 153//153
f 134//134 135//135 152//152
f 152//152 135//135 136//136
f 152//152 136//136 151//151
f 151//151 136//136 137//137
f 151//151 137//137 138//138
f 138//138 139//139 151//151
f 151//151 139//139 150//150
f 150//150 139//139 140//140
f 150//150 140//140 141//141
f 150//150 141//141 149//149
f 149//149 141//141 142//142
f 149//149 142//142 143//143

# End of file