# WaveFront *.obj file
# Vertices: 224
# Triangles : 212

v 0.0 0.0 -1.0
v 0.0 0.0 -3.5
v 0.0 1.0800000429153442 -3.5
v 0.0 1.0800000429153442 -1.0
v 0.0 0.0 1.0
v -0.1736481785774231 0.0 0.9848077297210693
v -0.3420201539993286 0.0 0.9396926164627075
v -0.5 0.0 0.8660253882408142
v -0.6427876353263855 0.0 0.7660444378852844
v -0.7660444378852844 0.0 0.6427876353263855
v -0.8660253882408142 0.0 0.5
v -0.9396926164627075 0.0 0.3420201539993286
v -0.9848077297210693 0.0 0.1736481785774231
v -1.0 0.0 -6.123234262925839e-17
v -0.9848077297210693 0.0 -0.1736481785774231
v -0.9396926164627075 0.0 -0.3420201539993286
v -0.8660253882408142 0.0 -0.5
v -0.7660444378852844 0.0 -0.6427876353263855
v -0.6427876353263855 0.0 -0.7660444378852844
v -0.5 0.0 -0.8660253882408142
v -0.3420201539993286 0.0 -0.9396926164627075
v -0.1736481785774231 0.0 -0.9848077297210693
v 0.0 0.0 -1.0
v 0.0 1.0800000429153442 -1.0
v -0.1736481785774231 1.0800000429153442 -0.9848077297210693
v -0.3420201539993286 1.0800000429153442 -0.9396926164627075
v -0.5 1.0800000429153442 -0.8660253882408142
v -0.6427876353263855 1.0800000429153442 -0.7660444378852844
v -0.7660444378852844 1.0800000429153442 -0.6427876353263855
v -0.8660253882408142 1.0800000429153442 -0.5
v -0.9396926164627075 1.0800000429153442 -0.3420201539993286
v -0.9848077297210693 1.0800000429153442 -0.1736481785774231
v -1.0 1.0800000429153442 -6.123234262925839e-17
v -0.9848077297210693 1.0800000429153442 0.1736481785774231
v -0.9396926164627075 1.0800000429153442 0.3420201539993286
v -0.8660253882408142 1.0800000429153442 0.5
v -0.7660444378852844 1.0800000429153442 0.6427876353263855
v -0.6427876353263855 1.0800000429153442 0.7660444378852844
v -0.5 1.0800000429153442 0.8660253882408142
v -0.3420201539993286 1.0800000429153442 0.9396926164627075
v -0.1736481785774231 1.0800000429153442 0.9848077297210693
v 0.0 1.0800000429153442 1.0
v 0.0 0.0 3.5
v 0.0 0.0 1.0
v 0.0 1.0800000429153442 1.0
v 0.0 1.0800000429153442 3.5
v 0.0 0.0 -3.5
v -0.3229392468929291 0.0 -3.485069513320923
v -0.6431233286857605 0.0 -3.44040584564209
v -0.957820475101471 0.0 -3.366389751434326
v -1.2643458843231201 0.0 -3.263652801513672
v -1.5600842237472534 0.0 -3.1330714225769043
v -1.842512607574463 0.0 -2.975759983062744
v -2.1092212200164795 0.0 -2.793060302734375
v -2.3579347133636475 0.0 -2.586531162261963
v -2.586531162261963 0.0 -2.3579347133636475
v -2.793060302734375 0.0 -2.1092212200164795
v -2.975759983062744 0.0 -1.842512607574463
v -3.1330714225769043 0.0 -1.5600842237472534
v -3.263652801513672 0.0 -1.2643458843231201
v -3.366389751434326 0.0 -0.957820475101471
v -3.44040584564209 0.0 -0.6431233286857605
v -3.485069513320923 0.0 -0.3229392468929291
v -3.5 0.0 -2.1431319258495947e-16
v -3.485069513320923 0.0 0.3229392468929291
v -3.44040584564209 0.0 0.6431233286857605
v -3.366389751434326 0.0 0.957820475101471
v -3.263652801513672 0.0 1.2643458843231201
v -3.1330714225769043 0.0 1.5600842237472534
v -2.975759983062744 0.0 1.842512607574463
v -2.793060302734375 0.0 2.1092212200164795
v -2.586531162261963 0.0 2.3579347133636475
v -2.3579347133636475 0.0 2.586531162261963
v -2.1092212200164795 0.0 2.793060302734375
v -1.842512607574463 0.0 2.975759983062744
v -1.5600842237472534 0.0 3.1330714225769043
v -1.2643458843231201 0.0 3.263652801513672
v -0.957820475101471 0.0 3.366389751434326
v -0.6431233286857605 0.0 3.44040584564209
v -0.3229392468929291 0.0 3.485069513320923
v 0.0 0.0 3.5
v 0.0 1.0800000429153442 3.5
v -0.3229392468929291 1.0800000429153442 3.485069513320923
v -0.6431233286857605 1.0800000429153442 3.44040584564209
v -0.957820475101471 1.0800000429153442 3.366389751434326
v -1.2643458843231201 1.0800000429153442 3.263652801513672
v -1.5600842237472534 1.0800000429153442 3.1330714225769043
v -1.842512607574463 1.0800000429153442 2.975759983062744
v -2.1092212200164795 1.0800000429153442 2.793060302734375
v -2.3579347133636475 1.0800000429153442 2.586531162261963
v -2.586531162261963 1.0800000429153442 2.3579347133636475
v -2.793060302734375 1.0800000429153442 2.1092212200164795
v -2.975759983062744 1.0800000429153442 1.842512607574463
v -3.1330714225769043 1.0800000429153442 1.5600842237472534
v -3.263652801513672 1.0800000429153442 1.2643458843231201
v -3.366389751434326 1.0800000429153442 0.957820475101471
v -3.44040584564209 1.0800000429153442 0.6431233286857605
v -3.485069513320923 1.0800000429153442 0.3229392468929291
v -3.5 1.0800000429153442 -2.1431319258495947e-16
v -3.485069513320923 1.0800000429153442 -0.3229392468929291
v -3.44040584564209 1.0800000429153442 -0.6431233286857605
v -3.366389751434326 1.0800000429153442 -0.957820475101471
v -3.263652801513672 1.0800000429153442 -1.2643458843231201
v -3.1330714225769043 1.0800000429153442 -1.5600842237472534
v -2.975759983062744 1.0800000429153442 -1.842512607574463
v -2.793060302734375 1.0800000429153442 -2.1092212200164795
v -2.586531162261963 1.0800000429153442 -2.3579347133636475
v -2.3579347133636475 1.0800000429153442 -2.586531162261963
v -2.1092212200164795 1.0800000429153442 -2.793060302734375
v -1.842512607574463 1.0800000429153442 -2.975759983062744
v -1.5600842237472534 1.0800000429153442 -3.1330714225769043
v -1.2643458843231201 1.0800000429153442 -3.263652801513672
v -0.957820475101471 1.0800000429153442 -3.366389751434326
v -0.6431233286857605 1.0800000429153442 -3.44040584564209
v -0.3229392468929291 1.0800000429153442 -3.485069513320923
v 0.0 1.0800000429153442 -3.5
v 0.0 1.0800000429153442 -3.5
v -0.3229392468929291 1.0800000429153442 -3.485069513320923
v -0.6431233286857605 1.0800000429153442 -3.44040584564209
v -0.957820475101471 1.0800000429153442 -3.366389751434326
v -1.2643458843231201 1.0800000429153442 -3.263652801513672
v -1.5600842237472534 1.0800000429153442 -3.1330714225769043
v -1.842512607574463 1.0800000429153442 -2.975759983062744
v -2.1092212200164795 1.0800000429153442 -2.793060302734375
v -2.3579347133636475 1.0800000429153442 -2.586531162261963
v -2.586531162261963 1.0800000429153442 -2.3579347133636475
v -2.793060302734375 1.0800000429153442 -2.1092212200164795
v -2.975759983062744 1.0800000429153442 -1.842512607574463
v -3.1330714225769043 1.0800000429153442 -1.5600842237472534
v -3.263652801513672 1.0800000429153442 -1.2643458843231201
v -3.366389751434326 1.0800000429153442 -0.957820475101471
v -3.44040584564209 1.0800000429153442 -0.6431233286857605
v -3.485069513320923 1.0800000429153442 -0.3229392468929291
v -3.5 1.0800000429153442 -2.1431319258495947e-16
v -3.485069513320923 1.0800000429153442 0.3229392468929291
v -3.44040584564209 1.0800000429153442 0.6431233286857605
v -3.366389751434326 1.0800000429153442 0.957820475101471
v -3.263652801513672 1.0800000429153442 1.2643458843231201
v -3.1330714225769043 1.0800000429153442 1.5600842237472534
v -2.975759983062744 1.0800000429153442 1.842512607574463
v -2.793060302734375 1.0800000429153442 2.1092212200164795
v -2.586531162261963 1.0800000429153442 2.3579347133636475
v -2.3579347133636475 1.0800000429153442 2.586531162261963
v -2.1092212200164795 1.0800000429153442 2.793060302734375
v -1.842512607574463 1.0800000429153442 2.975759983062744
v -1.5600842237472534 1.0800000429153442 3.1330714225769043
v -1.2643458843231201 1.0800000429153442 3.263652801513672
v -0.957820475101471 1.0800000429153442 3.366389751434326
v -0.6431233286857605 1.0800000429153442 3.44040584564209
v -0.3229392468929291 1.0800000429153442 3.485069513320923
v 0.0 1.0800000429153442 3.5
v 0.0 1.0800000429153442 1.0
v -0.1736481785774231 1.0800000429153442 0.9848077297210693
v -0.3420201539993286 1.0800000429153442 0.9396926164627075
v -0.5 1.0800000429153442 0.8660253882408142
v -0.6427876353263855 1.0800000429153442 0.7660444378852844
v -0.7660444378852844 1.0800000429153442 0.6427876353263855
v -0.8660253882408142 1.0800000429153442 0.5
v -0.9396926164627075 1.0800000429153442 0.3420201539993286
v -0.9848077297210693 1.0800000429153442 0.1736481785774231
v -1.0 1.0800000429153442 -6.123234262925839e-17
v -0.9848077297210693 1.0800000429153442 -0.1736481785774231
v -0.9396926164627075 1.0800000429153442 -0.3420201539993286
v -0.8660253882408142 1.0800000429153442 -0.5
v -0.7660444378852844 1.0800000429153442 -0.6427876353263855
v -0.6427876353263855 1.0800000429153442 -0.7660444378852844
v -0.5 1.0800000429153442 -0.8660253882408142
v -0.3420201539993286 1.0800000429153442 -0.9396926164627075
v -0.1736481785774231 1.0800000429153442 -0.9848077297210693
v 0.0 1.0800000429153442 -1.0
v 0.0 0.0 3.5
v -0.3229392468929291 0.0 3.485069513320923
v -0.6431233286857605 0.0 3.44040584564209
v -0.957820475101471 0.0 3.366389751434326
v -1.2643458843231201 0.0 3.263652801513672
v -1.5600842237472534 0.0 3.1330714225769043
v -1.842512607574463 0.0 2.975759983062744
v -2.1092212200164795 0.0 2.793060302734375
v -2.3579347133636475 0.0 2.586531162261963
v -2.586531162261963 0.0 2.3579347133636475
v -2.793060302734375 0.0 2.1092212200164795
v -2.975759983062744 0.0 1.842512607574463
v -3.1330714225769043 0.0 1.5600842237472534
v -3.263652801513672 0.0 1.2643458843231201
v -3.366389751434326 0.0 0.957820475101471
v -3.44040584564209 0.0 0.6431233286857605
v -3.485069513320923 0.0 0.3229392468929291
v -3.5 0.0 -2.1431319258495947e-16
v -3.485069513320923 0.0 -0.3229392468929291
v -3.44040584564209 0.0 -0.6431233286857605
v -3.366389751434326 0.0 -0.957820475101471
v -3.263652801513672 0.0 -1.2643458843231201
v -3.1330714225769043 0.0 -1.5600842237472534
v -2.975759983062744 0.0 -1.842512607574463
v -2.793060302734375 0.0 -2.1092212200164795
v -2.586531162261963 0.0 -2.3579347133636475
v -2.3579347133636475 0.0 -2.586531162261963
v -2.1092212200164795 0.0 -2.793060302734375
v -1.842512607574463 0.0 -2.975759983062744
v -1.5600842237472534 0.0 -3.1330714225769043
v -1.2643458843231201 0.0 -3.263652801513672
v -0.957820475101471 0.0 -3.366389751434326
v -0.6431233286857605 0.0 -3.44040584564209
v -0.3229392468929291 0.0 -3.485069513320923
v 0.0 0.0 -3.5
v 0.0 0.0 -1.0
v -0.1736481785774231 0.0 -0.9848077297210693
v -0.3420201539993286 0.0 -0.9396926164627075
v -0.5 0.0 -0.8660253882408142
v -0.6427876353263855 0.0 -0.7660444378852844
v -0.7660444378852844 0.0 -0.6427876353263855
v -0.8660253882408142 0.0 -0.5
v -0.9396926164627075 0.0 -0.3420201539993286
v -0.9848077297210693 0.0 -0.1736481785774231
v -1.0 0.0 -6.123234262925839e-17
v -0.9848077297210693 0.0 0.1736481785774231
v -0.9396926164627075 0.0 0.3420201539993286
v -0.8660253882408142 0.0 0.5
v -0.7660444378852844 0.0 0.6427876353263855
v -0.6427876353263855 0.0 0.7660444378852844
v -0.5 0.0 0.8660253882408142
v -0.3420201539993286 0.0 0.9396926164627075
v -0.1736481785774231 0.0 0.9848077297210693
v 0.0 0.0 1.0
vn 1.0 0.0 0.0
vn 1.0 0.0 0.0
vn 1.0 0.0 0.0
vn 1.0 0.0 0.0
vn 1.2246468525851679e-16 0.0 -1.0
vn 0.1736481785774231 0.0 -0.9848077297210693
vn 0.3420201539993286 0.0 -0.9396926164627075
vn 0.5 0.0 -0.8660253882408142
vn 0.6427876353263855 0.0 -0.7660444378852844
vn 0.7660444378852844 0.0 -0.6427876353263855
vn 0.8660253882408142 0.0 -0.5
vn 0.9396926164627075 0.0 -0.3420201539993286
vn 0.9848077297210693 0.0 -0.1736481785774231
vn 1.0 -0.0 6.123234262925839e-17
vn 0.9848077297210693 -0.0 0.1736481785774231
vn 0.9396926164627075 -0.0 0.3420201539993286
vn 0.8660253882408142 -0.0 0.5
vn 0.7660444378852844 -0.0 0.6427876353263855
vn 0.6427876353263855 -0.0 0.7660444378852844
vn 0.5 -0.0 0.8660253882408142
vn 0.3420201539993286 -0.0 0.9396926164627075
vn 0.1736481785774231 -0.0 0.9848077297210693
vn 0.0 -0.0 1.0
vn 0.0 -0.0 1.0
vn 0.1736481785774231 -0.0 0.9848077297210693
vn 0.3420201539993286 -0.0 0.9396926164627075
vn 0.5 -0.0 0.8660253882408142
vn 0.6427876353263855 -0.0 0.7660444378852844
vn 0.7660444378852844 -0.0 0.6427876353263855
vn 0.8660253882408142 -0.0 0.5
vn 0.9396926164627075 -0.0 0.3420201539993286
vn 0.9848077297210693 -0.0 0.1736481785774231
vn 1.0 -0.0 6.123234262925839e-17
vn 0.9848077297210693 0.0 -0.1736481785774231
vn 0.9396926164627075 0.0 -0.3420201539993286
vn 0.8660253882408142 0.0 -0.5
vn 0.7660444378852844 0.0 -0.6427876353263855
vn 0.6427876353263855 0.0 -0.7660444378852844
vn 0.5 0.0 -0.8660253882408142
vn 0.3420201539993286 0.0 -0.9396926164627075
vn 0.1736481785774231 0.0 -0.9848077297210693
vn 1.2246468525851679e-16 0.0 -1.0
vn 1.0 0.0 0.0
vn 1.0 0.0 0.0
vn 1.0 0.0 0.0
vn 1.0 0.0 0.0
vn -0.0 0.0 -1.0
vn -0.09226836264133453 0.0 -0.9957341551780701
vn -0.1837495118379593 0.0 -0.9829730987548828
vn -0.2736629843711853 0.0 -0.9618256688117981
vn -0.3612416684627533 0.0 -0.9324722290039062
vn -0.4457383453845978 0.0 -0.8951632976531982
vn -0.5264321565628052 0.0 -0.8502171635627747
vn -0.602634608745575 0.0 -0.7980172038078308
vn -0.6736956238746643 0.0 -0.739008903503418
vn -0.739008903503418 0.0 -0.6736956238746643
vn -0.7980172038078308 0.0 -0.602634608745575
vn -0.8502171635627747 0.0 -0.5264321565628052
vn -0.8951632976531982 0.0 -0.4457383453845978
vn -0.9324722290039062 0.0 -0.3612416684627533
vn -0.9618256688117981 0.0 -0.2736629843711853
vn -0.9829730987548828 0.0 -0.1837495118379593
vn -0.9957341551780701 0.0 -0.09226836264133453
vn -1.0 0.0 -6.123234262925839e-17
vn -0.9957341551780701 -0.0 0.09226836264133453
vn -0.9829730987548828 -0.0 0.1837495118379593
vn -0.9618256688117981 -0.0 0.2736629843711853
vn -0.9324722290039062 -0.0 0.3612416684627533
vn -0.8951632976531982 -0.0 0.4457383453845978
vn -0.8502171635627747 -0.0 0.5264321565628052
vn -0.7980172038078308 -0.0 0.602634608745575
vn -0.739008903503418 -0.0 0.6736956238746643
vn -0.6736956238746643 -0.0 0.739008903503418
vn -0.602634608745575 -0.0 0.7980172038078308
vn -0.5264321565628052 -0.0 0.8502171635627747
vn -0.4457383453845978 -0.0 0.8951632976531982
vn -0.3612416684627533 -0.0 0.9324722290039062
vn -0.2736629843711853 -0.0 0.9618256688117981
vn -0.1837495118379593 -0.0 0.9829730987548828
vn -0.09226836264133453 -0.0 0.9957341551780701
vn -1.2246468525851679e-16 -0.0 1.0
vn -1.2246468525851679e-16 -0.0 1.0
vn -0.09226836264133453 -0.0 0.9957341551780701
vn -0.1837495118379593 -0.0 0.9829730987548828
vn -0.2736629843711853 -0.0 0.9618256688117981
vn -0.3612416684627533 -0.0 0.9324722290039062
vn -0.4457383453845978 -0.0 0.8951632976531982
vn -0.5264321565628052 -0.0 0.8502171635627747
vn -0.602634608745575 -0.0 0.7980172038078308
vn -0.6736956238746643 -0.0 0.739008903503418
vn -0.739008903503418 -0.0 0.6736956238746643
vn -0.7980172038078308 -0.0 0.602634608745575
vn -0.8502171635627747 -0.0 0.5264321565628052
vn -0.8951632976531982 -0.0 0.4457383453845978
vn -0.9324722290039062 -0.0 0.3612416684627533
vn -0.9618256688117981 -0.0 0.2736629843711853
vn -0.9829730987548828 -0.0 0.1837495118379593
vn -0.9957341551780701 -0.0 0.09226836264133453
vn -1.0 0.0 -6.123234262925839e-17
vn -0.9957341551780701 0.0 -0.09226836264133453
vn -0.9829730987548828 0.0 -0.1837495118379593
vn -0.9618256688117981 0.0 -0.2736629843711853
vn -0.9324722290039062 0.0 -0.3612416684627533
vn -0.8951632976531982 0.0 -0.4457383453845978
vn -0.8502171635627747 0.0 -0.5264321565628052
vn -0.7980172038078308 0.0 -0.602634608745575
vn -0.739008903503418 0.0 -0.6736956238746643
vn -0.6736956238746643 0.0 -0.739008903503418
vn -0.602634608745575 0.0 -0.7980172038078308
vn -0.5264321565628052 0.0 -0.8502171635627747
vn -0.4457383453845978 0.0 -0.8951632976531982
vn -0.3612416684627533 0.0 -0.9324722290039062
vn -0.2736629843711853 0.0 -0.9618256688117981
vn -0.1837495118379593 0.0 -0.9829730987548828
vn -0.09226836264133453 0.0 -0.9957341551780701
vn -0.0 0.0 -1.0
vn 0.0 1.0 0.0
vn 0.0 1.0 0.0
vn 0.0 1.0 0.0
vn 0.0 1.0 0.0
vn 0.0 1.0 0.0
vn 0.0 1.0 0.0
vn 0.0 1.0 0.0
vn 0.0 1.0 0.0
vn 0.0 1.0 0.0
vn 0.0 1.0 0.0
vn 0.0 1.0 0.0
vn 0.0 1.0 0.0
vn 0.0 1.0 0.0
vn 0.0 1.0 0.0
vn 0.0 1.0 0.0
vn 0.0 1.0 0.0
vn 0.0 1.0 0.0
vn 0.0 1.0 0.0
vn 0.0 1.0 0.0
vn 0.0 1.0 0.0
vn 0.0 1.0 0.0
vn 0.0 1.0 0.0
vn 0.0 1.0 0.0
vn 0.0 1.0 0.0
vn 0.0 1.0 0.0
vn 0.0 1.0 0.0
vn 0.0 1.0 0.0
vn 0.0 1.0 0.0
vn 0.0 1.0 0.0
vn 0.0 1.0 0.0
vn 0.0 1.0 0.0
vn 0.0 1.0 0.0
vn 0.0 1.0 0.0
vn 0.0 1.0 0.0
vn 0.0 1.0 0.0
vn 0.0 1.0 0.0
vn 0.0 1.0 0.0
vn 0.0 1.0 0.0
vn 0.0 1.0 0.0
vn 0.0 1.0 0.0
vn 0.0 1.0 0.0
vn 0.0 1.0 0.0
vn 0.0 1.0 0.0
vn 0.0 1.0 0.0
vn 0.0 1.0 0.0
vn 0.0 1.0 0.0
vn 0.0 1.0 0.0
vn 0.0 1.0 0.0
vn 0.0 1.0 0.0
vn 0.0 1.0 0.0
vn 0.0 1.0 0.0
vn 0.0 1.0 0.0
vn 0.0 1.0 0.0
vn 0.0 1.0 0.0
vn -0.0 -1.0 -0.0
vn -0.0 -1.0 -0.0
vn -0.0 -1.0 -0.0
vn -0.0 -1.0 -0.0
vn -0.0 -1.0 -0.0
vn -0.0 -1.0 -0.0
vn -0.0 -1.0 -0.0
vn -0.0 -1.0 -0.0
vn -0.0 -1.0 -0.0
vn -0.0 -1.0 -0.0
vn -0.0 -1.0 -0.0
vn -0.0 -1.0 -0.0
vn -0.0 -1.0 -0.0
vn -0.0 -1.0 -0.0
vn -0.0 -1.0 -0.0
vn -0.0 -1.0 -0.0
vn -0.0 -1.0 -0.0
vn -0.0 -1.0 -0.0
vn -0.0 -1.0 -0.0
vn -0.0 -1.0 -0.0
vn -0.0 -1.0 -0.0
vn -0.0 -1.0 -0.0
vn -0.0 -1.0 -0.0
vn -0.0 -1.0 -0.0
vn -0.0 -1.0 -0.0
vn -0.0 -1.0 -0.0
vn -0.0 -1.0 -0.0
vn -0.0 -1.0 -0.0
vn -0.0 -1.0 -0.0
vn -0.0 -1.0 -0.0
vn -0.0 -1.0 -0.0
vn -0.0 -1.0 -0.0
vn -0.0 -1.0 -0.0
vn -0.0 -1.0 -0.0
vn -0.0 -1.0 -0.0
vn -0.0 -1.0 -0.0
vn -0.0 -1.0 -0.0
vn -0.0 -1.0 -0.0
vn -0.0 -1.0 -0.0
vn -0.0 -1.0 -0.0
vn -0.0 -1.0 -0.0
vn -0.0 -1.0 -0.0
vn -0.0 -1.0 -0.0
vn -0.0 -1.0 -0.0
vn -0.0 -1.0 -0.0
vn -0.0 -1.0 -0.0
vn -0.0 -1.0 -0.0
vn -0.0 -1.0 -0.0
vn -0.0 -1.0 -0.0
vn -0.0 -1.0 -0.0
vn -0.0 -1.0 -0.0
vn -0.0 -1.0 -0.0
vn -0.0 -1.0 -0.0
vn -0.0 -1.0 -0.0
g 2161f80a-e2a2-11ea-8b2c-54bf646e7e1f
f 1//1 2//2 4//4
f 4//4 2//2 3//3
g 216e7b02-e2a2-11ea-9653-54bf646e7e1f
f 42//42 5//5 41//41
f 41//41 5//5 6//6
f 41//41 6//6 40//40
f 40//40 6//6 7//7
f 40//40 7//7 39//39
f 39//39 7//7 8//8
f 39//39 8//8 38//38
f 38//38 8//8 9//9
f 38//38 9//9 37//37
f 37//37 9//9 10//10
f 37//37 10//10 36//36
f 36//36 10//10 11//11
f 36//36 11//11 35//35
f 35//35 11//11 12//12
f 35//35 12//12 34//34
f 34//34 12//12 13//13
f 34//34 13//13 33//33
f 33//33 13//13 14//14
f 33//33 14//14 32//32
f 32//32 14//14 15//15
f 32//32 15//15 31//31
f 31//31 15//15 16//16
f 31//31 16//16 30//30
f 30//30 16//16 17//17
f 30//30 17//17 29//29
f 29//29 17//17 18//18
f 29//29 18//18 28//28
f 28//28 18//18 19//19
f 28//28 19//19 27//27
f 27//27 19//19 20//20
f 27//27 20//20 26//26
f 26//26 20//20 21//21
f 26//26 21//21 25//25
f 25//25 21//21 22//22
f 25//25 22//22 24//24
f 24//24 22//22 23//23
g 2179c58c-e2a2-11ea-a268-54bf646e7e1f
f 43//43 44//44 46//46
f 46//46 44//44 45//45
g 21851026-e2a2-11ea-bf0e-54bf646e7e1f
f 116//116 47//47 115//115
f 115//115 47//47 48//48
f 115//115 48//48 114//114
f 114//114 48//48 49//49
f 114//114 49//49 113//113
f 113//113 49//49 50//50
f 113//113 50//50 112//112
f 112//112 50//50 51//51
f 112//112 51//51 111//111
f 111//111 51//51 52//52
f 111//111 52//52 110//110
f 110//110 52//52 53//53
f 110//110 53//53 109//109
f 109//109 53//53 54//54
f 109//109 54//54 108//108
f 108//108 54//54 55//55
f 108//108 55//55 107//107
f 107//107 55//55 56//56
f 107//107 56//56 106//106
f 106//106 56//56 57//57
f 106//106 57//57 105//105
f 105//105 57//57 58//58
f 105//105 58//58 104//104
f 104//104 58//58 59//59
f 104//104 59//59 103//103
f 103//103 59//59 60//60
f 103//103 60//60 102//102
f 102//102 60//60 61//61
f 102//102 61//61 101//101
f 101//101 61//61 62//62
f 101//101 62//62 100//100
f 100//100 62//62 63//63
f 100//100 63//63 99//99
f 99//99 63//63 64//64
f 99//99 64//64 98//98
f 98//98 64//64 65//65
f 98//98 65//65 97//97
f 97//97 65//65 66//66
f 97//97 66//66 96//96
f 96//96 66//66 67//67
f 96//96 67//67 95//95
f 95//95 67//67 68//68
f 95//95 68//68 94//94
f 94//94 68//68 69//69
f 94//94 69//69 93//93
f 93//93 69//69 70//70
f 93//93 70//70 92//92
f 92//92 70//70 71//71
f 92//92 71//71 91//91
f 91//91 71//71 72//72
f 91//91 72//72 90//90
f 90//90 72//72 73//73
f 90//90 73//73 89//89
f 89//89 73//73 74//74
f 89//89 74//74 88//88
f 88//88 74//74 75//75
f 88//88 75//75 87//87
f 87//87 75//75 76//76
f 87//87 76//76 86//86
f 86//86 76//76 77//77
f 86//86 77//77 85//85
f 85//85 77//77 78//78
f 85//85 78//78 84//84
f 84//84 78//78 79//79
f 84//84 79//79 83//83
f 83//83 79//79 80//80
f 83//83 80//80 82//82
f 82//82 80//80 81//81
g 218e85d8-e2a2-11ea-84c1-54bf646e7e1f
f 170//170 117//117 169//169
f 169//169 117//117 118//118
f 169//169 118//118 168//168
f 168//168 118//118 119//119
f 168//168 119//119 167//167
f 167//167 119//119 120//120
f 167//167 120//120 166//166
f 166//166 120//120 121//121
f 166//166 121//121 165//165
f 165//165 121//121 164//164
f 164//164 121//121 122//122
f 164//164 122//122 123//123
f 164//164 123//123 163//163
f 163//163 123//123 124//124
f 163//163 124//124 162//162
f 162//162 124//124 125//125
f 162//162 125//125 126//126
f 162//162 126//126 161//161
f 161//161 126//126 127//127
f 161//161 127//127 128//128
f 128//128 129//129 161//161
f 161//161 129//129 130//130
f 161//161 130//130 131//131
f 131//131 132//132 161//161
f 161//161 132//132 133//133
f 161//161 133//133 134//134
f 134//134 135//135 161//161
f 161//161 135//135 136//136
f 161//161 136//136 137//137
f 137//137 138//138 161//161
f 161//161 138//138 139//139
f 161//161 139//139 140//140
f 140//140 141//141 161//161
f 161//161 141//141 142//142
f 161//161 142//142 160//160
f 160//160 142//142 143//143
f 160//160 143//143 144//144
f 160//160 144//144 159//159
f 159//159 144//144 145//145
f 159//159 145//145 158//158
f 158//158 145//145 146//146
f 158//158 146//146 147//147
f 148//148 156//156 147//147
f 147//147 156//156 157//157
f 147//147 157//157 158//158
f 156//156 148//148 155//155
f 155//155 148//148 149//149
f 155//155 149//149 154//154
f 154//154 149//149 150//150
f 154//154 150//150 153//153
f 153//153 150//150 151//151
f 153//153 151//151 152//152
g 2197387a-e2a2-11ea-add1-54bf646e7e1f
f 224//224 171//171 223//223
f 223//223 171//171 172//172
f 223//223 172//172 222//222
f 222//222 172//172 173//173
f 222//222 173//173 221//221
f 221//221 173//173 174//174
f 221//221 174//174 220//220
f 220//220 174//174 175//175
f 220//220 175//175 219//219
f 219//219 175//175 218//218
f 218//218 175//175 176//176
f 218//218 176//176 177//177
f 218//218 177//177 217//217
f 217//217 177//177 178//178
f 217//217 178//178 216//216
f 216//216 178//178 179//179
f 216//216 179//179 180//180
f 216//216 180//180 215//215
f 215//215 180//180 181//181
f 215//215 181//181 182//182
f 182//182 183//183 215//215
f 215//215 183//183 184//184
f 215//215 184//184 185//185
f 185//185 186//186 215//215
f 215//215 186//186 187//187
f 215//215 187//187 188//188
f 188//188 189//189 215//215
f 215//215 189//189 190//190
f 215//215 190//190 191//191
f 191//191 192//192 215//215
f 215//215 192//192 193//193
f 215//215 193//193 194//194
f 194//194 195//195 215//215
f 215//215 195//195 196//196
f 215//215 196//196 214//214
f 214//214 196//196 197//197
f 214//214 197//197 198//198
f 214//214 198//198 213//213
f 213//213 198//198 199//199
f 213//213 199//199 212//212
f 212//212 199//199 200//200
f 212//212 200//200 201//201
f 202//202 210//210 201//201
f 201//201 210//210 211//211
f 201//201 211//211 212//212
f 210//210 202//202 209//209
f 209//209 202//202 203//203
f 209//209 203//203 208//208
f 208//208 203//203 204//204
f 208//208 204//204 207//207
f 207//207 204//204 205//205
f 207//207 205//205 206//206

# End of file