# WaveFront *.obj file
# Vertices: 138
# Triangles : 120

v 5.5 0.15000000596046448 -0.5
v 0.0 0.15000000596046448 -0.5
v 0.0 0.8500000238418579 -0.5
v 5.5 0.8500000238418579 -0.5
v 5.5 -0.8500000238418579 0.0
v 5.5 0.8500000238418579 0.0
v 0.0 0.8500000238418579 0.0
v 0.0 -0.8500000238418579 0.0
v 0.0 0.8500000238418579 -0.5
v 0.0 0.8500000238418579 0.0
v 5.5 0.8500000238418579 0.0
v 5.5 0.8500000238418579 -0.5
v 2.5714681148529053 -0.8500000238418579 -2.25
v 2.584930658340454 -0.8500000238418579 -2.3436338901519775
v 2.624227523803711 -0.8500000238418579 -2.4296820163726807
v 2.6861751079559326 -0.8500000238418579 -2.501173257827759
v 2.7657549381256104 -0.8500000238418579 -2.552316188812256
v 2.8565196990966797 -0.8500000238418579 -2.5789670944213867
v 2.9511165618896484 -0.8500000238418579 -2.5789670944213867
v 3.0418813228607178 -0.8500000238418579 -2.552316188812256
v 3.1214611530303955 -0.8500000238418579 -2.501173257827759
v 3.183408737182617 -0.8500000238418579 -2.4296820163726807
v 3.222705602645874 -0.8500000238418579 -2.3436338901519775
v 3.236168146133423 -0.8500000238418579 -2.25
v 3.222705602645874 -0.8500000238418579 -2.1563661098480225
v 3.183408737182617 -0.8500000238418579 -2.0703179836273193
v 3.1214611530303955 -0.8500000238418579 -1.9988266229629517
v 3.0418813228607178 -0.8500000238418579 -1.9476838111877441
v 2.9511165618896484 -0.8500000238418579 -1.9210327863693237
v 2.8565196990966797 -0.8500000238418579 -1.9210327863693237
v 2.7657549381256104 -0.8500000238418579 -1.9476838111877441
v 2.6861751079559326 -0.8500000238418579 -1.9988266229629517
v 2.624227523803711 -0.8500000238418579 -2.0703179836273193
v 2.584930658340454 -0.8500000238418579 -2.1563661098480225
v 2.5714681148529053 0.15000000596046448 -2.25
v 2.584930658340454 0.15000000596046448 -2.1563661098480225
v 2.624227523803711 0.15000000596046448 -2.0703179836273193
v 2.6861751079559326 0.15000000596046448 -1.9988266229629517
v 2.7657549381256104 0.15000000596046448 -1.9476838111877441
v 2.8565196990966797 0.15000000596046448 -1.9210327863693237
v 2.9511165618896484 0.15000000596046448 -1.9210327863693237
v 3.0418813228607178 0.15000000596046448 -1.9476838111877441
v 3.1214611530303955 0.15000000596046448 -1.9988266229629517
v 3.183408737182617 0.15000000596046448 -2.0703179836273193
v 3.222705602645874 0.15000000596046448 -2.1563661098480225
v 3.236168146133423 0.15000000596046448 -2.25
v 3.222705602645874 0.15000000596046448 -2.3436338901519775
v 3.183408737182617 0.15000000596046448 -2.4296820163726807
v 3.1214611530303955 0.15000000596046448 -2.501173257827759
v 3.0418813228607178 0.15000000596046448 -2.552316188812256
v 2.9511165618896484 0.15000000596046448 -2.5789670944213867
v 2.8565196990966797 0.15000000596046448 -2.5789670944213867
v 2.7657549381256104 0.15000000596046448 -2.552316188812256
v 2.6861751079559326 0.15000000596046448 -2.501173257827759
v 2.624227523803711 0.15000000596046448 -2.4296820163726807
v 2.584930658340454 0.15000000596046448 -2.3436338901519775
v 2.5714681148529053 0.15000000596046448 -2.25
v 2.5714681148529053 -0.8500000238418579 -2.25
v 2.5714681148529053 0.15000000596046448 -2.25
v 2.584930658340454 0.15000000596046448 -2.3436338901519775
v 2.624227523803711 0.15000000596046448 -2.4296820163726807
v 2.6861751079559326 0.15000000596046448 -2.501173257827759
v 2.7657549381256104 0.15000000596046448 -2.552316188812256
v 2.8565196990966797 0.15000000596046448 -2.5789670944213867
v 2.9511165618896484 0.15000000596046448 -2.5789670944213867
v 3.0418813228607178 0.15000000596046448 -2.552316188812256
v 3.1214611530303955 0.15000000596046448 -2.501173257827759
v 3.183408737182617 0.15000000596046448 -2.4296820163726807
v 3.222705602645874 0.15000000596046448 -2.3436338901519775
v 3.236168146133423 0.15000000596046448 -2.25
v 3.222705602645874 0.15000000596046448 -2.1563661098480225
v 3.183408737182617 0.15000000596046448 -2.0703179836273193
v 3.1214611530303955 0.15000000596046448 -1.9988266229629517
v 3.0418813228607178 0.15000000596046448 -1.9476838111877441
v 2.9511165618896484 0.15000000596046448 -1.9210327863693237
v 2.8565196990966797 0.15000000596046448 -1.9210327863693237
v 2.7657549381256104 0.15000000596046448 -1.9476838111877441
v 2.6861751079559326 0.15000000596046448 -1.9988266229629517
v 2.624227523803711 0.15000000596046448 -2.0703179836273193
v 2.584930658340454 0.15000000596046448 -2.1563661098480225
v 5.5 0.15000000596046448 -4.0
v 0.0 0.15000000596046448 -4.0
v 0.0 0.15000000596046448 -0.5
v 5.5 0.15000000596046448 -0.5
v 2.5714681148529053 -0.8500000238418579 -2.25
v 2.584930658340454 -0.8500000238418579 -2.1563661098480225
v 2.624227523803711 -0.8500000238418579 -2.0703179836273193
v 2.6861751079559326 -0.8500000238418579 -1.9988266229629517
v 2.7657549381256104 -0.8500000238418579 -1.9476838111877441
v 2.8565196990966797 -0.8500000238418579 -1.9210327863693237
v 2.9511165618896484 -0.8500000238418579 -1.9210327863693237
v 3.0418813228607178 -0.8500000238418579 -1.9476838111877441
v 3.1214611530303955 -0.8500000238418579 -1.9988266229629517
v 3.183408737182617 -0.8500000238418579 -2.0703179836273193
v 3.222705602645874 -0.8500000238418579 -2.1563661098480225
v 3.236168146133423 -0.8500000238418579 -2.25
v 3.222705602645874 -0.8500000238418579 -2.3436338901519775
v 3.183408737182617 -0.8500000238418579 -2.4296820163726807
v 3.1214611530303955 -0.8500000238418579 -2.501173257827759
v 3.0418813228607178 -0.8500000238418579 -2.552316188812256
v 2.9511165618896484 -0.8500000238418579 -2.5789670944213867
v 2.8565196990966797 -0.8500000238418579 -2.5789670944213867
v 2.7657549381256104 -0.8500000238418579 -2.552316188812256
v 2.6861751079559326 -0.8500000238418579 -2.501173257827759
v 2.624227523803711 -0.8500000238418579 -2.4296820163726807
v 2.584930658340454 -0.8500000238418579 -2.3436338901519775
v 0.0 -0.8500000238418579 0.0
v 0.0 -0.8500000238418579 -4.5
v 5.5 -0.8500000238418579 -4.5
v 5.5 -0.8500000238418579 0.0
v 0.0 -0.8500000238418579 -4.5
v 0.0 0.8500000238418579 -4.5
v 5.5 0.8500000238418579 -4.5
v 5.5 -0.8500000238418579 -4.5
v 5.5 -0.8500000238418579 -4.5
v 5.5 0.8500000238418579 -4.5
v 5.5 0.8500000238418579 -4.0
v 5.5 0.15000000596046448 -4.0
v 5.5 0.15000000596046448 -0.5
v 5.5 0.8500000238418579 -0.5
v 5.5 0.8500000238418579 0.0
v 5.5 -0.8500000238418579 0.0
v 0.0 0.15000000596046448 -4.0
v 5.5 0.15000000596046448 -4.0
v 5.5 0.8500000238418579 -4.0
v 0.0 0.8500000238418579 -4.0
v 0.0 0.15000000596046448 -4.0
v 0.0 0.8500000238418579 -4.0
v 0.0 0.8500000238418579 -4.5
v 0.0 -0.8500000238418579 -4.5
v 0.0 -0.8500000238418579 0.0
v 0.0 0.8500000238418579 0.0
v 0.0 0.8500000238418579 -0.5
v 0.0 0.15000000596046448 -0.5
v 0.0 0.8500000238418579 -4.5
v 0.0 0.8500000238418579 -4.0
v 5.5 0.8500000238418579 -4.0
v 5.5 0.8500000238418579 -4.5
vn 0.0 0.0 -1.0
vn 0.0 0.0 -1.0
vn 0.0 0.0 -1.0
vn 0.0 0.0 -1.0
vn 0.0 0.0 1.0
vn 0.0 0.0 1.0
vn 0.0 0.0 1.0
vn 0.0 0.0 1.0
vn 0.0 1.0 0.0
vn 0.0 1.0 0.0
vn 0.0 1.0 0.0
vn 0.0 1.0 0.0
vn 1.0 -0.0 1.2246468525851679e-16
vn 0.9594929814338684 -0.0 0.28173255920410156
vn 0.8412535190582275 -0.0 0.5406408309936523
vn 0.6548607349395752 -0.0 0.7557495832443237
vn 0.4154150187969208 -0.0 0.9096319675445557
vn 0.1423148363828659 -0.0 0.9898214340209961
vn -0.1423148363828659 0.0 0.9898214340209961
vn -0.4154150187969208 0.0 0.9096319675445557
vn -0.6548607349395752 0.0 0.7557495832443237
vn -0.8412535190582275 0.0 0.5406408309936523
vn -0.9594929814338684 0.0 0.28173255920410156
vn -1.0 0.0 0.0
vn -0.9594929814338684 0.0 -0.28173255920410156
vn -0.8412535190582275 0.0 -0.5406408309936523
vn -0.6548607349395752 0.0 -0.7557495832443237
vn -0.4154150187969208 0.0 -0.9096319675445557
vn -0.1423148363828659 0.0 -0.9898214340209961
vn 0.1423148363828659 0.0 -0.9898214340209961
vn 0.4154150187969208 0.0 -0.9096319675445557
vn 0.6548607349395752 0.0 -0.7557495832443237
vn 0.8412535190582275 0.0 -0.5406408309936523
vn 0.9594929814338684 0.0 -0.28173255920410156
vn 1.0 0.0 -1.2246468525851679e-16
vn 0.9594929814338684 0.0 -0.28173255920410156
vn 0.8412535190582275 0.0 -0.5406408309936523
vn 0.6548607349395752 0.0 -0.7557495832443237
vn 0.4154150187969208 0.0 -0.9096319675445557
vn 0.1423148363828659 0.0 -0.9898214340209961
vn -0.1423148363828659 0.0 -0.9898214340209961
vn -0.4154150187969208 0.0 -0.9096319675445557
vn -0.6548607349395752 0.0 -0.7557495832443237
vn -0.8412535190582275 0.0 -0.5406408309936523
vn -0.9594929814338684 0.0 -0.28173255920410156
vn -1.0 0.0 0.0
vn -0.9594929814338684 0.0 0.28173255920410156
vn -0.8412535190582275 0.0 0.5406408309936523
vn -0.6548607349395752 0.0 0.7557495832443237
vn -0.4154150187969208 0.0 0.9096319675445557
vn -0.1423148363828659 0.0 0.9898214340209961
vn 0.1423148363828659 -0.0 0.9898214340209961
vn 0.4154150187969208 -0.0 0.9096319675445557
vn 0.6548607349395752 -0.0 0.7557495832443237
vn 0.8412535190582275 -0.0 0.5406408309936523
vn 0.9594929814338684 -0.0 0.28173255920410156
vn 1.0 -0.0 1.2246468525851679e-16
vn 1.0 0.0 -1.2246468525851679e-16
vn 0.0 1.0 0.0
vn 0.0 1.0 0.0
vn 0.0 1.0 0.0
vn 0.0 1.0 0.0
vn 0.0 1.0 0.0
vn 0.0 1.0 0.0
vn 0.0 1.0 0.0
vn 0.0 1.0 0.0
vn 0.0 1.0 0.0
vn 0.0 1.0 0.0
vn 0.0 1.0 0.0
vn 0.0 1.0 0.0
vn 0.0 1.0 0.0
vn 0.0 1.0 0.0
vn 0.0 1.0 0.0
vn 0.0 1.0 0.0
vn 0.0 1.0 0.0
vn 0.0 1.0 0.0
vn 0.0 1.0 0.0
vn 0.0 1.0 0.0
vn 0.0 1.0 0.0
vn 0.0 1.0 0.0
vn 0.0 1.0 0.0
vn 0.0 1.0 0.0
vn 0.0 1.0 0.0
vn 0.0 1.0 0.0
vn 0.0 -1.0 0.0
vn 0.0 -1.0 0.0
vn 0.0 -1.0 0.0
vn 0.0 -1.0 0.0
vn 0.0 -1.0 0.0
vn 0.0 -1.0 0.0
vn 0.0 -1.0 0.0
vn 0.0 -1.0 0.0
vn 0.0 -1.0 0.0
vn 0.0 -1.0 0.0
vn 0.0 -1.0 0.0
vn 0.0 -1.0 0.0
vn 0.0 -1.0 0.0
vn 0.0 -1.0 0.0
vn 0.0 -1.0 0.0
vn 0.0 -1.0 0.0
vn 0.0 -1.0 0.0
vn 0.0 -1.0 0.0
vn 0.0 -1.0 0.0
vn 0.0 -1.0 0.0
vn 0.0 -1.0 0.0
vn 0.0 -1.0 0.0
vn 0.0 -1.0 0.0
vn 0.0 -1.0 0.0
vn 0.0 -1.0 0.0
vn 0.0 -1.0 0.0
vn 0.0 0.0 -1.0
vn 0.0 0.0 -1.0
vn 0.0 0.0 -1.0
vn 0.0 0.0 -1.0
vn 1.0 -0.0 0.0
vn 1.0 -0.0 0.0
vn 1.0 -0.0 0.0
vn 1.0 -0.0 0.0
vn 1.0 -0.0 0.0
vn 1.0 -0.0 0.0
vn 1.0 -0.0 0.0
vn 1.0 -0.0 0.0
vn 0.0 0.0 1.0
vn 0.0 0.0 1.0
vn 0.0 0.0 1.0
vn 0.0 0.0 1.0
vn -1.0 0.0 0.0
vn -1.0 0.0 0.0
vn -1.0 0.0 0.0
vn -1.0 0.0 0.0
vn -1.0 0.0 0.0
vn -1.0 0.0 0.0
vn -1.0 0.0 0.0
vn -1.0 0.0 0.0
vn 0.0 1.0 0.0
vn 0.0 1.0 0.0
vn 0.0 1.0 0.0
vn 0.0 1.0 0.0
g 8f4700d4-e2a2-11ea-9bf9-54bf646e7e1f
f 1//1 2//2 4//4
f 4//4 2//2 3//3
g 8f4ad2e6-e2a2-11ea-911a-54bf646e7e1f
f 6//6 7//7 5//5
f 5//5 7//7 8//8
g 8f4e55cc-e2a2-11ea-a2f2-54bf646e7e1f
f 9//9 10//10 12//12
f 12//12 10//10 11//11
g 8fc5c77a-e2a2-11ea-8058-54bf646e7e1f
f 14//14 56//56 13//13
f 13//13 56//56 57//57
f 58//58 35//35 34//34
f 34//34 35//35 36//36
f 34//34 36//36 33//33
f 33//33 36//36 37//37
f 33//33 37//37 32//32
f 32//32 37//37 38//38
f 32//32 38//38 31//31
f 31//31 38//38 39//39
f 31//31 39//39 30//30
f 30//30 39//39 40//40
f 30//30 40//40 29//29
f 29//29 40//40 41//41
f 29//29 41//41 28//28
f 28//28 41//41 42//42
f 28//28 42//42 27//27
f 27//27 42//42 43//43
f 27//27 43//43 26//26
f 26//26 43//43 44//44
f 26//26 44//44 25//25
f 25//25 44//44 45//45
f 25//25 45//45 24//24
f 24//24 45//45 46//46
f 24//24 46//46 23//23
f 23//23 46//46 47//47
f 23//23 47//47 22//22
f 22//22 47//47 48//48
f 22//22 48//48 21//21
f 21//21 48//48 49//49
f 21//21 49//49 20//20
f 20//20 49//49 50//50
f 20//20 50//50 19//19
f 19//19 50//50 51//51
f 19//19 51//51 18//18
f 18//18 51//51 52//52
f 18//18 52//52 17//17
f 17//17 52//52 53//53
f 17//17 53//53 16//16
f 16//16 53//53 54//54
f 16//16 54//54 15//15
f 15//15 54//54 55//55
f 15//15 55//55 14//14
f 14//14 55//55 56//56
g 8fcbbc9c-e2a2-11ea-8eb7-54bf646e7e1f
f 60//60 82//82 59//59
f 59//59 82//82 83//83
f 59//59 83//83 80//80
f 80//80 83//83 79//79
f 79//79 83//83 78//78
f 78//78 83//83 77//77
f 77//77 83//83 76//76
f 76//76 83//83 84//84
f 76//76 84//84 75//75
f 75//75 84//84 74//74
f 74//74 84//84 73//73
f 73//73 84//84 72//72
f 72//72 84//84 71//71
f 71//71 84//84 70//70
f 70//70 84//84 81//81
f 70//70 81//81 69//69
f 69//69 81//81 68//68
f 68//68 81//81 67//67
f 67//67 81//81 66//66
f 66//66 81//81 65//65
f 65//65 81//81 64//64
f 64//64 81//81 82//82
f 64//64 82//82 63//63
f 63//63 82//82 62//62
f 62//62 82//82 61//61
f 61//61 82//82 60//60
g 8f396898-e2a2-11ea-8bfa-54bf646e7e1f
f 86//86 107//107 85//85
f 85//85 107//107 108//108
f 85//85 108//108 106//106
f 106//106 108//108 105//105
f 105//105 108//108 104//104
f 104//104 108//108 103//103
f 103//103 108//108 102//102
f 102//102 108//108 109//109
f 102//102 109//109 101//101
f 101//101 109//109 100//100
f 100//100 109//109 99//99
f 99//99 109//109 98//98
f 98//98 109//109 97//97
f 97//97 109//109 96//96
f 96//96 109//109 110//110
f 96//96 110//110 95//95
f 95//95 110//110 94//94
f 94//94 110//110 93//93
f 93//93 110//110 92//92
f 92//92 110//110 91//91
f 91//91 110//110 90//90
f 90//90 110//110 107//107
f 90//90 107//107 89//89
f 89//89 107//107 88//88
f 88//88 107//107 87//87
f 87//87 107//107 86//86
g 8f3b8c1c-e2a2-11ea-9169-54bf646e7e1f
f 112//112 113//113 111//111
f 111//111 113//113 114//114
g 8f3d6188-e2a2-11ea-8b44-54bf646e7e1f
f 116//116 118//118 115//115
f 115//115 118//118 119//119
f 115//115 119//119 122//122
f 122//122 119//119 121//121
f 121//121 119//119 120//120
f 116//116 117//117 118//118
g 8f3f36b6-e2a2-11ea-b8d3-54bf646e7e1f
f 123//123 124//124 126//126
f 126//126 124//124 125//125
g 8f410bee-e2a2-11ea-8d6c-54bf646e7e1f
f 128//128 129//129 127//127
f 127//127 129//129 130//130
f 127//127 130//130 131//131
f 127//127 131//131 134//134
f 134//134 131//131 132//132
f 134//134 132//132 133//133
g 8f430836-e2a2-11ea-abb8-54bf646e7e1f
f 135//135 136//136 138//138
f 138//138 136//136 137//137

# End of file