# WaveFront *.obj file
# Vertices: 48
# Triangles : 24

v -1.0 0.0 3.0
v -1.5 0.0 3.0
v -1.5 -2.5 3.0
v -1.0 -2.5 3.0
v -1.0 0.0 -2.5
v -1.0 0.0 3.0
v -1.0 -2.5 3.0
v -1.0 -2.5 -2.5
v -1.5 0.0 -2.5
v -1.0 0.0 -2.5
v -1.0 -2.5 -2.5
v -1.5 -2.5 -2.5
v -1.5 0.0 3.0
v -1.5 0.0 -2.5
v -1.5 -2.5 -2.5
v -1.5 -2.5 3.0
v -1.5 0.0 -2.5
v -1.5 0.0 3.0
v -1.0 0.0 3.0
v -1.0 0.0 -2.5
v -1.5 -2.5 3.0
v -1.5 -2.5 -2.5
v -1.0 -2.5 -2.5
v -1.0 -2.5 3.0
v 1.0 0.0 3.0
v 1.0 0.0 -2.5
v 1.0 -2.5 -2.5
v 1.0 -2.5 3.0
v 1.5 0.0 3.0
v 1.0 0.0 3.0
v 1.0 -2.5 3.0
v 1.5 -2.5 3.0
v 1.5 0.0 -2.5
v 1.5 0.0 3.0
v 1.5 -2.5 3.0
v 1.5 -2.5 -2.5
v 1.0 0.0 -2.5
v 1.5 0.0 -2.5
v 1.5 -2.5 -2.5
v 1.0 -2.5 -2.5
v 1.5 0.0 -2.5
v 1.0 0.0 -2.5
v 1.0 0.0 3.0
v 1.5 0.0 3.0
v 1.0 -2.5 -2.5
v 1.5 -2.5 -2.5
v 1.5 -2.5 3.0
v 1.0 -2.5 3.0
vn -0.0 0.0 1.0
vn -0.0 0.0 1.0
vn -0.0 0.0 1.0
vn -0.0 0.0 1.0
vn 1.0 0.0 0.0
vn 1.0 0.0 0.0
vn 1.0 0.0 0.0
vn 1.0 0.0 0.0
vn -0.0 -0.0 -1.0
vn -0.0 -0.0 -1.0
vn -0.0 -0.0 -1.0
vn -0.0 -0.0 -1.0
vn -1.0 0.0 0.0
vn -1.0 0.0 0.0
vn -1.0 0.0 0.0
vn -1.0 0.0 0.0
vn 0.0 1.0 0.0
vn 0.0 1.0 0.0
vn 0.0 1.0 0.0
vn 0.0 1.0 0.0
vn 0.0 -1.0 0.0
vn 0.0 -1.0 0.0
vn 0.0 -1.0 0.0
vn 0.0 -1.0 0.0
vn -1.0 -0.0 -0.0
vn -1.0 -0.0 -0.0
vn -1.0 -0.0 -0.0
vn -1.0 -0.0 -0.0
vn 0.0 0.0 1.0
vn 0.0 0.0 1.0
vn 0.0 0.0 1.0
vn 0.0 0.0 1.0
vn 1.0 0.0 -0.0
vn 1.0 0.0 -0.0
vn 1.0 0.0 -0.0
vn 1.0 0.0 -0.0
vn 0.0 0.0 -1.0
vn 0.0 0.0 -1.0
vn 0.0 0.0 -1.0
vn 0.0 0.0 -1.0
vn 0.0 1.0 0.0
vn 0.0 1.0 0.0
vn 0.0 1.0 0.0
vn 0.0 1.0 0.0
vn 0.0 -1.0 0.0
vn 0.0 -1.0 0.0
vn 0.0 -1.0 0.0
vn 0.0 -1.0 0.0
g ff63715c-e2a3-11ea-b338-54bf646e7e1f
f 1//1 2//2 4//4
f 4//4 2//2 3//3
g ff639878-e2a3-11ea-b255-54bf646e7e1f
f 5//5 6//6 8//8
f 8//8 6//6 7//7
g ff63bfa4-e2a3-11ea-94f1-54bf646e7e1f
f 9//9 10//10 12//12
f 12//12 10//10 11//11
g ff63e6b0-e2a3-11ea-93b3-54bf646e7e1f
f 13//13 14//14 16//16
f 16//16 14//14 15//15
g ff6434ca-e2a3-11ea-9fa9-54bf646e7e1f
f 18//18 19//19 17//17
f 17//17 19//19 20//20
g ff64aa18-e2a3-11ea-82ca-54bf646e7e1f
f 21//21 22//22 24//24
f 24//24 22//22 23//23
g ff64f82c-e2a3-11ea-8cdc-54bf646e7e1f
f 25//25 26//26 28//28
f 28//28 26//26 27//27
g ff654650-e2a3-11ea-853e-54bf646e7e1f
f 29//29 30//30 32//32
f 32//32 30//30 31//31
g ff659470-e2a3-11ea-baae-54bf646e7e1f
f 33//33 34//34 36//36
f 36//36 34//34 35//35
g ff660998-e2a3-11ea-83fe-54bf646e7e1f
f 37//37 38//38 40//40
f 40//40 38//38 39//39
g ff6657c2-e2a3-11ea-80c8-54bf646e7e1f
f 41//41 42//42 44//44
f 44//44 42//42 43//43
g ff66cd06-e2a3-11ea-ba81-54bf646e7e1f
f 46//46 47//47 45//45
f 45//45 47//47 48//48

# End of file