# WaveFront *.obj file
# Vertices: 24
# Triangles : 12

v -5.0 0.0 -5.0
v -5.0 0.0 50.0
v -5.0 40.0 50.0
v -5.0 40.0 -5.0
v 45.0 0.0 -5.0
v -5.0 0.0 -5.0
v -5.0 40.0 -5.0
v 45.0 40.0 -5.0
v 45.0 0.0 50.0
v 45.0 0.0 -5.0
v 45.0 40.0 -5.0
v 45.0 40.0 50.0
v -5.0 0.0 50.0
v 45.0 0.0 50.0
v 45.0 40.0 50.0
v -5.0 40.0 50.0
v -5.0 40.0 50.0
v 45.0 40.0 50.0
v 45.0 40.0 -5.0
v -5.0 40.0 -5.0
v 45.0 0.0 50.0
v -5.0 0.0 50.0
v -5.0 0.0 -5.0
v 45.0 0.0 -5.0
vn -1.0 0.0 0.0
vn -1.0 0.0 0.0
vn -1.0 0.0 0.0
vn -1.0 0.0 0.0
vn 0.0 0.0 -1.0
vn 0.0 0.0 -1.0
vn 0.0 0.0 -1.0
vn 0.0 0.0 -1.0
vn 1.0 0.0 0.0
vn 1.0 0.0 0.0
vn 1.0 0.0 0.0
vn 1.0 0.0 0.0
vn 0.0 -0.0 1.0
vn 0.0 -0.0 1.0
vn 0.0 -0.0 1.0
vn 0.0 -0.0 1.0
vn 0.0 1.0 0.0
vn 0.0 1.0 0.0
vn 0.0 1.0 0.0
vn 0.0 1.0 0.0
vn -0.0 -1.0 -0.0
vn -0.0 -1.0 -0.0
vn -0.0 -1.0 -0.0
vn -0.0 -1.0 -0.0
g c664c474-e2a7-11ea-8f5b-54bf646e7e1f
f 1//1 2//2 4//4
f 4//4 2//2 3//3
g c665fd26-e2a7-11ea-82a7-54bf646e7e1f
f 5//5 6//6 8//8
f 8//8 6//6 7//7
g c6670ea8-e2a7-11ea-bd4e-54bf646e7e1f
f 9//9 10//10 12//12
f 12//12 10//10 11//11
g c668205a-e2a7-11ea-9e81-54bf646e7e1f
f 13//13 14//14 16//16
f 16//16 14//14 15//15
g c6690aca-e2a7-11ea-89ac-54bf646e7e1f
f 18//18 19//19 17//17
f 17//17 19//19 20//20
g c66a1c8a-e2a7-11ea-95ba-54bf646e7e1f
f 21//21 22//22 24//24
f 24//24 22//22 23//23

# End of file