# WaveFront *.obj file
# Vertices: 128
# Triangles : 102

v -1.3228756189346313 -1.5 0.0
v -1.6887757778167725 -1.0714645385742188 0.0
v -1.9206186532974243 -0.5578746795654297 0.0
v -2.0 -2.4492937051703357e-16 0.0
v -1.9206186532974243 0.5578746795654297 0.0
v -1.6887757778167725 1.0714645385742188 0.0
v -1.3228756189346313 1.5 0.0
v -2.5 1.5 0.0
v -2.5 -1.5 0.0
v -2.5 -1.5 0.0
v -2.5 -1.5 -4.0
v -1.5 -1.5 -6.5
v 1.5 -1.5 -6.5
v 2.5 -1.5 -4.0
v 2.5 -1.5 0.0
v 1.3228756189346313 -1.5 0.0
v -1.3228756189346313 -1.5 0.0
v -2.5 -1.5 -4.0
v -2.5 1.5 -4.0
v -1.5 1.5 -6.5
v -1.5 -1.5 -6.5
v -1.5 -1.5 -6.5
v -1.5 1.5 -6.5
v 1.5 1.5 -6.5
v 1.5 -1.5 -6.5
v 1.5 -1.5 -6.5
v 1.5 1.5 -6.5
v 2.5 1.5 -4.0
v 2.5 -1.5 -4.0
v 2.5 -1.5 -4.0
v 2.5 1.5 -4.0
v 2.5 1.5 0.0
v 2.5 -1.5 0.0
v 1.3228756189346313 1.5 0.0
v 1.6887757778167725 1.0714645385742188 0.0
v 1.9206186532974243 0.5578746795654297 0.0
v 2.0 -2.220446049250313e-16 0.0
v 1.9206186532974243 -0.5578746795654297 0.0
v 1.6887757778167725 -1.0714645385742188 0.0
v 1.3228756189346313 -1.5 0.0
v 2.5 -1.5 0.0
v 2.5 1.5 0.0
v -2.5 -1.5 0.0
v -2.5 1.5 0.0
v -2.5 1.5 -4.0
v -2.5 -1.5 -4.0
v -2.5 1.5 -4.0
v -2.5 1.5 0.0
v -1.3228756189346313 1.5 0.0
v 1.3228756189346313 1.5 0.0
v 2.5 1.5 0.0
v 2.5 1.5 -4.0
v 1.5 1.5 -6.5
v -1.5 1.5 -6.5
v 1.3228756189346313 1.5 0.0
v -1.3228756189346313 1.5 0.0
v -0.840354323387146 1.8148841857910156 0.0
v -0.2880880534648895 1.9791425466537476 0.0
v 0.2880880534648895 1.9791425466537476 0.0
v 0.840354323387146 1.8148841857910156 0.0
v -2.0 -2.4492937051703357e-16 50.0
v -1.891634464263916 0.649398922920227 50.0
v -1.578281044960022 1.22842538356781 50.0
v -1.0938962697982788 1.6743329763412476 50.0
v -0.4909709692001343 1.938800573348999 50.0
v 0.1651586890220642 1.9931689500808716 50.0
v 0.8033908605575562 1.831546664237976 50.0
v 1.3545631170272827 1.4714478254318237 50.0
v 1.758947491645813 0.9518947601318359 50.0
v 1.9727226495742798 0.3291891813278198 50.0
v 1.9727226495742798 -0.3291891813278198 50.0
v 1.758947491645813 -0.9518947601318359 50.0
v 1.3545631170272827 -1.4714478254318237 50.0
v 0.8033908605575562 -1.831546664237976 50.0
v 0.1651586890220642 -1.9931689500808716 50.0
v -0.4909709692001343 -1.938800573348999 50.0
v -1.0938962697982788 -1.6743329763412476 50.0
v -1.578281044960022 -1.22842538356781 50.0
v -1.891634464263916 -0.649398922920227 50.0
v -1.3228756189346313 1.5 0.0
v -1.6887757778167725 1.0714645385742188 0.0
v -1.9206186532974243 0.5578746795654297 0.0
v -2.0 -2.4492937051703357e-16 0.0
v -1.9206186532974243 -0.5578746795654297 0.0
v -1.6887757778167725 -1.0714645385742188 0.0
v -1.3228756189346313 -1.5 0.0
v -0.840354323387146 -1.8148841857910156 0.0
v -0.2880880534648895 -1.9791425466537476 0.0
v 0.2880880534648895 -1.9791425466537476 0.0
v 0.840354323387146 -1.8148841857910156 0.0
v 1.3228756189346313 -1.5 0.0
v 1.6887757778167725 -1.0714645385742188 0.0
v 1.9206186532974243 -0.5578746795654297 0.0
v 2.0 -2.220446049250313e-16 0.0
v 1.9206186532974243 0.5578746795654297 0.0
v 1.6887757778167725 1.0714645385742188 0.0
v 1.3228756189346313 1.5 0.0
v 0.840354323387146 1.8148841857910156 0.0
v 0.2880880534648895 1.9791425466537476 0.0
v -0.2880880534648895 1.9791425466537476 0.0
v -0.840354323387146 1.8148841857910156 0.0
v -2.0 -2.4492937051703357e-16 0.0
v -2.0 -2.4492937051703357e-16 50.0
v -2.0 -2.4492937051703357e-16 50.0
v -1.891634464263916 -0.649398922920227 50.0
v -1.578281044960022 -1.22842538356781 50.0
v -1.0938962697982788 -1.6743329763412476 50.0
v -0.4909709692001343 -1.938800573348999 50.0
v 0.1651586890220642 -1.9931689500808716 50.0
v 0.8033908605575562 -1.831546664237976 50.0
v 1.3545631170272827 -1.4714478254318237 50.0
v 1.758947491645813 -0.9518947601318359 50.0
v 1.9727226495742798 -0.3291891813278198 50.0
v 1.9727226495742798 0.3291891813278198 50.0
v 1.758947491645813 0.9518947601318359 50.0
v 1.3545631170272827 1.4714478254318237 50.0
v 0.8033908605575562 1.831546664237976 50.0
v 0.1651586890220642 1.9931689500808716 50.0
v -0.4909709692001343 1.938800573348999 50.0
v -1.0938962697982788 1.6743329763412476 50.0
v -1.578281044960022 1.22842538356781 50.0
v -1.891634464263916 0.649398922920227 50.0
v -1.3228756189346313 -1.5 0.0
v 1.3228756189346313 -1.5 0.0
v 0.840354323387146 -1.8148841857910156 0.0
v 0.2880880534648895 -1.9791425466537476 0.0
v -0.2880880534648895 -1.9791425466537476 0.0
v -0.840354323387146 -1.8148841857910156 0.0
vn 0.0 0.0 1.0
vn 0.0 0.0 1.0
vn 0.0 0.0 1.0
vn 0.0 0.0 1.0
vn 0.0 0.0 1.0
vn 0.0 0.0 1.0
vn 0.0 0.0 1.0
vn 0.0 0.0 1.0
vn 0.0 0.0 1.0
vn 0.0 -1.0 0.0
vn 0.0 -1.0 0.0
vn 0.0 -1.0 0.0
vn 0.0 -1.0 0.0
vn 0.0 -1.0 0.0
vn 0.0 -1.0 0.0
vn 0.0 -1.0 0.0
vn 0.0 -1.0 0.0
vn -0.9284766912460327 0.0 -0.3713906705379486
vn -0.9284766912460327 0.0 -0.3713906705379486
vn -0.9284766912460327 0.0 -0.3713906705379486
vn -0.9284766912460327 0.0 -0.3713906705379486
vn 1.77635686587003e-16 0.0 -1.0
vn 1.77635686587003e-16 0.0 -1.0
vn 1.77635686587003e-16 0.0 -1.0
vn 1.77635686587003e-16 0.0 -1.0
vn 0.9284766912460327 0.0 -0.3713906705379486
vn 0.9284766912460327 0.0 -0.3713906705379486
vn 0.9284766912460327 0.0 -0.3713906705379486
vn 0.9284766912460327 0.0 -0.3713906705379486
vn 1.0 0.0 -6.832141944518075e-17
vn 1.0 0.0 -6.832141944518075e-17
vn 1.0 0.0 -6.832141944518075e-17
vn 1.0 0.0 -6.832141944518075e-17
vn 0.0 0.0 1.0
vn 0.0 0.0 1.0
vn 0.0 0.0 1.0
vn 0.0 0.0 1.0
vn 0.0 0.0 1.0
vn 0.0 0.0 1.0
vn 0.0 0.0 1.0
vn 0.0 0.0 1.0
vn 0.0 0.0 1.0
vn -1.0 0.0 0.0
vn -1.0 0.0 0.0
vn -1.0 0.0 0.0
vn -1.0 0.0 0.0
vn 0.0 1.0 0.0
vn 0.0 1.0 0.0
vn 0.0 1.0 0.0
vn 0.0 1.0 0.0
vn 0.0 1.0 0.0
vn 0.0 1.0 0.0
vn 0.0 1.0 0.0
vn 0.0 1.0 0.0
vn -0.0 -0.0 -1.0
vn -0.0 -0.0 -1.0
vn -0.0 -0.0 -1.0
vn -0.0 -0.0 -1.0
vn -0.0 -0.0 -1.0
vn -0.0 -0.0 -1.0
vn -1.0 1.2246468525851679e-16 -0.0
vn -0.945817232131958 0.3246994614601135 -0.0
vn -0.789140522480011 0.614212691783905 -0.0
vn -0.5469481348991394 0.8371664881706238 -0.0
vn -0.24548548460006714 0.9694002866744995 -0.0
vn 0.0825793445110321 0.9965844750404358 -0.0
vn 0.4016954302787781 0.915773332118988 -0.0
vn 0.6772815585136414 0.7357239127159119 -0.0
vn 0.8794737458229065 0.47594738006591797 -0.0
vn 0.9863613247871399 0.1645945906639099 -0.0
vn 0.9863613247871399 -0.1645945906639099 -0.0
vn 0.8794737458229065 -0.47594738006591797 -0.0
vn 0.6772815585136414 -0.7357239127159119 -0.0
vn 0.4016954302787781 -0.915773332118988 -0.0
vn 0.0825793445110321 -0.9965844750404358 -0.0
vn -0.24548548460006714 -0.9694002866744995 0.0
vn -0.5469481348991394 -0.8371664881706238 0.0
vn -0.789140522480011 -0.614212691783905 0.0
vn -0.945817232131958 -0.3246994614601135 0.0
vn -0.6614378094673157 0.75 -0.0
vn -0.8443878889083862 0.5357322692871094 -0.0
vn -0.9603093266487122 0.27893733978271484 -0.0
vn -1.0 -1.2246468525851679e-16 0.0
vn -0.9603093266487122 -0.27893733978271484 0.0
vn -0.8443878889083862 -0.5357322692871094 0.0
vn -0.6614378094673157 -0.75 0.0
vn -0.420177161693573 -0.9074420928955078 0.0
vn -0.14404402673244476 -0.9895712733268738 0.0
vn 0.14404402673244476 -0.9895712733268738 -0.0
vn 0.420177161693573 -0.9074420928955078 -0.0
vn 0.6614378094673157 -0.75 -0.0
vn 0.8443878889083862 -0.5357322692871094 -0.0
vn 0.9603093266487122 -0.27893733978271484 -0.0
vn 1.0 -1.1102230246251565e-16 -0.0
vn 0.9603093266487122 0.27893733978271484 -0.0
vn 0.8443878889083862 0.5357322692871094 -0.0
vn 0.6614378094673157 0.75 -0.0
vn 0.420177161693573 0.9074420928955078 -0.0
vn 0.14404402673244476 0.9895712733268738 -0.0
vn -0.14404402673244476 0.9895712733268738 -0.0
vn -0.420177161693573 0.9074420928955078 -0.0
vn -1.0 1.2246468525851679e-16 -0.0
vn -1.0 -1.2246468525851679e-16 0.0
vn 0.0 0.0 1.0
vn 0.0 0.0 1.0
vn 0.0 0.0 1.0
vn 0.0 0.0 1.0
vn 0.0 0.0 1.0
vn 0.0 0.0 1.0
vn 0.0 0.0 1.0
vn 0.0 0.0 1.0
vn 0.0 0.0 1.0
vn 0.0 0.0 1.0
vn 0.0 0.0 1.0
vn 0.0 0.0 1.0
vn 0.0 0.0 1.0
vn 0.0 0.0 1.0
vn 0.0 0.0 1.0
vn 0.0 0.0 1.0
vn 0.0 0.0 1.0
vn 0.0 0.0 1.0
vn 0.0 0.0 1.0
vn -0.0 -0.0 -1.0
vn -0.0 -0.0 -1.0
vn -0.0 -0.0 -1.0
vn -0.0 -0.0 -1.0
vn -0.0 -0.0 -1.0
vn -0.0 -0.0 -1.0
g f07ff490-e2af-11ea-81ea-54bf646e7e1f
f 1//1 2//2 9//9
f 9//9 2//2 3//3
f 9//9 3//3 4//4
f 9//9 4//4 8//8
f 8//8 4//4 5//5
f 8//8 5//5 6//6
f 6//6 7//7 8//8
g f0834fd4-e2af-11ea-a686-54bf646e7e1f
f 10//10 11//11 17//17
f 17//17 11//11 16//16
f 16//16 11//11 14//14
f 16//16 14//14 15//15
f 11//11 12//12 14//14
f 14//14 12//12 13//13
g f086ab40-e2af-11ea-b2ce-54bf646e7e1f
f 19//19 20//20 18//18
f 18//18 20//20 21//21
g f08ac9de-e2af-11ea-a20f-54bf646e7e1f
f 23//23 24//24 22//22
f 22//22 24//24 25//25
g f091a7ac-e2af-11ea-bee8-54bf646e7e1f
f 27//27 28//28 26//26
f 26//26 28//28 29//29
g f096b0b4-e2af-11ea-a3a5-54bf646e7e1f
f 31//31 32//32 30//30
f 30//30 32//32 33//33
g f09b92a8-e2af-11ea-866a-54bf646e7e1f
f 34//34 35//35 42//42
f 42//42 35//35 36//36
f 42//42 36//36 37//37
f 42//42 37//37 41//41
f 41//41 37//37 38//38
f 41//41 38//38 39//39
f 39//39 40//40 41//41
g f0a22238-e2af-11ea-abd1-54bf646e7e1f
f 44//44 45//45 43//43
f 43//43 45//45 46//46
g f0a6b61a-e2af-11ea-aff7-54bf646e7e1f
f 48//48 49//49 47//47
f 47//47 49//49 50//50
f 47//47 50//50 52//52
f 52//52 50//50 51//51
f 53//53 54//54 52//52
f 52//52 54//54 47//47
g f021cfca-e2af-11ea-aed4-54bf646e7e1f
f 55//55 56//56 60//60
f 60//60 56//56 57//57
f 60//60 57//57 59//59
f 59//59 57//57 58//58
g f01bdc88-e2af-11ea-8f24-54bf646e7e1f
f 62//62 82//82 61//61
f 61//61 82//82 102//102
f 103//103 83//83 84//84
f 82//82 62//62 81//81
f 81//81 62//62 63//63
f 81//81 63//63 80//80
f 80//80 63//63 64//64
f 80//80 64//64 101//101
f 101//101 64//64 65//65
f 101//101 65//65 100//100
f 100//100 65//65 66//66
f 100//100 66//66 99//99
f 99//99 66//66 67//67
f 99//99 67//67 98//98
f 98//98 67//67 97//97
f 97//97 67//67 68//68
f 97//97 68//68 96//96
f 96//96 68//68 69//69
f 96//96 69//69 95//95
f 95//95 69//69 70//70
f 95//95 70//70 94//94
f 94//94 70//70 71//71
f 94//94 71//71 93//93
f 93//93 71//71 72//72
f 93//93 72//72 92//92
f 92//92 72//72 73//73
f 92//92 73//73 91//91
f 91//91 73//73 74//74
f 91//91 74//74 90//90
f 90//90 74//74 89//89
f 89//89 74//74 75//75
f 89//89 75//75 88//88
f 88//88 75//75 76//76
f 88//88 76//76 87//87
f 87//87 76//76 77//77
f 87//87 77//77 86//86
f 86//86 77//77 78//78
f 86//86 78//78 85//85
f 85//85 78//78 79//79
f 85//85 79//79 84//84
f 84//84 79//79 103//103
g f01ee9ba-e2af-11ea-9269-54bf646e7e1f
f 104//104 105//105 122//122
f 122//122 105//105 121//121
f 121//121 105//105 106//106
f 121//121 106//106 120//120
f 120//120 106//106 107//107
f 120//120 107//107 119//119
f 119//119 107//107 108//108
f 119//119 108//108 118//118
f 118//118 108//108 109//109
f 118//118 109//109 117//117
f 117//117 109//109 116//116
f 116//116 109//109 115//115
f 115//115 109//109 114//114
f 114//114 109//109 113//113
f 113//113 109//109 112//112
f 112//112 109//109 111//111
f 111//111 109//109 110//110
g c10f78c5-d3c5-31f0-b5d4-b50a21e595b8
f 123//123 124//124 128//128
f 128//128 124//124 125//125
f 128//128 125//125 127//127
f 127//127 125//125 126//126

# End of file