# WaveFront *.obj file
# Vertices: 214
# Triangles : 196

v -22.600000381469727 0.07000000029802322 1.2246467698671066e-17
v -22.594581604003906 0.07000000029802322 0.03246994689106941
v -22.578914642333984 0.07000000029802322 0.06142127141356468
v -22.55469512939453 0.07000000029802322 0.08371664583683014
v -22.52454948425293 0.07000000029802322 0.09694002568721771
v -22.491741180419922 0.07000000029802322 0.09965845197439194
v -22.45983123779297 0.07000000029802322 0.09157733619213104
v -22.43227195739746 0.07000000029802322 0.07357238978147507
v -22.412052154541016 0.07000000029802322 0.047594740986824036
v -22.401363372802734 0.07000000029802322 0.01645945943892002
v -22.401363372802734 0.07000000029802322 -0.01645945943892002
v -22.412052154541016 0.07000000029802322 -0.047594740986824036
v -22.43227195739746 0.07000000029802322 -0.07357238978147507
v -22.45983123779297 0.07000000029802322 -0.09157733619213104
v -22.491741180419922 0.07000000029802322 -0.09965845197439194
v -22.52454948425293 0.07000000029802322 -0.09694002568721771
v -22.55469512939453 0.07000000029802322 -0.08371664583683014
v -22.578914642333984 0.07000000029802322 -0.06142127141356468
v -22.594581604003906 0.07000000029802322 -0.03246994689106941
v -22.600000381469727 0.0 1.2246467698671066e-17
v -22.594581604003906 0.0 -0.03246994689106941
v -22.578914642333984 0.0 -0.06142127141356468
v -22.55469512939453 0.0 -0.08371664583683014
v -22.52454948425293 0.0 -0.09694002568721771
v -22.491741180419922 0.0 -0.09965845197439194
v -22.45983123779297 0.0 -0.09157733619213104
v -22.43227195739746 0.0 -0.07357238978147507
v -22.412052154541016 0.0 -0.047594740986824036
v -22.401363372802734 0.0 -0.01645945943892002
v -22.401363372802734 0.0 0.01645945943892002
v -22.412052154541016 0.0 0.047594740986824036
v -22.43227195739746 0.0 0.07357238978147507
v -22.45983123779297 0.0 0.09157733619213104
v -22.491741180419922 0.0 0.09965845197439194
v -22.52454948425293 0.0 0.09694002568721771
v -22.55469512939453 0.0 0.08371664583683014
v -22.578914642333984 0.0 0.06142127141356468
v -22.594581604003906 0.0 0.03246994689106941
v -22.600000381469727 0.07000000029802322 1.2246467698671066e-17
v -22.600000381469727 0.0 1.2246467698671066e-17
v -22.700000762939453 0.0 0.800000011920929
v -22.5 0.0 1.0
v -22.5 0.07000000029802322 1.0
v -22.700000762939453 0.07000000029802322 0.800000011920929
v -22.6580753326416 0.0 0.25497493147850037
v -22.700000762939453 0.0 0.800000011920929
v -22.700000762939453 0.07000000029802322 0.800000011920929
v -22.6580753326416 0.07000000029802322 0.25497493147850037
v -22.617219924926758 0.0 -0.27615147829055786
v -22.66529083251953 0.0 -0.25035762786865234
v -22.707897186279297 0.0 -0.21628478169441223
v -22.743627548217773 0.0 -0.17505963146686554
v -22.77130126953125 0.0 -0.1280454844236374
v -22.79000473022461 0.0 -0.07679703086614609
v -22.799116134643555 0.0 -0.023008987307548523
v -22.798337936401367 0.0 0.03153993561863899
v -22.78769302368164 0.0 0.08504587411880493
v -22.767534255981445 0.0 0.13573944568634033
v -22.738529205322266 0.0 0.18194428086280823
v -22.701635360717773 0.0 0.22213242948055267
v -22.6580753326416 0.0 0.25497493147850037
v -22.6580753326416 0.07000000029802322 0.25497493147850037
v -22.701635360717773 0.07000000029802322 0.22213242948055267
v -22.738529205322266 0.07000000029802322 0.18194428086280823
v -22.767534255981445 0.07000000029802322 0.13573944568634033
v -22.78769302368164 0.07000000029802322 0.08504587411880493
v -22.798337936401367 0.07000000029802322 0.03153993561863899
v -22.799116134643555 0.07000000029802322 -0.023008987307548523
v -22.79000473022461 0.07000000029802322 -0.07679703086614609
v -22.77130126953125 0.07000000029802322 -0.1280454844236374
v -22.743627548217773 0.07000000029802322 -0.17505963146686554
v -22.707897186279297 0.07000000029802322 -0.21628478169441223
v -22.66529083251953 0.07000000029802322 -0.25035762786865234
v -22.617219924926758 0.07000000029802322 -0.27615147829055786
v -22.5 0.0 -1.7999999523162842
v -22.617219924926758 0.0 -0.27615147829055786
v -22.617219924926758 0.07000000029802322 -0.27615147829055786
v -22.5 0.07000000029802322 -1.7999999523162842
v -22.382781982421875 0.0 -0.2761516273021698
v -22.5 0.0 -1.7999999523162842
v -22.5 0.07000000029802322 -1.7999999523162842
v -22.382781982421875 0.07000000029802322 -0.2761516273021698
v -22.3419246673584 0.0 0.25497522950172424
v -22.298364639282227 0.0 0.22213277220726013
v -22.261470794677734 0.0 0.1819446086883545
v -22.232465744018555 0.0 0.1357397437095642
v -22.21230697631836 0.0 0.08504611253738403
v -22.201662063598633 0.0 0.031540095806121826
v -22.200883865356445 0.0 -0.023008910939097404
v -22.20999526977539 0.0 -0.07679703831672668
v -22.22869873046875 0.0 -0.12804557383060455
v -22.256372451782227 0.0 -0.17505978047847748
v -22.292104721069336 0.0 -0.21628496050834656
v -22.33470916748047 0.0 -0.25035783648490906
v -22.382781982421875 0.0 -0.2761516273021698
v -22.382781982421875 0.07000000029802322 -0.2761516273021698
v -22.33470916748047 0.07000000029802322 -0.25035783648490906
v -22.292104721069336 0.07000000029802322 -0.21628496050834656
v -22.256372451782227 0.07000000029802322 -0.17505978047847748
v -22.22869873046875 0.07000000029802322 -0.12804557383060455
v -22.20999526977539 0.07000000029802322 -0.07679703831672668
v -22.200883865356445 0.07000000029802322 -0.023008910939097404
v -22.201662063598633 0.07000000029802322 0.031540095806121826
v -22.21230697631836 0.07000000029802322 0.08504611253738403
v -22.232465744018555 0.07000000029802322 0.1357397437095642
v -22.261470794677734 0.07000000029802322 0.1819446086883545
v -22.298364639282227 0.07000000029802322 0.22213277220726013
v -22.3419246673584 0.07000000029802322 0.25497522950172424
v -22.30000114440918 0.0 0.800000011920929
v -22.3419246673584 0.0 0.25497522950172424
v -22.3419246673584 0.07000000029802322 0.25497522950172424
v -22.30000114440918 0.07000000029802322 0.800000011920929
v -22.5 0.0 1.0
v -22.30000114440918 0.0 0.800000011920929
v -22.30000114440918 0.07000000029802322 0.800000011920929
v -22.5 0.07000000029802322 1.0
v -22.600000381469727 0.07000000029802322 1.2246467698671066e-17
v -22.594581604003906 0.07000000029802322 -0.03246994689106941
v -22.578914642333984 0.07000000029802322 -0.06142127141356468
v -22.55469512939453 0.07000000029802322 -0.08371664583683014
v -22.52454948425293 0.07000000029802322 -0.09694002568721771
v -22.491741180419922 0.07000000029802322 -0.09965845197439194
v -22.45983123779297 0.07000000029802322 -0.09157733619213104
v -22.43227195739746 0.07000000029802322 -0.07357238978147507
v -22.412052154541016 0.07000000029802322 -0.047594740986824036
v -22.401363372802734 0.07000000029802322 -0.01645945943892002
v -22.401363372802734 0.07000000029802322 0.01645945943892002
v -22.412052154541016 0.07000000029802322 0.047594740986824036
v -22.43227195739746 0.07000000029802322 0.07357238978147507
v -22.45983123779297 0.07000000029802322 0.09157733619213104
v -22.491741180419922 0.07000000029802322 0.09965845197439194
v -22.52454948425293 0.07000000029802322 0.09694002568721771
v -22.55469512939453 0.07000000029802322 0.08371664583683014
v -22.578914642333984 0.07000000029802322 0.06142127141356468
v -22.594581604003906 0.07000000029802322 0.03246994689106941
v -22.5 0.07000000029802322 1.0
v -22.30000114440918 0.07000000029802322 0.800000011920929
v -22.3419246673584 0.07000000029802322 0.25497522950172424
v -22.298364639282227 0.07000000029802322 0.22213277220726013
v -22.261470794677734 0.07000000029802322 0.1819446086883545
v -22.232465744018555 0.07000000029802322 0.1357397437095642
v -22.21230697631836 0.07000000029802322 0.08504611253738403
v -22.201662063598633 0.07000000029802322 0.031540095806121826
v -22.200883865356445 0.07000000029802322 -0.023008910939097404
v -22.20999526977539 0.07000000029802322 -0.07679703831672668
v -22.22869873046875 0.07000000029802322 -0.12804557383060455
v -22.256372451782227 0.07000000029802322 -0.17505978047847748
v -22.292104721069336 0.07000000029802322 -0.21628496050834656
v -22.33470916748047 0.07000000029802322 -0.25035783648490906
v -22.382781982421875 0.07000000029802322 -0.2761516273021698
v -22.5 0.07000000029802322 -1.7999999523162842
v -22.617219924926758 0.07000000029802322 -0.27615147829055786
v -22.66529083251953 0.07000000029802322 -0.25035762786865234
v -22.707897186279297 0.07000000029802322 -0.21628478169441223
v -22.743627548217773 0.07000000029802322 -0.17505963146686554
v -22.77130126953125 0.07000000029802322 -0.1280454844236374
v -22.79000473022461 0.07000000029802322 -0.07679703086614609
v -22.799116134643555 0.07000000029802322 -0.023008987307548523
v -22.798337936401367 0.07000000029802322 0.03153993561863899
v -22.78769302368164 0.07000000029802322 0.08504587411880493
v -22.767534255981445 0.07000000029802322 0.13573944568634033
v -22.738529205322266 0.07000000029802322 0.18194428086280823
v -22.701635360717773 0.07000000029802322 0.22213242948055267
v -22.6580753326416 0.07000000029802322 0.25497493147850037
v -22.700000762939453 0.07000000029802322 0.800000011920929
v -22.600000381469727 0.0 1.2246467698671066e-17
v -22.594581604003906 0.0 0.03246994689106941
v -22.578914642333984 0.0 0.06142127141356468
v -22.55469512939453 0.0 0.08371664583683014
v -22.52454948425293 0.0 0.09694002568721771
v -22.491741180419922 0.0 0.09965845197439194
v -22.45983123779297 0.0 0.09157733619213104
v -22.43227195739746 0.0 0.07357238978147507
v -22.412052154541016 0.0 0.047594740986824036
v -22.401363372802734 0.0 0.01645945943892002
v -22.401363372802734 0.0 -0.01645945943892002
v -22.412052154541016 0.0 -0.047594740986824036
v -22.43227195739746 0.0 -0.07357238978147507
v -22.45983123779297 0.0 -0.09157733619213104
v -22.491741180419922 0.0 -0.09965845197439194
v -22.52454948425293 0.0 -0.09694002568721771
v -22.55469512939453 0.0 -0.08371664583683014
v -22.578914642333984 0.0 -0.06142127141356468
v -22.594581604003906 0.0 -0.03246994689106941
v -22.30000114440918 0.0 0.800000011920929
v -22.5 0.0 1.0
v -22.700000762939453 0.0 0.800000011920929
v -22.6580753326416 0.0 0.25497493147850037
v -22.701635360717773 0.0 0.22213242948055267
v -22.738529205322266 0.0 0.18194428086280823
v -22.767534255981445 0.0 0.13573944568634033
v -22.78769302368164 0.0 0.08504587411880493
v -22.798337936401367 0.0 0.03153993561863899
v -22.799116134643555 0.0 -0.023008987307548523
v -22.79000473022461 0.0 -0.07679703086614609
v -22.77130126953125 0.0 -0.1280454844236374
v -22.743627548217773 0.0 -0.17505963146686554
v -22.707897186279297 0.0 -0.21628478169441223
v -22.66529083251953 0.0 -0.25035762786865234
v -22.617219924926758 0.0 -0.27615147829055786
v -22.5 0.0 -1.7999999523162842
v -22.382781982421875 0.0 -0.2761516273021698
v -22.33470916748047 0.0 -0.25035783648490906
v -22.292104721069336 0.0 -0.21628496050834656
v -22.256372451782227 0.0 -0.17505978047847748
v -22.22869873046875 0.0 -0.12804557383060455
v -22.20999526977539 0.0 -0.07679703831672668
v -22.200883865356445 0.0 -0.023008910939097404
v -22.201662063598633 0.0 0.031540095806121826
v -22.21230697631836 0.0 0.08504611253738403
v -22.232465744018555 0.0 0.1357397437095642
v -22.261470794677734 0.0 0.1819446086883545
v -22.298364639282227 0.0 0.22213277220726013
v -22.3419246673584 0.0 0.25497522950172424
vn 1.0 0.0 -1.2246468525851679e-16
vn 0.945817232131958 0.0 -0.3246994614601135
vn 0.789140522480011 0.0 -0.614212691783905
vn 0.5469481348991394 0.0 -0.8371664881706238
vn 0.24548548460006714 0.0 -0.9694002866744995
vn -0.0825793445110321 0.0 -0.9965844750404358
vn -0.4016954302787781 0.0 -0.915773332118988
vn -0.6772815585136414 0.0 -0.7357239127159119
vn -0.8794737458229065 0.0 -0.47594738006591797
vn -0.9863613247871399 0.0 -0.1645945906639099
vn -0.9863613247871399 0.0 0.1645945906639099
vn -0.8794737458229065 0.0 0.47594738006591797
vn -0.6772815585136414 0.0 0.7357239127159119
vn -0.4016954302787781 0.0 0.915773332118988
vn -0.0825793445110321 0.0 0.9965844750404358
vn 0.24548548460006714 -0.0 0.9694002866744995
vn 0.5469481348991394 -0.0 0.8371664881706238
vn 0.789140522480011 -0.0 0.614212691783905
vn 0.945817232131958 -0.0 0.3246994614601135
vn 1.0 -0.0 1.2246468525851679e-16
vn 0.945817232131958 -0.0 0.3246994614601135
vn 0.789140522480011 -0.0 0.614212691783905
vn 0.5469481348991394 -0.0 0.8371664881706238
vn 0.24548548460006714 -0.0 0.9694002866744995
vn -0.0825793445110321 0.0 0.9965844750404358
vn -0.4016954302787781 0.0 0.915773332118988
vn -0.6772815585136414 0.0 0.7357239127159119
vn -0.8794737458229065 0.0 0.47594738006591797
vn -0.9863613247871399 0.0 0.1645945906639099
vn -0.9863613247871399 0.0 -0.1645945906639099
vn -0.8794737458229065 0.0 -0.47594738006591797
vn -0.6772815585136414 0.0 -0.7357239127159119
vn -0.4016954302787781 0.0 -0.915773332118988
vn -0.0825793445110321 0.0 -0.9965844750404358
vn 0.24548548460006714 0.0 -0.9694002866744995
vn 0.5469481348991394 0.0 -0.8371664881706238
vn 0.789140522480011 0.0 -0.614212691783905
vn 0.945817232131958 0.0 -0.3246994614601135
vn 1.0 -0.0 1.2246468525851679e-16
vn 1.0 0.0 -1.2246468525851679e-16
vn -0.7071061730384827 0.0 0.7071073651313782
vn -0.7071061730384827 0.0 0.7071073651313782
vn -0.7071061730384827 0.0 0.7071073651313782
vn -0.7071061730384827 0.0 0.7071073651313782
vn -0.9970544576644897 0.0 -0.07669662684202194
vn -0.9970544576644897 0.0 -0.07669662684202194
vn -0.9970544576644897 0.0 -0.07669662684202194
vn -0.9970544576644897 0.0 -0.07669662684202194
vn -0.3907310366630554 0.0 -0.9205048680305481
vn -0.5509694218635559 0.0 -0.834525465965271
vn -0.692987859249115 0.0 -0.7209492325782776
vn -0.8120900392532349 0.0 -0.5835321545600891
vn -0.9043374061584473 0.0 -0.426818311214447
vn -0.9666793942451477 0.0 -0.2559901177883148
vn -0.9970544576644897 0.0 -0.07669662684202194
vn -0.9944581389427185 -0.0 0.10513311624526978
vn -0.9589763283729553 -0.0 0.2834862470626831
vn -0.891782283782959 -0.0 0.4524648189544678
vn -0.795098066329956 -0.0 0.6064808964729309
vn -0.6721208691596985 -0.0 0.7404414415359497
vn -0.5269175171852112 -0.0 0.849916398525238
vn -0.5269175171852112 -0.0 0.849916398525238
vn -0.6721208691596985 -0.0 0.7404414415359497
vn -0.795098066329956 -0.0 0.6064808964729309
vn -0.891782283782959 -0.0 0.4524648189544678
vn -0.9589763283729553 -0.0 0.2834862470626831
vn -0.9944581389427185 -0.0 0.10513311624526978
vn -0.9970544576644897 0.0 -0.07669662684202194
vn -0.9666793942451477 0.0 -0.2559901177883148
vn -0.9043374061584473 0.0 -0.426818311214447
vn -0.8120900392532349 0.0 -0.5835321545600891
vn -0.692987859249115 0.0 -0.7209492325782776
vn -0.5509694218635559 0.0 -0.834525465965271
vn -0.3907310366630554 0.0 -0.9205048680305481
vn -0.9970544576644897 0.0 -0.07669662684202194
vn -0.9970544576644897 0.0 -0.07669662684202194
vn -0.9970544576644897 0.0 -0.07669662684202194
vn -0.9970544576644897 0.0 -0.07669662684202194
vn 0.9970545172691345 0.0 -0.07669637352228165
vn 0.9970545172691345 0.0 -0.07669637352228165
vn 0.9970545172691345 0.0 -0.07669637352228165
vn 0.9970545172691345 0.0 -0.07669637352228165
vn 0.5269158482551575 -0.0 0.849917471408844
vn 0.672119677066803 -0.0 0.7404425740242004
vn 0.7950971722602844 -0.0 0.6064820289611816
vn 0.891781747341156 -0.0 0.45246580243110657
vn 0.9589760899543762 -0.0 0.2834870219230652
vn 0.9944580793380737 -0.0 0.10513365268707275
vn 0.9970545172691345 -0.0 -0.07669637352228165
vn 0.9666793942451477 -0.0 -0.2559901475906372
vn 0.9043372869491577 -0.0 -0.4268185794353485
vn 0.8120896816253662 -0.0 -0.5835326313972473
vn 0.6929872035980225 -0.0 -0.7209498882293701
vn 0.5509684085845947 -0.0 -0.8345261216163635
vn 0.390729695558548 -0.0 -0.9205054640769958
vn 0.390729695558548 -0.0 -0.9205054640769958
vn 0.5509684085845947 -0.0 -0.8345261216163635
vn 0.6929872035980225 -0.0 -0.7209498882293701
vn 0.8120896816253662 -0.0 -0.5835326313972473
vn 0.9043372869491577 -0.0 -0.4268185794353485
vn 0.9666793942451477 -0.0 -0.2559901475906372
vn 0.9970545172691345 -0.0 -0.07669637352228165
vn 0.9944580793380737 -0.0 0.10513365268707275
vn 0.9589760899543762 -0.0 0.2834870219230652
vn 0.891781747341156 -0.0 0.45246580243110657
vn 0.7950971722602844 -0.0 0.6064820289611816
vn 0.672119677066803 -0.0 0.7404425740242004
vn 0.5269158482551575 -0.0 0.849917471408844
vn 0.9970545172691345 0.0 -0.07669637352228165
vn 0.9970545172691345 0.0 -0.07669637352228165
vn 0.9970545172691345 0.0 -0.07669637352228165
vn 0.9970545172691345 0.0 -0.07669637352228165
vn 0.7071073651313782 -0.0 0.7071062326431274
vn 0.7071073651313782 -0.0 0.7071062326431274
vn 0.7071073651313782 -0.0 0.7071062326431274
vn 0.7071073651313782 -0.0 0.7071062326431274
vn 0.0 1.0 0.0
vn 0.0 1.0 0.0
vn 0.0 1.0 0.0
vn 0.0 1.0 0.0
vn 0.0 1.0 0.0
vn 0.0 1.0 0.0
vn 0.0 1.0 0.0
vn 0.0 1.0 0.0
vn 0.0 1.0 0.0
vn 0.0 1.0 0.0
vn 0.0 1.0 0.0
vn 0.0 1.0 0.0
vn 0.0 1.0 0.0
vn 0.0 1.0 0.0
vn 0.0 1.0 0.0
vn 0.0 1.0 0.0
vn 0.0 1.0 0.0
vn 0.0 1.0 0.0
vn 0.0 1.0 0.0
vn 0.0 1.0 0.0
vn 0.0 1.0 0.0
vn 0.0 1.0 0.0
vn 0.0 1.0 0.0
vn 0.0 1.0 0.0
vn 0.0 1.0 0.0
vn 0.0 1.0 0.0
vn 0.0 1.0 0.0
vn 0.0 1.0 0.0
vn 0.0 1.0 0.0
vn 0.0 1.0 0.0
vn 0.0 1.0 0.0
vn 0.0 1.0 0.0
vn 0.0 1.0 0.0
vn 0.0 1.0 0.0
vn 0.0 1.0 0.0
vn 0.0 1.0 0.0
vn 0.0 1.0 0.0
vn 0.0 1.0 0.0
vn 0.0 1.0 0.0
vn 0.0 1.0 0.0
vn 0.0 1.0 0.0
vn 0.0 1.0 0.0
vn 0.0 1.0 0.0
vn 0.0 1.0 0.0
vn 0.0 1.0 0.0
vn 0.0 1.0 0.0
vn 0.0 1.0 0.0
vn 0.0 1.0 0.0
vn 0.0 1.0 0.0
vn -0.0 -1.0 -0.0
vn -0.0 -1.0 -0.0
vn -0.0 -1.0 -0.0
vn -0.0 -1.0 -0.0
vn -0.0 -1.0 -0.0
vn -0.0 -1.0 -0.0
vn -0.0 -1.0 -0.0
vn -0.0 -1.0 -0.0
vn -0.0 -1.0 -0.0
vn -0.0 -1.0 -0.0
vn -0.0 -1.0 -0.0
vn -0.0 -1.0 -0.0
vn -0.0 -1.0 -0.0
vn -0.0 -1.0 -0.0
vn -0.0 -1.0 -0.0
vn -0.0 -1.0 -0.0
vn -0.0 -1.0 -0.0
vn -0.0 -1.0 -0.0
vn -0.0 -1.0 -0.0
vn -0.0 -1.0 -0.0
vn -0.0 -1.0 -0.0
vn -0.0 -1.0 -0.0
vn -0.0 -1.0 -0.0
vn -0.0 -1.0 -0.0
vn -0.0 -1.0 -0.0
vn -0.0 -1.0 -0.0
vn -0.0 -1.0 -0.0
vn -0.0 -1.0 -0.0
vn -0.0 -1.0 -0.0
vn -0.0 -1.0 -0.0
vn -0.0 -1.0 -0.0
vn -0.0 -1.0 -0.0
vn -0.0 -1.0 -0.0
vn -0.0 -1.0 -0.0
vn -0.0 -1.0 -0.0
vn -0.0 -1.0 -0.0
vn -0.0 -1.0 -0.0
vn -0.0 -1.0 -0.0
vn -0.0 -1.0 -0.0
vn -0.0 -1.0 -0.0
vn -0.0 -1.0 -0.0
vn -0.0 -1.0 -0.0
vn -0.0 -1.0 -0.0
vn -0.0 -1.0 -0.0
vn -0.0 -1.0 -0.0
vn -0.0 -1.0 -0.0
vn -0.0 -1.0 -0.0
vn -0.0 -1.0 -0.0
vn -0.0 -1.0 -0.0
g 6f32b8b6-e2b0-11ea-b831-54bf646e7e1f
f 2//2 38//38 1//1
f 1//1 38//38 40//40
f 39//39 20//20 19//19
f 19//19 20//20 21//21
f 19//19 21//21 18//18
f 18//18 21//21 22//22
f 18//18 22//22 17//17
f 17//17 22//22 23//23
f 17//17 23//23 16//16
f 16//16 23//23 24//24
f 16//16 24//24 15//15
f 15//15 24//24 25//25
f 15//15 25//25 14//14
f 14//14 25//25 26//26
f 14//14 26//26 13//13
f 13//13 26//26 27//27
f 13//13 27//27 12//12
f 12//12 27//27 28//28
f 12//12 28//28 11//11
f 11//11 28//28 29//29
f 11//11 29//29 10//10
f 10//10 29//29 30//30
f 10//10 30//30 9//9
f 9//9 30//30 31//31
f 9//9 31//31 8//8
f 8//8 31//31 32//32
f 8//8 32//32 7//7
f 7//7 32//32 33//33
f 7//7 33//33 6//6
f 6//6 33//33 34//34
f 6//6 34//34 5//5
f 5//5 34//34 35//35
f 5//5 35//35 4//4
f 4//4 35//35 36//36
f 4//4 36//36 3//3
f 3//3 36//36 37//37
f 3//3 37//37 2//2
f 2//2 37//37 38//38
g 6f33555a-e2b0-11ea-9c0c-54bf646e7e1f
f 41//41 42//42 44//44
f 44//44 42//42 43//43
g 6f33f136-e2b0-11ea-97a8-54bf646e7e1f
f 45//45 46//46 48//48
f 48//48 46//46 47//47
g 6f348d62-e2b0-11ea-9e08-54bf646e7e1f
f 74//74 49//49 73//73
f 73//73 49//49 50//50
f 73//73 50//50 72//72
f 72//72 50//50 51//51
f 72//72 51//51 71//71
f 71//71 51//51 52//52
f 71//71 52//52 70//70
f 70//70 52//52 53//53
f 70//70 53//53 69//69
f 69//69 53//53 54//54
f 69//69 54//54 68//68
f 68//68 54//54 55//55
f 68//68 55//55 67//67
f 67//67 55//55 56//56
f 67//67 56//56 66//66
f 66//66 56//56 57//57
f 66//66 57//57 65//65
f 65//65 57//57 58//58
f 65//65 58//58 64//64
f 64//64 58//58 59//59
f 64//64 59//59 63//63
f 63//63 59//59 60//60
f 63//63 60//60 62//62
f 62//62 60//60 61//61
g 6f3529b4-e2b0-11ea-b9d8-54bf646e7e1f
f 75//75 76//76 78//78
f 78//78 76//76 77//77
g 6f35c5f6-e2b0-11ea-bc00-54bf646e7e1f
f 79//79 80//80 82//82
f 82//82 80//80 81//81
g 6f366234-e2b0-11ea-bb9c-54bf646e7e1f
f 108//108 83//83 107//107
f 107//107 83//83 84//84
f 107//107 84//84 106//106
f 106//106 84//84 85//85
f 106//106 85//85 105//105
f 105//105 85//85 86//86
f 105//105 86//86 104//104
f 104//104 86//86 87//87
f 104//104 87//87 103//103
f 103//103 87//87 88//88
f 103//103 88//88 102//102
f 102//102 88//88 89//89
f 102//102 89//89 101//101
f 101//101 89//89 90//90
f 101//101 90//90 100//100
f 100//100 90//90 91//91
f 100//100 91//91 99//99
f 99//99 91//91 92//92
f 99//99 92//92 98//98
f 98//98 92//92 93//93
f 98//98 93//93 97//97
f 97//97 93//93 94//94
f 97//97 94//94 96//96
f 96//96 94//94 95//95
g 6f372564-e2b0-11ea-bdff-54bf646e7e1f
f 109//109 110//110 112//112
f 112//112 110//110 111//111
g 6f37c19e-e2b0-11ea-aa3f-54bf646e7e1f
f 113//113 114//114 116//116
f 116//116 114//114 115//115
g 6f3884f0-e2b0-11ea-acb6-54bf646e7e1f
f 118//118 154//154 117//117
f 117//117 154//154 155//155
f 117//117 155//155 162//162
f 162//162 155//155 161//161
f 161//161 155//155 156//156
f 161//161 156//156 160//160
f 160//160 156//156 157//157
f 160//160 157//157 159//159
f 159//159 157//157 158//158
f 119//119 152//152 118//118
f 118//118 152//152 153//153
f 118//118 153//153 154//154
f 119//119 120//120 152//152
f 152//152 120//120 121//121
f 152//152 121//121 122//122
f 152//152 122//122 150//150
f 150//150 122//122 123//123
f 150//150 123//123 124//124
f 124//124 125//125 150//150
f 150//150 125//125 149//149
f 149//149 125//125 126//126
f 149//149 126//126 148//148
f 148//148 126//126 147//147
f 147//147 126//126 127//127
f 147//147 127//127 140//140
f 140//140 127//127 139//139
f 139//139 127//127 138//138
f 138//138 127//127 128//128
f 138//138 128//128 129//129
f 129//129 130//130 138//138
f 138//138 130//130 131//131
f 138//138 131//131 136//136
f 136//136 131//131 164//164
f 136//136 164//164 165//165
f 131//131 132//132 164//164
f 164//164 132//132 133//133
f 164//164 133//133 134//134
f 134//134 135//135 164//164
f 164//164 135//135 163//163
f 163//163 135//135 117//117
f 163//163 117//117 162//162
f 136//136 137//137 138//138
f 140//140 141//141 147//147
f 147//147 141//141 146//146
f 146//146 141//141 142//142
f 146//146 142//142 145//145
f 145//145 142//142 143//143
f 145//145 143//143 144//144
f 150//150 151//151 152//152
g 6f396f6e-e2b0-11ea-abce-54bf646e7e1f
f 167//167 189//189 166//166
f 166//166 189//189 190//190
f 166//166 190//190 197//197
f 197//197 190//190 191//191
f 197//197 191//191 196//196
f 196//196 191//191 192//192
f 196//196 192//192 195//195
f 195//195 192//192 193//193
f 195//195 193//193 194//194
f 189//189 167//167 188//188
f 188//188 167//167 168//168
f 188//188 168//168 169//169
f 169//169 170//170 188//188
f 188//188 170//170 171//171
f 188//188 171//171 186//186
f 186//186 171//171 214//214
f 186//186 214//214 185//185
f 171//171 172//172 214//214
f 214//214 172//172 173//173
f 214//214 173//173 174//174
f 174//174 175//175 214//214
f 214//214 175//175 213//213
f 213//213 175//175 212//212
f 212//212 175//175 205//205
f 212//212 205//205 211//211
f 211//211 205//205 206//206
f 211//211 206//206 210//210
f 210//210 206//206 207//207
f 210//210 207//207 209//209
f 209//209 207//207 208//208
f 175//175 176//176 205//205
f 205//205 176//176 204//204
f 204//204 176//176 203//203
f 203//203 176//176 177//177
f 203//203 177//177 202//202
f 202//202 177//177 178//178
f 202//202 178//178 179//179
f 179//179 180//180 202//202
f 202//202 180//180 200//200
f 202//202 200//200 201//201
f 180//180 181//181 200//200
f 200//200 181//181 182//182
f 200//200 182//182 183//183
f 183//183 184//184 200//200
f 200//200 184//184 199//199
f 199//199 184//184 198//198
f 198//198 184//184 166//166
f 198//198 166//166 197//197
f 186//186 187//187 188//188

# End of file