# WaveFront *.obj file
# Vertices: 92
# Triangles : 76

v -15.5 5.0 0.0
v -8.5 5.0 0.0
v -8.5 5.0 -0.800000011920929
v -15.5 5.0 -0.800000011920929
v -16.5 4.0 0.0
v -16.480785369873047 4.195090293884277 0.0
v -16.423879623413086 4.382683277130127 0.0
v -16.331470489501953 4.555570125579834 0.0
v -16.207107543945312 4.707106590270996 0.0
v -16.055570602416992 4.831469535827637 0.0
v -15.882683753967285 4.923879623413086 0.0
v -15.695090293884277 4.980785369873047 0.0
v -15.5 5.0 0.0
v -15.5 5.0 -0.800000011920929
v -15.695090293884277 4.980785369873047 -0.800000011920929
v -15.882683753967285 4.923879623413086 -0.800000011920929
v -16.055570602416992 4.831469535827637 -0.800000011920929
v -16.207107543945312 4.707106590270996 -0.800000011920929
v -16.331470489501953 4.555570125579834 -0.800000011920929
v -16.423879623413086 4.382683277130127 -0.800000011920929
v -16.480785369873047 4.195090293884277 -0.800000011920929
v -16.5 4.0 -0.800000011920929
v -16.5 0.0 0.0
v -16.5 4.0 0.0
v -16.5 4.0 -0.800000011920929
v -16.5 0.0 -0.800000011920929
v -7.5 0.0 0.0
v -16.5 0.0 0.0
v -16.5 0.0 -0.800000011920929
v -7.5 0.0 -0.800000011920929
v -7.5 4.0 0.0
v -7.5 0.0 0.0
v -7.5 0.0 -0.800000011920929
v -7.5 4.0 -0.800000011920929
v -8.5 5.0 0.0
v -8.304909706115723 4.980785369873047 0.0
v -8.117316246032715 4.923879623413086 0.0
v -7.944429874420166 4.831469535827637 0.0
v -7.792893409729004 4.707106590270996 0.0
v -7.668530464172363 4.555570125579834 0.0
v -7.576120376586914 4.382683277130127 0.0
v -7.519214630126953 4.195090293884277 0.0
v -7.5 4.0 0.0
v -7.5 4.0 -0.800000011920929
v -7.519214630126953 4.195090293884277 -0.800000011920929
v -7.576120376586914 4.382683277130127 -0.800000011920929
v -7.668530464172363 4.555570125579834 -0.800000011920929
v -7.792893409729004 4.707106590270996 -0.800000011920929
v -7.944429874420166 4.831469535827637 -0.800000011920929
v -8.117316246032715 4.923879623413086 -0.800000011920929
v -8.304909706115723 4.980785369873047 -0.800000011920929
v -8.5 5.0 -0.800000011920929
v -7.5 4.0 0.0
v -7.519214630126953 4.195090293884277 0.0
v -7.576120376586914 4.382683277130127 0.0
v -7.668530464172363 4.555570125579834 0.0
v -7.792893409729004 4.707106590270996 0.0
v -7.944429874420166 4.831469535827637 0.0
v -8.117316246032715 4.923879623413086 0.0
v -8.304909706115723 4.980785369873047 0.0
v -8.5 5.0 0.0
v -15.5 5.0 0.0
v -15.695090293884277 4.980785369873047 0.0
v -15.882683753967285 4.923879623413086 0.0
v -16.055570602416992 4.831469535827637 0.0
v -16.207107543945312 4.707106590270996 0.0
v -16.331470489501953 4.555570125579834 0.0
v -16.423879623413086 4.382683277130127 0.0
v -16.480785369873047 4.195090293884277 0.0
v -16.5 4.0 0.0
v -16.5 0.0 0.0
v -7.5 0.0 0.0
v -8.5 5.0 -0.800000011920929
v -8.304909706115723 4.980785369873047 -0.800000011920929
v -8.117316246032715 4.923879623413086 -0.800000011920929
v -7.944429874420166 4.831469535827637 -0.800000011920929
v -7.792893409729004 4.707106590270996 -0.800000011920929
v -7.668530464172363 4.555570125579834 -0.800000011920929
v -7.576120376586914 4.382683277130127 -0.800000011920929
v -7.519214630126953 4.195090293884277 -0.800000011920929
v -7.5 4.0 -0.800000011920929
v -7.5 0.0 -0.800000011920929
v -16.5 0.0 -0.800000011920929
v -16.5 4.0 -0.800000011920929
v -16.480785369873047 4.195090293884277 -0.800000011920929
v -16.423879623413086 4.382683277130127 -0.800000011920929
v -16.331470489501953 4.555570125579834 -0.800000011920929
v -16.207107543945312 4.707106590270996 -0.800000011920929
v -16.055570602416992 4.831469535827637 -0.800000011920929
v -15.882683753967285 4.923879623413086 -0.800000011920929
v -15.695090293884277 4.980785369873047 -0.800000011920929
v -15.5 5.0 -0.800000011920929
vn -1.268826370578278e-16 1.0 0.0
vn -1.268826370578278e-16 1.0 0.0
vn -1.268826370578278e-16 1.0 0.0
vn -1.268826370578278e-16 1.0 0.0
vn -1.0 1.8375892746737375e-15 -0.0
vn -0.9807852506637573 0.19509032368659973 -0.0
vn -0.9238795042037964 0.3826834261417389 -0.0
vn -0.8314695954322815 0.5555702447891235 -0.0
vn -0.7071067690849304 0.7071067690849304 -0.0
vn -0.5555702447891235 0.8314695954322815 -0.0
vn -0.3826834261417389 0.9238795042037964 -0.0
vn -0.19509032368659973 0.9807852506637573 -0.0
vn -1.7763568394002505e-15 1.0 -0.0
vn -1.7763568394002505e-15 1.0 -0.0
vn -0.19509032368659973 0.9807852506637573 -0.0
vn -0.3826834261417389 0.9238795042037964 -0.0
vn -0.5555702447891235 0.8314695954322815 -0.0
vn -0.7071067690849304 0.7071067690849304 -0.0
vn -0.8314695954322815 0.5555702447891235 -0.0
vn -0.9238795042037964 0.3826834261417389 -0.0
vn -0.9807852506637573 0.19509032368659973 -0.0
vn -1.0 1.8375892746737375e-15 -0.0
vn -1.0 -0.0 -0.0
vn -1.0 -0.0 -0.0
vn -1.0 -0.0 -0.0
vn -1.0 -0.0 -0.0
vn 0.0 -1.0 0.0
vn 0.0 -1.0 0.0
vn 0.0 -1.0 0.0
vn 0.0 -1.0 0.0
vn 1.0 -0.0 0.0
vn 1.0 -0.0 0.0
vn 1.0 -0.0 0.0
vn 1.0 -0.0 0.0
vn 6.123234262925839e-17 1.0 0.0
vn 0.19509032368659973 0.9807852506637573 0.0
vn 0.3826834261417389 0.9238795042037964 0.0
vn 0.5555702447891235 0.8314695954322815 0.0
vn 0.7071067690849304 0.7071067690849304 0.0
vn 0.8314695954322815 0.5555702447891235 0.0
vn 0.9238795042037964 0.3826834261417389 0.0
vn 0.9807852506637573 0.19509032368659973 0.0
vn 1.0 -8.881784197001252e-16 -0.0
vn 1.0 -8.881784197001252e-16 -0.0
vn 0.9807852506637573 0.19509032368659973 0.0
vn 0.9238795042037964 0.3826834261417389 0.0
vn 0.8314695954322815 0.5555702447891235 0.0
vn 0.7071067690849304 0.7071067690849304 0.0
vn 0.5555702447891235 0.8314695954322815 0.0
vn 0.3826834261417389 0.9238795042037964 0.0
vn 0.19509032368659973 0.9807852506637573 0.0
vn 6.123234262925839e-17 1.0 0.0
vn 0.0 0.0 1.0
vn 0.0 0.0 1.0
vn 0.0 0.0 1.0
vn 0.0 0.0 1.0
vn 0.0 0.0 1.0
vn 0.0 0.0 1.0
vn 0.0 0.0 1.0
vn 0.0 0.0 1.0
vn 0.0 0.0 1.0
vn 0.0 0.0 1.0
vn 0.0 0.0 1.0
vn 0.0 0.0 1.0
vn 0.0 0.0 1.0
vn 0.0 0.0 1.0
vn 0.0 0.0 1.0
vn 0.0 0.0 1.0
vn 0.0 0.0 1.0
vn 0.0 0.0 1.0
vn 0.0 0.0 1.0
vn 0.0 0.0 1.0
vn -0.0 -0.0 -1.0
vn -0.0 -0.0 -1.0
vn -0.0 -0.0 -1.0
vn -0.0 -0.0 -1.0
vn -0.0 -0.0 -1.0
vn -0.0 -0.0 -1.0
vn -0.0 -0.0 -1.0
vn -0.0 -0.0 -1.0
vn -0.0 -0.0 -1.0
vn -0.0 -0.0 -1.0
vn -0.0 -0.0 -1.0
vn -0.0 -0.0 -1.0
vn -0.0 -0.0 -1.0
vn -0.0 -0.0 -1.0
vn -0.0 -0.0 -1.0
vn -0.0 -0.0 -1.0
vn -0.0 -0.0 -1.0
vn -0.0 -0.0 -1.0
vn -0.0 -0.0 -1.0
vn -0.0 -0.0 -1.0
g 70d9d57e-e2b0-11ea-8c64-54bf646e7e1f
f 1//1 2//2 4//4
f 4//4 2//2 3//3
g 70da98d0-e2b0-11ea-9364-54bf646e7e1f
f 22//22 5//5 21//21
f 21//21 5//5 6//6
f 21//21 6//6 20//20
f 20//20 6//6 7//7
f 20//20 7//7 19//19
f 19//19 7//7 8//8
f 19//19 8//8 18//18
f 18//18 8//8 9//9
f 18//18 9//9 17//17
f 17//17 9//9 10//10
f 17//17 10//10 16//16
f 16//16 10//10 11//11
f 16//16 11//11 15//15
f 15//15 11//11 12//12
f 15//15 12//12 14//14
f 14//14 12//12 13//13
g 70db3518-e2b0-11ea-af91-54bf646e7e1f
f 23//23 24//24 26//26
f 26//26 24//24 25//25
g 70dbf846-e2b0-11ea-93ac-54bf646e7e1f
f 27//27 28//28 30//30
f 30//30 28//28 29//29
g 70dcbbbe-e2b0-11ea-8459-54bf646e7e1f
f 31//31 32//32 34//34
f 34//34 32//32 33//33
g 70dd7f00-e2b0-11ea-9e78-54bf646e7e1f
f 52//52 35//35 51//51
f 51//51 35//35 36//36
f 51//51 36//36 50//50
f 50//50 36//36 37//37
f 50//50 37//37 49//49
f 49//49 37//37 38//38
f 49//49 38//38 48//48
f 48//48 38//38 39//39
f 48//48 39//39 47//47
f 47//47 39//39 40//40
f 47//47 40//40 46//46
f 46//46 40//40 41//41
f 46//46 41//41 45//45
f 45//45 41//41 42//42
f 45//45 42//42 44//44
f 44//44 42//42 43//43
g 70de424a-e2b0-11ea-bc31-54bf646e7e1f
f 54//54 61//61 53//53
f 53//53 61//61 62//62
f 53//53 62//62 70//70
f 70//70 62//62 69//69
f 69//69 62//62 68//68
f 68//68 62//62 67//67
f 67//67 62//62 66//66
f 66//66 62//62 65//65
f 65//65 62//62 64//64
f 64//64 62//62 63//63
f 54//54 55//55 61//61
f 61//61 55//55 56//56
f 61//61 56//56 57//57
f 57//57 58//58 61//61
f 61//61 58//58 59//59
f 61//61 59//59 60//60
f 71//71 72//72 70//70
f 70//70 72//72 53//53
g 70df0590-e2b0-11ea-9962-54bf646e7e1f
f 74//74 75//75 73//73
f 73//73 75//75 76//76
f 73//73 76//76 77//77
f 77//77 78//78 73//73
f 73//73 78//78 79//79
f 73//73 79//79 80//80
f 80//80 81//81 73//73
f 73//73 81//81 84//84
f 73//73 84//84 92//92
f 92//92 84//84 85//85
f 92//92 85//85 86//86
f 82//82 83//83 81//81
f 81//81 83//83 84//84
f 86//86 87//87 92//92
f 92//92 87//87 88//88
f 92//92 88//88 89//89
f 89//89 90//90 92//92
f 92//92 90//90 91//91

# End of file