# WaveFront *.obj file
# Vertices: 36
# Triangles : 20

v 0.0 0.0 1.0
v 0.0 0.0 0.0
v 0.0 0.5 0.0
v 0.0 0.5 1.0
v -1.5 0.0 1.0
v 0.0 0.0 1.0
v 0.0 0.5 1.0
v -1.5 0.5 1.0
v -1.5 0.0 8.0
v -1.5 0.0 1.0
v -1.5 0.5 1.0
v -1.5 0.5 8.0
v -3.0 0.0 8.0
v -1.5 0.0 8.0
v -1.5 0.5 8.0
v -3.0 0.5 8.0
v -3.0 0.0 0.0
v -3.0 0.0 8.0
v -3.0 0.5 8.0
v -3.0 0.5 0.0
v 0.0 0.0 0.0
v -3.0 0.0 0.0
v -3.0 0.5 0.0
v 0.0 0.5 0.0
v 0.0 0.5 0.0
v -3.0 0.5 0.0
v -3.0 0.5 8.0
v -1.5 0.5 8.0
v -1.5 0.5 1.0
v 0.0 0.5 1.0
v -3.0 0.0 0.0
v 0.0 0.0 0.0
v 0.0 0.0 1.0
v -1.5 0.0 1.0
v -1.5 0.0 8.0
v -3.0 0.0 8.0
vn 1.0 0.0 0.0
vn 1.0 0.0 0.0
vn 1.0 0.0 0.0
vn 1.0 0.0 0.0
vn 0.0 -0.0 1.0
vn 0.0 -0.0 1.0
vn 0.0 -0.0 1.0
vn 0.0 -0.0 1.0
vn 1.0 0.0 0.0
vn 1.0 0.0 0.0
vn 1.0 0.0 0.0
vn 1.0 0.0 0.0
vn 0.0 -0.0 1.0
vn 0.0 -0.0 1.0
vn 0.0 -0.0 1.0
vn 0.0 -0.0 1.0
vn -1.0 0.0 0.0
vn -1.0 0.0 0.0
vn -1.0 0.0 0.0
vn -1.0 0.0 0.0
vn 0.0 0.0 -1.0
vn 0.0 0.0 -1.0
vn 0.0 0.0 -1.0
vn 0.0 0.0 -1.0
vn 0.0 1.0 0.0
vn 0.0 1.0 0.0
vn 0.0 1.0 0.0
vn 0.0 1.0 0.0
vn 0.0 1.0 0.0
vn 0.0 1.0 0.0
vn -0.0 -1.0 -0.0
vn -0.0 -1.0 -0.0
vn -0.0 -1.0 -0.0
vn -0.0 -1.0 -0.0
vn -0.0 -1.0 -0.0
vn -0.0 -1.0 -0.0
g 5bb850f6-e2b4-11ea-983d-54bf646e7e1f
f 1//1 2//2 4//4
f 4//4 2//2 3//3
g 5bba9acc-e2b4-11ea-b4e6-54bf646e7e1f
f 5//5 6//6 8//8
f 8//8 6//6 7//7
g 5bbce482-e2b4-11ea-9cd6-54bf646e7e1f
f 9//9 10//10 12//12
f 12//12 10//10 11//11
g 5bbf2e66-e2b4-11ea-bdb6-54bf646e7e1f
f 13//13 14//14 16//16
f 16//16 14//14 15//15
g 5bc8f1d4-e2b4-11ea-b853-54bf646e7e1f
f 17//17 18//18 20//20
f 20//20 18//18 19//19
g 5bcbd7fa-e2b4-11ea-a2f6-54bf646e7e1f
f 21//21 22//22 24//24
f 24//24 22//22 23//23
g 5bcdfac0-e2b4-11ea-93e0-54bf646e7e1f
f 30//30 25//25 29//29
f 29//29 25//25 26//26
f 29//29 26//26 27//27
f 27//27 28//28 29//29
g 5bd01d8c-e2b4-11ea-807c-54bf646e7e1f
f 36//36 31//31 34//34
f 34//34 31//31 32//32
f 34//34 32//32 33//33
f 34//34 35//35 36//36

# End of file