# WaveFront *.obj file
# Vertices: 126
# Triangles : 104

v -2.0 -1.100000023841858 0.0
v -1.375 -1.100000023841858 0.0
v -1.375 -1.100000023841858 3.5
v -2.0 -1.100000023841858 3.5
v -2.0 0.0 0.0
v -2.0 -1.100000023841858 0.0
v -2.0 -1.100000023841858 3.5
v -2.0 0.0 3.5
v -0.5 0.6000000238418579 0.0
v -0.5021356344223022 0.5492897629737854 0.0
v -0.5085211396217346 0.5016155242919922 0.0
v -0.519097626209259 0.4569351375102997 0.0
v -0.5337740182876587 0.4151836037635803 0.0
v -0.5524328351020813 0.37627696990966797 0.0
v -0.5749351978302002 0.340116024017334 0.0
v -0.6308405995368958 0.2755811810493469 0.0
v -0.7001426815986633 0.2206164449453354 0.0
v -0.781417965888977 0.17420494556427002 0.0
v -0.8732458353042603 0.13533185422420502 0.0
v -0.9742810130119324 0.10303612798452377 0.0
v -1.083298921585083 0.07644295692443848 0.0
v -1.1992188692092896 0.05478041619062424 0.0
v -1.3211238384246826 0.03739333525300026 0.0
v -1.4482686519622803 0.023749396204948425 0.0
v -1.5800753831863403 0.013435733504593372 0.0
v -1.716125726699829 0.0061536552384495735 0.0
v -1.8561490774154663 0.0017096494557335973 0.0
v -2.0 0.0 0.0
v -2.0 0.0 3.5
v -1.8561490774154663 0.0017096494557335973 3.5
v -1.716125726699829 0.0061536552384495735 3.5
v -1.5800753831863403 0.013435733504593372 3.5
v -1.4482686519622803 0.023749396204948425 3.5
v -1.3211238384246826 0.03739333525300026 3.5
v -1.1992188692092896 0.05478041619062424 3.5
v -1.083298921585083 0.07644295692443848 3.5
v -0.9742810130119324 0.10303612798452377 3.5
v -0.8732458353042603 0.13533185422420502 3.5
v -0.781417965888977 0.17420494556427002 3.5
v -0.7001426815986633 0.2206164449453354 3.5
v -0.6308405995368958 0.2755811810493469 3.5
v -0.5749351978302002 0.340116024017334 3.5
v -0.5524328351020813 0.37627696990966797 3.5
v -0.5337740182876587 0.4151836037635803 3.5
v -0.519097626209259 0.4569351375102997 3.5
v -0.5085211396217346 0.5016155242919922 3.5
v -0.5021356344223022 0.5492897629737854 3.5
v -0.5 0.6000000238418579 3.5
v -0.5 1.2000000476837158 0.0
v -0.5 0.6000000238418579 0.0
v -0.5 0.6000000238418579 3.5
v -0.5 1.2000000476837158 3.5
v -1.5 1.2000000476837158 0.0
v -0.5 1.2000000476837158 0.0
v -0.5 1.2000000476837158 3.5
v -1.5 1.2000000476837158 3.5
v -1.5 1.5 0.0
v -1.5 1.2000000476837158 0.0
v -1.5 1.2000000476837158 3.5
v -1.5 1.5 3.5
v 0.0 1.5 0.0
v -1.5 1.5 0.0
v -1.5 1.5 3.5
v 0.0 1.5 3.5
v 0.0 0.0 0.0
v 0.0 1.5 0.0
v 0.0 1.5 3.5
v 0.0 0.0 3.5
v -1.375 -1.100000023841858 0.0
v 0.0 0.0 0.0
v 0.0 0.0 3.5
v -1.375 -1.100000023841858 3.5
v -1.375 -1.100000023841858 3.5
v 0.0 0.0 3.5
v 0.0 1.5 3.5
v -1.5 1.5 3.5
v -1.5 1.2000000476837158 3.5
v -0.5 1.2000000476837158 3.5
v -0.5 0.6000000238418579 3.5
v -0.5021356344223022 0.5492897629737854 3.5
v -0.5085211396217346 0.5016155242919922 3.5
v -0.519097626209259 0.4569351375102997 3.5
v -0.5337740182876587 0.4151836037635803 3.5
v -0.5524328351020813 0.37627696990966797 3.5
v -0.5749351978302002 0.340116024017334 3.5
v -0.6308405995368958 0.2755811810493469 3.5
v -0.7001426815986633 0.2206164449453354 3.5
v -0.781417965888977 0.17420494556427002 3.5
v -0.8732458353042603 0.13533185422420502 3.5
v -0.9742810130119324 0.10303612798452377 3.5
v -1.083298921585083 0.07644295692443848 3.5
v -1.1992188692092896 0.05478041619062424 3.5
v -1.3211238384246826 0.03739333525300026 3.5
v -1.4482686519622803 0.023749396204948425 3.5
v -1.5800753831863403 0.013435733504593372 3.5
v -1.716125726699829 0.0061536552384495735 3.5
v -1.8561490774154663 0.0017096494557335973 3.5
v -2.0 0.0 3.5
v -2.0 -1.100000023841858 3.5
v 0.0 0.0 0.0
v -1.375 -1.100000023841858 0.0
v -2.0 -1.100000023841858 0.0
v -2.0 0.0 0.0
v -1.8561490774154663 0.0017096494557335973 0.0
v -1.716125726699829 0.0061536552384495735 0.0
v -1.5800753831863403 0.013435733504593372 0.0
v -1.4482686519622803 0.023749396204948425 0.0
v -1.3211238384246826 0.03739333525300026 0.0
v -1.1992188692092896 0.05478041619062424 0.0
v -1.083298921585083 0.07644295692443848 0.0
v -0.9742810130119324 0.10303612798452377 0.0
v -0.8732458353042603 0.13533185422420502 0.0
v -0.781417965888977 0.17420494556427002 0.0
v -0.7001426815986633 0.2206164449453354 0.0
v -0.6308405995368958 0.2755811810493469 0.0
v -0.5749351978302002 0.340116024017334 0.0
v -0.5524328351020813 0.37627696990966797 0.0
v -0.5337740182876587 0.4151836037635803 0.0
v -0.519097626209259 0.4569351375102997 0.0
v -0.5085211396217346 0.5016155242919922 0.0
v -0.5021356344223022 0.5492897629737854 0.0
v -0.5 0.6000000238418579 0.0
v -0.5 1.2000000476837158 0.0
v -1.5 1.2000000476837158 0.0
v -1.5 1.5 0.0
v 0.0 1.5 0.0
vn -3.552713467042264e-16 -1.0 0.0
vn -3.552713467042264e-16 -1.0 0.0
vn -3.552713467042264e-16 -1.0 0.0
vn -3.552713467042264e-16 -1.0 0.0
vn -1.0 0.0 0.0
vn -1.0 0.0 0.0
vn -1.0 0.0 0.0
vn -1.0 0.0 0.0
vn -1.0 0.0 0.0
vn -0.996257483959198 0.08643518388271332 0.0
vn -0.9834948778152466 0.18093587458133698 0.0
vn -0.9597428441047668 0.2808801829814911 0.0
vn -0.9239550828933716 0.3825010061264038 0.0
vn -0.8764986991882324 0.48140424489974976 0.0
vn -0.8192687630653381 0.5734096765518188 0.0
vn -0.6880653500556946 0.7256487011909485 0.0
vn -0.555955171585083 0.8312122821807861 0.0
vn -0.4396129250526428 0.8981873393058777 0.0
vn -0.3442007005214691 0.938896119594574 0.0
vn -0.26831644773483276 0.9633308053016663 0.0
vn -0.20846815407276154 0.9780291318893433 0.0
vn -0.16104303300380707 0.9869473576545715 0.0
vn -0.12291782349348068 0.9924168586730957 0.0
vn -0.09161550551652908 0.9957944750785828 0.0
vn -0.06522087007761002 0.9978708624839783 0.0
vn -0.04225100576877594 0.9991070032119751 0.0
vn -0.02159501425921917 0.9997668266296387 0.0
vn -0.0024564422201365232 0.9999969601631165 0.0
vn -0.0024564422201365232 0.9999969601631165 0.0
vn -0.02159501425921917 0.9997668266296387 0.0
vn -0.04225100576877594 0.9991070032119751 0.0
vn -0.06522087007761002 0.9978708624839783 0.0
vn -0.09161550551652908 0.9957944750785828 0.0
vn -0.12291782349348068 0.9924168586730957 0.0
vn -0.16104303300380707 0.9869473576545715 0.0
vn -0.20846815407276154 0.9780291318893433 0.0
vn -0.26831644773483276 0.9633308053016663 0.0
vn -0.3442007005214691 0.938896119594574 0.0
vn -0.4396129250526428 0.8981873393058777 0.0
vn -0.555955171585083 0.8312122821807861 0.0
vn -0.6880653500556946 0.7256487011909485 0.0
vn -0.8192687630653381 0.5734096765518188 0.0
vn -0.8764986991882324 0.48140424489974976 0.0
vn -0.9239550828933716 0.3825010061264038 0.0
vn -0.9597428441047668 0.2808801829814911 0.0
vn -0.9834948778152466 0.18093587458133698 0.0
vn -0.996257483959198 0.08643518388271332 0.0
vn -1.0 0.0 0.0
vn -1.0 0.0 0.0
vn -1.0 0.0 0.0
vn -1.0 0.0 0.0
vn -1.0 0.0 0.0
vn 0.0 -1.0 0.0
vn 0.0 -1.0 0.0
vn 0.0 -1.0 0.0
vn 0.0 -1.0 0.0
vn -1.0 0.0 0.0
vn -1.0 0.0 0.0
vn -1.0 0.0 0.0
vn -1.0 0.0 0.0
vn 0.0 1.0 -0.0
vn 0.0 1.0 -0.0
vn 0.0 1.0 -0.0
vn 0.0 1.0 -0.0
vn 1.0 0.0 0.0
vn 1.0 0.0 0.0
vn 1.0 0.0 0.0
vn 1.0 0.0 0.0
vn 0.6246950626373291 -0.7808688282966614 0.0
vn 0.6246950626373291 -0.7808688282966614 0.0
vn 0.6246950626373291 -0.7808688282966614 0.0
vn 0.6246950626373291 -0.7808688282966614 0.0
vn 0.0 0.0 1.0
vn 0.0 0.0 1.0
vn 0.0 0.0 1.0
vn 0.0 0.0 1.0
vn 0.0 0.0 1.0
vn 0.0 0.0 1.0
vn 0.0 0.0 1.0
vn 0.0 0.0 1.0
vn 0.0 0.0 1.0
vn 0.0 0.0 1.0
vn 0.0 0.0 1.0
vn 0.0 0.0 1.0
vn 0.0 0.0 1.0
vn 0.0 0.0 1.0
vn 0.0 0.0 1.0
vn 0.0 0.0 1.0
vn 0.0 0.0 1.0
vn 0.0 0.0 1.0
vn 0.0 0.0 1.0
vn 0.0 0.0 1.0
vn 0.0 0.0 1.0
vn 0.0 0.0 1.0
vn 0.0 0.0 1.0
vn 0.0 0.0 1.0
vn 0.0 0.0 1.0
vn 0.0 0.0 1.0
vn 0.0 0.0 1.0
vn -0.0 0.0 -1.0
vn -0.0 0.0 -1.0
vn -0.0 0.0 -1.0
vn -0.0 0.0 -1.0
vn -0.0 0.0 -1.0
vn -0.0 0.0 -1.0
vn -0.0 0.0 -1.0
vn -0.0 0.0 -1.0
vn -0.0 0.0 -1.0
vn -0.0 0.0 -1.0
vn -0.0 0.0 -1.0
vn -0.0 0.0 -1.0
vn -0.0 0.0 -1.0
vn -0.0 0.0 -1.0
vn -0.0 0.0 -1.0
vn -0.0 0.0 -1.0
vn -0.0 0.0 -1.0
vn -0.0 0.0 -1.0
vn -0.0 0.0 -1.0
vn -0.0 0.0 -1.0
vn -0.0 0.0 -1.0
vn -0.0 0.0 -1.0
vn -0.0 0.0 -1.0
vn -0.0 0.0 -1.0
vn -0.0 0.0 -1.0
vn -0.0 0.0 -1.0
vn -0.0 0.0 -1.0
g 1098bb30-e2b4-11ea-bb6f-54bf646e7e1f
f 1//1 2//2 4//4
f 4//4 2//2 3//3
g 109a41b6-e2b4-11ea-b019-54bf646e7e1f
f 5//5 6//6 8//8
f 8//8 6//6 7//7
g 109bc83a-e2b4-11ea-a71b-54bf646e7e1f
f 9//9 10//10 48//48
f 48//48 10//10 47//47
f 47//47 10//10 11//11
f 47//47 11//11 46//46
f 46//46 11//11 12//12
f 46//46 12//12 45//45
f 45//45 12//12 13//13
f 45//45 13//13 44//44
f 44//44 13//13 14//14
f 44//44 14//14 43//43
f 43//43 14//14 15//15
f 43//43 15//15 42//42
f 42//42 15//15 16//16
f 42//42 16//16 41//41
f 41//41 16//16 17//17
f 41//41 17//17 40//40
f 40//40 17//17 18//18
f 40//40 18//18 39//39
f 39//39 18//18 19//19
f 39//39 19//19 38//38
f 38//38 19//19 20//20
f 38//38 20//20 37//37
f 37//37 20//20 21//21
f 37//37 21//21 36//36
f 36//36 21//21 22//22
f 36//36 22//22 35//35
f 35//35 22//22 23//23
f 35//35 23//23 34//34
f 34//34 23//23 24//24
f 34//34 24//24 33//33
f 33//33 24//24 25//25
f 33//33 25//25 32//32
f 32//32 25//25 26//26
f 32//32 26//26 31//31
f 31//31 26//26 27//27
f 31//31 27//27 30//30
f 30//30 27//27 28//28
f 30//30 28//28 29//29
g 109d75f4-e2b4-11ea-96dd-54bf646e7e1f
f 49//49 50//50 52//52
f 52//52 50//50 51//51
g 109f2386-e2b4-11ea-adf6-54bf646e7e1f
f 53//53 54//54 56//56
f 56//56 54//54 55//55
g 10a0aa14-e2b4-11ea-bce3-54bf646e7e1f
f 57//57 58//58 60//60
f 60//60 58//58 59//59
g 10a230b4-e2b4-11ea-b978-54bf646e7e1f
f 61//61 62//62 64//64
f 64//64 62//62 63//63
g 10a3903a-e2b4-11ea-a34a-54bf646e7e1f
f 65//65 66//66 68//68
f 68//68 66//66 67//67
g 10a4a19c-e2b4-11ea-8edd-54bf646e7e1f
f 69//69 70//70 72//72
f 72//72 70//70 71//71
g 10a5d9fe-e2b4-11ea-8d77-54bf646e7e1f
f 74//74 88//88 73//73
f 73//73 88//88 89//89
f 73//73 89//89 90//90
f 75//75 79//79 74//74
f 74//74 79//79 80//80
f 74//74 80//80 81//81
f 79//79 75//75 78//78
f 78//78 75//75 76//76
f 78//78 76//76 77//77
f 81//81 82//82 74//74
f 74//74 82//82 83//83
f 74//74 83//83 84//84
f 84//84 85//85 74//74
f 74//74 85//85 86//86
f 74//74 86//86 87//87
f 87//87 88//88 74//74
f 90//90 91//91 73//73
f 73//73 91//91 92//92
f 73//73 92//92 93//93
f 93//93 94//94 73//73
f 73//73 94//94 95//95
f 73//73 95//95 96//96
f 73//73 96//96 99//99
f 99//99 96//96 97//97
f 99//99 97//97 98//98
g 10a7398a-e2b4-11ea-9fc3-54bf646e7e1f
f 101//101 113//113 100//100
f 100//100 113//113 114//114
f 100//100 114//114 115//115
f 102//102 105//105 101//101
f 101//101 105//105 106//106
f 101//101 106//106 107//107
f 103//103 104//104 102//102
f 102//102 104//104 105//105
f 107//107 108//108 101//101
f 101//101 108//108 109//109
f 101//101 109//109 110//110
f 110//110 111//111 101//101
f 101//101 111//111 112//112
f 101//101 112//112 113//113
f 115//115 116//116 100//100
f 100//100 116//116 117//117
f 100//100 117//117 118//118
f 118//118 119//119 100//100
f 100//100 119//119 120//120
f 100//100 120//120 121//121
f 121//121 122//122 100//100
f 100//100 122//122 126//126
f 126//126 122//122 123//123
f 126//126 123//123 125//125
f 125//125 123//123 124//124

# End of file