# WaveFront *.obj file
# Vertices: 182
# Triangles : 164

v 30.700130462646484 31.947330474853516 0.0028893621638417244
v 30.190837860107422 32.27878189086914 0.002824893919751048
v 29.60312843322754 32.59804153442383 0.0027504991739988327
v 28.94014549255371 32.90339660644531 0.00266657629981637
v 28.2054386138916 33.193214416503906 0.0025735741946846247
v 27.402938842773438 33.4659423828125 0.0024719906505197287
v 26.536941528320312 33.720123291015625 0.00236236909404397
v 25.61208152770996 33.95439529418945 0.0022452964913100004
v 24.633304595947266 34.167503356933594 0.0021213991567492485
v 23.605852127075195 34.35831069946289 0.001991339959204197
v 22.53522300720215 34.525794982910156 0.0018558152951300144
v 20.287546157836914 34.78733825683594 0.001571295433677733
v 17.938323974609375 34.94654083251953 0.0012739215744659305
v 15.537778854370117 35.0 0.0009700508671812713
v 13.137226104736328 34.946571350097656 0.0006661792285740376
v 10.787983894348145 34.78739929199219 0.0003688027209136635
v 8.540271759033203 34.525882720947266 8.427835564361885e-05
v 7.469619274139404 34.35841369628906 -5.124917151988484e-05
v 6.442141532897949 34.16761779785156 -0.0001813114358810708
v 5.463336944580078 33.95451736450195 -0.00030521242297254503
v 4.5384440422058105 33.72025680541992 -0.00042228904203511775
v 3.672412633895874 33.466087341308594 -0.0005319148185662925
v 2.8698766231536865 33.1933708190918 -0.0006335030193440616
v 2.1351311206817627 32.903560638427734 -0.0007265100721269846
v 1.4721081256866455 32.59821701049805 -0.0008104381849989295
v 0.8843556642532349 32.27896499633789 -0.000884838227648288
v 0.3750191926956177 31.94751739501953 -0.0009493121178820729
v 0.19684289395809174 31.814233779907227 0.03187046945095062
v 0.03786846250295639 31.684967041015625 0.12982657551765442
v -0.07843991369009018 31.582799911499023 0.2883225381374359
v -0.1250440925359726 31.539714813232422 0.4989874064922333
v -0.12504447996616364 31.539714813232422 0.5020091533660889
v -0.07848186045885086 31.58271026611328 0.7127119898796082
v 0.03783157095313072 31.684852600097656 0.8712635040283203
v 0.19681762158870697 31.814117431640625 0.9692434072494507
v 0.37502217292785645 31.947423934936523 1.0020724534988403
v 0.8843364119529724 32.278873443603516 1.0020045042037964
v 1.4720673561096191 32.59812927246094 1.0019261837005615
v 2.1350700855255127 32.90347671508789 1.0018378496170044
v 2.86979603767395 33.19329071044922 1.0017399787902832
v 3.672313690185547 33.46601486206055 1.0016329288482666
v 4.538328170776367 33.72018814086914 1.0015175342559814
v 5.463205337524414 33.9544563293457 1.001394271850586
v 6.441995620727539 34.16756057739258 1.0012638568878174
v 7.469460487365723 34.358360290527344 1.0011268854141235
v 8.540102005004883 34.525840759277344 1.0009841918945312
v 10.787796020507812 34.78736877441406 1.0006846189498901
v 13.137027740478516 34.946556091308594 1.0003715753555298
v 15.537577629089355 35.0 1.0000516176223755
v 17.938127517700195 34.946556091308594 0.999731719493866
v 20.2873592376709 34.78736877441406 0.9994186162948608
v 22.535053253173828 34.525840759277344 0.9991190433502197
v 23.605693817138672 34.358360290527344 0.9989763498306274
v 24.633159637451172 34.16756057739258 0.9988394379615784
v 25.611949920654297 33.9544563293457 0.998708963394165
v 26.536827087402344 33.72018814086914 0.9985857009887695
v 27.402841567993164 33.46601486206055 0.9984703063964844
v 28.205358505249023 33.19329071044922 0.9983633160591125
v 28.94008445739746 32.90347671508789 0.9982654452323914
v 29.603086471557617 32.59812927246094 0.9981770515441895
v 30.190818786621094 32.278873443603516 0.9980987310409546
v 30.700132369995117 31.947423934936523 0.9980308413505554
v 30.878511428833008 31.81397819519043 0.9650985598564148
v 31.036943435668945 31.685155868530273 0.8674864768981934
v 31.153278350830078 31.582969665527344 0.7091934084892273
v 31.20005989074707 31.53972053527832 0.5003934502601624
v 31.152719497680664 31.583423614501953 0.2905765473842621
v 31.036418914794922 31.68550682067871 0.13299712538719177
v 30.877784729003906 31.814443588256836 0.03555915132164955
v 31.20005989074707 31.53972053527832 0.5003934502601624
v 31.153278350830078 31.582969665527344 0.7091934084892273
v 31.036943435668945 31.685155868530273 0.8674864768981934
v 30.878511428833008 31.81397819519043 0.9650985598564148
v 30.700132369995117 31.947423934936523 0.9980308413505554
v 30.700132369995117 0.0 0.9980308413505554
v 30.94942283630371 0.0 0.9314146637916565
v 31.132299423217773 0.0 0.7493744492530823
v 31.20005989074707 0.0 0.5003934502601624
v 0.37502217292785645 31.947423934936523 1.0020724534988403
v 0.19681762158870697 31.814117431640625 0.9692434072494507
v 0.03783157095313072 31.684852600097656 0.8712635040283203
v -0.07848186045885086 31.58271026611328 0.7127119898796082
v -0.12504447996616364 31.539714813232422 0.5020091533660889
v -0.12504447996616364 0.0 0.5020091533660889
v -0.05806716904044151 0.0 0.7520551085472107
v 0.12497572600841522 0.0 0.935096800327301
v 0.37502217292785645 0.0 1.0020724534988403
v 30.700132369995117 31.947423934936523 0.9980308413505554
v 30.190818786621094 32.278873443603516 0.9980987310409546
v 29.603086471557617 32.59812927246094 0.9981770515441895
v 28.94008445739746 32.90347671508789 0.9982654452323914
v 28.205358505249023 33.19329071044922 0.9983633160591125
v 27.402841567993164 33.46601486206055 0.9984703063964844
v 26.536827087402344 33.72018814086914 0.9985857009887695
v 25.611949920654297 33.9544563293457 0.998708963394165
v 24.633159637451172 34.16756057739258 0.9988394379615784
v 23.605693817138672 34.358360290527344 0.9989763498306274
v 22.535053253173828 34.525840759277344 0.9991190433502197
v 20.2873592376709 34.78736877441406 0.9994186162948608
v 17.938127517700195 34.946556091308594 0.999731719493866
v 15.537577629089355 35.0 1.0000516176223755
v 13.137027740478516 34.946556091308594 1.0003715753555298
v 10.787796020507812 34.78736877441406 1.0006846189498901
v 8.540102005004883 34.525840759277344 1.0009841918945312
v 7.469460487365723 34.358360290527344 1.0011268854141235
v 6.441995620727539 34.16756057739258 1.0012638568878174
v 5.463205337524414 33.9544563293457 1.001394271850586
v 4.538328170776367 33.72018814086914 1.0015175342559814
v 3.672313690185547 33.46601486206055 1.0016329288482666
v 2.86979603767395 33.19329071044922 1.0017399787902832
v 2.1350700855255127 32.90347671508789 1.0018378496170044
v 1.4720673561096191 32.59812927246094 1.0019261837005615
v 0.8843364119529724 32.278873443603516 1.0020045042037964
v 0.37502217292785645 31.947423934936523 1.0020724534988403
v 0.37502217292785645 0.0 1.0020724534988403
v 30.700132369995117 0.0 0.9980308413505554
v -0.12504447996616364 31.539714813232422 0.5020091533660889
v -0.1250440925359726 31.539714813232422 0.4989874064922333
v -0.1250440925359726 0.0 0.4989874064922333
v -0.12504447996616364 0.0 0.5020091533660889
v -0.1250440925359726 31.539714813232422 0.4989874064922333
v -0.07843991369009018 31.582799911499023 0.2883225381374359
v 0.03786846250295639 31.684967041015625 0.12982657551765442
v 0.19684289395809174 31.814233779907227 0.03187046945095062
v 0.3750191926956177 31.94751739501953 -0.0009493121178820729
v 0.3750191926956177 0.0 -0.0009493121178820729
v 0.12501071393489838 0.0 0.06600634008646011
v -0.05802514776587486 0.0 0.24899587035179138
v -0.1250440925359726 0.0 0.4989874064922333
v 0.3750191926956177 31.94751739501953 -0.0009493121178820729
v 0.8843556642532349 32.27896499633789 -0.000884838227648288
v 1.4721081256866455 32.59821701049805 -0.0008104381849989295
v 2.1351311206817627 32.903560638427734 -0.0007265100721269846
v 2.8698766231536865 33.1933708190918 -0.0006335030193440616
v 3.672412633895874 33.466087341308594 -0.0005319148185662925
v 4.5384440422058105 33.72025680541992 -0.00042228904203511775
v 5.463336944580078 33.95451736450195 -0.00030521242297254503
v 6.442141532897949 34.16761779785156 -0.0001813114358810708
v 7.469619274139404 34.35841369628906 -5.124917151988484e-05
v 8.540271759033203 34.525882720947266 8.427835564361885e-05
v 10.787983894348145 34.78739929199219 0.0003688027209136635
v 13.137226104736328 34.946571350097656 0.0006661792285740376
v 15.537778854370117 35.0 0.0009700508671812713
v 17.938323974609375 34.94654083251953 0.0012739215744659305
v 20.287546157836914 34.78733825683594 0.001571295433677733
v 22.53522300720215 34.525794982910156 0.0018558152951300144
v 23.605852127075195 34.35831069946289 0.001991339959204197
v 24.633304595947266 34.167503356933594 0.0021213991567492485
v 25.61208152770996 33.95439529418945 0.0022452964913100004
v 26.536941528320312 33.720123291015625 0.00236236909404397
v 27.402938842773438 33.4659423828125 0.0024719906505197287
v 28.2054386138916 33.193214416503906 0.0025735741946846247
v 28.94014549255371 32.90339660644531 0.00266657629981637
v 29.60312843322754 32.59804153442383 0.0027504991739988327
v 30.190837860107422 32.27878189086914 0.002824893919751048
v 30.700130462646484 31.947330474853516 0.0028893621638417244
v 30.700130462646484 0.0 0.0028893621638417244
v 0.3750191926956177 0.0 -0.0009493121178820729
v 30.700130462646484 31.947330474853516 0.0028893621638417244
v 30.877784729003906 31.814443588256836 0.03555915132164955
v 31.036418914794922 31.68550682067871 0.13299712538719177
v 31.152719497680664 31.583423614501953 0.2905765473842621
v 31.20005989074707 31.53972053527832 0.5003934502601624
v 31.20005989074707 0.0 0.5003934502601624
v 31.13225555419922 0.0 0.2514679729938507
v 30.949382781982422 0.0 0.06948231160640717
v 30.700130462646484 0.0 0.0028893621638417244
v -0.1250440925359726 0.0 0.4989874064922333
v -0.05802514776587486 0.0 0.24899587035179138
v 0.12501071393489838 0.0 0.06600634008646011
v 0.3750191926956177 0.0 -0.0009493121178820729
v 30.700130462646484 0.0 0.0028893621638417244
v 30.949382781982422 0.0 0.06948231160640717
v 31.13225555419922 0.0 0.2514679729938507
v 31.20005989074707 0.0 0.5003934502601624
v 31.132299423217773 0.0 0.7493744492530823
v 30.94942283630371 0.0 0.9314146637916565
v 30.700132369995117 0.0 0.9980308413505554
v 0.37502217292785645 0.0 1.0020724534988403
v 0.12497572600841522 0.0 0.935096800327301
v -0.05806716904044151 0.0 0.7520551085472107
v -0.12504447996616364 0.0 0.5020091533660889
vn 0.5833737254142761 0.8122038245201111 -7.774897676426917e-05
vn 0.510171115398407 0.860072910785675 -6.799291440984234e-05
vn 0.44679373502731323 0.8946369886398315 -5.9546313423197716e-05
vn 0.391783744096756 0.9200573563575745 -5.2214872994227335e-05
vn 0.34366390109062195 0.9390926957130432 -4.5801716623827815e-05
vn 0.301139235496521 0.9535802006721497 -4.013425132143311e-05
vn 0.26313579082489014 0.9647588133811951 -3.5069351724814624e-05
vn 0.22878152132034302 0.9734777808189392 -3.049079532502219e-05
vn 0.197371706366539 0.9803287386894226 -2.630466224218253e-05
vn 0.16833442449569702 0.9857299327850342 -2.2434724087361246e-05
vn 0.14120088517665863 0.989980936050415 -1.881850948848296e-05
vn 0.0911470353603363 0.9958374500274658 -1.2147596862632781e-05
vn 0.04472799226641655 0.9989991784095764 -5.961111128272023e-06
vn 6.173088422656292e-06 1.0 -8.227167280772107e-10
vn -0.04471541568636894 0.9989997744560242 5.9594353842840064e-06
vn -0.0911337360739708 0.9958386421203613 1.2145824257459026e-05
vn -0.14118626713752747 0.9899830222129822 1.8816561350831762e-05
vn -0.16831885278224945 0.9857326149940491 2.2432650439441204e-05
vn -0.1973549723625183 0.98033207654953 2.630243034218438e-05
vn -0.22876331210136414 0.973482072353363 3.048836879315786e-05
vn -0.2631157636642456 0.9647642970085144 3.506668144837022e-05
vn -0.301116943359375 0.9535872340202332 4.013127909274772e-05
vn -0.3436388373374939 0.9391018748283386 4.57983733213041e-05
vn -0.39175522327423096 0.9200694561004639 5.221107494435273e-05
vn -0.44676098227500916 0.8946533799171448 5.9541951486608014e-05
vn -0.5101332664489746 0.8600953817367554 6.798787217121571e-05
vn -0.5833300948143005 0.8122351765632629 7.774316327413544e-05
vn -0.615031898021698 0.7885022163391113 8.196820999728516e-05
vn -0.6470036506652832 0.7624868750572205 8.622923633083701e-05
vn -0.6730796098709106 0.7395700216293335 8.970450289780274e-05
vn -0.6842732429504395 0.7292256951332092 9.119632886722684e-05
vn -0.6842734217643738 0.7292255163192749 9.11963579710573e-05
vn -0.6731027364730835 0.7395489811897278 8.970758790383115e-05
vn -0.647032618522644 0.762462317943573 8.623309986433014e-05
vn -0.6150603294372559 0.7884800434112549 8.197200077120215e-05
vn -0.5833519697189331 0.8122194409370422 7.774608093313873e-05
vn -0.5101522207260132 0.8600841164588928 6.799040420446545e-05
vn -0.4467774033546448 0.8946451544761658 5.9544137911871076e-05
vn -0.39176952838897705 0.9200633764266968 5.221297760726884e-05
vn -0.3436514139175415 0.9390972852706909 4.580004679155536e-05
vn -0.3011281192302704 0.9535837173461914 4.013276702607982e-05
vn -0.26312577724456787 0.9647615551948547 3.506801658659242e-05
vn -0.22877243161201477 0.9734799265861511 3.048958387807943e-05
vn -0.19736336171627045 0.9803304076194763 2.6303547201678157e-05
vn -0.16832664608955383 0.9857312440872192 2.243368908239063e-05
vn -0.14119358360767365 0.989982008934021 1.8817536329152063e-05
vn -0.09114038944244385 0.9958380460739136 1.2146711014793254e-05
vn -0.044721707701683044 0.9989994764328003 5.96027348365169e-06
vn -2.883546056706138e-16 1.0 3.843038151303605e-20
vn 0.044721707701683044 0.9989994764328003 -5.96027348365169e-06
vn 0.09114038944244385 0.9958380460739136 -1.2146711014793254e-05
vn 0.14119358360767365 0.989982008934021 -1.8817536329152063e-05
vn 0.16832664608955383 0.9857312440872192 -2.243368908239063e-05
vn 0.19736336171627045 0.9803304076194763 -2.6303547201678157e-05
vn 0.22877243161201477 0.9734799265861511 -3.048958387807943e-05
vn 0.26312577724456787 0.9647615551948547 -3.506801658659242e-05
vn 0.3011281192302704 0.9535837173461914 -4.013276702607982e-05
vn 0.3436514139175415 0.9390972852706909 -4.580004679155536e-05
vn 0.39176952838897705 0.9200633764266968 -5.221297760726884e-05
vn 0.4467774033546448 0.8946451544761658 -5.9544137911871076e-05
vn 0.5101522207260132 0.8600841164588928 -6.799040420446545e-05
vn 0.5833519697189331 0.8122194409370422 -7.774608093313873e-05
vn 0.6150938868522644 0.7884538769721985 -8.197646820917726e-05
vn 0.6469563245773315 0.7625270485877991 -8.622292807558551e-05
vn 0.6730360388755798 0.7396097183227539 -8.969869668362662e-05
vn 0.6842719912528992 0.7292268872261047 -9.119616152020171e-05
vn 0.6729184985160828 0.739716649055481 -8.968303154688329e-05
vn 0.6468679308891296 0.7626020312309265 -8.621114830020815e-05
vn 0.6149808764457703 0.7885420322418213 -8.196141425287351e-05
vn 0.999988853931427 -0.0 0.004725231789052486
vn 0.9064412117004395 -0.0 0.4223320484161377
vn 0.6737760901451111 -0.0 0.7389355897903442
vn 0.3568933308124542 -0.0 0.9341451525688171
vn 0.0001332747342530638 -0.0 1.0
vn 0.0001332747342530638 -0.0 1.0
vn 0.49871233105659485 -0.0 0.8667675852775574
vn 0.8644683361053467 -0.0 0.5026872158050537
vn 0.999988853931427 -0.0 0.004725231789052486
vn 0.0001332747342530638 -0.0 1.0
vn -0.35628876090049744 -0.0 0.9343758821487427
vn -0.6743090748786926 -0.0 0.738449215888977
vn -0.9069210290908813 -0.0 0.42130061984062195
vn -1.0 0.0 -0.0001265840110136196
vn -1.0 0.0 -0.0001265840110136196
vn -0.866045355796814 -0.0 0.4999653995037079
vn -0.4999595880508423 -0.0 0.8660487532615662
vn 0.0001332747342530638 -0.0 1.0
vn 0.0001332747342530638 -0.0 1.0
vn 0.0001332747342530638 -0.0 1.0
vn 0.0001332747342530638 -0.0 1.0
vn 0.0001332747342530638 -0.0 1.0
vn 0.0001332747342530638 -0.0 1.0
vn 0.0001332747342530638 -0.0 1.0
vn 0.0001332747342530638 -0.0 1.0
vn 0.0001332747342530638 -0.0 1.0
vn 0.0001332747342530638 -0.0 1.0
vn 0.0001332747342530638 -0.0 1.0
vn 0.0001332747342530638 -0.0 1.0
vn 0.0001332747342530638 -0.0 1.0
vn 0.0001332747342530638 -0.0 1.0
vn 0.0001332747342530638 -0.0 1.0
vn 0.0001332747342530638 -0.0 1.0
vn 0.0001332747342530638 -0.0 1.0
vn 0.0001332747342530638 -0.0 1.0
vn 0.0001332747342530638 -0.0 1.0
vn 0.0001332747342530638 -0.0 1.0
vn 0.0001332747342530638 -0.0 1.0
vn 0.0001332747342530638 -0.0 1.0
vn 0.0001332747342530638 -0.0 1.0
vn 0.0001332747342530638 -0.0 1.0
vn 0.0001332747342530638 -0.0 1.0
vn 0.0001332747342530638 -0.0 1.0
vn 0.0001332747342530638 -0.0 1.0
vn 0.0001332747342530638 -0.0 1.0
vn 0.0001332747342530638 -0.0 1.0
vn 0.0001332747342530638 -0.0 1.0
vn -1.0 0.0 -0.0001265840110136196
vn -1.0 0.0 -0.0001265840110136196
vn -1.0 0.0 -0.0001265840110136196
vn -1.0 0.0 -0.0001265840110136196
vn -1.0 0.0 -0.0001265840110136196
vn -0.906838595867157 0.0 -0.4214780926704407
vn -0.6742364168167114 0.0 -0.7385156154632568
vn -0.3562391400337219 0.0 -0.9343948364257812
vn 0.0001265840110136196 -0.0 -1.0
vn 0.0001265840110136196 -0.0 -1.0
vn -0.49989035725593567 0.0 -0.8660886883735657
vn -0.8659620881080627 0.0 -0.5001096129417419
vn -1.0 0.0 -0.0001265840110136196
vn 0.0001265840110136196 0.0 -1.0
vn 0.0001265840110136196 0.0 -1.0
vn 0.0001265840110136196 0.0 -1.0
vn 0.0001265840110136196 0.0 -1.0
vn 0.0001265840110136196 0.0 -1.0
vn 0.0001265840110136196 0.0 -1.0
vn 0.0001265840110136196 0.0 -1.0
vn 0.0001265840110136196 0.0 -1.0
vn 0.0001265840110136196 0.0 -1.0
vn 0.0001265840110136196 0.0 -1.0
vn 0.0001265840110136196 0.0 -1.0
vn 0.0001265840110136196 0.0 -1.0
vn 0.0001265840110136196 0.0 -1.0
vn 0.0001265840110136196 0.0 -1.0
vn 0.0001265840110136196 0.0 -1.0
vn 0.0001265840110136196 0.0 -1.0
vn 0.0001265840110136196 0.0 -1.0
vn 0.0001265840110136196 0.0 -1.0
vn 0.0001265840110136196 0.0 -1.0
vn 0.0001265840110136196 0.0 -1.0
vn 0.0001265840110136196 0.0 -1.0
vn 0.0001265840110136196 0.0 -1.0
vn 0.0001265840110136196 0.0 -1.0
vn 0.0001265840110136196 0.0 -1.0
vn 0.0001265840110136196 0.0 -1.0
vn 0.0001265840110136196 0.0 -1.0
vn 0.0001265840110136196 0.0 -1.0
vn 0.0001265840110136196 0.0 -1.0
vn 0.0001265840110136196 0.0 -1.0
vn 0.0001265840110136196 -0.0 -1.0
vn 0.35544946789741516 -0.0 -0.9346954822540283
vn 0.6727678179740906 -0.0 -0.7398536801338196
vn 0.9053576588630676 -0.0 -0.4246498644351959
vn 0.9999875426292419 -0.0 -0.004991778172552586
vn 0.9999875426292419 -0.0 -0.004991778172552586
vn 0.8643779158592224 -0.0 -0.5028427839279175
vn 0.49863144755363464 -0.0 -0.8668140769004822
vn 0.0001265840110136196 -0.0 -1.0
vn -0.0 -1.0 -0.0
vn -0.0 -1.0 -0.0
vn -0.0 -1.0 -0.0
vn -0.0 -1.0 -0.0
vn -0.0 -1.0 -0.0
vn -0.0 -1.0 -0.0
vn -0.0 -1.0 -0.0
vn -0.0 -1.0 -0.0
vn -0.0 -1.0 -0.0
vn -0.0 -1.0 -0.0
vn -0.0 -1.0 -0.0
vn -0.0 -1.0 -0.0
vn -0.0 -1.0 -0.0
vn -0.0 -1.0 -0.0
vn -0.0 -1.0 -0.0
g 9eb57e4c-e2b4-11ea-b4a4-54bf646e7e1f
f 69//69 1//1 62//62
f 62//62 1//1 2//2
f 62//62 2//2 61//61
f 61//61 2//2 3//3
f 61//61 3//3 60//60
f 60//60 3//3 4//4
f 60//60 4//4 59//59
f 59//59 4//4 5//5
f 59//59 5//5 58//58
f 58//58 5//5 6//6
f 58//58 6//6 57//57
f 57//57 6//6 7//7
f 57//57 7//7 56//56
f 56//56 7//7 8//8
f 56//56 8//8 55//55
f 55//55 8//8 9//9
f 55//55 9//9 54//54
f 54//54 9//9 10//10
f 54//54 10//10 53//53
f 53//53 10//10 11//11
f 53//53 11//11 52//52
f 52//52 11//11 12//12
f 52//52 12//12 51//51
f 51//51 12//12 13//13
f 51//51 13//13 50//50
f 50//50 13//13 14//14
f 50//50 14//14 49//49
f 49//49 14//14 15//15
f 49//49 15//15 48//48
f 48//48 15//15 16//16
f 48//48 16//16 47//47
f 47//47 16//16 17//17
f 47//47 17//17 46//46
f 46//46 17//17 18//18
f 46//46 18//18 45//45
f 45//45 18//18 19//19
f 45//45 19//19 44//44
f 44//44 19//19 20//20
f 44//44 20//20 43//43
f 43//43 20//20 21//21
f 43//43 21//21 42//42
f 42//42 21//21 22//22
f 42//42 22//22 41//41
f 41//41 22//22 23//23
f 41//41 23//23 40//40
f 40//40 23//23 24//24
f 40//40 24//24 39//39
f 39//39 24//24 25//25
f 39//39 25//25 38//38
f 38//38 25//25 26//26
f 38//38 26//26 37//37
f 37//37 26//26 27//27
f 37//37 27//27 36//36
f 36//36 27//27 28//28
f 36//36 28//28 35//35
f 35//35 28//28 29//29
f 35//35 29//29 34//34
f 34//34 29//29 30//30
f 34//34 30//30 33//33
f 33//33 30//30 31//31
f 33//33 31//31 32//32
f 62//62 63//63 69//69
f 69//69 63//63 68//68
f 68//68 63//63 64//64
f 68//68 64//64 67//67
f 67//67 64//64 65//65
f 67//67 65//65 66//66
g 9e50f264-e2b4-11ea-ae11-54bf646e7e1f
f 70//70 71//71 78//78
f 78//78 71//71 77//77
f 77//77 71//71 72//72
f 77//77 72//72 76//76
f 76//76 72//72 73//73
f 76//76 73//73 75//75
f 75//75 73//73 74//74
g 9e527914-e2b4-11ea-9196-54bf646e7e1f
f 79//79 80//80 87//87
f 87//87 80//80 86//86
f 86//86 80//80 81//81
f 86//86 81//81 85//85
f 85//85 81//81 82//82
f 85//85 82//82 84//84
f 84//84 82//82 83//83
g 9e518ea8-e2b4-11ea-9fb6-54bf646e7e1f
f 89//89 113//113 88//88
f 88//88 113//113 114//114
f 88//88 114//114 116//116
f 116//116 114//114 115//115
f 113//113 89//89 112//112
f 112//112 89//89 90//90
f 112//112 90//90 101//101
f 101//101 90//90 100//100
f 100//100 90//90 99//99
f 99//99 90//90 98//98
f 98//98 90//90 97//97
f 97//97 90//90 96//96
f 96//96 90//90 95//95
f 95//95 90//90 94//94
f 94//94 90//90 93//93
f 93//93 90//90 92//92
f 92//92 90//90 91//91
f 101//101 102//102 112//112
f 112//112 102//102 103//103
f 112//112 103//103 104//104
f 104//104 105//105 112//112
f 112//112 105//105 106//106
f 112//112 106//106 107//107
f 107//107 108//108 112//112
f 112//112 108//108 109//109
f 112//112 109//109 110//110
f 110//110 111//111 112//112
g 9e533c38-e2b4-11ea-abec-54bf646e7e1f
f 118//118 119//119 117//117
f 117//117 119//119 120//120
g 9e53d878-e2b4-11ea-87db-54bf646e7e1f
f 121//121 122//122 129//129
f 129//129 122//122 128//128
f 128//128 122//122 123//123
f 128//128 123//123 127//127
f 127//127 123//123 124//124
f 127//127 124//124 126//126
f 126//126 124//124 125//125
g 9e4fb9e8-e2b4-11ea-8fc3-54bf646e7e1f
f 131//131 155//155 130//130
f 130//130 155//155 156//156
f 130//130 156//156 158//158
f 158//158 156//156 157//157
f 155//155 131//131 154//154
f 154//154 131//131 132//132
f 154//154 132//132 143//143
f 143//143 132//132 142//142
f 142//142 132//132 141//141
f 141//141 132//132 140//140
f 140//140 132//132 139//139
f 139//139 132//132 138//138
f 138//138 132//132 137//137
f 137//137 132//132 136//136
f 136//136 132//132 135//135
f 135//135 132//132 134//134
f 134//134 132//132 133//133
f 143//143 144//144 154//154
f 154//154 144//144 145//145
f 154//154 145//145 146//146
f 146//146 147//147 154//154
f 154//154 147//147 148//148
f 154//154 148//148 149//149
f 149//149 150//150 154//154
f 154//154 150//150 151//151
f 154//154 151//151 152//152
f 152//152 153//153 154//154
g 9e50563e-e2b4-11ea-894c-54bf646e7e1f
f 159//159 160//160 167//167
f 167//167 160//160 166//166
f 166//166 160//160 161//161
f 166//166 161//161 165//165
f 165//165 161//161 162//162
f 165//165 162//162 164//164
f 164//164 162//162 163//163
g 9e555f10-e2b4-11ea-9109-54bf646e7e1f
f 169//169 174//174 168//168
f 168//168 174//174 175//175
f 168//168 175//175 182//182
f 182//182 175//175 176//176
f 182//182 176//176 181//181
f 181//181 176//176 177//177
f 181//181 177//177 180//180
f 180//180 177//177 178//178
f 180//180 178//178 179//179
f 174//174 169//169 173//173
f 173//173 169//169 170//170
f 173//173 170//170 172//172
f 172//172 170//170 171//171

# End of file