# WaveFront *.obj file
# Vertices: 140
# Triangles : 116

v 2.5 3.235521078109741 2.0
v 2.5 3.1934216022491455 1.6802235841751099
v 2.5 3.0699925422668457 1.3822394609451294
v 2.5 2.873645305633545 1.126354694366455
v 2.5 2.61776065826416 0.9300073385238647
v 2.5 2.3197762966156006 0.8065782785415649
v 2.5 2.0 0.7644789218902588
v 2.5 1.6802235841751099 0.8065782785415649
v 2.5 1.3822394609451294 0.9300073385238647
v 2.5 1.126354694366455 1.126354694366455
v 2.5 0.9300073385238647 1.3822394609451294
v 2.5 0.8065782785415649 1.6802235841751099
v 2.5 0.7644789218902588 2.0
v 2.5 0.7644789218902588 2.0
v 2.5 0.8065782785415649 2.3197762966156006
v 2.5 0.9300073385238647 2.61776065826416
v 2.5 1.126354694366455 2.873645305633545
v 2.5 1.3822394609451294 3.0699925422668457
v 2.5 1.6802235841751099 3.1934216022491455
v 2.5 2.0 3.235521078109741
v 2.5 2.3197762966156006 3.1934216022491455
v 2.5 2.61776065826416 3.0699925422668457
v 2.5 2.873645305633545 2.873645305633545
v 2.5 3.0699925422668457 2.61776065826416
v 2.5 3.1934216022491455 2.3197762966156006
v 2.5 3.235521078109741 2.0
v 2.5 3.9000000953674316 2.0
v 2.2109298706054688 3.9000000953674316 7.0
v 2.2109298706054688 0.0 7.0
v 2.5 0.0 2.0
v 2.5 0.7644789218902588 2.0
v 2.5 3.235521078109741 2.0
v 2.2335445880889893 3.9000000953674316 -2.5
v 2.5 3.9000000953674316 2.0
v 2.5 3.235521078109741 2.0
v 2.5 0.7644789218902588 2.0
v 2.5 0.0 2.0
v 2.2335445880889893 0.0 -2.5
v 2.2335445880889893 0.0 -2.5
v 2.5 0.0 2.0
v 2.2109298706054688 0.0 7.0
v -2.0 0.0 7.0
v -2.5 0.0 2.0
v -2.0 0.0 -2.5
v 2.2109298706054688 0.0 7.0
v 2.2109298706054688 3.9000000953674316 7.0
v -2.0 3.9000000953674316 7.0
v -2.0 0.0 7.0
v -2.5 0.0 2.0
v -2.0 0.0 7.0
v -2.0 3.9000000953674316 7.0
v -2.5 3.9000000953674316 2.0
v -2.0 0.0 -2.5
v -2.5 0.0 2.0
v -2.5 3.9000000953674316 2.0
v -2.0 3.9000000953674316 -2.5
v 17.5 2.0 3.235521078109741
v 17.5 2.3197762966156006 3.1934216022491455
v 17.5 2.61776065826416 3.0699925422668457
v 17.5 2.873645305633545 2.873645305633545
v 17.5 3.0699925422668457 2.61776065826416
v 17.5 3.1934216022491455 2.3197762966156006
v 17.5 3.235521078109741 2.0
v 17.5 3.1934216022491455 1.6802235841751099
v 17.5 3.0699925422668457 1.3822394609451294
v 17.5 2.873645305633545 1.126354694366455
v 17.5 2.61776065826416 0.9300073385238647
v 17.5 2.3197762966156006 0.8065782785415649
v 17.5 2.0 0.7644789218902588
v 17.5 1.6802235841751099 0.8065782785415649
v 17.5 1.3822394609451294 0.9300073385238647
v 17.5 1.126354694366455 1.126354694366455
v 17.5 0.9300073385238647 1.3822394609451294
v 17.5 0.8065782785415649 1.6802235841751099
v 17.5 0.7644789218902588 2.0
v 17.5 0.8065782785415649 2.3197762966156006
v 17.5 0.9300073385238647 2.61776065826416
v 17.5 1.126354694366455 2.873645305633545
v 17.5 1.3822394609451294 3.0699925422668457
v 17.5 1.6802235841751099 3.1934216022491455
v 2.5 3.235521078109741 2.0
v 2.5 3.1934216022491455 2.3197762966156006
v 2.5 3.0699925422668457 2.61776065826416
v 2.5 2.873645305633545 2.873645305633545
v 2.5 2.61776065826416 3.0699925422668457
v 2.5 2.3197762966156006 3.1934216022491455
v 2.5 2.0 3.235521078109741
v 2.5 1.6802235841751099 3.1934216022491455
v 2.5 1.3822394609451294 3.0699925422668457
v 2.5 1.126354694366455 2.873645305633545
v 2.5 0.9300073385238647 2.61776065826416
v 2.5 0.8065782785415649 2.3197762966156006
v 2.5 0.7644789218902588 2.0
v 2.5 0.8065782785415649 1.6802235841751099
v 2.5 0.9300073385238647 1.3822394609451294
v 2.5 1.126354694366455 1.126354694366455
v 2.5 1.3822394609451294 0.9300073385238647
v 2.5 1.6802235841751099 0.8065782785415649
v 2.5 2.0 0.7644789218902588
v 2.5 2.3197762966156006 0.8065782785415649
v 2.5 2.61776065826416 0.9300073385238647
v 2.5 2.873645305633545 1.126354694366455
v 2.5 3.0699925422668457 1.3822394609451294
v 2.5 3.1934216022491455 1.6802235841751099
v 2.5 2.0 3.235521078109741
v 17.5 2.0 3.235521078109741
v 17.5 2.0 3.235521078109741
v 17.5 1.6802235841751099 3.1934216022491455
v 17.5 1.3822394609451294 3.0699925422668457
v 17.5 1.126354694366455 2.873645305633545
v 17.5 0.9300073385238647 2.61776065826416
v 17.5 0.8065782785415649 2.3197762966156006
v 17.5 0.7644789218902588 2.0
v 17.5 0.8065782785415649 1.6802235841751099
v 17.5 0.9300073385238647 1.3822394609451294
v 17.5 1.126354694366455 1.126354694366455
v 17.5 1.3822394609451294 0.9300073385238647
v 17.5 1.6802235841751099 0.8065782785415649
v 17.5 2.0 0.7644789218902588
v 17.5 2.3197762966156006 0.8065782785415649
v 17.5 2.61776065826416 0.9300073385238647
v 17.5 2.873645305633545 1.126354694366455
v 17.5 3.0699925422668457 1.3822394609451294
v 17.5 3.1934216022491455 1.6802235841751099
v 17.5 3.235521078109741 2.0
v 17.5 3.1934216022491455 2.3197762966156006
v 17.5 3.0699925422668457 2.61776065826416
v 17.5 2.873645305633545 2.873645305633545
v 17.5 2.61776065826416 3.0699925422668457
v 17.5 2.3197762966156006 3.1934216022491455
v 2.2335445880889893 3.9000000953674316 -2.5
v 2.2335445880889893 0.0 -2.5
v -2.0 0.0 -2.5
v -2.0 3.9000000953674316 -2.5
v 2.5 3.9000000953674316 2.0
v 2.2335445880889893 3.9000000953674316 -2.5
v -2.0 3.9000000953674316 -2.5
v -2.5 3.9000000953674316 2.0
v -2.0 3.9000000953674316 7.0
v 2.2109298706054688 3.9000000953674316 7.0
vn -1.0 -0.0 0.0
vn -1.0 -0.0 0.0
vn -1.0 -0.0 0.0
vn -1.0 -0.0 0.0
vn -1.0 -0.0 0.0
vn -1.0 -0.0 0.0
vn -1.0 -0.0 0.0
vn -1.0 -0.0 0.0
vn -1.0 -0.0 0.0
vn -1.0 -0.0 0.0
vn -1.0 -0.0 0.0
vn -1.0 -0.0 0.0
vn -1.0 -0.0 0.0
vn -1.0 -0.0 0.0
vn -1.0 -0.0 0.0
vn -1.0 -0.0 0.0
vn -1.0 -0.0 0.0
vn -1.0 -0.0 0.0
vn -1.0 -0.0 0.0
vn -1.0 -0.0 0.0
vn -1.0 -0.0 0.0
vn -1.0 -0.0 0.0
vn -1.0 -0.0 0.0
vn -1.0 -0.0 0.0
vn -1.0 -0.0 0.0
vn -1.0 -0.0 0.0
vn 0.9983329772949219 0.0 0.05771763250231743
vn 0.9983329772949219 0.0 0.05771763250231743
vn 0.9983329772949219 0.0 0.05771763250231743
vn 0.9983329772949219 0.0 0.05771763250231743
vn 0.9983329772949219 0.0 0.05771763250231743
vn 0.9983329772949219 0.0 0.05771763250231743
vn 0.9982515573501587 -0.0 -0.05910877510905266
vn 0.9982515573501587 -0.0 -0.05910877510905266
vn 0.9982515573501587 -0.0 -0.05910877510905266
vn 0.9982515573501587 -0.0 -0.05910877510905266
vn 0.9982515573501587 -0.0 -0.05910877510905266
vn 0.9982515573501587 -0.0 -0.05910877510905266
vn -0.0 -1.0 -0.0
vn -0.0 -1.0 -0.0
vn -0.0 -1.0 -0.0
vn -0.0 -1.0 -0.0
vn -0.0 -1.0 -0.0
vn -0.0 -1.0 -0.0
vn 0.0 -0.0 1.0
vn 0.0 -0.0 1.0
vn 0.0 -0.0 1.0
vn 0.0 -0.0 1.0
vn -0.9950371980667114 -0.0 0.09950371831655502
vn -0.9950371980667114 -0.0 0.09950371831655502
vn -0.9950371980667114 -0.0 0.09950371831655502
vn -0.9950371980667114 -0.0 0.09950371831655502
vn -0.9938837289810181 -0.0 -0.11043152958154678
vn -0.9938837289810181 -0.0 -0.11043152958154678
vn -0.9938837289810181 -0.0 -0.11043152958154678
vn -0.9938837289810181 -0.0 -0.11043152958154678
vn -0.0 1.2246468525851679e-16 1.0
vn -0.0 0.258819043636322 0.9659258127212524
vn -0.0 0.5 0.8660253882408142
vn -0.0 0.7071067690849304 0.7071067690849304
vn -0.0 0.8660253882408142 0.5
vn -0.0 0.9659258127212524 0.258819043636322
vn -0.0 1.0 -6.123234262925839e-17
vn -0.0 0.9659258127212524 -0.258819043636322
vn -0.0 0.8660253882408142 -0.5
vn -0.0 0.7071067690849304 -0.7071067690849304
vn -0.0 0.5 -0.8660253882408142
vn -0.0 0.258819043636322 -0.9659258127212524
vn -0.0 0.0 -1.0
vn 0.0 -0.258819043636322 -0.9659258127212524
vn 0.0 -0.5 -0.8660253882408142
vn 0.0 -0.7071067690849304 -0.7071067690849304
vn 0.0 -0.8660253882408142 -0.5
vn 0.0 -0.9659258127212524 -0.258819043636322
vn 0.0 -1.0 -6.123234262925839e-17
vn -0.0 -0.9659258127212524 0.258819043636322
vn -0.0 -0.8660253882408142 0.5
vn -0.0 -0.7071067690849304 0.7071067690849304
vn -0.0 -0.5 0.8660253882408142
vn -0.0 -0.258819043636322 0.9659258127212524
vn -0.0 1.0 -6.123234262925839e-17
vn -0.0 0.9659258127212524 0.258819043636322
vn -0.0 0.8660253882408142 0.5
vn -0.0 0.7071067690849304 0.7071067690849304
vn -0.0 0.5 0.8660253882408142
vn -0.0 0.258819043636322 0.9659258127212524
vn -0.0 -1.2246468525851679e-16 1.0
vn -0.0 -0.258819043636322 0.9659258127212524
vn -0.0 -0.5 0.8660253882408142
vn -0.0 -0.7071067690849304 0.7071067690849304
vn -0.0 -0.8660253882408142 0.5
vn -0.0 -0.9659258127212524 0.258819043636322
vn 0.0 -1.0 -6.123234262925839e-17
vn 0.0 -0.9659258127212524 -0.258819043636322
vn 0.0 -0.8660253882408142 -0.5
vn 0.0 -0.7071067690849304 -0.7071067690849304
vn 0.0 -0.5 -0.8660253882408142
vn 0.0 -0.258819043636322 -0.9659258127212524
vn -0.0 0.0 -1.0
vn -0.0 0.258819043636322 -0.9659258127212524
vn -0.0 0.5 -0.8660253882408142
vn -0.0 0.7071067690849304 -0.7071067690849304
vn -0.0 0.8660253882408142 -0.5
vn -0.0 0.9659258127212524 -0.258819043636322
vn -0.0 1.2246468525851679e-16 1.0
vn -0.0 -1.2246468525851679e-16 1.0
vn 1.0 0.0 0.0
vn 1.0 0.0 0.0
vn 1.0 0.0 0.0
vn 1.0 0.0 0.0
vn 1.0 0.0 0.0
vn 1.0 0.0 0.0
vn 1.0 0.0 0.0
vn 1.0 0.0 0.0
vn 1.0 0.0 0.0
vn 1.0 0.0 0.0
vn 1.0 0.0 0.0
vn 1.0 0.0 0.0
vn 1.0 0.0 0.0
vn 1.0 0.0 0.0
vn 1.0 0.0 0.0
vn 1.0 0.0 0.0
vn 1.0 0.0 0.0
vn 1.0 0.0 0.0
vn 1.0 0.0 0.0
vn 1.0 0.0 0.0
vn 1.0 0.0 0.0
vn 1.0 0.0 0.0
vn 1.0 0.0 0.0
vn 1.0 0.0 0.0
vn 0.0 0.0 -1.0
vn 0.0 0.0 -1.0
vn 0.0 0.0 -1.0
vn 0.0 0.0 -1.0
vn 0.0 1.0 0.0
vn 0.0 1.0 0.0
vn 0.0 1.0 0.0
vn 0.0 1.0 0.0
vn 0.0 1.0 0.0
vn 0.0 1.0 0.0
g c56eaa36-e2bf-11ea-9f11-54bf646e7e1f
f 13//13 1//1 12//12
f 12//12 1//1 2//2
f 12//12 2//2 3//3
f 12//12 3//3 11//11
f 11//11 3//3 4//4
f 11//11 4//4 10//10
f 10//10 4//4 5//5
f 10//10 5//5 9//9
f 9//9 5//5 6//6
f 9//9 6//6 8//8
f 8//8 6//6 7//7
g c56f1f66-e2bf-11ea-b3e9-54bf646e7e1f
f 14//14 15//15 26//26
f 26//26 15//15 25//25
f 25//25 15//15 24//24
f 24//24 15//15 16//16
f 24//24 16//16 23//23
f 23//23 16//16 17//17
f 23//23 17//17 22//22
f 22//22 17//17 18//18
f 22//22 18//18 21//21
f 21//21 18//18 19//19
f 21//21 19//19 20//20
g c56f94a2-e2bf-11ea-bdf0-54bf646e7e1f
f 27//27 28//28 32//32
f 32//32 28//28 31//31
f 31//31 28//28 29//29
f 31//31 29//29 30//30
g c57009e2-e2bf-11ea-844a-54bf646e7e1f
f 34//34 35//35 33//33
f 33//33 35//35 36//36
f 33//33 36//36 38//38
f 38//38 36//36 37//37
g c4e35406-e2bf-11ea-be65-54bf646e7e1f
f 39//39 40//40 44//44
f 44//44 40//40 43//43
f 43//43 40//40 42//42
f 42//42 40//40 41//41
g c4e2b7a4-e2bf-11ea-9f51-54bf646e7e1f
f 46//46 47//47 45//45
f 45//45 47//47 48//48
g c53596b8-e2bf-11ea-be2c-54bf646e7e1f
f 49//49 50//50 52//52
f 52//52 50//50 51//51
g c535e4b0-e2bf-11ea-8c25-54bf646e7e1f
f 53//53 54//54 56//56
f 56//56 54//54 55//55
g c503fcae-e2bf-11ea-b740-54bf646e7e1f
f 58//58 86//86 57//57
f 57//57 86//86 105//105
f 106//106 87//87 80//80
f 80//80 87//87 88//88
f 80//80 88//88 79//79
f 79//79 88//88 89//89
f 79//79 89//89 78//78
f 78//78 89//89 90//90
f 78//78 90//90 77//77
f 77//77 90//90 91//91
f 77//77 91//91 76//76
f 76//76 91//91 92//92
f 76//76 92//92 75//75
f 75//75 92//92 93//93
f 75//75 93//93 74//74
f 74//74 93//93 94//94
f 74//74 94//94 73//73
f 73//73 94//94 95//95
f 73//73 95//95 72//72
f 72//72 95//95 96//96
f 72//72 96//96 71//71
f 71//71 96//96 97//97
f 71//71 97//97 70//70
f 70//70 97//97 98//98
f 70//70 98//98 69//69
f 69//69 98//98 99//99
f 69//69 99//99 68//68
f 68//68 99//99 100//100
f 68//68 100//100 67//67
f 67//67 100//100 101//101
f 67//67 101//101 66//66
f 66//66 101//101 102//102
f 66//66 102//102 65//65
f 65//65 102//102 103//103
f 65//65 103//103 64//64
f 64//64 103//103 104//104
f 64//64 104//104 63//63
f 63//63 104//104 81//81
f 63//63 81//81 62//62
f 62//62 81//81 82//82
f 62//62 82//82 61//61
f 61//61 82//82 83//83
f 61//61 83//83 60//60
f 60//60 83//83 84//84
f 60//60 84//84 59//59
f 59//59 84//84 85//85
f 59//59 85//85 58//58
f 58//58 85//85 86//86
g c5044adc-e2bf-11ea-9294-54bf646e7e1f
f 108//108 118//118 107//107
f 107//107 118//118 119//119
f 107//107 119//119 130//130
f 130//130 119//119 120//120
f 130//130 120//120 129//129
f 129//129 120//120 121//121
f 129//129 121//121 128//128
f 128//128 121//121 122//122
f 128//128 122//122 127//127
f 127//127 122//122 123//123
f 127//127 123//123 126//126
f 126//126 123//123 124//124
f 126//126 124//124 125//125
f 118//118 108//108 117//117
f 117//117 108//108 109//109
f 117//117 109//109 116//116
f 116//116 109//109 110//110
f 116//116 110//110 115//115
f 115//115 110//110 111//111
f 115//115 111//111 114//114
f 114//114 111//111 112//112
f 114//114 112//112 113//113
g c4e26978-e2bf-11ea-bc67-54bf646e7e1f
f 132//132 133//133 131//131
f 131//131 133//133 134//134
g c4e305e8-e2bf-11ea-8ba3-54bf646e7e1f
f 136//136 137//137 135//135
f 135//135 137//137 138//138
f 135//135 138//138 139//139
f 139//139 140//140 135//135

# End of file