# WaveFront *.obj file
# Vertices: 94
# Triangles : 88

v -2.0 40.0 2.4492937051703357e-16
v -1.9258345365524292 40.0 0.539593517780304
v -1.7088388204574585 40.0 1.039167881011963
v -1.3651063442230225 40.0 1.4616719484329224
v -0.9201300740242004 40.0 1.7757704257965088
v -0.40691202878952026 40.0 1.9581681489944458
v 0.13648483157157898 40.0 1.9953374862670898
v 0.669759213924408 40.0 1.8845218420028687
v 1.1533606052398682 40.0 1.6339397430419922
v 1.5514225959777832 40.0 1.2621759176254272
v 1.8344225883483887 40.0 0.7968021631240845
v 1.9813718795776367 40.0 0.2723332941532135
v 1.9813718795776367 40.0 -0.2723332941532135
v 1.8344225883483887 40.0 -0.7968021631240845
v 1.5514225959777832 40.0 -1.2621759176254272
v 1.1533606052398682 40.0 -1.6339397430419922
v 0.669759213924408 40.0 -1.8845218420028687
v 0.13648483157157898 40.0 -1.9953374862670898
v -0.40691202878952026 40.0 -1.9581681489944458
v -0.9201300740242004 40.0 -1.7757704257965088
v -1.3651063442230225 40.0 -1.4616719484329224
v -1.7088388204574585 40.0 -1.039167881011963
v -1.9258345365524292 40.0 -0.539593517780304
v -2.0 40.0 2.4492937051703357e-16
v -1.9258345365524292 40.0 -0.539593517780304
v -1.7088388204574585 40.0 -1.039167881011963
v -1.3651063442230225 40.0 -1.4616719484329224
v -0.9201300740242004 40.0 -1.7757704257965088
v -0.40691202878952026 40.0 -1.9581681489944458
v 0.13648483157157898 40.0 -1.9953374862670898
v 0.669759213924408 40.0 -1.8845218420028687
v 1.1533606052398682 40.0 -1.6339397430419922
v 1.5514225959777832 40.0 -1.2621759176254272
v 1.8344225883483887 40.0 -0.7968021631240845
v 1.9813718795776367 40.0 -0.2723332941532135
v 1.9813718795776367 40.0 0.2723332941532135
v 1.8344225883483887 40.0 0.7968021631240845
v 1.5514225959777832 40.0 1.2621759176254272
v 1.1533606052398682 40.0 1.6339397430419922
v 0.669759213924408 40.0 1.8845218420028687
v 0.13648483157157898 40.0 1.9953374862670898
v -0.40691202878952026 40.0 1.9581681489944458
v -0.9201300740242004 40.0 1.7757704257965088
v -1.3651063442230225 40.0 1.4616719484329224
v -1.7088388204574585 40.0 1.039167881011963
v -1.9258345365524292 40.0 0.539593517780304
v -2.0 0.0 2.4492937051703357e-16
v -1.9258345365524292 0.0 0.539593517780304
v -1.7088388204574585 0.0 1.039167881011963
v -1.3651063442230225 0.0 1.4616719484329224
v -0.9201300740242004 0.0 1.7757704257965088
v -0.40691202878952026 0.0 1.9581681489944458
v 0.13648483157157898 0.0 1.9953374862670898
v 0.669759213924408 0.0 1.8845218420028687
v 1.1533606052398682 0.0 1.6339397430419922
v 1.5514225959777832 0.0 1.2621759176254272
v 1.8344225883483887 0.0 0.7968021631240845
v 1.9813718795776367 0.0 0.2723332941532135
v 1.9813718795776367 0.0 -0.2723332941532135
v 1.8344225883483887 0.0 -0.7968021631240845
v 1.5514225959777832 0.0 -1.2621759176254272
v 1.1533606052398682 0.0 -1.6339397430419922
v 0.669759213924408 0.0 -1.8845218420028687
v 0.13648483157157898 0.0 -1.9953374862670898
v -0.40691202878952026 0.0 -1.9581681489944458
v -0.9201300740242004 0.0 -1.7757704257965088
v -1.3651063442230225 0.0 -1.4616719484329224
v -1.7088388204574585 0.0 -1.039167881011963
v -1.9258345365524292 0.0 -0.539593517780304
v -2.0 0.0 2.4492937051703357e-16
v -2.0 40.0 2.4492937051703357e-16
v -2.0 0.0 2.4492937051703357e-16
v -1.9258345365524292 0.0 -0.539593517780304
v -1.7088388204574585 0.0 -1.039167881011963
v -1.3651063442230225 0.0 -1.4616719484329224
v -0.9201300740242004 0.0 -1.7757704257965088
v -0.40691202878952026 0.0 -1.9581681489944458
v 0.13648483157157898 0.0 -1.9953374862670898
v 0.669759213924408 0.0 -1.8845218420028687
v 1.1533606052398682 0.0 -1.6339397430419922
v 1.5514225959777832 0.0 -1.2621759176254272
v 1.8344225883483887 0.0 -0.7968021631240845
v 1.9813718795776367 0.0 -0.2723332941532135
v 1.9813718795776367 0.0 0.2723332941532135
v 1.8344225883483887 0.0 0.7968021631240845
v 1.5514225959777832 0.0 1.2621759176254272
v 1.1533606052398682 0.0 1.6339397430419922
v 0.669759213924408 0.0 1.8845218420028687
v 0.13648483157157898 0.0 1.9953374862670898
v -0.40691202878952026 0.0 1.9581681489944458
v -0.9201300740242004 0.0 1.7757704257965088
v -1.3651063442230225 0.0 1.4616719484329224
v -1.7088388204574585 0.0 1.039167881011963
v -1.9258345365524292 0.0 0.539593517780304
vn 0.0 1.0 0.0
vn 0.0 1.0 0.0
vn 0.0 1.0 0.0
vn 0.0 1.0 0.0
vn 0.0 1.0 0.0
vn 0.0 1.0 0.0
vn 0.0 1.0 0.0
vn 0.0 1.0 0.0
vn 0.0 1.0 0.0
vn 0.0 1.0 0.0
vn 0.0 1.0 0.0
vn 0.0 1.0 0.0
vn 0.0 1.0 0.0
vn 0.0 1.0 0.0
vn 0.0 1.0 0.0
vn 0.0 1.0 0.0
vn 0.0 1.0 0.0
vn 0.0 1.0 0.0
vn 0.0 1.0 0.0
vn 0.0 1.0 0.0
vn 0.0 1.0 0.0
vn 0.0 1.0 0.0
vn 0.0 1.0 0.0
vn -1.0 0.0 -1.2246468525851679e-16
vn -0.9629172682762146 0.0 -0.269796758890152
vn -0.8544194102287292 0.0 -0.5195839405059814
vn -0.6825531721115112 0.0 -0.7308359742164612
vn -0.4600650370121002 0.0 -0.8878852128982544
vn -0.20345601439476013 0.0 -0.9790840744972229
vn 0.06824241578578949 -0.0 -0.9976687431335449
vn 0.334879606962204 -0.0 -0.9422609210014343
vn 0.5766803026199341 -0.0 -0.8169698715209961
vn 0.7757112979888916 -0.0 -0.6310879588127136
vn 0.9172112941741943 -0.0 -0.39840108156204224
vn 0.9906859397888184 -0.0 -0.13616664707660675
vn 0.9906859397888184 -0.0 0.13616664707660675
vn 0.9172112941741943 -0.0 0.39840108156204224
vn 0.7757112979888916 -0.0 0.6310879588127136
vn 0.5766803026199341 -0.0 0.8169698715209961
vn 0.334879606962204 -0.0 0.9422609210014343
vn 0.06824241578578949 -0.0 0.9976687431335449
vn -0.20345601439476013 -0.0 0.9790840744972229
vn -0.4600650370121002 -0.0 0.8878852128982544
vn -0.6825531721115112 -0.0 0.7308359742164612
vn -0.8544194102287292 -0.0 0.5195839405059814
vn -0.9629172682762146 -0.0 0.269796758890152
vn -1.0 -0.0 1.2246468525851679e-16
vn -0.9629172682762146 -0.0 0.269796758890152
vn -0.8544194102287292 -0.0 0.5195839405059814
vn -0.6825531721115112 -0.0 0.7308359742164612
vn -0.4600650370121002 -0.0 0.8878852128982544
vn -0.20345601439476013 -0.0 0.9790840744972229
vn 0.06824241578578949 -0.0 0.9976687431335449
vn 0.334879606962204 -0.0 0.9422609210014343
vn 0.5766803026199341 -0.0 0.8169698715209961
vn 0.7757112979888916 -0.0 0.6310879588127136
vn 0.9172112941741943 -0.0 0.39840108156204224
vn 0.9906859397888184 -0.0 0.13616664707660675
vn 0.9906859397888184 -0.0 -0.13616664707660675
vn 0.9172112941741943 -0.0 -0.39840108156204224
vn 0.7757112979888916 -0.0 -0.6310879588127136
vn 0.5766803026199341 -0.0 -0.8169698715209961
vn 0.334879606962204 -0.0 -0.9422609210014343
vn 0.06824241578578949 -0.0 -0.9976687431335449
vn -0.20345601439476013 0.0 -0.9790840744972229
vn -0.4600650370121002 0.0 -0.8878852128982544
vn -0.6825531721115112 0.0 -0.7308359742164612
vn -0.8544194102287292 0.0 -0.5195839405059814
vn -0.9629172682762146 0.0 -0.269796758890152
vn -1.0 0.0 -1.2246468525851679e-16
vn -1.0 -0.0 1.2246468525851679e-16
vn -0.0 -1.0 -0.0
vn -0.0 -1.0 -0.0
vn -0.0 -1.0 -0.0
vn -0.0 -1.0 -0.0
vn -0.0 -1.0 -0.0
vn -0.0 -1.0 -0.0
vn -0.0 -1.0 -0.0
vn -0.0 -1.0 -0.0
vn -0.0 -1.0 -0.0
vn -0.0 -1.0 -0.0
vn -0.0 -1.0 -0.0
vn -0.0 -1.0 -0.0
vn -0.0 -1.0 -0.0
vn -0.0 -1.0 -0.0
vn -0.0 -1.0 -0.0
vn -0.0 -1.0 -0.0
vn -0.0 -1.0 -0.0
vn -0.0 -1.0 -0.0
vn -0.0 -1.0 -0.0
vn -0.0 -1.0 -0.0
vn -0.0 -1.0 -0.0
vn -0.0 -1.0 -0.0
vn -0.0 -1.0 -0.0
f 1//1 2//2 23//23
f 23//23 2//2 22//22
f 22//22 2//2 3//3
f 22//22 3//3 21//21
f 21//21 3//3 4//4
f 21//21 4//4 20//20
f 20//20 4//4 5//5
f 20//20 5//5 19//19
f 19//19 5//5 6//6
f 19//19 6//6 18//18
f 18//18 6//6 17//17
f 17//17 6//6 16//16
f 16//16 6//6 15//15
f 15//15 6//6 14//14
f 14//14 6//6 13//13
f 13//13 6//6 12//12
f 12//12 6//6 11//11
f 11//11 6//6 10//10
f 10//10 6//6 9//9
f 9//9 6//6 8//8
f 8//8 6//6 7//7
f 25//25 69//69 24//24
f 24//24 69//69 70//70
f 71//71 47//47 46//46
f 46//46 47//47 48//48
f 46//46 48//48 45//45
f 45//45 48//48 49//49
f 45//45 49//49 44//44
f 44//44 49//49 50//50
f 44//44 50//50 43//43
f 43//43 50//50 51//51
f 43//43 51//51 42//42
f 42//42 51//51 52//52
f 42//42 52//52 41//41
f 41//41 52//52 53//53
f 41//41 53//53 40//40
f 40//40 53//53 54//54
f 40//40 54//54 39//39
f 39//39 54//54 55//55
f 39//39 55//55 38//38
f 38//38 55//55 56//56
f 38//38 56//56 37//37
f 37//37 56//56 57//57
f 37//37 57//57 36//36
f 36//36 57//57 58//58
f 36//36 58//58 35//35
f 35//35 58//58 59//59
f 35//35 59//59 34//34
f 34//34 59//59 60//60
f 34//34 60//60 33//33
f 33//33 60//60 61//61
f 33//33 61//61 32//32
f 32//32 61//61 62//62
f 32//32 62//62 31//31
f 31//31 62//62 63//63
f 31//31 63//63 30//30
f 30//30 63//63 64//64
f 30//30 64//64 29//29
f 29//29 64//64 65//65
f 29//29 65//65 28//28
f 28//28 65//65 66//66
f 28//28 66//66 27//27
f 27//27 66//66 67//67
f 27//27 67//67 26//26
f 26//26 67//67 68//68
f 26//26 68//68 25//25
f 25//25 68//68 69//69
f 72//72 73//73 94//94
f 94//94 73//73 74//74
f 94//94 74//74 93//93
f 93//93 74//74 75//75
f 93//93 75//75 92//92
f 92//92 75//75 76//76
f 92//92 76//76 91//91
f 91//91 76//76 77//77
f 91//91 77//77 90//90
f 90//90 77//77 78//78
f 90//90 78//78 79//79
f 79//79 80//80 90//90
f 90//90 80//80 81//81
f 90//90 81//81 82//82
f 82//82 83//83 90//90
f 90//90 83//83 84//84
f 90//90 84//84 85//85
f 85//85 86//86 90//90
f 90//90 86//86 87//87
f 90//90 87//87 88//88
f 88//88 89//89 90//90

# End of file