# WaveFront *.obj file
# Vertices: 24
# Triangles : 12

v 1.0 0.0 1.0
v 1.0 0.0 4.0
v 1.0 1.0 4.0
v 1.0 1.0 1.0
v 7.0 0.0 1.0
v 1.0 0.0 1.0
v 1.0 1.0 1.0
v 7.0 1.0 1.0
v 7.0 0.0 4.0
v 7.0 0.0 1.0
v 7.0 1.0 1.0
v 7.0 1.0 4.0
v 1.0 0.0 4.0
v 7.0 0.0 4.0
v 7.0 1.0 4.0
v 1.0 1.0 4.0
v 1.0 1.0 4.0
v 7.0 1.0 4.0
v 7.0 1.0 1.0
v 1.0 1.0 1.0
v 7.0 0.0 4.0
v 1.0 0.0 4.0
v 1.0 0.0 1.0
v 7.0 0.0 1.0
vn -1.0 0.0 0.0
vn -1.0 0.0 0.0
vn -1.0 0.0 0.0
vn -1.0 0.0 0.0
vn 0.0 0.0 -1.0
vn 0.0 0.0 -1.0
vn 0.0 0.0 -1.0
vn 0.0 0.0 -1.0
vn 1.0 0.0 0.0
vn 1.0 0.0 0.0
vn 1.0 0.0 0.0
vn 1.0 0.0 0.0
vn 0.0 -0.0 1.0
vn 0.0 -0.0 1.0
vn 0.0 -0.0 1.0
vn 0.0 -0.0 1.0
vn 0.0 1.0 0.0
vn 0.0 1.0 0.0
vn 0.0 1.0 0.0
vn 0.0 1.0 0.0
vn -0.0 -1.0 -0.0
vn -0.0 -1.0 -0.0
vn -0.0 -1.0 -0.0
vn -0.0 -1.0 -0.0
g d4e8a064-e2c0-11ea-abe8-54bf646e7e1f
f 1//1 2//2 4//4
f 4//4 2//2 3//3
g d4e8c77e-e2c0-11ea-87d9-54bf646e7e1f
f 5//5 6//6 8//8
f 8//8 6//6 7//7
g d4e91598-e2c0-11ea-b4d1-54bf646e7e1f
f 9//9 10//10 12//12
f 12//12 10//10 11//11
g d4e93cd2-e2c0-11ea-8010-54bf646e7e1f
f 13//13 14//14 16//16
f 16//16 14//14 15//15
g d4e98acc-e2c0-11ea-82c4-54bf646e7e1f
f 18//18 19//19 17//17
f 17//17 19//19 20//20
g d4e9b1da-e2c0-11ea-b709-54bf646e7e1f
f 21//21 22//22 24//24
f 24//24 22//22 23//23

# End of file