# WaveFront *.obj file
# Vertices: 228
# Triangles : 196

v -0.5773373246192932 -40.0 5.0
v -0.32868054509162903 -40.0 6.250082015991211
v 0.37943407893180847 -40.0 7.309850692749023
v 1.4392025470733643 -40.0 8.017965316772461
v 2.689284563064575 -40.0 8.266621589660645
v 3.9393668174743652 -40.0 8.017965316772461
v 4.9991350173950195 -40.0 7.309850692749023
v 5.707249641418457 -40.0 6.250082015991211
v 5.955906391143799 -40.0 5.0
v 5.707249641418457 -40.0 3.749917984008789
v 4.9991350173950195 -40.0 2.6901495456695557
v 3.9393668174743652 -40.0 1.9820348024368286
v 2.689284563064575 -40.0 1.7333780527114868
v 1.4392025470733643 -40.0 1.9820348024368286
v 0.37943407893180847 -40.0 2.6901495456695557
v -0.32868054509162903 -40.0 3.749917984008789
v -0.5773373246192932 0.0 5.0
v -0.32868054509162903 0.0 3.749917984008789
v 0.37943407893180847 0.0 2.6901495456695557
v 1.4392025470733643 0.0 1.9820348024368286
v 2.689284563064575 0.0 1.7333780527114868
v 3.9393668174743652 0.0 1.9820348024368286
v 4.9991350173950195 0.0 2.6901495456695557
v 5.707249641418457 0.0 3.749917984008789
v 5.955906391143799 0.0 5.0
v 5.707249641418457 0.0 6.250082015991211
v 4.9991350173950195 0.0 7.309850692749023
v 3.9393668174743652 0.0 8.017965316772461
v 2.689284563064575 0.0 8.266621589660645
v 1.4392025470733643 0.0 8.017965316772461
v 0.37943407893180847 0.0 7.309850692749023
v -0.32868054509162903 0.0 6.250082015991211
v -0.5773373246192932 0.0 5.0
v -0.5773373246192932 -40.0 5.0
v -0.5773373246192932 -40.0 5.0
v -0.32868054509162903 -40.0 3.749917984008789
v 0.37943407893180847 -40.0 2.6901495456695557
v 1.4392025470733643 -40.0 1.9820348024368286
v 2.689284563064575 -40.0 1.7333780527114868
v 3.9393668174743652 -40.0 1.9820348024368286
v 4.9991350173950195 -40.0 2.6901495456695557
v 5.707249641418457 -40.0 3.749917984008789
v 5.955906391143799 -40.0 5.0
v 5.707249641418457 -40.0 6.250082015991211
v 4.9991350173950195 -40.0 7.309850692749023
v 3.9393668174743652 -40.0 8.017965316772461
v 2.689284563064575 -40.0 8.266621589660645
v 1.4392025470733643 -40.0 8.017965316772461
v 0.37943407893180847 -40.0 7.309850692749023
v -0.32868054509162903 -40.0 6.250082015991211
v 49.23337936401367 -40.0 5.0
v 49.48203659057617 -40.0 6.250082015991211
v 50.19015121459961 -40.0 7.309850692749023
v 51.249916076660156 -40.0 8.017965316772461
v 52.5 -40.0 8.266621589660645
v 53.750083923339844 -40.0 8.017965316772461
v 54.80984878540039 -40.0 7.309850692749023
v 55.51796340942383 -40.0 6.250082015991211
v 55.76662063598633 -40.0 5.0
v 55.51796340942383 -40.0 3.749917984008789
v 54.80984878540039 -40.0 2.6901495456695557
v 53.750083923339844 -40.0 1.9820348024368286
v 52.5 -40.0 1.7333780527114868
v 51.249916076660156 -40.0 1.9820348024368286
v 50.19015121459961 -40.0 2.6901495456695557
v 49.48203659057617 -40.0 3.749917984008789
v 49.23337936401367 0.0 5.0
v 49.48203659057617 0.0 3.749917984008789
v 50.19015121459961 0.0 2.6901495456695557
v 51.249916076660156 0.0 1.9820348024368286
v 52.5 0.0 1.7333780527114868
v 53.750083923339844 0.0 1.9820348024368286
v 54.80984878540039 0.0 2.6901495456695557
v 55.51796340942383 0.0 3.749917984008789
v 55.76662063598633 0.0 5.0
v 55.51796340942383 0.0 6.250082015991211
v 54.80984878540039 0.0 7.309850692749023
v 53.750083923339844 0.0 8.017965316772461
v 52.5 0.0 8.266621589660645
v 51.249916076660156 0.0 8.017965316772461
v 50.19015121459961 0.0 7.309850692749023
v 49.48203659057617 0.0 6.250082015991211
v 49.23337936401367 0.0 5.0
v 49.23337936401367 -40.0 5.0
v 49.23337936401367 -40.0 5.0
v 49.48203659057617 -40.0 3.749917984008789
v 50.19015121459961 -40.0 2.6901495456695557
v 51.249916076660156 -40.0 1.9820348024368286
v 52.5 -40.0 1.7333780527114868
v 53.750083923339844 -40.0 1.9820348024368286
v 54.80984878540039 -40.0 2.6901495456695557
v 55.51796340942383 -40.0 3.749917984008789
v 55.76662063598633 -40.0 5.0
v 55.51796340942383 -40.0 6.250082015991211
v 54.80984878540039 -40.0 7.309850692749023
v 53.750083923339844 -40.0 8.017965316772461
v 52.5 -40.0 8.266621589660645
v 51.249916076660156 -40.0 8.017965316772461
v 50.19015121459961 -40.0 7.309850692749023
v 49.48203659057617 -40.0 6.250082015991211
v -0.6257866024971008 5.0 8.313804626464844
v -0.6257866024971008 5.0 57.686195373535156
v -0.6257866024971008 0.0 57.686195373535156
v -0.6257866024971008 0.0 8.313804626464844
v -0.6257866024971008 5.0 57.686195373535156
v 53.32036590576172 5.0 57.686195373535156
v 53.32036590576172 0.0 57.686195373535156
v -0.6257866024971008 0.0 57.686195373535156
v 53.32036590576172 5.0 57.686195373535156
v 53.32036590576172 5.0 8.313804626464844
v 53.32036590576172 0.0 8.313804626464844
v 53.32036590576172 0.0 57.686195373535156
v 53.32036590576172 5.0 8.313804626464844
v -0.6257866024971008 5.0 8.313804626464844
v -0.6257866024971008 0.0 8.313804626464844
v 53.32036590576172 0.0 8.313804626464844
v 2.689284563064575 68.10368347167969 5.0
v 2.689284563064575 12.892457962036133 5.0
v 2.689284563064575 12.892457962036133 0.0
v 2.689284563064575 68.10368347167969 0.0
v 2.689284563064575 12.892457962036133 5.0
v 50.31071472167969 12.892457962036133 5.0
v 50.31071472167969 12.892457962036133 0.0
v 2.689284563064575 12.892457962036133 0.0
v 50.31071472167969 12.892457962036133 5.0
v 50.31071472167969 68.10368347167969 5.0
v 50.31071472167969 68.10368347167969 0.0
v 50.31071472167969 12.892457962036133 0.0
v 50.31071472167969 68.10368347167969 5.0
v 2.689284563064575 68.10368347167969 5.0
v 2.689284563064575 68.10368347167969 0.0
v 50.31071472167969 68.10368347167969 0.0
v 56.5 5.0 1.0
v -3.5 5.0 1.0
v -3.5 5.0 0.0
v 56.5 5.0 0.0
v 56.5 70.0 0.0
v -3.5 70.0 0.0
v -3.5 70.0 5.0
v 56.5 70.0 5.0
v 2.689284563064575 12.892457962036133 5.0
v 2.689284563064575 68.10368347167969 5.0
v 50.31071472167969 68.10368347167969 5.0
v 50.31071472167969 12.892457962036133 5.0
v -3.5 70.0 5.0
v -3.5 5.0 5.0
v 56.5 5.0 5.0
v 56.5 70.0 5.0
v 2.689284563064575 68.10368347167969 0.0
v 2.689284563064575 12.892457962036133 0.0
v 50.31071472167969 12.892457962036133 0.0
v 50.31071472167969 68.10368347167969 0.0
v -3.5 5.0 0.0
v -3.5 70.0 0.0
v 56.5 70.0 0.0
v 56.5 5.0 0.0
v -0.6257866024971008 5.0 57.686195373535156
v -0.6257866024971008 5.0 8.313804626464844
v 53.32036590576172 5.0 8.313804626464844
v 53.32036590576172 5.0 57.686195373535156
v 56.5 5.0 5.0
v -3.5 5.0 5.0
v -3.5 5.0 61.0
v 56.5 5.0 61.0
v -3.5 0.0 1.0
v -3.5 0.0 61.0
v -3.5 5.0 61.0
v -3.5 5.0 5.0
v -3.5 70.0 5.0
v -3.5 70.0 0.0
v -3.5 5.0 0.0
v -3.5 5.0 1.0
v 56.5 0.0 1.0
v -3.5 0.0 1.0
v -3.5 5.0 1.0
v 56.5 5.0 1.0
v 56.5 0.0 61.0
v 56.5 0.0 1.0
v 56.5 5.0 1.0
v 56.5 5.0 0.0
v 56.5 70.0 0.0
v 56.5 70.0 5.0
v 56.5 5.0 5.0
v 56.5 5.0 61.0
v -3.5 0.0 61.0
v 56.5 0.0 61.0
v 56.5 5.0 61.0
v -3.5 5.0 61.0
v -0.5773373246192932 0.0 5.0
v -0.32868054509162903 0.0 6.250082015991211
v 0.37943407893180847 0.0 7.309850692749023
v 1.4392025470733643 0.0 8.017965316772461
v 2.689284563064575 0.0 8.266621589660645
v 3.9393668174743652 0.0 8.017965316772461
v 4.9991350173950195 0.0 7.309850692749023
v 5.707249641418457 0.0 6.250082015991211
v 5.955906391143799 0.0 5.0
v 5.707249641418457 0.0 3.749917984008789
v 4.9991350173950195 0.0 2.6901495456695557
v 3.9393668174743652 0.0 1.9820348024368286
v 2.689284563064575 0.0 1.7333780527114868
v 1.4392025470733643 0.0 1.9820348024368286
v 0.37943407893180847 0.0 2.6901495456695557
v -0.32868054509162903 0.0 3.749917984008789
v 49.23337936401367 0.0 5.0
v 49.48203659057617 0.0 6.250082015991211
v 50.19015121459961 0.0 7.309850692749023
v 51.249916076660156 0.0 8.017965316772461
v 52.5 0.0 8.266621589660645
v 53.750083923339844 0.0 8.017965316772461
v 54.80984878540039 0.0 7.309850692749023
v 55.51796340942383 0.0 6.250082015991211
v 55.76662063598633 0.0 5.0
v 55.51796340942383 0.0 3.749917984008789
v 54.80984878540039 0.0 2.6901495456695557
v 53.750083923339844 0.0 1.9820348024368286
v 52.5 0.0 1.7333780527114868
v 51.249916076660156 0.0 1.9820348024368286
v 50.19015121459961 0.0 2.6901495456695557
v 49.48203659057617 0.0 3.749917984008789
v -0.6257866024971008 0.0 8.313804626464844
v -0.6257866024971008 0.0 57.686195373535156
v 53.32036590576172 0.0 57.686195373535156
v 53.32036590576172 0.0 8.313804626464844
v 56.5 0.0 61.0
v -3.5 0.0 61.0
v -3.5 0.0 1.0
v 56.5 0.0 1.0
vn -1.0 -0.0 1.2246468525851679e-16
vn -0.9238795042037964 -0.0 0.3826834261417389
vn -0.7071067690849304 -0.0 0.7071067690849304
vn -0.3826834261417389 -0.0 0.9238795042037964
vn 6.123234262925839e-17 0.0 1.0
vn 0.3826834261417389 0.0 0.9238795042037964
vn 0.7071067690849304 0.0 0.7071067690849304
vn 0.9238795042037964 0.0 0.3826834261417389
vn 1.0 0.0 -0.0
vn 0.9238795042037964 -0.0 -0.3826834261417389
vn 0.7071067690849304 -0.0 -0.7071067690849304
vn 0.3826834261417389 -0.0 -0.9238795042037964
vn 6.123234262925839e-17 -0.0 -1.0
vn -0.3826834261417389 -0.0 -0.9238795042037964
vn -0.7071067690849304 -0.0 -0.7071067690849304
vn -0.9238795042037964 -0.0 -0.3826834261417389
vn -1.0 -0.0 -1.2246468525851679e-16
vn -0.9238795042037964 -0.0 -0.3826834261417389
vn -0.7071067690849304 -0.0 -0.7071067690849304
vn -0.3826834261417389 -0.0 -0.9238795042037964
vn 6.123234262925839e-17 -0.0 -1.0
vn 0.3826834261417389 -0.0 -0.9238795042037964
vn 0.7071067690849304 -0.0 -0.7071067690849304
vn 0.9238795042037964 -0.0 -0.3826834261417389
vn 1.0 0.0 -0.0
vn 0.9238795042037964 0.0 0.3826834261417389
vn 0.7071067690849304 0.0 0.7071067690849304
vn 0.3826834261417389 0.0 0.9238795042037964
vn 6.123234262925839e-17 0.0 1.0
vn -0.3826834261417389 -0.0 0.9238795042037964
vn -0.7071067690849304 -0.0 0.7071067690849304
vn -0.9238795042037964 -0.0 0.3826834261417389
vn -1.0 -0.0 1.2246468525851679e-16
vn -1.0 -0.0 -1.2246468525851679e-16
vn 0.0 -1.0 0.0
vn 0.0 -1.0 0.0
vn 0.0 -1.0 0.0
vn 0.0 -1.0 0.0
vn 0.0 -1.0 0.0
vn 0.0 -1.0 0.0
vn 0.0 -1.0 0.0
vn 0.0 -1.0 0.0
vn 0.0 -1.0 0.0
vn 0.0 -1.0 0.0
vn 0.0 -1.0 0.0
vn 0.0 -1.0 0.0
vn 0.0 -1.0 0.0
vn 0.0 -1.0 0.0
vn 0.0 -1.0 0.0
vn 0.0 -1.0 0.0
vn -1.0 -0.0 1.2246468525851679e-16
vn -0.9238795042037964 -0.0 0.3826834261417389
vn -0.7071067690849304 -0.0 0.7071067690849304
vn -0.3826834261417389 -0.0 0.9238795042037964
vn 6.123234262925839e-17 0.0 1.0
vn 0.3826834261417389 0.0 0.9238795042037964
vn 0.7071067690849304 0.0 0.7071067690849304
vn 0.9238795042037964 0.0 0.3826834261417389
vn 1.0 0.0 -0.0
vn 0.9238795042037964 -0.0 -0.3826834261417389
vn 0.7071067690849304 -0.0 -0.7071067690849304
vn 0.3826834261417389 -0.0 -0.9238795042037964
vn 6.123234262925839e-17 -0.0 -1.0
vn -0.3826834261417389 -0.0 -0.9238795042037964
vn -0.7071067690849304 -0.0 -0.7071067690849304
vn -0.9238795042037964 -0.0 -0.3826834261417389
vn -1.0 -0.0 -1.2246468525851679e-16
vn -0.9238795042037964 -0.0 -0.3826834261417389
vn -0.7071067690849304 -0.0 -0.7071067690849304
vn -0.3826834261417389 -0.0 -0.9238795042037964
vn 6.123234262925839e-17 -0.0 -1.0
vn 0.3826834261417389 -0.0 -0.9238795042037964
vn 0.7071067690849304 -0.0 -0.7071067690849304
vn 0.9238795042037964 -0.0 -0.3826834261417389
vn 1.0 0.0 -0.0
vn 0.9238795042037964 0.0 0.3826834261417389
vn 0.7071067690849304 0.0 0.7071067690849304
vn 0.3826834261417389 0.0 0.9238795042037964
vn 6.123234262925839e-17 0.0 1.0
vn -0.3826834261417389 -0.0 0.9238795042037964
vn -0.7071067690849304 -0.0 0.7071067690849304
vn -0.9238795042037964 -0.0 0.3826834261417389
vn -1.0 -0.0 1.2246468525851679e-16
vn -1.0 -0.0 -1.2246468525851679e-16
vn 0.0 -1.0 0.0
vn 0.0 -1.0 0.0
vn 0.0 -1.0 0.0
vn 0.0 -1.0 0.0
vn 0.0 -1.0 0.0
vn 0.0 -1.0 0.0
vn 0.0 -1.0 0.0
vn 0.0 -1.0 0.0
vn 0.0 -1.0 0.0
vn 0.0 -1.0 0.0
vn 0.0 -1.0 0.0
vn 0.0 -1.0 0.0
vn 0.0 -1.0 0.0
vn 0.0 -1.0 0.0
vn 0.0 -1.0 0.0
vn 0.0 -1.0 0.0
vn 1.0 -0.0 -1.2592562217632845e-16
vn 1.0 -0.0 -1.2592562217632845e-16
vn 1.0 -0.0 -1.2592562217632845e-16
vn 1.0 -0.0 -1.2592562217632845e-16
vn -0.0 -0.0 -1.0
vn -0.0 -0.0 -1.0
vn -0.0 -0.0 -1.0
vn -0.0 -0.0 -1.0
vn -1.0 -0.0 0.0
vn -1.0 -0.0 0.0
vn -1.0 -0.0 0.0
vn -1.0 -0.0 0.0
vn -0.0 -0.0 1.0
vn -0.0 -0.0 1.0
vn -0.0 -0.0 1.0
vn -0.0 -0.0 1.0
vn 1.0 -0.0 -0.0
vn 1.0 -0.0 -0.0
vn 1.0 -0.0 -0.0
vn 1.0 -0.0 -0.0
vn 0.0 1.0 0.0
vn 0.0 1.0 0.0
vn 0.0 1.0 0.0
vn 0.0 1.0 0.0
vn -1.0 -0.0 -0.0
vn -1.0 -0.0 -0.0
vn -1.0 -0.0 -0.0
vn -1.0 -0.0 -0.0
vn 0.0 -1.0 -0.0
vn 0.0 -1.0 -0.0
vn 0.0 -1.0 -0.0
vn 0.0 -1.0 -0.0
vn 0.0 -1.0 0.0
vn 0.0 -1.0 0.0
vn 0.0 -1.0 0.0
vn 0.0 -1.0 0.0
vn 0.0 1.0 -0.0
vn 0.0 1.0 -0.0
vn 0.0 1.0 -0.0
vn 0.0 1.0 -0.0
vn 0.0 0.0 1.0
vn 0.0 0.0 1.0
vn 0.0 0.0 1.0
vn 0.0 0.0 1.0
vn 0.0 0.0 1.0
vn 0.0 0.0 1.0
vn 0.0 0.0 1.0
vn 0.0 0.0 1.0
vn -0.0 -0.0 -1.0
vn -0.0 -0.0 -1.0
vn -0.0 -0.0 -1.0
vn -0.0 -0.0 -1.0
vn -0.0 -0.0 -1.0
vn -0.0 -0.0 -1.0
vn -0.0 -0.0 -1.0
vn -0.0 -0.0 -1.0
vn 0.0 1.0 0.0
vn 0.0 1.0 0.0
vn 0.0 1.0 0.0
vn 0.0 1.0 0.0
vn 0.0 1.0 0.0
vn 0.0 1.0 0.0
vn 0.0 1.0 0.0
vn 0.0 1.0 0.0
vn -1.0 0.0 0.0
vn -1.0 0.0 0.0
vn -1.0 0.0 0.0
vn -1.0 0.0 0.0
vn -1.0 0.0 0.0
vn -1.0 0.0 0.0
vn -1.0 0.0 0.0
vn -1.0 0.0 0.0
vn 0.0 0.0 -1.0
vn 0.0 0.0 -1.0
vn 0.0 0.0 -1.0
vn 0.0 0.0 -1.0
vn 1.0 0.0 0.0
vn 1.0 0.0 0.0
vn 1.0 0.0 0.0
vn 1.0 0.0 0.0
vn 1.0 0.0 0.0
vn 1.0 0.0 0.0
vn 1.0 0.0 0.0
vn 1.0 0.0 0.0
vn 0.0 -0.0 1.0
vn 0.0 -0.0 1.0
vn 0.0 -0.0 1.0
vn 0.0 -0.0 1.0
vn -0.0 -1.0 -0.0
vn -0.0 -1.0 -0.0
vn -0.0 -1.0 -0.0
vn -0.0 -1.0 -0.0
vn -0.0 -1.0 -0.0
vn -0.0 -1.0 -0.0
vn -0.0 -1.0 -0.0
vn -0.0 -1.0 -0.0
vn -0.0 -1.0 -0.0
vn -0.0 -1.0 -0.0
vn -0.0 -1.0 -0.0
vn -0.0 -1.0 -0.0
vn -0.0 -1.0 -0.0
vn -0.0 -1.0 -0.0
vn -0.0 -1.0 -0.0
vn -0.0 -1.0 -0.0
vn -0.0 -1.0 -0.0
vn -0.0 -1.0 -0.0
vn -0.0 -1.0 -0.0
vn -0.0 -1.0 -0.0
vn -0.0 -1.0 -0.0
vn -0.0 -1.0 -0.0
vn -0.0 -1.0 -0.0
vn -0.0 -1.0 -0.0
vn -0.0 -1.0 -0.0
vn -0.0 -1.0 -0.0
vn -0.0 -1.0 -0.0
vn -0.0 -1.0 -0.0
vn -0.0 -1.0 -0.0
vn -0.0 -1.0 -0.0
vn -0.0 -1.0 -0.0
vn -0.0 -1.0 -0.0
vn -0.0 -1.0 -0.0
vn -0.0 -1.0 -0.0
vn -0.0 -1.0 -0.0
vn -0.0 -1.0 -0.0
vn -0.0 -1.0 -0.0
vn -0.0 -1.0 -0.0
vn -0.0 -1.0 -0.0
vn -0.0 -1.0 -0.0
g e76c88e8-e2c0-11ea-a250-54bf646e7e1f
f 2//2 32//32 1//1
f 1//1 32//32 33//33
f 34//34 17//17 16//16
f 16//16 17//17 18//18
f 16//16 18//18 15//15
f 15//15 18//18 19//19
f 15//15 19//19 14//14
f 14//14 19//19 20//20
f 14//14 20//20 13//13
f 13//13 20//20 21//21
f 13//13 21//21 12//12
f 12//12 21//21 22//22
f 12//12 22//22 11//11
f 11//11 22//22 23//23
f 11//11 23//23 10//10
f 10//10 23//23 24//24
f 10//10 24//24 9//9
f 9//9 24//24 25//25
f 9//9 25//25 8//8
f 8//8 25//25 26//26
f 8//8 26//26 7//7
f 7//7 26//26 27//27
f 7//7 27//27 6//6
f 6//6 27//27 28//28
f 6//6 28//28 5//5
f 5//5 28//28 29//29
f 5//5 29//29 4//4
f 4//4 29//29 30//30
f 4//4 30//30 3//3
f 3//3 30//30 31//31
f 3//3 31//31 2//2
f 2//2 31//31 32//32
g e76d252c-e2c0-11ea-a879-54bf646e7e1f
f 36//36 42//42 35//35
f 35//35 42//42 43//43
f 35//35 43//43 50//50
f 50//50 43//43 44//44
f 50//50 44//44 49//49
f 49//49 44//44 45//45
f 49//49 45//45 48//48
f 48//48 45//45 46//46
f 48//48 46//46 47//47
f 42//42 36//36 41//41
f 41//41 36//36 37//37
f 41//41 37//37 40//40
f 40//40 37//37 38//38
f 40//40 38//38 39//39
g e76dc178-e2c0-11ea-bcbd-54bf646e7e1f
f 52//52 82//82 51//51
f 51//51 82//82 83//83
f 84//84 67//67 66//66
f 66//66 67//67 68//68
f 66//66 68//68 65//65
f 65//65 68//68 69//69
f 65//65 69//69 64//64
f 64//64 69//69 70//70
f 64//64 70//70 63//63
f 63//63 70//70 71//71
f 63//63 71//71 62//62
f 62//62 71//71 72//72
f 62//62 72//72 61//61
f 61//61 72//72 73//73
f 61//61 73//73 60//60
f 60//60 73//73 74//74
f 60//60 74//74 59//59
f 59//59 74//74 75//75
f 59//59 75//75 58//58
f 58//58 75//75 76//76
f 58//58 76//76 57//57
f 57//57 76//76 77//77
f 57//57 77//77 56//56
f 56//56 77//77 78//78
f 56//56 78//78 55//55
f 55//55 78//78 79//79
f 55//55 79//79 54//54
f 54//54 79//79 80//80
f 54//54 80//80 53//53
f 53//53 80//80 81//81
f 53//53 81//81 52//52
f 52//52 81//81 82//82
g e76e5db4-e2c0-11ea-b2f9-54bf646e7e1f
f 86//86 92//92 85//85
f 85//85 92//92 93//93
f 85//85 93//93 100//100
f 100//100 93//93 94//94
f 100//100 94//94 99//99
f 99//99 94//94 95//95
f 99//99 95//95 98//98
f 98//98 95//95 96//96
f 98//98 96//96 97//97
f 92//92 86//86 91//91
f 91//91 86//86 87//87
f 91//91 87//87 90//90
f 90//90 87//87 88//88
f 90//90 88//88 89//89
g e731534c-e2c0-11ea-9e66-54bf646e7e1f
f 101//101 102//102 104//104
f 104//104 102//102 103//103
g e732169c-e2c0-11ea-8318-54bf646e7e1f
f 105//105 106//106 108//108
f 108//108 106//106 107//107
g e732b2e2-e2c0-11ea-b3d7-54bf646e7e1f
f 109//109 110//110 112//112
f 112//112 110//110 111//111
g e7334f26-e2c0-11ea-b35f-54bf646e7e1f
f 113//113 114//114 116//116
f 116//116 114//114 115//115
g e6fd4940-e2c0-11ea-a7b6-54bf646e7e1f
f 117//117 118//118 120//120
f 120//120 118//118 119//119
g e6fe0c94-e2c0-11ea-91f6-54bf646e7e1f
f 121//121 122//122 124//124
f 124//124 122//122 123//123
g e6fecfee-e2c0-11ea-a35b-54bf646e7e1f
f 125//125 126//126 128//128
f 128//128 126//126 127//127
g e6ff6c2e-e2c0-11ea-a587-54bf646e7e1f
f 129//129 130//130 132//132
f 132//132 130//130 131//131
g e6cf0bde-e2c0-11ea-b0d5-54bf646e7e1f
f 133//133 134//134 136//136
f 136//136 134//134 135//135
g e6cfcf28-e2c0-11ea-8f75-54bf646e7e1f
f 137//137 138//138 140//140
f 140//140 138//138 139//139
g e6d06b68-e2c0-11ea-a0d0-54bf646e7e1f
f 142//142 145//145 141//141
f 141//141 145//145 146//146
f 141//141 146//146 147//147
f 142//142 143//143 145//145
f 145//145 143//143 148//148
f 148//148 143//143 144//144
f 148//148 144//144 147//147
f 147//147 144//144 141//141
g e6d0e09c-e2c0-11ea-9925-54bf646e7e1f
f 150//150 154//154 149//149
f 149//149 154//154 155//155
f 149//149 155//155 152//152
f 152//152 155//155 151//151
f 151//151 155//155 156//156
f 151//151 156//156 153//153
f 154//154 150//150 153//153
f 153//153 150//150 151//151
g e6a9f69c-e2c0-11ea-a37a-54bf646e7e1f
f 160//160 157//157 163//163
f 163//163 157//157 158//158
f 163//163 158//158 162//162
f 162//162 158//158 159//159
f 162//162 159//159 161//161
f 161//161 159//159 160//160
f 161//161 160//160 164//164
f 164//164 160//160 163//163
g e6a90c30-e2c0-11ea-a780-54bf646e7e1f
f 172//172 165//165 168//168
f 168//168 165//165 166//166
f 168//168 166//166 167//167
f 168//168 169//169 172//172
f 172//172 169//169 170//170
f 172//172 170//170 171//171
g e6a93340-e2c0-11ea-a1db-54bf646e7e1f
f 173//173 174//174 176//176
f 176//176 174//174 175//175
g e6a98166-e2c0-11ea-8032-54bf646e7e1f
f 184//184 177//177 183//183
f 183//183 177//177 178//178
f 183//183 178//178 179//179
f 180//180 181//181 179//179
f 179//179 181//181 182//182
f 179//179 182//182 183//183
g e6a9cf90-e2c0-11ea-a719-54bf646e7e1f
f 185//185 186//186 188//188
f 188//188 186//186 187//187
g e6aa44c2-e2c0-11ea-81dd-54bf646e7e1f
f 190//190 221//221 189//189
f 189//189 221//221 227//227
f 189//189 227//227 204//204
f 204//204 227//227 203//203
f 203//203 227//227 202//202
f 202//202 227//227 201//201
f 201//201 227//227 228//228
f 201//201 228//228 217//217
f 217//217 228//228 216//216
f 216//216 228//228 215//215
f 215//215 228//228 214//214
f 214//214 228//228 213//213
f 213//213 228//228 225//225
f 213//213 225//225 212//212
f 212//212 225//225 211//211
f 211//211 225//225 223//223
f 211//211 223//223 210//210
f 210//210 223//223 224//224
f 210//210 224//224 209//209
f 209//209 224//224 193//193
f 209//209 193//193 208//208
f 208//208 193//193 194//194
f 208//208 194//194 207//207
f 207//207 194//194 195//195
f 207//207 195//195 196//196
f 190//190 191//191 221//221
f 221//221 191//191 192//192
f 221//221 192//192 193//193
f 207//207 196//196 206//206
f 206//206 196//196 197//197
f 206//206 197//197 205//205
f 205//205 197//197 220//220
f 220//220 197//197 198//198
f 220//220 198//198 219//219
f 219//219 198//198 199//199
f 219//219 199//199 200//200
f 219//219 200//200 218//218
f 218//218 200//200 201//201
f 218//218 201//201 217//217
f 227//227 221//221 226//226
f 226//226 221//221 222//222
f 226//226 222//222 223//223
f 224//224 221//221 193//193
f 225//225 226//226 223//223

# End of file