# WaveFront *.obj file
# Vertices: 36
# Triangles : 20

v 2.5999999046325684 0.0 0.0
v 0.0 0.0 0.0
v 0.0 0.5 0.0
v 2.5999999046325684 0.5 0.0
v 2.5999999046325684 0.0 4.0
v 2.5999999046325684 0.0 0.0
v 2.5999999046325684 0.5 0.0
v 2.5999999046325684 0.5 4.0
v 2.299999952316284 0.0 13.5
v 2.5999999046325684 0.0 4.0
v 2.5999999046325684 0.5 4.0
v 2.299999952316284 0.5 13.5
v 0.30000001192092896 0.0 13.5
v 2.299999952316284 0.0 13.5
v 2.299999952316284 0.5 13.5
v 0.30000001192092896 0.5 13.5
v 0.0 0.0 4.0
v 0.30000001192092896 0.0 13.5
v 0.30000001192092896 0.5 13.5
v 0.0 0.5 4.0
v 0.0 0.0 0.0
v 0.0 0.0 4.0
v 0.0 0.5 4.0
v 0.0 0.5 0.0
v 0.0 0.5 0.0
v 0.0 0.5 4.0
v 0.30000001192092896 0.5 13.5
v 2.299999952316284 0.5 13.5
v 2.5999999046325684 0.5 4.0
v 2.5999999046325684 0.5 0.0
v 0.0 0.0 4.0
v 0.0 0.0 0.0
v 2.5999999046325684 0.0 0.0
v 2.5999999046325684 0.0 4.0
v 2.299999952316284 0.0 13.5
v 0.30000001192092896 0.0 13.5
vn 0.0 0.0 -1.0
vn 0.0 0.0 -1.0
vn 0.0 0.0 -1.0
vn 0.0 0.0 -1.0
vn 1.0 0.0 0.0
vn 1.0 0.0 0.0
vn 1.0 0.0 0.0
vn 1.0 0.0 0.0
vn 0.9995017647743225 -0.0 0.031563207507133484
vn 0.9995017647743225 -0.0 0.031563207507133484
vn 0.9995017647743225 -0.0 0.031563207507133484
vn 0.9995017647743225 -0.0 0.031563207507133484
vn 0.0 -0.0 1.0
vn 0.0 -0.0 1.0
vn 0.0 -0.0 1.0
vn 0.0 -0.0 1.0
vn -0.9995017647743225 0.0 0.03156321495771408
vn -0.9995017647743225 0.0 0.03156321495771408
vn -0.9995017647743225 0.0 0.03156321495771408
vn -0.9995017647743225 0.0 0.03156321495771408
vn -1.0 0.0 0.0
vn -1.0 0.0 0.0
vn -1.0 0.0 0.0
vn -1.0 0.0 0.0
vn 0.0 1.0 0.0
vn 0.0 1.0 0.0
vn 0.0 1.0 0.0
vn 0.0 1.0 0.0
vn 0.0 1.0 0.0
vn 0.0 1.0 0.0
vn -0.0 -1.0 -0.0
vn -0.0 -1.0 -0.0
vn -0.0 -1.0 -0.0
vn -0.0 -1.0 -0.0
vn -0.0 -1.0 -0.0
vn -0.0 -1.0 -0.0
g db4867ec-e33f-11ea-ae36-54bf646e7e1f
f 1//1 2//2 4//4
f 4//4 2//2 3//3
g db737188-e33f-11ea-b9fc-54bf646e7e1f
f 5//5 6//6 8//8
f 8//8 6//6 7//7
g db77dee2-e33f-11ea-8adf-54bf646e7e1f
f 9//9 10//10 12//12
f 12//12 10//10 11//11
g db7bd610-e33f-11ea-9b68-54bf646e7e1f
f 13//13 14//14 16//16
f 16//16 14//14 15//15
g db7f7fcc-e33f-11ea-947a-54bf646e7e1f
f 17//17 18//18 20//20
f 20//20 18//18 19//19
g dbac0ff0-e33f-11ea-ae1c-54bf646e7e1f
f 21//21 22//22 24//24
f 24//24 22//22 23//23
g dbb02ede-e33f-11ea-b064-54bf646e7e1f
f 30//30 25//25 29//29
f 29//29 25//25 26//26
f 29//29 26//26 27//27
f 27//27 28//28 29//29
g dbb42686-e33f-11ea-b42a-54bf646e7e1f
f 32//32 33//33 31//31
f 31//31 33//33 34//34
f 31//31 34//34 36//36
f 36//36 34//34 35//35

# End of file