# WaveFront *.obj file
# Vertices: 132
# Triangles : 116

v 1.600000023841858 -1.0841170456743054e-15 10.0
v 1.6196671724319458 0.18712052702903748 10.0
v 1.6778091192245483 0.3660629689693451 10.0
v 1.7718846797943115 0.5290067195892334 10.0
v 1.8977824449539185 0.6688303351402283 10.0
v 2.049999952316284 0.7794228792190552 10.0
v 2.2218847274780273 0.8559508919715881 10.0
v 2.4059243202209473 0.8950697183609009 10.0
v 2.5940756797790527 0.8950697183609009 10.0
v 2.7781152725219727 0.8559508919715881 10.0
v 2.950000047683716 0.7794228792190552 10.0
v 3.102217435836792 0.6688303351402283 10.0
v 3.2281153202056885 0.5290067195892334 10.0
v 3.322190999984741 0.3660629689693451 10.0
v 3.3803329467773438 0.18712052702903748 10.0
v 3.4000000953674316 -1.3735791204536746e-15 10.0
v 5.0 -4.425974524810498e-16 10.0
v 5.0 0.800000011920929 10.0
v 4.570936679840088 0.9958763718605042 10.0
v 4.126689910888672 1.1543291807174683 10.0
v 3.670516014099121 1.2741966247558594 10.0
v 3.2057602405548096 1.3545998334884644 10.0
v 2.7358298301696777 1.3949493169784546 10.0
v 2.2641701698303223 1.3949493169784546 10.0
v 1.7942397594451904 1.3545998334884644 10.0
v 1.3294838666915894 1.2741966247558594 10.0
v 0.8733101487159729 1.1543291807174683 10.0
v 0.4290631115436554 0.9958763718605042 10.0
v 0.0 0.800000011920929 10.0
v 0.0 0.0 10.0
v 5.0 0.800000011920929 0.0
v 4.570936679840088 0.9958763718605042 0.0
v 4.126689910888672 1.1543291807174683 0.0
v 3.670516014099121 1.2741966247558594 0.0
v 3.2057602405548096 1.3545998334884644 0.0
v 2.7358298301696777 1.3949493169784546 0.0
v 2.2641701698303223 1.3949493169784546 0.0
v 1.7942397594451904 1.3545998334884644 0.0
v 1.3294838666915894 1.2741966247558594 0.0
v 0.8733101487159729 1.1543291807174683 0.0
v 0.4290631115436554 0.9958763718605042 0.0
v 0.0 0.800000011920929 0.0
v 0.0 0.800000011920929 10.0
v 0.4290631115436554 0.9958763718605042 10.0
v 0.8733101487159729 1.1543291807174683 10.0
v 1.3294838666915894 1.2741966247558594 10.0
v 1.7942397594451904 1.3545998334884644 10.0
v 2.2641701698303223 1.3949493169784546 10.0
v 2.7358298301696777 1.3949493169784546 10.0
v 3.2057602405548096 1.3545998334884644 10.0
v 3.670516014099121 1.2741966247558594 10.0
v 4.126689910888672 1.1543291807174683 10.0
v 4.570936679840088 0.9958763718605042 10.0
v 5.0 0.800000011920929 10.0
v 0.0 0.800000011920929 0.0
v 0.0 0.0 0.0
v 0.0 0.0 10.0
v 0.0 0.800000011920929 10.0
v 5.0 -4.425974524810498e-16 0.0
v 5.0 0.800000011920929 0.0
v 5.0 0.800000011920929 10.0
v 5.0 -4.425974524810498e-16 10.0
v 1.600000023841858 -5.773159516292577e-16 -9.175088016182673e-17
v 1.600000023841858 -1.0841170456743054e-15 10.0
v 0.0 0.0 10.0
v 0.0 0.0 0.0
v 3.4000000953674316 -8.667780264086269e-16 -1.3252058099898103e-16
v 3.3803329467773438 0.18712052702903748 -5.502338929381491e-17
v 3.322190999984741 0.3660629689693451 -5.3732378733301346e-17
v 3.2281153202056885 0.5290067195892334 -5.1643479680086484e-17
v 3.102217435836792 0.6688303351402283 -4.8847989712739025e-17
v 2.950000047683716 0.7794228792190552 -4.54680800990106e-17
v 2.7781152725219727 0.8559508919715881 -4.165147206141338e-17
v 2.5940756797790527 0.8950697183609009 -3.756497153355236e-17
v 2.4059243202209473 0.8950697183609009 -3.3387176735845086e-17
v 2.2218847274780273 0.8559508919715881 -2.9300672899261614e-17
v 2.049999952316284 0.7794228792190552 -2.548406651602562e-17
v 1.8977824449539185 0.6688303351402283 -2.2104156902297196e-17
v 1.7718846797943115 0.5290067195892334 -1.9308666934949737e-17
v 1.6778091192245483 0.3660629689693451 -1.7219767881734874e-17
v 1.6196671724319458 0.18712052702903748 -1.5928757321221312e-17
v 1.600000023841858 -5.773159516292577e-16 -9.175088016182673e-17
v 0.0 0.0 0.0
v 0.0 0.800000011920929 0.0
v 0.4290631115436554 0.9958763718605042 0.0
v 0.8733101487159729 1.1543291807174683 0.0
v 1.3294838666915894 1.2741966247558594 0.0
v 1.7942397594451904 1.3545998334884644 0.0
v 2.2641701698303223 1.3949493169784546 0.0
v 2.7358298301696777 1.3949493169784546 0.0
v 3.2057602405548096 1.3545998334884644 0.0
v 3.670516014099121 1.2741966247558594 0.0
v 4.126689910888672 1.1543291807174683 0.0
v 4.570936679840088 0.9958763718605042 0.0
v 5.0 0.800000011920929 0.0
v 5.0 -4.425974524810498e-16 0.0
v 3.4000000953674316 -1.3735791204536746e-15 10.0
v 3.4000000953674316 -8.667780264086269e-16 -1.3252058099898103e-16
v 5.0 -4.425974524810498e-16 0.0
v 5.0 -4.425974524810498e-16 10.0
v 1.600000023841858 -5.773159516292577e-16 -9.175088016182673e-17
v 1.6196671724319458 0.18712052702903748 -1.5928757321221312e-17
v 1.6778091192245483 0.3660629689693451 -1.7219767881734874e-17
v 1.7718846797943115 0.5290067195892334 -1.9308666934949737e-17
v 1.8977824449539185 0.6688303351402283 -2.2104156902297196e-17
v 2.049999952316284 0.7794228792190552 -2.548406651602562e-17
v 2.2218847274780273 0.8559508919715881 -2.9300672899261614e-17
v 2.4059243202209473 0.8950697183609009 -3.3387176735845086e-17
v 2.5940756797790527 0.8950697183609009 -3.756497153355236e-17
v 2.7781152725219727 0.8559508919715881 -4.165147206141338e-17
v 2.950000047683716 0.7794228792190552 -4.54680800990106e-17
v 3.102217435836792 0.6688303351402283 -4.8847989712739025e-17
v 3.2281153202056885 0.5290067195892334 -5.1643479680086484e-17
v 3.322190999984741 0.3660629689693451 -5.3732378733301346e-17
v 3.3803329467773438 0.18712052702903748 -5.502338929381491e-17
v 3.4000000953674316 -8.667780264086269e-16 -1.3252058099898103e-16
v 3.4000000953674316 -1.3735791204536746e-15 10.0
v 3.3803329467773438 0.18712052702903748 10.0
v 3.322190999984741 0.3660629689693451 10.0
v 3.2281153202056885 0.5290067195892334 10.0
v 3.102217435836792 0.6688303351402283 10.0
v 2.950000047683716 0.7794228792190552 10.0
v 2.7781152725219727 0.8559508919715881 10.0
v 2.5940756797790527 0.8950697183609009 10.0
v 2.4059243202209473 0.8950697183609009 10.0
v 2.2218847274780273 0.8559508919715881 10.0
v 2.049999952316284 0.7794228792190552 10.0
v 1.8977824449539185 0.6688303351402283 10.0
v 1.7718846797943115 0.5290067195892334 10.0
v 1.6778091192245483 0.3660629689693451 10.0
v 1.6196671724319458 0.18712052702903748 10.0
v 1.600000023841858 -1.0841170456743054e-15 10.0
vn 0.0 0.0 1.0
vn 0.0 0.0 1.0
vn 0.0 0.0 1.0
vn 0.0 0.0 1.0
vn 0.0 0.0 1.0
vn 0.0 0.0 1.0
vn 0.0 0.0 1.0
vn 0.0 0.0 1.0
vn 0.0 0.0 1.0
vn 0.0 0.0 1.0
vn 0.0 0.0 1.0
vn 0.0 0.0 1.0
vn 0.0 0.0 1.0
vn 0.0 0.0 1.0
vn 0.0 0.0 1.0
vn 0.0 0.0 1.0
vn 0.0 0.0 1.0
vn 0.0 0.0 1.0
vn 0.0 0.0 1.0
vn 0.0 0.0 1.0
vn 0.0 0.0 1.0
vn 0.0 0.0 1.0
vn 0.0 0.0 1.0
vn 0.0 0.0 1.0
vn 0.0 0.0 1.0
vn 0.0 0.0 1.0
vn 0.0 0.0 1.0
vn 0.0 0.0 1.0
vn 0.0 0.0 1.0
vn 0.0 0.0 1.0
vn 0.45385777950286865 0.8910741209983826 -0.0
vn 0.37596434354782104 0.9266341328620911 -0.0
vn 0.29531434178352356 0.9554001688957214 -0.0
vn 0.21249914169311523 0.9771612286567688 -0.0
vn 0.12812590599060059 0.9917579293251038 -0.0
vn 0.042813271284103394 0.9990831017494202 -0.0
vn -0.042813271284103394 0.9990831017494202 -0.0
vn -0.12812590599060059 0.9917579293251038 -0.0
vn -0.21249914169311523 0.9771612286567688 -0.0
vn -0.29531434178352356 0.9554001688957214 -0.0
vn -0.37596434354782104 0.9266341328620911 -0.0
vn -0.45385777950286865 0.8910741209983826 -0.0
vn -0.45385777950286865 0.8910741209983826 -0.0
vn -0.37596434354782104 0.9266341328620911 -0.0
vn -0.29531434178352356 0.9554001688957214 -0.0
vn -0.21249914169311523 0.9771612286567688 -0.0
vn -0.12812590599060059 0.9917579293251038 -0.0
vn -0.042813271284103394 0.9990831017494202 -0.0
vn 0.042813271284103394 0.9990831017494202 -0.0
vn 0.12812590599060059 0.9917579293251038 -0.0
vn 0.21249914169311523 0.9771612286567688 -0.0
vn 0.29531434178352356 0.9554001688957214 -0.0
vn 0.37596434354782104 0.9266341328620911 -0.0
vn 0.45385777950286865 0.8910741209983826 -0.0
vn -1.0 0.0 0.0
vn -1.0 0.0 0.0
vn -1.0 0.0 0.0
vn -1.0 0.0 0.0
vn 1.0 0.0 0.0
vn 1.0 0.0 0.0
vn 1.0 0.0 0.0
vn 1.0 0.0 0.0
vn -8.851948917272098e-17 -1.0 0.0
vn -8.851948917272098e-17 -1.0 0.0
vn -8.851948917272098e-17 -1.0 0.0
vn -8.851948917272098e-17 -1.0 0.0
vn -0.0 -0.0 -1.0
vn -0.0 -0.0 -1.0
vn -0.0 -0.0 -1.0
vn -0.0 -0.0 -1.0
vn -0.0 -0.0 -1.0
vn -0.0 -0.0 -1.0
vn -0.0 -0.0 -1.0
vn -0.0 -0.0 -1.0
vn -0.0 -0.0 -1.0
vn -0.0 -0.0 -1.0
vn -0.0 -0.0 -1.0
vn -0.0 -0.0 -1.0
vn -0.0 -0.0 -1.0
vn -0.0 -0.0 -1.0
vn -0.0 -0.0 -1.0
vn -0.0 -0.0 -1.0
vn -0.0 -0.0 -1.0
vn -0.0 -0.0 -1.0
vn -0.0 -0.0 -1.0
vn -0.0 -0.0 -1.0
vn -0.0 -0.0 -1.0
vn -0.0 -0.0 -1.0
vn -0.0 -0.0 -1.0
vn -0.0 -0.0 -1.0
vn -0.0 -0.0 -1.0
vn -0.0 -0.0 -1.0
vn -0.0 -0.0 -1.0
vn -0.0 -0.0 -1.0
vn -0.0 -0.0 -1.0
vn -0.0 -0.0 -1.0
vn -8.851948917272098e-17 -1.0 0.0
vn -8.851948917272098e-17 -1.0 0.0
vn -8.851948917272098e-17 -1.0 0.0
vn -8.851948917272098e-17 -1.0 0.0
vn 1.0 -2.220446049250313e-16 -2.2204460823375376e-17
vn 0.9781476259231567 -0.2079116851091385 -3.2256225623860535e-17
vn 0.9135454297065735 -0.4067366421222687 -4.0898241395622594e-17
vn 0.80901700258255 -0.5877852439880371 -4.7752802581718816e-17
vn 0.6691306233406067 -0.7431448101997375 -5.2520340760229447e-17
vn 0.5 -0.8660253882408142 -5.499248913485238e-17
vn 0.30901700258255005 -0.9510565400123596 -5.506119806525348e-17
vn 0.10452846437692642 -0.9945219159126282 -5.272347315761532e-17
vn -0.10452846437692642 -0.9945219159126282 -4.8081474526310636e-17
vn -0.30901700258255005 -0.9510565400123596 -4.133808972326399e-17
vn -0.5 -0.8660253882408142 -3.2788026657115776e-17
vn -0.6691306233406067 -0.7431448101997375 -2.2804974095754173e-17
vn -0.80901700258255 -0.5877852439880371 -1.1825232589173337e-17
vn -0.9135454297065735 -0.4067366421222687 -3.2867171194727274e-19
vn -0.9781476259231567 -0.2079116851091385 1.1182253518507293e-17
vn -1.0 9.957992628395942e-17 2.2204460823375376e-17
vn -1.0 9.957992628395942e-17 2.2204460823375376e-17
vn -0.9781476259231567 -0.2079116851091385 1.1182253518507293e-17
vn -0.9135454297065735 -0.4067366421222687 -3.2867171194727274e-19
vn -0.80901700258255 -0.5877852439880371 -1.1825232589173337e-17
vn -0.6691306233406067 -0.7431448101997375 -2.2804974095754173e-17
vn -0.5 -0.8660253882408142 -3.2788026657115776e-17
vn -0.30901700258255005 -0.9510565400123596 -4.133808972326399e-17
vn -0.10452846437692642 -0.9945219159126282 -4.8081474526310636e-17
vn 0.10452846437692642 -0.9945219159126282 -5.272347315761532e-17
vn 0.30901700258255005 -0.9510565400123596 -5.506119806525348e-17
vn 0.5 -0.8660253882408142 -5.499248913485238e-17
vn 0.6691306233406067 -0.7431448101997375 -5.2520340760229447e-17
vn 0.80901700258255 -0.5877852439880371 -4.7752802581718816e-17
vn 0.9135454297065735 -0.4067366421222687 -4.0898241395622594e-17
vn 0.9781476259231567 -0.2079116851091385 -3.2256225623860535e-17
vn 1.0 -2.220446049250313e-16 -2.2204460823375376e-17
f 1//1 2//2 30//30
f 30//30 2//2 3//3
f 30//30 3//3 29//29
f 29//29 3//3 4//4
f 29//29 4//4 5//5
f 29//29 5//5 28//28
f 28//28 5//5 6//6
f 28//28 6//6 27//27
f 27//27 6//6 7//7
f 27//27 7//7 26//26
f 26//26 7//7 25//25
f 25//25 7//7 8//8
f 25//25 8//8 24//24
f 24//24 8//8 9//9
f 24//24 9//9 23//23
f 23//23 9//9 22//22
f 22//22 9//9 10//10
f 22//22 10//10 21//21
f 21//21 10//10 20//20
f 20//20 10//10 11//11
f 20//20 11//11 19//19
f 19//19 11//11 12//12
f 19//19 12//12 18//18
f 18//18 12//12 13//13
f 18//18 13//13 14//14
f 18//18 14//14 17//17
f 17//17 14//14 15//15
f 17//17 15//15 16//16
f 54//54 31//31 53//53
f 53//53 31//31 32//32
f 53//53 32//32 52//52
f 52//52 32//32 33//33
f 52//52 33//33 51//51
f 51//51 33//33 34//34
f 51//51 34//34 50//50
f 50//50 34//34 35//35
f 50//50 35//35 49//49
f 49//49 35//35 36//36
f 49//49 36//36 48//48
f 48//48 36//36 37//37
f 48//48 37//37 47//47
f 47//47 37//37 38//38
f 47//47 38//38 46//46
f 46//46 38//38 39//39
f 46//46 39//39 45//45
f 45//45 39//39 40//40
f 45//45 40//40 44//44
f 44//44 40//40 41//41
f 44//44 41//41 43//43
f 43//43 41//41 42//42
f 55//55 56//56 58//58
f 58//58 56//56 57//57
f 59//59 60//60 62//62
f 62//62 60//60 61//61
f 64//64 65//65 63//63
f 63//63 65//65 66//66
f 67//67 68//68 96//96
f 96//96 68//68 69//69
f 96//96 69//69 95//95
f 95//95 69//69 70//70
f 95//95 70//70 71//71
f 95//95 71//71 94//94
f 94//94 71//71 72//72
f 94//94 72//72 93//93
f 93//93 72//72 73//73
f 93//93 73//73 92//92
f 92//92 73//73 91//91
f 91//91 73//73 74//74
f 91//91 74//74 90//90
f 90//90 74//74 75//75
f 90//90 75//75 89//89
f 89//89 75//75 88//88
f 88//88 75//75 76//76
f 88//88 76//76 87//87
f 87//87 76//76 86//86
f 86//86 76//76 77//77
f 86//86 77//77 85//85
f 85//85 77//77 78//78
f 85//85 78//78 84//84
f 84//84 78//78 79//79
f 84//84 79//79 80//80
f 84//84 80//80 83//83
f 83//83 80//80 81//81
f 83//83 81//81 82//82
f 98//98 99//99 97//97
f 97//97 99//99 100//100
f 132//132 101//101 131//131
f 131//131 101//101 102//102
f 131//131 102//102 130//130
f 130//130 102//102 103//103
f 130//130 103//103 129//129
f 129//129 103//103 104//104
f 129//129 104//104 128//128
f 128//128 104//104 105//105
f 128//128 105//105 127//127
f 127//127 105//105 106//106
f 127//127 106//106 126//126
f 126//126 106//106 107//107
f 126//126 107//107 125//125
f 125//125 107//107 108//108
f 125//125 108//108 124//124
f 124//124 108//108 109//109
f 124//124 109//109 123//123
f 123//123 109//109 110//110
f 123//123 110//110 122//122
f 122//122 110//110 111//111
f 122//122 111//111 121//121
f 121//121 111//111 112//112
f 121//121 112//112 120//120
f 120//120 112//112 113//113
f 120//120 113//113 119//119
f 119//119 113//113 114//114
f 119//119 114//114 118//118
f 118//118 114//114 115//115
f 118//118 115//115 117//117
f 117//117 115//115 116//116

# End of file