# WaveFront *.obj file
# Vertices: 198
# Triangles : 172

v 1.7320507764816284 0.2679491937160492 -11.0
v 1.7320507764816284 4.5 -11.0
v 2.0 4.5 -10.0
v 2.0 -1.2246468525851679e-16 -10.0
v 1.7320507764816284 4.5 -11.0
v 1.6900696754455566 4.818878173828125 -11.0
v 1.5669872760772705 5.116025447845459 -11.0
v 1.3711915016174316 5.371191501617432 -11.0
v 1.116025447845459 5.56698751449585 -11.0
v 0.8188782334327698 5.690069675445557 -11.0
v 0.5 5.732050895690918 -11.0
v 0.5 6.0 -10.0
v 0.8337814211845398 5.9623918533325195 -10.0
v 1.1508256196975708 5.8514533042907715 -10.0
v 1.4352346658706665 5.6727471351623535 -10.0
v 1.672747254371643 5.435234546661377 -10.0
v 1.8514533042907715 5.150825500488281 -10.0
v 1.9623918533325195 4.8337812423706055 -10.0
v 2.0 4.5 -10.0
v 0.5 5.732050895690918 -11.0
v -0.5 5.732050895690918 -11.0
v -0.5 6.0 -10.0
v 0.5 6.0 -10.0
v -0.5 5.732050895690918 -11.0
v -0.8188782334327698 5.690069675445557 -11.0
v -1.116025447845459 5.56698751449585 -11.0
v -1.3711915016174316 5.371191501617432 -11.0
v -1.5669872760772705 5.116025447845459 -11.0
v -1.6900696754455566 4.818878173828125 -11.0
v -1.7320507764816284 4.5 -11.0
v -2.0 4.5 -10.0
v -1.9623918533325195 4.8337812423706055 -10.0
v -1.8514533042907715 5.150825500488281 -10.0
v -1.672747254371643 5.435234546661377 -10.0
v -1.4352346658706665 5.6727471351623535 -10.0
v -1.1508256196975708 5.8514533042907715 -10.0
v -0.8337814211845398 5.9623918533325195 -10.0
v -0.5 6.0 -10.0
v -1.7320507764816284 4.5 -11.0
v -1.7320507764816284 0.2679491937160492 -11.0
v -2.0 1.2246468525851679e-16 -10.0
v -2.0 4.5 -10.0
v -1.7320507764816284 0.2679491937160492 -11.0
v 1.7320507764816284 0.2679491937160492 -11.0
v 2.0 -1.2246468525851679e-16 -10.0
v -2.0 1.2246468525851679e-16 -10.0
v 1.7320507764816284 4.5 -11.0
v 1.7320507764816284 0.2679491937160492 -11.0
v -1.7320507764816284 0.2679491937160492 -11.0
v -1.7320507764816284 4.5 -11.0
v -1.6900696754455566 4.818878173828125 -11.0
v -1.5669872760772705 5.116025447845459 -11.0
v -1.3711915016174316 5.371191501617432 -11.0
v -1.116025447845459 5.56698751449585 -11.0
v -0.8188782334327698 5.690069675445557 -11.0
v -0.5 5.732050895690918 -11.0
v 0.5 5.732050895690918 -11.0
v 0.8188782334327698 5.690069675445557 -11.0
v 1.116025447845459 5.56698751449585 -11.0
v 1.3711915016174316 5.371191501617432 -11.0
v 1.5669872760772705 5.116025447845459 -11.0
v 1.6900696754455566 4.818878173828125 -11.0
v -5.0 0.0 -10.0
v -5.0 0.0 0.0
v -5.0 12.0 0.0
v -5.0 12.0 -10.0
v -2.0 4.5 -10.0
v -2.0 1.2246468525851679e-16 -10.0
v -5.0 0.0 -10.0
v -5.0 12.0 -10.0
v 5.0 12.0 -10.0
v 5.0 0.0 -10.0
v 2.0 -1.2246468525851679e-16 -10.0
v 2.0 4.5 -10.0
v 1.9623918533325195 4.8337812423706055 -10.0
v 1.8514533042907715 5.150825500488281 -10.0
v 1.672747254371643 5.435234546661377 -10.0
v 1.4352346658706665 5.6727471351623535 -10.0
v 1.1508256196975708 5.8514533042907715 -10.0
v 0.8337814211845398 5.9623918533325195 -10.0
v 0.5 6.0 -10.0
v -0.5 6.0 -10.0
v -0.8337814211845398 5.9623918533325195 -10.0
v -1.1508256196975708 5.8514533042907715 -10.0
v -1.4352346658706665 5.6727471351623535 -10.0
v -1.672747254371643 5.435234546661377 -10.0
v -1.8514533042907715 5.150825500488281 -10.0
v -1.9623918533325195 4.8337812423706055 -10.0
v 5.0 0.0 6.123233998228043e-16
v 5.0 0.0 -10.0
v 5.0 12.0 -10.0
v 5.0 12.0 6.123233998228043e-16
v -5.0 0.0 0.0
v -4.957224369049072 0.0 0.6526309847831726
v -4.829628944396973 0.0 1.2940952777862549
v -4.6193976402282715 0.0 1.9134172201156616
v -4.330127239227295 0.0 2.5
v -3.966766595840454 0.0 3.043807029724121
v -3.535533905029297 0.0 3.535533905029297
v -3.043807029724121 0.0 3.966766595840454
v -2.5 0.0 4.330127239227295
v -1.9134172201156616 0.0 4.6193976402282715
v -1.2940952777862549 0.0 4.829628944396973
v -0.6526309847831726 0.0 4.957224369049072
v -3.0616169991140216e-16 0.0 5.0
v 0.6526309847831726 0.0 4.957224369049072
v 1.2940952777862549 0.0 4.829628944396973
v 1.9134172201156616 0.0 4.6193976402282715
v 2.5 0.0 4.330127239227295
v 3.043807029724121 0.0 3.966766595840454
v 3.535533905029297 0.0 3.535533905029297
v 3.966766595840454 0.0 3.043807029724121
v 4.330127239227295 0.0 2.5
v 4.6193976402282715 0.0 1.9134172201156616
v 4.829628944396973 0.0 1.2940952777862549
v 4.957224369049072 0.0 0.6526309847831726
v 5.0 0.0 6.123233998228043e-16
v 5.0 12.0 6.123233998228043e-16
v 4.957224369049072 12.0 0.6526309847831726
v 4.829628944396973 12.0 1.2940952777862549
v 4.6193976402282715 12.0 1.9134172201156616
v 4.330127239227295 12.0 2.5
v 3.966766595840454 12.0 3.043807029724121
v 3.535533905029297 12.0 3.535533905029297
v 3.043807029724121 12.0 3.966766595840454
v 2.5 12.0 4.330127239227295
v 1.9134172201156616 12.0 4.6193976402282715
v 1.2940952777862549 12.0 4.829628944396973
v 0.6526309847831726 12.0 4.957224369049072
v -3.0616169991140216e-16 12.0 5.0
v -0.6526309847831726 12.0 4.957224369049072
v -1.2940952777862549 12.0 4.829628944396973
v -1.9134172201156616 12.0 4.6193976402282715
v -2.5 12.0 4.330127239227295
v -3.043807029724121 12.0 3.966766595840454
v -3.535533905029297 12.0 3.535533905029297
v -3.966766595840454 12.0 3.043807029724121
v -4.330127239227295 12.0 2.5
v -4.6193976402282715 12.0 1.9134172201156616
v -4.829628944396973 12.0 1.2940952777862549
v -4.957224369049072 12.0 0.6526309847831726
v -5.0 12.0 0.0
v -5.0 12.0 0.0
v -4.957224369049072 12.0 0.6526309847831726
v -4.829628944396973 12.0 1.2940952777862549
v -4.6193976402282715 12.0 1.9134172201156616
v -4.330127239227295 12.0 2.5
v -3.966766595840454 12.0 3.043807029724121
v -3.535533905029297 12.0 3.535533905029297
v -3.043807029724121 12.0 3.966766595840454
v -2.5 12.0 4.330127239227295
v -1.9134172201156616 12.0 4.6193976402282715
v -1.2940952777862549 12.0 4.829628944396973
v -0.6526309847831726 12.0 4.957224369049072
v -3.0616169991140216e-16 12.0 5.0
v 0.6526309847831726 12.0 4.957224369049072
v 1.2940952777862549 12.0 4.829628944396973
v 1.9134172201156616 12.0 4.6193976402282715
v 2.5 12.0 4.330127239227295
v 3.043807029724121 12.0 3.966766595840454
v 3.535533905029297 12.0 3.535533905029297
v 3.966766595840454 12.0 3.043807029724121
v 4.330127239227295 12.0 2.5
v 4.6193976402282715 12.0 1.9134172201156616
v 4.829628944396973 12.0 1.2940952777862549
v 4.957224369049072 12.0 0.6526309847831726
v 5.0 12.0 6.123233998228043e-16
v 5.0 12.0 -10.0
v -5.0 12.0 -10.0
v 5.0 0.0 6.123233998228043e-16
v 4.957224369049072 0.0 0.6526309847831726
v 4.829628944396973 0.0 1.2940952777862549
v 4.6193976402282715 0.0 1.9134172201156616
v 4.330127239227295 0.0 2.5
v 3.966766595840454 0.0 3.043807029724121
v 3.535533905029297 0.0 3.535533905029297
v 3.043807029724121 0.0 3.966766595840454
v 2.5 0.0 4.330127239227295
v 1.9134172201156616 0.0 4.6193976402282715
v 1.2940952777862549 0.0 4.829628944396973
v 0.6526309847831726 0.0 4.957224369049072
v -3.0616169991140216e-16 0.0 5.0
v -0.6526309847831726 0.0 4.957224369049072
v -1.2940952777862549 0.0 4.829628944396973
v -1.9134172201156616 0.0 4.6193976402282715
v -2.5 0.0 4.330127239227295
v -3.043807029724121 0.0 3.966766595840454
v -3.535533905029297 0.0 3.535533905029297
v -3.966766595840454 0.0 3.043807029724121
v -4.330127239227295 0.0 2.5
v -4.6193976402282715 0.0 1.9134172201156616
v -4.829628944396973 0.0 1.2940952777862549
v -4.957224369049072 0.0 0.6526309847831726
v -5.0 0.0 0.0
v -5.0 0.0 -10.0
v -2.0 1.2246468525851679e-16 -10.0
v 2.0 -1.2246468525851679e-16 -10.0
v 5.0 0.0 -10.0
vn 0.9659258127212524 0.0 -0.258819043636322
vn 0.9659258127212524 0.0 -0.258819043636322
vn 0.9659258127212524 0.0 -0.258819043636322
vn 0.9659258127212524 0.0 -0.258819043636322
vn 0.9659258127212524 5.914589533937914e-17 -0.258819043636322
vn 0.9330127239227295 0.25 -0.258819043636322
vn 0.8365163207054138 0.4829629063606262 -0.258819043636322
vn 0.6830127239227295 0.6830127239227295 -0.258819043636322
vn 0.4829629063606262 0.8365163207054138 -0.258819043636322
vn 0.25 0.9330127239227295 -0.258819043636322
vn 2.6112392578448655e-16 0.9659258127212524 -0.258819043636322
vn 2.1447861547258028e-16 0.9659258127212524 -0.258819043636322
vn 0.2149387151002884 0.9417080283164978 -0.258819043636322
vn 0.41909950971603394 0.8702691197395325 -0.258819043636322
vn 0.6022449135780334 0.7551912069320679 -0.258819043636322
vn 0.7551912069320679 0.6022449135780334 -0.258819043636322
vn 0.8702691197395325 0.41909950971603394 -0.258819043636322
vn 0.9417080283164978 0.2149387151002884 -0.258819043636322
vn 0.9659258127212524 5.914589533937914e-17 -0.258819043636322
vn 0.0 0.9659258127212524 -0.258819043636322
vn 0.0 0.9659258127212524 -0.258819043636322
vn 0.0 0.9659258127212524 -0.258819043636322
vn 0.0 0.9659258127212524 -0.258819043636322
vn 2.268256029864694e-16 0.9659258127212524 -0.258819043636322
vn -0.25 0.9330127239227295 -0.258819043636322
vn -0.4829629063606262 0.8365163207054138 -0.258819043636322
vn -0.6830127239227295 0.6830127239227295 -0.258819043636322
vn -0.8365163207054138 0.4829629063606262 -0.258819043636322
vn -0.9330127239227295 0.25 -0.258819043636322
vn -0.9659258127212524 -6.963304334655913e-16 -0.258819043636322
vn -0.9659258127212524 -5.719429569470277e-16 -0.258819043636322
vn -0.9417080283164978 0.2149387151002884 -0.258819043636322
vn -0.8702691197395325 0.41909950971603394 -0.258819043636322
vn -0.7551912069320679 0.6022449135780334 -0.258819043636322
vn -0.6022449135780334 0.7551912069320679 -0.258819043636322
vn -0.41909950971603394 0.8702691197395325 -0.258819043636322
vn -0.2149387151002884 0.9417080283164978 -0.258819043636322
vn 2.268256029864694e-16 0.9659258127212524 -0.258819043636322
vn -0.9659258127212524 -5.242810482797386e-16 -0.258819043636322
vn -0.9659258127212524 -5.242810482797386e-16 -0.258819043636322
vn -0.9659258127212524 -5.242810482797386e-16 -0.258819043636322
vn -0.9659258127212524 -5.242810482797386e-16 -0.258819043636322
vn -5.914589533937914e-17 -0.9659258127212524 -0.258819043636322
vn -5.914589533937914e-17 -0.9659258127212524 -0.258819043636322
vn -5.914589533937914e-17 -0.9659258127212524 -0.258819043636322
vn -5.914589533937914e-17 -0.9659258127212524 -0.258819043636322
vn 0.0 0.0 -1.0
vn 0.0 0.0 -1.0
vn 0.0 0.0 -1.0
vn 0.0 0.0 -1.0
vn 0.0 0.0 -1.0
vn 0.0 0.0 -1.0
vn 0.0 0.0 -1.0
vn 0.0 0.0 -1.0
vn 0.0 0.0 -1.0
vn 0.0 0.0 -1.0
vn 0.0 0.0 -1.0
vn 0.0 0.0 -1.0
vn 0.0 0.0 -1.0
vn 0.0 0.0 -1.0
vn 0.0 0.0 -1.0
vn 0.0 0.0 -1.0
vn -1.0 0.0 0.0
vn -1.0 0.0 0.0
vn -1.0 0.0 0.0
vn -1.0 0.0 0.0
vn 0.0 0.0 -1.0
vn 0.0 0.0 -1.0
vn 0.0 0.0 -1.0
vn 0.0 0.0 -1.0
vn 0.0 0.0 -1.0
vn 0.0 0.0 -1.0
vn 0.0 0.0 -1.0
vn 0.0 0.0 -1.0
vn 0.0 0.0 -1.0
vn 0.0 0.0 -1.0
vn 0.0 0.0 -1.0
vn 0.0 0.0 -1.0
vn 0.0 0.0 -1.0
vn 0.0 0.0 -1.0
vn 0.0 0.0 -1.0
vn 0.0 0.0 -1.0
vn 0.0 0.0 -1.0
vn 0.0 0.0 -1.0
vn 0.0 0.0 -1.0
vn 0.0 0.0 -1.0
vn 0.0 0.0 -1.0
vn 0.0 0.0 -1.0
vn 1.0 0.0 -8.88178432935015e-17
vn 1.0 0.0 -8.88178432935015e-17
vn 1.0 0.0 -8.88178432935015e-17
vn 1.0 0.0 -8.88178432935015e-17
vn -1.0 -0.0 0.0
vn -0.9914448857307434 -0.0 0.13052618503570557
vn -0.9659258127212524 -0.0 0.258819043636322
vn -0.9238795042037964 -0.0 0.3826834261417389
vn -0.8660253882408142 -0.0 0.5
vn -0.7933533191680908 -0.0 0.6087614297866821
vn -0.7071067690849304 -0.0 0.7071067690849304
vn -0.6087614297866821 -0.0 0.7933533191680908
vn -0.5 -0.0 0.8660253882408142
vn -0.3826834261417389 -0.0 0.9238795042037964
vn -0.258819043636322 -0.0 0.9659258127212524
vn -0.13052618503570557 -0.0 0.9914448857307434
vn -6.123234262925839e-17 -0.0 1.0
vn 0.13052618503570557 -0.0 0.9914448857307434
vn 0.258819043636322 -0.0 0.9659258127212524
vn 0.3826834261417389 -0.0 0.9238795042037964
vn 0.5 -0.0 0.8660253882408142
vn 0.6087614297866821 -0.0 0.7933533191680908
vn 0.7071067690849304 -0.0 0.7071067690849304
vn 0.7933533191680908 -0.0 0.6087614297866821
vn 0.8660253882408142 -0.0 0.5
vn 0.9238795042037964 -0.0 0.3826834261417389
vn 0.9659258127212524 -0.0 0.258819043636322
vn 0.9914448857307434 -0.0 0.13052618503570557
vn 1.0 -0.0 1.2246468525851679e-16
vn 1.0 -0.0 1.2246468525851679e-16
vn 0.9914448857307434 -0.0 0.13052618503570557
vn 0.9659258127212524 -0.0 0.258819043636322
vn 0.9238795042037964 -0.0 0.3826834261417389
vn 0.8660253882408142 -0.0 0.5
vn 0.7933533191680908 -0.0 0.6087614297866821
vn 0.7071067690849304 -0.0 0.7071067690849304
vn 0.6087614297866821 -0.0 0.7933533191680908
vn 0.5 -0.0 0.8660253882408142
vn 0.3826834261417389 -0.0 0.9238795042037964
vn 0.258819043636322 -0.0 0.9659258127212524
vn 0.13052618503570557 -0.0 0.9914448857307434
vn -6.123234262925839e-17 -0.0 1.0
vn -0.13052618503570557 -0.0 0.9914448857307434
vn -0.258819043636322 -0.0 0.9659258127212524
vn -0.3826834261417389 -0.0 0.9238795042037964
vn -0.5 -0.0 0.8660253882408142
vn -0.6087614297866821 -0.0 0.7933533191680908
vn -0.7071067690849304 -0.0 0.7071067690849304
vn -0.7933533191680908 -0.0 0.6087614297866821
vn -0.8660253882408142 -0.0 0.5
vn -0.9238795042037964 -0.0 0.3826834261417389
vn -0.9659258127212524 -0.0 0.258819043636322
vn -0.9914448857307434 -0.0 0.13052618503570557
vn -1.0 -0.0 0.0
vn 0.0 1.0 0.0
vn 0.0 1.0 0.0
vn 0.0 1.0 0.0
vn 0.0 1.0 0.0
vn 0.0 1.0 0.0
vn 0.0 1.0 0.0
vn 0.0 1.0 0.0
vn 0.0 1.0 0.0
vn 0.0 1.0 0.0
vn 0.0 1.0 0.0
vn 0.0 1.0 0.0
vn 0.0 1.0 0.0
vn 0.0 1.0 0.0
vn 0.0 1.0 0.0
vn 0.0 1.0 0.0
vn 0.0 1.0 0.0
vn 0.0 1.0 0.0
vn 0.0 1.0 0.0
vn 0.0 1.0 0.0
vn 0.0 1.0 0.0
vn 0.0 1.0 0.0
vn 0.0 1.0 0.0
vn 0.0 1.0 0.0
vn 0.0 1.0 0.0
vn 0.0 1.0 0.0
vn 0.0 1.0 0.0
vn 0.0 1.0 0.0
vn -0.0 -1.0 -0.0
vn -0.0 -1.0 -0.0
vn -0.0 -1.0 -0.0
vn -0.0 -1.0 -0.0
vn -0.0 -1.0 -0.0
vn -0.0 -1.0 -0.0
vn -0.0 -1.0 -0.0
vn -0.0 -1.0 -0.0
vn -0.0 -1.0 -0.0
vn -0.0 -1.0 -0.0
vn -0.0 -1.0 -0.0
vn -0.0 -1.0 -0.0
vn -0.0 -1.0 -0.0
vn -0.0 -1.0 -0.0
vn -0.0 -1.0 -0.0
vn -0.0 -1.0 -0.0
vn -0.0 -1.0 -0.0
vn -0.0 -1.0 -0.0
vn -0.0 -1.0 -0.0
vn -0.0 -1.0 -0.0
vn -0.0 -1.0 -0.0
vn -0.0 -1.0 -0.0
vn -0.0 -1.0 -0.0
vn -0.0 -1.0 -0.0
vn -0.0 -1.0 -0.0
vn -0.0 -1.0 -0.0
vn -0.0 -1.0 -0.0
vn -0.0 -1.0 -0.0
vn -0.0 -1.0 -0.0
g 2898a31c-e2cb-11ea-bc22-54bf646e7e1f
f 2//2 3//3 1//1
f 1//1 3//3 4//4
g 289a76ac-e2cb-11ea-9211-54bf646e7e1f
f 19//19 5//5 18//18
f 18//18 5//5 6//6
f 18//18 6//6 17//17
f 17//17 6//6 7//7
f 17//17 7//7 16//16
f 16//16 7//7 8//8
f 16//16 8//8 15//15
f 15//15 8//8 9//9
f 15//15 9//9 14//14
f 14//14 9//9 10//10
f 14//14 10//10 13//13
f 13//13 10//10 11//11
f 13//13 11//11 12//12
g 289bfc5c-e2cb-11ea-9e67-54bf646e7e1f
f 20//20 21//21 23//23
f 23//23 21//21 22//22
g 289da8e4-e2cb-11ea-b62e-54bf646e7e1f
f 38//38 24//24 37//37
f 37//37 24//24 25//25
f 37//37 25//25 36//36
f 36//36 25//25 26//26
f 36//36 26//26 35//35
f 35//35 26//26 27//27
f 35//35 27//27 34//34
f 34//34 27//27 28//28
f 34//34 28//28 33//33
f 33//33 28//28 29//29
f 33//33 29//29 32//32
f 32//32 29//29 30//30
f 32//32 30//30 31//31
g 289f2e98-e2cb-11ea-8268-54bf646e7e1f
f 39//39 40//40 42//42
f 42//42 40//40 41//41
g 28a0b44c-e2cb-11ea-83d0-54bf646e7e1f
f 43//43 44//44 46//46
f 46//46 44//44 45//45
g 28a260e8-e2cb-11ea-b89f-54bf646e7e1f
f 48//48 49//49 47//47
f 47//47 49//49 57//57
f 47//47 57//57 58//58
f 57//57 49//49 56//56
f 56//56 49//49 50//50
f 56//56 50//50 55//55
f 55//55 50//50 54//54
f 54//54 50//50 53//53
f 53//53 50//50 52//52
f 52//52 50//50 51//51
f 58//58 59//59 47//47
f 47//47 59//59 60//60
f 47//47 60//60 61//61
f 61//61 62//62 47//47
g 27e000da-e2cb-11ea-ad49-54bf646e7e1f
f 63//63 64//64 66//66
f 66//66 64//64 65//65
g 27e15f90-e2cb-11ea-af94-54bf646e7e1f
f 68//68 69//69 67//67
f 67//67 69//69 88//88
f 88//88 69//69 70//70
f 88//88 70//70 87//87
f 87//87 70//70 86//86
f 86//86 70//70 85//85
f 85//85 70//70 84//84
f 84//84 70//70 83//83
f 83//83 70//70 82//82
f 82//82 70//70 71//71
f 82//82 71//71 81//81
f 81//81 71//71 80//80
f 80//80 71//71 79//79
f 79//79 71//71 78//78
f 78//78 71//71 77//77
f 77//77 71//71 76//76
f 76//76 71//71 75//75
f 75//75 71//71 72//72
f 75//75 72//72 74//74
f 74//74 72//72 73//73
g 27e2be46-e2cb-11ea-9c6e-54bf646e7e1f
f 89//89 90//90 92//92
f 92//92 90//90 91//91
g 27e41d00-e2cb-11ea-a692-54bf646e7e1f
f 142//142 93//93 141//141
f 141//141 93//93 94//94
f 141//141 94//94 140//140
f 140//140 94//94 95//95
f 140//140 95//95 139//139
f 139//139 95//95 96//96
f 139//139 96//96 138//138
f 138//138 96//96 97//97
f 138//138 97//97 137//137
f 137//137 97//97 98//98
f 137//137 98//98 136//136
f 136//136 98//98 99//99
f 136//136 99//99 135//135
f 135//135 99//99 100//100
f 135//135 100//100 134//134
f 134//134 100//100 101//101
f 134//134 101//101 133//133
f 133//133 101//101 102//102
f 133//133 102//102 132//132
f 132//132 102//102 103//103
f 132//132 103//103 131//131
f 131//131 103//103 104//104
f 131//131 104//104 130//130
f 130//130 104//104 105//105
f 130//130 105//105 129//129
f 129//129 105//105 106//106
f 129//129 106//106 128//128
f 128//128 106//106 107//107
f 128//128 107//107 127//127
f 127//127 107//107 108//108
f 127//127 108//108 126//126
f 126//126 108//108 109//109
f 126//126 109//109 125//125
f 125//125 109//109 110//110
f 125//125 110//110 124//124
f 124//124 110//110 111//111
f 124//124 111//111 123//123
f 123//123 111//111 112//112
f 123//123 112//112 122//122
f 122//122 112//112 113//113
f 122//122 113//113 121//121
f 121//121 113//113 114//114
f 121//121 114//114 120//120
f 120//120 114//114 115//115
f 120//120 115//115 119//119
f 119//119 115//115 116//116
f 119//119 116//116 118//118
f 118//118 116//116 117//117
g 27e5c99e-e2cb-11ea-8649-54bf646e7e1f
f 144//144 145//145 143//143
f 143//143 145//145 146//146
f 143//143 146//146 147//147
f 147//147 148//148 143//143
f 143//143 148//148 149//149
f 143//143 149//149 150//150
f 150//150 151//151 143//143
f 143//143 151//151 152//152
f 143//143 152//152 153//153
f 153//153 154//154 143//143
f 143//143 154//154 155//155
f 143//143 155//155 167//167
f 167//167 155//155 156//156
f 167//167 156//156 157//157
f 157//157 158//158 167//167
f 167//167 158//158 159//159
f 167//167 159//159 160//160
f 160//160 161//161 167//167
f 167//167 161//161 162//162
f 167//167 162//162 163//163
f 163//163 164//164 167//167
f 167//167 164//164 165//165
f 167//167 165//165 166//166
f 168//168 169//169 167//167
f 167//167 169//169 143//143
g 27e74f58-e2cb-11ea-8be2-54bf646e7e1f
f 171//171 172//172 170//170
f 170//170 172//172 173//173
f 170//170 173//173 174//174
f 174//174 175//175 170//170
f 170//170 175//175 176//176
f 170//170 176//176 177//177
f 177//177 178//178 170//170
f 170//170 178//178 179//179
f 170//170 179//179 180//180
f 180//180 181//181 170//170
f 170//170 181//181 197//197
f 170//170 197//197 198//198
f 181//181 182//182 197//197
f 197//197 182//182 196//196
f 196//196 182//182 183//183
f 196//196 183//183 194//194
f 194//194 183//183 184//184
f 194//194 184//184 185//185
f 185//185 186//186 194//194
f 194//194 186//186 187//187
f 194//194 187//187 188//188
f 188//188 189//189 194//194
f 194//194 189//189 190//190
f 194//194 190//190 191//191
f 191//191 192//192 194//194
f 194//194 192//192 193//193
f 194//194 195//195 196//196

# End of file