# WaveFront *.obj file
# Vertices: 220
# Triangles : 200

v 4.001727104187012 0.0 5.979274749755859
v 4.49415922164917 0.0 0.07009143382310867
v 4.49415922164917 3.5 0.07009143382310867
v 4.001727104187012 3.5 5.979274749755859
v 2.5 0.0 7.5
v 2.7859110832214355 0.0 7.4496684074401855
v 3.0585520267486572 0.0 7.349942207336426
v 3.309460163116455 0.0 7.203916072845459
v 3.5308475494384766 0.0 7.016123294830322
v 3.7158424854278564 0.0 6.792392730712891
v 3.8587024211883545 0.0 6.539669036865234
v 3.954993724822998 0.0 6.265795707702637
v 4.001727104187012 0.0 5.979274749755859
v 4.001727104187012 3.5 5.979274749755859
v 3.954993724822998 3.5 6.265795707702637
v 3.8587024211883545 3.5 6.539669036865234
v 3.7158424854278564 3.5 6.792392730712891
v 3.5308475494384766 3.5 7.016123294830322
v 3.309460163116455 3.5 7.203916072845459
v 3.0585520267486572 3.5 7.349942207336426
v 2.7859110832214355 3.5 7.4496684074401855
v 2.5 3.5 7.5
v -1.0 0.0 7.5
v 2.5 0.0 7.5
v 2.5 3.5 7.5
v -1.0 3.5 7.5
v -2.5017271041870117 0.0 5.979274749755859
v -2.454993724822998 0.0 6.265795707702637
v -2.3587024211883545 0.0 6.539669036865234
v -2.2158424854278564 0.0 6.792392730712891
v -2.0308475494384766 0.0 7.016123294830322
v -1.8094602823257446 0.0 7.203916072845459
v -1.5585520267486572 0.0 7.349942207336426
v -1.2859110832214355 0.0 7.4496684074401855
v -1.0 0.0 7.5
v -1.0 3.5 7.5
v -1.2859110832214355 3.5 7.4496684074401855
v -1.5585520267486572 3.5 7.349942207336426
v -1.8094602823257446 3.5 7.203916072845459
v -2.0308475494384766 3.5 7.016123294830322
v -2.2158424854278564 3.5 6.792392730712891
v -2.3587024211883545 3.5 6.539669036865234
v -2.454993724822998 3.5 6.265795707702637
v -2.5017271041870117 3.5 5.979274749755859
v -2.994158983230591 0.0 0.07009143382310867
v -2.5017271041870117 0.0 5.979274749755859
v -2.5017271041870117 3.5 5.979274749755859
v -2.994158983230591 3.5 0.07009143382310867
v -2.9989006519317627 0.0 -0.0907946452498436
v -2.999239921569824 0.0 -0.03712083026766777
v -2.9976587295532227 0.0 0.016530761495232582
v -2.994158983230591 0.0 0.07009143382310867
v -2.994158983230591 3.5 0.07009143382310867
v -2.9976587295532227 3.5 0.016530761495232582
v -2.999239921569824 3.5 -0.03712083026766777
v -2.9989006519317627 3.5 -0.0907946452498436
v 4.498900890350342 0.0 -0.0907946452498436
v 4.461626052856445 0.0 -0.5351002216339111
v 4.371881484985352 0.0 -0.9718412756919861
v 4.230935573577881 0.0 -1.3948436975479126
v 4.040780544281006 0.0 -1.7981276512145996
v 3.804105043411255 0.0 -2.175992250442505
v 3.52425479888916 0.0 -2.5230953693389893
v 3.205185651779175 0.0 -2.8345303535461426
v 2.8514084815979004 0.0 -3.1058948040008545
v 2.4679245948791504 0.0 -3.3333518505096436
v 2.060154676437378 0.0 -3.5136866569519043
v 1.6338636875152588 0.0 -3.6443498134613037
v 1.1950777769088745 0.0 -3.723493814468384
v 0.75 0.0 -3.75
v 0.3049221932888031 0.0 -3.723493814468384
v -0.13386370241641998 0.0 -3.6443498134613037
v -0.5601547360420227 0.0 -3.5136866569519043
v -0.9679245352745056 0.0 -3.3333518505096436
v -1.35140860080719 0.0 -3.1058948040008545
v -1.7051857709884644 0.0 -2.8345303535461426
v -2.02425479888916 0.0 -2.5230953693389893
v -2.304105043411255 0.0 -2.175992250442505
v -2.540780544281006 0.0 -1.7981276512145996
v -2.7309353351593018 0.0 -1.3948436975479126
v -2.8718812465667725 0.0 -0.9718412756919861
v -2.9616260528564453 0.0 -0.5351002216339111
v -2.9989006519317627 0.0 -0.0907946452498436
v -2.9989006519317627 3.5 -0.0907946452498436
v -2.9616260528564453 3.5 -0.5351002216339111
v -2.8718812465667725 3.5 -0.9718412756919861
v -2.7309353351593018 3.5 -1.3948436975479126
v -2.540780544281006 3.5 -1.7981276512145996
v -2.304105043411255 3.5 -2.175992250442505
v -2.02425479888916 3.5 -2.5230953693389893
v -1.7051857709884644 3.5 -2.8345303535461426
v -1.35140860080719 3.5 -3.1058948040008545
v -0.9679245352745056 3.5 -3.3333518505096436
v -0.5601547360420227 3.5 -3.5136866569519043
v -0.13386370241641998 3.5 -3.6443498134613037
v 0.3049221932888031 3.5 -3.723493814468384
v 0.75 3.5 -3.75
v 1.1950777769088745 3.5 -3.723493814468384
v 1.6338636875152588 3.5 -3.6443498134613037
v 2.060154676437378 3.5 -3.5136866569519043
v 2.4679245948791504 3.5 -3.3333518505096436
v 2.8514084815979004 3.5 -3.1058948040008545
v 3.205185651779175 3.5 -2.8345303535461426
v 3.52425479888916 3.5 -2.5230953693389893
v 3.804105043411255 3.5 -2.175992250442505
v 4.040780544281006 3.5 -1.7981276512145996
v 4.230935573577881 3.5 -1.3948436975479126
v 4.371881484985352 3.5 -0.9718412756919861
v 4.461626052856445 3.5 -0.5351002216339111
v 4.498900890350342 3.5 -0.0907946452498436
v 4.49415922164917 0.0 0.07009143382310867
v 4.497658729553223 0.0 0.016530761495232582
v 4.499239921569824 0.0 -0.03712083026766777
v 4.498900890350342 0.0 -0.0907946452498436
v 4.498900890350342 3.5 -0.0907946452498436
v 4.499239921569824 3.5 -0.03712083026766777
v 4.497658729553223 3.5 0.016530761495232582
v 4.49415922164917 3.5 0.07009143382310867
v 4.49415922164917 3.5 0.07009143382310867
v 4.497658729553223 3.5 0.016530761495232582
v 4.499239921569824 3.5 -0.03712083026766777
v 4.498900890350342 3.5 -0.0907946452498436
v 4.461626052856445 3.5 -0.5351002216339111
v 4.371881484985352 3.5 -0.9718412756919861
v 4.230935573577881 3.5 -1.3948436975479126
v 4.040780544281006 3.5 -1.7981276512145996
v 3.804105043411255 3.5 -2.175992250442505
v 3.52425479888916 3.5 -2.5230953693389893
v 3.205185651779175 3.5 -2.8345303535461426
v 2.8514084815979004 3.5 -3.1058948040008545
v 2.4679245948791504 3.5 -3.3333518505096436
v 2.060154676437378 3.5 -3.5136866569519043
v 1.6338636875152588 3.5 -3.6443498134613037
v 1.1950777769088745 3.5 -3.723493814468384
v 0.75 3.5 -3.75
v 0.3049221932888031 3.5 -3.723493814468384
v -0.13386370241641998 3.5 -3.6443498134613037
v -0.5601547360420227 3.5 -3.5136866569519043
v -0.9679245352745056 3.5 -3.3333518505096436
v -1.35140860080719 3.5 -3.1058948040008545
v -1.7051857709884644 3.5 -2.8345303535461426
v -2.02425479888916 3.5 -2.5230953693389893
v -2.304105043411255 3.5 -2.175992250442505
v -2.540780544281006 3.5 -1.7981276512145996
v -2.7309353351593018 3.5 -1.3948436975479126
v -2.8718812465667725 3.5 -0.9718412756919861
v -2.9616260528564453 3.5 -0.5351002216339111
v -2.9989006519317627 3.5 -0.0907946452498436
v -2.999239921569824 3.5 -0.03712083026766777
v -2.9976587295532227 3.5 0.016530761495232582
v -2.994158983230591 3.5 0.07009143382310867
v -2.5017271041870117 3.5 5.979274749755859
v -2.454993724822998 3.5 6.265795707702637
v -2.3587024211883545 3.5 6.539669036865234
v -2.2158424854278564 3.5 6.792392730712891
v -2.0308475494384766 3.5 7.016123294830322
v -1.8094602823257446 3.5 7.203916072845459
v -1.5585520267486572 3.5 7.349942207336426
v -1.2859110832214355 3.5 7.4496684074401855
v -1.0 3.5 7.5
v 2.5 3.5 7.5
v 2.7859110832214355 3.5 7.4496684074401855
v 3.0585520267486572 3.5 7.349942207336426
v 3.309460163116455 3.5 7.203916072845459
v 3.5308475494384766 3.5 7.016123294830322
v 3.7158424854278564 3.5 6.792392730712891
v 3.8587024211883545 3.5 6.539669036865234
v 3.954993724822998 3.5 6.265795707702637
v 4.001727104187012 3.5 5.979274749755859
v 4.498900890350342 0.0 -0.0907946452498436
v 4.499239921569824 0.0 -0.03712083026766777
v 4.497658729553223 0.0 0.016530761495232582
v 4.49415922164917 0.0 0.07009143382310867
v 4.001727104187012 0.0 5.979274749755859
v 3.954993724822998 0.0 6.265795707702637
v 3.8587024211883545 0.0 6.539669036865234
v 3.7158424854278564 0.0 6.792392730712891
v 3.5308475494384766 0.0 7.016123294830322
v 3.309460163116455 0.0 7.203916072845459
v 3.0585520267486572 0.0 7.349942207336426
v 2.7859110832214355 0.0 7.4496684074401855
v 2.5 0.0 7.5
v -1.0 0.0 7.5
v -1.2859110832214355 0.0 7.4496684074401855
v -1.5585520267486572 0.0 7.349942207336426
v -1.8094602823257446 0.0 7.203916072845459
v -2.0308475494384766 0.0 7.016123294830322
v -2.2158424854278564 0.0 6.792392730712891
v -2.3587024211883545 0.0 6.539669036865234
v -2.454993724822998 0.0 6.265795707702637
v -2.5017271041870117 0.0 5.979274749755859
v -2.994158983230591 0.0 0.07009143382310867
v -2.9976587295532227 0.0 0.016530761495232582
v -2.999239921569824 0.0 -0.03712083026766777
v -2.9989006519317627 0.0 -0.0907946452498436
v -2.9616260528564453 0.0 -0.5351002216339111
v -2.8718812465667725 0.0 -0.9718412756919861
v -2.7309353351593018 0.0 -1.3948436975479126
v -2.540780544281006 0.0 -1.7981276512145996
v -2.304105043411255 0.0 -2.175992250442505
v -2.02425479888916 0.0 -2.5230953693389893
v -1.7051857709884644 0.0 -2.8345303535461426
v -1.35140860080719 0.0 -3.1058948040008545
v -0.9679245352745056 0.0 -3.3333518505096436
v -0.5601547360420227 0.0 -3.5136866569519043
v -0.13386370241641998 0.0 -3.6443498134613037
v 0.3049221932888031 0.0 -3.723493814468384
v 0.75 0.0 -3.75
v 1.1950777769088745 0.0 -3.723493814468384
v 1.6338636875152588 0.0 -3.6443498134613037
v 2.060154676437378 0.0 -3.5136866569519043
v 2.4679245948791504 0.0 -3.3333518505096436
v 2.8514084815979004 0.0 -3.1058948040008545
v 3.205185651779175 0.0 -2.8345303535461426
v 3.52425479888916 0.0 -2.5230953693389893
v 3.804105043411255 0.0 -2.175992250442505
v 4.040780544281006 0.0 -1.7981276512145996
v 4.230935573577881 0.0 -1.3948436975479126
v 4.371881484985352 0.0 -0.9718412756919861
v 4.461626052856445 0.0 -0.5351002216339111
vn 0.9965457320213318 -0.0 0.08304548263549805
vn 0.9965457320213318 -0.0 0.08304548263549805
vn 0.9965457320213318 -0.0 0.08304548263549805
vn 0.9965457320213318 -0.0 0.08304548263549805
vn 0.08594342321157455 -0.0 0.9963000416755676
vn 0.25945529341697693 -0.0 0.9657551050186157
vn 0.42491382360458374 -0.0 0.9052338004112244
vn 0.5771833062171936 -0.0 0.8166146278381348
vn 0.7115374207496643 -0.0 0.7026482224464417
vn 0.8238058090209961 -0.0 0.5668720602989197
vn 0.9105038642883301 -0.0 0.41350057721138
vn 0.9689404368400574 -0.0 0.24729430675506592
vn 0.9973016977310181 -0.0 0.07341217249631882
vn 0.9973016977310181 -0.0 0.07341217249631882
vn 0.9689404368400574 -0.0 0.24729430675506592
vn 0.9105038642883301 -0.0 0.41350057721138
vn 0.8238058090209961 -0.0 0.5668720602989197
vn 0.7115374207496643 -0.0 0.7026482224464417
vn 0.5771833062171936 -0.0 0.8166146278381348
vn 0.42491382360458374 -0.0 0.9052338004112244
vn 0.25945529341697693 -0.0 0.9657551050186157
vn 0.08594342321157455 -0.0 0.9963000416755676
vn 0.0 0.0 1.0
vn 0.0 0.0 1.0
vn 0.0 0.0 1.0
vn 0.0 0.0 1.0
vn -0.9973016977310181 -0.0 0.07341217249631882
vn -0.9689404368400574 -0.0 0.24729430675506592
vn -0.9105038642883301 -0.0 0.41350057721138
vn -0.8238058090209961 -0.0 0.5668720602989197
vn -0.7115374207496643 -0.0 0.7026482224464417
vn -0.5771833062171936 -0.0 0.8166146278381348
vn -0.42491382360458374 -0.0 0.9052338004112244
vn -0.25945529341697693 -0.0 0.9657551050186157
vn -0.08594342321157455 -0.0 0.9963000416755676
vn -0.08594342321157455 -0.0 0.9963000416755676
vn -0.25945529341697693 -0.0 0.9657551050186157
vn -0.42491382360458374 -0.0 0.9052338004112244
vn -0.5771833062171936 -0.0 0.8166146278381348
vn -0.7115374207496643 -0.0 0.7026482224464417
vn -0.8238058090209961 -0.0 0.5668720602989197
vn -0.9105038642883301 -0.0 0.41350057721138
vn -0.9689404368400574 -0.0 0.24729430675506592
vn -0.9973016977310181 -0.0 0.07341217249631882
vn -0.9965457320213318 0.0 0.08304548263549805
vn -0.9965457320213318 0.0 0.08304548263549805
vn -0.9965457320213318 0.0 0.08304548263549805
vn -0.9965457320213318 0.0 0.08304548263549805
vn -0.9997068643569946 0.0 -0.024211905896663666
vn -0.9999330639839172 -0.0 0.011570638045668602
vn -0.9988788962364197 -0.0 0.04733836650848389
vn -0.9965457320213318 -0.0 0.08304548263549805
vn -0.9965457320213318 -0.0 0.08304548263549805
vn -0.9988788962364197 -0.0 0.04733836650848389
vn -0.9999330639839172 -0.0 0.011570638045668602
vn -0.9997068643569946 0.0 -0.024211905896663666
vn 0.9997068643569946 -0.0 -0.024211905896663666
vn 0.9897669553756714 -0.0 -0.1426933854818344
vn 0.9658350348472595 -0.0 -0.259157657623291
vn 0.9282494187355042 -0.0 -0.37195831537246704
vn 0.8775414824485779 -0.0 -0.4795007109642029
vn 0.8144280314445496 -0.0 -0.5802645683288574
vn 0.739801287651062 -0.0 -0.6728254556655884
vn 0.6547161936759949 -0.0 -0.7558748126029968
vn 0.5603756308555603 -0.0 -0.8282386064529419
vn 0.4581131935119629 -0.0 -0.8888938426971436
vn 0.34937459230422974 -0.0 -0.9369831085205078
vn 0.23569698631763458 -0.0 -0.9718266129493713
vn 0.11868741363286972 -0.0 -0.9929316639900208
vn 9.494107490944938e-16 -0.0 -1.0
vn -0.11868741363286972 0.0 -0.9929316639900208
vn -0.23569698631763458 0.0 -0.9718266129493713
vn -0.34937459230422974 0.0 -0.9369831085205078
vn -0.4581131935119629 0.0 -0.8888938426971436
vn -0.5603756308555603 0.0 -0.8282386064529419
vn -0.6547161936759949 0.0 -0.7558748126029968
vn -0.739801287651062 0.0 -0.6728254556655884
vn -0.8144280314445496 0.0 -0.5802645683288574
vn -0.8775414824485779 0.0 -0.4795007109642029
vn -0.9282494187355042 0.0 -0.37195831537246704
vn -0.9658350348472595 0.0 -0.259157657623291
vn -0.9897669553756714 0.0 -0.1426933854818344
vn -0.9997068643569946 0.0 -0.024211905896663666
vn -0.9997068643569946 0.0 -0.024211905896663666
vn -0.9897669553756714 0.0 -0.1426933854818344
vn -0.9658350348472595 0.0 -0.259157657623291
vn -0.9282494187355042 0.0 -0.37195831537246704
vn -0.8775414824485779 0.0 -0.4795007109642029
vn -0.8144280314445496 0.0 -0.5802645683288574
vn -0.739801287651062 0.0 -0.6728254556655884
vn -0.6547161936759949 0.0 -0.7558748126029968
vn -0.5603756308555603 0.0 -0.8282386064529419
vn -0.4581131935119629 0.0 -0.8888938426971436
vn -0.34937459230422974 0.0 -0.9369831085205078
vn -0.23569698631763458 0.0 -0.9718266129493713
vn -0.11868741363286972 0.0 -0.9929316639900208
vn 9.494107490944938e-16 -0.0 -1.0
vn 0.11868741363286972 -0.0 -0.9929316639900208
vn 0.23569698631763458 -0.0 -0.9718266129493713
vn 0.34937459230422974 -0.0 -0.9369831085205078
vn 0.4581131935119629 -0.0 -0.8888938426971436
vn 0.5603756308555603 -0.0 -0.8282386064529419
vn 0.6547161936759949 -0.0 -0.7558748126029968
vn 0.739801287651062 -0.0 -0.6728254556655884
vn 0.8144280314445496 -0.0 -0.5802645683288574
vn 0.8775414824485779 -0.0 -0.4795007109642029
vn 0.9282494187355042 -0.0 -0.37195831537246704
vn 0.9658350348472595 -0.0 -0.259157657623291
vn 0.9897669553756714 -0.0 -0.1426933854818344
vn 0.9997068643569946 -0.0 -0.024211905896663666
vn 0.9965457320213318 -0.0 0.08304548263549805
vn 0.9988788962364197 -0.0 0.04733836650848389
vn 0.9999330639839172 -0.0 0.011570638045668602
vn 0.9997068643569946 -0.0 -0.024211905896663666
vn 0.9997068643569946 -0.0 -0.024211905896663666
vn 0.9999330639839172 -0.0 0.011570638045668602
vn 0.9988788962364197 -0.0 0.04733836650848389
vn 0.9965457320213318 -0.0 0.08304548263549805
vn 0.0 1.0 0.0
vn 0.0 1.0 0.0
vn 0.0 1.0 0.0
vn 0.0 1.0 0.0
vn 0.0 1.0 0.0
vn 0.0 1.0 0.0
vn 0.0 1.0 0.0
vn 0.0 1.0 0.0
vn 0.0 1.0 0.0
vn 0.0 1.0 0.0
vn 0.0 1.0 0.0
vn 0.0 1.0 0.0
vn 0.0 1.0 0.0
vn 0.0 1.0 0.0
vn 0.0 1.0 0.0
vn 0.0 1.0 0.0
vn 0.0 1.0 0.0
vn 0.0 1.0 0.0
vn 0.0 1.0 0.0
vn 0.0 1.0 0.0
vn 0.0 1.0 0.0
vn 0.0 1.0 0.0
vn 0.0 1.0 0.0
vn 0.0 1.0 0.0
vn 0.0 1.0 0.0
vn 0.0 1.0 0.0
vn 0.0 1.0 0.0
vn 0.0 1.0 0.0
vn 0.0 1.0 0.0
vn 0.0 1.0 0.0
vn 0.0 1.0 0.0
vn 0.0 1.0 0.0
vn 0.0 1.0 0.0
vn 0.0 1.0 0.0
vn 0.0 1.0 0.0
vn 0.0 1.0 0.0
vn 0.0 1.0 0.0
vn 0.0 1.0 0.0
vn 0.0 1.0 0.0
vn 0.0 1.0 0.0
vn 0.0 1.0 0.0
vn 0.0 1.0 0.0
vn 0.0 1.0 0.0
vn 0.0 1.0 0.0
vn 0.0 1.0 0.0
vn 0.0 1.0 0.0
vn 0.0 1.0 0.0
vn 0.0 1.0 0.0
vn 0.0 1.0 0.0
vn 0.0 1.0 0.0
vn 0.0 1.0 0.0
vn -0.0 -1.0 -0.0
vn -0.0 -1.0 -0.0
vn -0.0 -1.0 -0.0
vn -0.0 -1.0 -0.0
vn -0.0 -1.0 -0.0
vn -0.0 -1.0 -0.0
vn -0.0 -1.0 -0.0
vn -0.0 -1.0 -0.0
vn -0.0 -1.0 -0.0
vn -0.0 -1.0 -0.0
vn -0.0 -1.0 -0.0
vn -0.0 -1.0 -0.0
vn -0.0 -1.0 -0.0
vn -0.0 -1.0 -0.0
vn -0.0 -1.0 -0.0
vn -0.0 -1.0 -0.0
vn -0.0 -1.0 -0.0
vn -0.0 -1.0 -0.0
vn -0.0 -1.0 -0.0
vn -0.0 -1.0 -0.0
vn -0.0 -1.0 -0.0
vn -0.0 -1.0 -0.0
vn -0.0 -1.0 -0.0
vn -0.0 -1.0 -0.0
vn -0.0 -1.0 -0.0
vn -0.0 -1.0 -0.0
vn -0.0 -1.0 -0.0
vn -0.0 -1.0 -0.0
vn -0.0 -1.0 -0.0
vn -0.0 -1.0 -0.0
vn -0.0 -1.0 -0.0
vn -0.0 -1.0 -0.0
vn -0.0 -1.0 -0.0
vn -0.0 -1.0 -0.0
vn -0.0 -1.0 -0.0
vn -0.0 -1.0 -0.0
vn -0.0 -1.0 -0.0
vn -0.0 -1.0 -0.0
vn -0.0 -1.0 -0.0
vn -0.0 -1.0 -0.0
vn -0.0 -1.0 -0.0
vn -0.0 -1.0 -0.0
vn -0.0 -1.0 -0.0
vn -0.0 -1.0 -0.0
vn -0.0 -1.0 -0.0
vn -0.0 -1.0 -0.0
vn -0.0 -1.0 -0.0
vn -0.0 -1.0 -0.0
vn -0.0 -1.0 -0.0
vn -0.0 -1.0 -0.0
vn -0.0 -1.0 -0.0
g 4dc4aeca-e2d5-11ea-9871-54bf646e7e1f
f 1//1 2//2 4//4
f 4//4 2//2 3//3
g 4dc8a93e-e2d5-11ea-9d24-54bf646e7e1f
f 22//22 5//5 21//21
f 21//21 5//5 6//6
f 21//21 6//6 20//20
f 20//20 6//6 7//7
f 20//20 7//7 19//19
f 19//19 7//7 8//8
f 19//19 8//8 18//18
f 18//18 8//8 9//9
f 18//18 9//9 17//17
f 17//17 9//9 10//10
f 17//17 10//10 16//16
f 16//16 10//10 11//11
f 16//16 11//11 15//15
f 15//15 11//11 12//12
f 15//15 12//12 14//14
f 14//14 12//12 13//13
g 4dccf22c-e2d5-11ea-af52-54bf646e7e1f
f 23//23 24//24 26//26
f 26//26 24//24 25//25
g 4dd13afa-e2d5-11ea-b913-54bf646e7e1f
f 44//44 27//27 43//43
f 43//43 27//27 28//28
f 43//43 28//28 42//42
f 42//42 28//28 29//29
f 42//42 29//29 41//41
f 41//41 29//29 30//30
f 41//41 30//30 40//40
f 40//40 30//30 31//31
f 40//40 31//31 39//39
f 39//39 31//31 32//32
f 39//39 32//32 38//38
f 38//38 32//32 33//33
f 38//38 33//33 37//37
f 37//37 33//33 34//34
f 37//37 34//34 36//36
f 36//36 34//34 35//35
g 4dd583a8-e2d5-11ea-abe5-54bf646e7e1f
f 45//45 46//46 48//48
f 48//48 46//46 47//47
g 4dd9cc92-e2d5-11ea-abde-54bf646e7e1f
f 56//56 49//49 55//55
f 55//55 49//49 50//50
f 55//55 50//50 54//54
f 54//54 50//50 51//51
f 54//54 51//51 53//53
f 53//53 51//51 52//52
g 4dde1554-e2d5-11ea-bb02-54bf646e7e1f
f 110//110 57//57 109//109
f 109//109 57//57 58//58
f 109//109 58//58 108//108
f 108//108 58//58 59//59
f 108//108 59//59 107//107
f 107//107 59//59 60//60
f 107//107 60//60 106//106
f 106//106 60//60 61//61
f 106//106 61//61 105//105
f 105//105 61//61 62//62
f 105//105 62//62 104//104
f 104//104 62//62 63//63
f 104//104 63//63 103//103
f 103//103 63//63 64//64
f 103//103 64//64 102//102
f 102//102 64//64 65//65
f 102//102 65//65 101//101
f 101//101 65//65 66//66
f 101//101 66//66 100//100
f 100//100 66//66 67//67
f 100//100 67//67 99//99
f 99//99 67//67 68//68
f 99//99 68//68 98//98
f 98//98 68//68 69//69
f 98//98 69//69 97//97
f 97//97 69//69 70//70
f 97//97 70//70 96//96
f 96//96 70//70 71//71
f 96//96 71//71 95//95
f 95//95 71//71 72//72
f 95//95 72//72 94//94
f 94//94 72//72 73//73
f 94//94 73//73 93//93
f 93//93 73//73 74//74
f 93//93 74//74 92//92
f 92//92 74//74 75//75
f 92//92 75//75 91//91
f 91//91 75//75 76//76
f 91//91 76//76 90//90
f 90//90 76//76 77//77
f 90//90 77//77 89//89
f 89//89 77//77 78//78
f 89//89 78//78 88//88
f 88//88 78//78 79//79
f 88//88 79//79 87//87
f 87//87 79//79 80//80
f 87//87 80//80 86//86
f 86//86 80//80 81//81
f 86//86 81//81 85//85
f 85//85 81//81 82//82
f 85//85 82//82 84//84
f 84//84 82//82 83//83
g 4de25e14-e2d5-11ea-a34c-54bf646e7e1f
f 118//118 111//111 117//117
f 117//117 111//111 112//112
f 117//117 112//112 116//116
f 116//116 112//112 113//113
f 116//116 113//113 115//115
f 115//115 113//113 114//114
g 4de6ce1c-e2d5-11ea-ad6d-54bf646e7e1f
f 120//120 150//150 119//119
f 119//119 150//150 151//151
f 119//119 151//151 169//169
f 169//169 151//151 152//152
f 169//169 152//152 168//168
f 168//168 152//152 153//153
f 168//168 153//153 167//167
f 167//167 153//153 154//154
f 167//167 154//154 166//166
f 166//166 154//154 155//155
f 166//166 155//155 165//165
f 165//165 155//155 156//156
f 165//165 156//156 164//164
f 164//164 156//156 157//157
f 164//164 157//157 163//163
f 163//163 157//157 158//158
f 163//163 158//158 162//162
f 162//162 158//158 159//159
f 162//162 159//159 161//161
f 161//161 159//159 160//160
f 121//121 134//134 120//120
f 120//120 134//134 135//135
f 120//120 135//135 149//149
f 149//149 135//135 136//136
f 149//149 136//136 137//137
f 122//122 123//123 121//121
f 121//121 123//123 124//124
f 121//121 124//124 125//125
f 125//125 126//126 121//121
f 121//121 126//126 127//127
f 121//121 127//127 128//128
f 128//128 129//129 121//121
f 121//121 129//129 130//130
f 121//121 130//130 131//131
f 131//131 132//132 121//121
f 121//121 132//132 133//133
f 121//121 133//133 134//134
f 137//137 138//138 149//149
f 149//149 138//138 139//139
f 149//149 139//139 140//140
f 140//140 141//141 149//149
f 149//149 141//141 142//142
f 149//149 142//142 143//143
f 143//143 144//144 149//149
f 149//149 144//144 145//145
f 149//149 145//145 146//146
f 146//146 147//147 149//149
f 149//149 147//147 148//148
f 149//149 150//150 120//120
g 4df7ca24-e2d5-11ea-ae36-54bf646e7e1f
f 170//170 171//171 220//220
f 220//220 171//171 219//219
f 219//219 171//171 218//218
f 218//218 171//171 217//217
f 217//217 171//171 216//216
f 216//216 171//171 215//215
f 215//215 171//171 214//214
f 214//214 171//171 213//213
f 213//213 171//171 212//212
f 212//212 171//171 211//211
f 211//211 171//171 210//210
f 210//210 171//171 209//209
f 209//209 171//171 208//208
f 208//208 171//171 193//193
f 208//208 193//193 207//207
f 207//207 193//193 194//194
f 207//207 194//194 206//206
f 206//206 194//194 205//205
f 205//205 194//194 204//204
f 204//204 194//194 203//203
f 203//203 194//194 202//202
f 202//202 194//194 201//201
f 201//201 194//194 200//200
f 200//200 194//194 199//199
f 199//199 194//194 198//198
f 198//198 194//194 197//197
f 197//197 194//194 196//196
f 196//196 194//194 195//195
f 171//171 172//172 193//193
f 193//193 172//172 192//192
f 192//192 172//172 173//173
f 192//192 173//173 191//191
f 191//191 173//173 174//174
f 191//191 174//174 190//190
f 190//190 174//174 175//175
f 190//190 175//175 189//189
f 189//189 175//175 176//176
f 189//189 176//176 188//188
f 188//188 176//176 177//177
f 188//188 177//177 187//187
f 187//187 177//177 178//178
f 187//187 178//178 186//186
f 186//186 178//178 179//179
f 186//186 179//179 185//185
f 185//185 179//179 180//180
f 185//185 180//180 184//184
f 184//184 180//180 181//181
f 184//184 181//181 183//183
f 183//183 181//181 182//182

# End of file