# WaveFront *.obj file
# Vertices: 212
# Triangles : 184

v 1.8000000715255737 0.0 0.30000001192092896
v 1.5744640827178955 0.0 0.20051309466362
v 1.5744640827178955 0.6000000238418579 0.20051309466362
v 1.8000000715255737 0.6000000238418579 0.30000001192092896
v 0.3073873817920685 0.0 0.6303434371948242
v 0.3799436390399933 0.0 0.6808470487594604
v 0.4576292037963867 0.0 0.7230368256568909
v 0.5394954085350037 0.0 0.7563976049423218
v 0.6245426535606384 0.0 0.7805221080780029
v 0.7117324471473694 0.0 0.7951156497001648
v 0.800000011920929 0.0 0.800000011920929
v 0.8882675766944885 0.0 0.7951156497001648
v 0.9754573702812195 0.0 0.7805221080780029
v 1.0605045557022095 0.0 0.7563976049423218
v 1.1423708200454712 0.0 0.7230368256568909
v 1.220056414604187 0.0 0.6808470487594604
v 1.2926126718521118 0.0 0.6303434371948242
v 1.2926126718521118 0.6000000238418579 0.6303434371948242
v 1.220056414604187 0.6000000238418579 0.6808470487594604
v 1.1423708200454712 0.6000000238418579 0.7230368256568909
v 1.0605045557022095 0.6000000238418579 0.7563976049423218
v 0.9754573702812195 0.6000000238418579 0.7805221080780029
v 0.8882675766944885 0.6000000238418579 0.7951156497001648
v 0.800000011920929 0.6000000238418579 0.800000011920929
v 0.7117324471473694 0.6000000238418579 0.7951156497001648
v 0.6245426535606384 0.6000000238418579 0.7805221080780029
v 0.5394954085350037 0.6000000238418579 0.7563976049423218
v 0.4576292037963867 0.6000000238418579 0.7230368256568909
v 0.3799436390399933 0.6000000238418579 0.6808470487594604
v 0.3073873817920685 0.6000000238418579 0.6303434371948242
v 1.2926126718521118 0.0 0.6303434371948242
v 1.220056414604187 0.0 0.6808470487594604
v 1.1423708200454712 0.0 0.7230368256568909
v 1.0605045557022095 0.0 0.7563976049423218
v 0.9754573702812195 0.0 0.7805221080780029
v 0.8882675766944885 0.0 0.7951156497001648
v 0.800000011920929 0.0 0.800000011920929
v 0.7117324471473694 0.0 0.7951156497001648
v 0.6245426535606384 0.0 0.7805221080780029
v 0.5394954085350037 0.0 0.7563976049423218
v 0.4576292037963867 0.0 0.7230368256568909
v 0.3799436390399933 0.0 0.6808470487594604
v 0.3073873817920685 0.0 0.6303434371948242
v 0.1406896710395813 0.0 0.8045073747634888
v -0.2657908797264099 0.0 0.36192476749420166
v 0.02336091548204422 0.0 0.19191595911979675
v 0.006997540593147278 0.0 0.10557982325553894
v 0.0002018479281105101 0.0 0.01796986162662506
v 0.0030558286234736443 0.0 -0.0698569118976593
v 0.015525049529969692 0.0 -0.15684084594249725
v 0.03745906800031662 0.0 -0.2419324815273285
v 0.06859324127435684 0.0 -0.3241051733493805
v 0.10855194181203842 0.0 -0.4023674726486206
v 0.1568530648946762 0.0 -0.47577518224716187
v 0.21291382610797882 0.0 -0.5434425473213196
v 0.2760578691959381 0.0 -0.6045532822608948
v 0.3455233573913574 0.0 -0.6583699584007263
v 0.4204721450805664 0.0 -0.7042433023452759
v 0.5 0.0 -0.741619884967804
v 0.5 0.0 -1.0
v 1.100000023841858 0.0 -1.0
v 1.100000023841858 0.0 -0.741619884967804
v 1.1801282167434692 0.0 -0.7039194107055664
v 1.255598783493042 0.0 -0.6575939059257507
v 1.3254868984222412 0.0 -0.603210985660553
v 1.3889364004135132 0.0 -0.5414369702339172
v 1.4451695680618286 0.0 -0.4730288088321686
v 1.493497610092163 0.0 -0.39882466197013855
v 1.5333282947540283 0.0 -0.31973373889923096
v 1.5641735792160034 0.0 -0.23672515153884888
v 1.5856554508209229 0.0 -0.15081600844860077
v 1.5975109338760376 0.0 -0.06305892765522003
v 1.5995944738388062 0.0 0.025470811873674393
v 1.5918806791305542 0.0 0.11368845403194427
v 1.5744640827178955 0.0 0.20051309466362
v 1.8000000715255737 0.0 0.30000001192092896
v 1.4745773077011108 0.0 0.8045073747634888
v 1.2926126718521118 0.0 0.6303434371948242
v 1.4745773077011108 0.0 0.8045073747634888
v 1.4745773077011108 0.6000000238418579 0.8045073747634888
v 1.2926126718521118 0.6000000238418579 0.6303434371948242
v 1.5744640827178955 0.0 0.20051309466362
v 1.5918806791305542 0.0 0.11368845403194427
v 1.5995944738388062 0.0 0.025470811873674393
v 1.5975109338760376 0.0 -0.06305892765522003
v 1.5856554508209229 0.0 -0.15081600844860077
v 1.5641735792160034 0.0 -0.23672515153884888
v 1.5333282947540283 0.0 -0.31973373889923096
v 1.493497610092163 0.0 -0.39882466197013855
v 1.4451695680618286 0.0 -0.4730288088321686
v 1.3889364004135132 0.0 -0.5414369702339172
v 1.3254868984222412 0.0 -0.603210985660553
v 1.255598783493042 0.0 -0.6575939059257507
v 1.1801282167434692 0.0 -0.7039194107055664
v 1.100000023841858 0.0 -0.741619884967804
v 1.100000023841858 0.6000000238418579 -0.741619884967804
v 1.1801282167434692 0.6000000238418579 -0.7039194107055664
v 1.255598783493042 0.6000000238418579 -0.6575939059257507
v 1.3254868984222412 0.6000000238418579 -0.603210985660553
v 1.3889364004135132 0.6000000238418579 -0.5414369702339172
v 1.4451695680618286 0.6000000238418579 -0.4730288088321686
v 1.493497610092163 0.6000000238418579 -0.39882466197013855
v 1.5333282947540283 0.6000000238418579 -0.31973373889923096
v 1.5641735792160034 0.6000000238418579 -0.23672515153884888
v 1.5856554508209229 0.6000000238418579 -0.15081600844860077
v 1.5975109338760376 0.6000000238418579 -0.06305892765522003
v 1.5995944738388062 0.6000000238418579 0.025470811873674393
v 1.5918806791305542 0.6000000238418579 0.11368845403194427
v 1.5744640827178955 0.6000000238418579 0.20051309466362
v 0.1406896710395813 0.0 0.8045073747634888
v 0.3073873817920685 0.0 0.6303434371948242
v 0.3073873817920685 0.6000000238418579 0.6303434371948242
v 0.1406896710395813 0.6000000238418579 0.8045073747634888
v 0.02336091548204422 0.0 0.19191595911979675
v -0.2657908797264099 0.0 0.36192476749420166
v -0.2657908797264099 0.6000000238418579 0.36192476749420166
v 0.02336091548204422 0.6000000238418579 0.19191595911979675
v 0.5 0.0 -0.741619884967804
v 0.4204721450805664 0.0 -0.7042433023452759
v 0.3455233573913574 0.0 -0.6583699584007263
v 0.2760578691959381 0.0 -0.6045532822608948
v 0.21291382610797882 0.0 -0.5434425473213196
v 0.1568530648946762 0.0 -0.47577518224716187
v 0.10855194181203842 0.0 -0.4023674726486206
v 0.06859324127435684 0.0 -0.3241051733493805
v 0.03745906800031662 0.0 -0.2419324815273285
v 0.015525049529969692 0.0 -0.15684084594249725
v 0.0030558286234736443 0.0 -0.0698569118976593
v 0.0002018479281105101 0.0 0.01796986162662506
v 0.006997540593147278 0.0 0.10557982325553894
v 0.02336091548204422 0.0 0.19191595911979675
v 0.02336091548204422 0.6000000238418579 0.19191595911979675
v 0.006997540593147278 0.6000000238418579 0.10557982325553894
v 0.0002018479281105101 0.6000000238418579 0.01796986162662506
v 0.0030558286234736443 0.6000000238418579 -0.0698569118976593
v 0.015525049529969692 0.6000000238418579 -0.15684084594249725
v 0.03745906800031662 0.6000000238418579 -0.2419324815273285
v 0.06859324127435684 0.6000000238418579 -0.3241051733493805
v 0.10855194181203842 0.6000000238418579 -0.4023674726486206
v 0.1568530648946762 0.6000000238418579 -0.47577518224716187
v 0.21291382610797882 0.6000000238418579 -0.5434425473213196
v 0.2760578691959381 0.6000000238418579 -0.6045532822608948
v 0.3455233573913574 0.6000000238418579 -0.6583699584007263
v 0.4204721450805664 0.6000000238418579 -0.7042433023452759
v 0.5 0.6000000238418579 -0.741619884967804
v 1.100000023841858 0.0 -0.741619884967804
v 1.100000023841858 0.0 -1.0
v 1.100000023841858 0.6000000238418579 -1.0
v 1.100000023841858 0.6000000238418579 -0.741619884967804
v 0.5 0.0 -1.0
v 0.5 0.0 -0.741619884967804
v 0.5 0.6000000238418579 -0.741619884967804
v 0.5 0.6000000238418579 -1.0
v 0.3073873817920685 0.6000000238418579 0.6303434371948242
v 0.3799436390399933 0.6000000238418579 0.6808470487594604
v 0.4576292037963867 0.6000000238418579 0.7230368256568909
v 0.5394954085350037 0.6000000238418579 0.7563976049423218
v 0.6245426535606384 0.6000000238418579 0.7805221080780029
v 0.7117324471473694 0.6000000238418579 0.7951156497001648
v 0.800000011920929 0.6000000238418579 0.800000011920929
v 0.8882675766944885 0.6000000238418579 0.7951156497001648
v 0.9754573702812195 0.6000000238418579 0.7805221080780029
v 1.0605045557022095 0.6000000238418579 0.7563976049423218
v 1.1423708200454712 0.6000000238418579 0.7230368256568909
v 1.220056414604187 0.6000000238418579 0.6808470487594604
v 1.2926126718521118 0.6000000238418579 0.6303434371948242
v 1.4745773077011108 0.6000000238418579 0.8045073747634888
v 1.8000000715255737 0.6000000238418579 0.30000001192092896
v 1.5744640827178955 0.6000000238418579 0.20051309466362
v 1.5918806791305542 0.6000000238418579 0.11368845403194427
v 1.5995944738388062 0.6000000238418579 0.025470811873674393
v 1.5975109338760376 0.6000000238418579 -0.06305892765522003
v 1.5856554508209229 0.6000000238418579 -0.15081600844860077
v 1.5641735792160034 0.6000000238418579 -0.23672515153884888
v 1.5333282947540283 0.6000000238418579 -0.31973373889923096
v 1.493497610092163 0.6000000238418579 -0.39882466197013855
v 1.4451695680618286 0.6000000238418579 -0.4730288088321686
v 1.3889364004135132 0.6000000238418579 -0.5414369702339172
v 1.3254868984222412 0.6000000238418579 -0.603210985660553
v 1.255598783493042 0.6000000238418579 -0.6575939059257507
v 1.1801282167434692 0.6000000238418579 -0.7039194107055664
v 1.100000023841858 0.6000000238418579 -0.741619884967804
v 1.100000023841858 0.6000000238418579 -1.0
v 0.5 0.6000000238418579 -1.0
v 0.5 0.6000000238418579 -0.741619884967804
v 0.4204721450805664 0.6000000238418579 -0.7042433023452759
v 0.3455233573913574 0.6000000238418579 -0.6583699584007263
v 0.2760578691959381 0.6000000238418579 -0.6045532822608948
v 0.21291382610797882 0.6000000238418579 -0.5434425473213196
v 0.1568530648946762 0.6000000238418579 -0.47577518224716187
v 0.10855194181203842 0.6000000238418579 -0.4023674726486206
v 0.06859324127435684 0.6000000238418579 -0.3241051733493805
v 0.03745906800031662 0.6000000238418579 -0.2419324815273285
v 0.015525049529969692 0.6000000238418579 -0.15684084594249725
v 0.0030558286234736443 0.6000000238418579 -0.0698569118976593
v 0.0002018479281105101 0.6000000238418579 0.01796986162662506
v 0.006997540593147278 0.6000000238418579 0.10557982325553894
v 0.02336091548204422 0.6000000238418579 0.19191595911979675
v -0.2657908797264099 0.6000000238418579 0.36192476749420166
v 0.1406896710395813 0.6000000238418579 0.8045073747634888
v 1.4745773077011108 0.0 0.8045073747634888
v 1.8000000715255737 0.0 0.30000001192092896
v 1.8000000715255737 0.6000000238418579 0.30000001192092896
v 1.4745773077011108 0.6000000238418579 0.8045073747634888
v 1.100000023841858 0.0 -1.0
v 0.5 0.0 -1.0
v 0.5 0.6000000238418579 -1.0
v 1.100000023841858 0.6000000238418579 -1.0
v -0.2657908797264099 0.0 0.36192476749420166
v 0.1406896710395813 0.0 0.8045073747634888
v 0.1406896710395813 0.6000000238418579 0.8045073747634888
v -0.2657908797264099 0.6000000238418579 0.36192476749420166
vn 0.4035917818546295 0.0 -0.9149391651153564
vn 0.4035917818546295 0.0 -0.9149391651153564
vn 0.4035917818546295 0.0 -0.9149391651153564
vn 0.4035917818546295 0.0 -0.9149391651153564
vn -0.6157657504081726 -0.0 0.7879292368888855
vn -0.5250704288482666 -0.0 0.8510587811470032
vn -0.427963525056839 -0.0 0.9037960171699524
vn -0.32563072443008423 -0.0 0.9454970359802246
vn -0.21932166814804077 -0.0 0.9756525754928589
vn -0.11033447831869125 -0.0 0.9938945174217224
vn -1.6081226229577292e-16 -0.0 1.0
vn 0.11033447831869125 -0.0 0.9938945174217224
vn 0.21932166814804077 -0.0 0.9756525754928589
vn 0.32563072443008423 -0.0 0.9454970359802246
vn 0.427963525056839 -0.0 0.9037960171699524
vn 0.5250704288482666 -0.0 0.8510587811470032
vn 0.6157657504081726 -0.0 0.7879292368888855
vn 0.6157657504081726 -0.0 0.7879292368888855
vn 0.5250704288482666 -0.0 0.8510587811470032
vn 0.427963525056839 -0.0 0.9037960171699524
vn 0.32563072443008423 -0.0 0.9454970359802246
vn 0.21932166814804077 -0.0 0.9756525754928589
vn 0.11033447831869125 -0.0 0.9938945174217224
vn -1.6081226229577292e-16 -0.0 1.0
vn -0.11033447831869125 -0.0 0.9938945174217224
vn -0.21932166814804077 -0.0 0.9756525754928589
vn -0.32563072443008423 -0.0 0.9454970359802246
vn -0.427963525056839 -0.0 0.9037960171699524
vn -0.5250704288482666 -0.0 0.8510587811470032
vn -0.6157657504081726 -0.0 0.7879292368888855
vn -0.0 -1.0 -0.0
vn -0.0 -1.0 -0.0
vn -0.0 -1.0 -0.0
vn -0.0 -1.0 -0.0
vn -0.0 -1.0 -0.0
vn -0.0 -1.0 -0.0
vn -0.0 -1.0 -0.0
vn -0.0 -1.0 -0.0
vn -0.0 -1.0 -0.0
vn -0.0 -1.0 -0.0
vn -0.0 -1.0 -0.0
vn -0.0 -1.0 -0.0
vn -0.0 -1.0 -0.0
vn -0.0 -1.0 -0.0
vn -0.0 -1.0 -0.0
vn -0.0 -1.0 -0.0
vn -0.0 -1.0 -0.0
vn -0.0 -1.0 -0.0
vn -0.0 -1.0 -0.0
vn -0.0 -1.0 -0.0
vn -0.0 -1.0 -0.0
vn -0.0 -1.0 -0.0
vn -0.0 -1.0 -0.0
vn -0.0 -1.0 -0.0
vn -0.0 -1.0 -0.0
vn -0.0 -1.0 -0.0
vn -0.0 -1.0 -0.0
vn -0.0 -1.0 -0.0
vn -0.0 -1.0 -0.0
vn -0.0 -1.0 -0.0
vn -0.0 -1.0 -0.0
vn -0.0 -1.0 -0.0
vn -0.0 -1.0 -0.0
vn -0.0 -1.0 -0.0
vn -0.0 -1.0 -0.0
vn -0.0 -1.0 -0.0
vn -0.0 -1.0 -0.0
vn -0.0 -1.0 -0.0
vn -0.0 -1.0 -0.0
vn -0.0 -1.0 -0.0
vn -0.0 -1.0 -0.0
vn -0.0 -1.0 -0.0
vn -0.0 -1.0 -0.0
vn -0.0 -1.0 -0.0
vn -0.0 -1.0 -0.0
vn -0.0 -1.0 -0.0
vn -0.0 -1.0 -0.0
vn -0.6914523839950562 0.0 0.7224220037460327
vn -0.6914523839950562 0.0 0.7224220037460327
vn -0.6914523839950562 0.0 0.7224220037460327
vn -0.6914523839950562 0.0 0.7224220037460327
vn 0.9680799841880798 -0.0 0.2506413459777832
vn 0.9898508191108704 -0.0 0.14211057126522064
vn 0.9994930028915405 -0.0 0.031838513910770416
vn 0.9968885779380798 -0.0 -0.07882365584373474
vn 0.9820693731307983 -0.0 -0.18851999938488007
vn 0.9552169442176819 -0.0 -0.2959064543247223
vn 0.9166603088378906 -0.0 -0.3996671736240387
vn 0.8668720126152039 -0.0 -0.4985308051109314
vn 0.8064619302749634 -0.0 -0.5912860035896301
vn 0.7361704111099243 -0.0 -0.6767961978912354
vn 0.6568586230278015 -0.0 -0.75401371717453
vn 0.5694984793663025 -0.0 -0.8219923973083496
vn 0.47516027092933655 -0.0 -0.879899263381958
vn 0.375 -0.0 -0.927024781703949
vn 0.375 -0.0 -0.927024781703949
vn 0.47516027092933655 -0.0 -0.879899263381958
vn 0.5694984793663025 -0.0 -0.8219923973083496
vn 0.6568586230278015 -0.0 -0.75401371717453
vn 0.7361704111099243 -0.0 -0.6767961978912354
vn 0.8064619302749634 -0.0 -0.5912860035896301
vn 0.8668720126152039 -0.0 -0.4985308051109314
vn 0.9166603088378906 -0.0 -0.3996671736240387
vn 0.9552169442176819 -0.0 -0.2959064543247223
vn 0.9820693731307983 -0.0 -0.18851999938488007
vn 0.9968885779380798 -0.0 -0.07882365584373474
vn 0.9994930028915405 -0.0 0.031838513910770416
vn 0.9898508191108704 -0.0 0.14211057126522064
vn 0.9680799841880798 -0.0 0.2506413459777832
vn 0.7224220037460327 -0.0 0.6914523839950562
vn 0.7224220037460327 -0.0 0.6914523839950562
vn 0.7224220037460327 -0.0 0.6914523839950562
vn 0.7224220037460327 -0.0 0.6914523839950562
vn -0.5068418979644775 0.0 -0.8620390295982361
vn -0.5068418979644775 0.0 -0.8620390295982361
vn -0.5068418979644775 0.0 -0.8620390295982361
vn -0.5068418979644775 0.0 -0.8620390295982361
vn -0.375 0.0 -0.927024781703949
vn -0.474409818649292 0.0 -0.8803040981292725
vn -0.5680958032608032 0.0 -0.8229624032974243
vn -0.654927670955658 0.0 -0.7556915879249573
vn -0.7338576912879944 0.0 -0.6793032288551331
vn -0.8039336800575256 0.0 -0.5947189331054688
vn -0.864310085773468 0.0 -0.5029593706130981
vn -0.9142584204673767 0.0 -0.405131459236145
vn -0.9531761407852173 0.0 -0.3024156093597412
vn -0.9805936813354492 0.0 -0.19605106115341187
vn -0.9961802363395691 0.0 -0.08732113987207413
vn -0.9997476935386658 -0.0 0.022462327033281326
vn -0.9912530779838562 -0.0 0.13197478652000427
vn -0.9707988500595093 -0.0 0.23989494144916534
vn -0.9707988500595093 -0.0 0.23989494144916534
vn -0.9912530779838562 -0.0 0.13197478652000427
vn -0.9997476935386658 -0.0 0.022462327033281326
vn -0.9961802363395691 0.0 -0.08732113987207413
vn -0.9805936813354492 0.0 -0.19605106115341187
vn -0.9531761407852173 0.0 -0.3024156093597412
vn -0.9142584204673767 0.0 -0.405131459236145
vn -0.864310085773468 0.0 -0.5029593706130981
vn -0.8039336800575256 0.0 -0.5947189331054688
vn -0.7338576912879944 0.0 -0.6793032288551331
vn -0.654927670955658 0.0 -0.7556915879249573
vn -0.5680958032608032 0.0 -0.8229624032974243
vn -0.474409818649292 0.0 -0.8803040981292725
vn -0.375 0.0 -0.927024781703949
vn 1.0 0.0 0.0
vn 1.0 0.0 0.0
vn 1.0 0.0 0.0
vn 1.0 0.0 0.0
vn -1.0 0.0 0.0
vn -1.0 0.0 0.0
vn -1.0 0.0 0.0
vn -1.0 0.0 0.0
vn 0.0 1.0 0.0
vn 0.0 1.0 0.0
vn 0.0 1.0 0.0
vn 0.0 1.0 0.0
vn 0.0 1.0 0.0
vn 0.0 1.0 0.0
vn 0.0 1.0 0.0
vn 0.0 1.0 0.0
vn 0.0 1.0 0.0
vn 0.0 1.0 0.0
vn 0.0 1.0 0.0
vn 0.0 1.0 0.0
vn 0.0 1.0 0.0
vn 0.0 1.0 0.0
vn 0.0 1.0 0.0
vn 0.0 1.0 0.0
vn 0.0 1.0 0.0
vn 0.0 1.0 0.0
vn 0.0 1.0 0.0
vn 0.0 1.0 0.0
vn 0.0 1.0 0.0
vn 0.0 1.0 0.0
vn 0.0 1.0 0.0
vn 0.0 1.0 0.0
vn 0.0 1.0 0.0
vn 0.0 1.0 0.0
vn 0.0 1.0 0.0
vn 0.0 1.0 0.0
vn 0.0 1.0 0.0
vn 0.0 1.0 0.0
vn 0.0 1.0 0.0
vn 0.0 1.0 0.0
vn 0.0 1.0 0.0
vn 0.0 1.0 0.0
vn 0.0 1.0 0.0
vn 0.0 1.0 0.0
vn 0.0 1.0 0.0
vn 0.0 1.0 0.0
vn 0.0 1.0 0.0
vn 0.0 1.0 0.0
vn 0.0 1.0 0.0
vn 0.0 1.0 0.0
vn 0.0 1.0 0.0
vn 0.0 1.0 0.0
vn 0.0 1.0 0.0
vn 0.0 1.0 0.0
vn 0.0 1.0 0.0
vn 0.84034663438797 -0.0 0.5420493483543396
vn 0.84034663438797 -0.0 0.5420493483543396
vn 0.84034663438797 -0.0 0.5420493483543396
vn 0.84034663438797 -0.0 0.5420493483543396
vn 0.0 0.0 -1.0
vn 0.0 0.0 -1.0
vn 0.0 0.0 -1.0
vn 0.0 0.0 -1.0
vn -0.7365074157714844 0.0 0.6764294505119324
vn -0.7365074157714844 0.0 0.6764294505119324
vn -0.7365074157714844 0.0 0.6764294505119324
vn -0.7365074157714844 0.0 0.6764294505119324
f 1//1 2//2 4//4
f 4//4 2//2 3//3
f 30//30 5//5 29//29
f 29//29 5//5 6//6
f 29//29 6//6 28//28
f 28//28 6//6 7//7
f 28//28 7//7 27//27
f 27//27 7//7 8//8
f 27//27 8//8 26//26
f 26//26 8//8 9//9
f 26//26 9//9 25//25
f 25//25 9//9 10//10
f 25//25 10//10 24//24
f 24//24 10//10 11//11
f 24//24 11//11 23//23
f 23//23 11//11 12//12
f 23//23 12//12 22//22
f 22//22 12//12 13//13
f 22//22 13//13 21//21
f 21//21 13//13 14//14
f 21//21 14//14 20//20
f 20//20 14//14 15//15
f 20//20 15//15 19//19
f 19//19 15//15 16//16
f 19//19 16//16 18//18
f 18//18 16//16 17//17
f 32//32 42//42 31//31
f 31//31 42//42 43//43
f 31//31 43//43 46//46
f 46//46 43//43 45//45
f 45//45 43//43 44//44
f 42//42 32//32 41//41
f 41//41 32//32 33//33
f 41//41 33//33 40//40
f 40//40 33//33 34//34
f 40//40 34//34 39//39
f 39//39 34//34 35//35
f 39//39 35//35 38//38
f 38//38 35//35 36//36
f 38//38 36//36 37//37
f 47//47 74//74 46//46
f 46//46 74//74 75//75
f 46//46 75//75 31//31
f 31//31 75//75 76//76
f 31//31 76//76 77//77
f 74//74 47//47 73//73
f 73//73 47//47 48//48
f 73//73 48//48 72//72
f 72//72 48//48 49//49
f 72//72 49//49 71//71
f 71//71 49//49 50//50
f 71//71 50//50 51//51
f 71//71 51//51 70//70
f 70//70 51//51 52//52
f 70//70 52//52 69//69
f 69//69 52//52 53//53
f 69//69 53//53 68//68
f 68//68 53//53 54//54
f 68//68 54//54 67//67
f 67//67 54//54 55//55
f 67//67 55//55 66//66
f 66//66 55//55 56//56
f 66//66 56//56 65//65
f 65//65 56//56 57//57
f 65//65 57//57 58//58
f 65//65 58//58 64//64
f 64//64 58//58 59//59
f 64//64 59//59 63//63
f 63//63 59//59 62//62
f 62//62 59//59 61//61
f 61//61 59//59 60//60
f 78//78 79//79 81//81
f 81//81 79//79 80//80
f 109//109 82//82 108//108
f 108//108 82//82 83//83
f 108//108 83//83 107//107
f 107//107 83//83 84//84
f 107//107 84//84 106//106
f 106//106 84//84 85//85
f 106//106 85//85 105//105
f 105//105 85//85 86//86
f 105//105 86//86 104//104
f 104//104 86//86 87//87
f 104//104 87//87 103//103
f 103//103 87//87 88//88
f 103//103 88//88 102//102
f 102//102 88//88 89//89
f 102//102 89//89 101//101
f 101//101 89//89 90//90
f 101//101 90//90 100//100
f 100//100 90//90 91//91
f 100//100 91//91 99//99
f 99//99 91//91 92//92
f 99//99 92//92 98//98
f 98//98 92//92 93//93
f 98//98 93//93 97//97
f 97//97 93//93 94//94
f 97//97 94//94 96//96
f 96//96 94//94 95//95
f 110//110 111//111 113//113
f 113//113 111//111 112//112
f 114//114 115//115 117//117
f 117//117 115//115 116//116
f 145//145 118//118 144//144
f 144//144 118//118 119//119
f 144//144 119//119 143//143
f 143//143 119//119 120//120
f 143//143 120//120 142//142
f 142//142 120//120 121//121
f 142//142 121//121 141//141
f 141//141 121//121 122//122
f 141//141 122//122 140//140
f 140//140 122//122 123//123
f 140//140 123//123 139//139
f 139//139 123//123 124//124
f 139//139 124//124 138//138
f 138//138 124//124 125//125
f 138//138 125//125 137//137
f 137//137 125//125 126//126
f 137//137 126//126 136//136
f 136//136 126//126 127//127
f 136//136 127//127 135//135
f 135//135 127//127 128//128
f 135//135 128//128 134//134
f 134//134 128//128 129//129
f 134//134 129//129 133//133
f 133//133 129//129 130//130
f 133//133 130//130 132//132
f 132//132 130//130 131//131
f 146//146 147//147 149//149
f 149//149 147//147 148//148
f 150//150 151//151 153//153
f 153//153 151//151 152//152
f 155//155 165//165 154//154
f 154//154 165//165 166//166
f 154//154 166//166 198//198
f 198//198 166//166 169//169
f 198//198 169//169 170//170
f 165//165 155//155 164//164
f 164//164 155//155 156//156
f 164//164 156//156 163//163
f 163//163 156//156 157//157
f 163//163 157//157 162//162
f 162//162 157//157 158//158
f 162//162 158//158 161//161
f 161//161 158//158 159//159
f 161//161 159//159 160//160
f 167//167 168//168 166//166
f 166//166 168//168 169//169
f 198//198 170//170 197//197
f 197//197 170//170 171//171
f 197//197 171//171 196//196
f 196//196 171//171 172//172
f 196//196 172//172 195//195
f 195//195 172//172 173//173
f 195//195 173//173 194//194
f 194//194 173//173 193//193
f 193//193 173//173 174//174
f 193//193 174//174 192//192
f 192//192 174//174 175//175
f 192//192 175//175 191//191
f 191//191 175//175 176//176
f 191//191 176//176 190//190
f 190//190 176//176 177//177
f 190//190 177//177 189//189
f 189//189 177//177 178//178
f 189//189 178//178 188//188
f 188//188 178//178 179//179
f 188//188 179//179 187//187
f 187//187 179//179 186//186
f 186//186 179//179 180//180
f 186//186 180//180 185//185
f 185//185 180//180 181//181
f 185//185 181//181 182//182
f 183//183 184//184 182//182
f 182//182 184//184 185//185
f 198//198 199//199 154//154
f 154//154 199//199 200//200
f 201//201 202//202 204//204
f 204//204 202//202 203//203
f 205//205 206//206 208//208
f 208//208 206//206 207//207
f 209//209 210//210 212//212
f 212//212 210//210 211//211

# End of file