# WaveFront *.obj file
# Vertices: 48
# Triangles : 32

v 59.189998626708984 10.0 0.5
v 0.5 10.0 0.5
v 0.5 0.0 0.5
v 59.189998626708984 0.0 0.5
v 59.189998626708984 10.0 28.709999084472656
v 59.189998626708984 10.0 0.5
v 59.189998626708984 0.0 0.5
v 59.189998626708984 0.0 28.709999084472656
v 0.5 10.0 28.709999084472656
v 59.189998626708984 10.0 28.709999084472656
v 59.189998626708984 0.0 28.709999084472656
v 0.5 0.0 28.709999084472656
v 0.5 10.0 0.5
v 0.5 10.0 28.709999084472656
v 0.5 0.0 28.709999084472656
v 0.5 0.0 0.5
v 0.0 0.0 0.0
v 0.0 0.0 29.209999084472656
v 0.0 10.0 29.209999084472656
v 0.0 10.0 0.0
v 59.689998626708984 0.0 -2.6192647243666408e-31
v 0.0 0.0 0.0
v 0.0 10.0 0.0
v 59.689998626708984 10.0 0.0
v 59.689998626708984 0.0 29.209999084472656
v 59.689998626708984 0.0 -2.6192647243666408e-31
v 59.689998626708984 10.0 0.0
v 59.689998626708984 10.0 29.209999084472656
v 0.0 0.0 29.209999084472656
v 59.689998626708984 0.0 29.209999084472656
v 59.689998626708984 10.0 29.209999084472656
v 0.0 10.0 29.209999084472656
v 59.189998626708984 10.0 28.709999084472656
v 0.5 10.0 28.709999084472656
v 0.5 10.0 0.5
v 59.189998626708984 10.0 0.5
v 0.0 10.0 29.209999084472656
v 59.689998626708984 10.0 29.209999084472656
v 59.689998626708984 10.0 0.0
v 0.0 10.0 0.0
v 0.5 0.0 28.709999084472656
v 59.189998626708984 0.0 28.709999084472656
v 59.189998626708984 0.0 0.5
v 0.5 0.0 0.5
v 59.689998626708984 0.0 29.209999084472656
v 0.0 0.0 29.209999084472656
v 0.0 0.0 0.0
v 59.689998626708984 0.0 -2.6192647243666408e-31
vn -0.0 -0.0 1.0
vn -0.0 -0.0 1.0
vn -0.0 -0.0 1.0
vn -0.0 -0.0 1.0
vn -1.0 0.0 -0.0
vn -1.0 0.0 -0.0
vn -1.0 0.0 -0.0
vn -1.0 0.0 -0.0
vn -0.0 -0.0 -1.0
vn -0.0 -0.0 -1.0
vn -0.0 -0.0 -1.0
vn -0.0 -0.0 -1.0
vn 1.0 -0.0 -0.0
vn 1.0 -0.0 -0.0
vn 1.0 -0.0 -0.0
vn 1.0 -0.0 -0.0
vn -1.0 0.0 0.0
vn -1.0 0.0 0.0
vn -1.0 0.0 0.0
vn -1.0 0.0 0.0
vn -4.3881130647799066e-33 0.0 -1.0
vn -4.3881130647799066e-33 0.0 -1.0
vn -4.3881130647799066e-33 0.0 -1.0
vn -4.3881130647799066e-33 0.0 -1.0
vn 1.0 0.0 0.0
vn 1.0 0.0 0.0
vn 1.0 0.0 0.0
vn 1.0 0.0 0.0
vn 0.0 -0.0 1.0
vn 0.0 -0.0 1.0
vn 0.0 -0.0 1.0
vn 0.0 -0.0 1.0
vn 0.0 1.0 0.0
vn 0.0 1.0 0.0
vn 0.0 1.0 0.0
vn 0.0 1.0 0.0
vn 0.0 1.0 0.0
vn 0.0 1.0 0.0
vn 0.0 1.0 0.0
vn 0.0 1.0 0.0
vn -0.0 -1.0 -0.0
vn -0.0 -1.0 -0.0
vn -0.0 -1.0 -0.0
vn -0.0 -1.0 -0.0
vn -0.0 -1.0 -0.0
vn -0.0 -1.0 -0.0
vn -0.0 -1.0 -0.0
vn -0.0 -1.0 -0.0
g ba441b1c-e2d6-11ea-a000-54bf646e7e1f
f 1//1 2//2 4//4
f 4//4 2//2 3//3
g ba452ce6-e2d6-11ea-a1c6-54bf646e7e1f
f 5//5 6//6 8//8
f 8//8 6//6 7//7
g ba463eb8-e2d6-11ea-82ee-54bf646e7e1f
f 9//9 10//10 12//12
f 12//12 10//10 11//11
g ba472952-e2d6-11ea-9634-54bf646e7e1f
f 13//13 14//14 16//16
f 16//16 14//14 15//15
g b9eeb0f8-e2d6-11ea-9d5a-54bf646e7e1f
f 17//17 18//18 20//20
f 20//20 18//18 19//19
g b9ef7480-e2d6-11ea-a5b9-54bf646e7e1f
f 21//21 22//22 24//24
f 24//24 22//22 23//23
g b9f05f28-e2d6-11ea-92df-54bf646e7e1f
f 25//25 26//26 28//28
f 28//28 26//26 27//27
g b9f0fb9e-e2d6-11ea-90e5-54bf646e7e1f
f 29//29 30//30 32//32
f 32//32 30//30 31//31
g b9f1bf30-e2d6-11ea-b488-54bf646e7e1f
f 34//34 37//37 33//33
f 33//33 37//37 38//38
f 33//33 38//38 39//39
f 34//34 35//35 37//37
f 37//37 35//35 40//40
f 40//40 35//35 36//36
f 40//40 36//36 39//39
f 39//39 36//36 33//33
g b9f25bac-e2d6-11ea-b669-54bf646e7e1f
f 44//44 41//41 46//46
f 46//46 41//41 42//42
f 46//46 42//42 45//45
f 45//45 42//42 43//43
f 45//45 43//43 48//48
f 48//48 43//43 44//44
f 48//48 44//44 47//47
f 47//47 44//44 46//46

# End of file