# WaveFront *.obj file
# Vertices: 140
# Triangles : 124

v 0.42525923252105713 0.0 -34.70770263671875
v 0.0 0.0 -35.55999755859375
v 0.0 7.619999885559082 -35.55999755859375
v 0.42525923252105713 7.619999885559082 -34.70770263671875
v -11.429999351501465 0.0 -15.239999771118164
v -11.445245742797852 0.0 -16.96894645690918
v -11.312776565551758 0.0 -18.6928768157959
v -11.03355884552002 0.0 -20.39919662475586
v -10.609634399414062 0.0 -22.075435638427734
v -10.044099807739258 0.0 -23.7093448638916
v -9.34108829498291 0.0 -25.288984298706055
v -8.505736351013184 0.0 -26.802812576293945
v -7.5441484451293945 0.0 -28.23976707458496
v -6.463351249694824 0.0 -29.589345932006836
v -5.271242618560791 0.0 -30.841690063476562
v -3.9765334129333496 0.0 -31.987646102905273
v -2.5886847972869873 0.0 -33.01884078979492
v -1.117837905883789 0.0 -33.92774200439453
v 0.42525923252105713 0.0 -34.70770263671875
v 0.42525923252105713 7.619999885559082 -34.70770263671875
v -1.117837905883789 7.619999885559082 -33.92774200439453
v -2.5886847972869873 7.619999885559082 -33.01884078979492
v -3.9765334129333496 7.619999885559082 -31.987646102905273
v -5.271242618560791 7.619999885559082 -30.841690063476562
v -6.463351249694824 7.619999885559082 -29.589345932006836
v -7.5441484451293945 7.619999885559082 -28.23976707458496
v -8.505736351013184 7.619999885559082 -26.802812576293945
v -9.34108829498291 7.619999885559082 -25.288984298706055
v -10.044099807739258 7.619999885559082 -23.7093448638916
v -10.609634399414062 7.619999885559082 -22.075435638427734
v -11.03355884552002 7.619999885559082 -20.39919662475586
v -11.312776565551758 7.619999885559082 -18.6928768157959
v -11.445245742797852 7.619999885559082 -16.96894645690918
v -11.429999351501465 7.619999885559082 -15.239999771118164
v -11.429999351501465 0.0 0.0
v -11.429999351501465 0.0 -15.239999771118164
v -11.429999351501465 7.619999885559082 -15.239999771118164
v -11.429999351501465 7.619999885559082 0.0
v -12.699999809265137 0.0 0.0
v -11.429999351501465 0.0 0.0
v -11.429999351501465 7.619999885559082 0.0
v -12.699999809265137 7.619999885559082 0.0
v -12.699999809265137 0.0 -15.239999771118164
v -12.699999809265137 0.0 0.0
v -12.699999809265137 7.619999885559082 0.0
v -12.699999809265137 7.619999885559082 -15.239999771118164
v 0.0 0.0 -35.55999755859375
v -1.588289499282837 0.0 -34.7056770324707
v -3.103421926498413 0.0 -33.72745895385742
v -4.5357537269592285 0.0 -32.63157653808594
v -5.876169204711914 0.0 -31.425004959106445
v -7.11613655090332 0.0 -30.115419387817383
v -8.247764587402344 0.0 -28.711156845092773
v -9.263849258422852 0.0 -27.221155166625977
v -10.157925605773926 0.0 -25.65489959716797
v -10.924302101135254 0.0 -24.022354125976562
v -11.558100700378418 0.0 -22.333913803100586
v -12.05528736114502 0.0 -20.600322723388672
v -12.412699699401855 0.0 -18.83261489868164
v -12.628060340881348 0.0 -17.042041778564453
v -12.699999809265137 0.0 -15.239999771118164
v -12.699999809265137 7.619999885559082 -15.239999771118164
v -12.628060340881348 7.619999885559082 -17.042041778564453
v -12.412699699401855 7.619999885559082 -18.83261489868164
v -12.05528736114502 7.619999885559082 -20.600322723388672
v -11.558100700378418 7.619999885559082 -22.333913803100586
v -10.924302101135254 7.619999885559082 -24.022354125976562
v -10.157925605773926 7.619999885559082 -25.65489959716797
v -9.263849258422852 7.619999885559082 -27.221155166625977
v -8.247764587402344 7.619999885559082 -28.711156845092773
v -7.11613655090332 7.619999885559082 -30.115419387817383
v -5.876169204711914 7.619999885559082 -31.425004959106445
v -4.5357537269592285 7.619999885559082 -32.63157653808594
v -3.103421926498413 7.619999885559082 -33.72745895385742
v -1.588289499282837 7.619999885559082 -34.7056770324707
v 0.0 7.619999885559082 -35.55999755859375
v 0.0 7.619999885559082 -35.55999755859375
v -1.588289499282837 7.619999885559082 -34.7056770324707
v -3.103421926498413 7.619999885559082 -33.72745895385742
v -4.5357537269592285 7.619999885559082 -32.63157653808594
v -5.876169204711914 7.619999885559082 -31.425004959106445
v -7.11613655090332 7.619999885559082 -30.115419387817383
v -8.247764587402344 7.619999885559082 -28.711156845092773
v -9.263849258422852 7.619999885559082 -27.221155166625977
v -10.157925605773926 7.619999885559082 -25.65489959716797
v -10.924302101135254 7.619999885559082 -24.022354125976562
v -11.558100700378418 7.619999885559082 -22.333913803100586
v -12.05528736114502 7.619999885559082 -20.600322723388672
v -12.412699699401855 7.619999885559082 -18.83261489868164
v -12.628060340881348 7.619999885559082 -17.042041778564453
v -12.699999809265137 7.619999885559082 -15.239999771118164
v -12.699999809265137 7.619999885559082 0.0
v -11.429999351501465 7.619999885559082 0.0
v -11.429999351501465 7.619999885559082 -15.239999771118164
v -11.445245742797852 7.619999885559082 -16.96894645690918
v -11.312776565551758 7.619999885559082 -18.6928768157959
v -11.03355884552002 7.619999885559082 -20.39919662475586
v -10.609634399414062 7.619999885559082 -22.075435638427734
v -10.044099807739258 7.619999885559082 -23.7093448638916
v -9.34108829498291 7.619999885559082 -25.288984298706055
v -8.505736351013184 7.619999885559082 -26.802812576293945
v -7.5441484451293945 7.619999885559082 -28.23976707458496
v -6.463351249694824 7.619999885559082 -29.589345932006836
v -5.271242618560791 7.619999885559082 -30.841690063476562
v -3.9765334129333496 7.619999885559082 -31.987646102905273
v -2.5886847972869873 7.619999885559082 -33.01884078979492
v -1.117837905883789 7.619999885559082 -33.92774200439453
v 0.42525923252105713 7.619999885559082 -34.70770263671875
v -12.699999809265137 0.0 -15.239999771118164
v -12.628060340881348 0.0 -17.042041778564453
v -12.412699699401855 0.0 -18.83261489868164
v -12.05528736114502 0.0 -20.600322723388672
v -11.558100700378418 0.0 -22.333913803100586
v -10.924302101135254 0.0 -24.022354125976562
v -10.157925605773926 0.0 -25.65489959716797
v -9.263849258422852 0.0 -27.221155166625977
v -8.247764587402344 0.0 -28.711156845092773
v -7.11613655090332 0.0 -30.115419387817383
v -5.876169204711914 0.0 -31.425004959106445
v -4.5357537269592285 0.0 -32.63157653808594
v -3.103421926498413 0.0 -33.72745895385742
v -1.588289499282837 0.0 -34.7056770324707
v 0.0 0.0 -35.55999755859375
v 0.42525923252105713 0.0 -34.70770263671875
v -1.117837905883789 0.0 -33.92774200439453
v -2.5886847972869873 0.0 -33.01884078979492
v -3.9765334129333496 0.0 -31.987646102905273
v -5.271242618560791 0.0 -30.841690063476562
v -6.463351249694824 0.0 -29.589345932006836
v -7.5441484451293945 0.0 -28.23976707458496
v -8.505736351013184 0.0 -26.802812576293945
v -9.34108829498291 0.0 -25.288984298706055
v -10.044099807739258 0.0 -23.7093448638916
v -10.609634399414062 0.0 -22.075435638427734
v -11.03355884552002 0.0 -20.39919662475586
v -11.312776565551758 0.0 -18.6928768157959
v -11.445245742797852 0.0 -16.96894645690918
v -11.429999351501465 0.0 -15.239999771118164
v -11.429999351501465 0.0 0.0
v -12.699999809265137 0.0 0.0
vn 0.8948004245758057 0.0 -0.4464663863182068
vn 0.8948004245758057 0.0 -0.4464663863182068
vn 0.8948004245758057 0.0 -0.4464663863182068
vn 0.8948004245758057 0.0 -0.4464663863182068
vn 0.9986704587936401 0.0 -0.05154956132173538
vn 0.9994242191314697 -0.0 0.03392990678548813
vn 0.9928749203681946 -0.0 0.11916143447160721
vn 0.9790703058242798 -0.0 0.2035222202539444
vn 0.9581114053726196 -0.0 0.286395788192749
vn 0.9301512241363525 -0.0 0.3671765923500061
vn 0.8953942060470581 -0.0 0.44527432322502136
vn 0.8540942072868347 -0.0 0.5201182961463928
vn 0.8065531253814697 -0.0 0.5911616086959839
vn 0.7531182765960693 -0.0 0.6578851342201233
vn 0.6941801905632019 -0.0 0.7198012471199036
vn 0.6301695108413696 -0.0 0.7764576077461243
vn 0.561553955078125 -0.0 0.827440083026886
vn 0.48883500695228577 -0.0 0.8723762631416321
vn 0.4125439524650574 -0.0 0.9109376668930054
vn 0.4125439524650574 -0.0 0.9109376668930054
vn 0.48883500695228577 -0.0 0.8723762631416321
vn 0.561553955078125 -0.0 0.827440083026886
vn 0.6301695108413696 -0.0 0.7764576077461243
vn 0.6941801905632019 -0.0 0.7198012471199036
vn 0.7531182765960693 -0.0 0.6578851342201233
vn 0.8065531253814697 -0.0 0.5911616086959839
vn 0.8540942072868347 -0.0 0.5201182961463928
vn 0.8953942060470581 -0.0 0.44527432322502136
vn 0.9301512241363525 -0.0 0.3671765923500061
vn 0.9581114053726196 -0.0 0.286395788192749
vn 0.9790703058242798 -0.0 0.2035222202539444
vn 0.9928749203681946 -0.0 0.11916143447160721
vn 0.9994242191314697 -0.0 0.03392990678548813
vn 0.9986704587936401 0.0 -0.05154956132173538
vn 1.0 -0.0 0.0
vn 1.0 -0.0 0.0
vn 1.0 -0.0 0.0
vn 1.0 -0.0 0.0
vn 0.0 0.0 1.0
vn 0.0 0.0 1.0
vn 0.0 0.0 1.0
vn 0.0 0.0 1.0
vn -1.0 0.0 0.0
vn -1.0 0.0 0.0
vn -1.0 0.0 0.0
vn -1.0 0.0 0.0
vn -0.43820223212242126 0.0 -0.898876428604126
vn -0.5084618926048279 0.0 -0.861084520816803
vn -0.575485348701477 0.0 -0.8178120851516724
vn -0.6388460397720337 0.0 -0.769334614276886
vn -0.6981407403945923 0.0 -0.7159605622291565
vn -0.7529919743537903 0.0 -0.6580296754837036
vn -0.803050696849823 0.0 -0.5959107279777527
vn -0.847998321056366 0.0 -0.5299989581108093
vn -0.8875486850738525 0.0 -0.4607139229774475
vn -0.921450138092041 0.0 -0.38849663734436035
vn -0.9494869112968445 0.0 -0.3138067126274109
vn -0.9714804887771606 0.0 -0.23711949586868286
vn -0.9872909784317017 0.0 -0.15892310440540314
vn -0.9968176484107971 0.0 -0.07971523702144623
vn -1.0 0.0 -5.500530315515756e-16
vn -1.0 0.0 -5.500530315515756e-16
vn -0.9968176484107971 0.0 -0.07971523702144623
vn -0.9872909784317017 0.0 -0.15892310440540314
vn -0.9714804887771606 0.0 -0.23711949586868286
vn -0.9494869112968445 0.0 -0.3138067126274109
vn -0.921450138092041 0.0 -0.38849663734436035
vn -0.8875486850738525 0.0 -0.4607139229774475
vn -0.847998321056366 0.0 -0.5299989581108093
vn -0.803050696849823 0.0 -0.5959107279777527
vn -0.7529919743537903 0.0 -0.6580296754837036
vn -0.6981407403945923 0.0 -0.7159605622291565
vn -0.6388460397720337 0.0 -0.769334614276886
vn -0.575485348701477 0.0 -0.8178120851516724
vn -0.5084618926048279 0.0 -0.861084520816803
vn -0.43820223212242126 0.0 -0.898876428604126
vn 0.0 1.0 0.0
vn 0.0 1.0 0.0
vn 0.0 1.0 0.0
vn 0.0 1.0 0.0
vn 0.0 1.0 0.0
vn 0.0 1.0 0.0
vn 0.0 1.0 0.0
vn 0.0 1.0 0.0
vn 0.0 1.0 0.0
vn 0.0 1.0 0.0
vn 0.0 1.0 0.0
vn 0.0 1.0 0.0
vn 0.0 1.0 0.0
vn 0.0 1.0 0.0
vn 0.0 1.0 0.0
vn 0.0 1.0 0.0
vn 0.0 1.0 0.0
vn 0.0 1.0 0.0
vn 0.0 1.0 0.0
vn 0.0 1.0 0.0
vn 0.0 1.0 0.0
vn 0.0 1.0 0.0
vn 0.0 1.0 0.0
vn 0.0 1.0 0.0
vn 0.0 1.0 0.0
vn 0.0 1.0 0.0
vn 0.0 1.0 0.0
vn 0.0 1.0 0.0
vn 0.0 1.0 0.0
vn 0.0 1.0 0.0
vn 0.0 1.0 0.0
vn 0.0 1.0 0.0
vn -0.0 -1.0 -0.0
vn -0.0 -1.0 -0.0
vn -0.0 -1.0 -0.0
vn -0.0 -1.0 -0.0
vn -0.0 -1.0 -0.0
vn -0.0 -1.0 -0.0
vn -0.0 -1.0 -0.0
vn -0.0 -1.0 -0.0
vn -0.0 -1.0 -0.0
vn -0.0 -1.0 -0.0
vn -0.0 -1.0 -0.0
vn -0.0 -1.0 -0.0
vn -0.0 -1.0 -0.0
vn -0.0 -1.0 -0.0
vn -0.0 -1.0 -0.0
vn -0.0 -1.0 -0.0
vn -0.0 -1.0 -0.0
vn -0.0 -1.0 -0.0
vn -0.0 -1.0 -0.0
vn -0.0 -1.0 -0.0
vn -0.0 -1.0 -0.0
vn -0.0 -1.0 -0.0
vn -0.0 -1.0 -0.0
vn -0.0 -1.0 -0.0
vn -0.0 -1.0 -0.0
vn -0.0 -1.0 -0.0
vn -0.0 -1.0 -0.0
vn -0.0 -1.0 -0.0
vn -0.0 -1.0 -0.0
vn -0.0 -1.0 -0.0
vn -0.0 -1.0 -0.0
vn -0.0 -1.0 -0.0
g b3453af4-e2f4-11ea-a2b6-54bf646e7e1f
f 1//1 2//2 4//4
f 4//4 2//2 3//3
g b3493286-e2f4-11ea-b88b-54bf646e7e1f
f 34//34 5//5 33//33
f 33//33 5//5 6//6
f 33//33 6//6 32//32
f 32//32 6//6 7//7
f 32//32 7//7 31//31
f 31//31 7//7 8//8
f 31//31 8//8 30//30
f 30//30 8//8 9//9
f 30//30 9//9 29//29
f 29//29 9//9 10//10
f 29//29 10//10 28//28
f 28//28 10//10 11//11
f 28//28 11//11 27//27
f 27//27 11//11 12//12
f 27//27 12//12 26//26
f 26//26 12//12 13//13
f 26//26 13//13 25//25
f 25//25 13//13 14//14
f 25//25 14//14 24//24
f 24//24 14//14 15//15
f 24//24 15//15 23//23
f 23//23 15//15 16//16
f 23//23 16//16 22//22
f 22//22 16//16 17//17
f 22//22 17//17 21//21
f 21//21 17//17 18//18
f 21//21 18//18 20//20
f 20//20 18//18 19//19
g b35cba5e-e2f4-11ea-a932-54bf646e7e1f
f 35//35 36//36 38//38
f 38//38 36//36 37//37
g b3614e3a-e2f4-11ea-b287-54bf646e7e1f
f 39//39 40//40 42//42
f 42//42 40//40 41//41
g b365e21e-e2f4-11ea-ab31-54bf646e7e1f
f 43//43 44//44 46//46
f 46//46 44//44 45//45
g b36bae70-e2f4-11ea-a655-54bf646e7e1f
f 76//76 47//47 75//75
f 75//75 47//47 48//48
f 75//75 48//48 74//74
f 74//74 48//48 49//49
f 74//74 49//49 73//73
f 73//73 49//49 50//50
f 73//73 50//50 72//72
f 72//72 50//50 51//51
f 72//72 51//51 71//71
f 71//71 51//51 52//52
f 71//71 52//52 70//70
f 70//70 52//52 53//53
f 70//70 53//53 69//69
f 69//69 53//53 54//54
f 69//69 54//54 68//68
f 68//68 54//54 55//55
f 68//68 55//55 67//67
f 67//67 55//55 56//56
f 67//67 56//56 66//66
f 66//66 56//56 57//57
f 66//66 57//57 65//65
f 65//65 57//57 58//58
f 65//65 58//58 64//64
f 64//64 58//58 59//59
f 64//64 59//59 63//63
f 63//63 59//59 60//60
f 63//63 60//60 62//62
f 62//62 60//60 61//61
g b3706950-e2f4-11ea-a968-54bf646e7e1f
f 108//108 77//77 107//107
f 107//107 77//77 78//78
f 107//107 78//78 106//106
f 106//106 78//78 79//79
f 106//106 79//79 105//105
f 105//105 79//79 80//80
f 105//105 80//80 104//104
f 104//104 80//80 81//81
f 104//104 81//81 103//103
f 103//103 81//81 82//82
f 103//103 82//82 102//102
f 102//102 82//82 83//83
f 102//102 83//83 101//101
f 101//101 83//83 84//84
f 101//101 84//84 100//100
f 100//100 84//84 85//85
f 100//100 85//85 99//99
f 99//99 85//85 86//86
f 99//99 86//86 98//98
f 98//98 86//86 87//87
f 98//98 87//87 97//97
f 97//97 87//87 88//88
f 97//97 88//88 96//96
f 96//96 88//88 89//89
f 96//96 89//89 95//95
f 95//95 89//89 90//90
f 95//95 90//90 94//94
f 94//94 90//90 91//91
f 94//94 91//91 92//92
f 92//92 93//93 94//94
g b374fd5c-e2f4-11ea-a628-54bf646e7e1f
f 140//140 109//109 138//138
f 138//138 109//109 110//110
f 138//138 110//110 137//137
f 137//137 110//110 111//111
f 137//137 111//111 136//136
f 136//136 111//111 112//112
f 136//136 112//112 135//135
f 135//135 112//112 113//113
f 135//135 113//113 134//134
f 134//134 113//113 114//114
f 134//134 114//114 133//133
f 133//133 114//114 115//115
f 133//133 115//115 132//132
f 132//132 115//115 116//116
f 132//132 116//116 131//131
f 131//131 116//116 117//117
f 131//131 117//117 130//130
f 130//130 117//117 118//118
f 130//130 118//118 129//129
f 129//129 118//118 119//119
f 129//129 119//119 128//128
f 128//128 119//119 120//120
f 128//128 120//120 127//127
f 127//127 120//120 121//121
f 127//127 121//121 126//126
f 126//126 121//121 122//122
f 126//126 122//122 125//125
f 125//125 122//122 123//123
f 125//125 123//123 124//124
f 138//138 139//139 140//140

# End of file