# WaveFront *.obj file
# Vertices: 24
# Triangles : 12

v 8.127638816833496 -0.38100001215934753 18.518686294555664
v 6.9592390060424805 -0.38100001215934753 18.518686294555664
v 6.9592390060424805 -0.38100001215934753 7.088685512542725
v 8.127638816833496 -0.38100001215934753 7.088685512542725
v 6.9592390060424805 -0.38100001215934753 18.518686294555664
v 6.9592390060424805 0.38100001215934753 18.518686294555664
v 6.9592390060424805 0.38100001215934753 7.088685512542725
v 6.9592390060424805 -0.38100001215934753 7.088685512542725
v 6.9592390060424805 -0.38100001215934753 7.088685512542725
v 6.9592390060424805 0.38100001215934753 7.088685512542725
v 8.127638816833496 0.38100001215934753 7.088685512542725
v 8.127638816833496 -0.38100001215934753 7.088685512542725
v 8.127638816833496 -0.38100001215934753 7.088685512542725
v 8.127638816833496 0.38100001215934753 7.088685512542725
v 8.127638816833496 0.38100001215934753 18.518686294555664
v 8.127638816833496 -0.38100001215934753 18.518686294555664
v 8.127638816833496 -0.38100001215934753 18.518686294555664
v 8.127638816833496 0.38100001215934753 18.518686294555664
v 6.9592390060424805 0.38100001215934753 18.518686294555664
v 6.9592390060424805 -0.38100001215934753 18.518686294555664
v 6.9592390060424805 0.38100001215934753 18.518686294555664
v 8.127638816833496 0.38100001215934753 18.518686294555664
v 8.127638816833496 0.38100001215934753 7.088685512542725
v 6.9592390060424805 0.38100001215934753 7.088685512542725
vn 0.0 -1.0 0.0
vn 0.0 -1.0 0.0
vn 0.0 -1.0 0.0
vn 0.0 -1.0 0.0
vn -1.0 0.0 0.0
vn -1.0 0.0 0.0
vn -1.0 0.0 0.0
vn -1.0 0.0 0.0
vn 0.0 0.0 -1.0
vn 0.0 0.0 -1.0
vn 0.0 0.0 -1.0
vn 0.0 0.0 -1.0
vn 1.0 -0.0 0.0
vn 1.0 -0.0 0.0
vn 1.0 -0.0 0.0
vn 1.0 -0.0 0.0
vn 0.0 -0.0 1.0
vn 0.0 -0.0 1.0
vn 0.0 -0.0 1.0
vn 0.0 -0.0 1.0
vn 0.0 1.0 0.0
vn 0.0 1.0 0.0
vn 0.0 1.0 0.0
vn 0.0 1.0 0.0
g b97d7e40-e345-11ea-9bdd-54bf646e7e1f
f 2//2 3//3 1//1
f 1//1 3//3 4//4
g b97e4198-e345-11ea-9c77-54bf646e7e1f
f 6//6 7//7 5//5
f 5//5 7//7 8//8
g b97eddd0-e345-11ea-b30d-54bf646e7e1f
f 10//10 11//11 9//9
f 9//9 11//11 12//12
g b97f52fa-e345-11ea-812c-54bf646e7e1f
f 14//14 15//15 13//13
f 13//13 15//15 16//16
g b97fef40-e345-11ea-a203-54bf646e7e1f
f 18//18 19//19 17//17
f 17//17 19//19 20//20
g b980647a-e345-11ea-ade7-54bf646e7e1f
f 22//22 23//23 21//21
f 21//21 23//23 24//24

# End of file