# WaveFront *.obj file
# Vertices: 96
# Triangles : 60

v -15.239999771118164 -10.15999984741211 48.5901985168457
v -15.239999771118164 -10.15999984741211 46.68519973754883
v -33.02000045776367 -10.15999984741211 46.68519973754883
v -33.02000045776367 -10.15999984741211 48.5901985168457
v -33.02000045776367 -10.15999984741211 46.68519973754883
v -33.02000045776367 -22.860000610351562 46.68519973754883
v -33.02000045776367 -22.860000610351562 48.5901985168457
v -33.02000045776367 -10.15999984741211 48.5901985168457
v -15.239999771118164 -10.076926231384277 -8.255000114440918
v -15.239999771118164 -10.076926231384277 -10.15999984741211
v -33.02000045776367 -10.076926231384277 -10.15999984741211
v -33.02000045776367 -10.076926231384277 -8.255000114440918
v -33.02000045776367 -10.076926231384277 -10.15999984741211
v -33.02000045776367 -22.860000610351562 -10.15999984741211
v -33.02000045776367 -22.860000610351562 -8.255000114440918
v -33.02000045776367 -10.076926231384277 -8.255000114440918
v 0.0 0.0 -8.255000114440918
v -15.239999771118164 0.0 -8.255000114440918
v -15.239999771118164 -10.076926231384277 -8.255000114440918
v -33.02000045776367 -10.076926231384277 -8.255000114440918
v -33.02000045776367 -22.860000610351562 -8.255000114440918
v 0.0 -22.860000610351562 -8.255000114440918
v -33.02000045776367 -22.860000610351562 -10.15999984741211
v 0.0 -22.860000610351562 -10.15999984741211
v 0.0 -22.860000610351562 -8.255000114440918
v -33.02000045776367 -22.860000610351562 -8.255000114440918
v -15.239999771118164 0.0 46.68519973754883
v 0.0 0.0 46.68519973754883
v 0.0 -22.860000610351562 46.68519973754883
v -33.02000045776367 -22.860000610351562 46.68519973754883
v -33.02000045776367 -10.15999984741211 46.68519973754883
v -15.239999771118164 -10.15999984741211 46.68519973754883
v -33.02000045776367 -22.860000610351562 46.68519973754883
v 0.0 -22.860000610351562 46.68519973754883
v 0.0 -22.860000610351562 48.5901985168457
v -33.02000045776367 -22.860000610351562 48.5901985168457
v -15.239999771118164 0.0 -8.255000114440918
v 0.0 0.0 -8.255000114440918
v 0.0 0.0 46.68519973754883
v -15.239999771118164 0.0 46.68519973754883
v -15.239999771118164 0.0 38.430198669433594
v -27.254199981689453 0.0 38.430198669433594
v -27.254199981689453 0.0 -7.395570986446986e-32
v -15.239999771118164 0.0 -4.135454366129278e-32
v -15.239999771118164 -10.15999984741211 46.68519973754883
v -15.239999771118164 -10.15999984741211 48.5901985168457
v -15.239999771118164 1.9049999713897705 48.5901985168457
v -15.239999771118164 1.9049999713897705 38.430198669433594
v -15.239999771118164 0.0 38.430198669433594
v -15.239999771118164 0.0 46.68519973754883
v 0.0 -22.860000610351562 48.5901985168457
v 1.7256332301709633e-31 1.9049999713897705 48.5901985168457
v -15.239999771118164 1.9049999713897705 48.5901985168457
v -15.239999771118164 -10.15999984741211 48.5901985168457
v -33.02000045776367 -10.15999984741211 48.5901985168457
v -33.02000045776367 -22.860000610351562 48.5901985168457
v -15.239999771118164 -10.076926231384277 -10.15999984741211
v -15.239999771118164 -10.076926231384277 -8.255000114440918
v -15.239999771118164 0.0 -8.255000114440918
v -15.239999771118164 0.0 -4.135454366129278e-32
v -15.239999771118164 1.9049999713897705 -4.135454366129278e-32
v -15.239999771118164 1.9049999713897705 -10.15999984741211
v -15.239999771118164 -10.076926231384277 -10.15999984741211
v -15.239999771118164 1.9049999713897705 -10.15999984741211
v 0.0 1.9049999713897705 -10.15999984741211
v 0.0 -22.860000610351562 -10.15999984741211
v -33.02000045776367 -22.860000610351562 -10.15999984741211
v -33.02000045776367 -10.076926231384277 -10.15999984741211
v -15.239999771118164 1.9049999713897705 -4.135454366129278e-32
v -15.239999771118164 0.0 -4.135454366129278e-32
v -27.254199981689453 0.0 -7.395570986446986e-32
v -27.254199981689453 1.9049999713897705 0.0
v -15.239999771118164 0.0 38.430198669433594
v -15.239999771118164 1.9049999713897705 38.430198669433594
v -27.254199981689453 1.9049999713897705 38.430198669433594
v -27.254199981689453 0.0 38.430198669433594
v -27.254199981689453 0.0 -7.395570986446986e-32
v -27.254199981689453 0.0 38.430198669433594
v -27.254199981689453 1.9049999713897705 38.430198669433594
v -27.254199981689453 1.9049999713897705 0.0
v 0.0 0.0 46.68519973754883
v 0.0 0.0 -8.255000114440918
v 0.0 -22.860000610351562 -8.255000114440918
v 0.0 -22.860000610351562 -10.15999984741211
v 0.0 1.9049999713897705 -10.15999984741211
v 1.7256332301709633e-31 1.9049999713897705 48.5901985168457
v 0.0 -22.860000610351562 48.5901985168457
v 0.0 -22.860000610351562 46.68519973754883
v 1.7256332301709633e-31 1.9049999713897705 48.5901985168457
v 0.0 1.9049999713897705 -10.15999984741211
v -15.239999771118164 1.9049999713897705 -10.15999984741211
v -15.239999771118164 1.9049999713897705 -4.135454366129278e-32
v -27.254199981689453 1.9049999713897705 0.0
v -27.254199981689453 1.9049999713897705 38.430198669433594
v -15.239999771118164 1.9049999713897705 38.430198669433594
v -15.239999771118164 1.9049999713897705 48.5901985168457
vn 0.0 1.0 0.0
vn 0.0 1.0 0.0
vn 0.0 1.0 0.0
vn 0.0 1.0 0.0
vn -1.0 0.0 0.0
vn -1.0 0.0 0.0
vn -1.0 0.0 0.0
vn -1.0 0.0 0.0
vn 0.0 1.0 0.0
vn 0.0 1.0 0.0
vn 0.0 1.0 0.0
vn 0.0 1.0 0.0
vn -1.0 0.0 0.0
vn -1.0 0.0 0.0
vn -1.0 0.0 0.0
vn -1.0 0.0 0.0
vn 0.0 0.0 1.0
vn 0.0 0.0 1.0
vn 0.0 0.0 1.0
vn 0.0 0.0 1.0
vn 0.0 0.0 1.0
vn 0.0 0.0 1.0
vn 0.0 -1.0 0.0
vn 0.0 -1.0 0.0
vn 0.0 -1.0 0.0
vn 0.0 -1.0 0.0
vn -0.0 -0.0 -1.0
vn -0.0 -0.0 -1.0
vn -0.0 -0.0 -1.0
vn -0.0 -0.0 -1.0
vn -0.0 -0.0 -1.0
vn -0.0 -0.0 -1.0
vn 0.0 -1.0 0.0
vn 0.0 -1.0 0.0
vn 0.0 -1.0 0.0
vn 0.0 -1.0 0.0
vn -0.0 -1.0 -0.0
vn -0.0 -1.0 -0.0
vn -0.0 -1.0 -0.0
vn -0.0 -1.0 -0.0
vn -0.0 -1.0 -0.0
vn -0.0 -1.0 -0.0
vn -0.0 -1.0 -0.0
vn -0.0 -1.0 -0.0
vn -1.0 0.0 0.0
vn -1.0 0.0 0.0
vn -1.0 0.0 0.0
vn -1.0 0.0 0.0
vn -1.0 0.0 0.0
vn -1.0 0.0 0.0
vn 0.0 0.0 1.0
vn 0.0 0.0 1.0
vn 0.0 0.0 1.0
vn 0.0 0.0 1.0
vn 0.0 0.0 1.0
vn 0.0 0.0 1.0
vn -1.0 0.0 -0.0
vn -1.0 0.0 -0.0
vn -1.0 0.0 -0.0
vn -1.0 0.0 -0.0
vn -1.0 0.0 -0.0
vn -1.0 0.0 -0.0
vn 0.0 0.0 -1.0
vn 0.0 0.0 -1.0
vn 0.0 0.0 -1.0
vn 0.0 0.0 -1.0
vn 0.0 0.0 -1.0
vn 0.0 0.0 -1.0
vn 2.7135528527534242e-33 0.0 -1.0
vn 2.7135528527534242e-33 0.0 -1.0
vn 2.7135528527534242e-33 0.0 -1.0
vn 2.7135528527534242e-33 0.0 -1.0
vn 0.0 0.0 1.0
vn 0.0 0.0 1.0
vn 0.0 0.0 1.0
vn 0.0 0.0 1.0
vn -1.0 0.0 0.0
vn -1.0 0.0 0.0
vn -1.0 0.0 0.0
vn -1.0 0.0 0.0
vn 1.0 0.0 -4.490305033510627e-33
vn 1.0 0.0 -4.490305033510627e-33
vn 1.0 0.0 -4.490305033510627e-33
vn 1.0 0.0 -4.490305033510627e-33
vn 1.0 0.0 -4.490305033510627e-33
vn 1.0 0.0 -4.490305033510627e-33
vn 1.0 0.0 -4.490305033510627e-33
vn 1.0 0.0 -4.490305033510627e-33
vn 0.0 1.0 0.0
vn 0.0 1.0 0.0
vn 0.0 1.0 0.0
vn 0.0 1.0 0.0
vn 0.0 1.0 0.0
vn 0.0 1.0 0.0
vn 0.0 1.0 0.0
vn 0.0 1.0 0.0
g 02295f36-e2f6-11ea-9db3-54bf646e7e1f
f 1//1 2//2 4//4
f 4//4 2//2 3//3
g 022b5b08-e2f6-11ea-b23e-54bf646e7e1f
f 6//6 7//7 5//5
f 5//5 7//7 8//8
g 01cdab12-e2f6-11ea-85ed-54bf646e7e1f
f 9//9 10//10 12//12
f 12//12 10//10 11//11
g 01cf7fe2-e2f6-11ea-a440-54bf646e7e1f
f 14//14 15//15 13//13
f 13//13 15//15 16//16
g 0185cd0c-e2f6-11ea-96ee-54bf646e7e1f
f 18//18 19//19 17//17
f 17//17 19//19 22//22
f 22//22 19//19 21//21
f 21//21 19//19 20//20
g 01877aca-e2f6-11ea-9a70-54bf646e7e1f
f 24//24 25//25 23//23
f 23//23 25//25 26//26
g 011f6ab8-e2f6-11ea-9e09-54bf646e7e1f
f 27//27 28//28 32//32
f 32//32 28//28 29//29
f 32//32 29//29 30//30
f 30//30 31//31 32//32
g 01207c18-e2f6-11ea-a104-54bf646e7e1f
f 34//34 35//35 33//33
f 33//33 35//35 36//36
g 00812fa8-e2f6-11ea-949c-54bf646e7e1f
f 37//37 38//38 44//44
f 44//44 38//38 39//39
f 44//44 39//39 41//41
f 41//41 39//39 40//40
f 41//41 42//42 44//44
f 44//44 42//42 43//43
g 00eb1480-e2f6-11ea-8c29-54bf646e7e1f
f 45//45 46//46 50//50
f 50//50 46//46 47//47
f 50//50 47//47 48//48
f 48//48 49//49 50//50
g 00ec25ee-e2f6-11ea-8671-54bf646e7e1f
f 56//56 51//51 54//54
f 54//54 51//51 52//52
f 54//54 52//52 53//53
f 54//54 55//55 56//56
g 00bc3c6e-e2f6-11ea-b87c-54bf646e7e1f
f 58//58 59//59 57//57
f 57//57 59//59 62//62
f 62//62 59//59 61//61
f 61//61 59//59 60//60
g 00bd26d0-e2f6-11ea-8660-54bf646e7e1f
f 64//64 65//65 63//63
f 63//63 65//65 66//66
f 63//63 66//66 67//67
f 67//67 68//68 63//63
g 007fa8f0-e2f6-11ea-a82a-54bf646e7e1f
f 70//70 71//71 69//69
f 69//69 71//71 72//72
g 007ebe92-e2f6-11ea-861b-54bf646e7e1f
f 74//74 75//75 73//73
f 73//73 75//75 76//76
g 007f33c6-e2f6-11ea-ab9f-54bf646e7e1f
f 77//77 78//78 80//80
f 80//80 78//78 79//79
g 00801e22-e2f6-11ea-ada8-54bf646e7e1f
f 82//82 86//86 81//81
f 81//81 86//86 87//87
f 81//81 87//87 88//88
f 83//83 84//84 82//82
f 82//82 84//84 85//85
f 82//82 85//85 86//86
g 0080ba62-e2f6-11ea-b5bc-54bf646e7e1f
f 96//96 89//89 95//95
f 95//95 89//89 90//90
f 95//95 90//90 92//92
f 92//92 90//90 91//91
f 93//93 94//94 92//92
f 92//92 94//94 95//95

# End of file