# WaveFront *.obj file
# Vertices: 214
# Triangles : 190

v 0.0 2.5 -75.0
v 0.06261683255434036 2.5 -75.00660705566406
v 0.12247540056705475 2.5 -75.02613830566406
v 0.17693893611431122 2.5 -75.05773162841797
v 0.22360830008983612 2.5 -75.0999984741211
v 0.2435486614704132 2.4942753314971924 -75.12483215332031
v 0.26074472069740295 2.48809552192688 -75.1516342163086
v 0.27500274777412415 2.48153018951416 -75.18010711669922
v 0.2879815995693207 2.475278854370117 -75.21611022949219
v 0.296213299036026 2.467988967895508 -75.25296783447266
v 0.2988854646682739 2.45098614692688 -75.32542419433594
v 0.28367742896080017 2.430393934249878 -75.39753723144531
v 0.2510433495044708 2.4079978466033936 -75.46411895751953
v 0.20473964512348175 2.3869001865386963 -75.51927185058594
v 0.14514070749282837 2.368656635284424 -75.5625
v 0.11077556759119034 2.361384153366089 -75.57879638671875
v 0.07439753413200378 2.356006145477295 -75.59056091308594
v 0.0370907261967659 2.352705717086792 -75.5976333618164
v 7.211824013138562e-15 2.3515830039978027 -75.5999984741211
v -0.0370907261967659 2.352705717086792 -75.5976333618164
v -0.07439753413200378 2.356006145477295 -75.59056091308594
v -0.11077556759119034 2.361384153366089 -75.57879638671875
v -0.14514070749282837 2.368656635284424 -75.5625
v -0.20473964512348175 2.3869001865386963 -75.51927185058594
v -0.2510433495044708 2.4079978466033936 -75.46411895751953
v -0.28367742896080017 2.430393934249878 -75.39753723144531
v -0.2988854646682739 2.45098614692688 -75.32542419433594
v -0.296213299036026 2.467988967895508 -75.25296783447266
v -0.2879815995693207 2.475278854370117 -75.21611022949219
v -0.27500274777412415 2.48153018951416 -75.18010711669922
v -0.26074472069740295 2.48809552192688 -75.1516342163086
v -0.2435486614704132 2.4942753314971924 -75.12483215332031
v -0.22360830008983612 2.5 -75.0999984741211
v -0.17693893611431122 2.5 -75.05773162841797
v -0.12247540056705475 2.5 -75.02613830566406
v -0.06261683255434036 2.5 -75.00660705566406
v -0.3000011146068573 4.5 -75.30000305175781
v -0.2905760407447815 4.5 -75.3746109008789
v -0.2628929913043976 4.5 -75.44452667236328
v -0.2186914086341858 4.5 -75.50536346435547
v -0.1607486456632614 4.5 -75.55329895019531
v -0.09270544350147247 4.5 -75.58531951904297
v -0.018837226554751396 4.5 -75.59941101074219
v 0.056214604526758194 4.5 -75.59468841552734
v 0.1277342587709427 4.5 -75.57144927978516
v 0.19122791290283203 4.5 -75.53115844726562
v 0.24270600080490112 4.5 -75.47633361816406
v 0.2789340019226074 4.5 -75.41043853759766
v 0.2976355254650116 4.5 -75.33760070800781
v 0.2976355254650116 4.5 -75.26239776611328
v 0.2789340019226074 4.5 -75.18955993652344
v 0.24270600080490112 4.5 -75.12366485595703
v 0.19122791290283203 4.5 -75.06884765625
v 0.1277342587709427 4.5 -75.02854919433594
v 0.056214604526758194 4.5 -75.00531005859375
v -0.018837226554751396 4.5 -75.00059509277344
v -0.09270544350147247 4.5 -75.01468658447266
v -0.1607486456632614 4.5 -75.04669952392578
v -0.2186914086341858 4.5 -75.09463500976562
v -0.2628929913043976 4.5 -75.15547180175781
v -0.2905760407447815 4.5 -75.22539520263672
v -0.2988854646682739 2.45098614692688 -75.32542419433594
v -0.3000011146068573 4.5 -75.30000305175781
v -0.3000011146068573 4.5 -75.30000305175781
v -0.2905760407447815 4.5 -75.22539520263672
v -0.2628929913043976 4.5 -75.15547180175781
v -0.2186914086341858 4.5 -75.09463500976562
v -0.1607486456632614 4.5 -75.04669952392578
v -0.09270544350147247 4.5 -75.01468658447266
v -0.018837226554751396 4.5 -75.00059509277344
v 0.056214604526758194 4.5 -75.00531005859375
v 0.1277342587709427 4.5 -75.02854919433594
v 0.19122791290283203 4.5 -75.06884765625
v 0.24270600080490112 4.5 -75.12366485595703
v 0.2789340019226074 4.5 -75.18955993652344
v 0.2976355254650116 4.5 -75.26239776611328
v 0.2976355254650116 4.5 -75.33760070800781
v 0.2789340019226074 4.5 -75.41043853759766
v 0.24270600080490112 4.5 -75.47633361816406
v 0.19122791290283203 4.5 -75.53115844726562
v 0.1277342587709427 4.5 -75.57144927978516
v 0.056214604526758194 4.5 -75.59468841552734
v -0.018837226554751396 4.5 -75.59941101074219
v -0.09270544350147247 4.5 -75.58531951904297
v -0.1607486456632614 4.5 -75.55329895019531
v -0.2186914086341858 4.5 -75.50536346435547
v -0.2628929913043976 4.5 -75.44452667236328
v -0.2905760407447815 4.5 -75.3746109008789
v -0.22360830008983612 2.5 -75.0999984741211
v -0.2435486614704132 2.4942753314971924 -75.12483215332031
v -0.26074472069740295 2.48809552192688 -75.1516342163086
v -0.27500274777412415 2.48153018951416 -75.18010711669922
v -0.6000000238418579 2.48153018951416 -75.18010711669922
v -0.6000000238418579 2.5 -75.0999984741211
v 0.27500274777412415 2.48153018951416 -75.18010711669922
v 0.26074472069740295 2.48809552192688 -75.1516342163086
v 0.2435486614704132 2.4942753314971924 -75.12483215332031
v 0.22360830008983612 2.5 -75.0999984741211
v 0.6000000238418579 2.5 -75.0999984741211
v 0.6000000238418579 2.48153018951416 -75.18010711669922
v 0.0 2.5 -75.0
v -0.06261683255434036 2.5 -75.00660705566406
v -0.12247540056705475 2.5 -75.02613830566406
v -0.17693893611431122 2.5 -75.05773162841797
v -0.22360830008983612 2.5 -75.0999984741211
v -0.6000000238418579 2.5 -75.0999984741211
v -0.6000000238418579 2.5 -75.0
v 0.22360830008983612 2.5 -75.0999984741211
v 0.17693893611431122 2.5 -75.05773162841797
v 0.12247540056705475 2.5 -75.02613830566406
v 0.06261683255434036 2.5 -75.00660705566406
v 0.0 2.5 -75.0
v 0.6000000238418579 2.5 -75.0
v 0.6000000238418579 2.5 -75.0999984741211
v -0.6000000238418579 0.0 -76.5
v 0.6000000238418579 0.0 -76.5
v 0.6000000238418579 0.0 -75.0
v -0.6000000238418579 0.0 -75.0
v -0.6000000238418579 0.0 -76.5
v -0.6000000238418579 0.0 -75.0
v -0.6000000238418579 2.5 -75.0
v -0.6000000238418579 2.5 -75.0999984741211
v -0.6000000238418579 2.48153018951416 -75.18010711669922
v -0.6000000238418579 2.4467275142669678 -75.34150695800781
v -0.6000000238418579 2.395183563232422 -75.49836730957031
v -0.6000000238418579 2.327467203140259 -75.6489486694336
v -0.6000000238418579 2.24432635307312 -75.79159545898438
v -0.6000000238418579 2.1466782093048096 -75.92473602294922
v -0.6000000238418579 2.0356006622314453 -76.04689025878906
v -0.6000000238418579 1.9123200178146362 -76.15672302246094
v -0.6000000238418579 1.7781968116760254 -76.25301361083984
v -0.6000000238418579 1.6347113847732544 -76.33470153808594
v -0.6000000238418579 1.4834476709365845 -76.40088653564453
v -0.6000000238418579 1.3260750770568848 -76.4508285522461
v -0.6000000238418579 1.1643308401107788 -76.48399353027344
v -0.6000000238418579 1.0 -76.5
v 0.0 2.5 -75.0
v -0.6000000238418579 2.5 -75.0
v -0.6000000238418579 0.0 -75.0
v 0.6000000238418579 0.0 -75.0
v 0.6000000238418579 2.5 -75.0
v -0.27500274777412415 2.48153018951416 -75.18010711669922
v -0.2879815995693207 2.475278854370117 -75.21611022949219
v -0.296213299036026 2.467988967895508 -75.25296783447266
v -0.2988854646682739 2.45098614692688 -75.32542419433594
v -0.28367742896080017 2.430393934249878 -75.39753723144531
v -0.2510433495044708 2.4079978466033936 -75.46411895751953
v -0.20473964512348175 2.3869001865386963 -75.51927185058594
v -0.14514070749282837 2.368656635284424 -75.5625
v -0.11077556759119034 2.361384153366089 -75.57879638671875
v -0.07439753413200378 2.356006145477295 -75.59056091308594
v -0.0370907261967659 2.352705717086792 -75.5976333618164
v 7.211824013138562e-15 2.3515830039978027 -75.5999984741211
v 0.0370907261967659 2.352705717086792 -75.5976333618164
v 0.07439753413200378 2.356006145477295 -75.59056091308594
v 0.11077556759119034 2.361384153366089 -75.57879638671875
v 0.14514070749282837 2.368656635284424 -75.5625
v 0.20473964512348175 2.3869001865386963 -75.51927185058594
v 0.2510433495044708 2.4079978466033936 -75.46411895751953
v 0.28367742896080017 2.430393934249878 -75.39753723144531
v 0.2988854646682739 2.45098614692688 -75.32542419433594
v 0.296213299036026 2.467988967895508 -75.25296783447266
v 0.2879815995693207 2.475278854370117 -75.21611022949219
v 0.27500274777412415 2.48153018951416 -75.18010711669922
v 0.6000000238418579 2.48153018951416 -75.18010711669922
v 0.6000000238418579 2.4467275142669678 -75.34150695800781
v 0.6000000238418579 2.395183563232422 -75.49836730957031
v 0.6000000238418579 2.327467203140259 -75.6489486694336
v 0.6000000238418579 2.24432635307312 -75.79159545898438
v 0.6000000238418579 2.1466782093048096 -75.92473602294922
v 0.6000000238418579 2.0356006622314453 -76.04689025878906
v 0.6000000238418579 1.9123200178146362 -76.15672302246094
v 0.6000000238418579 1.7781968116760254 -76.25301361083984
v 0.6000000238418579 1.6347113847732544 -76.33470153808594
v 0.6000000238418579 1.4834476709365845 -76.40088653564453
v 0.6000000238418579 1.3260750770568848 -76.4508285522461
v 0.6000000238418579 1.1643308401107788 -76.48399353027344
v 0.6000000238418579 1.0 -76.5
v -0.6000000238418579 1.0 -76.5
v -0.6000000238418579 1.1643308401107788 -76.48399353027344
v -0.6000000238418579 1.3260750770568848 -76.4508285522461
v -0.6000000238418579 1.4834476709365845 -76.40088653564453
v -0.6000000238418579 1.6347113847732544 -76.33470153808594
v -0.6000000238418579 1.7781968116760254 -76.25301361083984
v -0.6000000238418579 1.9123200178146362 -76.15672302246094
v -0.6000000238418579 2.0356006622314453 -76.04689025878906
v -0.6000000238418579 2.1466782093048096 -75.92473602294922
v -0.6000000238418579 2.24432635307312 -75.79159545898438
v -0.6000000238418579 2.327467203140259 -75.6489486694336
v -0.6000000238418579 2.395183563232422 -75.49836730957031
v -0.6000000238418579 2.4467275142669678 -75.34150695800781
v -0.6000000238418579 2.48153018951416 -75.18010711669922
v -0.6000000238418579 1.0 -76.5
v 0.6000000238418579 1.0 -76.5
v 0.6000000238418579 0.0 -76.5
v -0.6000000238418579 0.0 -76.5
v 0.6000000238418579 0.0 -75.0
v 0.6000000238418579 0.0 -76.5
v 0.6000000238418579 1.0 -76.5
v 0.6000000238418579 1.1643308401107788 -76.48399353027344
v 0.6000000238418579 1.3260750770568848 -76.4508285522461
v 0.6000000238418579 1.4834476709365845 -76.40088653564453
v 0.6000000238418579 1.6347113847732544 -76.33470153808594
v 0.6000000238418579 1.7781968116760254 -76.25301361083984
v 0.6000000238418579 1.9123200178146362 -76.15672302246094
v 0.6000000238418579 2.0356006622314453 -76.04689025878906
v 0.6000000238418579 2.1466782093048096 -75.92473602294922
v 0.6000000238418579 2.24432635307312 -75.79159545898438
v 0.6000000238418579 2.327467203140259 -75.6489486694336
v 0.6000000238418579 2.395183563232422 -75.49836730957031
v 0.6000000238418579 2.4467275142669678 -75.34150695800781
v 0.6000000238418579 2.48153018951416 -75.18010711669922
v 0.6000000238418579 2.5 -75.0999984741211
v 0.6000000238418579 2.5 -75.0
vn 6.123234262925839e-17 -0.0 1.0
vn 0.20872201025485992 -0.0 0.9779750108718872
vn 0.4082498252391815 -0.0 0.9128702282905579
vn 0.5897942185401917 -0.0 0.8075535893440247
vn 0.7453582286834717 -0.0 0.666664183139801
vn 0.8118258118629456 -0.0 0.5838996767997742
vn 0.8691458702087402 -0.0 0.49455586075782776
vn 0.91667240858078 -0.0 0.39963942766189575
vn 0.9600956439971924 -0.0 0.27967193722724915
vn 0.9876288771629333 -0.0 0.15680959820747375
vn 0.9964014887809753 -0.0 -0.08475860208272934
vn 0.9456632137298584 -0.0 -0.3251477777957916
vn 0.8370069861412048 -0.0 -0.5471922159194946
vn 0.682473361492157 -0.0 -0.7309104800224304
vn 0.48388391733169556 -0.0 -0.8751322031021118
vn 0.36925208568573 -0.0 -0.9293292760848999
vn 0.24804800748825073 -0.0 -0.9687477350234985
vn 0.12366139143705368 -0.0 -0.9923244714736938
vn 2.4042049343660395e-14 -0.0 -1.0
vn -0.12366139143705368 0.0 -0.9923244714736938
vn -0.24804800748825073 0.0 -0.9687477350234985
vn -0.36925208568573 0.0 -0.9293292760848999
vn -0.48388391733169556 0.0 -0.8751322031021118
vn -0.682473361492157 0.0 -0.7309104800224304
vn -0.8370069861412048 0.0 -0.5471922159194946
vn -0.9456632137298584 0.0 -0.3251477777957916
vn -0.9964014887809753 0.0 -0.08475860208272934
vn -0.9876288771629333 -0.0 0.15680959820747375
vn -0.9600956439971924 -0.0 0.27967193722724915
vn -0.91667240858078 -0.0 0.39963942766189575
vn -0.8691458702087402 -0.0 0.49455586075782776
vn -0.8118258118629456 -0.0 0.5838996767997742
vn -0.7453582286834717 -0.0 0.666664183139801
vn -0.5897942185401917 -0.0 0.8075535893440247
vn -0.4082498252391815 -0.0 0.9128702282905579
vn -0.20872201025485992 -0.0 0.9779750108718872
vn -1.0 0.0 -1.2246468525851679e-16
vn -0.9685831665992737 0.0 -0.24868988990783691
vn -0.8763066530227661 0.0 -0.4817536771297455
vn -0.728968620300293 0.0 -0.6845471262931824
vn -0.5358268022537231 0.0 -0.8443279266357422
vn -0.30901700258255005 0.0 -0.9510565400123596
vn -0.06279052048921585 0.0 -0.9980267286300659
vn 0.187381312251091 -0.0 -0.9822872281074524
vn 0.4257792830467224 -0.0 -0.9048270583152771
vn 0.6374239921569824 -0.0 -0.7705132365226746
vn 0.80901700258255 -0.0 -0.5877852439880371
vn 0.9297764897346497 -0.0 -0.3681245446205139
vn 0.9921147227287292 -0.0 -0.12533323466777802
vn 0.9921147227287292 -0.0 0.12533323466777802
vn 0.9297764897346497 -0.0 0.3681245446205139
vn 0.80901700258255 -0.0 0.5877852439880371
vn 0.6374239921569824 -0.0 0.7705132365226746
vn 0.4257792830467224 -0.0 0.9048270583152771
vn 0.187381312251091 -0.0 0.9822872281074524
vn -0.06279052048921585 -0.0 0.9980267286300659
vn -0.30901700258255005 -0.0 0.9510565400123596
vn -0.5358268022537231 -0.0 0.8443279266357422
vn -0.728968620300293 -0.0 0.6845471262931824
vn -0.8763066530227661 -0.0 0.4817536771297455
vn -0.9685831665992737 -0.0 0.24868988990783691
vn -0.9964014887809753 0.0 -0.08475860208272934
vn -1.0 -0.0 1.2246468525851679e-16
vn -0.0 1.0 -0.0
vn -0.0 1.0 -0.0
vn -0.0 1.0 -0.0
vn -0.0 1.0 -0.0
vn -0.0 1.0 -0.0
vn -0.0 1.0 -0.0
vn -0.0 1.0 -0.0
vn -0.0 1.0 -0.0
vn -0.0 1.0 -0.0
vn -0.0 1.0 -0.0
vn -0.0 1.0 -0.0
vn -0.0 1.0 -0.0
vn -0.0 1.0 -0.0
vn -0.0 1.0 -0.0
vn -0.0 1.0 -0.0
vn -0.0 1.0 -0.0
vn -0.0 1.0 -0.0
vn -0.0 1.0 -0.0
vn -0.0 1.0 -0.0
vn -0.0 1.0 -0.0
vn -0.0 1.0 -0.0
vn -0.0 1.0 -0.0
vn -0.0 1.0 -0.0
vn -0.0 1.0 -0.0
vn -0.0 1.0 -0.0
vn 0.0 0.9744353294372559 -0.22466805577278137
vn 0.0 0.9744353294372559 -0.22466805577278137
vn 0.0 0.9744353294372559 -0.22466805577278137
vn 0.0 0.9744353294372559 -0.22466805577278137
vn 0.0 0.9744353294372559 -0.22466805577278137
vn 0.0 0.9744353294372559 -0.22466805577278137
vn 0.0 0.9744353294372559 -0.22466805577278137
vn 0.0 0.9744353294372559 -0.22466805577278137
vn 0.0 0.9744353294372559 -0.22466805577278137
vn 0.0 0.9744353294372559 -0.22466805577278137
vn 0.0 0.9744353294372559 -0.22466805577278137
vn 0.0 0.9744353294372559 -0.22466805577278137
vn -0.0 1.0 0.0
vn -0.0 1.0 0.0
vn -0.0 1.0 0.0
vn -0.0 1.0 0.0
vn -0.0 1.0 0.0
vn -0.0 1.0 0.0
vn -0.0 1.0 0.0
vn -0.0 1.0 0.0
vn -0.0 1.0 0.0
vn -0.0 1.0 0.0
vn -0.0 1.0 0.0
vn -0.0 1.0 0.0
vn -0.0 1.0 0.0
vn -0.0 1.0 0.0
vn 0.0 -1.0 0.0
vn 0.0 -1.0 0.0
vn 0.0 -1.0 0.0
vn 0.0 -1.0 0.0
vn -1.0 -0.0 -0.0
vn -1.0 -0.0 -0.0
vn -1.0 -0.0 -0.0
vn -1.0 -0.0 -0.0
vn -1.0 -0.0 -0.0
vn -1.0 -0.0 -0.0
vn -1.0 -0.0 -0.0
vn -1.0 -0.0 -0.0
vn -1.0 -0.0 -0.0
vn -1.0 -0.0 -0.0
vn -1.0 -0.0 -0.0
vn -1.0 -0.0 -0.0
vn -1.0 -0.0 -0.0
vn -1.0 -0.0 -0.0
vn -1.0 -0.0 -0.0
vn -1.0 -0.0 -0.0
vn -1.0 -0.0 -0.0
vn -1.0 -0.0 -0.0
vn 0.0 0.0 1.0
vn 0.0 0.0 1.0
vn 0.0 0.0 1.0
vn 0.0 0.0 1.0
vn 0.0 0.0 1.0
vn -0.0 0.9872550368309021 -0.15914611518383026
vn -0.0 0.9832878112792969 -0.18205803632736206
vn -0.0 0.9786546230316162 -0.2055119276046753
vn -0.0 0.9678274393081665 -0.25161483883857727
vn -0.0 0.9547217488288879 -0.29750025272369385
vn -0.0 0.9404730200767517 -0.33986833691596985
vn -0.0 0.9270413517951965 -0.37495917081832886
vn -0.0 0.9154354929924011 -0.40246477723121643
vn -0.0 0.910804808139801 -0.41283729672431946
vn -0.0 0.9073770642280579 -0.4203175902366638
vn -0.0 0.9052773714065552 -0.42482104897499084
vn -0.0 0.9045683145523071 -0.42632871866226196
vn -0.0 0.9052773714065552 -0.42482104897499084
vn -0.0 0.9073770642280579 -0.4203175902366638
vn -0.0 0.910804808139801 -0.41283729672431946
vn -0.0 0.9154354929924011 -0.40246477723121643
vn -0.0 0.9270413517951965 -0.37495917081832886
vn -0.0 0.9404730200767517 -0.33986833691596985
vn -0.0 0.9547217488288879 -0.29750025272369385
vn -0.0 0.9678274393081665 -0.25161483883857727
vn -0.0 0.9786546230316162 -0.2055119276046753
vn -0.0 0.9832878112792969 -0.18205803632736206
vn -0.0 0.9872550368309021 -0.15914611518383026
vn -0.0 0.9872550368309021 -0.15914611518383026
vn -0.0 0.965109646320343 -0.26184600591659546
vn -0.0 0.9323117136955261 -0.36165574193000793
vn -0.0 0.8892231583595276 -0.45747363567352295
vn -0.0 0.8363196849822998 -0.5482420921325684
vn -0.0 0.7741851806640625 -0.6329591870307922
vn -0.0 0.7035053968429565 -0.710689902305603
vn -0.0 0.6250606179237366 -0.780576229095459
vn -0.0 0.5397165417671204 -0.8418468236923218
vn -0.0 0.44841527938842773 -0.893825352191925
vn -0.0 0.3521645665168762 -0.9359381198883057
vn -0.0 0.2520267367362976 -0.9677202701568604
vn -0.0 0.14910712838172913 -0.9888210296630859
vn -0.0 0.04454171657562256 -0.999007523059845
vn -0.0 0.04454171657562256 -0.999007523059845
vn -0.0 0.14910712838172913 -0.9888210296630859
vn -0.0 0.2520267367362976 -0.9677202701568604
vn -0.0 0.3521645665168762 -0.9359381198883057
vn -0.0 0.44841527938842773 -0.893825352191925
vn -0.0 0.5397165417671204 -0.8418468236923218
vn -0.0 0.6250606179237366 -0.780576229095459
vn -0.0 0.7035053968429565 -0.710689902305603
vn -0.0 0.7741851806640625 -0.6329591870307922
vn -0.0 0.8363196849822998 -0.5482420921325684
vn -0.0 0.8892231583595276 -0.45747363567352295
vn -0.0 0.9323117136955261 -0.36165574193000793
vn -0.0 0.965109646320343 -0.26184600591659546
vn -0.0 0.9872550368309021 -0.15914611518383026
vn 0.0 -1.1399388313293457e-06 -1.0
vn 0.0 -1.1399388313293457e-06 -1.0
vn 0.0 -1.1399388313293457e-06 -1.0
vn 0.0 -1.1399388313293457e-06 -1.0
vn 1.0 0.0 0.0
vn 1.0 0.0 0.0
vn 1.0 0.0 0.0
vn 1.0 0.0 0.0
vn 1.0 0.0 0.0
vn 1.0 0.0 0.0
vn 1.0 0.0 0.0
vn 1.0 0.0 0.0
vn 1.0 0.0 0.0
vn 1.0 0.0 0.0
vn 1.0 0.0 0.0
vn 1.0 0.0 0.0
vn 1.0 0.0 0.0
vn 1.0 0.0 0.0
vn 1.0 0.0 0.0
vn 1.0 0.0 0.0
vn 1.0 0.0 0.0
vn 1.0 0.0 0.0
g 90d890e2-e306-11ea-b0a6-54bf646e7e1f
f 2//2 55//55 1//1
f 1//1 55//55 56//56
f 1//1 56//56 36//36
f 36//36 56//56 57//57
f 36//36 57//57 35//35
f 35//35 57//57 58//58
f 35//35 58//58 34//34
f 34//34 58//58 59//59
f 34//34 59//59 33//33
f 33//33 59//59 32//32
f 32//32 59//59 60//60
f 32//32 60//60 31//31
f 31//31 60//60 30//30
f 30//30 60//60 61//61
f 30//30 61//61 29//29
f 29//29 61//61 28//28
f 28//28 61//61 63//63
f 28//28 63//63 27//27
f 62//62 37//37 38//38
f 62//62 38//38 26//26
f 26//26 38//38 39//39
f 26//26 39//39 25//25
f 25//25 39//39 40//40
f 25//25 40//40 24//24
f 24//24 40//40 41//41
f 24//24 41//41 23//23
f 23//23 41//41 22//22
f 22//22 41//41 42//42
f 22//22 42//42 21//21
f 21//21 42//42 43//43
f 21//21 43//43 20//20
f 20//20 43//43 19//19
f 19//19 43//43 18//18
f 18//18 43//43 44//44
f 18//18 44//44 17//17
f 17//17 44//44 16//16
f 16//16 44//44 45//45
f 16//16 45//45 15//15
f 15//15 45//45 46//46
f 15//15 46//46 14//14
f 14//14 46//46 47//47
f 14//14 47//47 13//13
f 13//13 47//47 48//48
f 13//13 48//48 12//12
f 12//12 48//48 49//49
f 12//12 49//49 11//11
f 11//11 49//49 50//50
f 11//11 50//50 10//10
f 10//10 50//50 9//9
f 9//9 50//50 51//51
f 9//9 51//51 8//8
f 8//8 51//51 7//7
f 7//7 51//51 52//52
f 7//7 52//52 6//6
f 6//6 52//52 5//5
f 5//5 52//52 53//53
f 5//5 53//53 4//4
f 4//4 53//53 54//54
f 4//4 54//54 3//3
f 3//3 54//54 2//2
f 2//2 54//54 55//55
g 90d9f05c-e306-11ea-90bb-54bf646e7e1f
f 65//65 76//76 64//64
f 64//64 76//76 77//77
f 64//64 77//77 88//88
f 88//88 77//77 78//78
f 88//88 78//78 87//87
f 87//87 78//78 79//79
f 87//87 79//79 86//86
f 86//86 79//79 80//80
f 86//86 80//80 85//85
f 85//85 80//80 81//81
f 85//85 81//81 84//84
f 84//84 81//81 82//82
f 84//84 82//82 83//83
f 76//76 65//65 75//75
f 75//75 65//65 66//66
f 75//75 66//66 74//74
f 74//74 66//66 67//67
f 74//74 67//67 73//73
f 73//73 67//67 68//68
f 73//73 68//68 72//72
f 72//72 68//68 69//69
f 72//72 69//69 71//71
f 71//71 69//69 70//70
g 31ab729d-b894-33b9-8788-10e7ec8c4004
f 89//89 90//90 94//94
f 94//94 90//90 91//91
f 94//94 91//91 93//93
f 93//93 91//91 92//92
g 9074a652-e306-11ea-bf9a-54bf646e7e1f
f 100//100 95//95 99//99
f 99//99 95//95 96//96
f 99//99 96//96 97//97
f 97//97 98//98 99//99
g 907346ec-e306-11ea-87d4-54bf646e7e1f
f 101//101 102//102 107//107
f 107//107 102//102 103//103
f 107//107 103//103 104//104
f 104//104 105//105 107//107
f 107//107 105//105 106//106
g b5867134-0e01-3271-9553-50d5125d86b0
f 114//114 108//108 113//113
f 113//113 108//108 109//109
f 113//113 109//109 110//110
f 110//110 111//111 113//113
f 113//113 111//111 112//112
g 9079d61e-e306-11ea-a59a-54bf646e7e1f
f 116//116 117//117 115//115
f 115//115 117//117 118//118
g 907039de-e306-11ea-8ea5-54bf646e7e1f
f 119//119 120//120 136//136
f 136//136 120//120 135//135
f 135//135 120//120 134//134
f 134//134 120//120 133//133
f 133//133 120//120 132//132
f 132//132 120//120 131//131
f 131//131 120//120 130//130
f 130//130 120//120 129//129
f 129//129 120//120 128//128
f 128//128 120//120 127//127
f 127//127 120//120 126//126
f 126//126 120//120 125//125
f 125//125 120//120 124//124
f 124//124 120//120 123//123
f 123//123 120//120 121//121
f 123//123 121//121 122//122
g 9071723e-e306-11ea-bcf0-54bf646e7e1f
f 138//138 139//139 137//137
f 137//137 139//139 140//140
f 137//137 140//140 141//141
g 907605d4-e306-11ea-b3bb-54bf646e7e1f
f 142//142 143//143 192//192
f 192//192 143//143 144//144
f 192//192 144//144 191//191
f 191//191 144//144 145//145
f 191//191 145//145 146//146
f 191//191 146//146 190//190
f 190//190 146//146 147//147
f 190//190 147//147 148//148
f 148//148 149//149 190//190
f 190//190 149//149 189//189
f 189//189 149//149 150//150
f 189//189 150//150 151//151
f 151//151 152//152 189//189
f 189//189 152//152 153//153
f 189//189 153//153 168//168
f 168//168 153//153 154//154
f 168//168 154//154 155//155
f 155//155 156//156 168//168
f 168//168 156//156 157//157
f 168//168 157//157 167//167
f 167//167 157//157 158//158
f 167//167 158//158 159//159
f 159//159 160//160 167//167
f 167//167 160//160 166//166
f 166//166 160//160 161//161
f 166//166 161//161 162//162
f 166//166 162//162 165//165
f 165//165 162//162 163//163
f 165//165 163//163 164//164
f 189//189 168//168 188//188
f 188//188 168//168 169//169
f 188//188 169//169 187//187
f 187//187 169//169 170//170
f 187//187 170//170 186//186
f 186//186 170//170 171//171
f 186//186 171//171 185//185
f 185//185 171//171 172//172
f 185//185 172//172 184//184
f 184//184 172//172 173//173
f 184//184 173//173 183//183
f 183//183 173//173 174//174
f 183//183 174//174 182//182
f 182//182 174//174 175//175
f 182//182 175//175 181//181
f 181//181 175//175 176//176
f 181//181 176//176 180//180
f 180//180 176//176 177//177
f 180//180 177//177 179//179
f 179//179 177//177 178//178
g 9077da76-e306-11ea-91db-54bf646e7e1f
f 194//194 195//195 193//193
f 193//193 195//195 196//196
g 907baaac-e306-11ea-941b-54bf646e7e1f
f 198//198 199//199 197//197
f 197//197 199//199 200//200
f 197//197 200//200 201//201
f 201//201 202//202 197//197
f 197//197 202//202 203//203
f 197//197 203//203 204//204
f 204//204 205//205 197//197
f 197//197 205//205 206//206
f 197//197 206//206 207//207
f 207//207 208//208 197//197
f 197//197 208//208 209//209
f 197//197 209//209 210//210
f 210//210 211//211 197//197
f 197//197 211//211 212//212
f 197//197 212//212 214//214
f 214//214 212//212 213//213

# End of file