# WaveFront *.obj file
# Vertices: 36
# Triangles : 20

v -3.6478164196014404 0.0 0.34129512310028076
v 2.3819239139556885 0.0 0.34129512310028076
v 2.3819239139556885 5.0 0.34129512310028076
v -3.6478164196014404 5.0 0.34129512310028076
v -3.6478164196014404 0.0 -3.6179921627044678
v -3.6478164196014404 0.0 0.34129512310028076
v -3.6478164196014404 5.0 0.34129512310028076
v -3.6478164196014404 5.0 -3.6179921627044678
v 6.7226104736328125 0.0 -3.6179921627044678
v -3.6478164196014404 0.0 -3.6179921627044678
v -3.6478164196014404 5.0 -3.6179921627044678
v 6.7226104736328125 5.0 -3.6179921627044678
v 6.7226104736328125 0.0 4.573010444641113
v 6.7226104736328125 0.0 -3.6179921627044678
v 6.7226104736328125 5.0 -3.6179921627044678
v 6.7226104736328125 5.0 4.573010444641113
v 2.3819239139556885 0.0 4.573010444641113
v 6.7226104736328125 0.0 4.573010444641113
v 6.7226104736328125 5.0 4.573010444641113
v 2.3819239139556885 5.0 4.573010444641113
v 2.3819239139556885 0.0 0.34129512310028076
v 2.3819239139556885 0.0 4.573010444641113
v 2.3819239139556885 5.0 4.573010444641113
v 2.3819239139556885 5.0 0.34129512310028076
v 2.3819239139556885 5.0 0.34129512310028076
v 2.3819239139556885 5.0 4.573010444641113
v 6.7226104736328125 5.0 4.573010444641113
v 6.7226104736328125 5.0 -3.6179921627044678
v -3.6478164196014404 5.0 -3.6179921627044678
v -3.6478164196014404 5.0 0.34129512310028076
v 2.3819239139556885 0.0 4.573010444641113
v 2.3819239139556885 0.0 0.34129512310028076
v -3.6478164196014404 0.0 0.34129512310028076
v -3.6478164196014404 0.0 -3.6179921627044678
v 6.7226104736328125 0.0 -3.6179921627044678
v 6.7226104736328125 0.0 4.573010444641113
vn 0.0 -0.0 1.0
vn 0.0 -0.0 1.0
vn 0.0 -0.0 1.0
vn 0.0 -0.0 1.0
vn -1.0 0.0 0.0
vn -1.0 0.0 0.0
vn -1.0 0.0 0.0
vn -1.0 0.0 0.0
vn 0.0 0.0 -1.0
vn 0.0 0.0 -1.0
vn 0.0 0.0 -1.0
vn 0.0 0.0 -1.0
vn 1.0 -0.0 0.0
vn 1.0 -0.0 0.0
vn 1.0 -0.0 0.0
vn 1.0 -0.0 0.0
vn 0.0 0.0 1.0
vn 0.0 0.0 1.0
vn 0.0 0.0 1.0
vn 0.0 0.0 1.0
vn -1.0 0.0 0.0
vn -1.0 0.0 0.0
vn -1.0 0.0 0.0
vn -1.0 0.0 0.0
vn 0.0 1.0 0.0
vn 0.0 1.0 0.0
vn 0.0 1.0 0.0
vn 0.0 1.0 0.0
vn 0.0 1.0 0.0
vn 0.0 1.0 0.0
vn -0.0 -1.0 -0.0
vn -0.0 -1.0 -0.0
vn -0.0 -1.0 -0.0
vn -0.0 -1.0 -0.0
vn -0.0 -1.0 -0.0
vn -0.0 -1.0 -0.0
g cb9049be-e306-11ea-8391-54bf646e7e1f
f 1//1 2//2 4//4
f 4//4 2//2 3//3
g cb9097d8-e306-11ea-a321-54bf646e7e1f
f 5//5 6//6 8//8
f 8//8 6//6 7//7
g cb90e5e8-e306-11ea-a4e9-54bf646e7e1f
f 9//9 10//10 12//12
f 12//12 10//10 11//11
g cb915b18-e306-11ea-ae59-54bf646e7e1f
f 13//13 14//14 16//16
f 16//16 14//14 15//15
g cb91a928-e306-11ea-87fd-54bf646e7e1f
f 17//17 18//18 20//20
f 20//20 18//18 19//19
g cb921e38-e306-11ea-8201-54bf646e7e1f
f 21//21 22//22 24//24
f 24//24 22//22 23//23
g cb926c52-e306-11ea-92a2-54bf646e7e1f
f 26//26 27//27 25//25
f 25//25 27//27 28//28
f 25//25 28//28 29//29
f 29//29 30//30 25//25
g cb92e178-e306-11ea-a468-54bf646e7e1f
f 31//31 32//32 36//36
f 36//36 32//32 35//35
f 35//35 32//32 34//34
f 34//34 32//32 33//33

# End of file