# WaveFront *.obj file
# Vertices: 166
# Triangles : 160

v 0.699999988079071 5.0 3.625
v 0.699999988079071 5.019081115722656 3.62353515625
v 0.699999988079071 5.037714958190918 3.6191744804382324
v 0.699999988079071 5.055464744567871 3.61202073097229
v 0.699999988079071 5.0719146728515625 3.602241277694702
v 0.699999988079071 5.086678981781006 3.5900652408599854
v 0.699999988079071 5.099411487579346 3.5757782459259033
v 0.699999988079071 5.109814167022705 3.5597150325775146
v 0.699999988079071 5.117642402648926 3.5422520637512207
v 0.699999988079071 5.122713565826416 3.523798942565918
v 0.699999988079071 5.124908447265625 3.5047879219055176
v 0.699999988079071 5.124175071716309 3.4856646060943604
v 0.699999988079071 5.1205315589904785 3.4668772220611572
v 0.699999988079071 5.114062786102295 3.448866367340088
v 0.699999988079071 5.104920864105225 3.432054042816162
v 0.699999988079071 5.093318939208984 3.4168343544006348
v 0.699999988079071 5.079530239105225 3.4035637378692627
v 0.699999988079071 5.063877105712891 3.3925538063049316
v 0.699999988079071 5.046727180480957 3.3840622901916504
v 0.699999988079071 5.028481483459473 3.3782880306243896
v 0.699999988079071 5.009568691253662 3.375366687774658
v 0.699999988079071 4.990431308746338 3.375366687774658
v 0.699999988079071 4.971518516540527 3.3782880306243896
v 0.699999988079071 4.953272819519043 3.3840622901916504
v 0.699999988079071 4.936122894287109 3.3925538063049316
v 0.699999988079071 4.920469760894775 3.4035637378692627
v 0.699999988079071 4.906681060791016 3.4168343544006348
v 0.699999988079071 4.895079135894775 3.432054042816162
v 0.699999988079071 4.885937213897705 3.448866367340088
v 0.699999988079071 4.8794684410095215 3.4668772220611572
v 0.699999988079071 4.875824928283691 3.4856646060943604
v 0.699999988079071 4.875091552734375 3.5047879219055176
v 0.699999988079071 4.877286434173584 3.523798942565918
v 0.699999988079071 4.882357597351074 3.5422520637512207
v 0.699999988079071 4.890185832977295 3.5597150325775146
v 0.699999988079071 4.900588512420654 3.5757782459259033
v 0.699999988079071 4.913321018218994 3.5900652408599854
v 0.699999988079071 4.9280853271484375 3.602241277694702
v 0.699999988079071 4.944535255432129 3.61202073097229
v 0.699999988079071 4.962285041809082 3.6191744804382324
v 0.699999988079071 4.980918884277344 3.62353515625
v 0.0 5.0 3.625
v 0.0 4.980918884277344 3.62353515625
v 0.0 4.962285041809082 3.6191744804382324
v 0.0 4.944535255432129 3.61202073097229
v 0.0 4.9280853271484375 3.602241277694702
v 0.0 4.913321018218994 3.5900652408599854
v 0.0 4.900588512420654 3.5757782459259033
v 0.0 4.890185832977295 3.5597150325775146
v 0.0 4.882357597351074 3.5422520637512207
v 0.0 4.877286434173584 3.523798942565918
v 0.0 4.875091552734375 3.5047879219055176
v 0.0 4.875824928283691 3.4856646060943604
v 0.0 4.8794684410095215 3.4668772220611572
v 0.0 4.885937213897705 3.448866367340088
v 0.0 4.895079135894775 3.432054042816162
v 0.0 4.906681060791016 3.4168343544006348
v 0.0 4.920469760894775 3.4035637378692627
v 0.0 4.936122894287109 3.3925538063049316
v 0.0 4.953272819519043 3.3840622901916504
v 0.0 4.971518516540527 3.3782880306243896
v 0.0 4.990431308746338 3.375366687774658
v 0.0 5.009568691253662 3.375366687774658
v 0.0 5.028481483459473 3.3782880306243896
v 0.0 5.046727180480957 3.3840622901916504
v 0.0 5.063877105712891 3.3925538063049316
v 0.0 5.079530239105225 3.4035637378692627
v 0.0 5.093318939208984 3.4168343544006348
v 0.0 5.104920864105225 3.432054042816162
v 0.0 5.114062786102295 3.448866367340088
v 0.0 5.1205315589904785 3.4668772220611572
v 0.0 5.124175071716309 3.4856646060943604
v 0.0 5.124908447265625 3.5047879219055176
v 0.0 5.122713565826416 3.523798942565918
v 0.0 5.117642402648926 3.5422520637512207
v 0.0 5.109814167022705 3.5597150325775146
v 0.0 5.099411487579346 3.5757782459259033
v 0.0 5.086678981781006 3.5900652408599854
v 0.0 5.0719146728515625 3.602241277694702
v 0.0 5.055464744567871 3.61202073097229
v 0.0 5.037714958190918 3.6191744804382324
v 0.0 5.019081115722656 3.62353515625
v 0.0 5.0 3.625
v 0.699999988079071 5.0 3.625
v 0.699999988079071 5.0 3.625
v 0.699999988079071 4.980918884277344 3.62353515625
v 0.699999988079071 4.962285041809082 3.6191744804382324
v 0.699999988079071 4.944535255432129 3.61202073097229
v 0.699999988079071 4.9280853271484375 3.602241277694702
v 0.699999988079071 4.913321018218994 3.5900652408599854
v 0.699999988079071 4.900588512420654 3.5757782459259033
v 0.699999988079071 4.890185832977295 3.5597150325775146
v 0.699999988079071 4.882357597351074 3.5422520637512207
v 0.699999988079071 4.877286434173584 3.523798942565918
v 0.699999988079071 4.875091552734375 3.5047879219055176
v 0.699999988079071 4.875824928283691 3.4856646060943604
v 0.699999988079071 4.8794684410095215 3.4668772220611572
v 0.699999988079071 4.885937213897705 3.448866367340088
v 0.699999988079071 4.895079135894775 3.432054042816162
v 0.699999988079071 4.906681060791016 3.4168343544006348
v 0.699999988079071 4.920469760894775 3.4035637378692627
v 0.699999988079071 4.936122894287109 3.3925538063049316
v 0.699999988079071 4.953272819519043 3.3840622901916504
v 0.699999988079071 4.971518516540527 3.3782880306243896
v 0.699999988079071 4.990431308746338 3.375366687774658
v 0.699999988079071 5.009568691253662 3.375366687774658
v 0.699999988079071 5.028481483459473 3.3782880306243896
v 0.699999988079071 5.046727180480957 3.3840622901916504
v 0.699999988079071 5.063877105712891 3.3925538063049316
v 0.699999988079071 5.079530239105225 3.4035637378692627
v 0.699999988079071 5.093318939208984 3.4168343544006348
v 0.699999988079071 5.104920864105225 3.432054042816162
v 0.699999988079071 5.114062786102295 3.448866367340088
v 0.699999988079071 5.1205315589904785 3.4668772220611572
v 0.699999988079071 5.124175071716309 3.4856646060943604
v 0.699999988079071 5.124908447265625 3.5047879219055176
v 0.699999988079071 5.122713565826416 3.523798942565918
v 0.699999988079071 5.117642402648926 3.5422520637512207
v 0.699999988079071 5.109814167022705 3.5597150325775146
v 0.699999988079071 5.099411487579346 3.5757782459259033
v 0.699999988079071 5.086678981781006 3.5900652408599854
v 0.699999988079071 5.0719146728515625 3.602241277694702
v 0.699999988079071 5.055464744567871 3.61202073097229
v 0.699999988079071 5.037714958190918 3.6191744804382324
v 0.699999988079071 5.019081115722656 3.62353515625
v 0.0 5.0 3.625
v 0.0 5.019081115722656 3.62353515625
v 0.0 5.037714958190918 3.6191744804382324
v 0.0 5.055464744567871 3.61202073097229
v 0.0 5.0719146728515625 3.602241277694702
v 0.0 5.086678981781006 3.5900652408599854
v 0.0 5.099411487579346 3.5757782459259033
v 0.0 5.109814167022705 3.5597150325775146
v 0.0 5.117642402648926 3.5422520637512207
v 0.0 5.122713565826416 3.523798942565918
v 0.0 5.124908447265625 3.5047879219055176
v 0.0 5.124175071716309 3.4856646060943604
v 0.0 5.1205315589904785 3.4668772220611572
v 0.0 5.114062786102295 3.448866367340088
v 0.0 5.104920864105225 3.432054042816162
v 0.0 5.093318939208984 3.4168343544006348
v 0.0 5.079530239105225 3.4035637378692627
v 0.0 5.063877105712891 3.3925538063049316
v 0.0 5.046727180480957 3.3840622901916504
v 0.0 5.028481483459473 3.3782880306243896
v 0.0 5.009568691253662 3.375366687774658
v 0.0 4.990431308746338 3.375366687774658
v 0.0 4.971518516540527 3.3782880306243896
v 0.0 4.953272819519043 3.3840622901916504
v 0.0 4.936122894287109 3.3925538063049316
v 0.0 4.920469760894775 3.4035637378692627
v 0.0 4.906681060791016 3.4168343544006348
v 0.0 4.895079135894775 3.432054042816162
v 0.0 4.885937213897705 3.448866367340088
v 0.0 4.8794684410095215 3.4668772220611572
v 0.0 4.875824928283691 3.4856646060943604
v 0.0 4.875091552734375 3.5047879219055176
v 0.0 4.877286434173584 3.523798942565918
v 0.0 4.882357597351074 3.5422520637512207
v 0.0 4.890185832977295 3.5597150325775146
v 0.0 4.900588512420654 3.5757782459259033
v 0.0 4.913321018218994 3.5900652408599854
v 0.0 4.9280853271484375 3.602241277694702
v 0.0 4.944535255432129 3.61202073097229
v 0.0 4.962285041809082 3.6191744804382324
v 0.0 4.980918884277344 3.62353515625
vn -0.0 1.2246468525851679e-16 1.0
vn -0.0 0.15264928340911865 0.9882804155349731
vn -0.0 0.30172058939933777 0.9533963799476624
vn -0.0 0.4437198340892792 0.8961655497550964
vn -0.0 0.5753186345100403 0.8179293870925903
vn -0.0 0.6934325098991394 0.7205215692520142
vn -0.0 0.795292854309082 0.6062254309654236
vn -0.0 0.8785122632980347 0.47771981358528137
vn -0.0 0.9411400556564331 0.3380168676376343
vn -0.0 0.9817083477973938 0.19039110839366913
vn -0.0 0.9992662072181702 0.03830273449420929
vn -0.0 0.9934020638465881 -0.11468342691659927
vn -0.0 0.9642534852027893 -0.2649815082550049
vn -0.0 0.9125036001205444 -0.40906864404678345
vn -0.0 0.8393654227256775 -0.5435675382614136
vn -0.0 0.7465532422065735 -0.6653257012367249
vn -0.0 0.6362424492835999 -0.7714892029762268
vn -0.0 0.511018693447113 -0.8595696091651917
vn -0.0 0.3738170862197876 -0.927502453327179
vn -0.0 0.22785350680351257 -0.9736953973770142
vn -0.0 0.07654925435781479 -0.9970657825469971
vn 0.0 -0.07654925435781479 -0.9970657825469971
vn 0.0 -0.22785350680351257 -0.9736953973770142
vn 0.0 -0.3738170862197876 -0.927502453327179
vn 0.0 -0.511018693447113 -0.8595696091651917
vn 0.0 -0.6362424492835999 -0.7714892029762268
vn 0.0 -0.7465532422065735 -0.6653257012367249
vn 0.0 -0.8393654227256775 -0.5435675382614136
vn 0.0 -0.9125036001205444 -0.40906864404678345
vn 0.0 -0.9642534852027893 -0.2649815082550049
vn 0.0 -0.9934020638465881 -0.11468342691659927
vn -0.0 -0.9992662072181702 0.03830273449420929
vn -0.0 -0.9817083477973938 0.19039110839366913
vn -0.0 -0.9411400556564331 0.3380168676376343
vn -0.0 -0.8785122632980347 0.47771981358528137
vn -0.0 -0.795292854309082 0.6062254309654236
vn -0.0 -0.6934325098991394 0.7205215692520142
vn -0.0 -0.5753186345100403 0.8179293870925903
vn -0.0 -0.4437198340892792 0.8961655497550964
vn -0.0 -0.30172058939933777 0.9533963799476624
vn -0.0 -0.15264928340911865 0.9882804155349731
vn -0.0 -1.2246468525851679e-16 1.0
vn -0.0 -0.15264928340911865 0.9882804155349731
vn -0.0 -0.30172058939933777 0.9533963799476624
vn -0.0 -0.4437198340892792 0.8961655497550964
vn -0.0 -0.5753186345100403 0.8179293870925903
vn -0.0 -0.6934325098991394 0.7205215692520142
vn -0.0 -0.795292854309082 0.6062254309654236
vn -0.0 -0.8785122632980347 0.47771981358528137
vn -0.0 -0.9411400556564331 0.3380168676376343
vn -0.0 -0.9817083477973938 0.19039110839366913
vn -0.0 -0.9992662072181702 0.03830273449420929
vn 0.0 -0.9934020638465881 -0.11468342691659927
vn 0.0 -0.9642534852027893 -0.2649815082550049
vn 0.0 -0.9125036001205444 -0.40906864404678345
vn 0.0 -0.8393654227256775 -0.5435675382614136
vn 0.0 -0.7465532422065735 -0.6653257012367249
vn 0.0 -0.6362424492835999 -0.7714892029762268
vn 0.0 -0.511018693447113 -0.8595696091651917
vn 0.0 -0.3738170862197876 -0.927502453327179
vn 0.0 -0.22785350680351257 -0.9736953973770142
vn 0.0 -0.07654925435781479 -0.9970657825469971
vn -0.0 0.07654925435781479 -0.9970657825469971
vn -0.0 0.22785350680351257 -0.9736953973770142
vn -0.0 0.3738170862197876 -0.927502453327179
vn -0.0 0.511018693447113 -0.8595696091651917
vn -0.0 0.6362424492835999 -0.7714892029762268
vn -0.0 0.7465532422065735 -0.6653257012367249
vn -0.0 0.8393654227256775 -0.5435675382614136
vn -0.0 0.9125036001205444 -0.40906864404678345
vn -0.0 0.9642534852027893 -0.2649815082550049
vn -0.0 0.9934020638465881 -0.11468342691659927
vn -0.0 0.9992662072181702 0.03830273449420929
vn -0.0 0.9817083477973938 0.19039110839366913
vn -0.0 0.9411400556564331 0.3380168676376343
vn -0.0 0.8785122632980347 0.47771981358528137
vn -0.0 0.795292854309082 0.6062254309654236
vn -0.0 0.6934325098991394 0.7205215692520142
vn -0.0 0.5753186345100403 0.8179293870925903
vn -0.0 0.4437198340892792 0.8961655497550964
vn -0.0 0.30172058939933777 0.9533963799476624
vn -0.0 0.15264928340911865 0.9882804155349731
vn -0.0 1.2246468525851679e-16 1.0
vn -0.0 -1.2246468525851679e-16 1.0
vn 1.0 0.0 0.0
vn 1.0 0.0 0.0
vn 1.0 0.0 0.0
vn 1.0 0.0 0.0
vn 1.0 0.0 0.0
vn 1.0 0.0 0.0
vn 1.0 0.0 0.0
vn 1.0 0.0 0.0
vn 1.0 0.0 0.0
vn 1.0 0.0 0.0
vn 1.0 0.0 0.0
vn 1.0 0.0 0.0
vn 1.0 0.0 0.0
vn 1.0 0.0 0.0
vn 1.0 0.0 0.0
vn 1.0 0.0 0.0
vn 1.0 0.0 0.0
vn 1.0 0.0 0.0
vn 1.0 0.0 0.0
vn 1.0 0.0 0.0
vn 1.0 0.0 0.0
vn 1.0 0.0 0.0
vn 1.0 0.0 0.0
vn 1.0 0.0 0.0
vn 1.0 0.0 0.0
vn 1.0 0.0 0.0
vn 1.0 0.0 0.0
vn 1.0 0.0 0.0
vn 1.0 0.0 0.0
vn 1.0 0.0 0.0
vn 1.0 0.0 0.0
vn 1.0 0.0 0.0
vn 1.0 0.0 0.0
vn 1.0 0.0 0.0
vn 1.0 0.0 0.0
vn 1.0 0.0 0.0
vn 1.0 0.0 0.0
vn 1.0 0.0 0.0
vn 1.0 0.0 0.0
vn 1.0 0.0 0.0
vn 1.0 0.0 0.0
vn -1.0 -0.0 -0.0
vn -1.0 -0.0 -0.0
vn -1.0 -0.0 -0.0
vn -1.0 -0.0 -0.0
vn -1.0 -0.0 -0.0
vn -1.0 -0.0 -0.0
vn -1.0 -0.0 -0.0
vn -1.0 -0.0 -0.0
vn -1.0 -0.0 -0.0
vn -1.0 -0.0 -0.0
vn -1.0 -0.0 -0.0
vn -1.0 -0.0 -0.0
vn -1.0 -0.0 -0.0
vn -1.0 -0.0 -0.0
vn -1.0 -0.0 -0.0
vn -1.0 -0.0 -0.0
vn -1.0 -0.0 -0.0
vn -1.0 -0.0 -0.0
vn -1.0 -0.0 -0.0
vn -1.0 -0.0 -0.0
vn -1.0 -0.0 -0.0
vn -1.0 -0.0 -0.0
vn -1.0 -0.0 -0.0
vn -1.0 -0.0 -0.0
vn -1.0 -0.0 -0.0
vn -1.0 -0.0 -0.0
vn -1.0 -0.0 -0.0
vn -1.0 -0.0 -0.0
vn -1.0 -0.0 -0.0
vn -1.0 -0.0 -0.0
vn -1.0 -0.0 -0.0
vn -1.0 -0.0 -0.0
vn -1.0 -0.0 -0.0
vn -1.0 -0.0 -0.0
vn -1.0 -0.0 -0.0
vn -1.0 -0.0 -0.0
vn -1.0 -0.0 -0.0
vn -1.0 -0.0 -0.0
vn -1.0 -0.0 -0.0
vn -1.0 -0.0 -0.0
vn -1.0 -0.0 -0.0
g 3f9a89a6-e30a-11ea-8dac-54bf646e7e1f
f 2//2 82//82 1//1
f 1//1 82//82 83//83
f 84//84 42//42 41//41
f 41//41 42//42 43//43
f 41//41 43//43 40//40
f 40//40 43//43 44//44
f 40//40 44//44 39//39
f 39//39 44//44 45//45
f 39//39 45//45 38//38
f 38//38 45//45 46//46
f 38//38 46//46 37//37
f 37//37 46//46 47//47
f 37//37 47//47 36//36
f 36//36 47//47 48//48
f 36//36 48//48 35//35
f 35//35 48//48 49//49
f 35//35 49//49 34//34
f 34//34 49//49 50//50
f 34//34 50//50 33//33
f 33//33 50//50 51//51
f 33//33 51//51 32//32
f 32//32 51//51 52//52
f 32//32 52//52 31//31
f 31//31 52//52 53//53
f 31//31 53//53 30//30
f 30//30 53//53 54//54
f 30//30 54//54 29//29
f 29//29 54//54 55//55
f 29//29 55//55 28//28
f 28//28 55//55 56//56
f 28//28 56//56 27//27
f 27//27 56//56 57//57
f 27//27 57//57 26//26
f 26//26 57//57 58//58
f 26//26 58//58 25//25
f 25//25 58//58 59//59
f 25//25 59//59 24//24
f 24//24 59//59 60//60
f 24//24 60//60 23//23
f 23//23 60//60 61//61
f 23//23 61//61 22//22
f 22//22 61//61 62//62
f 22//22 62//62 21//21
f 21//21 62//62 63//63
f 21//21 63//63 20//20
f 20//20 63//63 64//64
f 20//20 64//64 19//19
f 19//19 64//64 65//65
f 19//19 65//65 18//18
f 18//18 65//65 66//66
f 18//18 66//66 17//17
f 17//17 66//66 67//67
f 17//17 67//67 16//16
f 16//16 67//67 68//68
f 16//16 68//68 15//15
f 15//15 68//68 69//69
f 15//15 69//69 14//14
f 14//14 69//69 70//70
f 14//14 70//70 13//13
f 13//13 70//70 71//71
f 13//13 71//71 12//12
f 12//12 71//71 72//72
f 12//12 72//72 11//11
f 11//11 72//72 73//73
f 11//11 73//73 10//10
f 10//10 73//73 74//74
f 10//10 74//74 9//9
f 9//9 74//74 75//75
f 9//9 75//75 8//8
f 8//8 75//75 76//76
f 8//8 76//76 7//7
f 7//7 76//76 77//77
f 7//7 77//77 6//6
f 6//6 77//77 78//78
f 6//6 78//78 5//5
f 5//5 78//78 79//79
f 5//5 79//79 4//4
f 4//4 79//79 80//80
f 4//4 80//80 3//3
f 3//3 80//80 81//81
f 3//3 81//81 2//2
f 2//2 81//81 82//82
g 3f9bc20a-e30a-11ea-ba14-54bf646e7e1f
f 86//86 105//105 85//85
f 85//85 105//105 106//106
f 85//85 106//106 125//125
f 125//125 106//106 107//107
f 125//125 107//107 124//124
f 124//124 107//107 108//108
f 124//124 108//108 123//123
f 123//123 108//108 109//109
f 123//123 109//109 122//122
f 122//122 109//109 110//110
f 122//122 110//110 121//121
f 121//121 110//110 111//111
f 121//121 111//111 120//120
f 120//120 111//111 112//112
f 120//120 112//112 119//119
f 119//119 112//112 113//113
f 119//119 113//113 118//118
f 118//118 113//113 114//114
f 118//118 114//114 117//117
f 117//117 114//114 115//115
f 117//117 115//115 116//116
f 105//105 86//86 104//104
f 104//104 86//86 87//87
f 104//104 87//87 103//103
f 103//103 87//87 88//88
f 103//103 88//88 102//102
f 102//102 88//88 89//89
f 102//102 89//89 101//101
f 101//101 89//89 90//90
f 101//101 90//90 100//100
f 100//100 90//90 91//91
f 100//100 91//91 99//99
f 99//99 91//91 92//92
f 99//99 92//92 98//98
f 98//98 92//92 93//93
f 98//98 93//93 97//97
f 97//97 93//93 94//94
f 97//97 94//94 96//96
f 96//96 94//94 95//95
g 3f9cfa80-e30a-11ea-9aa0-54bf646e7e1f
f 127//127 146//146 126//126
f 126//126 146//146 147//147
f 126//126 147//147 166//166
f 166//166 147//147 148//148
f 166//166 148//148 165//165
f 165//165 148//148 149//149
f 165//165 149//149 164//164
f 164//164 149//149 150//150
f 164//164 150//150 163//163
f 163//163 150//150 151//151
f 163//163 151//151 162//162
f 162//162 151//151 152//152
f 162//162 152//152 161//161
f 161//161 152//152 153//153
f 161//161 153//153 160//160
f 160//160 153//153 154//154
f 160//160 154//154 159//159
f 159//159 154//154 155//155
f 159//159 155//155 158//158
f 158//158 155//155 156//156
f 158//158 156//156 157//157
f 146//146 127//127 145//145
f 145//145 127//127 128//128
f 145//145 128//128 144//144
f 144//144 128//128 129//129
f 144//144 129//129 143//143
f 143//143 129//129 130//130
f 143//143 130//130 142//142
f 142//142 130//130 131//131
f 142//142 131//131 141//141
f 141//141 131//131 132//132
f 141//141 132//132 140//140
f 140//140 132//132 133//133
f 140//140 133//133 139//139
f 139//139 133//133 134//134
f 139//139 134//134 138//138
f 138//138 134//134 135//135
f 138//138 135//135 137//137
f 137//137 135//135 136//136

# End of file