# WaveFront *.obj file
# Vertices: 112
# Triangles : 88

v 5.0 5.0 5.0
v 5.0 8.0 5.0
v 0.0 8.0 5.0
v 0.0 5.0 5.0
v 5.0 8.0 5.0
v 5.0 8.0 25.0
v 0.0 8.0 25.0
v 0.0 8.0 5.0
v 5.0 8.0 25.0
v 5.0 5.0 25.0
v 0.0 5.0 25.0
v 0.0 8.0 25.0
v 5.0 5.0 25.0
v 5.0 8.0 25.0
v 5.0 8.0 5.0
v 5.0 5.0 5.0
v 5.0 5.0 0.0
v 5.0 32.0 -4.440892098500626e-16
v 5.0 32.776458740234375 0.1022225171327591
v 5.0 33.5 0.4019237756729126
v 5.0 34.12131881713867 0.878679633140564
v 5.0 34.59807586669922 1.5
v 5.0 34.89777755737305 2.2235429286956787
v 5.0 35.0 3.0
v 5.0 35.0 27.0
v 5.0 34.89777755737305 27.776456832885742
v 5.0 34.59807586669922 28.5
v 5.0 34.12131881713867 29.121320724487305
v 5.0 33.5 29.59807586669922
v 5.0 32.776458740234375 29.897777557373047
v 5.0 32.0 30.0
v 5.0 5.0 30.0
v 5.0 32.0 30.0
v 5.0 32.776458740234375 29.897777557373047
v 5.0 33.5 29.59807586669922
v 5.0 34.12131881713867 29.121320724487305
v 5.0 34.59807586669922 28.5
v 5.0 34.89777755737305 27.776456832885742
v 5.0 35.0 27.0
v 0.0 35.0 27.0
v 0.0 34.89777755737305 27.776456832885742
v 0.0 34.59807586669922 28.5
v 0.0 34.12131881713867 29.121320724487305
v 0.0 33.5 29.59807586669922
v 0.0 32.776458740234375 29.897777557373047
v 0.0 32.0 30.0
v 5.0 35.0 3.0
v 5.0 34.89777755737305 2.2235429286956787
v 5.0 34.59807586669922 1.5
v 5.0 34.12131881713867 0.878679633140564
v 5.0 33.5 0.4019237756729126
v 5.0 32.776458740234375 0.1022225171327591
v 5.0 32.0 -4.440892098500626e-16
v 0.0 32.0 -4.440892098500626e-16
v 0.0 32.776458740234375 0.1022225171327591
v 0.0 33.5 0.4019237756729126
v 0.0 34.12131881713867 0.878679633140564
v 0.0 34.59807586669922 1.5
v 0.0 34.89777755737305 2.2235429286956787
v 0.0 35.0 3.0
v 0.0 35.0 27.0
v 5.0 35.0 27.0
v 5.0 35.0 3.0
v 0.0 35.0 3.0
v 0.0 32.0 -4.440892098500626e-16
v 5.0 32.0 -4.440892098500626e-16
v 5.0 5.0 0.0
v 30.0 5.0 0.0
v 30.0 0.0 0.0
v 0.0 0.0 0.0
v 5.0 5.0 0.0
v 5.0 5.0 5.0
v 0.0 5.0 5.0
v 0.0 5.0 25.0
v 5.0 5.0 25.0
v 5.0 5.0 30.0
v 30.0 5.0 30.0
v 30.0 5.0 0.0
v 0.0 5.0 25.0
v 0.0 5.0 5.0
v 0.0 8.0 5.0
v 0.0 8.0 25.0
v 0.0 32.0 30.0
v 0.0 32.776458740234375 29.897777557373047
v 0.0 33.5 29.59807586669922
v 0.0 34.12131881713867 29.121320724487305
v 0.0 34.59807586669922 28.5
v 0.0 34.89777755737305 27.776456832885742
v 0.0 35.0 27.0
v 0.0 35.0 3.0
v 0.0 34.89777755737305 2.2235429286956787
v 0.0 34.59807586669922 1.5
v 0.0 34.12131881713867 0.878679633140564
v 0.0 33.5 0.4019237756729126
v 0.0 32.776458740234375 0.1022225171327591
v 0.0 32.0 -4.440892098500626e-16
v 0.0 0.0 0.0
v 0.0 0.0 30.0
v 30.0 0.0 30.0
v 30.0 0.0 0.0
v 30.0 5.0 0.0
v 30.0 5.0 30.0
v 5.0 32.0 30.0
v 0.0 32.0 30.0
v 0.0 0.0 30.0
v 30.0 0.0 30.0
v 30.0 5.0 30.0
v 5.0 5.0 30.0
v 30.0 0.0 30.0
v 0.0 0.0 30.0
v 0.0 0.0 0.0
v 30.0 0.0 0.0
vn -0.0 -0.0 1.0
vn -0.0 -0.0 1.0
vn -0.0 -0.0 1.0
vn -0.0 -0.0 1.0
vn -0.0 -1.0 0.0
vn -0.0 -1.0 0.0
vn -0.0 -1.0 0.0
vn -0.0 -1.0 0.0
vn -0.0 -0.0 -1.0
vn -0.0 -0.0 -1.0
vn -0.0 -0.0 -1.0
vn -0.0 -0.0 -1.0
vn 1.0 0.0 0.0
vn 1.0 0.0 0.0
vn 1.0 0.0 0.0
vn 1.0 0.0 0.0
vn 1.0 0.0 0.0
vn 1.0 0.0 0.0
vn 1.0 0.0 0.0
vn 1.0 0.0 0.0
vn 1.0 0.0 0.0
vn 1.0 0.0 0.0
vn 1.0 0.0 0.0
vn 1.0 0.0 0.0
vn 1.0 0.0 0.0
vn 1.0 0.0 0.0
vn 1.0 0.0 0.0
vn 1.0 0.0 0.0
vn 1.0 0.0 0.0
vn 1.0 0.0 0.0
vn 1.0 0.0 0.0
vn 1.0 0.0 0.0
vn 0.0 1.2246468525851679e-16 1.0
vn 0.0 0.258819043636322 0.9659258127212524
vn 0.0 0.5 0.8660253882408142
vn 0.0 0.7071067690849304 0.7071067690849304
vn 0.0 0.8660253882408142 0.5
vn 0.0 0.9659258127212524 0.258819043636322
vn -0.0 1.0 -6.123234262925839e-17
vn -0.0 1.0 -6.123234262925839e-17
vn 0.0 0.9659258127212524 0.258819043636322
vn 0.0 0.8660253882408142 0.5
vn 0.0 0.7071067690849304 0.7071067690849304
vn 0.0 0.5 0.8660253882408142
vn 0.0 0.258819043636322 0.9659258127212524
vn 0.0 1.2246468525851679e-16 1.0
vn -0.0 1.0 -6.123234262925839e-17
vn -0.0 0.9659258127212524 -0.258819043636322
vn -0.0 0.8660253882408142 -0.5
vn -0.0 0.7071067690849304 -0.7071067690849304
vn -0.0 0.5 -0.8660253882408142
vn -0.0 0.258819043636322 -0.9659258127212524
vn -0.0 -1.0358053970094261e-08 -1.0
vn -0.0 -1.0358053970094261e-08 -1.0
vn -0.0 0.258819043636322 -0.9659258127212524
vn -0.0 0.5 -0.8660253882408142
vn -0.0 0.7071067690849304 -0.7071067690849304
vn -0.0 0.8660253882408142 -0.5
vn -0.0 0.9659258127212524 -0.258819043636322
vn -0.0 1.0 -6.123234262925839e-17
vn 0.0 1.0 0.0
vn 0.0 1.0 0.0
vn 0.0 1.0 0.0
vn 0.0 1.0 0.0
vn 0.0 0.0 -1.0
vn 0.0 0.0 -1.0
vn 0.0 0.0 -1.0
vn 0.0 0.0 -1.0
vn 0.0 0.0 -1.0
vn 0.0 0.0 -1.0
vn 0.0 1.0 0.0
vn 0.0 1.0 0.0
vn 0.0 1.0 0.0
vn 0.0 1.0 0.0
vn 0.0 1.0 0.0
vn 0.0 1.0 0.0
vn 0.0 1.0 0.0
vn 0.0 1.0 0.0
vn -1.0 0.0 0.0
vn -1.0 0.0 0.0
vn -1.0 0.0 0.0
vn -1.0 0.0 0.0
vn -1.0 0.0 0.0
vn -1.0 0.0 0.0
vn -1.0 0.0 0.0
vn -1.0 0.0 0.0
vn -1.0 0.0 0.0
vn -1.0 0.0 0.0
vn -1.0 0.0 0.0
vn -1.0 0.0 0.0
vn -1.0 0.0 0.0
vn -1.0 0.0 0.0
vn -1.0 0.0 0.0
vn -1.0 0.0 0.0
vn -1.0 0.0 0.0
vn -1.0 0.0 0.0
vn -1.0 0.0 0.0
vn -1.0 0.0 0.0
vn 1.0 -0.0 0.0
vn 1.0 -0.0 0.0
vn 1.0 -0.0 0.0
vn 1.0 -0.0 0.0
vn 0.0 0.0 1.0
vn 0.0 0.0 1.0
vn 0.0 0.0 1.0
vn 0.0 0.0 1.0
vn 0.0 0.0 1.0
vn 0.0 0.0 1.0
vn -0.0 -1.0 -0.0
vn -0.0 -1.0 -0.0
vn -0.0 -1.0 -0.0
vn -0.0 -1.0 -0.0
g ec057a6c-e315-11ea-aac2-54bf646e7e1f
f 1//1 2//2 4//4
f 4//4 2//2 3//3
g ec05ef9a-e315-11ea-bab5-54bf646e7e1f
f 5//5 6//6 8//8
f 8//8 6//6 7//7
g ec068bd8-e315-11ea-99ab-54bf646e7e1f
f 9//9 10//10 12//12
f 12//12 10//10 11//11
g eba7a3b4-e315-11ea-9724-54bf646e7e1f
f 13//13 14//14 32//32
f 32//32 14//14 31//31
f 31//31 14//14 25//25
f 31//31 25//25 30//30
f 30//30 25//25 29//29
f 29//29 25//25 28//28
f 28//28 25//25 27//27
f 27//27 25//25 26//26
f 25//25 14//14 24//24
f 24//24 14//14 15//15
f 24//24 15//15 18//18
f 18//18 15//15 17//17
f 17//17 15//15 16//16
f 18//18 19//19 24//24
f 24//24 19//19 20//20
f 24//24 20//20 21//21
f 21//21 22//22 24//24
f 24//24 22//22 23//23
g ebd2f91c-e315-11ea-8b13-54bf646e7e1f
f 46//46 33//33 45//45
f 45//45 33//33 34//34
f 45//45 34//34 44//44
f 44//44 34//34 35//35
f 44//44 35//35 43//43
f 43//43 35//35 36//36
f 43//43 36//36 42//42
f 42//42 36//36 37//37
f 42//42 37//37 41//41
f 41//41 37//37 38//38
f 41//41 38//38 40//40
f 40//40 38//38 39//39
g ebd3bc6e-e315-11ea-a1da-54bf646e7e1f
f 60//60 47//47 59//59
f 59//59 47//47 48//48
f 59//59 48//48 58//58
f 58//58 48//48 49//49
f 58//58 49//49 57//57
f 57//57 49//49 50//50
f 57//57 50//50 56//56
f 56//56 50//50 51//51
f 56//56 51//51 55//55
f 55//55 51//51 52//52
f 55//55 52//52 54//54
f 54//54 52//52 53//53
g eba818e4-e315-11ea-a546-54bf646e7e1f
f 62//62 63//63 61//61
f 61//61 63//63 64//64
g eb7c0050-e315-11ea-9b30-54bf646e7e1f
f 66//66 67//67 65//65
f 65//65 67//67 70//70
f 70//70 67//67 69//69
f 69//69 67//67 68//68
g eb7cc3ba-e315-11ea-b32b-54bf646e7e1f
f 71//71 72//72 78//78
f 78//78 72//72 75//75
f 78//78 75//75 77//77
f 77//77 75//75 76//76
f 73//73 74//74 72//72
f 72//72 74//74 75//75
g eb7bd94a-e315-11ea-b641-54bf646e7e1f
f 82//82 79//79 98//98
f 98//98 79//79 80//80
f 98//98 80//80 97//97
f 97//97 80//80 81//81
f 97//97 81//81 96//96
f 96//96 81//81 90//90
f 96//96 90//90 91//91
f 81//81 82//82 90//90
f 90//90 82//82 89//89
f 89//89 82//82 83//83
f 89//89 83//83 88//88
f 88//88 83//83 87//87
f 87//87 83//83 86//86
f 86//86 83//83 85//85
f 85//85 83//83 84//84
f 83//83 82//82 98//98
f 91//91 92//92 96//96
f 96//96 92//92 93//93
f 96//96 93//93 94//94
f 94//94 95//95 96//96
g eb7c4e76-e315-11ea-9bff-54bf646e7e1f
f 99//99 100//100 102//102
f 102//102 100//100 101//101
g eb7c7570-e315-11ea-acf4-54bf646e7e1f
f 103//103 104//104 108//108
f 108//108 104//104 105//105
f 108//108 105//105 106//106
f 106//106 107//107 108//108
g eb7ceac6-e315-11ea-a1a2-54bf646e7e1f
f 109//109 110//110 112//112
f 112//112 110//110 111//111

# End of file