# WaveFront *.obj file
# Vertices: 144
# Triangles : 88

v 3.5 -1.5 -5.0
v 3.5 -1.5 -4.0
v 9.0 -1.5 -4.0
v 9.0 -1.5 -5.0
v 3.5 -1.5 -4.0
v 3.5 -2.5 -4.0
v 9.0 -2.5 -4.0
v 9.0 -1.5 -4.0
v 9.0 -2.5 -4.0
v 9.0 -2.5 -5.0
v 9.0 -1.5 -5.0
v 9.0 -1.5 -4.0
v 1.0 -3.0 5.5
v 1.0 -3.0 -5.5
v 1.0 2.5 -5.5
v 1.0 2.5 5.5
v 1.0 2.0 -5.0
v 1.0 -2.5 -5.0
v 1.0 -2.5 5.0
v 1.0 2.0 5.0
v 3.5 1.0 4.0
v 3.5 2.0 4.0
v 9.0 2.0 4.0
v 9.0 1.0 4.0
v 3.5 1.0 5.0
v 3.5 1.0 4.0
v 9.0 1.0 4.0
v 9.0 1.0 5.0
v 9.0 2.0 5.0
v 9.0 1.0 5.0
v 9.0 1.0 4.0
v 9.0 2.0 4.0
v 3.5 2.0 -4.0
v 3.5 1.0 -4.0
v 9.0 1.0 -4.0
v 9.0 2.0 -4.0
v 3.5 1.0 -4.0
v 3.5 1.0 -5.0
v 9.0 1.0 -5.0
v 9.0 1.0 -4.0
v 9.0 1.0 -4.0
v 9.0 1.0 -5.0
v 9.0 2.0 -5.0
v 9.0 2.0 -4.0
v 3.5 -1.5 4.0
v 3.5 -1.5 5.0
v 9.0 -1.5 5.0
v 9.0 -1.5 4.0
v 3.5 -2.5 4.0
v 3.5 -1.5 4.0
v 9.0 -1.5 4.0
v 9.0 -2.5 4.0
v 9.0 -2.5 5.0
v 9.0 -2.5 4.0
v 9.0 -1.5 4.0
v 9.0 -1.5 5.0
v 1.0 2.0 -5.0
v 1.0 2.0 5.0
v 9.0 2.0 5.0
v 9.0 2.0 4.0
v 3.5 2.0 4.0
v 3.5 2.0 -4.0
v 9.0 2.0 -4.0
v 9.0 2.0 -5.0
v 1.0 -2.5 -5.0
v 1.0 2.0 -5.0
v 9.0 2.0 -5.0
v 9.0 1.0 -5.0
v 3.5 1.0 -5.0
v 3.5 -1.5 -5.0
v 9.0 -1.5 -5.0
v 9.0 -2.5 -5.0
v 1.0 -2.5 5.0
v 1.0 -2.5 -5.0
v 9.0 -2.5 -5.0
v 9.0 -2.5 -4.0
v 3.5 -2.5 -4.0
v 3.5 -2.5 4.0
v 9.0 -2.5 4.0
v 9.0 -2.5 5.0
v 1.0 2.0 5.0
v 1.0 -2.5 5.0
v 9.0 -2.5 5.0
v 9.0 -1.5 5.0
v 3.5 -1.5 5.0
v 3.5 1.0 5.0
v 9.0 1.0 5.0
v 9.0 2.0 5.0
v 3.5 2.0 4.0
v 3.5 1.0 4.0
v 3.5 1.0 5.0
v 3.5 -1.5 5.0
v 3.5 -1.5 4.0
v 3.5 -2.5 4.0
v 3.5 -2.5 -4.0
v 3.5 -1.5 -4.0
v 3.5 -1.5 -5.0
v 3.5 1.0 -5.0
v 3.5 1.0 -4.0
v 3.5 2.0 -4.0
v 0.0 2.5 5.5
v 0.0 -3.0 5.5
v 1.0 -3.0 5.5
v 1.0 2.5 5.5
v 0.0 2.5 -5.5
v 0.0 2.5 5.5
v 1.0 2.5 5.5
v 1.0 2.5 -5.5
v 0.0 -3.0 -5.5
v 0.0 2.5 -5.5
v 1.0 2.5 -5.5
v 1.0 -3.0 -5.5
v 0.0 -3.0 5.5
v 0.0 -3.0 -5.5
v 1.0 -3.0 -5.5
v 1.0 -3.0 5.5
v 0.0 -3.0 -5.5
v 0.0 -3.0 5.5
v 0.0 2.5 5.5
v 0.0 2.5 -5.5
v -18.0 2.0 10.0
v -18.0 2.0 15.5
v -18.0 3.0 15.5
v -18.0 3.0 10.0
v -7.0 2.0 10.0
v -18.0 2.0 10.0
v -18.0 3.0 10.0
v -7.0 3.0 10.0
v -7.0 2.0 15.5
v -7.0 2.0 10.0
v -7.0 3.0 10.0
v -7.0 3.0 15.5
v -18.0 2.0 15.5
v -7.0 2.0 15.5
v -7.0 3.0 15.5
v -18.0 3.0 15.5
v -18.0 3.0 15.5
v -7.0 3.0 15.5
v -7.0 3.0 10.0
v -18.0 3.0 10.0
v -7.0 2.0 15.5
v -18.0 2.0 15.5
v -18.0 2.0 10.0
v -7.0 2.0 10.0
vn -0.0 1.0 0.0
vn -0.0 1.0 0.0
vn -0.0 1.0 0.0
vn -0.0 1.0 0.0
vn 0.0 0.0 1.0
vn 0.0 0.0 1.0
vn 0.0 0.0 1.0
vn 0.0 0.0 1.0
vn 1.0 0.0 0.0
vn 1.0 0.0 0.0
vn 1.0 0.0 0.0
vn 1.0 0.0 0.0
vn 1.0 0.0 0.0
vn 1.0 0.0 0.0
vn 1.0 0.0 0.0
vn 1.0 0.0 0.0
vn 1.0 0.0 0.0
vn 1.0 0.0 0.0
vn 1.0 0.0 0.0
vn 1.0 0.0 0.0
vn 0.0 0.0 -1.0
vn 0.0 0.0 -1.0
vn 0.0 0.0 -1.0
vn 0.0 0.0 -1.0
vn 0.0 -1.0 0.0
vn 0.0 -1.0 0.0
vn 0.0 -1.0 0.0
vn 0.0 -1.0 0.0
vn 1.0 0.0 0.0
vn 1.0 0.0 0.0
vn 1.0 0.0 0.0
vn 1.0 0.0 0.0
vn 0.0 0.0 1.0
vn 0.0 0.0 1.0
vn 0.0 0.0 1.0
vn 0.0 0.0 1.0
vn 0.0 -1.0 0.0
vn 0.0 -1.0 0.0
vn 0.0 -1.0 0.0
vn 0.0 -1.0 0.0
vn 1.0 0.0 0.0
vn 1.0 0.0 0.0
vn 1.0 0.0 0.0
vn 1.0 0.0 0.0
vn -0.0 1.0 0.0
vn -0.0 1.0 0.0
vn -0.0 1.0 0.0
vn -0.0 1.0 0.0
vn 0.0 0.0 -1.0
vn 0.0 0.0 -1.0
vn 0.0 0.0 -1.0
vn 0.0 0.0 -1.0
vn 1.0 0.0 0.0
vn 1.0 0.0 0.0
vn 1.0 0.0 0.0
vn 1.0 0.0 0.0
vn -0.0 1.0 0.0
vn -0.0 1.0 0.0
vn -0.0 1.0 0.0
vn -0.0 1.0 0.0
vn -0.0 1.0 0.0
vn -0.0 1.0 0.0
vn -0.0 1.0 0.0
vn -0.0 1.0 0.0
vn 0.0 0.0 -1.0
vn 0.0 0.0 -1.0
vn 0.0 0.0 -1.0
vn 0.0 0.0 -1.0
vn 0.0 0.0 -1.0
vn 0.0 0.0 -1.0
vn 0.0 0.0 -1.0
vn 0.0 0.0 -1.0
vn 0.0 -1.0 0.0
vn 0.0 -1.0 0.0
vn 0.0 -1.0 0.0
vn 0.0 -1.0 0.0
vn 0.0 -1.0 0.0
vn 0.0 -1.0 0.0
vn 0.0 -1.0 0.0
vn 0.0 -1.0 0.0
vn -0.0 0.0 1.0
vn -0.0 0.0 1.0
vn -0.0 0.0 1.0
vn -0.0 0.0 1.0
vn -0.0 0.0 1.0
vn -0.0 0.0 1.0
vn -0.0 0.0 1.0
vn -0.0 0.0 1.0
vn 1.0 0.0 0.0
vn 1.0 0.0 0.0
vn 1.0 0.0 0.0
vn 1.0 0.0 0.0
vn 1.0 0.0 0.0
vn 1.0 0.0 0.0
vn 1.0 0.0 0.0
vn 1.0 0.0 0.0
vn 1.0 0.0 0.0
vn 1.0 0.0 0.0
vn 1.0 0.0 0.0
vn 1.0 0.0 0.0
vn 0.0 0.0 1.0
vn 0.0 0.0 1.0
vn 0.0 0.0 1.0
vn 0.0 0.0 1.0
vn -0.0 1.0 0.0
vn -0.0 1.0 0.0
vn -0.0 1.0 0.0
vn -0.0 1.0 0.0
vn 0.0 0.0 -1.0
vn 0.0 0.0 -1.0
vn 0.0 0.0 -1.0
vn 0.0 0.0 -1.0
vn 0.0 -1.0 0.0
vn 0.0 -1.0 0.0
vn 0.0 -1.0 0.0
vn 0.0 -1.0 0.0
vn -1.0 -0.0 -0.0
vn -1.0 -0.0 -0.0
vn -1.0 -0.0 -0.0
vn -1.0 -0.0 -0.0
vn -1.0 0.0 0.0
vn -1.0 0.0 0.0
vn -1.0 0.0 0.0
vn -1.0 0.0 0.0
vn 0.0 0.0 -1.0
vn 0.0 0.0 -1.0
vn 0.0 0.0 -1.0
vn 0.0 0.0 -1.0
vn 1.0 0.0 0.0
vn 1.0 0.0 0.0
vn 1.0 0.0 0.0
vn 1.0 0.0 0.0
vn 0.0 -0.0 1.0
vn 0.0 -0.0 1.0
vn 0.0 -0.0 1.0
vn 0.0 -0.0 1.0
vn 0.0 1.0 0.0
vn 0.0 1.0 0.0
vn 0.0 1.0 0.0
vn 0.0 1.0 0.0
vn -0.0 -1.0 -0.0
vn -0.0 -1.0 -0.0
vn -0.0 -1.0 -0.0
vn -0.0 -1.0 -0.0
g 5e54c0b6-e316-11ea-93ce-54bf646e7e1f
f 1//1 2//2 4//4
f 4//4 2//2 3//3
g 5e558406-e316-11ea-996f-54bf646e7e1f
f 5//5 6//6 8//8
f 8//8 6//6 7//7
g 5e56475c-e316-11ea-90e3-54bf646e7e1f
f 9//9 10//10 12//12
f 12//12 10//10 11//11
g 5d92f8f4-e316-11ea-bfc0-54bf646e7e1f
f 14//14 19//19 13//13
f 13//13 19//19 20//20
f 13//13 20//20 16//16
f 16//16 20//20 17//17
f 16//16 17//17 15//15
f 15//15 17//17 14//14
f 14//14 17//17 18//18
f 14//14 18//18 19//19
g 5e570aac-e316-11ea-b1a5-54bf646e7e1f
f 21//21 22//22 24//24
f 24//24 22//22 23//23
g 5e57cdf8-e316-11ea-8948-54bf646e7e1f
f 25//25 26//26 28//28
f 28//28 26//26 27//27
g 5e58913e-e316-11ea-86a4-54bf646e7e1f
f 30//30 31//31 29//29
f 29//29 31//31 32//32
g 5e597ba6-e316-11ea-8653-54bf646e7e1f
f 33//33 34//34 36//36
f 36//36 34//34 35//35
g 5e5a660c-e316-11ea-ae32-54bf646e7e1f
f 37//37 38//38 40//40
f 40//40 38//38 39//39
g 5e5b5064-e316-11ea-885d-54bf646e7e1f
f 41//41 42//42 44//44
f 44//44 42//42 43//43
g 5e5c61ca-e316-11ea-ad89-54bf646e7e1f
f 45//45 46//46 48//48
f 48//48 46//46 47//47
g 5e5d732e-e316-11ea-8909-54bf646e7e1f
f 49//49 50//50 52//52
f 52//52 50//50 51//51
g 5e5eabb0-e316-11ea-abff-54bf646e7e1f
f 53//53 54//54 56//56
f 56//56 54//54 55//55
g 5dd8b3f0-e316-11ea-bc66-54bf646e7e1f
f 64//64 57//57 62//62
f 62//62 57//57 58//58
f 62//62 58//58 61//61
f 61//61 58//58 59//59
f 61//61 59//59 60//60
f 62//62 63//63 64//64
g 5dda1376-e316-11ea-bf06-54bf646e7e1f
f 72//72 65//65 70//70
f 70//70 65//65 66//66
f 70//70 66//66 69//69
f 69//69 66//66 67//67
f 69//69 67//67 68//68
f 70//70 71//71 72//72
g 5ddb9a24-e316-11ea-b935-54bf646e7e1f
f 80//80 73//73 78//78
f 78//78 73//73 74//74
f 78//78 74//74 77//77
f 77//77 74//74 75//75
f 77//77 75//75 76//76
f 78//78 79//79 80//80
g 5ddd20b6-e316-11ea-a75b-54bf646e7e1f
f 88//88 81//81 86//86
f 86//86 81//81 82//82
f 86//86 82//82 85//85
f 85//85 82//82 83//83
f 85//85 83//83 84//84
f 86//86 87//87 88//88
g 5ddece5e-e316-11ea-bcec-54bf646e7e1f
f 100//100 89//89 99//99
f 99//99 89//89 90//90
f 99//99 90//90 96//96
f 96//96 90//90 93//93
f 96//96 93//93 95//95
f 95//95 93//93 94//94
f 90//90 91//91 93//93
f 93//93 91//91 92//92
f 96//96 97//97 99//99
f 99//99 97//97 98//98
g 5d91e79c-e316-11ea-9974-54bf646e7e1f
f 101//101 102//102 104//104
f 104//104 102//102 103//103
g 5d9235b0-e316-11ea-90c1-54bf646e7e1f
f 105//105 106//106 108//108
f 108//108 106//106 107//107
g 5d925cb6-e316-11ea-aa4c-54bf646e7e1f
f 109//109 110//110 112//112
f 112//112 110//110 111//111
g 5d92aadc-e316-11ea-8c68-54bf646e7e1f
f 113//113 114//114 116//116
f 116//116 114//114 115//115
g 5d93470a-e316-11ea-8837-54bf646e7e1f
f 117//117 118//118 120//120
f 120//120 118//118 119//119
g 5ee8c238-e316-11ea-87aa-54bf646e7e1f
f 121//121 122//122 124//124
f 124//124 122//122 123//123
g 5eea21c6-e316-11ea-bfd5-54bf646e7e1f
f 125//125 126//126 128//128
f 128//128 126//126 127//127
g 5eeb5a42-e316-11ea-b91c-54bf646e7e1f
f 129//129 130//130 132//132
f 132//132 130//130 131//131
g 5eec92b8-e316-11ea-bda9-54bf646e7e1f
f 133//133 134//134 136//136
f 136//136 134//134 135//135
g 5eee1946-e316-11ea-b912-54bf646e7e1f
f 138//138 139//139 137//137
f 137//137 139//139 140//140
g 5eef78d2-e316-11ea-9cd5-54bf646e7e1f
f 141//141 142//142 144//144
f 144//144 142//142 143//143

# End of file