# WaveFront *.obj file
# Vertices: 122
# Triangles : 104

v -0.25 7.020477294921875 0.0
v -0.23492315411567688 7.105982303619385 0.0
v -0.1915111094713211 7.181174278259277 0.0
v -0.125 7.236983299255371 0.0
v -0.043412044644355774 7.266679286956787 0.0
v 0.043412044644355774 7.266679286956787 0.0
v 0.125 7.236983299255371 0.0
v 0.1915111094713211 7.181174278259277 0.0
v 0.23492315411567688 7.105982303619385 0.0
v 0.25 7.020477294921875 0.0
v 0.23492315411567688 6.934972286224365 0.0
v 0.1915111094713211 6.859780311584473 0.0
v 0.125 6.803970813751221 0.0
v 0.043412044644355774 6.774275302886963 0.0
v -0.043412044644355774 6.774275302886963 0.0
v -0.125 6.803970813751221 0.0
v -0.1915111094713211 6.859780311584473 0.0
v -0.23492315411567688 6.934972286224365 0.0
v -0.25 7.020477294921875 0.699999988079071
v -0.23492315411567688 6.934972286224365 0.699999988079071
v -0.1915111094713211 6.859780311584473 0.699999988079071
v -0.125 6.803970813751221 0.699999988079071
v -0.043412044644355774 6.774275302886963 0.699999988079071
v 0.043412044644355774 6.774275302886963 0.699999988079071
v 0.125 6.803970813751221 0.699999988079071
v 0.1915111094713211 6.859780311584473 0.699999988079071
v 0.23492315411567688 6.934972286224365 0.699999988079071
v 0.25 7.020477294921875 0.699999988079071
v 0.23492315411567688 7.105982303619385 0.699999988079071
v 0.1915111094713211 7.181174278259277 0.699999988079071
v 0.125 7.236983299255371 0.699999988079071
v 0.043412044644355774 7.266679286956787 0.699999988079071
v -0.043412044644355774 7.266679286956787 0.699999988079071
v -0.125 7.236983299255371 0.699999988079071
v -0.1915111094713211 7.181174278259277 0.699999988079071
v -0.23492315411567688 7.105982303619385 0.699999988079071
v -0.25 7.020477294921875 0.0
v -0.25 7.020477294921875 0.699999988079071
v -0.75 2.219806432723999 0.0
v -1.4253177642822266 2.520477056503296 0.0
v -1.4253177642822266 2.520477056503296 0.699999988079071
v -0.75 2.219806432723999 0.699999988079071
v -0.75 8.020477294921875 0.0
v -0.75 2.219806432723999 0.0
v -0.75 2.219806432723999 0.699999988079071
v -0.75 8.020477294921875 0.699999988079071
v 0.75 8.020477294921875 0.0
v -0.75 8.020477294921875 0.0
v -0.75 8.020477294921875 0.699999988079071
v 0.75 8.020477294921875 0.699999988079071
v 0.75 2.219806432723999 0.0
v 0.75 8.020477294921875 0.0
v 0.75 8.020477294921875 0.699999988079071
v 0.75 2.219806432723999 0.699999988079071
v 1.4253177642822266 2.520477056503296 0.0
v 0.75 2.219806432723999 0.0
v 0.75 2.219806432723999 0.699999988079071
v 1.4253177642822266 2.520477056503296 0.699999988079071
v 0.25 0.0 0.0
v 1.4253177642822266 2.520477056503296 0.0
v 1.4253177642822266 2.520477056503296 0.699999988079071
v 0.25 0.0 0.699999988079071
v -0.25 0.0 0.0
v 0.25 0.0 0.0
v 0.25 0.0 0.699999988079071
v -0.25 0.0 0.699999988079071
v -1.4253177642822266 2.520477056503296 0.0
v -0.25 0.0 0.0
v -0.25 0.0 0.699999988079071
v -1.4253177642822266 2.520477056503296 0.699999988079071
v -0.25 7.020477294921875 0.699999988079071
v -0.23492315411567688 7.105982303619385 0.699999988079071
v -0.1915111094713211 7.181174278259277 0.699999988079071
v -0.125 7.236983299255371 0.699999988079071
v -0.043412044644355774 7.266679286956787 0.699999988079071
v 0.043412044644355774 7.266679286956787 0.699999988079071
v 0.125 7.236983299255371 0.699999988079071
v 0.1915111094713211 7.181174278259277 0.699999988079071
v 0.23492315411567688 7.105982303619385 0.699999988079071
v 0.25 7.020477294921875 0.699999988079071
v 0.23492315411567688 6.934972286224365 0.699999988079071
v 0.1915111094713211 6.859780311584473 0.699999988079071
v 0.125 6.803970813751221 0.699999988079071
v 0.043412044644355774 6.774275302886963 0.699999988079071
v -0.043412044644355774 6.774275302886963 0.699999988079071
v -0.125 6.803970813751221 0.699999988079071
v -0.1915111094713211 6.859780311584473 0.699999988079071
v -0.23492315411567688 6.934972286224365 0.699999988079071
v -1.4253177642822266 2.520477056503296 0.699999988079071
v -0.25 0.0 0.699999988079071
v 0.25 0.0 0.699999988079071
v 1.4253177642822266 2.520477056503296 0.699999988079071
v 0.75 2.219806432723999 0.699999988079071
v 0.75 8.020477294921875 0.699999988079071
v -0.75 8.020477294921875 0.699999988079071
v -0.75 2.219806432723999 0.699999988079071
v -0.25 7.020477294921875 0.0
v -0.23492315411567688 6.934972286224365 0.0
v -0.1915111094713211 6.859780311584473 0.0
v -0.125 6.803970813751221 0.0
v -0.043412044644355774 6.774275302886963 0.0
v 0.043412044644355774 6.774275302886963 0.0
v 0.125 6.803970813751221 0.0
v 0.1915111094713211 6.859780311584473 0.0
v 0.23492315411567688 6.934972286224365 0.0
v 0.25 7.020477294921875 0.0
v 0.23492315411567688 7.105982303619385 0.0
v 0.1915111094713211 7.181174278259277 0.0
v 0.125 7.236983299255371 0.0
v 0.043412044644355774 7.266679286956787 0.0
v -0.043412044644355774 7.266679286956787 0.0
v -0.125 7.236983299255371 0.0
v -0.1915111094713211 7.181174278259277 0.0
v -0.23492315411567688 7.105982303619385 0.0
v -0.25 0.0 0.0
v -1.4253177642822266 2.520477056503296 0.0
v -0.75 2.219806432723999 0.0
v -0.75 8.020477294921875 0.0
v 0.75 8.020477294921875 0.0
v 0.75 2.219806432723999 0.0
v 1.4253177642822266 2.520477056503296 0.0
v 0.25 0.0 0.0
vn 1.0 -1.2246468525851679e-16 0.0
vn 0.9396926164627075 -0.3420201539993286 0.0
vn 0.7660444378852844 -0.6427876353263855 0.0
vn 0.5 -0.8660253882408142 0.0
vn 0.1736481785774231 -0.9848077297210693 0.0
vn -0.1736481785774231 -0.9848077297210693 -0.0
vn -0.5 -0.8660253882408142 -0.0
vn -0.7660444378852844 -0.6427876353263855 -0.0
vn -0.9396926164627075 -0.3420201539993286 -0.0
vn -1.0 -0.0 -0.0
vn -0.9396926164627075 0.3420201539993286 0.0
vn -0.7660444378852844 0.6427876353263855 0.0
vn -0.5 0.8660253882408142 0.0
vn -0.1736481785774231 0.9848077297210693 0.0
vn 0.1736481785774231 0.9848077297210693 0.0
vn 0.5 0.8660253882408142 0.0
vn 0.7660444378852844 0.6427876353263855 0.0
vn 0.9396926164627075 0.3420201539993286 0.0
vn 1.0 1.2246468525851679e-16 0.0
vn 0.9396926164627075 0.3420201539993286 0.0
vn 0.7660444378852844 0.6427876353263855 0.0
vn 0.5 0.8660253882408142 0.0
vn 0.1736481785774231 0.9848077297210693 0.0
vn -0.1736481785774231 0.9848077297210693 0.0
vn -0.5 0.8660253882408142 0.0
vn -0.7660444378852844 0.6427876353263855 0.0
vn -0.9396926164627075 0.3420201539993286 0.0
vn -1.0 -0.0 -0.0
vn -0.9396926164627075 -0.3420201539993286 -0.0
vn -0.7660444378852844 -0.6427876353263855 -0.0
vn -0.5 -0.8660253882408142 -0.0
vn -0.1736481785774231 -0.9848077297210693 -0.0
vn 0.1736481785774231 -0.9848077297210693 0.0
vn 0.5 -0.8660253882408142 0.0
vn 0.7660444378852844 -0.6427876353263855 0.0
vn 0.9396926164627075 -0.3420201539993286 0.0
vn 1.0 1.2246468525851679e-16 0.0
vn 1.0 -1.2246468525851679e-16 0.0
vn 0.4067366421222687 0.9135454297065735 -0.0
vn 0.4067366421222687 0.9135454297065735 -0.0
vn 0.4067366421222687 0.9135454297065735 -0.0
vn 0.4067366421222687 0.9135454297065735 -0.0
vn -1.0 -2.2154917535418227e-15 0.0
vn -1.0 -2.2154917535418227e-15 0.0
vn -1.0 -2.2154917535418227e-15 0.0
vn -1.0 -2.2154917535418227e-15 0.0
vn -1.1842379282265398e-15 1.0 0.0
vn -1.1842379282265398e-15 1.0 0.0
vn -1.1842379282265398e-15 1.0 0.0
vn -1.1842379282265398e-15 1.0 0.0
vn 1.0 3.2297398042541994e-16 -0.0
vn 1.0 3.2297398042541994e-16 -0.0
vn 1.0 3.2297398042541994e-16 -0.0
vn 1.0 3.2297398042541994e-16 -0.0
vn -0.4067366421222687 0.9135454297065735 0.0
vn -0.4067366421222687 0.9135454297065735 0.0
vn -0.4067366421222687 0.9135454297065735 0.0
vn -0.4067366421222687 0.9135454297065735 0.0
vn 0.9063078165054321 -0.4226182699203491 0.0
vn 0.9063078165054321 -0.4226182699203491 0.0
vn 0.9063078165054321 -0.4226182699203491 0.0
vn 0.9063078165054321 -0.4226182699203491 0.0
vn 0.0 -1.0 0.0
vn 0.0 -1.0 0.0
vn 0.0 -1.0 0.0
vn 0.0 -1.0 0.0
vn -0.9063078165054321 -0.4226182699203491 0.0
vn -0.9063078165054321 -0.4226182699203491 0.0
vn -0.9063078165054321 -0.4226182699203491 0.0
vn -0.9063078165054321 -0.4226182699203491 0.0
vn 0.0 0.0 1.0
vn 0.0 0.0 1.0
vn 0.0 0.0 1.0
vn 0.0 0.0 1.0
vn 0.0 0.0 1.0
vn 0.0 0.0 1.0
vn 0.0 0.0 1.0
vn 0.0 0.0 1.0
vn 0.0 0.0 1.0
vn 0.0 0.0 1.0
vn 0.0 0.0 1.0
vn 0.0 0.0 1.0
vn 0.0 0.0 1.0
vn 0.0 0.0 1.0
vn 0.0 0.0 1.0
vn 0.0 0.0 1.0
vn 0.0 0.0 1.0
vn 0.0 0.0 1.0
vn 0.0 0.0 1.0
vn 0.0 0.0 1.0
vn 0.0 0.0 1.0
vn 0.0 0.0 1.0
vn 0.0 0.0 1.0
vn 0.0 0.0 1.0
vn 0.0 0.0 1.0
vn 0.0 0.0 1.0
vn -0.0 -0.0 -1.0
vn -0.0 -0.0 -1.0
vn -0.0 -0.0 -1.0
vn -0.0 -0.0 -1.0
vn -0.0 -0.0 -1.0
vn -0.0 -0.0 -1.0
vn -0.0 -0.0 -1.0
vn -0.0 -0.0 -1.0
vn -0.0 -0.0 -1.0
vn -0.0 -0.0 -1.0
vn -0.0 -0.0 -1.0
vn -0.0 -0.0 -1.0
vn -0.0 -0.0 -1.0
vn -0.0 -0.0 -1.0
vn -0.0 -0.0 -1.0
vn -0.0 -0.0 -1.0
vn -0.0 -0.0 -1.0
vn -0.0 -0.0 -1.0
vn -0.0 -0.0 -1.0
vn -0.0 -0.0 -1.0
vn -0.0 -0.0 -1.0
vn -0.0 -0.0 -1.0
vn -0.0 -0.0 -1.0
vn -0.0 -0.0 -1.0
vn -0.0 -0.0 -1.0
vn -0.0 -0.0 -1.0
g 9f45be00-e34c-11ea-837f-54bf646e7e1f
f 2//2 36//36 1//1
f 1//1 36//36 38//38
f 37//37 19//19 18//18
f 18//18 19//19 20//20
f 18//18 20//20 17//17
f 17//17 20//20 21//21
f 17//17 21//21 16//16
f 16//16 21//21 22//22
f 16//16 22//22 15//15
f 15//15 22//22 23//23
f 15//15 23//23 14//14
f 14//14 23//23 24//24
f 14//14 24//24 13//13
f 13//13 24//24 25//25
f 13//13 25//25 12//12
f 12//12 25//25 26//26
f 12//12 26//26 11//11
f 11//11 26//26 27//27
f 11//11 27//27 10//10
f 10//10 27//27 28//28
f 10//10 28//28 9//9
f 9//9 28//28 29//29
f 9//9 29//29 8//8
f 8//8 29//29 30//30
f 8//8 30//30 7//7
f 7//7 30//30 31//31
f 7//7 31//31 6//6
f 6//6 31//31 32//32
f 6//6 32//32 5//5
f 5//5 32//32 33//33
f 5//5 33//33 4//4
f 4//4 33//33 34//34
f 4//4 34//34 3//3
f 3//3 34//34 35//35
f 3//3 35//35 2//2
f 2//2 35//35 36//36
g 9edff69a-e34c-11ea-914b-54bf646e7e1f
f 39//39 40//40 42//42
f 42//42 40//40 41//41
g 9ee0ba00-e34c-11ea-a5a5-54bf646e7e1f
f 43//43 44//44 46//46
f 46//46 44//44 45//45
g 9ee1563a-e34c-11ea-82b5-54bf646e7e1f
f 47//47 48//48 50//50
f 50//50 48//48 49//49
g 9ee1f26c-e34c-11ea-9080-54bf646e7e1f
f 51//51 52//52 54//54
f 54//54 52//52 53//53
g 9ee26790-e34c-11ea-9951-54bf646e7e1f
f 55//55 56//56 58//58
f 58//58 56//56 57//57
g 9ee303ca-e34c-11ea-b456-54bf646e7e1f
f 59//59 60//60 62//62
f 62//62 60//60 61//61
g 9ee37900-e34c-11ea-a9ab-54bf646e7e1f
f 63//63 64//64 66//66
f 66//66 64//64 65//65
g 9ee41540-e34c-11ea-85f7-54bf646e7e1f
f 67//67 68//68 70//70
f 70//70 68//68 69//69
g 9ee68670-e34c-11ea-9fea-54bf646e7e1f
f 88//88 71//71 95//95
f 95//95 71//71 72//72
f 95//95 72//72 73//73
f 73//73 74//74 95//95
f 95//95 74//74 75//75
f 95//95 75//75 76//76
f 95//95 76//76 94//94
f 94//94 76//76 77//77
f 94//94 77//77 78//78
f 78//78 79//79 94//94
f 94//94 79//79 80//80
f 94//94 80//80 81//81
f 94//94 81//81 93//93
f 93//93 81//81 82//82
f 93//93 82//82 83//83
f 83//83 84//84 93//93
f 93//93 84//84 85//85
f 93//93 85//85 96//96
f 96//96 85//85 86//86
f 96//96 86//86 87//87
f 87//87 88//88 96//96
f 96//96 88//88 95//95
f 89//89 90//90 96//96
f 96//96 90//90 91//91
f 96//96 91//91 93//93
f 93//93 91//91 92//92
g 9ee7beee-e34c-11ea-af6e-54bf646e7e1f
f 114//114 97//97 118//118
f 118//118 97//97 98//98
f 118//118 98//98 117//117
f 117//117 98//98 99//99
f 117//117 99//99 100//100
f 100//100 101//101 117//117
f 117//117 101//101 102//102
f 117//117 102//102 120//120
f 120//120 102//102 103//103
f 120//120 103//103 104//104
f 104//104 105//105 120//120
f 120//120 105//105 119//119
f 119//119 105//105 106//106
f 119//119 106//106 107//107
f 107//107 108//108 119//119
f 119//119 108//108 109//109
f 119//119 109//109 110//110
f 110//110 111//111 119//119
f 119//119 111//111 118//118
f 118//118 111//111 112//112
f 118//118 112//112 113//113
f 113//113 114//114 118//118
f 116//116 117//117 115//115
f 115//115 117//117 120//120
f 115//115 120//120 122//122
f 122//122 120//120 121//121

# End of file