# WaveFront *.obj file
# Vertices: 136
# Triangles : 124

v 0.0 2.5 5.0
v 0.0 -2.5 5.0
v 2.0 -2.5 5.0
v 2.0 2.5 5.0
v 0.0 2.5 -2.5
v 0.0 2.5 5.0
v 2.0 2.5 5.0
v 2.0 2.5 -2.5
v 0.0 -2.5 -2.5
v 0.0 2.5 -2.5
v 2.0 2.5 -2.5
v 2.0 -2.5 -2.5
v 0.0 -2.5 5.0
v 0.0 -2.9054462909698486 4.978017330169678
v 0.0 -3.3061392307281494 4.912327289581299
v 0.0 -3.697380781173706 4.803699493408203
v 0.0 -4.074584007263184 4.653408050537109
v 0.0 -4.4333271980285645 4.46321439743042
v 0.0 -4.769403457641602 4.235349178314209
v 0.0 -5.078873157501221 3.9724831581115723
v 0.0 -5.358107566833496 3.6776986122131348
v 0.0 -5.6038336753845215 3.3544514179229736
v 0.0 -5.813169956207275 3.0065317153930664
v 0.0 -5.9836626052856445 2.6380181312561035
v 0.0 -6.113312244415283 2.2532312870025635
v 0.0 -6.200599670410156 1.856682538986206
v 0.0 -6.244500160217285 1.4530209302902222
v 0.0 -6.244500160217285 1.0469790697097778
v 0.0 -6.200599670410156 0.6433175206184387
v 0.0 -6.113312244415283 0.24676872789859772
v 0.0 -5.9836626052856445 -0.13801808655261993
v 0.0 -5.813169956207275 -0.5065316557884216
v 0.0 -5.6038336753845215 -0.8544514775276184
v 0.0 -5.358107566833496 -1.1776986122131348
v 0.0 -5.078873157501221 -1.4724830389022827
v 0.0 -4.769403457641602 -1.7353489398956299
v 0.0 -4.4333271980285645 -1.96321439743042
v 0.0 -4.074584007263184 -2.1534078121185303
v 0.0 -3.697380781173706 -2.303699493408203
v 0.0 -3.3061392307281494 -2.4123270511627197
v 0.0 -2.9054462909698486 -2.4780173301696777
v 0.0 -2.5 -2.5
v 2.0 -2.5 -2.5
v 2.0 -2.9054462909698486 -2.4780173301696777
v 2.0 -3.3061392307281494 -2.4123270511627197
v 2.0 -3.697380781173706 -2.303699493408203
v 2.0 -4.074584007263184 -2.1534078121185303
v 2.0 -4.4333271980285645 -1.96321439743042
v 2.0 -4.769403457641602 -1.7353489398956299
v 2.0 -5.078873157501221 -1.4724830389022827
v 2.0 -5.358107566833496 -1.1776986122131348
v 2.0 -5.6038336753845215 -0.8544514775276184
v 2.0 -5.813169956207275 -0.5065316557884216
v 2.0 -5.9836626052856445 -0.13801808655261993
v 2.0 -6.113312244415283 0.24676872789859772
v 2.0 -6.200599670410156 0.6433175206184387
v 2.0 -6.244500160217285 1.0469790697097778
v 2.0 -6.244500160217285 1.4530209302902222
v 2.0 -6.200599670410156 1.856682538986206
v 2.0 -6.113312244415283 2.2532312870025635
v 2.0 -5.9836626052856445 2.6380181312561035
v 2.0 -5.813169956207275 3.0065317153930664
v 2.0 -5.6038336753845215 3.3544514179229736
v 2.0 -5.358107566833496 3.6776986122131348
v 2.0 -5.078873157501221 3.9724831581115723
v 2.0 -4.769403457641602 4.235349178314209
v 2.0 -4.4333271980285645 4.46321439743042
v 2.0 -4.074584007263184 4.653408050537109
v 2.0 -3.697380781173706 4.803699493408203
v 2.0 -3.3061392307281494 4.912327289581299
v 2.0 -2.9054462909698486 4.978017330169678
v 2.0 -2.5 5.0
v 2.0 -2.5 5.0
v 2.0 -2.9054462909698486 4.978017330169678
v 2.0 -3.3061392307281494 4.912327289581299
v 2.0 -3.697380781173706 4.803699493408203
v 2.0 -4.074584007263184 4.653408050537109
v 2.0 -4.4333271980285645 4.46321439743042
v 2.0 -4.769403457641602 4.235349178314209
v 2.0 -5.078873157501221 3.9724831581115723
v 2.0 -5.358107566833496 3.6776986122131348
v 2.0 -5.6038336753845215 3.3544514179229736
v 2.0 -5.813169956207275 3.0065317153930664
v 2.0 -5.9836626052856445 2.6380181312561035
v 2.0 -6.113312244415283 2.2532312870025635
v 2.0 -6.200599670410156 1.856682538986206
v 2.0 -6.244500160217285 1.4530209302902222
v 2.0 -6.244500160217285 1.0469790697097778
v 2.0 -6.200599670410156 0.6433175206184387
v 2.0 -6.113312244415283 0.24676872789859772
v 2.0 -5.9836626052856445 -0.13801808655261993
v 2.0 -5.813169956207275 -0.5065316557884216
v 2.0 -5.6038336753845215 -0.8544514775276184
v 2.0 -5.358107566833496 -1.1776986122131348
v 2.0 -5.078873157501221 -1.4724830389022827
v 2.0 -4.769403457641602 -1.7353489398956299
v 2.0 -4.4333271980285645 -1.96321439743042
v 2.0 -4.074584007263184 -2.1534078121185303
v 2.0 -3.697380781173706 -2.303699493408203
v 2.0 -3.3061392307281494 -2.4123270511627197
v 2.0 -2.9054462909698486 -2.4780173301696777
v 2.0 -2.5 -2.5
v 2.0 2.5 -2.5
v 2.0 2.5 5.0
v 0.0 -2.5 -2.5
v 0.0 -2.9054462909698486 -2.4780173301696777
v 0.0 -3.3061392307281494 -2.4123270511627197
v 0.0 -3.697380781173706 -2.303699493408203
v 0.0 -4.074584007263184 -2.1534078121185303
v 0.0 -4.4333271980285645 -1.96321439743042
v 0.0 -4.769403457641602 -1.7353489398956299
v 0.0 -5.078873157501221 -1.4724830389022827
v 0.0 -5.358107566833496 -1.1776986122131348
v 0.0 -5.6038336753845215 -0.8544514775276184
v 0.0 -5.813169956207275 -0.5065316557884216
v 0.0 -5.9836626052856445 -0.13801808655261993
v 0.0 -6.113312244415283 0.24676872789859772
v 0.0 -6.200599670410156 0.6433175206184387
v 0.0 -6.244500160217285 1.0469790697097778
v 0.0 -6.244500160217285 1.4530209302902222
v 0.0 -6.200599670410156 1.856682538986206
v 0.0 -6.113312244415283 2.2532312870025635
v 0.0 -5.9836626052856445 2.6380181312561035
v 0.0 -5.813169956207275 3.0065317153930664
v 0.0 -5.6038336753845215 3.3544514179229736
v 0.0 -5.358107566833496 3.6776986122131348
v 0.0 -5.078873157501221 3.9724831581115723
v 0.0 -4.769403457641602 4.235349178314209
v 0.0 -4.4333271980285645 4.46321439743042
v 0.0 -4.074584007263184 4.653408050537109
v 0.0 -3.697380781173706 4.803699493408203
v 0.0 -3.3061392307281494 4.912327289581299
v 0.0 -2.9054462909698486 4.978017330169678
v 0.0 -2.5 5.0
v 0.0 2.5 5.0
v 0.0 2.5 -2.5
vn -0.0 0.0 1.0
vn -0.0 0.0 1.0
vn -0.0 0.0 1.0
vn -0.0 0.0 1.0
vn 0.0 1.0 0.0
vn 0.0 1.0 0.0
vn 0.0 1.0 0.0
vn 0.0 1.0 0.0
vn 0.0 0.0 -1.0
vn 0.0 0.0 -1.0
vn 0.0 0.0 -1.0
vn 0.0 0.0 -1.0
vn -0.0 -0.0 1.0
vn -0.0 -0.10811901837587357 0.9941379427909851
vn -0.0 -0.2149704396724701 0.9766205549240112
vn -0.0 -0.3193015158176422 0.9476531744003296
vn -0.0 -0.41988909244537354 0.9075754284858704
vn -0.0 -0.5155538320541382 0.856857180595398
vn -0.0 -0.6051742434501648 0.7960930466651917
vn -0.0 -0.6876994371414185 0.7259954810142517
vn -0.0 -0.7621620297431946 0.6473863124847412
vn -0.0 -0.827688992023468 0.5611870884895325
vn -0.0 -0.883512020111084 0.4684084355831146
vn -0.0 -0.9289767146110535 0.37013816833496094
vn -0.0 -0.9635499715805054 0.26752832531929016
vn -0.0 -0.9868265390396118 0.16178199648857117
vn -0.0 -0.9985334277153015 0.0541389100253582
vn 0.0 -0.9985334277153015 -0.0541389100253582
vn 0.0 -0.9868265390396118 -0.16178199648857117
vn 0.0 -0.9635499715805054 -0.26752832531929016
vn 0.0 -0.9289767146110535 -0.37013816833496094
vn 0.0 -0.883512020111084 -0.4684084355831146
vn 0.0 -0.827688992023468 -0.5611870884895325
vn 0.0 -0.7621620297431946 -0.6473863124847412
vn 0.0 -0.6876994371414185 -0.7259954810142517
vn 0.0 -0.6051742434501648 -0.7960930466651917
vn 0.0 -0.5155538320541382 -0.856857180595398
vn 0.0 -0.41988909244537354 -0.9075754284858704
vn 0.0 -0.3193015158176422 -0.9476531744003296
vn 0.0 -0.2149704396724701 -0.9766205549240112
vn 0.0 -0.10811901837587357 -0.9941379427909851
vn 0.0 -1.2246468525851679e-16 -1.0
vn 0.0 -1.2246468525851679e-16 -1.0
vn 0.0 -0.10811901837587357 -0.9941379427909851
vn 0.0 -0.2149704396724701 -0.9766205549240112
vn 0.0 -0.3193015158176422 -0.9476531744003296
vn 0.0 -0.41988909244537354 -0.9075754284858704
vn 0.0 -0.5155538320541382 -0.856857180595398
vn 0.0 -0.6051742434501648 -0.7960930466651917
vn 0.0 -0.6876994371414185 -0.7259954810142517
vn 0.0 -0.7621620297431946 -0.6473863124847412
vn 0.0 -0.827688992023468 -0.5611870884895325
vn 0.0 -0.883512020111084 -0.4684084355831146
vn 0.0 -0.9289767146110535 -0.37013816833496094
vn 0.0 -0.9635499715805054 -0.26752832531929016
vn 0.0 -0.9868265390396118 -0.16178199648857117
vn 0.0 -0.9985334277153015 -0.0541389100253582
vn -0.0 -0.9985334277153015 0.0541389100253582
vn -0.0 -0.9868265390396118 0.16178199648857117
vn -0.0 -0.9635499715805054 0.26752832531929016
vn -0.0 -0.9289767146110535 0.37013816833496094
vn -0.0 -0.883512020111084 0.4684084355831146
vn -0.0 -0.827688992023468 0.5611870884895325
vn -0.0 -0.7621620297431946 0.6473863124847412
vn -0.0 -0.6876994371414185 0.7259954810142517
vn -0.0 -0.6051742434501648 0.7960930466651917
vn -0.0 -0.5155538320541382 0.856857180595398
vn -0.0 -0.41988909244537354 0.9075754284858704
vn -0.0 -0.3193015158176422 0.9476531744003296
vn -0.0 -0.2149704396724701 0.9766205549240112
vn -0.0 -0.10811901837587357 0.9941379427909851
vn -0.0 -0.0 1.0
vn 1.0 0.0 0.0
vn 1.0 0.0 0.0
vn 1.0 0.0 0.0
vn 1.0 0.0 0.0
vn 1.0 0.0 0.0
vn 1.0 0.0 0.0
vn 1.0 0.0 0.0
vn 1.0 0.0 0.0
vn 1.0 0.0 0.0
vn 1.0 0.0 0.0
vn 1.0 0.0 0.0
vn 1.0 0.0 0.0
vn 1.0 0.0 0.0
vn 1.0 0.0 0.0
vn 1.0 0.0 0.0
vn 1.0 0.0 0.0
vn 1.0 0.0 0.0
vn 1.0 0.0 0.0
vn 1.0 0.0 0.0
vn 1.0 0.0 0.0
vn 1.0 0.0 0.0
vn 1.0 0.0 0.0
vn 1.0 0.0 0.0
vn 1.0 0.0 0.0
vn 1.0 0.0 0.0
vn 1.0 0.0 0.0
vn 1.0 0.0 0.0
vn 1.0 0.0 0.0
vn 1.0 0.0 0.0
vn 1.0 0.0 0.0
vn 1.0 0.0 0.0
vn 1.0 0.0 0.0
vn -1.0 -0.0 -0.0
vn -1.0 -0.0 -0.0
vn -1.0 -0.0 -0.0
vn -1.0 -0.0 -0.0
vn -1.0 -0.0 -0.0
vn -1.0 -0.0 -0.0
vn -1.0 -0.0 -0.0
vn -1.0 -0.0 -0.0
vn -1.0 -0.0 -0.0
vn -1.0 -0.0 -0.0
vn -1.0 -0.0 -0.0
vn -1.0 -0.0 -0.0
vn -1.0 -0.0 -0.0
vn -1.0 -0.0 -0.0
vn -1.0 -0.0 -0.0
vn -1.0 -0.0 -0.0
vn -1.0 -0.0 -0.0
vn -1.0 -0.0 -0.0
vn -1.0 -0.0 -0.0
vn -1.0 -0.0 -0.0
vn -1.0 -0.0 -0.0
vn -1.0 -0.0 -0.0
vn -1.0 -0.0 -0.0
vn -1.0 -0.0 -0.0
vn -1.0 -0.0 -0.0
vn -1.0 -0.0 -0.0
vn -1.0 -0.0 -0.0
vn -1.0 -0.0 -0.0
vn -1.0 -0.0 -0.0
vn -1.0 -0.0 -0.0
vn -1.0 -0.0 -0.0
vn -1.0 -0.0 -0.0
g ec4f25de-e31d-11ea-8e27-54bf646e7e1f
f 1//1 2//2 4//4
f 4//4 2//2 3//3
g ec4f4ce4-e31d-11ea-8500-54bf646e7e1f
f 5//5 6//6 8//8
f 8//8 6//6 7//7
g ec4f73f6-e31d-11ea-a22d-54bf646e7e1f
f 9//9 10//10 12//12
f 12//12 10//10 11//11
g ec4f9b0c-e31d-11ea-94cd-54bf646e7e1f
f 72//72 13//13 71//71
f 71//71 13//13 14//14
f 71//71 14//14 70//70
f 70//70 14//14 15//15
f 70//70 15//15 69//69
f 69//69 15//15 16//16
f 69//69 16//16 68//68
f 68//68 16//16 17//17
f 68//68 17//17 67//67
f 67//67 17//17 18//18
f 67//67 18//18 66//66
f 66//66 18//18 19//19
f 66//66 19//19 65//65
f 65//65 19//19 20//20
f 65//65 20//20 64//64
f 64//64 20//20 21//21
f 64//64 21//21 63//63
f 63//63 21//21 22//22
f 63//63 22//22 62//62
f 62//62 22//22 23//23
f 62//62 23//23 61//61
f 61//61 23//23 24//24
f 61//61 24//24 60//60
f 60//60 24//24 25//25
f 60//60 25//25 59//59
f 59//59 25//25 26//26
f 59//59 26//26 58//58
f 58//58 26//26 27//27
f 58//58 27//27 57//57
f 57//57 27//27 28//28
f 57//57 28//28 56//56
f 56//56 28//28 29//29
f 56//56 29//29 55//55
f 55//55 29//29 30//30
f 55//55 30//30 54//54
f 54//54 30//30 31//31
f 54//54 31//31 53//53
f 53//53 31//31 32//32
f 53//53 32//32 52//52
f 52//52 32//32 33//33
f 52//52 33//33 51//51
f 51//51 33//33 34//34
f 51//51 34//34 50//50
f 50//50 34//34 35//35
f 50//50 35//35 49//49
f 49//49 35//35 36//36
f 49//49 36//36 48//48
f 48//48 36//36 37//37
f 48//48 37//37 47//47
f 47//47 37//37 38//38
f 47//47 38//38 46//46
f 46//46 38//38 39//39
f 46//46 39//39 45//45
f 45//45 39//39 40//40
f 45//45 40//40 44//44
f 44//44 40//40 41//41
f 44//44 41//41 43//43
f 43//43 41//41 42//42
g ec4fe92c-e31d-11ea-9a1c-54bf646e7e1f
f 74//74 87//87 73//73
f 73//73 87//87 88//88
f 73//73 88//88 89//89
f 74//74 75//75 87//87
f 87//87 75//75 76//76
f 87//87 76//76 77//77
f 77//77 78//78 87//87
f 87//87 78//78 79//79
f 87//87 79//79 80//80
f 80//80 81//81 87//87
f 87//87 81//81 82//82
f 87//87 82//82 83//83
f 83//83 84//84 87//87
f 87//87 84//84 85//85
f 87//87 85//85 86//86
f 89//89 90//90 73//73
f 73//73 90//90 91//91
f 73//73 91//91 92//92
f 92//92 93//93 73//73
f 73//73 93//93 94//94
f 73//73 94//94 95//95
f 95//95 96//96 73//73
f 73//73 96//96 97//97
f 73//73 97//97 98//98
f 98//98 99//99 73//73
f 73//73 99//99 100//100
f 73//73 100//100 101//101
f 101//101 102//102 73//73
f 73//73 102//102 104//104
f 104//104 102//102 103//103
g ec50103e-e31d-11ea-aa4f-54bf646e7e1f
f 106//106 119//119 105//105
f 105//105 119//119 120//120
f 105//105 120//120 121//121
f 106//106 107//107 119//119
f 119//119 107//107 108//108
f 119//119 108//108 109//109
f 109//109 110//110 119//119
f 119//119 110//110 111//111
f 119//119 111//111 112//112
f 112//112 113//113 119//119
f 119//119 113//113 114//114
f 119//119 114//114 115//115
f 115//115 116//116 119//119
f 119//119 116//116 117//117
f 119//119 117//117 118//118
f 121//121 122//122 105//105
f 105//105 122//122 123//123
f 105//105 123//123 124//124
f 124//124 125//125 105//105
f 105//105 125//125 126//126
f 105//105 126//126 127//127
f 127//127 128//128 105//105
f 105//105 128//128 129//129
f 105//105 129//129 130//130
f 130//130 131//131 105//105
f 105//105 131//131 132//132
f 105//105 132//132 133//133
f 133//133 134//134 105//105
f 105//105 134//134 136//136
f 136//136 134//134 135//135

# End of file