# WaveFront *.obj file
# Vertices: 164
# Triangles : 158

v 17.5 -1.774476426257346e-15 9.489700317382812
v 17.5 1.5666121244430542 9.404760360717773
v 17.5 3.1148571968078613 9.150938987731934
v 17.5 4.626583576202393 8.731209754943848
v 17.5 6.084066867828369 8.150495529174805
v 17.5 7.470220565795898 7.415603160858154
v 17.5 8.768793106079102 6.535149574279785
v 17.5 9.964558601379395 5.51945686340332
v 17.5 11.043498992919922 4.380433082580566
v 17.5 11.992964744567871 3.131432056427002
v 17.5 12.801824569702148 1.787097692489624
v 17.5 13.460594177246094 0.36319079995155334
v 17.5 13.961549758911133 -1.1235946416854858
v 17.5 14.298820495605469 -2.655827522277832
v 17.5 14.468449592590332 -4.215543270111084
v 17.5 14.468449592590332 -5.784456729888916
v 17.5 14.298820495605469 -7.344172477722168
v 17.5 13.961549758911133 -8.876405715942383
v 17.5 13.460594177246094 -10.363190650939941
v 17.5 12.801824569702148 -11.787097930908203
v 17.5 11.992964744567871 -13.13143253326416
v 17.5 11.043498992919922 -14.380433082580566
v 17.5 9.964558601379395 -15.51945686340332
v 17.5 8.768793106079102 -16.5351505279541
v 17.5 7.470220565795898 -17.415603637695312
v 17.5 6.084066867828369 -18.150495529174805
v 17.5 4.626583576202393 -18.731210708618164
v 17.5 3.1148571968078613 -19.150938034057617
v 17.5 1.5666121244430542 -19.404760360717773
v 17.5 0.0 -19.489700317382812
v 17.5 -1.5666121244430542 -19.404760360717773
v 17.5 -3.1148571968078613 -19.150938034057617
v 17.5 -4.626583576202393 -18.731210708618164
v 17.5 -6.084066867828369 -18.150495529174805
v 17.5 -7.470220565795898 -17.415603637695312
v 17.5 -8.768793106079102 -16.5351505279541
v 17.5 -9.964558601379395 -15.51945686340332
v 17.5 -11.043498992919922 -14.380433082580566
v 17.5 -11.992964744567871 -13.13143253326416
v 17.5 -12.801824569702148 -11.787097930908203
v 17.5 -13.460594177246094 -10.363190650939941
v 17.5 -13.961549758911133 -8.876405715942383
v 17.5 -14.298820495605469 -7.344172477722168
v 17.5 -14.468449592590332 -5.784456729888916
v 17.5 -14.468449592590332 -4.215543270111084
v 17.5 -14.298820495605469 -2.655827522277832
v 17.5 -13.961549758911133 -1.1235946416854858
v 17.5 -13.460594177246094 0.36319079995155334
v 17.5 -12.801824569702148 1.787097692489624
v 17.5 -11.992964744567871 3.131432056427002
v 17.5 -11.043498992919922 4.380433082580566
v 17.5 -9.964558601379395 5.51945686340332
v 17.5 -8.768793106079102 6.535149574279785
v 17.5 -7.470220565795898 7.415603160858154
v 17.5 -6.084066867828369 8.150495529174805
v 17.5 -4.626583576202393 8.731209754943848
v 17.5 -3.1148571968078613 9.150938987731934
v 17.5 -1.5666121244430542 9.404760360717773
v 0.0 -2.738393461606517e-16 -2.7639319896698
v 0.0 -0.6032839417457581 -2.8468515872955322
v 0.0 -1.1618250608444214 -3.0894601345062256
v 0.0 -1.6341989040374756 -3.473764657974243
v 0.0 -1.985371708869934 -3.9712634086608887
v 0.0 -2.189298629760742 -4.545058727264404
v 0.0 -2.2308552265167236 -5.152594566345215
v 0.0 -2.106959581375122 -5.748813629150391
v 0.0 -1.8268002271652222 -6.289496421813965
v 0.0 -1.4111555814743042 -6.734543323516846
v 0.0 -0.8908519148826599 -7.0509467124938965
v 0.0 -0.30447787046432495 -7.215240955352783
v 0.0 0.30447787046432495 -7.215240955352783
v 0.0 0.8908519148826599 -7.0509467124938965
v 0.0 1.4111555814743042 -6.734543323516846
v 0.0 1.8268002271652222 -6.289496421813965
v 0.0 2.106959581375122 -5.748813629150391
v 0.0 2.2308552265167236 -5.152594566345215
v 0.0 2.189298629760742 -4.545058727264404
v 0.0 1.985371708869934 -3.9712634086608887
v 0.0 1.6341989040374756 -3.473764657974243
v 0.0 1.1618250608444214 -3.0894601345062256
v 0.0 0.6032839417457581 -2.8468515872955322
v 0.0 -2.738393461606517e-16 -2.7639319896698
v 17.5 -1.774476426257346e-15 9.489700317382812
v 17.5 -1.774476426257346e-15 9.489700317382812
v 17.5 -1.5666121244430542 9.404760360717773
v 17.5 -3.1148571968078613 9.150938987731934
v 17.5 -4.626583576202393 8.731209754943848
v 17.5 -6.084066867828369 8.150495529174805
v 17.5 -7.470220565795898 7.415603160858154
v 17.5 -8.768793106079102 6.535149574279785
v 17.5 -9.964558601379395 5.51945686340332
v 17.5 -11.043498992919922 4.380433082580566
v 17.5 -11.992964744567871 3.131432056427002
v 17.5 -12.801824569702148 1.787097692489624
v 17.5 -13.460594177246094 0.36319079995155334
v 17.5 -13.961549758911133 -1.1235946416854858
v 17.5 -14.298820495605469 -2.655827522277832
v 17.5 -14.468449592590332 -4.215543270111084
v 17.5 -14.468449592590332 -5.784456729888916
v 17.5 -14.298820495605469 -7.344172477722168
v 17.5 -13.961549758911133 -8.876405715942383
v 17.5 -13.460594177246094 -10.363190650939941
v 17.5 -12.801824569702148 -11.787097930908203
v 17.5 -11.992964744567871 -13.13143253326416
v 17.5 -11.043498992919922 -14.380433082580566
v 17.5 -9.964558601379395 -15.51945686340332
v 17.5 -8.768793106079102 -16.5351505279541
v 17.5 -7.470220565795898 -17.415603637695312
v 17.5 -6.084066867828369 -18.150495529174805
v 17.5 -4.626583576202393 -18.731210708618164
v 17.5 -3.1148571968078613 -19.150938034057617
v 17.5 -1.5666121244430542 -19.404760360717773
v 17.5 0.0 -19.489700317382812
v 17.5 1.5666121244430542 -19.404760360717773
v 17.5 3.1148571968078613 -19.150938034057617
v 17.5 4.626583576202393 -18.731210708618164
v 17.5 6.084066867828369 -18.150495529174805
v 17.5 7.470220565795898 -17.415603637695312
v 17.5 8.768793106079102 -16.5351505279541
v 17.5 9.964558601379395 -15.51945686340332
v 17.5 11.043498992919922 -14.380433082580566
v 17.5 11.992964744567871 -13.13143253326416
v 17.5 12.801824569702148 -11.787097930908203
v 17.5 13.460594177246094 -10.363190650939941
v 17.5 13.961549758911133 -8.876405715942383
v 17.5 14.298820495605469 -7.344172477722168
v 17.5 14.468449592590332 -5.784456729888916
v 17.5 14.468449592590332 -4.215543270111084
v 17.5 14.298820495605469 -2.655827522277832
v 17.5 13.961549758911133 -1.1235946416854858
v 17.5 13.460594177246094 0.36319079995155334
v 17.5 12.801824569702148 1.787097692489624
v 17.5 11.992964744567871 3.131432056427002
v 17.5 11.043498992919922 4.380433082580566
v 17.5 9.964558601379395 5.51945686340332
v 17.5 8.768793106079102 6.535149574279785
v 17.5 7.470220565795898 7.415603160858154
v 17.5 6.084066867828369 8.150495529174805
v 17.5 4.626583576202393 8.731209754943848
v 17.5 3.1148571968078613 9.150938987731934
v 17.5 1.5666121244430542 9.404760360717773
v 0.0 -2.738393461606517e-16 -2.7639319896698
v 0.0 0.6032839417457581 -2.8468515872955322
v 0.0 1.1618250608444214 -3.0894601345062256
v 0.0 1.6341989040374756 -3.473764657974243
v 0.0 1.985371708869934 -3.9712634086608887
v 0.0 2.189298629760742 -4.545058727264404
v 0.0 2.2308552265167236 -5.152594566345215
v 0.0 2.106959581375122 -5.748813629150391
v 0.0 1.8268002271652222 -6.289496421813965
v 0.0 1.4111555814743042 -6.734543323516846
v 0.0 0.8908519148826599 -7.0509467124938965
v 0.0 0.30447787046432495 -7.215240955352783
v 0.0 -0.30447787046432495 -7.215240955352783
v 0.0 -0.8908519148826599 -7.0509467124938965
v 0.0 -1.4111555814743042 -6.734543323516846
v 0.0 -1.8268002271652222 -6.289496421813965
v 0.0 -2.106959581375122 -5.748813629150391
v 0.0 -2.2308552265167236 -5.152594566345215
v 0.0 -2.189298629760742 -4.545058727264404
v 0.0 -1.985371708869934 -3.9712634086608887
v 0.0 -1.6341989040374756 -3.473764657974243
v 0.0 -1.1618250608444214 -3.0894601345062256
v 0.0 -0.6032839417457581 -2.8468515872955322
vn -0.5735764503479004 1.0031719567265039e-16 0.8191520571708679
vn -0.5735764503479004 0.08856591582298279 0.8143501281738281
vn -0.5735764503479004 0.1760934740304947 0.8000007271766663
vn -0.5735764503479004 0.2615565061569214 0.7762720584869385
vn -0.5735764503479004 0.343953013420105 0.7434422373771667
vn -0.5735764503479004 0.4223169982433319 0.7018963098526001
vn -0.5735764503479004 0.4957296848297119 0.6521212458610535
vn -0.5735764503479004 0.5633304119110107 0.5947006940841675
vn -0.5735764503479004 0.6243265867233276 0.5303077697753906
vn -0.5735764503479004 0.6780031323432922 0.45969754457473755
vn -0.5735764503479004 0.7237306833267212 0.3836977183818817
vn -0.5735764503479004 0.7609731554985046 0.30319944024086
vn -0.5735764503479004 0.7892939448356628 0.21914638578891754
vn -0.5735764503479004 0.8083609342575073 0.1325240582227707
vn -0.5735764503479004 0.8179506659507751 0.04434799775481224
vn -0.5735764503479004 0.8179506659507751 -0.04434799775481224
vn -0.5735764503479004 0.8083609342575073 -0.1325240582227707
vn -0.5735764503479004 0.7892939448356628 -0.21914638578891754
vn -0.5735764503479004 0.7609731554985046 -0.30319944024086
vn -0.5735764503479004 0.7237306833267212 -0.3836977183818817
vn -0.5735764503479004 0.6780031323432922 -0.45969754457473755
vn -0.5735764503479004 0.6243265867233276 -0.5303077697753906
vn -0.5735764503479004 0.5633304119110107 -0.5947006940841675
vn -0.5735764503479004 0.4957296848297119 -0.6521212458610535
vn -0.5735764503479004 0.4223169982433319 -0.7018963098526001
vn -0.5735764503479004 0.343953013420105 -0.7434422373771667
vn -0.5735764503479004 0.2615565061569214 -0.7762720584869385
vn -0.5735764503479004 0.1760934740304947 -0.8000007271766663
vn -0.5735764503479004 0.08856591582298279 -0.8143501281738281
vn -0.5735764503479004 -0.0 -0.8191520571708679
vn -0.5735764503479004 -0.08856591582298279 -0.8143501281738281
vn -0.5735764503479004 -0.1760934740304947 -0.8000007271766663
vn -0.5735764503479004 -0.2615565061569214 -0.7762720584869385
vn -0.5735764503479004 -0.343953013420105 -0.7434422373771667
vn -0.5735764503479004 -0.4223169982433319 -0.7018963098526001
vn -0.5735764503479004 -0.4957296848297119 -0.6521212458610535
vn -0.5735764503479004 -0.5633304119110107 -0.5947006940841675
vn -0.5735764503479004 -0.6243265867233276 -0.5303077697753906
vn -0.5735764503479004 -0.6780031323432922 -0.45969754457473755
vn -0.5735764503479004 -0.7237306833267212 -0.3836977183818817
vn -0.5735764503479004 -0.7609731554985046 -0.30319944024086
vn -0.5735764503479004 -0.7892939448356628 -0.21914638578891754
vn -0.5735764503479004 -0.8083609342575073 -0.1325240582227707
vn -0.5735764503479004 -0.8179506659507751 -0.04434799775481224
vn -0.5735764503479004 -0.8179506659507751 0.04434799775481224
vn -0.5735764503479004 -0.8083609342575073 0.1325240582227707
vn -0.5735764503479004 -0.7892939448356628 0.21914638578891754
vn -0.5735764503479004 -0.7609731554985046 0.30319944024086
vn -0.5735764503479004 -0.7237306833267212 0.3836977183818817
vn -0.5735764503479004 -0.6780031323432922 0.45969754457473755
vn -0.5735764503479004 -0.6243265867233276 0.5303077697753906
vn -0.5735764503479004 -0.5633304119110107 0.5947006940841675
vn -0.5735764503479004 -0.4957296848297119 0.6521212458610535
vn -0.5735764503479004 -0.4223169982433319 0.7018963098526001
vn -0.5735764503479004 -0.343953013420105 0.7434422373771667
vn -0.5735764503479004 -0.2615565061569214 0.7762720584869385
vn -0.5735764503479004 -0.1760934740304947 0.8000007271766663
vn -0.5735764503479004 -0.08856591582298279 0.8143501281738281
vn -0.5735764503479004 -1.0031719567265039e-16 0.8191520571708679
vn -0.5735764503479004 -0.22100457549095154 0.7887756824493408
vn -0.5735764503479004 -0.4256182610988617 0.6998993754386902
vn -0.5735764503479004 -0.5986657738685608 0.5591148138046265
vn -0.5735764503479004 -0.7273129820823669 0.3768632113933563
vn -0.5735764503479004 -0.8020187616348267 0.16666141152381897
vn -0.5735764503479004 -0.8172423839569092 -0.05590091273188591
vn -0.5735764503479004 -0.7718549370765686 -0.27431732416152954
vn -0.5735764503479004 -0.6692225337028503 -0.4723888635635376
vn -0.5735764503479004 -0.5169569849967957 -0.6354255080223083
vn -0.5735764503479004 -0.3263510763645172 -0.7513355016708374
vn -0.5735764503479004 -0.11154118925333023 -0.8115224242210388
vn -0.5735764503479004 0.11154118925333023 -0.8115224242210388
vn -0.5735764503479004 0.3263510763645172 -0.7513355016708374
vn -0.5735764503479004 0.5169569849967957 -0.6354255080223083
vn -0.5735764503479004 0.6692225337028503 -0.4723888635635376
vn -0.5735764503479004 0.7718549370765686 -0.27431732416152954
vn -0.5735764503479004 0.8172423839569092 -0.05590091273188591
vn -0.5735764503479004 0.8020187616348267 0.16666141152381897
vn -0.5735764503479004 0.7273129820823669 0.3768632113933563
vn -0.5735764503479004 0.5986657738685608 0.5591148138046265
vn -0.5735764503479004 0.4256182610988617 0.6998993754386902
vn -0.5735764503479004 0.22100457549095154 0.7887756824493408
vn -0.5735764503479004 1.0031719567265039e-16 0.8191520571708679
vn -0.5735764503479004 -1.0031719567265039e-16 0.8191520571708679
vn 1.0 0.0 0.0
vn 1.0 0.0 0.0
vn 1.0 0.0 0.0
vn 1.0 0.0 0.0
vn 1.0 0.0 0.0
vn 1.0 0.0 0.0
vn 1.0 0.0 0.0
vn 1.0 0.0 0.0
vn 1.0 0.0 0.0
vn 1.0 0.0 0.0
vn 1.0 0.0 0.0
vn 1.0 0.0 0.0
vn 1.0 0.0 0.0
vn 1.0 0.0 0.0
vn 1.0 0.0 0.0
vn 1.0 0.0 0.0
vn 1.0 0.0 0.0
vn 1.0 0.0 0.0
vn 1.0 0.0 0.0
vn 1.0 0.0 0.0
vn 1.0 0.0 0.0
vn 1.0 0.0 0.0
vn 1.0 0.0 0.0
vn 1.0 0.0 0.0
vn 1.0 0.0 0.0
vn 1.0 0.0 0.0
vn 1.0 0.0 0.0
vn 1.0 0.0 0.0
vn 1.0 0.0 0.0
vn 1.0 0.0 0.0
vn 1.0 0.0 0.0
vn 1.0 0.0 0.0
vn 1.0 0.0 0.0
vn 1.0 0.0 0.0
vn 1.0 0.0 0.0
vn 1.0 0.0 0.0
vn 1.0 0.0 0.0
vn 1.0 0.0 0.0
vn 1.0 0.0 0.0
vn 1.0 0.0 0.0
vn 1.0 0.0 0.0
vn 1.0 0.0 0.0
vn 1.0 0.0 0.0
vn 1.0 0.0 0.0
vn 1.0 0.0 0.0
vn 1.0 0.0 0.0
vn 1.0 0.0 0.0
vn 1.0 0.0 0.0
vn 1.0 0.0 0.0
vn 1.0 0.0 0.0
vn 1.0 0.0 0.0
vn 1.0 0.0 0.0
vn 1.0 0.0 0.0
vn 1.0 0.0 0.0
vn 1.0 0.0 0.0
vn 1.0 0.0 0.0
vn 1.0 0.0 0.0
vn 1.0 0.0 0.0
vn -1.0 -0.0 -0.0
vn -1.0 -0.0 -0.0
vn -1.0 -0.0 -0.0
vn -1.0 -0.0 -0.0
vn -1.0 -0.0 -0.0
vn -1.0 -0.0 -0.0
vn -1.0 -0.0 -0.0
vn -1.0 -0.0 -0.0
vn -1.0 -0.0 -0.0
vn -1.0 -0.0 -0.0
vn -1.0 -0.0 -0.0
vn -1.0 -0.0 -0.0
vn -1.0 -0.0 -0.0
vn -1.0 -0.0 -0.0
vn -1.0 -0.0 -0.0
vn -1.0 -0.0 -0.0
vn -1.0 -0.0 -0.0
vn -1.0 -0.0 -0.0
vn -1.0 -0.0 -0.0
vn -1.0 -0.0 -0.0
vn -1.0 -0.0 -0.0
vn -1.0 -0.0 -0.0
vn -1.0 -0.0 -0.0
f 58//58 83//83 59//59
f 82//82 1//1 2//2
f 82//82 2//2 81//81
f 81//81 2//2 3//3
f 81//81 3//3 4//4
f 4//4 5//5 81//81
f 81//81 5//5 80//80
f 80//80 5//5 6//6
f 80//80 6//6 7//7
f 80//80 7//7 79//79
f 79//79 7//7 8//8
f 79//79 8//8 9//9
f 9//9 10//10 79//79
f 79//79 10//10 78//78
f 78//78 10//10 11//11
f 78//78 11//11 12//12
f 78//78 12//12 77//77
f 77//77 12//12 13//13
f 77//77 13//13 14//14
f 14//14 15//15 77//77
f 77//77 15//15 76//76
f 76//76 15//15 16//16
f 76//76 16//16 17//17
f 76//76 17//17 75//75
f 75//75 17//17 18//18
f 75//75 18//18 19//19
f 19//19 20//20 75//75
f 75//75 20//20 74//74
f 74//74 20//20 21//21
f 74//74 21//21 22//22
f 74//74 22//22 73//73
f 73//73 22//22 23//23
f 73//73 23//23 24//24
f 24//24 25//25 73//73
f 73//73 25//25 72//72
f 72//72 25//25 26//26
f 72//72 26//26 27//27
f 72//72 27//27 71//71
f 71//71 27//27 28//28
f 71//71 28//28 29//29
f 29//29 30//30 71//71
f 71//71 30//30 70//70
f 70//70 30//30 31//31
f 70//70 31//31 32//32
f 32//32 33//33 70//70
f 70//70 33//33 69//69
f 69//69 33//33 34//34
f 69//69 34//34 35//35
f 69//69 35//35 68//68
f 68//68 35//35 36//36
f 68//68 36//36 37//37
f 37//37 38//38 68//68
f 68//68 38//38 67//67
f 67//67 38//38 39//39
f 67//67 39//39 40//40
f 67//67 40//40 66//66
f 66//66 40//40 41//41
f 66//66 41//41 42//42
f 42//42 43//43 66//66
f 66//66 43//43 65//65
f 65//65 43//43 44//44
f 65//65 44//44 45//45
f 65//65 45//45 64//64
f 64//64 45//45 46//46
f 64//64 46//46 47//47
f 47//47 48//48 64//64
f 64//64 48//48 63//63
f 63//63 48//48 49//49
f 63//63 49//49 50//50
f 63//63 50//50 62//62
f 62//62 50//50 51//51
f 62//62 51//51 52//52
f 52//52 53//53 62//62
f 62//62 53//53 61//61
f 61//61 53//53 54//54
f 61//61 54//54 55//55
f 61//61 55//55 60//60
f 60//60 55//55 56//56
f 60//60 56//56 57//57
f 57//57 58//58 60//60
f 60//60 58//58 59//59
f 85//85 112//112 84//84
f 84//84 112//112 113//113
f 84//84 113//113 141//141
f 141//141 113//113 114//114
f 141//141 114//114 140//140
f 140//140 114//114 115//115
f 140//140 115//115 139//139
f 139//139 115//115 116//116
f 139//139 116//116 138//138
f 138//138 116//116 117//117
f 138//138 117//117 137//137
f 137//137 117//117 118//118
f 137//137 118//118 136//136
f 136//136 118//118 119//119
f 136//136 119//119 135//135
f 135//135 119//119 120//120
f 135//135 120//120 134//134
f 134//134 120//120 121//121
f 134//134 121//121 133//133
f 133//133 121//121 122//122
f 133//133 122//122 132//132
f 132//132 122//122 123//123
f 132//132 123//123 131//131
f 131//131 123//123 124//124
f 131//131 124//124 130//130
f 130//130 124//124 125//125
f 130//130 125//125 129//129
f 129//129 125//125 126//126
f 129//129 126//126 128//128
f 128//128 126//126 127//127
f 112//112 85//85 111//111
f 111//111 85//85 86//86
f 111//111 86//86 110//110
f 110//110 86//86 87//87
f 110//110 87//87 109//109
f 109//109 87//87 88//88
f 109//109 88//88 108//108
f 108//108 88//88 89//89
f 108//108 89//89 107//107
f 107//107 89//89 90//90
f 107//107 90//90 106//106
f 106//106 90//90 91//91
f 106//106 91//91 105//105
f 105//105 91//91 92//92
f 105//105 92//92 104//104
f 104//104 92//92 93//93
f 104//104 93//93 103//103
f 103//103 93//93 94//94
f 103//103 94//94 102//102
f 102//102 94//94 95//95
f 102//102 95//95 101//101
f 101//101 95//95 96//96
f 101//101 96//96 100//100
f 100//100 96//96 97//97
f 100//100 97//97 99//99
f 99//99 97//97 98//98
f 142//142 143//143 164//164
f 164//164 143//143 144//144
f 164//164 144//144 163//163
f 163//163 144//144 145//145
f 163//163 145//145 162//162
f 162//162 145//145 146//146
f 162//162 146//146 161//161
f 161//161 146//146 147//147
f 161//161 147//147 160//160
f 160//160 147//147 148//148
f 160//160 148//148 149//149
f 149//149 150//150 160//160
f 160//160 150//150 151//151
f 160//160 151//151 152//152
f 152//152 153//153 160//160
f 160//160 153//153 154//154
f 160//160 154//154 155//155
f 155//155 156//156 160//160
f 160//160 156//156 157//157
f 160//160 157//157 158//158
f 158//158 159//159 160//160

# End of file