# WaveFront *.obj file
# Vertices: 36
# Triangles : 20

v 0.0 -9.654977798461914 18.671464920043945
v 0.0 -15.658641815185547 18.574745178222656
v 4.5 -15.658641815185547 18.574745178222656
v 4.5 -9.654977798461914 18.671464920043945
v 0.0 -6.5693840980529785 13.520499229431152
v 0.0 -9.654977798461914 18.671464920043945
v 4.5 -9.654977798461914 18.671464920043945
v 4.5 -6.5693840980529785 13.520499229431152
v 0.0 -9.487454414367676 8.27281379699707
v 0.0 -6.5693840980529785 13.520499229431152
v 4.5 -6.5693840980529785 13.520499229431152
v 4.5 -9.487454414367676 8.27281379699707
v 0.0 -15.491118431091309 8.176094055175781
v 0.0 -9.487454414367676 8.27281379699707
v 4.5 -9.487454414367676 8.27281379699707
v 4.5 -15.491118431091309 8.176094055175781
v 0.0 -18.576711654663086 13.327059745788574
v 0.0 -15.491118431091309 8.176094055175781
v 4.5 -15.491118431091309 8.176094055175781
v 4.5 -18.576711654663086 13.327059745788574
v 0.0 -15.658641815185547 18.574745178222656
v 0.0 -18.576711654663086 13.327059745788574
v 4.5 -18.576711654663086 13.327059745788574
v 4.5 -15.658641815185547 18.574745178222656
v 4.5 -15.658641815185547 18.574745178222656
v 4.5 -18.576711654663086 13.327059745788574
v 4.5 -15.491118431091309 8.176094055175781
v 4.5 -9.487454414367676 8.27281379699707
v 4.5 -6.5693840980529785 13.520499229431152
v 4.5 -9.654977798461914 18.671464920043945
v 0.0 -18.576711654663086 13.327059745788574
v 0.0 -15.658641815185547 18.574745178222656
v 0.0 -9.654977798461914 18.671464920043945
v 0.0 -6.5693840980529785 13.520499229431152
v 0.0 -9.487454414367676 8.27281379699707
v 0.0 -15.491118431091309 8.176094055175781
vn 0.0 -0.01610800251364708 0.999870240688324
vn 0.0 -0.01610800251364708 0.999870240688324
vn 0.0 -0.01610800251364708 0.999870240688324
vn 0.0 -0.01610800251364708 0.999870240688324
vn -0.0 0.8578590154647827 0.5138850808143616
vn -0.0 0.8578590154647827 0.5138850808143616
vn -0.0 0.8578590154647827 0.5138850808143616
vn -0.0 0.8578590154647827 0.5138850808143616
vn 0.0 0.8739670515060425 -0.4859851896762848
vn 0.0 0.8739670515060425 -0.4859851896762848
vn 0.0 0.8739670515060425 -0.4859851896762848
vn 0.0 0.8739670515060425 -0.4859851896762848
vn 0.0 0.01610800251364708 -0.999870240688324
vn 0.0 0.01610800251364708 -0.999870240688324
vn 0.0 0.01610800251364708 -0.999870240688324
vn 0.0 0.01610800251364708 -0.999870240688324
vn 0.0 -0.8578590154647827 -0.5138850808143616
vn 0.0 -0.8578590154647827 -0.5138850808143616
vn 0.0 -0.8578590154647827 -0.5138850808143616
vn 0.0 -0.8578590154647827 -0.5138850808143616
vn 0.0 -0.8739670515060425 0.4859851896762848
vn 0.0 -0.8739670515060425 0.4859851896762848
vn 0.0 -0.8739670515060425 0.4859851896762848
vn 0.0 -0.8739670515060425 0.4859851896762848
vn 1.0 0.0 0.0
vn 1.0 0.0 0.0
vn 1.0 0.0 0.0
vn 1.0 0.0 0.0
vn 1.0 0.0 0.0
vn 1.0 0.0 0.0
vn -1.0 -0.0 -0.0
vn -1.0 -0.0 -0.0
vn -1.0 -0.0 -0.0
vn -1.0 -0.0 -0.0
vn -1.0 -0.0 -0.0
vn -1.0 -0.0 -0.0
g fba50ea4-e328-11ea-a911-54bf646e7e1f
f 1//1 2//2 4//4
f 4//4 2//2 3//3
g fba535ae-e328-11ea-871c-54bf646e7e1f
f 5//5 6//6 8//8
f 8//8 6//6 7//7
g fba535af-e328-11ea-bea1-54bf646e7e1f
f 9//9 10//10 12//12
f 12//12 10//10 11//11
g fba55cb6-e328-11ea-90bc-54bf646e7e1f
f 13//13 14//14 16//16
f 16//16 14//14 15//15
g fba583d2-e328-11ea-ad6f-54bf646e7e1f
f 17//17 18//18 20//20
f 20//20 18//18 19//19
g fba5d1f8-e328-11ea-8b68-54bf646e7e1f
f 21//21 22//22 24//24
f 24//24 22//22 23//23
g fba5f902-e328-11ea-bd0a-54bf646e7e1f
f 30//30 25//25 29//29
f 29//29 25//25 26//26
f 29//29 26//26 28//28
f 28//28 26//26 27//27
g fba62014-e328-11ea-9202-54bf646e7e1f
f 32//32 34//34 31//31
f 31//31 34//34 35//35
f 31//31 35//35 36//36
f 32//32 33//33 34//34

# End of file