# WaveFront *.obj file
# Vertices: 24
# Triangles : 12

v 0.07724630832672119 -3.0451972484588623 -4.49405574798584
v 0.07724630832672119 -3.0451972484588623 -0.4940555691719055
v 0.07724630832672119 -3.245197296142578 -0.4940555691719055
v 0.07724630832672119 -3.245197296142578 -4.49405574798584
v -1.7727537155151367 -3.245197296142578 -0.4940555691719055
v -1.7727537155151367 -3.245197296142578 -4.49405574798584
v 0.07724630832672119 -3.245197296142578 -4.49405574798584
v 0.07724630832672119 -3.245197296142578 -0.4940555691719055
v -1.7727537155151367 -3.0451972484588623 -4.49405574798584
v -1.7727537155151367 -3.0451972484588623 -0.4940555691719055
v 0.07724630832672119 -3.0451972484588623 -0.4940555691719055
v 0.07724630832672119 -3.0451972484588623 -4.49405574798584
v -1.7727537155151367 -3.0451972484588623 -0.4940555691719055
v -1.7727537155151367 -3.0451972484588623 -4.49405574798584
v -1.7727537155151367 -3.245197296142578 -4.49405574798584
v -1.7727537155151367 -3.245197296142578 -0.4940555691719055
v 0.07724630832672119 -3.0451972484588623 -0.4940555691719055
v -1.7727537155151367 -3.0451972484588623 -0.4940555691719055
v -1.7727537155151367 -3.245197296142578 -0.4940555691719055
v 0.07724630832672119 -3.245197296142578 -0.4940555691719055
v -1.7727537155151367 -3.0451972484588623 -4.49405574798584
v 0.07724630832672119 -3.0451972484588623 -4.49405574798584
v 0.07724630832672119 -3.245197296142578 -4.49405574798584
v -1.7727537155151367 -3.245197296142578 -4.49405574798584
vn 1.0 3.3306690738754696e-15 -1.3877787807814457e-17
vn 1.0 3.3306690738754696e-15 -1.3877787807814457e-17
vn 1.0 3.3306690738754696e-15 -1.3877787807814457e-17
vn 1.0 3.3306690738754696e-15 -1.3877787807814457e-17
vn 3.3306690738754696e-15 -1.0 -3.608224830031759e-15
vn 3.3306690738754696e-15 -1.0 -3.608224830031759e-15
vn 3.3306690738754696e-15 -1.0 -3.608224830031759e-15
vn 3.3306690738754696e-15 -1.0 -3.608224830031759e-15
vn -3.307441948154099e-15 1.0 3.55188104541335e-15
vn -3.307441948154099e-15 1.0 3.55188104541335e-15
vn -3.307441948154099e-15 1.0 3.55188104541335e-15
vn -3.307441948154099e-15 1.0 3.55188104541335e-15
vn -1.0 -3.3306690738754696e-15 -8.250023724127497e-32
vn -1.0 -3.3306690738754696e-15 -8.250023724127497e-32
vn -1.0 -3.3306690738754696e-15 -8.250023724127497e-32
vn -1.0 -3.3306690738754696e-15 -8.250023724127497e-32
vn 1.1933994055423741e-29 -3.608224830031759e-15 1.0
vn 1.1933994055423741e-29 -3.608224830031759e-15 1.0
vn 1.1933994055423741e-29 -3.608224830031759e-15 1.0
vn 1.1933994055423741e-29 -3.608224830031759e-15 1.0
vn -1.1933994055423741e-29 3.608224830031759e-15 -1.0
vn -1.1933994055423741e-29 3.608224830031759e-15 -1.0
vn -1.1933994055423741e-29 3.608224830031759e-15 -1.0
vn -1.1933994055423741e-29 3.608224830031759e-15 -1.0
f 1//1 2//2 4//4
f 4//4 2//2 3//3
f 5//5 6//6 8//8
f 8//8 6//6 7//7
f 10//10 11//11 9//9
f 9//9 11//11 12//12
f 13//13 14//14 16//16
f 16//16 14//14 15//15
f 17//17 18//18 20//20
f 20//20 18//18 19//19
f 21//21 22//22 24//24
f 24//24 22//22 23//23

# End of file