# WaveFront *.obj file
# Vertices: 144
# Triangles : 132

v 0.0 0.0 8.100000381469727
v 0.0 0.0 0.8999999761581421
v 0.30000001192092896 0.0 0.8999999761581421
v 0.30000001192092896 0.0 8.100000381469727
v 0.30000001192092896 0.0 8.100000381469727
v 0.30000001192092896 0.0 0.8999999761581421
v 0.30000001192092896 0.01729324832558632 0.7244186997413635
v 0.30000001192092896 0.06850842386484146 0.5555849075317383
v 0.30000001192092896 0.15167735517024994 0.39998680353164673
v 0.30000001192092896 0.26360389590263367 0.26360389590263367
v 0.30000001192092896 0.39998680353164673 0.15167735517024994
v 0.30000001192092896 0.5555849075317383 0.06850842386484146
v 0.30000001192092896 0.7244186997413635 0.01729324832558632
v 0.30000001192092896 0.8999999761581421 3.3306690738754696e-16
v 0.30000001192092896 1.0755813121795654 0.01729324832558632
v 0.30000001192092896 1.244415044784546 0.06850842386484146
v 0.30000001192092896 1.4000132083892822 0.15167735517024994
v 0.30000001192092896 1.5363961458206177 0.26360389590263367
v 0.30000001192092896 1.6483227014541626 0.39998680353164673
v 0.30000001192092896 1.7314915657043457 0.5555849075317383
v 0.30000001192092896 1.7827067375183105 0.7244186997413635
v 0.30000001192092896 1.7999999523162842 0.8999999761581421
v 0.30000001192092896 1.7999999523162842 8.100000381469727
v 0.30000001192092896 1.7827067375183105 8.275581359863281
v 0.30000001192092896 1.7314915657043457 8.444415092468262
v 0.30000001192092896 1.6483227014541626 8.60001277923584
v 0.30000001192092896 1.5363961458206177 8.736395835876465
v 0.30000001192092896 1.4000132083892822 8.848322868347168
v 0.30000001192092896 1.244415044784546 8.93149185180664
v 0.30000001192092896 1.0755813121795654 8.982707023620605
v 0.30000001192092896 0.8999999761581421 9.0
v 0.30000001192092896 0.7244186997413635 8.982707023620605
v 0.30000001192092896 0.5555849075317383 8.93149185180664
v 0.30000001192092896 0.39998680353164673 8.848322868347168
v 0.30000001192092896 0.26360389590263367 8.736395835876465
v 0.30000001192092896 0.15167735517024994 8.60001277923584
v 0.30000001192092896 0.06850842386484146 8.444415092468262
v 0.30000001192092896 0.01729324832558632 8.275581359863281
v 0.0 1.7999999523162842 0.8999999761581421
v 0.0 1.7999999523162842 8.100000381469727
v 0.30000001192092896 1.7999999523162842 8.100000381469727
v 0.30000001192092896 1.7999999523162842 0.8999999761581421
v 0.0 1.7999999523162842 8.100000381469727
v 0.0 1.7827067375183105 8.275581359863281
v 0.0 1.7314915657043457 8.444415092468262
v 0.0 1.6483227014541626 8.60001277923584
v 0.0 1.5363961458206177 8.736395835876465
v 0.0 1.4000132083892822 8.848322868347168
v 0.0 1.244415044784546 8.93149185180664
v 0.0 1.0755813121795654 8.982707023620605
v 0.0 0.8999999761581421 9.0
v 0.0 0.7244186997413635 8.982707023620605
v 0.0 0.5555849075317383 8.93149185180664
v 0.0 0.39998680353164673 8.848322868347168
v 0.0 0.26360389590263367 8.736395835876465
v 0.0 0.15167735517024994 8.60001277923584
v 0.0 0.06850842386484146 8.444415092468262
v 0.0 0.01729324832558632 8.275581359863281
v 0.0 0.0 8.100000381469727
v 0.30000001192092896 0.0 8.100000381469727
v 0.30000001192092896 0.01729324832558632 8.275581359863281
v 0.30000001192092896 0.06850842386484146 8.444415092468262
v 0.30000001192092896 0.15167735517024994 8.60001277923584
v 0.30000001192092896 0.26360389590263367 8.736395835876465
v 0.30000001192092896 0.39998680353164673 8.848322868347168
v 0.30000001192092896 0.5555849075317383 8.93149185180664
v 0.30000001192092896 0.7244186997413635 8.982707023620605
v 0.30000001192092896 0.8999999761581421 9.0
v 0.30000001192092896 1.0755813121795654 8.982707023620605
v 0.30000001192092896 1.244415044784546 8.93149185180664
v 0.30000001192092896 1.4000132083892822 8.848322868347168
v 0.30000001192092896 1.5363961458206177 8.736395835876465
v 0.30000001192092896 1.6483227014541626 8.60001277923584
v 0.30000001192092896 1.7314915657043457 8.444415092468262
v 0.30000001192092896 1.7827067375183105 8.275581359863281
v 0.30000001192092896 1.7999999523162842 8.100000381469727
v 0.0 0.0 0.8999999761581421
v 0.0 0.01729324832558632 0.7244186997413635
v 0.0 0.06850842386484146 0.5555849075317383
v 0.0 0.15167735517024994 0.39998680353164673
v 0.0 0.26360389590263367 0.26360389590263367
v 0.0 0.39998680353164673 0.15167735517024994
v 0.0 0.5555849075317383 0.06850842386484146
v 0.0 0.7244186997413635 0.01729324832558632
v 0.0 0.8999999761581421 3.3306690738754696e-16
v 0.0 1.0755813121795654 0.01729324832558632
v 0.0 1.244415044784546 0.06850842386484146
v 0.0 1.4000132083892822 0.15167735517024994
v 0.0 1.5363961458206177 0.26360389590263367
v 0.0 1.6483227014541626 0.39998680353164673
v 0.0 1.7314915657043457 0.5555849075317383
v 0.0 1.7827067375183105 0.7244186997413635
v 0.0 1.7999999523162842 0.8999999761581421
v 0.30000001192092896 1.7999999523162842 0.8999999761581421
v 0.30000001192092896 1.7827067375183105 0.7244186997413635
v 0.30000001192092896 1.7314915657043457 0.5555849075317383
v 0.30000001192092896 1.6483227014541626 0.39998680353164673
v 0.30000001192092896 1.5363961458206177 0.26360389590263367
v 0.30000001192092896 1.4000132083892822 0.15167735517024994
v 0.30000001192092896 1.244415044784546 0.06850842386484146
v 0.30000001192092896 1.0755813121795654 0.01729324832558632
v 0.30000001192092896 0.8999999761581421 3.3306690738754696e-16
v 0.30000001192092896 0.7244186997413635 0.01729324832558632
v 0.30000001192092896 0.5555849075317383 0.06850842386484146
v 0.30000001192092896 0.39998680353164673 0.15167735517024994
v 0.30000001192092896 0.26360389590263367 0.26360389590263367
v 0.30000001192092896 0.15167735517024994 0.39998680353164673
v 0.30000001192092896 0.06850842386484146 0.5555849075317383
v 0.30000001192092896 0.01729324832558632 0.7244186997413635
v 0.30000001192092896 0.0 0.8999999761581421
v 0.0 0.0 0.8999999761581421
v 0.0 0.0 8.100000381469727
v 0.0 0.01729324832558632 8.275581359863281
v 0.0 0.06850842386484146 8.444415092468262
v 0.0 0.15167735517024994 8.60001277923584
v 0.0 0.26360389590263367 8.736395835876465
v 0.0 0.39998680353164673 8.848322868347168
v 0.0 0.5555849075317383 8.93149185180664
v 0.0 0.7244186997413635 8.982707023620605
v 0.0 0.8999999761581421 9.0
v 0.0 1.0755813121795654 8.982707023620605
v 0.0 1.244415044784546 8.93149185180664
v 0.0 1.4000132083892822 8.848322868347168
v 0.0 1.5363961458206177 8.736395835876465
v 0.0 1.6483227014541626 8.60001277923584
v 0.0 1.7314915657043457 8.444415092468262
v 0.0 1.7827067375183105 8.275581359863281
v 0.0 1.7999999523162842 8.100000381469727
v 0.0 1.7999999523162842 0.8999999761581421
v 0.0 1.7827067375183105 0.7244186997413635
v 0.0 1.7314915657043457 0.5555849075317383
v 0.0 1.6483227014541626 0.39998680353164673
v 0.0 1.5363961458206177 0.26360389590263367
v 0.0 1.4000132083892822 0.15167735517024994
v 0.0 1.244415044784546 0.06850842386484146
v 0.0 1.0755813121795654 0.01729324832558632
v 0.0 0.8999999761581421 3.3306690738754696e-16
v 0.0 0.7244186997413635 0.01729324832558632
v 0.0 0.5555849075317383 0.06850842386484146
v 0.0 0.39998680353164673 0.15167735517024994
v 0.0 0.26360389590263367 0.26360389590263367
v 0.0 0.15167735517024994 0.39998680353164673
v 0.0 0.06850842386484146 0.5555849075317383
v 0.0 0.01729324832558632 0.7244186997413635
vn 0.0 -1.0 0.0
vn 0.0 -1.0 0.0
vn 0.0 -1.0 0.0
vn 0.0 -1.0 0.0
vn 1.0 0.0 0.0
vn 1.0 0.0 0.0
vn 1.0 0.0 0.0
vn 1.0 0.0 0.0
vn 1.0 0.0 0.0
vn 1.0 0.0 0.0
vn 1.0 0.0 0.0
vn 1.0 0.0 0.0
vn 1.0 0.0 0.0
vn 1.0 0.0 0.0
vn 1.0 0.0 0.0
vn 1.0 0.0 0.0
vn 1.0 0.0 0.0
vn 1.0 0.0 0.0
vn 1.0 0.0 0.0
vn 1.0 0.0 0.0
vn 1.0 0.0 0.0
vn 1.0 0.0 0.0
vn 1.0 0.0 0.0
vn 1.0 0.0 0.0
vn 1.0 0.0 0.0
vn 1.0 0.0 0.0
vn 1.0 0.0 0.0
vn 1.0 0.0 0.0
vn 1.0 0.0 0.0
vn 1.0 0.0 0.0
vn 1.0 0.0 0.0
vn 1.0 0.0 0.0
vn 1.0 0.0 0.0
vn 1.0 0.0 0.0
vn 1.0 0.0 0.0
vn 1.0 0.0 0.0
vn 1.0 0.0 0.0
vn 1.0 0.0 0.0
vn 0.0 1.0 0.0
vn 0.0 1.0 0.0
vn 0.0 1.0 0.0
vn 0.0 1.0 0.0
vn -0.0 1.0 -0.0
vn -0.0 0.9807852506637573 0.19509032368659973
vn -0.0 0.9238795042037964 0.3826834261417389
vn -0.0 0.8314695954322815 0.5555702447891235
vn -0.0 0.7071067690849304 0.7071067690849304
vn -0.0 0.5555702447891235 0.8314695954322815
vn -0.0 0.3826834261417389 0.9238795042037964
vn -0.0 0.19509032368659973 0.9807852506637573
vn -0.0 6.123234262925839e-17 1.0
vn -0.0 -0.19509032368659973 0.9807852506637573
vn -0.0 -0.3826834261417389 0.9238795042037964
vn -0.0 -0.5555702447891235 0.8314695954322815
vn -0.0 -0.7071067690849304 0.7071067690849304
vn -0.0 -0.8314695954322815 0.5555702447891235
vn -0.0 -0.9238795042037964 0.3826834261417389
vn -0.0 -0.9807852506637573 0.19509032368659973
vn -0.0 -1.0 1.2246468525851679e-16
vn -0.0 -1.0 1.2246468525851679e-16
vn -0.0 -0.9807852506637573 0.19509032368659973
vn -0.0 -0.9238795042037964 0.3826834261417389
vn -0.0 -0.8314695954322815 0.5555702447891235
vn -0.0 -0.7071067690849304 0.7071067690849304
vn -0.0 -0.5555702447891235 0.8314695954322815
vn -0.0 -0.3826834261417389 0.9238795042037964
vn -0.0 -0.19509032368659973 0.9807852506637573
vn -0.0 6.123234262925839e-17 1.0
vn -0.0 0.19509032368659973 0.9807852506637573
vn -0.0 0.3826834261417389 0.9238795042037964
vn -0.0 0.5555702447891235 0.8314695954322815
vn -0.0 0.7071067690849304 0.7071067690849304
vn -0.0 0.8314695954322815 0.5555702447891235
vn -0.0 0.9238795042037964 0.3826834261417389
vn -0.0 0.9807852506637573 0.19509032368659973
vn -0.0 1.0 -0.0
vn 0.0 -1.0 -0.0
vn 0.0 -0.9807852506637573 -0.19509032368659973
vn 0.0 -0.9238795042037964 -0.3826834261417389
vn 0.0 -0.8314695954322815 -0.5555702447891235
vn 0.0 -0.7071067690849304 -0.7071067690849304
vn 0.0 -0.5555702447891235 -0.8314695954322815
vn 0.0 -0.3826834261417389 -0.9238795042037964
vn 0.0 -0.19509032368659973 -0.9807852506637573
vn 0.0 -6.123234262925839e-17 -1.0
vn -0.0 0.19509032368659973 -0.9807852506637573
vn -0.0 0.3826834261417389 -0.9238795042037964
vn -0.0 0.5555702447891235 -0.8314695954322815
vn -0.0 0.7071067690849304 -0.7071067690849304
vn -0.0 0.8314695954322815 -0.5555702447891235
vn -0.0 0.9238795042037964 -0.3826834261417389
vn -0.0 0.9807852506637573 -0.19509032368659973
vn -0.0 1.0 -1.2246468525851679e-16
vn -0.0 1.0 -1.2246468525851679e-16
vn -0.0 0.9807852506637573 -0.19509032368659973
vn -0.0 0.9238795042037964 -0.3826834261417389
vn -0.0 0.8314695954322815 -0.5555702447891235
vn -0.0 0.7071067690849304 -0.7071067690849304
vn -0.0 0.5555702447891235 -0.8314695954322815
vn -0.0 0.3826834261417389 -0.9238795042037964
vn -0.0 0.19509032368659973 -0.9807852506637573
vn 0.0 -6.123234262925839e-17 -1.0
vn 0.0 -0.19509032368659973 -0.9807852506637573
vn 0.0 -0.3826834261417389 -0.9238795042037964
vn 0.0 -0.5555702447891235 -0.8314695954322815
vn 0.0 -0.7071067690849304 -0.7071067690849304
vn 0.0 -0.8314695954322815 -0.5555702447891235
vn 0.0 -0.9238795042037964 -0.3826834261417389
vn 0.0 -0.9807852506637573 -0.19509032368659973
vn 0.0 -1.0 -0.0
vn -1.0 -0.0 -0.0
vn -1.0 -0.0 -0.0
vn -1.0 -0.0 -0.0
vn -1.0 -0.0 -0.0
vn -1.0 -0.0 -0.0
vn -1.0 -0.0 -0.0
vn -1.0 -0.0 -0.0
vn -1.0 -0.0 -0.0
vn -1.0 -0.0 -0.0
vn -1.0 -0.0 -0.0
vn -1.0 -0.0 -0.0
vn -1.0 -0.0 -0.0
vn -1.0 -0.0 -0.0
vn -1.0 -0.0 -0.0
vn -1.0 -0.0 -0.0
vn -1.0 -0.0 -0.0
vn -1.0 -0.0 -0.0
vn -1.0 -0.0 -0.0
vn -1.0 -0.0 -0.0
vn -1.0 -0.0 -0.0
vn -1.0 -0.0 -0.0
vn -1.0 -0.0 -0.0
vn -1.0 -0.0 -0.0
vn -1.0 -0.0 -0.0
vn -1.0 -0.0 -0.0
vn -1.0 -0.0 -0.0
vn -1.0 -0.0 -0.0
vn -1.0 -0.0 -0.0
vn -1.0 -0.0 -0.0
vn -1.0 -0.0 -0.0
vn -1.0 -0.0 -0.0
vn -1.0 -0.0 -0.0
vn -1.0 -0.0 -0.0
vn -1.0 -0.0 -0.0
f 1//1 2//2 4//4
f 4//4 2//2 3//3
f 6//6 34//34 5//5
f 5//5 34//34 35//35
f 5//5 35//35 36//36
f 7//7 8//8 6//6
f 6//6 8//8 9//9
f 6//6 9//9 10//10
f 10//10 11//11 6//6
f 6//6 11//11 34//34
f 34//34 11//11 33//33
f 33//33 11//11 12//12
f 33//33 12//12 32//32
f 32//32 12//12 13//13
f 32//32 13//13 31//31
f 31//31 13//13 14//14
f 31//31 14//14 30//30
f 30//30 14//14 15//15
f 30//30 15//15 29//29
f 29//29 15//15 16//16
f 29//29 16//16 28//28
f 28//28 16//16 17//17
f 28//28 17//17 23//23
f 23//23 17//17 22//22
f 22//22 17//17 18//18
f 22//22 18//18 19//19
f 19//19 20//20 22//22
f 22//22 20//20 21//21
f 24//24 25//25 23//23
f 23//23 25//25 26//26
f 23//23 26//26 27//27
f 27//27 28//28 23//23
f 36//36 37//37 5//5
f 5//5 37//37 38//38
f 39//39 40//40 42//42
f 42//42 40//40 41//41
f 76//76 43//43 75//75
f 75//75 43//43 44//44
f 75//75 44//44 74//74
f 74//74 44//44 45//45
f 74//74 45//45 73//73
f 73//73 45//45 46//46
f 73//73 46//46 72//72
f 72//72 46//46 47//47
f 72//72 47//47 71//71
f 71//71 47//47 48//48
f 71//71 48//48 70//70
f 70//70 48//48 49//49
f 70//70 49//49 69//69
f 69//69 49//49 50//50
f 69//69 50//50 68//68
f 68//68 50//50 51//51
f 68//68 51//51 67//67
f 67//67 51//51 52//52
f 67//67 52//52 66//66
f 66//66 52//52 53//53
f 66//66 53//53 65//65
f 65//65 53//53 54//54
f 65//65 54//54 64//64
f 64//64 54//54 55//55
f 64//64 55//55 63//63
f 63//63 55//55 56//56
f 63//63 56//56 62//62
f 62//62 56//56 57//57
f 62//62 57//57 61//61
f 61//61 57//57 58//58
f 61//61 58//58 60//60
f 60//60 58//58 59//59
f 110//110 77//77 109//109
f 109//109 77//77 78//78
f 109//109 78//78 108//108
f 108//108 78//78 79//79
f 108//108 79//79 107//107
f 107//107 79//79 80//80
f 107//107 80//80 106//106
f 106//106 80//80 81//81
f 106//106 81//81 105//105
f 105//105 81//81 82//82
f 105//105 82//82 104//104
f 104//104 82//82 83//83
f 104//104 83//83 103//103
f 103//103 83//83 84//84
f 103//103 84//84 102//102
f 102//102 84//84 85//85
f 102//102 85//85 101//101
f 101//101 85//85 86//86
f 101//101 86//86 100//100
f 100//100 86//86 87//87
f 100//100 87//87 99//99
f 99//99 87//87 88//88
f 99//99 88//88 98//98
f 98//98 88//88 89//89
f 98//98 89//89 97//97
f 97//97 89//89 90//90
f 97//97 90//90 96//96
f 96//96 90//90 91//91
f 96//96 91//91 95//95
f 95//95 91//91 92//92
f 95//95 92//92 94//94
f 94//94 92//92 93//93
f 112//112 140//140 111//111
f 111//111 140//140 141//141
f 111//111 141//141 142//142
f 113//113 114//114 112//112
f 112//112 114//114 115//115
f 112//112 115//115 116//116
f 116//116 117//117 112//112
f 112//112 117//117 140//140
f 140//140 117//117 139//139
f 139//139 117//117 118//118
f 139//139 118//118 138//138
f 138//138 118//118 119//119
f 138//138 119//119 137//137
f 137//137 119//119 120//120
f 137//137 120//120 136//136
f 136//136 120//120 121//121
f 136//136 121//121 135//135
f 135//135 121//121 122//122
f 135//135 122//122 134//134
f 134//134 122//122 123//123
f 134//134 123//123 129//129
f 129//129 123//123 128//128
f 128//128 123//123 124//124
f 128//128 124//124 125//125
f 125//125 126//126 128//128
f 128//128 126//126 127//127
f 130//130 131//131 129//129
f 129//129 131//131 132//132
f 129//129 132//132 133//133
f 133//133 134//134 129//129
f 142//142 143//143 111//111
f 111//111 143//143 144//144

# End of file