# WaveFront *.obj file
# Vertices: 174
# Triangles : 156

v 1.0365856885910034 5.5 17.03763198852539
v 1.0365856885910034 5.5 18.42327308654785
v -0.16341429948806763 5.5 19.116092681884766
v -1.3634142875671387 5.5 18.42327308654785
v -1.3634142875671387 5.5 17.03763198852539
v -0.16341429948806763 5.5 16.344812393188477
v -0.9634143114089966 5.5 17.730451583862305
v -0.9497928023338318 5.5 17.877450942993164
v -0.9093921184539795 5.5 18.019445419311523
v -0.8435879945755005 5.5 18.15159797668457
v -0.7546214461326599 5.5 18.2694091796875
v -0.6455219984054565 5.5 18.368865966796875
v -0.5200049877166748 5.5 18.446582794189453
v -0.38234469294548035 5.5 18.49991226196289
v -0.23722898960113525 5.5 18.52703857421875
v -0.0895996168255806 5.5 18.52703857421875
v 0.055516086518764496 5.5 18.49991226196289
v 0.19317637383937836 5.5 18.446582794189453
v 0.3186933994293213 5.5 18.368865966796875
v 0.42779281735420227 5.5 18.2694091796875
v 0.5167593955993652 5.5 18.15159797668457
v 0.5825634598731995 5.5 18.019445419311523
v 0.6229642033576965 5.5 17.877450942993164
v 0.6365857124328613 5.5 17.730451583862305
v 0.6229642033576965 5.5 17.583452224731445
v 0.5825634598731995 5.5 17.44145965576172
v 0.5167593955993652 5.5 17.309307098388672
v 0.42779281735420227 5.5 17.191495895385742
v 0.3186933994293213 5.5 17.092039108276367
v 0.19317637383937836 5.5 17.01432228088379
v 0.055516086518764496 5.5 16.96099090576172
v -0.0895996168255806 5.5 16.93386459350586
v -0.23722898960113525 5.5 16.93386459350586
v -0.38234469294548035 5.5 16.96099090576172
v -0.5200049877166748 5.5 17.01432228088379
v -0.6455219984054565 5.5 17.092039108276367
v -0.7546214461326599 5.5 17.191495895385742
v -0.8435879945755005 5.5 17.309307098388672
v -0.9093921184539795 5.5 17.44145965576172
v -0.9497928023338318 5.5 17.583452224731445
v -0.9634143114089966 5.5 17.730451583862305
v -0.9497928023338318 5.5 17.583452224731445
v -0.9093921184539795 5.5 17.44145965576172
v -0.8435879945755005 5.5 17.309307098388672
v -0.7546214461326599 5.5 17.191495895385742
v -0.6455219984054565 5.5 17.092039108276367
v -0.5200049877166748 5.5 17.01432228088379
v -0.38234469294548035 5.5 16.96099090576172
v -0.23722898960113525 5.5 16.93386459350586
v -0.0895996168255806 5.5 16.93386459350586
v 0.055516086518764496 5.5 16.96099090576172
v 0.19317637383937836 5.5 17.01432228088379
v 0.3186933994293213 5.5 17.092039108276367
v 0.42779281735420227 5.5 17.191495895385742
v 0.5167593955993652 5.5 17.309307098388672
v 0.5825634598731995 5.5 17.44145965576172
v 0.6229642033576965 5.5 17.583452224731445
v 0.6365857124328613 5.5 17.730451583862305
v 0.6229642033576965 5.5 17.877450942993164
v 0.5825634598731995 5.5 18.019445419311523
v 0.5167593955993652 5.5 18.15159797668457
v 0.42779281735420227 5.5 18.2694091796875
v 0.3186933994293213 5.5 18.368865966796875
v 0.19317637383937836 5.5 18.446582794189453
v 0.055516086518764496 5.5 18.49991226196289
v -0.0895996168255806 5.5 18.52703857421875
v -0.23722898960113525 5.5 18.52703857421875
v -0.38234469294548035 5.5 18.49991226196289
v -0.5200049877166748 5.5 18.446582794189453
v -0.6455219984054565 5.5 18.368865966796875
v -0.7546214461326599 5.5 18.2694091796875
v -0.8435879945755005 5.5 18.15159797668457
v -0.9093921184539795 5.5 18.019445419311523
v -0.9497928023338318 5.5 17.877450942993164
v -0.9634143114089966 0.0 17.730451583862305
v -0.9497928023338318 0.0 17.877450942993164
v -0.9093921184539795 0.0 18.019445419311523
v -0.8435879945755005 0.0 18.15159797668457
v -0.7546214461326599 0.0 18.2694091796875
v -0.6455219984054565 0.0 18.368865966796875
v -0.5200049877166748 0.0 18.446582794189453
v -0.38234469294548035 0.0 18.49991226196289
v -0.23722898960113525 0.0 18.52703857421875
v -0.0895996168255806 0.0 18.52703857421875
v 0.055516086518764496 0.0 18.49991226196289
v 0.19317637383937836 0.0 18.446582794189453
v 0.3186933994293213 0.0 18.368865966796875
v 0.42779281735420227 0.0 18.2694091796875
v 0.5167593955993652 0.0 18.15159797668457
v 0.5825634598731995 0.0 18.019445419311523
v 0.6229642033576965 0.0 17.877450942993164
v 0.6365857124328613 0.0 17.730451583862305
v 0.6229642033576965 0.0 17.583452224731445
v 0.5825634598731995 0.0 17.44145965576172
v 0.5167593955993652 0.0 17.309307098388672
v 0.42779281735420227 0.0 17.191495895385742
v 0.3186933994293213 0.0 17.092039108276367
v 0.19317637383937836 0.0 17.01432228088379
v 0.055516086518764496 0.0 16.96099090576172
v -0.0895996168255806 0.0 16.93386459350586
v -0.23722898960113525 0.0 16.93386459350586
v -0.38234469294548035 0.0 16.96099090576172
v -0.5200049877166748 0.0 17.01432228088379
v -0.6455219984054565 0.0 17.092039108276367
v -0.7546214461326599 0.0 17.191495895385742
v -0.8435879945755005 0.0 17.309307098388672
v -0.9093921184539795 0.0 17.44145965576172
v -0.9497928023338318 0.0 17.583452224731445
v -0.9634143114089966 0.0 17.730451583862305
v -0.9634143114089966 5.5 17.730451583862305
v 1.0365856885910034 6.199999809265137 18.42327308654785
v 1.0365856885910034 6.199999809265137 17.03763198852539
v -0.16341429948806763 6.199999809265137 16.344812393188477
v -1.3634142875671387 6.199999809265137 17.03763198852539
v -1.3634142875671387 6.199999809265137 18.42327308654785
v -0.16341429948806763 6.199999809265137 19.116092681884766
v 1.0365856885910034 5.5 18.42327308654785
v 1.0365856885910034 5.5 17.03763198852539
v 1.0365856885910034 6.199999809265137 17.03763198852539
v 1.0365856885910034 6.199999809265137 18.42327308654785
v -0.9634143114089966 0.0 17.730451583862305
v -0.9497928023338318 0.0 17.583452224731445
v -0.9093921184539795 0.0 17.44145965576172
v -0.8435879945755005 0.0 17.309307098388672
v -0.7546214461326599 0.0 17.191495895385742
v -0.6455219984054565 0.0 17.092039108276367
v -0.5200049877166748 0.0 17.01432228088379
v -0.38234469294548035 0.0 16.96099090576172
v -0.23722898960113525 0.0 16.93386459350586
v -0.0895996168255806 0.0 16.93386459350586
v 0.055516086518764496 0.0 16.96099090576172
v 0.19317637383937836 0.0 17.01432228088379
v 0.3186933994293213 0.0 17.092039108276367
v 0.42779281735420227 0.0 17.191495895385742
v 0.5167593955993652 0.0 17.309307098388672
v 0.5825634598731995 0.0 17.44145965576172
v 0.6229642033576965 0.0 17.583452224731445
v 0.6365857124328613 0.0 17.730451583862305
v 0.6229642033576965 0.0 17.877450942993164
v 0.5825634598731995 0.0 18.019445419311523
v 0.5167593955993652 0.0 18.15159797668457
v 0.42779281735420227 0.0 18.2694091796875
v 0.3186933994293213 0.0 18.368865966796875
v 0.19317637383937836 0.0 18.446582794189453
v 0.055516086518764496 0.0 18.49991226196289
v -0.0895996168255806 0.0 18.52703857421875
v -0.23722898960113525 0.0 18.52703857421875
v -0.38234469294548035 0.0 18.49991226196289
v -0.5200049877166748 0.0 18.446582794189453
v -0.6455219984054565 0.0 18.368865966796875
v -0.7546214461326599 0.0 18.2694091796875
v -0.8435879945755005 0.0 18.15159797668457
v -0.9093921184539795 0.0 18.019445419311523
v -0.9497928023338318 0.0 17.877450942993164
v 1.0365856885910034 5.5 17.03763198852539
v -0.16341429948806763 5.5 16.344812393188477
v -0.16341429948806763 6.199999809265137 16.344812393188477
v 1.0365856885910034 6.199999809265137 17.03763198852539
v -1.3634142875671387 5.5 18.42327308654785
v -0.16341429948806763 5.5 19.116092681884766
v -0.16341429948806763 6.199999809265137 19.116092681884766
v -1.3634142875671387 6.199999809265137 18.42327308654785
v -0.16341429948806763 5.5 16.344812393188477
v -1.3634142875671387 5.5 17.03763198852539
v -1.3634142875671387 6.199999809265137 17.03763198852539
v -0.16341429948806763 6.199999809265137 16.344812393188477
v -0.16341429948806763 5.5 19.116092681884766
v 1.0365856885910034 5.5 18.42327308654785
v 1.0365856885910034 6.199999809265137 18.42327308654785
v -0.16341429948806763 6.199999809265137 19.116092681884766
v -1.3634142875671387 5.5 17.03763198852539
v -1.3634142875671387 5.5 18.42327308654785
v -1.3634142875671387 6.199999809265137 18.42327308654785
v -1.3634142875671387 6.199999809265137 17.03763198852539
vn -0.0 -1.0 -0.0
vn -0.0 -1.0 -0.0
vn -0.0 -1.0 -0.0
vn -0.0 -1.0 -0.0
vn -0.0 -1.0 -0.0
vn -0.0 -1.0 -0.0
vn -0.0 -1.0 -0.0
vn -0.0 -1.0 -0.0
vn -0.0 -1.0 -0.0
vn -0.0 -1.0 -0.0
vn -0.0 -1.0 -0.0
vn -0.0 -1.0 -0.0
vn -0.0 -1.0 -0.0
vn -0.0 -1.0 -0.0
vn -0.0 -1.0 -0.0
vn -0.0 -1.0 -0.0
vn -0.0 -1.0 -0.0
vn -0.0 -1.0 -0.0
vn -0.0 -1.0 -0.0
vn -0.0 -1.0 -0.0
vn -0.0 -1.0 -0.0
vn -0.0 -1.0 -0.0
vn -0.0 -1.0 -0.0
vn -0.0 -1.0 -0.0
vn -0.0 -1.0 -0.0
vn -0.0 -1.0 -0.0
vn -0.0 -1.0 -0.0
vn -0.0 -1.0 -0.0
vn -0.0 -1.0 -0.0
vn -0.0 -1.0 -0.0
vn -0.0 -1.0 -0.0
vn -0.0 -1.0 -0.0
vn -0.0 -1.0 -0.0
vn -0.0 -1.0 -0.0
vn -0.0 -1.0 -0.0
vn -0.0 -1.0 -0.0
vn -0.0 -1.0 -0.0
vn -0.0 -1.0 -0.0
vn -0.0 -1.0 -0.0
vn -0.0 -1.0 -0.0
vn -1.0 0.0 -1.2246468525851679e-16
vn -0.9829730987548828 0.0 -0.1837495118379593
vn -0.9324722290039062 0.0 -0.3612416684627533
vn -0.8502171635627747 0.0 -0.5264321565628052
vn -0.739008903503418 0.0 -0.6736956238746643
vn -0.602634608745575 0.0 -0.7980172038078308
vn -0.4457383453845978 0.0 -0.8951632976531982
vn -0.2736629843711853 0.0 -0.9618256688117981
vn -0.09226836264133453 0.0 -0.9957341551780701
vn 0.09226836264133453 -0.0 -0.9957341551780701
vn 0.2736629843711853 -0.0 -0.9618256688117981
vn 0.4457383453845978 -0.0 -0.8951632976531982
vn 0.602634608745575 -0.0 -0.7980172038078308
vn 0.739008903503418 -0.0 -0.6736956238746643
vn 0.8502171635627747 -0.0 -0.5264321565628052
vn 0.9324722290039062 -0.0 -0.3612416684627533
vn 0.9829730987548828 -0.0 -0.1837495118379593
vn 1.0 -0.0 -0.0
vn 0.9829730987548828 -0.0 0.1837495118379593
vn 0.9324722290039062 -0.0 0.3612416684627533
vn 0.8502171635627747 -0.0 0.5264321565628052
vn 0.739008903503418 -0.0 0.6736956238746643
vn 0.602634608745575 -0.0 0.7980172038078308
vn 0.4457383453845978 -0.0 0.8951632976531982
vn 0.2736629843711853 -0.0 0.9618256688117981
vn 0.09226836264133453 -0.0 0.9957341551780701
vn -0.09226836264133453 -0.0 0.9957341551780701
vn -0.2736629843711853 -0.0 0.9618256688117981
vn -0.4457383453845978 -0.0 0.8951632976531982
vn -0.602634608745575 -0.0 0.7980172038078308
vn -0.739008903503418 -0.0 0.6736956238746643
vn -0.8502171635627747 -0.0 0.5264321565628052
vn -0.9324722290039062 -0.0 0.3612416684627533
vn -0.9829730987548828 -0.0 0.1837495118379593
vn -1.0 -0.0 1.2246468525851679e-16
vn -0.9829730987548828 -0.0 0.1837495118379593
vn -0.9324722290039062 -0.0 0.3612416684627533
vn -0.8502171635627747 -0.0 0.5264321565628052
vn -0.739008903503418 -0.0 0.6736956238746643
vn -0.602634608745575 -0.0 0.7980172038078308
vn -0.4457383453845978 -0.0 0.8951632976531982
vn -0.2736629843711853 -0.0 0.9618256688117981
vn -0.09226836264133453 -0.0 0.9957341551780701
vn 0.09226836264133453 -0.0 0.9957341551780701
vn 0.2736629843711853 -0.0 0.9618256688117981
vn 0.4457383453845978 -0.0 0.8951632976531982
vn 0.602634608745575 -0.0 0.7980172038078308
vn 0.739008903503418 -0.0 0.6736956238746643
vn 0.8502171635627747 -0.0 0.5264321565628052
vn 0.9324722290039062 -0.0 0.3612416684627533
vn 0.9829730987548828 -0.0 0.1837495118379593
vn 1.0 -0.0 -0.0
vn 0.9829730987548828 -0.0 -0.1837495118379593
vn 0.9324722290039062 -0.0 -0.3612416684627533
vn 0.8502171635627747 -0.0 -0.5264321565628052
vn 0.739008903503418 -0.0 -0.6736956238746643
vn 0.602634608745575 -0.0 -0.7980172038078308
vn 0.4457383453845978 -0.0 -0.8951632976531982
vn 0.2736629843711853 -0.0 -0.9618256688117981
vn 0.09226836264133453 -0.0 -0.9957341551780701
vn -0.09226836264133453 0.0 -0.9957341551780701
vn -0.2736629843711853 0.0 -0.9618256688117981
vn -0.4457383453845978 0.0 -0.8951632976531982
vn -0.602634608745575 0.0 -0.7980172038078308
vn -0.739008903503418 0.0 -0.6736956238746643
vn -0.8502171635627747 0.0 -0.5264321565628052
vn -0.9324722290039062 0.0 -0.3612416684627533
vn -0.9829730987548828 0.0 -0.1837495118379593
vn -1.0 0.0 -1.2246468525851679e-16
vn -1.0 -0.0 1.2246468525851679e-16
vn 0.0 1.0 0.0
vn 0.0 1.0 0.0
vn 0.0 1.0 0.0
vn 0.0 1.0 0.0
vn 0.0 1.0 0.0
vn 0.0 1.0 0.0
vn 1.0 -0.0 4.807406960546706e-16
vn 1.0 -0.0 4.807406960546706e-16
vn 1.0 -0.0 4.807406960546706e-16
vn 1.0 -0.0 4.807406960546706e-16
vn -0.0 -1.0 -0.0
vn -0.0 -1.0 -0.0
vn -0.0 -1.0 -0.0
vn -0.0 -1.0 -0.0
vn -0.0 -1.0 -0.0
vn -0.0 -1.0 -0.0
vn -0.0 -1.0 -0.0
vn -0.0 -1.0 -0.0
vn -0.0 -1.0 -0.0
vn -0.0 -1.0 -0.0
vn -0.0 -1.0 -0.0
vn -0.0 -1.0 -0.0
vn -0.0 -1.0 -0.0
vn -0.0 -1.0 -0.0
vn -0.0 -1.0 -0.0
vn -0.0 -1.0 -0.0
vn -0.0 -1.0 -0.0
vn -0.0 -1.0 -0.0
vn -0.0 -1.0 -0.0
vn -0.0 -1.0 -0.0
vn -0.0 -1.0 -0.0
vn -0.0 -1.0 -0.0
vn -0.0 -1.0 -0.0
vn -0.0 -1.0 -0.0
vn -0.0 -1.0 -0.0
vn -0.0 -1.0 -0.0
vn -0.0 -1.0 -0.0
vn -0.0 -1.0 -0.0
vn -0.0 -1.0 -0.0
vn -0.0 -1.0 -0.0
vn -0.0 -1.0 -0.0
vn -0.0 -1.0 -0.0
vn -0.0 -1.0 -0.0
vn -0.0 -1.0 -0.0
vn 0.5 0.0 -0.8660253882408142
vn 0.5 0.0 -0.8660253882408142
vn 0.5 0.0 -0.8660253882408142
vn 0.5 0.0 -0.8660253882408142
vn -0.5 0.0 0.8660253882408142
vn -0.5 0.0 0.8660253882408142
vn -0.5 0.0 0.8660253882408142
vn -0.5 0.0 0.8660253882408142
vn -0.5 0.0 -0.8660253882408142
vn -0.5 0.0 -0.8660253882408142
vn -0.5 0.0 -0.8660253882408142
vn -0.5 0.0 -0.8660253882408142
vn 0.5 -0.0 0.8660253882408142
vn 0.5 -0.0 0.8660253882408142
vn 0.5 -0.0 0.8660253882408142
vn 0.5 -0.0 0.8660253882408142
vn -1.0 0.0 -1.6024689427326027e-16
vn -1.0 0.0 -1.6024689427326027e-16
vn -1.0 0.0 -1.6024689427326027e-16
vn -1.0 0.0 -1.6024689427326027e-16
f 2//2 24//24 1//1
f 1//1 24//24 25//25
f 1//1 25//25 26//26
f 3//3 18//18 2//2
f 2//2 18//18 19//19
f 2//2 19//19 20//20
f 4//4 13//13 3//3
f 3//3 13//13 14//14
f 3//3 14//14 15//15
f 5//5 7//7 4//4
f 4//4 7//7 8//8
f 4//4 8//8 9//9
f 6//6 35//35 5//5
f 5//5 35//35 36//36
f 5//5 36//36 37//37
f 1//1 30//30 6//6
f 6//6 30//30 31//31
f 6//6 31//31 32//32
f 9//9 10//10 4//4
f 4//4 10//10 11//11
f 4//4 11//11 12//12
f 12//12 13//13 4//4
f 15//15 16//16 3//3
f 3//3 16//16 17//17
f 3//3 17//17 18//18
f 20//20 21//21 2//2
f 2//2 21//21 22//22
f 2//2 22//22 23//23
f 23//23 24//24 2//2
f 26//26 27//27 1//1
f 1//1 27//27 28//28
f 1//1 28//28 29//29
f 29//29 30//30 1//1
f 32//32 33//33 6//6
f 6//6 33//33 34//34
f 6//6 34//34 35//35
f 37//37 38//38 5//5
f 5//5 38//38 39//39
f 5//5 39//39 40//40
f 40//40 7//7 5//5
f 42//42 108//108 41//41
f 41//41 108//108 109//109
f 110//110 75//75 74//74
f 74//74 75//75 76//76
f 74//74 76//76 73//73
f 73//73 76//76 77//77
f 73//73 77//77 72//72
f 72//72 77//77 78//78
f 72//72 78//78 71//71
f 71//71 78//78 79//79
f 71//71 79//79 70//70
f 70//70 79//79 80//80
f 70//70 80//80 69//69
f 69//69 80//80 81//81
f 69//69 81//81 68//68
f 68//68 81//81 82//82
f 68//68 82//82 67//67
f 67//67 82//82 83//83
f 67//67 83//83 66//66
f 66//66 83//83 84//84
f 66//66 84//84 65//65
f 65//65 84//84 85//85
f 65//65 85//85 64//64
f 64//64 85//85 86//86
f 64//64 86//86 63//63
f 63//63 86//86 87//87
f 63//63 87//87 62//62
f 62//62 87//87 88//88
f 62//62 88//88 61//61
f 61//61 88//88 89//89
f 61//61 89//89 60//60
f 60//60 89//89 90//90
f 60//60 90//90 59//59
f 59//59 90//90 91//91
f 59//59 91//91 58//58
f 58//58 91//91 92//92
f 58//58 92//92 57//57
f 57//57 92//92 93//93
f 57//57 93//93 56//56
f 56//56 93//93 94//94
f 56//56 94//94 55//55
f 55//55 94//94 95//95
f 55//55 95//95 54//54
f 54//54 95//95 96//96
f 54//54 96//96 53//53
f 53//53 96//96 97//97
f 53//53 97//97 52//52
f 52//52 97//97 98//98
f 52//52 98//98 51//51
f 51//51 98//98 99//99
f 51//51 99//99 50//50
f 50//50 99//99 100//100
f 50//50 100//100 49//49
f 49//49 100//100 101//101
f 49//49 101//101 48//48
f 48//48 101//101 102//102
f 48//48 102//102 47//47
f 47//47 102//102 103//103
f 47//47 103//103 46//46
f 46//46 103//103 104//104
f 46//46 104//104 45//45
f 45//45 104//104 105//105
f 45//45 105//105 44//44
f 44//44 105//105 106//106
f 44//44 106//106 43//43
f 43//43 106//106 107//107
f 43//43 107//107 42//42
f 42//42 107//107 108//108
f 111//111 112//112 116//116
f 116//116 112//112 113//113
f 116//116 113//113 115//115
f 115//115 113//113 114//114
f 117//117 118//118 120//120
f 120//120 118//118 119//119
f 122//122 137//137 121//121
f 121//121 137//137 138//138
f 121//121 138//138 154//154
f 154//154 138//138 139//139
f 154//154 139//139 153//153
f 153//153 139//139 140//140
f 153//153 140//140 152//152
f 152//152 140//140 141//141
f 152//152 141//141 151//151
f 151//151 141//141 142//142
f 151//151 142//142 150//150
f 150//150 142//142 143//143
f 150//150 143//143 149//149
f 149//149 143//143 144//144
f 149//149 144//144 148//148
f 148//148 144//144 145//145
f 148//148 145//145 147//147
f 147//147 145//145 146//146
f 137//137 122//122 136//136
f 136//136 122//122 123//123
f 136//136 123//123 135//135
f 135//135 123//123 124//124
f 135//135 124//124 134//134
f 134//134 124//124 125//125
f 134//134 125//125 133//133
f 133//133 125//125 126//126
f 133//133 126//126 132//132
f 132//132 126//126 127//127
f 132//132 127//127 131//131
f 131//131 127//127 128//128
f 131//131 128//128 130//130
f 130//130 128//128 129//129
f 155//155 156//156 158//158
f 158//158 156//156 157//157
f 159//159 160//160 162//162
f 162//162 160//160 161//161
f 163//163 164//164 166//166
f 166//166 164//164 165//165
f 167//167 168//168 170//170
f 170//170 168//168 169//169
f 171//171 172//172 174//174
f 174//174 172//172 173//173

# End of file