# WaveFront *.obj file
# Vertices: 194
# Triangles : 176

v 65.69999694824219 2.6500000953674316 0.40414518117904663
v 65.69999694824219 2.6500000953674316 -0.40414518117904663
v 65.0 2.6500000953674316 -0.8082903623580933
v 64.30000305175781 2.6500000953674316 -0.40414518117904663
v 64.30000305175781 2.6500000953674316 0.40414518117904663
v 65.0 2.6500000953674316 0.8082903623580933
v 65.69999694824219 2.1500000953674316 0.40414518117904663
v 65.69999694824219 2.1500000953674316 -0.40414518117904663
v 65.69999694824219 2.6500000953674316 -0.40414518117904663
v 65.69999694824219 2.6500000953674316 0.40414518117904663
v 65.69999694824219 2.1500000953674316 -0.40414518117904663
v 65.0 2.1500000953674316 -0.8082903623580933
v 65.0 2.6500000953674316 -0.8082903623580933
v 65.69999694824219 2.6500000953674316 -0.40414518117904663
v 65.69999694824219 2.1500000953674316 -0.40414518117904663
v 65.69999694824219 2.1500000953674316 0.40414518117904663
v 65.0 2.1500000953674316 0.8082903623580933
v 64.30000305175781 2.1500000953674316 0.40414518117904663
v 64.30000305175781 2.1500000953674316 -0.40414518117904663
v 65.0 2.1500000953674316 -0.8082903623580933
v 64.5 2.1500000953674316 6.123234262925839e-17
v 64.50647735595703 2.1500000953674316 0.08020564168691635
v 64.5257339477539 2.1500000953674316 0.15833400189876556
v 64.5572738647461 2.1500000953674316 0.2323615849018097
v 64.60028076171875 2.1500000953674316 0.3003711402416229
v 64.65364074707031 2.1500000953674316 0.3606012165546417
v 64.7159652709961 2.1500000953674316 0.41149193048477173
v 64.78565216064453 2.1500000953674316 0.45172521471977234
v 64.86089324951172 2.1500000953674316 0.4802590608596802
v 64.93973541259766 2.1500000953674316 0.49635443091392517
v 65.02013397216797 2.1500000953674316 0.499594509601593
v 65.10001373291016 2.1500000953674316 0.4898953139781952
v 65.17729949951172 2.1500000953674316 0.46750810742378235
v 65.25 2.1500000953674316 0.4330126941204071
v 65.31622314453125 2.1500000953674316 0.3873024880886078
v 65.37425231933594 2.1500000953674316 0.3315613269805908
v 65.42259216308594 2.1500000953674316 0.2672329246997833
v 65.45999145507812 2.1500000953674316 0.19598330557346344
v 65.4854736328125 2.1500000953674316 0.11965782940387726
v 65.49837493896484 2.1500000953674316 0.04023328423500061
v 65.49837493896484 2.1500000953674316 -0.04023328423500061
v 65.4854736328125 2.1500000953674316 -0.11965782940387726
v 65.45999145507812 2.1500000953674316 -0.19598330557346344
v 65.42259216308594 2.1500000953674316 -0.2672329246997833
v 65.37425231933594 2.1500000953674316 -0.3315613269805908
v 65.31622314453125 2.1500000953674316 -0.3873024880886078
v 65.25 2.1500000953674316 -0.4330126941204071
v 65.17729949951172 2.1500000953674316 -0.46750810742378235
v 65.10001373291016 2.1500000953674316 -0.4898953139781952
v 65.02013397216797 2.1500000953674316 -0.499594509601593
v 64.93973541259766 2.1500000953674316 -0.49635443091392517
v 64.86089324951172 2.1500000953674316 -0.4802590608596802
v 64.78565216064453 2.1500000953674316 -0.45172521471977234
v 64.7159652709961 2.1500000953674316 -0.41149193048477173
v 64.65364074707031 2.1500000953674316 -0.3606012165546417
v 64.60028076171875 2.1500000953674316 -0.3003711402416229
v 64.5572738647461 2.1500000953674316 -0.2323615849018097
v 64.5257339477539 2.1500000953674316 -0.15833400189876556
v 64.50647735595703 2.1500000953674316 -0.08020564168691635
v 64.5 2.1500000953674316 6.123234262925839e-17
v 64.50647735595703 2.1500000953674316 -0.08020564168691635
v 64.5257339477539 2.1500000953674316 -0.15833400189876556
v 64.5572738647461 2.1500000953674316 -0.2323615849018097
v 64.60028076171875 2.1500000953674316 -0.3003711402416229
v 64.65364074707031 2.1500000953674316 -0.3606012165546417
v 64.7159652709961 2.1500000953674316 -0.41149193048477173
v 64.78565216064453 2.1500000953674316 -0.45172521471977234
v 64.86089324951172 2.1500000953674316 -0.4802590608596802
v 64.93973541259766 2.1500000953674316 -0.49635443091392517
v 65.02013397216797 2.1500000953674316 -0.499594509601593
v 65.10001373291016 2.1500000953674316 -0.4898953139781952
v 65.17729949951172 2.1500000953674316 -0.46750810742378235
v 65.25 2.1500000953674316 -0.4330126941204071
v 65.31622314453125 2.1500000953674316 -0.3873024880886078
v 65.37425231933594 2.1500000953674316 -0.3315613269805908
v 65.42259216308594 2.1500000953674316 -0.2672329246997833
v 65.45999145507812 2.1500000953674316 -0.19598330557346344
v 65.4854736328125 2.1500000953674316 -0.11965782940387726
v 65.49837493896484 2.1500000953674316 -0.04023328423500061
v 65.49837493896484 2.1500000953674316 0.04023328423500061
v 65.4854736328125 2.1500000953674316 0.11965782940387726
v 65.45999145507812 2.1500000953674316 0.19598330557346344
v 65.42259216308594 2.1500000953674316 0.2672329246997833
v 65.37425231933594 2.1500000953674316 0.3315613269805908
v 65.31622314453125 2.1500000953674316 0.3873024880886078
v 65.25 2.1500000953674316 0.4330126941204071
v 65.17729949951172 2.1500000953674316 0.46750810742378235
v 65.10001373291016 2.1500000953674316 0.4898953139781952
v 65.02013397216797 2.1500000953674316 0.499594509601593
v 64.93973541259766 2.1500000953674316 0.49635443091392517
v 64.86089324951172 2.1500000953674316 0.4802590608596802
v 64.78565216064453 2.1500000953674316 0.45172521471977234
v 64.7159652709961 2.1500000953674316 0.41149193048477173
v 64.65364074707031 2.1500000953674316 0.3606012165546417
v 64.60028076171875 2.1500000953674316 0.3003711402416229
v 64.5572738647461 2.1500000953674316 0.2323615849018097
v 64.5257339477539 2.1500000953674316 0.15833400189876556
v 64.50647735595703 2.1500000953674316 0.08020564168691635
v 64.5 0.0 6.123234262925839e-17
v 64.50647735595703 0.0 0.08020564168691635
v 64.5257339477539 0.0 0.15833400189876556
v 64.5572738647461 0.0 0.2323615849018097
v 64.60028076171875 0.0 0.3003711402416229
v 64.65364074707031 0.0 0.3606012165546417
v 64.7159652709961 0.0 0.41149193048477173
v 64.78565216064453 0.0 0.45172521471977234
v 64.86089324951172 0.0 0.4802590608596802
v 64.93973541259766 0.0 0.49635443091392517
v 65.02013397216797 0.0 0.499594509601593
v 65.10001373291016 0.0 0.4898953139781952
v 65.17729949951172 0.0 0.46750810742378235
v 65.25 0.0 0.4330126941204071
v 65.31622314453125 0.0 0.3873024880886078
v 65.37425231933594 0.0 0.3315613269805908
v 65.42259216308594 0.0 0.2672329246997833
v 65.45999145507812 0.0 0.19598330557346344
v 65.4854736328125 0.0 0.11965782940387726
v 65.49837493896484 0.0 0.04023328423500061
v 65.49837493896484 0.0 -0.04023328423500061
v 65.4854736328125 0.0 -0.11965782940387726
v 65.45999145507812 0.0 -0.19598330557346344
v 65.42259216308594 0.0 -0.2672329246997833
v 65.37425231933594 0.0 -0.3315613269805908
v 65.31622314453125 0.0 -0.3873024880886078
v 65.25 0.0 -0.4330126941204071
v 65.17729949951172 0.0 -0.46750810742378235
v 65.10001373291016 0.0 -0.4898953139781952
v 65.02013397216797 0.0 -0.499594509601593
v 64.93973541259766 0.0 -0.49635443091392517
v 64.86089324951172 0.0 -0.4802590608596802
v 64.78565216064453 0.0 -0.45172521471977234
v 64.7159652709961 0.0 -0.41149193048477173
v 64.65364074707031 0.0 -0.3606012165546417
v 64.60028076171875 0.0 -0.3003711402416229
v 64.5572738647461 0.0 -0.2323615849018097
v 64.5257339477539 0.0 -0.15833400189876556
v 64.50647735595703 0.0 -0.08020564168691635
v 64.5 0.0 6.123234262925839e-17
v 64.5 2.1500000953674316 6.123234262925839e-17
v 65.0 2.1500000953674316 -0.8082903623580933
v 64.30000305175781 2.1500000953674316 -0.40414518117904663
v 64.30000305175781 2.6500000953674316 -0.40414518117904663
v 65.0 2.6500000953674316 -0.8082903623580933
v 64.5 0.0 6.123234262925839e-17
v 64.50647735595703 0.0 -0.08020564168691635
v 64.5257339477539 0.0 -0.15833400189876556
v 64.5572738647461 0.0 -0.2323615849018097
v 64.60028076171875 0.0 -0.3003711402416229
v 64.65364074707031 0.0 -0.3606012165546417
v 64.7159652709961 0.0 -0.41149193048477173
v 64.78565216064453 0.0 -0.45172521471977234
v 64.86089324951172 0.0 -0.4802590608596802
v 64.93973541259766 0.0 -0.49635443091392517
v 65.02013397216797 0.0 -0.499594509601593
v 65.10001373291016 0.0 -0.4898953139781952
v 65.17729949951172 0.0 -0.46750810742378235
v 65.25 0.0 -0.4330126941204071
v 65.31622314453125 0.0 -0.3873024880886078
v 65.37425231933594 0.0 -0.3315613269805908
v 65.42259216308594 0.0 -0.2672329246997833
v 65.45999145507812 0.0 -0.19598330557346344
v 65.4854736328125 0.0 -0.11965782940387726
v 65.49837493896484 0.0 -0.04023328423500061
v 65.49837493896484 0.0 0.04023328423500061
v 65.4854736328125 0.0 0.11965782940387726
v 65.45999145507812 0.0 0.19598330557346344
v 65.42259216308594 0.0 0.2672329246997833
v 65.37425231933594 0.0 0.3315613269805908
v 65.31622314453125 0.0 0.3873024880886078
v 65.25 0.0 0.4330126941204071
v 65.17729949951172 0.0 0.46750810742378235
v 65.10001373291016 0.0 0.4898953139781952
v 65.02013397216797 0.0 0.499594509601593
v 64.93973541259766 0.0 0.49635443091392517
v 64.86089324951172 0.0 0.4802590608596802
v 64.78565216064453 0.0 0.45172521471977234
v 64.7159652709961 0.0 0.41149193048477173
v 64.65364074707031 0.0 0.3606012165546417
v 64.60028076171875 0.0 0.3003711402416229
v 64.5572738647461 0.0 0.2323615849018097
v 64.5257339477539 0.0 0.15833400189876556
v 64.50647735595703 0.0 0.08020564168691635
v 64.30000305175781 2.1500000953674316 0.40414518117904663
v 65.0 2.1500000953674316 0.8082903623580933
v 65.0 2.6500000953674316 0.8082903623580933
v 64.30000305175781 2.6500000953674316 0.40414518117904663
v 64.30000305175781 2.1500000953674316 -0.40414518117904663
v 64.30000305175781 2.1500000953674316 0.40414518117904663
v 64.30000305175781 2.6500000953674316 0.40414518117904663
v 64.30000305175781 2.6500000953674316 -0.40414518117904663
v 65.0 2.1500000953674316 0.8082903623580933
v 65.69999694824219 2.1500000953674316 0.40414518117904663
v 65.69999694824219 2.6500000953674316 0.40414518117904663
v 65.0 2.6500000953674316 0.8082903623580933
vn 0.0 1.0 0.0
vn 0.0 1.0 0.0
vn 0.0 1.0 0.0
vn 0.0 1.0 0.0
vn 0.0 1.0 0.0
vn 0.0 1.0 0.0
vn 1.0 -0.0 0.0
vn 1.0 -0.0 0.0
vn 1.0 -0.0 0.0
vn 1.0 -0.0 0.0
vn 0.5 0.0 -0.8660253882408142
vn 0.5 0.0 -0.8660253882408142
vn 0.5 0.0 -0.8660253882408142
vn 0.5 0.0 -0.8660253882408142
vn -0.0 -1.0 -0.0
vn -0.0 -1.0 -0.0
vn -0.0 -1.0 -0.0
vn -0.0 -1.0 -0.0
vn -0.0 -1.0 -0.0
vn -0.0 -1.0 -0.0
vn -0.0 -1.0 -0.0
vn -0.0 -1.0 -0.0
vn -0.0 -1.0 -0.0
vn -0.0 -1.0 -0.0
vn -0.0 -1.0 -0.0
vn -0.0 -1.0 -0.0
vn -0.0 -1.0 -0.0
vn -0.0 -1.0 -0.0
vn -0.0 -1.0 -0.0
vn -0.0 -1.0 -0.0
vn -0.0 -1.0 -0.0
vn -0.0 -1.0 -0.0
vn -0.0 -1.0 -0.0
vn -0.0 -1.0 -0.0
vn -0.0 -1.0 -0.0
vn -0.0 -1.0 -0.0
vn -0.0 -1.0 -0.0
vn -0.0 -1.0 -0.0
vn -0.0 -1.0 -0.0
vn -0.0 -1.0 -0.0
vn -0.0 -1.0 -0.0
vn -0.0 -1.0 -0.0
vn -0.0 -1.0 -0.0
vn -0.0 -1.0 -0.0
vn -0.0 -1.0 -0.0
vn -0.0 -1.0 -0.0
vn -0.0 -1.0 -0.0
vn -0.0 -1.0 -0.0
vn -0.0 -1.0 -0.0
vn -0.0 -1.0 -0.0
vn -0.0 -1.0 -0.0
vn -0.0 -1.0 -0.0
vn -0.0 -1.0 -0.0
vn -0.0 -1.0 -0.0
vn -0.0 -1.0 -0.0
vn -0.0 -1.0 -0.0
vn -0.0 -1.0 -0.0
vn -0.0 -1.0 -0.0
vn -0.0 -1.0 -0.0
vn -1.0 0.0 -1.2246468525851679e-16
vn -0.9870502352714539 0.0 -0.1604112833738327
vn -0.9485364556312561 0.0 -0.31666800379753113
vn -0.8854560256004333 0.0 -0.4647231698036194
vn -0.7994427680969238 0.0 -0.6007422804832458
vn -0.692724347114563 0.0 -0.7212024331092834
vn -0.5680647492408752 0.0 -0.8229838609695435
vn -0.4286925494670868 0.0 -0.9034504294395447
vn -0.27821746468544006 0.0 -0.9605181217193604
vn -0.1205366775393486 0.0 -0.9927088618278503
vn 0.04026594012975693 -0.0 -0.999189019203186
vn 0.20002569258213043 -0.0 -0.9797906279563904
vn 0.35460489988327026 -0.0 -0.9350162148475647
vn 0.5 -0.0 -0.8660253882408142
vn 0.6324453949928284 -0.0 -0.7746049761772156
vn 0.7485107779502869 -0.0 -0.6631226539611816
vn 0.8451901078224182 -0.0 -0.5344658493995667
vn 0.919979453086853 -0.0 -0.3919666111469269
vn 0.9709418416023254 -0.0 -0.23931565880775452
vn 0.9967573285102844 -0.0 -0.08046656847000122
vn 0.9967573285102844 -0.0 0.08046656847000122
vn 0.9709418416023254 -0.0 0.23931565880775452
vn 0.919979453086853 -0.0 0.3919666111469269
vn 0.8451901078224182 -0.0 0.5344658493995667
vn 0.7485107779502869 -0.0 0.6631226539611816
vn 0.6324453949928284 -0.0 0.7746049761772156
vn 0.5 -0.0 0.8660253882408142
vn 0.35460489988327026 -0.0 0.9350162148475647
vn 0.20002569258213043 -0.0 0.9797906279563904
vn 0.04026594012975693 -0.0 0.999189019203186
vn -0.1205366775393486 -0.0 0.9927088618278503
vn -0.27821746468544006 -0.0 0.9605181217193604
vn -0.4286925494670868 -0.0 0.9034504294395447
vn -0.5680647492408752 -0.0 0.8229838609695435
vn -0.692724347114563 -0.0 0.7212024331092834
vn -0.7994427680969238 -0.0 0.6007422804832458
vn -0.8854560256004333 -0.0 0.4647231698036194
vn -0.9485364556312561 -0.0 0.31666800379753113
vn -0.9870502352714539 -0.0 0.1604112833738327
vn -1.0 -0.0 1.2246468525851679e-16
vn -0.9870502352714539 -0.0 0.1604112833738327
vn -0.9485364556312561 -0.0 0.31666800379753113
vn -0.8854560256004333 -0.0 0.4647231698036194
vn -0.7994427680969238 -0.0 0.6007422804832458
vn -0.692724347114563 -0.0 0.7212024331092834
vn -0.5680647492408752 -0.0 0.8229838609695435
vn -0.4286925494670868 -0.0 0.9034504294395447
vn -0.27821746468544006 -0.0 0.9605181217193604
vn -0.1205366775393486 -0.0 0.9927088618278503
vn 0.04026594012975693 -0.0 0.999189019203186
vn 0.20002569258213043 -0.0 0.9797906279563904
vn 0.35460489988327026 -0.0 0.9350162148475647
vn 0.5 -0.0 0.8660253882408142
vn 0.6324453949928284 -0.0 0.7746049761772156
vn 0.7485107779502869 -0.0 0.6631226539611816
vn 0.8451901078224182 -0.0 0.5344658493995667
vn 0.919979453086853 -0.0 0.3919666111469269
vn 0.9709418416023254 -0.0 0.23931565880775452
vn 0.9967573285102844 -0.0 0.08046656847000122
vn 0.9967573285102844 -0.0 -0.08046656847000122
vn 0.9709418416023254 -0.0 -0.23931565880775452
vn 0.919979453086853 -0.0 -0.3919666111469269
vn 0.8451901078224182 -0.0 -0.5344658493995667
vn 0.7485107779502869 -0.0 -0.6631226539611816
vn 0.6324453949928284 -0.0 -0.7746049761772156
vn 0.5 -0.0 -0.8660253882408142
vn 0.35460489988327026 -0.0 -0.9350162148475647
vn 0.20002569258213043 -0.0 -0.9797906279563904
vn 0.04026594012975693 -0.0 -0.999189019203186
vn -0.1205366775393486 0.0 -0.9927088618278503
vn -0.27821746468544006 0.0 -0.9605181217193604
vn -0.4286925494670868 0.0 -0.9034504294395447
vn -0.5680647492408752 0.0 -0.8229838609695435
vn -0.692724347114563 0.0 -0.7212024331092834
vn -0.7994427680969238 0.0 -0.6007422804832458
vn -0.8854560256004333 0.0 -0.4647231698036194
vn -0.9485364556312561 0.0 -0.31666800379753113
vn -0.9870502352714539 0.0 -0.1604112833738327
vn -1.0 0.0 -1.2246468525851679e-16
vn -1.0 -0.0 1.2246468525851679e-16
vn -0.5 0.0 -0.8660253882408142
vn -0.5 0.0 -0.8660253882408142
vn -0.5 0.0 -0.8660253882408142
vn -0.5 0.0 -0.8660253882408142
vn -0.0 -1.0 -0.0
vn -0.0 -1.0 -0.0
vn -0.0 -1.0 -0.0
vn -0.0 -1.0 -0.0
vn -0.0 -1.0 -0.0
vn -0.0 -1.0 -0.0
vn -0.0 -1.0 -0.0
vn -0.0 -1.0 -0.0
vn -0.0 -1.0 -0.0
vn -0.0 -1.0 -0.0
vn -0.0 -1.0 -0.0
vn -0.0 -1.0 -0.0
vn -0.0 -1.0 -0.0
vn -0.0 -1.0 -0.0
vn -0.0 -1.0 -0.0
vn -0.0 -1.0 -0.0
vn -0.0 -1.0 -0.0
vn -0.0 -1.0 -0.0
vn -0.0 -1.0 -0.0
vn -0.0 -1.0 -0.0
vn -0.0 -1.0 -0.0
vn -0.0 -1.0 -0.0
vn -0.0 -1.0 -0.0
vn -0.0 -1.0 -0.0
vn -0.0 -1.0 -0.0
vn -0.0 -1.0 -0.0
vn -0.0 -1.0 -0.0
vn -0.0 -1.0 -0.0
vn -0.0 -1.0 -0.0
vn -0.0 -1.0 -0.0
vn -0.0 -1.0 -0.0
vn -0.0 -1.0 -0.0
vn -0.0 -1.0 -0.0
vn -0.0 -1.0 -0.0
vn -0.0 -1.0 -0.0
vn -0.0 -1.0 -0.0
vn -0.0 -1.0 -0.0
vn -0.0 -1.0 -0.0
vn -0.0 -1.0 -0.0
vn -0.5 0.0 0.8660253882408142
vn -0.5 0.0 0.8660253882408142
vn -0.5 0.0 0.8660253882408142
vn -0.5 0.0 0.8660253882408142
vn -1.0 0.0 0.0
vn -1.0 0.0 0.0
vn -1.0 0.0 0.0
vn -1.0 0.0 0.0
vn 0.5 -0.0 0.8660253882408142
vn 0.5 -0.0 0.8660253882408142
vn 0.5 -0.0 0.8660253882408142
vn 0.5 -0.0 0.8660253882408142
f 1//1 2//2 6//6
f 6//6 2//2 3//3
f 6//6 3//3 5//5
f 5//5 3//3 4//4
f 7//7 8//8 10//10
f 10//10 8//8 9//9
f 11//11 12//12 14//14
f 14//14 12//12 13//13
f 16//16 40//40 15//15
f 15//15 40//40 41//41
f 15//15 41//41 42//42
f 17//17 34//34 16//16
f 16//16 34//34 35//35
f 16//16 35//35 36//36
f 18//18 27//27 17//17
f 17//17 27//27 28//28
f 17//17 28//28 29//29
f 19//19 21//21 18//18
f 18//18 21//21 22//22
f 18//18 22//22 23//23
f 20//20 54//54 19//19
f 19//19 54//54 55//55
f 19//19 55//55 56//56
f 15//15 47//47 20//20
f 20//20 47//47 48//48
f 20//20 48//48 49//49
f 23//23 24//24 18//18
f 18//18 24//24 25//25
f 18//18 25//25 26//26
f 26//26 27//27 18//18
f 29//29 30//30 17//17
f 17//17 30//30 31//31
f 17//17 31//31 32//32
f 32//32 33//33 17//17
f 17//17 33//33 34//34
f 36//36 37//37 16//16
f 16//16 37//37 38//38
f 16//16 38//38 39//39
f 39//39 40//40 16//16
f 42//42 43//43 15//15
f 15//15 43//43 44//44
f 15//15 44//44 45//45
f 45//45 46//46 15//15
f 15//15 46//46 47//47
f 49//49 50//50 20//20
f 20//20 50//50 51//51
f 20//20 51//51 52//52
f 52//52 53//53 20//20
f 20//20 53//53 54//54
f 56//56 57//57 19//19
f 19//19 57//57 58//58
f 19//19 58//58 59//59
f 59//59 21//21 19//19
f 61//61 137//137 60//60
f 60//60 137//137 138//138
f 139//139 99//99 98//98
f 98//98 99//99 100//100
f 98//98 100//100 97//97
f 97//97 100//100 101//101
f 97//97 101//101 96//96
f 96//96 101//101 102//102
f 96//96 102//102 95//95
f 95//95 102//102 103//103
f 95//95 103//103 94//94
f 94//94 103//103 104//104
f 94//94 104//104 93//93
f 93//93 104//104 105//105
f 93//93 105//105 92//92
f 92//92 105//105 106//106
f 92//92 106//106 91//91
f 91//91 106//106 107//107
f 91//91 107//107 90//90
f 90//90 107//107 108//108
f 90//90 108//108 89//89
f 89//89 108//108 109//109
f 89//89 109//109 88//88
f 88//88 109//109 110//110
f 88//88 110//110 87//87
f 87//87 110//110 111//111
f 87//87 111//111 86//86
f 86//86 111//111 112//112
f 86//86 112//112 85//85
f 85//85 112//112 113//113
f 85//85 113//113 84//84
f 84//84 113//113 114//114
f 84//84 114//114 83//83
f 83//83 114//114 115//115
f 83//83 115//115 82//82
f 82//82 115//115 116//116
f 82//82 116//116 81//81
f 81//81 116//116 117//117
f 81//81 117//117 80//80
f 80//80 117//117 118//118
f 80//80 118//118 79//79
f 79//79 118//118 119//119
f 79//79 119//119 78//78
f 78//78 119//119 120//120
f 78//78 120//120 77//77
f 77//77 120//120 121//121
f 77//77 121//121 76//76
f 76//76 121//121 122//122
f 76//76 122//122 75//75
f 75//75 122//122 123//123
f 75//75 123//123 74//74
f 74//74 123//123 124//124
f 74//74 124//124 73//73
f 73//73 124//124 125//125
f 73//73 125//125 72//72
f 72//72 125//125 126//126
f 72//72 126//126 71//71
f 71//71 126//126 127//127
f 71//71 127//127 70//70
f 70//70 127//127 128//128
f 70//70 128//128 69//69
f 69//69 128//128 129//129
f 69//69 129//129 68//68
f 68//68 129//129 130//130
f 68//68 130//130 67//67
f 67//67 130//130 131//131
f 67//67 131//131 66//66
f 66//66 131//131 132//132
f 66//66 132//132 65//65
f 65//65 132//132 133//133
f 65//65 133//133 64//64
f 64//64 133//133 134//134
f 64//64 134//134 63//63
f 63//63 134//134 135//135
f 63//63 135//135 62//62
f 62//62 135//135 136//136
f 62//62 136//136 61//61
f 61//61 136//136 137//137
f 140//140 141//141 143//143
f 143//143 141//141 142//142
f 145//145 163//163 144//144
f 144//144 163//163 164//164
f 144//144 164//164 182//182
f 182//182 164//164 165//165
f 182//182 165//165 181//181
f 181//181 165//165 166//166
f 181//181 166//166 180//180
f 180//180 166//166 167//167
f 180//180 167//167 179//179
f 179//179 167//167 168//168
f 179//179 168//168 178//178
f 178//178 168//168 169//169
f 178//178 169//169 177//177
f 177//177 169//169 170//170
f 177//177 170//170 176//176
f 176//176 170//170 171//171
f 176//176 171//171 175//175
f 175//175 171//171 172//172
f 175//175 172//172 174//174
f 174//174 172//172 173//173
f 163//163 145//145 162//162
f 162//162 145//145 146//146
f 162//162 146//146 161//161
f 161//161 146//146 147//147
f 161//161 147//147 160//160
f 160//160 147//147 148//148
f 160//160 148//148 159//159
f 159//159 148//148 149//149
f 159//159 149//149 158//158
f 158//158 149//149 150//150
f 158//158 150//150 157//157
f 157//157 150//150 151//151
f 157//157 151//151 156//156
f 156//156 151//151 152//152
f 156//156 152//152 155//155
f 155//155 152//152 153//153
f 155//155 153//153 154//154
f 183//183 184//184 186//186
f 186//186 184//184 185//185
f 187//187 188//188 190//190
f 190//190 188//188 189//189
f 191//191 192//192 194//194
f 194//194 192//192 193//193

# End of file