# WaveFront *.obj file
# Vertices: 144
# Triangles : 88

v 100.0 52.08604049682617 -40.0
v 100.0 52.08604049682617 40.0
v 0.0 52.08604049682617 40.0
v 0.0 52.08604049682617 -40.0
v 15.0 65.0 -40.0
v 15.0 55.0 -40.0
v 85.0 55.0 -40.0
v 85.0 65.0 -40.0
v 100.0 52.08604049682617 -40.0
v 0.0 52.08604049682617 -40.0
v 0.0 0.0 -40.0
v -10.0 0.0 -40.0
v -10.0 75.0 -40.0
v 110.0 75.0 -40.0
v 110.0 0.0 -40.0
v 100.0 0.0 -40.0
v -10.0 0.0 20.0
v 0.0 0.0 20.0
v 0.0 0.0 40.0
v -10.0 0.0 40.0
v -10.0 75.0 -40.0
v -10.0 75.0 40.0
v 110.0 75.0 40.0
v 110.0 75.0 -40.0
v 100.0 0.0 20.0
v 110.0 0.0 20.0
v 110.0 0.0 40.0
v 100.0 0.0 40.0
v 0.0 52.08604049682617 40.0
v 100.0 52.08604049682617 40.0
v 100.0 0.0 40.0
v 110.0 0.0 40.0
v 110.0 75.0 40.0
v -10.0 75.0 40.0
v -10.0 0.0 40.0
v 0.0 0.0 40.0
v 15.0 55.0 -40.0
v 15.0 65.0 -40.0
v 15.0 65.0 -10.0
v 15.0 55.0 -10.0
v 0.0 0.0 20.0
v 0.0 50.0 20.0
v 0.0 50.0 -20.0
v 0.0 0.0 -20.0
v 0.0 0.0 -40.0
v 0.0 52.08604049682617 -40.0
v 0.0 52.08604049682617 40.0
v 0.0 0.0 40.0
v 0.0 0.0 -20.0
v -10.0 0.0 -20.0
v -10.0 0.0 -40.0
v 0.0 0.0 -40.0
v -10.0 0.0 -20.0
v -10.0 50.0 -20.0
v -10.0 50.0 20.0
v -10.0 0.0 20.0
v -10.0 0.0 40.0
v -10.0 75.0 40.0
v -10.0 75.0 -40.0
v -10.0 0.0 -40.0
v 110.0 0.0 20.0
v 110.0 50.0 20.0
v 110.0 50.0 -20.0
v 110.0 0.0 -20.0
v 110.0 0.0 -40.0
v 110.0 75.0 -40.0
v 110.0 75.0 40.0
v 110.0 0.0 40.0
v 100.0 50.0 20.0
v 100.0 50.0 -20.0
v 110.0 50.0 -20.0
v 110.0 50.0 20.0
v 100.0 0.0 -20.0
v 100.0 50.0 -20.0
v 100.0 50.0 20.0
v 100.0 0.0 20.0
v 100.0 0.0 40.0
v 100.0 52.08604049682617 40.0
v 100.0 52.08604049682617 -40.0
v 100.0 0.0 -40.0
v 110.0 0.0 -20.0
v 100.0 0.0 -20.0
v 100.0 0.0 -40.0
v 110.0 0.0 -40.0
v 85.0 55.0 -40.0
v 15.0 55.0 -40.0
v 15.0 55.0 -10.0
v 85.0 55.0 -10.0
v 85.0 55.0 -10.0
v 15.0 55.0 -10.0
v 15.0 65.0 -10.0
v 85.0 65.0 -10.0
v 15.0 65.0 -40.0
v 85.0 65.0 -40.0
v 85.0 65.0 -10.0
v 15.0 65.0 -10.0
v 0.0 50.0 -20.0
v 0.0 50.0 20.0
v -10.0 50.0 20.0
v -10.0 50.0 -20.0
v 0.0 0.0 -20.0
v 0.0 50.0 -20.0
v -10.0 50.0 -20.0
v -10.0 0.0 -20.0
v 100.0 50.0 -20.0
v 100.0 0.0 -20.0
v 110.0 0.0 -20.0
v 110.0 50.0 -20.0
v 85.0 65.0 -40.0
v 85.0 55.0 -40.0
v 85.0 55.0 -10.0
v 85.0 65.0 -10.0
v 100.0 0.0 20.0
v 100.0 50.0 20.0
v 110.0 50.0 20.0
v 110.0 0.0 20.0
v 0.0 50.0 20.0
v 0.0 0.0 20.0
v -10.0 0.0 20.0
v -10.0 50.0 20.0
v 84.89879608154297 55.10000228881836 -68.0
v 15.100000381469727 55.10000228881836 -68.0
v 15.100000381469727 64.90739440917969 -68.0
v 84.89879608154297 64.90739440917969 -68.0
v 84.89879608154297 55.10000228881836 -40.0
v 15.100000381469727 55.10000228881836 -40.0
v 15.100000381469727 55.10000228881836 -68.0
v 84.89879608154297 55.10000228881836 -68.0
v 15.100000381469727 55.10000228881836 -40.0
v 84.89879608154297 55.10000228881836 -40.0
v 84.89879608154297 64.90739440917969 -40.0
v 15.100000381469727 64.90739440917969 -40.0
v 84.89879608154297 64.90739440917969 -40.0
v 84.89879608154297 55.10000228881836 -40.0
v 84.89879608154297 55.10000228881836 -68.0
v 84.89879608154297 64.90739440917969 -68.0
v 15.100000381469727 64.90739440917969 -40.0
v 84.89879608154297 64.90739440917969 -40.0
v 84.89879608154297 64.90739440917969 -68.0
v 15.100000381469727 64.90739440917969 -68.0
v 15.100000381469727 55.10000228881836 -40.0
v 15.100000381469727 64.90739440917969 -40.0
v 15.100000381469727 64.90739440917969 -68.0
v 15.100000381469727 55.10000228881836 -68.0
vn 0.0 -1.0 0.0
vn 0.0 -1.0 0.0
vn 0.0 -1.0 0.0
vn 0.0 -1.0 0.0
vn 0.0 0.0 -1.0
vn 0.0 0.0 -1.0
vn 0.0 0.0 -1.0
vn 0.0 0.0 -1.0
vn 0.0 0.0 -1.0
vn 0.0 0.0 -1.0
vn 0.0 0.0 -1.0
vn 0.0 0.0 -1.0
vn 0.0 0.0 -1.0
vn 0.0 0.0 -1.0
vn 0.0 0.0 -1.0
vn 0.0 0.0 -1.0
vn 0.0 -1.0 0.0
vn 0.0 -1.0 0.0
vn 0.0 -1.0 0.0
vn 0.0 -1.0 0.0
vn 0.0 1.0 0.0
vn 0.0 1.0 0.0
vn 0.0 1.0 0.0
vn 0.0 1.0 0.0
vn 0.0 -1.0 0.0
vn 0.0 -1.0 0.0
vn 0.0 -1.0 0.0
vn 0.0 -1.0 0.0
vn 0.0 0.0 1.0
vn 0.0 0.0 1.0
vn 0.0 0.0 1.0
vn 0.0 0.0 1.0
vn 0.0 0.0 1.0
vn 0.0 0.0 1.0
vn 0.0 0.0 1.0
vn 0.0 0.0 1.0
vn 1.0 -0.0 -0.0
vn 1.0 -0.0 -0.0
vn 1.0 -0.0 -0.0
vn 1.0 -0.0 -0.0
vn 1.0 -1.2246468525851679e-16 0.0
vn 1.0 -1.2246468525851679e-16 0.0
vn 1.0 -1.2246468525851679e-16 0.0
vn 1.0 -1.2246468525851679e-16 0.0
vn 1.0 -1.2246468525851679e-16 0.0
vn 1.0 -1.2246468525851679e-16 0.0
vn 1.0 -1.2246468525851679e-16 0.0
vn 1.0 -1.2246468525851679e-16 0.0
vn 0.0 -1.0 0.0
vn 0.0 -1.0 0.0
vn 0.0 -1.0 0.0
vn 0.0 -1.0 0.0
vn -1.0 0.0 0.0
vn -1.0 0.0 0.0
vn -1.0 0.0 0.0
vn -1.0 0.0 0.0
vn -1.0 0.0 0.0
vn -1.0 0.0 0.0
vn -1.0 0.0 0.0
vn -1.0 0.0 0.0
vn 1.0 0.0 -0.0
vn 1.0 0.0 -0.0
vn 1.0 0.0 -0.0
vn 1.0 0.0 -0.0
vn 1.0 0.0 -0.0
vn 1.0 0.0 -0.0
vn 1.0 0.0 -0.0
vn 1.0 0.0 -0.0
vn -0.0 -1.0 0.0
vn -0.0 -1.0 0.0
vn -0.0 -1.0 0.0
vn -0.0 -1.0 0.0
vn -1.0 0.0 0.0
vn -1.0 0.0 0.0
vn -1.0 0.0 0.0
vn -1.0 0.0 0.0
vn -1.0 0.0 0.0
vn -1.0 0.0 0.0
vn -1.0 0.0 0.0
vn -1.0 0.0 0.0
vn 0.0 -1.0 0.0
vn 0.0 -1.0 0.0
vn 0.0 -1.0 0.0
vn 0.0 -1.0 0.0
vn -0.0 1.0 -0.0
vn -0.0 1.0 -0.0
vn -0.0 1.0 -0.0
vn -0.0 1.0 -0.0
vn -0.0 -0.0 -1.0
vn -0.0 -0.0 -1.0
vn -0.0 -0.0 -1.0
vn -0.0 -0.0 -1.0
vn -0.0 -1.0 0.0
vn -0.0 -1.0 0.0
vn -0.0 -1.0 0.0
vn -0.0 -1.0 0.0
vn -0.0 -1.0 0.0
vn -0.0 -1.0 0.0
vn -0.0 -1.0 0.0
vn -0.0 -1.0 0.0
vn -0.0 -0.0 1.0
vn -0.0 -0.0 1.0
vn -0.0 -0.0 1.0
vn -0.0 -0.0 1.0
vn -0.0 -0.0 1.0
vn -0.0 -0.0 1.0
vn -0.0 -0.0 1.0
vn -0.0 -0.0 1.0
vn -1.0 -0.0 -0.0
vn -1.0 -0.0 -0.0
vn -1.0 -0.0 -0.0
vn -1.0 -0.0 -0.0
vn -0.0 -0.0 -1.0
vn -0.0 -0.0 -1.0
vn -0.0 -0.0 -1.0
vn -0.0 -0.0 -1.0
vn -0.0 -0.0 -1.0
vn -0.0 -0.0 -1.0
vn -0.0 -0.0 -1.0
vn -0.0 -0.0 -1.0
vn 0.0 0.0 -1.0
vn 0.0 0.0 -1.0
vn 0.0 0.0 -1.0
vn 0.0 0.0 -1.0
vn 0.0 -1.0 0.0
vn 0.0 -1.0 0.0
vn 0.0 -1.0 0.0
vn 0.0 -1.0 0.0
vn -0.0 -0.0 1.0
vn -0.0 -0.0 1.0
vn -0.0 -0.0 1.0
vn -0.0 -0.0 1.0
vn 1.0 -0.0 0.0
vn 1.0 -0.0 0.0
vn 1.0 -0.0 0.0
vn 1.0 -0.0 0.0
vn 0.0 1.0 0.0
vn 0.0 1.0 0.0
vn 0.0 1.0 0.0
vn 0.0 1.0 0.0
vn -1.0 -0.0 -0.0
vn -1.0 -0.0 -0.0
vn -1.0 -0.0 -0.0
vn -1.0 -0.0 -0.0
f 2//2 3//3 1//1
f 1//1 3//3 4//4
f 6//6 10//10 5//5
f 5//5 10//10 13//13
f 5//5 13//13 14//14
f 6//6 7//7 10//10
f 10//10 7//7 9//9
f 9//9 7//7 8//8
f 9//9 8//8 14//14
f 14//14 8//8 5//5
f 11//11 12//12 10//10
f 10//10 12//12 13//13
f 14//14 15//15 9//9
f 9//9 15//15 16//16
f 17//17 18//18 20//20
f 20//20 18//18 19//19
f 22//22 23//23 21//21
f 21//21 23//23 24//24
f 25//25 26//26 28//28
f 28//28 26//26 27//27
f 30//30 34//34 29//29
f 29//29 34//34 35//35
f 29//29 35//35 36//36
f 31//31 32//32 30//30
f 30//30 32//32 33//33
f 30//30 33//33 34//34
f 37//37 38//38 40//40
f 40//40 38//38 39//39
f 41//41 42//42 48//48
f 48//48 42//42 47//47
f 47//47 42//42 46//46
f 46//46 42//42 43//43
f 46//46 43//43 45//45
f 45//45 43//43 44//44
f 49//49 50//50 52//52
f 52//52 50//50 51//51
f 53//53 54//54 60//60
f 60//60 54//54 59//59
f 59//59 54//54 55//55
f 59//59 55//55 58//58
f 58//58 55//55 57//57
f 57//57 55//55 56//56
f 61//61 62//62 68//68
f 68//68 62//62 67//67
f 67//67 62//62 66//66
f 66//66 62//62 63//63
f 66//66 63//63 65//65
f 65//65 63//63 64//64
f 69//69 70//70 72//72
f 72//72 70//70 71//71
f 73//73 74//74 80//80
f 80//80 74//74 79//79
f 79//79 74//74 75//75
f 79//79 75//75 78//78
f 78//78 75//75 77//77
f 77//77 75//75 76//76
f 81//81 82//82 84//84
f 84//84 82//82 83//83
f 85//85 86//86 88//88
f 88//88 86//86 87//87
f 89//89 90//90 92//92
f 92//92 90//90 91//91
f 93//93 94//94 96//96
f 96//96 94//94 95//95
f 97//97 98//98 100//100
f 100//100 98//98 99//99
f 101//101 102//102 104//104
f 104//104 102//102 103//103
f 105//105 106//106 108//108
f 108//108 106//106 107//107
f 109//109 110//110 112//112
f 112//112 110//110 111//111
f 113//113 114//114 116//116
f 116//116 114//114 115//115
f 117//117 118//118 120//120
f 120//120 118//118 119//119
f 121//121 122//122 124//124
f 124//124 122//122 123//123
f 125//125 126//126 128//128
f 128//128 126//126 127//127
f 129//129 130//130 132//132
f 132//132 130//130 131//131
f 133//133 134//134 136//136
f 136//136 134//134 135//135
f 137//137 138//138 140//140
f 140//140 138//138 139//139
f 141//141 142//142 144//144
f 144//144 142//142 143//143

# End of file