# WaveFront *.obj file
# Vertices: 236
# Triangles : 220

v -6.900000095367432 0.0 25.0
v -6.959418773651123 0.0 25.260330200195312
v -7.125905990600586 0.0 25.469099044799805
v -7.366487503051758 0.0 25.584957122802734
v -7.633512496948242 0.0 25.584957122802734
v -7.874094009399414 0.0 25.469099044799805
v -8.040581703186035 0.0 25.260330200195312
v -8.100000381469727 0.0 25.0
v -8.040581703186035 0.0 24.739669799804688
v -7.874094009399414 0.0 24.530900955200195
v -7.633512496948242 0.0 24.415042877197266
v -7.366487503051758 0.0 24.415042877197266
v -7.125905990600586 0.0 24.530900955200195
v -6.959418773651123 0.0 24.739669799804688
v -1.0 0.0 37.5
v -1.0 0.0 12.5
v -15.0 0.0 12.5
v -15.0 0.0 37.5
v -6.900000095367432 -1.5 25.0
v -6.959418773651123 -1.5 25.260330200195312
v -7.125905990600586 -1.5 25.469099044799805
v -7.366487503051758 -1.5 25.584957122802734
v -7.633512496948242 -1.5 25.584957122802734
v -7.874094009399414 -1.5 25.469099044799805
v -8.040581703186035 -1.5 25.260330200195312
v -8.100000381469727 -1.5 25.0
v -8.040581703186035 -1.5 24.739669799804688
v -7.874094009399414 -1.5 24.530900955200195
v -7.633512496948242 -1.5 24.415042877197266
v -7.366487503051758 -1.5 24.415042877197266
v -7.125905990600586 -1.5 24.530900955200195
v -6.959418773651123 -1.5 24.739669799804688
v -6.900000095367432 0.0 25.0
v -6.959418773651123 0.0 24.739669799804688
v -7.125905990600586 0.0 24.530900955200195
v -7.366487503051758 0.0 24.415042877197266
v -7.633512496948242 0.0 24.415042877197266
v -7.874094009399414 0.0 24.530900955200195
v -8.040581703186035 0.0 24.739669799804688
v -8.100000381469727 0.0 25.0
v -8.040581703186035 0.0 25.260330200195312
v -7.874094009399414 0.0 25.469099044799805
v -7.633512496948242 0.0 25.584957122802734
v -7.366487503051758 0.0 25.584957122802734
v -7.125905990600586 0.0 25.469099044799805
v -6.959418773651123 0.0 25.260330200195312
v -6.900000095367432 -1.5 25.0
v -6.900000095367432 0.0 25.0
v 0.0 9.00048828125 23.7506103515625
v 0.0 0.0 12.5
v -1.0 0.0 12.5
v -1.0 9.00048828125 23.7506103515625
v -15.0 0.0 12.5
v -15.0 -1.5 12.5
v -15.0 -1.5 37.5
v -15.0 0.0 37.5
v 0.0 0.0 12.5
v 0.0 -1.5 12.5
v -15.0 -1.5 12.5
v -15.0 0.0 12.5
v -1.0 0.0 12.5
v -1.0 4.0 27.25
v -1.0 3.4993278980255127 27.193588256835938
v -1.0 3.023761510848999 27.027179718017578
v -1.0 2.5971479415893555 26.75912094116211
v -1.0 2.2408790588378906 26.402851104736328
v -1.0 1.9728200435638428 25.976238250732422
v -1.0 1.8064122200012207 25.50067138671875
v -1.0 1.75 25.0
v -1.0 1.8064122200012207 24.49932861328125
v -1.0 1.9728200435638428 24.023761749267578
v -1.0 2.2408790588378906 23.597148895263672
v -1.0 2.5971479415893555 23.24087905883789
v -1.0 3.023761510848999 22.972820281982422
v -1.0 3.4993278980255127 22.806411743164062
v -1.0 4.0 22.75
v -1.0 4.500671863555908 22.806411743164062
v -1.0 4.976238250732422 22.972820281982422
v -1.0 5.4028520584106445 23.24087905883789
v -1.0 5.759120941162109 23.597148895263672
v -1.0 6.027179718017578 24.023761749267578
v -1.0 6.193587779998779 24.49932861328125
v -1.0 6.25 25.0
v -1.0 6.193587779998779 25.50067138671875
v -1.0 6.027179718017578 25.976238250732422
v -1.0 5.759120941162109 26.402851104736328
v -1.0 5.4028520584106445 26.75912094116211
v -1.0 4.976238250732422 27.027179718017578
v -1.0 4.500671863555908 27.193588256835938
v -1.0 9.00048828125 23.7506103515625
v -1.0 0.0 12.5
v -1.0 0.0 37.5
v -1.0 9.00048828125 26.2493896484375
v -1.0 9.239794731140137 25.869619369506836
v -1.0 9.38837718963623 25.446044921875
v -1.0 9.438750267028809 25.0
v -1.0 9.38837718963623 24.553955078125
v -1.0 9.239794731140137 24.130380630493164
v -6.900000095367432 -1.5 25.0
v -6.959418773651123 -1.5 24.739669799804688
v -7.125905990600586 -1.5 24.530900955200195
v -7.366487503051758 -1.5 24.415042877197266
v -7.633512496948242 -1.5 24.415042877197266
v -7.874094009399414 -1.5 24.530900955200195
v -8.040581703186035 -1.5 24.739669799804688
v -8.100000381469727 -1.5 25.0
v -8.040581703186035 -1.5 25.260330200195312
v -7.874094009399414 -1.5 25.469099044799805
v -7.633512496948242 -1.5 25.584957122802734
v -7.366487503051758 -1.5 25.584957122802734
v -7.125905990600586 -1.5 25.469099044799805
v -6.959418773651123 -1.5 25.260330200195312
v 0.0 -1.5 12.5
v 0.0 -1.5 37.5
v -15.0 -1.5 37.5
v -15.0 -1.5 12.5
v 0.0 0.0 37.5
v 0.0 9.00048828125 26.2493896484375
v -1.0 9.00048828125 26.2493896484375
v -1.0 0.0 37.5
v -1.0 4.0 27.25
v -1.0 4.500671863555908 27.193588256835938
v -1.0 4.976238250732422 27.027179718017578
v -1.0 5.4028520584106445 26.75912094116211
v -1.0 5.759120941162109 26.402851104736328
v -1.0 6.027179718017578 25.976238250732422
v -1.0 6.193587779998779 25.50067138671875
v -1.0 6.25 25.0
v -1.0 6.193587779998779 24.49932861328125
v -1.0 6.027179718017578 24.023761749267578
v -1.0 5.759120941162109 23.597148895263672
v -1.0 5.4028520584106445 23.24087905883789
v -1.0 4.976238250732422 22.972820281982422
v -1.0 4.500671863555908 22.806411743164062
v -1.0 4.0 22.75
v -1.0 3.4993278980255127 22.806411743164062
v -1.0 3.023761510848999 22.972820281982422
v -1.0 2.5971479415893555 23.24087905883789
v -1.0 2.2408790588378906 23.597148895263672
v -1.0 1.9728200435638428 24.023761749267578
v -1.0 1.8064122200012207 24.49932861328125
v -1.0 1.75 25.0
v -1.0 1.8064122200012207 25.50067138671875
v -1.0 1.9728200435638428 25.976238250732422
v -1.0 2.2408790588378906 26.402851104736328
v -1.0 2.5971479415893555 26.75912094116211
v -1.0 3.023761510848999 27.027179718017578
v -1.0 3.4993278980255127 27.193588256835938
v 0.0 4.0 27.25
v 0.0 3.4993278980255127 27.193588256835938
v 0.0 3.023761510848999 27.027179718017578
v 0.0 2.5971479415893555 26.75912094116211
v 0.0 2.2408790588378906 26.402851104736328
v 0.0 1.9728200435638428 25.976238250732422
v 0.0 1.8064122200012207 25.50067138671875
v 0.0 1.75 25.0
v 0.0 1.8064122200012207 24.49932861328125
v 0.0 1.9728200435638428 24.023761749267578
v 0.0 2.2408790588378906 23.597148895263672
v 0.0 2.5971479415893555 23.24087905883789
v 0.0 3.023761510848999 22.972820281982422
v 0.0 3.4993278980255127 22.806411743164062
v 0.0 4.0 22.75
v 0.0 4.500671863555908 22.806411743164062
v 0.0 4.976238250732422 22.972820281982422
v 0.0 5.4028520584106445 23.24087905883789
v 0.0 5.759120941162109 23.597148895263672
v 0.0 6.027179718017578 24.023761749267578
v 0.0 6.193587779998779 24.49932861328125
v 0.0 6.25 25.0
v 0.0 6.193587779998779 25.50067138671875
v 0.0 6.027179718017578 25.976238250732422
v 0.0 5.759120941162109 26.402851104736328
v 0.0 5.4028520584106445 26.75912094116211
v 0.0 4.976238250732422 27.027179718017578
v 0.0 4.500671863555908 27.193588256835938
v -1.0 4.0 27.25
v 0.0 4.0 27.25
v 0.0 4.0 27.25
v 0.0 4.500671863555908 27.193588256835938
v 0.0 4.976238250732422 27.027179718017578
v 0.0 5.4028520584106445 26.75912094116211
v 0.0 5.759120941162109 26.402851104736328
v 0.0 6.027179718017578 25.976238250732422
v 0.0 6.193587779998779 25.50067138671875
v 0.0 6.25 25.0
v 0.0 6.193587779998779 24.49932861328125
v 0.0 6.027179718017578 24.023761749267578
v 0.0 5.759120941162109 23.597148895263672
v 0.0 5.4028520584106445 23.24087905883789
v 0.0 4.976238250732422 22.972820281982422
v 0.0 4.500671863555908 22.806411743164062
v 0.0 4.0 22.75
v 0.0 3.4993278980255127 22.806411743164062
v 0.0 3.023761510848999 22.972820281982422
v 0.0 2.5971479415893555 23.24087905883789
v 0.0 2.2408790588378906 23.597148895263672
v 0.0 1.9728200435638428 24.023761749267578
v 0.0 1.8064122200012207 24.49932861328125
v 0.0 1.75 25.0
v 0.0 1.8064122200012207 25.50067138671875
v 0.0 1.9728200435638428 25.976238250732422
v 0.0 2.2408790588378906 26.402851104736328
v 0.0 2.5971479415893555 26.75912094116211
v 0.0 3.023761510848999 27.027179718017578
v 0.0 3.4993278980255127 27.193588256835938
v 0.0 0.0 12.5
v 0.0 9.00048828125 23.7506103515625
v 0.0 9.239794731140137 24.130380630493164
v 0.0 9.38837718963623 24.553955078125
v 0.0 9.438750267028809 25.0
v 0.0 9.38837718963623 25.446044921875
v 0.0 9.239794731140137 25.869619369506836
v 0.0 9.00048828125 26.2493896484375
v 0.0 0.0 37.5
v 0.0 -1.5 37.5
v 0.0 -1.5 12.5
v 0.0 -1.5 37.5
v 0.0 0.0 37.5
v -1.0 0.0 37.5
v -15.0 0.0 37.5
v -15.0 -1.5 37.5
v 0.0 9.00048828125 26.2493896484375
v 0.0 9.239794731140137 25.869619369506836
v 0.0 9.38837718963623 25.446044921875
v 0.0 9.438750267028809 25.0
v 0.0 9.38837718963623 24.553955078125
v 0.0 9.239794731140137 24.130380630493164
v 0.0 9.00048828125 23.7506103515625
v -1.0 9.00048828125 23.7506103515625
v -1.0 9.239794731140137 24.130380630493164
v -1.0 9.38837718963623 24.553955078125
v -1.0 9.438750267028809 25.0
v -1.0 9.38837718963623 25.446044921875
v -1.0 9.239794731140137 25.869619369506836
v -1.0 9.00048828125 26.2493896484375
vn 0.0 1.0 -0.0
vn 0.0 1.0 -0.0
vn 0.0 1.0 -0.0
vn 0.0 1.0 -0.0
vn 0.0 1.0 -0.0
vn 0.0 1.0 -0.0
vn 0.0 1.0 -0.0
vn 0.0 1.0 -0.0
vn 0.0 1.0 -0.0
vn 0.0 1.0 -0.0
vn 0.0 1.0 -0.0
vn 0.0 1.0 -0.0
vn 0.0 1.0 -0.0
vn 0.0 1.0 -0.0
vn 0.0 1.0 -0.0
vn 0.0 1.0 -0.0
vn 0.0 1.0 -0.0
vn 0.0 1.0 -0.0
vn -1.0 -0.0 -1.2246468525851679e-16
vn -0.9009688496589661 -0.0 -0.4338837265968323
vn -0.6234897971153259 -0.0 -0.7818315029144287
vn -0.22252093255519867 -0.0 -0.9749279022216797
vn 0.22252093255519867 0.0 -0.9749279022216797
vn 0.6234897971153259 0.0 -0.7818315029144287
vn 0.9009688496589661 0.0 -0.4338837265968323
vn 1.0 0.0 0.0
vn 0.9009688496589661 0.0 0.4338837265968323
vn 0.6234897971153259 0.0 0.7818315029144287
vn 0.22252093255519867 0.0 0.9749279022216797
vn -0.22252093255519867 0.0 0.9749279022216797
vn -0.6234897971153259 0.0 0.7818315029144287
vn -0.9009688496589661 0.0 0.4338837265968323
vn -1.0 0.0 1.2246468525851679e-16
vn -0.9009688496589661 0.0 0.4338837265968323
vn -0.6234897971153259 0.0 0.7818315029144287
vn -0.22252093255519867 0.0 0.9749279022216797
vn 0.22252093255519867 0.0 0.9749279022216797
vn 0.6234897971153259 0.0 0.7818315029144287
vn 0.9009688496589661 0.0 0.4338837265968323
vn 1.0 0.0 0.0
vn 0.9009688496589661 0.0 -0.4338837265968323
vn 0.6234897971153259 0.0 -0.7818315029144287
vn 0.22252093255519867 0.0 -0.9749279022216797
vn -0.22252093255519867 -0.0 -0.9749279022216797
vn -0.6234897971153259 -0.0 -0.7818315029144287
vn -0.9009688496589661 -0.0 -0.4338837265968323
vn -1.0 0.0 1.2246468525851679e-16
vn -1.0 -0.0 -1.2246468525851679e-16
vn 0.0 0.7808688282966614 -0.6246950626373291
vn 0.0 0.7808688282966614 -0.6246950626373291
vn 0.0 0.7808688282966614 -0.6246950626373291
vn 0.0 0.7808688282966614 -0.6246950626373291
vn -1.0 0.0 0.0
vn -1.0 0.0 0.0
vn -1.0 0.0 0.0
vn -1.0 0.0 0.0
vn 0.0 0.0 -1.0
vn 0.0 0.0 -1.0
vn 0.0 0.0 -1.0
vn 0.0 0.0 -1.0
vn 0.0 0.0 -1.0
vn -1.0 -0.0 -0.0
vn -1.0 -0.0 -0.0
vn -1.0 -0.0 -0.0
vn -1.0 -0.0 -0.0
vn -1.0 -0.0 -0.0
vn -1.0 -0.0 -0.0
vn -1.0 -0.0 -0.0
vn -1.0 -0.0 -0.0
vn -1.0 -0.0 -0.0
vn -1.0 -0.0 -0.0
vn -1.0 -0.0 -0.0
vn -1.0 -0.0 -0.0
vn -1.0 -0.0 -0.0
vn -1.0 -0.0 -0.0
vn -1.0 -0.0 -0.0
vn -1.0 -0.0 -0.0
vn -1.0 -0.0 -0.0
vn -1.0 -0.0 -0.0
vn -1.0 -0.0 -0.0
vn -1.0 -0.0 -0.0
vn -1.0 -0.0 -0.0
vn -1.0 -0.0 -0.0
vn -1.0 -0.0 -0.0
vn -1.0 -0.0 -0.0
vn -1.0 -0.0 -0.0
vn -1.0 -0.0 -0.0
vn -1.0 -0.0 -0.0
vn -1.0 -0.0 -0.0
vn -1.0 -0.0 -0.0
vn -1.0 -0.0 -0.0
vn -1.0 -0.0 -0.0
vn -1.0 -0.0 -0.0
vn -1.0 -0.0 -0.0
vn -1.0 -0.0 -0.0
vn -1.0 -0.0 -0.0
vn -1.0 -0.0 -0.0
vn -1.0 -0.0 -0.0
vn -0.0 -1.0 -0.0
vn -0.0 -1.0 -0.0
vn -0.0 -1.0 -0.0
vn -0.0 -1.0 -0.0
vn -0.0 -1.0 -0.0
vn -0.0 -1.0 -0.0
vn -0.0 -1.0 -0.0
vn -0.0 -1.0 -0.0
vn -0.0 -1.0 -0.0
vn -0.0 -1.0 -0.0
vn -0.0 -1.0 -0.0
vn -0.0 -1.0 -0.0
vn -0.0 -1.0 -0.0
vn -0.0 -1.0 -0.0
vn -0.0 -1.0 -0.0
vn -0.0 -1.0 -0.0
vn -0.0 -1.0 -0.0
vn -0.0 -1.0 -0.0
vn 0.0 0.7808688282966614 0.6246950626373291
vn 0.0 0.7808688282966614 0.6246950626373291
vn 0.0 0.7808688282966614 0.6246950626373291
vn 0.0 0.7808688282966614 0.6246950626373291
vn -0.0 -1.2246468525851679e-16 -1.0
vn -0.0 -0.22252093255519867 -0.9749279022216797
vn -0.0 -0.4338837265968323 -0.9009688496589661
vn -0.0 -0.6234897971153259 -0.7818315029144287
vn -0.0 -0.7818315029144287 -0.6234897971153259
vn -0.0 -0.9009688496589661 -0.4338837265968323
vn -0.0 -0.9749279022216797 -0.22252093255519867
vn 0.0 -1.0 6.123234262925839e-17
vn 0.0 -0.9749279022216797 0.22252093255519867
vn 0.0 -0.9009688496589661 0.4338837265968323
vn 0.0 -0.7818315029144287 0.6234897971153259
vn 0.0 -0.6234897971153259 0.7818315029144287
vn 0.0 -0.4338837265968323 0.9009688496589661
vn 0.0 -0.22252093255519867 0.9749279022216797
vn 0.0 0.0 1.0
vn 0.0 0.22252093255519867 0.9749279022216797
vn 0.0 0.4338837265968323 0.9009688496589661
vn 0.0 0.6234897971153259 0.7818315029144287
vn 0.0 0.7818315029144287 0.6234897971153259
vn 0.0 0.9009688496589661 0.4338837265968323
vn 0.0 0.9749279022216797 0.22252093255519867
vn 0.0 1.0 6.123234262925839e-17
vn 0.0 0.9749279022216797 -0.22252093255519867
vn 0.0 0.9009688496589661 -0.4338837265968323
vn 0.0 0.7818315029144287 -0.6234897971153259
vn 0.0 0.6234897971153259 -0.7818315029144287
vn 0.0 0.4338837265968323 -0.9009688496589661
vn 0.0 0.22252093255519867 -0.9749279022216797
vn 0.0 1.2246468525851679e-16 -1.0
vn 0.0 0.22252093255519867 -0.9749279022216797
vn 0.0 0.4338837265968323 -0.9009688496589661
vn 0.0 0.6234897971153259 -0.7818315029144287
vn 0.0 0.7818315029144287 -0.6234897971153259
vn 0.0 0.9009688496589661 -0.4338837265968323
vn 0.0 0.9749279022216797 -0.22252093255519867
vn 0.0 1.0 6.123234262925839e-17
vn 0.0 0.9749279022216797 0.22252093255519867
vn 0.0 0.9009688496589661 0.4338837265968323
vn 0.0 0.7818315029144287 0.6234897971153259
vn 0.0 0.6234897971153259 0.7818315029144287
vn 0.0 0.4338837265968323 0.9009688496589661
vn 0.0 0.22252093255519867 0.9749279022216797
vn 0.0 0.0 1.0
vn 0.0 -0.22252093255519867 0.9749279022216797
vn 0.0 -0.4338837265968323 0.9009688496589661
vn 0.0 -0.6234897971153259 0.7818315029144287
vn 0.0 -0.7818315029144287 0.6234897971153259
vn 0.0 -0.9009688496589661 0.4338837265968323
vn 0.0 -0.9749279022216797 0.22252093255519867
vn 0.0 -1.0 6.123234262925839e-17
vn -0.0 -0.9749279022216797 -0.22252093255519867
vn -0.0 -0.9009688496589661 -0.4338837265968323
vn -0.0 -0.7818315029144287 -0.6234897971153259
vn -0.0 -0.6234897971153259 -0.7818315029144287
vn -0.0 -0.4338837265968323 -0.9009688496589661
vn -0.0 -0.22252093255519867 -0.9749279022216797
vn 0.0 1.2246468525851679e-16 -1.0
vn -0.0 -1.2246468525851679e-16 -1.0
vn 1.0 0.0 0.0
vn 1.0 0.0 0.0
vn 1.0 0.0 0.0
vn 1.0 0.0 0.0
vn 1.0 0.0 0.0
vn 1.0 0.0 0.0
vn 1.0 0.0 0.0
vn 1.0 0.0 0.0
vn 1.0 0.0 0.0
vn 1.0 0.0 0.0
vn 1.0 0.0 0.0
vn 1.0 0.0 0.0
vn 1.0 0.0 0.0
vn 1.0 0.0 0.0
vn 1.0 0.0 0.0
vn 1.0 0.0 0.0
vn 1.0 0.0 0.0
vn 1.0 0.0 0.0
vn 1.0 0.0 0.0
vn 1.0 0.0 0.0
vn 1.0 0.0 0.0
vn 1.0 0.0 0.0
vn 1.0 0.0 0.0
vn 1.0 0.0 0.0
vn 1.0 0.0 0.0
vn 1.0 0.0 0.0
vn 1.0 0.0 0.0
vn 1.0 0.0 0.0
vn 1.0 0.0 0.0
vn 1.0 0.0 0.0
vn 1.0 0.0 0.0
vn 1.0 0.0 0.0
vn 1.0 0.0 0.0
vn 1.0 0.0 0.0
vn 1.0 0.0 0.0
vn 1.0 0.0 0.0
vn 1.0 0.0 0.0
vn 1.0 0.0 0.0
vn 1.0 0.0 0.0
vn 0.0 0.0 1.0
vn 0.0 0.0 1.0
vn 0.0 0.0 1.0
vn 0.0 0.0 1.0
vn 0.0 0.0 1.0
vn 0.0 0.7808688282966614 0.6246950626373291
vn 0.0 0.9005222320556641 0.43481001257896423
vn 0.0 0.9748133420944214 0.2230221927165985
vn -0.0 1.0 -1.1102230246251565e-16
vn -0.0 0.9748133420944214 -0.2230221927165985
vn -0.0 0.9005222320556641 -0.43481001257896423
vn -0.0 0.7808688282966614 -0.6246950626373291
vn -0.0 0.7808688282966614 -0.6246950626373291
vn -0.0 0.9005222320556641 -0.43481001257896423
vn -0.0 0.9748133420944214 -0.2230221927165985
vn -0.0 1.0 -1.1102230246251565e-16
vn 0.0 0.9748133420944214 0.2230221927165985
vn 0.0 0.9005222320556641 0.43481001257896423
vn 0.0 0.7808688282966614 0.6246950626373291
f 2//2 15//15 1//1
f 1//1 15//15 16//16
f 1//1 16//16 14//14
f 14//14 16//16 13//13
f 13//13 16//16 12//12
f 12//12 16//16 11//11
f 11//11 16//16 17//17
f 11//11 17//17 10//10
f 10//10 17//17 9//9
f 9//9 17//17 8//8
f 8//8 17//17 18//18
f 8//8 18//18 7//7
f 7//7 18//18 6//6
f 6//6 18//18 5//5
f 5//5 18//18 15//15
f 5//5 15//15 4//4
f 4//4 15//15 3//3
f 3//3 15//15 2//2
f 20//20 46//46 19//19
f 19//19 46//46 48//48
f 47//47 33//33 32//32
f 32//32 33//33 34//34
f 32//32 34//34 31//31
f 31//31 34//34 35//35
f 31//31 35//35 30//30
f 30//30 35//35 36//36
f 30//30 36//36 29//29
f 29//29 36//36 37//37
f 29//29 37//37 28//28
f 28//28 37//37 38//38
f 28//28 38//38 27//27
f 27//27 38//38 39//39
f 27//27 39//39 26//26
f 26//26 39//39 40//40
f 26//26 40//40 25//25
f 25//25 40//40 41//41
f 25//25 41//41 24//24
f 24//24 41//41 42//42
f 24//24 42//42 23//23
f 23//23 42//42 43//43
f 23//23 43//43 22//22
f 22//22 43//43 44//44
f 22//22 44//44 21//21
f 21//21 44//44 45//45
f 21//21 45//45 20//20
f 20//20 45//45 46//46
f 49//49 50//50 52//52
f 52//52 50//50 51//51
f 54//54 55//55 53//53
f 53//53 55//55 56//56
f 57//57 58//58 61//61
f 61//61 58//58 59//59
f 61//61 59//59 60//60
f 89//89 62//62 92//92
f 92//92 62//62 63//63
f 92//92 63//63 64//64
f 64//64 65//65 92//92
f 92//92 65//65 66//66
f 92//92 66//66 67//67
f 67//67 68//68 92//92
f 92//92 68//68 69//69
f 92//92 69//69 91//91
f 91//91 69//69 70//70
f 91//91 70//70 71//71
f 71//71 72//72 91//91
f 91//91 72//72 73//73
f 91//91 73//73 74//74
f 74//74 75//75 91//91
f 91//91 75//75 76//76
f 91//91 76//76 77//77
f 77//77 78//78 91//91
f 91//91 78//78 79//79
f 91//91 79//79 90//90
f 90//90 79//79 80//80
f 90//90 80//80 81//81
f 81//81 82//82 90//90
f 90//90 82//82 83//83
f 90//90 83//83 93//93
f 93//93 83//83 84//84
f 93//93 84//84 85//85
f 85//85 86//86 93//93
f 93//93 86//86 87//87
f 93//93 87//87 92//92
f 92//92 87//87 88//88
f 92//92 88//88 89//89
f 90//90 93//93 98//98
f 98//98 93//93 94//94
f 98//98 94//94 97//97
f 97//97 94//94 95//95
f 97//97 95//95 96//96
f 100//100 113//113 99//99
f 99//99 113//113 114//114
f 99//99 114//114 112//112
f 112//112 114//114 111//111
f 111//111 114//114 110//110
f 110//110 114//114 109//109
f 109//109 114//114 115//115
f 109//109 115//115 108//108
f 108//108 115//115 107//107
f 107//107 115//115 106//106
f 106//106 115//115 116//116
f 106//106 116//116 105//105
f 105//105 116//116 104//104
f 104//104 116//116 103//103
f 103//103 116//116 113//113
f 103//103 113//113 102//102
f 102//102 113//113 101//101
f 101//101 113//113 100//100
f 117//117 118//118 120//120
f 120//120 118//118 119//119
f 122//122 176//176 121//121
f 121//121 176//176 178//178
f 177//177 149//149 148//148
f 148//148 149//149 150//150
f 148//148 150//150 151//151
f 122//122 123//123 176//176
f 176//176 123//123 175//175
f 175//175 123//123 124//124
f 175//175 124//124 174//174
f 174//174 124//124 125//125
f 174//174 125//125 173//173
f 173//173 125//125 126//126
f 173//173 126//126 172//172
f 172//172 126//126 127//127
f 172//172 127//127 171//171
f 171//171 127//127 128//128
f 171//171 128//128 170//170
f 170//170 128//128 129//129
f 170//170 129//129 169//169
f 169//169 129//129 130//130
f 169//169 130//130 168//168
f 168//168 130//130 131//131
f 168//168 131//131 167//167
f 167//167 131//131 132//132
f 167//167 132//132 166//166
f 166//166 132//132 133//133
f 166//166 133//133 165//165
f 165//165 133//133 134//134
f 165//165 134//134 164//164
f 164//164 134//134 135//135
f 164//164 135//135 163//163
f 163//163 135//135 136//136
f 163//163 136//136 162//162
f 162//162 136//136 137//137
f 162//162 137//137 161//161
f 161//161 137//137 138//138
f 161//161 138//138 160//160
f 160//160 138//138 139//139
f 160//160 139//139 159//159
f 159//159 139//139 140//140
f 159//159 140//140 158//158
f 158//158 140//140 141//141
f 158//158 141//141 157//157
f 157//157 141//141 142//142
f 157//157 142//142 156//156
f 156//156 142//142 143//143
f 156//156 143//143 155//155
f 155//155 143//143 144//144
f 155//155 144//144 154//154
f 154//154 144//144 145//145
f 154//154 145//145 153//153
f 153//153 145//145 146//146
f 153//153 146//146 152//152
f 152//152 146//146 147//147
f 152//152 147//147 151//151
f 151//151 147//147 148//148
f 206//206 179//179 215//215
f 215//215 179//179 180//180
f 215//215 180//180 181//181
f 181//181 182//182 215//215
f 215//215 182//182 214//214
f 214//214 182//182 183//183
f 214//214 183//183 184//184
f 184//184 185//185 214//214
f 214//214 185//185 186//186
f 214//214 186//186 208//208
f 208//208 186//186 187//187
f 208//208 187//187 188//188
f 188//188 189//189 208//208
f 208//208 189//189 190//190
f 208//208 190//190 207//207
f 207//207 190//190 191//191
f 207//207 191//191 192//192
f 192//192 193//193 207//207
f 207//207 193//193 194//194
f 207//207 194//194 195//195
f 195//195 196//196 207//207
f 207//207 196//196 197//197
f 207//207 197//197 198//198
f 198//198 199//199 207//207
f 207//207 199//199 217//217
f 217//217 199//199 200//200
f 217//217 200//200 216//216
f 216//216 200//200 201//201
f 216//216 201//201 215//215
f 215//215 201//201 202//202
f 215//215 202//202 203//203
f 203//203 204//204 215//215
f 215//215 204//204 205//205
f 215//215 205//205 206//206
f 214//214 208//208 213//213
f 213//213 208//208 209//209
f 213//213 209//209 212//212
f 212//212 209//209 210//210
f 212//212 210//210 211//211
f 219//219 220//220 218//218
f 218//218 220//220 222//222
f 222//222 220//220 221//221
f 236//236 223//223 235//235
f 235//235 223//223 224//224
f 235//235 224//224 234//234
f 234//234 224//224 225//225
f 234//234 225//225 233//233
f 233//233 225//225 226//226
f 233//233 226//226 232//232
f 232//232 226//226 227//227
f 232//232 227//227 231//231
f 231//231 227//227 228//228
f 231//231 228//228 230//230
f 230//230 228//228 229//229

# End of file