# WaveFront *.obj file
# Vertices: 222
# Triangles : 216

v 22.34395408630371 12.28307819366455 4.445000171661377
v 22.359268188476562 12.55090045928955 4.445000171661377
v 22.405012130737305 12.815232276916504 4.445000171661377
v 22.4805908203125 13.072626113891602 4.445000171661377
v 22.58501625061035 13.319726943969727 4.445000171661377
v 22.716928482055664 13.553313255310059 4.445000171661377
v 22.87460708618164 13.770340919494629 4.445000171661377
v 23.055997848510742 13.967979431152344 4.445000171661377
v 23.25873565673828 14.143651962280273 4.445000171661377
v 23.48017692565918 14.295069694519043 4.445000171661377
v 23.717435836791992 14.420258522033691 4.445000171661377
v 23.967418670654297 14.517584800720215 4.445000171661377
v 24.226865768432617 14.585782051086426 4.445000171661377
v 24.492395401000977 14.6239595413208 4.445000171661377
v 24.76054573059082 14.631619453430176 4.445000171661377
v 25.027822494506836 14.608663558959961 4.445000171661377
v 25.290739059448242 14.555389404296875 4.445000171661377
v 25.545869827270508 14.472492218017578 4.445000171661377
v 25.789888381958008 14.361053466796875 4.445000171661377
v 26.01961326599121 14.22252368927002 4.445000171661377
v 26.23204803466797 14.058712005615234 4.445000171661377
v 26.424427032470703 13.871750831604004 4.445000171661377
v 26.59423828125 13.664079666137695 4.445000171661377
v 26.73927116394043 13.438404083251953 4.445000171661377
v 26.857633590698242 13.197668075561523 4.445000171661377
v 26.947782516479492 12.945008277893066 4.445000171661377
v 27.008543014526367 12.683719635009766 4.445000171661377
v 27.039121627807617 12.417207717895508 4.445000171661377
v 27.039121627807617 12.148947715759277 4.445000171661377
v 27.008543014526367 11.88243579864502 4.445000171661377
v 26.947782516479492 11.621147155761719 4.445000171661377
v 26.857633590698242 11.368487358093262 4.445000171661377
v 26.73927116394043 11.127751350402832 4.445000171661377
v 26.59423828125 10.902076721191406 4.445000171661377
v 26.424427032470703 10.694404602050781 4.445000171661377
v 26.23204803466797 10.507444381713867 4.445000171661377
v 26.01961326599121 10.343631744384766 4.445000171661377
v 25.789888381958008 10.205102920532227 4.445000171661377
v 25.545869827270508 10.093663215637207 4.445000171661377
v 25.290739059448242 10.01076602935791 4.445000171661377
v 25.027822494506836 9.95749282836914 4.445000171661377
v 24.76054573059082 9.93453598022461 4.445000171661377
v 24.492395401000977 9.9421968460083 4.445000171661377
v 24.226865768432617 9.980374336242676 4.445000171661377
v 23.967418670654297 10.04857063293457 4.445000171661377
v 23.717435836791992 10.14589786529541 4.445000171661377
v 23.48017692565918 10.271085739135742 4.445000171661377
v 23.25873565673828 10.422503471374512 4.445000171661377
v 23.055997848510742 10.598176956176758 4.445000171661377
v 22.87460708618164 10.795815467834473 4.445000171661377
v 22.716928482055664 11.012842178344727 4.445000171661377
v 22.58501625061035 11.246428489685059 4.445000171661377
v 22.4805908203125 11.4935302734375 4.445000171661377
v 22.405012130737305 11.750924110412598 4.445000171661377
v 22.359268188476562 12.015254974365234 4.445000171661377
v 22.34395408630371 12.28307819366455 0.0
v 22.359268188476562 12.015254974365234 0.0
v 22.405012130737305 11.750924110412598 0.0
v 22.4805908203125 11.4935302734375 0.0
v 22.58501625061035 11.246428489685059 0.0
v 22.716928482055664 11.012842178344727 0.0
v 22.87460708618164 10.795815467834473 0.0
v 23.055997848510742 10.598176956176758 0.0
v 23.25873565673828 10.422503471374512 0.0
v 23.48017692565918 10.271085739135742 0.0
v 23.717435836791992 10.14589786529541 0.0
v 23.967418670654297 10.04857063293457 0.0
v 24.226865768432617 9.980374336242676 0.0
v 24.492395401000977 9.9421968460083 0.0
v 24.76054573059082 9.93453598022461 0.0
v 25.027822494506836 9.95749282836914 0.0
v 25.290739059448242 10.01076602935791 0.0
v 25.545869827270508 10.093663215637207 0.0
v 25.789888381958008 10.205102920532227 0.0
v 26.01961326599121 10.343631744384766 0.0
v 26.23204803466797 10.507444381713867 0.0
v 26.424427032470703 10.694404602050781 0.0
v 26.59423828125 10.902076721191406 0.0
v 26.73927116394043 11.127751350402832 0.0
v 26.857633590698242 11.368487358093262 0.0
v 26.947782516479492 11.621147155761719 0.0
v 27.008543014526367 11.88243579864502 0.0
v 27.039121627807617 12.148947715759277 0.0
v 27.039121627807617 12.417207717895508 0.0
v 27.008543014526367 12.683719635009766 0.0
v 26.947782516479492 12.945008277893066 0.0
v 26.857633590698242 13.197668075561523 0.0
v 26.73927116394043 13.438404083251953 0.0
v 26.59423828125 13.664079666137695 0.0
v 26.424427032470703 13.871750831604004 0.0
v 26.23204803466797 14.058712005615234 0.0
v 26.01961326599121 14.22252368927002 0.0
v 25.789888381958008 14.361053466796875 0.0
v 25.545869827270508 14.472492218017578 0.0
v 25.290739059448242 14.555389404296875 0.0
v 25.027822494506836 14.608663558959961 0.0
v 24.76054573059082 14.631619453430176 0.0
v 24.492395401000977 14.6239595413208 0.0
v 24.226865768432617 14.585782051086426 0.0
v 23.967418670654297 14.517584800720215 0.0
v 23.717435836791992 14.420258522033691 0.0
v 23.48017692565918 14.295069694519043 0.0
v 23.25873565673828 14.143651962280273 0.0
v 23.055997848510742 13.967979431152344 0.0
v 22.87460708618164 13.770340919494629 0.0
v 22.716928482055664 13.553313255310059 0.0
v 22.58501625061035 13.319726943969727 0.0
v 22.4805908203125 13.072626113891602 0.0
v 22.405012130737305 12.815232276916504 0.0
v 22.359268188476562 12.55090045928955 0.0
v 22.34395408630371 12.28307819366455 0.0
v 22.34395408630371 12.28307819366455 4.445000171661377
v 22.34395408630371 12.28307819366455 4.445000171661377
v 22.359268188476562 12.015254974365234 4.445000171661377
v 22.405012130737305 11.750924110412598 4.445000171661377
v 22.4805908203125 11.4935302734375 4.445000171661377
v 22.58501625061035 11.246428489685059 4.445000171661377
v 22.716928482055664 11.012842178344727 4.445000171661377
v 22.87460708618164 10.795815467834473 4.445000171661377
v 23.055997848510742 10.598176956176758 4.445000171661377
v 23.25873565673828 10.422503471374512 4.445000171661377
v 23.48017692565918 10.271085739135742 4.445000171661377
v 23.717435836791992 10.14589786529541 4.445000171661377
v 23.967418670654297 10.04857063293457 4.445000171661377
v 24.226865768432617 9.980374336242676 4.445000171661377
v 24.492395401000977 9.9421968460083 4.445000171661377
v 24.76054573059082 9.93453598022461 4.445000171661377
v 25.027822494506836 9.95749282836914 4.445000171661377
v 25.290739059448242 10.01076602935791 4.445000171661377
v 25.545869827270508 10.093663215637207 4.445000171661377
v 25.789888381958008 10.205102920532227 4.445000171661377
v 26.01961326599121 10.343631744384766 4.445000171661377
v 26.23204803466797 10.507444381713867 4.445000171661377
v 26.424427032470703 10.694404602050781 4.445000171661377
v 26.59423828125 10.902076721191406 4.445000171661377
v 26.73927116394043 11.127751350402832 4.445000171661377
v 26.857633590698242 11.368487358093262 4.445000171661377
v 26.947782516479492 11.621147155761719 4.445000171661377
v 27.008543014526367 11.88243579864502 4.445000171661377
v 27.039121627807617 12.148947715759277 4.445000171661377
v 27.039121627807617 12.417207717895508 4.445000171661377
v 27.008543014526367 12.683719635009766 4.445000171661377
v 26.947782516479492 12.945008277893066 4.445000171661377
v 26.857633590698242 13.197668075561523 4.445000171661377
v 26.73927116394043 13.438404083251953 4.445000171661377
v 26.59423828125 13.664079666137695 4.445000171661377
v 26.424427032470703 13.871750831604004 4.445000171661377
v 26.23204803466797 14.058712005615234 4.445000171661377
v 26.01961326599121 14.22252368927002 4.445000171661377
v 25.789888381958008 14.361053466796875 4.445000171661377
v 25.545869827270508 14.472492218017578 4.445000171661377
v 25.290739059448242 14.555389404296875 4.445000171661377
v 25.027822494506836 14.608663558959961 4.445000171661377
v 24.76054573059082 14.631619453430176 4.445000171661377
v 24.492395401000977 14.6239595413208 4.445000171661377
v 24.226865768432617 14.585782051086426 4.445000171661377
v 23.967418670654297 14.517584800720215 4.445000171661377
v 23.717435836791992 14.420258522033691 4.445000171661377
v 23.48017692565918 14.295069694519043 4.445000171661377
v 23.25873565673828 14.143651962280273 4.445000171661377
v 23.055997848510742 13.967979431152344 4.445000171661377
v 22.87460708618164 13.770340919494629 4.445000171661377
v 22.716928482055664 13.553313255310059 4.445000171661377
v 22.58501625061035 13.319726943969727 4.445000171661377
v 22.4805908203125 13.072626113891602 4.445000171661377
v 22.405012130737305 12.815232276916504 4.445000171661377
v 22.359268188476562 12.55090045928955 4.445000171661377
v 22.34395408630371 12.28307819366455 0.0
v 22.359268188476562 12.55090045928955 0.0
v 22.405012130737305 12.815232276916504 0.0
v 22.4805908203125 13.072626113891602 0.0
v 22.58501625061035 13.319726943969727 0.0
v 22.716928482055664 13.553313255310059 0.0
v 22.87460708618164 13.770340919494629 0.0
v 23.055997848510742 13.967979431152344 0.0
v 23.25873565673828 14.143651962280273 0.0
v 23.48017692565918 14.295069694519043 0.0
v 23.717435836791992 14.420258522033691 0.0
v 23.967418670654297 14.517584800720215 0.0
v 24.226865768432617 14.585782051086426 0.0
v 24.492395401000977 14.6239595413208 0.0
v 24.76054573059082 14.631619453430176 0.0
v 25.027822494506836 14.608663558959961 0.0
v 25.290739059448242 14.555389404296875 0.0
v 25.545869827270508 14.472492218017578 0.0
v 25.789888381958008 14.361053466796875 0.0
v 26.01961326599121 14.22252368927002 0.0
v 26.23204803466797 14.058712005615234 0.0
v 26.424427032470703 13.871750831604004 0.0
v 26.59423828125 13.664079666137695 0.0
v 26.73927116394043 13.438404083251953 0.0
v 26.857633590698242 13.197668075561523 0.0
v 26.947782516479492 12.945008277893066 0.0
v 27.008543014526367 12.683719635009766 0.0
v 27.039121627807617 12.417207717895508 0.0
v 27.039121627807617 12.148947715759277 0.0
v 27.008543014526367 11.88243579864502 0.0
v 26.947782516479492 11.621147155761719 0.0
v 26.857633590698242 11.368487358093262 0.0
v 26.73927116394043 11.127751350402832 0.0
v 26.59423828125 10.902076721191406 0.0
v 26.424427032470703 10.694404602050781 0.0
v 26.23204803466797 10.507444381713867 0.0
v 26.01961326599121 10.343631744384766 0.0
v 25.789888381958008 10.205102920532227 0.0
v 25.545869827270508 10.093663215637207 0.0
v 25.290739059448242 10.01076602935791 0.0
v 25.027822494506836 9.95749282836914 0.0
v 24.76054573059082 9.93453598022461 0.0
v 24.492395401000977 9.9421968460083 0.0
v 24.226865768432617 9.980374336242676 0.0
v 23.967418670654297 10.04857063293457 0.0
v 23.717435836791992 10.14589786529541 0.0
v 23.48017692565918 10.271085739135742 0.0
v 23.25873565673828 10.422503471374512 0.0
v 23.055997848510742 10.598176956176758 0.0
v 22.87460708618164 10.795815467834473 0.0
v 22.716928482055664 11.012842178344727 0.0
v 22.58501625061035 11.246428489685059 0.0
v 22.4805908203125 11.4935302734375 0.0
v 22.405012130737305 11.750924110412598 0.0
v 22.359268188476562 12.015254974365234 0.0
vn -1.0 1.2246468525851679e-16 -0.0
vn -0.9934817552566528 0.11399140954017639 -0.0
vn -0.9740118980407715 0.22649677097797394 -0.0
vn -0.9418443441390991 0.3360494077205658 -0.0
vn -0.8973984122276306 0.44122108817100525 -0.0
vn -0.8412535190582275 0.5406408309936523 -0.0
vn -0.7741416096687317 0.6330124735832214 -0.0
vn -0.6969375610351562 0.7171317934989929 -0.0
vn -0.6106478571891785 0.7919022440910339 -0.0
vn -0.5163974761962891 0.8563490509986877 -0.0
vn -0.4154150187969208 0.9096319675445557 -0.0
vn -0.30901700258255005 0.9510565400123596 -0.0
vn -0.1985904723405838 0.9800825715065002 -0.0
vn -0.08557500690221786 0.9963317513465881 -0.0
vn 0.02855605073273182 0.9995921850204468 -0.0
vn 0.1423148363828659 0.9898214340209961 -0.0
vn 0.25421833992004395 0.9671468734741211 -0.0
vn 0.3628076910972595 0.9318640232086182 -0.0
vn 0.4666673243045807 0.8844329118728638 -0.0
vn 0.5644432306289673 0.8254718780517578 -0.0
vn 0.6548607349395752 0.7557495832443237 -0.0
vn 0.7367411255836487 0.6761748790740967 -0.0
vn 0.80901700258255 0.5877852439880371 -0.0
vn 0.8707460761070251 0.4917329251766205 -0.0
vn 0.9211236238479614 0.3892700970172882 -0.0
vn 0.9594929814338684 0.28173255920410156 -0.0
vn 0.9853538274765015 0.17052219808101654 -0.0
vn 0.9983690977096558 0.057088810950517654 -0.0
vn 0.9983690977096558 -0.057088810950517654 -0.0
vn 0.9853538274765015 -0.17052219808101654 -0.0
vn 0.9594929814338684 -0.28173255920410156 -0.0
vn 0.9211236238479614 -0.3892700970172882 -0.0
vn 0.8707460761070251 -0.4917329251766205 -0.0
vn 0.80901700258255 -0.5877852439880371 -0.0
vn 0.7367411255836487 -0.6761748790740967 -0.0
vn 0.6548607349395752 -0.7557495832443237 -0.0
vn 0.5644432306289673 -0.8254718780517578 -0.0
vn 0.4666673243045807 -0.8844329118728638 -0.0
vn 0.3628076910972595 -0.9318640232086182 -0.0
vn 0.25421833992004395 -0.9671468734741211 -0.0
vn 0.1423148363828659 -0.9898214340209961 -0.0
vn 0.02855605073273182 -0.9995921850204468 -0.0
vn -0.08557500690221786 -0.9963317513465881 0.0
vn -0.1985904723405838 -0.9800825715065002 0.0
vn -0.30901700258255005 -0.9510565400123596 0.0
vn -0.4154150187969208 -0.9096319675445557 0.0
vn -0.5163974761962891 -0.8563490509986877 0.0
vn -0.6106478571891785 -0.7919022440910339 0.0
vn -0.6969375610351562 -0.7171317934989929 0.0
vn -0.7741416096687317 -0.6330124735832214 0.0
vn -0.8412535190582275 -0.5406408309936523 0.0
vn -0.8973984122276306 -0.44122108817100525 0.0
vn -0.9418443441390991 -0.3360494077205658 0.0
vn -0.9740118980407715 -0.22649677097797394 0.0
vn -0.9934817552566528 -0.11399140954017639 0.0
vn -1.0 -1.2246468525851679e-16 0.0
vn -0.9934817552566528 -0.11399140954017639 0.0
vn -0.9740118980407715 -0.22649677097797394 0.0
vn -0.9418443441390991 -0.3360494077205658 0.0
vn -0.8973984122276306 -0.44122108817100525 0.0
vn -0.8412535190582275 -0.5406408309936523 0.0
vn -0.7741416096687317 -0.6330124735832214 0.0
vn -0.6969375610351562 -0.7171317934989929 0.0
vn -0.6106478571891785 -0.7919022440910339 0.0
vn -0.5163974761962891 -0.8563490509986877 0.0
vn -0.4154150187969208 -0.9096319675445557 0.0
vn -0.30901700258255005 -0.9510565400123596 0.0
vn -0.1985904723405838 -0.9800825715065002 0.0
vn -0.08557500690221786 -0.9963317513465881 0.0
vn 0.02855605073273182 -0.9995921850204468 -0.0
vn 0.1423148363828659 -0.9898214340209961 -0.0
vn 0.25421833992004395 -0.9671468734741211 -0.0
vn 0.3628076910972595 -0.9318640232086182 -0.0
vn 0.4666673243045807 -0.8844329118728638 -0.0
vn 0.5644432306289673 -0.8254718780517578 -0.0
vn 0.6548607349395752 -0.7557495832443237 -0.0
vn 0.7367411255836487 -0.6761748790740967 -0.0
vn 0.80901700258255 -0.5877852439880371 -0.0
vn 0.8707460761070251 -0.4917329251766205 -0.0
vn 0.9211236238479614 -0.3892700970172882 -0.0
vn 0.9594929814338684 -0.28173255920410156 -0.0
vn 0.9853538274765015 -0.17052219808101654 -0.0
vn 0.9983690977096558 -0.057088810950517654 -0.0
vn 0.9983690977096558 0.057088810950517654 -0.0
vn 0.9853538274765015 0.17052219808101654 -0.0
vn 0.9594929814338684 0.28173255920410156 -0.0
vn 0.9211236238479614 0.3892700970172882 -0.0
vn 0.8707460761070251 0.4917329251766205 -0.0
vn 0.80901700258255 0.5877852439880371 -0.0
vn 0.7367411255836487 0.6761748790740967 -0.0
vn 0.6548607349395752 0.7557495832443237 -0.0
vn 0.5644432306289673 0.8254718780517578 -0.0
vn 0.4666673243045807 0.8844329118728638 -0.0
vn 0.3628076910972595 0.9318640232086182 -0.0
vn 0.25421833992004395 0.9671468734741211 -0.0
vn 0.1423148363828659 0.9898214340209961 -0.0
vn 0.02855605073273182 0.9995921850204468 -0.0
vn -0.08557500690221786 0.9963317513465881 -0.0
vn -0.1985904723405838 0.9800825715065002 -0.0
vn -0.30901700258255005 0.9510565400123596 -0.0
vn -0.4154150187969208 0.9096319675445557 -0.0
vn -0.5163974761962891 0.8563490509986877 -0.0
vn -0.6106478571891785 0.7919022440910339 -0.0
vn -0.6969375610351562 0.7171317934989929 -0.0
vn -0.7741416096687317 0.6330124735832214 -0.0
vn -0.8412535190582275 0.5406408309936523 -0.0
vn -0.8973984122276306 0.44122108817100525 -0.0
vn -0.9418443441390991 0.3360494077205658 -0.0
vn -0.9740118980407715 0.22649677097797394 -0.0
vn -0.9934817552566528 0.11399140954017639 -0.0
vn -1.0 1.2246468525851679e-16 -0.0
vn -1.0 -1.2246468525851679e-16 0.0
vn 0.0 0.0 1.0
vn 0.0 0.0 1.0
vn 0.0 0.0 1.0
vn 0.0 0.0 1.0
vn 0.0 0.0 1.0
vn 0.0 0.0 1.0
vn 0.0 0.0 1.0
vn 0.0 0.0 1.0
vn 0.0 0.0 1.0
vn 0.0 0.0 1.0
vn 0.0 0.0 1.0
vn 0.0 0.0 1.0
vn 0.0 0.0 1.0
vn 0.0 0.0 1.0
vn 0.0 0.0 1.0
vn 0.0 0.0 1.0
vn 0.0 0.0 1.0
vn 0.0 0.0 1.0
vn 0.0 0.0 1.0
vn 0.0 0.0 1.0
vn 0.0 0.0 1.0
vn 0.0 0.0 1.0
vn 0.0 0.0 1.0
vn 0.0 0.0 1.0
vn 0.0 0.0 1.0
vn 0.0 0.0 1.0
vn 0.0 0.0 1.0
vn 0.0 0.0 1.0
vn 0.0 0.0 1.0
vn 0.0 0.0 1.0
vn 0.0 0.0 1.0
vn 0.0 0.0 1.0
vn 0.0 0.0 1.0
vn 0.0 0.0 1.0
vn 0.0 0.0 1.0
vn 0.0 0.0 1.0
vn 0.0 0.0 1.0
vn 0.0 0.0 1.0
vn 0.0 0.0 1.0
vn 0.0 0.0 1.0
vn 0.0 0.0 1.0
vn 0.0 0.0 1.0
vn 0.0 0.0 1.0
vn 0.0 0.0 1.0
vn 0.0 0.0 1.0
vn 0.0 0.0 1.0
vn 0.0 0.0 1.0
vn 0.0 0.0 1.0
vn 0.0 0.0 1.0
vn 0.0 0.0 1.0
vn 0.0 0.0 1.0
vn 0.0 0.0 1.0
vn 0.0 0.0 1.0
vn 0.0 0.0 1.0
vn 0.0 0.0 1.0
vn -0.0 -0.0 -1.0
vn -0.0 -0.0 -1.0
vn -0.0 -0.0 -1.0
vn -0.0 -0.0 -1.0
vn -0.0 -0.0 -1.0
vn -0.0 -0.0 -1.0
vn -0.0 -0.0 -1.0
vn -0.0 -0.0 -1.0
vn -0.0 -0.0 -1.0
vn -0.0 -0.0 -1.0
vn -0.0 -0.0 -1.0
vn -0.0 -0.0 -1.0
vn -0.0 -0.0 -1.0
vn -0.0 -0.0 -1.0
vn -0.0 -0.0 -1.0
vn -0.0 -0.0 -1.0
vn -0.0 -0.0 -1.0
vn -0.0 -0.0 -1.0
vn -0.0 -0.0 -1.0
vn -0.0 -0.0 -1.0
vn -0.0 -0.0 -1.0
vn -0.0 -0.0 -1.0
vn -0.0 -0.0 -1.0
vn -0.0 -0.0 -1.0
vn -0.0 -0.0 -1.0
vn -0.0 -0.0 -1.0
vn -0.0 -0.0 -1.0
vn -0.0 -0.0 -1.0
vn -0.0 -0.0 -1.0
vn -0.0 -0.0 -1.0
vn -0.0 -0.0 -1.0
vn -0.0 -0.0 -1.0
vn -0.0 -0.0 -1.0
vn -0.0 -0.0 -1.0
vn -0.0 -0.0 -1.0
vn -0.0 -0.0 -1.0
vn -0.0 -0.0 -1.0
vn -0.0 -0.0 -1.0
vn -0.0 -0.0 -1.0
vn -0.0 -0.0 -1.0
vn -0.0 -0.0 -1.0
vn -0.0 -0.0 -1.0
vn -0.0 -0.0 -1.0
vn -0.0 -0.0 -1.0
vn -0.0 -0.0 -1.0
vn -0.0 -0.0 -1.0
vn -0.0 -0.0 -1.0
vn -0.0 -0.0 -1.0
vn -0.0 -0.0 -1.0
vn -0.0 -0.0 -1.0
vn -0.0 -0.0 -1.0
vn -0.0 -0.0 -1.0
vn -0.0 -0.0 -1.0
vn -0.0 -0.0 -1.0
vn -0.0 -0.0 -1.0
g 8b7d9640-e34f-11ea-ac7e-54bf646e7e1f
f 2//2 110//110 1//1
f 1//1 110//110 111//111
f 112//112 56//56 55//55
f 55//55 56//56 57//57
f 55//55 57//57 54//54
f 54//54 57//57 58//58
f 54//54 58//58 53//53
f 53//53 58//58 59//59
f 53//53 59//59 52//52
f 52//52 59//59 60//60
f 52//52 60//60 51//51
f 51//51 60//60 61//61
f 51//51 61//61 50//50
f 50//50 61//61 62//62
f 50//50 62//62 49//49
f 49//49 62//62 63//63
f 49//49 63//63 48//48
f 48//48 63//63 64//64
f 48//48 64//64 47//47
f 47//47 64//64 65//65
f 47//47 65//65 46//46
f 46//46 65//65 66//66
f 46//46 66//66 45//45
f 45//45 66//66 67//67
f 45//45 67//67 44//44
f 44//44 67//67 68//68
f 44//44 68//68 43//43
f 43//43 68//68 69//69
f 43//43 69//69 42//42
f 42//42 69//69 70//70
f 42//42 70//70 41//41
f 41//41 70//70 71//71
f 41//41 71//71 40//40
f 40//40 71//71 72//72
f 40//40 72//72 39//39
f 39//39 72//72 73//73
f 39//39 73//73 38//38
f 38//38 73//73 74//74
f 38//38 74//74 37//37
f 37//37 74//74 75//75
f 37//37 75//75 36//36
f 36//36 75//75 76//76
f 36//36 76//76 35//35
f 35//35 76//76 77//77
f 35//35 77//77 34//34
f 34//34 77//77 78//78
f 34//34 78//78 33//33
f 33//33 78//78 79//79
f 33//33 79//79 32//32
f 32//32 79//79 80//80
f 32//32 80//80 31//31
f 31//31 80//80 81//81
f 31//31 81//81 30//30
f 30//30 81//81 82//82
f 30//30 82//82 29//29
f 29//29 82//82 83//83
f 29//29 83//83 28//28
f 28//28 83//83 84//84
f 28//28 84//84 27//27
f 27//27 84//84 85//85
f 27//27 85//85 26//26
f 26//26 85//85 86//86
f 26//26 86//86 25//25
f 25//25 86//86 87//87
f 25//25 87//87 24//24
f 24//24 87//87 88//88
f 24//24 88//88 23//23
f 23//23 88//88 89//89
f 23//23 89//89 22//22
f 22//22 89//89 90//90
f 22//22 90//90 21//21
f 21//21 90//90 91//91
f 21//21 91//91 20//20
f 20//20 91//91 92//92
f 20//20 92//92 19//19
f 19//19 92//92 93//93
f 19//19 93//93 18//18
f 18//18 93//93 94//94
f 18//18 94//94 17//17
f 17//17 94//94 95//95
f 17//17 95//95 16//16
f 16//16 95//95 96//96
f 16//16 96//96 15//15
f 15//15 96//96 97//97
f 15//15 97//97 14//14
f 14//14 97//97 98//98
f 14//14 98//98 13//13
f 13//13 98//98 99//99
f 13//13 99//99 12//12
f 12//12 99//99 100//100
f 12//12 100//100 11//11
f 11//11 100//100 101//101
f 11//11 101//101 10//10
f 10//10 101//101 102//102
f 10//10 102//102 9//9
f 9//9 102//102 103//103
f 9//9 103//103 8//8
f 8//8 103//103 104//104
f 8//8 104//104 7//7
f 7//7 104//104 105//105
f 7//7 105//105 6//6
f 6//6 105//105 106//106
f 6//6 106//106 5//5
f 5//5 106//106 107//107
f 5//5 107//107 4//4
f 4//4 107//107 108//108
f 4//4 108//108 3//3
f 3//3 108//108 109//109
f 3//3 109//109 2//2
f 2//2 109//109 110//110
g 8b807c76-e34f-11ea-b363-54bf646e7e1f
f 113//113 114//114 167//167
f 167//167 114//114 166//166
f 166//166 114//114 165//165
f 165//165 114//114 164//164
f 164//164 114//114 163//163
f 163//163 114//114 162//162
f 162//162 114//114 161//161
f 161//161 114//114 160//160
f 160//160 114//114 159//159
f 159//159 114//114 158//158
f 158//158 114//114 157//157
f 157//157 114//114 156//156
f 156//156 114//114 155//155
f 155//155 114//114 154//154
f 154//154 114//114 153//153
f 153//153 114//114 152//152
f 152//152 114//114 151//151
f 151//151 114//114 115//115
f 151//151 115//115 150//150
f 150//150 115//115 149//149
f 149//149 115//115 148//148
f 148//148 115//115 147//147
f 147//147 115//115 146//146
f 146//146 115//115 145//145
f 145//145 115//115 144//144
f 144//144 115//115 143//143
f 143//143 115//115 142//142
f 142//142 115//115 141//141
f 141//141 115//115 140//140
f 140//140 115//115 139//139
f 139//139 115//115 138//138
f 138//138 115//115 116//116
f 138//138 116//116 137//137
f 137//137 116//116 117//117
f 137//137 117//117 136//136
f 136//136 117//117 118//118
f 136//136 118//118 135//135
f 135//135 118//118 119//119
f 135//135 119//119 134//134
f 134//134 119//119 120//120
f 134//134 120//120 133//133
f 133//133 120//120 121//121
f 133//133 121//121 132//132
f 132//132 121//121 122//122
f 132//132 122//122 131//131
f 131//131 122//122 123//123
f 131//131 123//123 130//130
f 130//130 123//123 124//124
f 130//130 124//124 129//129
f 129//129 124//124 125//125
f 129//129 125//125 128//128
f 128//128 125//125 126//126
f 128//128 126//126 127//127
g 8b831480-e34f-11ea-909e-54bf646e7e1f
f 168//168 169//169 222//222
f 222//222 169//169 170//170
f 222//222 170//170 171//171
f 171//171 172//172 222//222
f 222//222 172//172 173//173
f 222//222 173//173 174//174
f 174//174 175//175 222//222
f 222//222 175//175 176//176
f 222//222 176//176 177//177
f 177//177 178//178 222//222
f 222//222 178//178 179//179
f 222//222 179//179 180//180
f 180//180 181//181 222//222
f 222//222 181//181 182//182
f 222//222 182//182 183//183
f 183//183 184//184 222//222
f 222//222 184//184 185//185
f 222//222 185//185 221//221
f 221//221 185//185 186//186
f 221//221 186//186 187//187
f 187//187 188//188 221//221
f 221//221 188//188 189//189
f 221//221 189//189 190//190
f 190//190 191//191 221//221
f 221//221 191//191 192//192
f 221//221 192//192 193//193
f 193//193 194//194 221//221
f 221//221 194//194 195//195
f 221//221 195//195 196//196
f 196//196 197//197 221//221
f 221//221 197//197 198//198
f 221//221 198//198 220//220
f 220//220 198//198 199//199
f 220//220 199//199 219//219
f 219//219 199//199 200//200
f 219//219 200//200 218//218
f 218//218 200//200 201//201
f 218//218 201//201 217//217
f 217//217 201//201 202//202
f 217//217 202//202 216//216
f 216//216 202//202 203//203
f 216//216 203//203 215//215
f 215//215 203//203 204//204
f 215//215 204//204 214//214
f 214//214 204//204 205//205
f 214//214 205//205 213//213
f 213//213 205//205 206//206
f 213//213 206//206 212//212
f 212//212 206//206 207//207
f 212//212 207//207 211//211
f 211//211 207//207 208//208
f 211//211 208//208 210//210
f 210//210 208//208 209//209

# End of file