# WaveFront *.obj file
# Vertices: 118
# Triangles : 100

v -10.657191276550293 5.0 115.0
v -31.607776641845703 5.0 115.0
v -32.564483642578125 4.809699058532715 115.0
v -33.37554168701172 4.267766952514648 115.0
v -33.917476654052734 3.4567086696624756 115.0
v -34.1077766418457 2.5 115.0
v -33.917476654052734 1.543291449546814 115.0
v -33.37554168701172 0.7322330474853516 115.0
v -32.564483642578125 0.19030116498470306 115.0
v -31.607776641845703 -8.881784197001252e-16 115.0
v 3.5 0.0 115.0
v 3.5 40.5 115.0
v 3.0809478759765625 41.76538848876953 115.0
v 2.24566388130188 42.80419158935547 115.0
v 1.0997282266616821 43.485103607177734 115.0
v -0.21201211214065552 43.7220573425293 115.0
v -1.5237524509429932 43.485103607177734 115.0
v -2.6696879863739014 42.80419158935547 115.0
v -3.504972219467163 41.76538848876953 115.0
v -3.9240243434906006 40.5 115.0
v -4.0 10.5 115.0
v -4.467333793640137 9.014960289001465 115.0
v -5.261138439178467 7.675700664520264 115.0
v -6.339547634124756 6.552857398986816 115.0
v -7.645681858062744 5.705652713775635 115.0
v -9.110651969909668 5.178770542144775 115.0
v -10.657191276550293 5.0 0.0
v -31.607776641845703 5.0 0.0
v -31.607776641845703 5.0 115.0
v -10.657191276550293 5.0 115.0
v -31.607776641845703 5.0 0.0
v -10.657191276550293 5.0 0.0
v -9.110651969909668 5.178770542144775 0.0
v -7.645681858062744 5.705652713775635 0.0
v -6.339547634124756 6.552857398986816 0.0
v -5.261138439178467 7.675700664520264 0.0
v -4.467333793640137 9.014960289001465 0.0
v -4.0 10.5 0.0
v -3.9240243434906006 40.5 0.0
v -3.504972219467163 41.76538848876953 0.0
v -2.6696879863739014 42.80419158935547 0.0
v -1.5237524509429932 43.485103607177734 0.0
v -0.21201211214065552 43.7220573425293 0.0
v 1.0997282266616821 43.485103607177734 0.0
v 2.24566388130188 42.80419158935547 0.0
v 3.0809478759765625 41.76538848876953 0.0
v 3.5 40.5 0.0
v 3.5 0.0 0.0
v -31.607776641845703 -8.881784197001252e-16 0.0
v -32.564483642578125 0.19030116498470306 0.0
v -33.37554168701172 0.7322330474853516 0.0
v -33.917476654052734 1.543291449546814 0.0
v -34.1077766418457 2.5 0.0
v -33.917476654052734 3.4567086696624756 0.0
v -33.37554168701172 4.267766952514648 0.0
v -32.564483642578125 4.809699058532715 0.0
v -31.607776641845703 5.0 0.0
v -32.564483642578125 4.809699058532715 0.0
v -33.37554168701172 4.267766952514648 0.0
v -33.917476654052734 3.4567086696624756 0.0
v -34.1077766418457 2.5 0.0
v -33.917476654052734 1.543291449546814 0.0
v -33.37554168701172 0.7322330474853516 0.0
v -32.564483642578125 0.19030116498470306 0.0
v -31.607776641845703 -8.881784197001252e-16 0.0
v -31.607776641845703 -8.881784197001252e-16 115.0
v -32.564483642578125 0.19030116498470306 115.0
v -33.37554168701172 0.7322330474853516 115.0
v -33.917476654052734 1.543291449546814 115.0
v -34.1077766418457 2.5 115.0
v -33.917476654052734 3.4567086696624756 115.0
v -33.37554168701172 4.267766952514648 115.0
v -32.564483642578125 4.809699058532715 115.0
v -31.607776641845703 5.0 115.0
v -31.607776641845703 -8.881784197001252e-16 0.0
v 3.5 0.0 0.0
v 3.5 0.0 115.0
v -31.607776641845703 -8.881784197001252e-16 115.0
v 3.5 0.0 0.0
v 3.5 40.5 0.0
v 3.5 40.5 115.0
v 3.5 0.0 115.0
v 3.5 40.5 0.0
v 3.0809478759765625 41.76538848876953 0.0
v 2.24566388130188 42.80419158935547 0.0
v 1.0997282266616821 43.485103607177734 0.0
v -0.21201211214065552 43.7220573425293 0.0
v -1.5237524509429932 43.485103607177734 0.0
v -2.6696879863739014 42.80419158935547 0.0
v -3.504972219467163 41.76538848876953 0.0
v -3.9240243434906006 40.5 0.0
v -3.9240243434906006 40.5 115.0
v -3.504972219467163 41.76538848876953 115.0
v -2.6696879863739014 42.80419158935547 115.0
v -1.5237524509429932 43.485103607177734 115.0
v -0.21201211214065552 43.7220573425293 115.0
v 1.0997282266616821 43.485103607177734 115.0
v 2.24566388130188 42.80419158935547 115.0
v 3.0809478759765625 41.76538848876953 115.0
v 3.5 40.5 115.0
v -3.9240243434906006 40.5 0.0
v -4.0 10.5 0.0
v -4.0 10.5 115.0
v -3.9240243434906006 40.5 115.0
v -4.0 10.5 0.0
v -4.467333793640137 9.014960289001465 0.0
v -5.261138439178467 7.675700664520264 0.0
v -6.339547634124756 6.552857398986816 0.0
v -7.645681858062744 5.705652713775635 0.0
v -9.110651969909668 5.178770542144775 0.0
v -10.657191276550293 5.0 0.0
v -10.657191276550293 5.0 115.0
v -9.110651969909668 5.178770542144775 115.0
v -7.645681858062744 5.705652713775635 115.0
v -6.339547634124756 6.552857398986816 115.0
v -5.261138439178467 7.675700664520264 115.0
v -4.467333793640137 9.014960289001465 115.0
v -4.0 10.5 115.0
vn 0.0 0.0 1.0
vn 0.0 0.0 1.0
vn 0.0 0.0 1.0
vn 0.0 0.0 1.0
vn 0.0 0.0 1.0
vn 0.0 0.0 1.0
vn 0.0 0.0 1.0
vn 0.0 0.0 1.0
vn 0.0 0.0 1.0
vn 0.0 0.0 1.0
vn 0.0 0.0 1.0
vn 0.0 0.0 1.0
vn 0.0 0.0 1.0
vn 0.0 0.0 1.0
vn 0.0 0.0 1.0
vn 0.0 0.0 1.0
vn 0.0 0.0 1.0
vn 0.0 0.0 1.0
vn 0.0 0.0 1.0
vn 0.0 0.0 1.0
vn 0.0 0.0 1.0
vn 0.0 0.0 1.0
vn 0.0 0.0 1.0
vn 0.0 0.0 1.0
vn 0.0 0.0 1.0
vn 0.0 0.0 1.0
vn 0.0 1.0 -0.0
vn 0.0 1.0 -0.0
vn 0.0 1.0 -0.0
vn 0.0 1.0 -0.0
vn -0.0 0.0 -1.0
vn -0.0 0.0 -1.0
vn -0.0 0.0 -1.0
vn -0.0 0.0 -1.0
vn -0.0 0.0 -1.0
vn -0.0 0.0 -1.0
vn -0.0 0.0 -1.0
vn -0.0 0.0 -1.0
vn -0.0 0.0 -1.0
vn -0.0 0.0 -1.0
vn -0.0 0.0 -1.0
vn -0.0 0.0 -1.0
vn -0.0 0.0 -1.0
vn -0.0 0.0 -1.0
vn -0.0 0.0 -1.0
vn -0.0 0.0 -1.0
vn -0.0 0.0 -1.0
vn -0.0 0.0 -1.0
vn -0.0 0.0 -1.0
vn -0.0 0.0 -1.0
vn -0.0 0.0 -1.0
vn -0.0 0.0 -1.0
vn -0.0 0.0 -1.0
vn -0.0 0.0 -1.0
vn -0.0 0.0 -1.0
vn -0.0 0.0 -1.0
vn 1.421085492696024e-15 1.0 -0.0
vn -0.3826834261417389 0.9238795042037964 -0.0
vn -0.7071067690849304 0.7071067690849304 -0.0
vn -0.9238795042037964 0.3826834261417389 -0.0
vn -1.0 1.4823178220903926e-15 -0.0
vn -0.9238795042037964 -0.3826834261417389 0.0
vn -0.7071067690849304 -0.7071067690849304 0.0
vn -0.3826834261417389 -0.9238795042037964 0.0
vn -1.5435501514847612e-15 -1.0 0.0
vn -1.5435501514847612e-15 -1.0 0.0
vn -0.3826834261417389 -0.9238795042037964 0.0
vn -0.7071067690849304 -0.7071067690849304 0.0
vn -0.9238795042037964 -0.3826834261417389 0.0
vn -1.0 1.4823178220903926e-15 -0.0
vn -0.9238795042037964 0.3826834261417389 -0.0
vn -0.7071067690849304 0.7071067690849304 -0.0
vn -0.3826834261417389 0.9238795042037964 -0.0
vn 1.421085492696024e-15 1.0 -0.0
vn 0.0 -1.0 0.0
vn 0.0 -1.0 0.0
vn 0.0 -1.0 0.0
vn 0.0 -1.0 0.0
vn 1.0 0.0 0.0
vn 1.0 0.0 0.0
vn 1.0 0.0 0.0
vn 1.0 0.0 0.0
vn 0.9900642037391663 0.14061619341373444 -0.0
vn 0.8782950043678284 0.4781190752983093 -0.0
vn 0.6555088758468628 0.755187451839447 -0.0
vn 0.3498660624027252 0.9367997050285339 -0.0
vn -8.883527364336922e-17 1.0 -0.0
vn -0.3498660624027252 0.9367997050285339 -0.0
vn -0.6555088758468628 0.755187451839447 -0.0
vn -0.8782950043678284 0.4781190752983093 -0.0
vn -0.9900642037391663 0.14061619341373444 -0.0
vn -0.9900642037391663 0.14061619341373444 -0.0
vn -0.8782950043678284 0.4781190752983093 -0.0
vn -0.6555088758468628 0.755187451839447 -0.0
vn -0.3498660624027252 0.9367997050285339 -0.0
vn -8.883527364336922e-17 1.0 -0.0
vn 0.3498660624027252 0.9367997050285339 -0.0
vn 0.6555088758468628 0.755187451839447 -0.0
vn 0.8782950043678284 0.4781190752983093 -0.0
vn 0.9900642037391663 0.14061619341373444 -0.0
vn -0.9999967813491821 0.0025325175374746323 0.0
vn -0.9999967813491821 0.0025325175374746323 0.0
vn -0.9999967813491821 0.0025325175374746323 0.0
vn -0.9999967813491821 0.0025325175374746323 0.0
vn -0.9820420145988464 0.18866220116615295 0.0
vn -0.9131028652191162 0.40772923827171326 0.0
vn -0.7960039377212524 0.6052914261817932 0.0
vn -0.6369214057922363 0.7709287405014038 0.0
vn -0.44424575567245483 0.8959049582481384 0.0
vn -0.2281392514705658 0.9736285209655762 0.0
vn -2.6204099776856694e-16 1.0 0.0
vn -2.6204099776856694e-16 1.0 0.0
vn -0.2281392514705658 0.9736285209655762 0.0
vn -0.44424575567245483 0.8959049582481384 0.0
vn -0.6369214057922363 0.7709287405014038 0.0
vn -0.7960039377212524 0.6052914261817932 0.0
vn -0.9131028652191162 0.40772923827171326 0.0
vn -0.9820420145988464 0.18866220116615295 0.0
f 2//2 10//10 1//1
f 1//1 10//10 11//11
f 1//1 11//11 26//26
f 26//26 11//11 25//25
f 25//25 11//11 24//24
f 24//24 11//11 23//23
f 23//23 11//11 22//22
f 22//22 11//11 21//21
f 21//21 11//11 12//12
f 21//21 12//12 20//20
f 20//20 12//12 19//19
f 19//19 12//12 18//18
f 18//18 12//12 17//17
f 17//17 12//12 16//16
f 16//16 12//12 15//15
f 15//15 12//12 14//14
f 14//14 12//12 13//13
f 10//10 2//2 9//9
f 9//9 2//2 3//3
f 9//9 3//3 8//8
f 8//8 3//3 4//4
f 8//8 4//4 7//7
f 7//7 4//4 5//5
f 7//7 5//5 6//6
f 27//27 28//28 30//30
f 30//30 28//28 29//29
f 56//56 31//31 49//49
f 49//49 31//31 32//32
f 49//49 32//32 48//48
f 48//48 32//32 33//33
f 48//48 33//33 34//34
f 34//34 35//35 48//48
f 48//48 35//35 36//36
f 48//48 36//36 37//37
f 37//37 38//38 48//48
f 48//48 38//38 47//47
f 47//47 38//38 39//39
f 47//47 39//39 46//46
f 46//46 39//39 45//45
f 45//45 39//39 44//44
f 44//44 39//39 43//43
f 43//43 39//39 42//42
f 42//42 39//39 41//41
f 41//41 39//39 40//40
f 49//49 50//50 56//56
f 56//56 50//50 51//51
f 56//56 51//51 55//55
f 55//55 51//51 52//52
f 55//55 52//52 54//54
f 54//54 52//52 53//53
f 74//74 57//57 73//73
f 73//73 57//57 58//58
f 73//73 58//58 59//59
f 73//73 59//59 72//72
f 72//72 59//59 60//60
f 72//72 60//60 71//71
f 71//71 60//60 61//61
f 71//71 61//61 70//70
f 70//70 61//61 62//62
f 70//70 62//62 69//69
f 69//69 62//62 63//63
f 69//69 63//63 68//68
f 68//68 63//63 64//64
f 68//68 64//64 67//67
f 67//67 64//64 66//66
f 66//66 64//64 65//65
f 75//75 76//76 78//78
f 78//78 76//76 77//77
f 79//79 80//80 82//82
f 82//82 80//80 81//81
f 100//100 83//83 99//99
f 99//99 83//83 84//84
f 99//99 84//84 98//98
f 98//98 84//84 85//85
f 98//98 85//85 97//97
f 97//97 85//85 86//86
f 97//97 86//86 96//96
f 96//96 86//86 87//87
f 96//96 87//87 95//95
f 95//95 87//87 88//88
f 95//95 88//88 94//94
f 94//94 88//88 89//89
f 94//94 89//89 93//93
f 93//93 89//89 90//90
f 93//93 90//90 92//92
f 92//92 90//90 91//91
f 101//101 102//102 104//104
f 104//104 102//102 103//103
f 118//118 105//105 117//117
f 117//117 105//105 106//106
f 117//117 106//106 107//107
f 117//117 107//107 116//116
f 116//116 107//107 108//108
f 116//116 108//108 115//115
f 115//115 108//108 109//109
f 115//115 109//109 114//114
f 114//114 109//109 110//110
f 114//114 110//110 113//113
f 113//113 110//110 112//112
f 112//112 110//110 111//111

# End of file