# WaveFront *.obj file
# Vertices: 48
# Triangles : 28

v -4.0 0.0 4.0
v -3.5 0.0 4.0
v -3.5 4.0 4.0
v -4.0 4.0 4.0
v -4.0 0.0 -2.5
v -4.0 0.0 4.0
v -4.0 4.0 4.0
v -4.0 4.0 -2.5
v 5.0 0.0 -2.5
v -4.0 0.0 -2.5
v -4.0 4.0 -2.5
v 5.0 4.0 -2.5
v 5.0 0.0 4.0
v 5.0 0.0 -2.5
v 5.0 4.0 -2.5
v 5.0 4.0 4.0
v 4.5 0.0 4.0
v 5.0 0.0 4.0
v 5.0 4.0 4.0
v 4.5 4.0 4.0
v 4.5 0.0 -2.0
v 4.5 0.0 4.0
v 4.5 4.0 4.0
v 4.5 4.0 -2.0
v -3.5 0.0 -2.0
v 4.5 0.0 -2.0
v 4.5 4.0 -2.0
v -3.5 4.0 -2.0
v -3.5 0.0 4.0
v -3.5 0.0 -2.0
v -3.5 4.0 -2.0
v -3.5 4.0 4.0
v -3.5 4.0 4.0
v -3.5 4.0 -2.0
v 4.5 4.0 -2.0
v 4.5 4.0 4.0
v 5.0 4.0 4.0
v 5.0 4.0 -2.5
v -4.0 4.0 -2.5
v -4.0 4.0 4.0
v -3.5 0.0 -2.0
v -3.5 0.0 4.0
v -4.0 0.0 4.0
v -4.0 0.0 -2.5
v 5.0 0.0 -2.5
v 5.0 0.0 4.0
v 4.5 0.0 4.0
v 4.5 0.0 -2.0
vn 0.0 -0.0 1.0
vn 0.0 -0.0 1.0
vn 0.0 -0.0 1.0
vn 0.0 -0.0 1.0
vn -1.0 0.0 0.0
vn -1.0 0.0 0.0
vn -1.0 0.0 0.0
vn -1.0 0.0 0.0
vn 0.0 0.0 -1.0
vn 0.0 0.0 -1.0
vn 0.0 0.0 -1.0
vn 0.0 0.0 -1.0
vn 1.0 0.0 0.0
vn 1.0 0.0 0.0
vn 1.0 0.0 0.0
vn 1.0 0.0 0.0
vn 0.0 -0.0 1.0
vn 0.0 -0.0 1.0
vn 0.0 -0.0 1.0
vn 0.0 -0.0 1.0
vn -1.0 0.0 0.0
vn -1.0 0.0 0.0
vn -1.0 0.0 0.0
vn -1.0 0.0 0.0
vn 0.0 0.0 1.0
vn 0.0 0.0 1.0
vn 0.0 0.0 1.0
vn 0.0 0.0 1.0
vn 1.0 -0.0 0.0
vn 1.0 -0.0 0.0
vn 1.0 -0.0 0.0
vn 1.0 -0.0 0.0
vn 0.0 1.0 0.0
vn 0.0 1.0 0.0
vn 0.0 1.0 0.0
vn 0.0 1.0 0.0
vn 0.0 1.0 0.0
vn 0.0 1.0 0.0
vn 0.0 1.0 0.0
vn 0.0 1.0 0.0
vn -0.0 -1.0 -0.0
vn -0.0 -1.0 -0.0
vn -0.0 -1.0 -0.0
vn -0.0 -1.0 -0.0
vn -0.0 -1.0 -0.0
vn -0.0 -1.0 -0.0
vn -0.0 -1.0 -0.0
vn -0.0 -1.0 -0.0
g ebcd8fe2-e333-11ea-861a-54bf646e7e1f
f 1//1 2//2 4//4
f 4//4 2//2 3//3
g ebcdde24-e333-11ea-8e46-54bf646e7e1f
f 5//5 6//6 8//8
f 8//8 6//6 7//7
g ebce050c-e333-11ea-8992-54bf646e7e1f
f 9//9 10//10 12//12
f 12//12 10//10 11//11
g ebce2c1c-e333-11ea-9a4f-54bf646e7e1f
f 13//13 14//14 16//16
f 16//16 14//14 15//15
g ebce7a46-e333-11ea-8202-54bf646e7e1f
f 17//17 18//18 20//20
f 20//20 18//18 19//19
g ebcea146-e333-11ea-9dcb-54bf646e7e1f
f 21//21 22//22 24//24
f 24//24 22//22 23//23
g ebceef5e-e333-11ea-ae54-54bf646e7e1f
f 25//25 26//26 28//28
f 28//28 26//26 27//27
g ebcf3d88-e333-11ea-8cd1-54bf646e7e1f
f 29//29 30//30 32//32
f 32//32 30//30 31//31
g ebcf8ba8-e333-11ea-84de-54bf646e7e1f
f 33//33 34//34 40//40
f 40//40 34//34 39//39
f 39//39 34//34 35//35
f 39//39 35//35 38//38
f 38//38 35//35 37//37
f 37//37 35//35 36//36
g ebcfd9b6-e333-11ea-8bb8-54bf646e7e1f
f 42//42 43//43 41//41
f 41//41 43//43 44//44
f 41//41 44//44 45//45
f 41//41 45//45 48//48
f 48//48 45//45 46//46
f 48//48 46//46 47//47

# End of file