# WaveFront *.obj file
# Vertices: 134
# Triangles : 128

v 0.0 -5.5109105057610103e-17 0.44999998807907104
v 0.0 0.08516305685043335 0.4418679177761078
v 0.0 0.16724810004234314 0.4177655577659607
v 0.0 0.24328836798667908 0.37856408953666687
v 0.0 0.3105355501174927 0.32568031549453735
v 0.0 0.3665591776371002 0.261025607585907
v 0.0 0.4093343913555145 0.18693675100803375
v 0.0 0.4373151957988739 0.10609152168035507
v 0.0 0.4494903087615967 0.02141186222434044
v 0.0 0.44541963934898376 -0.06404167413711548
v 0.0 0.425250381231308 -0.14718058705329895
v 0.0 0.3897114396095276 -0.22499999403953552
v 0.0 0.34008729457855225 -0.29468733072280884
v 0.0 0.2781715393066406 -0.3537238836288452
v 0.0 0.2062019407749176 -0.3999759554862976
v 0.0 0.12677964568138123 -0.431771844625473
v 0.0 0.042775221168994904 -0.44796237349510193
v 0.0 -0.042775221168994904 -0.44796237349510193
v 0.0 -0.12677964568138123 -0.431771844625473
v 0.0 -0.2062019407749176 -0.3999759554862976
v 0.0 -0.2781715393066406 -0.3537238836288452
v 0.0 -0.34008729457855225 -0.29468733072280884
v 0.0 -0.3897114396095276 -0.22499999403953552
v 0.0 -0.425250381231308 -0.14718058705329895
v 0.0 -0.44541963934898376 -0.06404167413711548
v 0.0 -0.4494903087615967 0.02141186222434044
v 0.0 -0.4373151957988739 0.10609152168035507
v 0.0 -0.4093343913555145 0.18693675100803375
v 0.0 -0.3665591776371002 0.261025607585907
v 0.0 -0.3105355501174927 0.32568031549453735
v 0.0 -0.24328836798667908 0.37856408953666687
v 0.0 -0.16724810004234314 0.4177655577659607
v 0.0 -0.08516305685043335 0.4418679177761078
v 4.0 -5.5109105057610103e-17 0.44999998807907104
v 4.0 -0.08516305685043335 0.4418679177761078
v 4.0 -0.16724810004234314 0.4177655577659607
v 4.0 -0.24328836798667908 0.37856408953666687
v 4.0 -0.3105355501174927 0.32568031549453735
v 4.0 -0.3665591776371002 0.261025607585907
v 4.0 -0.4093343913555145 0.18693675100803375
v 4.0 -0.4373151957988739 0.10609152168035507
v 4.0 -0.4494903087615967 0.02141186222434044
v 4.0 -0.44541963934898376 -0.06404167413711548
v 4.0 -0.425250381231308 -0.14718058705329895
v 4.0 -0.3897114396095276 -0.22499999403953552
v 4.0 -0.34008729457855225 -0.29468733072280884
v 4.0 -0.2781715393066406 -0.3537238836288452
v 4.0 -0.2062019407749176 -0.3999759554862976
v 4.0 -0.12677964568138123 -0.431771844625473
v 4.0 -0.042775221168994904 -0.44796237349510193
v 4.0 0.042775221168994904 -0.44796237349510193
v 4.0 0.12677964568138123 -0.431771844625473
v 4.0 0.2062019407749176 -0.3999759554862976
v 4.0 0.2781715393066406 -0.3537238836288452
v 4.0 0.34008729457855225 -0.29468733072280884
v 4.0 0.3897114396095276 -0.22499999403953552
v 4.0 0.425250381231308 -0.14718058705329895
v 4.0 0.44541963934898376 -0.06404167413711548
v 4.0 0.4494903087615967 0.02141186222434044
v 4.0 0.4373151957988739 0.10609152168035507
v 4.0 0.4093343913555145 0.18693675100803375
v 4.0 0.3665591776371002 0.261025607585907
v 4.0 0.3105355501174927 0.32568031549453735
v 4.0 0.24328836798667908 0.37856408953666687
v 4.0 0.16724810004234314 0.4177655577659607
v 4.0 0.08516305685043335 0.4418679177761078
v 4.0 -5.5109105057610103e-17 0.44999998807907104
v 4.0 0.08516305685043335 0.4418679177761078
v 4.0 0.16724810004234314 0.4177655577659607
v 4.0 0.24328836798667908 0.37856408953666687
v 4.0 0.3105355501174927 0.32568031549453735
v 4.0 0.3665591776371002 0.261025607585907
v 4.0 0.4093343913555145 0.18693675100803375
v 4.0 0.4373151957988739 0.10609152168035507
v 4.0 0.4494903087615967 0.02141186222434044
v 4.0 0.44541963934898376 -0.06404167413711548
v 4.0 0.425250381231308 -0.14718058705329895
v 4.0 0.3897114396095276 -0.22499999403953552
v 4.0 0.34008729457855225 -0.29468733072280884
v 4.0 0.2781715393066406 -0.3537238836288452
v 4.0 0.2062019407749176 -0.3999759554862976
v 4.0 0.12677964568138123 -0.431771844625473
v 4.0 0.042775221168994904 -0.44796237349510193
v 4.0 -0.042775221168994904 -0.44796237349510193
v 4.0 -0.12677964568138123 -0.431771844625473
v 4.0 -0.2062019407749176 -0.3999759554862976
v 4.0 -0.2781715393066406 -0.3537238836288452
v 4.0 -0.34008729457855225 -0.29468733072280884
v 4.0 -0.3897114396095276 -0.22499999403953552
v 4.0 -0.425250381231308 -0.14718058705329895
v 4.0 -0.44541963934898376 -0.06404167413711548
v 4.0 -0.4494903087615967 0.02141186222434044
v 4.0 -0.4373151957988739 0.10609152168035507
v 4.0 -0.4093343913555145 0.18693675100803375
v 4.0 -0.3665591776371002 0.261025607585907
v 4.0 -0.3105355501174927 0.32568031549453735
v 4.0 -0.24328836798667908 0.37856408953666687
v 4.0 -0.16724810004234314 0.4177655577659607
v 4.0 -0.08516305685043335 0.4418679177761078
v 0.0 -5.5109105057610103e-17 0.44999998807907104
v 0.0 -0.08516305685043335 0.4418679177761078
v 0.0 -0.16724810004234314 0.4177655577659607
v 0.0 -0.24328836798667908 0.37856408953666687
v 0.0 -0.3105355501174927 0.32568031549453735
v 0.0 -0.3665591776371002 0.261025607585907
v 0.0 -0.4093343913555145 0.18693675100803375
v 0.0 -0.4373151957988739 0.10609152168035507
v 0.0 -0.4494903087615967 0.02141186222434044
v 0.0 -0.44541963934898376 -0.06404167413711548
v 0.0 -0.425250381231308 -0.14718058705329895
v 0.0 -0.3897114396095276 -0.22499999403953552
v 0.0 -0.34008729457855225 -0.29468733072280884
v 0.0 -0.2781715393066406 -0.3537238836288452
v 0.0 -0.2062019407749176 -0.3999759554862976
v 0.0 -0.12677964568138123 -0.431771844625473
v 0.0 -0.042775221168994904 -0.44796237349510193
v 0.0 0.042775221168994904 -0.44796237349510193
v 0.0 0.12677964568138123 -0.431771844625473
v 0.0 0.2062019407749176 -0.3999759554862976
v 0.0 0.2781715393066406 -0.3537238836288452
v 0.0 0.34008729457855225 -0.29468733072280884
v 0.0 0.3897114396095276 -0.22499999403953552
v 0.0 0.425250381231308 -0.14718058705329895
v 0.0 0.44541963934898376 -0.06404167413711548
v 0.0 0.4494903087615967 0.02141186222434044
v 0.0 0.4373151957988739 0.10609152168035507
v 0.0 0.4093343913555145 0.18693675100803375
v 0.0 0.3665591776371002 0.261025607585907
v 0.0 0.3105355501174927 0.32568031549453735
v 0.0 0.24328836798667908 0.37856408953666687
v 0.0 0.16724810004234314 0.4177655577659607
v 0.0 0.08516305685043335 0.4418679177761078
v 0.0 -5.5109105057610103e-17 0.44999998807907104
v 4.0 -5.5109105057610103e-17 0.44999998807907104
vn -1.0 -0.0 -0.0
vn -1.0 -0.0 -0.0
vn -1.0 -0.0 -0.0
vn -1.0 -0.0 -0.0
vn -1.0 -0.0 -0.0
vn -1.0 -0.0 -0.0
vn -1.0 -0.0 -0.0
vn -1.0 -0.0 -0.0
vn -1.0 -0.0 -0.0
vn -1.0 -0.0 -0.0
vn -1.0 -0.0 -0.0
vn -1.0 -0.0 -0.0
vn -1.0 -0.0 -0.0
vn -1.0 -0.0 -0.0
vn -1.0 -0.0 -0.0
vn -1.0 -0.0 -0.0
vn -1.0 -0.0 -0.0
vn -1.0 -0.0 -0.0
vn -1.0 -0.0 -0.0
vn -1.0 -0.0 -0.0
vn -1.0 -0.0 -0.0
vn -1.0 -0.0 -0.0
vn -1.0 -0.0 -0.0
vn -1.0 -0.0 -0.0
vn -1.0 -0.0 -0.0
vn -1.0 -0.0 -0.0
vn -1.0 -0.0 -0.0
vn -1.0 -0.0 -0.0
vn -1.0 -0.0 -0.0
vn -1.0 -0.0 -0.0
vn -1.0 -0.0 -0.0
vn -1.0 -0.0 -0.0
vn -1.0 -0.0 -0.0
vn 1.0 0.0 0.0
vn 1.0 0.0 0.0
vn 1.0 0.0 0.0
vn 1.0 0.0 0.0
vn 1.0 0.0 0.0
vn 1.0 0.0 0.0
vn 1.0 0.0 0.0
vn 1.0 0.0 0.0
vn 1.0 0.0 0.0
vn 1.0 0.0 0.0
vn 1.0 0.0 0.0
vn 1.0 0.0 0.0
vn 1.0 0.0 0.0
vn 1.0 0.0 0.0
vn 1.0 0.0 0.0
vn 1.0 0.0 0.0
vn 1.0 0.0 0.0
vn 1.0 0.0 0.0
vn 1.0 0.0 0.0
vn 1.0 0.0 0.0
vn 1.0 0.0 0.0
vn 1.0 0.0 0.0
vn 1.0 0.0 0.0
vn 1.0 0.0 0.0
vn 1.0 0.0 0.0
vn 1.0 0.0 0.0
vn 1.0 0.0 0.0
vn 1.0 0.0 0.0
vn 1.0 0.0 0.0
vn 1.0 0.0 0.0
vn 1.0 0.0 0.0
vn 1.0 0.0 0.0
vn 1.0 0.0 0.0
vn -0.0 1.2246468525851679e-16 1.0
vn -0.0 0.18925124406814575 0.9819287061691284
vn -0.0 0.3716624677181244 0.9283679127693176
vn -0.0 0.5406408309936523 0.8412535190582275
vn -0.0 0.6900790333747864 0.7237340211868286
vn -0.0 0.8145759701728821 0.58005690574646
vn -0.0 0.9096319675445557 0.4154150187969208
vn -0.0 0.9718115925788879 0.2357589304447174
vn -0.0 0.9988673329353333 0.04758191481232643
vn -0.0 0.9898214340209961 -0.1423148363828659
vn -0.0 0.9450008273124695 -0.3270679712295532
vn -0.0 0.8660253882408142 -0.5
vn -0.0 0.7557495832443237 -0.6548607349395752
vn -0.0 0.6181589961051941 -0.7860531210899353
vn -0.0 0.4582265317440033 -0.8888354301452637
vn -0.0 0.28173255920410156 -0.9594929814338684
vn -0.0 0.09505604207515717 -0.9954718947410583
vn 0.0 -0.09505604207515717 -0.9954718947410583
vn 0.0 -0.28173255920410156 -0.9594929814338684
vn 0.0 -0.4582265317440033 -0.8888354301452637
vn 0.0 -0.6181589961051941 -0.7860531210899353
vn 0.0 -0.7557495832443237 -0.6548607349395752
vn 0.0 -0.8660253882408142 -0.5
vn 0.0 -0.9450008273124695 -0.3270679712295532
vn 0.0 -0.9898214340209961 -0.1423148363828659
vn -0.0 -0.9988673329353333 0.04758191481232643
vn -0.0 -0.9718115925788879 0.2357589304447174
vn -0.0 -0.9096319675445557 0.4154150187969208
vn -0.0 -0.8145759701728821 0.58005690574646
vn -0.0 -0.6900790333747864 0.7237340211868286
vn -0.0 -0.5406408309936523 0.8412535190582275
vn -0.0 -0.3716624677181244 0.9283679127693176
vn -0.0 -0.18925124406814575 0.9819287061691284
vn -0.0 -1.2246468525851679e-16 1.0
vn -0.0 -0.18925124406814575 0.9819287061691284
vn -0.0 -0.3716624677181244 0.9283679127693176
vn -0.0 -0.5406408309936523 0.8412535190582275
vn -0.0 -0.6900790333747864 0.7237340211868286
vn -0.0 -0.8145759701728821 0.58005690574646
vn -0.0 -0.9096319675445557 0.4154150187969208
vn -0.0 -0.9718115925788879 0.2357589304447174
vn -0.0 -0.9988673329353333 0.04758191481232643
vn 0.0 -0.9898214340209961 -0.1423148363828659
vn 0.0 -0.9450008273124695 -0.3270679712295532
vn 0.0 -0.8660253882408142 -0.5
vn 0.0 -0.7557495832443237 -0.6548607349395752
vn 0.0 -0.6181589961051941 -0.7860531210899353
vn 0.0 -0.4582265317440033 -0.8888354301452637
vn 0.0 -0.28173255920410156 -0.9594929814338684
vn 0.0 -0.09505604207515717 -0.9954718947410583
vn -0.0 0.09505604207515717 -0.9954718947410583
vn -0.0 0.28173255920410156 -0.9594929814338684
vn -0.0 0.4582265317440033 -0.8888354301452637
vn -0.0 0.6181589961051941 -0.7860531210899353
vn -0.0 0.7557495832443237 -0.6548607349395752
vn -0.0 0.8660253882408142 -0.5
vn -0.0 0.9450008273124695 -0.3270679712295532
vn -0.0 0.9898214340209961 -0.1423148363828659
vn -0.0 0.9988673329353333 0.04758191481232643
vn -0.0 0.9718115925788879 0.2357589304447174
vn -0.0 0.9096319675445557 0.4154150187969208
vn -0.0 0.8145759701728821 0.58005690574646
vn -0.0 0.6900790333747864 0.7237340211868286
vn -0.0 0.5406408309936523 0.8412535190582275
vn -0.0 0.3716624677181244 0.9283679127693176
vn -0.0 0.18925124406814575 0.9819287061691284
vn -0.0 1.2246468525851679e-16 1.0
vn -0.0 -1.2246468525851679e-16 1.0
f 2//2 17//17 1//1
f 1//1 17//17 18//18
f 1//1 18//18 33//33
f 33//33 18//18 19//19
f 33//33 19//19 32//32
f 32//32 19//19 20//20
f 32//32 20//20 31//31
f 31//31 20//20 21//21
f 31//31 21//21 30//30
f 30//30 21//21 22//22
f 30//30 22//22 29//29
f 29//29 22//22 23//23
f 29//29 23//23 28//28
f 28//28 23//23 24//24
f 28//28 24//24 27//27
f 27//27 24//24 25//25
f 27//27 25//25 26//26
f 17//17 2//2 16//16
f 16//16 2//2 3//3
f 16//16 3//3 15//15
f 15//15 3//3 4//4
f 15//15 4//4 14//14
f 14//14 4//4 5//5
f 14//14 5//5 13//13
f 13//13 5//5 6//6
f 13//13 6//6 12//12
f 12//12 6//6 7//7
f 12//12 7//7 11//11
f 11//11 7//7 8//8
f 11//11 8//8 10//10
f 10//10 8//8 9//9
f 35//35 50//50 34//34
f 34//34 50//50 51//51
f 34//34 51//51 66//66
f 66//66 51//51 52//52
f 66//66 52//52 65//65
f 65//65 52//52 53//53
f 65//65 53//53 64//64
f 64//64 53//53 54//54
f 64//64 54//54 63//63
f 63//63 54//54 55//55
f 63//63 55//55 62//62
f 62//62 55//55 56//56
f 62//62 56//56 61//61
f 61//61 56//56 57//57
f 61//61 57//57 60//60
f 60//60 57//57 58//58
f 60//60 58//58 59//59
f 50//50 35//35 49//49
f 49//49 35//35 36//36
f 49//49 36//36 48//48
f 48//48 36//36 37//37
f 48//48 37//37 47//47
f 47//47 37//37 38//38
f 47//47 38//38 46//46
f 46//46 38//38 39//39
f 46//46 39//39 45//45
f 45//45 39//39 40//40
f 45//45 40//40 44//44
f 44//44 40//40 41//41
f 44//44 41//41 43//43
f 43//43 41//41 42//42
f 68//68 132//132 67//67
f 67//67 132//132 133//133
f 134//134 100//100 99//99
f 99//99 100//100 101//101
f 99//99 101//101 98//98
f 98//98 101//101 102//102
f 98//98 102//102 97//97
f 97//97 102//102 103//103
f 97//97 103//103 96//96
f 96//96 103//103 104//104
f 96//96 104//104 95//95
f 95//95 104//104 105//105
f 95//95 105//105 94//94
f 94//94 105//105 106//106
f 94//94 106//106 93//93
f 93//93 106//106 107//107
f 93//93 107//107 92//92
f 92//92 107//107 108//108
f 92//92 108//108 91//91
f 91//91 108//108 109//109
f 91//91 109//109 90//90
f 90//90 109//109 110//110
f 90//90 110//110 89//89
f 89//89 110//110 111//111
f 89//89 111//111 88//88
f 88//88 111//111 112//112
f 88//88 112//112 87//87
f 87//87 112//112 113//113
f 87//87 113//113 86//86
f 86//86 113//113 114//114
f 86//86 114//114 85//85
f 85//85 114//114 115//115
f 85//85 115//115 84//84
f 84//84 115//115 116//116
f 84//84 116//116 83//83
f 83//83 116//116 117//117
f 83//83 117//117 82//82
f 82//82 117//117 118//118
f 82//82 118//118 81//81
f 81//81 118//118 119//119
f 81//81 119//119 80//80
f 80//80 119//119 120//120
f 80//80 120//120 79//79
f 79//79 120//120 121//121
f 79//79 121//121 78//78
f 78//78 121//121 122//122
f 78//78 122//122 77//77
f 77//77 122//122 123//123
f 77//77 123//123 76//76
f 76//76 123//123 124//124
f 76//76 124//124 75//75
f 75//75 124//124 125//125
f 75//75 125//125 74//74
f 74//74 125//125 126//126
f 74//74 126//126 73//73
f 73//73 126//126 127//127
f 73//73 127//127 72//72
f 72//72 127//127 128//128
f 72//72 128//128 71//71
f 71//71 128//128 129//129
f 71//71 129//129 70//70
f 70//70 129//129 130//130
f 70//70 130//130 69//69
f 69//69 130//130 131//131
f 69//69 131//131 68//68
f 68//68 131//131 132//132

# End of file