# WaveFront *.obj file
# Vertices: 224
# Triangles : 196

v -6.5 -7.5 0.0
v -6.5 -9.5 0.0
v -6.5 -9.5 8.0
v -6.5 -7.5 8.0
v 6.5 -7.5 0.0
v 0.8807782530784607 -7.5 0.0
v 0.8807782530784607 -7.5 8.0
v 6.5 -7.5 8.0
v -0.8807782530784607 -7.5 0.0
v -6.5 -7.5 0.0
v -6.5 -7.5 8.0
v -0.8807782530784607 -7.5 8.0
v -0.8807782530784607 -3.9018239974975586 0.0
v -0.8807782530784607 -7.5 0.0
v -0.8807782530784607 -7.5 8.0
v -0.8807782530784607 -3.9018239974975586 8.0
v 0.8807782530784607 -3.9018239974975586 0.0
v 1.3513957262039185 -3.764801502227783 0.0
v 1.8017206192016602 -3.57124662399292 0.0
v 2.2249908447265625 -3.324066162109375 0.0
v 2.6148507595062256 -3.0269713401794434 0.0
v 2.9654459953308105 -2.6844236850738525 0.0
v 3.271512031555176 -2.3015666007995605 0.0
v 3.5284531116485596 -1.884149193763733 0.0
v 3.7324109077453613 -1.4384393692016602 0.0
v 3.8803229331970215 -0.9711300730705261 0.0
v 3.96996808052063 -0.4892382323741913 0.0
v 4.0 -4.440892098500626e-16 0.0
v 4.0 -4.440892098500626e-16 8.0
v 3.96996808052063 -0.4892382323741913 8.0
v 3.8803229331970215 -0.9711300730705261 8.0
v 3.7324109077453613 -1.4384393692016602 8.0
v 3.5284531116485596 -1.884149193763733 8.0
v 3.271512031555176 -2.3015666007995605 8.0
v 2.9654459953308105 -2.6844236850738525 8.0
v 2.6148507595062256 -3.0269713401794434 8.0
v 2.2249908447265625 -3.324066162109375 8.0
v 1.8017206192016602 -3.57124662399292 8.0
v 1.3513957262039185 -3.764801502227783 8.0
v 0.8807782530784607 -3.9018239974975586 8.0
v -6.5 -9.5 0.0
v 6.5 -9.5 0.0
v 6.5 -9.5 8.0
v -6.5 -9.5 8.0
v 0.8807782530784607 -7.5 0.0
v 0.8807782530784607 -3.9018239974975586 0.0
v 0.8807782530784607 -3.9018239974975586 8.0
v 0.8807782530784607 -7.5 8.0
v 4.0 -4.440892098500626e-16 0.0
v 2.5 -3.0616169991140216e-16 0.0
v 2.5 -3.0616169991140216e-16 8.0
v 4.0 -4.440892098500626e-16 8.0
v -2.5 0.0 0.0
v -4.0 0.0 0.0
v -4.0 0.0 8.0
v -2.5 0.0 8.0
v 2.5 -3.0616169991140216e-16 0.0
v 2.4659032821655273 -0.4114864766597748 0.0
v 2.3645431995391846 -0.8117486834526062 0.0
v 2.1986844539642334 -1.189868450164795 0.0
v 1.972851276397705 -1.535531759262085 0.0
v 1.6932039260864258 -1.839309811592102 0.0
v 1.367370367050171 -2.092916250228882 0.0
v 1.0042386054992676 -2.289433240890503 0.0
v 0.6137137413024902 -2.4235007762908936 0.0
v 0.20644836127758026 -2.4914612770080566 0.0
v -0.20644836127758026 -2.4914612770080566 0.0
v -0.6137137413024902 -2.4235007762908936 0.0
v -1.0042386054992676 -2.289433240890503 0.0
v -1.367370367050171 -2.092916250228882 0.0
v -1.6932039260864258 -1.839309811592102 0.0
v -1.972851276397705 -1.535531759262085 0.0
v -2.1986844539642334 -1.189868450164795 0.0
v -2.3645431995391846 -0.8117486834526062 0.0
v -2.4659032821655273 -0.4114864766597748 0.0
v -2.5 0.0 0.0
v -2.5 0.0 8.0
v -2.4659032821655273 -0.4114864766597748 8.0
v -2.3645431995391846 -0.8117486834526062 8.0
v -2.1986844539642334 -1.189868450164795 8.0
v -1.972851276397705 -1.535531759262085 8.0
v -1.6932039260864258 -1.839309811592102 8.0
v -1.367370367050171 -2.092916250228882 8.0
v -1.0042386054992676 -2.289433240890503 8.0
v -0.6137137413024902 -2.4235007762908936 8.0
v -0.20644836127758026 -2.4914612770080566 8.0
v 0.20644836127758026 -2.4914612770080566 8.0
v 0.6137137413024902 -2.4235007762908936 8.0
v 1.0042386054992676 -2.289433240890503 8.0
v 1.367370367050171 -2.092916250228882 8.0
v 1.6932039260864258 -1.839309811592102 8.0
v 1.972851276397705 -1.535531759262085 8.0
v 2.1986844539642334 -1.189868450164795 8.0
v 2.3645431995391846 -0.8117486834526062 8.0
v 2.4659032821655273 -0.4114864766597748 8.0
v 2.5 -3.0616169991140216e-16 8.0
v -2.5 0.0 8.0
v -4.0 0.0 8.0
v -3.96996808052063 -0.4892382323741913 8.0
v -3.8803229331970215 -0.9711300730705261 8.0
v -3.7324109077453613 -1.4384393692016602 8.0
v -3.5284531116485596 -1.884149193763733 8.0
v -3.271512031555176 -2.3015666007995605 8.0
v -2.9654459953308105 -2.6844236850738525 8.0
v -2.6148507595062256 -3.0269713401794434 8.0
v -2.2249908447265625 -3.324066162109375 8.0
v -1.8017206192016602 -3.57124662399292 8.0
v -1.3513957262039185 -3.764801502227783 8.0
v -0.8807782530784607 -3.9018239974975586 8.0
v -0.8807782530784607 -7.5 8.0
v -6.5 -7.5 8.0
v -6.5 -9.5 8.0
v 6.5 -9.5 8.0
v 6.5 -7.5 8.0
v 0.8807782530784607 -7.5 8.0
v 0.8807782530784607 -3.9018239974975586 8.0
v 1.3513957262039185 -3.764801502227783 8.0
v 1.8017206192016602 -3.57124662399292 8.0
v 2.2249908447265625 -3.324066162109375 8.0
v 2.6148507595062256 -3.0269713401794434 8.0
v 2.9654459953308105 -2.6844236850738525 8.0
v 3.271512031555176 -2.3015666007995605 8.0
v 3.5284531116485596 -1.884149193763733 8.0
v 3.7324109077453613 -1.4384393692016602 8.0
v 3.8803229331970215 -0.9711300730705261 8.0
v 3.96996808052063 -0.4892382323741913 8.0
v 4.0 -4.440892098500626e-16 8.0
v 2.5 -3.0616169991140216e-16 8.0
v 2.4659032821655273 -0.4114864766597748 8.0
v 2.3645431995391846 -0.8117486834526062 8.0
v 2.1986844539642334 -1.189868450164795 8.0
v 1.972851276397705 -1.535531759262085 8.0
v 1.6932039260864258 -1.839309811592102 8.0
v 1.367370367050171 -2.092916250228882 8.0
v 1.0042386054992676 -2.289433240890503 8.0
v 0.6137137413024902 -2.4235007762908936 8.0
v 0.20644836127758026 -2.4914612770080566 8.0
v -0.20644836127758026 -2.4914612770080566 8.0
v -0.6137137413024902 -2.4235007762908936 8.0
v -1.0042386054992676 -2.289433240890503 8.0
v -1.367370367050171 -2.092916250228882 8.0
v -1.6932039260864258 -1.839309811592102 8.0
v -1.972851276397705 -1.535531759262085 8.0
v -2.1986844539642334 -1.189868450164795 8.0
v -2.3645431995391846 -0.8117486834526062 8.0
v -2.4659032821655273 -0.4114864766597748 8.0
v 6.5 -9.5 0.0
v 6.5 -7.5 0.0
v 6.5 -7.5 8.0
v 6.5 -9.5 8.0
v -4.0 0.0 0.0
v -2.5 0.0 0.0
v -2.4659032821655273 -0.4114864766597748 0.0
v -2.3645431995391846 -0.8117486834526062 0.0
v -2.1986844539642334 -1.189868450164795 0.0
v -1.972851276397705 -1.535531759262085 0.0
v -1.6932039260864258 -1.839309811592102 0.0
v -1.367370367050171 -2.092916250228882 0.0
v -1.0042386054992676 -2.289433240890503 0.0
v -0.6137137413024902 -2.4235007762908936 0.0
v -0.20644836127758026 -2.4914612770080566 0.0
v 0.20644836127758026 -2.4914612770080566 0.0
v 0.6137137413024902 -2.4235007762908936 0.0
v 1.0042386054992676 -2.289433240890503 0.0
v 1.367370367050171 -2.092916250228882 0.0
v 1.6932039260864258 -1.839309811592102 0.0
v 1.972851276397705 -1.535531759262085 0.0
v 2.1986844539642334 -1.189868450164795 0.0
v 2.3645431995391846 -0.8117486834526062 0.0
v 2.4659032821655273 -0.4114864766597748 0.0
v 2.5 -3.0616169991140216e-16 0.0
v 4.0 -4.440892098500626e-16 0.0
v 3.96996808052063 -0.4892382323741913 0.0
v 3.8803229331970215 -0.9711300730705261 0.0
v 3.7324109077453613 -1.4384393692016602 0.0
v 3.5284531116485596 -1.884149193763733 0.0
v 3.271512031555176 -2.3015666007995605 0.0
v 2.9654459953308105 -2.6844236850738525 0.0
v 2.6148507595062256 -3.0269713401794434 0.0
v 2.2249908447265625 -3.324066162109375 0.0
v 1.8017206192016602 -3.57124662399292 0.0
v 1.3513957262039185 -3.764801502227783 0.0
v 0.8807782530784607 -3.9018239974975586 0.0
v 0.8807782530784607 -7.5 0.0
v 6.5 -7.5 0.0
v 6.5 -9.5 0.0
v -6.5 -9.5 0.0
v -6.5 -7.5 0.0
v -0.8807782530784607 -7.5 0.0
v -0.8807782530784607 -3.9018239974975586 0.0
v -1.3513957262039185 -3.764801502227783 0.0
v -1.8017206192016602 -3.57124662399292 0.0
v -2.2249908447265625 -3.324066162109375 0.0
v -2.6148507595062256 -3.0269713401794434 0.0
v -2.9654459953308105 -2.6844236850738525 0.0
v -3.271512031555176 -2.3015666007995605 0.0
v -3.5284531116485596 -1.884149193763733 0.0
v -3.7324109077453613 -1.4384393692016602 0.0
v -3.8803229331970215 -0.9711300730705261 0.0
v -3.96996808052063 -0.4892382323741913 0.0
v -4.0 0.0 0.0
v -3.96996808052063 -0.4892382323741913 0.0
v -3.8803229331970215 -0.9711300730705261 0.0
v -3.7324109077453613 -1.4384393692016602 0.0
v -3.5284531116485596 -1.884149193763733 0.0
v -3.271512031555176 -2.3015666007995605 0.0
v -2.9654459953308105 -2.6844236850738525 0.0
v -2.6148507595062256 -3.0269713401794434 0.0
v -2.2249908447265625 -3.324066162109375 0.0
v -1.8017206192016602 -3.57124662399292 0.0
v -1.3513957262039185 -3.764801502227783 0.0
v -0.8807782530784607 -3.9018239974975586 0.0
v -0.8807782530784607 -3.9018239974975586 8.0
v -1.3513957262039185 -3.764801502227783 8.0
v -1.8017206192016602 -3.57124662399292 8.0
v -2.2249908447265625 -3.324066162109375 8.0
v -2.6148507595062256 -3.0269713401794434 8.0
v -2.9654459953308105 -2.6844236850738525 8.0
v -3.271512031555176 -2.3015666007995605 8.0
v -3.5284531116485596 -1.884149193763733 8.0
v -3.7324109077453613 -1.4384393692016602 8.0
v -3.8803229331970215 -0.9711300730705261 8.0
v -3.96996808052063 -0.4892382323741913 8.0
v -4.0 0.0 8.0
vn -1.0 0.0 0.0
vn -1.0 0.0 0.0
vn -1.0 0.0 0.0
vn -1.0 0.0 0.0
vn 0.0 1.0 0.0
vn 0.0 1.0 0.0
vn 0.0 1.0 0.0
vn 0.0 1.0 0.0
vn 0.0 1.0 0.0
vn 0.0 1.0 0.0
vn 0.0 1.0 0.0
vn 0.0 1.0 0.0
vn -1.0 0.0 0.0
vn -1.0 0.0 0.0
vn -1.0 0.0 0.0
vn -1.0 0.0 0.0
vn 0.22019456326961517 -0.9754559993743896 -0.0
vn 0.3378489315509796 -0.9412003755569458 -0.0
vn 0.45043015480041504 -0.89281165599823 -0.0
vn 0.5562477111816406 -0.8310165405273438 -0.0
vn 0.6537126898765564 -0.7567428350448608 -0.0
vn 0.7413614988327026 -0.6711059212684631 -0.0
vn 0.817878007888794 -0.5753916501998901 -0.0
vn 0.8821132779121399 -0.4710372984409332 -0.0
vn 0.9331027269363403 -0.35960984230041504 -0.0
vn 0.9700807332992554 -0.24278251826763153 -0.0
vn 0.9924920201301575 -0.12230955809354782 -0.0
vn 1.0 -1.1102230246251565e-16 -0.0
vn 1.0 -1.1102230246251565e-16 -0.0
vn 0.9924920201301575 -0.12230955809354782 -0.0
vn 0.9700807332992554 -0.24278251826763153 -0.0
vn 0.9331027269363403 -0.35960984230041504 -0.0
vn 0.8821132779121399 -0.4710372984409332 -0.0
vn 0.817878007888794 -0.5753916501998901 -0.0
vn 0.7413614988327026 -0.6711059212684631 -0.0
vn 0.6537126898765564 -0.7567428350448608 -0.0
vn 0.5562477111816406 -0.8310165405273438 -0.0
vn 0.45043015480041504 -0.89281165599823 -0.0
vn 0.3378489315509796 -0.9412003755569458 -0.0
vn 0.22019456326961517 -0.9754559993743896 -0.0
vn 0.0 -1.0 0.0
vn 0.0 -1.0 0.0
vn 0.0 -1.0 0.0
vn 0.0 -1.0 0.0
vn 1.0 0.0 -0.0
vn 1.0 0.0 -0.0
vn 1.0 0.0 -0.0
vn 1.0 0.0 -0.0
vn 0.0 1.0 0.0
vn 0.0 1.0 0.0
vn 0.0 1.0 0.0
vn 0.0 1.0 0.0
vn 0.0 1.0 0.0
vn 0.0 1.0 0.0
vn 0.0 1.0 0.0
vn 0.0 1.0 0.0
vn -1.0 1.2246468525851679e-16 0.0
vn -0.9863613247871399 0.1645945906639099 0.0
vn -0.945817232131958 0.3246994614601135 0.0
vn -0.8794737458229065 0.47594738006591797 0.0
vn -0.789140522480011 0.614212691783905 0.0
vn -0.6772815585136414 0.7357239127159119 0.0
vn -0.5469481348991394 0.8371664881706238 0.0
vn -0.4016954302787781 0.915773332118988 0.0
vn -0.24548548460006714 0.9694002866744995 0.0
vn -0.0825793445110321 0.9965844750404358 0.0
vn 0.0825793445110321 0.9965844750404358 -0.0
vn 0.24548548460006714 0.9694002866744995 -0.0
vn 0.4016954302787781 0.915773332118988 -0.0
vn 0.5469481348991394 0.8371664881706238 -0.0
vn 0.6772815585136414 0.7357239127159119 -0.0
vn 0.789140522480011 0.614212691783905 -0.0
vn 0.8794737458229065 0.47594738006591797 -0.0
vn 0.945817232131958 0.3246994614601135 -0.0
vn 0.9863613247871399 0.1645945906639099 -0.0
vn 1.0 0.0 -0.0
vn 1.0 0.0 -0.0
vn 0.9863613247871399 0.1645945906639099 -0.0
vn 0.945817232131958 0.3246994614601135 -0.0
vn 0.8794737458229065 0.47594738006591797 -0.0
vn 0.789140522480011 0.614212691783905 -0.0
vn 0.6772815585136414 0.7357239127159119 -0.0
vn 0.5469481348991394 0.8371664881706238 -0.0
vn 0.4016954302787781 0.915773332118988 -0.0
vn 0.24548548460006714 0.9694002866744995 -0.0
vn 0.0825793445110321 0.9965844750404358 -0.0
vn -0.0825793445110321 0.9965844750404358 0.0
vn -0.24548548460006714 0.9694002866744995 0.0
vn -0.4016954302787781 0.915773332118988 0.0
vn -0.5469481348991394 0.8371664881706238 0.0
vn -0.6772815585136414 0.7357239127159119 0.0
vn -0.789140522480011 0.614212691783905 0.0
vn -0.8794737458229065 0.47594738006591797 0.0
vn -0.945817232131958 0.3246994614601135 0.0
vn -0.9863613247871399 0.1645945906639099 0.0
vn -1.0 1.2246468525851679e-16 0.0
vn 0.0 0.0 1.0
vn 0.0 0.0 1.0
vn 0.0 0.0 1.0
vn 0.0 0.0 1.0
vn 0.0 0.0 1.0
vn 0.0 0.0 1.0
vn 0.0 0.0 1.0
vn 0.0 0.0 1.0
vn 0.0 0.0 1.0
vn 0.0 0.0 1.0
vn 0.0 0.0 1.0
vn 0.0 0.0 1.0
vn 0.0 0.0 1.0
vn 0.0 0.0 1.0
vn 0.0 0.0 1.0
vn 0.0 0.0 1.0
vn 0.0 0.0 1.0
vn 0.0 0.0 1.0
vn 0.0 0.0 1.0
vn 0.0 0.0 1.0
vn 0.0 0.0 1.0
vn 0.0 0.0 1.0
vn 0.0 0.0 1.0
vn 0.0 0.0 1.0
vn 0.0 0.0 1.0
vn 0.0 0.0 1.0
vn 0.0 0.0 1.0
vn 0.0 0.0 1.0
vn 0.0 0.0 1.0
vn 0.0 0.0 1.0
vn 0.0 0.0 1.0
vn 0.0 0.0 1.0
vn 0.0 0.0 1.0
vn 0.0 0.0 1.0
vn 0.0 0.0 1.0
vn 0.0 0.0 1.0
vn 0.0 0.0 1.0
vn 0.0 0.0 1.0
vn 0.0 0.0 1.0
vn 0.0 0.0 1.0
vn 0.0 0.0 1.0
vn 0.0 0.0 1.0
vn 0.0 0.0 1.0
vn 0.0 0.0 1.0
vn 0.0 0.0 1.0
vn 0.0 0.0 1.0
vn 0.0 0.0 1.0
vn 0.0 0.0 1.0
vn 0.0 0.0 1.0
vn 0.0 0.0 1.0
vn 1.0 0.0 -0.0
vn 1.0 0.0 -0.0
vn 1.0 0.0 -0.0
vn 1.0 0.0 -0.0
vn -0.0 0.0 -1.0
vn -0.0 0.0 -1.0
vn -0.0 0.0 -1.0
vn -0.0 0.0 -1.0
vn -0.0 0.0 -1.0
vn -0.0 0.0 -1.0
vn -0.0 0.0 -1.0
vn -0.0 0.0 -1.0
vn -0.0 0.0 -1.0
vn -0.0 0.0 -1.0
vn -0.0 0.0 -1.0
vn -0.0 0.0 -1.0
vn -0.0 0.0 -1.0
vn -0.0 0.0 -1.0
vn -0.0 0.0 -1.0
vn -0.0 0.0 -1.0
vn -0.0 0.0 -1.0
vn -0.0 0.0 -1.0
vn -0.0 0.0 -1.0
vn -0.0 0.0 -1.0
vn -0.0 0.0 -1.0
vn -0.0 0.0 -1.0
vn -0.0 0.0 -1.0
vn -0.0 0.0 -1.0
vn -0.0 0.0 -1.0
vn -0.0 0.0 -1.0
vn -0.0 0.0 -1.0
vn -0.0 0.0 -1.0
vn -0.0 0.0 -1.0
vn -0.0 0.0 -1.0
vn -0.0 0.0 -1.0
vn -0.0 0.0 -1.0
vn -0.0 0.0 -1.0
vn -0.0 0.0 -1.0
vn -0.0 0.0 -1.0
vn -0.0 0.0 -1.0
vn -0.0 0.0 -1.0
vn -0.0 0.0 -1.0
vn -0.0 0.0 -1.0
vn -0.0 0.0 -1.0
vn -0.0 0.0 -1.0
vn -0.0 0.0 -1.0
vn -0.0 0.0 -1.0
vn -0.0 0.0 -1.0
vn -0.0 0.0 -1.0
vn -0.0 0.0 -1.0
vn -0.0 0.0 -1.0
vn -0.0 0.0 -1.0
vn -0.0 0.0 -1.0
vn -0.0 0.0 -1.0
vn -1.0 -0.0 0.0
vn -0.9924920201301575 -0.12230955809354782 0.0
vn -0.9700807332992554 -0.24278251826763153 0.0
vn -0.9331027269363403 -0.35960984230041504 0.0
vn -0.8821132779121399 -0.4710372984409332 0.0
vn -0.817878007888794 -0.5753916501998901 0.0
vn -0.7413614988327026 -0.6711059212684631 0.0
vn -0.6537126898765564 -0.7567428350448608 0.0
vn -0.5562477111816406 -0.8310165405273438 0.0
vn -0.45043015480041504 -0.89281165599823 0.0
vn -0.3378489315509796 -0.9412003755569458 0.0
vn -0.22019456326961517 -0.9754559993743896 0.0
vn -0.22019456326961517 -0.9754559993743896 0.0
vn -0.3378489315509796 -0.9412003755569458 0.0
vn -0.45043015480041504 -0.89281165599823 0.0
vn -0.5562477111816406 -0.8310165405273438 0.0
vn -0.6537126898765564 -0.7567428350448608 0.0
vn -0.7413614988327026 -0.6711059212684631 0.0
vn -0.817878007888794 -0.5753916501998901 0.0
vn -0.8821132779121399 -0.4710372984409332 0.0
vn -0.9331027269363403 -0.35960984230041504 0.0
vn -0.9700807332992554 -0.24278251826763153 0.0
vn -0.9924920201301575 -0.12230955809354782 0.0
vn -1.0 -0.0 0.0
f 1//1 2//2 4//4
f 4//4 2//2 3//3
f 5//5 6//6 8//8
f 8//8 6//6 7//7
f 9//9 10//10 12//12
f 12//12 10//10 11//11
f 13//13 14//14 16//16
f 16//16 14//14 15//15
f 40//40 17//17 39//39
f 39//39 17//17 18//18
f 39//39 18//18 38//38
f 38//38 18//18 19//19
f 38//38 19//19 37//37
f 37//37 19//19 20//20
f 37//37 20//20 36//36
f 36//36 20//20 21//21
f 36//36 21//21 35//35
f 35//35 21//21 22//22
f 35//35 22//22 34//34
f 34//34 22//22 23//23
f 34//34 23//23 33//33
f 33//33 23//23 24//24
f 33//33 24//24 32//32
f 32//32 24//24 25//25
f 32//32 25//25 31//31
f 31//31 25//25 26//26
f 31//31 26//26 30//30
f 30//30 26//26 27//27
f 30//30 27//27 29//29
f 29//29 27//27 28//28
f 41//41 42//42 44//44
f 44//44 42//42 43//43
f 45//45 46//46 48//48
f 48//48 46//46 47//47
f 49//49 50//50 52//52
f 52//52 50//50 51//51
f 53//53 54//54 56//56
f 56//56 54//54 55//55
f 96//96 57//57 95//95
f 95//95 57//57 58//58
f 95//95 58//58 94//94
f 94//94 58//58 59//59
f 94//94 59//59 93//93
f 93//93 59//59 60//60
f 93//93 60//60 92//92
f 92//92 60//60 61//61
f 92//92 61//61 91//91
f 91//91 61//61 62//62
f 91//91 62//62 90//90
f 90//90 62//62 63//63
f 90//90 63//63 89//89
f 89//89 63//63 64//64
f 89//89 64//64 88//88
f 88//88 64//64 65//65
f 88//88 65//65 87//87
f 87//87 65//65 66//66
f 87//87 66//66 86//86
f 86//86 66//66 67//67
f 86//86 67//67 85//85
f 85//85 67//67 68//68
f 85//85 68//68 84//84
f 84//84 68//68 69//69
f 84//84 69//69 83//83
f 83//83 69//69 70//70
f 83//83 70//70 82//82
f 82//82 70//70 71//71
f 82//82 71//71 81//81
f 81//81 71//71 72//72
f 81//81 72//72 80//80
f 80//80 72//72 73//73
f 80//80 73//73 79//79
f 79//79 73//73 74//74
f 79//79 74//74 78//78
f 78//78 74//74 75//75
f 78//78 75//75 77//77
f 77//77 75//75 76//76
f 98//98 99//99 97//97
f 97//97 99//99 146//146
f 146//146 99//99 100//100
f 146//146 100//100 145//145
f 145//145 100//100 101//101
f 145//145 101//101 144//144
f 144//144 101//101 102//102
f 144//144 102//102 143//143
f 143//143 102//102 103//103
f 143//143 103//103 142//142
f 142//142 103//103 104//104
f 142//142 104//104 141//141
f 141//141 104//104 105//105
f 141//141 105//105 106//106
f 141//141 106//106 140//140
f 140//140 106//106 107//107
f 140//140 107//107 139//139
f 139//139 107//107 108//108
f 139//139 108//108 109//109
f 110//110 115//115 109//109
f 109//109 115//115 116//116
f 109//109 116//116 138//138
f 138//138 116//116 137//137
f 137//137 116//116 136//136
f 136//136 116//116 117//117
f 136//136 117//117 118//118
f 111//111 112//112 110//110
f 110//110 112//112 113//113
f 110//110 113//113 115//115
f 115//115 113//113 114//114
f 136//136 118//118 135//135
f 135//135 118//118 119//119
f 135//135 119//119 134//134
f 134//134 119//119 120//120
f 134//134 120//120 121//121
f 134//134 121//121 133//133
f 133//133 121//121 122//122
f 133//133 122//122 132//132
f 132//132 122//122 123//123
f 132//132 123//123 131//131
f 131//131 123//123 124//124
f 131//131 124//124 130//130
f 130//130 124//124 125//125
f 130//130 125//125 129//129
f 129//129 125//125 126//126
f 129//129 126//126 128//128
f 128//128 126//126 127//127
f 138//138 139//139 109//109
f 147//147 148//148 150//150
f 150//150 148//148 149//149
f 151//151 152//152 200//200
f 200//200 152//152 153//153
f 200//200 153//153 199//199
f 199//199 153//153 154//154
f 199//199 154//154 198//198
f 198//198 154//154 155//155
f 198//198 155//155 197//197
f 197//197 155//155 156//156
f 197//197 156//156 196//196
f 196//196 156//156 157//157
f 196//196 157//157 195//195
f 195//195 157//157 158//158
f 195//195 158//158 194//194
f 194//194 158//158 193//193
f 193//193 158//158 159//159
f 193//193 159//159 192//192
f 192//192 159//159 160//160
f 192//192 160//160 191//191
f 191//191 160//160 190//190
f 190//190 160//160 161//161
f 190//190 161//161 162//162
f 190//190 162//162 183//183
f 183//183 162//162 163//163
f 183//183 163//163 182//182
f 182//182 163//163 181//181
f 181//181 163//163 164//164
f 181//181 164//164 180//180
f 180//180 164//164 165//165
f 180//180 165//165 179//179
f 179//179 165//165 178//178
f 178//178 165//165 166//166
f 178//178 166//166 177//177
f 177//177 166//166 167//167
f 177//177 167//167 176//176
f 176//176 167//167 168//168
f 176//176 168//168 175//175
f 175//175 168//168 169//169
f 175//175 169//169 174//174
f 174//174 169//169 170//170
f 174//174 170//170 173//173
f 173//173 170//170 171//171
f 173//173 171//171 172//172
f 190//190 183//183 189//189
f 189//189 183//183 184//184
f 189//189 184//184 187//187
f 187//187 184//184 186//186
f 186//186 184//184 185//185
f 187//187 188//188 189//189
f 224//224 201//201 223//223
f 223//223 201//201 202//202
f 223//223 202//202 222//222
f 222//222 202//202 203//203
f 222//222 203//203 221//221
f 221//221 203//203 204//204
f 221//221 204//204 220//220
f 220//220 204//204 205//205
f 220//220 205//205 219//219
f 219//219 205//205 206//206
f 219//219 206//206 218//218
f 218//218 206//206 207//207
f 218//218 207//207 217//217
f 217//217 207//207 208//208
f 217//217 208//208 216//216
f 216//216 208//208 209//209
f 216//216 209//209 215//215
f 215//215 209//209 210//210
f 215//215 210//210 214//214
f 214//214 210//210 211//211
f 214//214 211//211 213//213
f 213//213 211//211 212//212

# End of file