# WaveFront *.obj file
# Vertices: 220
# Triangles : 192

v 2.0 0.0 -2.0
v -1.5 0.0 -2.0
v -1.5 6.0 -2.0
v 2.0 6.0 -2.0
v 2.0 0.0 -4.062019348144531
v 2.0 0.0 -2.0
v 2.0 6.0 -2.0
v 2.0 6.0 -4.062019348144531
v -1.5 0.0 -2.0
v -1.5 0.0 -4.27200174331665
v -1.5 6.0 -4.27200174331665
v -1.5 6.0 -2.0
v -1.5 0.0 2.7412052154541016
v 2.0 0.0 2.7412052154541016
v 2.0 0.0 0.0
v -1.5 0.0 0.0
v -1.5 0.0 -4.27200174331665
v -1.5 0.0 -2.0
v 2.0 0.0 -2.0
v 2.0 0.0 -4.062019348144531
v 2.485898494720459 0.0 -3.7842183113098145
v 2.9338085651397705 0.0 -3.4485890865325928
v 3.336885929107666 0.0 -3.06026029586792
v 3.6889705657958984 0.0 -2.6251659393310547
v 3.984682083129883 0.0 -2.1499552726745605
v 4.219501972198486 0.0 -1.6418901681900024
v 4.389841556549072 0.0 -1.1087344884872437
v 4.49309778213501 0.0 -0.5586355924606323
v 4.527692794799805 0.0 -1.1089648630611287e-15
v 4.49309778213501 0.0 0.5586355924606323
v 4.389841556549072 0.0 1.1087344884872437
v 4.219501972198486 0.0 1.6418901681900024
v 3.984682083129883 0.0 2.1499552726745605
v 3.6889705657958984 0.0 2.6251659393310547
v 3.336885929107666 0.0 3.06026029586792
v 2.9338085651397705 0.0 3.4485890865325928
v 2.485898494720459 0.0 3.7842183113098145
v 2.0 0.0 4.062019348144531
v 2.0 0.0 6.0
v -1.5 0.0 6.0
v -1.5 0.0 4.27200174331665
v -2.0403406620025635 0.0 4.041906833648682
v -2.5463528633117676 0.0 3.7438066005706787
v -3.0095226764678955 0.0 3.3827168941497803
v -3.4220571517944336 0.0 2.9647133350372314
v -3.7770156860351562 0.0 2.496828317642212
v -4.068426132202148 0.0 1.9869343042373657
v -4.291385650634766 0.0 1.4436101913452148
v -4.442142486572266 0.0 0.8759974241256714
v -4.518160343170166 0.0 0.2936460077762604
v -4.518160343170166 0.0 -0.2936460077762604
v -4.442142486572266 0.0 -0.8759974241256714
v -4.291385650634766 0.0 -1.4436101913452148
v -4.068426132202148 0.0 -1.9869343042373657
v -3.7770156860351562 0.0 -2.496828317642212
v -3.4220571517944336 0.0 -2.9647133350372314
v -3.0095226764678955 0.0 -3.3827168941497803
v -2.5463528633117676 0.0 -3.7438066005706787
v -2.0403406620025635 0.0 -4.041906833648682
v 2.0 0.0 -4.062019348144531
v 2.0 6.0 -4.062019348144531
v 2.485898494720459 6.0 -3.7842183113098145
v 2.9338085651397705 6.0 -3.4485890865325928
v 3.336885929107666 6.0 -3.06026029586792
v 3.6889705657958984 6.0 -2.6251659393310547
v 3.984682083129883 6.0 -2.1499552726745605
v 4.219501972198486 6.0 -1.6418901681900024
v 4.389841556549072 6.0 -1.1087344884872437
v 4.49309778213501 6.0 -0.5586355924606323
v 4.527692794799805 6.0 -1.1089648630611287e-15
v 4.49309778213501 6.0 0.5586355924606323
v 4.389841556549072 6.0 1.1087344884872437
v 4.219501972198486 6.0 1.6418901681900024
v 3.984682083129883 6.0 2.1499552726745605
v 3.6889705657958984 6.0 2.6251659393310547
v 3.336885929107666 6.0 3.06026029586792
v 2.9338085651397705 6.0 3.4485890865325928
v 2.485898494720459 6.0 3.7842183113098145
v 2.0 6.0 4.062019348144531
v 2.0 0.0 4.062019348144531
v 2.485898494720459 0.0 3.7842183113098145
v 2.9338085651397705 0.0 3.4485890865325928
v 3.336885929107666 0.0 3.06026029586792
v 3.6889705657958984 0.0 2.6251659393310547
v 3.984682083129883 0.0 2.1499552726745605
v 4.219501972198486 0.0 1.6418901681900024
v 4.389841556549072 0.0 1.1087344884872437
v 4.49309778213501 0.0 0.5586355924606323
v 4.527692794799805 0.0 -1.1089648630611287e-15
v 4.49309778213501 0.0 -0.5586355924606323
v 4.389841556549072 0.0 -1.1087344884872437
v 4.219501972198486 0.0 -1.6418901681900024
v 3.984682083129883 0.0 -2.1499552726745605
v 3.6889705657958984 0.0 -2.6251659393310547
v 3.336885929107666 0.0 -3.06026029586792
v 2.9338085651397705 0.0 -3.4485890865325928
v 2.485898494720459 0.0 -3.7842183113098145
v 2.0 6.0 -4.062019348144531
v 2.0 6.0 -2.0
v -1.5 6.0 -2.0
v -1.5 6.0 -4.27200174331665
v -2.0403406620025635 6.0 -4.041906833648682
v -2.5463528633117676 6.0 -3.7438066005706787
v -3.0095226764678955 6.0 -3.3827168941497803
v -3.4220571517944336 6.0 -2.9647133350372314
v -3.7770156860351562 6.0 -2.496828317642212
v -4.068426132202148 6.0 -1.9869343042373657
v -4.291385650634766 6.0 -1.4436101913452148
v -4.442142486572266 6.0 -0.8759974241256714
v -4.518160343170166 6.0 -0.2936460077762604
v -4.518160343170166 6.0 0.2936460077762604
v -4.442142486572266 6.0 0.8759974241256714
v -4.291385650634766 6.0 1.4436101913452148
v -4.068426132202148 6.0 1.9869343042373657
v -3.7770156860351562 6.0 2.496828317642212
v -3.4220571517944336 6.0 2.9647133350372314
v -3.0095226764678955 6.0 3.3827168941497803
v -2.5463528633117676 6.0 3.7438066005706787
v -2.0403406620025635 6.0 4.041906833648682
v -1.5 6.0 4.27200174331665
v -1.5 6.0 2.7412052154541016
v -1.5 6.0 0.0
v 2.0 6.0 0.0
v 2.0 6.0 2.7412052154541016
v 2.0 6.0 4.062019348144531
v 2.485898494720459 6.0 3.7842183113098145
v 2.9338085651397705 6.0 3.4485890865325928
v 3.336885929107666 6.0 3.06026029586792
v 3.6889705657958984 6.0 2.6251659393310547
v 3.984682083129883 6.0 2.1499552726745605
v 4.219501972198486 6.0 1.6418901681900024
v 4.389841556549072 6.0 1.1087344884872437
v 4.49309778213501 6.0 0.5586355924606323
v 4.527692794799805 6.0 -1.1089648630611287e-15
v 4.49309778213501 6.0 -0.5586355924606323
v 4.389841556549072 6.0 -1.1087344884872437
v 4.219501972198486 6.0 -1.6418901681900024
v 3.984682083129883 6.0 -2.1499552726745605
v 3.6889705657958984 6.0 -2.6251659393310547
v 3.336885929107666 6.0 -3.06026029586792
v 2.9338085651397705 6.0 -3.4485890865325928
v 2.485898494720459 6.0 -3.7842183113098145
v -1.5 6.0 2.7412052154541016
v -1.5 6.0 4.27200174331665
v -1.5 0.0 4.27200174331665
v -1.5 0.0 6.0
v -1.5 14.0 6.0
v -1.5 14.0 2.7412052154541016
v -1.5 0.0 6.0
v 2.0 0.0 6.0
v 2.0 14.0 6.0
v -1.5 14.0 6.0
v 2.0 6.0 4.062019348144531
v 2.0 6.0 2.7412052154541016
v 2.0 14.0 2.7412052154541016
v 2.0 14.0 6.0
v 2.0 0.0 6.0
v 2.0 0.0 4.062019348144531
v 2.0 14.0 6.0
v 2.0 14.0 2.7412052154541016
v -1.5 14.0 2.7412052154541016
v -1.5 14.0 6.0
v 2.0 6.0 2.7412052154541016
v 2.0 6.0 0.0
v 2.0 0.0 0.0
v 2.0 0.0 2.7412052154541016
v 2.0 6.0 2.7412052154541016
v 2.0 0.0 2.7412052154541016
v -1.5 0.0 2.7412052154541016
v -1.5 6.0 2.7412052154541016
v -1.5 14.0 2.7412052154541016
v 2.0 14.0 2.7412052154541016
v -1.5 6.0 0.0
v -1.5 6.0 2.7412052154541016
v -1.5 0.0 2.7412052154541016
v -1.5 0.0 0.0
v 2.0 6.0 0.0
v -1.5 6.0 0.0
v -1.5 0.0 0.0
v 2.0 0.0 0.0
v -1.5 6.0 -4.27200174331665
v -1.5 0.0 -4.27200174331665
v -2.0403406620025635 0.0 -4.041906833648682
v -2.5463528633117676 0.0 -3.7438066005706787
v -3.0095226764678955 0.0 -3.3827168941497803
v -3.4220571517944336 0.0 -2.9647133350372314
v -3.7770156860351562 0.0 -2.496828317642212
v -4.068426132202148 0.0 -1.9869343042373657
v -4.291385650634766 0.0 -1.4436101913452148
v -4.442142486572266 0.0 -0.8759974241256714
v -4.518160343170166 0.0 -0.2936460077762604
v -4.518160343170166 0.0 0.2936460077762604
v -4.442142486572266 0.0 0.8759974241256714
v -4.291385650634766 0.0 1.4436101913452148
v -4.068426132202148 0.0 1.9869343042373657
v -3.7770156860351562 0.0 2.496828317642212
v -3.4220571517944336 0.0 2.9647133350372314
v -3.0095226764678955 0.0 3.3827168941497803
v -2.5463528633117676 0.0 3.7438066005706787
v -2.0403406620025635 0.0 4.041906833648682
v -1.5 0.0 4.27200174331665
v -1.5 6.0 4.27200174331665
v -2.0403406620025635 6.0 4.041906833648682
v -2.5463528633117676 6.0 3.7438066005706787
v -3.0095226764678955 6.0 3.3827168941497803
v -3.4220571517944336 6.0 2.9647133350372314
v -3.7770156860351562 6.0 2.496828317642212
v -4.068426132202148 6.0 1.9869343042373657
v -4.291385650634766 6.0 1.4436101913452148
v -4.442142486572266 6.0 0.8759974241256714
v -4.518160343170166 6.0 0.2936460077762604
v -4.518160343170166 6.0 -0.2936460077762604
v -4.442142486572266 6.0 -0.8759974241256714
v -4.291385650634766 6.0 -1.4436101913452148
v -4.068426132202148 6.0 -1.9869343042373657
v -3.7770156860351562 6.0 -2.496828317642212
v -3.4220571517944336 6.0 -2.9647133350372314
v -3.0095226764678955 6.0 -3.3827168941497803
v -2.5463528633117676 6.0 -3.7438066005706787
v -2.0403406620025635 6.0 -4.041906833648682
vn -0.0 -0.0 -1.0
vn -0.0 -0.0 -1.0
vn -0.0 -0.0 -1.0
vn -0.0 -0.0 -1.0
vn -1.0 -0.0 0.0
vn -1.0 -0.0 0.0
vn -1.0 -0.0 0.0
vn -1.0 -0.0 0.0
vn 1.0 0.0 0.0
vn 1.0 0.0 0.0
vn 1.0 0.0 0.0
vn 1.0 0.0 0.0
vn -0.0 -1.0 -0.0
vn -0.0 -1.0 -0.0
vn -0.0 -1.0 -0.0
vn -0.0 -1.0 -0.0
vn -0.0 -1.0 -0.0
vn -0.0 -1.0 -0.0
vn -0.0 -1.0 -0.0
vn -0.0 -1.0 -0.0
vn -0.0 -1.0 -0.0
vn -0.0 -1.0 -0.0
vn -0.0 -1.0 -0.0
vn -0.0 -1.0 -0.0
vn -0.0 -1.0 -0.0
vn -0.0 -1.0 -0.0
vn -0.0 -1.0 -0.0
vn -0.0 -1.0 -0.0
vn -0.0 -1.0 -0.0
vn -0.0 -1.0 -0.0
vn -0.0 -1.0 -0.0
vn -0.0 -1.0 -0.0
vn -0.0 -1.0 -0.0
vn -0.0 -1.0 -0.0
vn -0.0 -1.0 -0.0
vn -0.0 -1.0 -0.0
vn -0.0 -1.0 -0.0
vn -0.0 -1.0 -0.0
vn -0.0 -1.0 -0.0
vn -0.0 -1.0 -0.0
vn -0.0 -1.0 -0.0
vn -0.0 -1.0 -0.0
vn -0.0 -1.0 -0.0
vn -0.0 -1.0 -0.0
vn -0.0 -1.0 -0.0
vn -0.0 -1.0 -0.0
vn -0.0 -1.0 -0.0
vn -0.0 -1.0 -0.0
vn -0.0 -1.0 -0.0
vn -0.0 -1.0 -0.0
vn -0.0 -1.0 -0.0
vn -0.0 -1.0 -0.0
vn -0.0 -1.0 -0.0
vn -0.0 -1.0 -0.0
vn -0.0 -1.0 -0.0
vn -0.0 -1.0 -0.0
vn -0.0 -1.0 -0.0
vn -0.0 -1.0 -0.0
vn -0.0 -1.0 -0.0
vn 0.44172611832618713 -0.0 -0.8971499800682068
vn 0.44172611832618713 -0.0 -0.8971499800682068
vn 0.5490431189537048 -0.0 -0.8357940316200256
vn 0.6479699015617371 -0.0 -0.761665940284729
vn 0.7369948029518127 -0.0 -0.6758984327316284
vn 0.8147572875022888 -0.0 -0.5798021554946899
vn 0.8800690770149231 -0.0 -0.4748457074165344
vn 0.9319320917129517 -0.0 -0.3626328706741333
vn 0.9695537686347961 -0.0 -0.24487847089767456
vn 0.9923592805862427 -0.0 -0.12338196486234665
vn 1.0 -0.0 -2.4492937051703357e-16
vn 0.9923592805862427 -0.0 0.12338196486234665
vn 0.9695537686347961 -0.0 0.24487847089767456
vn 0.9319320917129517 -0.0 0.3626328706741333
vn 0.8800690770149231 -0.0 0.4748457074165344
vn 0.8147572875022888 -0.0 0.5798021554946899
vn 0.7369948029518127 -0.0 0.6758984327316284
vn 0.6479699015617371 -0.0 0.761665940284729
vn 0.5490431189537048 -0.0 0.8357940316200256
vn 0.44172611832618713 -0.0 0.8971499800682068
vn 0.44172611832618713 -0.0 0.8971499800682068
vn 0.5490431189537048 -0.0 0.8357940316200256
vn 0.6479699015617371 -0.0 0.761665940284729
vn 0.7369948029518127 -0.0 0.6758984327316284
vn 0.8147572875022888 -0.0 0.5798021554946899
vn 0.8800690770149231 -0.0 0.4748457074165344
vn 0.9319320917129517 -0.0 0.3626328706741333
vn 0.9695537686347961 -0.0 0.24487847089767456
vn 0.9923592805862427 -0.0 0.12338196486234665
vn 1.0 -0.0 -2.4492937051703357e-16
vn 0.9923592805862427 -0.0 -0.12338196486234665
vn 0.9695537686347961 -0.0 -0.24487847089767456
vn 0.9319320917129517 -0.0 -0.3626328706741333
vn 0.8800690770149231 -0.0 -0.4748457074165344
vn 0.8147572875022888 -0.0 -0.5798021554946899
vn 0.7369948029518127 -0.0 -0.6758984327316284
vn 0.6479699015617371 -0.0 -0.761665940284729
vn 0.5490431189537048 -0.0 -0.8357940316200256
vn 0.0 1.0 0.0
vn 0.0 1.0 0.0
vn 0.0 1.0 0.0
vn 0.0 1.0 0.0
vn 0.0 1.0 0.0
vn 0.0 1.0 0.0
vn 0.0 1.0 0.0
vn 0.0 1.0 0.0
vn 0.0 1.0 0.0
vn 0.0 1.0 0.0
vn 0.0 1.0 0.0
vn 0.0 1.0 0.0
vn 0.0 1.0 0.0
vn 0.0 1.0 0.0
vn 0.0 1.0 0.0
vn 0.0 1.0 0.0
vn 0.0 1.0 0.0
vn 0.0 1.0 0.0
vn 0.0 1.0 0.0
vn 0.0 1.0 0.0
vn 0.0 1.0 0.0
vn 0.0 1.0 0.0
vn 0.0 1.0 0.0
vn 0.0 1.0 0.0
vn 0.0 1.0 0.0
vn 0.0 1.0 0.0
vn 0.0 1.0 0.0
vn 0.0 1.0 0.0
vn 0.0 1.0 0.0
vn 0.0 1.0 0.0
vn 0.0 1.0 0.0
vn 0.0 1.0 0.0
vn 0.0 1.0 0.0
vn 0.0 1.0 0.0
vn 0.0 1.0 0.0
vn 0.0 1.0 0.0
vn 0.0 1.0 0.0
vn 0.0 1.0 0.0
vn 0.0 1.0 0.0
vn 0.0 1.0 0.0
vn 0.0 1.0 0.0
vn 0.0 1.0 0.0
vn 0.0 1.0 0.0
vn 0.0 1.0 0.0
vn 0.0 1.0 0.0
vn -1.0 0.0 0.0
vn -1.0 0.0 0.0
vn -1.0 0.0 0.0
vn -1.0 0.0 0.0
vn -1.0 0.0 0.0
vn -1.0 0.0 0.0
vn 0.0 -0.0 1.0
vn 0.0 -0.0 1.0
vn 0.0 -0.0 1.0
vn 0.0 -0.0 1.0
vn 1.0 0.0 0.0
vn 1.0 0.0 0.0
vn 1.0 0.0 0.0
vn 1.0 0.0 0.0
vn 1.0 0.0 0.0
vn 1.0 0.0 0.0
vn 0.0 1.0 0.0
vn 0.0 1.0 0.0
vn 0.0 1.0 0.0
vn 0.0 1.0 0.0
vn -1.0 -0.0 -0.0
vn -1.0 -0.0 -0.0
vn -1.0 -0.0 -0.0
vn -1.0 -0.0 -0.0
vn -0.0 0.0 -1.0
vn -0.0 0.0 -1.0
vn -0.0 0.0 -1.0
vn -0.0 0.0 -1.0
vn -0.0 0.0 -1.0
vn -0.0 0.0 -1.0
vn 1.0 -0.0 -0.0
vn 1.0 -0.0 -0.0
vn 1.0 -0.0 -0.0
vn 1.0 -0.0 -0.0
vn -0.0 -0.0 1.0
vn -0.0 -0.0 1.0
vn -0.0 -0.0 1.0
vn -0.0 -0.0 1.0
vn -0.33129456639289856 0.0 -0.9435274004936218
vn -0.33129456639289856 0.0 -0.9435274004936218
vn -0.4506358802318573 0.0 -0.8927078247070312
vn -0.5623952746391296 0.0 -0.8268685340881348
vn -0.6646923422813416 0.0 -0.7471171617507935
vn -0.7558059692382812 0.0 -0.6547955870628357
vn -0.8342032432556152 0.0 -0.5514571070671082
vn -0.8985650539398193 0.0 -0.438840389251709
vn -0.9478085041046143 0.0 -0.3188401758670807
vn -0.9811050891876221 0.0 -0.19347546994686127
vn -0.9978946447372437 0.0 -0.06485555320978165
vn -0.9978946447372437 -0.0 0.06485555320978165
vn -0.9811050891876221 -0.0 0.19347546994686127
vn -0.9478085041046143 -0.0 0.3188401758670807
vn -0.8985650539398193 -0.0 0.438840389251709
vn -0.8342032432556152 -0.0 0.5514571070671082
vn -0.7558059692382812 -0.0 0.6547955870628357
vn -0.6646923422813416 -0.0 0.7471171617507935
vn -0.5623952746391296 -0.0 0.8268685340881348
vn -0.4506358802318573 -0.0 0.8927078247070312
vn -0.33129456639289856 -0.0 0.9435274004936218
vn -0.33129456639289856 -0.0 0.9435274004936218
vn -0.4506358802318573 -0.0 0.8927078247070312
vn -0.5623952746391296 -0.0 0.8268685340881348
vn -0.6646923422813416 -0.0 0.7471171617507935
vn -0.7558059692382812 -0.0 0.6547955870628357
vn -0.8342032432556152 -0.0 0.5514571070671082
vn -0.8985650539398193 -0.0 0.438840389251709
vn -0.9478085041046143 -0.0 0.3188401758670807
vn -0.9811050891876221 -0.0 0.19347546994686127
vn -0.9978946447372437 -0.0 0.06485555320978165
vn -0.9978946447372437 0.0 -0.06485555320978165
vn -0.9811050891876221 0.0 -0.19347546994686127
vn -0.9478085041046143 0.0 -0.3188401758670807
vn -0.8985650539398193 0.0 -0.438840389251709
vn -0.8342032432556152 0.0 -0.5514571070671082
vn -0.7558059692382812 0.0 -0.6547955870628357
vn -0.6646923422813416 0.0 -0.7471171617507935
vn -0.5623952746391296 0.0 -0.8268685340881348
vn -0.4506358802318573 0.0 -0.8927078247070312
g 6a500e7e-e2f4-11ea-9438-54bf646e7e1f
f 1//1 2//2 4//4
f 4//4 2//2 3//3
g 6a50aac0-e2f4-11ea-91e7-54bf646e7e1f
f 5//5 6//6 8//8
f 8//8 6//6 7//7
g 6a511fe4-e2f4-11ea-90ce-54bf646e7e1f
f 9//9 10//10 12//12
f 12//12 10//10 11//11
g 69d6992c-e2f4-11ea-8c6b-54bf646e7e1f
f 14//14 38//38 13//13
f 13//13 38//38 41//41
f 13//13 41//41 42//42
f 15//15 33//33 14//14
f 14//14 33//33 34//34
f 14//14 34//34 35//35
f 16//16 19//19 15//15
f 15//15 19//19 26//26
f 15//15 26//26 27//27
f 13//13 46//46 16//16
f 16//16 46//46 47//47
f 16//16 47//47 48//48
f 17//17 18//18 59//59
f 59//59 18//18 58//58
f 58//58 18//18 57//57
f 57//57 18//18 56//56
f 56//56 18//18 55//55
f 55//55 18//18 54//54
f 54//54 18//18 16//16
f 54//54 16//16 53//53
f 53//53 16//16 52//52
f 52//52 16//16 51//51
f 51//51 16//16 50//50
f 50//50 16//16 49//49
f 49//49 16//16 48//48
f 18//18 19//19 16//16
f 20//20 21//21 19//19
f 19//19 21//21 22//22
f 19//19 22//22 23//23
f 23//23 24//24 19//19
f 19//19 24//24 25//25
f 19//19 25//25 26//26
f 27//27 28//28 15//15
f 15//15 28//28 29//29
f 15//15 29//29 30//30
f 30//30 31//31 15//15
f 15//15 31//31 32//32
f 15//15 32//32 33//33
f 35//35 36//36 14//14
f 14//14 36//36 37//37
f 14//14 37//37 38//38
f 38//38 39//39 41//41
f 41//41 39//39 40//40
f 42//42 43//43 13//13
f 13//13 43//43 44//44
f 13//13 44//44 45//45
f 45//45 46//46 13//13
g 69d62400-e2f4-11ea-be60-54bf646e7e1f
f 60//60 61//61 97//97
f 97//97 61//61 62//62
f 97//97 62//62 96//96
f 96//96 62//62 63//63
f 96//96 63//63 95//95
f 95//95 63//63 64//64
f 95//95 64//64 94//94
f 94//94 64//64 65//65
f 94//94 65//65 93//93
f 93//93 65//65 66//66
f 93//93 66//66 92//92
f 92//92 66//66 67//67
f 92//92 67//67 91//91
f 91//91 67//67 68//68
f 91//91 68//68 90//90
f 90//90 68//68 69//69
f 90//90 69//69 89//89
f 89//89 69//69 70//70
f 89//89 70//70 88//88
f 88//88 70//70 71//71
f 88//88 71//71 87//87
f 87//87 71//71 72//72
f 87//87 72//72 86//86
f 86//86 72//72 73//73
f 86//86 73//73 85//85
f 85//85 73//73 74//74
f 85//85 74//74 84//84
f 84//84 74//74 75//75
f 84//84 75//75 83//83
f 83//83 75//75 76//76
f 83//83 76//76 82//82
f 82//82 76//76 77//77
f 82//82 77//77 81//81
f 81//81 77//77 78//78
f 81//81 78//78 80//80
f 80//80 78//78 79//79
g 69d64b10-e2f4-11ea-b8ab-54bf646e7e1f
f 98//98 99//99 142//142
f 142//142 99//99 141//141
f 141//141 99//99 140//140
f 140//140 99//99 139//139
f 139//139 99//99 138//138
f 138//138 99//99 137//137
f 137//137 99//99 123//123
f 137//137 123//123 136//136
f 136//136 123//123 135//135
f 135//135 123//123 134//134
f 134//134 123//123 133//133
f 133//133 123//123 132//132
f 132//132 123//123 131//131
f 131//131 123//123 130//130
f 130//130 123//123 124//124
f 130//130 124//124 129//129
f 129//129 124//124 128//128
f 128//128 124//124 127//127
f 127//127 124//124 126//126
f 126//126 124//124 125//125
f 99//99 100//100 123//123
f 123//123 100//100 122//122
f 122//122 100//100 108//108
f 122//122 108//108 109//109
f 101//101 102//102 100//100
f 100//100 102//102 103//103
f 100//100 103//103 104//104
f 104//104 105//105 100//100
f 100//100 105//105 106//106
f 100//100 106//106 107//107
f 107//107 108//108 100//100
f 109//109 110//110 122//122
f 122//122 110//110 111//111
f 122//122 111//111 112//112
f 112//112 113//113 122//122
f 122//122 113//113 114//114
f 122//122 114//114 121//121
f 121//121 114//114 115//115
f 121//121 115//115 116//116
f 116//116 117//117 121//121
f 121//121 117//117 118//118
f 121//121 118//118 119//119
f 119//119 120//120 121//121
g 6a1e7754-e2f4-11ea-b686-54bf646e7e1f
f 143//143 144//144 148//148
f 148//148 144//144 147//147
f 147//147 144//144 146//146
f 146//146 144//144 145//145
g 6a1f13b8-e2f4-11ea-b414-54bf646e7e1f
f 149//149 150//150 152//152
f 152//152 150//150 151//151
g 6a1f61c0-e2f4-11ea-815d-54bf646e7e1f
f 154//154 155//155 153//153
f 153//153 155//155 156//156
f 153//153 156//156 157//157
f 157//157 158//158 153//153
g 6a1fd6f4-e2f4-11ea-b7cf-54bf646e7e1f
f 159//159 160//160 162//162
f 162//162 160//160 161//161
g 69fbd45c-e2f4-11ea-92f6-54bf646e7e1f
f 163//163 164//164 166//166
f 166//166 164//164 165//165
g 69fc4986-e2f4-11ea-aa40-54bf646e7e1f
f 168//168 169//169 167//167
f 167//167 169//169 170//170
f 167//167 170//170 172//172
f 172//172 170//170 171//171
g 69fc97a6-e2f4-11ea-a03b-54bf646e7e1f
f 173//173 174//174 176//176
f 176//176 174//174 175//175
g 69fce5cc-e2f4-11ea-a32d-54bf646e7e1f
f 177//177 178//178 180//180
f 180//180 178//178 179//179
g c65c685f-531c-3cc6-bdd4-7a6d3b2f65a0
f 181//181 182//182 220//220
f 220//220 182//182 183//183
f 220//220 183//183 219//219
f 219//219 183//183 184//184
f 219//219 184//184 218//218
f 218//218 184//184 185//185
f 218//218 185//185 217//217
f 217//217 185//185 186//186
f 217//217 186//186 216//216
f 216//216 186//186 187//187
f 216//216 187//187 215//215
f 215//215 187//187 188//188
f 215//215 188//188 214//214
f 214//214 188//188 189//189
f 214//214 189//189 213//213
f 213//213 189//189 190//190
f 213//213 190//190 212//212
f 212//212 190//190 191//191
f 212//212 191//191 211//211
f 211//211 191//191 192//192
f 211//211 192//192 210//210
f 210//210 192//192 193//193
f 210//210 193//193 209//209
f 209//209 193//193 194//194
f 209//209 194//194 208//208
f 208//208 194//194 195//195
f 208//208 195//195 207//207
f 207//207 195//195 196//196
f 207//207 196//196 206//206
f 206//206 196//196 197//197
f 206//206 197//197 205//205
f 205//205 197//197 198//198
f 205//205 198//198 204//204
f 204//204 198//198 199//199
f 204//204 199//199 203//203
f 203//203 199//199 200//200
f 203//203 200//200 202//202
f 202//202 200//200 201//201

# End of file