# WaveFront *.obj file
# Vertices: 72
# Triangles : 44

v 1.2944015264511108 1.0 1.2801350355148315
v 1.2944015264511108 1.0 4.7344651222229
v 1.2944015264511108 4.0 4.7344651222229
v 1.2944015264511108 4.0 1.2801350355148315
v 7.175327301025391 1.0 1.2801350355148315
v 1.2944015264511108 1.0 1.2801350355148315
v 1.2944015264511108 4.0 1.2801350355148315
v 7.175327301025391 4.0 1.2801350355148315
v 7.175327301025391 1.0 4.7344651222229
v 7.175327301025391 1.0 1.2801350355148315
v 7.175327301025391 4.0 1.2801350355148315
v 7.175327301025391 4.0 4.7344651222229
v 1.2944015264511108 1.0 4.7344651222229
v 7.175327301025391 1.0 4.7344651222229
v 7.175327301025391 4.0 4.7344651222229
v 1.2944015264511108 4.0 4.7344651222229
v 1.2944015264511108 4.0 4.7344651222229
v 7.175327301025391 4.0 4.7344651222229
v 7.175327301025391 4.0 1.2801350355148315
v 1.2944015264511108 4.0 1.2801350355148315
v 7.504785537719727 8.0 5.0
v 7.504785537719727 8.0 1.0
v 7.504785537719727 1.0 1.0
v 7.504785537719727 1.0 5.0
v 7.504785537719727 8.0 1.0
v 1.0 8.0 1.0
v 1.0 1.0 1.0
v 7.504785537719727 1.0 1.0
v 1.0 8.0 1.0
v 1.0 8.0 5.0
v 1.0 1.0 5.0
v 1.0 1.0 1.0
v 1.2944015264511108 1.0 4.7344651222229
v 1.2944015264511108 1.0 1.2801350355148315
v 7.175327301025391 1.0 1.2801350355148315
v 7.175327301025391 1.0 4.7344651222229
v 1.0 1.0 5.0
v 7.504785537719727 1.0 5.0
v 7.504785537719727 1.0 1.0
v 1.0 1.0 1.0
v 7.504785537719727 8.0 5.0
v 7.504785537719727 1.0 5.0
v 1.0 1.0 5.0
v 1.0 8.0 5.0
v 0.0 8.0 5.0
v 0.0 0.0 5.0
v 8.5 0.0 5.0
v 8.5 8.0 5.0
v 0.0 0.0 0.0
v 0.0 0.0 5.0
v 0.0 8.0 5.0
v 0.0 8.0 0.0
v 8.5 0.0 0.0
v 0.0 0.0 0.0
v 0.0 8.0 0.0
v 8.5 8.0 0.0
v 8.5 0.0 5.0
v 8.5 0.0 0.0
v 8.5 8.0 0.0
v 8.5 8.0 5.0
v 7.504785537719727 8.0 1.0
v 7.504785537719727 8.0 5.0
v 8.5 8.0 5.0
v 8.5 8.0 0.0
v 0.0 8.0 0.0
v 0.0 8.0 5.0
v 1.0 8.0 5.0
v 1.0 8.0 1.0
v 8.5 0.0 5.0
v 0.0 0.0 5.0
v 0.0 0.0 0.0
v 8.5 0.0 0.0
vn -1.0 0.0 0.0
vn -1.0 0.0 0.0
vn -1.0 0.0 0.0
vn -1.0 0.0 0.0
vn 0.0 0.0 -1.0
vn 0.0 0.0 -1.0
vn 0.0 0.0 -1.0
vn 0.0 0.0 -1.0
vn 1.0 0.0 0.0
vn 1.0 0.0 0.0
vn 1.0 0.0 0.0
vn 1.0 0.0 0.0
vn 0.0 -0.0 1.0
vn 0.0 -0.0 1.0
vn 0.0 -0.0 1.0
vn 0.0 -0.0 1.0
vn 0.0 1.0 0.0
vn 0.0 1.0 0.0
vn 0.0 1.0 0.0
vn 0.0 1.0 0.0
vn -1.0 -0.0 0.0
vn -1.0 -0.0 0.0
vn -1.0 -0.0 0.0
vn -1.0 -0.0 0.0
vn -0.0 -0.0 1.0
vn -0.0 -0.0 1.0
vn -0.0 -0.0 1.0
vn -0.0 -0.0 1.0
vn 1.0 0.0 0.0
vn 1.0 0.0 0.0
vn 1.0 0.0 0.0
vn 1.0 0.0 0.0
vn -0.0 1.0 -0.0
vn -0.0 1.0 -0.0
vn -0.0 1.0 -0.0
vn -0.0 1.0 -0.0
vn -0.0 1.0 -0.0
vn -0.0 1.0 -0.0
vn -0.0 1.0 -0.0
vn -0.0 1.0 -0.0
vn 0.0 -0.0 1.0
vn 0.0 -0.0 1.0
vn 0.0 -0.0 1.0
vn 0.0 -0.0 1.0
vn 0.0 -0.0 1.0
vn 0.0 -0.0 1.0
vn 0.0 -0.0 1.0
vn 0.0 -0.0 1.0
vn -1.0 0.0 0.0
vn -1.0 0.0 0.0
vn -1.0 0.0 0.0
vn -1.0 0.0 0.0
vn 0.0 0.0 -1.0
vn 0.0 0.0 -1.0
vn 0.0 0.0 -1.0
vn 0.0 0.0 -1.0
vn 1.0 0.0 0.0
vn 1.0 0.0 0.0
vn 1.0 0.0 0.0
vn 1.0 0.0 0.0
vn 0.0 1.0 0.0
vn 0.0 1.0 0.0
vn 0.0 1.0 0.0
vn 0.0 1.0 0.0
vn 0.0 1.0 0.0
vn 0.0 1.0 0.0
vn 0.0 1.0 0.0
vn 0.0 1.0 0.0
vn -0.0 -1.0 -0.0
vn -0.0 -1.0 -0.0
vn -0.0 -1.0 -0.0
vn -0.0 -1.0 -0.0
g bf010926-e2f7-11ea-bf97-54bf646e7e1f
f 1//1 2//2 4//4
f 4//4 2//2 3//3
g bf017e64-e2f7-11ea-9aaf-54bf646e7e1f
f 5//5 6//6 8//8
f 8//8 6//6 7//7
g bf01cc70-e2f7-11ea-ad43-54bf646e7e1f
f 9//9 10//10 12//12
f 12//12 10//10 11//11
g bf02419c-e2f7-11ea-9782-54bf646e7e1f
f 13//13 14//14 16//16
f 16//16 14//14 15//15
g bf02b6ca-e2f7-11ea-a7da-54bf646e7e1f
f 18//18 19//19 17//17
f 17//17 19//19 20//20
g bed8c0d2-e2f7-11ea-9b17-54bf646e7e1f
f 21//21 22//22 24//24
f 24//24 22//22 23//23
g bed935f0-e2f7-11ea-8fc3-54bf646e7e1f
f 25//25 26//26 28//28
f 28//28 26//26 27//27
g bed95d12-e2f7-11ea-9d16-54bf646e7e1f
f 29//29 30//30 32//32
f 32//32 30//30 31//31
g bed9ab24-e2f7-11ea-816d-54bf646e7e1f
f 36//36 33//33 37//37
f 37//37 33//33 34//34
f 37//37 34//34 40//40
f 40//40 34//34 35//35
f 40//40 35//35 39//39
f 39//39 35//35 38//38
f 38//38 35//35 36//36
f 38//38 36//36 37//37
g bea973b8-e2f7-11ea-972e-54bf646e7e1f
f 41//41 42//42 48//48
f 48//48 42//42 47//47
f 47//47 42//42 43//43
f 47//47 43//43 46//46
f 46//46 43//43 45//45
f 45//45 43//43 44//44
g bea88958-e2f7-11ea-9a9a-54bf646e7e1f
f 49//49 50//50 52//52
f 52//52 50//50 51//51
g bea8d774-e2f7-11ea-9bbf-54bf646e7e1f
f 53//53 54//54 56//56
f 56//56 54//54 55//55
g bea92592-e2f7-11ea-8815-54bf646e7e1f
f 57//57 58//58 60//60
f 60//60 58//58 59//59
g beab4874-e2f7-11ea-a2fc-54bf646e7e1f
f 62//62 63//63 61//61
f 61//61 63//63 64//64
f 61//61 64//64 68//68
f 68//68 64//64 65//65
f 68//68 65//65 66//66
f 66//66 67//67 68//68
g beab968c-e2f7-11ea-a56d-54bf646e7e1f
f 69//69 70//70 72//72
f 72//72 70//70 71//71

# End of file