# WaveFront *.obj file
# Vertices: 144
# Triangles : 92

v 5.0 2.5 3.5
v 10.5 2.5 3.5
v 10.5 2.5 0.5
v 5.0 2.5 0.5
v 10.5 2.0 3.5
v 0.5 2.0 3.5
v 0.5 2.0 0.5
v 10.5 2.0 0.5
v 6.5 6.5 3.5
v 10.5 6.5 3.5
v 10.5 6.5 0.5
v 6.5 6.5 0.5
v 6.0 10.5 3.5
v 0.5 10.5 3.5
v 0.5 10.5 0.5
v 6.0 10.5 0.5
v 10.5 0.5 3.5
v 10.5 2.0 3.5
v 10.5 2.0 0.5
v 10.5 0.5 0.5
v 0.5 2.5 3.5
v 4.5 2.5 3.5
v 4.5 2.5 0.5
v 0.5 2.5 0.5
v 6.0 6.5 3.5
v 6.0 10.5 3.5
v 6.0 10.5 0.5
v 6.0 6.5 0.5
v 10.5 2.5 3.5
v 10.5 6.0 3.5
v 10.5 6.0 0.5
v 10.5 2.5 0.5
v 10.5 6.5 3.5
v 10.5 10.5 3.5
v 10.5 10.5 0.5
v 10.5 6.5 0.5
v 4.5 2.5 3.5
v 4.5 6.0 3.5
v 4.5 6.0 0.5
v 4.5 2.5 0.5
v 11.0 0.0 3.5
v 0.0 0.0 3.5
v 0.0 0.0 0.0
v 11.0 0.0 0.0
v 4.5 6.0 3.5
v 4.5 2.5 3.5
v 0.5 2.5 3.5
v 0.5 6.0 3.5
v 10.5 10.5 3.5
v 10.5 6.5 3.5
v 6.5 6.5 3.5
v 6.5 10.5 3.5
v 10.5 6.0 3.5
v 10.5 2.5 3.5
v 5.0 2.5 3.5
v 5.0 6.0 3.5
v 6.0 10.5 3.5
v 6.0 6.5 3.5
v 0.5 6.5 3.5
v 0.5 10.5 3.5
v 10.5 2.0 3.5
v 10.5 0.5 3.5
v 0.5 0.5 3.5
v 0.5 2.0 3.5
v 0.0 0.0 3.5
v 11.0 0.0 3.5
v 11.0 11.0 3.5
v 0.0 11.0 3.5
v 11.0 0.0 3.5
v 11.0 0.0 0.0
v 11.0 11.0 0.0
v 11.0 11.0 3.5
v 0.0 0.0 0.0
v 0.0 0.0 3.5
v 0.0 11.0 3.5
v 0.0 11.0 0.0
v 0.5 2.5 0.5
v 4.5 2.5 0.5
v 4.5 6.0 0.5
v 0.5 6.0 0.5
v 5.0 2.5 0.5
v 10.5 2.5 0.5
v 10.5 6.0 0.5
v 5.0 6.0 0.5
v 6.5 6.5 0.5
v 10.5 6.5 0.5
v 10.5 10.5 0.5
v 6.5 10.5 0.5
v 0.5 6.0 3.5
v 0.5 2.5 3.5
v 0.5 2.5 0.5
v 0.5 6.0 0.5
v 5.0 6.0 3.5
v 5.0 2.5 3.5
v 5.0 2.5 0.5
v 5.0 6.0 0.5
v 6.5 10.5 3.5
v 6.5 6.5 3.5
v 6.5 6.5 0.5
v 6.5 10.5 0.5
v 10.5 6.0 3.5
v 5.0 6.0 3.5
v 5.0 6.0 0.5
v 10.5 6.0 0.5
v 4.5 6.0 3.5
v 0.5 6.0 3.5
v 0.5 6.0 0.5
v 4.5 6.0 0.5
v 0.5 6.5 0.5
v 6.0 6.5 0.5
v 6.0 10.5 0.5
v 0.5 10.5 0.5
v 10.5 10.5 3.5
v 6.5 10.5 3.5
v 6.5 10.5 0.5
v 10.5 10.5 0.5
v 0.5 6.5 3.5
v 6.0 6.5 3.5
v 6.0 6.5 0.5
v 0.5 6.5 0.5
v 0.5 10.5 3.5
v 0.5 6.5 3.5
v 0.5 6.5 0.5
v 0.5 10.5 0.5
v 0.5 0.5 0.5
v 10.5 0.5 0.5
v 10.5 2.0 0.5
v 0.5 2.0 0.5
v 0.5 0.5 3.5
v 10.5 0.5 3.5
v 10.5 0.5 0.5
v 0.5 0.5 0.5
v 0.5 2.0 3.5
v 0.5 0.5 3.5
v 0.5 0.5 0.5
v 0.5 2.0 0.5
v 11.0 0.0 0.0
v 0.0 0.0 0.0
v 0.0 11.0 0.0
v 11.0 11.0 0.0
v 0.0 11.0 3.5
v 11.0 11.0 3.5
v 11.0 11.0 0.0
v 0.0 11.0 0.0
vn 0.0 1.0 0.0
vn 0.0 1.0 0.0
vn 0.0 1.0 0.0
vn 0.0 1.0 0.0
vn 0.0 -1.0 -0.0
vn 0.0 -1.0 -0.0
vn 0.0 -1.0 -0.0
vn 0.0 -1.0 -0.0
vn 0.0 1.0 0.0
vn 0.0 1.0 0.0
vn 0.0 1.0 0.0
vn 0.0 1.0 0.0
vn 0.0 -1.0 -0.0
vn 0.0 -1.0 -0.0
vn 0.0 -1.0 -0.0
vn 0.0 -1.0 -0.0
vn -1.0 -0.0 -0.0
vn -1.0 -0.0 -0.0
vn -1.0 -0.0 -0.0
vn -1.0 -0.0 -0.0
vn 0.0 1.0 0.0
vn 0.0 1.0 0.0
vn 0.0 1.0 0.0
vn 0.0 1.0 0.0
vn -1.0 -0.0 -0.0
vn -1.0 -0.0 -0.0
vn -1.0 -0.0 -0.0
vn -1.0 -0.0 -0.0
vn -1.0 -0.0 -0.0
vn -1.0 -0.0 -0.0
vn -1.0 -0.0 -0.0
vn -1.0 -0.0 -0.0
vn -1.0 -0.0 -0.0
vn -1.0 -0.0 -0.0
vn -1.0 -0.0 -0.0
vn -1.0 -0.0 -0.0
vn -1.0 -0.0 -0.0
vn -1.0 -0.0 -0.0
vn -1.0 -0.0 -0.0
vn -1.0 -0.0 -0.0
vn -0.0 -1.0 -0.0
vn -0.0 -1.0 -0.0
vn -0.0 -1.0 -0.0
vn -0.0 -1.0 -0.0
vn 0.0 -0.0 1.0
vn 0.0 -0.0 1.0
vn 0.0 -0.0 1.0
vn 0.0 -0.0 1.0
vn 0.0 -0.0 1.0
vn 0.0 -0.0 1.0
vn 0.0 -0.0 1.0
vn 0.0 -0.0 1.0
vn 0.0 -0.0 1.0
vn 0.0 -0.0 1.0
vn 0.0 -0.0 1.0
vn 0.0 -0.0 1.0
vn 0.0 -0.0 1.0
vn 0.0 -0.0 1.0
vn 0.0 -0.0 1.0
vn 0.0 -0.0 1.0
vn 0.0 -0.0 1.0
vn 0.0 -0.0 1.0
vn 0.0 -0.0 1.0
vn 0.0 -0.0 1.0
vn 0.0 -0.0 1.0
vn 0.0 -0.0 1.0
vn 0.0 -0.0 1.0
vn 0.0 -0.0 1.0
vn 1.0 0.0 0.0
vn 1.0 0.0 0.0
vn 1.0 0.0 0.0
vn 1.0 0.0 0.0
vn -1.0 0.0 0.0
vn -1.0 0.0 0.0
vn -1.0 0.0 0.0
vn -1.0 0.0 0.0
vn -0.0 -0.0 1.0
vn -0.0 -0.0 1.0
vn -0.0 -0.0 1.0
vn -0.0 -0.0 1.0
vn -0.0 -0.0 1.0
vn -0.0 -0.0 1.0
vn -0.0 -0.0 1.0
vn -0.0 -0.0 1.0
vn -0.0 -0.0 1.0
vn -0.0 -0.0 1.0
vn -0.0 -0.0 1.0
vn -0.0 -0.0 1.0
vn 1.0 -0.0 -0.0
vn 1.0 -0.0 -0.0
vn 1.0 -0.0 -0.0
vn 1.0 -0.0 -0.0
vn 1.0 -0.0 -0.0
vn 1.0 -0.0 -0.0
vn 1.0 -0.0 -0.0
vn 1.0 -0.0 -0.0
vn 1.0 -0.0 -0.0
vn 1.0 -0.0 -0.0
vn 1.0 -0.0 -0.0
vn 1.0 -0.0 -0.0
vn 0.0 -1.0 -0.0
vn 0.0 -1.0 -0.0
vn 0.0 -1.0 -0.0
vn 0.0 -1.0 -0.0
vn 0.0 -1.0 -0.0
vn 0.0 -1.0 -0.0
vn 0.0 -1.0 -0.0
vn 0.0 -1.0 -0.0
vn -0.0 -0.0 1.0
vn -0.0 -0.0 1.0
vn -0.0 -0.0 1.0
vn -0.0 -0.0 1.0
vn 0.0 -1.0 -0.0
vn 0.0 -1.0 -0.0
vn 0.0 -1.0 -0.0
vn 0.0 -1.0 -0.0
vn 0.0 1.0 0.0
vn 0.0 1.0 0.0
vn 0.0 1.0 0.0
vn 0.0 1.0 0.0
vn 1.0 -0.0 -0.0
vn 1.0 -0.0 -0.0
vn 1.0 -0.0 -0.0
vn 1.0 -0.0 -0.0
vn -0.0 -0.0 1.0
vn -0.0 -0.0 1.0
vn -0.0 -0.0 1.0
vn -0.0 -0.0 1.0
vn 0.0 1.0 0.0
vn 0.0 1.0 0.0
vn 0.0 1.0 0.0
vn 0.0 1.0 0.0
vn 1.0 -0.0 -0.0
vn 1.0 -0.0 -0.0
vn 1.0 -0.0 -0.0
vn 1.0 -0.0 -0.0
vn 0.0 0.0 -1.0
vn 0.0 0.0 -1.0
vn 0.0 0.0 -1.0
vn 0.0 0.0 -1.0
vn 0.0 1.0 0.0
vn 0.0 1.0 0.0
vn 0.0 1.0 0.0
vn 0.0 1.0 0.0
f 1//1 2//2 4//4
f 4//4 2//2 3//3
f 5//5 6//6 8//8
f 8//8 6//6 7//7
f 9//9 10//10 12//12
f 12//12 10//10 11//11
f 13//13 14//14 16//16
f 16//16 14//14 15//15
f 17//17 18//18 20//20
f 20//20 18//18 19//19
f 21//21 22//22 24//24
f 24//24 22//22 23//23
f 25//25 26//26 28//28
f 28//28 26//26 27//27
f 29//29 30//30 32//32
f 32//32 30//30 31//31
f 33//33 34//34 36//36
f 36//36 34//34 35//35
f 37//37 38//38 40//40
f 40//40 38//38 39//39
f 41//41 42//42 44//44
f 44//44 42//42 43//43
f 46//46 55//55 45//45
f 45//45 55//55 56//56
f 45//45 56//56 58//58
f 58//58 56//56 51//51
f 58//58 51//51 57//57
f 57//57 51//51 52//52
f 57//57 52//52 67//67
f 67//67 52//52 49//49
f 67//67 49//49 50//50
f 55//55 46//46 64//64
f 64//64 46//46 47//47
f 64//64 47//47 65//65
f 65//65 47//47 48//48
f 65//65 48//48 68//68
f 68//68 48//48 59//59
f 68//68 59//59 60//60
f 48//48 45//45 59//59
f 59//59 45//45 58//58
f 67//67 50//50 53//53
f 53//53 50//50 51//51
f 53//53 51//51 56//56
f 67//67 53//53 66//66
f 66//66 53//53 54//54
f 66//66 54//54 61//61
f 61//61 54//54 55//55
f 61//61 55//55 64//64
f 60//60 57//57 68//68
f 68//68 57//57 67//67
f 61//61 62//62 66//66
f 66//66 62//62 63//63
f 66//66 63//63 65//65
f 65//65 63//63 64//64
f 69//69 70//70 72//72
f 72//72 70//70 71//71
f 73//73 74//74 76//76
f 76//76 74//74 75//75
f 77//77 78//78 80//80
f 80//80 78//78 79//79
f 81//81 82//82 84//84
f 84//84 82//82 83//83
f 85//85 86//86 88//88
f 88//88 86//86 87//87
f 89//89 90//90 92//92
f 92//92 90//90 91//91
f 93//93 94//94 96//96
f 96//96 94//94 95//95
f 97//97 98//98 100//100
f 100//100 98//98 99//99
f 101//101 102//102 104//104
f 104//104 102//102 103//103
f 105//105 106//106 108//108
f 108//108 106//106 107//107
f 109//109 110//110 112//112
f 112//112 110//110 111//111
f 113//113 114//114 116//116
f 116//116 114//114 115//115
f 117//117 118//118 120//120
f 120//120 118//118 119//119
f 121//121 122//122 124//124
f 124//124 122//122 123//123
f 125//125 126//126 128//128
f 128//128 126//126 127//127
f 129//129 130//130 132//132
f 132//132 130//130 131//131
f 133//133 134//134 136//136
f 136//136 134//134 135//135
f 137//137 138//138 140//140
f 140//140 138//138 139//139
f 142//142 143//143 141//141
f 141//141 143//143 144//144

# End of file