# WaveFront *.obj file
# Vertices: 228
# Triangles : 212

v 25.100000381469727 5.0 -0.20000000298023224
v 25.092388153076172 5.038268566131592 -0.20000000298023224
v 25.070711135864258 5.0707106590271 -0.20000000298023224
v 25.03826904296875 5.092388153076172 -0.20000000298023224
v 25.0 5.099999904632568 -0.20000000298023224
v 24.96173095703125 5.092388153076172 -0.20000000298023224
v 24.929288864135742 5.0707106590271 -0.20000000298023224
v 24.907611846923828 5.038268566131592 -0.20000000298023224
v 24.899999618530273 5.0 -0.20000000298023224
v 24.907611846923828 4.961731433868408 -0.20000000298023224
v 24.929288864135742 4.9292893409729 -0.20000000298023224
v 24.96173095703125 4.907611846923828 -0.20000000298023224
v 25.0 4.900000095367432 -0.20000000298023224
v 25.03826904296875 4.907611846923828 -0.20000000298023224
v 25.070711135864258 4.9292893409729 -0.20000000298023224
v 25.092388153076172 4.961731433868408 -0.20000000298023224
v 25.100000381469727 5.0 0.0
v 25.092388153076172 4.961731433868408 0.0
v 25.070711135864258 4.9292893409729 0.0
v 25.03826904296875 4.907611846923828 0.0
v 25.0 4.900000095367432 0.0
v 24.96173095703125 4.907611846923828 0.0
v 24.929288864135742 4.9292893409729 0.0
v 24.907611846923828 4.961731433868408 0.0
v 24.899999618530273 5.0 0.0
v 24.907611846923828 5.038268566131592 0.0
v 24.929288864135742 5.0707106590271 0.0
v 24.96173095703125 5.092388153076172 0.0
v 25.0 5.099999904632568 0.0
v 25.03826904296875 5.092388153076172 0.0
v 25.070711135864258 5.0707106590271 0.0
v 25.092388153076172 5.038268566131592 0.0
v 25.100000381469727 5.0 0.0
v 25.100000381469727 5.0 -0.20000000298023224
v 25.100000381469727 5.0 -0.20000000298023224
v 25.092388153076172 4.961731433868408 -0.20000000298023224
v 25.070711135864258 4.9292893409729 -0.20000000298023224
v 25.03826904296875 4.907611846923828 -0.20000000298023224
v 25.0 4.900000095367432 -0.20000000298023224
v 24.96173095703125 4.907611846923828 -0.20000000298023224
v 24.929288864135742 4.9292893409729 -0.20000000298023224
v 24.907611846923828 4.961731433868408 -0.20000000298023224
v 24.899999618530273 5.0 -0.20000000298023224
v 24.907611846923828 5.038268566131592 -0.20000000298023224
v 24.929288864135742 5.0707106590271 -0.20000000298023224
v 24.96173095703125 5.092388153076172 -0.20000000298023224
v 25.0 5.099999904632568 -0.20000000298023224
v 25.03826904296875 5.092388153076172 -0.20000000298023224
v 25.070711135864258 5.0707106590271 -0.20000000298023224
v 25.092388153076172 5.038268566131592 -0.20000000298023224
v 24.899999618530273 5.0 3.700000047683716
v 24.907611846923828 5.038268566131592 3.700000047683716
v 24.929288864135742 5.0707106590271 3.700000047683716
v 24.96173095703125 5.092388153076172 3.700000047683716
v 25.0 5.099999904632568 3.700000047683716
v 25.03826904296875 5.092388153076172 3.700000047683716
v 25.070711135864258 5.0707106590271 3.700000047683716
v 25.092388153076172 5.038268566131592 3.700000047683716
v 25.100000381469727 5.0 3.700000047683716
v 25.092388153076172 4.961731433868408 3.700000047683716
v 25.070711135864258 4.9292893409729 3.700000047683716
v 25.03826904296875 4.907611846923828 3.700000047683716
v 25.0 4.900000095367432 3.700000047683716
v 24.96173095703125 4.907611846923828 3.700000047683716
v 24.929288864135742 4.9292893409729 3.700000047683716
v 24.907611846923828 4.961731433868408 3.700000047683716
v 24.899999618530273 5.0 3.5
v 24.907611846923828 4.961731433868408 3.5
v 24.929288864135742 4.9292893409729 3.5
v 24.96173095703125 4.907611846923828 3.5
v 25.0 4.900000095367432 3.5
v 25.03826904296875 4.907611846923828 3.5
v 25.070711135864258 4.9292893409729 3.5
v 25.092388153076172 4.961731433868408 3.5
v 25.100000381469727 5.0 3.5
v 25.092388153076172 5.038268566131592 3.5
v 25.070711135864258 5.0707106590271 3.5
v 25.03826904296875 5.092388153076172 3.5
v 25.0 5.099999904632568 3.5
v 24.96173095703125 5.092388153076172 3.5
v 24.929288864135742 5.0707106590271 3.5
v 24.907611846923828 5.038268566131592 3.5
v 24.899999618530273 5.0 3.5
v 24.899999618530273 5.0 3.700000047683716
v 24.899999618530273 5.0 3.700000047683716
v 24.907611846923828 4.961731433868408 3.700000047683716
v 24.929288864135742 4.9292893409729 3.700000047683716
v 24.96173095703125 4.907611846923828 3.700000047683716
v 25.0 4.900000095367432 3.700000047683716
v 25.03826904296875 4.907611846923828 3.700000047683716
v 25.070711135864258 4.9292893409729 3.700000047683716
v 25.092388153076172 4.961731433868408 3.700000047683716
v 25.100000381469727 5.0 3.700000047683716
v 25.092388153076172 5.038268566131592 3.700000047683716
v 25.070711135864258 5.0707106590271 3.700000047683716
v 25.03826904296875 5.092388153076172 3.700000047683716
v 25.0 5.099999904632568 3.700000047683716
v 24.96173095703125 5.092388153076172 3.700000047683716
v 24.929288864135742 5.0707106590271 3.700000047683716
v 24.907611846923828 5.038268566131592 3.700000047683716
v 25.508398056030273 5.551390171051025 0.0
v 25.420928955078125 5.620739936828613 0.0
v 25.32413673400879 5.676339626312256 0.0
v 25.220165252685547 5.716957092285156 0.0
v 25.11131477355957 5.741693496704102 0.0
v 25.0 5.75 0.0
v 24.88868522644043 5.741693496704102 0.0
v 24.779834747314453 5.716957092285156 0.0
v 24.67586326599121 5.676339626312256 0.0
v 24.579071044921875 5.620739936828613 0.0
v 24.491601943969727 5.551390171051025 0.0
v 24.491601943969727 5.551390171051025 3.5
v 24.579071044921875 5.620739936828613 3.5
v 24.67586326599121 5.676339626312256 3.5
v 24.779834747314453 5.716957092285156 3.5
v 24.88868522644043 5.741693496704102 3.5
v 25.0 5.75 3.5
v 25.11131477355957 5.741693496704102 3.5
v 25.220165252685547 5.716957092285156 3.5
v 25.32413673400879 5.676339626312256 3.5
v 25.420928955078125 5.620739936828613 3.5
v 25.508398056030273 5.551390171051025 3.5
v 25.508398056030273 4.448609828948975 0.0
v 25.508398056030273 5.551390171051025 0.0
v 25.508398056030273 5.551390171051025 3.5
v 25.508398056030273 4.448609828948975 3.5
v 24.491601943969727 4.448609828948975 0.0
v 24.579071044921875 4.379260063171387 0.0
v 24.67586326599121 4.323660373687744 0.0
v 24.779834747314453 4.283042907714844 0.0
v 24.88868522644043 4.258306503295898 0.0
v 25.0 4.25 0.0
v 25.11131477355957 4.258306503295898 0.0
v 25.220165252685547 4.283042907714844 0.0
v 25.32413673400879 4.323660373687744 0.0
v 25.420928955078125 4.379260063171387 0.0
v 25.508398056030273 4.448609828948975 0.0
v 25.508398056030273 4.448609828948975 3.5
v 25.420928955078125 4.379260063171387 3.5
v 25.32413673400879 4.323660373687744 3.5
v 25.220165252685547 4.283042907714844 3.5
v 25.11131477355957 4.258306503295898 3.5
v 25.0 4.25 3.5
v 24.88868522644043 4.258306503295898 3.5
v 24.779834747314453 4.283042907714844 3.5
v 24.67586326599121 4.323660373687744 3.5
v 24.579071044921875 4.379260063171387 3.5
v 24.491601943969727 4.448609828948975 3.5
v 24.491601943969727 5.551390171051025 0.0
v 24.491601943969727 4.448609828948975 0.0
v 24.491601943969727 4.448609828948975 3.5
v 24.491601943969727 5.551390171051025 3.5
v 24.899999618530273 5.0 3.5
v 24.907611846923828 5.038268566131592 3.5
v 24.929288864135742 5.0707106590271 3.5
v 24.96173095703125 5.092388153076172 3.5
v 25.0 5.099999904632568 3.5
v 25.03826904296875 5.092388153076172 3.5
v 25.070711135864258 5.0707106590271 3.5
v 25.092388153076172 5.038268566131592 3.5
v 25.100000381469727 5.0 3.5
v 25.092388153076172 4.961731433868408 3.5
v 25.070711135864258 4.9292893409729 3.5
v 25.03826904296875 4.907611846923828 3.5
v 25.0 4.900000095367432 3.5
v 24.96173095703125 4.907611846923828 3.5
v 24.929288864135742 4.9292893409729 3.5
v 24.907611846923828 4.961731433868408 3.5
v 24.491601943969727 5.551390171051025 3.5
v 24.491601943969727 4.448609828948975 3.5
v 24.579071044921875 4.379260063171387 3.5
v 24.67586326599121 4.323660373687744 3.5
v 24.779834747314453 4.283042907714844 3.5
v 24.88868522644043 4.258306503295898 3.5
v 25.0 4.25 3.5
v 25.11131477355957 4.258306503295898 3.5
v 25.220165252685547 4.283042907714844 3.5
v 25.32413673400879 4.323660373687744 3.5
v 25.420928955078125 4.379260063171387 3.5
v 25.508398056030273 4.448609828948975 3.5
v 25.508398056030273 5.551390171051025 3.5
v 25.420928955078125 5.620739936828613 3.5
v 25.32413673400879 5.676339626312256 3.5
v 25.220165252685547 5.716957092285156 3.5
v 25.11131477355957 5.741693496704102 3.5
v 25.0 5.75 3.5
v 24.88868522644043 5.741693496704102 3.5
v 24.779834747314453 5.716957092285156 3.5
v 24.67586326599121 5.676339626312256 3.5
v 24.579071044921875 5.620739936828613 3.5
v 25.100000381469727 5.0 0.0
v 25.092388153076172 5.038268566131592 0.0
v 25.070711135864258 5.0707106590271 0.0
v 25.03826904296875 5.092388153076172 0.0
v 25.0 5.099999904632568 0.0
v 24.96173095703125 5.092388153076172 0.0
v 24.929288864135742 5.0707106590271 0.0
v 24.907611846923828 5.038268566131592 0.0
v 24.899999618530273 5.0 0.0
v 24.907611846923828 4.961731433868408 0.0
v 24.929288864135742 4.9292893409729 0.0
v 24.96173095703125 4.907611846923828 0.0
v 25.0 4.900000095367432 0.0
v 25.03826904296875 4.907611846923828 0.0
v 25.070711135864258 4.9292893409729 0.0
v 25.092388153076172 4.961731433868408 0.0
v 24.491601943969727 4.448609828948975 0.0
v 24.491601943969727 5.551390171051025 0.0
v 24.579071044921875 5.620739936828613 0.0
v 24.67586326599121 5.676339626312256 0.0
v 24.779834747314453 5.716957092285156 0.0
v 24.88868522644043 5.741693496704102 0.0
v 25.0 5.75 0.0
v 25.11131477355957 5.741693496704102 0.0
v 25.220165252685547 5.716957092285156 0.0
v 25.32413673400879 5.676339626312256 0.0
v 25.420928955078125 5.620739936828613 0.0
v 25.508398056030273 5.551390171051025 0.0
v 25.508398056030273 4.448609828948975 0.0
v 25.420928955078125 4.379260063171387 0.0
v 25.32413673400879 4.323660373687744 0.0
v 25.220165252685547 4.283042907714844 0.0
v 25.11131477355957 4.258306503295898 0.0
v 25.0 4.25 0.0
v 24.88868522644043 4.258306503295898 0.0
v 24.779834747314453 4.283042907714844 0.0
v 24.67586326599121 4.323660373687744 0.0
v 24.579071044921875 4.379260063171387 0.0
vn 1.0 1.2246468525851679e-16 0.0
vn 0.9238795042037964 0.3826834261417389 0.0
vn 0.7071067690849304 0.7071067690849304 0.0
vn 0.3826834261417389 0.9238795042037964 0.0
vn -6.123234262925839e-17 1.0 -0.0
vn -0.3826834261417389 0.9238795042037964 -0.0
vn -0.7071067690849304 0.7071067690849304 -0.0
vn -0.9238795042037964 0.3826834261417389 -0.0
vn -1.0 0.0 -0.0
vn -0.9238795042037964 -0.3826834261417389 -0.0
vn -0.7071067690849304 -0.7071067690849304 -0.0
vn -0.3826834261417389 -0.9238795042037964 -0.0
vn -6.123234262925839e-17 -1.0 -0.0
vn 0.3826834261417389 -0.9238795042037964 -0.0
vn 0.7071067690849304 -0.7071067690849304 -0.0
vn 0.9238795042037964 -0.3826834261417389 -0.0
vn 1.0 -1.2246468525851679e-16 -0.0
vn 0.9238795042037964 -0.3826834261417389 -0.0
vn 0.7071067690849304 -0.7071067690849304 -0.0
vn 0.3826834261417389 -0.9238795042037964 -0.0
vn -6.123234262925839e-17 -1.0 -0.0
vn -0.3826834261417389 -0.9238795042037964 -0.0
vn -0.7071067690849304 -0.7071067690849304 -0.0
vn -0.9238795042037964 -0.3826834261417389 -0.0
vn -1.0 0.0 -0.0
vn -0.9238795042037964 0.3826834261417389 -0.0
vn -0.7071067690849304 0.7071067690849304 -0.0
vn -0.3826834261417389 0.9238795042037964 -0.0
vn -6.123234262925839e-17 1.0 -0.0
vn 0.3826834261417389 0.9238795042037964 0.0
vn 0.7071067690849304 0.7071067690849304 0.0
vn 0.9238795042037964 0.3826834261417389 0.0
vn 1.0 1.2246468525851679e-16 0.0
vn 1.0 -1.2246468525851679e-16 -0.0
vn 0.0 0.0 -1.0
vn 0.0 0.0 -1.0
vn 0.0 0.0 -1.0
vn 0.0 0.0 -1.0
vn 0.0 0.0 -1.0
vn 0.0 0.0 -1.0
vn 0.0 0.0 -1.0
vn 0.0 0.0 -1.0
vn 0.0 0.0 -1.0
vn 0.0 0.0 -1.0
vn 0.0 0.0 -1.0
vn 0.0 0.0 -1.0
vn 0.0 0.0 -1.0
vn 0.0 0.0 -1.0
vn 0.0 0.0 -1.0
vn 0.0 0.0 -1.0
vn -1.0 1.2246468525851679e-16 -0.0
vn -0.9238795042037964 0.3826834261417389 -0.0
vn -0.7071067690849304 0.7071067690849304 -0.0
vn -0.3826834261417389 0.9238795042037964 -0.0
vn 6.123234262925839e-17 1.0 -0.0
vn 0.3826834261417389 0.9238795042037964 -0.0
vn 0.7071067690849304 0.7071067690849304 -0.0
vn 0.9238795042037964 0.3826834261417389 -0.0
vn 1.0 -0.0 -0.0
vn 0.9238795042037964 -0.3826834261417389 -0.0
vn 0.7071067690849304 -0.7071067690849304 -0.0
vn 0.3826834261417389 -0.9238795042037964 -0.0
vn 6.123234262925839e-17 -1.0 -0.0
vn -0.3826834261417389 -0.9238795042037964 0.0
vn -0.7071067690849304 -0.7071067690849304 0.0
vn -0.9238795042037964 -0.3826834261417389 0.0
vn -1.0 -1.2246468525851679e-16 0.0
vn -0.9238795042037964 -0.3826834261417389 0.0
vn -0.7071067690849304 -0.7071067690849304 0.0
vn -0.3826834261417389 -0.9238795042037964 0.0
vn 6.123234262925839e-17 -1.0 -0.0
vn 0.3826834261417389 -0.9238795042037964 -0.0
vn 0.7071067690849304 -0.7071067690849304 -0.0
vn 0.9238795042037964 -0.3826834261417389 -0.0
vn 1.0 -0.0 -0.0
vn 0.9238795042037964 0.3826834261417389 -0.0
vn 0.7071067690849304 0.7071067690849304 -0.0
vn 0.3826834261417389 0.9238795042037964 -0.0
vn 6.123234262925839e-17 1.0 -0.0
vn -0.3826834261417389 0.9238795042037964 -0.0
vn -0.7071067690849304 0.7071067690849304 -0.0
vn -0.9238795042037964 0.3826834261417389 -0.0
vn -1.0 1.2246468525851679e-16 -0.0
vn -1.0 -1.2246468525851679e-16 0.0
vn 0.0 0.0 1.0
vn 0.0 0.0 1.0
vn 0.0 0.0 1.0
vn 0.0 0.0 1.0
vn 0.0 0.0 1.0
vn 0.0 0.0 1.0
vn 0.0 0.0 1.0
vn 0.0 0.0 1.0
vn 0.0 0.0 1.0
vn 0.0 0.0 1.0
vn 0.0 0.0 1.0
vn 0.0 0.0 1.0
vn 0.0 0.0 1.0
vn 0.0 0.0 1.0
vn 0.0 0.0 1.0
vn 0.0 0.0 1.0
vn 0.6778643131256104 0.7351869940757751 -0.0
vn 0.5612398386001587 0.8276532292366028 -0.0
vn 0.4321831464767456 0.9017858505249023 -0.0
vn 0.29355302453041077 0.9559428095817566 -0.0
vn 0.14842036366462708 0.9889243841171265 -0.0
vn 6.123234262925839e-17 1.0 -0.0
vn -0.14842036366462708 0.9889243841171265 -0.0
vn -0.29355302453041077 0.9559428095817566 -0.0
vn -0.4321831464767456 0.9017858505249023 -0.0
vn -0.5612398386001587 0.8276532292366028 -0.0
vn -0.6778643131256104 0.7351869940757751 -0.0
vn -0.6778643131256104 0.7351869940757751 -0.0
vn -0.5612398386001587 0.8276532292366028 -0.0
vn -0.4321831464767456 0.9017858505249023 -0.0
vn -0.29355302453041077 0.9559428095817566 -0.0
vn -0.14842036366462708 0.9889243841171265 -0.0
vn 6.123234262925839e-17 1.0 -0.0
vn 0.14842036366462708 0.9889243841171265 -0.0
vn 0.29355302453041077 0.9559428095817566 -0.0
vn 0.4321831464767456 0.9017858505249023 -0.0
vn 0.5612398386001587 0.8276532292366028 -0.0
vn 0.6778643131256104 0.7351869940757751 -0.0
vn 1.0 0.0 -0.0
vn 1.0 0.0 -0.0
vn 1.0 0.0 -0.0
vn 1.0 0.0 -0.0
vn -0.6778643131256104 -0.7351869940757751 0.0
vn -0.5612398386001587 -0.8276532292366028 0.0
vn -0.4321831464767456 -0.9017858505249023 0.0
vn -0.29355302453041077 -0.9559428095817566 0.0
vn -0.14842036366462708 -0.9889243841171265 0.0
vn 6.123234262925839e-17 -1.0 -0.0
vn 0.14842036366462708 -0.9889243841171265 -0.0
vn 0.29355302453041077 -0.9559428095817566 -0.0
vn 0.4321831464767456 -0.9017858505249023 -0.0
vn 0.5612398386001587 -0.8276532292366028 -0.0
vn 0.6778643131256104 -0.7351869940757751 -0.0
vn 0.6778643131256104 -0.7351869940757751 -0.0
vn 0.5612398386001587 -0.8276532292366028 -0.0
vn 0.4321831464767456 -0.9017858505249023 -0.0
vn 0.29355302453041077 -0.9559428095817566 -0.0
vn 0.14842036366462708 -0.9889243841171265 -0.0
vn 6.123234262925839e-17 -1.0 -0.0
vn -0.14842036366462708 -0.9889243841171265 0.0
vn -0.29355302453041077 -0.9559428095817566 0.0
vn -0.4321831464767456 -0.9017858505249023 0.0
vn -0.5612398386001587 -0.8276532292366028 0.0
vn -0.6778643131256104 -0.7351869940757751 0.0
vn -1.0 0.0 0.0
vn -1.0 0.0 0.0
vn -1.0 0.0 0.0
vn -1.0 0.0 0.0
vn 0.0 0.0 1.0
vn 0.0 0.0 1.0
vn 0.0 0.0 1.0
vn 0.0 0.0 1.0
vn 0.0 0.0 1.0
vn 0.0 0.0 1.0
vn 0.0 0.0 1.0
vn 0.0 0.0 1.0
vn 0.0 0.0 1.0
vn 0.0 0.0 1.0
vn 0.0 0.0 1.0
vn 0.0 0.0 1.0
vn 0.0 0.0 1.0
vn 0.0 0.0 1.0
vn 0.0 0.0 1.0
vn 0.0 0.0 1.0
vn 0.0 0.0 1.0
vn 0.0 0.0 1.0
vn 0.0 0.0 1.0
vn 0.0 0.0 1.0
vn 0.0 0.0 1.0
vn 0.0 0.0 1.0
vn 0.0 0.0 1.0
vn 0.0 0.0 1.0
vn 0.0 0.0 1.0
vn 0.0 0.0 1.0
vn 0.0 0.0 1.0
vn 0.0 0.0 1.0
vn 0.0 0.0 1.0
vn 0.0 0.0 1.0
vn 0.0 0.0 1.0
vn 0.0 0.0 1.0
vn 0.0 0.0 1.0
vn 0.0 0.0 1.0
vn 0.0 0.0 1.0
vn 0.0 0.0 1.0
vn 0.0 0.0 1.0
vn 0.0 0.0 1.0
vn -0.0 -0.0 -1.0
vn -0.0 -0.0 -1.0
vn -0.0 -0.0 -1.0
vn -0.0 -0.0 -1.0
vn -0.0 -0.0 -1.0
vn -0.0 -0.0 -1.0
vn -0.0 -0.0 -1.0
vn -0.0 -0.0 -1.0
vn -0.0 -0.0 -1.0
vn -0.0 -0.0 -1.0
vn -0.0 -0.0 -1.0
vn -0.0 -0.0 -1.0
vn -0.0 -0.0 -1.0
vn -0.0 -0.0 -1.0
vn -0.0 -0.0 -1.0
vn -0.0 -0.0 -1.0
vn -0.0 -0.0 -1.0
vn -0.0 -0.0 -1.0
vn -0.0 -0.0 -1.0
vn -0.0 -0.0 -1.0
vn -0.0 -0.0 -1.0
vn -0.0 -0.0 -1.0
vn -0.0 -0.0 -1.0
vn -0.0 -0.0 -1.0
vn -0.0 -0.0 -1.0
vn -0.0 -0.0 -1.0
vn -0.0 -0.0 -1.0
vn -0.0 -0.0 -1.0
vn -0.0 -0.0 -1.0
vn -0.0 -0.0 -1.0
vn -0.0 -0.0 -1.0
vn -0.0 -0.0 -1.0
vn -0.0 -0.0 -1.0
vn -0.0 -0.0 -1.0
vn -0.0 -0.0 -1.0
vn -0.0 -0.0 -1.0
vn -0.0 -0.0 -1.0
vn -0.0 -0.0 -1.0
g 984e861c-e2f9-11ea-a15f-54bf646e7e1f
f 2//2 32//32 1//1
f 1//1 32//32 33//33
f 34//34 17//17 16//16
f 16//16 17//17 18//18
f 16//16 18//18 15//15
f 15//15 18//18 19//19
f 15//15 19//19 14//14
f 14//14 19//19 20//20
f 14//14 20//20 13//13
f 13//13 20//20 21//21
f 13//13 21//21 12//12
f 12//12 21//21 22//22
f 12//12 22//22 11//11
f 11//11 22//22 23//23
f 11//11 23//23 10//10
f 10//10 23//23 24//24
f 10//10 24//24 9//9
f 9//9 24//24 25//25
f 9//9 25//25 8//8
f 8//8 25//25 26//26
f 8//8 26//26 7//7
f 7//7 26//26 27//27
f 7//7 27//27 6//6
f 6//6 27//27 28//28
f 6//6 28//28 5//5
f 5//5 28//28 29//29
f 5//5 29//29 4//4
f 4//4 29//29 30//30
f 4//4 30//30 3//3
f 3//3 30//30 31//31
f 3//3 31//31 2//2
f 2//2 31//31 32//32
g 9852a4c0-e2f9-11ea-afba-54bf646e7e1f
f 36//36 42//42 35//35
f 35//35 42//42 43//43
f 35//35 43//43 50//50
f 50//50 43//43 44//44
f 50//50 44//44 49//49
f 49//49 44//44 45//45
f 49//49 45//45 48//48
f 48//48 45//45 46//46
f 48//48 46//46 47//47
f 42//42 36//36 41//41
f 41//41 36//36 37//37
f 41//41 37//37 40//40
f 40//40 37//37 38//38
f 40//40 38//38 39//39
g 9784f5f4-e2f9-11ea-9d46-54bf646e7e1f
f 52//52 82//82 51//51
f 51//51 82//82 83//83
f 84//84 67//67 66//66
f 66//66 67//67 68//68
f 66//66 68//68 65//65
f 65//65 68//68 69//69
f 65//65 69//69 64//64
f 64//64 69//69 70//70
f 64//64 70//70 63//63
f 63//63 70//70 71//71
f 63//63 71//71 62//62
f 62//62 71//71 72//72
f 62//62 72//72 61//61
f 61//61 72//72 73//73
f 61//61 73//73 60//60
f 60//60 73//73 74//74
f 60//60 74//74 59//59
f 59//59 74//74 75//75
f 59//59 75//75 58//58
f 58//58 75//75 76//76
f 58//58 76//76 57//57
f 57//57 76//76 77//77
f 57//57 77//77 56//56
f 56//56 77//77 78//78
f 56//56 78//78 55//55
f 55//55 78//78 79//79
f 55//55 79//79 54//54
f 54//54 79//79 80//80
f 54//54 80//80 53//53
f 53//53 80//80 81//81
f 53//53 81//81 52//52
f 52//52 81//81 82//82
g 9787dbd2-e2f9-11ea-b67e-54bf646e7e1f
f 86//86 92//92 85//85
f 85//85 92//92 93//93
f 85//85 93//93 100//100
f 100//100 93//93 94//94
f 100//100 94//94 99//99
f 99//99 94//94 95//95
f 99//99 95//95 98//98
f 98//98 95//95 96//96
f 98//98 96//96 97//97
f 92//92 86//86 91//91
f 91//91 86//86 87//87
f 91//91 87//87 90//90
f 90//90 87//87 88//88
f 90//90 88//88 89//89
g 96aaea80-e2f9-11ea-a869-54bf646e7e1f
f 122//122 101//101 121//121
f 121//121 101//101 102//102
f 121//121 102//102 120//120
f 120//120 102//102 103//103
f 120//120 103//103 119//119
f 119//119 103//103 104//104
f 119//119 104//104 118//118
f 118//118 104//104 105//105
f 118//118 105//105 117//117
f 117//117 105//105 106//106
f 117//117 106//106 116//116
f 116//116 106//106 107//107
f 116//116 107//107 115//115
f 115//115 107//107 108//108
f 115//115 108//108 114//114
f 114//114 108//108 109//109
f 114//114 109//109 113//113
f 113//113 109//109 110//110
f 113//113 110//110 112//112
f 112//112 110//110 111//111
g 96ad5b8a-e2f9-11ea-9f54-54bf646e7e1f
f 123//123 124//124 126//126
f 126//126 124//124 125//125
g 96af7e5c-e2f9-11ea-b63d-54bf646e7e1f
f 148//148 127//127 147//147
f 147//147 127//127 128//128
f 147//147 128//128 146//146
f 146//146 128//128 129//129
f 146//146 129//129 145//145
f 145//145 129//129 130//130
f 145//145 130//130 144//144
f 144//144 130//130 131//131
f 144//144 131//131 143//143
f 143//143 131//131 132//132
f 143//143 132//132 142//142
f 142//142 132//132 133//133
f 142//142 133//133 141//141
f 141//141 133//133 134//134
f 141//141 134//134 140//140
f 140//140 134//134 135//135
f 140//140 135//135 139//139
f 139//139 135//135 136//136
f 139//139 136//136 138//138
f 138//138 136//136 137//137
g 96b1c852-e2f9-11ea-a2f6-54bf646e7e1f
f 149//149 150//150 152//152
f 152//152 150//150 151//151
g 96b41262-e2f9-11ea-a104-54bf646e7e1f
f 154//154 169//169 153//153
f 153//153 169//169 170//170
f 153//153 170//170 168//168
f 168//168 170//170 167//167
f 167//167 170//170 171//171
f 167//167 171//171 172//172
f 154//154 155//155 169//169
f 169//169 155//155 190//190
f 190//190 155//155 189//189
f 189//189 155//155 156//156
f 189//189 156//156 188//188
f 188//188 156//156 187//187
f 187//187 156//156 157//157
f 187//187 157//157 186//186
f 186//186 157//157 185//185
f 185//185 157//157 158//158
f 185//185 158//158 184//184
f 184//184 158//158 183//183
f 183//183 158//158 159//159
f 183//183 159//159 182//182
f 182//182 159//159 181//181
f 181//181 159//159 160//160
f 181//181 160//160 161//161
f 181//181 161//161 180//180
f 180//180 161//161 162//162
f 180//180 162//162 163//163
f 164//164 178//178 163//163
f 163//163 178//178 179//179
f 163//163 179//179 180//180
f 165//165 176//176 164//164
f 164//164 176//176 177//177
f 164//164 177//177 178//178
f 166//166 174//174 165//165
f 165//165 174//174 175//175
f 165//165 175//175 176//176
f 167//167 172//172 166//166
f 166//166 172//172 173//173
f 166//166 173//173 174//174
g 96b65c5c-e2f9-11ea-8609-54bf646e7e1f
f 192//192 218//218 191//191
f 191//191 218//218 219//219
f 191//191 219//219 206//206
f 206//206 219//219 205//205
f 205//205 219//219 220//220
f 205//205 220//220 221//221
f 192//192 193//193 218//218
f 218//218 193//193 217//217
f 217//217 193//193 216//216
f 216//216 193//193 194//194
f 216//216 194//194 215//215
f 215//215 194//194 214//214
f 214//214 194//194 195//195
f 214//214 195//195 213//213
f 213//213 195//195 212//212
f 212//212 195//195 196//196
f 212//212 196//196 211//211
f 211//211 196//196 210//210
f 210//210 196//196 197//197
f 210//210 197//197 209//209
f 209//209 197//197 208//208
f 208//208 197//197 198//198
f 208//208 198//198 199//199
f 208//208 199//199 207//207
f 207//207 199//199 200//200
f 207//207 200//200 201//201
f 202//202 227//227 201//201
f 201//201 227//227 228//228
f 201//201 228//228 207//207
f 203//203 225//225 202//202
f 202//202 225//225 226//226
f 202//202 226//226 227//227
f 204//204 223//223 203//203
f 203//203 223//223 224//224
f 203//203 224//224 225//225
f 205//205 221//221 204//204
f 204//204 221//221 222//222
f 204//204 222//222 223//223

# End of file