# WaveFront *.obj file
# Vertices: 24
# Triangles : 12

v 1.0 3.0 0.0
v 1.0 1.0 0.0
v 1.0 1.0 1.0
v 1.0 3.0 1.0
v 15.0 3.0 0.0
v 1.0 3.0 0.0
v 1.0 3.0 1.0
v 15.0 3.0 1.0
v 15.0 1.0 0.0
v 15.0 3.0 0.0
v 15.0 3.0 1.0
v 15.0 1.0 1.0
v 1.0 1.0 0.0
v 15.0 1.0 0.0
v 15.0 1.0 1.0
v 1.0 1.0 1.0
v 1.0 1.0 1.0
v 15.0 1.0 1.0
v 15.0 3.0 1.0
v 1.0 3.0 1.0
v 15.0 1.0 0.0
v 1.0 1.0 0.0
v 1.0 3.0 0.0
v 15.0 3.0 0.0
vn -1.0 0.0 0.0
vn -1.0 0.0 0.0
vn -1.0 0.0 0.0
vn -1.0 0.0 0.0
vn 0.0 1.0 0.0
vn 0.0 1.0 0.0
vn 0.0 1.0 0.0
vn 0.0 1.0 0.0
vn 1.0 0.0 -0.0
vn 1.0 0.0 -0.0
vn 1.0 0.0 -0.0
vn 1.0 0.0 -0.0
vn 0.0 -1.0 0.0
vn 0.0 -1.0 0.0
vn 0.0 -1.0 0.0
vn 0.0 -1.0 0.0
vn 0.0 0.0 1.0
vn 0.0 0.0 1.0
vn 0.0 0.0 1.0
vn 0.0 0.0 1.0
vn -0.0 0.0 -1.0
vn -0.0 0.0 -1.0
vn -0.0 0.0 -1.0
vn -0.0 0.0 -1.0
g 666b7226-e2fd-11ea-9078-54bf646e7e1f
f 1//1 2//2 4//4
f 4//4 2//2 3//3
g 666b9936-e2fd-11ea-a1e2-54bf646e7e1f
f 5//5 6//6 8//8
f 8//8 6//6 7//7
g 666bc052-e2fd-11ea-94cd-54bf646e7e1f
f 9//9 10//10 12//12
f 12//12 10//10 11//11
g 666be762-e2fd-11ea-ac29-54bf646e7e1f
f 13//13 14//14 16//16
f 16//16 14//14 15//15
g 666c3576-e2fd-11ea-b999-54bf646e7e1f
f 17//17 18//18 20//20
f 20//20 18//18 19//19
g 666c5c8c-e2fd-11ea-b2f2-54bf646e7e1f
f 21//21 22//22 24//24
f 24//24 22//22 23//23

# End of file