# WaveFront *.obj file
# Vertices: 134
# Triangles : 86

v 2.4741625785827637 0.009885312989354134 0.797553300857544
v 2.4741625785827637 1.1275702593849246e-16 0.797553300857544
v 0.9952941536903381 1.1275702593849246e-16 0.008823529817163944
v 0.9952941536903381 0.009999999776482582 0.008823529817163944
v 2.4768478870391846 0.009894232265651226 0.7989855408668518
v 2.4768478870391846 0.009886069223284721 0.7989855408668518
v 2.481553792953491 0.009894232265651226 0.7901620268821716
v 2.4768478870391846 0.009886069223284721 0.7989855408668518
v 2.4768478870391846 0.009894232265651226 0.7989855408668518
v 1.0 0.0 -1.1102230246251565e-16
v 1.0 0.009999999776482582 -1.1102230246251565e-16
v 0.9952941536903381 0.009999999776482582 0.008823529817163944
v 0.9952941536903381 1.1275702593849246e-16 0.008823529817163944
v 1.0 0.009999999776482582 -1.1102230246251565e-16
v 2.481553792953491 0.009894232265651226 0.7901620268821716
v 2.4768478870391846 0.009894232265651226 0.7989855408668518
v 0.9952941536903381 0.009999999776482582 0.008823529817163944
v 2.4741625785827637 1.1275702593849246e-16 0.797553300857544
v 2.4741625785827637 0.009885312989354134 0.797553300857544
v 1.9858578443527222 0.00929601863026619 1.285857915878296
v 1.9858578443527222 0.0 1.285857915878296
v 2.481553792953491 0.009894232265651226 0.7901620268821716
v 1.0 0.009999999776482582 -1.1102230246251565e-16
v 1.0 0.30000001192092896 0.0
v 2.5 0.30000001192092896 0.800000011920929
v 2.5 0.009899427182972431 0.800000011920929
v 1.0 0.0 -1.1102230246251565e-16
v 2.5 0.0 0.800000011920929
v 2.5 -0.30000001192092896 0.800000011920929
v 1.0 -0.30000001192092896 0.0
v 2.4741625785827637 0.009885312989354134 0.797553300857544
v 2.4768478870391846 0.009886069223284721 0.7989855408668518
v 2.481553792953491 0.009894232265651226 0.7901620268821716
v 2.5 0.009899427182972431 0.800000011920929
v 2.0 0.00929601863026619 1.3000000715255737
v 1.9858578443527222 0.00929601863026619 1.285857915878296
v 2.0 0.00929601863026619 1.3000000715255737
v 2.0 0.0 1.3000000715255737
v 1.9858578443527222 0.0 1.285857915878296
v 1.9858578443527222 0.00929601863026619 1.285857915878296
v 2.4741625785827637 1.1275702593849246e-16 0.797553300857544
v 1.9858578443527222 0.0 1.285857915878296
v 2.0 0.0 1.3000000715255737
v 2.5 0.0 0.800000011920929
v 1.0 0.0 -1.1102230246251565e-16
v 0.9952941536903381 1.1275702593849246e-16 0.008823529817163944
v 2.5 0.0 0.800000011920929
v 2.0 0.0 1.3000000715255737
v 2.0 -0.30000001192092896 1.3000000715255737
v 2.5 -0.30000001192092896 0.800000011920929
v 2.0 0.00929601863026619 1.3000000715255737
v 2.5 0.009899427182972431 0.800000011920929
v 2.5 0.30000001192092896 0.800000011920929
v 2.0 0.30000001192092896 1.3000000715255737
v 0.21056030690670013 0.30000001192092896 1.2593244314193726
v 1.6488933563232422 0.30000001192092896 1.0699743032455444
v 1.6488933563232422 -0.30000001192092896 1.0699743032455444
v 0.21056030690670013 -0.30000001192092896 1.2593244314193726
v 0.21056030690670013 0.30000001192092896 0.30000001192092896
v 0.21056030690670013 0.30000001192092896 1.2593244314193726
v 0.21056030690670013 -0.30000001192092896 1.2593244314193726
v 0.21056030690670013 -0.30000001192092896 0.30000001192092896
v 1.0 0.30000001192092896 0.30000001192092896
v 0.21056030690670013 0.30000001192092896 0.30000001192092896
v 0.21056030690670013 -0.30000001192092896 0.30000001192092896
v 1.0 -0.30000001192092896 0.30000001192092896
v 1.8000000715255737 0.30000001192092896 0.800000011920929
v 1.0 0.30000001192092896 0.30000001192092896
v 1.0 -0.30000001192092896 0.30000001192092896
v 1.8000000715255737 -0.30000001192092896 0.800000011920929
v 1.6488933563232422 0.30000001192092896 1.0699743032455444
v 1.8000000715255737 0.30000001192092896 0.800000011920929
v 1.8000000715255737 -0.30000001192092896 0.800000011920929
v 1.6488933563232422 -0.30000001192092896 1.0699743032455444
v 1.0 -0.30000001192092896 0.30000001192092896
v 0.21056030690670013 -0.30000001192092896 0.30000001192092896
v 0.21056030690670013 -0.30000001192092896 1.2593244314193726
v 1.6488933563232422 -0.30000001192092896 1.0699743032455444
v 1.8000000715255737 -0.30000001192092896 0.800000011920929
v -0.009338791482150555 -0.30000001192092896 0.3492629826068878
v -0.5384204387664795 -0.30000001192092896 0.07980313897132874
v 0.0 -0.30000001192092896 0.0
v 1.0 -0.30000001192092896 0.0
v 2.5 -0.30000001192092896 0.800000011920929
v 2.0 -0.30000001192092896 1.3000000715255737
v -0.3042880892753601 -0.30000001192092896 1.5509083271026611
v -0.9000000357627869 -0.30000001192092896 1.3000000715255737
v -0.1768408566713333 -0.30000001192092896 1.164925217628479
v -0.5384204387664795 -0.30000001192092896 0.07980313897132874
v -0.5384204387664795 0.30000001192092896 0.07980313897132874
v 0.0 0.30000001192092896 0.0
v 0.0 -0.30000001192092896 0.0
v 0.0 -0.30000001192092896 0.0
v 0.0 0.30000001192092896 0.0
v 1.0 0.30000001192092896 0.0
v 1.0 0.009999999776482582 -1.1102230246251565e-16
v 1.0 0.0 -1.1102230246251565e-16
v 1.0 -0.30000001192092896 0.0
v 2.0 -0.30000001192092896 1.3000000715255737
v 2.0 0.0 1.3000000715255737
v 2.0 0.00929601863026619 1.3000000715255737
v 2.0 0.30000001192092896 1.3000000715255737
v -0.3042880892753601 0.30000001192092896 1.5509083271026611
v -0.3042880892753601 -0.30000001192092896 1.5509083271026611
v -0.3042880892753601 -0.30000001192092896 1.5509083271026611
v -0.3042880892753601 0.30000001192092896 1.5509083271026611
v -0.9000000357627869 0.30000001192092896 1.3000000715255737
v -0.9000000357627869 -0.30000001192092896 1.3000000715255737
v -0.9000000357627869 -0.30000001192092896 1.3000000715255737
v -0.9000000357627869 0.30000001192092896 1.3000000715255737
v -0.1768408566713333 0.30000001192092896 1.164925217628479
v -0.1768408566713333 -0.30000001192092896 1.164925217628479
v -0.1768408566713333 -0.30000001192092896 1.164925217628479
v -0.1768408566713333 0.30000001192092896 1.164925217628479
v -0.009338791482150555 0.30000001192092896 0.3492629826068878
v -0.009338791482150555 -0.30000001192092896 0.3492629826068878
v -0.009338791482150555 -0.30000001192092896 0.3492629826068878
v -0.009338791482150555 0.30000001192092896 0.3492629826068878
v -0.5384204387664795 0.30000001192092896 0.07980313897132874
v -0.5384204387664795 -0.30000001192092896 0.07980313897132874
v 0.21056030690670013 0.30000001192092896 0.30000001192092896
v 1.0 0.30000001192092896 0.30000001192092896
v 1.8000000715255737 0.30000001192092896 0.800000011920929
v 1.6488933563232422 0.30000001192092896 1.0699743032455444
v 0.21056030690670013 0.30000001192092896 1.2593244314193726
v -0.5384204387664795 0.30000001192092896 0.07980313897132874
v -0.009338791482150555 0.30000001192092896 0.3492629826068878
v -0.1768408566713333 0.30000001192092896 1.164925217628479
v -0.9000000357627869 0.30000001192092896 1.3000000715255737
v -0.3042880892753601 0.30000001192092896 1.5509083271026611
v 2.0 0.30000001192092896 1.3000000715255737
v 2.5 0.30000001192092896 0.800000011920929
v 1.0 0.30000001192092896 0.0
v 0.0 0.30000001192092896 0.0
vn 0.47058823704719543 -1.1275702593849246e-14 -0.8823529481887817
vn 0.47058823704719543 -1.1275702593849246e-14 -0.8823529481887817
vn 0.47058823704719543 -1.1275702593849246e-14 -0.8823529481887817
vn 0.47058823704719543 -1.1275702593849246e-14 -0.8823529481887817
vn 0.47058823704719543 -1.1275702593849246e-14 -0.8823529481887817
vn 0.47058823704719543 -1.1275702593849246e-14 -0.8823529481887817
vn -0.8823529481887817 -4.488364229436083e-14 -0.47058823704719543
vn -0.8823529481887817 -4.488364229436083e-14 -0.47058823704719543
vn -0.8823529481887817 -4.488364229436083e-14 -0.47058823704719543
vn 0.8823529481887817 -1.035379938102578e-30 0.47058823704719543
vn 0.8823529481887817 -1.035379938102578e-30 0.47058823704719543
vn 0.8823529481887817 -1.035379938102578e-30 0.47058823704719543
vn 0.8823529481887817 -1.035379938102578e-30 0.47058823704719543
vn -5.557991244131699e-05 -1.0 -2.9642620575032197e-05
vn -5.557991244131699e-05 -1.0 -2.9642620575032197e-05
vn -5.557991244131699e-05 -1.0 -2.9642620575032197e-05
vn -5.557991244131699e-05 -1.0 -2.9642620575032197e-05
vn 0.7071067690849304 -0.0 0.7071067690849304
vn 0.7071067690849304 -0.0 0.7071067690849304
vn 0.7071067690849304 -0.0 0.7071067690849304
vn 0.7071067690849304 -0.0 0.7071067690849304
vn 0.47058823704719543 0.0 -0.8823529481887817
vn 0.47058823704719543 0.0 -0.8823529481887817
vn 0.47058823704719543 0.0 -0.8823529481887817
vn 0.47058823704719543 0.0 -0.8823529481887817
vn 0.47058823704719543 0.0 -0.8823529481887817
vn 0.47058823704719543 0.0 -0.8823529481887817
vn 0.47058823704719543 0.0 -0.8823529481887817
vn 0.47058823704719543 0.0 -0.8823529481887817
vn 0.47058823704719543 0.0 -0.8823529481887817
vn 0.0006034080288372934 -0.9999996423721313 -0.0006034080288372934
vn 0.0006034080288372934 -0.9999996423721313 -0.0006034080288372934
vn 0.0006034080288372934 -0.9999996423721313 -0.0006034080288372934
vn 0.0006034080288372934 -0.9999996423721313 -0.0006034080288372934
vn 0.0006034080288372934 -0.9999996423721313 -0.0006034080288372934
vn 0.0006034080288372934 -0.9999996423721313 -0.0006034080288372934
vn 0.7071067690849304 -5.971497574848092e-15 -0.7071067690849304
vn 0.7071067690849304 -5.971497574848092e-15 -0.7071067690849304
vn 0.7071067690849304 -5.971497574848092e-15 -0.7071067690849304
vn 0.7071067690849304 -5.971497574848092e-15 -0.7071067690849304
vn -0.0 1.0 0.0
vn -0.0 1.0 0.0
vn -0.0 1.0 0.0
vn -0.0 1.0 0.0
vn -0.0 1.0 0.0
vn -0.0 1.0 0.0
vn 0.7071067690849304 -0.0 0.7071067690849304
vn 0.7071067690849304 -0.0 0.7071067690849304
vn 0.7071067690849304 -0.0 0.7071067690849304
vn 0.7071067690849304 -0.0 0.7071067690849304
vn 0.7071067690849304 -0.0 0.7071067690849304
vn 0.7071067690849304 -0.0 0.7071067690849304
vn 0.7071067690849304 -0.0 0.7071067690849304
vn 0.7071067690849304 -0.0 0.7071067690849304
vn -0.13051943480968475 0.0 -0.991445779800415
vn -0.13051943480968475 0.0 -0.991445779800415
vn -0.13051943480968475 0.0 -0.991445779800415
vn -0.13051943480968475 0.0 -0.991445779800415
vn 1.0 -0.0 -0.0
vn 1.0 -0.0 -0.0
vn 1.0 -0.0 -0.0
vn 1.0 -0.0 -0.0
vn -0.0 -0.0 1.0
vn -0.0 -0.0 1.0
vn -0.0 -0.0 1.0
vn -0.0 -0.0 1.0
vn -0.5299989581108093 -0.0 0.847998321056366
vn -0.5299989581108093 -0.0 0.847998321056366
vn -0.5299989581108093 -0.0 0.847998321056366
vn -0.5299989581108093 -0.0 0.847998321056366
vn -0.8726146817207336 0.0 -0.48840925097465515
vn -0.8726146817207336 0.0 -0.48840925097465515
vn -0.8726146817207336 0.0 -0.48840925097465515
vn -0.8726146817207336 0.0 -0.48840925097465515
vn 0.0 -1.0 0.0
vn 0.0 -1.0 0.0
vn 0.0 -1.0 0.0
vn 0.0 -1.0 0.0
vn 0.0 -1.0 0.0
vn 0.0 -1.0 0.0
vn 0.0 -1.0 0.0
vn 0.0 -1.0 0.0
vn 0.0 -1.0 0.0
vn 0.0 -1.0 0.0
vn 0.0 -1.0 0.0
vn 0.0 -1.0 0.0
vn 0.0 -1.0 0.0
vn 0.0 -1.0 0.0
vn -0.14661544561386108 0.0 -0.9891935586929321
vn -0.14661544561386108 0.0 -0.9891935586929321
vn -0.14661544561386108 0.0 -0.9891935586929321
vn -0.14661544561386108 0.0 -0.9891935586929321
vn 0.0 0.0 -1.0
vn 0.0 0.0 -1.0
vn 0.0 0.0 -1.0
vn 0.0 0.0 -1.0
vn 0.0 0.0 -1.0
vn 0.0 0.0 -1.0
vn 0.10824771225452423 -0.0 0.9941239356994629
vn 0.10824771225452423 -0.0 0.9941239356994629
vn 0.10824771225452423 -0.0 0.9941239356994629
vn 0.10824771225452423 -0.0 0.9941239356994629
vn 0.10824771225452423 -0.0 0.9941239356994629
vn 0.10824771225452423 -0.0 0.9941239356994629
vn -0.38816502690315247 0.0 0.9215899109840393
vn -0.38816502690315247 0.0 0.9215899109840393
vn -0.38816502690315247 0.0 0.9215899109840393
vn -0.38816502690315247 0.0 0.9215899109840393
vn -0.18360882997512817 0.0 -0.9829993844032288
vn -0.18360882997512817 0.0 -0.9829993844032288
vn -0.18360882997512817 0.0 -0.9829993844032288
vn -0.18360882997512817 0.0 -0.9829993844032288
vn -0.979558527469635 0.0 -0.20115934312343597
vn -0.979558527469635 0.0 -0.20115934312343597
vn -0.979558527469635 0.0 -0.20115934312343597
vn -0.979558527469635 0.0 -0.20115934312343597
vn -0.4538290798664093 0.0 0.8910887241363525
vn -0.4538290798664093 0.0 0.8910887241363525
vn -0.4538290798664093 0.0 0.8910887241363525
vn -0.4538290798664093 0.0 0.8910887241363525
vn 0.0 1.0 0.0
vn 0.0 1.0 0.0
vn 0.0 1.0 0.0
vn 0.0 1.0 0.0
vn 0.0 1.0 0.0
vn 0.0 1.0 0.0
vn 0.0 1.0 0.0
vn 0.0 1.0 0.0
vn 0.0 1.0 0.0
vn 0.0 1.0 0.0
vn 0.0 1.0 0.0
vn 0.0 1.0 0.0
vn 0.0 1.0 0.0
vn 0.0 1.0 0.0
g 45215df4-e301-11ea-94bc-54bf646e7e1f
f 2//2 3//3 1//1
f 1//1 3//3 4//4
f 1//1 4//4 5//5
f 5//5 6//6 1//1
g 452332d0-e301-11ea-9013-54bf646e7e1f
f 7//7 8//8 9//9
g 4524b952-e301-11ea-a93d-54bf646e7e1f
f 10//10 11//11 13//13
f 13//13 11//11 12//12
g 4526671e-e301-11ea-b8a0-54bf646e7e1f
f 14//14 15//15 17//17
f 17//17 15//15 16//16
g 44ce0e70-e301-11ea-8ef2-54bf646e7e1f
f 19//19 20//20 18//18
f 18//18 20//20 21//21
g 452814f0-e301-11ea-890a-54bf646e7e1f
f 23//23 24//24 22//22
f 22//22 24//24 25//25
f 22//22 25//25 26//26
g 43c68b0a-e301-11ea-b16b-54bf646e7e1f
f 27//27 28//28 30//30
f 30//30 28//28 29//29
g 44cc60d2-e301-11ea-aeda-54bf646e7e1f
f 36//36 31//31 35//35
f 35//35 31//31 32//32
f 35//35 32//32 34//34
f 34//34 32//32 33//33
g 44d3b398-e301-11ea-9b76-54bf646e7e1f
f 37//37 38//38 40//40
f 40//40 38//38 39//39
g 44d5af88-e301-11ea-bbb4-54bf646e7e1f
f 42//42 43//43 41//41
f 41//41 43//43 44//44
f 41//41 44//44 45//45
f 45//45 46//46 41//41
g a79a5cd4-a027-3c86-ab26-b164e1f824e4
f 47//47 48//48 50//50
f 50//50 48//48 49//49
g 43c77534-e301-11ea-8254-54bf646e7e1f
f 51//51 52//52 54//54
f 54//54 52//52 53//53
g 441790c0-e301-11ea-88c8-54bf646e7e1f
f 55//55 56//56 58//58
f 58//58 56//56 57//57
g 4418f03a-e301-11ea-960c-54bf646e7e1f
f 59//59 60//60 62//62
f 62//62 60//60 61//61
g 441a01be-e301-11ea-8b80-54bf646e7e1f
f 63//63 64//64 66//66
f 66//66 64//64 65//65
g 441b614a-e301-11ea-aba8-54bf646e7e1f
f 67//67 68//68 70//70
f 70//70 68//68 69//69
g 441c99ca-e301-11ea-a477-54bf646e7e1f
f 71//71 72//72 74//74
f 74//74 72//72 73//73
g 43c3a4ba-e301-11ea-9d20-54bf646e7e1f
f 76//76 83//83 75//75
f 75//75 83//83 84//84
f 75//75 84//84 79//79
f 79//79 84//84 78//78
f 78//78 84//84 85//85
f 78//78 85//85 77//77
f 77//77 85//85 86//86
f 77//77 86//86 88//88
f 88//88 86//86 87//87
f 77//77 80//80 76//76
f 76//76 80//80 82//82
f 76//76 82//82 83//83
f 80//80 81//81 82//82
f 88//88 80//80 77//77
g 43c48f42-e301-11ea-9b40-54bf646e7e1f
f 90//90 91//91 89//89
f 89//89 91//91 92//92
g 43c5797a-e301-11ea-b63e-54bf646e7e1f
f 98//98 93//93 97//97
f 97//97 93//93 94//94
f 97//97 94//94 96//96
f 96//96 94//94 95//95
g 43c886d4-e301-11ea-9c0d-54bf646e7e1f
f 99//99 100//100 104//104
f 104//104 100//100 103//103
f 103//103 100//100 101//101
f 103//103 101//101 102//102
g 43c99826-e301-11ea-a5bc-54bf646e7e1f
f 106//106 107//107 105//105
f 105//105 107//107 108//108
g 43cf649c-e301-11ea-ab16-54bf646e7e1f
f 110//110 111//111 109//109
f 109//109 111//111 112//112
g 43d11234-e301-11ea-8e46-54bf646e7e1f
f 114//114 115//115 113//113
f 113//113 115//115 116//116
g 43d2bffa-e301-11ea-b44a-54bf646e7e1f
f 118//118 119//119 117//117
f 117//117 119//119 120//120
g 43d446da-e301-11ea-9d59-54bf646e7e1f
f 122//122 133//133 121//121
f 121//121 133//133 134//134
f 121//121 134//134 127//127
f 127//127 134//134 126//126
f 133//133 122//122 132//132
f 132//132 122//122 123//123
f 132//132 123//123 124//124
f 132//132 124//124 131//131
f 131//131 124//124 125//125
f 131//131 125//125 130//130
f 130//130 125//125 128//128
f 130//130 128//128 129//129
f 128//128 125//125 127//127
f 127//127 125//125 121//121

# End of file