# WaveFront *.obj file
# Vertices: 130
# Triangles : 96

v -3.6700000762939453 -1.1102230246251565e-15 -0.949999988079071
v -5.070000171661377 1.399999976158142 -0.949999988079071
v -5.070000171661377 2.057935953140259 -0.949999988079071
v -3.069999933242798 2.057935953140259 -0.949999988079071
v -3.069999933242798 1.899999976158142 -0.949999988079071
v -2.5350000858306885 1.899999976158142 -0.949999988079071
v -2.370649814605713 1.9216370582580566 -0.949999988079071
v -2.2174999713897705 1.9850739240646362 -0.949999988079071
v -2.085987091064453 2.085987091064453 -0.949999988079071
v -1.9850739240646362 2.2174999713897705 -0.949999988079071
v -1.9216370582580566 2.370649814605713 -0.949999988079071
v -1.899999976158142 2.5350000858306885 -0.949999988079071
v -1.899999976158142 7.625 -0.949999988079071
v -1.9216370582580566 7.7893500328063965 -0.949999988079071
v -1.9850739240646362 7.942500114440918 -0.949999988079071
v -2.085987091064453 8.074012756347656 -0.949999988079071
v -2.2174999713897705 8.174925804138184 -0.949999988079071
v -2.370649814605713 8.238363265991211 -0.949999988079071
v -2.5350000858306885 8.260000228881836 -0.949999988079071
v -5.070000171661377 8.260000228881836 -0.949999988079071
v -5.070000171661377 10.15999984741211 -0.949999988079071
v -1.399999976158142 10.15999984741211 -0.949999988079071
v 0.0 8.760000228881836 -0.949999988079071
v 0.0 1.399999976158142 -0.949999988079071
v -1.399999976158142 0.0 -0.949999988079071
v -5.070000171661377 1.399999976158142 -0.949999988079071
v -5.070000171661377 1.399999976158142 0.949999988079071
v -5.070000171661377 2.057935953140259 0.949999988079071
v -5.070000171661377 2.057935953140259 -0.949999988079071
v -5.070000171661377 2.057935953140259 -0.949999988079071
v -5.070000171661377 2.057935953140259 0.949999988079071
v -3.069999933242798 2.057935953140259 0.949999988079071
v -3.069999933242798 2.057935953140259 -0.949999988079071
v -3.069999933242798 2.057935953140259 -0.949999988079071
v -3.069999933242798 2.057935953140259 0.949999988079071
v -3.069999933242798 1.899999976158142 0.949999988079071
v -3.069999933242798 1.899999976158142 -0.949999988079071
v -3.069999933242798 1.899999976158142 -0.949999988079071
v -3.069999933242798 1.899999976158142 0.949999988079071
v -2.5350000858306885 1.899999976158142 0.949999988079071
v -2.5350000858306885 1.899999976158142 -0.949999988079071
v -2.5350000858306885 1.899999976158142 -0.949999988079071
v -2.5350000858306885 1.899999976158142 0.949999988079071
v -2.370649814605713 1.9216370582580566 0.949999988079071
v -2.2174999713897705 1.9850739240646362 0.949999988079071
v -2.085987091064453 2.085987091064453 0.949999988079071
v -1.9850739240646362 2.2174999713897705 0.949999988079071
v -1.9216370582580566 2.370649814605713 0.949999988079071
v -1.899999976158142 2.5350000858306885 0.949999988079071
v -1.899999976158142 2.5350000858306885 -0.949999988079071
v -1.9216370582580566 2.370649814605713 -0.949999988079071
v -1.9850739240646362 2.2174999713897705 -0.949999988079071
v -2.085987091064453 2.085987091064453 -0.949999988079071
v -2.2174999713897705 1.9850739240646362 -0.949999988079071
v -2.370649814605713 1.9216370582580566 -0.949999988079071
v -1.899999976158142 2.5350000858306885 -0.949999988079071
v -1.899999976158142 2.5350000858306885 0.949999988079071
v -1.899999976158142 7.625 0.949999988079071
v -1.899999976158142 7.625 -0.949999988079071
v -1.899999976158142 7.625 -0.949999988079071
v -1.899999976158142 7.625 0.949999988079071
v -1.9216370582580566 7.7893500328063965 0.949999988079071
v -1.9850739240646362 7.942500114440918 0.949999988079071
v -2.085987091064453 8.074012756347656 0.949999988079071
v -2.2174999713897705 8.174925804138184 0.949999988079071
v -2.370649814605713 8.238363265991211 0.949999988079071
v -2.5350000858306885 8.260000228881836 0.949999988079071
v -2.5350000858306885 8.260000228881836 -0.949999988079071
v -2.370649814605713 8.238363265991211 -0.949999988079071
v -2.2174999713897705 8.174925804138184 -0.949999988079071
v -2.085987091064453 8.074012756347656 -0.949999988079071
v -1.9850739240646362 7.942500114440918 -0.949999988079071
v -1.9216370582580566 7.7893500328063965 -0.949999988079071
v -2.5350000858306885 8.260000228881836 -0.949999988079071
v -2.5350000858306885 8.260000228881836 0.949999988079071
v -5.070000171661377 8.260000228881836 0.949999988079071
v -5.070000171661377 8.260000228881836 -0.949999988079071
v -5.070000171661377 8.260000228881836 -0.949999988079071
v -5.070000171661377 8.260000228881836 0.949999988079071
v -5.070000171661377 10.15999984741211 0.949999988079071
v -5.070000171661377 10.15999984741211 -0.949999988079071
v -5.070000171661377 10.15999984741211 -0.949999988079071
v -5.070000171661377 10.15999984741211 0.949999988079071
v -1.399999976158142 10.15999984741211 0.949999988079071
v -1.399999976158142 10.15999984741211 -0.949999988079071
v -1.399999976158142 10.15999984741211 -0.949999988079071
v -1.399999976158142 10.15999984741211 0.949999988079071
v 0.0 8.760000228881836 0.949999988079071
v 0.0 8.760000228881836 -0.949999988079071
v 0.0 8.760000228881836 -0.949999988079071
v 0.0 8.760000228881836 0.949999988079071
v 0.0 1.399999976158142 0.949999988079071
v 0.0 1.399999976158142 -0.949999988079071
v 0.0 1.399999976158142 -0.949999988079071
v 0.0 1.399999976158142 0.949999988079071
v -1.399999976158142 0.0 0.949999988079071
v -1.399999976158142 0.0 -0.949999988079071
v -1.399999976158142 0.0 -0.949999988079071
v -1.399999976158142 0.0 0.949999988079071
v -3.6700000762939453 -1.1102230246251565e-15 0.949999988079071
v -3.6700000762939453 -1.1102230246251565e-15 -0.949999988079071
v -3.6700000762939453 -1.1102230246251565e-15 -0.949999988079071
v -3.6700000762939453 -1.1102230246251565e-15 0.949999988079071
v -5.070000171661377 1.399999976158142 0.949999988079071
v -5.070000171661377 1.399999976158142 -0.949999988079071
v -5.070000171661377 1.399999976158142 0.949999988079071
v -3.6700000762939453 -1.1102230246251565e-15 0.949999988079071
v -1.399999976158142 0.0 0.949999988079071
v 0.0 1.399999976158142 0.949999988079071
v 0.0 8.760000228881836 0.949999988079071
v -1.399999976158142 10.15999984741211 0.949999988079071
v -5.070000171661377 10.15999984741211 0.949999988079071
v -5.070000171661377 8.260000228881836 0.949999988079071
v -2.5350000858306885 8.260000228881836 0.949999988079071
v -2.370649814605713 8.238363265991211 0.949999988079071
v -2.2174999713897705 8.174925804138184 0.949999988079071
v -2.085987091064453 8.074012756347656 0.949999988079071
v -1.9850739240646362 7.942500114440918 0.949999988079071
v -1.9216370582580566 7.7893500328063965 0.949999988079071
v -1.899999976158142 7.625 0.949999988079071
v -1.899999976158142 2.5350000858306885 0.949999988079071
v -1.9216370582580566 2.370649814605713 0.949999988079071
v -1.9850739240646362 2.2174999713897705 0.949999988079071
v -2.085987091064453 2.085987091064453 0.949999988079071
v -2.2174999713897705 1.9850739240646362 0.949999988079071
v -2.370649814605713 1.9216370582580566 0.949999988079071
v -2.5350000858306885 1.899999976158142 0.949999988079071
v -3.069999933242798 1.899999976158142 0.949999988079071
v -3.069999933242798 2.057935953140259 0.949999988079071
v -5.070000171661377 2.057935953140259 0.949999988079071
vn -0.0 -0.0 -1.0
vn -0.0 -0.0 -1.0
vn -0.0 -0.0 -1.0
vn -0.0 -0.0 -1.0
vn -0.0 -0.0 -1.0
vn -0.0 -0.0 -1.0
vn -0.0 -0.0 -1.0
vn -0.0 -0.0 -1.0
vn -0.0 -0.0 -1.0
vn -0.0 -0.0 -1.0
vn -0.0 -0.0 -1.0
vn -0.0 -0.0 -1.0
vn -0.0 -0.0 -1.0
vn -0.0 -0.0 -1.0
vn -0.0 -0.0 -1.0
vn -0.0 -0.0 -1.0
vn -0.0 -0.0 -1.0
vn -0.0 -0.0 -1.0
vn -0.0 -0.0 -1.0
vn -0.0 -0.0 -1.0
vn -0.0 -0.0 -1.0
vn -0.0 -0.0 -1.0
vn -0.0 -0.0 -1.0
vn -0.0 -0.0 -1.0
vn -0.0 -0.0 -1.0
vn -1.0 -1.8018129323223208e-15 0.0
vn -1.0 -1.8018129323223208e-15 0.0
vn -1.0 -1.8018129323223208e-15 0.0
vn -1.0 -1.8018129323223208e-15 0.0
vn 2.220446049250313e-16 1.0 -0.0
vn 2.220446049250313e-16 1.0 -0.0
vn 2.220446049250313e-16 1.0 -0.0
vn 2.220446049250313e-16 1.0 -0.0
vn 1.0 0.0 -0.0
vn 1.0 0.0 -0.0
vn 1.0 0.0 -0.0
vn 1.0 0.0 -0.0
vn 8.300732830074603e-16 1.0 -0.0
vn 8.300732830074603e-16 1.0 -0.0
vn 8.300732830074603e-16 1.0 -0.0
vn 8.300732830074603e-16 1.0 -0.0
vn -0.0 1.0 0.0
vn -0.0 1.0 0.0
vn -0.258819043636322 0.9659258127212524 0.0
vn -0.5 0.8660253882408142 0.0
vn -0.7071067690849304 0.7071067690849304 0.0
vn -0.8660253882408142 0.5 0.0
vn -0.9659258127212524 0.258819043636322 0.0
vn -1.0 6.123234262925839e-17 0.0
vn -1.0 6.123234262925839e-17 0.0
vn -0.9659258127212524 0.258819043636322 0.0
vn -0.8660253882408142 0.5 0.0
vn -0.7071067690849304 0.7071067690849304 0.0
vn -0.5 0.8660253882408142 0.0
vn -0.258819043636322 0.9659258127212524 0.0
vn -1.0 3.9261324417018547e-16 0.0
vn -1.0 3.9261324417018547e-16 0.0
vn -1.0 3.9261324417018547e-16 0.0
vn -1.0 3.9261324417018547e-16 0.0
vn -1.0 0.0 0.0
vn -1.0 0.0 0.0
vn -0.9659258127212524 -0.258819043636322 0.0
vn -0.8660253882408142 -0.5 0.0
vn -0.7071067690849304 -0.7071067690849304 0.0
vn -0.5 -0.8660253882408142 0.0
vn -0.258819043636322 -0.9659258127212524 0.0
vn -1.3934999589445564e-15 -1.0 0.0
vn -1.3934999589445564e-15 -1.0 0.0
vn -0.258819043636322 -0.9659258127212524 0.0
vn -0.5 -0.8660253882408142 0.0
vn -0.7071067690849304 -0.7071067690849304 0.0
vn -0.8660253882408142 -0.5 0.0
vn -0.9659258127212524 -0.258819043636322 0.0
vn -1.4014649273849438e-15 -1.0 0.0
vn -1.4014649273849438e-15 -1.0 0.0
vn -1.4014649273849438e-15 -1.0 0.0
vn -1.4014649273849438e-15 -1.0 0.0
vn -1.0 4.674623428757162e-16 0.0
vn -1.0 4.674623428757162e-16 0.0
vn -1.0 4.674623428757162e-16 0.0
vn -1.0 4.674623428757162e-16 0.0
vn 4.840209370220313e-16 1.0 -0.0
vn 4.840209370220313e-16 1.0 -0.0
vn 4.840209370220313e-16 1.0 -0.0
vn 4.840209370220313e-16 1.0 -0.0
vn 0.7071067690849304 0.7071067690849304 -0.0
vn 0.7071067690849304 0.7071067690849304 -0.0
vn 0.7071067690849304 0.7071067690849304 -0.0
vn 0.7071067690849304 0.7071067690849304 -0.0
vn 1.0 0.0 0.0
vn 1.0 0.0 0.0
vn 1.0 0.0 0.0
vn 1.0 0.0 0.0
vn 0.7071067690849304 -0.7071067690849304 0.0
vn 0.7071067690849304 -0.7071067690849304 0.0
vn 0.7071067690849304 -0.7071067690849304 0.0
vn 0.7071067690849304 -0.7071067690849304 0.0
vn 4.684962524669585e-16 -1.0 0.0
vn 4.684962524669585e-16 -1.0 0.0
vn 4.684962524669585e-16 -1.0 0.0
vn 4.684962524669585e-16 -1.0 0.0
vn -0.7071067690849304 -0.7071067690849304 0.0
vn -0.7071067690849304 -0.7071067690849304 0.0
vn -0.7071067690849304 -0.7071067690849304 0.0
vn -0.7071067690849304 -0.7071067690849304 0.0
vn 0.0 0.0 1.0
vn 0.0 0.0 1.0
vn 0.0 0.0 1.0
vn 0.0 0.0 1.0
vn 0.0 0.0 1.0
vn 0.0 0.0 1.0
vn 0.0 0.0 1.0
vn 0.0 0.0 1.0
vn 0.0 0.0 1.0
vn 0.0 0.0 1.0
vn 0.0 0.0 1.0
vn 0.0 0.0 1.0
vn 0.0 0.0 1.0
vn 0.0 0.0 1.0
vn 0.0 0.0 1.0
vn 0.0 0.0 1.0
vn 0.0 0.0 1.0
vn 0.0 0.0 1.0
vn 0.0 0.0 1.0
vn 0.0 0.0 1.0
vn 0.0 0.0 1.0
vn 0.0 0.0 1.0
vn 0.0 0.0 1.0
vn 0.0 0.0 1.0
vn 0.0 0.0 1.0
g 79741862-e308-11ea-a427-54bf646e7e1f
f 2//2 3//3 1//1
f 1//1 3//3 5//5
f 1//1 5//5 6//6
f 3//3 4//4 5//5
f 1//1 6//6 25//25
f 25//25 6//6 7//7
f 25//25 7//7 8//8
f 8//8 9//9 25//25
f 25//25 9//9 10//10
f 25//25 10//10 11//11
f 25//25 11//11 24//24
f 24//24 11//11 12//12
f 24//24 12//12 13//13
f 24//24 13//13 23//23
f 23//23 13//13 14//14
f 23//23 14//14 22//22
f 22//22 14//14 15//15
f 22//22 15//15 16//16
f 16//16 17//17 22//22
f 22//22 17//17 18//18
f 22//22 18//18 19//19
f 20//20 21//21 19//19
f 19//19 21//21 22//22
g 79748d7a-e308-11ea-99d0-54bf646e7e1f
f 27//27 28//28 26//26
f 26//26 28//28 29//29
g 7974b494-e308-11ea-a99b-54bf646e7e1f
f 31//31 32//32 30//30
f 30//30 32//32 33//33
g 797529ac-e308-11ea-ab96-54bf646e7e1f
f 35//35 36//36 34//34
f 34//34 36//36 37//37
g 79759ed0-e308-11ea-91a4-54bf646e7e1f
f 39//39 40//40 38//38
f 38//38 40//40 41//41
g 79761408-e308-11ea-a08b-54bf646e7e1f
f 42//42 43//43 55//55
f 55//55 43//43 44//44
f 55//55 44//44 54//54
f 54//54 44//44 45//45
f 54//54 45//45 53//53
f 53//53 45//45 46//46
f 53//53 46//46 52//52
f 52//52 46//46 47//47
f 52//52 47//47 51//51
f 51//51 47//47 48//48
f 51//51 48//48 50//50
f 50//50 48//48 49//49
g 79766230-e308-11ea-8496-54bf646e7e1f
f 57//57 58//58 56//56
f 56//56 58//58 59//59
g 7976d75c-e308-11ea-8d3d-54bf646e7e1f
f 60//60 61//61 73//73
f 73//73 61//61 62//62
f 73//73 62//62 72//72
f 72//72 62//62 63//63
f 72//72 63//63 71//71
f 71//71 63//63 64//64
f 71//71 64//64 70//70
f 70//70 64//64 65//65
f 70//70 65//65 69//69
f 69//69 65//65 66//66
f 69//69 66//66 68//68
f 68//68 66//66 67//67
g 79774c80-e308-11ea-89d3-54bf646e7e1f
f 75//75 76//76 74//74
f 74//74 76//76 77//77
g 7977c1a2-e308-11ea-8969-54bf646e7e1f
f 79//79 80//80 78//78
f 78//78 80//80 81//81
g 79780fb4-e308-11ea-bad8-54bf646e7e1f
f 83//83 84//84 82//82
f 82//82 84//84 85//85
g 79785dd4-e308-11ea-8f4c-54bf646e7e1f
f 87//87 88//88 86//86
f 86//86 88//88 89//89
g 7978d322-e308-11ea-934b-54bf646e7e1f
f 91//91 92//92 90//90
f 90//90 92//92 93//93
g 79792122-e308-11ea-a918-54bf646e7e1f
f 95//95 96//96 94//94
f 94//94 96//96 97//97
g 79799646-e308-11ea-93bb-54bf646e7e1f
f 99//99 100//100 98//98
f 98//98 100//100 101//101
g 7979e466-e308-11ea-b437-54bf646e7e1f
f 103//103 104//104 102//102
f 102//102 104//104 105//105
g 797a599a-e308-11ea-a6c3-54bf646e7e1f
f 106//106 107//107 130//130
f 130//130 107//107 128//128
f 130//130 128//128 129//129
f 128//128 107//107 127//127
f 127//127 107//107 108//108
f 127//127 108//108 126//126
f 126//126 108//108 125//125
f 125//125 108//108 124//124
f 124//124 108//108 123//123
f 123//123 108//108 122//122
f 122//122 108//108 109//109
f 122//122 109//109 121//121
f 121//121 109//109 120//120
f 120//120 109//109 110//110
f 120//120 110//110 119//119
f 119//119 110//110 111//111
f 119//119 111//111 118//118
f 118//118 111//111 117//117
f 117//117 111//111 116//116
f 116//116 111//111 115//115
f 115//115 111//111 114//114
f 114//114 111//111 112//112
f 114//114 112//112 113//113

# End of file