# WaveFront *.obj file
# Vertices: 116
# Triangles : 108

v 0.0 1.0 0.25
v 0.0 1.1016842126846313 0.22838635742664337
v 0.0 1.185786247253418 0.16728265583515167
v 0.0 1.2377641201019287 0.07725425064563751
v 0.0 1.2486305236816406 -0.026132116094231606
v 0.0 1.2165063619613647 -0.125
v 0.0 1.1469463109970093 -0.2022542506456375
v 0.0 1.0519778728485107 -0.24453690648078918
v 0.0 0.9480220675468445 -0.24453690648078918
v 0.0 0.8530536890029907 -0.2022542506456375
v 0.0 0.7834936380386353 -0.125
v 0.0 0.7513695359230042 -0.026132116094231606
v 0.0 0.7622358798980713 0.07725425064563751
v 0.0 0.8142138123512268 0.16728265583515167
v 0.0 0.8983158469200134 0.22838635742664337
v 0.5 1.0 0.25
v 0.5 0.8983158469200134 0.22838635742664337
v 0.5 0.8142138123512268 0.16728265583515167
v 0.5 0.7622358798980713 0.07725425064563751
v 0.5 0.7513695359230042 -0.026132116094231606
v 0.5 0.7834936380386353 -0.125
v 0.5 0.8530536890029907 -0.2022542506456375
v 0.5 0.9480220675468445 -0.24453690648078918
v 0.5 1.0519778728485107 -0.24453690648078918
v 0.5 1.1469463109970093 -0.2022542506456375
v 0.5 1.2165063619613647 -0.125
v 0.5 1.2486305236816406 -0.026132116094231606
v 0.5 1.2377641201019287 0.07725425064563751
v 0.5 1.185786247253418 0.16728265583515167
v 0.5 1.1016842126846313 0.22838635742664337
v 0.0 1.0 0.25
v 0.5 1.0 0.25
v 0.0 2.799999952316284 5.849999904632568
v 0.0 2.8390915393829346 5.831174373626709
v 0.0 2.8487465381622314 5.78887414932251
v 0.0 2.8216941356658936 5.754951477050781
v 0.0 2.778305768966675 5.754951477050781
v 0.0 2.751253604888916 5.78887414932251
v 0.0 2.760908365249634 5.831174373626709
v 0.5 2.799999952316284 5.849999904632568
v 0.5 2.760908365249634 5.831174373626709
v 0.5 2.751253604888916 5.78887414932251
v 0.5 2.778305768966675 5.754951477050781
v 0.5 2.8216941356658936 5.754951477050781
v 0.5 2.8487465381622314 5.78887414932251
v 0.5 2.8390915393829346 5.831174373626709
v 0.0 2.799999952316284 5.849999904632568
v 0.5 2.799999952316284 5.849999904632568
v 0.0 3.0 6.0
v 0.0 0.0 6.0
v 0.5 0.0 6.0
v 0.5 3.0 6.0
v 0.0 3.0 -5.0
v 0.0 3.0 6.0
v 0.5 3.0 6.0
v 0.5 3.0 -5.0
v 0.0 0.0 -5.0
v 0.0 3.0 -5.0
v 0.5 3.0 -5.0
v 0.5 0.0 -5.0
v 0.0 0.0 6.0
v 0.0 0.0 -5.0
v 0.5 0.0 -5.0
v 0.5 0.0 6.0
v 0.5 1.0 0.25
v 0.5 1.1016842126846313 0.22838635742664337
v 0.5 1.185786247253418 0.16728265583515167
v 0.5 1.2377641201019287 0.07725425064563751
v 0.5 1.2486305236816406 -0.026132116094231606
v 0.5 1.2165063619613647 -0.125
v 0.5 1.1469463109970093 -0.2022542506456375
v 0.5 1.0519778728485107 -0.24453690648078918
v 0.5 0.9480220675468445 -0.24453690648078918
v 0.5 0.8530536890029907 -0.2022542506456375
v 0.5 0.7834936380386353 -0.125
v 0.5 0.7513695359230042 -0.026132116094231606
v 0.5 0.7622358798980713 0.07725425064563751
v 0.5 0.8142138123512268 0.16728265583515167
v 0.5 0.8983158469200134 0.22838635742664337
v 0.5 2.799999952316284 5.849999904632568
v 0.5 2.8390915393829346 5.831174373626709
v 0.5 2.8487465381622314 5.78887414932251
v 0.5 2.8216941356658936 5.754951477050781
v 0.5 2.778305768966675 5.754951477050781
v 0.5 2.751253604888916 5.78887414932251
v 0.5 2.760908365249634 5.831174373626709
v 0.5 0.0 6.0
v 0.5 0.0 -5.0
v 0.5 3.0 -5.0
v 0.5 3.0 6.0
v 0.0 1.0 0.25
v 0.0 0.8983158469200134 0.22838635742664337
v 0.0 0.8142138123512268 0.16728265583515167
v 0.0 0.7622358798980713 0.07725425064563751
v 0.0 0.7513695359230042 -0.026132116094231606
v 0.0 0.7834936380386353 -0.125
v 0.0 0.8530536890029907 -0.2022542506456375
v 0.0 0.9480220675468445 -0.24453690648078918
v 0.0 1.0519778728485107 -0.24453690648078918
v 0.0 1.1469463109970093 -0.2022542506456375
v 0.0 1.2165063619613647 -0.125
v 0.0 1.2486305236816406 -0.026132116094231606
v 0.0 1.2377641201019287 0.07725425064563751
v 0.0 1.185786247253418 0.16728265583515167
v 0.0 1.1016842126846313 0.22838635742664337
v 0.0 2.799999952316284 5.849999904632568
v 0.0 2.760908365249634 5.831174373626709
v 0.0 2.751253604888916 5.78887414932251
v 0.0 2.778305768966675 5.754951477050781
v 0.0 2.8216941356658936 5.754951477050781
v 0.0 2.8487465381622314 5.78887414932251
v 0.0 2.8390915393829346 5.831174373626709
v 0.0 0.0 -5.0
v 0.0 0.0 6.0
v 0.0 3.0 6.0
v 0.0 3.0 -5.0
vn -0.0 -1.2246468525851679e-16 -1.0
vn -0.0 -0.4067366421222687 -0.9135454297065735
vn -0.0 -0.7431448101997375 -0.6691306233406067
vn -0.0 -0.9510565400123596 -0.30901700258255005
vn 0.0 -0.9945219159126282 0.10452846437692642
vn 0.0 -0.8660253882408142 0.5
vn 0.0 -0.5877852439880371 0.80901700258255
vn 0.0 -0.2079116851091385 0.9781476259231567
vn 0.0 0.2079116851091385 0.9781476259231567
vn 0.0 0.5877852439880371 0.80901700258255
vn 0.0 0.8660253882408142 0.5
vn 0.0 0.9945219159126282 0.10452846437692642
vn 0.0 0.9510565400123596 -0.30901700258255005
vn 0.0 0.7431448101997375 -0.6691306233406067
vn 0.0 0.4067366421222687 -0.9135454297065735
vn 0.0 1.2246468525851679e-16 -1.0
vn 0.0 0.4067366421222687 -0.9135454297065735
vn 0.0 0.7431448101997375 -0.6691306233406067
vn 0.0 0.9510565400123596 -0.30901700258255005
vn 0.0 0.9945219159126282 0.10452846437692642
vn 0.0 0.8660253882408142 0.5
vn 0.0 0.5877852439880371 0.80901700258255
vn 0.0 0.2079116851091385 0.9781476259231567
vn 0.0 -0.2079116851091385 0.9781476259231567
vn 0.0 -0.5877852439880371 0.80901700258255
vn 0.0 -0.8660253882408142 0.5
vn 0.0 -0.9945219159126282 0.10452846437692642
vn -0.0 -0.9510565400123596 -0.30901700258255005
vn -0.0 -0.7431448101997375 -0.6691306233406067
vn -0.0 -0.4067366421222687 -0.9135454297065735
vn 0.0 1.2246468525851679e-16 -1.0
vn -0.0 -1.2246468525851679e-16 -1.0
vn -0.0 -1.2246468525851679e-16 -1.0
vn -0.0 -0.7818315029144287 -0.6234897971153259
vn 0.0 -0.9749279022216797 0.22252093255519867
vn 0.0 -0.4338837265968323 0.9009688496589661
vn 0.0 0.4338837265968323 0.9009688496589661
vn 0.0 0.9749279022216797 0.22252093255519867
vn 0.0 0.7818315029144287 -0.6234897971153259
vn 0.0 1.2246468525851679e-16 -1.0
vn 0.0 0.7818315029144287 -0.6234897971153259
vn 0.0 0.9749279022216797 0.22252093255519867
vn 0.0 0.4338837265968323 0.9009688496589661
vn 0.0 -0.4338837265968323 0.9009688496589661
vn 0.0 -0.9749279022216797 0.22252093255519867
vn -0.0 -0.7818315029144287 -0.6234897971153259
vn 0.0 1.2246468525851679e-16 -1.0
vn -0.0 -1.2246468525851679e-16 -1.0
vn 0.0 0.0 1.0
vn 0.0 0.0 1.0
vn 0.0 0.0 1.0
vn 0.0 0.0 1.0
vn -0.0 1.0 0.0
vn -0.0 1.0 0.0
vn -0.0 1.0 0.0
vn -0.0 1.0 0.0
vn 0.0 0.0 -1.0
vn 0.0 0.0 -1.0
vn 0.0 0.0 -1.0
vn 0.0 0.0 -1.0
vn 0.0 -1.0 0.0
vn 0.0 -1.0 0.0
vn 0.0 -1.0 0.0
vn 0.0 -1.0 0.0
vn 1.0 0.0 0.0
vn 1.0 0.0 0.0
vn 1.0 0.0 0.0
vn 1.0 0.0 0.0
vn 1.0 0.0 0.0
vn 1.0 0.0 0.0
vn 1.0 0.0 0.0
vn 1.0 0.0 0.0
vn 1.0 0.0 0.0
vn 1.0 0.0 0.0
vn 1.0 0.0 0.0
vn 1.0 0.0 0.0
vn 1.0 0.0 0.0
vn 1.0 0.0 0.0
vn 1.0 0.0 0.0
vn 1.0 0.0 0.0
vn 1.0 0.0 0.0
vn 1.0 0.0 0.0
vn 1.0 0.0 0.0
vn 1.0 0.0 0.0
vn 1.0 0.0 0.0
vn 1.0 0.0 0.0
vn 1.0 0.0 0.0
vn 1.0 0.0 0.0
vn 1.0 0.0 0.0
vn 1.0 0.0 0.0
vn -1.0 -0.0 -0.0
vn -1.0 -0.0 -0.0
vn -1.0 -0.0 -0.0
vn -1.0 -0.0 -0.0
vn -1.0 -0.0 -0.0
vn -1.0 -0.0 -0.0
vn -1.0 -0.0 -0.0
vn -1.0 -0.0 -0.0
vn -1.0 -0.0 -0.0
vn -1.0 -0.0 -0.0
vn -1.0 -0.0 -0.0
vn -1.0 -0.0 -0.0
vn -1.0 -0.0 -0.0
vn -1.0 -0.0 -0.0
vn -1.0 -0.0 -0.0
vn -1.0 -0.0 -0.0
vn -1.0 -0.0 -0.0
vn -1.0 -0.0 -0.0
vn -1.0 -0.0 -0.0
vn -1.0 -0.0 -0.0
vn -1.0 -0.0 -0.0
vn -1.0 -0.0 -0.0
vn -1.0 -0.0 -0.0
vn -1.0 -0.0 -0.0
vn -1.0 -0.0 -0.0
vn -1.0 -0.0 -0.0
g 6f990712-e30a-11ea-8890-54bf646e7e1f
f 2//2 30//30 1//1
f 1//1 30//30 32//32
f 31//31 16//16 15//15
f 15//15 16//16 17//17
f 15//15 17//17 14//14
f 14//14 17//17 18//18
f 14//14 18//18 13//13
f 13//13 18//18 19//19
f 13//13 19//19 12//12
f 12//12 19//19 20//20
f 12//12 20//20 11//11
f 11//11 20//20 21//21
f 11//11 21//21 10//10
f 10//10 21//21 22//22
f 10//10 22//22 9//9
f 9//9 22//22 23//23
f 9//9 23//23 8//8
f 8//8 23//23 24//24
f 8//8 24//24 7//7
f 7//7 24//24 25//25
f 7//7 25//25 6//6
f 6//6 25//25 26//26
f 6//6 26//26 5//5
f 5//5 26//26 27//27
f 5//5 27//27 4//4
f 4//4 27//27 28//28
f 4//4 28//28 3//3
f 3//3 28//28 29//29
f 3//3 29//29 2//2
f 2//2 29//29 30//30
g 6f6c2c1a-e30a-11ea-afc8-54bf646e7e1f
f 34//34 46//46 33//33
f 33//33 46//46 48//48
f 47//47 40//40 39//39
f 39//39 40//40 41//41
f 39//39 41//41 38//38
f 38//38 41//41 42//42
f 38//38 42//42 37//37
f 37//37 42//42 43//43
f 37//37 43//43 36//36
f 36//36 43//43 44//44
f 36//36 44//44 35//35
f 35//35 44//44 45//45
f 35//35 45//45 34//34
f 34//34 45//45 46//46
g 6f46a3e6-e30a-11ea-b212-54bf646e7e1f
f 49//49 50//50 52//52
f 52//52 50//50 51//51
g 6f46f206-e30a-11ea-b0aa-54bf646e7e1f
f 53//53 54//54 56//56
f 56//56 54//54 55//55
g 6f476734-e30a-11ea-9d3a-54bf646e7e1f
f 57//57 58//58 60//60
f 60//60 58//58 59//59
g 6f47b558-e30a-11ea-9a7e-54bf646e7e1f
f 61//61 62//62 64//64
f 64//64 62//62 63//63
g 6f482a80-e30a-11ea-82d3-54bf646e7e1f
f 79//79 65//65 87//87
f 87//87 65//65 66//66
f 87//87 66//66 85//85
f 85//85 66//66 67//67
f 85//85 67//67 68//68
f 68//68 69//69 85//85
f 85//85 69//69 84//84
f 84//84 69//69 89//89
f 84//84 89//89 83//83
f 83//83 89//89 82//82
f 82//82 89//89 90//90
f 82//82 90//90 81//81
f 81//81 90//90 80//80
f 80//80 90//90 86//86
f 86//86 90//90 87//87
f 86//86 87//87 85//85
f 69//69 70//70 89//89
f 89//89 70//70 71//71
f 89//89 71//71 88//88
f 88//88 71//71 72//72
f 88//88 72//72 73//73
f 73//73 74//74 88//88
f 88//88 74//74 75//75
f 88//88 75//75 76//76
f 88//88 76//76 87//87
f 87//87 76//76 77//77
f 87//87 77//77 78//78
f 78//78 79//79 87//87
g 6f48789a-e30a-11ea-b587-54bf646e7e1f
f 105//105 91//91 114//114
f 114//114 91//91 92//92
f 114//114 92//92 93//93
f 93//93 94//94 114//114
f 114//114 94//94 95//95
f 114//114 95//95 113//113
f 113//113 95//95 96//96
f 113//113 96//96 97//97
f 97//97 98//98 113//113
f 113//113 98//98 99//99
f 113//113 99//99 100//100
f 113//113 100//100 116//116
f 116//116 100//100 101//101
f 116//116 101//101 102//102
f 103//103 108//108 102//102
f 102//102 108//108 109//109
f 102//102 109//109 116//116
f 116//116 109//109 110//110
f 116//116 110//110 111//111
f 103//103 104//104 108//108
f 108//108 104//104 105//105
f 108//108 105//105 114//114
f 112//112 106//106 115//115
f 115//115 106//106 107//107
f 115//115 107//107 114//114
f 114//114 107//107 108//108
f 116//116 111//111 115//115
f 115//115 111//111 112//112

# End of file