# WaveFront *.obj file
# Vertices: 24
# Triangles : 12

v 0.0 0.0 0.0
v 0.0 0.0 3.0
v 0.0 0.5 3.0
v 0.0 0.5 0.0
v 4.5 0.0 0.0
v 0.0 0.0 0.0
v 0.0 0.5 0.0
v 4.5 0.5 0.0
v 4.5 0.0 3.0
v 4.5 0.0 0.0
v 4.5 0.5 0.0
v 4.5 0.5 3.0
v 0.0 0.0 3.0
v 4.5 0.0 3.0
v 4.5 0.5 3.0
v 0.0 0.5 3.0
v 0.0 0.5 3.0
v 4.5 0.5 3.0
v 4.5 0.5 0.0
v 0.0 0.5 0.0
v 4.5 0.0 3.0
v 0.0 0.0 3.0
v 0.0 0.0 0.0
v 4.5 0.0 0.0
vn -1.0 0.0 0.0
vn -1.0 0.0 0.0
vn -1.0 0.0 0.0
vn -1.0 0.0 0.0
vn 0.0 0.0 -1.0
vn 0.0 0.0 -1.0
vn 0.0 0.0 -1.0
vn 0.0 0.0 -1.0
vn 1.0 0.0 0.0
vn 1.0 0.0 0.0
vn 1.0 0.0 0.0
vn 1.0 0.0 0.0
vn 0.0 -0.0 1.0
vn 0.0 -0.0 1.0
vn 0.0 -0.0 1.0
vn 0.0 -0.0 1.0
vn 0.0 1.0 0.0
vn 0.0 1.0 0.0
vn 0.0 1.0 0.0
vn 0.0 1.0 0.0
vn -0.0 -1.0 -0.0
vn -0.0 -1.0 -0.0
vn -0.0 -1.0 -0.0
vn -0.0 -1.0 -0.0
g 9b23652e-e30a-11ea-9d32-54bf646e7e1f
f 1//1 2//2 4//4
f 4//4 2//2 3//3
g 9b238c3a-e30a-11ea-8bbd-54bf646e7e1f
f 5//5 6//6 8//8
f 8//8 6//6 7//7
g 9b23b352-e30a-11ea-aa3c-54bf646e7e1f
f 9//9 10//10 12//12
f 12//12 10//10 11//11
g 9b24016e-e30a-11ea-91ff-54bf646e7e1f
f 13//13 14//14 16//16
f 16//16 14//14 15//15
g 9b242878-e30a-11ea-a886-54bf646e7e1f
f 18//18 19//19 17//17
f 17//17 19//19 20//20
g 9b244f88-e30a-11ea-8c01-54bf646e7e1f
f 21//21 22//22 24//24
f 24//24 22//22 23//23

# End of file