# WaveFront *.obj file
# Vertices: 66
# Triangles : 40

v -15.0 15.0 9.0
v -15.0 15.0 5.0
v -15.0 10.0 5.329070518200751e-15
v -15.0 15.0 -5.0
v -15.0 15.0 -9.0
v -15.0 2.0 -9.0
v -15.0 2.0 -17.0
v -15.0 0.0 -17.0
v -15.0 -8.881784197001252e-15 17.0
v -15.0 2.0 17.0
v -15.0 2.0 9.0
v -15.0 15.0 5.0
v 15.0 15.0 5.0
v 15.0 10.0 5.329070518200751e-15
v -15.0 10.0 5.329070518200751e-15
v -15.0 10.0 5.329070518200751e-15
v 15.0 10.0 5.329070518200751e-15
v 15.0 15.0 -5.0
v -15.0 15.0 -5.0
v -15.0 15.0 -5.0
v 15.0 15.0 -5.0
v 15.0 15.0 -9.0
v -15.0 15.0 -9.0
v -15.0 15.0 -9.0
v 15.0 15.0 -9.0
v 15.0 2.0 -9.0
v -15.0 2.0 -9.0
v -15.0 2.0 -9.0
v 15.0 2.0 -9.0
v 15.0 2.0 -17.0
v -15.0 2.0 -17.0
v -15.0 2.0 -17.0
v 15.0 2.0 -17.0
v 15.0 0.0 -17.0
v -15.0 0.0 -17.0
v -15.0 0.0 -17.0
v 15.0 0.0 -17.0
v 15.0 -8.881784197001252e-15 17.0
v -15.0 -8.881784197001252e-15 17.0
v -15.0 -8.881784197001252e-15 17.0
v 15.0 -8.881784197001252e-15 17.0
v 15.0 2.0 17.0
v -15.0 2.0 17.0
v -15.0 2.0 17.0
v 15.0 2.0 17.0
v 15.0 2.0 9.0
v -15.0 2.0 9.0
v -15.0 2.0 9.0
v 15.0 2.0 9.0
v 15.0 15.0 9.0
v -15.0 15.0 9.0
v -15.0 15.0 9.0
v 15.0 15.0 9.0
v 15.0 15.0 5.0
v -15.0 15.0 5.0
v 15.0 15.0 5.0
v 15.0 15.0 9.0
v 15.0 2.0 9.0
v 15.0 2.0 17.0
v 15.0 -8.881784197001252e-15 17.0
v 15.0 0.0 -17.0
v 15.0 2.0 -17.0
v 15.0 2.0 -9.0
v 15.0 15.0 -9.0
v 15.0 15.0 -5.0
v 15.0 10.0 5.329070518200751e-15
vn -1.0 0.0 0.0
vn -1.0 0.0 0.0
vn -1.0 0.0 0.0
vn -1.0 0.0 0.0
vn -1.0 0.0 0.0
vn -1.0 0.0 0.0
vn -1.0 0.0 0.0
vn -1.0 0.0 0.0
vn -1.0 0.0 0.0
vn -1.0 0.0 0.0
vn -1.0 0.0 0.0
vn 0.0 0.7071067690849304 -0.7071067690849304
vn 0.0 0.7071067690849304 -0.7071067690849304
vn 0.0 0.7071067690849304 -0.7071067690849304
vn 0.0 0.7071067690849304 -0.7071067690849304
vn -0.0 0.7071067690849304 0.7071067690849304
vn -0.0 0.7071067690849304 0.7071067690849304
vn -0.0 0.7071067690849304 0.7071067690849304
vn -0.0 0.7071067690849304 0.7071067690849304
vn -0.0 1.0 4.440892098500626e-16
vn -0.0 1.0 4.440892098500626e-16
vn -0.0 1.0 4.440892098500626e-16
vn -0.0 1.0 4.440892098500626e-16
vn 0.0 6.012284752357228e-15 -1.0
vn 0.0 6.012284752357228e-15 -1.0
vn 0.0 6.012284752357228e-15 -1.0
vn 0.0 6.012284752357228e-15 -1.0
vn 0.0 1.0 -6.106226635438361e-16
vn 0.0 1.0 -6.106226635438361e-16
vn 0.0 1.0 -6.106226635438361e-16
vn 0.0 1.0 -6.106226635438361e-16
vn 0.0 0.0 -1.0
vn 0.0 0.0 -1.0
vn 0.0 0.0 -1.0
vn 0.0 0.0 -1.0
vn 0.0 -1.0 6.352481674439031e-34
vn 0.0 -1.0 6.352481674439031e-34
vn 0.0 -1.0 6.352481674439031e-34
vn 0.0 -1.0 6.352481674439031e-34
vn 0.0 0.0 1.0
vn 0.0 0.0 1.0
vn 0.0 0.0 1.0
vn 0.0 0.0 1.0
vn -0.0 1.0 5.551115123125783e-16
vn -0.0 1.0 5.551115123125783e-16
vn -0.0 1.0 5.551115123125783e-16
vn -0.0 1.0 5.551115123125783e-16
vn -0.0 5.192427586666161e-15 1.0
vn -0.0 5.192427586666161e-15 1.0
vn -0.0 5.192427586666161e-15 1.0
vn -0.0 5.192427586666161e-15 1.0
vn -0.0 1.0 4.440892098500626e-16
vn -0.0 1.0 4.440892098500626e-16
vn -0.0 1.0 4.440892098500626e-16
vn -0.0 1.0 4.440892098500626e-16
vn 1.0 0.0 0.0
vn 1.0 0.0 0.0
vn 1.0 0.0 0.0
vn 1.0 0.0 0.0
vn 1.0 0.0 0.0
vn 1.0 0.0 0.0
vn 1.0 0.0 0.0
vn 1.0 0.0 0.0
vn 1.0 0.0 0.0
vn 1.0 0.0 0.0
vn 1.0 0.0 0.0
g db08cefe-e30e-11ea-8d78-54bf646e7e1f
f 2//2 3//3 1//1
f 1//1 3//3 11//11
f 11//11 3//3 6//6
f 11//11 6//6 9//9
f 9//9 6//6 8//8
f 8//8 6//6 7//7
f 4//4 5//5 3//3
f 3//3 5//5 6//6
f 9//9 10//10 11//11
g db094426-e30e-11ea-b879-54bf646e7e1f
f 13//13 14//14 12//12
f 12//12 14//14 15//15
g db09b954-e30e-11ea-9167-54bf646e7e1f
f 17//17 18//18 16//16
f 16//16 18//18 19//19
g db0a0774-e30e-11ea-9c84-54bf646e7e1f
f 21//21 22//22 20//20
f 20//20 22//22 23//23
g db0a7ca2-e30e-11ea-894c-54bf646e7e1f
f 25//25 26//26 24//24
f 24//24 26//26 27//27
g db0af1d0-e30e-11ea-81b7-54bf646e7e1f
f 29//29 30//30 28//28
f 28//28 30//30 31//31
g db0b66fe-e30e-11ea-b98c-54bf646e7e1f
f 33//33 34//34 32//32
f 32//32 34//34 35//35
g db0c0358-e30e-11ea-ba95-54bf646e7e1f
f 37//37 38//38 36//36
f 36//36 38//38 39//39
g db0c787a-e30e-11ea-b0a0-54bf646e7e1f
f 41//41 42//42 40//40
f 40//40 42//42 43//43
g db0d14c2-e30e-11ea-bdcb-54bf646e7e1f
f 45//45 46//46 44//44
f 44//44 46//46 47//47
g db0d89ee-e30e-11ea-979a-54bf646e7e1f
f 49//49 50//50 48//48
f 48//48 50//50 51//51
g db0e262c-e30e-11ea-8d5b-54bf646e7e1f
f 53//53 54//54 52//52
f 52//52 54//54 55//55
g db0ec254-e30e-11ea-8a1b-54bf646e7e1f
f 56//56 57//57 66//66
f 66//66 57//57 58//58
f 66//66 58//58 63//63
f 63//63 58//58 61//61
f 63//63 61//61 62//62
f 59//59 60//60 58//58
f 58//58 60//60 61//61
f 63//63 64//64 66//66
f 66//66 64//64 65//65

# End of file