# WaveFront *.obj file
# Vertices: 72
# Triangles : 40

v 311.8354797363281 0.0 462.4233703613281
v 311.8354797363281 0.0 -17.57662582397461
v 311.8354797363281 250.0 -17.57662582397461
v 311.8354797363281 250.0 462.4233703613281
v 311.8354797363281 0.0 -17.57662582397461
v -3.164519786834717 0.0 -17.57662582397461
v -3.164519786834717 250.0 -17.57662582397461
v 311.8354797363281 250.0 -17.57662582397461
v -303.1645202636719 0.0 462.4233703613281
v 311.8354797363281 0.0 462.4233703613281
v 311.8354797363281 250.0 462.4233703613281
v -303.1645202636719 250.0 462.4233703613281
v -303.1645202636719 0.0 447.4233703613281
v -303.1645202636719 0.0 462.4233703613281
v -303.1645202636719 250.0 462.4233703613281
v -303.1645202636719 250.0 447.4233703613281
v -3.164519786834717 0.0 -17.57662582397461
v -3.164519786834717 0.0 -2.5766260623931885
v -3.164519786834717 250.0 -2.5766260623931885
v -3.164519786834717 250.0 -17.57662582397461
v -3.164519786834717 0.0 -2.5766260623931885
v 296.8354797363281 0.0 -2.5766260623931885
v 296.8354797363281 250.0 -2.5766260623931885
v -3.164519786834717 250.0 -2.5766260623931885
v 296.8354797363281 0.0 -2.5766260623931885
v -3.164519786834717 0.0 -2.5766260623931885
v -3.164519786834717 0.0 -17.57662582397461
v 311.8354797363281 0.0 -17.57662582397461
v 311.8354797363281 0.0 462.4233703613281
v -303.1645202636719 0.0 462.4233703613281
v -303.1645202636719 0.0 447.4233703613281
v 296.8354797363281 0.0 447.4233703613281
v 296.8354797363281 0.0 447.4233703613281
v -303.1645202636719 0.0 447.4233703613281
v -303.1645202636719 250.0 447.4233703613281
v 296.8354797363281 250.0 447.4233703613281
v -3.164519786834717 250.0 -2.5766260623931885
v 296.8354797363281 250.0 -2.5766260623931885
v 296.8354797363281 250.0 447.4233703613281
v -303.1645202636719 250.0 447.4233703613281
v -303.1645202636719 250.0 462.4233703613281
v 311.8354797363281 250.0 462.4233703613281
v 311.8354797363281 250.0 -17.57662582397461
v -3.164519786834717 250.0 -17.57662582397461
v 296.8354797363281 0.0 -2.5766260623931885
v 296.8354797363281 0.0 447.4233703613281
v 296.8354797363281 250.0 447.4233703613281
v 296.8354797363281 250.0 -2.5766260623931885
v 90.0 97.5 -2.5766260623931885
v 90.0 167.0 -2.5766260623931885
v 90.0 167.0 32.42337417602539
v 90.0 97.5 32.42337417602539
v -2.5 97.5 -2.5766260623931885
v -2.5 167.0 -2.5766260623931885
v 90.0 167.0 -2.5766260623931885
v 90.0 97.5 -2.5766260623931885
v 90.0 167.0 -2.5766260623931885
v -2.5 167.0 -2.5766260623931885
v -2.5 167.0 32.42337417602539
v 90.0 167.0 32.42337417602539
v -2.5 97.5 -2.5766260623931885
v 90.0 97.5 -2.5766260623931885
v 90.0 97.5 32.42337417602539
v -2.5 97.5 32.42337417602539
v -2.5 167.0 -2.5766260623931885
v -2.5 97.5 -2.5766260623931885
v -2.5 97.5 32.42337417602539
v -2.5 167.0 32.42337417602539
v -2.5 167.0 32.42337417602539
v -2.5 97.5 32.42337417602539
v 90.0 97.5 32.42337417602539
v 90.0 167.0 32.42337417602539
vn 1.0 0.0 0.0
vn 1.0 0.0 0.0
vn 1.0 0.0 0.0
vn 1.0 0.0 0.0
vn 0.0 0.0 -1.0
vn 0.0 0.0 -1.0
vn 0.0 0.0 -1.0
vn 0.0 0.0 -1.0
vn 0.0 -0.0 1.0
vn 0.0 -0.0 1.0
vn 0.0 -0.0 1.0
vn 0.0 -0.0 1.0
vn -1.0 0.0 0.0
vn -1.0 0.0 0.0
vn -1.0 0.0 0.0
vn -1.0 0.0 0.0
vn -1.0 0.0 0.0
vn -1.0 0.0 0.0
vn -1.0 0.0 0.0
vn -1.0 0.0 0.0
vn 0.0 0.0 1.0
vn 0.0 0.0 1.0
vn 0.0 0.0 1.0
vn 0.0 0.0 1.0
vn -0.0 -1.0 -0.0
vn -0.0 -1.0 -0.0
vn -0.0 -1.0 -0.0
vn -0.0 -1.0 -0.0
vn -0.0 -1.0 -0.0
vn -0.0 -1.0 -0.0
vn -0.0 -1.0 -0.0
vn -0.0 -1.0 -0.0
vn 0.0 0.0 -1.0
vn 0.0 0.0 -1.0
vn 0.0 0.0 -1.0
vn 0.0 0.0 -1.0
vn 0.0 1.0 0.0
vn 0.0 1.0 0.0
vn 0.0 1.0 0.0
vn 0.0 1.0 0.0
vn 0.0 1.0 0.0
vn 0.0 1.0 0.0
vn 0.0 1.0 0.0
vn 0.0 1.0 0.0
vn -1.0 0.0 0.0
vn -1.0 0.0 0.0
vn -1.0 0.0 0.0
vn -1.0 0.0 0.0
vn 1.0 0.0 -2.461523060983675e-15
vn 1.0 0.0 -2.461523060983675e-15
vn 1.0 0.0 -2.461523060983675e-15
vn 1.0 0.0 -2.461523060983675e-15
vn -2.458093848096716e-15 -0.0 -1.0
vn -2.458093848096716e-15 -0.0 -1.0
vn -2.458093848096716e-15 -0.0 -1.0
vn -2.458093848096716e-15 -0.0 -1.0
vn 0.0 1.0 -0.0
vn 0.0 1.0 -0.0
vn 0.0 1.0 -0.0
vn 0.0 1.0 -0.0
vn 0.0 -1.0 0.0
vn 0.0 -1.0 0.0
vn 0.0 -1.0 0.0
vn 0.0 -1.0 0.0
vn -1.0 8.053029302681102e-30 2.461523060983675e-15
vn -1.0 8.053029302681102e-30 2.461523060983675e-15
vn -1.0 8.053029302681102e-30 2.461523060983675e-15
vn -1.0 8.053029302681102e-30 2.461523060983675e-15
vn 2.461523060983675e-15 0.0 1.0
vn 2.461523060983675e-15 0.0 1.0
vn 2.461523060983675e-15 0.0 1.0
vn 2.461523060983675e-15 0.0 1.0
f 1//1 2//2 4//4
f 4//4 2//2 3//3
f 5//5 6//6 8//8
f 8//8 6//6 7//7
f 9//9 10//10 12//12
f 12//12 10//10 11//11
f 13//13 14//14 16//16
f 16//16 14//14 15//15
f 17//17 18//18 20//20
f 20//20 18//18 19//19
f 21//21 22//22 24//24
f 24//24 22//22 23//23
f 26//26 27//27 25//25
f 25//25 27//27 28//28
f 25//25 28//28 29//29
f 25//25 29//29 32//32
f 32//32 29//29 30//30
f 32//32 30//30 31//31
f 33//33 34//34 36//36
f 36//36 34//34 35//35
f 37//37 38//38 44//44
f 44//44 38//38 43//43
f 43//43 38//38 39//39
f 43//43 39//39 42//42
f 42//42 39//39 41//41
f 41//41 39//39 40//40
f 45//45 46//46 48//48
f 48//48 46//46 47//47
f 49//49 50//50 52//52
f 52//52 50//50 51//51
f 54//54 55//55 53//53
f 53//53 55//55 56//56
f 57//57 58//58 60//60
f 60//60 58//58 59//59
f 61//61 62//62 64//64
f 64//64 62//62 63//63
f 65//65 66//66 68//68
f 68//68 66//66 67//67
f 70//70 71//71 69//69
f 69//69 71//71 72//72

# End of file