# WaveFront *.obj file
# Vertices: 72
# Triangles : 44

v -6.295668601989746 1.7999999523162842 -0.8999999761581421
v 6.349999904632568 1.7999999523162842 -0.8999999761581421
v 6.349999904632568 0.0 -0.8999999761581421
v 12.699999809265137 0.0 -0.8999999761581421
v 17.780000686645508 -43.20000076293945 -0.8999999761581421
v 10.15999984741211 -43.20000076293945 -0.8999999761581421
v 6.214808940887451 -9.650343894958496 -0.8999999761581421
v -6.160477638244629 -9.650343894958496 -0.8999999761581421
v -10.105669021606445 -43.20000076293945 -0.8999999761581421
v -17.72566795349121 -43.20000076293945 -0.8999999761581421
v -12.645668983459473 -6.217248937900877e-15 -0.8999999761581421
v -6.295668601989746 -3.1086244689504383e-15 -0.8999999761581421
v 6.349999904632568 1.7999999523162842 -0.8999999761581421
v 6.349999904632568 1.7999999523162842 0.8999999761581421
v 6.349999904632568 0.0 0.8999999761581421
v 6.349999904632568 0.0 -0.8999999761581421
v 6.349999904632568 0.0 -0.8999999761581421
v 6.349999904632568 0.0 0.8999999761581421
v 12.699999809265137 0.0 0.8999999761581421
v 12.699999809265137 0.0 -0.8999999761581421
v 12.699999809265137 0.0 -0.8999999761581421
v 12.699999809265137 0.0 0.8999999761581421
v 17.780000686645508 -43.20000076293945 0.8999999761581421
v 17.780000686645508 -43.20000076293945 -0.8999999761581421
v 17.780000686645508 -43.20000076293945 -0.8999999761581421
v 17.780000686645508 -43.20000076293945 0.8999999761581421
v 10.15999984741211 -43.20000076293945 0.8999999761581421
v 10.15999984741211 -43.20000076293945 -0.8999999761581421
v 10.15999984741211 -43.20000076293945 -0.8999999761581421
v 10.15999984741211 -43.20000076293945 0.8999999761581421
v 6.214808940887451 -9.650343894958496 0.8999999761581421
v 6.214808940887451 -9.650343894958496 -0.8999999761581421
v 6.214808940887451 -9.650343894958496 -0.8999999761581421
v 6.214808940887451 -9.650343894958496 0.8999999761581421
v -6.160477638244629 -9.650343894958496 0.8999999761581421
v -6.160477638244629 -9.650343894958496 -0.8999999761581421
v -6.160477638244629 -9.650343894958496 -0.8999999761581421
v -6.160477638244629 -9.650343894958496 0.8999999761581421
v -10.105669021606445 -43.20000076293945 0.8999999761581421
v -10.105669021606445 -43.20000076293945 -0.8999999761581421
v -10.105669021606445 -43.20000076293945 -0.8999999761581421
v -10.105669021606445 -43.20000076293945 0.8999999761581421
v -17.72566795349121 -43.20000076293945 0.8999999761581421
v -17.72566795349121 -43.20000076293945 -0.8999999761581421
v -17.72566795349121 -43.20000076293945 -0.8999999761581421
v -17.72566795349121 -43.20000076293945 0.8999999761581421
v -12.645668983459473 -6.217248937900877e-15 0.8999999761581421
v -12.645668983459473 -6.217248937900877e-15 -0.8999999761581421
v -12.645668983459473 -6.217248937900877e-15 -0.8999999761581421
v -12.645668983459473 -6.217248937900877e-15 0.8999999761581421
v -6.295668601989746 -3.1086244689504383e-15 0.8999999761581421
v -6.295668601989746 -3.1086244689504383e-15 -0.8999999761581421
v -6.295668601989746 -3.1086244689504383e-15 -0.8999999761581421
v -6.295668601989746 -3.1086244689504383e-15 0.8999999761581421
v -6.295668601989746 1.7999999523162842 0.8999999761581421
v -6.295668601989746 1.7999999523162842 -0.8999999761581421
v -6.295668601989746 1.7999999523162842 -0.8999999761581421
v -6.295668601989746 1.7999999523162842 0.8999999761581421
v 6.349999904632568 1.7999999523162842 0.8999999761581421
v 6.349999904632568 1.7999999523162842 -0.8999999761581421
v 6.349999904632568 1.7999999523162842 0.8999999761581421
v -6.295668601989746 1.7999999523162842 0.8999999761581421
v -6.295668601989746 -3.1086244689504383e-15 0.8999999761581421
v -12.645668983459473 -6.217248937900877e-15 0.8999999761581421
v -17.72566795349121 -43.20000076293945 0.8999999761581421
v -10.105669021606445 -43.20000076293945 0.8999999761581421
v -6.160477638244629 -9.650343894958496 0.8999999761581421
v 6.214808940887451 -9.650343894958496 0.8999999761581421
v 10.15999984741211 -43.20000076293945 0.8999999761581421
v 17.780000686645508 -43.20000076293945 0.8999999761581421
v 12.699999809265137 0.0 0.8999999761581421
v 6.349999904632568 0.0 0.8999999761581421
vn 0.0 0.0 -1.0
vn 0.0 0.0 -1.0
vn 0.0 0.0 -1.0
vn 0.0 0.0 -1.0
vn 0.0 0.0 -1.0
vn 0.0 0.0 -1.0
vn 0.0 0.0 -1.0
vn 0.0 0.0 -1.0
vn 0.0 0.0 -1.0
vn 0.0 0.0 -1.0
vn 0.0 0.0 -1.0
vn 0.0 0.0 -1.0
vn 1.0 4.934324789176514e-16 -0.0
vn 1.0 4.934324789176514e-16 -0.0
vn 1.0 4.934324789176514e-16 -0.0
vn 1.0 4.934324789176514e-16 -0.0
vn -4.898858990279385e-16 1.0 0.0
vn -4.898858990279385e-16 1.0 0.0
vn -4.898858990279385e-16 1.0 0.0
vn -4.898858990279385e-16 1.0 0.0
vn 0.9931568503379822 0.11678789556026459 -0.0
vn 0.9931568503379822 0.11678789556026459 -0.0
vn 0.9931568503379822 0.11678789556026459 -0.0
vn 0.9931568503379822 0.11678789556026459 -0.0
vn 0.0 -1.0 0.0
vn 0.0 -1.0 0.0
vn 0.0 -1.0 0.0
vn 0.0 -1.0 0.0
vn -0.9931568503379822 -0.11678789556026459 0.0
vn -0.9931568503379822 -0.11678789556026459 0.0
vn -0.9931568503379822 -0.11678789556026459 0.0
vn -0.9931568503379822 -0.11678789556026459 0.0
vn 5.741626597248668e-16 -1.0 0.0
vn 5.741626597248668e-16 -1.0 0.0
vn 5.741626597248668e-16 -1.0 0.0
vn 5.741626597248668e-16 -1.0 0.0
vn 0.9931568503379822 -0.11678789556026459 0.0
vn 0.9931568503379822 -0.11678789556026459 0.0
vn 0.9931568503379822 -0.11678789556026459 0.0
vn 0.9931568503379822 -0.11678789556026459 0.0
vn 1.8649416626064733e-15 -1.0 0.0
vn 1.8649416626064733e-15 -1.0 0.0
vn 1.8649416626064733e-15 -1.0 0.0
vn 1.8649416626064733e-15 -1.0 0.0
vn -0.9931568503379822 0.11678789556026459 0.0
vn -0.9931568503379822 0.11678789556026459 0.0
vn -0.9931568503379822 0.11678789556026459 0.0
vn -0.9931568503379822 0.11678789556026459 0.0
vn -4.898858990279385e-16 1.0 0.0
vn -4.898858990279385e-16 1.0 0.0
vn -4.898858990279385e-16 1.0 0.0
vn -4.898858990279385e-16 1.0 0.0
vn -1.0 0.0 0.0
vn -1.0 0.0 0.0
vn -1.0 0.0 0.0
vn -1.0 0.0 0.0
vn -4.89547138788596e-16 1.0 0.0
vn -4.89547138788596e-16 1.0 0.0
vn -4.89547138788596e-16 1.0 0.0
vn -4.89547138788596e-16 1.0 0.0
vn 0.0 0.0 1.0
vn 0.0 0.0 1.0
vn 0.0 0.0 1.0
vn 0.0 0.0 1.0
vn 0.0 0.0 1.0
vn 0.0 0.0 1.0
vn 0.0 0.0 1.0
vn 0.0 0.0 1.0
vn 0.0 0.0 1.0
vn 0.0 0.0 1.0
vn 0.0 0.0 1.0
vn 0.0 0.0 1.0
g d6481bd0-e310-11ea-be7d-54bf646e7e1f
f 1//1 2//2 12//12
f 12//12 2//2 3//3
f 12//12 3//3 8//8
f 8//8 3//3 7//7
f 7//7 3//3 4//4
f 7//7 4//4 5//5
f 5//5 6//6 7//7
f 9//9 10//10 8//8
f 8//8 10//10 11//11
f 8//8 11//11 12//12
g d64869f8-e310-11ea-8de0-54bf646e7e1f
f 14//14 15//15 13//13
f 13//13 15//15 16//16
g d648b81a-e310-11ea-87e2-54bf646e7e1f
f 18//18 19//19 17//17
f 17//17 19//19 20//20
g d648df22-e310-11ea-aa58-54bf646e7e1f
f 22//22 23//23 21//21
f 21//21 23//23 24//24
g d6492d4c-e310-11ea-8aa0-54bf646e7e1f
f 26//26 27//27 25//25
f 25//25 27//27 28//28
g d6497b64-e310-11ea-8f9a-54bf646e7e1f
f 30//30 31//31 29//29
f 29//29 31//31 32//32
g d649c98a-e310-11ea-b501-54bf646e7e1f
f 34//34 35//35 33//33
f 33//33 35//35 36//36
g d64a3eb4-e310-11ea-9721-54bf646e7e1f
f 38//38 39//39 37//37
f 37//37 39//39 40//40
g d64a8cdc-e310-11ea-b724-54bf646e7e1f
f 42//42 43//43 41//41
f 41//41 43//43 44//44
g d64b021a-e310-11ea-9da9-54bf646e7e1f
f 46//46 47//47 45//45
f 45//45 47//47 48//48
g d64b7752-e310-11ea-a427-54bf646e7e1f
f 50//50 51//51 49//49
f 49//49 51//51 52//52
g d64c1382-e310-11ea-b942-54bf646e7e1f
f 54//54 55//55 53//53
f 53//53 55//55 56//56
g d64cafbe-e310-11ea-87aa-54bf646e7e1f
f 58//58 59//59 57//57
f 57//57 59//59 60//60
g d64d24f4-e310-11ea-8cb9-54bf646e7e1f
f 61//61 62//62 72//72
f 72//72 62//62 63//63
f 72//72 63//63 68//68
f 68//68 63//63 67//67
f 67//67 63//63 64//64
f 67//67 64//64 65//65
f 65//65 66//66 67//67
f 69//69 70//70 68//68
f 68//68 70//70 71//71
f 68//68 71//71 72//72

# End of file