# WaveFront *.obj file
# Vertices: 24
# Triangles : 12

v -20.0 0.0 -15.0
v -20.0 0.0 -5.0
v -20.0 2.083199977874756 -5.0
v -20.0 2.083199977874756 -15.0
v -10.0 0.0 -15.0
v -20.0 0.0 -15.0
v -20.0 2.083199977874756 -15.0
v -10.0 2.083199977874756 -15.0
v -10.0 0.0 -5.0
v -10.0 0.0 -15.0
v -10.0 2.083199977874756 -15.0
v -10.0 2.083199977874756 -5.0
v -20.0 0.0 -5.0
v -10.0 0.0 -5.0
v -10.0 2.083199977874756 -5.0
v -20.0 2.083199977874756 -5.0
v -20.0 2.083199977874756 -5.0
v -10.0 2.083199977874756 -5.0
v -10.0 2.083199977874756 -15.0
v -20.0 2.083199977874756 -15.0
v -10.0 0.0 -5.0
v -20.0 0.0 -5.0
v -20.0 0.0 -15.0
v -10.0 0.0 -15.0
vn -1.0 0.0 0.0
vn -1.0 0.0 0.0
vn -1.0 0.0 0.0
vn -1.0 0.0 0.0
vn 0.0 0.0 -1.0
vn 0.0 0.0 -1.0
vn 0.0 0.0 -1.0
vn 0.0 0.0 -1.0
vn 1.0 0.0 0.0
vn 1.0 0.0 0.0
vn 1.0 0.0 0.0
vn 1.0 0.0 0.0
vn 0.0 -0.0 1.0
vn 0.0 -0.0 1.0
vn 0.0 -0.0 1.0
vn 0.0 -0.0 1.0
vn 0.0 1.0 0.0
vn 0.0 1.0 0.0
vn 0.0 1.0 0.0
vn 0.0 1.0 0.0
vn -0.0 -1.0 -0.0
vn -0.0 -1.0 -0.0
vn -0.0 -1.0 -0.0
vn -0.0 -1.0 -0.0
g 61489c94-e311-11ea-94e6-54bf646e7e1f
f 1//1 2//2 4//4
f 4//4 2//2 3//3
g 6148eac0-e311-11ea-a6b4-54bf646e7e1f
f 5//5 6//6 8//8
f 8//8 6//6 7//7
g 614911c2-e311-11ea-aab3-54bf646e7e1f
f 9//9 10//10 12//12
f 12//12 10//10 11//11
g 614938cc-e311-11ea-938b-54bf646e7e1f
f 13//13 14//14 16//16
f 16//16 14//14 15//15
g 61495fec-e311-11ea-9851-54bf646e7e1f
f 18//18 19//19 17//17
f 17//17 19//19 20//20
g 614986f4-e311-11ea-ba45-54bf646e7e1f
f 21//21 22//22 24//24
f 24//24 22//22 23//23

# End of file