# WaveFront *.obj file
# Vertices: 36
# Triangles : 20

v -0.5 28.0 -11.471681594848633
v -0.5 -2.0 -1.440078854560852
v -0.5 -2.0 5.0
v -0.5 -8.881784197001252e-16 5.0
v -0.5 0.0 0.0
v -0.5 28.0 -9.471681594848633
v -0.5 -2.0 -1.440078854560852
v 0.5 -2.0 -1.440078854560852
v 0.5 -2.0 5.0
v -0.5 -2.0 5.0
v -0.5 -2.0 5.0
v 0.5 -2.0 5.0
v 0.5 -8.881784197001252e-16 5.0
v -0.5 -8.881784197001252e-16 5.0
v -0.5 -8.881784197001252e-16 5.0
v 0.5 -8.881784197001252e-16 5.0
v 0.5 0.0 0.0
v -0.5 0.0 0.0
v -0.5 0.0 0.0
v 0.5 0.0 0.0
v 0.5 28.0 -9.471681594848633
v -0.5 28.0 -9.471681594848633
v -0.5 28.0 -9.471681594848633
v 0.5 28.0 -9.471681594848633
v 0.5 28.0 -11.471681594848633
v -0.5 28.0 -11.471681594848633
v -0.5 28.0 -11.471681594848633
v 0.5 28.0 -11.471681594848633
v 0.5 -2.0 -1.440078854560852
v -0.5 -2.0 -1.440078854560852
v 0.5 -2.0 -1.440078854560852
v 0.5 28.0 -11.471681594848633
v 0.5 28.0 -9.471681594848633
v 0.5 0.0 0.0
v 0.5 -8.881784197001252e-16 5.0
v 0.5 -2.0 5.0
vn -1.0 0.0 0.0
vn -1.0 0.0 0.0
vn -1.0 0.0 0.0
vn -1.0 0.0 0.0
vn -1.0 0.0 0.0
vn -1.0 0.0 0.0
vn 0.0 -1.0 0.0
vn 0.0 -1.0 0.0
vn 0.0 -1.0 0.0
vn 0.0 -1.0 0.0
vn -0.0 0.0 1.0
vn -0.0 0.0 1.0
vn -0.0 0.0 1.0
vn -0.0 0.0 1.0
vn -0.0 1.0 1.3390705481962812e-16
vn -0.0 1.0 1.3390705481962812e-16
vn -0.0 1.0 1.3390705481962812e-16
vn -0.0 1.0 1.3390705481962812e-16
vn -0.0 0.32043707370758057 0.9472697973251343
vn -0.0 0.32043707370758057 0.9472697973251343
vn -0.0 0.32043707370758057 0.9472697973251343
vn -0.0 0.32043707370758057 0.9472697973251343
vn 0.0 1.0 0.0
vn 0.0 1.0 0.0
vn 0.0 1.0 0.0
vn 0.0 1.0 0.0
vn 0.0 -0.3171267509460449 -0.9483831524848938
vn 0.0 -0.3171267509460449 -0.9483831524848938
vn 0.0 -0.3171267509460449 -0.9483831524848938
vn 0.0 -0.3171267509460449 -0.9483831524848938
vn 1.0 0.0 0.0
vn 1.0 0.0 0.0
vn 1.0 0.0 0.0
vn 1.0 0.0 0.0
vn 1.0 0.0 0.0
vn 1.0 0.0 0.0
g b131234a-e362-11ea-929b-54bf646e7e1f
f 1//1 2//2 6//6
f 6//6 2//2 5//5
f 5//5 2//2 3//3
f 5//5 3//3 4//4
g b131e6b6-e362-11ea-9122-54bf646e7e1f
f 8//8 9//9 7//7
f 7//7 9//9 10//10
g b132f82e-e362-11ea-a896-54bf646e7e1f
f 12//12 13//13 11//11
f 11//11 13//13 14//14
g b133e29a-e362-11ea-8d98-54bf646e7e1f
f 16//16 17//17 15//15
f 15//15 17//17 18//18
g b134a600-e362-11ea-8029-54bf646e7e1f
f 20//20 21//21 19//19
f 19//19 21//21 22//22
g b135695e-e362-11ea-b868-54bf646e7e1f
f 24//24 25//25 23//23
f 23//23 25//25 26//26
g b1362cb6-e362-11ea-86a6-54bf646e7e1f
f 28//28 29//29 27//27
f 27//27 29//29 30//30
g b137171e-e362-11ea-8cc7-54bf646e7e1f
f 32//32 33//33 31//31
f 31//31 33//33 34//34
f 31//31 34//34 36//36
f 36//36 34//34 35//35

# End of file