# WaveFront *.obj file
# Vertices: 166
# Triangles : 120

v -1.399999976158142 5.199999809265137 0.0
v -2.4000000953674316 5.199999809265137 0.0
v -2.4000000953674316 5.199999809265137 6.400000095367432
v -1.399999976158142 5.199999809265137 6.400000095367432
v -2.4000000953674316 5.199999809265137 0.0
v -4.0 3.5999999046325684 0.0
v -4.0 3.5999999046325684 6.400000095367432
v -2.4000000953674316 5.199999809265137 6.400000095367432
v -4.0 0.699999988079071 4.800000190734863
v -4.0 0.0 4.800000190734863
v -4.0 0.0 6.400000095367432
v -4.0 3.5999999046325684 6.400000095367432
v -4.0 3.5999999046325684 0.0
v -4.0 0.0 0.0
v -4.0 0.0 1.600000023841858
v -4.0 0.699999988079071 1.600000023841858
v -4.0 0.699999988079071 2.4000000953674316
v -4.0 1.600000023841858 2.4000000953674316
v -4.0 1.600000023841858 4.0
v -4.0 0.699999988079071 4.0
v -1.399999976158142 1.600000023841858 0.0
v -1.399999976158142 5.199999809265137 0.0
v -1.399999976158142 5.199999809265137 6.400000095367432
v -1.399999976158142 1.600000023841858 6.400000095367432
v -1.399999976158142 1.600000023841858 4.0
v -1.399999976158142 1.600000023841858 2.4000000953674316
v 8.199999809265137 2.053542137145996 0.0
v 10.399999618530273 2.053542137145996 0.0
v 10.399999618530273 0.0 0.0
v -4.0 0.0 0.0
v -4.0 3.5999999046325684 0.0
v -2.4000000953674316 5.199999809265137 0.0
v -1.399999976158142 5.199999809265137 0.0
v -1.399999976158142 1.600000023841858 0.0
v 8.199999809265137 1.600000023841858 0.0
v 8.199999809265137 4.3760085105896 1.9190852642059326
v 8.199999809265137 2.053542137145996 0.0
v 8.199999809265137 1.600000023841858 0.0
v 8.199999809265137 1.600000023841858 2.4000000953674316
v 8.199999809265137 1.600000023841858 4.0
v 8.199999809265137 1.600000023841858 6.400000095367432
v 8.199999809265137 2.053542137145996 6.400000095367432
v 8.199999809265137 4.3760085105896 4.48091459274292
v 8.199999809265137 4.620754241943359 4.295897960662842
v 8.199999809265137 4.822660446166992 4.064888954162598
v 8.199999809265137 4.973254680633545 3.797581434249878
v 8.199999809265137 5.066215515136719 3.505194902420044
v 8.199999809265137 5.097641944885254 3.200000047683716
v 8.199999809265137 5.066215515136719 2.8948049545288086
v 8.199999809265137 4.973254680633545 2.6024184226989746
v 8.199999809265137 4.822660446166992 2.335111379623413
v 8.199999809265137 4.620754241943359 2.1041018962860107
v 8.199999809265137 2.053542137145996 0.0
v 8.199999809265137 4.3760085105896 1.9190852642059326
v 10.399999618530273 4.3760085105896 1.9190852642059326
v 10.399999618530273 2.053542137145996 0.0
v 10.399999618530273 2.053542137145996 6.400000095367432
v 8.199999809265137 2.053542137145996 6.400000095367432
v 8.199999809265137 1.600000023841858 6.400000095367432
v -1.399999976158142 1.600000023841858 6.400000095367432
v -1.399999976158142 5.199999809265137 6.400000095367432
v -2.4000000953674316 5.199999809265137 6.400000095367432
v -4.0 3.5999999046325684 6.400000095367432
v -4.0 0.0 6.400000095367432
v 10.399999618530273 0.0 6.400000095367432
v -1.399999976158142 1.600000023841858 2.4000000953674316
v 8.199999809265137 1.600000023841858 2.4000000953674316
v 8.199999809265137 1.600000023841858 0.0
v -1.399999976158142 1.600000023841858 0.0
v 10.399999618530273 0.0 1.600000023841858
v -4.0 0.0 1.600000023841858
v -4.0 0.0 0.0
v 10.399999618530273 0.0 0.0
v 10.399999618530273 0.699999988079071 4.800000190734863
v 10.399999618530273 0.0 4.800000190734863
v -4.0 0.0 4.800000190734863
v -4.0 0.699999988079071 4.800000190734863
v -4.0 0.0 4.800000190734863
v 10.399999618530273 0.0 4.800000190734863
v 10.399999618530273 0.0 6.400000095367432
v -4.0 0.0 6.400000095367432
v 10.399999618530273 0.699999988079071 1.600000023841858
v 10.399999618530273 0.699999988079071 2.4000000953674316
v -4.0 0.699999988079071 2.4000000953674316
v -4.0 0.699999988079071 1.600000023841858
v 10.399999618530273 4.3760085105896 4.48091459274292
v 10.399999618530273 2.053542137145996 6.400000095367432
v 10.399999618530273 0.0 6.400000095367432
v 10.399999618530273 0.0 4.800000190734863
v 10.399999618530273 0.699999988079071 4.800000190734863
v 10.399999618530273 0.699999988079071 4.0
v 10.399999618530273 1.600000023841858 4.0
v 10.399999618530273 1.600000023841858 2.4000000953674316
v 10.399999618530273 0.699999988079071 2.4000000953674316
v 10.399999618530273 0.699999988079071 1.600000023841858
v 10.399999618530273 0.0 1.600000023841858
v 10.399999618530273 0.0 0.0
v 10.399999618530273 2.053542137145996 0.0
v 10.399999618530273 4.3760085105896 1.9190852642059326
v 10.399999618530273 4.620754241943359 2.1041018962860107
v 10.399999618530273 4.822660446166992 2.335111379623413
v 10.399999618530273 4.973254680633545 2.6024184226989746
v 10.399999618530273 5.066215515136719 2.8948049545288086
v 10.399999618530273 5.097641944885254 3.200000047683716
v 10.399999618530273 5.066215515136719 3.505194902420044
v 10.399999618530273 4.973254680633545 3.797581434249878
v 10.399999618530273 4.822660446166992 4.064888954162598
v 10.399999618530273 4.620754241943359 4.295897960662842
v 10.399999618530273 0.0 1.600000023841858
v 10.399999618530273 0.699999988079071 1.600000023841858
v -4.0 0.699999988079071 1.600000023841858
v -4.0 0.0 1.600000023841858
v 8.199999809265137 1.600000023841858 4.0
v 8.199999809265137 1.600000023841858 2.4000000953674316
v 10.399999618530273 1.600000023841858 2.4000000953674316
v 10.399999618530273 1.600000023841858 4.0
v -1.399999976158142 1.600000023841858 2.4000000953674316
v -1.399999976158142 1.600000023841858 4.0
v -4.0 1.600000023841858 4.0
v -4.0 1.600000023841858 2.4000000953674316
v 8.199999809265137 4.3760085105896 4.48091459274292
v 8.199999809265137 2.053542137145996 6.400000095367432
v 10.399999618530273 2.053542137145996 6.400000095367432
v 10.399999618530273 4.3760085105896 4.48091459274292
v 10.399999618530273 0.699999988079071 4.0
v 10.399999618530273 0.699999988079071 4.800000190734863
v -4.0 0.699999988079071 4.800000190734863
v -4.0 0.699999988079071 4.0
v 8.199999809265137 4.3760085105896 1.9190852642059326
v 8.199999809265137 4.620754241943359 2.1041018962860107
v 8.199999809265137 4.822660446166992 2.335111379623413
v 8.199999809265137 4.973254680633545 2.6024184226989746
v 8.199999809265137 5.066215515136719 2.8948049545288086
v 8.199999809265137 5.097641944885254 3.200000047683716
v 8.199999809265137 5.066215515136719 3.505194902420044
v 8.199999809265137 4.973254680633545 3.797581434249878
v 8.199999809265137 4.822660446166992 4.064888954162598
v 8.199999809265137 4.620754241943359 4.295897960662842
v 8.199999809265137 4.3760085105896 4.48091459274292
v 10.399999618530273 4.3760085105896 4.48091459274292
v 10.399999618530273 4.620754241943359 4.295897960662842
v 10.399999618530273 4.822660446166992 4.064888954162598
v 10.399999618530273 4.973254680633545 3.797581434249878
v 10.399999618530273 5.066215515136719 3.505194902420044
v 10.399999618530273 5.097641944885254 3.200000047683716
v 10.399999618530273 5.066215515136719 2.8948049545288086
v 10.399999618530273 4.973254680633545 2.6024184226989746
v 10.399999618530273 4.822660446166992 2.335111379623413
v 10.399999618530273 4.620754241943359 2.1041018962860107
v 10.399999618530273 4.3760085105896 1.9190852642059326
v 10.399999618530273 0.699999988079071 2.4000000953674316
v 10.399999618530273 1.600000023841858 2.4000000953674316
v 8.199999809265137 1.600000023841858 2.4000000953674316
v -1.399999976158142 1.600000023841858 2.4000000953674316
v -4.0 1.600000023841858 2.4000000953674316
v -4.0 0.699999988079071 2.4000000953674316
v 8.199999809265137 1.600000023841858 4.0
v -1.399999976158142 1.600000023841858 4.0
v -1.399999976158142 1.600000023841858 6.400000095367432
v 8.199999809265137 1.600000023841858 6.400000095367432
v 10.399999618530273 1.600000023841858 4.0
v 10.399999618530273 0.699999988079071 4.0
v -4.0 0.699999988079071 4.0
v -4.0 1.600000023841858 4.0
v -1.399999976158142 1.600000023841858 4.0
v 8.199999809265137 1.600000023841858 4.0
vn 0.0 1.0 -0.0
vn 0.0 1.0 -0.0
vn 0.0 1.0 -0.0
vn 0.0 1.0 -0.0
vn -0.7071067690849304 0.7071067690849304 0.0
vn -0.7071067690849304 0.7071067690849304 0.0
vn -0.7071067690849304 0.7071067690849304 0.0
vn -0.7071067690849304 0.7071067690849304 0.0
vn -1.0 0.0 0.0
vn -1.0 0.0 0.0
vn -1.0 0.0 0.0
vn -1.0 0.0 0.0
vn -1.0 0.0 0.0
vn -1.0 0.0 0.0
vn -1.0 0.0 0.0
vn -1.0 0.0 0.0
vn -1.0 0.0 0.0
vn -1.0 0.0 0.0
vn -1.0 0.0 0.0
vn -1.0 0.0 0.0
vn 1.0 0.0 0.0
vn 1.0 0.0 0.0
vn 1.0 0.0 0.0
vn 1.0 0.0 0.0
vn 1.0 0.0 0.0
vn 1.0 0.0 0.0
vn -0.0 -0.0 -1.0
vn -0.0 -0.0 -1.0
vn -0.0 -0.0 -1.0
vn -0.0 -0.0 -1.0
vn -0.0 -0.0 -1.0
vn -0.0 -0.0 -1.0
vn -0.0 -0.0 -1.0
vn -0.0 -0.0 -1.0
vn -0.0 -0.0 -1.0
vn -1.0 0.0 0.0
vn -1.0 0.0 0.0
vn -1.0 0.0 0.0
vn -1.0 0.0 0.0
vn -1.0 0.0 0.0
vn -1.0 0.0 0.0
vn -1.0 0.0 0.0
vn -1.0 0.0 0.0
vn -1.0 0.0 0.0
vn -1.0 0.0 0.0
vn -1.0 0.0 0.0
vn -1.0 0.0 0.0
vn -1.0 0.0 0.0
vn -1.0 0.0 0.0
vn -1.0 0.0 0.0
vn -1.0 0.0 0.0
vn -1.0 0.0 0.0
vn -0.0 0.6369852423667908 -0.7708759903907776
vn -0.0 0.6369852423667908 -0.7708759903907776
vn -0.0 0.6369852423667908 -0.7708759903907776
vn -0.0 0.6369852423667908 -0.7708759903907776
vn 0.0 0.0 1.0
vn 0.0 0.0 1.0
vn 0.0 0.0 1.0
vn 0.0 0.0 1.0
vn 0.0 0.0 1.0
vn 0.0 0.0 1.0
vn 0.0 0.0 1.0
vn 0.0 0.0 1.0
vn 0.0 0.0 1.0
vn 0.0 1.0 -0.0
vn 0.0 1.0 -0.0
vn 0.0 1.0 -0.0
vn 0.0 1.0 -0.0
vn 0.0 -1.0 0.0
vn 0.0 -1.0 0.0
vn 0.0 -1.0 0.0
vn 0.0 -1.0 0.0
vn -0.0 0.0 -1.0
vn -0.0 0.0 -1.0
vn -0.0 0.0 -1.0
vn -0.0 0.0 -1.0
vn 0.0 -1.0 0.0
vn 0.0 -1.0 0.0
vn 0.0 -1.0 0.0
vn 0.0 -1.0 0.0
vn -0.0 -1.0 0.0
vn -0.0 -1.0 0.0
vn -0.0 -1.0 0.0
vn -0.0 -1.0 0.0
vn 1.0 0.0 0.0
vn 1.0 0.0 0.0
vn 1.0 0.0 0.0
vn 1.0 0.0 0.0
vn 1.0 0.0 0.0
vn 1.0 0.0 0.0
vn 1.0 0.0 0.0
vn 1.0 0.0 0.0
vn 1.0 0.0 0.0
vn 1.0 0.0 0.0
vn 1.0 0.0 0.0
vn 1.0 0.0 0.0
vn 1.0 0.0 0.0
vn 1.0 0.0 0.0
vn 1.0 0.0 0.0
vn 1.0 0.0 0.0
vn 1.0 0.0 0.0
vn 1.0 0.0 0.0
vn 1.0 0.0 0.0
vn 1.0 0.0 0.0
vn 1.0 0.0 0.0
vn 1.0 0.0 0.0
vn 1.0 0.0 0.0
vn -0.0 -0.0 1.0
vn -0.0 -0.0 1.0
vn -0.0 -0.0 1.0
vn -0.0 -0.0 1.0
vn -0.0 -1.0 0.0
vn -0.0 -1.0 0.0
vn -0.0 -1.0 0.0
vn -0.0 -1.0 0.0
vn -0.0 -1.0 0.0
vn -0.0 -1.0 0.0
vn -0.0 -1.0 0.0
vn -0.0 -1.0 0.0
vn 0.0 0.6369852423667908 0.7708759903907776
vn 0.0 0.6369852423667908 0.7708759903907776
vn 0.0 0.6369852423667908 0.7708759903907776
vn 0.0 0.6369852423667908 0.7708759903907776
vn -0.0 -1.0 -0.0
vn -0.0 -1.0 -0.0
vn -0.0 -1.0 -0.0
vn -0.0 -1.0 -0.0
vn -0.0 0.5181534290313721 -0.8552876710891724
vn -0.0 0.6815741658210754 -0.7317490577697754
vn -0.0 0.8163904547691345 -0.5775002837181091
vn -0.0 0.9169444441795349 -0.399014949798584
vn -0.0 0.9790159463882446 -0.20378369092941284
vn 0.0 1.0 0.0
vn 0.0 0.9790159463882446 0.20378369092941284
vn 0.0 0.9169444441795349 0.399014949798584
vn 0.0 0.8163904547691345 0.5775002837181091
vn 0.0 0.6815741658210754 0.7317490577697754
vn 0.0 0.5181534290313721 0.8552876710891724
vn 0.0 0.5181534290313721 0.8552876710891724
vn 0.0 0.6815741658210754 0.7317490577697754
vn 0.0 0.8163904547691345 0.5775002837181091
vn 0.0 0.9169444441795349 0.399014949798584
vn 0.0 0.9790159463882446 0.20378369092941284
vn 0.0 1.0 0.0
vn -0.0 0.9790159463882446 -0.20378369092941284
vn -0.0 0.9169444441795349 -0.399014949798584
vn -0.0 0.8163904547691345 -0.5775002837181091
vn -0.0 0.6815741658210754 -0.7317490577697754
vn -0.0 0.5181534290313721 -0.8552876710891724
vn -0.0 -0.0 1.0
vn -0.0 -0.0 1.0
vn -0.0 -0.0 1.0
vn -0.0 -0.0 1.0
vn -0.0 -0.0 1.0
vn -0.0 -0.0 1.0
vn 0.0 1.0 -0.0
vn 0.0 1.0 -0.0
vn 0.0 1.0 -0.0
vn 0.0 1.0 -0.0
vn -0.0 0.0 -1.0
vn -0.0 0.0 -1.0
vn -0.0 0.0 -1.0
vn -0.0 0.0 -1.0
vn -0.0 0.0 -1.0
vn -0.0 0.0 -1.0
f 1//1 2//2 4//4
f 4//4 2//2 3//3
f 5//5 6//6 8//8
f 8//8 6//6 7//7
f 10//10 11//11 9//9
f 9//9 11//11 12//12
f 9//9 12//12 19//19
f 19//19 12//12 13//13
f 19//19 13//13 18//18
f 18//18 13//13 16//16
f 18//18 16//16 17//17
f 13//13 14//14 16//16
f 16//16 14//14 15//15
f 19//19 20//20 9//9
f 21//21 22//22 26//26
f 26//26 22//22 25//25
f 25//25 22//22 23//23
f 25//25 23//23 24//24
f 27//27 28//28 35//35
f 35//35 28//28 29//29
f 35//35 29//29 34//34
f 34//34 29//29 30//30
f 34//34 30//30 31//31
f 32//32 33//33 31//31
f 31//31 33//33 34//34
f 37//37 39//39 36//36
f 36//36 39//39 43//43
f 36//36 43//43 52//52
f 52//52 43//43 44//44
f 52//52 44//44 51//51
f 51//51 44//44 45//45
f 51//51 45//45 50//50
f 50//50 45//45 46//46
f 50//50 46//46 49//49
f 49//49 46//46 47//47
f 49//49 47//47 48//48
f 37//37 38//38 39//39
f 39//39 40//40 43//43
f 43//43 40//40 42//42
f 42//42 40//40 41//41
f 53//53 54//54 56//56
f 56//56 54//54 55//55
f 58//58 59//59 57//57
f 57//57 59//59 65//65
f 65//65 59//59 60//60
f 65//65 60//60 64//64
f 64//64 60//60 63//63
f 63//63 60//60 61//61
f 63//63 61//61 62//62
f 66//66 67//67 69//69
f 69//69 67//67 68//68
f 70//70 71//71 73//73
f 73//73 71//71 72//72
f 74//74 75//75 77//77
f 77//77 75//75 76//76
f 78//78 79//79 81//81
f 81//81 79//79 80//80
f 82//82 83//83 85//85
f 85//85 83//83 84//84
f 87//87 92//92 86//86
f 86//86 92//92 99//99
f 86//86 99//99 100//100
f 92//92 87//87 90//90
f 90//90 87//87 88//88
f 90//90 88//88 89//89
f 90//90 91//91 92//92
f 92//92 93//93 99//99
f 99//99 93//93 98//98
f 98//98 93//93 95//95
f 98//98 95//95 97//97
f 97//97 95//95 96//96
f 93//93 94//94 95//95
f 86//86 100//100 108//108
f 108//108 100//100 101//101
f 108//108 101//101 107//107
f 107//107 101//101 102//102
f 107//107 102//102 106//106
f 106//106 102//102 103//103
f 106//106 103//103 105//105
f 105//105 103//103 104//104
f 109//109 110//110 112//112
f 112//112 110//110 111//111
f 113//113 114//114 116//116
f 116//116 114//114 115//115
f 117//117 118//118 120//120
f 120//120 118//118 119//119
f 121//121 122//122 124//124
f 124//124 122//122 123//123
f 125//125 126//126 128//128
f 128//128 126//126 127//127
f 150//150 129//129 149//149
f 149//149 129//129 130//130
f 149//149 130//130 148//148
f 148//148 130//130 131//131
f 148//148 131//131 147//147
f 147//147 131//131 132//132
f 147//147 132//132 146//146
f 146//146 132//132 133//133
f 146//146 133//133 145//145
f 145//145 133//133 134//134
f 145//145 134//134 144//144
f 144//144 134//134 135//135
f 144//144 135//135 143//143
f 143//143 135//135 136//136
f 143//143 136//136 142//142
f 142//142 136//136 137//137
f 142//142 137//137 141//141
f 141//141 137//137 138//138
f 141//141 138//138 140//140
f 140//140 138//138 139//139
f 152//152 153//153 151//151
f 151//151 153//153 154//154
f 151//151 154//154 156//156
f 156//156 154//154 155//155
f 157//157 158//158 160//160
f 160//160 158//158 159//159
f 161//161 162//162 166//166
f 166//166 162//162 165//165
f 165//165 162//162 163//163
f 165//165 163//163 164//164

# End of file