# WaveFront *.obj file
# Vertices: 234
# Triangles : 216

v -7.5 0.0 10.0
v -7.440860271453857 0.9399992227554321 10.0
v -7.264373779296875 1.8651741743087769 10.0
v -6.973323822021484 2.7609341144561768 10.0
v -6.572299957275391 3.613152503967285 10.0
v -6.067627429962158 4.408389568328857 10.0
v -5.467264652252197 5.134103298187256 10.0
v -4.780679702758789 5.778849124908447 10.0
v -4.018701076507568 6.332459449768066 10.0
v -3.1933445930480957 6.786202907562256 10.0
v -2.317627429962158 7.1329240798950195 10.0
v -1.4053598642349243 7.367154598236084 10.0
v -0.4709289073944092 7.48520040512085 10.0
v 0.4709289073944092 7.48520040512085 10.0
v 1.4053598642349243 7.367154598236084 10.0
v 2.317627429962158 7.1329240798950195 10.0
v 3.1933445930480957 6.786202907562256 10.0
v 4.018701076507568 6.332459449768066 10.0
v 4.780679702758789 5.778849124908447 10.0
v 5.467264652252197 5.134103298187256 10.0
v 6.067627429962158 4.408389568328857 10.0
v 6.572299957275391 3.613152503967285 10.0
v 6.973323822021484 2.7609341144561768 10.0
v 7.264373779296875 1.8651741743087769 10.0
v 7.440860271453857 0.9399992227554321 10.0
v 7.5 0.0 10.0
v 7.5 0.0 0.0
v 7.440860271453857 0.9399992227554321 0.0
v 7.264373779296875 1.8651741743087769 0.0
v 6.973323822021484 2.7609341144561768 0.0
v 6.572299957275391 3.613152503967285 0.0
v 6.067627429962158 4.408389568328857 0.0
v 5.467264652252197 5.134103298187256 0.0
v 4.780679702758789 5.778849124908447 0.0
v 4.018701076507568 6.332459449768066 0.0
v 3.1933445930480957 6.786202907562256 0.0
v 2.317627429962158 7.1329240798950195 0.0
v 1.4053598642349243 7.367154598236084 0.0
v 0.4709289073944092 7.48520040512085 0.0
v -0.4709289073944092 7.48520040512085 0.0
v -1.4053598642349243 7.367154598236084 0.0
v -2.317627429962158 7.1329240798950195 0.0
v -3.1933445930480957 6.786202907562256 0.0
v -4.018701076507568 6.332459449768066 0.0
v -4.780679702758789 5.778849124908447 0.0
v -5.467264652252197 5.134103298187256 0.0
v -6.067627429962158 4.408389568328857 0.0
v -6.572299957275391 3.613152503967285 0.0
v -6.973323822021484 2.7609341144561768 0.0
v -7.264373779296875 1.8651741743087769 0.0
v -7.440860271453857 0.9399992227554321 0.0
v -7.5 0.0 0.0
v -1.5 -2.0 10.0
v -1.439239501953125 -2.4225988388061523 10.0
v -1.2618802785873413 -2.8109612464904785 10.0
v -0.9822911024093628 -3.133624315261841 10.0
v -0.62312251329422 -3.364448070526123 10.0
v -0.21347226202487946 -3.484732151031494 10.0
v 0.21347226202487946 -3.484732151031494 10.0
v 0.62312251329422 -3.364448070526123 10.0
v 0.9822911024093628 -3.133624315261841 10.0
v 1.2618802785873413 -2.8109612464904785 10.0
v 1.439239501953125 -2.4225988388061523 10.0
v 1.5 -2.0 10.0
v 1.439239501953125 -1.5774011611938477 10.0
v 1.2618802785873413 -1.1890387535095215 10.0
v 0.9822911024093628 -0.8663756251335144 10.0
v 0.62312251329422 -0.6355519890785217 10.0
v 0.21347226202487946 -0.5152678489685059 10.0
v -0.21347226202487946 -0.5152678489685059 10.0
v -0.62312251329422 -0.6355519890785217 10.0
v -0.9822911024093628 -0.8663756251335144 10.0
v -1.2618802785873413 -1.1890387535095215 10.0
v -1.439239501953125 -1.5774011611938477 10.0
v -1.5 -2.0 0.0
v -1.439239501953125 -1.5774011611938477 0.0
v -1.2618802785873413 -1.1890387535095215 0.0
v -0.9822911024093628 -0.8663756251335144 0.0
v -0.62312251329422 -0.6355519890785217 0.0
v -0.21347226202487946 -0.5152678489685059 0.0
v 0.21347226202487946 -0.5152678489685059 0.0
v 0.62312251329422 -0.6355519890785217 0.0
v 0.9822911024093628 -0.8663756251335144 0.0
v 1.2618802785873413 -1.1890387535095215 0.0
v 1.439239501953125 -1.5774011611938477 0.0
v 1.5 -2.0 0.0
v 1.439239501953125 -2.4225988388061523 0.0
v 1.2618802785873413 -2.8109612464904785 0.0
v 0.9822911024093628 -3.133624315261841 0.0
v 0.62312251329422 -3.364448070526123 0.0
v 0.21347226202487946 -3.484732151031494 0.0
v -0.21347226202487946 -3.484732151031494 0.0
v -0.62312251329422 -3.364448070526123 0.0
v -0.9822911024093628 -3.133624315261841 0.0
v -1.2618802785873413 -2.8109612464904785 0.0
v -1.439239501953125 -2.4225988388061523 0.0
v -1.5 -2.0 10.0
v -1.5 -2.0 0.0
v 7.5 -3.5 0.0
v 7.5 0.0 0.0
v 7.5 0.0 10.0
v 7.5 -3.5 10.0
v 2.5 -3.5 0.0
v 7.5 -3.5 0.0
v 7.5 -3.5 10.0
v 2.5 -3.5 10.0
v 2.5 -18.5 0.0
v 2.5 -3.5 0.0
v 2.5 -3.5 10.0
v 2.5 -18.5 10.0
v -2.5 -18.5 0.0
v 2.5 -18.5 0.0
v 2.5 -18.5 10.0
v -2.5 -18.5 10.0
v -2.5 -3.5 0.0
v -2.5 -18.5 0.0
v -2.5 -18.5 10.0
v -2.5 -3.5 10.0
v -7.5 -3.5 0.0
v -2.5 -3.5 0.0
v -2.5 -3.5 10.0
v -7.5 -3.5 10.0
v -7.5 0.0 0.0
v -7.5 -3.5 0.0
v -7.5 -3.5 10.0
v -7.5 0.0 10.0
v -1.5 -2.0 10.0
v -1.439239501953125 -1.5774011611938477 10.0
v -1.2618802785873413 -1.1890387535095215 10.0
v -0.9822911024093628 -0.8663756251335144 10.0
v -0.62312251329422 -0.6355519890785217 10.0
v -0.21347226202487946 -0.5152678489685059 10.0
v 0.21347226202487946 -0.5152678489685059 10.0
v 0.62312251329422 -0.6355519890785217 10.0
v 0.9822911024093628 -0.8663756251335144 10.0
v 1.2618802785873413 -1.1890387535095215 10.0
v 1.439239501953125 -1.5774011611938477 10.0
v 1.5 -2.0 10.0
v 1.439239501953125 -2.4225988388061523 10.0
v 1.2618802785873413 -2.8109612464904785 10.0
v 0.9822911024093628 -3.133624315261841 10.0
v 0.62312251329422 -3.364448070526123 10.0
v 0.21347226202487946 -3.484732151031494 10.0
v -0.21347226202487946 -3.484732151031494 10.0
v -0.62312251329422 -3.364448070526123 10.0
v -0.9822911024093628 -3.133624315261841 10.0
v -1.2618802785873413 -2.8109612464904785 10.0
v -1.439239501953125 -2.4225988388061523 10.0
v -7.5 0.0 10.0
v -7.5 -3.5 10.0
v -2.5 -3.5 10.0
v -2.5 -18.5 10.0
v 2.5 -18.5 10.0
v 2.5 -3.5 10.0
v 7.5 -3.5 10.0
v 7.5 0.0 10.0
v 7.440860271453857 0.9399992227554321 10.0
v 7.264373779296875 1.8651741743087769 10.0
v 6.973323822021484 2.7609341144561768 10.0
v 6.572299957275391 3.613152503967285 10.0
v 6.067627429962158 4.408389568328857 10.0
v 5.467264652252197 5.134103298187256 10.0
v 4.780679702758789 5.778849124908447 10.0
v 4.018701076507568 6.332459449768066 10.0
v 3.1933445930480957 6.786202907562256 10.0
v 2.317627429962158 7.1329240798950195 10.0
v 1.4053598642349243 7.367154598236084 10.0
v 0.4709289073944092 7.48520040512085 10.0
v -0.4709289073944092 7.48520040512085 10.0
v -1.4053598642349243 7.367154598236084 10.0
v -2.317627429962158 7.1329240798950195 10.0
v -3.1933445930480957 6.786202907562256 10.0
v -4.018701076507568 6.332459449768066 10.0
v -4.780679702758789 5.778849124908447 10.0
v -5.467264652252197 5.134103298187256 10.0
v -6.067627429962158 4.408389568328857 10.0
v -6.572299957275391 3.613152503967285 10.0
v -6.973323822021484 2.7609341144561768 10.0
v -7.264373779296875 1.8651741743087769 10.0
v -7.440860271453857 0.9399992227554321 10.0
v -1.5 -2.0 0.0
v -1.439239501953125 -2.4225988388061523 0.0
v -1.2618802785873413 -2.8109612464904785 0.0
v -0.9822911024093628 -3.133624315261841 0.0
v -0.62312251329422 -3.364448070526123 0.0
v -0.21347226202487946 -3.484732151031494 0.0
v 0.21347226202487946 -3.484732151031494 0.0
v 0.62312251329422 -3.364448070526123 0.0
v 0.9822911024093628 -3.133624315261841 0.0
v 1.2618802785873413 -2.8109612464904785 0.0
v 1.439239501953125 -2.4225988388061523 0.0
v 1.5 -2.0 0.0
v 1.439239501953125 -1.5774011611938477 0.0
v 1.2618802785873413 -1.1890387535095215 0.0
v 0.9822911024093628 -0.8663756251335144 0.0
v 0.62312251329422 -0.6355519890785217 0.0
v 0.21347226202487946 -0.5152678489685059 0.0
v -0.21347226202487946 -0.5152678489685059 0.0
v -0.62312251329422 -0.6355519890785217 0.0
v -0.9822911024093628 -0.8663756251335144 0.0
v -1.2618802785873413 -1.1890387535095215 0.0
v -1.439239501953125 -1.5774011611938477 0.0
v -7.5 -3.5 0.0
v -7.5 0.0 0.0
v -7.440860271453857 0.9399992227554321 0.0
v -7.264373779296875 1.8651741743087769 0.0
v -6.973323822021484 2.7609341144561768 0.0
v -6.572299957275391 3.613152503967285 0.0
v -6.067627429962158 4.408389568328857 0.0
v -5.467264652252197 5.134103298187256 0.0
v -4.780679702758789 5.778849124908447 0.0
v -4.018701076507568 6.332459449768066 0.0
v -3.1933445930480957 6.786202907562256 0.0
v -2.317627429962158 7.1329240798950195 0.0
v -1.4053598642349243 7.367154598236084 0.0
v -0.4709289073944092 7.48520040512085 0.0
v 0.4709289073944092 7.48520040512085 0.0
v 1.4053598642349243 7.367154598236084 0.0
v 2.317627429962158 7.1329240798950195 0.0
v 3.1933445930480957 6.786202907562256 0.0
v 4.018701076507568 6.332459449768066 0.0
v 4.780679702758789 5.778849124908447 0.0
v 5.467264652252197 5.134103298187256 0.0
v 6.067627429962158 4.408389568328857 0.0
v 6.572299957275391 3.613152503967285 0.0
v 6.973323822021484 2.7609341144561768 0.0
v 7.264373779296875 1.8651741743087769 0.0
v 7.440860271453857 0.9399992227554321 0.0
v 7.5 0.0 0.0
v 7.5 -3.5 0.0
v 2.5 -3.5 0.0
v 2.5 -18.5 0.0
v -2.5 -18.5 0.0
v -2.5 -3.5 0.0
vn -1.0 1.2246468525851679e-16 -0.0
vn -0.9921147227287292 0.12533323466777802 -0.0
vn -0.9685831665992737 0.24868988990783691 -0.0
vn -0.9297764897346497 0.3681245446205139 -0.0
vn -0.8763066530227661 0.4817536771297455 -0.0
vn -0.80901700258255 0.5877852439880371 -0.0
vn -0.728968620300293 0.6845471262931824 -0.0
vn -0.6374239921569824 0.7705132365226746 -0.0
vn -0.5358268022537231 0.8443279266357422 -0.0
vn -0.4257792830467224 0.9048270583152771 -0.0
vn -0.30901700258255005 0.9510565400123596 -0.0
vn -0.187381312251091 0.9822872281074524 -0.0
vn -0.06279052048921585 0.9980267286300659 -0.0
vn 0.06279052048921585 0.9980267286300659 0.0
vn 0.187381312251091 0.9822872281074524 0.0
vn 0.30901700258255005 0.9510565400123596 0.0
vn 0.4257792830467224 0.9048270583152771 0.0
vn 0.5358268022537231 0.8443279266357422 0.0
vn 0.6374239921569824 0.7705132365226746 0.0
vn 0.728968620300293 0.6845471262931824 0.0
vn 0.80901700258255 0.5877852439880371 0.0
vn 0.8763066530227661 0.4817536771297455 0.0
vn 0.9297764897346497 0.3681245446205139 0.0
vn 0.9685831665992737 0.24868988990783691 0.0
vn 0.9921147227287292 0.12533323466777802 0.0
vn 1.0 0.0 0.0
vn 1.0 0.0 0.0
vn 0.9921147227287292 0.12533323466777802 0.0
vn 0.9685831665992737 0.24868988990783691 0.0
vn 0.9297764897346497 0.3681245446205139 0.0
vn 0.8763066530227661 0.4817536771297455 0.0
vn 0.80901700258255 0.5877852439880371 0.0
vn 0.728968620300293 0.6845471262931824 0.0
vn 0.6374239921569824 0.7705132365226746 0.0
vn 0.5358268022537231 0.8443279266357422 0.0
vn 0.4257792830467224 0.9048270583152771 0.0
vn 0.30901700258255005 0.9510565400123596 0.0
vn 0.187381312251091 0.9822872281074524 0.0
vn 0.06279052048921585 0.9980267286300659 0.0
vn -0.06279052048921585 0.9980267286300659 -0.0
vn -0.187381312251091 0.9822872281074524 -0.0
vn -0.30901700258255005 0.9510565400123596 -0.0
vn -0.4257792830467224 0.9048270583152771 -0.0
vn -0.5358268022537231 0.8443279266357422 -0.0
vn -0.6374239921569824 0.7705132365226746 -0.0
vn -0.728968620300293 0.6845471262931824 -0.0
vn -0.80901700258255 0.5877852439880371 -0.0
vn -0.8763066530227661 0.4817536771297455 -0.0
vn -0.9297764897346497 0.3681245446205139 -0.0
vn -0.9685831665992737 0.24868988990783691 -0.0
vn -0.9921147227287292 0.12533323466777802 -0.0
vn -1.0 1.2246468525851679e-16 -0.0
vn 1.0 1.2246468525851679e-16 -0.0
vn 0.9594929814338684 0.28173255920410156 -0.0
vn 0.8412535190582275 0.5406408309936523 -0.0
vn 0.6548607349395752 0.7557495832443237 -0.0
vn 0.4154150187969208 0.9096319675445557 -0.0
vn 0.1423148363828659 0.9898214340209961 -0.0
vn -0.1423148363828659 0.9898214340209961 0.0
vn -0.4154150187969208 0.9096319675445557 0.0
vn -0.6548607349395752 0.7557495832443237 0.0
vn -0.8412535190582275 0.5406408309936523 0.0
vn -0.9594929814338684 0.28173255920410156 0.0
vn -1.0 0.0 0.0
vn -0.9594929814338684 -0.28173255920410156 0.0
vn -0.8412535190582275 -0.5406408309936523 0.0
vn -0.6548607349395752 -0.7557495832443237 0.0
vn -0.4154150187969208 -0.9096319675445557 0.0
vn -0.1423148363828659 -0.9898214340209961 0.0
vn 0.1423148363828659 -0.9898214340209961 0.0
vn 0.4154150187969208 -0.9096319675445557 0.0
vn 0.6548607349395752 -0.7557495832443237 0.0
vn 0.8412535190582275 -0.5406408309936523 0.0
vn 0.9594929814338684 -0.28173255920410156 0.0
vn 1.0 -1.2246468525851679e-16 0.0
vn 0.9594929814338684 -0.28173255920410156 0.0
vn 0.8412535190582275 -0.5406408309936523 0.0
vn 0.6548607349395752 -0.7557495832443237 0.0
vn 0.4154150187969208 -0.9096319675445557 0.0
vn 0.1423148363828659 -0.9898214340209961 0.0
vn -0.1423148363828659 -0.9898214340209961 0.0
vn -0.4154150187969208 -0.9096319675445557 0.0
vn -0.6548607349395752 -0.7557495832443237 0.0
vn -0.8412535190582275 -0.5406408309936523 0.0
vn -0.9594929814338684 -0.28173255920410156 0.0
vn -1.0 0.0 0.0
vn -0.9594929814338684 0.28173255920410156 0.0
vn -0.8412535190582275 0.5406408309936523 0.0
vn -0.6548607349395752 0.7557495832443237 0.0
vn -0.4154150187969208 0.9096319675445557 0.0
vn -0.1423148363828659 0.9898214340209961 0.0
vn 0.1423148363828659 0.9898214340209961 -0.0
vn 0.4154150187969208 0.9096319675445557 -0.0
vn 0.6548607349395752 0.7557495832443237 -0.0
vn 0.8412535190582275 0.5406408309936523 -0.0
vn 0.9594929814338684 0.28173255920410156 -0.0
vn 1.0 -1.2246468525851679e-16 0.0
vn 1.0 1.2246468525851679e-16 -0.0
vn 1.0 0.0 0.0
vn 1.0 0.0 0.0
vn 1.0 0.0 0.0
vn 1.0 0.0 0.0
vn 0.0 -1.0 0.0
vn 0.0 -1.0 0.0
vn 0.0 -1.0 0.0
vn 0.0 -1.0 0.0
vn 1.0 0.0 0.0
vn 1.0 0.0 0.0
vn 1.0 0.0 0.0
vn 1.0 0.0 0.0
vn 0.0 -1.0 0.0
vn 0.0 -1.0 0.0
vn 0.0 -1.0 0.0
vn 0.0 -1.0 0.0
vn -1.0 0.0 0.0
vn -1.0 0.0 0.0
vn -1.0 0.0 0.0
vn -1.0 0.0 0.0
vn 0.0 -1.0 0.0
vn 0.0 -1.0 0.0
vn 0.0 -1.0 0.0
vn 0.0 -1.0 0.0
vn -1.0 0.0 0.0
vn -1.0 0.0 0.0
vn -1.0 0.0 0.0
vn -1.0 0.0 0.0
vn 0.0 0.0 1.0
vn 0.0 0.0 1.0
vn 0.0 0.0 1.0
vn 0.0 0.0 1.0
vn 0.0 0.0 1.0
vn 0.0 0.0 1.0
vn 0.0 0.0 1.0
vn 0.0 0.0 1.0
vn 0.0 0.0 1.0
vn 0.0 0.0 1.0
vn 0.0 0.0 1.0
vn 0.0 0.0 1.0
vn 0.0 0.0 1.0
vn 0.0 0.0 1.0
vn 0.0 0.0 1.0
vn 0.0 0.0 1.0
vn 0.0 0.0 1.0
vn 0.0 0.0 1.0
vn 0.0 0.0 1.0
vn 0.0 0.0 1.0
vn 0.0 0.0 1.0
vn 0.0 0.0 1.0
vn 0.0 0.0 1.0
vn 0.0 0.0 1.0
vn 0.0 0.0 1.0
vn 0.0 0.0 1.0
vn 0.0 0.0 1.0
vn 0.0 0.0 1.0
vn 0.0 0.0 1.0
vn 0.0 0.0 1.0
vn 0.0 0.0 1.0
vn 0.0 0.0 1.0
vn 0.0 0.0 1.0
vn 0.0 0.0 1.0
vn 0.0 0.0 1.0
vn 0.0 0.0 1.0
vn 0.0 0.0 1.0
vn 0.0 0.0 1.0
vn 0.0 0.0 1.0
vn 0.0 0.0 1.0
vn 0.0 0.0 1.0
vn 0.0 0.0 1.0
vn 0.0 0.0 1.0
vn 0.0 0.0 1.0
vn 0.0 0.0 1.0
vn 0.0 0.0 1.0
vn 0.0 0.0 1.0
vn 0.0 0.0 1.0
vn 0.0 0.0 1.0
vn 0.0 0.0 1.0
vn 0.0 0.0 1.0
vn 0.0 0.0 1.0
vn 0.0 0.0 1.0
vn 0.0 0.0 1.0
vn -0.0 0.0 -1.0
vn -0.0 0.0 -1.0
vn -0.0 0.0 -1.0
vn -0.0 0.0 -1.0
vn -0.0 0.0 -1.0
vn -0.0 0.0 -1.0
vn -0.0 0.0 -1.0
vn -0.0 0.0 -1.0
vn -0.0 0.0 -1.0
vn -0.0 0.0 -1.0
vn -0.0 0.0 -1.0
vn -0.0 0.0 -1.0
vn -0.0 0.0 -1.0
vn -0.0 0.0 -1.0
vn -0.0 0.0 -1.0
vn -0.0 0.0 -1.0
vn -0.0 0.0 -1.0
vn -0.0 0.0 -1.0
vn -0.0 0.0 -1.0
vn -0.0 0.0 -1.0
vn -0.0 0.0 -1.0
vn -0.0 0.0 -1.0
vn -0.0 0.0 -1.0
vn -0.0 0.0 -1.0
vn -0.0 0.0 -1.0
vn -0.0 0.0 -1.0
vn -0.0 0.0 -1.0
vn -0.0 0.0 -1.0
vn -0.0 0.0 -1.0
vn -0.0 0.0 -1.0
vn -0.0 0.0 -1.0
vn -0.0 0.0 -1.0
vn -0.0 0.0 -1.0
vn -0.0 0.0 -1.0
vn -0.0 0.0 -1.0
vn -0.0 0.0 -1.0
vn -0.0 0.0 -1.0
vn -0.0 0.0 -1.0
vn -0.0 0.0 -1.0
vn -0.0 0.0 -1.0
vn -0.0 0.0 -1.0
vn -0.0 0.0 -1.0
vn -0.0 0.0 -1.0
vn -0.0 0.0 -1.0
vn -0.0 0.0 -1.0
vn -0.0 0.0 -1.0
vn -0.0 0.0 -1.0
vn -0.0 0.0 -1.0
vn -0.0 0.0 -1.0
vn -0.0 0.0 -1.0
vn -0.0 0.0 -1.0
vn -0.0 0.0 -1.0
vn -0.0 0.0 -1.0
vn -0.0 0.0 -1.0
g 8737d86e-e31e-11ea-b4aa-54bf646e7e1f
f 52//52 1//1 51//51
f 51//51 1//1 2//2
f 51//51 2//2 50//50
f 50//50 2//2 3//3
f 50//50 3//3 49//49
f 49//49 3//3 4//4
f 49//49 4//4 48//48
f 48//48 4//4 5//5
f 48//48 5//5 47//47
f 47//47 5//5 6//6
f 47//47 6//6 46//46
f 46//46 6//6 7//7
f 46//46 7//7 45//45
f 45//45 7//7 8//8
f 45//45 8//8 44//44
f 44//44 8//8 9//9
f 44//44 9//9 43//43
f 43//43 9//9 10//10
f 43//43 10//10 42//42
f 42//42 10//10 11//11
f 42//42 11//11 41//41
f 41//41 11//11 12//12
f 41//41 12//12 40//40
f 40//40 12//12 13//13
f 40//40 13//13 39//39
f 39//39 13//13 14//14
f 39//39 14//14 38//38
f 38//38 14//14 15//15
f 38//38 15//15 37//37
f 37//37 15//15 16//16
f 37//37 16//16 36//36
f 36//36 16//16 17//17
f 36//36 17//17 35//35
f 35//35 17//17 18//18
f 35//35 18//18 34//34
f 34//34 18//18 19//19
f 34//34 19//19 33//33
f 33//33 19//19 20//20
f 33//33 20//20 32//32
f 32//32 20//20 21//21
f 32//32 21//21 31//31
f 31//31 21//21 22//22
f 31//31 22//22 30//30
f 30//30 22//22 23//23
f 30//30 23//23 29//29
f 29//29 23//23 24//24
f 29//29 24//24 28//28
f 28//28 24//24 25//25
f 28//28 25//25 27//27
f 27//27 25//25 26//26
g 8707c624-e31e-11ea-89a1-54bf646e7e1f
f 54//54 96//96 53//53
f 53//53 96//96 98//98
f 97//97 75//75 74//74
f 74//74 75//75 76//76
f 74//74 76//76 73//73
f 73//73 76//76 77//77
f 73//73 77//77 72//72
f 72//72 77//77 78//78
f 72//72 78//78 71//71
f 71//71 78//78 79//79
f 71//71 79//79 70//70
f 70//70 79//79 80//80
f 70//70 80//80 69//69
f 69//69 80//80 81//81
f 69//69 81//81 68//68
f 68//68 81//81 82//82
f 68//68 82//82 67//67
f 67//67 82//82 83//83
f 67//67 83//83 66//66
f 66//66 83//83 84//84
f 66//66 84//84 65//65
f 65//65 84//84 85//85
f 65//65 85//85 64//64
f 64//64 85//85 86//86
f 64//64 86//86 63//63
f 63//63 86//86 87//87
f 63//63 87//87 62//62
f 62//62 87//87 88//88
f 62//62 88//88 61//61
f 61//61 88//88 89//89
f 61//61 89//89 60//60
f 60//60 89//89 90//90
f 60//60 90//90 59//59
f 59//59 90//90 91//91
f 59//59 91//91 58//58
f 58//58 91//91 92//92
f 58//58 92//92 57//57
f 57//57 92//92 93//93
f 57//57 93//93 56//56
f 56//56 93//93 94//94
f 56//56 94//94 55//55
f 55//55 94//94 95//95
f 55//55 95//95 54//54
f 54//54 95//95 96//96
g 87081448-e31e-11ea-8f14-54bf646e7e1f
f 99//99 100//100 102//102
f 102//102 100//100 101//101
g 87083b62-e31e-11ea-974e-54bf646e7e1f
f 103//103 104//104 106//106
f 106//106 104//104 105//105
g 87088970-e31e-11ea-844e-54bf646e7e1f
f 107//107 108//108 110//110
f 110//110 108//108 109//109
g 8708b092-e31e-11ea-b5df-54bf646e7e1f
f 111//111 112//112 114//114
f 114//114 112//112 113//113
g 8708d7a2-e31e-11ea-98d6-54bf646e7e1f
f 115//115 116//116 118//118
f 118//118 116//116 117//117
g 870925b0-e31e-11ea-9a57-54bf646e7e1f
f 119//119 120//120 122//122
f 122//122 120//120 121//121
g 870973e8-e31e-11ea-bd7c-54bf646e7e1f
f 123//123 124//124 126//126
f 126//126 124//124 125//125
g 8709c210-e31e-11ea-b21a-54bf646e7e1f
f 148//148 127//127 150//150
f 150//150 127//127 128//128
f 150//150 128//128 129//129
f 129//129 130//130 150//150
f 150//150 130//130 149//149
f 149//149 130//130 179//179
f 149//149 179//179 180//180
f 179//179 130//130 178//178
f 178//178 130//130 131//131
f 178//178 131//131 177//177
f 177//177 131//131 176//176
f 176//176 131//131 175//175
f 175//175 131//131 174//174
f 174//174 131//131 173//173
f 173//173 131//131 172//172
f 172//172 131//131 171//171
f 171//171 131//131 170//170
f 170//170 131//131 132//132
f 170//170 132//132 169//169
f 169//169 132//132 133//133
f 169//169 133//133 168//168
f 168//168 133//133 167//167
f 167//167 133//133 166//166
f 166//166 133//133 165//165
f 165//165 133//133 164//164
f 164//164 133//133 163//163
f 163//163 133//133 162//162
f 162//162 133//133 161//161
f 161//161 133//133 160//160
f 160//160 133//133 156//156
f 160//160 156//156 159//159
f 159//159 156//156 158//158
f 158//158 156//156 157//157
f 133//133 134//134 156//156
f 156//156 134//134 135//135
f 156//156 135//135 136//136
f 136//136 137//137 156//156
f 156//156 137//137 154//154
f 156//156 154//154 155//155
f 137//137 138//138 154//154
f 154//154 138//138 139//139
f 154//154 139//139 140//140
f 140//140 141//141 154//154
f 154//154 141//141 142//142
f 154//154 142//142 153//153
f 153//153 142//142 143//143
f 153//153 143//143 144//144
f 145//145 150//150 144//144
f 144//144 150//150 151//151
f 144//144 151//151 152//152
f 145//145 146//146 150//150
f 150//150 146//146 147//147
f 150//150 147//147 148//148
f 152//152 153//153 144//144
g 870a1034-e31e-11ea-8942-54bf646e7e1f
f 202//202 181//181 203//203
f 203//203 181//181 182//182
f 203//203 182//182 183//183
f 183//183 184//184 203//203
f 203//203 184//184 185//185
f 203//203 185//185 186//186
f 186//186 187//187 203//203
f 203//203 187//187 234//234
f 234//234 187//187 231//231
f 234//234 231//231 233//233
f 233//233 231//231 232//232
f 231//231 187//187 230//230
f 230//230 187//187 188//188
f 230//230 188//188 189//189
f 189//189 190//190 230//230
f 230//230 190//190 191//191
f 230//230 191//191 192//192
f 192//192 193//193 230//230
f 230//230 193//193 229//229
f 229//229 193//193 228//228
f 228//228 193//193 227//227
f 227//227 193//193 226//226
f 226//226 193//193 225//225
f 225//225 193//193 224//224
f 224//224 193//193 223//223
f 223//223 193//193 222//222
f 222//222 193//193 194//194
f 222//222 194//194 221//221
f 221//221 194//194 220//220
f 220//220 194//194 195//195
f 220//220 195//195 219//219
f 219//219 195//195 196//196
f 219//219 196//196 218//218
f 218//218 196//196 197//197
f 218//218 197//197 217//217
f 217//217 197//197 198//198
f 217//217 198//198 216//216
f 216//216 198//198 215//215
f 215//215 198//198 214//214
f 214//214 198//198 213//213
f 213//213 198//198 212//212
f 212//212 198//198 211//211
f 211//211 198//198 210//210
f 210//210 198//198 209//209
f 209//209 198//198 208//208
f 208//208 198//198 204//204
f 208//208 204//204 207//207
f 207//207 204//204 206//206
f 206//206 204//204 205//205
f 198//198 199//199 204//204
f 204//204 199//199 203//203
f 203//203 199//199 200//200
f 203//203 200//200 201//201
f 201//201 202//202 203//203

# End of file