# WaveFront *.obj file
# Vertices: 226
# Triangles : 150

v 2.1907994747161865 2.9513514041900635 9.126815795898438
v 2.1907994747161865 2.9513514041900635 0.4000000059604645
v 3.1500000953674316 2.9513514041900635 0.4000000059604645
v 3.1500000953674316 2.9513514041900635 9.126815795898438
v 3.1500000953674316 2.5 9.126815795898438
v 1.649999976158142 2.5 9.126815795898438
v 1.649999976158142 2.9513514041900635 9.126815795898438
v 2.1399118900299072 2.9513514041900635 9.126815795898438
v 2.158878803253174 2.926745653152466 9.126815795898438
v 2.1907994747161865 2.9513514041900635 9.126815795898438
v 3.1500000953674316 2.9513514041900635 9.126815795898438
v 1.649999976158142 2.9513514041900635 9.126815795898438
v 1.649999976158142 2.9513514041900635 0.4000000059604645
v 2.1399118900299072 2.9513514041900635 0.4000000059604645
v 2.1399118900299072 2.9513514041900635 9.126815795898438
v 1.649999976158142 2.5 9.126815795898438
v 3.1500000953674316 2.5 9.126815795898438
v 3.1500000953674316 2.5 9.399999618530273
v 4.625 2.5 9.399999618530273
v 4.625 2.5 0.4000000059604645
v 1.649999976158142 2.5 0.4000000059604645
v 1.649999976158142 2.5 0.30000001192092896
v 0.0 2.5 0.30000001192092896
v 0.0 2.5 0.0
v 5.804008960723877 2.5 0.0
v 5.804008960723877 2.5 9.600000381469727
v 0.0 2.5 9.600000381469727
v 0.0 2.5 9.300000190734863
v 1.649999976158142 2.5 9.300000190734863
v 2.158878803253174 2.926745653152466 9.126815795898438
v 2.1399118900299072 2.9513514041900635 9.126815795898438
v 2.1399118900299072 2.9513514041900635 0.4000000059604645
v 1.871161937713623 3.299999952316284 0.4000000059604645
v 1.871161937713623 3.299999952316284 9.199999809265137
v 2.158878803253174 2.926745653152466 9.199999809265137
v 3.1500000953674316 2.9513514041900635 9.126815795898438
v 3.1500000953674316 2.9513514041900635 0.4000000059604645
v 3.1500000953674316 3.299999952316284 0.4000000059604645
v 3.1500000953674316 3.299999952316284 9.399999618530273
v 3.1500000953674316 2.5 9.399999618530273
v 3.1500000953674316 2.5 9.126815795898438
v 4.625 2.5 9.399999618530273
v 3.1500000953674316 2.5 9.399999618530273
v 3.1500000953674316 3.299999952316284 9.399999618530273
v 4.625 3.299999952316284 9.399999618530273
v 4.625 2.5 0.4000000059604645
v 4.625 2.5 9.399999618530273
v 4.625 3.299999952316284 9.399999618530273
v 4.625 3.299999952316284 0.4000000059604645
v 1.649999976158142 2.5 0.4000000059604645
v 4.625 2.5 0.4000000059604645
v 4.625 3.299999952316284 0.4000000059604645
v 3.1500000953674316 3.299999952316284 0.4000000059604645
v 3.1500000953674316 2.9513514041900635 0.4000000059604645
v 2.1907994747161865 2.9513514041900635 0.4000000059604645
v 2.6431005001068115 3.299999952316284 0.4000000059604645
v 1.871161937713623 3.299999952316284 0.4000000059604645
v 2.1399118900299072 2.9513514041900635 0.4000000059604645
v 1.649999976158142 2.9513514041900635 0.4000000059604645
v 0.0 2.5 9.300000190734863
v 0.0 3.299999952316284 9.300000190734863
v 1.649999976158142 3.299999952316284 9.300000190734863
v 1.649999976158142 2.5 9.300000190734863
v 0.0 3.299999952316284 0.30000001192092896
v 0.0 2.5 0.30000001192092896
v 1.649999976158142 2.5 0.30000001192092896
v 1.649999976158142 3.299999952316284 0.30000001192092896
v 1.649999976158142 2.9513514041900635 9.126815795898438
v 1.649999976158142 2.5 9.126815795898438
v 1.649999976158142 2.5 9.300000190734863
v 1.649999976158142 3.299999952316284 9.300000190734863
v 1.649999976158142 3.299999952316284 0.30000001192092896
v 1.649999976158142 2.5 0.30000001192092896
v 1.649999976158142 2.5 0.4000000059604645
v 1.649999976158142 2.9513514041900635 0.4000000059604645
v 4.625 3.299999952316284 0.4000000059604645
v 4.625 3.299999952316284 9.399999618530273
v 3.1500000953674316 3.299999952316284 9.399999618530273
v 3.1500000953674316 3.299999952316284 0.4000000059604645
v 0.0 3.299999952316284 0.30000001192092896
v 1.649999976158142 3.299999952316284 0.30000001192092896
v 1.649999976158142 3.299999952316284 9.300000190734863
v 0.0 3.299999952316284 9.300000190734863
v 0.0 3.299999952316284 9.600000381469727
v 6.300000190734863 3.299999952316284 9.600000381469727
v 6.300000190734863 3.299999952316284 0.0
v 0.0 3.299999952316284 0.0
v 2.6431005001068115 3.299999952316284 0.4000000059604645
v 2.6431005001068115 3.299999952316284 9.199999809265137
v 1.871161937713623 3.299999952316284 9.199999809265137
v 1.871161937713623 3.299999952316284 0.4000000059604645
v 0.0 3.299999952316284 9.300000190734863
v 0.0 2.5 9.300000190734863
v 0.0 2.5 9.600000381469727
v 0.0 3.299999952316284 9.600000381469727
v 0.0 2.5 0.30000001192092896
v 0.0 3.299999952316284 0.30000001192092896
v 0.0 3.299999952316284 0.0
v 0.0 2.5 0.0
v 2.1907994747161865 2.9513514041900635 9.126815795898438
v 2.158878803253174 2.926745653152466 9.126815795898438
v 2.158878803253174 2.926745653152466 9.199999809265137
v 2.6431005001068115 3.299999952316284 9.199999809265137
v 2.6431005001068115 3.299999952316284 0.4000000059604645
v 2.1907994747161865 2.9513514041900635 0.4000000059604645
v 1.871161937713623 3.299999952316284 9.199999809265137
v 2.6431005001068115 3.299999952316284 9.199999809265137
v 2.158878803253174 2.926745653152466 9.199999809265137
v 5.804008960723877 2.5 0.0
v 6.300000190734863 3.299999952316284 0.0
v 6.300000190734863 3.299999952316284 9.600000381469727
v 5.804008960723877 2.5 9.600000381469727
v 6.300000190734863 3.299999952316284 9.600000381469727
v 0.0 3.299999952316284 9.600000381469727
v 0.0 2.5 9.600000381469727
v 5.804008960723877 2.5 9.600000381469727
v 0.0 3.299999952316284 0.0
v 6.300000190734863 3.299999952316284 0.0
v 5.804008960723877 2.5 0.0
v 0.0 2.5 0.0
v 5.425000190734863 -1.3322676295501878e-15 0.4000000059604645
v 3.1500000953674316 2.9513514041900635 0.4000000059604645
v 2.3499999046325684 2.9513514041900635 0.4000000059604645
v 4.625 0.0 0.4000000059604645
v 4.625 0.0 9.399999618530273
v 5.425000190734863 -1.3322676295501878e-15 9.399999618530273
v 5.425000190734863 0.0 9.600000381469727
v 4.625 0.0 9.600000381469727
v 2.3499999046325684 2.9513514041900635 9.126815795898438
v 2.3499999046325684 2.9513514041900635 0.4000000059604645
v 3.1500000953674316 2.9513514041900635 0.4000000059604645
v 3.1500000953674316 2.9513514041900635 9.126815795898438
v 3.1500000953674316 1.9135135412216187 9.126815795898438
v 2.3499999046325684 2.9513514041900635 9.126815795898438
v 3.1500000953674316 2.9513514041900635 9.126815795898438
v 2.2906627655029297 3.028329372406006 9.199999809265137
v 2.2906627655029297 3.028329372406006 0.4000000059604645
v 0.45913925766944885 5.404359817504883 0.4000000059604645
v 0.45913925766944885 5.404359817504883 9.199999809265137
v 4.625 0.0 0.4000000059604645
v 2.3499999046325684 2.9513514041900635 0.4000000059604645
v 2.3499999046325684 2.9513514041900635 9.126815795898438
v 3.1500000953674316 1.9135135412216187 9.126815795898438
v 3.1500000953674316 1.9135135412216187 9.399999618530273
v 4.625 0.0 9.399999618530273
v 4.625 0.0 9.600000381469727
v 0.0 6.0 9.600000381469727
v 0.0 6.0 0.0
v 4.625 0.0 0.0
v 3.1500000953674316 1.9135135412216187 9.126815795898438
v 3.1500000953674316 2.9513514041900635 9.126815795898438
v 3.1500000953674316 2.9513514041900635 9.399999618530273
v 3.1500000953674316 1.9135135412216187 9.399999618530273
v 4.625 0.0 9.399999618530273
v 3.1500000953674316 1.9135135412216187 9.399999618530273
v 3.1500000953674316 2.9513514041900635 9.399999618530273
v 5.425000190734863 -1.3322676295501878e-15 9.399999618530273
v 0.45913925766944885 5.404359817504883 9.199999809265137
v 0.45913925766944885 5.404359817504883 0.4000000059604645
v 0.9609633684158325 5.791182518005371 0.4000000059604645
v 0.9609633684158325 5.791182518005371 9.199999809265137
v 2.2906627655029297 3.028329372406006 9.199999809265137
v 0.45913925766944885 5.404359817504883 9.199999809265137
v 0.9609633684158325 5.791182518005371 9.199999809265137
v 2.7924869060516357 3.415152072906494 9.199999809265137
v 2.2906627655029297 3.028329372406006 0.4000000059604645
v 2.2906627655029297 3.028329372406006 9.199999809265137
v 2.7924869060516357 3.415152072906494 9.199999809265137
v 2.7924869060516357 3.415152072906494 0.4000000059604645
v 0.45913925766944885 5.404359817504883 0.4000000059604645
v 2.2906627655029297 3.028329372406006 0.4000000059604645
v 2.7924869060516357 3.415152072906494 0.4000000059604645
v 0.9609633684158325 5.791182518005371 0.4000000059604645
v 0.800000011920929 6.0 0.0
v 0.0 6.0 0.0
v 0.0 6.0 9.600000381469727
v 0.800000011920929 6.0 9.600000381469727
v 3.1500000953674316 2.9513514041900635 0.4000000059604645
v 5.425000190734863 -1.3322676295501878e-15 0.4000000059604645
v 5.425000190734863 0.0 0.0
v 0.800000011920929 6.0 0.0
v 0.800000011920929 6.0 9.600000381469727
v 5.425000190734863 0.0 9.600000381469727
v 5.425000190734863 -1.3322676295501878e-15 9.399999618530273
v 3.1500000953674316 2.9513514041900635 9.399999618530273
v 3.1500000953674316 2.9513514041900635 9.126815795898438
v 2.7924869060516357 3.415152072906494 0.4000000059604645
v 2.7924869060516357 3.415152072906494 9.199999809265137
v 0.9609633684158325 5.791182518005371 9.199999809265137
v 0.9609633684158325 5.791182518005371 0.4000000059604645
v 5.425000190734863 -1.3322676295501878e-15 0.4000000059604645
v 4.625 0.0 0.4000000059604645
v 4.625 0.0 0.0
v 5.425000190734863 0.0 0.0
v 4.625 0.0 9.600000381469727
v 5.425000190734863 0.0 9.600000381469727
v 0.800000011920929 6.0 9.600000381469727
v 0.0 6.0 9.600000381469727
v 5.425000190734863 0.0 0.0
v 4.625 0.0 0.0
v 0.0 6.0 0.0
v 0.800000011920929 6.0 0.0
v 4.0 6.0 0.0
v 4.75 6.599999904632568 0.0
v 4.75 6.599999904632568 10.0
v 4.0 6.0 10.0
v 0.0 6.0 0.0
v 4.0 6.0 0.0
v 4.0 6.0 10.0
v 0.0 6.0 10.0
v 1.1021821011522021e-16 6.599999904632568 0.0
v 0.0 6.0 0.0
v 0.0 6.0 10.0
v 1.1021821011522021e-16 6.599999904632568 10.0
v 4.75 6.599999904632568 0.0
v 1.1021821011522021e-16 6.599999904632568 0.0
v 1.1021821011522021e-16 6.599999904632568 10.0
v 4.75 6.599999904632568 10.0
v 4.75 6.599999904632568 10.0
v 1.1021821011522021e-16 6.599999904632568 10.0
v 0.0 6.0 10.0
v 4.0 6.0 10.0
v 1.1021821011522021e-16 6.599999904632568 0.0
v 4.75 6.599999904632568 0.0
v 4.0 6.0 0.0
v 0.0 6.0 0.0
vn -0.0 -1.0 0.0
vn -0.0 -1.0 0.0
vn -0.0 -1.0 0.0
vn -0.0 -1.0 0.0
vn -0.0 0.0 -1.0
vn -0.0 0.0 -1.0
vn -0.0 0.0 -1.0
vn -0.0 0.0 -1.0
vn -0.0 0.0 -1.0
vn -0.0 0.0 -1.0
vn -0.0 0.0 -1.0
vn -0.0 -1.0 0.0
vn -0.0 -1.0 0.0
vn -0.0 -1.0 0.0
vn -0.0 -1.0 0.0
vn 0.0 -1.0 0.0
vn 0.0 -1.0 0.0
vn 0.0 -1.0 0.0
vn 0.0 -1.0 0.0
vn 0.0 -1.0 0.0
vn 0.0 -1.0 0.0
vn 0.0 -1.0 0.0
vn 0.0 -1.0 0.0
vn 0.0 -1.0 0.0
vn 0.0 -1.0 0.0
vn 0.0 -1.0 0.0
vn 0.0 -1.0 0.0
vn 0.0 -1.0 0.0
vn 0.0 -1.0 0.0
vn 0.7920101881027222 0.6105078458786011 -0.0
vn 0.7920101881027222 0.6105078458786011 -0.0
vn 0.7920101881027222 0.6105078458786011 -0.0
vn 0.7920101881027222 0.6105078458786011 -0.0
vn 0.7920101881027222 0.6105078458786011 -0.0
vn 0.7920101881027222 0.6105078458786011 -0.0
vn 1.0 0.0 0.0
vn 1.0 0.0 0.0
vn 1.0 0.0 0.0
vn 1.0 0.0 0.0
vn 1.0 0.0 0.0
vn 1.0 0.0 0.0
vn -0.0 -0.0 -1.0
vn -0.0 -0.0 -1.0
vn -0.0 -0.0 -1.0
vn -0.0 -0.0 -1.0
vn -1.0 -0.0 0.0
vn -1.0 -0.0 0.0
vn -1.0 -0.0 0.0
vn -1.0 -0.0 0.0
vn -0.0 -0.0 1.0
vn -0.0 -0.0 1.0
vn -0.0 -0.0 1.0
vn -0.0 -0.0 1.0
vn -0.0 -0.0 1.0
vn -0.0 -0.0 1.0
vn -0.0 -0.0 1.0
vn -0.0 -0.0 1.0
vn -0.0 -0.0 1.0
vn -0.0 -0.0 1.0
vn 0.0 -0.0 -1.0
vn 0.0 -0.0 -1.0
vn 0.0 -0.0 -1.0
vn 0.0 -0.0 -1.0
vn 0.0 0.0 1.0
vn 0.0 0.0 1.0
vn 0.0 0.0 1.0
vn 0.0 0.0 1.0
vn -1.0 -0.0 -0.0
vn -1.0 -0.0 -0.0
vn -1.0 -0.0 -0.0
vn -1.0 -0.0 -0.0
vn -1.0 -0.0 -0.0
vn -1.0 -0.0 -0.0
vn -1.0 -0.0 -0.0
vn -1.0 -0.0 -0.0
vn 0.0 1.0 -0.0
vn 0.0 1.0 -0.0
vn 0.0 1.0 -0.0
vn 0.0 1.0 -0.0
vn 0.0 1.0 -0.0
vn 0.0 1.0 -0.0
vn 0.0 1.0 -0.0
vn 0.0 1.0 -0.0
vn 0.0 1.0 -0.0
vn 0.0 1.0 -0.0
vn 0.0 1.0 -0.0
vn 0.0 1.0 -0.0
vn 0.0 1.0 -0.0
vn 0.0 1.0 -0.0
vn 0.0 1.0 -0.0
vn 0.0 1.0 -0.0
vn -1.0 0.0 0.0
vn -1.0 0.0 0.0
vn -1.0 0.0 0.0
vn -1.0 0.0 0.0
vn -1.0 0.0 0.0
vn -1.0 0.0 0.0
vn -1.0 0.0 0.0
vn -1.0 0.0 0.0
vn -0.6105078458786011 0.7920101881027222 -1.232595164407831e-32
vn -0.6105078458786011 0.7920101881027222 -1.232595164407831e-32
vn -0.6105078458786011 0.7920101881027222 -1.232595164407831e-32
vn -0.6105078458786011 0.7920101881027222 -1.232595164407831e-32
vn -0.6105078458786011 0.7920101881027222 -1.232595164407831e-32
vn -0.6105078458786011 0.7920101881027222 -1.232595164407831e-32
vn -0.0 -0.0 -1.0
vn -0.0 -0.0 -1.0
vn -0.0 -0.0 -1.0
vn 0.8499069809913635 -0.5269327759742737 0.0
vn 0.8499069809913635 -0.5269327759742737 0.0
vn 0.8499069809913635 -0.5269327759742737 0.0
vn 0.8499069809913635 -0.5269327759742737 0.0
vn 0.0 0.0 1.0
vn 0.0 0.0 1.0
vn 0.0 0.0 1.0
vn 0.0 0.0 1.0
vn -0.0 0.0 -1.0
vn -0.0 0.0 -1.0
vn -0.0 0.0 -1.0
vn -0.0 0.0 -1.0
vn -0.0 -0.0 1.0
vn -0.0 -0.0 1.0
vn -0.0 -0.0 1.0
vn -0.0 -0.0 1.0
vn 0.0 -1.0 0.0
vn 0.0 -1.0 0.0
vn 0.0 -1.0 0.0
vn 0.0 -1.0 0.0
vn -0.0 -1.0 0.0
vn -0.0 -1.0 0.0
vn -0.0 -1.0 0.0
vn -0.0 -1.0 0.0
vn -0.0 0.0 -1.0
vn -0.0 0.0 -1.0
vn -0.0 0.0 -1.0
vn -0.7920101881027222 -0.6105078458786011 0.0
vn -0.7920101881027222 -0.6105078458786011 0.0
vn -0.7920101881027222 -0.6105078458786011 0.0
vn -0.7920101881027222 -0.6105078458786011 0.0
vn -0.7920101881027222 -0.6105078458786011 0.0
vn -0.7920101881027222 -0.6105078458786011 0.0
vn -0.7920101881027222 -0.6105078458786011 0.0
vn -0.7920101881027222 -0.6105078458786011 0.0
vn -0.7920101881027222 -0.6105078458786011 0.0
vn -0.7920101881027222 -0.6105078458786011 0.0
vn -0.7920101881027222 -0.6105078458786011 0.0
vn -0.7920101881027222 -0.6105078458786011 0.0
vn -0.7920101881027222 -0.6105078458786011 0.0
vn -0.7920101881027222 -0.6105078458786011 0.0
vn 1.0 0.0 0.0
vn 1.0 0.0 0.0
vn 1.0 0.0 0.0
vn 1.0 0.0 0.0
vn -0.0 -0.0 -1.0
vn -0.0 -0.0 -1.0
vn -0.0 -0.0 -1.0
vn -0.0 -0.0 -1.0
vn 0.6105078458786011 -0.7920101881027222 -0.0
vn 0.6105078458786011 -0.7920101881027222 -0.0
vn 0.6105078458786011 -0.7920101881027222 -0.0
vn 0.6105078458786011 -0.7920101881027222 -0.0
vn -0.0 -0.0 -1.0
vn -0.0 -0.0 -1.0
vn -0.0 -0.0 -1.0
vn -0.0 -0.0 -1.0
vn -0.6105078458786011 0.7920101881027222 -1.232595164407831e-32
vn -0.6105078458786011 0.7920101881027222 -1.232595164407831e-32
vn -0.6105078458786011 0.7920101881027222 -1.232595164407831e-32
vn -0.6105078458786011 0.7920101881027222 -1.232595164407831e-32
vn 0.0 -0.0 1.0
vn 0.0 -0.0 1.0
vn 0.0 -0.0 1.0
vn 0.0 -0.0 1.0
vn 0.0 1.0 -0.0
vn 0.0 1.0 -0.0
vn 0.0 1.0 -0.0
vn 0.0 1.0 -0.0
vn 0.7920101881027222 0.6105078458786011 -0.0
vn 0.7920101881027222 0.6105078458786011 -0.0
vn 0.7920101881027222 0.6105078458786011 -0.0
vn 0.7920101881027222 0.6105078458786011 -0.0
vn 0.7920101881027222 0.6105078458786011 -0.0
vn 0.7920101881027222 0.6105078458786011 -0.0
vn 0.7920101881027222 0.6105078458786011 -0.0
vn 0.7920101881027222 0.6105078458786011 -0.0
vn 0.7920101881027222 0.6105078458786011 -0.0
vn 0.7920101881027222 0.6105078458786011 -0.0
vn 0.7920101881027222 0.6105078458786011 -0.0
vn 0.7920101881027222 0.6105078458786011 -0.0
vn 0.7920101881027222 0.6105078458786011 -0.0
vn 0.0 -1.0 0.0
vn 0.0 -1.0 0.0
vn 0.0 -1.0 0.0
vn 0.0 -1.0 0.0
vn 0.0 0.0 1.0
vn 0.0 0.0 1.0
vn 0.0 0.0 1.0
vn 0.0 0.0 1.0
vn -0.0 0.0 -1.0
vn -0.0 0.0 -1.0
vn -0.0 0.0 -1.0
vn -0.0 0.0 -1.0
vn 0.6246950626373291 -0.7808688282966614 0.0
vn 0.6246950626373291 -0.7808688282966614 0.0
vn 0.6246950626373291 -0.7808688282966614 0.0
vn 0.6246950626373291 -0.7808688282966614 0.0
vn 0.0 -1.0 0.0
vn 0.0 -1.0 0.0
vn 0.0 -1.0 0.0
vn 0.0 -1.0 0.0
vn -1.0 1.8369701465288538e-16 0.0
vn -1.0 1.8369701465288538e-16 0.0
vn -1.0 1.8369701465288538e-16 0.0
vn -1.0 1.8369701465288538e-16 0.0
vn 0.0 1.0 0.0
vn 0.0 1.0 0.0
vn 0.0 1.0 0.0
vn 0.0 1.0 0.0
vn 0.0 0.0 1.0
vn 0.0 0.0 1.0
vn 0.0 0.0 1.0
vn 0.0 0.0 1.0
vn -0.0 -0.0 -1.0
vn -0.0 -0.0 -1.0
vn -0.0 -0.0 -1.0
vn -0.0 -0.0 -1.0
g 7aeb2bac-e321-11ea-b976-54bf646e7e1f
f 1//1 2//2 4//4
f 4//4 2//2 3//3
g 7aed4e86-e321-11ea-abb8-54bf646e7e1f
f 6//6 9//9 5//5
f 5//5 9//9 10//10
f 5//5 10//10 11//11
f 6//6 7//7 9//9
f 9//9 7//7 8//8
g 7aefbf8a-e321-11ea-8307-54bf646e7e1f
f 12//12 13//13 15//15
f 15//15 13//13 14//14
g 79333b62-e321-11ea-9d61-54bf646e7e1f
f 16//16 17//17 29//29
f 29//29 17//17 18//18
f 29//29 18//18 27//27
f 27//27 18//18 26//26
f 26//26 18//18 19//19
f 26//26 19//19 20//20
f 21//21 22//22 20//20
f 20//20 22//22 25//25
f 20//20 25//25 26//26
f 23//23 24//24 22//22
f 22//22 24//24 25//25
f 27//27 28//28 29//29
g 79da7a7a-e321-11ea-b3e1-54bf646e7e1f
f 30//30 31//31 35//35
f 35//35 31//31 34//34
f 34//34 31//31 33//33
f 33//33 31//31 32//32
g 7a7fbde8-e321-11ea-a9c4-54bf646e7e1f
f 37//37 38//38 36//36
f 36//36 38//38 39//39
f 36//36 39//39 40//40
f 40//40 41//41 36//36
g 7a811d7a-e321-11ea-bb81-54bf646e7e1f
f 42//42 43//43 45//45
f 45//45 43//43 44//44
g 7a82a41e-e321-11ea-8fef-54bf646e7e1f
f 46//46 47//47 49//49
f 49//49 47//47 48//48
g 7a842ac8-e321-11ea-872c-54bf646e7e1f
f 51//51 54//54 50//50
f 50//50 54//54 55//55
f 50//50 55//55 58//58
f 58//58 55//55 57//57
f 57//57 55//55 56//56
f 51//51 52//52 54//54
f 54//54 52//52 53//53
f 58//58 59//59 50//50
g 7a3c9940-e321-11ea-9517-54bf646e7e1f
f 61//61 62//62 60//60
f 60//60 62//62 63//63
g 7a3e9510-e321-11ea-9c50-54bf646e7e1f
f 65//65 66//66 64//64
f 64//64 66//66 67//67
g 7a4069d8-e321-11ea-a2ac-54bf646e7e1f
f 69//69 70//70 68//68
f 68//68 70//70 71//71
f 68//68 71//71 72//72
f 68//68 72//72 75//75
f 75//75 72//72 73//73
f 75//75 73//73 74//74
g 79344cd8-e321-11ea-aaaf-54bf646e7e1f
f 77//77 85//85 76//76
f 76//76 85//85 86//86
f 76//76 86//86 79//79
f 79//79 86//86 81//81
f 79//79 81//81 88//88
f 88//88 81//81 91//91
f 91//91 81//81 90//90
f 90//90 81//81 82//82
f 90//90 82//82 89//89
f 89//89 82//82 78//78
f 89//89 78//78 79//79
f 77//77 78//78 85//85
f 85//85 78//78 84//84
f 84//84 78//78 82//82
f 84//84 82//82 83//83
f 80//80 81//81 87//87
f 87//87 81//81 86//86
f 88//88 89//89 79//79
g 7933b09c-e321-11ea-9ed5-54bf646e7e1f
f 92//92 93//93 95//95
f 95//95 93//93 94//94
g 9f6d2674-6426-3e18-b6d9-4f42dc1276b8
f 96//96 97//97 99//99
f 99//99 97//97 98//98
g 79dc2836-e321-11ea-b524-54bf646e7e1f
f 101//101 102//102 100//100
f 100//100 102//102 103//103
f 100//100 103//103 104//104
f 104//104 105//105 100//100
g 79dceb94-e321-11ea-ada1-54bf646e7e1f
f 106//106 107//107 108//108
g 79329f1c-e321-11ea-99b1-54bf646e7e1f
f 109//109 110//110 112//112
f 112//112 110//110 111//111
g 7934c208-e321-11ea-abe6-54bf646e7e1f
f 113//113 114//114 116//116
f 116//116 114//114 115//115
g 79353734-e321-11ea-8c72-54bf646e7e1f
f 118//118 119//119 117//117
f 117//117 119//119 120//120
g 7a8e1602-e321-11ea-b48f-54bf646e7e1f
f 121//121 122//122 124//124
f 124//124 122//122 123//123
g 79619f18-e321-11ea-add6-54bf646e7e1f
f 125//125 126//126 128//128
f 128//128 126//126 127//127
g 7af712ac-e321-11ea-8620-54bf646e7e1f
f 129//129 130//130 132//132
f 132//132 130//130 131//131
g 7af983a4-e321-11ea-8c5e-54bf646e7e1f
f 133//133 134//134 135//135
g 795f7c34-e321-11ea-80da-54bf646e7e1f
f 137//137 142//142 136//136
f 136//136 142//142 144//144
f 136//136 144//144 147//147
f 147//147 144//144 146//146
f 146//146 144//144 145//145
f 138//138 148//148 137//137
f 137//137 148//148 149//149
f 137//137 149//149 141//141
f 141//141 149//149 140//140
f 138//138 139//139 148//148
f 148//148 139//139 147//147
f 147//147 139//139 136//136
f 141//141 142//142 137//137
f 142//142 143//143 144//144
g 7a890cd8-e321-11ea-9a19-54bf646e7e1f
f 151//151 152//152 150//150
f 150//150 152//152 153//153
g 7b809008-e321-11ea-b390-54bf646e7e1f
f 155//155 156//156 154//154
f 154//154 156//156 157//157
g 79de2422-e321-11ea-9e02-54bf646e7e1f
f 158//158 159//159 161//161
f 161//161 159//159 160//160
g 79dee76c-e321-11ea-8553-54bf646e7e1f
f 162//162 163//163 165//165
f 165//165 163//163 164//164
g 79dfaaca-e321-11ea-89de-54bf646e7e1f
f 166//166 167//167 169//169
f 169//169 167//167 168//168
g 79db64de-e321-11ea-8a88-54bf646e7e1f
f 170//170 171//171 173//173
f 173//173 171//171 172//172
g 7960185e-e321-11ea-a1d5-54bf646e7e1f
f 174//174 175//175 177//177
f 177//177 175//175 176//176
g 7960dbc2-e321-11ea-b22c-54bf646e7e1f
f 179//179 180//180 178//178
f 178//178 180//180 181//181
f 178//178 181//181 187//187
f 187//187 181//181 190//190
f 190//190 181//181 189//189
f 189//189 181//181 182//182
f 189//189 182//182 188//188
f 188//188 182//182 185//185
f 188//188 185//185 186//186
f 182//182 183//183 185//185
f 185//185 183//183 184//184
f 188//188 186//186 187//187
f 187//187 186//186 178//178
g c16b36e9-4f1f-3f5d-a942-763c7171076f
f 191//191 192//192 194//194
f 194//194 192//192 193//193
g 79626264-e321-11ea-a503-54bf646e7e1f
f 196//196 197//197 195//195
f 195//195 197//197 198//198
g 796325c2-e321-11ea-a4d1-54bf646e7e1f
f 199//199 200//200 202//202
f 202//202 200//200 201//201
g 79927402-e321-11ea-8d66-54bf646e7e1f
f 203//203 204//204 206//206
f 206//206 204//204 205//205
g 79931042-e321-11ea-9a41-54bf646e7e1f
f 207//207 208//208 210//210
f 210//210 208//208 209//209
g 79938576-e321-11ea-b896-54bf646e7e1f
f 211//211 212//212 214//214
f 214//214 212//212 213//213
g 7993faa8-e321-11ea-a1e1-54bf646e7e1f
f 215//215 216//216 218//218
f 218//218 216//216 217//217
g 799496ec-e321-11ea-abba-54bf646e7e1f
f 219//219 220//220 222//222
f 222//222 220//220 221//221
g 79953306-e321-11ea-8af6-54bf646e7e1f
f 224//224 225//225 223//223
f 223//223 225//225 226//226

# End of file