# WaveFront *.obj file
# Vertices: 174
# Triangles : 156

v 3.0 0.0 1.7320507764816284
v 3.0 0.0 -1.7320507764816284
v 3.0 1.5 -1.7320507764816284
v 3.0 1.5 1.7320507764816284
v -3.0 0.0 1.7320507764816284
v -1.9984014443252818e-15 0.0 3.464101552963257
v -1.7763568394002505e-15 1.5 3.464101552963257
v -3.0 1.5 1.7320507764816284
v -1.9984014443252818e-15 0.0 3.464101552963257
v 3.0 0.0 1.7320507764816284
v 3.0 1.5 1.7320507764816284
v -1.7763568394002505e-15 1.5 3.464101552963257
v 1.5811388492584229 1.5 -1.9363366403624398e-16
v 1.554216980934143 1.5 0.29053348302841187
v 1.4743680953979492 1.5 0.5711732506752014
v 1.3443113565444946 1.5 0.8323623538017273
v 1.1684757471084595 1.5 1.0652062892913818
v 0.9528490304946899 1.5 1.2617759704589844
v 0.7047742009162903 1.5 1.4153774976730347
v 0.43269917368888855 1.5 1.5207798480987549
v 0.14588908851146698 1.5 1.5743939876556396
v -0.14588908851146698 1.5 1.5743939876556396
v -0.43269917368888855 1.5 1.5207798480987549
v -0.7047742009162903 1.5 1.4153774976730347
v -0.9528490304946899 1.5 1.2617759704589844
v -1.1684757471084595 1.5 1.0652062892913818
v -1.3443113565444946 1.5 0.8323623538017273
v -1.4743680953979492 1.5 0.5711732506752014
v -1.554216980934143 1.5 0.29053348302841187
v -1.5811388492584229 1.5 0.0
v -1.554216980934143 1.5 -0.29053348302841187
v -1.4743680953979492 1.5 -0.5711732506752014
v -1.3443113565444946 1.5 -0.8323623538017273
v -1.1684757471084595 1.5 -1.0652062892913818
v -0.9528490304946899 1.5 -1.2617759704589844
v -0.7047742009162903 1.5 -1.4153774976730347
v -0.43269917368888855 1.5 -1.5207798480987549
v -0.14588908851146698 1.5 -1.5743939876556396
v 0.14588908851146698 1.5 -1.5743939876556396
v 0.43269917368888855 1.5 -1.5207798480987549
v 0.7047742009162903 1.5 -1.4153774976730347
v 0.9528490304946899 1.5 -1.2617759704589844
v 1.1684757471084595 1.5 -1.0652062892913818
v 1.3443113565444946 1.5 -0.8323623538017273
v 1.4743680953979492 1.5 -0.5711732506752014
v 1.554216980934143 1.5 -0.29053348302841187
v 3.0 1.5 1.7320507764816284
v 3.0 1.5 -1.7320507764816284
v 8.881784197001252e-16 1.5 -3.464101552963257
v -3.0 1.5 -1.7320507764816284
v -3.0 1.5 1.7320507764816284
v -1.7763568394002505e-15 1.5 3.464101552963257
v 8.881784197001252e-16 0.0 -3.464101552963257
v -3.0 0.0 -1.7320507764816284
v -3.0 1.5 -1.7320507764816284
v 8.881784197001252e-16 1.5 -3.464101552963257
v 3.0 0.0 -1.7320507764816284
v 3.0 0.0 1.7320507764816284
v -1.9984014443252818e-15 0.0 3.464101552963257
v -3.0 0.0 1.7320507764816284
v -3.0 0.0 -1.7320507764816284
v 8.881784197001252e-16 0.0 -3.464101552963257
v -3.0 0.0 -1.7320507764816284
v -3.0 0.0 1.7320507764816284
v -3.0 1.5 1.7320507764816284
v -3.0 1.5 -1.7320507764816284
v 3.0 0.0 -1.7320507764816284
v 8.881784197001252e-16 0.0 -3.464101552963257
v 8.881784197001252e-16 1.5 -3.464101552963257
v 3.0 1.5 -1.7320507764816284
v 1.5811388492584229 10.5 -1.9363366403624398e-16
v 1.554216980934143 10.5 -0.29053348302841187
v 1.4743680953979492 10.5 -0.5711732506752014
v 1.3443113565444946 10.5 -0.8323623538017273
v 1.1684757471084595 10.5 -1.0652062892913818
v 0.9528490304946899 10.5 -1.2617759704589844
v 0.7047742009162903 10.5 -1.4153774976730347
v 0.43269917368888855 10.5 -1.5207798480987549
v 0.14588908851146698 10.5 -1.5743939876556396
v -0.14588908851146698 10.5 -1.5743939876556396
v -0.43269917368888855 10.5 -1.5207798480987549
v -0.7047742009162903 10.5 -1.4153774976730347
v -0.9528490304946899 10.5 -1.2617759704589844
v -1.1684757471084595 10.5 -1.0652062892913818
v -1.3443113565444946 10.5 -0.8323623538017273
v -1.4743680953979492 10.5 -0.5711732506752014
v -1.554216980934143 10.5 -0.29053348302841187
v -1.5811388492584229 10.5 0.0
v -1.554216980934143 10.5 0.29053348302841187
v -1.4743680953979492 10.5 0.5711732506752014
v -1.3443113565444946 10.5 0.8323623538017273
v -1.1684757471084595 10.5 1.0652062892913818
v -0.9528490304946899 10.5 1.2617759704589844
v -0.7047742009162903 10.5 1.4153774976730347
v -0.43269917368888855 10.5 1.5207798480987549
v -0.14588908851146698 10.5 1.5743939876556396
v 0.14588908851146698 10.5 1.5743939876556396
v 0.43269917368888855 10.5 1.5207798480987549
v 0.7047742009162903 10.5 1.4153774976730347
v 0.9528490304946899 10.5 1.2617759704589844
v 1.1684757471084595 10.5 1.0652062892913818
v 1.3443113565444946 10.5 0.8323623538017273
v 1.4743680953979492 10.5 0.5711732506752014
v 1.554216980934143 10.5 0.29053348302841187
v 1.5811388492584229 10.5 -1.9363366403624398e-16
v 1.554216980934143 10.5 0.29053348302841187
v 1.4743680953979492 10.5 0.5711732506752014
v 1.3443113565444946 10.5 0.8323623538017273
v 1.1684757471084595 10.5 1.0652062892913818
v 0.9528490304946899 10.5 1.2617759704589844
v 0.7047742009162903 10.5 1.4153774976730347
v 0.43269917368888855 10.5 1.5207798480987549
v 0.14588908851146698 10.5 1.5743939876556396
v -0.14588908851146698 10.5 1.5743939876556396
v -0.43269917368888855 10.5 1.5207798480987549
v -0.7047742009162903 10.5 1.4153774976730347
v -0.9528490304946899 10.5 1.2617759704589844
v -1.1684757471084595 10.5 1.0652062892913818
v -1.3443113565444946 10.5 0.8323623538017273
v -1.4743680953979492 10.5 0.5711732506752014
v -1.554216980934143 10.5 0.29053348302841187
v -1.5811388492584229 10.5 0.0
v -1.554216980934143 10.5 -0.29053348302841187
v -1.4743680953979492 10.5 -0.5711732506752014
v -1.3443113565444946 10.5 -0.8323623538017273
v -1.1684757471084595 10.5 -1.0652062892913818
v -0.9528490304946899 10.5 -1.2617759704589844
v -0.7047742009162903 10.5 -1.4153774976730347
v -0.43269917368888855 10.5 -1.5207798480987549
v -0.14588908851146698 10.5 -1.5743939876556396
v 0.14588908851146698 10.5 -1.5743939876556396
v 0.43269917368888855 10.5 -1.5207798480987549
v 0.7047742009162903 10.5 -1.4153774976730347
v 0.9528490304946899 10.5 -1.2617759704589844
v 1.1684757471084595 10.5 -1.0652062892913818
v 1.3443113565444946 10.5 -0.8323623538017273
v 1.4743680953979492 10.5 -0.5711732506752014
v 1.554216980934143 10.5 -0.29053348302841187
v 1.5811388492584229 1.5 -1.9363366403624398e-16
v 1.554216980934143 1.5 -0.29053348302841187
v 1.4743680953979492 1.5 -0.5711732506752014
v 1.3443113565444946 1.5 -0.8323623538017273
v 1.1684757471084595 1.5 -1.0652062892913818
v 0.9528490304946899 1.5 -1.2617759704589844
v 0.7047742009162903 1.5 -1.4153774976730347
v 0.43269917368888855 1.5 -1.5207798480987549
v 0.14588908851146698 1.5 -1.5743939876556396
v -0.14588908851146698 1.5 -1.5743939876556396
v -0.43269917368888855 1.5 -1.5207798480987549
v -0.7047742009162903 1.5 -1.4153774976730347
v -0.9528490304946899 1.5 -1.2617759704589844
v -1.1684757471084595 1.5 -1.0652062892913818
v -1.3443113565444946 1.5 -0.8323623538017273
v -1.4743680953979492 1.5 -0.5711732506752014
v -1.554216980934143 1.5 -0.29053348302841187
v -1.5811388492584229 1.5 0.0
v -1.554216980934143 1.5 0.29053348302841187
v -1.4743680953979492 1.5 0.5711732506752014
v -1.3443113565444946 1.5 0.8323623538017273
v -1.1684757471084595 1.5 1.0652062892913818
v -0.9528490304946899 1.5 1.2617759704589844
v -0.7047742009162903 1.5 1.4153774976730347
v -0.43269917368888855 1.5 1.5207798480987549
v -0.14588908851146698 1.5 1.5743939876556396
v 0.14588908851146698 1.5 1.5743939876556396
v 0.43269917368888855 1.5 1.5207798480987549
v 0.7047742009162903 1.5 1.4153774976730347
v 0.9528490304946899 1.5 1.2617759704589844
v 1.1684757471084595 1.5 1.0652062892913818
v 1.3443113565444946 1.5 0.8323623538017273
v 1.4743680953979492 1.5 0.5711732506752014
v 1.554216980934143 1.5 0.29053348302841187
v 1.5811388492584229 1.5 -1.9363366403624398e-16
v 1.5811388492584229 10.5 -1.9363366403624398e-16
vn 1.0 -0.0 2.563950202493046e-16
vn 1.0 -0.0 2.563950202493046e-16
vn 1.0 -0.0 2.563950202493046e-16
vn 1.0 -0.0 2.563950202493046e-16
vn -0.5 0.0 0.8660253882408142
vn -0.5 0.0 0.8660253882408142
vn -0.5 0.0 0.8660253882408142
vn -0.5 0.0 0.8660253882408142
vn 0.5 -0.0 0.8660253882408142
vn 0.5 -0.0 0.8660253882408142
vn 0.5 -0.0 0.8660253882408142
vn 0.5 -0.0 0.8660253882408142
vn 0.0 1.0 0.0
vn 0.0 1.0 0.0
vn 0.0 1.0 0.0
vn 0.0 1.0 0.0
vn 0.0 1.0 0.0
vn 0.0 1.0 0.0
vn 0.0 1.0 0.0
vn 0.0 1.0 0.0
vn 0.0 1.0 0.0
vn 0.0 1.0 0.0
vn 0.0 1.0 0.0
vn 0.0 1.0 0.0
vn 0.0 1.0 0.0
vn 0.0 1.0 0.0
vn 0.0 1.0 0.0
vn 0.0 1.0 0.0
vn 0.0 1.0 0.0
vn 0.0 1.0 0.0
vn 0.0 1.0 0.0
vn 0.0 1.0 0.0
vn 0.0 1.0 0.0
vn 0.0 1.0 0.0
vn 0.0 1.0 0.0
vn 0.0 1.0 0.0
vn 0.0 1.0 0.0
vn 0.0 1.0 0.0
vn 0.0 1.0 0.0
vn 0.0 1.0 0.0
vn 0.0 1.0 0.0
vn 0.0 1.0 0.0
vn 0.0 1.0 0.0
vn 0.0 1.0 0.0
vn 0.0 1.0 0.0
vn 0.0 1.0 0.0
vn 0.0 1.0 0.0
vn 0.0 1.0 0.0
vn 0.0 1.0 0.0
vn 0.0 1.0 0.0
vn 0.0 1.0 0.0
vn 0.0 1.0 0.0
vn -0.5 0.0 -0.8660253882408142
vn -0.5 0.0 -0.8660253882408142
vn -0.5 0.0 -0.8660253882408142
vn -0.5 0.0 -0.8660253882408142
vn -0.0 -1.0 -0.0
vn -0.0 -1.0 -0.0
vn -0.0 -1.0 -0.0
vn -0.0 -1.0 -0.0
vn -0.0 -1.0 -0.0
vn -0.0 -1.0 -0.0
vn -1.0 0.0 -3.845925303739569e-16
vn -1.0 0.0 -3.845925303739569e-16
vn -1.0 0.0 -3.845925303739569e-16
vn -1.0 0.0 -3.845925303739569e-16
vn 0.5 0.0 -0.8660253882408142
vn 0.5 0.0 -0.8660253882408142
vn 0.5 0.0 -0.8660253882408142
vn 0.5 0.0 -0.8660253882408142
vn 0.0 1.0 0.0
vn 0.0 1.0 0.0
vn 0.0 1.0 0.0
vn 0.0 1.0 0.0
vn 0.0 1.0 0.0
vn 0.0 1.0 0.0
vn 0.0 1.0 0.0
vn 0.0 1.0 0.0
vn 0.0 1.0 0.0
vn 0.0 1.0 0.0
vn 0.0 1.0 0.0
vn 0.0 1.0 0.0
vn 0.0 1.0 0.0
vn 0.0 1.0 0.0
vn 0.0 1.0 0.0
vn 0.0 1.0 0.0
vn 0.0 1.0 0.0
vn 0.0 1.0 0.0
vn 0.0 1.0 0.0
vn 0.0 1.0 0.0
vn 0.0 1.0 0.0
vn 0.0 1.0 0.0
vn 0.0 1.0 0.0
vn 0.0 1.0 0.0
vn 0.0 1.0 0.0
vn 0.0 1.0 0.0
vn 0.0 1.0 0.0
vn 0.0 1.0 0.0
vn 0.0 1.0 0.0
vn 0.0 1.0 0.0
vn 0.0 1.0 0.0
vn 0.0 1.0 0.0
vn 0.0 1.0 0.0
vn 0.0 1.0 0.0
vn 1.0 -0.0 1.2246468525851679e-16
vn 0.9829730987548828 -0.0 0.1837495118379593
vn 0.9324722290039062 -0.0 0.3612416684627533
vn 0.8502171635627747 -0.0 0.5264321565628052
vn 0.739008903503418 -0.0 0.6736956238746643
vn 0.602634608745575 -0.0 0.7980172038078308
vn 0.4457383453845978 -0.0 0.8951632976531982
vn 0.2736629843711853 -0.0 0.9618256688117981
vn 0.09226836264133453 -0.0 0.9957341551780701
vn -0.09226836264133453 -0.0 0.9957341551780701
vn -0.2736629843711853 -0.0 0.9618256688117981
vn -0.4457383453845978 -0.0 0.8951632976531982
vn -0.602634608745575 -0.0 0.7980172038078308
vn -0.739008903503418 -0.0 0.6736956238746643
vn -0.8502171635627747 -0.0 0.5264321565628052
vn -0.9324722290039062 -0.0 0.3612416684627533
vn -0.9829730987548828 -0.0 0.1837495118379593
vn -1.0 -0.0 0.0
vn -0.9829730987548828 0.0 -0.1837495118379593
vn -0.9324722290039062 0.0 -0.3612416684627533
vn -0.8502171635627747 0.0 -0.5264321565628052
vn -0.739008903503418 0.0 -0.6736956238746643
vn -0.602634608745575 0.0 -0.7980172038078308
vn -0.4457383453845978 0.0 -0.8951632976531982
vn -0.2736629843711853 0.0 -0.9618256688117981
vn -0.09226836264133453 0.0 -0.9957341551780701
vn 0.09226836264133453 -0.0 -0.9957341551780701
vn 0.2736629843711853 -0.0 -0.9618256688117981
vn 0.4457383453845978 -0.0 -0.8951632976531982
vn 0.602634608745575 -0.0 -0.7980172038078308
vn 0.739008903503418 -0.0 -0.6736956238746643
vn 0.8502171635627747 -0.0 -0.5264321565628052
vn 0.9324722290039062 -0.0 -0.3612416684627533
vn 0.9829730987548828 -0.0 -0.1837495118379593
vn 1.0 -0.0 -1.2246468525851679e-16
vn 0.9829730987548828 -0.0 -0.1837495118379593
vn 0.9324722290039062 -0.0 -0.3612416684627533
vn 0.8502171635627747 -0.0 -0.5264321565628052
vn 0.739008903503418 -0.0 -0.6736956238746643
vn 0.602634608745575 -0.0 -0.7980172038078308
vn 0.4457383453845978 -0.0 -0.8951632976531982
vn 0.2736629843711853 -0.0 -0.9618256688117981
vn 0.09226836264133453 -0.0 -0.9957341551780701
vn -0.09226836264133453 0.0 -0.9957341551780701
vn -0.2736629843711853 0.0 -0.9618256688117981
vn -0.4457383453845978 0.0 -0.8951632976531982
vn -0.602634608745575 0.0 -0.7980172038078308
vn -0.739008903503418 0.0 -0.6736956238746643
vn -0.8502171635627747 0.0 -0.5264321565628052
vn -0.9324722290039062 0.0 -0.3612416684627533
vn -0.9829730987548828 0.0 -0.1837495118379593
vn -1.0 -0.0 0.0
vn -0.9829730987548828 -0.0 0.1837495118379593
vn -0.9324722290039062 -0.0 0.3612416684627533
vn -0.8502171635627747 -0.0 0.5264321565628052
vn -0.739008903503418 -0.0 0.6736956238746643
vn -0.602634608745575 -0.0 0.7980172038078308
vn -0.4457383453845978 -0.0 0.8951632976531982
vn -0.2736629843711853 -0.0 0.9618256688117981
vn -0.09226836264133453 -0.0 0.9957341551780701
vn 0.09226836264133453 -0.0 0.9957341551780701
vn 0.2736629843711853 -0.0 0.9618256688117981
vn 0.4457383453845978 -0.0 0.8951632976531982
vn 0.602634608745575 -0.0 0.7980172038078308
vn 0.739008903503418 -0.0 0.6736956238746643
vn 0.8502171635627747 -0.0 0.5264321565628052
vn 0.9324722290039062 -0.0 0.3612416684627533
vn 0.9829730987548828 -0.0 0.1837495118379593
vn 1.0 -0.0 1.2246468525851679e-16
vn 1.0 -0.0 -1.2246468525851679e-16
f 1//1 2//2 4//4
f 4//4 2//2 3//3
f 5//5 6//6 8//8
f 8//8 6//6 7//7
f 9//9 10//10 12//12
f 12//12 10//10 11//11
f 14//14 47//47 13//13
f 13//13 47//47 48//48
f 13//13 48//48 46//46
f 46//46 48//48 45//45
f 45//45 48//48 44//44
f 44//44 48//48 43//43
f 43//43 48//48 42//42
f 42//42 48//48 49//49
f 42//42 49//49 41//41
f 41//41 49//49 40//40
f 40//40 49//49 39//39
f 39//39 49//49 38//38
f 38//38 49//49 37//37
f 37//37 49//49 36//36
f 36//36 49//49 35//35
f 35//35 49//49 50//50
f 35//35 50//50 34//34
f 34//34 50//50 33//33
f 33//33 50//50 32//32
f 32//32 50//50 31//31
f 31//31 50//50 30//30
f 30//30 50//50 51//51
f 30//30 51//51 29//29
f 29//29 51//51 28//28
f 28//28 51//51 27//27
f 27//27 51//51 26//26
f 26//26 51//51 25//25
f 25//25 51//51 52//52
f 25//25 52//52 24//24
f 24//24 52//52 23//23
f 23//23 52//52 22//22
f 22//22 52//52 21//21
f 21//21 52//52 20//20
f 20//20 52//52 19//19
f 19//19 52//52 18//18
f 18//18 52//52 47//47
f 18//18 47//47 17//17
f 17//17 47//47 16//16
f 16//16 47//47 15//15
f 15//15 47//47 14//14
f 53//53 54//54 56//56
f 56//56 54//54 55//55
f 58//58 59//59 57//57
f 57//57 59//59 62//62
f 62//62 59//59 60//60
f 62//62 60//60 61//61
f 63//63 64//64 66//66
f 66//66 64//64 65//65
f 67//67 68//68 70//70
f 70//70 68//68 69//69
f 72//72 87//87 71//71
f 71//71 87//87 88//88
f 71//71 88//88 104//104
f 104//104 88//88 89//89
f 104//104 89//89 103//103
f 103//103 89//89 90//90
f 103//103 90//90 102//102
f 102//102 90//90 91//91
f 102//102 91//91 101//101
f 101//101 91//91 92//92
f 101//101 92//92 100//100
f 100//100 92//92 93//93
f 100//100 93//93 99//99
f 99//99 93//93 94//94
f 99//99 94//94 98//98
f 98//98 94//94 95//95
f 98//98 95//95 97//97
f 97//97 95//95 96//96
f 87//87 72//72 86//86
f 86//86 72//72 73//73
f 86//86 73//73 85//85
f 85//85 73//73 74//74
f 85//85 74//74 84//84
f 84//84 74//74 75//75
f 84//84 75//75 83//83
f 83//83 75//75 76//76
f 83//83 76//76 82//82
f 82//82 76//76 77//77
f 82//82 77//77 81//81
f 81//81 77//77 78//78
f 81//81 78//78 80//80
f 80//80 78//78 79//79
f 106//106 172//172 105//105
f 105//105 172//172 173//173
f 174//174 139//139 138//138
f 138//138 139//139 140//140
f 138//138 140//140 137//137
f 137//137 140//140 141//141
f 137//137 141//141 136//136
f 136//136 141//141 142//142
f 136//136 142//142 135//135
f 135//135 142//142 143//143
f 135//135 143//143 134//134
f 134//134 143//143 144//144
f 134//134 144//144 133//133
f 133//133 144//144 145//145
f 133//133 145//145 132//132
f 132//132 145//145 146//146
f 132//132 146//146 131//131
f 131//131 146//146 147//147
f 131//131 147//147 130//130
f 130//130 147//147 148//148
f 130//130 148//148 129//129
f 129//129 148//148 149//149
f 129//129 149//149 128//128
f 128//128 149//149 150//150
f 128//128 150//150 127//127
f 127//127 150//150 151//151
f 127//127 151//151 126//126
f 126//126 151//151 152//152
f 126//126 152//152 125//125
f 125//125 152//152 153//153
f 125//125 153//153 124//124
f 124//124 153//153 154//154
f 124//124 154//154 123//123
f 123//123 154//154 155//155
f 123//123 155//155 122//122
f 122//122 155//155 156//156
f 122//122 156//156 121//121
f 121//121 156//156 157//157
f 121//121 157//157 120//120
f 120//120 157//157 158//158
f 120//120 158//158 119//119
f 119//119 158//158 159//159
f 119//119 159//159 118//118
f 118//118 159//159 160//160
f 118//118 160//160 117//117
f 117//117 160//160 161//161
f 117//117 161//161 116//116
f 116//116 161//161 162//162
f 116//116 162//162 115//115
f 115//115 162//162 163//163
f 115//115 163//163 114//114
f 114//114 163//163 164//164
f 114//114 164//164 113//113
f 113//113 164//164 165//165
f 113//113 165//165 112//112
f 112//112 165//165 166//166
f 112//112 166//166 111//111
f 111//111 166//166 167//167
f 111//111 167//167 110//110
f 110//110 167//167 168//168
f 110//110 168//168 109//109
f 109//109 168//168 169//169
f 109//109 169//169 108//108
f 108//108 169//169 170//170
f 108//108 170//170 107//107
f 107//107 170//170 171//171
f 107//107 171//171 106//106
f 106//106 171//171 172//172

# End of file