# WaveFront *.obj file
# Vertices: 116
# Triangles : 100

v -0.004109663888812065 0.5961365699768066 0.0
v -0.0014931941404938698 0.5975762009620667 0.0
v 0.0014931941404938698 0.5975762009620667 0.0
v 0.004109663888812065 0.5961365699768066 0.0
v 0.21493586897850037 0.3979414403438568 0.0
v 0.2193659394979477 0.3940734565258026 0.0
v 0.22406817972660065 0.3905414044857025 0.0
v 0.2290172129869461 0.38736432790756226 0.0
v 0.3472980260848999 0.2861539423465729 0.0
v 0.42401647567749023 0.1506984978914261 0.0
v 0.4499913454055786 -0.0027915677055716515 0.0
v 0.42211416363716125 -0.15594755113124847 0.0
v 0.34372106194496155 -0.29044073820114136 0.0
v 0.22419366240501404 -0.39017584919929504 0.0
v 0.07783620059490204 -0.4432172477245331 0.0
v -0.07783620059490204 -0.4432172477245331 0.0
v -0.22419366240501404 -0.39017584919929504 0.0
v -0.34372106194496155 -0.29044073820114136 0.0
v -0.42211416363716125 -0.15594755113124847 0.0
v -0.4499913454055786 -0.0027915677055716515 0.0
v -0.42401647567749023 0.1506984978914261 0.0
v -0.3472980260848999 0.2861539423465729 0.0
v -0.2290172129869461 0.38736432790756226 0.0
v -0.22406817972660065 0.3905414044857025 0.0
v -0.2193659394979477 0.3940734565258026 0.0
v -0.21493586897850037 0.3979414403438568 0.0
v 0.004109663888812065 0.5961365699768066 14.300000190734863
v 0.0014931941404938698 0.5975762009620667 14.300000190734863
v -0.0014931941404938698 0.5975762009620667 14.300000190734863
v -0.004109663888812065 0.5961365699768066 14.300000190734863
v -0.21493586897850037 0.3979414403438568 14.300000190734863
v -0.2193659394979477 0.3940734565258026 14.300000190734863
v -0.22406817972660065 0.3905414044857025 14.300000190734863
v -0.2290172129869461 0.38736432790756226 14.300000190734863
v -0.3472980260848999 0.2861539423465729 14.300000190734863
v -0.42401647567749023 0.1506984978914261 14.300000190734863
v -0.4499913454055786 -0.0027915677055716515 14.300000190734863
v -0.42211416363716125 -0.15594755113124847 14.300000190734863
v -0.34372106194496155 -0.29044073820114136 14.300000190734863
v -0.22419366240501404 -0.39017584919929504 14.300000190734863
v -0.07783620059490204 -0.4432172477245331 14.300000190734863
v 0.07783620059490204 -0.4432172477245331 14.300000190734863
v 0.22419366240501404 -0.39017584919929504 14.300000190734863
v 0.34372106194496155 -0.29044073820114136 14.300000190734863
v 0.42211416363716125 -0.15594755113124847 14.300000190734863
v 0.4499913454055786 -0.0027915677055716515 14.300000190734863
v 0.42401647567749023 0.1506984978914261 14.300000190734863
v 0.3472980260848999 0.2861539423465729 14.300000190734863
v 0.2290172129869461 0.38736432790756226 14.300000190734863
v 0.22406817972660065 0.3905414044857025 14.300000190734863
v 0.2193659394979477 0.3940734565258026 14.300000190734863
v 0.21493586897850037 0.3979414403438568 14.300000190734863
v 0.004109663888812065 0.5961365699768066 0.0
v 0.0014931941404938698 0.5975762009620667 0.0
v -0.0014931941404938698 0.5975762009620667 0.0
v -0.004109663888812065 0.5961365699768066 0.0
v -0.004109663888812065 0.5961365699768066 14.300000190734863
v -0.0014931941404938698 0.5975762009620667 14.300000190734863
v 0.0014931941404938698 0.5975762009620667 14.300000190734863
v 0.004109663888812065 0.5961365699768066 14.300000190734863
v -0.004109663888812065 0.5961365699768066 0.0
v -0.21493586897850037 0.3979414403438568 0.0
v -0.21493586897850037 0.3979414403438568 14.300000190734863
v -0.004109663888812065 0.5961365699768066 14.300000190734863
v -0.21493586897850037 0.3979414403438568 0.0
v -0.2193659394979477 0.3940734565258026 0.0
v -0.22406817972660065 0.3905414044857025 0.0
v -0.2290172129869461 0.38736432790756226 0.0
v -0.2290172129869461 0.38736432790756226 14.300000190734863
v -0.22406817972660065 0.3905414044857025 14.300000190734863
v -0.2193659394979477 0.3940734565258026 14.300000190734863
v -0.21493586897850037 0.3979414403438568 14.300000190734863
v -0.2290172129869461 0.38736432790756226 0.0
v -0.3472980260848999 0.2861539423465729 0.0
v -0.42401647567749023 0.1506984978914261 0.0
v -0.4499913454055786 -0.0027915677055716515 0.0
v -0.42211416363716125 -0.15594755113124847 0.0
v -0.34372106194496155 -0.29044073820114136 0.0
v -0.22419366240501404 -0.39017584919929504 0.0
v -0.07783620059490204 -0.4432172477245331 0.0
v 0.07783620059490204 -0.4432172477245331 0.0
v 0.22419366240501404 -0.39017584919929504 0.0
v 0.34372106194496155 -0.29044073820114136 0.0
v 0.42211416363716125 -0.15594755113124847 0.0
v 0.4499913454055786 -0.0027915677055716515 0.0
v 0.42401647567749023 0.1506984978914261 0.0
v 0.3472980260848999 0.2861539423465729 0.0
v 0.2290172129869461 0.38736432790756226 0.0
v 0.2290172129869461 0.38736432790756226 14.300000190734863
v 0.3472980260848999 0.2861539423465729 14.300000190734863
v 0.42401647567749023 0.1506984978914261 14.300000190734863
v 0.4499913454055786 -0.0027915677055716515 14.300000190734863
v 0.42211416363716125 -0.15594755113124847 14.300000190734863
v 0.34372106194496155 -0.29044073820114136 14.300000190734863
v 0.22419366240501404 -0.39017584919929504 14.300000190734863
v 0.07783620059490204 -0.4432172477245331 14.300000190734863
v -0.07783620059490204 -0.4432172477245331 14.300000190734863
v -0.22419366240501404 -0.39017584919929504 14.300000190734863
v -0.34372106194496155 -0.29044073820114136 14.300000190734863
v -0.42211416363716125 -0.15594755113124847 14.300000190734863
v -0.4499913454055786 -0.0027915677055716515 14.300000190734863
v -0.42401647567749023 0.1506984978914261 14.300000190734863
v -0.3472980260848999 0.2861539423465729 14.300000190734863
v -0.2290172129869461 0.38736432790756226 14.300000190734863
v 0.2290172129869461 0.38736432790756226 0.0
v 0.22406817972660065 0.3905414044857025 0.0
v 0.2193659394979477 0.3940734565258026 0.0
v 0.21493586897850037 0.3979414403438568 0.0
v 0.21493586897850037 0.3979414403438568 14.300000190734863
v 0.2193659394979477 0.3940734565258026 14.300000190734863
v 0.22406817972660065 0.3905414044857025 14.300000190734863
v 0.2290172129869461 0.38736432790756226 14.300000190734863
v 0.21493586897850037 0.3979414403438568 0.0
v 0.004109663888812065 0.5961365699768066 0.0
v 0.004109663888812065 0.5961365699768066 14.300000190734863
v 0.21493586897850037 0.3979414403438568 14.300000190734863
vn -0.0 -0.0 -1.0
vn -0.0 -0.0 -1.0
vn -0.0 -0.0 -1.0
vn -0.0 -0.0 -1.0
vn -0.0 -0.0 -1.0
vn -0.0 -0.0 -1.0
vn -0.0 -0.0 -1.0
vn -0.0 -0.0 -1.0
vn -0.0 -0.0 -1.0
vn -0.0 -0.0 -1.0
vn -0.0 -0.0 -1.0
vn -0.0 -0.0 -1.0
vn -0.0 -0.0 -1.0
vn -0.0 -0.0 -1.0
vn -0.0 -0.0 -1.0
vn -0.0 -0.0 -1.0
vn -0.0 -0.0 -1.0
vn -0.0 -0.0 -1.0
vn -0.0 -0.0 -1.0
vn -0.0 -0.0 -1.0
vn -0.0 -0.0 -1.0
vn -0.0 -0.0 -1.0
vn -0.0 -0.0 -1.0
vn -0.0 -0.0 -1.0
vn -0.0 -0.0 -1.0
vn -0.0 -0.0 -1.0
vn 0.0 0.0 1.0
vn 0.0 0.0 1.0
vn 0.0 0.0 1.0
vn 0.0 0.0 1.0
vn 0.0 0.0 1.0
vn 0.0 0.0 1.0
vn 0.0 0.0 1.0
vn 0.0 0.0 1.0
vn 0.0 0.0 1.0
vn 0.0 0.0 1.0
vn 0.0 0.0 1.0
vn 0.0 0.0 1.0
vn 0.0 0.0 1.0
vn 0.0 0.0 1.0
vn 0.0 0.0 1.0
vn 0.0 0.0 1.0
vn 0.0 0.0 1.0
vn 0.0 0.0 1.0
vn 0.0 0.0 1.0
vn 0.0 0.0 1.0
vn 0.0 0.0 1.0
vn 0.0 0.0 1.0
vn 0.0 0.0 1.0
vn 0.0 0.0 1.0
vn 0.0 0.0 1.0
vn 0.0 0.0 1.0
vn 0.6849439740180969 0.7285957932472229 -0.0
vn 0.24886569380760193 0.9685379862785339 -0.0
vn -0.24886569380760193 0.9685379862785339 -0.0
vn -0.6849439740180969 0.7285957932472229 -0.0
vn -0.6849439740180969 0.7285957932472229 -0.0
vn -0.24886569380760193 0.9685379862785339 -0.0
vn 0.24886569380760193 0.9685379862785339 -0.0
vn 0.6849439740180969 0.7285957932472229 -0.0
vn -0.6849439740180969 0.7285957932472229 0.0
vn -0.6849439740180969 0.7285957932472229 0.0
vn -0.6849439740180969 0.7285957932472229 0.0
vn -0.6849439740180969 0.7285957932472229 0.0
vn -0.6849439740180969 0.7285957932472229 0.0
vn -0.6295680999755859 0.7769452929496765 0.0
vn -0.5707899332046509 0.8210961222648621 0.0
vn -0.5089271068572998 0.8608096241950989 0.0
vn -0.5089271068572998 0.8608096241950989 0.0
vn -0.5707899332046509 0.8210961222648621 0.0
vn -0.6295680999755859 0.7769452929496765 0.0
vn -0.6849439740180969 0.7285957932472229 0.0
vn -0.5089271068572998 0.8608096241950989 -0.0
vn -0.7717733979225159 0.6358976364135742 -0.0
vn -0.9422588348388672 0.33488553762435913 -0.0
vn -0.9999807476997375 -0.0062034837901592255 0.0
vn -0.9380314350128174 -0.3465501368045807 0.0
vn -0.7638245820999146 -0.6454238891601562 0.0
vn -0.4982081353664398 -0.8670574426651001 0.0
vn -0.17296932637691498 -0.984927237033844 0.0
vn 0.17296932637691498 -0.984927237033844 -0.0
vn 0.4982081353664398 -0.8670574426651001 -0.0
vn 0.7638245820999146 -0.6454238891601562 -0.0
vn 0.9380314350128174 -0.3465501368045807 -0.0
vn 0.9999807476997375 -0.0062034837901592255 -0.0
vn 0.9422588348388672 0.33488553762435913 -0.0
vn 0.7717733979225159 0.6358976364135742 -0.0
vn 0.5089271068572998 0.8608096241950989 -0.0
vn 0.5089271068572998 0.8608096241950989 -0.0
vn 0.7717733979225159 0.6358976364135742 -0.0
vn 0.9422588348388672 0.33488553762435913 -0.0
vn 0.9999807476997375 -0.0062034837901592255 -0.0
vn 0.9380314350128174 -0.3465501368045807 -0.0
vn 0.7638245820999146 -0.6454238891601562 -0.0
vn 0.4982081353664398 -0.8670574426651001 -0.0
vn 0.17296932637691498 -0.984927237033844 -0.0
vn -0.17296932637691498 -0.984927237033844 0.0
vn -0.4982081353664398 -0.8670574426651001 0.0
vn -0.7638245820999146 -0.6454238891601562 0.0
vn -0.9380314350128174 -0.3465501368045807 0.0
vn -0.9999807476997375 -0.0062034837901592255 0.0
vn -0.9422588348388672 0.33488553762435913 -0.0
vn -0.7717733979225159 0.6358976364135742 -0.0
vn -0.5089271068572998 0.8608096241950989 -0.0
vn 0.5089271068572998 0.8608096241950989 -0.0
vn 0.5707899332046509 0.8210961222648621 -0.0
vn 0.6295680999755859 0.7769452929496765 -0.0
vn 0.6849439740180969 0.7285957932472229 -0.0
vn 0.6849439740180969 0.7285957932472229 -0.0
vn 0.6295680999755859 0.7769452929496765 -0.0
vn 0.5707899332046509 0.8210961222648621 -0.0
vn 0.5089271068572998 0.8608096241950989 -0.0
vn 0.6849439740180969 0.7285957932472229 -0.0
vn 0.6849439740180969 0.7285957932472229 -0.0
vn 0.6849439740180969 0.7285957932472229 -0.0
vn 0.6849439740180969 0.7285957932472229 -0.0
f 2//2 3//3 1//1
f 1//1 3//3 4//4
f 1//1 4//4 26//26
f 26//26 4//4 5//5
f 26//26 5//5 25//25
f 25//25 5//5 6//6
f 25//25 6//6 24//24
f 24//24 6//6 7//7
f 24//24 7//7 23//23
f 23//23 7//7 8//8
f 23//23 8//8 22//22
f 22//22 8//8 21//21
f 21//21 8//8 20//20
f 20//20 8//8 19//19
f 19//19 8//8 18//18
f 18//18 8//8 17//17
f 17//17 8//8 16//16
f 16//16 8//8 15//15
f 15//15 8//8 14//14
f 14//14 8//8 13//13
f 13//13 8//8 9//9
f 13//13 9//9 12//12
f 12//12 9//9 10//10
f 12//12 10//10 11//11
f 28//28 29//29 27//27
f 27//27 29//29 30//30
f 27//27 30//30 52//52
f 52//52 30//30 31//31
f 52//52 31//31 51//51
f 51//51 31//31 32//32
f 51//51 32//32 50//50
f 50//50 32//32 33//33
f 50//50 33//33 49//49
f 49//49 33//33 34//34
f 49//49 34//34 48//48
f 48//48 34//34 47//47
f 47//47 34//34 46//46
f 46//46 34//34 45//45
f 45//45 34//34 44//44
f 44//44 34//34 43//43
f 43//43 34//34 42//42
f 42//42 34//34 41//41
f 41//41 34//34 40//40
f 40//40 34//34 39//39
f 39//39 34//34 35//35
f 39//39 35//35 38//38
f 38//38 35//35 36//36
f 38//38 36//36 37//37
f 60//60 53//53 59//59
f 59//59 53//53 54//54
f 59//59 54//54 58//58
f 58//58 54//54 55//55
f 58//58 55//55 57//57
f 57//57 55//55 56//56
f 61//61 62//62 64//64
f 64//64 62//62 63//63
f 72//72 65//65 71//71
f 71//71 65//65 66//66
f 71//71 66//66 70//70
f 70//70 66//66 67//67
f 70//70 67//67 69//69
f 69//69 67//67 68//68
f 104//104 73//73 103//103
f 103//103 73//73 74//74
f 103//103 74//74 102//102
f 102//102 74//74 75//75
f 102//102 75//75 101//101
f 101//101 75//75 76//76
f 101//101 76//76 100//100
f 100//100 76//76 77//77
f 100//100 77//77 99//99
f 99//99 77//77 78//78
f 99//99 78//78 98//98
f 98//98 78//78 79//79
f 98//98 79//79 97//97
f 97//97 79//79 80//80
f 97//97 80//80 96//96
f 96//96 80//80 81//81
f 96//96 81//81 95//95
f 95//95 81//81 82//82
f 95//95 82//82 94//94
f 94//94 82//82 83//83
f 94//94 83//83 93//93
f 93//93 83//83 84//84
f 93//93 84//84 92//92
f 92//92 84//84 85//85
f 92//92 85//85 91//91
f 91//91 85//85 86//86
f 91//91 86//86 90//90
f 90//90 86//86 87//87
f 90//90 87//87 89//89
f 89//89 87//87 88//88
f 112//112 105//105 111//111
f 111//111 105//105 106//106
f 111//111 106//106 110//110
f 110//110 106//106 107//107
f 110//110 107//107 109//109
f 109//109 107//107 108//108
f 113//113 114//114 116//116
f 116//116 114//114 115//115

# End of file