# WaveFront *.obj file
# Vertices: 130
# Triangles : 116

v -0.7573187947273254 0.5 2.7106738090515137
v -0.7483107447624207 0.5741878747940063 2.7106738090515137
v -0.7218101620674133 0.64406418800354 2.7106738090515137
v -0.67935711145401 0.7055680155754089 2.7106738090515137
v -0.6234188675880432 0.7551249861717224 2.7106738090515137
v -0.5572463274002075 0.7898550629615784 2.7106738090515137
v -0.48468518257141113 0.8077397346496582 2.7106738090515137
v -0.40995243191719055 0.8077397346496582 2.7106738090515137
v -0.33739128708839417 0.7898550629615784 2.7106738090515137
v -0.2712187170982361 0.7551249861717224 2.7106738090515137
v -0.2152804732322693 0.7055680155754089 2.7106738090515137
v -0.17282743752002716 0.64406418800354 2.7106738090515137
v -0.14632683992385864 0.5741878747940063 2.7106738090515137
v -0.13731880486011505 0.5 2.7106738090515137
v -0.14632683992385864 0.42581215500831604 2.7106738090515137
v -0.17282743752002716 0.35593581199645996 2.7106738090515137
v -0.2152804732322693 0.29443198442459106 2.7106738090515137
v -0.2712187170982361 0.2448749989271164 2.7106738090515137
v -0.33739128708839417 0.21014496684074402 2.7106738090515137
v -0.40995243191719055 0.1922602504491806 2.7106738090515137
v -0.48468518257141113 0.1922602504491806 2.7106738090515137
v -0.5572463274002075 0.21014496684074402 2.7106738090515137
v -0.6234188675880432 0.2448749989271164 2.7106738090515137
v -0.67935711145401 0.29443198442459106 2.7106738090515137
v -0.7218101620674133 0.35593581199645996 2.7106738090515137
v -0.7483107447624207 0.42581215500831604 2.7106738090515137
v -0.7573187947273254 0.5 1.9106738567352295
v -0.7483107447624207 0.42581215500831604 1.9106738567352295
v -0.7218101620674133 0.35593581199645996 1.9106738567352295
v -0.67935711145401 0.29443198442459106 1.9106738567352295
v -0.6234188675880432 0.2448749989271164 1.9106738567352295
v -0.5572463274002075 0.21014496684074402 1.9106738567352295
v -0.48468518257141113 0.1922602504491806 1.9106738567352295
v -0.40995243191719055 0.1922602504491806 1.9106738567352295
v -0.33739128708839417 0.21014496684074402 1.9106738567352295
v -0.2712187170982361 0.2448749989271164 1.9106738567352295
v -0.2152804732322693 0.29443198442459106 1.9106738567352295
v -0.17282743752002716 0.35593581199645996 1.9106738567352295
v -0.14632683992385864 0.42581215500831604 1.9106738567352295
v -0.13731880486011505 0.5 1.9106738567352295
v -0.14632683992385864 0.5741878747940063 1.9106738567352295
v -0.17282743752002716 0.64406418800354 1.9106738567352295
v -0.2152804732322693 0.7055680155754089 1.9106738567352295
v -0.2712187170982361 0.7551249861717224 1.9106738567352295
v -0.33739128708839417 0.7898550629615784 1.9106738567352295
v -0.40995243191719055 0.8077397346496582 1.9106738567352295
v -0.48468518257141113 0.8077397346496582 1.9106738567352295
v -0.5572463274002075 0.7898550629615784 1.9106738567352295
v -0.6234188675880432 0.7551249861717224 1.9106738567352295
v -0.67935711145401 0.7055680155754089 1.9106738567352295
v -0.7218101620674133 0.64406418800354 1.9106738567352295
v -0.7483107447624207 0.5741878747940063 1.9106738567352295
v -0.7573187947273254 0.5 1.9106738567352295
v -0.7573187947273254 0.5 2.7106738090515137
v -0.7573187947273254 0.5 2.7106738090515137
v -0.7483107447624207 0.42581215500831604 2.7106738090515137
v -0.7218101620674133 0.35593581199645996 2.7106738090515137
v -0.67935711145401 0.29443198442459106 2.7106738090515137
v -0.6234188675880432 0.2448749989271164 2.7106738090515137
v -0.5572463274002075 0.21014496684074402 2.7106738090515137
v -0.48468518257141113 0.1922602504491806 2.7106738090515137
v -0.40995243191719055 0.1922602504491806 2.7106738090515137
v -0.33739128708839417 0.21014496684074402 2.7106738090515137
v -0.2712187170982361 0.2448749989271164 2.7106738090515137
v -0.2152804732322693 0.29443198442459106 2.7106738090515137
v -0.17282743752002716 0.35593581199645996 2.7106738090515137
v -0.14632683992385864 0.42581215500831604 2.7106738090515137
v -0.13731880486011505 0.5 2.7106738090515137
v -0.14632683992385864 0.5741878747940063 2.7106738090515137
v -0.17282743752002716 0.64406418800354 2.7106738090515137
v -0.2152804732322693 0.7055680155754089 2.7106738090515137
v -0.2712187170982361 0.7551249861717224 2.7106738090515137
v -0.33739128708839417 0.7898550629615784 2.7106738090515137
v -0.40995243191719055 0.8077397346496582 2.7106738090515137
v -0.48468518257141113 0.8077397346496582 2.7106738090515137
v -0.5572463274002075 0.7898550629615784 2.7106738090515137
v -0.6234188675880432 0.7551249861717224 2.7106738090515137
v -0.67935711145401 0.7055680155754089 2.7106738090515137
v -0.7218101620674133 0.64406418800354 2.7106738090515137
v -0.7483107447624207 0.5741878747940063 2.7106738090515137
v -1.014267921447754 0.0 -1.3893260955810547
v -1.014267921447754 0.0 1.9106738567352295
v -1.014267921447754 1.0 1.9106738567352295
v -1.014267921447754 1.0 -1.3893260955810547
v 1.3857321739196777 0.0 -1.3893260955810547
v -1.014267921447754 0.0 -1.3893260955810547
v -1.014267921447754 1.0 -1.3893260955810547
v 1.3857321739196777 1.0 -1.3893260955810547
v 1.3857321739196777 0.0 1.9106738567352295
v 1.3857321739196777 0.0 -1.3893260955810547
v 1.3857321739196777 1.0 -1.3893260955810547
v 1.3857321739196777 1.0 1.9106738567352295
v -0.7573187947273254 0.5 1.9106738567352295
v -0.7483107447624207 0.5741878747940063 1.9106738567352295
v -0.7218101620674133 0.64406418800354 1.9106738567352295
v -0.67935711145401 0.7055680155754089 1.9106738567352295
v -0.6234188675880432 0.7551249861717224 1.9106738567352295
v -0.5572463274002075 0.7898550629615784 1.9106738567352295
v -0.48468518257141113 0.8077397346496582 1.9106738567352295
v -0.40995243191719055 0.8077397346496582 1.9106738567352295
v -0.33739128708839417 0.7898550629615784 1.9106738567352295
v -0.2712187170982361 0.7551249861717224 1.9106738567352295
v -0.2152804732322693 0.7055680155754089 1.9106738567352295
v -0.17282743752002716 0.64406418800354 1.9106738567352295
v -0.14632683992385864 0.5741878747940063 1.9106738567352295
v -0.13731880486011505 0.5 1.9106738567352295
v -0.14632683992385864 0.42581215500831604 1.9106738567352295
v -0.17282743752002716 0.35593581199645996 1.9106738567352295
v -0.2152804732322693 0.29443198442459106 1.9106738567352295
v -0.2712187170982361 0.2448749989271164 1.9106738567352295
v -0.33739128708839417 0.21014496684074402 1.9106738567352295
v -0.40995243191719055 0.1922602504491806 1.9106738567352295
v -0.48468518257141113 0.1922602504491806 1.9106738567352295
v -0.5572463274002075 0.21014496684074402 1.9106738567352295
v -0.6234188675880432 0.2448749989271164 1.9106738567352295
v -0.67935711145401 0.29443198442459106 1.9106738567352295
v -0.7218101620674133 0.35593581199645996 1.9106738567352295
v -0.7483107447624207 0.42581215500831604 1.9106738567352295
v -1.014267921447754 0.0 1.9106738567352295
v 1.3857321739196777 0.0 1.9106738567352295
v 1.3857321739196777 1.0 1.9106738567352295
v -1.014267921447754 1.0 1.9106738567352295
v -1.014267921447754 1.0 1.9106738567352295
v 1.3857321739196777 1.0 1.9106738567352295
v 1.3857321739196777 1.0 -1.3893260955810547
v -1.014267921447754 1.0 -1.3893260955810547
v 1.3857321739196777 0.0 1.9106738567352295
v -1.014267921447754 0.0 1.9106738567352295
v -1.014267921447754 0.0 -1.3893260955810547
v 1.3857321739196777 0.0 -1.3893260955810547
vn -1.0 1.2246468525851679e-16 -0.0
vn -0.9709418416023254 0.23931565880775452 -0.0
vn -0.8854560256004333 0.4647231698036194 -0.0
vn -0.7485107779502869 0.6631226539611816 -0.0
vn -0.5680647492408752 0.8229838609695435 -0.0
vn -0.35460489988327026 0.9350162148475647 -0.0
vn -0.1205366775393486 0.9927088618278503 -0.0
vn 0.1205366775393486 0.9927088618278503 -0.0
vn 0.35460489988327026 0.9350162148475647 -0.0
vn 0.5680647492408752 0.8229838609695435 -0.0
vn 0.7485107779502869 0.6631226539611816 -0.0
vn 0.8854560256004333 0.4647231698036194 -0.0
vn 0.9709418416023254 0.23931565880775452 -0.0
vn 1.0 -0.0 -0.0
vn 0.9709418416023254 -0.23931565880775452 -0.0
vn 0.8854560256004333 -0.4647231698036194 -0.0
vn 0.7485107779502869 -0.6631226539611816 -0.0
vn 0.5680647492408752 -0.8229838609695435 -0.0
vn 0.35460489988327026 -0.9350162148475647 -0.0
vn 0.1205366775393486 -0.9927088618278503 -0.0
vn -0.1205366775393486 -0.9927088618278503 0.0
vn -0.35460489988327026 -0.9350162148475647 0.0
vn -0.5680647492408752 -0.8229838609695435 0.0
vn -0.7485107779502869 -0.6631226539611816 0.0
vn -0.8854560256004333 -0.4647231698036194 0.0
vn -0.9709418416023254 -0.23931565880775452 0.0
vn -1.0 -1.2246468525851679e-16 0.0
vn -0.9709418416023254 -0.23931565880775452 0.0
vn -0.8854560256004333 -0.4647231698036194 0.0
vn -0.7485107779502869 -0.6631226539611816 0.0
vn -0.5680647492408752 -0.8229838609695435 0.0
vn -0.35460489988327026 -0.9350162148475647 0.0
vn -0.1205366775393486 -0.9927088618278503 0.0
vn 0.1205366775393486 -0.9927088618278503 -0.0
vn 0.35460489988327026 -0.9350162148475647 -0.0
vn 0.5680647492408752 -0.8229838609695435 -0.0
vn 0.7485107779502869 -0.6631226539611816 -0.0
vn 0.8854560256004333 -0.4647231698036194 -0.0
vn 0.9709418416023254 -0.23931565880775452 -0.0
vn 1.0 -0.0 -0.0
vn 0.9709418416023254 0.23931565880775452 -0.0
vn 0.8854560256004333 0.4647231698036194 -0.0
vn 0.7485107779502869 0.6631226539611816 -0.0
vn 0.5680647492408752 0.8229838609695435 -0.0
vn 0.35460489988327026 0.9350162148475647 -0.0
vn 0.1205366775393486 0.9927088618278503 -0.0
vn -0.1205366775393486 0.9927088618278503 -0.0
vn -0.35460489988327026 0.9350162148475647 -0.0
vn -0.5680647492408752 0.8229838609695435 -0.0
vn -0.7485107779502869 0.6631226539611816 -0.0
vn -0.8854560256004333 0.4647231698036194 -0.0
vn -0.9709418416023254 0.23931565880775452 -0.0
vn -1.0 1.2246468525851679e-16 -0.0
vn -1.0 -1.2246468525851679e-16 0.0
vn 0.0 0.0 1.0
vn 0.0 0.0 1.0
vn 0.0 0.0 1.0
vn 0.0 0.0 1.0
vn 0.0 0.0 1.0
vn 0.0 0.0 1.0
vn 0.0 0.0 1.0
vn 0.0 0.0 1.0
vn 0.0 0.0 1.0
vn 0.0 0.0 1.0
vn 0.0 0.0 1.0
vn 0.0 0.0 1.0
vn 0.0 0.0 1.0
vn 0.0 0.0 1.0
vn 0.0 0.0 1.0
vn 0.0 0.0 1.0
vn 0.0 0.0 1.0
vn 0.0 0.0 1.0
vn 0.0 0.0 1.0
vn 0.0 0.0 1.0
vn 0.0 0.0 1.0
vn 0.0 0.0 1.0
vn 0.0 0.0 1.0
vn 0.0 0.0 1.0
vn 0.0 0.0 1.0
vn 0.0 0.0 1.0
vn -1.0 0.0 0.0
vn -1.0 0.0 0.0
vn -1.0 0.0 0.0
vn -1.0 0.0 0.0
vn 0.0 0.0 -1.0
vn 0.0 0.0 -1.0
vn 0.0 0.0 -1.0
vn 0.0 0.0 -1.0
vn 1.0 0.0 0.0
vn 1.0 0.0 0.0
vn 1.0 0.0 0.0
vn 1.0 0.0 0.0
vn 0.0 -0.0 1.0
vn 0.0 -0.0 1.0
vn 0.0 -0.0 1.0
vn 0.0 -0.0 1.0
vn 0.0 -0.0 1.0
vn 0.0 -0.0 1.0
vn 0.0 -0.0 1.0
vn 0.0 -0.0 1.0
vn 0.0 -0.0 1.0
vn 0.0 -0.0 1.0
vn 0.0 -0.0 1.0
vn 0.0 -0.0 1.0
vn 0.0 -0.0 1.0
vn 0.0 -0.0 1.0
vn 0.0 -0.0 1.0
vn 0.0 -0.0 1.0
vn 0.0 -0.0 1.0
vn 0.0 -0.0 1.0
vn 0.0 -0.0 1.0
vn 0.0 -0.0 1.0
vn 0.0 -0.0 1.0
vn 0.0 -0.0 1.0
vn 0.0 -0.0 1.0
vn 0.0 -0.0 1.0
vn 0.0 -0.0 1.0
vn 0.0 -0.0 1.0
vn 0.0 -0.0 1.0
vn 0.0 -0.0 1.0
vn 0.0 -0.0 1.0
vn 0.0 -0.0 1.0
vn 0.0 1.0 0.0
vn 0.0 1.0 0.0
vn 0.0 1.0 0.0
vn 0.0 1.0 0.0
vn -0.0 -1.0 -0.0
vn -0.0 -1.0 -0.0
vn -0.0 -1.0 -0.0
vn -0.0 -1.0 -0.0
g a7d34ca6-e2f5-11ea-ad68-54bf646e7e1f
f 2//2 52//52 1//1
f 1//1 52//52 53//53
f 54//54 27//27 26//26
f 26//26 27//27 28//28
f 26//26 28//28 25//25
f 25//25 28//28 29//29
f 25//25 29//29 24//24
f 24//24 29//29 30//30
f 24//24 30//30 23//23
f 23//23 30//30 31//31
f 23//23 31//31 22//22
f 22//22 31//31 32//32
f 22//22 32//32 21//21
f 21//21 32//32 33//33
f 21//21 33//33 20//20
f 20//20 33//33 34//34
f 20//20 34//34 19//19
f 19//19 34//34 35//35
f 19//19 35//35 18//18
f 18//18 35//35 36//36
f 18//18 36//36 17//17
f 17//17 36//36 37//37
f 17//17 37//37 16//16
f 16//16 37//37 38//38
f 16//16 38//38 15//15
f 15//15 38//38 39//39
f 15//15 39//39 14//14
f 14//14 39//39 40//40
f 14//14 40//40 13//13
f 13//13 40//40 41//41
f 13//13 41//41 12//12
f 12//12 41//41 42//42
f 12//12 42//42 11//11
f 11//11 42//42 43//43
f 11//11 43//43 10//10
f 10//10 43//43 44//44
f 10//10 44//44 9//9
f 9//9 44//44 45//45
f 9//9 45//45 8//8
f 8//8 45//45 46//46
f 8//8 46//46 7//7
f 7//7 46//46 47//47
f 7//7 47//47 6//6
f 6//6 47//47 48//48
f 6//6 48//48 5//5
f 5//5 48//48 49//49
f 5//5 49//49 4//4
f 4//4 49//49 50//50
f 4//4 50//50 3//3
f 3//3 50//50 51//51
f 3//3 51//51 2//2
f 2//2 51//51 52//52
g a7d436f6-e2f5-11ea-a087-54bf646e7e1f
f 56//56 67//67 55//55
f 55//55 67//67 68//68
f 55//55 68//68 80//80
f 80//80 68//68 69//69
f 80//80 69//69 79//79
f 79//79 69//69 70//70
f 79//79 70//70 78//78
f 78//78 70//70 71//71
f 78//78 71//71 77//77
f 77//77 71//71 72//72
f 77//77 72//72 76//76
f 76//76 72//72 73//73
f 76//76 73//73 75//75
f 75//75 73//73 74//74
f 67//67 56//56 66//66
f 66//66 56//56 57//57
f 66//66 57//57 65//65
f 65//65 57//57 58//58
f 65//65 58//58 64//64
f 64//64 58//58 59//59
f 64//64 59//59 63//63
f 63//63 59//59 60//60
f 63//63 60//60 62//62
f 62//62 60//60 61//61
g a7ac3cee-e2f5-11ea-8142-54bf646e7e1f
f 81//81 82//82 84//84
f 84//84 82//82 83//83
g a7ac8af4-e2f5-11ea-bbae-54bf646e7e1f
f 85//85 86//86 88//88
f 88//88 86//86 87//87
g a7acb200-e2f5-11ea-8e27-54bf646e7e1f
f 89//89 90//90 92//92
f 92//92 90//90 91//91
g a7acd90a-e2f5-11ea-b6a6-54bf646e7e1f
f 94//94 122//122 93//93
f 93//93 122//122 119//119
f 93//93 119//119 118//118
f 118//118 119//119 117//117
f 117//117 119//119 116//116
f 116//116 119//119 115//115
f 115//115 119//119 114//114
f 114//114 119//119 113//113
f 113//113 119//119 112//112
f 112//112 119//119 120//120
f 112//112 120//120 111//111
f 111//111 120//120 110//110
f 110//110 120//120 109//109
f 109//109 120//120 108//108
f 108//108 120//120 107//107
f 107//107 120//120 106//106
f 106//106 120//120 121//121
f 106//106 121//121 105//105
f 105//105 121//121 104//104
f 104//104 121//121 103//103
f 103//103 121//121 102//102
f 102//102 121//121 101//101
f 101//101 121//121 100//100
f 100//100 121//121 122//122
f 100//100 122//122 99//99
f 99//99 122//122 98//98
f 98//98 122//122 97//97
f 97//97 122//122 96//96
f 96//96 122//122 95//95
f 95//95 122//122 94//94
g a7ad2728-e2f5-11ea-bd63-54bf646e7e1f
f 124//124 125//125 123//123
f 123//123 125//125 126//126
g a7ad4e46-e2f5-11ea-9623-54bf646e7e1f
f 127//127 128//128 130//130
f 130//130 128//128 129//129

# End of file