# WaveFront *.obj file
# Vertices: 76
# Triangles : 60

v 0.3499999940395355 0.0 -0.4000000059604645
v -0.3499999940395355 0.0 -0.4000000059604645
v -0.3499999940395355 1.7000000476837158 -0.4000000059604645
v 0.3499999940395355 1.7000000476837158 -0.4000000059604645
v 0.45000001788139343 0.0 -0.30000001192092896
v 0.4465925991535187 0.0 -0.3258818984031677
v 0.43660253286361694 0.0 -0.3499999940395355
v 0.4207106828689575 0.0 -0.37071067094802856
v 0.4000000059604645 0.0 -0.3866025507450104
v 0.3758819103240967 0.0 -0.3965925872325897
v 0.3499999940395355 0.0 -0.4000000059604645
v 0.3499999940395355 1.7000000476837158 -0.4000000059604645
v 0.3758819103240967 1.7000000476837158 -0.3965925872325897
v 0.4000000059604645 1.7000000476837158 -0.3866025507450104
v 0.4207106828689575 1.7000000476837158 -0.37071067094802856
v 0.43660253286361694 1.7000000476837158 -0.3499999940395355
v 0.4465925991535187 1.7000000476837158 -0.3258818984031677
v 0.45000001788139343 1.7000000476837158 -0.30000001192092896
v 0.45000001788139343 0.0 0.30000001192092896
v 0.45000001788139343 0.0 -0.30000001192092896
v 0.45000001788139343 1.7000000476837158 -0.30000001192092896
v 0.45000001788139343 1.7000000476837158 0.30000001192092896
v 0.3499999940395355 0.0 0.4000000059604645
v 0.3758819103240967 0.0 0.3965925872325897
v 0.4000000059604645 0.0 0.3866025507450104
v 0.4207106828689575 0.0 0.37071067094802856
v 0.43660253286361694 0.0 0.3499999940395355
v 0.4465925991535187 0.0 0.3258818984031677
v 0.45000001788139343 0.0 0.30000001192092896
v 0.45000001788139343 1.7000000476837158 0.30000001192092896
v 0.4465925991535187 1.7000000476837158 0.3258818984031677
v 0.43660253286361694 1.7000000476837158 0.3499999940395355
v 0.4207106828689575 1.7000000476837158 0.37071067094802856
v 0.4000000059604645 1.7000000476837158 0.3866025507450104
v 0.3758819103240967 1.7000000476837158 0.3965925872325897
v 0.3499999940395355 1.7000000476837158 0.4000000059604645
v -0.3499999940395355 0.0 0.4000000059604645
v 0.3499999940395355 0.0 0.4000000059604645
v 0.3499999940395355 1.7000000476837158 0.4000000059604645
v -0.3499999940395355 1.7000000476837158 0.4000000059604645
v -0.3499999940395355 0.0 -0.4000000059604645
v -0.3499999940395355 0.0 0.4000000059604645
v -0.3499999940395355 1.7000000476837158 0.4000000059604645
v -0.3499999940395355 1.7000000476837158 -0.4000000059604645
v -0.3499999940395355 1.7000000476837158 -0.4000000059604645
v -0.3499999940395355 1.7000000476837158 0.4000000059604645
v 0.3499999940395355 1.7000000476837158 0.4000000059604645
v 0.3758819103240967 1.7000000476837158 0.3965925872325897
v 0.4000000059604645 1.7000000476837158 0.3866025507450104
v 0.4207106828689575 1.7000000476837158 0.37071067094802856
v 0.43660253286361694 1.7000000476837158 0.3499999940395355
v 0.4465925991535187 1.7000000476837158 0.3258818984031677
v 0.45000001788139343 1.7000000476837158 0.30000001192092896
v 0.45000001788139343 1.7000000476837158 -0.30000001192092896
v 0.4465925991535187 1.7000000476837158 -0.3258818984031677
v 0.43660253286361694 1.7000000476837158 -0.3499999940395355
v 0.4207106828689575 1.7000000476837158 -0.37071067094802856
v 0.4000000059604645 1.7000000476837158 -0.3866025507450104
v 0.3758819103240967 1.7000000476837158 -0.3965925872325897
v 0.3499999940395355 1.7000000476837158 -0.4000000059604645
v -0.3499999940395355 0.0 0.4000000059604645
v -0.3499999940395355 0.0 -0.4000000059604645
v 0.3499999940395355 0.0 -0.4000000059604645
v 0.3758819103240967 0.0 -0.3965925872325897
v 0.4000000059604645 0.0 -0.3866025507450104
v 0.4207106828689575 0.0 -0.37071067094802856
v 0.43660253286361694 0.0 -0.3499999940395355
v 0.4465925991535187 0.0 -0.3258818984031677
v 0.45000001788139343 0.0 -0.30000001192092896
v 0.45000001788139343 0.0 0.30000001192092896
v 0.4465925991535187 0.0 0.3258818984031677
v 0.43660253286361694 0.0 0.3499999940395355
v 0.4207106828689575 0.0 0.37071067094802856
v 0.4000000059604645 0.0 0.3866025507450104
v 0.3758819103240967 0.0 0.3965925872325897
v 0.3499999940395355 0.0 0.4000000059604645
vn -2.9802322831784522e-09 0.0 -1.0
vn -2.9802322831784522e-09 0.0 -1.0
vn -2.9802322831784522e-09 0.0 -1.0
vn -2.9802322831784522e-09 0.0 -1.0
vn 1.0 -0.0 -0.0
vn 0.9659258127212524 -0.0 -0.258819043636322
vn 0.8660253882408142 -0.0 -0.5
vn 0.7071067690849304 -0.0 -0.7071067690849304
vn 0.5 -0.0 -0.8660253882408142
vn 0.258819043636322 -0.0 -0.9659258127212524
vn 5.053215392444312e-16 -0.0 -1.0
vn 5.053215392444312e-16 -0.0 -1.0
vn 0.258819043636322 -0.0 -0.9659258127212524
vn 0.5 -0.0 -0.8660253882408142
vn 0.7071067690849304 -0.0 -0.7071067690849304
vn 0.8660253882408142 -0.0 -0.5
vn 0.9659258127212524 -0.0 -0.258819043636322
vn 1.0 -0.0 -0.0
vn 1.0 0.0 0.0
vn 1.0 0.0 0.0
vn 1.0 0.0 0.0
vn 1.0 0.0 0.0
vn 5.551115123125783e-16 -0.0 1.0
vn 0.258819043636322 -0.0 0.9659258127212524
vn 0.5 -0.0 0.8660253882408142
vn 0.7071067690849304 -0.0 0.7071067690849304
vn 0.8660253882408142 -0.0 0.5
vn 0.9659258127212524 -0.0 0.258819043636322
vn 1.0 -0.0 -4.978996314197971e-17
vn 1.0 -0.0 6.163438417069469e-16
vn 0.9659258127212524 -0.0 0.258819043636322
vn 0.8660253882408142 -0.0 0.5
vn 0.7071067690849304 -0.0 0.7071067690849304
vn 0.5 -0.0 0.8660253882408142
vn 0.258819043636322 -0.0 0.9659258127212524
vn 5.551115123125783e-16 -0.0 1.0
vn -1.9868213740892315e-08 0.0 1.0
vn -1.9868213740892315e-08 0.0 1.0
vn -1.9868213740892315e-08 0.0 1.0
vn -1.9868213740892315e-08 0.0 1.0
vn -1.0 0.0 -5.551115123125783e-16
vn -1.0 0.0 -5.551115123125783e-16
vn -1.0 0.0 -5.551115123125783e-16
vn -1.0 0.0 -5.551115123125783e-16
vn 0.0 1.0 0.0
vn 0.0 1.0 0.0
vn 0.0 1.0 0.0
vn 0.0 1.0 0.0
vn 0.0 1.0 0.0
vn 0.0 1.0 0.0
vn 0.0 1.0 0.0
vn 0.0 1.0 0.0
vn 0.0 1.0 0.0
vn 0.0 1.0 0.0
vn 0.0 1.0 0.0
vn 0.0 1.0 0.0
vn 0.0 1.0 0.0
vn 0.0 1.0 0.0
vn 0.0 1.0 0.0
vn 0.0 1.0 0.0
vn -0.0 -1.0 -0.0
vn -0.0 -1.0 -0.0
vn -0.0 -1.0 -0.0
vn -0.0 -1.0 -0.0
vn -0.0 -1.0 -0.0
vn -0.0 -1.0 -0.0
vn -0.0 -1.0 -0.0
vn -0.0 -1.0 -0.0
vn -0.0 -1.0 -0.0
vn -0.0 -1.0 -0.0
vn -0.0 -1.0 -0.0
vn -0.0 -1.0 -0.0
vn -0.0 -1.0 -0.0
vn -0.0 -1.0 -0.0
vn -0.0 -1.0 -0.0
vn -0.0 -1.0 -0.0
g 1e8ccada-e36e-11ea-ad52-54bf646e7e1f
f 1//1 2//2 4//4
f 4//4 2//2 3//3
g 1e95cb52-e36e-11ea-8b5d-54bf646e7e1f
f 18//18 5//5 17//17
f 17//17 5//5 6//6
f 17//17 6//6 16//16
f 16//16 6//6 7//7
f 16//16 7//7 15//15
f 15//15 7//7 8//8
f 15//15 8//8 14//14
f 14//14 8//8 9//9
f 14//14 9//9 13//13
f 13//13 9//9 10//10
f 13//13 10//10 12//12
f 12//12 10//10 11//11
g 1ec31d68-e36e-11ea-9270-54bf646e7e1f
f 19//19 20//20 22//22
f 22//22 20//20 21//21
g 1ecdf30a-e36e-11ea-9d69-54bf646e7e1f
f 36//36 23//23 35//35
f 35//35 23//23 24//24
f 35//35 24//24 34//34
f 34//34 24//24 25//25
f 34//34 25//25 33//33
f 33//33 25//25 26//26
f 33//33 26//26 32//32
f 32//32 26//26 27//27
f 32//32 27//27 31//31
f 31//31 27//27 28//28
f 31//31 28//28 30//30
f 30//30 28//28 29//29
g 1ed7900c-e36e-11ea-92c8-54bf646e7e1f
f 37//37 38//38 40//40
f 40//40 38//38 39//39
g 1ee090e2-e36e-11ea-b486-54bf646e7e1f
f 41//41 42//42 44//44
f 44//44 42//42 43//43
g 1eeced18-e36e-11ea-b18f-54bf646e7e1f
f 45//45 46//46 60//60
f 60//60 46//46 47//47
f 60//60 47//47 53//53
f 53//53 47//47 48//48
f 53//53 48//48 49//49
f 49//49 50//50 53//53
f 53//53 50//50 51//51
f 53//53 51//51 52//52
f 53//53 54//54 60//60
f 60//60 54//54 55//55
f 60//60 55//55 56//56
f 56//56 57//57 60//60
f 60//60 57//57 58//58
f 60//60 58//58 59//59
g 1efe2b3e-e36e-11ea-b45e-54bf646e7e1f
f 62//62 63//63 61//61
f 61//61 63//63 76//76
f 76//76 63//63 70//70
f 76//76 70//70 75//75
f 75//75 70//70 74//74
f 74//74 70//70 73//73
f 73//73 70//70 72//72
f 72//72 70//70 71//71
f 64//64 65//65 63//63
f 63//63 65//65 66//66
f 63//63 66//66 67//67
f 67//67 68//68 63//63
f 63//63 68//68 69//69
f 63//63 69//69 70//70

# End of file