# WaveFront *.obj file
# Vertices: 108
# Triangles : 68

v 0.050937358289957047 0.20000000298023224 -0.850262463092804
v 0.4011998176574707 0.20000000298023224 -0.5
v 0.050937358289957047 0.20000000298023224 -0.13990144431591034
v 0.5 0.20000000298023224 -0.5
v 0.0 0.20000000298023224 -1.0
v 0.0 0.20000000298023224 0.0
v 0.4011998176574707 0.0 -0.5
v 0.050937358289957047 0.0 -0.850262463092804
v 0.050937358289957047 0.0 -0.13990144431591034
v 0.0 0.0 -1.0
v 0.5 0.0 -0.5
v 0.0 0.0 0.0
v 0.5 0.0 -0.5
v 0.0 0.0 -1.0
v 0.0 0.20000000298023224 -1.0
v 0.5 0.20000000298023224 -0.5
v 0.0 0.0 -1.0
v 0.0 0.0 0.0
v 0.0 0.20000000298023224 0.0
v 0.0 0.20000000298023224 -1.0
v 0.0 0.0 0.0
v 0.5 0.0 -0.5
v 0.5 0.20000000298023224 -0.5
v 0.0 0.20000000298023224 0.0
v 0.050937358289957047 0.0 -0.850262463092804
v 0.4011998176574707 0.0 -0.5
v 0.4011998176574707 0.20000000298023224 -0.5
v 0.050937358289957047 0.20000000298023224 -0.850262463092804
v 0.4011998176574707 0.0 -0.5
v 0.050937358289957047 0.0 -0.13990144431591034
v 0.050937358289957047 0.20000000298023224 -0.13990144431591034
v 0.4011998176574707 0.20000000298023224 -0.5
v 0.050937358289957047 0.0 -0.13990144431591034
v 0.050937358289957047 0.0 -0.850262463092804
v 0.050937358289957047 0.20000000298023224 -0.850262463092804
v 0.050937358289957047 0.20000000298023224 -0.13990144431591034
v 0.39242079854011536 0.0 0.5088099241256714
v 0.059524282813072205 0.0 0.17591339349746704
v 0.059524282813072205 0.0 0.8417064547538757
v 0.0 0.0 0.0
v 0.5 0.0 0.5
v 0.0 0.0 1.0
v 0.059524282813072205 0.0 0.8417064547538757
v 0.059524282813072205 0.0 0.17591339349746704
v 0.059524282813072205 0.20000000298023224 0.17591339349746704
v 0.059524282813072205 0.20000000298023224 0.8417064547538757
v 0.059524282813072205 0.20000000298023224 0.17591339349746704
v 0.39242079854011536 0.20000000298023224 0.5088099241256714
v 0.059524282813072205 0.20000000298023224 0.8417064547538757
v 0.5 0.20000000298023224 0.5
v 0.0 0.20000000298023224 0.0
v 0.0 0.20000000298023224 1.0
v 0.5 0.0 0.5
v 0.0 0.0 0.0
v 0.0 0.20000000298023224 0.0
v 0.5 0.20000000298023224 0.5
v -0.5 0.0 -0.5
v -0.5423423647880554 0.0 -0.45765766501426697
v -0.5423423647880554 0.20000000298023224 -0.45765766501426697
v -0.5 0.20000000298023224 -0.5
v 0.0 0.20000000298023224 0.0
v -0.5 0.20000000298023224 -0.5
v -0.5423423647880554 0.20000000298023224 -0.45765766501426697
v -0.09220407158136368 0.20000000298023224 -0.007519388105720282
v -0.5211711525917053 0.20000000298023224 0.4214477241039276
v -0.5 0.20000000298023224 0.5
v 0.39242079854011536 0.0 0.5088099241256714
v 0.059524282813072205 0.0 0.8417064547538757
v 0.059524282813072205 0.20000000298023224 0.8417064547538757
v 0.39242079854011536 0.20000000298023224 0.5088099241256714
v 0.0 0.0 1.0
v 0.5 0.0 0.5
v 0.5 0.20000000298023224 0.5
v 0.0 0.20000000298023224 1.0
v -0.5 0.0 0.5
v 0.0 0.0 0.0
v 0.0 0.20000000298023224 0.0
v -0.5 0.20000000298023224 0.5
v -0.5423423647880554 0.0 -0.45765766501426697
v -0.09220407158136368 0.0 -0.007519388105720282
v -0.09220407158136368 0.20000000298023224 -0.007519388105720282
v -0.5423423647880554 0.20000000298023224 -0.45765766501426697
v -0.5211711525917053 0.0 0.4214477241039276
v -0.5 0.0 0.5
v -0.5 0.20000000298023224 0.5
v -0.5211711525917053 0.20000000298023224 0.4214477241039276
v -0.09220407158136368 0.0 -0.007519388105720282
v -0.5211711525917053 0.0 0.4214477241039276
v -0.5211711525917053 0.20000000298023224 0.4214477241039276
v -0.09220407158136368 0.20000000298023224 -0.007519388105720282
v 0.059524282813072205 0.0 0.17591339349746704
v 0.39242079854011536 0.0 0.5088099241256714
v 0.39242079854011536 0.20000000298023224 0.5088099241256714
v 0.059524282813072205 0.20000000298023224 0.17591339349746704
v 0.0 0.0 0.0
v 0.0 0.0 1.0
v 0.0 0.20000000298023224 1.0
v 0.0 0.20000000298023224 0.0
v 0.0 0.0 0.0
v -0.5 0.0 -0.5
v -0.5 0.20000000298023224 -0.5
v 0.0 0.20000000298023224 0.0
v -0.5 0.0 -0.5
v 0.0 0.0 0.0
v -0.5 0.0 0.5
v -0.5211711525917053 0.0 0.4214477241039276
v -0.09220407158136368 0.0 -0.007519388105720282
v -0.5423423647880554 0.0 -0.45765766501426697
vn 0.0 1.0 0.0
vn 0.0 1.0 0.0
vn 0.0 1.0 0.0
vn 0.0 1.0 0.0
vn 0.0 1.0 0.0
vn 0.0 1.0 0.0
vn -0.0 -1.0 -0.0
vn -0.0 -1.0 -0.0
vn -0.0 -1.0 -0.0
vn -0.0 -1.0 -0.0
vn -0.0 -1.0 -0.0
vn -0.0 -1.0 -0.0
vn 0.7071067690849304 0.0 -0.7071067690849304
vn 0.7071067690849304 0.0 -0.7071067690849304
vn 0.7071067690849304 0.0 -0.7071067690849304
vn 0.7071067690849304 0.0 -0.7071067690849304
vn -1.0 0.0 0.0
vn -1.0 0.0 0.0
vn -1.0 0.0 0.0
vn -1.0 0.0 0.0
vn 0.7071067690849304 -0.0 0.7071067690849304
vn 0.7071067690849304 -0.0 0.7071067690849304
vn 0.7071067690849304 -0.0 0.7071067690849304
vn 0.7071067690849304 -0.0 0.7071067690849304
vn -0.7071067690849304 0.0 0.7071067690849304
vn -0.7071067690849304 0.0 0.7071067690849304
vn -0.7071067690849304 0.0 0.7071067690849304
vn -0.7071067690849304 0.0 0.7071067690849304
vn -0.7168291211128235 0.0 -0.6972488760948181
vn -0.7168291211128235 0.0 -0.6972488760948181
vn -0.7168291211128235 0.0 -0.6972488760948181
vn -0.7168291211128235 0.0 -0.6972488760948181
vn 1.0 -0.0 0.0
vn 1.0 -0.0 0.0
vn 1.0 -0.0 0.0
vn 1.0 -0.0 0.0
vn -0.0 -1.0 -0.0
vn -0.0 -1.0 -0.0
vn -0.0 -1.0 -0.0
vn -0.0 -1.0 -0.0
vn -0.0 -1.0 -0.0
vn -0.0 -1.0 -0.0
vn 1.0 -0.0 0.0
vn 1.0 -0.0 0.0
vn 1.0 -0.0 0.0
vn 1.0 -0.0 0.0
vn 0.0 1.0 0.0
vn 0.0 1.0 0.0
vn 0.0 1.0 0.0
vn 0.0 1.0 0.0
vn 0.0 1.0 0.0
vn 0.0 1.0 0.0
vn 0.7071067690849304 0.0 -0.7071067690849304
vn 0.7071067690849304 0.0 -0.7071067690849304
vn 0.7071067690849304 0.0 -0.7071067690849304
vn 0.7071067690849304 0.0 -0.7071067690849304
vn -0.7071067690849304 0.0 -0.7071067690849304
vn -0.7071067690849304 0.0 -0.7071067690849304
vn -0.7071067690849304 0.0 -0.7071067690849304
vn -0.7071067690849304 0.0 -0.7071067690849304
vn 0.0 1.0 0.0
vn 0.0 1.0 0.0
vn 0.0 1.0 0.0
vn 0.0 1.0 0.0
vn 0.0 1.0 0.0
vn 0.0 1.0 0.0
vn -0.7071067690849304 0.0 -0.7071067690849304
vn -0.7071067690849304 0.0 -0.7071067690849304
vn -0.7071067690849304 0.0 -0.7071067690849304
vn -0.7071067690849304 0.0 -0.7071067690849304
vn 0.7071067690849304 -0.0 0.7071067690849304
vn 0.7071067690849304 -0.0 0.7071067690849304
vn 0.7071067690849304 -0.0 0.7071067690849304
vn 0.7071067690849304 -0.0 0.7071067690849304
vn 0.7071067690849304 -0.0 0.7071067690849304
vn 0.7071067690849304 -0.0 0.7071067690849304
vn 0.7071067690849304 -0.0 0.7071067690849304
vn 0.7071067690849304 -0.0 0.7071067690849304
vn -0.7071067690849304 0.0 0.7071067690849304
vn -0.7071067690849304 0.0 0.7071067690849304
vn -0.7071067690849304 0.0 0.7071067690849304
vn -0.7071067690849304 0.0 0.7071067690849304
vn -0.9655463695526123 0.0 0.260231077671051
vn -0.9655463695526123 0.0 0.260231077671051
vn -0.9655463695526123 0.0 0.260231077671051
vn -0.9655463695526123 0.0 0.260231077671051
vn -0.7071067690849304 0.0 -0.7071067690849304
vn -0.7071067690849304 0.0 -0.7071067690849304
vn -0.7071067690849304 0.0 -0.7071067690849304
vn -0.7071067690849304 0.0 -0.7071067690849304
vn -0.7071067690849304 0.0 0.7071067690849304
vn -0.7071067690849304 0.0 0.7071067690849304
vn -0.7071067690849304 0.0 0.7071067690849304
vn -0.7071067690849304 0.0 0.7071067690849304
vn -1.0 0.0 0.0
vn -1.0 0.0 0.0
vn -1.0 0.0 0.0
vn -1.0 0.0 0.0
vn 0.7071067690849304 0.0 -0.7071067690849304
vn 0.7071067690849304 0.0 -0.7071067690849304
vn 0.7071067690849304 0.0 -0.7071067690849304
vn 0.7071067690849304 0.0 -0.7071067690849304
vn -0.0 -1.0 -0.0
vn -0.0 -1.0 -0.0
vn -0.0 -1.0 -0.0
vn -0.0 -1.0 -0.0
vn -0.0 -1.0 -0.0
vn -0.0 -1.0 -0.0
f 2//2 4//4 1//1
f 1//1 4//4 5//5
f 1//1 5//5 6//6
f 4//4 2//2 3//3
f 4//4 3//3 6//6
f 6//6 3//3 1//1
f 9//9 7//7 11//11
f 11//11 7//7 8//8
f 11//11 8//8 10//10
f 10//10 8//8 12//12
f 12//12 8//8 9//9
f 12//12 9//9 11//11
f 13//13 14//14 16//16
f 16//16 14//14 15//15
f 17//17 18//18 20//20
f 20//20 18//18 19//19
f 21//21 22//22 24//24
f 24//24 22//22 23//23
f 25//25 26//26 28//28
f 28//28 26//26 27//27
f 29//29 30//30 32//32
f 32//32 30//30 31//31
f 33//33 34//34 36//36
f 36//36 34//34 35//35
f 39//39 37//37 41//41
f 41//41 37//37 38//38
f 41//41 38//38 40//40
f 40//40 38//38 42//42
f 42//42 38//38 39//39
f 42//42 39//39 41//41
f 43//43 44//44 46//46
f 46//46 44//44 45//45
f 48//48 50//50 47//47
f 47//47 50//50 51//51
f 47//47 51//51 52//52
f 50//50 48//48 49//49
f 50//50 49//49 52//52
f 52//52 49//49 47//47
f 53//53 54//54 56//56
f 56//56 54//54 55//55
f 57//57 58//58 60//60
f 60//60 58//58 59//59
f 66//66 61//61 64//64
f 64//64 61//61 62//62
f 64//64 62//62 63//63
f 64//64 65//65 66//66
f 67//67 68//68 70//70
f 70//70 68//68 69//69
f 71//71 72//72 74//74
f 74//74 72//72 73//73
f 75//75 76//76 78//78
f 78//78 76//76 77//77
f 79//79 80//80 82//82
f 82//82 80//80 81//81
f 83//83 84//84 86//86
f 86//86 84//84 85//85
f 87//87 88//88 90//90
f 90//90 88//88 89//89
f 91//91 92//92 94//94
f 94//94 92//92 93//93
f 95//95 96//96 98//98
f 98//98 96//96 97//97
f 99//99 100//100 102//102
f 102//102 100//100 101//101
f 108//108 103//103 107//107
f 107//107 103//103 104//104
f 107//107 104//104 105//105
f 105//105 106//106 107//107

# End of file