# WaveFront *.obj file
# Vertices: 80
# Triangles : 40

v -3.618964149011759e-16 0.07347965985536575 2.0530407428741455
v -0.07029137015342712 0.0 2.078251838684082
v -3.3306690738754696e-16 0.0 2.5
v -0.07029137015342712 0.0 2.078251838684082
v -2.8360674777323704e-16 -0.07347965985536575 2.0530407428741455
v -3.3306690738754696e-16 0.0 2.5
v -2.8360674777323704e-16 -0.07347965985536575 2.0530407428741455
v 0.07029137015342712 0.0 2.078251838684082
v -3.3306690738754696e-16 0.0 2.5
v 0.07029137015342712 0.0 2.078251838684082
v -3.618964149011759e-16 0.07347965985536575 2.0530407428741455
v -3.3306690738754696e-16 0.0 2.5
v -3.618964149011759e-16 0.07347965985536575 2.0530407428741455
v 0.07029137015342712 0.0 2.078251838684082
v 0.7219458818435669 0.0 0.9495531320571899
v 0.548740804195404 0.15000000596046448 0.9495531320571899
v -3.052074908265406e-16 0.15000000596046448 1.899999976158142
v 0.07029137015342712 0.0 2.078251838684082
v -2.8360674777323704e-16 -0.07347965985536575 2.0530407428741455
v -3.3340177656928803e-16 -0.15000000596046448 1.899999976158142
v 0.548740804195404 -0.15000000596046448 0.9495531320571899
v 0.7219458818435669 0.0 0.9495531320571899
v -0.548740804195404 -0.15000000596046448 0.9495531320571899
v 4.5605104221841235e-17 -0.15000000596046448 -0.0008937999955378473
v -5.551115123125783e-17 0.0 0.2991062104701996
v -0.3755356967449188 0.0 0.9495531320571899
v -3.3340177656928803e-16 -0.15000000596046448 1.899999976158142
v -0.548740804195404 -0.15000000596046448 0.9495531320571899
v -0.3755356967449188 0.0 0.9495531320571899
v -2.220446049250313e-16 0.0 1.600000023841858
v 0.548740804195404 -0.15000000596046448 0.9495531320571899
v -3.3340177656928803e-16 -0.15000000596046448 1.899999976158142
v -2.220446049250313e-16 0.0 1.600000023841858
v 0.3755356967449188 0.0 0.9495531320571899
v 4.5605104221841235e-17 -0.15000000596046448 -0.0008937999955378473
v 0.548740804195404 -0.15000000596046448 0.9495531320571899
v 0.3755356967449188 0.0 0.9495531320571899
v -5.551115123125783e-17 0.0 0.2991062104701996
v 4.5605104221841235e-17 -0.15000000596046448 -0.0008937999955378473
v -0.548740804195404 -0.15000000596046448 0.9495531320571899
v -0.7219458818435669 0.0 0.9495531320571899
v 1.1102230246251565e-16 0.0 -0.3008938133716583
v -2.8360674777323704e-16 -0.07347965985536575 2.0530407428741455
v -0.07029137015342712 0.0 2.078251838684082
v -0.7219458818435669 0.0 0.9495531320571899
v -0.548740804195404 -0.15000000596046448 0.9495531320571899
v -3.3340177656928803e-16 -0.15000000596046448 1.899999976158142
v 0.548740804195404 -0.15000000596046448 0.9495531320571899
v 4.5605104221841235e-17 -0.15000000596046448 -0.0008937999955378473
v 1.1102230246251565e-16 0.0 -0.3008938133716583
v 0.7219458818435669 0.0 0.9495531320571899
v -3.052074908265406e-16 0.15000000596046448 1.899999976158142
v 0.548740804195404 0.15000000596046448 0.9495531320571899
v 0.3755356967449188 0.0 0.9495531320571899
v -2.220446049250313e-16 0.0 1.600000023841858
v -0.548740804195404 0.15000000596046448 0.9495531320571899
v -3.052074908265406e-16 0.15000000596046448 1.899999976158142
v -2.220446049250313e-16 0.0 1.600000023841858
v -0.3755356967449188 0.0 0.9495531320571899
v 2.9302730924625646e-17 0.15000000596046448 -0.0008937999955378473
v -0.548740804195404 0.15000000596046448 0.9495531320571899
v -0.3755356967449188 0.0 0.9495531320571899
v -5.551115123125783e-17 0.0 0.2991062104701996
v 0.548740804195404 0.15000000596046448 0.9495531320571899
v 2.9302730924625646e-17 0.15000000596046448 -0.0008937999955378473
v -5.551115123125783e-17 0.0 0.2991062104701996
v 0.3755356967449188 0.0 0.9495531320571899
v -0.07029137015342712 0.0 2.078251838684082
v -3.618964149011759e-16 0.07347965985536575 2.0530407428741455
v -3.052074908265406e-16 0.15000000596046448 1.899999976158142
v -0.548740804195404 0.15000000596046448 0.9495531320571899
v -0.7219458818435669 0.0 0.9495531320571899
v -0.548740804195404 0.15000000596046448 0.9495531320571899
v 2.9302730924625646e-17 0.15000000596046448 -0.0008937999955378473
v 1.1102230246251565e-16 0.0 -0.3008938133716583
v -0.7219458818435669 0.0 0.9495531320571899
v 2.9302730924625646e-17 0.15000000596046448 -0.0008937999955378473
v 0.548740804195404 0.15000000596046448 0.9495531320571899
v 0.7219458818435669 0.0 0.9495531320571899
v 1.1102230246251565e-16 0.0 -0.3008938133716583
vn -0.6974858045578003 0.7071067690849304 0.11624763906002045
vn -0.6974858045578003 0.7071067690849304 0.11624763906002045
vn -0.6974858045578003 0.7071067690849304 0.11624763906002045
vn -0.6974858045578003 -0.7071067690849304 0.11624763906002045
vn -0.6974858045578003 -0.7071067690849304 0.11624763906002045
vn -0.6974858045578003 -0.7071067690849304 0.11624763906002045
vn 0.6974858045578003 -0.7071067690849304 0.11624763906002045
vn 0.6974858045578003 -0.7071067690849304 0.11624763906002045
vn 0.6974858045578003 -0.7071067690849304 0.11624763906002045
vn 0.6974858045578003 0.7071067690849304 0.11624763906002045
vn 0.6974858045578003 0.7071067690849304 0.11624763906002045
vn 0.6974858045578003 0.7071067690849304 0.11624763906002045
vn 0.6123724579811096 0.7071067690849304 0.3535533845424652
vn 0.6123724579811096 0.7071067690849304 0.3535533845424652
vn 0.6123724579811096 0.7071067690849304 0.3535533845424652
vn 0.6123724579811096 0.7071067690849304 0.3535533845424652
vn 0.6123724579811096 0.7071067690849304 0.3535533845424652
vn 0.6123724579811096 -0.7071067690849304 0.3535533845424652
vn 0.6123724579811096 -0.7071067690849304 0.3535533845424652
vn 0.6123724579811096 -0.7071067690849304 0.3535533845424652
vn 0.6123724579811096 -0.7071067690849304 0.3535533845424652
vn 0.6123724579811096 -0.7071067690849304 0.3535533845424652
vn 0.6123724579811096 -0.7071067690849304 0.3535533845424652
vn 0.6123724579811096 -0.7071067690849304 0.3535533845424652
vn 0.6123724579811096 -0.7071067690849304 0.3535533845424652
vn 0.6123724579811096 -0.7071067690849304 0.3535533845424652
vn 0.6123724579811096 -0.7071067690849304 -0.3535533845424652
vn 0.6123724579811096 -0.7071067690849304 -0.3535533845424652
vn 0.6123724579811096 -0.7071067690849304 -0.3535533845424652
vn 0.6123724579811096 -0.7071067690849304 -0.3535533845424652
vn -0.6123724579811096 -0.7071067690849304 -0.3535533845424652
vn -0.6123724579811096 -0.7071067690849304 -0.3535533845424652
vn -0.6123724579811096 -0.7071067690849304 -0.3535533845424652
vn -0.6123724579811096 -0.7071067690849304 -0.3535533845424652
vn -0.6123724579811096 -0.7071067690849304 0.3535533845424652
vn -0.6123724579811096 -0.7071067690849304 0.3535533845424652
vn -0.6123724579811096 -0.7071067690849304 0.3535533845424652
vn -0.6123724579811096 -0.7071067690849304 0.3535533845424652
vn -0.6123724579811096 -0.7071067690849304 -0.3535533845424652
vn -0.6123724579811096 -0.7071067690849304 -0.3535533845424652
vn -0.6123724579811096 -0.7071067690849304 -0.3535533845424652
vn -0.6123724579811096 -0.7071067690849304 -0.3535533845424652
vn -0.6123724579811096 -0.7071067690849304 0.3535533845424652
vn -0.6123724579811096 -0.7071067690849304 0.3535533845424652
vn -0.6123724579811096 -0.7071067690849304 0.3535533845424652
vn -0.6123724579811096 -0.7071067690849304 0.3535533845424652
vn -0.6123724579811096 -0.7071067690849304 0.3535533845424652
vn 0.6123724579811096 -0.7071067690849304 -0.3535533845424652
vn 0.6123724579811096 -0.7071067690849304 -0.3535533845424652
vn 0.6123724579811096 -0.7071067690849304 -0.3535533845424652
vn 0.6123724579811096 -0.7071067690849304 -0.3535533845424652
vn -0.6123724579811096 0.7071067690849304 -0.3535533845424652
vn -0.6123724579811096 0.7071067690849304 -0.3535533845424652
vn -0.6123724579811096 0.7071067690849304 -0.3535533845424652
vn -0.6123724579811096 0.7071067690849304 -0.3535533845424652
vn 0.6123724579811096 0.7071067690849304 -0.3535533845424652
vn 0.6123724579811096 0.7071067690849304 -0.3535533845424652
vn 0.6123724579811096 0.7071067690849304 -0.3535533845424652
vn 0.6123724579811096 0.7071067690849304 -0.3535533845424652
vn 0.6123724579811096 0.7071067690849304 0.3535533845424652
vn 0.6123724579811096 0.7071067690849304 0.3535533845424652
vn 0.6123724579811096 0.7071067690849304 0.3535533845424652
vn 0.6123724579811096 0.7071067690849304 0.3535533845424652
vn -0.6123724579811096 0.7071067690849304 0.3535533845424652
vn -0.6123724579811096 0.7071067690849304 0.3535533845424652
vn -0.6123724579811096 0.7071067690849304 0.3535533845424652
vn -0.6123724579811096 0.7071067690849304 0.3535533845424652
vn -0.6123724579811096 0.7071067690849304 0.3535533845424652
vn -0.6123724579811096 0.7071067690849304 0.3535533845424652
vn -0.6123724579811096 0.7071067690849304 0.3535533845424652
vn -0.6123724579811096 0.7071067690849304 0.3535533845424652
vn -0.6123724579811096 0.7071067690849304 0.3535533845424652
vn -0.6123724579811096 0.7071067690849304 -0.3535533845424652
vn -0.6123724579811096 0.7071067690849304 -0.3535533845424652
vn -0.6123724579811096 0.7071067690849304 -0.3535533845424652
vn -0.6123724579811096 0.7071067690849304 -0.3535533845424652
vn 0.6123724579811096 0.7071067690849304 -0.3535533845424652
vn 0.6123724579811096 0.7071067690849304 -0.3535533845424652
vn 0.6123724579811096 0.7071067690849304 -0.3535533845424652
vn 0.6123724579811096 0.7071067690849304 -0.3535533845424652
g f5767140-e2fb-11ea-8456-54bf646e7e1f
f 1//1 2//2 3//3
g f5773490-e2fb-11ea-ac33-54bf646e7e1f
f 4//4 5//5 6//6
g f5781efa-e2fb-11ea-ac4c-54bf646e7e1f
f 7//7 8//8 9//9
g f578e240-e2fb-11ea-96f5-54bf646e7e1f
f 10//10 11//11 12//12
g f540e2ee-e2fb-11ea-aa75-54bf646e7e1f
f 13//13 14//14 17//17
f 17//17 14//14 15//15
f 17//17 15//15 16//16
g f53ec030-e2fb-11ea-b66c-54bf646e7e1f
f 18//18 19//19 22//22
f 22//22 19//19 21//21
f 21//21 19//19 20//20
g f53d1278-e2fb-11ea-9107-54bf646e7e1f
f 24//24 25//25 23//23
f 23//23 25//25 26//26
g f53d6090-e2fb-11ea-9e89-54bf646e7e1f
f 27//27 28//28 30//30
f 30//30 28//28 29//29
g f53d8780-e2fb-11ea-81b8-54bf646e7e1f
f 32//32 33//33 31//31
f 31//31 33//33 34//34
g f53dd5d4-e2fb-11ea-9cbe-54bf646e7e1f
f 35//35 36//36 38//38
f 38//38 36//36 37//37
g f53e23f0-e2fb-11ea-b16b-54bf646e7e1f
f 40//40 41//41 39//39
f 39//39 41//41 42//42
g f53e71f0-e2fb-11ea-bc16-54bf646e7e1f
f 43//43 44//44 47//47
f 47//47 44//44 45//45
f 47//47 45//45 46//46
g f53f0e2e-e2fb-11ea-b3a8-54bf646e7e1f
f 48//48 49//49 51//51
f 51//51 49//49 50//50
g f53f5c6c-e2fb-11ea-baf5-54bf646e7e1f
f 52//52 53//53 55//55
f 55//55 53//53 54//54
g f53faa68-e2fb-11ea-80e2-54bf646e7e1f
f 57//57 58//58 56//56
f 56//56 58//58 59//59
g f5401f98-e2fb-11ea-b266-54bf646e7e1f
f 60//60 61//61 63//63
f 63//63 61//61 62//62
g f54094ee-e2fb-11ea-b8a8-54bf646e7e1f
f 65//65 66//66 64//64
f 64//64 66//66 67//67
g f541581e-e2fb-11ea-bc6f-54bf646e7e1f
f 68//68 69//69 72//72
f 72//72 69//69 71//71
f 71//71 69//69 70//70
g f542433e-e2fb-11ea-9199-54bf646e7e1f
f 73//73 74//74 76//76
f 76//76 74//74 75//75
g f54353de-e2fb-11ea-982e-54bf646e7e1f
f 78//78 79//79 77//77
f 77//77 79//79 80//80

# End of file