# WaveFront *.obj file
# Vertices: 170
# Triangles : 156

v 1.9049999713897705 13.970000267028809 -2.3329521416781815e-16
v 1.87605881690979 13.970000267028809 0.33079978823661804
v 1.790114402770996 13.970000267028809 0.6515483856201172
v 1.6497783660888672 13.970000267028809 0.9524999856948853
v 1.4593147039413452 13.970000267028809 1.2245104312896729
v 1.2245104312896729 13.970000267028809 1.4593147039413452
v 0.9524999856948853 13.970000267028809 1.6497783660888672
v 0.6515483856201172 13.970000267028809 1.790114402770996
v 0.33079978823661804 13.970000267028809 1.87605881690979
v -1.1664760708390907e-16 13.970000267028809 1.9049999713897705
v -0.33079978823661804 13.970000267028809 1.87605881690979
v -0.6515483856201172 13.970000267028809 1.790114402770996
v -0.9524999856948853 13.970000267028809 1.6497783660888672
v -1.2245104312896729 13.970000267028809 1.4593147039413452
v -1.4593147039413452 13.970000267028809 1.2245104312896729
v -1.6497783660888672 13.970000267028809 0.9524999856948853
v -1.790114402770996 13.970000267028809 0.6515483856201172
v -1.87605881690979 13.970000267028809 0.33079978823661804
v -1.9049999713897705 13.970000267028809 0.0
v -1.87605881690979 13.970000267028809 -0.33079978823661804
v -1.790114402770996 13.970000267028809 -0.6515483856201172
v -1.6497783660888672 13.970000267028809 -0.9524999856948853
v -1.4593147039413452 13.970000267028809 -1.2245104312896729
v -1.2245104312896729 13.970000267028809 -1.4593147039413452
v -0.9524999856948853 13.970000267028809 -1.6497783660888672
v -0.6515483856201172 13.970000267028809 -1.790114402770996
v -0.33079978823661804 13.970000267028809 -1.87605881690979
v -1.1664760708390907e-16 13.970000267028809 -1.9049999713897705
v 0.33079978823661804 13.970000267028809 -1.87605881690979
v 0.6515483856201172 13.970000267028809 -1.790114402770996
v 0.9524999856948853 13.970000267028809 -1.6497783660888672
v 1.2245104312896729 13.970000267028809 -1.4593147039413452
v 1.4593147039413452 13.970000267028809 -1.2245104312896729
v 1.6497783660888672 13.970000267028809 -0.9524999856948853
v 1.790114402770996 13.970000267028809 -0.6515483856201172
v 1.87605881690979 13.970000267028809 -0.33079978823661804
v 1.9049999713897705 1.2699999809265137 -2.3329521416781815e-16
v 1.87605881690979 1.2699999809265137 -0.33079978823661804
v 1.790114402770996 1.2699999809265137 -0.6515483856201172
v 1.6497783660888672 1.2699999809265137 -0.9524999856948853
v 1.4593147039413452 1.2699999809265137 -1.2245104312896729
v 1.2245104312896729 1.2699999809265137 -1.4593147039413452
v 0.9524999856948853 1.2699999809265137 -1.6497783660888672
v 0.6515483856201172 1.2699999809265137 -1.790114402770996
v 0.33079978823661804 1.2699999809265137 -1.87605881690979
v -1.1664760708390907e-16 1.2699999809265137 -1.9049999713897705
v -0.33079978823661804 1.2699999809265137 -1.87605881690979
v -0.6515483856201172 1.2699999809265137 -1.790114402770996
v -0.9524999856948853 1.2699999809265137 -1.6497783660888672
v -1.2245104312896729 1.2699999809265137 -1.4593147039413452
v -1.4593147039413452 1.2699999809265137 -1.2245104312896729
v -1.6497783660888672 1.2699999809265137 -0.9524999856948853
v -1.790114402770996 1.2699999809265137 -0.6515483856201172
v -1.87605881690979 1.2699999809265137 -0.33079978823661804
v -1.9049999713897705 1.2699999809265137 0.0
v -1.87605881690979 1.2699999809265137 0.33079978823661804
v -1.790114402770996 1.2699999809265137 0.6515483856201172
v -1.6497783660888672 1.2699999809265137 0.9524999856948853
v -1.4593147039413452 1.2699999809265137 1.2245104312896729
v -1.2245104312896729 1.2699999809265137 1.4593147039413452
v -0.9524999856948853 1.2699999809265137 1.6497783660888672
v -0.6515483856201172 1.2699999809265137 1.790114402770996
v -0.33079978823661804 1.2699999809265137 1.87605881690979
v -1.1664760708390907e-16 1.2699999809265137 1.9049999713897705
v 0.33079978823661804 1.2699999809265137 1.87605881690979
v 0.6515483856201172 1.2699999809265137 1.790114402770996
v 0.9524999856948853 1.2699999809265137 1.6497783660888672
v 1.2245104312896729 1.2699999809265137 1.4593147039413452
v 1.4593147039413452 1.2699999809265137 1.2245104312896729
v 1.6497783660888672 1.2699999809265137 0.9524999856948853
v 1.790114402770996 1.2699999809265137 0.6515483856201172
v 1.87605881690979 1.2699999809265137 0.33079978823661804
v 1.9049999713897705 1.2699999809265137 -2.3329521416781815e-16
v 1.9049999713897705 13.970000267028809 -2.3329521416781815e-16
v 1.9049999713897705 13.970000267028809 -2.3329521416781815e-16
v 1.87605881690979 13.970000267028809 -0.33079978823661804
v 1.790114402770996 13.970000267028809 -0.6515483856201172
v 1.6497783660888672 13.970000267028809 -0.9524999856948853
v 1.4593147039413452 13.970000267028809 -1.2245104312896729
v 1.2245104312896729 13.970000267028809 -1.4593147039413452
v 0.9524999856948853 13.970000267028809 -1.6497783660888672
v 0.6515483856201172 13.970000267028809 -1.790114402770996
v 0.33079978823661804 13.970000267028809 -1.87605881690979
v -1.1664760708390907e-16 13.970000267028809 -1.9049999713897705
v -0.33079978823661804 13.970000267028809 -1.87605881690979
v -0.6515483856201172 13.970000267028809 -1.790114402770996
v -0.9524999856948853 13.970000267028809 -1.6497783660888672
v -1.2245104312896729 13.970000267028809 -1.4593147039413452
v -1.4593147039413452 13.970000267028809 -1.2245104312896729
v -1.6497783660888672 13.970000267028809 -0.9524999856948853
v -1.790114402770996 13.970000267028809 -0.6515483856201172
v -1.87605881690979 13.970000267028809 -0.33079978823661804
v -1.9049999713897705 13.970000267028809 0.0
v -1.87605881690979 13.970000267028809 0.33079978823661804
v -1.790114402770996 13.970000267028809 0.6515483856201172
v -1.6497783660888672 13.970000267028809 0.9524999856948853
v -1.4593147039413452 13.970000267028809 1.2245104312896729
v -1.2245104312896729 13.970000267028809 1.4593147039413452
v -0.9524999856948853 13.970000267028809 1.6497783660888672
v -0.6515483856201172 13.970000267028809 1.790114402770996
v -0.33079978823661804 13.970000267028809 1.87605881690979
v -1.1664760708390907e-16 13.970000267028809 1.9049999713897705
v 0.33079978823661804 13.970000267028809 1.87605881690979
v 0.6515483856201172 13.970000267028809 1.790114402770996
v 0.9524999856948853 13.970000267028809 1.6497783660888672
v 1.2245104312896729 13.970000267028809 1.4593147039413452
v 1.4593147039413452 13.970000267028809 1.2245104312896729
v 1.6497783660888672 13.970000267028809 0.9524999856948853
v 1.790114402770996 13.970000267028809 0.6515483856201172
v 1.87605881690979 13.970000267028809 0.33079978823661804
v -2.5399999618530273 0.0 -2.5399999618530273
v -2.5399999618530273 0.0 2.5399999618530273
v -2.5399999618530273 1.2699999809265137 2.5399999618530273
v -2.5399999618530273 1.2699999809265137 -2.5399999618530273
v 2.5399999618530273 0.0 -2.5399999618530273
v -2.5399999618530273 0.0 -2.5399999618530273
v -2.5399999618530273 1.2699999809265137 -2.5399999618530273
v 2.5399999618530273 1.2699999809265137 -2.5399999618530273
v 2.5399999618530273 0.0 2.5399999618530273
v 2.5399999618530273 0.0 -2.5399999618530273
v 2.5399999618530273 1.2699999809265137 -2.5399999618530273
v 2.5399999618530273 1.2699999809265137 2.5399999618530273
v -2.5399999618530273 0.0 2.5399999618530273
v 2.5399999618530273 0.0 2.5399999618530273
v 2.5399999618530273 1.2699999809265137 2.5399999618530273
v -2.5399999618530273 1.2699999809265137 2.5399999618530273
v 1.9049999713897705 1.2699999809265137 -2.3329521416781815e-16
v 1.87605881690979 1.2699999809265137 0.33079978823661804
v 1.790114402770996 1.2699999809265137 0.6515483856201172
v 1.6497783660888672 1.2699999809265137 0.9524999856948853
v 1.4593147039413452 1.2699999809265137 1.2245104312896729
v 1.2245104312896729 1.2699999809265137 1.4593147039413452
v 0.9524999856948853 1.2699999809265137 1.6497783660888672
v 0.6515483856201172 1.2699999809265137 1.790114402770996
v 0.33079978823661804 1.2699999809265137 1.87605881690979
v -1.1664760708390907e-16 1.2699999809265137 1.9049999713897705
v -0.33079978823661804 1.2699999809265137 1.87605881690979
v -0.6515483856201172 1.2699999809265137 1.790114402770996
v -0.9524999856948853 1.2699999809265137 1.6497783660888672
v -1.2245104312896729 1.2699999809265137 1.4593147039413452
v -1.4593147039413452 1.2699999809265137 1.2245104312896729
v -1.6497783660888672 1.2699999809265137 0.9524999856948853
v -1.790114402770996 1.2699999809265137 0.6515483856201172
v -1.87605881690979 1.2699999809265137 0.33079978823661804
v -1.9049999713897705 1.2699999809265137 0.0
v -1.87605881690979 1.2699999809265137 -0.33079978823661804
v -1.790114402770996 1.2699999809265137 -0.6515483856201172
v -1.6497783660888672 1.2699999809265137 -0.9524999856948853
v -1.4593147039413452 1.2699999809265137 -1.2245104312896729
v -1.2245104312896729 1.2699999809265137 -1.4593147039413452
v -0.9524999856948853 1.2699999809265137 -1.6497783660888672
v -0.6515483856201172 1.2699999809265137 -1.790114402770996
v -0.33079978823661804 1.2699999809265137 -1.87605881690979
v -1.1664760708390907e-16 1.2699999809265137 -1.9049999713897705
v 0.33079978823661804 1.2699999809265137 -1.87605881690979
v 0.6515483856201172 1.2699999809265137 -1.790114402770996
v 0.9524999856948853 1.2699999809265137 -1.6497783660888672
v 1.2245104312896729 1.2699999809265137 -1.4593147039413452
v 1.4593147039413452 1.2699999809265137 -1.2245104312896729
v 1.6497783660888672 1.2699999809265137 -0.9524999856948853
v 1.790114402770996 1.2699999809265137 -0.6515483856201172
v 1.87605881690979 1.2699999809265137 -0.33079978823661804
v -2.5399999618530273 1.2699999809265137 2.5399999618530273
v 2.5399999618530273 1.2699999809265137 2.5399999618530273
v 2.5399999618530273 1.2699999809265137 -2.5399999618530273
v -2.5399999618530273 1.2699999809265137 -2.5399999618530273
v 2.5399999618530273 0.0 2.5399999618530273
v -2.5399999618530273 0.0 2.5399999618530273
v -2.5399999618530273 0.0 -2.5399999618530273
v 2.5399999618530273 0.0 -2.5399999618530273
vn 1.0 -0.0 1.2246468525851679e-16
vn 0.9848077297210693 -0.0 0.1736481785774231
vn 0.9396926164627075 -0.0 0.3420201539993286
vn 0.8660253882408142 -0.0 0.5
vn 0.7660444378852844 -0.0 0.6427876353263855
vn 0.6427876353263855 -0.0 0.7660444378852844
vn 0.5 -0.0 0.8660253882408142
vn 0.3420201539993286 -0.0 0.9396926164627075
vn 0.1736481785774231 -0.0 0.9848077297210693
vn -6.123234262925839e-17 -0.0 1.0
vn -0.1736481785774231 -0.0 0.9848077297210693
vn -0.3420201539993286 -0.0 0.9396926164627075
vn -0.5 -0.0 0.8660253882408142
vn -0.6427876353263855 -0.0 0.7660444378852844
vn -0.7660444378852844 -0.0 0.6427876353263855
vn -0.8660253882408142 -0.0 0.5
vn -0.9396926164627075 -0.0 0.3420201539993286
vn -0.9848077297210693 -0.0 0.1736481785774231
vn -1.0 -0.0 0.0
vn -0.9848077297210693 0.0 -0.1736481785774231
vn -0.9396926164627075 0.0 -0.3420201539993286
vn -0.8660253882408142 0.0 -0.5
vn -0.7660444378852844 0.0 -0.6427876353263855
vn -0.6427876353263855 0.0 -0.7660444378852844
vn -0.5 0.0 -0.8660253882408142
vn -0.3420201539993286 0.0 -0.9396926164627075
vn -0.1736481785774231 0.0 -0.9848077297210693
vn -6.123234262925839e-17 0.0 -1.0
vn 0.1736481785774231 -0.0 -0.9848077297210693
vn 0.3420201539993286 -0.0 -0.9396926164627075
vn 0.5 -0.0 -0.8660253882408142
vn 0.6427876353263855 -0.0 -0.7660444378852844
vn 0.7660444378852844 -0.0 -0.6427876353263855
vn 0.8660253882408142 -0.0 -0.5
vn 0.9396926164627075 -0.0 -0.3420201539993286
vn 0.9848077297210693 -0.0 -0.1736481785774231
vn 1.0 -0.0 -1.2246468525851679e-16
vn 0.9848077297210693 -0.0 -0.1736481785774231
vn 0.9396926164627075 -0.0 -0.3420201539993286
vn 0.8660253882408142 -0.0 -0.5
vn 0.7660444378852844 -0.0 -0.6427876353263855
vn 0.6427876353263855 -0.0 -0.7660444378852844
vn 0.5 -0.0 -0.8660253882408142
vn 0.3420201539993286 -0.0 -0.9396926164627075
vn 0.1736481785774231 -0.0 -0.9848077297210693
vn -6.123234262925839e-17 0.0 -1.0
vn -0.1736481785774231 0.0 -0.9848077297210693
vn -0.3420201539993286 0.0 -0.9396926164627075
vn -0.5 0.0 -0.8660253882408142
vn -0.6427876353263855 0.0 -0.7660444378852844
vn -0.7660444378852844 0.0 -0.6427876353263855
vn -0.8660253882408142 0.0 -0.5
vn -0.9396926164627075 0.0 -0.3420201539993286
vn -0.9848077297210693 0.0 -0.1736481785774231
vn -1.0 -0.0 0.0
vn -0.9848077297210693 -0.0 0.1736481785774231
vn -0.9396926164627075 -0.0 0.3420201539993286
vn -0.8660253882408142 -0.0 0.5
vn -0.7660444378852844 -0.0 0.6427876353263855
vn -0.6427876353263855 -0.0 0.7660444378852844
vn -0.5 -0.0 0.8660253882408142
vn -0.3420201539993286 -0.0 0.9396926164627075
vn -0.1736481785774231 -0.0 0.9848077297210693
vn -6.123234262925839e-17 -0.0 1.0
vn 0.1736481785774231 -0.0 0.9848077297210693
vn 0.3420201539993286 -0.0 0.9396926164627075
vn 0.5 -0.0 0.8660253882408142
vn 0.6427876353263855 -0.0 0.7660444378852844
vn 0.7660444378852844 -0.0 0.6427876353263855
vn 0.8660253882408142 -0.0 0.5
vn 0.9396926164627075 -0.0 0.3420201539993286
vn 0.9848077297210693 -0.0 0.1736481785774231
vn 1.0 -0.0 1.2246468525851679e-16
vn 1.0 -0.0 -1.2246468525851679e-16
vn 0.0 1.0 0.0
vn 0.0 1.0 0.0
vn 0.0 1.0 0.0
vn 0.0 1.0 0.0
vn 0.0 1.0 0.0
vn 0.0 1.0 0.0
vn 0.0 1.0 0.0
vn 0.0 1.0 0.0
vn 0.0 1.0 0.0
vn 0.0 1.0 0.0
vn 0.0 1.0 0.0
vn 0.0 1.0 0.0
vn 0.0 1.0 0.0
vn 0.0 1.0 0.0
vn 0.0 1.0 0.0
vn 0.0 1.0 0.0
vn 0.0 1.0 0.0
vn 0.0 1.0 0.0
vn 0.0 1.0 0.0
vn 0.0 1.0 0.0
vn 0.0 1.0 0.0
vn 0.0 1.0 0.0
vn 0.0 1.0 0.0
vn 0.0 1.0 0.0
vn 0.0 1.0 0.0
vn 0.0 1.0 0.0
vn 0.0 1.0 0.0
vn 0.0 1.0 0.0
vn 0.0 1.0 0.0
vn 0.0 1.0 0.0
vn 0.0 1.0 0.0
vn 0.0 1.0 0.0
vn 0.0 1.0 0.0
vn 0.0 1.0 0.0
vn 0.0 1.0 0.0
vn 0.0 1.0 0.0
vn -1.0 0.0 0.0
vn -1.0 0.0 0.0
vn -1.0 0.0 0.0
vn -1.0 0.0 0.0
vn 0.0 0.0 -1.0
vn 0.0 0.0 -1.0
vn 0.0 0.0 -1.0
vn 0.0 0.0 -1.0
vn 1.0 0.0 0.0
vn 1.0 0.0 0.0
vn 1.0 0.0 0.0
vn 1.0 0.0 0.0
vn 0.0 -0.0 1.0
vn 0.0 -0.0 1.0
vn 0.0 -0.0 1.0
vn 0.0 -0.0 1.0
vn 0.0 1.0 0.0
vn 0.0 1.0 0.0
vn 0.0 1.0 0.0
vn 0.0 1.0 0.0
vn 0.0 1.0 0.0
vn 0.0 1.0 0.0
vn 0.0 1.0 0.0
vn 0.0 1.0 0.0
vn 0.0 1.0 0.0
vn 0.0 1.0 0.0
vn 0.0 1.0 0.0
vn 0.0 1.0 0.0
vn 0.0 1.0 0.0
vn 0.0 1.0 0.0
vn 0.0 1.0 0.0
vn 0.0 1.0 0.0
vn 0.0 1.0 0.0
vn 0.0 1.0 0.0
vn 0.0 1.0 0.0
vn 0.0 1.0 0.0
vn 0.0 1.0 0.0
vn 0.0 1.0 0.0
vn 0.0 1.0 0.0
vn 0.0 1.0 0.0
vn 0.0 1.0 0.0
vn 0.0 1.0 0.0
vn 0.0 1.0 0.0
vn 0.0 1.0 0.0
vn 0.0 1.0 0.0
vn 0.0 1.0 0.0
vn 0.0 1.0 0.0
vn 0.0 1.0 0.0
vn 0.0 1.0 0.0
vn 0.0 1.0 0.0
vn 0.0 1.0 0.0
vn 0.0 1.0 0.0
vn 0.0 1.0 0.0
vn 0.0 1.0 0.0
vn 0.0 1.0 0.0
vn 0.0 1.0 0.0
vn -0.0 -1.0 -0.0
vn -0.0 -1.0 -0.0
vn -0.0 -1.0 -0.0
vn -0.0 -1.0 -0.0
g f49863c0-e2fc-11ea-b0b6-54bf646e7e1f
f 2//2 72//72 1//1
f 1//1 72//72 73//73
f 74//74 37//37 36//36
f 36//36 37//37 38//38
f 36//36 38//38 39//39
f 2//2 3//3 72//72
f 72//72 3//3 71//71
f 71//71 3//3 4//4
f 71//71 4//4 70//70
f 70//70 4//4 5//5
f 70//70 5//5 69//69
f 69//69 5//5 6//6
f 69//69 6//6 68//68
f 68//68 6//6 7//7
f 68//68 7//7 67//67
f 67//67 7//7 8//8
f 67//67 8//8 66//66
f 66//66 8//8 9//9
f 66//66 9//9 65//65
f 65//65 9//9 10//10
f 65//65 10//10 64//64
f 64//64 10//10 11//11
f 64//64 11//11 63//63
f 63//63 11//11 12//12
f 63//63 12//12 62//62
f 62//62 12//12 13//13
f 62//62 13//13 61//61
f 61//61 13//13 14//14
f 61//61 14//14 60//60
f 60//60 14//14 15//15
f 60//60 15//15 59//59
f 59//59 15//15 16//16
f 59//59 16//16 58//58
f 58//58 16//16 17//17
f 58//58 17//17 57//57
f 57//57 17//17 18//18
f 57//57 18//18 56//56
f 56//56 18//18 19//19
f 56//56 19//19 55//55
f 55//55 19//19 20//20
f 55//55 20//20 54//54
f 54//54 20//20 21//21
f 54//54 21//21 53//53
f 53//53 21//21 22//22
f 53//53 22//22 52//52
f 52//52 22//22 23//23
f 52//52 23//23 51//51
f 51//51 23//23 24//24
f 51//51 24//24 50//50
f 50//50 24//24 25//25
f 50//50 25//25 49//49
f 49//49 25//25 26//26
f 49//49 26//26 48//48
f 48//48 26//26 27//27
f 48//48 27//27 47//47
f 47//47 27//27 28//28
f 47//47 28//28 46//46
f 46//46 28//28 29//29
f 46//46 29//29 45//45
f 45//45 29//29 30//30
f 45//45 30//30 44//44
f 44//44 30//30 31//31
f 44//44 31//31 43//43
f 43//43 31//31 32//32
f 43//43 32//32 42//42
f 42//42 32//32 33//33
f 42//42 33//33 41//41
f 41//41 33//33 34//34
f 41//41 34//34 40//40
f 40//40 34//34 35//35
f 40//40 35//35 39//39
f 39//39 35//35 36//36
g f498b1e4-e2fc-11ea-a412-54bf646e7e1f
f 76//76 92//92 75//75
f 75//75 92//92 93//93
f 75//75 93//93 110//110
f 110//110 93//93 94//94
f 110//110 94//94 109//109
f 109//109 94//94 95//95
f 109//109 95//95 108//108
f 108//108 95//95 96//96
f 108//108 96//96 107//107
f 107//107 96//96 97//97
f 107//107 97//97 106//106
f 106//106 97//97 98//98
f 106//106 98//98 105//105
f 105//105 98//98 99//99
f 105//105 99//99 104//104
f 104//104 99//99 100//100
f 104//104 100//100 103//103
f 103//103 100//100 101//101
f 103//103 101//101 102//102
f 92//92 76//76 91//91
f 91//91 76//76 77//77
f 91//91 77//77 90//90
f 90//90 77//77 78//78
f 90//90 78//78 89//89
f 89//89 78//78 79//79
f 89//89 79//79 88//88
f 88//88 79//79 80//80
f 88//88 80//80 87//87
f 87//87 80//80 81//81
f 87//87 81//81 86//86
f 86//86 81//81 82//82
f 86//86 82//82 85//85
f 85//85 82//82 83//83
f 85//85 83//83 84//84
g f4734fbe-e2fc-11ea-a1b7-54bf646e7e1f
f 111//111 112//112 114//114
f 114//114 112//112 113//113
g f47376c0-e2fc-11ea-b866-54bf646e7e1f
f 115//115 116//116 118//118
f 118//118 116//116 117//117
g f4739dd0-e2fc-11ea-86a6-54bf646e7e1f
f 119//119 120//120 122//122
f 122//122 120//120 121//121
g f473ebf6-e2fc-11ea-8fc3-54bf646e7e1f
f 123//123 124//124 126//126
f 126//126 124//124 125//125
g f4741302-e2fc-11ea-98ba-54bf646e7e1f
f 128//128 164//164 127//127
f 127//127 164//164 165//165
f 127//127 165//165 162//162
f 162//162 165//165 161//161
f 161//161 165//165 160//160
f 160//160 165//165 159//159
f 159//159 165//165 158//158
f 158//158 165//165 157//157
f 157//157 165//165 156//156
f 156//156 165//165 155//155
f 155//155 165//165 154//154
f 154//154 165//165 166//166
f 154//154 166//166 153//153
f 153//153 166//166 152//152
f 152//152 166//166 151//151
f 151//151 166//166 150//150
f 150//150 166//166 149//149
f 149//149 166//166 148//148
f 148//148 166//166 147//147
f 147//147 166//166 146//146
f 146//146 166//166 145//145
f 145//145 166//166 163//163
f 145//145 163//163 144//144
f 144//144 163//163 143//143
f 143//143 163//163 142//142
f 142//142 163//163 141//141
f 141//141 163//163 140//140
f 140//140 163//163 139//139
f 139//139 163//163 138//138
f 138//138 163//163 137//137
f 137//137 163//163 136//136
f 136//136 163//163 164//164
f 136//136 164//164 135//135
f 135//135 164//164 134//134
f 134//134 164//164 133//133
f 133//133 164//164 132//132
f 132//132 164//164 131//131
f 131//131 164//164 130//130
f 130//130 164//164 129//129
f 129//129 164//164 128//128
g f474611e-e2fc-11ea-9c10-54bf646e7e1f
f 167//167 168//168 170//170
f 170//170 168//168 169//169

# End of file