# WaveFront *.obj file
# Vertices: 208
# Triangles : 172

v 6.768553733825684 0.0 3.292200803756714
v 6.768553733825684 0.0 -3.292200803756714
v 6.768553733825684 0.75 -3.292200803756714
v 6.768553733825684 0.75 3.292200803756714
v -6.768553733825684 0.0 -3.292200803756714
v -6.768553733825684 0.0 3.292200803756714
v -6.768553733825684 0.75 3.292200803756714
v -6.768553733825684 0.75 -3.292200803756714
v 6.768553733825684 0.0 -3.292200803756714
v -6.768553733825684 0.0 -3.292200803756714
v -6.768553733825684 0.75 -3.292200803756714
v 6.768553733825684 0.75 -3.292200803756714
v -6.768553733825684 0.0 3.292200803756714
v 6.768553733825684 0.0 3.292200803756714
v 6.768553733825684 0.75 3.292200803756714
v -6.768553733825684 0.75 3.292200803756714
v -4.787026882171631 0.75 -1.8803298473358154
v -4.787026882171631 0.75 1.8803298473358154
v -5.212973117828369 0.75 1.8803298473358154
v -5.212973117828369 0.75 -1.8803298473358154
v 5.477982997894287 0.75 -1.0720345973968506
v 5.5584845542907715 0.75 -0.957484781742096
v 5.587648868560791 0.75 -0.8205482363700867
v 5.5608086585998535 0.75 -0.6831372380256653
v 5.482259273529053 0.75 -0.5672400593757629
v 5.364569664001465 0.75 -0.49140220880508423
v 5.2265729904174805 0.75 -0.4677591621875763
v 5.090350151062012 0.75 -0.5000941753387451
v 4.9776997566223145 0.75 -0.583233118057251
v 4.9066481590271 0.75 -0.7038722038269043
v 4.888564109802246 0.75 -0.8427071571350098
v 4.926342010498047 0.75 -0.9775218367576599
v 5.013936519622803 0.75 -1.0867435932159424
v 4.835465431213379 0.75 -1.1798820495605469
v 4.688197135925293 0.75 -1.317136526107788
v 4.582742214202881 0.75 -1.48861825466156
v 4.526698112487793 0.75 -1.6819722652435303
v 4.524103164672852 0.75 -1.8832679986953735
v 4.575143814086914 0.75 -2.078002691268921
v 4.676143169403076 0.75 -2.252146005630493
v 4.819823741912842 0.75 -2.39315128326416
v 4.995834827423096 0.75 -2.4908597469329834
v 5.191493988037109 0.75 -2.538231611251831
v 5.39270544052124 0.75 -2.531853675842285
v 5.584971904754639 0.75 -2.4721858501434326
v 5.754441738128662 0.75 -2.3635265827178955
v 5.888904094696045 0.75 -2.213704824447632
v 5.978672027587891 0.75 -2.033514976501465
v 6.017277240753174 0.75 -1.835938811302185
v 6.001939296722412 0.75 -1.63521146774292
v 5.933762550354004 0.75 -1.4457948207855225
v 5.817659378051758 0.75 -1.2813358306884766
v 5.661994457244873 0.75 -1.1536835432052612
v 6.768553733825684 0.75 -3.292200803756714
v -6.768553733825684 0.75 -3.292200803756714
v -6.768553733825684 0.75 3.292200803756714
v 6.768553733825684 0.75 3.292200803756714
v -6.768553733825684 0.0 -3.292200803756714
v 6.768553733825684 0.0 -3.292200803756714
v 6.768553733825684 0.0 3.292200803756714
v -6.768553733825684 0.0 3.292200803756714
v 5.013936519622803 0.75 -1.0867435932159424
v 4.926342010498047 0.75 -0.9775218367576599
v 4.888564109802246 0.75 -0.8427071571350098
v 4.9066481590271 0.75 -0.7038722038269043
v 4.9776997566223145 0.75 -0.583233118057251
v 5.090350151062012 0.75 -0.5000941753387451
v 5.2265729904174805 0.75 -0.4677591621875763
v 5.364569664001465 0.75 -0.49140220880508423
v 5.482259273529053 0.75 -0.5672400593757629
v 5.5608086585998535 0.75 -0.6831372380256653
v 5.587648868560791 0.75 -0.8205482363700867
v 5.5584845542907715 0.75 -0.957484781742096
v 5.477982997894287 0.75 -1.0720345973968506
v 5.477982997894287 0.800000011920929 -1.0720345973968506
v 5.5584845542907715 0.800000011920929 -0.957484781742096
v 5.587648868560791 0.800000011920929 -0.8205482363700867
v 5.5608086585998535 0.800000011920929 -0.6831372380256653
v 5.482259273529053 0.800000011920929 -0.5672400593757629
v 5.364569664001465 0.800000011920929 -0.49140220880508423
v 5.2265729904174805 0.800000011920929 -0.4677591621875763
v 5.090350151062012 0.800000011920929 -0.5000941753387451
v 4.9776997566223145 0.800000011920929 -0.583233118057251
v 4.9066481590271 0.800000011920929 -0.7038722038269043
v 4.888564109802246 0.800000011920929 -0.8427071571350098
v 4.926342010498047 0.800000011920929 -0.9775218367576599
v 5.013936519622803 0.800000011920929 -1.0867435932159424
v -4.787026882171631 0.75 -1.8803298473358154
v -5.212973117828369 0.75 -1.8803298473358154
v -5.212973117828369 0.800000011920929 -1.8803298473358154
v -4.787026882171631 0.800000011920929 -1.8803298473358154
v -4.787026882171631 0.75 1.8803298473358154
v -4.787026882171631 0.75 -1.8803298473358154
v -4.787026882171631 0.800000011920929 -1.8803298473358154
v -4.787026882171631 0.800000011920929 1.8803298473358154
v 5.477982997894287 0.75 -1.0720345973968506
v 5.661994457244873 0.75 -1.1536835432052612
v 5.817659378051758 0.75 -1.2813358306884766
v 5.933762550354004 0.75 -1.4457948207855225
v 6.001939296722412 0.75 -1.63521146774292
v 6.017277240753174 0.75 -1.835938811302185
v 5.978672027587891 0.75 -2.033514976501465
v 5.888904094696045 0.75 -2.213704824447632
v 5.754441738128662 0.75 -2.3635265827178955
v 5.584971904754639 0.75 -2.4721858501434326
v 5.39270544052124 0.75 -2.531853675842285
v 5.191493988037109 0.75 -2.538231611251831
v 4.995834827423096 0.75 -2.4908597469329834
v 4.819823741912842 0.75 -2.39315128326416
v 4.676143169403076 0.75 -2.252146005630493
v 4.575143814086914 0.75 -2.078002691268921
v 4.524103164672852 0.75 -1.8832679986953735
v 4.526698112487793 0.75 -1.6819722652435303
v 4.582742214202881 0.75 -1.48861825466156
v 4.688197135925293 0.75 -1.317136526107788
v 4.835465431213379 0.75 -1.1798820495605469
v 5.013936519622803 0.75 -1.0867435932159424
v 5.013936519622803 0.800000011920929 -1.0867435932159424
v 4.835465431213379 0.800000011920929 -1.1798820495605469
v 4.688197135925293 0.800000011920929 -1.317136526107788
v 4.582742214202881 0.800000011920929 -1.48861825466156
v 4.526698112487793 0.800000011920929 -1.6819722652435303
v 4.524103164672852 0.800000011920929 -1.8832679986953735
v 4.575143814086914 0.800000011920929 -2.078002691268921
v 4.676143169403076 0.800000011920929 -2.252146005630493
v 4.819823741912842 0.800000011920929 -2.39315128326416
v 4.995834827423096 0.800000011920929 -2.4908597469329834
v 5.191493988037109 0.800000011920929 -2.538231611251831
v 5.39270544052124 0.800000011920929 -2.531853675842285
v 5.584971904754639 0.800000011920929 -2.4721858501434326
v 5.754441738128662 0.800000011920929 -2.3635265827178955
v 5.888904094696045 0.800000011920929 -2.213704824447632
v 5.978672027587891 0.800000011920929 -2.033514976501465
v 6.017277240753174 0.800000011920929 -1.835938811302185
v 6.001939296722412 0.800000011920929 -1.63521146774292
v 5.933762550354004 0.800000011920929 -1.4457948207855225
v 5.817659378051758 0.800000011920929 -1.2813358306884766
v 5.661994457244873 0.800000011920929 -1.1536835432052612
v 5.477982997894287 0.800000011920929 -1.0720345973968506
v 5.477982997894287 0.800000011920929 -1.0720345973968506
v 5.661994457244873 0.800000011920929 -1.1536835432052612
v 5.817659378051758 0.800000011920929 -1.2813358306884766
v 5.933762550354004 0.800000011920929 -1.4457948207855225
v 6.001939296722412 0.800000011920929 -1.63521146774292
v 6.017277240753174 0.800000011920929 -1.835938811302185
v 5.978672027587891 0.800000011920929 -2.033514976501465
v 5.888904094696045 0.800000011920929 -2.213704824447632
v 5.754441738128662 0.800000011920929 -2.3635265827178955
v 5.584971904754639 0.800000011920929 -2.4721858501434326
v 5.39270544052124 0.800000011920929 -2.531853675842285
v 5.191493988037109 0.800000011920929 -2.538231611251831
v 4.995834827423096 0.800000011920929 -2.4908597469329834
v 4.819823741912842 0.800000011920929 -2.39315128326416
v 4.676143169403076 0.800000011920929 -2.252146005630493
v 4.575143814086914 0.800000011920929 -2.078002691268921
v 4.524103164672852 0.800000011920929 -1.8832679986953735
v 4.526698112487793 0.800000011920929 -1.6819722652435303
v 4.582742214202881 0.800000011920929 -1.48861825466156
v 4.688197135925293 0.800000011920929 -1.317136526107788
v 4.835465431213379 0.800000011920929 -1.1798820495605469
v 5.013936519622803 0.800000011920929 -1.0867435932159424
v 4.926342010498047 0.800000011920929 -0.9775218367576599
v 4.888564109802246 0.800000011920929 -0.8427071571350098
v 4.9066481590271 0.800000011920929 -0.7038722038269043
v 4.9776997566223145 0.800000011920929 -0.583233118057251
v 5.090350151062012 0.800000011920929 -0.5000941753387451
v 5.2265729904174805 0.800000011920929 -0.4677591621875763
v 5.364569664001465 0.800000011920929 -0.49140220880508423
v 5.482259273529053 0.800000011920929 -0.5672400593757629
v 5.5608086585998535 0.800000011920929 -0.6831372380256653
v 5.587648868560791 0.800000011920929 -0.8205482363700867
v 5.5584845542907715 0.800000011920929 -0.957484781742096
v -5.212973117828369 0.75 1.8803298473358154
v -4.787026882171631 0.75 1.8803298473358154
v -4.787026882171631 0.800000011920929 1.8803298473358154
v -5.212973117828369 0.800000011920929 1.8803298473358154
v -5.212973117828369 0.75 -1.8803298473358154
v -5.212973117828369 0.75 1.8803298473358154
v -5.212973117828369 0.800000011920929 1.8803298473358154
v -5.212973117828369 0.800000011920929 -1.8803298473358154
v -4.787026882171631 0.800000011920929 -1.8803298473358154
v -5.212973117828369 0.800000011920929 -1.8803298473358154
v -5.212973117828369 0.800000011920929 1.8803298473358154
v -4.787026882171631 0.800000011920929 1.8803298473358154
v -5.685878276824951 0.0 -1.2947819232940674
v -5.685878276824951 0.0 1.2947819232940674
v -5.685878276824951 -0.15000000596046448 1.2947819232940674
v -5.685878276824951 -0.15000000596046448 -1.2947819232940674
v -6.314121723175049 0.0 1.2947819232940674
v -5.685878276824951 0.0 1.2947819232940674
v -5.685878276824951 0.0 -1.2947819232940674
v -6.314121723175049 0.0 -1.2947819232940674
v -5.685878276824951 -0.15000000596046448 1.2947819232940674
v -6.314121723175049 -0.15000000596046448 1.2947819232940674
v -6.314121723175049 -0.15000000596046448 -1.2947819232940674
v -5.685878276824951 -0.15000000596046448 -1.2947819232940674
v -5.685878276824951 0.0 1.2947819232940674
v -6.314121723175049 0.0 1.2947819232940674
v -6.314121723175049 -0.15000000596046448 1.2947819232940674
v -5.685878276824951 -0.15000000596046448 1.2947819232940674
v -6.314121723175049 0.0 -1.2947819232940674
v -5.685878276824951 0.0 -1.2947819232940674
v -5.685878276824951 -0.15000000596046448 -1.2947819232940674
v -6.314121723175049 -0.15000000596046448 -1.2947819232940674
v -6.314121723175049 0.0 1.2947819232940674
v -6.314121723175049 0.0 -1.2947819232940674
v -6.314121723175049 -0.15000000596046448 -1.2947819232940674
v -6.314121723175049 -0.15000000596046448 1.2947819232940674
vn 1.0 0.0 0.0
vn 1.0 0.0 0.0
vn 1.0 0.0 0.0
vn 1.0 0.0 0.0
vn -1.0 0.0 0.0
vn -1.0 0.0 0.0
vn -1.0 0.0 0.0
vn -1.0 0.0 0.0
vn 0.0 0.0 -1.0
vn 0.0 0.0 -1.0
vn 0.0 0.0 -1.0
vn 0.0 0.0 -1.0
vn 0.0 -0.0 1.0
vn 0.0 -0.0 1.0
vn 0.0 -0.0 1.0
vn 0.0 -0.0 1.0
vn 0.0 1.0 0.0
vn 0.0 1.0 0.0
vn 0.0 1.0 0.0
vn 0.0 1.0 0.0
vn 0.0 1.0 0.0
vn 0.0 1.0 0.0
vn 0.0 1.0 0.0
vn 0.0 1.0 0.0
vn 0.0 1.0 0.0
vn 0.0 1.0 0.0
vn 0.0 1.0 0.0
vn 0.0 1.0 0.0
vn 0.0 1.0 0.0
vn 0.0 1.0 0.0
vn 0.0 1.0 0.0
vn 0.0 1.0 0.0
vn 0.0 1.0 0.0
vn 0.0 1.0 0.0
vn 0.0 1.0 0.0
vn 0.0 1.0 0.0
vn 0.0 1.0 0.0
vn 0.0 1.0 0.0
vn 0.0 1.0 0.0
vn 0.0 1.0 0.0
vn 0.0 1.0 0.0
vn 0.0 1.0 0.0
vn 0.0 1.0 0.0
vn 0.0 1.0 0.0
vn 0.0 1.0 0.0
vn 0.0 1.0 0.0
vn 0.0 1.0 0.0
vn 0.0 1.0 0.0
vn 0.0 1.0 0.0
vn 0.0 1.0 0.0
vn 0.0 1.0 0.0
vn 0.0 1.0 0.0
vn 0.0 1.0 0.0
vn 0.0 1.0 0.0
vn 0.0 1.0 0.0
vn 0.0 1.0 0.0
vn 0.0 1.0 0.0
vn -0.0 -1.0 -0.0
vn -0.0 -1.0 -0.0
vn -0.0 -1.0 -0.0
vn -0.0 -1.0 -0.0
vn -0.6392139792442322 0.0 -0.7690289616584778
vn -0.8894836902618408 0.0 -0.4569668769836426
vn -0.9974203705787659 0.0 -0.07178200781345367
vn -0.9457520842552185 -0.0 0.32488924264907837
vn -0.7427467107772827 -0.0 0.6695724725723267
vn -0.4208887815475464 -0.0 0.9071122407913208
vn -0.03168117627501488 -0.0 0.9994980096817017
vn 0.36259597539901733 -0.0 0.9319464564323425
vn 0.6988513469696045 -0.0 0.7152669429779053
vn 0.9232781529426575 -0.0 0.38413205742836
vn 0.9999641180038452 -0.0 -0.008470732718706131
vn 0.9166381359100342 -0.0 -0.3997180461883545
vn 0.686633825302124 -0.0 -0.7270033955574036
vn 0.686633825302124 -0.0 -0.7270033955574036
vn 0.9166381359100342 -0.0 -0.3997180461883545
vn 0.9999641180038452 -0.0 -0.008470732718706131
vn 0.9232781529426575 -0.0 0.38413205742836
vn 0.6988513469696045 -0.0 0.7152669429779053
vn 0.36259597539901733 -0.0 0.9319464564323425
vn -0.03168117627501488 -0.0 0.9994980096817017
vn -0.4208887815475464 -0.0 0.9071122407913208
vn -0.7427467107772827 -0.0 0.6695724725723267
vn -0.9457520842552185 -0.0 0.32488924264907837
vn -0.9974203705787659 0.0 -0.07178200781345367
vn -0.8894836902618408 0.0 -0.4569668769836426
vn -0.6392139792442322 0.0 -0.7690289616584778
vn 0.0 0.0 -1.0
vn 0.0 0.0 -1.0
vn 0.0 0.0 -1.0
vn 0.0 0.0 -1.0
vn 1.0 0.0 0.0
vn 1.0 0.0 0.0
vn 1.0 0.0 0.0
vn 1.0 0.0 0.0
vn 0.27923908829689026 -0.0 0.9602215886116028
vn 0.5245875716209412 -0.0 0.8513565063476562
vn 0.732140839099884 -0.0 0.6811532974243164
vn 0.8869451880455017 -0.0 0.46187472343444824
vn 0.9778473377227783 -0.0 0.20931923389434814
vn 0.9982981085777283 -0.0 -0.058317188173532486
vn 0.9468239545822144 -0.0 -0.32175201177597046
vn 0.8271335959434509 -0.0 -0.5620054006576538
vn 0.6478502750396729 -0.0 -0.7617676854133606
vn 0.4218909740447998 -0.0 -0.9066465497016907
vn 0.16553550958633423 -0.0 -0.9862038493156433
vn -0.10274638235569 0.0 -0.9947075843811035
vn -0.3636256456375122 0.0 -0.9315451383590698
vn -0.5983065962791443 0.0 -0.8012672662734985
vn -0.7898810505867004 0.0 -0.61326003074646
vn -0.9245465993881226 0.0 -0.38106900453567505
vn -0.9926008582115173 0.0 -0.12142288684844971
vn -0.9891407489776611 -0.0 0.1469714343547821
vn -0.9144154787063599 -0.0 0.40477684140205383
vn -0.7738089561462402 -0.0 0.6334190964698792
vn -0.5774513483047485 -0.0 0.816425085067749
vn -0.3394899070262909 -0.0 0.9406096935272217
vn -0.3394899070262909 -0.0 0.9406096935272217
vn -0.5774513483047485 -0.0 0.816425085067749
vn -0.7738089561462402 -0.0 0.6334190964698792
vn -0.9144154787063599 -0.0 0.40477684140205383
vn -0.9891407489776611 -0.0 0.1469714343547821
vn -0.9926008582115173 0.0 -0.12142288684844971
vn -0.9245465993881226 0.0 -0.38106900453567505
vn -0.7898810505867004 0.0 -0.61326003074646
vn -0.5983065962791443 0.0 -0.8012672662734985
vn -0.3636256456375122 0.0 -0.9315451383590698
vn -0.10274638235569 0.0 -0.9947075843811035
vn 0.16553550958633423 -0.0 -0.9862038493156433
vn 0.4218909740447998 -0.0 -0.9066465497016907
vn 0.6478502750396729 -0.0 -0.7617676854133606
vn 0.8271335959434509 -0.0 -0.5620054006576538
vn 0.9468239545822144 -0.0 -0.32175201177597046
vn 0.9982981085777283 -0.0 -0.058317188173532486
vn 0.9778473377227783 -0.0 0.20931923389434814
vn 0.8869451880455017 -0.0 0.46187472343444824
vn 0.732140839099884 -0.0 0.6811532974243164
vn 0.5245875716209412 -0.0 0.8513565063476562
vn 0.27923908829689026 -0.0 0.9602215886116028
vn 0.0 1.0 0.0
vn 0.0 1.0 0.0
vn 0.0 1.0 0.0
vn 0.0 1.0 0.0
vn 0.0 1.0 0.0
vn 0.0 1.0 0.0
vn 0.0 1.0 0.0
vn 0.0 1.0 0.0
vn 0.0 1.0 0.0
vn 0.0 1.0 0.0
vn 0.0 1.0 0.0
vn 0.0 1.0 0.0
vn 0.0 1.0 0.0
vn 0.0 1.0 0.0
vn 0.0 1.0 0.0
vn 0.0 1.0 0.0
vn 0.0 1.0 0.0
vn 0.0 1.0 0.0
vn 0.0 1.0 0.0
vn 0.0 1.0 0.0
vn 0.0 1.0 0.0
vn 0.0 1.0 0.0
vn 0.0 1.0 0.0
vn 0.0 1.0 0.0
vn 0.0 1.0 0.0
vn 0.0 1.0 0.0
vn 0.0 1.0 0.0
vn 0.0 1.0 0.0
vn 0.0 1.0 0.0
vn 0.0 1.0 0.0
vn 0.0 1.0 0.0
vn 0.0 1.0 0.0
vn 0.0 1.0 0.0
vn 0.0 -0.0 1.0
vn 0.0 -0.0 1.0
vn 0.0 -0.0 1.0
vn 0.0 -0.0 1.0
vn -1.0 0.0 0.0
vn -1.0 0.0 0.0
vn -1.0 0.0 0.0
vn -1.0 0.0 0.0
vn 0.0 1.0 0.0
vn 0.0 1.0 0.0
vn 0.0 1.0 0.0
vn 0.0 1.0 0.0
vn 1.0 0.0 0.0
vn 1.0 0.0 0.0
vn 1.0 0.0 0.0
vn 1.0 0.0 0.0
vn -0.0 1.0 -0.0
vn -0.0 1.0 -0.0
vn -0.0 1.0 -0.0
vn -0.0 1.0 -0.0
vn 0.0 -1.0 0.0
vn 0.0 -1.0 0.0
vn 0.0 -1.0 0.0
vn 0.0 -1.0 0.0
vn -0.0 0.0 1.0
vn -0.0 0.0 1.0
vn -0.0 0.0 1.0
vn -0.0 0.0 1.0
vn -0.0 -0.0 -1.0
vn -0.0 -0.0 -1.0
vn -0.0 -0.0 -1.0
vn -0.0 -0.0 -1.0
vn -1.0 0.0 0.0
vn -1.0 0.0 0.0
vn -1.0 0.0 0.0
vn -1.0 0.0 0.0
f 1//1 2//2 4//4
f 4//4 2//2 3//3
f 5//5 6//6 8//8
f 8//8 6//6 7//7
f 9//9 10//10 12//12
f 12//12 10//10 11//11
f 13//13 14//14 16//16
f 16//16 14//14 15//15
f 18//18 30//30 17//17
f 17//17 30//30 35//35
f 17//17 35//35 36//36
f 19//19 56//56 18//18
f 18//18 56//56 57//57
f 18//18 57//57 28//28
f 28//28 57//57 27//27
f 27//27 57//57 26//26
f 26//26 57//57 25//25
f 25//25 57//57 24//24
f 24//24 57//57 51//51
f 24//24 51//51 52//52
f 19//19 20//20 56//56
f 56//56 20//20 55//55
f 55//55 20//20 17//17
f 55//55 17//17 41//41
f 41//41 17//17 40//40
f 40//40 17//17 39//39
f 39//39 17//17 38//38
f 38//38 17//17 37//37
f 37//37 17//17 36//36
f 21//21 22//22 53//53
f 53//53 22//22 23//23
f 53//53 23//23 52//52
f 52//52 23//23 24//24
f 28//28 29//29 18//18
f 18//18 29//29 30//30
f 30//30 31//31 35//35
f 35//35 31//31 34//34
f 34//34 31//31 32//32
f 34//34 32//32 33//33
f 41//41 42//42 55//55
f 55//55 42//42 54//54
f 54//54 42//42 43//43
f 54//54 43//43 44//44
f 44//44 45//45 54//54
f 54//54 45//45 46//46
f 54//54 46//46 47//47
f 47//47 48//48 54//54
f 54//54 48//48 49//49
f 54//54 49//49 50//50
f 54//54 50//50 57//57
f 57//57 50//50 51//51
f 58//58 59//59 61//61
f 61//61 59//59 60//60
f 87//87 62//62 86//86
f 86//86 62//62 63//63
f 86//86 63//63 85//85
f 85//85 63//63 64//64
f 85//85 64//64 84//84
f 84//84 64//64 65//65
f 84//84 65//65 83//83
f 83//83 65//65 66//66
f 83//83 66//66 82//82
f 82//82 66//66 67//67
f 82//82 67//67 81//81
f 81//81 67//67 68//68
f 81//81 68//68 80//80
f 80//80 68//68 69//69
f 80//80 69//69 79//79
f 79//79 69//69 70//70
f 79//79 70//70 78//78
f 78//78 70//70 71//71
f 78//78 71//71 77//77
f 77//77 71//71 72//72
f 77//77 72//72 76//76
f 76//76 72//72 73//73
f 76//76 73//73 75//75
f 75//75 73//73 74//74
f 88//88 89//89 91//91
f 91//91 89//89 90//90
f 92//92 93//93 95//95
f 95//95 93//93 94//94
f 139//139 96//96 138//138
f 138//138 96//96 97//97
f 138//138 97//97 137//137
f 137//137 97//97 98//98
f 137//137 98//98 136//136
f 136//136 98//98 99//99
f 136//136 99//99 135//135
f 135//135 99//99 100//100
f 135//135 100//100 134//134
f 134//134 100//100 101//101
f 134//134 101//101 133//133
f 133//133 101//101 102//102
f 133//133 102//102 132//132
f 132//132 102//102 103//103
f 132//132 103//103 131//131
f 131//131 103//103 104//104
f 131//131 104//104 130//130
f 130//130 104//104 105//105
f 130//130 105//105 129//129
f 129//129 105//105 106//106
f 129//129 106//106 128//128
f 128//128 106//106 107//107
f 128//128 107//107 127//127
f 127//127 107//107 108//108
f 127//127 108//108 126//126
f 126//126 108//108 109//109
f 126//126 109//109 125//125
f 125//125 109//109 110//110
f 125//125 110//110 124//124
f 124//124 110//110 111//111
f 124//124 111//111 123//123
f 123//123 111//111 112//112
f 123//123 112//112 122//122
f 122//122 112//112 113//113
f 122//122 113//113 121//121
f 121//121 113//113 114//114
f 121//121 114//114 120//120
f 120//120 114//114 115//115
f 120//120 115//115 119//119
f 119//119 115//115 116//116
f 119//119 116//116 118//118
f 118//118 116//116 117//117
f 141//141 149//149 140//140
f 140//140 149//149 150//150
f 140//140 150//150 151//151
f 149//149 141//141 148//148
f 148//148 141//141 142//142
f 148//148 142//142 147//147
f 147//147 142//142 143//143
f 147//147 143//143 146//146
f 146//146 143//143 144//144
f 146//146 144//144 145//145
f 151//151 152//152 140//140
f 140//140 152//152 153//153
f 140//140 153//153 154//154
f 154//154 155//155 140//140
f 140//140 155//155 156//156
f 140//140 156//156 157//157
f 157//157 158//158 140//140
f 140//140 158//158 159//159
f 140//140 159//159 160//160
f 160//160 161//161 140//140
f 140//140 161//161 162//162
f 140//140 162//162 163//163
f 163//163 164//164 140//140
f 140//140 164//164 165//165
f 140//140 165//165 166//166
f 166//166 167//167 140//140
f 140//140 167//167 168//168
f 140//140 168//168 169//169
f 140//140 169//169 172//172
f 172//172 169//169 170//170
f 172//172 170//170 171//171
f 173//173 174//174 176//176
f 176//176 174//174 175//175
f 177//177 178//178 180//180
f 180//180 178//178 179//179
f 182//182 183//183 181//181
f 181//181 183//183 184//184
f 185//185 186//186 188//188
f 188//188 186//186 187//187
f 189//189 190//190 192//192
f 192//192 190//190 191//191
f 194//194 195//195 193//193
f 193//193 195//195 196//196
f 197//197 198//198 200//200
f 200//200 198//198 199//199
f 201//201 202//202 204//204
f 204//204 202//202 203//203
f 205//205 206//206 208//208
f 208//208 206//206 207//207

# End of file