# WaveFront *.obj file
# Vertices: 180
# Triangles : 148

v -10.0 0.4000000059604645 4.099999904632568
v -10.0 0.4000000059604645 4.200000286102295
v -8.699999809265137 0.4000000059604645 4.200000286102295
v -8.699999809265137 0.4000000059604645 4.099999904632568
v -10.0 0.4000000059604645 4.200000286102295
v -10.0 0.45000001788139343 4.28660249710083
v -10.0 0.550000011920929 4.28660249710083
v -10.0 0.6000000238418579 4.200000286102295
v -8.699999809265137 0.6000000238418579 4.200000286102295
v -8.699999809265137 0.550000011920929 4.28660249710083
v -8.699999809265137 0.45000001788139343 4.28660249710083
v -8.699999809265137 0.4000000059604645 4.200000286102295
v -10.0 0.6000000238418579 4.200000286102295
v -10.0 0.6000000238418579 4.099999904632568
v -8.699999809265137 0.6000000238418579 4.099999904632568
v -8.699999809265137 0.6000000238418579 4.200000286102295
v -10.0 0.6000000238418579 4.099999904632568
v -10.0 0.550000011920929 4.013397693634033
v -10.0 0.45000001788139343 4.013397693634033
v -10.0 0.4000000059604645 4.099999904632568
v -8.699999809265137 0.4000000059604645 4.099999904632568
v -8.699999809265137 0.45000001788139343 4.013397693634033
v -8.699999809265137 0.550000011920929 4.013397693634033
v -8.699999809265137 0.6000000238418579 4.099999904632568
v -8.699999809265137 0.6000000238418579 4.099999904632568
v -8.699999809265137 0.550000011920929 4.013397693634033
v -8.699999809265137 0.45000001788139343 4.013397693634033
v -8.699999809265137 0.4000000059604645 4.099999904632568
v -8.699999809265137 0.4000000059604645 4.200000286102295
v -8.699999809265137 0.45000001788139343 4.28660249710083
v -8.699999809265137 0.550000011920929 4.28660249710083
v -8.699999809265137 0.6000000238418579 4.200000286102295
v -8.600000381469727 0.559747576713562 2.8154609203338623
v -8.600000381469727 0.6834912300109863 2.8667173385620117
v -8.600000381469727 0.734747588634491 2.9904608726501465
v -8.600000381469727 0.6834912300109863 3.1142046451568604
v -8.600000381469727 0.559747576713562 3.1654610633850098
v -8.600000381469727 0.4360038936138153 3.1142046451568604
v -8.600000381469727 0.38474756479263306 2.9904608726501465
v -8.600000381469727 0.4360038936138153 2.8667173385620117
v -10.0 0.559747576713562 2.8154609203338623
v -10.0 0.4360038936138153 2.8667173385620117
v -10.0 0.38474756479263306 2.9904608726501465
v -10.0 0.4360038936138153 3.1142046451568604
v -10.0 0.559747576713562 3.1654610633850098
v -10.0 0.6834912300109863 3.1142046451568604
v -10.0 0.734747588634491 2.9904608726501465
v -10.0 0.6834912300109863 2.8667173385620117
v -8.600000381469727 0.559747576713562 2.8154609203338623
v -10.0 0.559747576713562 2.8154609203338623
v -8.600000381469727 0.559747576713562 2.8154609203338623
v -8.600000381469727 0.4360038936138153 2.8667173385620117
v -8.600000381469727 0.38474756479263306 2.9904608726501465
v -8.600000381469727 0.4360038936138153 3.1142046451568604
v -8.600000381469727 0.559747576713562 3.1654610633850098
v -8.600000381469727 0.6834912300109863 3.1142046451568604
v -8.600000381469727 0.734747588634491 2.9904608726501465
v -8.600000381469727 0.6834912300109863 2.8667173385620117
v 13.600000381469727 0.5 5.599999904632568
v 13.600000381469727 0.5866024494171143 5.550000190734863
v 13.600000381469727 0.5866024494171143 5.449999809265137
v 13.600000381469727 0.5 5.400000095367432
v 13.600000381469727 0.41339752078056335 5.449999809265137
v 13.600000381469727 0.41339752078056335 5.550000190734863
v 16.0 0.5 5.599999904632568
v 16.0 0.41339752078056335 5.550000190734863
v 16.0 0.41339752078056335 5.449999809265137
v 16.0 0.5 5.400000095367432
v 16.0 0.5866024494171143 5.449999809265137
v 16.0 0.5866024494171143 5.550000190734863
v 13.600000381469727 0.5 5.599999904632568
v 16.0 0.5 5.599999904632568
v 13.600000381469727 0.5 5.599999904632568
v 13.600000381469727 0.41339752078056335 5.550000190734863
v 13.600000381469727 0.41339752078056335 5.449999809265137
v 13.600000381469727 0.5 5.400000095367432
v 13.600000381469727 0.5866024494171143 5.449999809265137
v 13.600000381469727 0.5866024494171143 5.550000190734863
v 16.0 0.699999988079071 3.700000047683716
v 16.0 0.699999988079071 4.5
v 13.600000381469727 0.699999988079071 4.5
v 13.600000381469727 0.699999988079071 3.700000047683716
v 16.0 0.699999988079071 4.5
v 16.0 0.6618034243583679 4.617557048797607
v 16.0 0.56180340051651 4.690211296081543
v 16.0 0.43819659948349 4.690211296081543
v 16.0 0.33819660544395447 4.617557048797607
v 16.0 0.30000001192092896 4.5
v 13.600000381469727 0.30000001192092896 4.5
v 13.600000381469727 0.33819660544395447 4.617557048797607
v 13.600000381469727 0.43819659948349 4.690211296081543
v 13.600000381469727 0.56180340051651 4.690211296081543
v 13.600000381469727 0.6618034243583679 4.617557048797607
v 13.600000381469727 0.699999988079071 4.5
v 16.0 0.30000001192092896 4.5
v 16.0 0.30000001192092896 3.700000047683716
v 13.600000381469727 0.30000001192092896 3.700000047683716
v 13.600000381469727 0.30000001192092896 4.5
v 16.0 0.30000001192092896 3.700000047683716
v 16.0 0.33819660544395447 3.5824429988861084
v 16.0 0.43819659948349 3.509788751602173
v 16.0 0.56180340051651 3.509788751602173
v 16.0 0.6618034243583679 3.5824429988861084
v 16.0 0.699999988079071 3.700000047683716
v 13.600000381469727 0.699999988079071 3.700000047683716
v 13.600000381469727 0.6618034243583679 3.5824429988861084
v 13.600000381469727 0.56180340051651 3.509788751602173
v 13.600000381469727 0.43819659948349 3.509788751602173
v 13.600000381469727 0.33819660544395447 3.5824429988861084
v 13.600000381469727 0.30000001192092896 3.700000047683716
v 13.600000381469727 0.30000001192092896 3.700000047683716
v 13.600000381469727 0.33819660544395447 3.5824429988861084
v 13.600000381469727 0.43819659948349 3.509788751602173
v 13.600000381469727 0.56180340051651 3.509788751602173
v 13.600000381469727 0.6618034243583679 3.5824429988861084
v 13.600000381469727 0.699999988079071 3.700000047683716
v 13.600000381469727 0.699999988079071 4.5
v 13.600000381469727 0.6618034243583679 4.617557048797607
v 13.600000381469727 0.56180340051651 4.690211296081543
v 13.600000381469727 0.43819659948349 4.690211296081543
v 13.600000381469727 0.33819660544395447 4.617557048797607
v 13.600000381469727 0.30000001192092896 4.5
v -10.0 0.4000000059604645 4.200000286102295
v -10.0 0.4000000059604645 4.099999904632568
v -10.0 0.45000001788139343 4.013397693634033
v -10.0 0.550000011920929 4.013397693634033
v -10.0 0.6000000238418579 4.099999904632568
v -10.0 0.6000000238418579 4.200000286102295
v -10.0 0.550000011920929 4.28660249710083
v -10.0 0.45000001788139343 4.28660249710083
v -10.0 0.559747576713562 2.8154609203338623
v -10.0 0.6834912300109863 2.8667173385620117
v -10.0 0.734747588634491 2.9904608726501465
v -10.0 0.6834912300109863 3.1142046451568604
v -10.0 0.559747576713562 3.1654610633850098
v -10.0 0.4360038936138153 3.1142046451568604
v -10.0 0.38474756479263306 2.9904608726501465
v -10.0 0.4360038936138153 2.8667173385620117
v -10.0 0.0 -7.0
v -10.0 0.0 7.0
v -10.0 0.8999999761581421 7.0
v -10.0 0.8999999761581421 -7.0
v 16.0 0.0 -7.0
v -10.0 0.0 -7.0
v -10.0 0.8999999761581421 -7.0
v 16.0 0.8999999761581421 -7.0
v 16.0 0.5 5.599999904632568
v 16.0 0.5866024494171143 5.550000190734863
v 16.0 0.5866024494171143 5.449999809265137
v 16.0 0.5 5.400000095367432
v 16.0 0.41339752078056335 5.449999809265137
v 16.0 0.41339752078056335 5.550000190734863
v 16.0 0.699999988079071 4.5
v 16.0 0.699999988079071 3.700000047683716
v 16.0 0.6618034243583679 3.5824429988861084
v 16.0 0.56180340051651 3.509788751602173
v 16.0 0.43819659948349 3.509788751602173
v 16.0 0.33819660544395447 3.5824429988861084
v 16.0 0.30000001192092896 3.700000047683716
v 16.0 0.30000001192092896 4.5
v 16.0 0.33819660544395447 4.617557048797607
v 16.0 0.43819659948349 4.690211296081543
v 16.0 0.56180340051651 4.690211296081543
v 16.0 0.6618034243583679 4.617557048797607
v 16.0 0.0 7.0
v 16.0 0.0 -7.0
v 16.0 0.8999999761581421 -7.0
v 16.0 0.8999999761581421 7.0
v -10.0 0.0 7.0
v 16.0 0.0 7.0
v 16.0 0.8999999761581421 7.0
v -10.0 0.8999999761581421 7.0
v -10.0 0.8999999761581421 7.0
v 16.0 0.8999999761581421 7.0
v 16.0 0.8999999761581421 -7.0
v -10.0 0.8999999761581421 -7.0
v 16.0 0.0 7.0
v -10.0 0.0 7.0
v -10.0 0.0 -7.0
v 16.0 0.0 -7.0
vn -0.0 1.0 -0.0
vn -0.0 1.0 -0.0
vn -0.0 1.0 -0.0
vn -0.0 1.0 -0.0
vn -0.0 1.0 0.0
vn 0.0 0.5 -0.8660253882408142
vn 0.0 -0.5 -0.8660253882408142
vn 0.0 -1.0 -1.2246468525851679e-16
vn 0.0 -1.0 -1.2246468525851679e-16
vn 0.0 -0.5 -0.8660253882408142
vn 0.0 0.5 -0.8660253882408142
vn -0.0 1.0 0.0
vn 0.0 -1.0 -0.0
vn 0.0 -1.0 -0.0
vn 0.0 -1.0 -0.0
vn 0.0 -1.0 -0.0
vn 0.0 -1.0 0.0
vn 0.0 -0.5 0.8660253882408142
vn -0.0 0.5 0.8660253882408142
vn -0.0 1.0 1.2246468525851679e-16
vn -0.0 1.0 1.2246468525851679e-16
vn -0.0 0.5 0.8660253882408142
vn 0.0 -0.5 0.8660253882408142
vn 0.0 -1.0 0.0
vn -1.0 0.0 0.0
vn -1.0 0.0 0.0
vn -1.0 0.0 0.0
vn -1.0 0.0 0.0
vn -1.0 0.0 0.0
vn -1.0 0.0 0.0
vn -1.0 0.0 0.0
vn -1.0 0.0 0.0
vn 0.0 -1.2246468525851679e-16 1.0
vn 0.0 -0.7071067690849304 0.7071067690849304
vn 0.0 -1.0 -6.123234262925839e-17
vn 0.0 -0.7071067690849304 -0.7071067690849304
vn 0.0 0.0 -1.0
vn 0.0 0.7071067690849304 -0.7071067690849304
vn 0.0 1.0 -6.123234262925839e-17
vn -0.0 0.7071067690849304 0.7071067690849304
vn -0.0 1.2246468525851679e-16 1.0
vn -0.0 0.7071067690849304 0.7071067690849304
vn 0.0 1.0 -6.123234262925839e-17
vn 0.0 0.7071067690849304 -0.7071067690849304
vn 0.0 0.0 -1.0
vn 0.0 -0.7071067690849304 -0.7071067690849304
vn 0.0 -1.0 -6.123234262925839e-17
vn 0.0 -0.7071067690849304 0.7071067690849304
vn -0.0 1.2246468525851679e-16 1.0
vn 0.0 -1.2246468525851679e-16 1.0
vn -1.0 0.0 0.0
vn -1.0 0.0 0.0
vn -1.0 0.0 0.0
vn -1.0 0.0 0.0
vn -1.0 0.0 0.0
vn -1.0 0.0 0.0
vn -1.0 0.0 0.0
vn -1.0 0.0 0.0
vn -0.0 -1.2246468525851679e-16 -1.0
vn -0.0 -0.8660253882408142 -0.5
vn 0.0 -0.8660253882408142 0.5
vn 0.0 0.0 1.0
vn 0.0 0.8660253882408142 0.5
vn 0.0 0.8660253882408142 -0.5
vn 0.0 1.2246468525851679e-16 -1.0
vn 0.0 0.8660253882408142 -0.5
vn 0.0 0.8660253882408142 0.5
vn 0.0 0.0 1.0
vn 0.0 -0.8660253882408142 0.5
vn -0.0 -0.8660253882408142 -0.5
vn 0.0 1.2246468525851679e-16 -1.0
vn -0.0 -1.2246468525851679e-16 -1.0
vn 1.0 0.0 0.0
vn 1.0 0.0 0.0
vn 1.0 0.0 0.0
vn 1.0 0.0 0.0
vn 1.0 0.0 0.0
vn 1.0 0.0 0.0
vn -0.0 -1.0 0.0
vn -0.0 -1.0 0.0
vn -0.0 -1.0 0.0
vn -0.0 -1.0 0.0
vn -0.0 -1.0 -0.0
vn -0.0 -0.80901700258255 -0.5877852439880371
vn -0.0 -0.30901700258255005 -0.9510565400123596
vn 0.0 0.30901700258255005 -0.9510565400123596
vn 0.0 0.80901700258255 -0.5877852439880371
vn 0.0 1.0 -1.2246468525851679e-16
vn 0.0 1.0 -1.2246468525851679e-16
vn 0.0 0.80901700258255 -0.5877852439880371
vn 0.0 0.30901700258255005 -0.9510565400123596
vn -0.0 -0.30901700258255005 -0.9510565400123596
vn -0.0 -0.80901700258255 -0.5877852439880371
vn -0.0 -1.0 -0.0
vn 0.0 1.0 0.0
vn 0.0 1.0 0.0
vn 0.0 1.0 0.0
vn 0.0 1.0 0.0
vn 0.0 1.0 -0.0
vn 0.0 0.80901700258255 0.5877852439880371
vn 0.0 0.30901700258255005 0.9510565400123596
vn 0.0 -0.30901700258255005 0.9510565400123596
vn 0.0 -0.80901700258255 0.5877852439880371
vn 0.0 -1.0 1.2246468525851679e-16
vn 0.0 -1.0 1.2246468525851679e-16
vn 0.0 -0.80901700258255 0.5877852439880371
vn 0.0 -0.30901700258255005 0.9510565400123596
vn 0.0 0.30901700258255005 0.9510565400123596
vn 0.0 0.80901700258255 0.5877852439880371
vn 0.0 1.0 -0.0
vn 1.0 0.0 0.0
vn 1.0 0.0 0.0
vn 1.0 0.0 0.0
vn 1.0 0.0 0.0
vn 1.0 0.0 0.0
vn 1.0 0.0 0.0
vn 1.0 0.0 0.0
vn 1.0 0.0 0.0
vn 1.0 0.0 0.0
vn 1.0 0.0 0.0
vn 1.0 0.0 0.0
vn 1.0 0.0 0.0
vn -1.0 0.0 0.0
vn -1.0 0.0 0.0
vn -1.0 0.0 0.0
vn -1.0 0.0 0.0
vn -1.0 0.0 0.0
vn -1.0 0.0 0.0
vn -1.0 0.0 0.0
vn -1.0 0.0 0.0
vn -1.0 0.0 0.0
vn -1.0 0.0 0.0
vn -1.0 0.0 0.0
vn -1.0 0.0 0.0
vn -1.0 0.0 0.0
vn -1.0 0.0 0.0
vn -1.0 0.0 0.0
vn -1.0 0.0 0.0
vn -1.0 0.0 0.0
vn -1.0 0.0 0.0
vn -1.0 0.0 0.0
vn -1.0 0.0 0.0
vn 0.0 0.0 -1.0
vn 0.0 0.0 -1.0
vn 0.0 0.0 -1.0
vn 0.0 0.0 -1.0
vn 1.0 0.0 0.0
vn 1.0 0.0 0.0
vn 1.0 0.0 0.0
vn 1.0 0.0 0.0
vn 1.0 0.0 0.0
vn 1.0 0.0 0.0
vn 1.0 0.0 0.0
vn 1.0 0.0 0.0
vn 1.0 0.0 0.0
vn 1.0 0.0 0.0
vn 1.0 0.0 0.0
vn 1.0 0.0 0.0
vn 1.0 0.0 0.0
vn 1.0 0.0 0.0
vn 1.0 0.0 0.0
vn 1.0 0.0 0.0
vn 1.0 0.0 0.0
vn 1.0 0.0 0.0
vn 1.0 0.0 0.0
vn 1.0 0.0 0.0
vn 1.0 0.0 0.0
vn 1.0 0.0 0.0
vn 0.0 -0.0 1.0
vn 0.0 -0.0 1.0
vn 0.0 -0.0 1.0
vn 0.0 -0.0 1.0
vn 0.0 1.0 0.0
vn 0.0 1.0 0.0
vn 0.0 1.0 0.0
vn 0.0 1.0 0.0
vn -0.0 -1.0 -0.0
vn -0.0 -1.0 -0.0
vn -0.0 -1.0 -0.0
vn -0.0 -1.0 -0.0
g 830ff32c-e2ff-11ea-beb8-54bf646e7e1f
f 1//1 2//2 4//4
f 4//4 2//2 3//3
g 831152b4-e2ff-11ea-b606-54bf646e7e1f
f 12//12 5//5 11//11
f 11//11 5//5 6//6
f 11//11 6//6 10//10
f 10//10 6//6 7//7
f 10//10 7//7 9//9
f 9//9 7//7 8//8
g 83128b24-e2ff-11ea-8f1a-54bf646e7e1f
f 13//13 14//14 16//16
f 16//16 14//14 15//15
g 83134e7a-e2ff-11ea-99d7-54bf646e7e1f
f 24//24 17//17 23//23
f 23//23 17//17 18//18
f 23//23 18//18 22//22
f 22//22 18//18 19//19
f 22//22 19//19 21//21
f 21//21 19//19 20//20
g 831411d2-e2ff-11ea-8eee-54bf646e7e1f
f 26//26 28//28 25//25
f 25//25 28//28 29//29
f 25//25 29//29 32//32
f 32//32 29//29 30//30
f 32//32 30//30 31//31
f 26//26 27//27 28//28
g 82d3d4c2-e2ff-11ea-add5-54bf646e7e1f
f 34//34 48//48 33//33
f 33//33 48//48 50//50
f 49//49 41//41 40//40
f 40//40 41//41 42//42
f 40//40 42//42 39//39
f 39//39 42//42 43//43
f 39//39 43//43 38//38
f 38//38 43//43 44//44
f 38//38 44//44 37//37
f 37//37 44//44 45//45
f 37//37 45//45 36//36
f 36//36 45//45 46//46
f 36//36 46//46 35//35
f 35//35 46//46 47//47
f 35//35 47//47 34//34
f 34//34 47//47 48//48
g 82d4e62e-e2ff-11ea-8085-54bf646e7e1f
f 52//52 54//54 51//51
f 51//51 54//54 55//55
f 51//51 55//55 58//58
f 58//58 55//55 56//56
f 58//58 56//56 57//57
f 52//52 53//53 54//54
g 82a28bf0-e2ff-11ea-9f4a-54bf646e7e1f
f 60//60 70//70 59//59
f 59//59 70//70 72//72
f 71//71 65//65 64//64
f 64//64 65//65 66//66
f 64//64 66//66 63//63
f 63//63 66//66 67//67
f 63//63 67//67 62//62
f 62//62 67//67 68//68
f 62//62 68//68 61//61
f 61//61 68//68 69//69
f 61//61 69//69 60//60
f 60//60 69//69 70//70
g 82a2da12-e2ff-11ea-affb-54bf646e7e1f
f 74//74 75//75 73//73
f 73//73 75//75 76//76
f 73//73 76//76 78//78
f 78//78 76//76 77//77
g 82a3282c-e2ff-11ea-b409-54bf646e7e1f
f 79//79 80//80 82//82
f 82//82 80//80 81//81
g 82a37658-e2ff-11ea-aa4a-54bf646e7e1f
f 94//94 83//83 93//93
f 93//93 83//83 84//84
f 93//93 84//84 92//92
f 92//92 84//84 85//85
f 92//92 85//85 91//91
f 91//91 85//85 86//86
f 91//91 86//86 90//90
f 90//90 86//86 87//87
f 90//90 87//87 89//89
f 89//89 87//87 88//88
g 82a3c470-e2ff-11ea-946a-54bf646e7e1f
f 95//95 96//96 98//98
f 98//98 96//96 97//97
g 82a4399c-e2ff-11ea-a7ad-54bf646e7e1f
f 110//110 99//99 109//109
f 109//109 99//99 100//100
f 109//109 100//100 108//108
f 108//108 100//100 101//101
f 108//108 101//101 107//107
f 107//107 101//101 102//102
f 107//107 102//102 106//106
f 106//106 102//102 103//103
f 106//106 103//103 105//105
f 105//105 103//103 104//104
g 82a487ba-e2ff-11ea-9430-54bf646e7e1f
f 112//112 116//116 111//111
f 111//111 116//116 117//117
f 111//111 117//117 122//122
f 122//122 117//117 121//121
f 121//121 117//117 120//120
f 120//120 117//117 119//119
f 119//119 117//117 118//118
f 112//112 113//113 116//116
f 116//116 113//113 114//114
f 116//116 114//114 115//115
g 826ab394-e2ff-11ea-aec9-54bf646e7e1f
f 124//124 137//137 123//123
f 123//123 137//137 140//140
f 123//123 140//140 130//130
f 130//130 140//140 141//141
f 130//130 141//141 129//129
f 129//129 141//141 128//128
f 128//128 141//141 133//133
f 128//128 133//133 134//134
f 137//137 124//124 136//136
f 136//136 124//124 125//125
f 136//136 125//125 135//135
f 135//135 125//125 126//126
f 135//135 126//126 127//127
f 135//135 127//127 134//134
f 134//134 127//127 128//128
f 138//138 131//131 142//142
f 142//142 131//131 132//132
f 142//142 132//132 133//133
f 140//140 137//137 139//139
f 139//139 137//137 138//138
f 139//139 138//138 142//142
f 141//141 142//142 133//133
g 826b01a6-e2ff-11ea-a757-54bf646e7e1f
f 143//143 144//144 146//146
f 146//146 144//144 145//145
g 826b4fd8-e2ff-11ea-ae14-54bf646e7e1f
f 148//148 168//168 147//147
f 147//147 168//168 165//165
f 147//147 165//165 152//152
f 152//152 165//165 160//160
f 152//152 160//160 161//161
f 149//149 164//164 148//148
f 148//148 164//164 153//153
f 148//148 153//153 168//168
f 168//168 153//153 154//154
f 168//168 154//154 167//167
f 167//167 154//154 155//155
f 167//167 155//155 156//156
f 164//164 149//149 163//163
f 163//163 149//149 150//150
f 163//163 150//150 162//162
f 162//162 150//150 151//151
f 162//162 151//151 161//161
f 161//161 151//151 152//152
f 156//156 157//157 167//167
f 167//167 157//157 166//166
f 166//166 157//157 158//158
f 166//166 158//158 159//159
f 166//166 159//159 165//165
f 165//165 159//159 160//160
g 826b9dda-e2ff-11ea-b4a9-54bf646e7e1f
f 169//169 170//170 172//172
f 172//172 170//170 171//171
g 826bebfa-e2ff-11ea-885f-54bf646e7e1f
f 174//174 175//175 173//173
f 173//173 175//175 176//176
g 826c3a40-e2ff-11ea-906d-54bf646e7e1f
f 177//177 178//178 180//180
f 180//180 178//178 179//179

# End of file