# WaveFront *.obj file
# Vertices: 148
# Triangles : 124

v 0.15000000596046448 0.800000011920929 2.5
v 0.15000000596046448 -0.800000011920929 2.5
v 0.05000000074505806 -0.800000011920929 2.5
v 0.05000000074505806 0.800000011920929 2.5
v 0.15000000596046448 0.800000011920929 2.299999952316284
v 0.15000000596046448 0.800000011920929 2.5
v 0.05000000074505806 0.800000011920929 2.5
v 0.05000000074505806 0.800000011920929 2.299999952316284
v 0.05000000074505806 0.800000011920929 2.299999952316284
v 0.05000000074505806 0.800000011920929 2.5
v 0.05000000074505806 -0.800000011920929 2.5
v 0.05000000074505806 -0.800000011920929 2.299999952316284
v 0.15000000596046448 -0.800000011920929 2.299999952316284
v 0.15000000596046448 0.800000011920929 2.299999952316284
v 0.05000000074505806 0.800000011920929 2.299999952316284
v 0.05000000074505806 -0.800000011920929 2.299999952316284
v 0.15000000596046448 -0.800000011920929 2.5
v 0.15000000596046448 -0.800000011920929 2.299999952316284
v 0.05000000074505806 -0.800000011920929 2.299999952316284
v 0.05000000074505806 -0.800000011920929 2.5
v 0.15000000596046448 0.13846388459205627 -2.342313289642334
v 0.15000000596046448 0.10587936639785767 -2.293747663497925
v 0.15000000596046448 0.05719940736889839 -2.261334180831909
v 0.15000000596046448 -0.00017582086729817092 -2.250000238418579
v 0.15000000596046448 -0.05752431973814964 -2.2614686489105225
v 0.15000000596046448 -0.10612816363573074 -2.2939960956573486
v 0.15000000596046448 -0.1385987401008606 -2.3426380157470703
v 0.15000000596046448 -0.15000000596046448 -2.4000000953674316
v 0.15000000596046448 -0.1385987401008606 -2.457361936569214
v 0.15000000596046448 -0.10612816363573074 -2.5060038566589355
v 0.15000000596046448 -0.05752431973814964 -2.538531541824341
v 0.15000000596046448 -0.00017582086729817092 -2.549999952316284
v 0.15000000596046448 0.05719940736889839 -2.538666009902954
v 0.15000000596046448 0.10587936639785767 -2.5062522888183594
v 0.15000000596046448 0.13846388459205627 -2.45768666267395
v 0.05000000074505806 0.13846388459205627 -2.45768666267395
v 0.05000000074505806 0.10587936639785767 -2.5062522888183594
v 0.05000000074505806 0.05719940736889839 -2.538666009902954
v 0.05000000074505806 -0.00017582086729817092 -2.549999952316284
v 0.05000000074505806 -0.05752431973814964 -2.538531541824341
v 0.05000000074505806 -0.10612816363573074 -2.5060038566589355
v 0.05000000074505806 -0.1385987401008606 -2.457361936569214
v 0.05000000074505806 -0.15000000596046448 -2.4000000953674316
v 0.05000000074505806 -0.1385987401008606 -2.3426380157470703
v 0.05000000074505806 -0.10612816363573074 -2.2939960956573486
v 0.05000000074505806 -0.05752431973814964 -2.2614686489105225
v 0.05000000074505806 -0.00017582086729817092 -2.250000238418579
v 0.05000000074505806 0.05719940736889839 -2.261334180831909
v 0.05000000074505806 0.10587936639785767 -2.293747663497925
v 0.05000000074505806 0.13846388459205627 -2.342313289642334
v 0.05000000074505806 0.13846388459205627 -2.342313289642334
v 0.05000000074505806 0.10587936639785767 -2.293747663497925
v 0.05000000074505806 0.05719940736889839 -2.261334180831909
v 0.05000000074505806 -0.00017582086729817092 -2.250000238418579
v 0.05000000074505806 -0.05752431973814964 -2.2614686489105225
v 0.05000000074505806 -0.10612816363573074 -2.2939960956573486
v 0.05000000074505806 -0.1385987401008606 -2.3426380157470703
v 0.05000000074505806 -0.15000000596046448 -2.4000000953674316
v 0.05000000074505806 -0.1385987401008606 -2.457361936569214
v 0.05000000074505806 -0.10612816363573074 -2.5060038566589355
v 0.05000000074505806 -0.05752431973814964 -2.538531541824341
v 0.05000000074505806 -0.00017582086729817092 -2.549999952316284
v 0.05000000074505806 0.05719940736889839 -2.538666009902954
v 0.05000000074505806 0.10587936639785767 -2.5062522888183594
v 0.05000000074505806 0.13846388459205627 -2.45768666267395
v 0.05000000074505806 0.17187285423278809 -2.4795193672180176
v 0.05000000074505806 0.2115790694952011 -2.483548641204834
v 0.05000000074505806 0.24869291484355927 -2.4688727855682373
v 0.05000000074505806 0.27490511536598206 -2.438777208328247
v 0.05000000074505806 0.28434717655181885 -2.4000000953674316
v 0.05000000074505806 0.27490511536598206 -2.361222982406616
v 0.05000000074505806 0.24869291484355927 -2.331127405166626
v 0.05000000074505806 0.2115790694952011 -2.3164515495300293
v 0.05000000074505806 0.17187285423278809 -2.3204808235168457
v 0.15000000596046448 0.13846388459205627 -2.45768666267395
v 0.15000000596046448 0.17187285423278809 -2.4795193672180176
v 0.15000000596046448 0.2115790694952011 -2.483548641204834
v 0.15000000596046448 0.24869291484355927 -2.4688727855682373
v 0.15000000596046448 0.27490511536598206 -2.438777208328247
v 0.15000000596046448 0.28434717655181885 -2.4000000953674316
v 0.15000000596046448 0.27490511536598206 -2.361222982406616
v 0.15000000596046448 0.24869291484355927 -2.331127405166626
v 0.15000000596046448 0.2115790694952011 -2.3164515495300293
v 0.15000000596046448 0.17187285423278809 -2.3204808235168457
v 0.15000000596046448 0.13846388459205627 -2.342313289642334
v 0.05000000074505806 0.13846388459205627 -2.342313289642334
v 0.05000000074505806 0.17187285423278809 -2.3204808235168457
v 0.05000000074505806 0.2115790694952011 -2.3164515495300293
v 0.05000000074505806 0.24869291484355927 -2.331127405166626
v 0.05000000074505806 0.27490511536598206 -2.361222982406616
v 0.05000000074505806 0.28434717655181885 -2.4000000953674316
v 0.05000000074505806 0.27490511536598206 -2.438777208328247
v 0.05000000074505806 0.24869291484355927 -2.4688727855682373
v 0.05000000074505806 0.2115790694952011 -2.483548641204834
v 0.05000000074505806 0.17187285423278809 -2.4795193672180176
v 0.05000000074505806 0.13846388459205627 -2.45768666267395
v -0.15000000596046448 1.135664939880371 -2.7617664337158203
v -0.15000000596046448 -1.135664939880371 -2.7617664337158203
v -0.15000000596046448 -1.135664939880371 2.7617664337158203
v -0.15000000596046448 1.135664939880371 2.7617664337158203
v -0.15000000596046448 -1.135664939880371 -2.7617664337158203
v 0.15000000596046448 -1.135664939880371 -2.7617664337158203
v 0.15000000596046448 -1.135664939880371 2.7617664337158203
v -0.15000000596046448 -1.135664939880371 2.7617664337158203
v -0.15000000596046448 -1.135664939880371 2.7617664337158203
v 0.15000000596046448 -1.135664939880371 2.7617664337158203
v 0.15000000596046448 1.135664939880371 2.7617664337158203
v -0.15000000596046448 1.135664939880371 2.7617664337158203
v -0.15000000596046448 1.135664939880371 2.7617664337158203
v 0.15000000596046448 1.135664939880371 2.7617664337158203
v 0.15000000596046448 1.135664939880371 -2.7617664337158203
v -0.15000000596046448 1.135664939880371 -2.7617664337158203
v -0.15000000596046448 1.135664939880371 -2.7617664337158203
v 0.15000000596046448 1.135664939880371 -2.7617664337158203
v 0.15000000596046448 -1.135664939880371 -2.7617664337158203
v -0.15000000596046448 -1.135664939880371 -2.7617664337158203
v 0.15000000596046448 0.800000011920929 2.299999952316284
v 0.15000000596046448 -0.800000011920929 2.299999952316284
v 0.15000000596046448 -0.800000011920929 2.5
v 0.15000000596046448 0.800000011920929 2.5
v 0.15000000596046448 0.13846388459205627 -2.342313289642334
v 0.15000000596046448 0.17187285423278809 -2.3204808235168457
v 0.15000000596046448 0.2115790694952011 -2.3164515495300293
v 0.15000000596046448 0.24869291484355927 -2.331127405166626
v 0.15000000596046448 0.27490511536598206 -2.361222982406616
v 0.15000000596046448 0.28434717655181885 -2.4000000953674316
v 0.15000000596046448 0.27490511536598206 -2.438777208328247
v 0.15000000596046448 0.24869291484355927 -2.4688727855682373
v 0.15000000596046448 0.2115790694952011 -2.483548641204834
v 0.15000000596046448 0.17187285423278809 -2.4795193672180176
v 0.15000000596046448 0.13846388459205627 -2.45768666267395
v 0.15000000596046448 0.10587936639785767 -2.5062522888183594
v 0.15000000596046448 0.05719940736889839 -2.538666009902954
v 0.15000000596046448 -0.00017582086729817092 -2.549999952316284
v 0.15000000596046448 -0.05752431973814964 -2.538531541824341
v 0.15000000596046448 -0.10612816363573074 -2.5060038566589355
v 0.15000000596046448 -0.1385987401008606 -2.457361936569214
v 0.15000000596046448 -0.15000000596046448 -2.4000000953674316
v 0.15000000596046448 -0.1385987401008606 -2.3426380157470703
v 0.15000000596046448 -0.10612816363573074 -2.2939960956573486
v 0.15000000596046448 -0.05752431973814964 -2.2614686489105225
v 0.15000000596046448 -0.00017582086729817092 -2.250000238418579
v 0.15000000596046448 0.05719940736889839 -2.261334180831909
v 0.15000000596046448 0.10587936639785767 -2.293747663497925
v 0.15000000596046448 -1.135664939880371 -2.7617664337158203
v 0.15000000596046448 1.135664939880371 -2.7617664337158203
v 0.15000000596046448 1.135664939880371 2.7617664337158203
v 0.15000000596046448 -1.135664939880371 2.7617664337158203
vn -0.0 -0.0 -1.0
vn -0.0 -0.0 -1.0
vn -0.0 -0.0 -1.0
vn -0.0 -0.0 -1.0
vn 0.0 -1.0 -0.0
vn 0.0 -1.0 -0.0
vn 0.0 -1.0 -0.0
vn 0.0 -1.0 -0.0
vn 1.0 -0.0 -0.0
vn 1.0 -0.0 -0.0
vn 1.0 -0.0 -0.0
vn 1.0 -0.0 -0.0
vn -0.0 -0.0 1.0
vn -0.0 -0.0 1.0
vn -0.0 -0.0 1.0
vn -0.0 -0.0 1.0
vn -0.0 1.0 -0.0
vn -0.0 1.0 -0.0
vn -0.0 1.0 -0.0
vn -0.0 1.0 -0.0
vn 0.0 -0.9230926036834717 -0.3845777213573456
vn 0.0 -0.7058624625205994 -0.7083489298820496
vn 0.0 -0.38132938742637634 -0.9244392514228821
vn 0.0 0.001172139192931354 -0.9999992847442627
vn 0.0 0.3834954798221588 -0.9235427379608154
vn 0.0 0.7075210809707642 -0.7066922187805176
vn 0.0 0.9239916205406189 -0.38241270184516907
vn 0.0 1.0 -3.191891195797325e-15
vn -0.0 0.9239916205406189 0.38241270184516907
vn -0.0 0.7075210809707642 0.7066922187805176
vn -0.0 0.3834954798221588 0.9235427379608154
vn -0.0 0.001172139192931354 0.9999992847442627
vn 0.0 -0.38132938742637634 0.9244392514228821
vn 0.0 -0.7058624625205994 0.7083489298820496
vn 0.0 -0.9230926036834717 0.3845777213573456
vn 0.0 -0.9230926036834717 0.3845777213573456
vn 0.0 -0.7058624625205994 0.7083489298820496
vn 0.0 -0.38132938742637634 0.9244392514228821
vn -0.0 0.001172139192931354 0.9999992847442627
vn -0.0 0.3834954798221588 0.9235427379608154
vn -0.0 0.7075210809707642 0.7066922187805176
vn -0.0 0.9239916205406189 0.38241270184516907
vn 0.0 1.0 -3.191891195797325e-15
vn 0.0 0.9239916205406189 -0.38241270184516907
vn 0.0 0.7075210809707642 -0.7066922187805176
vn 0.0 0.3834954798221588 -0.9235427379608154
vn 0.0 0.001172139192931354 -0.9999992847442627
vn 0.0 -0.38132938742637634 -0.9244392514228821
vn 0.0 -0.7058624625205994 -0.7083489298820496
vn 0.0 -0.9230926036834717 -0.3845777213573456
vn 1.0 0.0 0.0
vn 1.0 0.0 0.0
vn 1.0 0.0 0.0
vn 1.0 0.0 0.0
vn 1.0 0.0 0.0
vn 1.0 0.0 0.0
vn 1.0 0.0 0.0
vn 1.0 0.0 0.0
vn 1.0 0.0 0.0
vn 1.0 0.0 0.0
vn 1.0 0.0 0.0
vn 1.0 0.0 0.0
vn 1.0 0.0 0.0
vn 1.0 0.0 0.0
vn 1.0 0.0 0.0
vn 1.0 0.0 0.0
vn 1.0 0.0 0.0
vn 1.0 0.0 0.0
vn 1.0 0.0 0.0
vn 1.0 0.0 0.0
vn 1.0 0.0 0.0
vn 1.0 0.0 0.0
vn 1.0 0.0 0.0
vn 1.0 0.0 0.0
vn -0.0 0.7295575737953186 0.683919370174408
vn -0.0 0.33346882462501526 0.9427611231803894
vn 0.0 -0.137278750538826 0.9905324578285217
vn 0.0 -0.5772916078567505 0.8165380358695984
vn 0.0 -0.888057291507721 0.4597327411174774
vn 0.0 -1.0 -1.6453176925562376e-16
vn 0.0 -0.888057291507721 -0.4597327411174774
vn 0.0 -0.5772916078567505 -0.8165380358695984
vn 0.0 -0.137278750538826 -0.9905324578285217
vn 0.0 0.33346882462501526 -0.9427611231803894
vn 0.0 0.7295575737953186 -0.683919370174408
vn 0.0 0.7295575737953186 -0.683919370174408
vn 0.0 0.33346882462501526 -0.9427611231803894
vn 0.0 -0.137278750538826 -0.9905324578285217
vn 0.0 -0.5772916078567505 -0.8165380358695984
vn 0.0 -0.888057291507721 -0.4597327411174774
vn 0.0 -1.0 -1.6453176925562376e-16
vn 0.0 -0.888057291507721 0.4597327411174774
vn 0.0 -0.5772916078567505 0.8165380358695984
vn 0.0 -0.137278750538826 0.9905324578285217
vn -0.0 0.33346882462501526 0.9427611231803894
vn -0.0 0.7295575737953186 0.683919370174408
vn -1.0 0.0 0.0
vn -1.0 0.0 0.0
vn -1.0 0.0 0.0
vn -1.0 0.0 0.0
vn 0.0 -1.0 8.039948723320643e-17
vn 0.0 -1.0 8.039948723320643e-17
vn 0.0 -1.0 8.039948723320643e-17
vn 0.0 -1.0 8.039948723320643e-17
vn -0.0 0.0 1.0
vn -0.0 0.0 1.0
vn -0.0 0.0 1.0
vn -0.0 0.0 1.0
vn 0.0 1.0 0.0
vn 0.0 1.0 0.0
vn 0.0 1.0 0.0
vn 0.0 1.0 0.0
vn 0.0 0.0 -1.0
vn 0.0 0.0 -1.0
vn 0.0 0.0 -1.0
vn 0.0 0.0 -1.0
vn 1.0 0.0 0.0
vn 1.0 0.0 0.0
vn 1.0 0.0 0.0
vn 1.0 0.0 0.0
vn 1.0 0.0 0.0
vn 1.0 0.0 0.0
vn 1.0 0.0 0.0
vn 1.0 0.0 0.0
vn 1.0 0.0 0.0
vn 1.0 0.0 0.0
vn 1.0 0.0 0.0
vn 1.0 0.0 0.0
vn 1.0 0.0 0.0
vn 1.0 0.0 0.0
vn 1.0 0.0 0.0
vn 1.0 0.0 0.0
vn 1.0 0.0 0.0
vn 1.0 0.0 0.0
vn 1.0 0.0 0.0
vn 1.0 0.0 0.0
vn 1.0 0.0 0.0
vn 1.0 0.0 0.0
vn 1.0 0.0 0.0
vn 1.0 0.0 0.0
vn 1.0 0.0 0.0
vn 1.0 0.0 0.0
vn 1.0 0.0 0.0
vn 1.0 0.0 0.0
vn 1.0 0.0 0.0
vn 1.0 0.0 0.0
vn 1.0 0.0 0.0
vn 1.0 0.0 0.0
g 968d9d0a-e2ff-11ea-8e06-54bf646e7e1f
f 1//1 2//2 4//4
f 4//4 2//2 3//3
g 968deb2e-e2ff-11ea-beac-54bf646e7e1f
f 5//5 6//6 8//8
f 8//8 6//6 7//7
g 968e605a-e2ff-11ea-b5ce-54bf646e7e1f
f 9//9 10//10 12//12
f 12//12 10//10 11//11
g 968eae68-e2ff-11ea-bd6c-54bf646e7e1f
f 13//13 14//14 16//16
f 16//16 14//14 15//15
g 968efc98-e2ff-11ea-8579-54bf646e7e1f
f 17//17 18//18 20//20
f 20//20 18//18 19//19
g 965ffe12-e2ff-11ea-b573-54bf646e7e1f
f 50//50 21//21 49//49
f 49//49 21//21 22//22
f 49//49 22//22 48//48
f 48//48 22//22 23//23
f 48//48 23//23 47//47
f 47//47 23//23 24//24
f 47//47 24//24 46//46
f 46//46 24//24 25//25
f 46//46 25//25 45//45
f 45//45 25//25 26//26
f 45//45 26//26 44//44
f 44//44 26//26 27//27
f 44//44 27//27 43//43
f 43//43 27//27 28//28
f 43//43 28//28 42//42
f 42//42 28//28 29//29
f 42//42 29//29 41//41
f 41//41 29//29 30//30
f 41//41 30//30 40//40
f 40//40 30//30 31//31
f 40//40 31//31 39//39
f 39//39 31//31 32//32
f 39//39 32//32 38//38
f 38//38 32//32 33//33
f 38//38 33//33 37//37
f 37//37 33//33 34//34
f 37//37 34//34 36//36
f 36//36 34//34 35//35
g 96607366-e2ff-11ea-9126-54bf646e7e1f
f 52//52 56//56 51//51
f 51//51 56//56 57//57
f 51//51 57//57 58//58
f 56//56 52//52 55//55
f 55//55 52//52 53//53
f 55//55 53//53 54//54
f 58//58 59//59 51//51
f 51//51 59//59 60//60
f 51//51 60//60 61//61
f 61//61 62//62 51//51
f 51//51 62//62 63//63
f 51//51 63//63 64//64
f 64//64 65//65 51//51
f 51//51 65//65 74//74
f 74//74 65//65 73//73
f 73//73 65//65 72//72
f 72//72 65//65 71//71
f 71//71 65//65 70//70
f 70//70 65//65 69//69
f 69//69 65//65 68//68
f 68//68 65//65 66//66
f 68//68 66//66 67//67
g 9660c18c-e2ff-11ea-81dc-54bf646e7e1f
f 96//96 75//75 95//95
f 95//95 75//75 76//76
f 95//95 76//76 77//77
f 95//95 77//77 94//94
f 94//94 77//77 78//78
f 94//94 78//78 93//93
f 93//93 78//78 79//79
f 93//93 79//79 92//92
f 92//92 79//79 80//80
f 92//92 80//80 91//91
f 91//91 80//80 81//81
f 91//91 81//81 90//90
f 90//90 81//81 82//82
f 90//90 82//82 89//89
f 89//89 82//82 83//83
f 89//89 83//83 88//88
f 88//88 83//83 84//84
f 88//88 84//84 87//87
f 87//87 84//84 86//86
f 86//86 84//84 85//85
g 962d7c3a-e2ff-11ea-b0a2-54bf646e7e1f
f 98//98 99//99 97//97
f 97//97 99//99 100//100
g 962da34c-e2ff-11ea-b537-54bf646e7e1f
f 102//102 103//103 101//101
f 101//101 103//103 104//104
g 962df166-e2ff-11ea-a1d5-54bf646e7e1f
f 106//106 107//107 105//105
f 105//105 107//107 108//108
g 962e1876-e2ff-11ea-8e43-54bf646e7e1f
f 110//110 111//111 109//109
f 109//109 111//111 112//112
g 962e669c-e2ff-11ea-9bc4-54bf646e7e1f
f 114//114 115//115 113//113
f 113//113 115//115 116//116
g 962e8da2-e2ff-11ea-a50d-54bf646e7e1f
f 118//118 142//142 117//117
f 117//117 142//142 143//143
f 117//117 143//143 123//123
f 123//123 143//143 144//144
f 123//123 144//144 122//122
f 122//122 144//144 121//121
f 119//119 148//148 118//118
f 118//118 148//148 145//145
f 118//118 145//145 139//139
f 139//139 145//145 138//138
f 138//138 145//145 137//137
f 137//137 145//145 136//136
f 136//136 145//145 135//135
f 135//135 145//145 134//134
f 134//134 145//145 146//146
f 134//134 146//146 133//133
f 133//133 146//146 129//129
f 133//133 129//129 132//132
f 132//132 129//129 130//130
f 132//132 130//130 131//131
f 119//119 120//120 148//148
f 148//148 120//120 147//147
f 147//147 120//120 117//117
f 147//147 117//117 146//146
f 146//146 117//117 125//125
f 146//146 125//125 126//126
f 123//123 124//124 117//117
f 117//117 124//124 125//125
f 126//126 127//127 146//146
f 146//146 127//127 128//128
f 146//146 128//128 129//129
f 139//139 140//140 118//118
f 118//118 140//140 141//141
f 118//118 141//141 142//142

# End of file