# WaveFront *.obj file
# Vertices: 80
# Triangles : 68

v 3.299999952316284 2.8984971046447754 0.0
v -3.200000047683716 2.8984971046447754 0.0
v -3.200000047683716 2.8984971046447754 0.07500000298023224
v 3.299999952316284 2.8984971046447754 0.07500000298023224
v 3.299999952316284 2.598497152328491 0.0
v 3.3574025630950928 2.609915256500244 0.0
v 3.4060659408569336 2.6424310207366943 0.0
v 3.438581943511963 2.6910946369171143 0.0
v 3.450000047683716 2.7484970092773438 0.0
v 3.438581943511963 2.8058996200561523 0.0
v 3.4060659408569336 2.854562997817993 0.0
v 3.3574025630950928 2.8870790004730225 0.0
v 3.299999952316284 2.8984971046447754 0.0
v 3.299999952316284 2.8984971046447754 0.07500000298023224
v 3.3574025630950928 2.8870790004730225 0.07500000298023224
v 3.4060659408569336 2.854562997817993 0.07500000298023224
v 3.438581943511963 2.8058996200561523 0.07500000298023224
v 3.450000047683716 2.7484970092773438 0.07500000298023224
v 3.438581943511963 2.6910946369171143 0.07500000298023224
v 3.4060659408569336 2.6424310207366943 0.07500000298023224
v 3.3574025630950928 2.609915256500244 0.07500000298023224
v 3.299999952316284 2.598497152328491 0.07500000298023224
v -3.200000047683716 2.598497152328491 0.0
v 3.299999952316284 2.598497152328491 0.0
v 3.299999952316284 2.598497152328491 0.07500000298023224
v -3.200000047683716 2.598497152328491 0.07500000298023224
v -3.200000047683716 2.8984971046447754 0.0
v -3.2574024200439453 2.8870790004730225 0.0
v -3.3060660362243652 2.854562997817993 0.0
v -3.3385820388793945 2.8058996200561523 0.0
v -3.3499999046325684 2.7484970092773438 0.0
v -3.3385820388793945 2.6910946369171143 0.0
v -3.3060660362243652 2.6424310207366943 0.0
v -3.2574024200439453 2.609915256500244 0.0
v -3.200000047683716 2.598497152328491 0.0
v -3.200000047683716 2.598497152328491 0.07500000298023224
v -3.2574024200439453 2.609915256500244 0.07500000298023224
v -3.3060660362243652 2.6424310207366943 0.07500000298023224
v -3.3385820388793945 2.6910946369171143 0.07500000298023224
v -3.3499999046325684 2.7484970092773438 0.07500000298023224
v -3.3385820388793945 2.8058996200561523 0.07500000298023224
v -3.3060660362243652 2.854562997817993 0.07500000298023224
v -3.2574024200439453 2.8870790004730225 0.07500000298023224
v -3.200000047683716 2.8984971046447754 0.07500000298023224
v -3.200000047683716 2.8984971046447754 0.07500000298023224
v -3.2574024200439453 2.8870790004730225 0.07500000298023224
v -3.3060660362243652 2.854562997817993 0.07500000298023224
v -3.3385820388793945 2.8058996200561523 0.07500000298023224
v -3.3499999046325684 2.7484970092773438 0.07500000298023224
v -3.3385820388793945 2.6910946369171143 0.07500000298023224
v -3.3060660362243652 2.6424310207366943 0.07500000298023224
v -3.2574024200439453 2.609915256500244 0.07500000298023224
v -3.200000047683716 2.598497152328491 0.07500000298023224
v 3.299999952316284 2.598497152328491 0.07500000298023224
v 3.3574025630950928 2.609915256500244 0.07500000298023224
v 3.4060659408569336 2.6424310207366943 0.07500000298023224
v 3.438581943511963 2.6910946369171143 0.07500000298023224
v 3.450000047683716 2.7484970092773438 0.07500000298023224
v 3.438581943511963 2.8058996200561523 0.07500000298023224
v 3.4060659408569336 2.854562997817993 0.07500000298023224
v 3.3574025630950928 2.8870790004730225 0.07500000298023224
v 3.299999952316284 2.8984971046447754 0.07500000298023224
v -3.200000047683716 2.598497152328491 0.0
v -3.2574024200439453 2.609915256500244 0.0
v -3.3060660362243652 2.6424310207366943 0.0
v -3.3385820388793945 2.6910946369171143 0.0
v -3.3499999046325684 2.7484970092773438 0.0
v -3.3385820388793945 2.8058996200561523 0.0
v -3.3060660362243652 2.854562997817993 0.0
v -3.2574024200439453 2.8870790004730225 0.0
v -3.200000047683716 2.8984971046447754 0.0
v 3.299999952316284 2.8984971046447754 0.0
v 3.3574025630950928 2.8870790004730225 0.0
v 3.4060659408569336 2.854562997817993 0.0
v 3.438581943511963 2.8058996200561523 0.0
v 3.450000047683716 2.7484970092773438 0.0
v 3.438581943511963 2.6910946369171143 0.0
v 3.4060659408569336 2.6424310207366943 0.0
v 3.3574025630950928 2.609915256500244 0.0
v 3.299999952316284 2.598497152328491 0.0
vn 0.0 1.0 -0.0
vn 0.0 1.0 -0.0
vn 0.0 1.0 -0.0
vn 0.0 1.0 -0.0
vn 0.0 -1.0 -0.0
vn 0.3826834261417389 -0.9238795042037964 -0.0
vn 0.7071067690849304 -0.7071067690849304 -0.0
vn 0.9238795042037964 -0.3826834261417389 -0.0
vn 1.0 -6.123234262925839e-17 -0.0
vn 0.9238795042037964 0.3826834261417389 -0.0
vn 0.7071067690849304 0.7071067690849304 -0.0
vn 0.3826834261417389 0.9238795042037964 -0.0
vn 1.2246468525851679e-16 1.0 -0.0
vn 1.2246468525851679e-16 1.0 -0.0
vn 0.3826834261417389 0.9238795042037964 -0.0
vn 0.7071067690849304 0.7071067690849304 -0.0
vn 0.9238795042037964 0.3826834261417389 -0.0
vn 1.0 -6.123234262925839e-17 -0.0
vn 0.9238795042037964 -0.3826834261417389 -0.0
vn 0.7071067690849304 -0.7071067690849304 -0.0
vn 0.3826834261417389 -0.9238795042037964 -0.0
vn 0.0 -1.0 -0.0
vn 0.0 -1.0 0.0
vn 0.0 -1.0 0.0
vn 0.0 -1.0 0.0
vn 0.0 -1.0 0.0
vn -0.0 1.0 -0.0
vn -0.3826834261417389 0.9238795042037964 -0.0
vn -0.7071067690849304 0.7071067690849304 -0.0
vn -0.9238795042037964 0.3826834261417389 -0.0
vn -1.0 6.123234262925839e-17 -0.0
vn -0.9238795042037964 -0.3826834261417389 0.0
vn -0.7071067690849304 -0.7071067690849304 0.0
vn -0.3826834261417389 -0.9238795042037964 0.0
vn -1.2246468525851679e-16 -1.0 0.0
vn -1.2246468525851679e-16 -1.0 0.0
vn -0.3826834261417389 -0.9238795042037964 0.0
vn -0.7071067690849304 -0.7071067690849304 0.0
vn -0.9238795042037964 -0.3826834261417389 0.0
vn -1.0 6.123234262925839e-17 -0.0
vn -0.9238795042037964 0.3826834261417389 -0.0
vn -0.7071067690849304 0.7071067690849304 -0.0
vn -0.3826834261417389 0.9238795042037964 -0.0
vn -0.0 1.0 -0.0
vn 0.0 0.0 1.0
vn 0.0 0.0 1.0
vn 0.0 0.0 1.0
vn 0.0 0.0 1.0
vn 0.0 0.0 1.0
vn 0.0 0.0 1.0
vn 0.0 0.0 1.0
vn 0.0 0.0 1.0
vn 0.0 0.0 1.0
vn 0.0 0.0 1.0
vn 0.0 0.0 1.0
vn 0.0 0.0 1.0
vn 0.0 0.0 1.0
vn 0.0 0.0 1.0
vn 0.0 0.0 1.0
vn 0.0 0.0 1.0
vn 0.0 0.0 1.0
vn 0.0 0.0 1.0
vn 0.0 -0.0 -1.0
vn 0.0 -0.0 -1.0
vn 0.0 -0.0 -1.0
vn 0.0 -0.0 -1.0
vn 0.0 -0.0 -1.0
vn 0.0 -0.0 -1.0
vn 0.0 -0.0 -1.0
vn 0.0 -0.0 -1.0
vn 0.0 -0.0 -1.0
vn 0.0 -0.0 -1.0
vn 0.0 -0.0 -1.0
vn 0.0 -0.0 -1.0
vn 0.0 -0.0 -1.0
vn 0.0 -0.0 -1.0
vn 0.0 -0.0 -1.0
vn 0.0 -0.0 -1.0
vn 0.0 -0.0 -1.0
vn 0.0 -0.0 -1.0
g 6082d74c-e303-11ea-9eca-54bf646e7e1f
f 1//1 2//2 4//4
f 4//4 2//2 3//3
g 60860b90-e303-11ea-90b1-54bf646e7e1f
f 22//22 5//5 21//21
f 21//21 5//5 6//6
f 21//21 6//6 20//20
f 20//20 6//6 7//7
f 20//20 7//7 19//19
f 19//19 7//7 8//8
f 19//19 8//8 18//18
f 18//18 8//8 9//9
f 18//18 9//9 17//17
f 17//17 9//9 10//10
f 17//17 10//10 16//16
f 16//16 10//10 11//11
f 16//16 11//11 15//15
f 15//15 11//11 12//12
f 15//15 12//12 14//14
f 14//14 12//12 13//13
g 608918dc-e303-11ea-8d52-54bf646e7e1f
f 23//23 24//24 26//26
f 26//26 24//24 25//25
g 608c4d34-e303-11ea-bd02-54bf646e7e1f
f 44//44 27//27 43//43
f 43//43 27//27 28//28
f 43//43 28//28 42//42
f 42//42 28//28 29//29
f 42//42 29//29 41//41
f 41//41 29//29 30//30
f 41//41 30//30 40//40
f 40//40 30//30 31//31
f 40//40 31//31 39//39
f 39//39 31//31 32//32
f 39//39 32//32 38//38
f 38//38 32//32 33//33
f 38//38 33//33 37//37
f 37//37 33//33 34//34
f 37//37 34//34 36//36
f 36//36 34//34 35//35
g 608f3362-e303-11ea-8e5a-54bf646e7e1f
f 46//46 47//47 45//45
f 45//45 47//47 48//48
f 45//45 48//48 49//49
f 50//50 53//53 49//49
f 49//49 53//53 54//54
f 49//49 54//54 45//45
f 45//45 54//54 58//58
f 45//45 58//58 62//62
f 62//62 58//58 59//59
f 62//62 59//59 60//60
f 50//50 51//51 53//53
f 53//53 51//51 52//52
f 55//55 56//56 54//54
f 54//54 56//56 57//57
f 54//54 57//57 58//58
f 60//60 61//61 62//62
g 6091f268-e303-11ea-82b5-54bf646e7e1f
f 64//64 65//65 63//63
f 63//63 65//65 66//66
f 63//63 66//66 67//67
f 68//68 71//71 67//67
f 67//67 71//71 72//72
f 67//67 72//72 63//63
f 63//63 72//72 76//76
f 63//63 76//76 80//80
f 80//80 76//76 77//77
f 80//80 77//77 78//78
f 68//68 69//69 71//71
f 71//71 69//69 70//70
f 73//73 74//74 72//72
f 72//72 74//74 75//75
f 72//72 75//75 76//76
f 78//78 79//79 80//80

# End of file