# WaveFront *.obj file
# Vertices: 24
# Triangles : 12

v -57.444580078125 0.0 -11.86960220336914
v -57.444580078125 0.0 12.13039779663086
v -57.444580078125 2.0 12.13039779663086
v -57.444580078125 2.0 -11.86960220336914
v -17.444580078125 0.0 -11.86960220336914
v -57.444580078125 0.0 -11.86960220336914
v -57.444580078125 2.0 -11.86960220336914
v -17.444580078125 2.0 -11.86960220336914
v -17.444580078125 0.0 12.13039779663086
v -17.444580078125 0.0 -11.86960220336914
v -17.444580078125 2.0 -11.86960220336914
v -17.444580078125 2.0 12.13039779663086
v -57.444580078125 0.0 12.13039779663086
v -17.444580078125 0.0 12.13039779663086
v -17.444580078125 2.0 12.13039779663086
v -57.444580078125 2.0 12.13039779663086
v -57.444580078125 2.0 12.13039779663086
v -17.444580078125 2.0 12.13039779663086
v -17.444580078125 2.0 -11.86960220336914
v -57.444580078125 2.0 -11.86960220336914
v -17.444580078125 0.0 12.13039779663086
v -57.444580078125 0.0 12.13039779663086
v -57.444580078125 0.0 -11.86960220336914
v -17.444580078125 0.0 -11.86960220336914
vn -1.0 0.0 0.0
vn -1.0 0.0 0.0
vn -1.0 0.0 0.0
vn -1.0 0.0 0.0
vn 0.0 0.0 -1.0
vn 0.0 0.0 -1.0
vn 0.0 0.0 -1.0
vn 0.0 0.0 -1.0
vn 1.0 0.0 0.0
vn 1.0 0.0 0.0
vn 1.0 0.0 0.0
vn 1.0 0.0 0.0
vn 0.0 -0.0 1.0
vn 0.0 -0.0 1.0
vn 0.0 -0.0 1.0
vn 0.0 -0.0 1.0
vn 0.0 1.0 0.0
vn 0.0 1.0 0.0
vn 0.0 1.0 0.0
vn 0.0 1.0 0.0
vn -0.0 -1.0 -0.0
vn -0.0 -1.0 -0.0
vn -0.0 -1.0 -0.0
vn -0.0 -1.0 -0.0
g b9e8d300-e303-11ea-b82f-54bf646e7e1f
f 1//1 2//2 4//4
f 4//4 2//2 3//3
g b9e8fa0c-e303-11ea-93d9-54bf646e7e1f
f 5//5 6//6 8//8
f 8//8 6//6 7//7
g b9e94838-e303-11ea-ad7b-54bf646e7e1f
f 9//9 10//10 12//12
f 12//12 10//10 11//11
g b9e96f46-e303-11ea-846e-54bf646e7e1f
f 13//13 14//14 16//16
f 16//16 14//14 15//15
g b9e9bd64-e303-11ea-ae22-54bf646e7e1f
f 18//18 19//19 17//17
f 17//17 19//19 20//20
g b9e9e468-e303-11ea-8769-54bf646e7e1f
f 21//21 22//22 24//24
f 24//24 22//22 23//23

# End of file