# WaveFront *.obj file
# Vertices: 88
# Triangles : 84

v -7.390345573425293 25.399999618530273 -16.651683807373047
v -7.191657066345215 26.011499404907227 -16.651683807373047
v -6.671484470367432 26.389427185058594 -16.651683807373047
v -6.028515338897705 26.389427185058594 -16.651683807373047
v -5.508342742919922 26.011499404907227 -16.651683807373047
v -5.309654235839844 25.399999618530273 -16.651683807373047
v -5.508342742919922 24.78849983215332 -16.651683807373047
v -6.028515338897705 24.410572052001953 -16.651683807373047
v -6.671484470367432 24.410572052001953 -16.651683807373047
v -7.191657066345215 24.78849983215332 -16.651683807373047
v -7.390345573425293 25.399999618530273 105.26831817626953
v -7.191657066345215 24.78849983215332 105.26831817626953
v -6.671484470367432 24.410572052001953 105.26831817626953
v -6.028515338897705 24.410572052001953 105.26831817626953
v -5.508342742919922 24.78849983215332 105.26831817626953
v -5.309654235839844 25.399999618530273 105.26831817626953
v -5.508342742919922 26.011499404907227 105.26831817626953
v -6.028515338897705 26.389427185058594 105.26831817626953
v -6.671484470367432 26.389427185058594 105.26831817626953
v -7.191657066345215 26.011499404907227 105.26831817626953
v -7.390345573425293 25.399999618530273 -16.651683807373047
v -7.390345573425293 25.399999618530273 105.26831817626953
v -7.619999885559082 25.399999618530273 -16.651683807373047
v -7.418391704559326 24.71338653564453 -16.651683807373047
v -6.87757682800293 24.244766235351562 -16.651683807373047
v -6.169260025024414 24.142927169799805 -16.651683807373047
v -5.518326759338379 24.440196990966797 -16.651683807373047
v -5.131443977355957 25.042200088500977 -16.651683807373047
v -5.131443977355957 25.75779914855957 -16.651683807373047
v -5.518326759338379 26.35980224609375 -16.651683807373047
v -6.169260025024414 26.657072067260742 -16.651683807373047
v -6.87757682800293 26.555233001708984 -16.651683807373047
v -7.418391704559326 26.086612701416016 -16.651683807373047
v -7.619999885559082 25.399999618530273 105.26831817626953
v -7.418391704559326 26.086612701416016 105.26831817626953
v -6.87757682800293 26.555233001708984 105.26831817626953
v -6.169260025024414 26.657072067260742 105.26831817626953
v -5.518326759338379 26.35980224609375 105.26831817626953
v -5.131443977355957 25.75779914855957 105.26831817626953
v -5.131443977355957 25.042200088500977 105.26831817626953
v -5.518326759338379 24.440196990966797 105.26831817626953
v -6.169260025024414 24.142927169799805 105.26831817626953
v -6.87757682800293 24.244766235351562 105.26831817626953
v -7.418391704559326 24.71338653564453 105.26831817626953
v -7.619999885559082 25.399999618530273 105.26831817626953
v -7.619999885559082 25.399999618530273 -16.651683807373047
v -7.390345573425293 25.399999618530273 105.26831817626953
v -7.191657066345215 26.011499404907227 105.26831817626953
v -6.671484470367432 26.389427185058594 105.26831817626953
v -6.028515338897705 26.389427185058594 105.26831817626953
v -5.508342742919922 26.011499404907227 105.26831817626953
v -5.309654235839844 25.399999618530273 105.26831817626953
v -5.508342742919922 24.78849983215332 105.26831817626953
v -6.028515338897705 24.410572052001953 105.26831817626953
v -6.671484470367432 24.410572052001953 105.26831817626953
v -7.191657066345215 24.78849983215332 105.26831817626953
v -7.619999885559082 25.399999618530273 105.26831817626953
v -7.418391704559326 24.71338653564453 105.26831817626953
v -6.87757682800293 24.244766235351562 105.26831817626953
v -6.169260025024414 24.142927169799805 105.26831817626953
v -5.518326759338379 24.440196990966797 105.26831817626953
v -5.131443977355957 25.042200088500977 105.26831817626953
v -5.131443977355957 25.75779914855957 105.26831817626953
v -5.518326759338379 26.35980224609375 105.26831817626953
v -6.169260025024414 26.657072067260742 105.26831817626953
v -6.87757682800293 26.555233001708984 105.26831817626953
v -7.418391704559326 26.086612701416016 105.26831817626953
v -7.390345573425293 25.399999618530273 -16.651683807373047
v -7.191657066345215 24.78849983215332 -16.651683807373047
v -6.671484470367432 24.410572052001953 -16.651683807373047
v -6.028515338897705 24.410572052001953 -16.651683807373047
v -5.508342742919922 24.78849983215332 -16.651683807373047
v -5.309654235839844 25.399999618530273 -16.651683807373047
v -5.508342742919922 26.011499404907227 -16.651683807373047
v -6.028515338897705 26.389427185058594 -16.651683807373047
v -6.671484470367432 26.389427185058594 -16.651683807373047
v -7.191657066345215 26.011499404907227 -16.651683807373047
v -7.619999885559082 25.399999618530273 -16.651683807373047
v -7.418391704559326 26.086612701416016 -16.651683807373047
v -6.87757682800293 26.555233001708984 -16.651683807373047
v -6.169260025024414 26.657072067260742 -16.651683807373047
v -5.518326759338379 26.35980224609375 -16.651683807373047
v -5.131443977355957 25.75779914855957 -16.651683807373047
v -5.131443977355957 25.042200088500977 -16.651683807373047
v -5.518326759338379 24.440196990966797 -16.651683807373047
v -6.169260025024414 24.142927169799805 -16.651683807373047
v -6.87757682800293 24.244766235351562 -16.651683807373047
v -7.418391704559326 24.71338653564453 -16.651683807373047
vn 1.0 -1.2246468525851679e-16 2.9139713478226146e-17
vn 0.80901700258255 -0.5877852439880371 2.357452172630818e-17
vn 0.30901700258255005 -0.9510565400123596 9.00466581437572e-18
vn -0.30901700258255005 -0.9510565400123596 -9.00466581437572e-18
vn -0.80901700258255 -0.5877852439880371 -2.357452172630818e-17
vn -1.0 -0.0 -2.9139713478226146e-17
vn -0.80901700258255 0.5877852439880371 -2.357452172630818e-17
vn -0.30901700258255005 0.9510565400123596 -9.00466581437572e-18
vn 0.30901700258255005 0.9510565400123596 9.00466581437572e-18
vn 0.80901700258255 0.5877852439880371 2.357452172630818e-17
vn 1.0 1.2246468525851679e-16 2.9139713478226146e-17
vn 0.80901700258255 0.5877852439880371 2.357452172630818e-17
vn 0.30901700258255005 0.9510565400123596 9.00466581437572e-18
vn -0.30901700258255005 0.9510565400123596 -9.00466581437572e-18
vn -0.80901700258255 0.5877852439880371 -2.357452172630818e-17
vn -1.0 -0.0 -2.9139713478226146e-17
vn -0.80901700258255 -0.5877852439880371 -2.357452172630818e-17
vn -0.30901700258255005 -0.9510565400123596 -9.00466581437572e-18
vn 0.30901700258255005 -0.9510565400123596 9.00466581437572e-18
vn 0.80901700258255 -0.5877852439880371 2.357452172630818e-17
vn 1.0 1.2246468525851679e-16 2.9139713478226146e-17
vn 1.0 -1.2246468525851679e-16 2.9139713478226146e-17
vn -1.0 -1.2246468525851679e-16 -2.9139713478226146e-17
vn -0.8412535190582275 -0.5406408309936523 -2.4513886227896875e-17
vn -0.4154150187969208 -0.9096319675445557 -1.2105073580664314e-17
vn 0.1423148363828659 -0.9898214340209961 4.147013339162644e-18
vn 0.6548607349395752 -0.7557495832443237 1.9082452889751185e-17
vn 0.9594929814338684 -0.28173255920410156 2.7959349905170127e-17
vn 0.9594929814338684 0.28173255920410156 2.7959349905170127e-17
vn 0.6548607349395752 0.7557495832443237 1.9082452889751185e-17
vn 0.1423148363828659 0.9898214340209961 4.147013339162644e-18
vn -0.4154150187969208 0.9096319675445557 -1.2105073580664314e-17
vn -0.8412535190582275 0.5406408309936523 -2.4513886227896875e-17
vn -1.0 1.2246468525851679e-16 -2.9139713478226146e-17
vn -0.8412535190582275 0.5406408309936523 -2.4513886227896875e-17
vn -0.4154150187969208 0.9096319675445557 -1.2105073580664314e-17
vn 0.1423148363828659 0.9898214340209961 4.147013339162644e-18
vn 0.6548607349395752 0.7557495832443237 1.9082452889751185e-17
vn 0.9594929814338684 0.28173255920410156 2.7959349905170127e-17
vn 0.9594929814338684 -0.28173255920410156 2.7959349905170127e-17
vn 0.6548607349395752 -0.7557495832443237 1.9082452889751185e-17
vn 0.1423148363828659 -0.9898214340209961 4.147013339162644e-18
vn -0.4154150187969208 -0.9096319675445557 -1.2105073580664314e-17
vn -0.8412535190582275 -0.5406408309936523 -2.4513886227896875e-17
vn -1.0 -1.2246468525851679e-16 -2.9139713478226146e-17
vn -1.0 1.2246468525851679e-16 -2.9139713478226146e-17
vn -2.7755575615628914e-17 0.0 1.0
vn -2.7755575615628914e-17 0.0 1.0
vn -2.7755575615628914e-17 0.0 1.0
vn -2.7755575615628914e-17 0.0 1.0
vn -2.7755575615628914e-17 0.0 1.0
vn -2.7755575615628914e-17 0.0 1.0
vn -2.7755575615628914e-17 0.0 1.0
vn -2.7755575615628914e-17 0.0 1.0
vn -2.7755575615628914e-17 0.0 1.0
vn -2.7755575615628914e-17 0.0 1.0
vn -2.7755575615628914e-17 0.0 1.0
vn -2.7755575615628914e-17 0.0 1.0
vn -2.7755575615628914e-17 0.0 1.0
vn -2.7755575615628914e-17 0.0 1.0
vn -2.7755575615628914e-17 0.0 1.0
vn -2.7755575615628914e-17 0.0 1.0
vn -2.7755575615628914e-17 0.0 1.0
vn -2.7755575615628914e-17 0.0 1.0
vn -2.7755575615628914e-17 0.0 1.0
vn -2.7755575615628914e-17 0.0 1.0
vn -2.7755575615628914e-17 0.0 1.0
vn 2.7755575615628914e-17 -0.0 -1.0
vn 2.7755575615628914e-17 -0.0 -1.0
vn 2.7755575615628914e-17 -0.0 -1.0
vn 2.7755575615628914e-17 -0.0 -1.0
vn 2.7755575615628914e-17 -0.0 -1.0
vn 2.7755575615628914e-17 -0.0 -1.0
vn 2.7755575615628914e-17 -0.0 -1.0
vn 2.7755575615628914e-17 -0.0 -1.0
vn 2.7755575615628914e-17 -0.0 -1.0
vn 2.7755575615628914e-17 -0.0 -1.0
vn 2.7755575615628914e-17 -0.0 -1.0
vn 2.7755575615628914e-17 -0.0 -1.0
vn 2.7755575615628914e-17 -0.0 -1.0
vn 2.7755575615628914e-17 -0.0 -1.0
vn 2.7755575615628914e-17 -0.0 -1.0
vn 2.7755575615628914e-17 -0.0 -1.0
vn 2.7755575615628914e-17 -0.0 -1.0
vn 2.7755575615628914e-17 -0.0 -1.0
vn 2.7755575615628914e-17 -0.0 -1.0
vn 2.7755575615628914e-17 -0.0 -1.0
vn 2.7755575615628914e-17 -0.0 -1.0
g 0b3a3d2c-e305-11ea-8091-54bf646e7e1f
f 2//2 20//20 1//1
f 1//1 20//20 22//22
f 21//21 11//11 10//10
f 10//10 11//11 12//12
f 10//10 12//12 9//9
f 9//9 12//12 13//13
f 9//9 13//13 8//8
f 8//8 13//13 14//14
f 8//8 14//14 7//7
f 7//7 14//14 15//15
f 7//7 15//15 6//6
f 6//6 15//15 16//16
f 6//6 16//16 5//5
f 5//5 16//16 17//17
f 5//5 17//17 4//4
f 4//4 17//17 18//18
f 4//4 18//18 3//3
f 3//3 18//18 19//19
f 3//3 19//19 2//2
f 2//2 19//19 20//20
g 0afee774-e305-11ea-b8de-54bf646e7e1f
f 24//24 44//44 23//23
f 23//23 44//44 45//45
f 46//46 34//34 33//33
f 33//33 34//34 35//35
f 33//33 35//35 32//32
f 32//32 35//35 36//36
f 32//32 36//36 31//31
f 31//31 36//36 37//37
f 31//31 37//37 30//30
f 30//30 37//37 38//38
f 30//30 38//38 29//29
f 29//29 38//38 39//39
f 29//29 39//39 28//28
f 28//28 39//39 40//40
f 28//28 40//40 27//27
f 27//27 40//40 41//41
f 27//27 41//41 26//26
f 26//26 41//41 42//42
f 26//26 42//42 25//25
f 25//25 42//42 43//43
f 25//25 43//43 24//24
f 24//24 43//43 44//44
g 0aff0e7a-e305-11ea-99e6-54bf646e7e1f
f 48//48 67//67 47//47
f 47//47 67//67 57//57
f 47//47 57//57 58//58
f 67//67 48//48 66//66
f 66//66 48//48 49//49
f 66//66 49//49 65//65
f 65//65 49//49 50//50
f 65//65 50//50 64//64
f 64//64 50//50 51//51
f 64//64 51//51 63//63
f 63//63 51//51 52//52
f 63//63 52//52 62//62
f 62//62 52//52 53//53
f 62//62 53//53 61//61
f 61//61 53//53 54//54
f 61//61 54//54 60//60
f 60//60 54//54 55//55
f 60//60 55//55 59//59
f 59//59 55//55 56//56
f 59//59 56//56 58//58
f 58//58 56//56 47//47
g 0aff5c9a-e305-11ea-8d0e-54bf646e7e1f
f 69//69 88//88 68//68
f 68//68 88//88 78//78
f 68//68 78//78 79//79
f 88//88 69//69 87//87
f 87//87 69//69 70//70
f 87//87 70//70 86//86
f 86//86 70//70 71//71
f 86//86 71//71 85//85
f 85//85 71//71 72//72
f 85//85 72//72 84//84
f 84//84 72//72 73//73
f 84//84 73//73 83//83
f 83//83 73//73 74//74
f 83//83 74//74 82//82
f 82//82 74//74 75//75
f 82//82 75//75 81//81
f 81//81 75//75 76//76
f 81//81 76//76 80//80
f 80//80 76//76 77//77
f 80//80 77//77 79//79
f 79//79 77//77 68//68

# End of file