# WaveFront *.obj file
# Vertices: 46
# Triangles : 40

v -7.619999885559082 25.399999618530273 -16.651683807373047
v -7.418391704559326 24.71338653564453 -16.651683807373047
v -6.87757682800293 24.244766235351562 -16.651683807373047
v -6.169260025024414 24.142927169799805 -16.651683807373047
v -5.518326759338379 24.440196990966797 -16.651683807373047
v -5.131443977355957 25.042200088500977 -16.651683807373047
v -5.131443977355957 25.75779914855957 -16.651683807373047
v -5.518326759338379 26.35980224609375 -16.651683807373047
v -6.169260025024414 26.657072067260742 -16.651683807373047
v -6.87757682800293 26.555233001708984 -16.651683807373047
v -7.418391704559326 26.086612701416016 -16.651683807373047
v -7.619999885559082 25.399999618530273 105.26831817626953
v -7.418391704559326 26.086612701416016 105.26831817626953
v -6.87757682800293 26.555233001708984 105.26831817626953
v -6.169260025024414 26.657072067260742 105.26831817626953
v -5.518326759338379 26.35980224609375 105.26831817626953
v -5.131443977355957 25.75779914855957 105.26831817626953
v -5.131443977355957 25.042200088500977 105.26831817626953
v -5.518326759338379 24.440196990966797 105.26831817626953
v -6.169260025024414 24.142927169799805 105.26831817626953
v -6.87757682800293 24.244766235351562 105.26831817626953
v -7.418391704559326 24.71338653564453 105.26831817626953
v -7.619999885559082 25.399999618530273 105.26831817626953
v -7.619999885559082 25.399999618530273 -16.651683807373047
v -7.619999885559082 25.399999618530273 105.26831817626953
v -7.418391704559326 24.71338653564453 105.26831817626953
v -6.87757682800293 24.244766235351562 105.26831817626953
v -6.169260025024414 24.142927169799805 105.26831817626953
v -5.518326759338379 24.440196990966797 105.26831817626953
v -5.131443977355957 25.042200088500977 105.26831817626953
v -5.131443977355957 25.75779914855957 105.26831817626953
v -5.518326759338379 26.35980224609375 105.26831817626953
v -6.169260025024414 26.657072067260742 105.26831817626953
v -6.87757682800293 26.555233001708984 105.26831817626953
v -7.418391704559326 26.086612701416016 105.26831817626953
v -7.619999885559082 25.399999618530273 -16.651683807373047
v -7.418391704559326 26.086612701416016 -16.651683807373047
v -6.87757682800293 26.555233001708984 -16.651683807373047
v -6.169260025024414 26.657072067260742 -16.651683807373047
v -5.518326759338379 26.35980224609375 -16.651683807373047
v -5.131443977355957 25.75779914855957 -16.651683807373047
v -5.131443977355957 25.042200088500977 -16.651683807373047
v -5.518326759338379 24.440196990966797 -16.651683807373047
v -6.169260025024414 24.142927169799805 -16.651683807373047
v -6.87757682800293 24.244766235351562 -16.651683807373047
v -7.418391704559326 24.71338653564453 -16.651683807373047
vn -1.0 -1.2246468525851679e-16 -2.9139713478226146e-17
vn -0.8412535190582275 -0.5406408309936523 -2.4513886227896875e-17
vn -0.4154150187969208 -0.9096319675445557 -1.2105073580664314e-17
vn 0.1423148363828659 -0.9898214340209961 4.147013339162644e-18
vn 0.6548607349395752 -0.7557495832443237 1.9082452889751185e-17
vn 0.9594929814338684 -0.28173255920410156 2.7959349905170127e-17
vn 0.9594929814338684 0.28173255920410156 2.7959349905170127e-17
vn 0.6548607349395752 0.7557495832443237 1.9082452889751185e-17
vn 0.1423148363828659 0.9898214340209961 4.147013339162644e-18
vn -0.4154150187969208 0.9096319675445557 -1.2105073580664314e-17
vn -0.8412535190582275 0.5406408309936523 -2.4513886227896875e-17
vn -1.0 1.2246468525851679e-16 -2.9139713478226146e-17
vn -0.8412535190582275 0.5406408309936523 -2.4513886227896875e-17
vn -0.4154150187969208 0.9096319675445557 -1.2105073580664314e-17
vn 0.1423148363828659 0.9898214340209961 4.147013339162644e-18
vn 0.6548607349395752 0.7557495832443237 1.9082452889751185e-17
vn 0.9594929814338684 0.28173255920410156 2.7959349905170127e-17
vn 0.9594929814338684 -0.28173255920410156 2.7959349905170127e-17
vn 0.6548607349395752 -0.7557495832443237 1.9082452889751185e-17
vn 0.1423148363828659 -0.9898214340209961 4.147013339162644e-18
vn -0.4154150187969208 -0.9096319675445557 -1.2105073580664314e-17
vn -0.8412535190582275 -0.5406408309936523 -2.4513886227896875e-17
vn -1.0 -1.2246468525851679e-16 -2.9139713478226146e-17
vn -1.0 1.2246468525851679e-16 -2.9139713478226146e-17
vn -2.7755575615628914e-17 0.0 1.0
vn -2.7755575615628914e-17 0.0 1.0
vn -2.7755575615628914e-17 0.0 1.0
vn -2.7755575615628914e-17 0.0 1.0
vn -2.7755575615628914e-17 0.0 1.0
vn -2.7755575615628914e-17 0.0 1.0
vn -2.7755575615628914e-17 0.0 1.0
vn -2.7755575615628914e-17 0.0 1.0
vn -2.7755575615628914e-17 0.0 1.0
vn -2.7755575615628914e-17 0.0 1.0
vn -2.7755575615628914e-17 0.0 1.0
vn 2.7755575615628914e-17 -0.0 -1.0
vn 2.7755575615628914e-17 -0.0 -1.0
vn 2.7755575615628914e-17 -0.0 -1.0
vn 2.7755575615628914e-17 -0.0 -1.0
vn 2.7755575615628914e-17 -0.0 -1.0
vn 2.7755575615628914e-17 -0.0 -1.0
vn 2.7755575615628914e-17 -0.0 -1.0
vn 2.7755575615628914e-17 -0.0 -1.0
vn 2.7755575615628914e-17 -0.0 -1.0
vn 2.7755575615628914e-17 -0.0 -1.0
vn 2.7755575615628914e-17 -0.0 -1.0
g 0afee774-e305-11ea-b8de-54bf646e7e1f
f 2//2 22//22 1//1
f 1//1 22//22 23//23
f 24//24 12//12 11//11
f 11//11 12//12 13//13
f 11//11 13//13 10//10
f 10//10 13//13 14//14
f 10//10 14//14 9//9
f 9//9 14//14 15//15
f 9//9 15//15 8//8
f 8//8 15//15 16//16
f 8//8 16//16 7//7
f 7//7 16//16 17//17
f 7//7 17//17 6//6
f 6//6 17//17 18//18
f 6//6 18//18 5//5
f 5//5 18//18 19//19
f 5//5 19//19 4//4
f 4//4 19//19 20//20
f 4//4 20//20 3//3
f 3//3 20//20 21//21
f 3//3 21//21 2//2
f 2//2 21//21 22//22
g 0aff0e7a-e305-11ea-99e6-54bf646e7e1f
f 25//25 26//26 35//35
f 35//35 26//26 34//34
f 34//34 26//26 27//27
f 34//34 27//27 33//33
f 33//33 27//27 28//28
f 33//33 28//28 32//32
f 32//32 28//28 29//29
f 32//32 29//29 31//31
f 31//31 29//29 30//30
g 0aff5c9a-e305-11ea-8d0e-54bf646e7e1f
f 36//36 37//37 46//46
f 46//46 37//37 38//38
f 46//46 38//38 45//45
f 45//45 38//38 39//39
f 45//45 39//39 44//44
f 44//44 39//39 40//40
f 44//44 40//40 43//43
f 43//43 40//40 41//41
f 43//43 41//41 42//42

# End of file