# WaveFront *.obj file
# Vertices: 24
# Triangles : 12

v 0.0 0.0 0.0
v 0.0 0.0 182.8800048828125
v 0.0 0.25 182.8800048828125
v 0.0 0.25 0.0
v 182.3800048828125 0.0 0.0
v 0.0 0.0 0.0
v 0.0 0.25 0.0
v 182.3800048828125 0.25 0.0
v 182.3800048828125 0.0 182.8800048828125
v 182.3800048828125 0.0 0.0
v 182.3800048828125 0.25 0.0
v 182.3800048828125 0.25 182.8800048828125
v 0.0 0.0 182.8800048828125
v 182.3800048828125 0.0 182.8800048828125
v 182.3800048828125 0.25 182.8800048828125
v 0.0 0.25 182.8800048828125
v 0.0 0.25 182.8800048828125
v 182.3800048828125 0.25 182.8800048828125
v 182.3800048828125 0.25 0.0
v 0.0 0.25 0.0
v 182.3800048828125 0.0 182.8800048828125
v 0.0 0.0 182.8800048828125
v 0.0 0.0 0.0
v 182.3800048828125 0.0 0.0
vn -1.0 0.0 0.0
vn -1.0 0.0 0.0
vn -1.0 0.0 0.0
vn -1.0 0.0 0.0
vn 0.0 0.0 -1.0
vn 0.0 0.0 -1.0
vn 0.0 0.0 -1.0
vn 0.0 0.0 -1.0
vn 1.0 0.0 0.0
vn 1.0 0.0 0.0
vn 1.0 0.0 0.0
vn 1.0 0.0 0.0
vn 0.0 -0.0 1.0
vn 0.0 -0.0 1.0
vn 0.0 -0.0 1.0
vn 0.0 -0.0 1.0
vn 0.0 1.0 0.0
vn 0.0 1.0 0.0
vn 0.0 1.0 0.0
vn 0.0 1.0 0.0
vn -0.0 -1.0 -0.0
vn -0.0 -1.0 -0.0
vn -0.0 -1.0 -0.0
vn -0.0 -1.0 -0.0
g 5a133d8a-e309-11ea-b2fb-54bf646e7e1f
f 1//1 2//2 4//4
f 4//4 2//2 3//3
g 5a149d14-e309-11ea-8b6a-54bf646e7e1f
f 5//5 6//6 8//8
f 8//8 6//6 7//7
g 5a16239a-e309-11ea-9b2a-54bf646e7e1f
f 9//9 10//10 12//12
f 12//12 10//10 11//11
g 5a17d12e-e309-11ea-8dbd-54bf646e7e1f
f 13//13 14//14 16//16
f 16//16 14//14 15//15
g 5a1957d2-e309-11ea-a48c-54bf646e7e1f
f 18//18 19//19 17//17
f 17//17 19//19 20//20
g 5a1b0578-e309-11ea-b65d-54bf646e7e1f
f 21//21 22//22 24//24
f 24//24 22//22 23//23

# End of file