# WaveFront *.obj file
# Vertices: 152
# Triangles : 140

v 5.43301248550415 -0.5098076462745667 0.0
v 5.447867393493652 -0.44472506642341614 0.0
v 5.4894890785217285 -0.3925328850746155 0.0
v 5.5496344566345215 -0.36356842517852783 0.0
v 5.616390705108643 -0.36356842517852783 0.0
v 5.6765360832214355 -0.3925328850746155 0.0
v 5.71815824508667 -0.44472506642341614 0.0
v 5.733012676239014 -0.5098076462745667 0.0
v 5.71815824508667 -0.5748901963233948 0.0
v 5.6765360832214355 -0.627082347869873 0.0
v 5.616390705108643 -0.6560468077659607 0.0
v 5.5496344566345215 -0.6560468077659607 0.0
v 5.4894890785217285 -0.627082347869873 0.0
v 5.447867393493652 -0.5748901963233948 0.0
v 5.43301248550415 -0.5098076462745667 0.800000011920929
v 5.447867393493652 -0.5748901963233948 0.800000011920929
v 5.4894890785217285 -0.627082347869873 0.800000011920929
v 5.5496344566345215 -0.6560468077659607 0.800000011920929
v 5.616390705108643 -0.6560468077659607 0.800000011920929
v 5.6765360832214355 -0.627082347869873 0.800000011920929
v 5.71815824508667 -0.5748901963233948 0.800000011920929
v 5.733012676239014 -0.5098076462745667 0.800000011920929
v 5.71815824508667 -0.44472506642341614 0.800000011920929
v 5.6765360832214355 -0.3925328850746155 0.800000011920929
v 5.616390705108643 -0.36356842517852783 0.800000011920929
v 5.5496344566345215 -0.36356842517852783 0.800000011920929
v 5.4894890785217285 -0.3925328850746155 0.800000011920929
v 5.447867393493652 -0.44472506642341614 0.800000011920929
v 5.43301248550415 -0.5098076462745667 0.0
v 5.43301248550415 -0.5098076462745667 0.800000011920929
v 7.165063381195068 -1.5098075866699219 0.0
v 7.17991828918457 -1.4447250366210938 0.0
v 7.2215399742126465 -1.3925329446792603 0.0
v 7.2816853523254395 -1.3635684251785278 0.0
v 7.3484416007995605 -1.3635684251785278 0.0
v 7.4085869789123535 -1.3925329446792603 0.0
v 7.45020866394043 -1.4447250366210938 0.0
v 7.465063571929932 -1.5098075866699219 0.0
v 7.45020866394043 -1.57489013671875 0.0
v 7.4085869789123535 -1.627082347869873 0.0
v 7.3484416007995605 -1.6560468673706055 0.0
v 7.2816853523254395 -1.6560468673706055 0.0
v 7.2215399742126465 -1.627082347869873 0.0
v 7.17991828918457 -1.57489013671875 0.0
v 7.165063381195068 -1.5098075866699219 0.800000011920929
v 7.17991828918457 -1.57489013671875 0.800000011920929
v 7.2215399742126465 -1.627082347869873 0.800000011920929
v 7.2816853523254395 -1.6560468673706055 0.800000011920929
v 7.3484416007995605 -1.6560468673706055 0.800000011920929
v 7.4085869789123535 -1.627082347869873 0.800000011920929
v 7.45020866394043 -1.57489013671875 0.800000011920929
v 7.465063571929932 -1.5098075866699219 0.800000011920929
v 7.45020866394043 -1.4447250366210938 0.800000011920929
v 7.4085869789123535 -1.3925329446792603 0.800000011920929
v 7.3484416007995605 -1.3635684251785278 0.800000011920929
v 7.2816853523254395 -1.3635684251785278 0.800000011920929
v 7.2215399742126465 -1.3925329446792603 0.800000011920929
v 7.17991828918457 -1.4447250366210938 0.800000011920929
v 7.165063381195068 -1.5098075866699219 0.0
v 7.165063381195068 -1.5098075866699219 0.800000011920929
v 0.0 0.0 0.0
v 0.0 -0.6000000238418579 0.0
v 0.0 -0.6000000238418579 0.800000011920929
v 0.0 0.0 0.800000011920929
v 5.300000190734863 0.0 0.0
v 0.0 0.0 0.0
v 0.0 0.0 0.800000011920929
v 5.300000190734863 0.0 0.800000011920929
v 7.898076057434082 -1.5 0.0
v 5.300000190734863 0.0 0.0
v 5.300000190734863 0.0 0.800000011920929
v 7.898076057434082 -1.5 0.800000011920929
v 7.598076343536377 -2.0196151733398438 0.0
v 7.898076057434082 -1.5 0.0
v 7.898076057434082 -1.5 0.800000011920929
v 7.598076343536377 -2.0196151733398438 0.800000011920929
v 5.139230251312256 -0.6000000238418579 0.0
v 7.598076343536377 -2.0196151733398438 0.0
v 7.598076343536377 -2.0196151733398438 0.800000011920929
v 5.139230251312256 -0.6000000238418579 0.800000011920929
v 0.0 -0.6000000238418579 0.0
v 5.139230251312256 -0.6000000238418579 0.0
v 5.139230251312256 -0.6000000238418579 0.800000011920929
v 0.0 -0.6000000238418579 0.800000011920929
v 5.43301248550415 -0.5098076462745667 0.800000011920929
v 5.447867393493652 -0.44472506642341614 0.800000011920929
v 5.4894890785217285 -0.3925328850746155 0.800000011920929
v 5.5496344566345215 -0.36356842517852783 0.800000011920929
v 5.616390705108643 -0.36356842517852783 0.800000011920929
v 5.6765360832214355 -0.3925328850746155 0.800000011920929
v 5.71815824508667 -0.44472506642341614 0.800000011920929
v 5.733012676239014 -0.5098076462745667 0.800000011920929
v 5.71815824508667 -0.5748901963233948 0.800000011920929
v 5.6765360832214355 -0.627082347869873 0.800000011920929
v 5.616390705108643 -0.6560468077659607 0.800000011920929
v 5.5496344566345215 -0.6560468077659607 0.800000011920929
v 5.4894890785217285 -0.627082347869873 0.800000011920929
v 5.447867393493652 -0.5748901963233948 0.800000011920929
v 7.165063381195068 -1.5098075866699219 0.800000011920929
v 7.17991828918457 -1.4447250366210938 0.800000011920929
v 7.2215399742126465 -1.3925329446792603 0.800000011920929
v 7.2816853523254395 -1.3635684251785278 0.800000011920929
v 7.3484416007995605 -1.3635684251785278 0.800000011920929
v 7.4085869789123535 -1.3925329446792603 0.800000011920929
v 7.45020866394043 -1.4447250366210938 0.800000011920929
v 7.465063571929932 -1.5098075866699219 0.800000011920929
v 7.45020866394043 -1.57489013671875 0.800000011920929
v 7.4085869789123535 -1.627082347869873 0.800000011920929
v 7.3484416007995605 -1.6560468673706055 0.800000011920929
v 7.2816853523254395 -1.6560468673706055 0.800000011920929
v 7.2215399742126465 -1.627082347869873 0.800000011920929
v 7.17991828918457 -1.57489013671875 0.800000011920929
v 0.0 -0.6000000238418579 0.800000011920929
v 5.139230251312256 -0.6000000238418579 0.800000011920929
v 7.598076343536377 -2.0196151733398438 0.800000011920929
v 7.898076057434082 -1.5 0.800000011920929
v 5.300000190734863 0.0 0.800000011920929
v 0.0 0.0 0.800000011920929
v 5.43301248550415 -0.5098076462745667 0.0
v 5.447867393493652 -0.5748901963233948 0.0
v 5.4894890785217285 -0.627082347869873 0.0
v 5.5496344566345215 -0.6560468077659607 0.0
v 5.616390705108643 -0.6560468077659607 0.0
v 5.6765360832214355 -0.627082347869873 0.0
v 5.71815824508667 -0.5748901963233948 0.0
v 5.733012676239014 -0.5098076462745667 0.0
v 5.71815824508667 -0.44472506642341614 0.0
v 5.6765360832214355 -0.3925328850746155 0.0
v 5.616390705108643 -0.36356842517852783 0.0
v 5.5496344566345215 -0.36356842517852783 0.0
v 5.4894890785217285 -0.3925328850746155 0.0
v 5.447867393493652 -0.44472506642341614 0.0
v 7.165063381195068 -1.5098075866699219 0.0
v 7.17991828918457 -1.57489013671875 0.0
v 7.2215399742126465 -1.627082347869873 0.0
v 7.2816853523254395 -1.6560468673706055 0.0
v 7.3484416007995605 -1.6560468673706055 0.0
v 7.4085869789123535 -1.627082347869873 0.0
v 7.45020866394043 -1.57489013671875 0.0
v 7.465063571929932 -1.5098075866699219 0.0
v 7.45020866394043 -1.4447250366210938 0.0
v 7.4085869789123535 -1.3925329446792603 0.0
v 7.3484416007995605 -1.3635684251785278 0.0
v 7.2816853523254395 -1.3635684251785278 0.0
v 7.2215399742126465 -1.3925329446792603 0.0
v 7.17991828918457 -1.4447250366210938 0.0
v 5.139230251312256 -0.6000000238418579 0.0
v 0.0 -0.6000000238418579 0.0
v 0.0 0.0 0.0
v 5.300000190734863 0.0 0.0
v 7.898076057434082 -1.5 0.0
v 7.598076343536377 -2.0196151733398438 0.0
vn 1.0 -1.2246468525851679e-16 0.0
vn 0.9009688496589661 -0.4338837265968323 0.0
vn 0.6234897971153259 -0.7818315029144287 0.0
vn 0.22252093255519867 -0.9749279022216797 0.0
vn -0.22252093255519867 -0.9749279022216797 -0.0
vn -0.6234897971153259 -0.7818315029144287 -0.0
vn -0.9009688496589661 -0.4338837265968323 -0.0
vn -1.0 -0.0 -0.0
vn -0.9009688496589661 0.4338837265968323 0.0
vn -0.6234897971153259 0.7818315029144287 0.0
vn -0.22252093255519867 0.9749279022216797 0.0
vn 0.22252093255519867 0.9749279022216797 0.0
vn 0.6234897971153259 0.7818315029144287 0.0
vn 0.9009688496589661 0.4338837265968323 0.0
vn 1.0 1.2246468525851679e-16 0.0
vn 0.9009688496589661 0.4338837265968323 0.0
vn 0.6234897971153259 0.7818315029144287 0.0
vn 0.22252093255519867 0.9749279022216797 0.0
vn -0.22252093255519867 0.9749279022216797 0.0
vn -0.6234897971153259 0.7818315029144287 0.0
vn -0.9009688496589661 0.4338837265968323 0.0
vn -1.0 -0.0 -0.0
vn -0.9009688496589661 -0.4338837265968323 -0.0
vn -0.6234897971153259 -0.7818315029144287 -0.0
vn -0.22252093255519867 -0.9749279022216797 -0.0
vn 0.22252093255519867 -0.9749279022216797 0.0
vn 0.6234897971153259 -0.7818315029144287 0.0
vn 0.9009688496589661 -0.4338837265968323 0.0
vn 1.0 1.2246468525851679e-16 0.0
vn 1.0 -1.2246468525851679e-16 0.0
vn 1.0 -1.2246468525851679e-16 0.0
vn 0.9009688496589661 -0.4338837265968323 0.0
vn 0.6234897971153259 -0.7818315029144287 0.0
vn 0.22252093255519867 -0.9749279022216797 0.0
vn -0.22252093255519867 -0.9749279022216797 -0.0
vn -0.6234897971153259 -0.7818315029144287 -0.0
vn -0.9009688496589661 -0.4338837265968323 -0.0
vn -1.0 -0.0 -0.0
vn -0.9009688496589661 0.4338837265968323 0.0
vn -0.6234897971153259 0.7818315029144287 0.0
vn -0.22252093255519867 0.9749279022216797 0.0
vn 0.22252093255519867 0.9749279022216797 0.0
vn 0.6234897971153259 0.7818315029144287 0.0
vn 0.9009688496589661 0.4338837265968323 0.0
vn 1.0 1.2246468525851679e-16 0.0
vn 0.9009688496589661 0.4338837265968323 0.0
vn 0.6234897971153259 0.7818315029144287 0.0
vn 0.22252093255519867 0.9749279022216797 0.0
vn -0.22252093255519867 0.9749279022216797 0.0
vn -0.6234897971153259 0.7818315029144287 0.0
vn -0.9009688496589661 0.4338837265968323 0.0
vn -1.0 -0.0 -0.0
vn -0.9009688496589661 -0.4338837265968323 -0.0
vn -0.6234897971153259 -0.7818315029144287 -0.0
vn -0.22252093255519867 -0.9749279022216797 -0.0
vn 0.22252093255519867 -0.9749279022216797 0.0
vn 0.6234897971153259 -0.7818315029144287 0.0
vn 0.9009688496589661 -0.4338837265968323 0.0
vn 1.0 1.2246468525851679e-16 0.0
vn 1.0 -1.2246468525851679e-16 0.0
vn -1.0 0.0 0.0
vn -1.0 0.0 0.0
vn -1.0 0.0 0.0
vn -1.0 0.0 0.0
vn 0.0 1.0 0.0
vn 0.0 1.0 0.0
vn 0.0 1.0 0.0
vn 0.0 1.0 0.0
vn 0.5 0.8660253882408142 -0.0
vn 0.5 0.8660253882408142 -0.0
vn 0.5 0.8660253882408142 -0.0
vn 0.5 0.8660253882408142 -0.0
vn 0.8660253882408142 -0.5 0.0
vn 0.8660253882408142 -0.5 0.0
vn 0.8660253882408142 -0.5 0.0
vn 0.8660253882408142 -0.5 0.0
vn -0.5 -0.8660253882408142 0.0
vn -0.5 -0.8660253882408142 0.0
vn -0.5 -0.8660253882408142 0.0
vn -0.5 -0.8660253882408142 0.0
vn 0.0 -1.0 0.0
vn 0.0 -1.0 0.0
vn 0.0 -1.0 0.0
vn 0.0 -1.0 0.0
vn 0.0 0.0 1.0
vn 0.0 0.0 1.0
vn 0.0 0.0 1.0
vn 0.0 0.0 1.0
vn 0.0 0.0 1.0
vn 0.0 0.0 1.0
vn 0.0 0.0 1.0
vn 0.0 0.0 1.0
vn 0.0 0.0 1.0
vn 0.0 0.0 1.0
vn 0.0 0.0 1.0
vn 0.0 0.0 1.0
vn 0.0 0.0 1.0
vn 0.0 0.0 1.0
vn 0.0 0.0 1.0
vn 0.0 0.0 1.0
vn 0.0 0.0 1.0
vn 0.0 0.0 1.0
vn 0.0 0.0 1.0
vn 0.0 0.0 1.0
vn 0.0 0.0 1.0
vn 0.0 0.0 1.0
vn 0.0 0.0 1.0
vn 0.0 0.0 1.0
vn 0.0 0.0 1.0
vn 0.0 0.0 1.0
vn 0.0 0.0 1.0
vn 0.0 0.0 1.0
vn 0.0 0.0 1.0
vn 0.0 0.0 1.0
vn 0.0 0.0 1.0
vn 0.0 0.0 1.0
vn 0.0 0.0 1.0
vn 0.0 0.0 1.0
vn -0.0 0.0 -1.0
vn -0.0 0.0 -1.0
vn -0.0 0.0 -1.0
vn -0.0 0.0 -1.0
vn -0.0 0.0 -1.0
vn -0.0 0.0 -1.0
vn -0.0 0.0 -1.0
vn -0.0 0.0 -1.0
vn -0.0 0.0 -1.0
vn -0.0 0.0 -1.0
vn -0.0 0.0 -1.0
vn -0.0 0.0 -1.0
vn -0.0 0.0 -1.0
vn -0.0 0.0 -1.0
vn -0.0 0.0 -1.0
vn -0.0 0.0 -1.0
vn -0.0 0.0 -1.0
vn -0.0 0.0 -1.0
vn -0.0 0.0 -1.0
vn -0.0 0.0 -1.0
vn -0.0 0.0 -1.0
vn -0.0 0.0 -1.0
vn -0.0 0.0 -1.0
vn -0.0 0.0 -1.0
vn -0.0 0.0 -1.0
vn -0.0 0.0 -1.0
vn -0.0 0.0 -1.0
vn -0.0 0.0 -1.0
vn -0.0 0.0 -1.0
vn -0.0 0.0 -1.0
vn -0.0 0.0 -1.0
vn -0.0 0.0 -1.0
vn -0.0 0.0 -1.0
vn -0.0 0.0 -1.0
g f1d86f00-e30e-11ea-a288-54bf646e7e1f
f 2//2 28//28 1//1
f 1//1 28//28 30//30
f 29//29 15//15 14//14
f 14//14 15//15 16//16
f 14//14 16//16 13//13
f 13//13 16//16 17//17
f 13//13 17//17 12//12
f 12//12 17//17 18//18
f 12//12 18//18 11//11
f 11//11 18//18 19//19
f 11//11 19//19 10//10
f 10//10 19//19 20//20
f 10//10 20//20 9//9
f 9//9 20//20 21//21
f 9//9 21//21 8//8
f 8//8 21//21 22//22
f 8//8 22//22 7//7
f 7//7 22//22 23//23
f 7//7 23//23 6//6
f 6//6 23//23 24//24
f 6//6 24//24 5//5
f 5//5 24//24 25//25
f 5//5 25//25 4//4
f 4//4 25//25 26//26
f 4//4 26//26 3//3
f 3//3 26//26 27//27
f 3//3 27//27 2//2
f 2//2 27//27 28//28
g f1d90b2e-e30e-11ea-afa7-54bf646e7e1f
f 32//32 58//58 31//31
f 31//31 58//58 60//60
f 59//59 45//45 44//44
f 44//44 45//45 46//46
f 44//44 46//46 43//43
f 43//43 46//46 47//47
f 43//43 47//47 42//42
f 42//42 47//47 48//48
f 42//42 48//48 41//41
f 41//41 48//48 49//49
f 41//41 49//49 40//40
f 40//40 49//49 50//50
f 40//40 50//50 39//39
f 39//39 50//50 51//51
f 39//39 51//51 38//38
f 38//38 51//51 52//52
f 38//38 52//52 37//37
f 37//37 52//52 53//53
f 37//37 53//53 36//36
f 36//36 53//53 54//54
f 36//36 54//54 35//35
f 35//35 54//54 55//55
f 35//35 55//55 34//34
f 34//34 55//55 56//56
f 34//34 56//56 33//33
f 33//33 56//56 57//57
f 33//33 57//57 32//32
f 32//32 57//57 58//58
g f1a83812-e30e-11ea-a364-54bf646e7e1f
f 61//61 62//62 64//64
f 64//64 62//62 63//63
g f1a85f22-e30e-11ea-982c-54bf646e7e1f
f 65//65 66//66 68//68
f 68//68 66//66 67//67
g f1a8ad3a-e30e-11ea-9b18-54bf646e7e1f
f 69//69 70//70 72//72
f 72//72 70//70 71//71
g f1a8d446-e30e-11ea-bf17-54bf646e7e1f
f 73//73 74//74 76//76
f 76//76 74//74 75//75
g f1a8fb6e-e30e-11ea-923c-54bf646e7e1f
f 77//77 78//78 80//80
f 80//80 78//78 79//79
g f1a92276-e30e-11ea-aae4-54bf646e7e1f
f 81//81 82//82 84//84
f 84//84 82//82 83//83
g f1a97094-e30e-11ea-bd3e-54bf646e7e1f
f 98//98 85//85 114//114
f 114//114 85//85 86//86
f 114//114 86//86 87//87
f 114//114 87//87 117//117
f 117//117 87//87 88//88
f 117//117 88//88 89//89
f 89//89 90//90 117//117
f 117//117 90//90 116//116
f 116//116 90//90 91//91
f 116//116 91//91 103//103
f 103//103 91//91 92//92
f 103//103 92//92 93//93
f 93//93 94//94 103//103
f 103//103 94//94 95//95
f 103//103 95//95 102//102
f 102//102 95//95 96//96
f 102//102 96//96 101//101
f 101//101 96//96 100//100
f 100//100 96//96 114//114
f 100//100 114//114 99//99
f 99//99 114//114 112//112
f 112//112 114//114 111//111
f 111//111 114//114 115//115
f 111//111 115//115 110//110
f 110//110 115//115 109//109
f 109//109 115//115 108//108
f 108//108 115//115 116//116
f 108//108 116//116 107//107
f 107//107 116//116 106//106
f 106//106 116//116 105//105
f 105//105 116//116 104//104
f 104//104 116//116 103//103
f 96//96 97//97 114//114
f 114//114 97//97 98//98
f 113//113 114//114 118//118
f 118//118 114//114 117//117
g f1a9beb4-e30e-11ea-9cb1-54bf646e7e1f
f 132//132 119//119 147//147
f 147//147 119//119 120//120
f 147//147 120//120 121//121
f 121//121 122//122 147//147
f 147//147 122//122 146//146
f 147//147 146//146 133//133
f 123//123 144//144 122//122
f 122//122 144//144 145//145
f 122//122 145//145 146//146
f 144//144 123//123 143//143
f 143//143 123//123 124//124
f 143//143 124//124 125//125
f 125//125 126//126 143//143
f 143//143 126//126 127//127
f 143//143 127//127 151//151
f 151//151 127//127 128//128
f 151//151 128//128 150//150
f 150//150 128//128 129//129
f 150//150 129//129 130//130
f 130//130 131//131 150//150
f 150//150 131//131 147//147
f 150//150 147//147 149//149
f 149//149 147//147 148//148
f 131//131 132//132 147//147
f 133//133 134//134 147//147
f 147//147 134//134 135//135
f 147//147 135//135 152//152
f 152//152 135//135 136//136
f 152//152 136//136 137//137
f 137//137 138//138 152//152
f 152//152 138//138 151//151
f 151//151 138//138 139//139
f 151//151 139//139 140//140
f 140//140 141//141 151//151
f 151//151 141//141 142//142
f 151//151 142//142 143//143

# End of file