# WaveFront *.obj file
# Vertices: 72
# Triangles : 48

v 3.0 24.0 -14.0
v 3.0 24.0 14.0
v 2.0 24.0 14.0
v 2.0 24.0 -14.0
v 3.0 24.0 14.0
v 3.0 -24.0 14.0
v 2.0 -24.0 14.0
v 2.0 24.0 14.0
v 3.0 -24.0 14.0
v 3.0 -24.0 -14.0
v 2.0 -24.0 -14.0
v 2.0 -24.0 14.0
v 3.0 -24.0 -14.0
v 3.0 24.0 -14.0
v 2.0 24.0 -14.0
v 2.0 -24.0 -14.0
v 2.0 22.5 -12.5
v 2.0 -22.5 -12.5
v 2.0 -22.5 12.5
v 2.0 22.5 12.5
v 2.0 -24.0 -14.0
v 2.0 24.0 -14.0
v 2.0 24.0 14.0
v 2.0 -24.0 14.0
v 2.0 -22.5 12.5
v 2.0 -22.5 -12.5
v 0.0 -22.5 -12.5
v 0.0 -22.5 12.5
v 2.0 -22.5 -12.5
v 2.0 22.5 -12.5
v 0.0 22.5 -12.5
v 0.0 -22.5 -12.5
v 2.0 22.5 -12.5
v 2.0 22.5 12.5
v 0.0 22.5 12.5
v 0.0 22.5 -12.5
v 2.0 22.5 12.5
v 2.0 -22.5 12.5
v 0.0 -22.5 12.5
v 0.0 22.5 12.5
v 0.0 -27.5 -55.0
v 0.0 27.5 -55.0
v 3.0 27.5 -55.0
v 3.0 -27.5 -55.0
v 0.0 -27.5 55.0
v 0.0 -27.5 -55.0
v 3.0 -27.5 -55.0
v 3.0 -27.5 55.0
v 0.0 27.5 55.0
v 0.0 -27.5 55.0
v 3.0 -27.5 55.0
v 3.0 27.5 55.0
v 0.0 27.5 -55.0
v 0.0 27.5 55.0
v 3.0 27.5 55.0
v 3.0 27.5 -55.0
v 3.0 24.0 14.0
v 3.0 24.0 -14.0
v 3.0 -24.0 -14.0
v 3.0 -24.0 14.0
v 3.0 27.5 -55.0
v 3.0 27.5 55.0
v 3.0 -27.5 55.0
v 3.0 -27.5 -55.0
v 0.0 22.5 12.5
v 0.0 -22.5 12.5
v 0.0 -22.5 -12.5
v 0.0 22.5 -12.5
v 0.0 27.5 55.0
v 0.0 27.5 -55.0
v 0.0 -27.5 -55.0
v 0.0 -27.5 55.0
vn -0.0 -1.0 -0.0
vn -0.0 -1.0 -0.0
vn -0.0 -1.0 -0.0
vn -0.0 -1.0 -0.0
vn -0.0 1.850371663592295e-16 -1.0
vn -0.0 1.850371663592295e-16 -1.0
vn -0.0 1.850371663592295e-16 -1.0
vn -0.0 1.850371663592295e-16 -1.0
vn -0.0 1.0 -0.0
vn -0.0 1.0 -0.0
vn -0.0 1.0 -0.0
vn -0.0 1.0 -0.0
vn 0.0 0.0 1.0
vn 0.0 0.0 1.0
vn 0.0 0.0 1.0
vn 0.0 0.0 1.0
vn 1.0 -0.0 -0.0
vn 1.0 -0.0 -0.0
vn 1.0 -0.0 -0.0
vn 1.0 -0.0 -0.0
vn 1.0 -0.0 -0.0
vn 1.0 -0.0 -0.0
vn 1.0 -0.0 -0.0
vn 1.0 -0.0 -0.0
vn -0.0 1.0 -0.0
vn -0.0 1.0 -0.0
vn -0.0 1.0 -0.0
vn -0.0 1.0 -0.0
vn 0.0 0.0 1.0
vn 0.0 0.0 1.0
vn 0.0 0.0 1.0
vn 0.0 0.0 1.0
vn -0.0 -1.0 -0.0
vn -0.0 -1.0 -0.0
vn -0.0 -1.0 -0.0
vn -0.0 -1.0 -0.0
vn -0.0 1.973729836261267e-16 -1.0
vn -0.0 1.973729836261267e-16 -1.0
vn -0.0 1.973729836261267e-16 -1.0
vn -0.0 1.973729836261267e-16 -1.0
vn 0.0 0.0 -1.0
vn 0.0 0.0 -1.0
vn 0.0 0.0 -1.0
vn 0.0 0.0 -1.0
vn 0.0 -1.0 0.0
vn 0.0 -1.0 0.0
vn 0.0 -1.0 0.0
vn 0.0 -1.0 0.0
vn 0.0 0.0 1.0
vn 0.0 0.0 1.0
vn 0.0 0.0 1.0
vn 0.0 0.0 1.0
vn -0.0 1.0 0.0
vn -0.0 1.0 0.0
vn -0.0 1.0 0.0
vn -0.0 1.0 0.0
vn 1.0 0.0 0.0
vn 1.0 0.0 0.0
vn 1.0 0.0 0.0
vn 1.0 0.0 0.0
vn 1.0 0.0 0.0
vn 1.0 0.0 0.0
vn 1.0 0.0 0.0
vn 1.0 0.0 0.0
vn -1.0 -0.0 -0.0
vn -1.0 -0.0 -0.0
vn -1.0 -0.0 -0.0
vn -1.0 -0.0 -0.0
vn -1.0 -0.0 -0.0
vn -1.0 -0.0 -0.0
vn -1.0 -0.0 -0.0
vn -1.0 -0.0 -0.0
g e5ecddf4-e31a-11ea-af12-54bf646e7e1f
f 1//1 2//2 4//4
f 4//4 2//2 3//3
g e5edef82-e31a-11ea-b5b6-54bf646e7e1f
f 5//5 6//6 8//8
f 8//8 6//6 7//7
g e5eeb2d8-e31a-11ea-ae31-54bf646e7e1f
f 9//9 10//10 12//12
f 12//12 10//10 11//11
g e5ef7638-e31a-11ea-acfe-54bf646e7e1f
f 13//13 14//14 16//16
f 16//16 14//14 15//15
g e5f0128c-e31a-11ea-89f4-54bf646e7e1f
f 18//18 21//21 17//17
f 17//17 21//21 22//22
f 17//17 22//22 23//23
f 18//18 19//19 21//21
f 21//21 19//19 24//24
f 24//24 19//19 20//20
f 24//24 20//20 23//23
f 23//23 20//20 17//17
g e5711410-e31a-11ea-9ac9-54bf646e7e1f
f 25//25 26//26 28//28
f 28//28 26//26 27//27
g e56e54b4-e31a-11ea-8765-54bf646e7e1f
f 29//29 30//30 32//32
f 32//32 30//30 31//31
g e56f1806-e31a-11ea-a0be-54bf646e7e1f
f 33//33 34//34 36//36
f 36//36 34//34 35//35
g e57029a4-e31a-11ea-b42b-54bf646e7e1f
f 37//37 38//38 40//40
f 40//40 38//38 39//39
g e4d5ff8a-e31a-11ea-8fe0-54bf646e7e1f
f 41//41 42//42 44//44
f 44//44 42//42 43//43
g e4d69bde-e31a-11ea-a513-54bf646e7e1f
f 45//45 46//46 48//48
f 48//48 46//46 47//47
g e4d7110c-e31a-11ea-ba97-54bf646e7e1f
f 49//49 50//50 52//52
f 52//52 50//50 51//51
g e4d7ad6e-e31a-11ea-8716-54bf646e7e1f
f 53//53 54//54 56//56
f 56//56 54//54 55//55
g e4d849cc-e31a-11ea-af4e-54bf646e7e1f
f 58//58 62//62 57//57
f 57//57 62//62 63//63
f 57//57 63//63 60//60
f 60//60 63//63 64//64
f 60//60 64//64 59//59
f 59//59 64//64 58//58
f 58//58 64//64 61//61
f 58//58 61//61 62//62
g e4d8e61a-e31a-11ea-b538-54bf646e7e1f
f 66//66 72//72 65//65
f 65//65 72//72 69//69
f 65//65 69//69 70//70
f 66//66 67//67 72//72
f 72//72 67//67 71//71
f 71//71 67//67 68//68
f 71//71 68//68 70//70
f 70//70 68//68 65//65

# End of file