# WaveFront *.obj file
# Vertices: 48
# Triangles : 28

v -3.0 10.5 -6.117931842803955
v -3.0 1.8337695598602295 -9.23897933959961
v -3.0 2.2081186771392822 -10.032026290893555
v -3.0 0.0 -11.074345588684082
v -3.0 0.0 0.0
v -3.0 4.0 0.0
v -3.0 5.0129570960998535 -1.2821857929229736
v -3.0 3.799999952316284 -3.031905174255371
v -3.0 1.8337695598602295 -9.23897933959961
v 3.0 1.8337695598602295 -9.23897933959961
v 3.0 2.2081186771392822 -10.032026290893555
v -3.0 2.2081186771392822 -10.032026290893555
v -3.0 2.2081186771392822 -10.032026290893555
v 3.0 2.2081186771392822 -10.032026290893555
v 3.0 0.0 -11.074345588684082
v -3.0 0.0 -11.074345588684082
v -3.0 0.0 -11.074345588684082
v 3.0 0.0 -11.074345588684082
v 3.0 0.0 0.0
v -3.0 0.0 0.0
v -3.0 0.0 0.0
v 3.0 0.0 0.0
v 3.0 4.0 0.0
v -3.0 4.0 0.0
v -3.0 4.0 0.0
v 3.0 4.0 0.0
v 3.0 5.0129570960998535 -1.2821857929229736
v -3.0 5.0129570960998535 -1.2821857929229736
v -3.0 5.0129570960998535 -1.2821857929229736
v 3.0 5.0129570960998535 -1.2821857929229736
v 3.0 3.799999952316284 -3.031905174255371
v -3.0 3.799999952316284 -3.031905174255371
v -3.0 3.799999952316284 -3.031905174255371
v 3.0 3.799999952316284 -3.031905174255371
v 3.0 10.5 -6.117931842803955
v -3.0 10.5 -6.117931842803955
v -3.0 10.5 -6.117931842803955
v 3.0 10.5 -6.117931842803955
v 3.0 1.8337695598602295 -9.23897933959961
v -3.0 1.8337695598602295 -9.23897933959961
v 3.0 1.8337695598602295 -9.23897933959961
v 3.0 10.5 -6.117931842803955
v 3.0 3.799999952316284 -3.031905174255371
v 3.0 5.0129570960998535 -1.2821857929229736
v 3.0 4.0 0.0
v 3.0 0.0 0.0
v 3.0 0.0 -11.074345588684082
v 3.0 2.2081186771392822 -10.032026290893555
vn -1.0 0.0 0.0
vn -1.0 0.0 0.0
vn -1.0 0.0 0.0
vn -1.0 0.0 0.0
vn -1.0 0.0 0.0
vn -1.0 0.0 0.0
vn -1.0 0.0 0.0
vn -1.0 0.0 0.0
vn -0.0 0.9043124914169312 0.426871120929718
vn -0.0 0.9043124914169312 0.426871120929718
vn -0.0 0.9043124914169312 0.426871120929718
vn -0.0 0.9043124914169312 0.426871120929718
vn 0.0 0.426871120929718 -0.9043124914169312
vn 0.0 0.426871120929718 -0.9043124914169312
vn 0.0 0.426871120929718 -0.9043124914169312
vn 0.0 0.426871120929718 -0.9043124914169312
vn 0.0 -1.0 0.0
vn 0.0 -1.0 0.0
vn 0.0 -1.0 0.0
vn 0.0 -1.0 0.0
vn 0.0 -1.1468806253488525e-16 1.0
vn 0.0 -1.1468806253488525e-16 1.0
vn 0.0 -1.1468806253488525e-16 1.0
vn 0.0 -1.1468806253488525e-16 1.0
vn -0.0 0.7846727967262268 0.6199101209640503
vn -0.0 0.7846727967262268 0.6199101209640503
vn -0.0 0.7846727967262268 0.6199101209640503
vn -0.0 0.7846727967262268 0.6199101209640503
vn 0.0 0.8218374848365784 -0.5697219967842102
vn 0.0 0.8218374848365784 -0.5697219967842102
vn 0.0 0.8218374848365784 -0.5697219967842102
vn 0.0 0.8218374848365784 -0.5697219967842102
vn -0.0 0.4183560907840729 0.9082831144332886
vn -0.0 0.4183560907840729 0.9082831144332886
vn -0.0 0.4183560907840729 0.9082831144332886
vn -0.0 0.4183560907840729 0.9082831144332886
vn 0.0 0.3388352692127228 -0.9408457279205322
vn 0.0 0.3388352692127228 -0.9408457279205322
vn 0.0 0.3388352692127228 -0.9408457279205322
vn 0.0 0.3388352692127228 -0.9408457279205322
vn 1.0 0.0 0.0
vn 1.0 0.0 0.0
vn 1.0 0.0 0.0
vn 1.0 0.0 0.0
vn 1.0 0.0 0.0
vn 1.0 0.0 0.0
vn 1.0 0.0 0.0
vn 1.0 0.0 0.0
g a9cda714-e31c-11ea-944f-54bf646e7e1f
f 1//1 2//2 8//8
f 8//8 2//2 5//5
f 8//8 5//5 6//6
f 3//3 4//4 2//2
f 2//2 4//4 5//5
f 6//6 7//7 8//8
g a9cdf542-e31c-11ea-802b-54bf646e7e1f
f 10//10 11//11 9//9
f 9//9 11//11 12//12
g a9ce4362-e31c-11ea-be24-54bf646e7e1f
f 14//14 15//15 13//13
f 13//13 15//15 16//16
g a9ce6a74-e31c-11ea-8e8a-54bf646e7e1f
f 18//18 19//19 17//17
f 17//17 19//19 20//20
g a9ceb8d0-e31c-11ea-b4a1-54bf646e7e1f
f 22//22 23//23 21//21
f 21//21 23//23 24//24
g a9cf06b6-e31c-11ea-bcdc-54bf646e7e1f
f 26//26 27//27 25//25
f 25//25 27//27 28//28
g a9cf54d4-e31c-11ea-b26d-54bf646e7e1f
f 30//30 31//31 29//29
f 29//29 31//31 32//32
g a9cfa2f6-e31c-11ea-aae0-54bf646e7e1f
f 34//34 35//35 33//33
f 33//33 35//35 36//36
g a9cff11e-e31c-11ea-8bf1-54bf646e7e1f
f 38//38 39//39 37//37
f 37//37 39//39 40//40
g a9d06654-e31c-11ea-85ac-54bf646e7e1f
f 42//42 43//43 41//41
f 41//41 43//43 46//46
f 41//41 46//46 47//47
f 44//44 45//45 43//43
f 43//43 45//45 46//46
f 47//47 48//48 41//41

# End of file