# WaveFront *.obj file
# Vertices: 264
# Triangles : 164

v 4.888023853302002 0.0 -2.934748411178589
v 3.2619760036468506 0.0 -0.0652516633272171
v 3.2619760036468506 0.10000000149011612 -0.0652516633272171
v 4.888023853302002 0.10000000149011612 -2.934748411178589
v 3.2619760036468506 0.0 -0.0652516633272171
v 0.11197594553232193 0.0 -0.0652516633272171
v 0.11197594553232193 0.10000000149011612 -0.0652516633272171
v 3.2619760036468506 0.10000000149011612 -0.0652516633272171
v 0.11197594553232193 0.0 -0.0652516633272171
v 3.2619760036468506 0.0 -0.0652516633272171
v 4.888023853302002 0.0 -2.934748411178589
v 1.738024115562439 0.0 -2.934748411178589
v 3.299999952316284 0.0 0.0
v 3.549999952316284 0.0 0.0
v 5.25 0.0 -3.0
v 5.0 0.0 -3.0
v 5.25 0.0 -3.0
v 3.549999952316284 0.0 0.0
v 3.549999952316284 0.10000000149011612 0.0
v 5.25 0.10000000149011612 -3.0
v 6.550000190734863 -0.25 -3.0
v 6.550000190734863 0.10000000149011612 -3.0
v 6.550000190734863 0.10000000149011612 -1.8064600229263306
v 6.550000190734863 -0.25 -1.8064600229263306
v 6.550000190734863 -0.25 -1.8064600229263306
v 6.550000190734863 0.10000000149011612 -1.8064600229263306
v 7.203174114227295 0.10000000149011612 -2.9848177433013916
v 7.203174114227295 -0.25 -2.9848177433013916
v 7.203174114227295 -0.25 -2.9848177433013916
v 7.203174114227295 0.10000000149011612 -2.9848177433013916
v 8.40317440032959 0.10000000149011612 -2.9848177433013916
v 8.40317440032959 -0.25 -2.9848177433013916
v 8.40317440032959 -0.25 -2.9848177433013916
v 8.40317440032959 0.10000000149011612 -2.9848177433013916
v 6.703174114227295 0.10000000149011612 0.0
v 6.703174114227295 -0.25 0.0
v 6.703174114227295 -0.25 0.0
v 6.703174114227295 0.10000000149011612 0.0
v 5.503174304962158 0.10000000149011612 0.0
v 5.503174304962158 -0.25 0.0
v 5.503174304962158 -0.25 0.0
v 5.503174304962158 0.10000000149011612 0.0
v 5.503174304962158 0.10000000149011612 -1.1783576011657715
v 5.503174304962158 -0.25 -1.1783576011657715
v 5.503174304962158 -0.25 -1.1783576011657715
v 5.503174304962158 0.10000000149011612 -1.1783576011657715
v 4.849999904632568 0.10000000149011612 0.0
v 4.849999904632568 -0.25 0.0
v 3.549999952316284 0.10000000149011612 0.0
v 4.849999904632568 0.10000000149011612 0.0
v 5.503174304962158 0.10000000149011612 -1.1783576011657715
v 5.503174304962158 0.10000000149011612 0.0
v 6.703174114227295 0.10000000149011612 0.0
v 8.40317440032959 0.10000000149011612 -2.9848177433013916
v 7.203174114227295 0.10000000149011612 -2.9848177433013916
v 6.550000190734863 0.10000000149011612 -1.8064600229263306
v 6.550000190734863 0.10000000149011612 -3.0
v 5.25 0.10000000149011612 -3.0
v 0.0 -0.25 0.0
v 1.7000000476837158 -0.25 -3.0
v 6.550000190734863 -0.25 -3.0
v 6.550000190734863 -0.25 -1.8064600229263306
v 7.203174114227295 -0.25 -2.9848177433013916
v 8.40317440032959 -0.25 -2.9848177433013916
v 6.703174114227295 -0.25 0.0
v 5.503174304962158 -0.25 0.0
v 5.503174304962158 -0.25 -1.1783576011657715
v 4.849999904632568 -0.25 0.0
v 1.738024115562439 0.0 -2.934748411178589
v 4.888023853302002 0.0 -2.934748411178589
v 4.888023853302002 0.10000000149011612 -2.934748411178589
v 1.738024115562439 0.10000000149011612 -2.934748411178589
v 0.11197594553232193 0.0 -0.0652516633272171
v 1.738024115562439 0.0 -2.934748411178589
v 1.738024115562439 0.10000000149011612 -2.934748411178589
v 0.11197594553232193 0.10000000149011612 -0.0652516633272171
v 1.7000000476837158 -0.25 -3.0
v 1.7000000476837158 0.10000000149011612 -3.0
v 5.0 0.10000000149011612 -3.0
v 5.0 0.0 -3.0
v 5.25 0.0 -3.0
v 5.25 0.10000000149011612 -3.0
v 6.550000190734863 0.10000000149011612 -3.0
v 6.550000190734863 -0.25 -3.0
v 3.299999952316284 0.0 0.0
v 5.0 0.0 -3.0
v 5.0 0.10000000149011612 -3.0
v 3.299999952316284 0.10000000149011612 0.0
v 3.299999952316284 0.0 0.0
v 3.299999952316284 0.10000000149011612 0.0
v 0.0 0.10000000149011612 0.0
v 0.0 -0.25 0.0
v 4.849999904632568 -0.25 0.0
v 4.849999904632568 0.10000000149011612 0.0
v 3.549999952316284 0.10000000149011612 0.0
v 3.549999952316284 0.0 0.0
v 0.0 -0.25 0.0
v 0.0 0.10000000149011612 0.0
v 1.7000000476837158 0.10000000149011612 -3.0
v 1.7000000476837158 -0.25 -3.0
v 3.2619760036468506 0.10000000149011612 -0.0652516633272171
v 0.11197594553232193 0.10000000149011612 -0.0652516633272171
v 1.738024115562439 0.10000000149011612 -2.934748411178589
v 4.888023853302002 0.10000000149011612 -2.934748411178589
v 1.7000000476837158 0.10000000149011612 -3.0
v 0.0 0.10000000149011612 0.0
v 3.299999952316284 0.10000000149011612 0.0
v 5.0 0.10000000149011612 -3.0
v 8.65317440032959 -0.25 -1.08481764793396
v 8.65317440032959 -0.25 -2.9848177433013916
v 11.953174591064453 -0.25 -2.9848177433013916
v 11.953174591064453 -0.25 -2.384817600250244
v 9.65317440032959 -0.25 -2.384817600250244
v 9.65317440032959 -0.25 -1.8848176002502441
v 11.953174591064453 -0.25 -1.8848176002502441
v 11.953174591064453 -0.25 0.0
v 8.65317440032959 -0.25 0.0
v 8.65317440032959 -0.25 -0.784817636013031
v 9.65317440032959 -0.25 -0.784817636013031
v 9.65317440032959 -0.25 -0.58481764793396
v 10.953174591064453 -0.25 -0.58481764793396
v 10.953174591064453 -0.25 -1.08481764793396
v 8.65317440032959 -0.25 -2.9848177433013916
v 8.65317440032959 0.10000000149011612 -2.9848177433013916
v 11.953174591064453 0.10000000149011612 -2.9848177433013916
v 11.953174591064453 -0.25 -2.9848177433013916
v 11.953174591064453 -0.25 -2.9848177433013916
v 11.953174591064453 0.10000000149011612 -2.9848177433013916
v 11.953174591064453 0.10000000149011612 -2.384817600250244
v 11.953174591064453 -0.25 -2.384817600250244
v 11.953174591064453 -0.25 -2.384817600250244
v 11.953174591064453 0.10000000149011612 -2.384817600250244
v 9.65317440032959 0.10000000149011612 -2.384817600250244
v 9.65317440032959 -0.25 -2.384817600250244
v 9.65317440032959 -0.25 -2.384817600250244
v 9.65317440032959 0.10000000149011612 -2.384817600250244
v 9.65317440032959 0.10000000149011612 -1.8848176002502441
v 9.65317440032959 -0.25 -1.8848176002502441
v 9.65317440032959 -0.25 -1.8848176002502441
v 9.65317440032959 0.10000000149011612 -1.8848176002502441
v 11.953174591064453 0.10000000149011612 -1.8848176002502441
v 11.953174591064453 -0.25 -1.8848176002502441
v 11.953174591064453 -0.25 -1.8848176002502441
v 11.953174591064453 0.10000000149011612 -1.8848176002502441
v 11.953174591064453 0.10000000149011612 0.0
v 11.953174591064453 -0.25 0.0
v 11.953174591064453 -0.25 0.0
v 11.953174591064453 0.10000000149011612 0.0
v 8.65317440032959 0.10000000149011612 0.0
v 8.65317440032959 -0.25 0.0
v 8.65317440032959 -0.25 0.0
v 8.65317440032959 0.10000000149011612 0.0
v 8.65317440032959 0.10000000149011612 -0.784817636013031
v 8.65317440032959 -0.25 -0.784817636013031
v 8.65317440032959 -0.25 -0.784817636013031
v 8.65317440032959 0.10000000149011612 -0.784817636013031
v 9.65317440032959 0.10000000149011612 -0.784817636013031
v 9.65317440032959 -0.25 -0.784817636013031
v 9.65317440032959 -0.25 -0.784817636013031
v 9.65317440032959 0.10000000149011612 -0.784817636013031
v 9.65317440032959 0.10000000149011612 -0.58481764793396
v 9.65317440032959 -0.25 -0.58481764793396
v 9.65317440032959 -0.25 -0.58481764793396
v 9.65317440032959 0.10000000149011612 -0.58481764793396
v 10.953174591064453 0.10000000149011612 -0.58481764793396
v 10.953174591064453 -0.25 -0.58481764793396
v 10.953174591064453 -0.25 -0.58481764793396
v 10.953174591064453 0.10000000149011612 -0.58481764793396
v 10.953174591064453 0.10000000149011612 -1.08481764793396
v 10.953174591064453 -0.25 -1.08481764793396
v 10.953174591064453 -0.25 -1.08481764793396
v 10.953174591064453 0.10000000149011612 -1.08481764793396
v 8.65317440032959 0.10000000149011612 -1.08481764793396
v 8.65317440032959 -0.25 -1.08481764793396
v 8.65317440032959 -0.25 -1.08481764793396
v 8.65317440032959 0.10000000149011612 -1.08481764793396
v 8.65317440032959 0.10000000149011612 -2.9848177433013916
v 8.65317440032959 -0.25 -2.9848177433013916
v 8.65317440032959 0.10000000149011612 -2.9848177433013916
v 8.65317440032959 0.10000000149011612 -1.08481764793396
v 10.953174591064453 0.10000000149011612 -1.08481764793396
v 10.953174591064453 0.10000000149011612 -0.58481764793396
v 9.65317440032959 0.10000000149011612 -0.58481764793396
v 9.65317440032959 0.10000000149011612 -0.784817636013031
v 8.65317440032959 0.10000000149011612 -0.784817636013031
v 8.65317440032959 0.10000000149011612 0.0
v 11.953174591064453 0.10000000149011612 0.0
v 11.953174591064453 0.10000000149011612 -1.8848176002502441
v 9.65317440032959 0.10000000149011612 -1.8848176002502441
v 9.65317440032959 0.10000000149011612 -2.384817600250244
v 11.953174591064453 0.10000000149011612 -2.384817600250244
v 11.953174591064453 0.10000000149011612 -2.9848177433013916
v 14.603174209594727 0.0 -2.9848177433013916
v 13.40317440032959 0.0 -2.9848177433013916
v 13.40317440032959 0.10000000149011612 -2.9848177433013916
v 14.603174209594727 0.10000000149011612 -2.9848177433013916
v 13.503174781799316 0.0 -1.734817624092102
v 14.603174209594727 0.0 -2.9848177433013916
v 14.603174209594727 0.10000000149011612 -2.9848177433013916
v 13.503174781799316 0.10000000149011612 -1.734817624092102
v 13.503174781799316 0.0 -1.484817624092102
v 13.503174781799316 0.0 -1.734817624092102
v 13.503174781799316 0.10000000149011612 -1.734817624092102
v 13.503174781799316 0.10000000149011612 -1.484817624092102
v 14.503174781799316 0.0 -1.484817624092102
v 13.503174781799316 0.0 -1.484817624092102
v 13.503174781799316 0.10000000149011612 -1.484817624092102
v 14.503174781799316 0.10000000149011612 -1.484817624092102
v 14.503174781799316 0.0 -2.08481764793396
v 14.503174781799316 0.0 -1.484817624092102
v 14.503174781799316 0.10000000149011612 -1.484817624092102
v 14.503174781799316 0.10000000149011612 -2.08481764793396
v 15.503174781799316 0.0 -2.08481764793396
v 14.503174781799316 0.0 -2.08481764793396
v 14.503174781799316 0.10000000149011612 -2.08481764793396
v 15.503174781799316 0.10000000149011612 -2.08481764793396
v 15.503174781799316 0.0 0.015182361006736755
v 15.503174781799316 0.0 -2.08481764793396
v 15.503174781799316 0.10000000149011612 -2.08481764793396
v 15.503174781799316 0.10000000149011612 0.015182361006736755
v 14.503174781799316 0.0 0.015182361006736755
v 15.503174781799316 0.0 0.015182361006736755
v 15.503174781799316 0.10000000149011612 0.015182361006736755
v 14.503174781799316 0.10000000149011612 0.015182361006736755
v 14.503174781799316 0.0 -0.8848176598548889
v 14.503174781799316 0.0 0.015182361006736755
v 14.503174781799316 0.10000000149011612 0.015182361006736755
v 14.503174781799316 0.10000000149011612 -0.8848176598548889
v 12.203174591064453 0.0 -0.8848176598548889
v 14.503174781799316 0.0 -0.8848176598548889
v 14.503174781799316 0.10000000149011612 -0.8848176598548889
v 12.203174591064453 0.10000000149011612 -0.8848176598548889
v 12.203174591064453 0.0 -1.58481764793396
v 12.203174591064453 0.0 -0.8848176598548889
v 12.203174591064453 0.10000000149011612 -0.8848176598548889
v 12.203174591064453 0.10000000149011612 -1.58481764793396
v 13.40317440032959 0.0 -2.9848177433013916
v 12.203174591064453 0.0 -1.58481764793396
v 12.203174591064453 0.10000000149011612 -1.58481764793396
v 13.40317440032959 0.10000000149011612 -2.9848177433013916
v 13.40317440032959 0.10000000149011612 -2.9848177433013916
v 12.203174591064453 0.10000000149011612 -1.58481764793396
v 12.203174591064453 0.10000000149011612 -0.8848176598548889
v 14.503174781799316 0.10000000149011612 -0.8848176598548889
v 14.503174781799316 0.10000000149011612 0.015182361006736755
v 15.503174781799316 0.10000000149011612 0.015182361006736755
v 15.503174781799316 0.10000000149011612 -2.08481764793396
v 14.503174781799316 0.10000000149011612 -2.08481764793396
v 14.503174781799316 0.10000000149011612 -1.484817624092102
v 13.503174781799316 0.10000000149011612 -1.484817624092102
v 13.503174781799316 0.10000000149011612 -1.734817624092102
v 14.603174209594727 0.10000000149011612 -2.9848177433013916
v 12.203174591064453 0.0 -1.58481764793396
v 13.40317440032959 0.0 -2.9848177433013916
v 14.603174209594727 0.0 -2.9848177433013916
v 13.503174781799316 0.0 -1.734817624092102
v 13.503174781799316 0.0 -1.484817624092102
v 14.503174781799316 0.0 -1.484817624092102
v 14.503174781799316 0.0 -2.08481764793396
v 15.503174781799316 0.0 -2.08481764793396
v 15.503174781799316 0.0 0.015182361006736755
v 14.503174781799316 0.0 0.015182361006736755
v 14.503174781799316 0.0 -0.8848176598548889
v 12.203174591064453 0.0 -0.8848176598548889
vn -0.870022177696228 0.0 -0.49301257729530334
vn -0.870022177696228 0.0 -0.49301257729530334
vn -0.870022177696228 0.0 -0.49301257729530334
vn -0.870022177696228 0.0 -0.49301257729530334
vn -0.0 0.0 -1.0
vn -0.0 0.0 -1.0
vn -0.0 0.0 -1.0
vn -0.0 0.0 -1.0
vn 0.0 1.0 0.0
vn 0.0 1.0 0.0
vn 0.0 1.0 0.0
vn 0.0 1.0 0.0
vn 0.0 1.0 0.0
vn 0.0 1.0 0.0
vn 0.0 1.0 0.0
vn 0.0 1.0 0.0
vn -0.870022177696228 0.0 -0.49301257729530334
vn -0.870022177696228 0.0 -0.49301257729530334
vn -0.870022177696228 0.0 -0.49301257729530334
vn -0.870022177696228 0.0 -0.49301257729530334
vn 1.0 0.0 0.0
vn 1.0 0.0 0.0
vn 1.0 0.0 0.0
vn 1.0 0.0 0.0
vn -0.874619722366333 0.0 -0.48480960726737976
vn -0.874619722366333 0.0 -0.48480960726737976
vn -0.874619722366333 0.0 -0.48480960726737976
vn -0.874619722366333 0.0 -0.48480960726737976
vn 0.0 0.0 -1.0
vn 0.0 0.0 -1.0
vn 0.0 0.0 -1.0
vn 0.0 0.0 -1.0
vn 0.868945837020874 -0.0 0.4949072599411011
vn 0.868945837020874 -0.0 0.4949072599411011
vn 0.868945837020874 -0.0 0.4949072599411011
vn 0.868945837020874 -0.0 0.4949072599411011
vn 0.0 0.0 1.0
vn 0.0 0.0 1.0
vn 0.0 0.0 1.0
vn 0.0 0.0 1.0
vn -1.0 0.0 0.0
vn -1.0 0.0 0.0
vn -1.0 0.0 0.0
vn -1.0 0.0 0.0
vn 0.874619722366333 -0.0 0.48480960726737976
vn 0.874619722366333 -0.0 0.48480960726737976
vn 0.874619722366333 -0.0 0.48480960726737976
vn 0.874619722366333 -0.0 0.48480960726737976
vn 0.0 1.0 0.0
vn 0.0 1.0 0.0
vn 0.0 1.0 0.0
vn 0.0 1.0 0.0
vn 0.0 1.0 0.0
vn 0.0 1.0 0.0
vn 0.0 1.0 0.0
vn 0.0 1.0 0.0
vn 0.0 1.0 0.0
vn 0.0 1.0 0.0
vn 0.0 -1.0 0.0
vn 0.0 -1.0 0.0
vn 0.0 -1.0 0.0
vn 0.0 -1.0 0.0
vn 0.0 -1.0 0.0
vn 0.0 -1.0 0.0
vn 0.0 -1.0 0.0
vn 0.0 -1.0 0.0
vn 0.0 -1.0 0.0
vn 0.0 -1.0 0.0
vn 0.0 0.0 1.0
vn 0.0 0.0 1.0
vn 0.0 0.0 1.0
vn 0.0 0.0 1.0
vn 0.870022177696228 -0.0 0.49301257729530334
vn 0.870022177696228 -0.0 0.49301257729530334
vn 0.870022177696228 -0.0 0.49301257729530334
vn 0.870022177696228 -0.0 0.49301257729530334
vn 0.0 0.0 -1.0
vn 0.0 0.0 -1.0
vn 0.0 0.0 -1.0
vn 0.0 0.0 -1.0
vn 0.0 0.0 -1.0
vn 0.0 0.0 -1.0
vn 0.0 0.0 -1.0
vn 0.0 0.0 -1.0
vn 0.870022177696228 -0.0 0.49301257729530334
vn 0.870022177696228 -0.0 0.49301257729530334
vn 0.870022177696228 -0.0 0.49301257729530334
vn 0.870022177696228 -0.0 0.49301257729530334
vn 0.0 0.0 1.0
vn 0.0 0.0 1.0
vn 0.0 0.0 1.0
vn 0.0 0.0 1.0
vn 0.0 0.0 1.0
vn 0.0 0.0 1.0
vn 0.0 0.0 1.0
vn 0.0 0.0 1.0
vn -0.870022177696228 0.0 -0.49301257729530334
vn -0.870022177696228 0.0 -0.49301257729530334
vn -0.870022177696228 0.0 -0.49301257729530334
vn -0.870022177696228 0.0 -0.49301257729530334
vn 0.0 1.0 0.0
vn 0.0 1.0 0.0
vn 0.0 1.0 0.0
vn 0.0 1.0 0.0
vn 0.0 1.0 0.0
vn 0.0 1.0 0.0
vn 0.0 1.0 0.0
vn 0.0 1.0 0.0
vn 0.0 -1.0 0.0
vn 0.0 -1.0 0.0
vn 0.0 -1.0 0.0
vn 0.0 -1.0 0.0
vn 0.0 -1.0 0.0
vn 0.0 -1.0 0.0
vn 0.0 -1.0 0.0
vn 0.0 -1.0 0.0
vn 0.0 -1.0 0.0
vn 0.0 -1.0 0.0
vn 0.0 -1.0 0.0
vn 0.0 -1.0 0.0
vn 0.0 -1.0 0.0
vn 0.0 -1.0 0.0
vn 0.0 0.0 -1.0
vn 0.0 0.0 -1.0
vn 0.0 0.0 -1.0
vn 0.0 0.0 -1.0
vn 1.0 0.0 0.0
vn 1.0 0.0 0.0
vn 1.0 0.0 0.0
vn 1.0 0.0 0.0
vn 0.0 -0.0 1.0
vn 0.0 -0.0 1.0
vn 0.0 -0.0 1.0
vn 0.0 -0.0 1.0
vn 1.0 0.0 0.0
vn 1.0 0.0 0.0
vn 1.0 0.0 0.0
vn 1.0 0.0 0.0
vn 0.0 0.0 -1.0
vn 0.0 0.0 -1.0
vn 0.0 0.0 -1.0
vn 0.0 0.0 -1.0
vn 1.0 0.0 0.0
vn 1.0 0.0 0.0
vn 1.0 0.0 0.0
vn 1.0 0.0 0.0
vn 0.0 0.0 1.0
vn 0.0 0.0 1.0
vn 0.0 0.0 1.0
vn 0.0 0.0 1.0
vn -1.0 0.0 0.0
vn -1.0 0.0 0.0
vn -1.0 0.0 0.0
vn -1.0 0.0 0.0
vn 0.0 0.0 -1.0
vn 0.0 0.0 -1.0
vn 0.0 0.0 -1.0
vn 0.0 0.0 -1.0
vn 1.0 -0.0 0.0
vn 1.0 -0.0 0.0
vn 1.0 -0.0 0.0
vn 1.0 -0.0 0.0
vn 0.0 0.0 -1.0
vn 0.0 0.0 -1.0
vn 0.0 0.0 -1.0
vn 0.0 0.0 -1.0
vn -1.0 0.0 0.0
vn -1.0 0.0 0.0
vn -1.0 0.0 0.0
vn -1.0 0.0 0.0
vn 0.0 0.0 1.0
vn 0.0 0.0 1.0
vn 0.0 0.0 1.0
vn 0.0 0.0 1.0
vn -1.0 0.0 0.0
vn -1.0 0.0 0.0
vn -1.0 0.0 0.0
vn -1.0 0.0 0.0
vn 0.0 1.0 0.0
vn 0.0 1.0 0.0
vn 0.0 1.0 0.0
vn 0.0 1.0 0.0
vn 0.0 1.0 0.0
vn 0.0 1.0 0.0
vn 0.0 1.0 0.0
vn 0.0 1.0 0.0
vn 0.0 1.0 0.0
vn 0.0 1.0 0.0
vn 0.0 1.0 0.0
vn 0.0 1.0 0.0
vn 0.0 1.0 0.0
vn 0.0 1.0 0.0
vn 0.0 0.0 -1.0
vn 0.0 0.0 -1.0
vn 0.0 0.0 -1.0
vn 0.0 0.0 -1.0
vn 0.7507135272026062 -0.0 0.6606279015541077
vn 0.7507135272026062 -0.0 0.6606279015541077
vn 0.7507135272026062 -0.0 0.6606279015541077
vn 0.7507135272026062 -0.0 0.6606279015541077
vn 1.0 -0.0 0.0
vn 1.0 -0.0 0.0
vn 1.0 -0.0 0.0
vn 1.0 -0.0 0.0
vn 0.0 0.0 -1.0
vn 0.0 0.0 -1.0
vn 0.0 0.0 -1.0
vn 0.0 0.0 -1.0
vn -1.0 0.0 0.0
vn -1.0 0.0 0.0
vn -1.0 0.0 0.0
vn -1.0 0.0 0.0
vn 0.0 0.0 -1.0
vn 0.0 0.0 -1.0
vn 0.0 0.0 -1.0
vn 0.0 0.0 -1.0
vn 1.0 -0.0 0.0
vn 1.0 -0.0 0.0
vn 1.0 -0.0 0.0
vn 1.0 -0.0 0.0
vn 0.0 0.0 1.0
vn 0.0 0.0 1.0
vn 0.0 0.0 1.0
vn 0.0 0.0 1.0
vn -1.0 0.0 0.0
vn -1.0 0.0 0.0
vn -1.0 0.0 0.0
vn -1.0 0.0 0.0
vn 0.0 0.0 1.0
vn 0.0 0.0 1.0
vn 0.0 0.0 1.0
vn 0.0 0.0 1.0
vn -1.0 0.0 0.0
vn -1.0 0.0 0.0
vn -1.0 0.0 0.0
vn -1.0 0.0 0.0
vn -0.7592566013336182 0.0 -0.650791347026825
vn -0.7592566013336182 0.0 -0.650791347026825
vn -0.7592566013336182 0.0 -0.650791347026825
vn -0.7592566013336182 0.0 -0.650791347026825
vn 0.0 1.0 0.0
vn 0.0 1.0 0.0
vn 0.0 1.0 0.0
vn 0.0 1.0 0.0
vn 0.0 1.0 0.0
vn 0.0 1.0 0.0
vn 0.0 1.0 0.0
vn 0.0 1.0 0.0
vn 0.0 1.0 0.0
vn 0.0 1.0 0.0
vn 0.0 1.0 0.0
vn 0.0 1.0 0.0
vn -0.0 -1.0 -0.0
vn -0.0 -1.0 -0.0
vn -0.0 -1.0 -0.0
vn -0.0 -1.0 -0.0
vn -0.0 -1.0 -0.0
vn -0.0 -1.0 -0.0
vn -0.0 -1.0 -0.0
vn -0.0 -1.0 -0.0
vn -0.0 -1.0 -0.0
vn -0.0 -1.0 -0.0
vn -0.0 -1.0 -0.0
vn -0.0 -1.0 -0.0
g 9f1c6bba-e31d-11ea-982d-54bf646e7e1f
f 1//1 2//2 4//4
f 4//4 2//2 3//3
g 9f1d2f0a-e31d-11ea-8311-54bf646e7e1f
f 5//5 6//6 8//8
f 8//8 6//6 7//7
g a15052f4-e31d-11ea-a882-54bf646e7e1f
f 9//9 10//10 12//12
f 12//12 10//10 11//11
g a03d02ca-e31d-11ea-a8c2-54bf646e7e1f
f 13//13 14//14 16//16
f 16//16 14//14 15//15
g 9f41cfda-e31d-11ea-b381-54bf646e7e1f
f 17//17 18//18 20//20
f 20//20 18//18 19//19
g 9f42bac2-e31d-11ea-8748-54bf646e7e1f
f 22//22 23//23 21//21
f 21//21 23//23 24//24
g 9f432f5e-e31d-11ea-9b87-54bf646e7e1f
f 26//26 27//27 25//25
f 25//25 27//27 28//28
g 9f43a4ae-e31d-11ea-ab4d-54bf646e7e1f
f 30//30 31//31 29//29
f 29//29 31//31 32//32
g 9f4419e6-e31d-11ea-b8b8-54bf646e7e1f
f 34//34 35//35 33//33
f 33//33 35//35 36//36
g 9f44b62e-e31d-11ea-ac78-54bf646e7e1f
f 38//38 39//39 37//37
f 37//37 39//39 40//40
g 9f452b62-e31d-11ea-9f37-54bf646e7e1f
f 42//42 43//43 41//41
f 41//41 43//43 44//44
g 9f45c7a8-e31d-11ea-a87c-54bf646e7e1f
f 46//46 47//47 45//45
f 45//45 47//47 48//48
g 9f46d906-e31d-11ea-a0ef-54bf646e7e1f
f 50//50 51//51 49//49
f 49//49 51//51 58//58
f 58//58 51//51 56//56
f 58//58 56//56 57//57
f 52//52 53//53 51//51
f 51//51 53//53 56//56
f 53//53 54//54 56//56
f 56//56 54//54 55//55
g a03ed79c-e31d-11ea-840d-54bf646e7e1f
f 68//68 59//59 67//67
f 67//67 59//59 60//60
f 67//67 60//60 62//62
f 62//62 60//60 61//61
f 63//63 64//64 62//62
f 62//62 64//64 65//65
f 62//62 65//65 67//67
f 67//67 65//65 66//66
g 9f1cb9da-e31d-11ea-9762-54bf646e7e1f
f 69//69 70//70 72//72
f 72//72 70//70 71//71
g 9f1ce0d8-e31d-11ea-857a-54bf646e7e1f
f 73//73 74//74 76//76
f 76//76 74//74 75//75
g 9f1da436-e31d-11ea-858d-54bf646e7e1f
f 84//84 77//77 80//80
f 80//80 77//77 78//78
f 80//80 78//78 79//79
f 80//80 81//81 84//84
f 84//84 81//81 83//83
f 83//83 81//81 82//82
g 9f1df25a-e31d-11ea-8bbe-54bf646e7e1f
f 85//85 86//86 88//88
f 88//88 86//86 87//87
g 9f1e1968-e31d-11ea-8247-54bf646e7e1f
f 90//90 91//91 89//89
f 89//89 91//91 92//92
f 89//89 92//92 93//93
f 89//89 93//93 96//96
f 96//96 93//93 94//94
f 96//96 94//94 95//95
g 9f1e6782-e31d-11ea-ac71-54bf646e7e1f
f 98//98 99//99 97//97
f 97//97 99//99 100//100
g 9f1eb5b0-e31d-11ea-aa0d-54bf646e7e1f
f 104//104 101//101 107//107
f 107//107 101//101 102//102
f 107//107 102//102 106//106
f 106//106 102//102 105//105
f 105//105 102//102 103//103
f 105//105 103//103 104//104
f 107//107 108//108 104//104
f 104//104 108//108 105//105
g a2aac150-e31d-11ea-a697-54bf646e7e1f
f 122//122 109//109 114//114
f 114//114 109//109 110//110
f 114//114 110//110 113//113
f 113//113 110//110 111//111
f 113//113 111//111 112//112
f 114//114 115//115 122//122
f 122//122 115//115 116//116
f 122//122 116//116 121//121
f 121//121 116//116 117//117
f 121//121 117//117 120//120
f 120//120 117//117 118//118
f 120//120 118//118 119//119
g 9f79aac6-e31d-11ea-b6f1-54bf646e7e1f
f 124//124 125//125 123//123
f 123//123 125//125 126//126
g 9f7a6e22-e31d-11ea-8a10-54bf646e7e1f
f 128//128 129//129 127//127
f 127//127 129//129 130//130
g 9f7b0a48-e31d-11ea-b7db-54bf646e7e1f
f 132//132 133//133 131//131
f 131//131 133//133 134//134
g 9f7ba68a-e31d-11ea-9506-54bf646e7e1f
f 136//136 137//137 135//135
f 135//135 137//137 138//138
g 9f7c42dc-e31d-11ea-8fd4-54bf646e7e1f
f 140//140 141//141 139//139
f 139//139 141//141 142//142
g 9f7cdf18-e31d-11ea-b992-54bf646e7e1f
f 144//144 145//145 143//143
f 143//143 145//145 146//146
g 9f7da292-e31d-11ea-b9eb-54bf646e7e1f
f 148//148 149//149 147//147
f 147//147 149//149 150//150
g 9f7e65c8-e31d-11ea-84ab-54bf646e7e1f
f 152//152 153//153 151//151
f 151//151 153//153 154//154
g 9f7f2922-e31d-11ea-a3ff-54bf646e7e1f
f 156//156 157//157 155//155
f 155//155 157//157 158//158
g 9f7fec78-e31d-11ea-85be-54bf646e7e1f
f 160//160 161//161 159//159
f 159//159 161//161 162//162
g 9f80afd2-e31d-11ea-85d4-54bf646e7e1f
f 164//164 165//165 163//163
f 163//163 165//165 166//166
g 9f819a3a-e31d-11ea-ad6e-54bf646e7e1f
f 168//168 169//169 167//167
f 167//167 169//169 170//170
g 9f825d98-e31d-11ea-a310-54bf646e7e1f
f 172//172 173//173 171//171
f 171//171 173//173 174//174
g 9f83961c-e31d-11ea-a00f-54bf646e7e1f
f 176//176 177//177 175//175
f 175//175 177//177 178//178
g 9f84ceac-e31d-11ea-ae56-54bf646e7e1f
f 180//180 189//189 179//179
f 179//179 189//189 190//190
f 179//179 190//190 192//192
f 192//192 190//190 191//191
f 180//180 181//181 189//189
f 189//189 181//181 188//188
f 188//188 181//181 187//187
f 187//187 181//181 182//182
f 187//187 182//182 186//186
f 186//186 182//182 183//183
f 186//186 183//183 185//185
f 185//185 183//183 184//184
g 9fceac2e-e31d-11ea-9b59-54bf646e7e1f
f 193//193 194//194 196//196
f 196//196 194//194 195//195
g 9fcfbd98-e31d-11ea-b92f-54bf646e7e1f
f 197//197 198//198 200//200
f 200//200 198//198 199//199
g 9fd0cf12-e31d-11ea-b266-54bf646e7e1f
f 201//201 202//202 204//204
f 204//204 202//202 203//203
g 9fd1b96e-e31d-11ea-b1f9-54bf646e7e1f
f 205//205 206//206 208//208
f 208//208 206//206 207//207
g 9fd2cafa-e31d-11ea-a440-54bf646e7e1f
f 209//209 210//210 212//212
f 212//212 210//210 211//211
g 9fd3b56e-e31d-11ea-95d3-54bf646e7e1f
f 213//213 214//214 216//216
f 216//216 214//214 215//215
g 9fd4c6e4-e31d-11ea-89fe-54bf646e7e1f
f 217//217 218//218 220//220
f 220//220 218//218 219//219
g 9fd5d868-e31d-11ea-ab1b-54bf646e7e1f
f 221//221 222//222 224//224
f 224//224 222//222 223//223
g 9fd710f6-e31d-11ea-8f16-54bf646e7e1f
f 225//225 226//226 228//228
f 228//228 226//226 227//227
g 9fd82270-e31d-11ea-a3f3-54bf646e7e1f
f 229//229 230//230 232//232
f 232//232 230//230 231//231
g 9fd933da-e31d-11ea-8a48-54bf646e7e1f
f 233//233 234//234 236//236
f 236//236 234//234 235//235
g 9fda6c78-e31d-11ea-a049-54bf646e7e1f
f 237//237 238//238 240//240
f 240//240 238//238 239//239
g 9fdb7de8-e31d-11ea-b529-54bf646e7e1f
f 252//252 241//241 251//251
f 251//251 241//241 242//242
f 251//251 242//242 250//250
f 250//250 242//242 243//243
f 250//250 243//243 244//244
f 245//245 246//246 244//244
f 244//244 246//246 247//247
f 244//244 247//247 249//249
f 249//249 247//247 248//248
f 249//249 250//250 244//244
g 9fdcdd8c-e31d-11ea-9b58-54bf646e7e1f
f 254//254 256//256 253//253
f 253//253 256//256 257//257
f 253//253 257//257 264//264
f 264//264 257//257 263//263
f 263//263 257//257 258//258
f 263//263 258//258 260//260
f 260//260 258//258 259//259
f 254//254 255//255 256//256
f 260//260 261//261 263//263
f 263//263 261//261 262//262

# End of file